<svg xmlns="http://www.w3.org/2000/svg" width="1200" height="600" viewBox="0 0 1200 600">
<desc>Equity curve with drawdown fill</desc>
<text x="600.0" y="18.0" text-anchor="middle" font-family="sans-serif" font-size="14">Portfolio 2009</text>
<rect x="70" y="25" width="1100" height="525" fill="white" stroke="#ccc" />
<line x1="70" y1="550.00" x2="1170" y2="550.00" stroke="#eee"/>
<text x="62" y="554.0" text-anchor="end" font-family="sans-serif" font-size="11" fill="#555">0.00</text>
<line x1="70" y1="445.00" x2="1170" y2="445.00" stroke="#eee"/>
<text x="62" y="449.0" text-anchor="end" font-family="sans-serif" font-size="11" fill="#555">26011</text>
<line x1="70" y1="340.00" x2="1170" y2="340.00" stroke="#eee"/>
<text x="62" y="344.0" text-anchor="end" font-family="sans-serif" font-size="11" fill="#555">52023</text>
<line x1="70" y1="235.00" x2="1170" y2="235.00" stroke="#eee"/>
<text x="62" y="239.0" text-anchor="end" font-family="sans-serif" font-size="11" fill="#555">78034</text>
<line x1="70" y1="130.00" x2="1170" y2="130.00" stroke="#eee"/>
<text x="62" y="134.0" text-anchor="end" font-family="sans-serif" font-size="11" fill="#555">104046</text>
<line x1="70" y1="25.00" x2="1170" y2="25.00" stroke="#eee"/>
<text x="62" y="29.0" text-anchor="end" font-family="sans-serif" font-size="11" fill="#555">130057</text>
<line x1="159.60" y1="25" x2="159.60" y2="550" stroke="#f2f2f2"/>
<text x="159.60" y="566" text-anchor="middle" font-family="sans-serif" font-size="11" fill="#555">Feb</text>
<line x1="244.39" y1="25" x2="244.39" y2="550" stroke="#f2f2f2"/>
<text x="244.39" y="566" text-anchor="middle" font-family="sans-serif" font-size="11" fill="#555">Mar</text>
<line x1="338.26" y1="25" x2="338.26" y2="550" stroke="#f2f2f2"/>
<text x="338.26" y="566" text-anchor="middle" font-family="sans-serif" font-size="11" fill="#555">Apr</text>
<line x1="429.11" y1="25" x2="429.11" y2="550" stroke="#f2f2f2"/>
<text x="429.11" y="566" text-anchor="middle" font-family="sans-serif" font-size="11" fill="#555">May</text>
<line x1="522.99" y1="25" x2="522.99" y2="550" stroke="#f2f2f2"/>
<text x="522.99" y="566" text-anchor="middle" font-family="sans-serif" font-size="11" fill="#555">Jun</text>
<line x1="613.84" y1="25" x2="613.84" y2="550" stroke="#f2f2f2"/>
<text x="613.84" y="566" text-anchor="middle" font-family="sans-serif" font-size="11" fill="#555">Jul</text>
<line x1="707.71" y1="25" x2="707.71" y2="550" stroke="#f2f2f2"/>
<text x="707.71" y="566" text-anchor="middle" font-family="sans-serif" font-size="11" fill="#555">Aug</text>
<line x1="801.59" y1="25" x2="801.59" y2="550" stroke="#f2f2f2"/>
<text x="801.59" y="566" text-anchor="middle" font-family="sans-serif" font-size="11" fill="#555">Sep</text>
<line x1="892.44" y1="25" x2="892.44" y2="550" stroke="#f2f2f2"/>
<text x="892.44" y="566" text-anchor="middle" font-family="sans-serif" font-size="11" fill="#555">Oct</text>
<line x1="986.31" y1="25" x2="986.31" y2="550" stroke="#f2f2f2"/>
<text x="986.31" y="566" text-anchor="middle" font-family="sans-serif" font-size="11" fill="#555">Nov</text>
<line x1="1077.16" y1="25" x2="1077.16" y2="550" stroke="#f2f2f2"/>
<text x="1077.16" y="566" text-anchor="middle" font-family="sans-serif" font-size="11" fill="#555">Dec</text>
<line x1="1170.00" y1="25" x2="1170.00" y2="550" stroke="#f2f2f2"/>
<text x="1170.00" y="566" text-anchor="middle" font-family="sans-serif" font-size="11" fill="#555">Jan</text>
<line x1="70" y1="550" x2="1170" y2="550" stroke="#888"/>
<line x1="70" y1="25" x2="70" y2="550" stroke="#888"/>
<path d="M 70.00 146.33 L 70.00 148.09 Z" fill="#d0d0d0" fill-opacity="0.5" stroke="none"/>
<path d="M 78.88 143.39 L 78.89 143.39 L 78.92 143.39 L 79.02 143.39 L 79.10 143.39 L 79.21 143.39 L 79.51 143.39 L 80.04 143.39 L 81.46 143.39 L 81.86 143.39 L 82.01 143.39 L 82.12 143.39 L 82.18 143.39 L 82.30 143.39 L 83.05 143.39 L 84.03 143.39 L 84.84 143.39 L 84.90 143.39 L 85.35 143.39 L 85.60 143.39 L 85.67 143.39 L 85.90 143.39 L 86.03 143.39 L 86.35 143.39 L 86.98 143.39 L 86.98 145.49 L 86.35 148.95 L 86.03 151.73 L 85.90 154.75 L 85.67 157.80 L 85.60 158.95 L 85.35 152.94 L 84.90 155.95 L 84.84 159.19 L 84.03 162.50 L 83.05 165.80 L 82.30 159.90 L 82.18 161.73 L 82.12 163.71 L 82.01 167.00 L 81.86 165.48 L 81.46 159.58 L 80.04 162.92 L 79.51 165.97 L 79.21 165.47 L 79.10 166.13 L 79.02 167.25 L 78.92 161.49 L 78.89 155.58 L 78.88 149.54 Z" fill="#d0d0d0" fill-opacity="0.5" stroke="none"/>
<path d="M 91.73 131.05 L 91.87 131.05 L 91.98 131.05 L 92.07 131.05 L 99.13 131.05 L 99.13 131.09 L 92.07 133.41 L 91.98 136.97 L 91.87 137.09 L 91.73 137.35 Z" fill="#d0d0d0" fill-opacity="0.5" stroke="none"/>
<path d="M 100.95 129.45 L 101.02 129.45 L 101.32 129.45 L 101.32 131.49 L 101.02 134.29 L 100.95 135.81 Z" fill="#d0d0d0" fill-opacity="0.5" stroke="none"/>
<path d="M 106.19 111.12 L 106.25 111.12 L 106.79 111.12 L 106.93 111.12 L 106.98 111.12 L 106.98 112.88 L 106.93 114.31 L 106.79 113.04 L 106.25 114.48 L 106.19 117.74 Z" fill="#d0d0d0" fill-opacity="0.5" stroke="none"/>
<path d="M 109.90 110.08 L 109.91 110.08 L 109.91 112.88 L 109.90 116.73 Z" fill="#d0d0d0" fill-opacity="0.5" stroke="none"/>
<path d="M 110.58 105.20 L 111.65 105.20 L 112.92 105.20 L 112.92 107.02 L 111.65 110.76 L 110.58 111.91 Z" fill="#d0d0d0" fill-opacity="0.5" stroke="none"/>
<path d="M 123.38 97.25 L 124.19 97.25 L 124.19 100.65 L 123.38 104.07 Z" fill="#d0d0d0" fill-opacity="0.5" stroke="none"/>
<path d="M 126.61 94.88 L 126.75 94.88 L 127.15 94.88 L 127.15 96.61 L 126.75 100.45 L 126.61 101.73 Z" fill="#d0d0d0" fill-opacity="0.5" stroke="none"/>
<path d="M 133.33 76.35 L 133.46 76.35 L 133.54 76.35 L 133.62 76.35 L 134.20 76.35 L 134.53 76.35 L 134.68 76.35 L 134.76 76.35 L 141.33 76.35 L 142.56 76.35 L 143.08 76.35 L 143.24 76.35 L 143.31 76.35 L 143.32 76.35 L 143.46 76.35 L 143.73 76.35 L 144.90 76.35 L 145.46 76.35 L 145.62 76.35 L 145.91 76.35 L 146.05 76.35 L 146.35 76.35 L 146.52 76.35 L 147.55 76.35 L 148.53 76.35 L 149.27 76.35 L 151.45 76.35 L 152.10 76.35 L 152.40 76.35 L 152.67 76.35 L 152.73 76.35 L 152.83 76.35 L 155.38 76.35 L 155.53 76.35 L 155.53 78.78 L 155.38 82.48 L 152.83 85.72 L 152.73 88.32 L 152.67 90.53 L 152.40 83.54 L 152.10 87.49 L 151.45 80.44 L 149.27 82.49 L 148.53 86.44 L 147.55 89.12 L 146.52 93.03 L 146.35 96.87 L 146.05 100.72 L 145.91 103.20 L 145.62 107.00 L 145.46 110.58 L 144.90 112.85 L 143.73 106.15 L 143.46 109.80 L 143.32 112.92 L 143.31 106.25 L 143.24 99.55 L 143.08 92.70 L 142.56 95.76 L 141.33 98.22 L 134.76 91.32 L 134.68 94.64 L 134.53 87.72 L 134.20 80.68 L 133.62 82.43 L 133.54 83.95 L 133.46 83.96 L 133.33 83.45 Z" fill="#d0d0d0" fill-opacity="0.5" stroke="none"/>
<path d="M 164.84 75.58 L 164.89 75.58 L 166.16 75.58 L 166.16 76.66 L 164.89 80.22 L 164.84 82.69 Z" fill="#d0d0d0" fill-opacity="0.5" stroke="none"/>
<path d="M 170.23 49.85 L 173.52 49.85 L 173.52 49.99 L 170.23 51.96 Z" fill="#d0d0d0" fill-opacity="0.5" stroke="none"/>
<path d="M 177.07 36.89 L 177.16 36.89 L 184.65 36.89 L 185.59 36.89 L 185.67 36.89 L 186.89 36.89 L 186.99 36.89 L 187.03 36.89 L 187.13 36.89 L 187.59 36.89 L 187.77 36.89 L 188.25 36.89 L 188.78 36.89 L 188.92 36.89 L 188.92 39.18 L 188.78 43.41 L 188.25 46.88 L 187.77 47.39 L 187.59 51.24 L 187.13 55.14 L 187.03 57.95 L 186.99 60.66 L 186.89 53.29 L 185.67 45.80 L 185.59 48.21 L 184.65 40.65 L 177.16 43.35 L 177.07 44.49 Z" fill="#d0d0d0" fill-opacity="0.5" stroke="none"/>
<path d="M 189.30 34.09 L 190.06 34.09 L 190.06 37.80 L 189.30 41.73 Z" fill="#d0d0d0" fill-opacity="0.5" stroke="none"/>
<path d="M 194.05 32.25 L 194.71 32.25 L 194.82 32.25 L 194.82 34.72 L 194.71 35.63 L 194.05 39.91 Z" fill="#d0d0d0" fill-opacity="0.5" stroke="none"/>
<path d="M 204.92 25.10 L 206.90 25.10 L 208.20 25.10 L 208.33 25.10 L 208.44 25.10 L 212.95 25.10 L 215.29 25.10 L 215.94 25.10 L 218.95 25.10 L 219.28 25.10 L 219.29 25.10 L 219.38 25.10 L 219.44 25.10 L 219.53 25.10 L 219.66 25.10 L 226.45 25.10 L 226.46 25.10 L 226.67 25.10 L 227.14 25.10 L 227.42 25.10 L 227.62 25.10 L 227.87 25.10 L 228.25 25.10 L 230.49 25.10 L 231.01 25.10 L 231.60 25.10 L 231.73 25.10 L 233.33 25.10 L 233.79 25.10 L 234.26 25.10 L 234.31 25.10 L 240.32 25.10 L 247.48 25.10 L 251.26 25.10 L 251.97 25.10 L 252.50 25.10 L 253.57 25.10 L 255.60 25.10 L 258.33 25.10 L 258.49 25.10 L 260.41 25.10 L 260.53 25.10 L 260.64 25.10 L 261.32 25.10 L 261.61 25.10 L 270.58 25.10 L 272.56 25.10 L 273.33 25.10 L 273.42 25.10 L 273.53 25.10 L 273.98 25.10 L 274.12 25.10 L 275.28 25.10 L 276.16 25.10 L 278.74 25.10 L 279.42 25.10 L 279.50 25.10 L 279.65 25.10 L 281.93 25.10 L 289.77 25.10 L 291.20 25.10 L 294.53 25.10 L 297.58 25.10 L 297.66 25.10 L 297.83 25.10 L 298.30 25.10 L 300.05 25.10 L 300.50 25.10 L 300.57 25.10 L 300.61 25.10 L 300.71 25.10 L 300.75 25.10 L 300.88 25.10 L 301.30 25.10 L 303.07 25.10 L 303.39 25.10 L 303.47 25.10 L 303.57 25.10 L 303.73 25.10 L 303.86 25.10 L 304.05 25.10 L 310.92 25.10 L 312.10 25.10 L 312.29 25.10 L 312.76 25.10 L 312.92 25.10 L 313.02 25.10 L 313.38 25.10 L 315.12 25.10 L 315.46 25.10 L 315.86 25.10 L 316.40 25.10 L 318.58 25.10 L 318.95 25.10 L 318.98 25.10 L 319.11 25.10 L 319.39 25.10 L 322.04 25.10 L 324.79 25.10 L 324.91 25.10 L 332.99 25.10 L 334.11 25.10 L 336.76 25.10 L 337.28 25.10 L 338.50 25.10 L 342.97 25.10 L 343.05 25.10 L 343.20 25.10 L 343.56 25.10 L 353.37 25.10 L 355.28 25.10 L 355.49 25.10 L 356.51 25.10 L 357.73 25.10 L 359.73 25.10 L 360.98 25.10 L 361.62 25.10 L 363.51 25.10 L 364.55 25.10 L 364.70 25.10 L 364.74 25.10 L 365.57 25.10 L 376.33 25.10 L 376.37 25.10 L 376.70 25.10 L 382.37 25.10 L 386.08 25.10 L 387.45 25.10 L 396.05 25.10 L 397.81 25.10 L 400.11 25.10 L 403.69 25.10 L 409.10 25.10 L 409.75 25.10 L 419.31 25.10 L 419.45 25.10 L 421.83 25.10 L 425.50 25.10 L 427.88 25.10 L 440.12 25.10 L 440.27 25.10 L 440.36 25.10 L 443.25 25.10 L 445.98 25.10 L 446.17 25.10 L 448.96 25.10 L 449.00 25.10 L 449.06 25.10 L 449.09 25.10 L 452.02 25.10 L 452.05 25.10 L 452.20 25.10 L 452.52 25.10 L 465.62 25.10 L 467.20 25.10 L 468.63 25.10 L 473.91 25.10 L 484.89 25.10 L 488.51 25.10 L 488.62 25.10 L 489.05 25.10 L 490.86 25.10 L 491.85 25.10 L 492.00 25.10 L 492.09 25.10 L 494.51 25.10 L 506.01 25.10 L 506.82 25.10 L 509.68 25.10 L 509.89 25.10 L 512.77 25.10 L 527.48 25.10 L 527.55 25.10 L 527.65 25.10 L 528.07 25.10 L 530.26 25.10 L 533.73 25.10 L 534.17 25.10 L 536.81 25.10 L 536.87 25.10 L 536.92 25.10 L 537.05 25.10 L 537.17 25.10 L 537.57 25.10 L 545.33 25.10 L 548.34 25.10 L 548.70 25.10 L 548.91 25.10 L 549.73 25.10 L 552.16 25.10 L 552.66 25.10 L 554.99 25.10 L 555.33 25.10 L 555.55 25.10 L 557.93 25.10 L 566.37 25.10 L 567.50 25.10 L 573.88 25.10 L 573.96 25.10 L 576.89 25.10 L 579.69 25.10 L 591.12 25.10 L 591.83 25.10 L 594.21 25.10 L 595.08 25.10 L 598.07 25.10 L 612.65 25.10 L 615.99 25.10 L 618.57 25.10 L 630.03 25.10 L 633.64 25.10 L 640.23 25.10 L 657.29 25.10 L 660.84 25.10 L 672.58 25.10 L 682.55 25.10 L 682.88 25.10 L 697.45 25.10 L 699.58 25.10 L 699.58 25.64 L 697.45 29.62 L 682.88 32.00 L 682.55 35.65 L 672.58 38.23 L 660.84 39.98 L 657.29 44.25 L 640.23 45.10 L 633.64 47.38 L 630.03 45.50 L 618.57 49.12 L 615.99 53.36 L 612.65 57.54 L 598.07 59.97 L 595.08 59.84 L 594.21 64.00 L 591.83 68.13 L 591.12 60.79 L 579.69 62.56 L 576.89 63.62 L 573.96 56.22 L 573.88 57.66 L 567.50 50.19 L 566.37 50.79 L 557.93 52.86 L 555.55 56.66 L 555.33 60.40 L 554.99 57.92 L 552.66 61.78 L 552.16 65.05 L 549.73 57.67 L 548.91 58.95 L 548.70 51.49 L 548.34 54.97 L 545.33 55.52 L 537.57 48.02 L 537.17 49.66 L 537.05 42.09 L 536.92 45.37 L 536.87 37.78 L 536.81 30.07 L 534.17 34.44 L 533.73 36.78 L 530.26 40.86 L 528.07 45.16 L 527.65 48.18 L 527.55 40.60 L 527.48 43.33 L 512.77 35.69 L 509.89 36.13 L 509.68 40.10 L 506.82 44.13 L 506.01 36.50 L 494.51 39.52 L 492.09 43.50 L 492.00 35.85 L 491.85 36.05 L 490.86 39.55 L 489.05 43.81 L 488.62 48.05 L 488.51 47.99 L 484.89 40.40 L 473.91 44.26 L 468.63 36.62 L 467.20 39.37 L 465.62 41.57 L 452.52 45.85 L 452.20 50.09 L 452.05 51.95 L 452.02 55.61 L 449.09 59.78 L 449.06 63.24 L 449.00 55.84 L 448.96 60.01 L 446.17 62.33 L 445.98 66.19 L 443.25 68.83 L 440.36 71.36 L 440.27 64.16 L 440.12 66.56 L 427.88 59.21 L 425.50 51.76 L 421.83 55.96 L 419.45 59.05 L 419.31 57.21 L 409.75 49.73 L 409.10 53.59 L 403.69 46.07 L 400.11 50.27 L 397.81 53.83 L 396.05 53.44 L 387.45 56.04 L 386.08 57.63 L 382.37 60.90 L 376.70 53.47 L 376.37 45.95 L 376.33 49.62 L 365.57 42.05 L 364.74 46.31 L 364.70 48.77 L 364.55 46.92 L 363.51 39.32 L 361.62 42.77 L 360.98 46.67 L 359.73 49.62 L 357.73 42.06 L 356.51 34.40 L 355.49 38.71 L 355.28 41.73 L 353.37 45.59 L 343.56 46.40 L 343.20 47.53 L 343.05 49.99 L 342.97 53.17 L 338.50 45.65 L 337.28 49.88 L 336.76 53.73 L 334.11 56.09 L 332.99 59.22 L 324.91 62.95 L 324.79 55.56 L 322.04 58.13 L 319.39 61.21 L 319.11 64.47 L 318.98 68.24 L 318.95 72.04 L 318.58 76.09 L 316.40 78.12 L 315.86 81.87 L 315.46 85.00 L 315.12 88.05 L 313.38 91.37 L 313.02 84.34 L 312.92 87.82 L 312.76 89.94 L 312.29 90.53 L 312.10 94.17 L 310.92 97.38 L 304.05 99.89 L 303.86 101.91 L 303.73 105.16 L 303.57 108.53 L 303.47 109.88 L 303.39 111.25 L 303.07 104.50 L 301.30 106.67 L 300.88 110.17 L 300.75 103.41 L 300.71 105.81 L 300.61 98.99 L 300.57 101.52 L 300.50 94.67 L 300.05 87.70 L 298.30 90.98 L 297.83 95.14 L 297.66 94.87 L 297.58 96.83 L 294.53 89.88 L 291.20 93.17 L 289.77 97.05 L 281.93 100.90 L 279.65 104.10 L 279.50 106.87 L 279.42 110.64 L 278.74 113.99 L 276.16 114.86 L 275.28 116.03 L 274.12 118.76 L 273.98 112.13 L 273.53 115.04 L 273.42 115.82 L 273.33 116.56 L 272.56 109.89 L 270.58 112.63 L 261.61 114.60 L 261.32 115.88 L 260.64 118.88 L 260.53 117.01 L 260.41 115.80 L 258.49 109.12 L 258.33 112.69 L 255.60 113.83 L 253.57 115.88 L 252.50 109.19 L 251.97 102.41 L 251.26 104.62 L 247.48 107.61 L 240.32 100.81 L 234.31 93.92 L 234.26 97.23 L 233.79 90.30 L 233.33 83.27 L 231.73 86.01 L 231.60 86.41 L 231.01 79.32 L 230.49 82.06 L 228.25 85.24 L 227.87 86.00 L 227.62 89.50 L 227.42 91.86 L 227.14 84.86 L 226.67 88.79 L 226.46 87.39 L 226.45 80.35 L 219.66 73.19 L 219.53 65.94 L 219.44 66.27 L 219.38 58.97 L 219.29 59.99 L 219.28 52.60 L 218.95 45.08 L 215.94 48.87 L 215.29 50.06 L 212.95 42.51 L 208.44 46.74 L 208.33 44.55 L 208.20 36.98 L 206.90 29.28 L 204.92 32.85 Z" fill="#d0d0d0" fill-opacity="0.5" stroke="none"/>
<path d="M 706.76 25.00 L 706.90 25.00 L 715.12 25.00 L 715.72 25.00 L 727.60 25.00 L 727.82 25.00 L 727.93 25.00 L 728.03 25.00 L 728.07 25.00 L 743.48 25.00 L 757.68 25.00 L 764.18 25.00 L 764.28 25.00 L 764.47 25.00 L 769.45 25.00 L 788.88 25.00 L 789.00 25.00 L 800.58 25.00 L 803.78 25.00 L 806.90 25.00 L 812.48 25.00 L 812.86 25.00 L 824.00 25.00 L 827.65 25.00 L 830.60 25.00 L 842.87 25.00 L 846.41 25.00 L 866.32 25.00 L 870.65 25.00 L 873.25 25.00 L 876.01 25.00 L 883.69 25.00 L 883.74 25.00 L 887.53 25.00 L 891.20 25.00 L 897.19 25.00 L 897.36 25.00 L 918.89 25.00 L 930.35 25.00 L 936.49 25.00 L 947.17 25.00 L 952.11 25.00 L 954.94 25.00 L 970.28 25.00 L 970.36 25.00 L 970.45 25.00 L 973.12 25.00 L 976.48 25.00 L 982.34 25.00 L 991.77 25.00 L 993.64 25.00 L 993.72 25.00 L 993.85 25.00 L 1021.57 25.00 L 1033.92 25.00 L 1041.89 25.00 L 1045.48 25.00 L 1064.12 25.00 L 1065.01 25.00 L 1066.01 25.00 L 1067.11 25.00 L 1074.36 25.00 L 1088.14 25.00 L 1088.20 25.00 L 1096.44 25.00 L 1096.51 25.00 L 1097.56 25.00 L 1100.10 25.00 L 1109.27 25.00 L 1109.46 25.00 L 1109.57 25.00 L 1120.70 25.00 L 1125.89 25.00 L 1126.04 25.00 L 1126.24 25.00 L 1128.98 25.00 L 1130.71 25.00 L 1142.74 25.00 L 1145.78 25.00 L 1164.03 25.00 L 1168.96 25.00 L 1170.00 25.00 L 1170.00 40.82 L 1168.96 42.99 L 1164.03 43.31 L 1145.78 35.64 L 1142.74 38.60 L 1130.71 42.92 L 1128.98 43.19 L 1126.24 45.45 L 1126.04 45.60 L 1125.89 48.66 L 1120.70 52.06 L 1109.57 51.22 L 1109.46 49.98 L 1109.27 49.35 L 1100.10 41.76 L 1097.56 44.02 L 1096.51 48.00 L 1096.44 50.29 L 1088.20 42.72 L 1088.14 35.05 L 1074.36 34.20 L 1067.11 35.95 L 1066.01 36.25 L 1065.01 28.50 L 1064.12 32.88 L 1045.48 32.88 L 1041.89 32.90 L 1033.92 36.49 L 1021.57 40.84 L 993.85 44.37 L 993.72 44.53 L 993.64 45.94 L 991.77 38.31 L 982.34 40.74 L 976.48 44.12 L 973.12 47.54 L 970.45 49.24 L 970.36 41.66 L 970.28 43.45 L 954.94 45.56 L 952.11 46.69 L 947.17 49.10 L 936.49 52.64 L 930.35 56.87 L 918.89 58.70 L 897.36 60.17 L 897.19 52.72 L 891.20 56.34 L 887.53 58.96 L 883.74 62.76 L 883.69 64.91 L 876.01 57.52 L 873.25 61.00 L 870.65 61.61 L 866.32 65.40 L 846.41 66.54 L 842.87 67.46 L 830.60 69.39 L 827.65 73.47 L 824.00 75.41 L 812.86 74.50 L 812.48 67.23 L 806.90 70.51 L 803.78 72.86 L 800.58 65.58 L 789.00 65.31 L 788.88 64.74 L 769.45 57.35 L 764.47 58.04 L 764.28 56.80 L 764.18 59.55 L 757.68 52.10 L 743.48 53.78 L 728.07 46.25 L 728.03 49.18 L 727.93 41.60 L 727.82 40.98 L 727.60 33.30 L 715.72 37.66 L 715.12 29.94 L 706.90 32.74 L 706.76 32.78 Z" fill="#d0d0d0" fill-opacity="0.5" stroke="none"/>
<polyline fill="none" stroke="#111" stroke-width="1.2" points="70.00,148.09 71.08,146.26 77.88,144.90 78.18,143.39 78.88,149.54 78.89,155.58 78.92,161.49 79.02,167.25 79.10,166.13 79.21,165.47 79.51,165.97 80.04,162.92 81.46,159.58 81.86,165.48 82.01,167.00 82.12,163.71 82.18,161.73 82.30,159.90 83.05,165.80 84.03,162.50 84.84,159.19 84.90,155.95 85.35,152.94 85.60,158.95 85.67,157.80 85.90,154.75 86.03,151.73 86.35,148.95 86.98,145.49 87.95,142.88 88.56,140.75 88.62,137.09 88.76,136.89 88.82,133.98 91.24,131.05 91.73,137.35 91.87,137.09 91.98,136.97 92.07,133.41 99.13,131.09 100.14,129.45 100.95,135.81 101.02,134.29 101.32,131.49 102.79,128.24 103.42,124.88 103.75,121.77 103.83,118.63 104.06,114.95 104.47,111.56 105.31,111.12 106.19,117.74 106.25,114.48 106.79,113.04 106.93,114.31 106.98,112.88 109.35,110.08 109.90,116.73 109.91,112.88 109.95,109.14 110.01,105.20 110.58,111.91 111.65,110.76 112.92,107.02 113.11,105.16 120.20,104.56 121.17,101.09 121.65,97.25 123.38,104.07 124.19,100.65 124.91,96.84 125.72,94.88 126.61,101.73 126.75,100.45 127.15,96.61 128.32,93.12 128.45,89.71 129.20,86.35 129.43,85.11 129.87,81.51 130.50,78.75 131.08,76.35 133.33,83.45 133.46,83.96 133.54,83.95 133.62,82.43 134.20,80.68 134.53,87.72 134.68,94.64 134.76,91.32 141.33,98.22 142.56,95.76 143.08,92.70 143.24,99.55 143.31,106.25 143.32,112.92 143.46,109.80 143.73,106.15 144.90,112.85 145.46,110.58 145.62,107.00 145.91,103.20 146.05,100.72 146.35,96.87 146.52,93.03 147.55,89.12 148.53,86.44 149.27,82.49 151.45,80.44 152.10,87.49 152.40,83.54 152.67,90.53 152.73,88.32 152.83,85.72 155.38,82.48 155.53,78.78 155.71,75.58 164.84,82.69 164.89,80.22 166.16,76.66 167.44,73.23 167.52,70.29 167.66,68.85 167.77,67.95 168.09,64.15 168.82,60.94 169.54,57.60 169.67,54.03 170.07,49.85 170.23,51.96 173.52,49.99 173.77,46.65 173.92,44.53 176.52,40.57 176.67,36.89 177.07,44.49 177.16,43.35 184.65,40.65 185.59,48.21 185.67,45.80 186.89,53.29 186.99,60.66 187.03,57.95 187.13,55.14 187.59,51.24 187.77,47.39 188.25,46.88 188.78,43.41 188.92,39.18 188.96,34.91 189.26,34.09 189.30,41.73 190.06,37.80 191.02,34.01 191.89,33.44 192.11,32.25 194.05,39.91 194.71,35.63 194.82,34.72 195.05,32.15 197.62,28.70 197.93,25.10 204.92,32.85 206.90,29.28 208.20,36.98 208.33,44.55 208.44,46.74 212.95,42.51 215.29,50.06 215.94,48.87 218.95,45.08 219.28,52.60 219.29,59.99 219.38,58.97 219.44,66.27 219.53,65.94 219.66,73.19 226.45,80.35 226.46,87.39 226.67,88.79 227.14,84.86 227.42,91.86 227.62,89.50 227.87,86.00 228.25,85.24 230.49,82.06 231.01,79.32 231.60,86.41 231.73,86.01 233.33,83.27 233.79,90.30 234.26,97.23 234.31,93.92 240.32,100.81 247.48,107.61 251.26,104.62 251.97,102.41 252.50,109.19 253.57,115.88 255.60,113.83 258.33,112.69 258.49,109.12 260.41,115.80 260.53,117.01 260.64,118.88 261.32,115.88 261.61,114.60 270.58,112.63 272.56,109.89 273.33,116.56 273.42,115.82 273.53,115.04 273.98,112.13 274.12,118.76 275.28,116.03 276.16,114.86 278.74,113.99 279.42,110.64 279.50,106.87 279.65,104.10 281.93,100.90 289.77,97.05 291.20,93.17 294.53,89.88 297.58,96.83 297.66,94.87 297.83,95.14 298.30,90.98 300.05,87.70 300.50,94.67 300.57,101.52 300.61,98.99 300.71,105.81 300.75,103.41 300.88,110.17 301.30,106.67 303.07,104.50 303.39,111.25 303.47,109.88 303.57,108.53 303.73,105.16 303.86,101.91 304.05,99.89 310.92,97.38 312.10,94.17 312.29,90.53 312.76,89.94 312.92,87.82 313.02,84.34 313.38,91.37 315.12,88.05 315.46,85.00 315.86,81.87 316.40,78.12 318.58,76.09 318.95,72.04 318.98,68.24 319.11,64.47 319.39,61.21 322.04,58.13 324.79,55.56 324.91,62.95 332.99,59.22 334.11,56.09 336.76,53.73 337.28,49.88 338.50,45.65 342.97,53.17 343.05,49.99 343.20,47.53 343.56,46.40 353.37,45.59 355.28,41.73 355.49,38.71 356.51,34.40 357.73,42.06 359.73,49.62 360.98,46.67 361.62,42.77 363.51,39.32 364.55,46.92 364.70,48.77 364.74,46.31 365.57,42.05 376.33,49.62 376.37,45.95 376.70,53.47 382.37,60.90 386.08,57.63 387.45,56.04 396.05,53.44 397.81,53.83 400.11,50.27 403.69,46.07 409.10,53.59 409.75,49.73 419.31,57.21 419.45,59.05 421.83,55.96 425.50,51.76 427.88,59.21 440.12,66.56 440.27,64.16 440.36,71.36 443.25,68.83 445.98,66.19 446.17,62.33 448.96,60.01 449.00,55.84 449.06,63.24 449.09,59.78 452.02,55.61 452.05,51.95 452.20,50.09 452.52,45.85 465.62,41.57 467.20,39.37 468.63,36.62 473.91,44.26 484.89,40.40 488.51,47.99 488.62,48.05 489.05,43.81 490.86,39.55 491.85,36.05 492.00,35.85 492.09,43.50 494.51,39.52 506.01,36.50 506.82,44.13 509.68,40.10 509.89,36.13 512.77,35.69 527.48,43.33 527.55,40.60 527.65,48.18 528.07,45.16 530.26,40.86 533.73,36.78 534.17,34.44 536.81,30.07 536.87,37.78 536.92,45.37 537.05,42.09 537.17,49.66 537.57,48.02 545.33,55.52 548.34,54.97 548.70,51.49 548.91,58.95 549.73,57.67 552.16,65.05 552.66,61.78 554.99,57.92 555.33,60.40 555.55,56.66 557.93,52.86 566.37,50.79 567.50,50.19 573.88,57.66 573.96,56.22 576.89,63.62 579.69,62.56 591.12,60.79 591.83,68.13 594.21,64.00 595.08,59.84 598.07,59.97 612.65,57.54 615.99,53.36 618.57,49.12 630.03,45.50 633.64,47.38 640.23,45.10 657.29,44.25 660.84,39.98 672.58,38.23 682.55,35.65 682.88,32.00 697.45,29.62 699.58,25.64 700.76,25.00 706.76,32.78 706.90,32.74 715.12,29.94 715.72,37.66 727.60,33.30 727.82,40.98 727.93,41.60 728.03,49.18 728.07,46.25 743.48,53.78 757.68,52.10 764.18,59.55 764.28,56.80 764.47,58.04 769.45,57.35 788.88,64.74 789.00,65.31 800.58,65.58 803.78,72.86 806.90,70.51 812.48,67.23 812.86,74.50 824.00,75.41 827.65,73.47 830.60,69.39 842.87,67.46 846.41,66.54 866.32,65.40 870.65,61.61 873.25,61.00 876.01,57.52 883.69,64.91 883.74,62.76 887.53,58.96 891.20,56.34 897.19,52.72 897.36,60.17 918.89,58.70 930.35,56.87 936.49,52.64 947.17,49.10 952.11,46.69 954.94,45.56 970.28,43.45 970.36,41.66 970.45,49.24 973.12,47.54 976.48,44.12 982.34,40.74 991.77,38.31 993.64,45.94 993.72,44.53 993.85,44.37 1021.57,40.84 1033.92,36.49 1041.89,32.90 1045.48,32.88 1064.12,32.88 1065.01,28.50 1066.01,36.25 1067.11,35.95 1074.36,34.20 1088.14,35.05 1088.20,42.72 1096.44,50.29 1096.51,48.00 1097.56,44.02 1100.10,41.76 1109.27,49.35 1109.46,49.98 1109.57,51.22 1120.70,52.06 1125.89,48.66 1126.04,45.60 1126.24,45.45 1128.98,43.19 1130.71,42.92 1142.74,38.60 1145.78,35.64 1164.03,43.31 1168.96,42.99 1170.00,40.82"/>
<text x="620.0" y="588" text-anchor="middle" font-family="sans-serif" font-size="12" fill="#333">UTC time</text>
<text x="15" y="287.5" transform="rotate(-90 15,287.5)" text-anchor="middle" font-family="sans-serif" font-size="12" fill="#333">Capital</text>
</svg>