<svg xmlns="http://www.w3.org/2000/svg" width="1200" height="600" viewBox="0 0 1200 600">
<desc>Equity curve with drawdown fill; x-axis is months only (no exact timestamps)</desc>
<text x="600.0" y="18.0" text-anchor="middle" font-family="sans-serif" font-size="14">Balance Curve 2008 (UTC)</text>
<rect x="70" y="25" width="1100" height="525" fill="white" stroke="#ccc" />
<line x1="70" y1="550.00" x2="1170" y2="550.00" stroke="#eee"/>
<text x="62" y="554.0" text-anchor="end" font-family="sans-serif" font-size="11" fill="#555">0.00</text>
<line x1="70" y1="445.00" x2="1170" y2="445.00" stroke="#eee"/>
<text x="62" y="449.0" text-anchor="end" font-family="sans-serif" font-size="11" fill="#555">727048</text>
<line x1="70" y1="340.00" x2="1170" y2="340.00" stroke="#eee"/>
<text x="62" y="344.0" text-anchor="end" font-family="sans-serif" font-size="11" fill="#555">1454096</text>
<line x1="70" y1="235.00" x2="1170" y2="235.00" stroke="#eee"/>
<text x="62" y="239.0" text-anchor="end" font-family="sans-serif" font-size="11" fill="#555">2181144</text>
<line x1="70" y1="130.00" x2="1170" y2="130.00" stroke="#eee"/>
<text x="62" y="134.0" text-anchor="end" font-family="sans-serif" font-size="11" fill="#555">2908192</text>
<line x1="70" y1="25.00" x2="1170" y2="25.00" stroke="#eee"/>
<text x="62" y="29.0" text-anchor="end" font-family="sans-serif" font-size="11" fill="#555">3635240</text>
<line x1="161.67" y1="25" x2="161.67" y2="550" stroke="#f2f2f2"/>
<line x1="253.33" y1="25" x2="253.33" y2="550" stroke="#f2f2f2"/>
<line x1="345.00" y1="25" x2="345.00" y2="550" stroke="#f2f2f2"/>
<line x1="436.67" y1="25" x2="436.67" y2="550" stroke="#f2f2f2"/>
<line x1="528.33" y1="25" x2="528.33" y2="550" stroke="#f2f2f2"/>
<line x1="620.00" y1="25" x2="620.00" y2="550" stroke="#f2f2f2"/>
<line x1="711.67" y1="25" x2="711.67" y2="550" stroke="#f2f2f2"/>
<line x1="803.33" y1="25" x2="803.33" y2="550" stroke="#f2f2f2"/>
<line x1="895.00" y1="25" x2="895.00" y2="550" stroke="#f2f2f2"/>
<line x1="986.67" y1="25" x2="986.67" y2="550" stroke="#f2f2f2"/>
<line x1="1078.33" y1="25" x2="1078.33" y2="550" stroke="#f2f2f2"/>
<text x="115.83" y="566.00" text-anchor="middle" font-family="sans-serif" font-size="11" fill="#444">Jan</text>
<text x="207.50" y="566.00" text-anchor="middle" font-family="sans-serif" font-size="11" fill="#444">Feb</text>
<text x="299.17" y="566.00" text-anchor="middle" font-family="sans-serif" font-size="11" fill="#444">Mar</text>
<text x="390.83" y="566.00" text-anchor="middle" font-family="sans-serif" font-size="11" fill="#444">Apr</text>
<text x="482.50" y="566.00" text-anchor="middle" font-family="sans-serif" font-size="11" fill="#444">May</text>
<text x="574.17" y="566.00" text-anchor="middle" font-family="sans-serif" font-size="11" fill="#444">Jun</text>
<text x="665.83" y="566.00" text-anchor="middle" font-family="sans-serif" font-size="11" fill="#444">Jul</text>
<text x="757.50" y="566.00" text-anchor="middle" font-family="sans-serif" font-size="11" fill="#444">Aug</text>
<text x="849.17" y="566.00" text-anchor="middle" font-family="sans-serif" font-size="11" fill="#444">Sep</text>
<text x="940.83" y="566.00" text-anchor="middle" font-family="sans-serif" font-size="11" fill="#444">Oct</text>
<text x="1032.50" y="566.00" text-anchor="middle" font-family="sans-serif" font-size="11" fill="#444">Nov</text>
<text x="1124.17" y="566.00" text-anchor="middle" font-family="sans-serif" font-size="11" fill="#444">Dec</text>
<line x1="70" y1="550" x2="1170" y2="550" stroke="#888"/>
<line x1="70" y1="25" x2="70" y2="550" stroke="#888"/>
<line x1="74.58" y1="550.00" x2="74.58" y2="556.00" stroke="#888"/>
<line x1="1169.08"   y1="550.00" x2="1169.08"   y2="556.00" stroke="#888"/>
<text x="74.58" y="582.00" text-anchor="start" font-family="sans-serif" font-size="11" fill="#333">Initial Balance: 3400000</text>
<text x="1169.08"   y="582.00" text-anchor="end"   font-family="sans-serif" font-size="11" fill="#333">Ending Balance: 3611162</text>
<path d="M 129.58 49.46 L 129.58 49.47 Z" fill="#d0d0d0" fill-opacity="0.5" stroke="none"/>
<path d="M 157.08 44.38 L 184.58 44.38 L 230.42 44.38 L 257.15 44.38 L 257.15 44.77 L 230.42 46.43 L 184.58 48.09 L 157.08 49.46 Z" fill="#d0d0d0" fill-opacity="0.5" stroke="none"/>
<path d="M 272.43 43.06 L 280.07 43.06 L 287.71 43.06 L 295.35 43.06 L 295.35 43.26 L 287.71 44.18 L 280.07 46.17 L 272.43 48.20 Z" fill="#d0d0d0" fill-opacity="0.5" stroke="none"/>
<path d="M 310.62 41.14 L 318.26 41.14 L 325.90 41.14 L 333.54 41.14 L 341.18 41.14 L 348.82 41.14 L 356.46 41.14 L 364.10 41.14 L 371.74 41.14 L 379.38 41.14 L 387.01 41.14 L 394.65 41.14 L 402.29 41.14 L 409.93 41.14 L 417.57 41.14 L 425.21 41.14 L 432.85 41.14 L 459.58 41.14 L 505.42 41.14 L 535.97 41.14 L 551.25 41.14 L 566.53 41.14 L 581.81 41.14 L 597.08 41.14 L 612.36 41.14 L 629.17 41.14 L 647.50 41.14 L 665.83 41.14 L 684.17 41.14 L 702.50 41.14 L 718.21 41.14 L 731.31 41.14 L 744.40 41.14 L 744.40 42.55 L 731.31 44.01 L 718.21 46.82 L 702.50 49.39 L 684.17 48.90 L 665.83 48.98 L 647.50 51.31 L 629.17 53.31 L 612.36 55.86 L 597.08 50.80 L 581.81 52.24 L 566.53 52.68 L 551.25 54.77 L 535.97 57.31 L 505.42 59.40 L 459.58 61.40 L 432.85 63.36 L 425.21 65.24 L 417.57 60.27 L 409.93 60.59 L 402.29 61.71 L 394.65 56.71 L 387.01 51.65 L 379.38 53.97 L 371.74 54.94 L 364.10 53.75 L 356.46 51.60 L 348.82 53.97 L 341.18 48.89 L 333.54 48.94 L 325.90 50.13 L 318.26 45.01 L 310.62 46.30 Z" fill="#d0d0d0" fill-opacity="0.5" stroke="none"/>
<path d="M 804.33 35.81 L 804.33 35.84 Z" fill="#d0d0d0" fill-opacity="0.5" stroke="none"/>
<path d="M 816.29 25.00 L 818.28 25.00 L 820.27 25.00 L 822.26 25.00 L 824.26 25.00 L 826.25 25.00 L 828.24 25.00 L 830.24 25.00 L 832.23 25.00 L 834.22 25.00 L 836.21 25.00 L 838.21 25.00 L 840.20 25.00 L 842.19 25.00 L 844.18 25.00 L 846.18 25.00 L 848.17 25.00 L 850.16 25.00 L 852.16 25.00 L 854.15 25.00 L 856.14 25.00 L 858.13 25.00 L 860.13 25.00 L 862.12 25.00 L 864.11 25.00 L 866.11 25.00 L 868.10 25.00 L 870.09 25.00 L 872.08 25.00 L 874.08 25.00 L 876.07 25.00 L 878.06 25.00 L 880.05 25.00 L 882.05 25.00 L 884.04 25.00 L 886.03 25.00 L 888.03 25.00 L 890.02 25.00 L 892.01 25.00 L 894.00 25.00 L 895.54 25.00 L 896.62 25.00 L 897.70 25.00 L 898.77 25.00 L 899.85 25.00 L 900.93 25.00 L 902.01 25.00 L 903.09 25.00 L 904.17 25.00 L 905.25 25.00 L 906.32 25.00 L 907.40 25.00 L 908.48 25.00 L 909.56 25.00 L 910.64 25.00 L 911.72 25.00 L 912.79 25.00 L 913.87 25.00 L 914.95 25.00 L 916.03 25.00 L 917.11 25.00 L 918.19 25.00 L 919.26 25.00 L 920.34 25.00 L 921.42 25.00 L 922.50 25.00 L 923.58 25.00 L 924.66 25.00 L 925.74 25.00 L 926.81 25.00 L 927.89 25.00 L 928.97 25.00 L 930.05 25.00 L 931.13 25.00 L 932.21 25.00 L 933.28 25.00 L 934.36 25.00 L 935.44 25.00 L 936.52 25.00 L 937.60 25.00 L 938.68 25.00 L 939.75 25.00 L 940.83 25.00 L 941.91 25.00 L 942.99 25.00 L 944.07 25.00 L 945.15 25.00 L 946.23 25.00 L 947.30 25.00 L 948.38 25.00 L 949.46 25.00 L 950.54 25.00 L 951.62 25.00 L 952.70 25.00 L 953.77 25.00 L 954.85 25.00 L 955.93 25.00 L 957.01 25.00 L 958.09 25.00 L 959.17 25.00 L 960.25 25.00 L 961.32 25.00 L 962.40 25.00 L 963.48 25.00 L 964.56 25.00 L 965.64 25.00 L 966.72 25.00 L 967.79 25.00 L 968.87 25.00 L 969.95 25.00 L 971.03 25.00 L 972.11 25.00 L 973.19 25.00 L 974.26 25.00 L 975.34 25.00 L 976.42 25.00 L 977.50 25.00 L 978.58 25.00 L 979.66 25.00 L 980.74 25.00 L 981.81 25.00 L 982.89 25.00 L 983.97 25.00 L 985.05 25.00 L 986.13 25.00 L 987.76 25.00 L 989.94 25.00 L 992.12 25.00 L 994.31 25.00 L 996.49 25.00 L 998.67 25.00 L 1000.85 25.00 L 1003.04 25.00 L 1005.22 25.00 L 1007.40 25.00 L 1009.58 25.00 L 1011.77 25.00 L 1013.95 25.00 L 1016.13 25.00 L 1018.31 25.00 L 1020.50 25.00 L 1022.68 25.00 L 1024.86 25.00 L 1027.04 25.00 L 1029.23 25.00 L 1031.41 25.00 L 1033.59 25.00 L 1035.77 25.00 L 1037.96 25.00 L 1040.14 25.00 L 1042.32 25.00 L 1044.50 25.00 L 1046.69 25.00 L 1048.87 25.00 L 1051.05 25.00 L 1053.23 25.00 L 1055.42 25.00 L 1057.60 25.00 L 1059.78 25.00 L 1061.96 25.00 L 1064.15 25.00 L 1066.33 25.00 L 1068.51 25.00 L 1070.69 25.00 L 1072.88 25.00 L 1075.06 25.00 L 1077.24 25.00 L 1079.25 25.00 L 1081.08 25.00 L 1082.92 25.00 L 1084.75 25.00 L 1086.58 25.00 L 1088.42 25.00 L 1090.25 25.00 L 1092.08 25.00 L 1093.92 25.00 L 1095.75 25.00 L 1097.58 25.00 L 1099.42 25.00 L 1101.25 25.00 L 1103.08 25.00 L 1104.92 25.00 L 1106.75 25.00 L 1108.58 25.00 L 1110.42 25.00 L 1112.25 25.00 L 1114.08 25.00 L 1115.92 25.00 L 1117.75 25.00 L 1119.58 25.00 L 1121.42 25.00 L 1123.25 25.00 L 1125.08 25.00 L 1126.92 25.00 L 1128.75 25.00 L 1130.58 25.00 L 1132.42 25.00 L 1134.25 25.00 L 1136.08 25.00 L 1137.92 25.00 L 1139.75 25.00 L 1141.58 25.00 L 1143.42 25.00 L 1145.25 25.00 L 1147.08 25.00 L 1148.92 25.00 L 1150.75 25.00 L 1152.58 25.00 L 1154.42 25.00 L 1156.25 25.00 L 1158.08 25.00 L 1159.92 25.00 L 1161.75 25.00 L 1163.58 25.00 L 1165.42 25.00 L 1167.25 25.00 L 1169.08 25.00 L 1169.08 28.48 L 1167.25 30.87 L 1165.42 25.57 L 1163.58 28.08 L 1161.75 29.86 L 1159.92 32.14 L 1158.08 34.66 L 1156.25 37.26 L 1154.42 32.18 L 1152.58 33.92 L 1150.75 35.07 L 1148.92 37.29 L 1147.08 39.39 L 1145.25 40.66 L 1143.42 43.10 L 1141.58 45.60 L 1139.75 47.88 L 1137.92 42.84 L 1136.08 44.44 L 1134.25 46.59 L 1132.42 48.56 L 1130.58 51.09 L 1128.75 53.18 L 1126.92 48.07 L 1125.08 50.10 L 1123.25 51.37 L 1121.42 52.35 L 1119.58 54.27 L 1117.75 56.76 L 1115.92 51.69 L 1114.08 46.73 L 1112.25 41.86 L 1110.42 43.79 L 1108.58 44.64 L 1106.75 45.00 L 1104.92 45.56 L 1103.08 47.47 L 1101.25 49.77 L 1099.42 51.56 L 1097.58 53.65 L 1095.75 52.98 L 1093.92 55.04 L 1092.08 56.26 L 1090.25 57.26 L 1088.42 52.63 L 1086.58 52.48 L 1084.75 47.39 L 1082.92 48.55 L 1081.08 49.53 L 1079.25 51.74 L 1077.24 53.21 L 1075.06 48.14 L 1072.88 50.40 L 1070.69 52.69 L 1068.51 53.10 L 1066.33 54.75 L 1064.15 55.94 L 1061.96 57.65 L 1059.78 59.13 L 1057.60 61.36 L 1055.42 56.37 L 1053.23 58.41 L 1051.05 60.44 L 1048.87 62.03 L 1046.69 64.07 L 1044.50 66.26 L 1042.32 68.40 L 1040.14 63.88 L 1037.96 65.44 L 1035.77 67.03 L 1033.59 68.80 L 1031.41 69.98 L 1029.23 71.16 L 1027.04 72.23 L 1024.86 74.28 L 1022.68 76.52 L 1020.50 78.35 L 1018.31 79.34 L 1016.13 81.61 L 1013.95 83.96 L 1011.77 84.10 L 1009.58 79.44 L 1007.40 81.70 L 1005.22 83.78 L 1003.04 79.09 L 1000.85 74.39 L 998.67 73.81 L 996.49 75.18 L 994.31 77.16 L 992.12 78.86 L 989.94 79.02 L 987.76 74.37 L 986.13 74.21 L 985.05 76.34 L 983.97 71.50 L 982.89 66.85 L 981.81 69.02 L 980.74 68.65 L 979.66 63.99 L 978.58 65.01 L 977.50 66.77 L 976.42 67.08 L 975.34 68.99 L 974.26 64.10 L 973.19 59.13 L 972.11 54.44 L 971.03 55.95 L 969.95 58.12 L 968.87 60.21 L 967.79 59.76 L 966.72 55.23 L 965.64 55.55 L 964.56 57.58 L 963.48 52.54 L 962.40 54.72 L 961.32 56.83 L 960.25 59.03 L 959.17 61.08 L 958.09 62.81 L 957.01 58.25 L 955.93 60.47 L 954.85 62.88 L 953.77 58.32 L 952.70 60.19 L 951.62 62.43 L 950.54 64.18 L 949.46 64.50 L 948.38 59.86 L 947.30 61.71 L 946.23 62.21 L 945.15 64.45 L 944.07 66.70 L 942.99 68.82 L 941.91 64.18 L 940.83 66.33 L 939.75 68.70 L 938.68 63.80 L 937.60 58.83 L 936.52 61.13 L 935.44 56.36 L 934.36 58.44 L 933.28 58.38 L 932.21 60.49 L 931.13 62.33 L 930.05 64.06 L 928.97 65.12 L 927.89 60.26 L 926.81 61.32 L 925.74 63.25 L 924.66 62.70 L 923.58 65.11 L 922.50 67.52 L 921.42 62.60 L 920.34 57.71 L 919.26 59.13 L 918.19 54.23 L 917.11 49.17 L 916.03 44.28 L 914.95 45.76 L 913.87 48.17 L 912.79 48.79 L 911.72 47.62 L 910.64 49.78 L 909.56 51.98 L 908.48 54.16 L 907.40 55.95 L 906.32 57.97 L 905.25 59.91 L 904.17 55.03 L 903.09 57.44 L 902.01 59.85 L 900.93 62.30 L 899.85 64.58 L 898.77 67.00 L 897.70 62.07 L 896.62 57.06 L 895.54 57.01 L 894.00 59.49 L 892.01 61.16 L 890.02 56.14 L 888.03 51.15 L 886.03 54.00 L 884.04 56.51 L 882.05 51.44 L 880.05 46.33 L 878.06 48.23 L 876.07 49.89 L 874.08 50.55 L 872.08 50.95 L 870.09 52.92 L 868.10 54.03 L 866.11 48.95 L 864.11 51.02 L 862.12 53.27 L 860.13 48.18 L 858.13 50.19 L 856.14 45.09 L 854.15 47.12 L 852.16 42.00 L 850.16 36.89 L 848.17 38.58 L 846.18 33.48 L 844.18 28.39 L 842.19 30.27 L 840.20 31.27 L 838.21 33.36 L 836.21 34.45 L 834.22 29.27 L 832.23 31.85 L 830.24 32.30 L 828.24 27.14 L 826.25 29.18 L 824.26 30.91 L 822.26 25.81 L 820.27 25.77 L 818.28 28.06 L 816.29 30.12 Z" fill="#d0d0d0" fill-opacity="0.5" stroke="none"/>
<polyline fill="none" stroke="#111" stroke-width="1.2" points="74.58,58.97 83.75,56.94 92.92,54.42 102.08,52.43 111.25,50.10 120.42,49.46 129.58,49.47 138.75,47.15 147.92,44.38 157.08,49.46 184.58,48.09 230.42,46.43 257.15,44.77 264.79,43.06 272.43,48.20 280.07,46.17 287.71,44.18 295.35,43.26 302.99,41.14 310.62,46.30 318.26,45.01 325.90,50.13 333.54,48.94 341.18,48.89 348.82,53.97 356.46,51.60 364.10,53.75 371.74,54.94 379.38,53.97 387.01,51.65 394.65,56.71 402.29,61.71 409.93,60.59 417.57,60.27 425.21,65.24 432.85,63.36 459.58,61.40 505.42,59.40 535.97,57.31 551.25,54.77 566.53,52.68 581.81,52.24 597.08,50.80 612.36,55.86 629.17,53.31 647.50,51.31 665.83,48.98 684.17,48.90 702.50,49.39 718.21,46.82 731.31,44.01 744.40,42.55 757.50,40.74 770.60,39.28 783.69,37.41 796.79,35.81 804.33,35.84 806.32,33.25 808.32,32.30 810.31,29.76 812.30,27.13 814.29,25.00 816.29,30.12 818.28,28.06 820.27,25.77 822.26,25.81 824.26,30.91 826.25,29.18 828.24,27.14 830.24,32.30 832.23,31.85 834.22,29.27 836.21,34.45 838.21,33.36 840.20,31.27 842.19,30.27 844.18,28.39 846.18,33.48 848.17,38.58 850.16,36.89 852.16,42.00 854.15,47.12 856.14,45.09 858.13,50.19 860.13,48.18 862.12,53.27 864.11,51.02 866.11,48.95 868.10,54.03 870.09,52.92 872.08,50.95 874.08,50.55 876.07,49.89 878.06,48.23 880.05,46.33 882.05,51.44 884.04,56.51 886.03,54.00 888.03,51.15 890.02,56.14 892.01,61.16 894.00,59.49 895.54,57.01 896.62,57.06 897.70,62.07 898.77,67.00 899.85,64.58 900.93,62.30 902.01,59.85 903.09,57.44 904.17,55.03 905.25,59.91 906.32,57.97 907.40,55.95 908.48,54.16 909.56,51.98 910.64,49.78 911.72,47.62 912.79,48.79 913.87,48.17 914.95,45.76 916.03,44.28 917.11,49.17 918.19,54.23 919.26,59.13 920.34,57.71 921.42,62.60 922.50,67.52 923.58,65.11 924.66,62.70 925.74,63.25 926.81,61.32 927.89,60.26 928.97,65.12 930.05,64.06 931.13,62.33 932.21,60.49 933.28,58.38 934.36,58.44 935.44,56.36 936.52,61.13 937.60,58.83 938.68,63.80 939.75,68.70 940.83,66.33 941.91,64.18 942.99,68.82 944.07,66.70 945.15,64.45 946.23,62.21 947.30,61.71 948.38,59.86 949.46,64.50 950.54,64.18 951.62,62.43 952.70,60.19 953.77,58.32 954.85,62.88 955.93,60.47 957.01,58.25 958.09,62.81 959.17,61.08 960.25,59.03 961.32,56.83 962.40,54.72 963.48,52.54 964.56,57.58 965.64,55.55 966.72,55.23 967.79,59.76 968.87,60.21 969.95,58.12 971.03,55.95 972.11,54.44 973.19,59.13 974.26,64.10 975.34,68.99 976.42,67.08 977.50,66.77 978.58,65.01 979.66,63.99 980.74,68.65 981.81,69.02 982.89,66.85 983.97,71.50 985.05,76.34 986.13,74.21 987.76,74.37 989.94,79.02 992.12,78.86 994.31,77.16 996.49,75.18 998.67,73.81 1000.85,74.39 1003.04,79.09 1005.22,83.78 1007.40,81.70 1009.58,79.44 1011.77,84.10 1013.95,83.96 1016.13,81.61 1018.31,79.34 1020.50,78.35 1022.68,76.52 1024.86,74.28 1027.04,72.23 1029.23,71.16 1031.41,69.98 1033.59,68.80 1035.77,67.03 1037.96,65.44 1040.14,63.88 1042.32,68.40 1044.50,66.26 1046.69,64.07 1048.87,62.03 1051.05,60.44 1053.23,58.41 1055.42,56.37 1057.60,61.36 1059.78,59.13 1061.96,57.65 1064.15,55.94 1066.33,54.75 1068.51,53.10 1070.69,52.69 1072.88,50.40 1075.06,48.14 1077.24,53.21 1079.25,51.74 1081.08,49.53 1082.92,48.55 1084.75,47.39 1086.58,52.48 1088.42,52.63 1090.25,57.26 1092.08,56.26 1093.92,55.04 1095.75,52.98 1097.58,53.65 1099.42,51.56 1101.25,49.77 1103.08,47.47 1104.92,45.56 1106.75,45.00 1108.58,44.64 1110.42,43.79 1112.25,41.86 1114.08,46.73 1115.92,51.69 1117.75,56.76 1119.58,54.27 1121.42,52.35 1123.25,51.37 1125.08,50.10 1126.92,48.07 1128.75,53.18 1130.58,51.09 1132.42,48.56 1134.25,46.59 1136.08,44.44 1137.92,42.84 1139.75,47.88 1141.58,45.60 1143.42,43.10 1145.25,40.66 1147.08,39.39 1148.92,37.29 1150.75,35.07 1152.58,33.92 1154.42,32.18 1156.25,37.26 1158.08,34.66 1159.92,32.14 1161.75,29.86 1163.58,28.08 1165.42,25.57 1167.25,30.87 1169.08,28.48"/>
<text x="15" y="287.5" transform="rotate(-90 15,287.5)" text-anchor="middle" font-family="sans-serif" font-size="12" fill="#333">USD</text>
</svg>