<svg xmlns="http://www.w3.org/2000/svg" width="1200" height="600" viewBox="0 0 1200 600">
<desc>Equity curve with drawdown fill</desc>
<text x="600.0" y="18.0" text-anchor="middle" font-family="sans-serif" font-size="14">Portfolio 2019</text>
<rect x="70" y="25" width="1100" height="525" fill="white" stroke="#ccc" />
<line x1="70" y1="550.00" x2="1170" y2="550.00" stroke="#eee"/>
<text x="62" y="554.0" text-anchor="end" font-family="sans-serif" font-size="11" fill="#555">0.00</text>
<line x1="70" y1="445.00" x2="1170" y2="445.00" stroke="#eee"/>
<text x="62" y="449.0" text-anchor="end" font-family="sans-serif" font-size="11" fill="#555">48590</text>
<line x1="70" y1="340.00" x2="1170" y2="340.00" stroke="#eee"/>
<text x="62" y="344.0" text-anchor="end" font-family="sans-serif" font-size="11" fill="#555">97180</text>
<line x1="70" y1="235.00" x2="1170" y2="235.00" stroke="#eee"/>
<text x="62" y="239.0" text-anchor="end" font-family="sans-serif" font-size="11" fill="#555">145770</text>
<line x1="70" y1="130.00" x2="1170" y2="130.00" stroke="#eee"/>
<text x="62" y="134.0" text-anchor="end" font-family="sans-serif" font-size="11" fill="#555">194360</text>
<line x1="70" y1="25.00" x2="1170" y2="25.00" stroke="#eee"/>
<text x="62" y="29.0" text-anchor="end" font-family="sans-serif" font-size="11" fill="#555">242950</text>
<line x1="163.73" y1="25" x2="163.73" y2="550" stroke="#f2f2f2"/>
<text x="163.73" y="566" text-anchor="middle" font-family="sans-serif" font-size="11" fill="#555">Feb</text>
<line x1="253.00" y1="25" x2="253.00" y2="550" stroke="#f2f2f2"/>
<text x="253.00" y="566" text-anchor="middle" font-family="sans-serif" font-size="11" fill="#555">Mar</text>
<line x1="351.83" y1="25" x2="351.83" y2="550" stroke="#f2f2f2"/>
<text x="351.83" y="566" text-anchor="middle" font-family="sans-serif" font-size="11" fill="#555">Apr</text>
<line x1="447.47" y1="25" x2="447.47" y2="550" stroke="#f2f2f2"/>
<text x="447.47" y="566" text-anchor="middle" font-family="sans-serif" font-size="11" fill="#555">May</text>
<line x1="546.30" y1="25" x2="546.30" y2="550" stroke="#f2f2f2"/>
<text x="546.30" y="566" text-anchor="middle" font-family="sans-serif" font-size="11" fill="#555">Jun</text>
<line x1="641.95" y1="25" x2="641.95" y2="550" stroke="#f2f2f2"/>
<text x="641.95" y="566" text-anchor="middle" font-family="sans-serif" font-size="11" fill="#555">Jul</text>
<line x1="740.78" y1="25" x2="740.78" y2="550" stroke="#f2f2f2"/>
<text x="740.78" y="566" text-anchor="middle" font-family="sans-serif" font-size="11" fill="#555">Aug</text>
<line x1="839.61" y1="25" x2="839.61" y2="550" stroke="#f2f2f2"/>
<text x="839.61" y="566" text-anchor="middle" font-family="sans-serif" font-size="11" fill="#555">Sep</text>
<line x1="935.25" y1="25" x2="935.25" y2="550" stroke="#f2f2f2"/>
<text x="935.25" y="566" text-anchor="middle" font-family="sans-serif" font-size="11" fill="#555">Oct</text>
<line x1="1034.08" y1="25" x2="1034.08" y2="550" stroke="#f2f2f2"/>
<text x="1034.08" y="566" text-anchor="middle" font-family="sans-serif" font-size="11" fill="#555">Nov</text>
<line x1="1129.73" y1="25" x2="1129.73" y2="550" stroke="#f2f2f2"/>
<text x="1129.73" y="566" text-anchor="middle" font-family="sans-serif" font-size="11" fill="#555">Dec</text>
<line x1="70" y1="550" x2="1170" y2="550" stroke="#888"/>
<line x1="70" y1="25" x2="70" y2="550" stroke="#888"/>
<path d="M 92.40 29.34 L 98.72 29.34 L 140.67 29.34 L 159.96 29.34 L 274.15 29.34 L 316.02 29.34 L 316.13 29.34 L 321.08 29.34 L 321.22 29.34 L 407.30 29.34 L 475.06 29.34 L 564.09 29.34 L 567.36 29.34 L 720.35 29.34 L 740.12 29.34 L 781.03 29.34 L 787.48 29.34 L 813.10 29.34 L 835.37 29.34 L 876.37 29.34 L 876.42 29.34 L 876.54 29.34 L 876.64 29.34 L 910.96 29.34 L 910.96 29.97 L 876.64 30.68 L 876.54 33.59 L 876.42 35.40 L 876.37 30.15 L 835.37 33.06 L 813.10 35.95 L 787.48 30.70 L 781.03 32.76 L 740.12 35.46 L 720.35 38.34 L 567.36 40.99 L 564.09 39.98 L 475.06 41.87 L 407.30 41.96 L 321.22 43.50 L 321.08 43.71 L 316.13 46.55 L 316.02 46.80 L 274.15 41.67 L 159.96 38.18 L 140.67 32.96 L 98.72 32.21 L 92.40 34.60 Z" fill="#d0d0d0" fill-opacity="0.5" stroke="none"/>
<polyline fill="none" stroke="#111" stroke-width="1.2" points="70.00,31.12 73.33,29.34 92.40,34.60 98.72,32.21 140.67,32.96 159.96,38.18 274.15,41.67 316.02,46.80 316.13,46.55 321.08,43.71 321.22,43.50 407.30,41.96 475.06,41.87 564.09,39.98 567.36,40.99 720.35,38.34 740.12,35.46 781.03,32.76 787.48,30.70 813.10,35.95 835.37,33.06 876.37,30.15 876.42,35.40 876.54,33.59 876.64,30.68 910.96,29.97 987.70,27.66 1170.00,25.00"/>
<text x="620.0" y="588" text-anchor="middle" font-family="sans-serif" font-size="12" fill="#333">UTC time</text>
<text x="15" y="287.5" transform="rotate(-90 15,287.5)" text-anchor="middle" font-family="sans-serif" font-size="12" fill="#333">Capital</text>
</svg>