<svg xmlns="http://www.w3.org/2000/svg" width="1200" height="600" viewBox="0 0 1200 600">
<desc>Equity curve with drawdown fill</desc>
<text x="600.0" y="18.0" text-anchor="middle" font-family="sans-serif" font-size="14">Portfolio 2011</text>
<rect x="70" y="25" width="1100" height="525" fill="white" stroke="#ccc" />
<line x1="70" y1="550.00" x2="1170" y2="550.00" stroke="#eee"/>
<text x="62" y="554.0" text-anchor="end" font-family="sans-serif" font-size="11" fill="#555">0.00</text>
<line x1="70" y1="445.00" x2="1170" y2="445.00" stroke="#eee"/>
<text x="62" y="449.0" text-anchor="end" font-family="sans-serif" font-size="11" fill="#555">21760</text>
<line x1="70" y1="340.00" x2="1170" y2="340.00" stroke="#eee"/>
<text x="62" y="344.0" text-anchor="end" font-family="sans-serif" font-size="11" fill="#555">43521</text>
<line x1="70" y1="235.00" x2="1170" y2="235.00" stroke="#eee"/>
<text x="62" y="239.0" text-anchor="end" font-family="sans-serif" font-size="11" fill="#555">65281</text>
<line x1="70" y1="130.00" x2="1170" y2="130.00" stroke="#eee"/>
<text x="62" y="134.0" text-anchor="end" font-family="sans-serif" font-size="11" fill="#555">87041</text>
<line x1="70" y1="25.00" x2="1170" y2="25.00" stroke="#eee"/>
<text x="62" y="29.0" text-anchor="end" font-family="sans-serif" font-size="11" fill="#555">108802</text>
<line x1="156.74" y1="25" x2="156.74" y2="550" stroke="#f2f2f2"/>
<text x="156.74" y="566" text-anchor="middle" font-family="sans-serif" font-size="11" fill="#555">Feb</text>
<line x1="242.53" y1="25" x2="242.53" y2="550" stroke="#f2f2f2"/>
<text x="242.53" y="566" text-anchor="middle" font-family="sans-serif" font-size="11" fill="#555">Mar</text>
<line x1="337.50" y1="25" x2="337.50" y2="550" stroke="#f2f2f2"/>
<text x="337.50" y="566" text-anchor="middle" font-family="sans-serif" font-size="11" fill="#555">Apr</text>
<line x1="429.42" y1="25" x2="429.42" y2="550" stroke="#f2f2f2"/>
<text x="429.42" y="566" text-anchor="middle" font-family="sans-serif" font-size="11" fill="#555">May</text>
<line x1="524.39" y1="25" x2="524.39" y2="550" stroke="#f2f2f2"/>
<text x="524.39" y="566" text-anchor="middle" font-family="sans-serif" font-size="11" fill="#555">Jun</text>
<line x1="616.31" y1="25" x2="616.31" y2="550" stroke="#f2f2f2"/>
<text x="616.31" y="566" text-anchor="middle" font-family="sans-serif" font-size="11" fill="#555">Jul</text>
<line x1="711.28" y1="25" x2="711.28" y2="550" stroke="#f2f2f2"/>
<text x="711.28" y="566" text-anchor="middle" font-family="sans-serif" font-size="11" fill="#555">Aug</text>
<line x1="806.26" y1="25" x2="806.26" y2="550" stroke="#f2f2f2"/>
<text x="806.26" y="566" text-anchor="middle" font-family="sans-serif" font-size="11" fill="#555">Sep</text>
<line x1="898.17" y1="25" x2="898.17" y2="550" stroke="#f2f2f2"/>
<text x="898.17" y="566" text-anchor="middle" font-family="sans-serif" font-size="11" fill="#555">Oct</text>
<line x1="993.15" y1="25" x2="993.15" y2="550" stroke="#f2f2f2"/>
<text x="993.15" y="566" text-anchor="middle" font-family="sans-serif" font-size="11" fill="#555">Nov</text>
<line x1="1085.06" y1="25" x2="1085.06" y2="550" stroke="#f2f2f2"/>
<text x="1085.06" y="566" text-anchor="middle" font-family="sans-serif" font-size="11" fill="#555">Dec</text>
<line x1="70" y1="550" x2="1170" y2="550" stroke="#888"/>
<line x1="70" y1="25" x2="70" y2="550" stroke="#888"/>
<path d="M 73.01 64.14 L 79.15 64.14 L 82.27 64.14 L 97.34 64.14 L 100.38 64.14 L 100.44 64.14 L 100.54 64.14 L 100.76 64.14 L 102.66 64.14 L 112.32 64.14 L 115.09 64.14 L 115.74 64.14 L 118.59 64.14 L 121.76 64.14 L 122.03 64.14 L 124.09 64.14 L 134.21 64.14 L 136.61 64.14 L 137.34 64.14 L 142.44 64.14 L 142.77 64.14 L 146.51 64.14 L 167.89 64.14 L 183.20 64.14 L 197.78 64.14 L 204.82 64.14 L 210.63 64.14 L 221.36 64.14 L 222.08 64.14 L 222.50 64.14 L 271.02 64.14 L 274.54 64.14 L 286.11 64.14 L 286.11 65.23 L 274.54 66.53 L 271.02 67.99 L 222.50 70.74 L 222.08 65.86 L 221.36 67.96 L 210.63 68.88 L 204.82 67.18 L 197.78 69.43 L 183.20 67.99 L 167.89 70.15 L 146.51 71.39 L 142.77 66.53 L 142.44 69.28 L 137.34 72.00 L 136.61 72.74 L 134.21 73.65 L 124.09 73.47 L 122.03 75.93 L 121.76 77.68 L 118.59 80.14 L 115.74 82.32 L 115.09 84.30 L 112.32 84.50 L 102.66 86.96 L 100.76 82.25 L 100.54 77.48 L 100.44 78.43 L 100.38 73.68 L 97.34 68.86 L 82.27 71.16 L 79.15 73.88 L 73.01 69.03 Z" fill="#d0d0d0" fill-opacity="0.5" stroke="none"/>
<path d="M 318.42 57.79 L 318.42 58.43 Z" fill="#d0d0d0" fill-opacity="0.5" stroke="none"/>
<path d="M 339.64 53.79 L 359.35 53.79 L 391.62 53.79 L 391.70 53.79 L 397.12 53.79 L 414.37 53.79 L 415.26 53.79 L 417.09 53.79 L 437.70 53.79 L 437.70 55.64 L 417.09 56.26 L 415.26 58.85 L 414.37 60.76 L 397.12 62.72 L 391.70 60.88 L 391.62 61.99 L 359.35 57.02 L 339.64 58.78 Z" fill="#d0d0d0" fill-opacity="0.5" stroke="none"/>
<path d="M 443.44 52.79 L 443.53 52.79 L 443.65 52.79 L 443.70 52.79 L 443.79 52.79 L 443.89 52.79 L 446.47 52.79 L 446.94 52.79 L 447.04 52.79 L 447.19 52.79 L 455.75 52.79 L 458.15 52.79 L 461.94 52.79 L 462.35 52.79 L 462.49 52.79 L 465.28 52.79 L 468.28 52.79 L 468.40 52.79 L 468.52 52.79 L 477.27 52.79 L 480.24 52.79 L 480.90 52.79 L 486.86 52.79 L 489.30 52.79 L 489.61 52.79 L 497.94 52.79 L 506.32 52.79 L 508.00 52.79 L 509.66 52.79 L 510.84 52.79 L 521.43 52.79 L 528.98 52.79 L 529.86 52.79 L 532.55 52.79 L 550.80 52.79 L 553.92 52.79 L 569.50 52.79 L 571.08 52.79 L 571.71 52.79 L 572.31 52.79 L 574.78 52.79 L 584.53 52.79 L 585.75 52.79 L 593.60 52.79 L 604.31 52.79 L 606.13 52.79 L 609.09 52.79 L 611.94 52.79 L 612.13 52.79 L 636.44 52.79 L 636.68 52.79 L 639.48 52.79 L 639.50 52.79 L 639.87 52.79 L 648.62 52.79 L 649.00 52.79 L 650.40 52.79 L 651.13 52.79 L 651.18 52.79 L 651.37 52.79 L 651.72 52.79 L 651.72 54.29 L 651.37 54.68 L 651.18 57.35 L 651.13 59.14 L 650.40 54.14 L 649.00 56.97 L 648.62 59.10 L 639.87 60.68 L 639.50 61.64 L 639.48 64.44 L 636.68 67.21 L 636.44 62.29 L 612.13 64.83 L 611.94 67.10 L 609.09 69.86 L 606.13 64.96 L 604.31 64.29 L 593.60 65.24 L 585.75 65.83 L 584.53 68.60 L 574.78 67.49 L 572.31 68.05 L 571.71 70.33 L 571.08 73.05 L 569.50 75.77 L 553.92 70.95 L 550.80 72.59 L 532.55 74.60 L 529.86 75.75 L 528.98 77.48 L 521.43 75.58 L 510.84 76.18 L 509.66 77.47 L 508.00 72.65 L 506.32 74.62 L 497.94 75.75 L 489.61 77.92 L 489.30 73.11 L 486.86 71.09 L 480.90 72.45 L 480.24 74.38 L 477.27 76.62 L 468.52 78.76 L 468.40 80.64 L 468.28 75.87 L 465.28 71.04 L 462.49 72.52 L 462.35 72.70 L 461.94 74.17 L 458.15 75.93 L 455.75 77.99 L 447.19 73.18 L 447.04 73.36 L 446.94 74.96 L 446.47 70.13 L 443.89 72.87 L 443.79 72.78 L 443.70 72.44 L 443.65 67.57 L 443.53 62.67 L 443.44 57.77 Z" fill="#d0d0d0" fill-opacity="0.5" stroke="none"/>
<path d="M 655.10 50.29 L 655.18 50.29 L 656.05 50.29 L 656.05 51.70 L 655.18 53.33 L 655.10 55.34 Z" fill="#d0d0d0" fill-opacity="0.5" stroke="none"/>
<path d="M 678.91 40.25 L 678.97 40.25 L 679.09 40.25 L 679.09 42.16 L 678.97 43.51 L 678.91 45.38 Z" fill="#d0d0d0" fill-opacity="0.5" stroke="none"/>
<path d="M 679.42 39.25 L 679.43 39.25 L 679.64 39.25 L 679.69 39.25 L 693.26 39.25 L 698.15 39.25 L 700.46 39.25 L 703.93 39.25 L 704.03 39.25 L 704.20 39.25 L 713.20 39.25 L 713.30 39.25 L 713.39 39.25 L 713.54 39.25 L 715.38 39.25 L 716.33 39.25 L 718.54 39.25 L 718.79 39.25 L 722.24 39.25 L 722.35 39.25 L 724.64 39.25 L 725.41 39.25 L 725.73 39.25 L 725.83 39.25 L 726.07 39.25 L 733.78 39.25 L 734.11 39.25 L 734.14 39.25 L 734.40 39.25 L 737.15 39.25 L 738.26 39.25 L 740.64 39.25 L 740.77 39.25 L 740.78 39.25 L 740.85 39.25 L 740.96 39.25 L 742.40 39.25 L 743.40 39.25 L 743.74 39.25 L 743.99 39.25 L 755.99 39.25 L 756.20 39.25 L 756.26 39.25 L 759.44 39.25 L 761.38 39.25 L 761.99 39.25 L 765.39 39.25 L 768.15 39.25 L 779.85 39.25 L 780.62 39.25 L 786.89 39.25 L 790.10 39.25 L 797.88 39.25 L 801.37 39.25 L 807.43 39.25 L 822.73 39.25 L 822.89 39.25 L 822.93 39.25 L 823.65 39.25 L 825.81 39.25 L 829.47 39.25 L 829.92 39.25 L 832.11 39.25 L 832.63 39.25 L 832.72 39.25 L 832.83 39.25 L 839.87 39.25 L 840.80 39.25 L 841.22 39.25 L 842.37 39.25 L 844.11 39.25 L 844.23 39.25 L 844.54 39.25 L 844.97 39.25 L 848.06 39.25 L 848.49 39.25 L 848.49 39.54 L 848.06 42.45 L 844.97 45.09 L 844.54 47.67 L 844.23 50.12 L 844.11 52.51 L 842.37 54.24 L 841.22 56.46 L 840.80 58.72 L 839.87 58.94 L 832.83 60.71 L 832.72 63.16 L 832.63 63.88 L 832.11 58.93 L 829.92 61.14 L 829.47 63.10 L 825.81 58.12 L 823.65 60.93 L 822.93 55.94 L 822.89 57.51 L 822.73 52.49 L 807.43 55.43 L 801.37 57.13 L 797.88 59.39 L 790.10 62.20 L 786.89 57.22 L 780.62 59.05 L 779.85 59.74 L 768.15 54.74 L 765.39 49.69 L 761.99 49.50 L 761.38 51.77 L 759.44 53.83 L 756.26 56.65 L 756.20 58.66 L 755.99 56.93 L 743.99 51.90 L 743.74 54.29 L 743.40 57.12 L 742.40 57.05 L 740.96 56.29 L 740.85 57.21 L 740.78 58.07 L 740.77 53.11 L 740.64 48.08 L 738.26 42.97 L 737.15 45.85 L 734.40 48.71 L 734.14 49.48 L 734.11 51.63 L 733.78 46.56 L 726.07 48.82 L 725.83 49.94 L 725.73 52.42 L 725.41 55.26 L 724.64 57.80 L 722.35 60.10 L 722.24 62.61 L 718.79 64.80 L 718.54 66.54 L 716.33 68.61 L 715.38 68.97 L 713.54 71.16 L 713.39 69.75 L 713.30 70.81 L 713.20 65.96 L 704.20 61.03 L 704.03 62.15 L 703.93 62.80 L 700.46 57.84 L 698.15 52.82 L 693.26 47.76 L 679.69 50.63 L 679.64 51.52 L 679.43 49.41 L 679.42 44.37 Z" fill="#d0d0d0" fill-opacity="0.5" stroke="none"/>
<path d="M 864.53 34.17 L 864.53 35.74 Z" fill="#d0d0d0" fill-opacity="0.5" stroke="none"/>
<path d="M 873.82 25.00 L 875.21 25.00 L 875.70 25.00 L 883.09 25.00 L 883.17 25.00 L 884.18 25.00 L 884.83 25.00 L 887.55 25.00 L 890.14 25.00 L 890.49 25.00 L 891.45 25.00 L 892.76 25.00 L 897.03 25.00 L 906.35 25.00 L 908.53 25.00 L 909.33 25.00 L 912.92 25.00 L 915.19 25.00 L 915.21 25.00 L 915.38 25.00 L 915.63 25.00 L 918.28 25.00 L 918.55 25.00 L 918.82 25.00 L 918.90 25.00 L 926.11 25.00 L 926.98 25.00 L 927.48 25.00 L 933.06 25.00 L 933.19 25.00 L 933.21 25.00 L 933.31 25.00 L 936.34 25.00 L 939.86 25.00 L 948.74 25.00 L 951.39 25.00 L 957.73 25.00 L 957.86 25.00 L 957.91 25.00 L 958.23 25.00 L 958.79 25.00 L 960.65 25.00 L 961.28 25.00 L 969.60 25.00 L 970.84 25.00 L 973.58 25.00 L 976.75 25.00 L 976.85 25.00 L 977.18 25.00 L 978.13 25.00 L 979.64 25.00 L 979.72 25.00 L 980.01 25.00 L 990.47 25.00 L 990.59 25.00 L 990.81 25.00 L 992.35 25.00 L 994.21 25.00 L 994.40 25.00 L 995.52 25.00 L 996.29 25.00 L 1001.19 25.00 L 1001.23 25.00 L 1001.68 25.00 L 1004.24 25.00 L 1004.33 25.00 L 1013.01 25.00 L 1013.46 25.00 L 1017.02 25.00 L 1018.90 25.00 L 1019.06 25.00 L 1019.12 25.00 L 1019.41 25.00 L 1021.88 25.00 L 1022.72 25.00 L 1025.87 25.00 L 1025.97 25.00 L 1039.49 25.00 L 1044.00 25.00 L 1044.49 25.00 L 1046.85 25.00 L 1047.22 25.00 L 1055.58 25.00 L 1056.54 25.00 L 1061.99 25.00 L 1062.67 25.00 L 1075.84 25.00 L 1077.06 25.00 L 1080.25 25.00 L 1080.31 25.00 L 1080.69 25.00 L 1083.66 25.00 L 1083.79 25.00 L 1083.80 25.00 L 1090.18 25.00 L 1090.29 25.00 L 1099.81 25.00 L 1108.34 25.00 L 1110.99 25.00 L 1111.40 25.00 L 1123.84 25.00 L 1123.96 25.00 L 1144.60 25.00 L 1147.67 25.00 L 1147.78 25.00 L 1150.51 25.00 L 1169.67 25.00 L 1169.84 25.00 L 1170.00 25.00 L 1170.00 84.81 L 1169.84 83.39 L 1169.67 84.06 L 1150.51 79.30 L 1147.78 80.91 L 1147.67 82.98 L 1144.60 85.38 L 1123.96 86.71 L 1123.84 86.68 L 1111.40 81.95 L 1110.99 83.44 L 1108.34 78.67 L 1099.81 73.85 L 1090.29 73.92 L 1090.18 73.84 L 1083.80 68.97 L 1083.79 64.09 L 1083.66 59.15 L 1080.69 62.05 L 1080.31 64.36 L 1080.25 66.81 L 1077.06 61.87 L 1075.84 63.82 L 1062.67 63.39 L 1061.99 64.56 L 1056.54 63.19 L 1055.58 65.18 L 1047.22 65.39 L 1046.85 67.39 L 1044.49 62.46 L 1044.00 65.01 L 1039.49 67.24 L 1025.97 67.29 L 1025.87 67.47 L 1022.72 62.53 L 1021.88 64.93 L 1019.41 67.49 L 1019.12 69.52 L 1019.06 64.66 L 1018.90 65.25 L 1017.02 60.30 L 1013.46 62.90 L 1013.01 64.57 L 1004.33 66.51 L 1004.24 67.09 L 1001.68 62.17 L 1001.23 57.19 L 1001.19 59.57 L 996.29 54.57 L 995.52 56.57 L 994.40 51.54 L 994.21 53.26 L 992.35 55.50 L 990.81 56.63 L 990.59 55.52 L 990.47 57.08 L 980.01 59.42 L 979.72 54.41 L 979.64 55.12 L 978.13 50.07 L 977.18 52.92 L 976.85 55.77 L 976.75 56.91 L 973.58 51.88 L 970.84 54.49 L 969.60 53.41 L 961.28 55.36 L 960.65 50.32 L 958.79 52.10 L 958.23 54.94 L 957.91 56.99 L 957.86 58.68 L 957.73 58.18 L 951.39 53.16 L 948.74 53.52 L 939.86 48.45 L 936.34 43.35 L 933.31 45.62 L 933.21 45.38 L 933.19 40.25 L 933.06 35.08 L 927.48 29.84 L 926.98 32.53 L 926.11 27.26 L 918.90 29.37 L 918.82 30.43 L 918.55 25.15 L 918.28 27.86 L 915.63 30.83 L 915.38 28.17 L 915.21 31.12 L 915.19 33.91 L 912.92 28.65 L 909.33 29.81 L 908.53 32.51 L 906.35 34.65 L 897.03 29.40 L 892.76 29.87 L 891.45 28.85 L 890.49 30.97 L 890.14 32.59 L 887.55 34.25 L 884.83 29.00 L 884.18 30.48 L 883.17 32.16 L 883.09 33.21 L 875.70 27.95 L 875.21 30.62 L 873.82 30.28 Z" fill="#d0d0d0" fill-opacity="0.5" stroke="none"/>
<polyline fill="none" stroke="#111" stroke-width="1.2" points="70.00,65.79 72.26,64.14 73.01,69.03 79.15,73.88 82.27,71.16 97.34,68.86 100.38,73.68 100.44,78.43 100.54,77.48 100.76,82.25 102.66,86.96 112.32,84.50 115.09,84.30 115.74,82.32 118.59,80.14 121.76,77.68 122.03,75.93 124.09,73.47 134.21,73.65 136.61,72.74 137.34,72.00 142.44,69.28 142.77,66.53 146.51,71.39 167.89,70.15 183.20,67.99 197.78,69.43 204.82,67.18 210.63,68.88 221.36,67.96 222.08,65.86 222.50,70.74 271.02,67.99 274.54,66.53 286.11,65.23 286.85,63.00 287.37,60.49 294.99,58.76 296.24,57.83 315.11,57.79 318.42,58.43 333.65,56.61 339.42,53.79 339.64,58.78 359.35,57.02 391.62,61.99 391.70,60.88 397.12,62.72 414.37,60.76 415.26,58.85 417.09,56.26 437.70,55.64 443.39,52.79 443.44,57.77 443.53,62.67 443.65,67.57 443.70,72.44 443.79,72.78 443.89,72.87 446.47,70.13 446.94,74.96 447.04,73.36 447.19,73.18 455.75,77.99 458.15,75.93 461.94,74.17 462.35,72.70 462.49,72.52 465.28,71.04 468.28,75.87 468.40,80.64 468.52,78.76 477.27,76.62 480.24,74.38 480.90,72.45 486.86,71.09 489.30,73.11 489.61,77.92 497.94,75.75 506.32,74.62 508.00,72.65 509.66,77.47 510.84,76.18 521.43,75.58 528.98,77.48 529.86,75.75 532.55,74.60 550.80,72.59 553.92,70.95 569.50,75.77 571.08,73.05 571.71,70.33 572.31,68.05 574.78,67.49 584.53,68.60 585.75,65.83 593.60,65.24 604.31,64.29 606.13,64.96 609.09,69.86 611.94,67.10 612.13,64.83 636.44,62.29 636.68,67.21 639.48,64.44 639.50,61.64 639.87,60.68 648.62,59.10 649.00,56.97 650.40,54.14 651.13,59.14 651.18,57.35 651.37,54.68 651.72,54.29 653.26,52.15 654.20,50.29 655.10,55.34 655.18,53.33 656.05,51.70 658.19,49.52 660.31,47.75 661.37,44.86 672.57,42.90 673.94,40.25 678.91,45.38 678.97,43.51 679.09,42.16 679.27,39.25 679.42,44.37 679.43,49.41 679.64,51.52 679.69,50.63 693.26,47.76 698.15,52.82 700.46,57.84 703.93,62.80 704.03,62.15 704.20,61.03 713.20,65.96 713.30,70.81 713.39,69.75 713.54,71.16 715.38,68.97 716.33,68.61 718.54,66.54 718.79,64.80 722.24,62.61 722.35,60.10 724.64,57.80 725.41,55.26 725.73,52.42 725.83,49.94 726.07,48.82 733.78,46.56 734.11,51.63 734.14,49.48 734.40,48.71 737.15,45.85 738.26,42.97 740.64,48.08 740.77,53.11 740.78,58.07 740.85,57.21 740.96,56.29 742.40,57.05 743.40,57.12 743.74,54.29 743.99,51.90 755.99,56.93 756.20,58.66 756.26,56.65 759.44,53.83 761.38,51.77 761.99,49.50 765.39,49.69 768.15,54.74 779.85,59.74 780.62,59.05 786.89,57.22 790.10,62.20 797.88,59.39 801.37,57.13 807.43,55.43 822.73,52.49 822.89,57.51 822.93,55.94 823.65,60.93 825.81,58.12 829.47,63.10 829.92,61.14 832.11,58.93 832.63,63.88 832.72,63.16 832.83,60.71 839.87,58.94 840.80,58.72 841.22,56.46 842.37,54.24 844.11,52.51 844.23,50.12 844.54,47.67 844.97,45.09 848.06,42.45 848.49,39.54 850.94,36.63 851.02,35.24 861.34,34.17 864.53,35.74 865.67,34.06 865.89,32.46 871.90,29.51 872.39,27.98 873.07,25.00 873.82,30.28 875.21,30.62 875.70,27.95 883.09,33.21 883.17,32.16 884.18,30.48 884.83,29.00 887.55,34.25 890.14,32.59 890.49,30.97 891.45,28.85 892.76,29.87 897.03,29.40 906.35,34.65 908.53,32.51 909.33,29.81 912.92,28.65 915.19,33.91 915.21,31.12 915.38,28.17 915.63,30.83 918.28,27.86 918.55,25.15 918.82,30.43 918.90,29.37 926.11,27.26 926.98,32.53 927.48,29.84 933.06,35.08 933.19,40.25 933.21,45.38 933.31,45.62 936.34,43.35 939.86,48.45 948.74,53.52 951.39,53.16 957.73,58.18 957.86,58.68 957.91,56.99 958.23,54.94 958.79,52.10 960.65,50.32 961.28,55.36 969.60,53.41 970.84,54.49 973.58,51.88 976.75,56.91 976.85,55.77 977.18,52.92 978.13,50.07 979.64,55.12 979.72,54.41 980.01,59.42 990.47,57.08 990.59,55.52 990.81,56.63 992.35,55.50 994.21,53.26 994.40,51.54 995.52,56.57 996.29,54.57 1001.19,59.57 1001.23,57.19 1001.68,62.17 1004.24,67.09 1004.33,66.51 1013.01,64.57 1013.46,62.90 1017.02,60.30 1018.90,65.25 1019.06,64.66 1019.12,69.52 1019.41,67.49 1021.88,64.93 1022.72,62.53 1025.87,67.47 1025.97,67.29 1039.49,67.24 1044.00,65.01 1044.49,62.46 1046.85,67.39 1047.22,65.39 1055.58,65.18 1056.54,63.19 1061.99,64.56 1062.67,63.39 1075.84,63.82 1077.06,61.87 1080.25,66.81 1080.31,64.36 1080.69,62.05 1083.66,59.15 1083.79,64.09 1083.80,68.97 1090.18,73.84 1090.29,73.92 1099.81,73.85 1108.34,78.67 1110.99,83.44 1111.40,81.95 1123.84,86.68 1123.96,86.71 1144.60,85.38 1147.67,82.98 1147.78,80.91 1150.51,79.30 1169.67,84.06 1169.84,83.39 1170.00,84.81"/>
<text x="620.0" y="588" text-anchor="middle" font-family="sans-serif" font-size="12" fill="#333">UTC time</text>
<text x="15" y="287.5" transform="rotate(-90 15,287.5)" text-anchor="middle" font-family="sans-serif" font-size="12" fill="#333">Capital</text>
</svg>