<svg xmlns="http://www.w3.org/2000/svg" width="1200" height="600" viewBox="0 0 1200 600">
<desc>Equity curve with drawdown fill</desc>
<text x="600.0" y="18.0" text-anchor="middle" font-family="sans-serif" font-size="14">Portfolio 2022</text>
<rect x="70" y="25" width="1100" height="525" fill="white" stroke="#ccc" />
<line x1="70" y1="550.00" x2="1170" y2="550.00" stroke="#eee"/>
<text x="62" y="554.0" text-anchor="end" font-family="sans-serif" font-size="11" fill="#555">0.00</text>
<line x1="70" y1="445.00" x2="1170" y2="445.00" stroke="#eee"/>
<text x="62" y="449.0" text-anchor="end" font-family="sans-serif" font-size="11" fill="#555">56823</text>
<line x1="70" y1="340.00" x2="1170" y2="340.00" stroke="#eee"/>
<text x="62" y="344.0" text-anchor="end" font-family="sans-serif" font-size="11" fill="#555">113647</text>
<line x1="70" y1="235.00" x2="1170" y2="235.00" stroke="#eee"/>
<text x="62" y="239.0" text-anchor="end" font-family="sans-serif" font-size="11" fill="#555">170470</text>
<line x1="70" y1="130.00" x2="1170" y2="130.00" stroke="#eee"/>
<text x="62" y="134.0" text-anchor="end" font-family="sans-serif" font-size="11" fill="#555">227294</text>
<line x1="70" y1="25.00" x2="1170" y2="25.00" stroke="#eee"/>
<text x="62" y="29.0" text-anchor="end" font-family="sans-serif" font-size="11" fill="#555">284117</text>
<line x1="157.17" y1="25" x2="157.17" y2="550" stroke="#f2f2f2"/>
<text x="157.17" y="566" text-anchor="middle" font-family="sans-serif" font-size="11" fill="#555">Mar</text>
<line x1="263.92" y1="25" x2="263.92" y2="550" stroke="#f2f2f2"/>
<text x="263.92" y="566" text-anchor="middle" font-family="sans-serif" font-size="11" fill="#555">Apr</text>
<line x1="367.22" y1="25" x2="367.22" y2="550" stroke="#f2f2f2"/>
<text x="367.22" y="566" text-anchor="middle" font-family="sans-serif" font-size="11" fill="#555">May</text>
<line x1="473.97" y1="25" x2="473.97" y2="550" stroke="#f2f2f2"/>
<text x="473.97" y="566" text-anchor="middle" font-family="sans-serif" font-size="11" fill="#555">Jun</text>
<line x1="577.28" y1="25" x2="577.28" y2="550" stroke="#f2f2f2"/>
<text x="577.28" y="566" text-anchor="middle" font-family="sans-serif" font-size="11" fill="#555">Jul</text>
<line x1="684.02" y1="25" x2="684.02" y2="550" stroke="#f2f2f2"/>
<text x="684.02" y="566" text-anchor="middle" font-family="sans-serif" font-size="11" fill="#555">Aug</text>
<line x1="790.77" y1="25" x2="790.77" y2="550" stroke="#f2f2f2"/>
<text x="790.77" y="566" text-anchor="middle" font-family="sans-serif" font-size="11" fill="#555">Sep</text>
<line x1="894.08" y1="25" x2="894.08" y2="550" stroke="#f2f2f2"/>
<text x="894.08" y="566" text-anchor="middle" font-family="sans-serif" font-size="11" fill="#555">Oct</text>
<line x1="1000.83" y1="25" x2="1000.83" y2="550" stroke="#f2f2f2"/>
<text x="1000.83" y="566" text-anchor="middle" font-family="sans-serif" font-size="11" fill="#555">Nov</text>
<line x1="1104.13" y1="25" x2="1104.13" y2="550" stroke="#f2f2f2"/>
<text x="1104.13" y="566" text-anchor="middle" font-family="sans-serif" font-size="11" fill="#555">Dec</text>
<line x1="70" y1="550" x2="1170" y2="550" stroke="#888"/>
<line x1="70" y1="25" x2="70" y2="550" stroke="#888"/>
<path d="M 70.00 73.80 L 93.83 73.80 L 94.07 73.80 L 97.90 73.80 L 116.45 73.80 L 140.63 73.80 L 141.40 73.80 L 141.40 74.54 L 140.63 76.97 L 116.45 77.56 L 97.90 79.45 L 94.07 81.28 L 93.83 76.50 L 70.00 78.61 Z" fill="#d0d0d0" fill-opacity="0.5" stroke="none"/>
<path d="M 177.84 59.05 L 177.84 59.73 Z" fill="#d0d0d0" fill-opacity="0.5" stroke="none"/>
<path d="M 179.64 58.58 L 179.66 58.58 L 179.66 60.87 L 179.64 63.55 Z" fill="#d0d0d0" fill-opacity="0.5" stroke="none"/>
<path d="M 183.91 57.98 L 183.91 58.56 Z" fill="#d0d0d0" fill-opacity="0.5" stroke="none"/>
<path d="M 187.10 54.01 L 190.32 54.01 L 193.26 54.01 L 193.26 55.43 L 190.32 57.99 L 187.10 59.03 Z" fill="#d0d0d0" fill-opacity="0.5" stroke="none"/>
<path d="M 255.51 50.16 L 307.79 50.16 L 310.73 50.16 L 310.82 50.16 L 311.00 50.16 L 330.91 50.16 L 333.99 50.16 L 347.60 50.16 L 354.68 50.16 L 355.54 50.16 L 358.19 50.16 L 362.31 50.16 L 371.84 50.16 L 376.16 50.16 L 382.87 50.16 L 385.60 50.16 L 397.33 50.16 L 397.33 51.51 L 385.60 52.39 L 382.87 54.66 L 376.16 56.87 L 371.84 55.26 L 362.31 57.55 L 358.19 59.41 L 355.54 61.92 L 354.68 61.76 L 347.60 63.97 L 333.99 66.69 L 330.91 61.75 L 311.00 63.43 L 310.82 64.26 L 310.73 59.32 L 307.79 54.31 L 255.51 55.21 Z" fill="#d0d0d0" fill-opacity="0.5" stroke="none"/>
<path d="M 406.28 48.72 L 407.56 48.72 L 431.51 48.72 L 444.45 48.72 L 447.57 48.72 L 472.27 48.72 L 476.23 48.72 L 476.23 49.02 L 472.27 49.10 L 447.57 51.38 L 444.45 54.17 L 431.51 49.10 L 407.56 51.27 L 406.28 53.79 Z" fill="#d0d0d0" fill-opacity="0.5" stroke="none"/>
<path d="M 524.18 41.10 L 527.71 41.10 L 528.23 41.10 L 528.31 41.10 L 531.31 41.10 L 548.43 41.10 L 551.09 41.10 L 551.89 41.10 L 569.01 41.10 L 576.24 41.10 L 579.54 41.10 L 592.32 41.10 L 592.49 41.10 L 592.57 41.10 L 592.66 41.10 L 602.59 41.10 L 602.66 41.10 L 616.97 41.10 L 620.53 41.10 L 620.53 41.10 L 620.86 41.10 L 620.95 41.10 L 624.11 41.10 L 624.34 41.10 L 638.13 41.10 L 640.48 41.10 L 640.64 41.10 L 640.71 41.10 L 644.39 41.10 L 648.05 41.10 L 648.17 41.10 L 648.25 41.10 L 650.93 41.10 L 651.73 41.10 L 661.47 41.10 L 664.95 41.10 L 675.84 41.10 L 688.72 41.10 L 693.24 41.10 L 696.73 41.10 L 699.73 41.10 L 699.89 41.10 L 716.95 41.10 L 717.23 41.10 L 744.79 41.10 L 758.81 41.10 L 761.90 41.10 L 761.99 41.10 L 762.15 41.10 L 765.52 41.10 L 765.54 41.10 L 772.18 41.10 L 772.48 41.10 L 782.16 41.10 L 789.66 41.10 L 792.96 41.10 L 793.05 41.10 L 796.86 41.10 L 805.77 41.10 L 810.18 41.10 L 813.75 41.10 L 816.91 41.10 L 816.95 41.10 L 817.08 41.10 L 818.68 41.10 L 820.15 41.10 L 829.80 41.10 L 829.87 41.10 L 830.05 41.10 L 834.03 41.10 L 834.22 41.10 L 834.32 41.10 L 834.50 41.10 L 844.81 41.10 L 858.19 41.10 L 860.66 41.10 L 860.76 41.10 L 862.37 41.10 L 864.39 41.10 L 864.49 41.10 L 865.44 41.10 L 867.71 41.10 L 868.84 41.10 L 877.14 41.10 L 877.16 41.10 L 878.07 41.10 L 878.48 41.10 L 878.86 41.10 L 879.25 41.10 L 882.90 41.10 L 885.33 41.10 L 885.86 41.10 L 885.89 41.10 L 886.02 41.10 L 886.34 41.10 L 886.34 41.10 L 886.46 41.10 L 889.36 41.10 L 889.63 41.10 L 892.57 41.10 L 892.93 41.10 L 902.59 41.10 L 903.15 41.10 L 905.63 41.10 L 906.42 41.10 L 910.00 41.10 L 913.38 41.10 L 916.68 41.10 L 916.68 43.48 L 913.38 46.28 L 910.00 48.76 L 906.42 51.54 L 905.63 53.39 L 903.15 54.51 L 902.59 57.02 L 892.93 57.32 L 892.57 59.76 L 889.63 62.48 L 889.36 61.65 L 886.46 64.36 L 886.34 63.55 L 886.34 58.61 L 886.02 53.60 L 885.89 56.34 L 885.86 58.78 L 885.33 61.50 L 882.90 64.20 L 879.25 66.03 L 878.86 68.23 L 878.48 70.77 L 878.07 73.25 L 877.16 68.37 L 877.14 71.07 L 868.84 66.16 L 867.71 67.33 L 865.44 69.25 L 864.49 69.42 L 864.39 71.99 L 862.37 74.63 L 860.76 77.26 L 860.66 79.79 L 858.19 82.39 L 844.81 84.73 L 834.50 83.93 L 834.32 79.16 L 834.22 79.15 L 834.03 77.32 L 830.05 80.09 L 829.87 75.27 L 829.80 70.43 L 820.15 65.52 L 818.68 67.43 L 817.08 67.21 L 816.95 69.59 L 816.91 71.94 L 813.75 67.04 L 810.18 66.84 L 805.77 68.61 L 796.86 71.28 L 793.05 66.38 L 792.96 68.91 L 789.66 63.99 L 782.16 64.55 L 772.48 66.35 L 772.18 68.18 L 765.54 70.85 L 765.52 73.20 L 762.15 68.32 L 761.99 69.94 L 761.90 70.93 L 758.81 66.02 L 744.79 65.31 L 717.23 65.31 L 716.95 60.35 L 699.89 63.21 L 699.73 63.25 L 696.73 65.96 L 693.24 68.12 L 688.72 66.34 L 675.84 68.75 L 664.95 67.70 L 661.47 68.17 L 651.73 68.66 L 650.93 63.73 L 648.25 63.28 L 648.17 65.43 L 648.05 65.58 L 644.39 68.27 L 640.71 63.35 L 640.64 64.01 L 640.48 62.68 L 638.13 57.70 L 624.34 58.91 L 624.11 61.64 L 620.95 64.35 L 620.86 65.70 L 620.53 60.74 L 620.53 63.46 L 616.97 66.16 L 602.66 67.40 L 602.59 69.21 L 592.66 71.89 L 592.57 72.91 L 592.49 68.03 L 592.32 63.12 L 579.54 58.14 L 576.24 57.89 L 569.01 52.86 L 551.89 54.71 L 551.09 57.27 L 548.43 52.24 L 531.31 54.17 L 528.31 56.64 L 528.23 51.60 L 527.71 51.33 L 524.18 46.24 Z" fill="#d0d0d0" fill-opacity="0.5" stroke="none"/>
<path d="M 937.74 28.11 L 937.79 28.11 L 937.97 28.11 L 940.87 28.11 L 940.90 28.11 L 951.51 28.11 L 957.89 28.11 L 961.28 28.11 L 964.90 28.11 L 964.95 28.11 L 965.14 28.11 L 965.14 30.23 L 964.95 32.72 L 964.90 35.58 L 961.28 37.51 L 957.89 39.77 L 951.51 40.29 L 940.90 41.75 L 940.87 44.29 L 937.97 39.12 L 937.79 38.58 L 937.74 33.38 Z" fill="#d0d0d0" fill-opacity="0.5" stroke="none"/>
<path d="M 978.80 25.00 L 978.88 25.00 L 979.05 25.00 L 981.48 25.00 L 982.59 25.00 L 985.55 25.00 L 988.37 25.00 L 1003.05 25.00 L 1007.06 25.00 L 1013.03 25.00 L 1013.12 25.00 L 1013.18 25.00 L 1013.23 25.00 L 1013.38 25.00 L 1022.86 25.00 L 1027.13 25.00 L 1030.55 25.00 L 1033.29 25.00 L 1033.75 25.00 L 1033.92 25.00 L 1034.11 25.00 L 1034.15 25.00 L 1036.56 25.00 L 1047.46 25.00 L 1051.35 25.00 L 1051.69 25.00 L 1051.72 25.00 L 1078.75 25.00 L 1095.09 25.00 L 1096.15 25.00 L 1099.26 25.00 L 1102.96 25.00 L 1103.02 25.00 L 1103.38 25.00 L 1103.66 25.00 L 1109.60 25.00 L 1110.15 25.00 L 1120.38 25.00 L 1126.67 25.00 L 1147.54 25.00 L 1147.65 25.00 L 1154.37 25.00 L 1154.44 25.00 L 1154.96 25.00 L 1170.00 25.00 L 1170.00 68.13 L 1154.96 70.83 L 1154.44 68.80 L 1154.37 69.93 L 1147.65 65.01 L 1147.54 65.49 L 1126.67 65.99 L 1120.38 68.08 L 1110.15 69.41 L 1109.60 68.54 L 1103.66 63.61 L 1103.38 61.22 L 1103.02 63.56 L 1102.96 65.38 L 1099.26 60.42 L 1096.15 62.37 L 1095.09 57.38 L 1078.75 52.34 L 1051.72 54.23 L 1051.69 56.48 L 1051.35 51.43 L 1047.46 53.09 L 1036.56 55.70 L 1034.15 57.83 L 1034.11 59.19 L 1033.92 56.60 L 1033.75 56.51 L 1033.29 59.46 L 1030.55 60.90 L 1027.13 63.62 L 1022.86 58.64 L 1013.38 58.60 L 1013.23 60.37 L 1013.18 55.38 L 1013.12 50.31 L 1013.03 50.87 L 1007.06 45.76 L 1003.05 40.61 L 988.37 41.07 L 985.55 43.31 L 982.59 45.44 L 981.48 45.89 L 979.05 40.74 L 978.88 35.53 L 978.80 30.30 Z" fill="#d0d0d0" fill-opacity="0.5" stroke="none"/>
<polyline fill="none" stroke="#111" stroke-width="1.2" points="70.00,78.61 93.83,76.50 94.07,81.28 97.90,79.45 116.45,77.56 140.63,76.97 141.40,74.54 142.26,72.08 142.68,69.95 153.66,69.87 155.31,67.18 159.64,65.01 162.98,62.28 167.65,61.00 169.54,59.05 177.84,59.73 179.38,58.58 179.64,63.55 179.66,60.87 179.80,58.40 182.54,57.98 183.91,58.56 186.24,56.79 186.74,54.01 187.10,59.03 190.32,57.99 193.26,55.43 203.37,52.95 251.55,50.16 255.51,55.21 307.79,54.31 310.73,59.32 310.82,64.26 311.00,63.43 330.91,61.75 333.99,66.69 347.60,63.97 354.68,61.76 355.54,61.92 358.19,59.41 362.31,57.55 371.84,55.26 376.16,56.87 382.87,54.66 385.60,52.39 397.33,51.51 403.59,48.72 406.28,53.79 407.56,51.27 431.51,49.10 444.45,54.17 447.57,51.38 472.27,49.10 476.23,49.02 503.49,47.41 503.62,45.22 503.74,43.62 506.92,41.10 524.18,46.24 527.71,51.33 528.23,51.60 528.31,56.64 531.31,54.17 548.43,52.24 551.09,57.27 551.89,54.71 569.01,52.86 576.24,57.89 579.54,58.14 592.32,63.12 592.49,68.03 592.57,72.91 592.66,71.89 602.59,69.21 602.66,67.40 616.97,66.16 620.53,63.46 620.53,60.74 620.86,65.70 620.95,64.35 624.11,61.64 624.34,58.91 638.13,57.70 640.48,62.68 640.64,64.01 640.71,63.35 644.39,68.27 648.05,65.58 648.17,65.43 648.25,63.28 650.93,63.73 651.73,68.66 661.47,68.17 664.95,67.70 675.84,68.75 688.72,66.34 693.24,68.12 696.73,65.96 699.73,63.25 699.89,63.21 716.95,60.35 717.23,65.31 744.79,65.31 758.81,66.02 761.90,70.93 761.99,69.94 762.15,68.32 765.52,73.20 765.54,70.85 772.18,68.18 772.48,66.35 782.16,64.55 789.66,63.99 792.96,68.91 793.05,66.38 796.86,71.28 805.77,68.61 810.18,66.84 813.75,67.04 816.91,71.94 816.95,69.59 817.08,67.21 818.68,67.43 820.15,65.52 829.80,70.43 829.87,75.27 830.05,80.09 834.03,77.32 834.22,79.15 834.32,79.16 834.50,83.93 844.81,84.73 858.19,82.39 860.66,79.79 860.76,77.26 862.37,74.63 864.39,71.99 864.49,69.42 865.44,69.25 867.71,67.33 868.84,66.16 877.14,71.07 877.16,68.37 878.07,73.25 878.48,70.77 878.86,68.23 879.25,66.03 882.90,64.20 885.33,61.50 885.86,58.78 885.89,56.34 886.02,53.60 886.34,58.61 886.34,63.55 886.46,64.36 889.36,61.65 889.63,62.48 892.57,59.76 892.93,57.32 902.59,57.02 903.15,54.51 905.63,53.39 906.42,51.54 910.00,48.76 913.38,46.28 916.68,43.48 916.74,40.78 927.29,37.95 930.98,35.83 932.68,32.97 937.34,29.95 937.52,28.11 937.74,33.38 937.79,38.58 937.97,39.12 940.87,44.29 940.90,41.75 951.51,40.29 957.89,39.77 961.28,37.51 964.90,35.58 964.95,32.72 965.14,30.23 965.31,27.71 965.43,26.58 975.44,25.00 978.80,30.30 978.88,35.53 979.05,40.74 981.48,45.89 982.59,45.44 985.55,43.31 988.37,41.07 1003.05,40.61 1007.06,45.76 1013.03,50.87 1013.12,50.31 1013.18,55.38 1013.23,60.37 1013.38,58.60 1022.86,58.64 1027.13,63.62 1030.55,60.90 1033.29,59.46 1033.75,56.51 1033.92,56.60 1034.11,59.19 1034.15,57.83 1036.56,55.70 1047.46,53.09 1051.35,51.43 1051.69,56.48 1051.72,54.23 1078.75,52.34 1095.09,57.38 1096.15,62.37 1099.26,60.42 1102.96,65.38 1103.02,63.56 1103.38,61.22 1103.66,63.61 1109.60,68.54 1110.15,69.41 1120.38,68.08 1126.67,65.99 1147.54,65.49 1147.65,65.01 1154.37,69.93 1154.44,68.80 1154.96,70.83 1170.00,68.13"/>
<text x="620.0" y="588" text-anchor="middle" font-family="sans-serif" font-size="12" fill="#333">UTC time</text>
<text x="15" y="287.5" transform="rotate(-90 15,287.5)" text-anchor="middle" font-family="sans-serif" font-size="12" fill="#333">Capital</text>
</svg>