<svg xmlns="http://www.w3.org/2000/svg" width="1200" height="600" viewBox="0 0 1200 600">
<desc>Equity curve with drawdown fill</desc>
<text x="600.0" y="18.0" text-anchor="middle" font-family="sans-serif" font-size="14">Portfolio 2010</text>
<rect x="70" y="25" width="1100" height="525" fill="white" stroke="#ccc" />
<line x1="70" y1="550.00" x2="1170" y2="550.00" stroke="#eee"/>
<text x="62" y="554.0" text-anchor="end" font-family="sans-serif" font-size="11" fill="#555">0.00</text>
<line x1="70" y1="445.00" x2="1170" y2="445.00" stroke="#eee"/>
<text x="62" y="449.0" text-anchor="end" font-family="sans-serif" font-size="11" fill="#555">26805</text>
<line x1="70" y1="340.00" x2="1170" y2="340.00" stroke="#eee"/>
<text x="62" y="344.0" text-anchor="end" font-family="sans-serif" font-size="11" fill="#555">53610</text>
<line x1="70" y1="235.00" x2="1170" y2="235.00" stroke="#eee"/>
<text x="62" y="239.0" text-anchor="end" font-family="sans-serif" font-size="11" fill="#555">80415</text>
<line x1="70" y1="130.00" x2="1170" y2="130.00" stroke="#eee"/>
<text x="62" y="134.0" text-anchor="end" font-family="sans-serif" font-size="11" fill="#555">107220</text>
<line x1="70" y1="25.00" x2="1170" y2="25.00" stroke="#eee"/>
<text x="62" y="29.0" text-anchor="end" font-family="sans-serif" font-size="11" fill="#555">134025</text>
<line x1="154.02" y1="25" x2="154.02" y2="550" stroke="#f2f2f2"/>
<text x="154.02" y="566" text-anchor="middle" font-family="sans-serif" font-size="11" fill="#555">Feb</text>
<line x1="239.38" y1="25" x2="239.38" y2="550" stroke="#f2f2f2"/>
<text x="239.38" y="566" text-anchor="middle" font-family="sans-serif" font-size="11" fill="#555">Mar</text>
<line x1="333.88" y1="25" x2="333.88" y2="550" stroke="#f2f2f2"/>
<text x="333.88" y="566" text-anchor="middle" font-family="sans-serif" font-size="11" fill="#555">Apr</text>
<line x1="425.33" y1="25" x2="425.33" y2="550" stroke="#f2f2f2"/>
<text x="425.33" y="566" text-anchor="middle" font-family="sans-serif" font-size="11" fill="#555">May</text>
<line x1="519.83" y1="25" x2="519.83" y2="550" stroke="#f2f2f2"/>
<text x="519.83" y="566" text-anchor="middle" font-family="sans-serif" font-size="11" fill="#555">Jun</text>
<line x1="611.29" y1="25" x2="611.29" y2="550" stroke="#f2f2f2"/>
<text x="611.29" y="566" text-anchor="middle" font-family="sans-serif" font-size="11" fill="#555">Jul</text>
<line x1="705.79" y1="25" x2="705.79" y2="550" stroke="#f2f2f2"/>
<text x="705.79" y="566" text-anchor="middle" font-family="sans-serif" font-size="11" fill="#555">Aug</text>
<line x1="800.29" y1="25" x2="800.29" y2="550" stroke="#f2f2f2"/>
<text x="800.29" y="566" text-anchor="middle" font-family="sans-serif" font-size="11" fill="#555">Sep</text>
<line x1="891.74" y1="25" x2="891.74" y2="550" stroke="#f2f2f2"/>
<text x="891.74" y="566" text-anchor="middle" font-family="sans-serif" font-size="11" fill="#555">Oct</text>
<line x1="986.24" y1="25" x2="986.24" y2="550" stroke="#f2f2f2"/>
<text x="986.24" y="566" text-anchor="middle" font-family="sans-serif" font-size="11" fill="#555">Nov</text>
<line x1="1077.70" y1="25" x2="1077.70" y2="550" stroke="#f2f2f2"/>
<text x="1077.70" y="566" text-anchor="middle" font-family="sans-serif" font-size="11" fill="#555">Dec</text>
<line x1="1170.00" y1="25" x2="1170.00" y2="550" stroke="#f2f2f2"/>
<text x="1170.00" y="566" text-anchor="middle" font-family="sans-serif" font-size="11" fill="#555">Jan</text>
<line x1="70" y1="550" x2="1170" y2="550" stroke="#888"/>
<line x1="70" y1="25" x2="70" y2="550" stroke="#888"/>
<path d="M 70.00 100.56 L 70.00 101.99 Z" fill="#d0d0d0" fill-opacity="0.5" stroke="none"/>
<path d="M 83.28 97.43 L 83.28 97.70 Z" fill="#d0d0d0" fill-opacity="0.5" stroke="none"/>
<path d="M 102.58 94.22 L 102.58 95.20 Z" fill="#d0d0d0" fill-opacity="0.5" stroke="none"/>
<path d="M 180.60 77.80 L 183.45 77.80 L 186.42 77.80 L 189.45 77.80 L 201.86 77.80 L 204.89 77.80 L 207.79 77.80 L 208.78 77.80 L 208.82 77.80 L 211.11 77.80 L 222.59 77.80 L 226.19 77.80 L 229.62 77.80 L 232.29 77.80 L 243.64 77.80 L 244.20 77.80 L 247.57 77.80 L 250.53 77.80 L 268.90 77.80 L 274.31 77.80 L 293.38 77.80 L 310.31 77.80 L 310.76 77.80 L 314.95 77.80 L 336.01 77.80 L 338.77 77.80 L 360.23 77.80 L 367.32 77.80 L 367.44 77.80 L 377.77 77.80 L 396.48 77.80 L 399.87 77.80 L 400.96 77.80 L 402.22 77.80 L 403.07 77.80 L 411.46 77.80 L 415.32 77.80 L 417.88 77.80 L 424.35 77.80 L 431.78 77.80 L 433.51 77.80 L 436.38 77.80 L 441.59 77.80 L 442.28 77.80 L 442.72 77.80 L 443.02 77.80 L 443.04 77.80 L 444.06 77.80 L 444.11 77.80 L 444.31 77.80 L 444.64 77.80 L 444.75 77.80 L 445.36 77.80 L 445.63 77.80 L 445.69 77.80 L 445.69 78.06 L 445.63 80.70 L 445.36 82.16 L 444.75 84.56 L 444.64 86.54 L 444.31 89.14 L 444.11 90.70 L 444.06 92.91 L 443.04 95.23 L 443.02 97.37 L 442.72 92.74 L 442.28 95.02 L 441.59 96.99 L 436.38 92.34 L 433.51 94.05 L 431.78 94.22 L 424.35 89.55 L 417.88 91.75 L 415.32 93.82 L 411.46 89.15 L 403.07 90.66 L 402.22 89.50 L 400.96 84.79 L 399.87 87.41 L 396.48 90.01 L 377.77 91.48 L 367.44 92.99 L 367.32 88.31 L 360.23 90.08 L 338.77 91.16 L 336.01 93.52 L 314.95 95.05 L 310.76 96.87 L 310.31 98.98 L 293.38 100.87 L 274.31 100.05 L 268.90 99.30 L 250.53 100.58 L 247.57 100.94 L 244.20 96.34 L 243.64 98.28 L 232.29 100.01 L 229.62 95.40 L 226.19 97.21 L 222.59 98.35 L 211.11 93.73 L 208.82 96.08 L 208.78 97.93 L 207.79 93.30 L 204.89 93.59 L 201.86 88.93 L 189.45 84.21 L 186.42 86.84 L 183.45 82.11 L 180.60 82.57 Z" fill="#d0d0d0" fill-opacity="0.5" stroke="none"/>
<path d="M 453.89 68.86 L 454.00 68.86 L 454.11 68.86 L 454.29 68.86 L 454.29 69.59 L 454.11 72.12 L 454.00 74.00 L 453.89 73.73 Z" fill="#d0d0d0" fill-opacity="0.5" stroke="none"/>
<path d="M 454.67 68.74 L 454.80 68.74 L 454.87 68.74 L 455.08 68.74 L 455.92 68.74 L 456.52 68.74 L 457.10 68.74 L 460.99 68.74 L 463.15 68.74 L 463.21 68.74 L 466.74 68.74 L 466.89 68.74 L 466.89 69.90 L 466.74 72.37 L 463.21 74.38 L 463.15 76.66 L 460.99 71.82 L 457.10 73.79 L 456.52 76.25 L 455.92 77.83 L 455.08 79.77 L 454.87 74.96 L 454.80 74.99 L 454.67 73.61 Z" fill="#d0d0d0" fill-opacity="0.5" stroke="none"/>
<path d="M 474.54 67.11 L 474.60 67.11 L 474.75 67.11 L 474.75 68.33 L 474.60 70.39 L 474.54 72.00 Z" fill="#d0d0d0" fill-opacity="0.5" stroke="none"/>
<path d="M 479.64 54.15 L 481.89 54.15 L 481.89 54.15 L 482.02 54.15 L 482.14 54.15 L 482.28 54.15 L 482.66 54.15 L 483.59 54.15 L 484.26 54.15 L 484.27 54.15 L 484.78 54.15 L 485.22 54.15 L 485.60 54.15 L 485.60 54.15 L 485.74 54.15 L 486.43 54.15 L 486.73 54.15 L 487.02 54.15 L 487.26 54.15 L 487.45 54.15 L 487.48 54.15 L 488.11 54.15 L 488.23 54.15 L 496.63 54.15 L 498.76 54.15 L 499.69 54.15 L 500.42 54.15 L 500.69 54.15 L 500.99 54.15 L 501.92 54.15 L 503.33 54.15 L 505.39 54.15 L 506.34 54.15 L 506.65 54.15 L 506.71 54.15 L 506.83 54.15 L 506.88 54.15 L 507.00 54.15 L 508.66 54.15 L 508.85 54.15 L 509.40 54.15 L 509.89 54.15 L 520.90 54.15 L 521.21 54.15 L 521.27 54.15 L 521.77 54.15 L 521.80 54.15 L 521.85 54.15 L 521.96 54.15 L 525.06 54.15 L 526.30 54.15 L 527.94 54.15 L 530.70 54.15 L 530.81 54.15 L 531.09 54.15 L 538.32 54.15 L 542.52 54.15 L 543.26 54.15 L 545.98 54.15 L 548.02 54.15 L 549.16 54.15 L 552.42 54.15 L 559.47 54.15 L 560.87 54.15 L 564.01 54.15 L 564.58 54.15 L 581.12 54.15 L 583.09 54.15 L 588.80 54.15 L 589.38 54.15 L 591.21 54.15 L 592.08 54.15 L 592.08 55.42 L 591.21 58.18 L 589.38 60.00 L 588.80 54.99 L 583.09 57.75 L 581.12 60.02 L 564.58 62.28 L 564.01 64.46 L 560.87 63.00 L 559.47 63.41 L 552.42 66.13 L 549.16 67.60 L 548.02 62.66 L 545.98 57.68 L 543.26 59.53 L 542.52 62.03 L 538.32 63.95 L 531.09 66.08 L 530.81 68.77 L 530.70 68.93 L 527.94 64.03 L 526.30 64.65 L 525.06 66.23 L 521.96 68.74 L 521.85 70.64 L 521.80 72.39 L 521.77 67.52 L 521.27 62.58 L 521.21 62.77 L 520.90 61.34 L 509.89 56.34 L 509.40 58.81 L 508.85 60.23 L 508.66 55.23 L 507.00 56.59 L 506.88 58.02 L 506.83 59.88 L 506.71 54.87 L 506.65 57.33 L 506.34 59.72 L 505.39 62.24 L 503.33 62.25 L 501.92 63.78 L 500.99 64.15 L 500.69 66.29 L 500.42 67.75 L 499.69 70.21 L 498.76 70.04 L 496.63 72.19 L 488.23 67.30 L 488.11 69.39 L 487.48 71.12 L 487.45 66.22 L 487.26 66.15 L 487.02 68.53 L 486.73 70.19 L 486.43 70.40 L 485.74 72.46 L 485.60 67.64 L 485.60 62.74 L 485.22 57.76 L 484.78 60.50 L 484.27 61.46 L 484.26 64.31 L 483.59 59.34 L 482.66 60.85 L 482.28 61.65 L 482.14 64.10 L 482.02 66.24 L 481.89 61.29 L 481.89 64.13 L 479.64 59.16 Z" fill="#d0d0d0" fill-opacity="0.5" stroke="none"/>
<path d="M 612.50 48.19 L 613.24 48.19 L 613.39 48.19 L 616.05 48.19 L 616.11 48.19 L 628.48 48.19 L 637.45 48.19 L 637.45 49.02 L 628.48 50.04 L 616.11 52.33 L 616.05 54.12 L 613.39 56.90 L 613.24 51.86 L 612.50 53.27 Z" fill="#d0d0d0" fill-opacity="0.5" stroke="none"/>
<path d="M 667.30 40.85 L 670.16 40.85 L 670.69 40.85 L 673.66 40.85 L 674.81 40.85 L 676.59 40.85 L 677.24 40.85 L 679.57 40.85 L 680.16 40.85 L 680.23 40.85 L 680.36 40.85 L 680.51 40.85 L 680.80 40.85 L 692.49 40.85 L 710.86 40.85 L 713.11 40.85 L 717.02 40.85 L 722.80 40.85 L 722.93 40.85 L 722.94 40.85 L 723.02 40.85 L 735.67 40.85 L 735.75 40.85 L 736.63 40.85 L 737.24 40.85 L 738.11 40.85 L 738.37 40.85 L 740.68 40.85 L 760.79 40.85 L 762.47 40.85 L 762.93 40.85 L 765.05 40.85 L 765.20 40.85 L 777.84 40.85 L 777.91 40.85 L 780.17 40.85 L 787.15 40.85 L 801.61 40.85 L 818.83 40.85 L 823.60 40.85 L 837.11 40.85 L 841.88 40.85 L 841.96 40.85 L 842.02 40.85 L 842.15 40.85 L 850.77 40.85 L 851.05 40.85 L 863.73 40.85 L 865.59 40.85 L 866.13 40.85 L 871.64 40.85 L 883.71 40.85 L 884.04 40.85 L 884.67 40.85 L 890.83 40.85 L 902.18 40.85 L 905.12 40.85 L 905.98 40.85 L 908.52 40.85 L 911.09 40.85 L 911.98 40.85 L 914.81 40.85 L 914.85 40.85 L 927.81 40.85 L 931.65 40.85 L 936.11 40.85 L 936.36 40.85 L 936.62 40.85 L 944.06 40.85 L 948.26 40.85 L 949.14 40.85 L 951.64 40.85 L 951.76 40.85 L 953.06 40.85 L 953.69 40.85 L 953.94 40.85 L 955.16 40.85 L 956.89 40.85 L 965.22 40.85 L 969.68 40.85 L 978.91 40.85 L 986.37 40.85 L 991.07 40.85 L 994.79 40.85 L 996.67 40.85 L 1000.15 40.85 L 1000.60 40.85 L 1007.87 40.85 L 1007.95 40.85 L 1010.74 40.85 L 1012.03 40.85 L 1012.78 40.85 L 1015.57 40.85 L 1015.61 40.85 L 1016.04 40.85 L 1017.91 40.85 L 1021.19 40.85 L 1033.99 40.85 L 1039.24 40.85 L 1051.95 40.85 L 1053.47 40.85 L 1055.10 40.85 L 1057.52 40.85 L 1057.55 40.85 L 1057.69 40.85 L 1058.23 40.85 L 1063.70 40.85 L 1063.70 41.66 L 1058.23 43.87 L 1057.69 46.41 L 1057.55 48.26 L 1057.52 50.67 L 1055.10 45.57 L 1053.47 48.09 L 1051.95 50.35 L 1039.24 45.25 L 1033.99 47.27 L 1021.19 49.84 L 1017.91 52.38 L 1016.04 54.65 L 1015.61 56.70 L 1015.57 59.37 L 1012.78 54.36 L 1012.03 55.66 L 1010.74 55.22 L 1007.95 54.92 L 1007.87 55.75 L 1000.60 50.71 L 1000.15 52.96 L 996.67 55.88 L 994.79 50.83 L 991.07 53.77 L 986.37 54.76 L 978.91 57.56 L 969.68 58.45 L 965.22 60.71 L 956.89 61.61 L 955.16 64.17 L 953.94 65.00 L 953.69 65.73 L 953.06 67.79 L 951.76 69.51 L 951.64 68.97 L 949.14 64.05 L 948.26 63.62 L 944.06 65.58 L 936.62 65.76 L 936.36 67.58 L 936.11 62.64 L 931.65 65.40 L 927.81 64.13 L 914.85 64.42 L 914.81 67.16 L 911.98 62.23 L 911.09 64.78 L 908.52 65.92 L 905.98 68.65 L 905.12 70.57 L 902.18 65.67 L 890.83 67.48 L 884.67 68.47 L 884.04 63.54 L 883.71 64.54 L 871.64 64.57 L 866.13 65.89 L 865.59 68.36 L 863.73 71.07 L 851.05 66.17 L 850.77 68.61 L 842.15 70.36 L 842.02 70.36 L 841.96 65.45 L 841.88 60.51 L 837.11 55.51 L 823.60 54.76 L 818.83 56.49 L 801.61 54.90 L 787.15 56.53 L 780.17 57.74 L 777.91 58.41 L 777.84 59.69 L 765.20 54.67 L 765.05 54.87 L 762.93 55.80 L 762.47 55.99 L 760.79 57.90 L 740.68 60.40 L 738.37 60.35 L 738.11 60.08 L 737.24 61.50 L 736.63 63.13 L 735.75 61.31 L 735.67 62.13 L 723.02 64.87 L 722.94 65.55 L 722.93 60.63 L 722.80 55.66 L 717.02 50.62 L 713.11 48.91 L 710.86 48.45 L 692.49 43.34 L 680.80 45.77 L 680.51 47.70 L 680.36 50.51 L 680.23 52.05 L 680.16 53.30 L 679.57 48.22 L 677.24 43.11 L 676.59 45.95 L 674.81 47.52 L 673.66 46.84 L 670.69 48.80 L 670.16 43.69 L 667.30 45.98 Z" fill="#d0d0d0" fill-opacity="0.5" stroke="none"/>
<path d="M 1073.01 37.51 L 1078.78 37.51 L 1078.78 40.41 L 1073.01 42.68 Z" fill="#d0d0d0" fill-opacity="0.5" stroke="none"/>
<path d="M 1103.36 27.92 L 1104.05 27.92 L 1115.82 27.92 L 1118.41 27.92 L 1119.25 27.92 L 1121.21 27.92 L 1122.72 27.92 L 1128.11 27.92 L 1128.57 27.92 L 1137.65 27.92 L 1138.94 27.92 L 1146.83 27.92 L 1146.83 27.94 L 1138.94 30.86 L 1137.65 30.73 L 1128.57 32.51 L 1128.11 32.18 L 1122.72 32.75 L 1121.21 31.45 L 1119.25 33.89 L 1118.41 28.64 L 1115.82 28.89 L 1104.05 30.93 L 1103.36 33.18 Z" fill="#d0d0d0" fill-opacity="0.5" stroke="none"/>
<path d="M 1161.89 25.00 L 1165.23 25.00 L 1170.00 25.00 L 1170.00 26.66 L 1165.23 28.76 L 1161.89 30.28 Z" fill="#d0d0d0" fill-opacity="0.5" stroke="none"/>
<polyline fill="none" stroke="#111" stroke-width="1.2" points="70.00,101.99 75.63,99.45 82.68,97.43 83.28,97.70 90.04,96.52 97.71,95.67 98.12,94.22 102.58,95.20 115.74,94.20 117.64,92.48 122.64,90.05 142.05,87.44 165.31,85.47 166.36,82.85 167.30,80.22 168.15,77.80 180.60,82.57 183.45,82.11 186.42,86.84 189.45,84.21 201.86,88.93 204.89,93.59 207.79,93.30 208.78,97.93 208.82,96.08 211.11,93.73 222.59,98.35 226.19,97.21 229.62,95.40 232.29,100.01 243.64,98.28 244.20,96.34 247.57,100.94 250.53,100.58 268.90,99.30 274.31,100.05 293.38,100.87 310.31,98.98 310.76,96.87 314.95,95.05 336.01,93.52 338.77,91.16 360.23,90.08 367.32,88.31 367.44,92.99 377.77,91.48 396.48,90.01 399.87,87.41 400.96,84.79 402.22,89.50 403.07,90.66 411.46,89.15 415.32,93.82 417.88,91.75 424.35,89.55 431.78,94.22 433.51,94.05 436.38,92.34 441.59,96.99 442.28,95.02 442.72,92.74 443.02,97.37 443.04,95.23 444.06,92.91 444.11,90.70 444.31,89.14 444.64,86.54 444.75,84.56 445.36,82.16 445.63,80.70 445.69,78.06 445.82,75.41 452.65,72.56 453.00,69.87 453.25,68.86 453.89,73.73 454.00,74.00 454.11,72.12 454.29,69.59 454.53,68.74 454.67,73.61 454.80,74.99 454.87,74.96 455.08,79.77 455.92,77.83 456.52,76.25 457.10,73.79 460.99,71.82 463.15,76.66 463.21,74.38 466.74,72.37 466.89,69.90 467.06,68.63 467.18,67.11 474.54,72.00 474.60,70.39 474.75,68.33 475.78,66.97 476.19,64.68 477.45,62.51 478.26,61.04 478.38,58.97 479.21,56.46 479.49,54.15 479.64,59.16 481.89,64.13 481.89,61.29 482.02,66.24 482.14,64.10 482.28,61.65 482.66,60.85 483.59,59.34 484.26,64.31 484.27,61.46 484.78,60.50 485.22,57.76 485.60,62.74 485.60,67.64 485.74,72.46 486.43,70.40 486.73,70.19 487.02,68.53 487.26,66.15 487.45,66.22 487.48,71.12 488.11,69.39 488.23,67.30 496.63,72.19 498.76,70.04 499.69,70.21 500.42,67.75 500.69,66.29 500.99,64.15 501.92,63.78 503.33,62.25 505.39,62.24 506.34,59.72 506.65,57.33 506.71,54.87 506.83,59.88 506.88,58.02 507.00,56.59 508.66,55.23 508.85,60.23 509.40,58.81 509.89,56.34 520.90,61.34 521.21,62.77 521.27,62.58 521.77,67.52 521.80,72.39 521.85,70.64 521.96,68.74 525.06,66.23 526.30,64.65 527.94,64.03 530.70,68.93 530.81,68.77 531.09,66.08 538.32,63.95 542.52,62.03 543.26,59.53 545.98,57.68 548.02,62.66 549.16,67.60 552.42,66.13 559.47,63.41 560.87,63.00 564.01,64.46 564.58,62.28 581.12,60.02 583.09,57.75 588.80,54.99 589.38,60.00 591.21,58.18 592.08,55.42 595.26,53.76 606.38,50.98 609.56,48.19 612.50,53.27 613.24,51.86 613.39,56.90 616.05,54.12 616.11,52.33 628.48,50.04 637.45,49.02 648.94,46.22 649.75,46.15 650.03,44.88 653.06,44.82 655.80,43.28 658.95,40.85 667.30,45.98 670.16,43.69 670.69,48.80 673.66,46.84 674.81,47.52 676.59,45.95 677.24,43.11 679.57,48.22 680.16,53.30 680.23,52.05 680.36,50.51 680.51,47.70 680.80,45.77 692.49,43.34 710.86,48.45 713.11,48.91 717.02,50.62 722.80,55.66 722.93,60.63 722.94,65.55 723.02,64.87 735.67,62.13 735.75,61.31 736.63,63.13 737.24,61.50 738.11,60.08 738.37,60.35 740.68,60.40 760.79,57.90 762.47,55.99 762.93,55.80 765.05,54.87 765.20,54.67 777.84,59.69 777.91,58.41 780.17,57.74 787.15,56.53 801.61,54.90 818.83,56.49 823.60,54.76 837.11,55.51 841.88,60.51 841.96,65.45 842.02,70.36 842.15,70.36 850.77,68.61 851.05,66.17 863.73,71.07 865.59,68.36 866.13,65.89 871.64,64.57 883.71,64.54 884.04,63.54 884.67,68.47 890.83,67.48 902.18,65.67 905.12,70.57 905.98,68.65 908.52,65.92 911.09,64.78 911.98,62.23 914.81,67.16 914.85,64.42 927.81,64.13 931.65,65.40 936.11,62.64 936.36,67.58 936.62,65.76 944.06,65.58 948.26,63.62 949.14,64.05 951.64,68.97 951.76,69.51 953.06,67.79 953.69,65.73 953.94,65.00 955.16,64.17 956.89,61.61 965.22,60.71 969.68,58.45 978.91,57.56 986.37,54.76 991.07,53.77 994.79,50.83 996.67,55.88 1000.15,52.96 1000.60,50.71 1007.87,55.75 1007.95,54.92 1010.74,55.22 1012.03,55.66 1012.78,54.36 1015.57,59.37 1015.61,56.70 1016.04,54.65 1017.91,52.38 1021.19,49.84 1033.99,47.27 1039.24,45.25 1051.95,50.35 1053.47,48.09 1055.10,45.57 1057.52,50.67 1057.55,48.26 1057.69,46.41 1058.23,43.87 1063.70,41.66 1071.73,40.09 1072.62,37.51 1073.01,42.68 1078.78,40.41 1079.84,37.41 1082.55,34.94 1082.65,32.05 1082.88,29.79 1085.88,29.07 1094.37,27.92 1103.36,33.18 1104.05,30.93 1115.82,28.89 1118.41,28.64 1119.25,33.89 1121.21,31.45 1122.72,32.75 1128.11,32.18 1128.57,32.51 1137.65,30.73 1138.94,30.86 1146.83,27.94 1160.04,25.00 1161.89,30.28 1165.23,28.76 1170.00,26.66"/>
<text x="620.0" y="588" text-anchor="middle" font-family="sans-serif" font-size="12" fill="#333">UTC time</text>
<text x="15" y="287.5" transform="rotate(-90 15,287.5)" text-anchor="middle" font-family="sans-serif" font-size="12" fill="#333">Capital</text>
</svg>