<svg xmlns="http://www.w3.org/2000/svg" width="1200" height="600" viewBox="0 0 1200 600">
<desc>Equity curve with drawdown fill; x-axis is months only (no exact timestamps)</desc>
<text x="600.0" y="18.0" text-anchor="middle" font-family="sans-serif" font-size="14">Balance Curve 2010 (UTC)</text>
<rect x="70" y="25" width="1100" height="525" fill="white" stroke="#ccc" />
<line x1="70" y1="550.00" x2="1170" y2="550.00" stroke="#eee"/>
<text x="62" y="554.0" text-anchor="end" font-family="sans-serif" font-size="11" fill="#555">0.00</text>
<line x1="70" y1="445.00" x2="1170" y2="445.00" stroke="#eee"/>
<text x="62" y="449.0" text-anchor="end" font-family="sans-serif" font-size="11" fill="#555">25748</text>
<line x1="70" y1="340.00" x2="1170" y2="340.00" stroke="#eee"/>
<text x="62" y="344.0" text-anchor="end" font-family="sans-serif" font-size="11" fill="#555">51497</text>
<line x1="70" y1="235.00" x2="1170" y2="235.00" stroke="#eee"/>
<text x="62" y="239.0" text-anchor="end" font-family="sans-serif" font-size="11" fill="#555">77245</text>
<line x1="70" y1="130.00" x2="1170" y2="130.00" stroke="#eee"/>
<text x="62" y="134.0" text-anchor="end" font-family="sans-serif" font-size="11" fill="#555">102994</text>
<line x1="70" y1="25.00" x2="1170" y2="25.00" stroke="#eee"/>
<text x="62" y="29.0" text-anchor="end" font-family="sans-serif" font-size="11" fill="#555">128742</text>
<line x1="161.67" y1="25" x2="161.67" y2="550" stroke="#f2f2f2"/>
<line x1="253.33" y1="25" x2="253.33" y2="550" stroke="#f2f2f2"/>
<line x1="345.00" y1="25" x2="345.00" y2="550" stroke="#f2f2f2"/>
<line x1="436.67" y1="25" x2="436.67" y2="550" stroke="#f2f2f2"/>
<line x1="528.33" y1="25" x2="528.33" y2="550" stroke="#f2f2f2"/>
<line x1="620.00" y1="25" x2="620.00" y2="550" stroke="#f2f2f2"/>
<line x1="711.67" y1="25" x2="711.67" y2="550" stroke="#f2f2f2"/>
<line x1="803.33" y1="25" x2="803.33" y2="550" stroke="#f2f2f2"/>
<line x1="895.00" y1="25" x2="895.00" y2="550" stroke="#f2f2f2"/>
<line x1="986.67" y1="25" x2="986.67" y2="550" stroke="#f2f2f2"/>
<line x1="1078.33" y1="25" x2="1078.33" y2="550" stroke="#f2f2f2"/>
<text x="115.83" y="566.00" text-anchor="middle" font-family="sans-serif" font-size="11" fill="#444">Jan</text>
<text x="207.50" y="566.00" text-anchor="middle" font-family="sans-serif" font-size="11" fill="#444">Feb</text>
<text x="299.17" y="566.00" text-anchor="middle" font-family="sans-serif" font-size="11" fill="#444">Mar</text>
<text x="390.83" y="566.00" text-anchor="middle" font-family="sans-serif" font-size="11" fill="#444">Apr</text>
<text x="482.50" y="566.00" text-anchor="middle" font-family="sans-serif" font-size="11" fill="#444">May</text>
<text x="574.17" y="566.00" text-anchor="middle" font-family="sans-serif" font-size="11" fill="#444">Jun</text>
<text x="665.83" y="566.00" text-anchor="middle" font-family="sans-serif" font-size="11" fill="#444">Jul</text>
<text x="757.50" y="566.00" text-anchor="middle" font-family="sans-serif" font-size="11" fill="#444">Aug</text>
<text x="849.17" y="566.00" text-anchor="middle" font-family="sans-serif" font-size="11" fill="#444">Sep</text>
<text x="940.83" y="566.00" text-anchor="middle" font-family="sans-serif" font-size="11" fill="#444">Oct</text>
<text x="1032.50" y="566.00" text-anchor="middle" font-family="sans-serif" font-size="11" fill="#444">Nov</text>
<text x="1124.17" y="566.00" text-anchor="middle" font-family="sans-serif" font-size="11" fill="#444">Dec</text>
<line x1="70" y1="550" x2="1170" y2="550" stroke="#888"/>
<line x1="70" y1="25" x2="70" y2="550" stroke="#888"/>
<line x1="75.09" y1="550.00" x2="75.09" y2="556.00" stroke="#888"/>
<line x1="1167.30"   y1="550.00" x2="1167.30"   y2="556.00" stroke="#888"/>
<text x="75.09" y="582.00" text-anchor="start" font-family="sans-serif" font-size="11" fill="#333">Initial Balance: 100000</text>
<text x="1167.30"   y="582.00" text-anchor="end"   font-family="sans-serif" font-size="11" fill="#333">Ending Balance: 128742</text>
<path d="M 115.83 136.49 L 115.83 136.80 Z" fill="#d0d0d0" fill-opacity="0.5" stroke="none"/>
<path d="M 207.50 125.94 L 225.83 125.94 L 244.17 125.94 L 244.17 126.62 L 225.83 128.20 L 207.50 130.26 Z" fill="#d0d0d0" fill-opacity="0.5" stroke="none"/>
<path d="M 306.81 120.39 L 306.81 121.25 Z" fill="#d0d0d0" fill-opacity="0.5" stroke="none"/>
<path d="M 398.47 113.99 L 413.75 113.99 L 429.03 113.99 L 437.60 113.99 L 439.47 113.99 L 441.34 113.99 L 443.21 113.99 L 445.09 113.99 L 446.96 113.99 L 448.83 113.99 L 450.70 113.99 L 452.57 113.99 L 452.57 115.26 L 450.70 117.62 L 448.83 119.90 L 446.96 121.98 L 445.09 123.96 L 443.21 126.01 L 441.34 128.01 L 439.47 129.72 L 437.60 125.38 L 429.03 121.01 L 413.75 116.59 L 398.47 118.43 Z" fill="#d0d0d0" fill-opacity="0.5" stroke="none"/>
<path d="M 471.28 100.41 L 473.15 100.41 L 475.02 100.41 L 476.89 100.41 L 476.89 100.69 L 475.02 102.69 L 473.15 103.82 L 471.28 104.98 Z" fill="#d0d0d0" fill-opacity="0.5" stroke="none"/>
<path d="M 482.50 96.79 L 484.37 96.79 L 486.24 96.79 L 488.11 96.79 L 489.98 96.79 L 491.85 96.79 L 493.72 96.79 L 495.60 96.09 L 497.47 96.09 L 497.47 105.19 L 495.60 100.60 L 493.72 98.70 L 491.85 99.48 L 489.98 101.81 L 488.11 97.20 L 486.24 98.46 L 484.37 99.09 L 482.50 101.41 Z" fill="#d0d0d0" fill-opacity="0.5" stroke="none"/>
<path d="M 501.21 96.09 L 503.08 96.09 L 504.95 96.09 L 506.82 96.09 L 508.69 96.09 L 510.56 96.09 L 510.56 96.35 L 508.69 98.24 L 506.82 99.75 L 504.95 101.83 L 503.08 103.31 L 501.21 103.40 Z" fill="#d0d0d0" fill-opacity="0.5" stroke="none"/>
<path d="M 518.04 93.56 L 518.04 93.65 Z" fill="#d0d0d0" fill-opacity="0.5" stroke="none"/>
<path d="M 563.38 73.08 L 568.77 73.08 L 574.17 73.08 L 579.56 73.08 L 584.95 73.08 L 590.34 73.08 L 595.74 73.08 L 595.74 74.75 L 590.34 76.80 L 584.95 75.77 L 579.56 74.27 L 574.17 74.56 L 568.77 75.86 L 563.38 77.90 Z" fill="#d0d0d0" fill-opacity="0.5" stroke="none"/>
<path d="M 665.83 59.96 L 665.83 60.00 Z" fill="#d0d0d0" fill-opacity="0.5" stroke="none"/>
<path d="M 706.57 55.47 L 719.31 55.47 L 734.58 55.47 L 749.86 55.47 L 765.14 55.47 L 780.42 55.47 L 795.69 55.47 L 812.50 55.47 L 830.83 55.47 L 849.17 55.47 L 867.50 55.47 L 885.83 55.47 L 897.86 55.47 L 903.59 55.47 L 909.32 55.47 L 915.05 55.47 L 920.78 55.47 L 926.51 55.47 L 932.24 55.47 L 932.24 57.17 L 926.51 55.82 L 920.78 58.44 L 915.05 61.01 L 909.32 56.05 L 903.59 58.66 L 897.86 59.69 L 885.83 61.71 L 867.50 62.59 L 849.17 64.01 L 830.83 64.89 L 812.50 64.35 L 795.69 62.72 L 780.42 65.03 L 765.14 66.65 L 749.86 68.13 L 734.58 66.27 L 719.31 61.40 L 706.57 56.44 Z" fill="#d0d0d0" fill-opacity="0.5" stroke="none"/>
<path d="M 1016.13 35.89 L 1022.68 35.89 L 1029.23 35.89 L 1035.77 35.89 L 1042.32 35.89 L 1048.87 35.89 L 1055.42 35.89 L 1061.96 35.89 L 1068.51 35.89 L 1075.06 35.89 L 1081.03 35.89 L 1086.42 35.89 L 1091.81 35.89 L 1097.21 35.89 L 1102.60 35.89 L 1102.60 36.78 L 1097.21 38.07 L 1091.81 40.18 L 1086.42 42.22 L 1081.03 37.14 L 1075.06 39.98 L 1068.51 42.37 L 1061.96 43.80 L 1055.42 45.91 L 1048.87 40.82 L 1042.32 42.57 L 1035.77 37.44 L 1029.23 39.40 L 1022.68 40.61 L 1016.13 41.02 Z" fill="#d0d0d0" fill-opacity="0.5" stroke="none"/>
<path d="M 1129.56 30.10 L 1134.95 30.10 L 1140.34 30.10 L 1140.34 31.25 L 1134.95 31.02 L 1129.56 31.47 Z" fill="#d0d0d0" fill-opacity="0.5" stroke="none"/>
<path d="M 1151.13 28.53 L 1151.13 30.62 Z" fill="#d0d0d0" fill-opacity="0.5" stroke="none"/>
<polyline fill="none" stroke="#111" stroke-width="1.2" points="75.09,142.21 85.28,140.00 95.46,137.79 105.65,136.49 115.83,136.80 126.02,135.72 136.20,134.26 146.39,132.15 156.57,129.89 170.83,128.21 189.17,125.94 207.50,130.26 225.83,128.20 244.17,126.62 260.97,124.34 276.25,122.11 291.53,120.39 306.81,121.25 322.08,119.56 337.36,117.94 352.64,116.59 367.92,115.31 383.19,113.99 398.47,118.43 413.75,116.59 429.03,121.01 437.60,125.38 439.47,129.72 441.34,128.01 443.21,126.01 445.09,123.96 446.96,121.98 448.83,119.90 450.70,117.62 452.57,115.26 454.44,112.94 456.31,112.12 458.18,109.92 460.05,109.21 461.92,106.96 463.79,105.25 465.66,103.89 467.53,102.17 469.40,100.41 471.28,104.98 473.15,103.82 475.02,102.69 476.89,100.69 478.76,98.82 480.63,96.79 482.50,101.41 484.37,99.09 486.24,98.46 488.11,97.20 489.98,101.81 491.85,99.48 493.72,98.70 495.60,100.60 497.47,105.19 499.34,96.09 501.21,103.40 503.08,103.31 504.95,101.83 506.82,99.75 508.69,98.24 510.56,96.35 512.43,95.10 514.30,94.87 516.17,93.56 518.04,93.65 519.91,91.43 521.79,89.23 523.66,87.87 525.53,86.65 527.40,84.46 531.03,83.07 536.42,80.62 541.81,78.71 547.21,76.99 552.60,74.73 557.99,73.08 563.38,77.90 568.77,75.86 574.17,74.56 579.56,74.27 584.95,75.77 590.34,76.80 595.74,74.75 601.13,72.70 606.52,70.18 611.91,68.71 617.30,66.18 625.09,63.63 635.28,61.96 645.46,61.10 655.65,59.96 665.83,60.00 676.02,59.32 686.20,57.25 696.39,55.47 706.57,56.44 719.31,61.40 734.58,66.27 749.86,68.13 765.14,66.65 780.42,65.03 795.69,62.72 812.50,64.35 830.83,64.89 849.17,64.01 867.50,62.59 885.83,61.71 897.86,59.69 903.59,58.66 909.32,56.05 915.05,61.01 920.78,58.44 926.51,55.82 932.24,57.17 937.97,54.54 943.70,54.45 949.43,52.59 955.16,50.96 960.89,48.99 966.61,48.24 972.34,47.44 978.07,45.28 983.80,44.49 989.94,41.80 996.49,40.92 1003.04,38.04 1009.58,35.89 1016.13,41.02 1022.68,40.61 1029.23,39.40 1035.77,37.44 1042.32,42.57 1048.87,40.82 1055.42,45.91 1061.96,43.80 1068.51,42.37 1075.06,39.98 1081.03,37.14 1086.42,42.22 1091.81,40.18 1097.21,38.07 1102.60,36.78 1107.99,34.93 1113.38,34.80 1118.77,32.38 1124.17,30.10 1129.56,31.47 1134.95,31.02 1140.34,31.25 1145.74,28.53 1151.13,30.62 1156.52,28.31 1161.91,26.94 1167.30,25.00"/>
<text x="15" y="287.5" transform="rotate(-90 15,287.5)" text-anchor="middle" font-family="sans-serif" font-size="12" fill="#333">USD</text>
</svg>