<svg xmlns="http://www.w3.org/2000/svg" width="1200" height="600" viewBox="0 0 1200 600">
<desc>Equity curve with drawdown fill</desc>
<text x="600.0" y="18.0" text-anchor="middle" font-family="sans-serif" font-size="14">Portfolio 2020</text>
<rect x="70" y="25" width="1100" height="525" fill="white" stroke="#ccc" />
<line x1="70" y1="550.00" x2="1170" y2="550.00" stroke="#eee"/>
<text x="62" y="554.0" text-anchor="end" font-family="sans-serif" font-size="11" fill="#555">0.00</text>
<line x1="70" y1="445.00" x2="1170" y2="445.00" stroke="#eee"/>
<text x="62" y="449.0" text-anchor="end" font-family="sans-serif" font-size="11" fill="#555">21548</text>
<line x1="70" y1="340.00" x2="1170" y2="340.00" stroke="#eee"/>
<text x="62" y="344.0" text-anchor="end" font-family="sans-serif" font-size="11" fill="#555">43095</text>
<line x1="70" y1="235.00" x2="1170" y2="235.00" stroke="#eee"/>
<text x="62" y="239.0" text-anchor="end" font-family="sans-serif" font-size="11" fill="#555">64643</text>
<line x1="70" y1="130.00" x2="1170" y2="130.00" stroke="#eee"/>
<text x="62" y="134.0" text-anchor="end" font-family="sans-serif" font-size="11" fill="#555">86191</text>
<line x1="70" y1="25.00" x2="1170" y2="25.00" stroke="#eee"/>
<text x="62" y="29.0" text-anchor="end" font-family="sans-serif" font-size="11" fill="#555">107739</text>
<line x1="100.06" y1="25" x2="100.06" y2="550" stroke="#f2f2f2"/>
<text x="100.06" y="566" text-anchor="middle" font-family="sans-serif" font-size="11" fill="#555">Mar</text>
<line x1="211.86" y1="25" x2="211.86" y2="550" stroke="#f2f2f2"/>
<text x="211.86" y="566" text-anchor="middle" font-family="sans-serif" font-size="11" fill="#555">Apr</text>
<line x1="320.05" y1="25" x2="320.05" y2="550" stroke="#f2f2f2"/>
<text x="320.05" y="566" text-anchor="middle" font-family="sans-serif" font-size="11" fill="#555">May</text>
<line x1="431.84" y1="25" x2="431.84" y2="550" stroke="#f2f2f2"/>
<text x="431.84" y="566" text-anchor="middle" font-family="sans-serif" font-size="11" fill="#555">Jun</text>
<line x1="540.03" y1="25" x2="540.03" y2="550" stroke="#f2f2f2"/>
<text x="540.03" y="566" text-anchor="middle" font-family="sans-serif" font-size="11" fill="#555">Jul</text>
<line x1="651.82" y1="25" x2="651.82" y2="550" stroke="#f2f2f2"/>
<text x="651.82" y="566" text-anchor="middle" font-family="sans-serif" font-size="11" fill="#555">Aug</text>
<line x1="763.62" y1="25" x2="763.62" y2="550" stroke="#f2f2f2"/>
<text x="763.62" y="566" text-anchor="middle" font-family="sans-serif" font-size="11" fill="#555">Sep</text>
<line x1="871.81" y1="25" x2="871.81" y2="550" stroke="#f2f2f2"/>
<text x="871.81" y="566" text-anchor="middle" font-family="sans-serif" font-size="11" fill="#555">Oct</text>
<line x1="983.60" y1="25" x2="983.60" y2="550" stroke="#f2f2f2"/>
<text x="983.60" y="566" text-anchor="middle" font-family="sans-serif" font-size="11" fill="#555">Nov</text>
<line x1="1091.79" y1="25" x2="1091.79" y2="550" stroke="#f2f2f2"/>
<text x="1091.79" y="566" text-anchor="middle" font-family="sans-serif" font-size="11" fill="#555">Dec</text>
<line x1="70" y1="550" x2="1170" y2="550" stroke="#888"/>
<line x1="70" y1="25" x2="70" y2="550" stroke="#888"/>
<path d="M 70.00 62.71 L 70.00 62.74 Z" fill="#d0d0d0" fill-opacity="0.5" stroke="none"/>
<path d="M 119.71 60.56 L 119.71 60.74 Z" fill="#d0d0d0" fill-opacity="0.5" stroke="none"/>
<path d="M 138.52 36.69 L 140.07 36.69 L 141.86 36.69 L 141.90 36.69 L 142.03 36.69 L 142.15 36.69 L 142.26 36.69 L 142.32 36.69 L 142.48 36.69 L 145.36 36.69 L 145.77 36.69 L 154.29 36.69 L 156.20 36.69 L 159.78 36.69 L 159.95 36.69 L 159.95 37.84 L 159.78 40.39 L 156.20 41.07 L 154.29 42.85 L 145.77 45.30 L 145.36 47.13 L 142.48 47.83 L 142.32 50.32 L 142.26 53.11 L 142.15 55.42 L 142.03 50.39 L 141.90 45.34 L 141.86 47.76 L 140.07 42.64 L 138.52 41.87 Z" fill="#d0d0d0" fill-opacity="0.5" stroke="none"/>
<path d="M 163.40 35.89 L 163.70 35.89 L 163.85 35.89 L 164.22 35.89 L 164.84 35.89 L 164.84 35.89 L 165.18 35.89 L 165.18 36.41 L 164.84 39.09 L 164.84 42.06 L 164.22 36.88 L 163.85 39.55 L 163.70 39.90 L 163.40 41.08 Z" fill="#d0d0d0" fill-opacity="0.5" stroke="none"/>
<path d="M 166.20 33.71 L 166.22 33.71 L 166.53 33.71 L 166.80 33.71 L 166.88 33.71 L 166.92 33.71 L 167.38 33.71 L 167.52 33.71 L 167.53 33.71 L 167.58 33.71 L 167.79 33.71 L 168.86 33.71 L 169.78 33.71 L 170.10 33.71 L 170.61 33.71 L 170.98 33.71 L 180.66 33.71 L 181.24 33.71 L 181.27 33.71 L 181.42 33.71 L 181.51 33.71 L 181.67 33.71 L 181.93 33.71 L 183.18 33.71 L 184.04 33.71 L 184.56 33.71 L 185.09 33.71 L 189.30 33.71 L 190.37 33.71 L 192.57 33.71 L 194.98 33.71 L 195.89 33.71 L 196.24 33.71 L 196.33 33.71 L 196.57 33.71 L 208.54 33.71 L 210.12 33.71 L 210.82 33.71 L 213.33 33.71 L 217.65 33.71 L 234.81 33.71 L 242.88 33.71 L 264.47 33.71 L 268.46 33.71 L 293.58 33.71 L 294.08 33.71 L 310.88 33.71 L 318.84 33.71 L 318.96 33.71 L 335.99 33.71 L 383.83 33.71 L 394.61 33.71 L 415.61 33.71 L 444.66 33.71 L 444.99 33.71 L 445.11 33.71 L 448.30 33.71 L 463.03 33.71 L 467.25 33.71 L 470.82 33.71 L 474.01 33.71 L 485.27 33.71 L 488.25 33.71 L 498.84 33.71 L 499.16 33.71 L 542.42 33.71 L 617.51 33.71 L 646.84 33.71 L 650.89 33.71 L 664.78 33.71 L 675.79 33.71 L 719.38 33.71 L 719.65 33.71 L 747.71 33.71 L 747.71 35.47 L 719.65 38.35 L 719.38 40.14 L 675.79 41.88 L 664.78 40.93 L 650.89 42.64 L 646.84 44.53 L 617.51 46.58 L 542.42 47.99 L 499.16 47.83 L 498.84 50.28 L 488.25 52.39 L 485.27 54.55 L 474.01 56.23 L 470.82 55.77 L 467.25 54.99 L 463.03 55.85 L 448.30 54.98 L 445.11 57.76 L 444.99 58.09 L 444.66 53.07 L 415.61 54.69 L 394.61 53.30 L 383.83 55.00 L 335.99 57.45 L 318.96 52.41 L 318.84 52.75 L 310.88 47.67 L 294.08 48.98 L 293.58 50.66 L 268.46 51.44 L 264.47 52.03 L 242.88 52.76 L 234.81 47.69 L 217.65 48.97 L 213.33 49.68 L 210.82 50.08 L 210.12 52.24 L 208.54 53.82 L 196.57 56.36 L 196.33 57.43 L 196.24 58.84 L 195.89 53.82 L 194.98 55.79 L 192.57 57.99 L 190.37 60.18 L 189.30 62.43 L 185.09 63.39 L 184.56 65.56 L 184.04 67.67 L 183.18 62.75 L 181.93 57.77 L 181.67 58.99 L 181.51 61.32 L 181.42 63.88 L 181.27 66.24 L 181.24 61.32 L 180.66 56.33 L 170.98 57.77 L 170.61 60.50 L 170.10 63.00 L 169.78 58.02 L 168.86 53.00 L 167.79 47.92 L 167.58 50.34 L 167.53 52.29 L 167.52 47.25 L 167.38 42.14 L 166.92 36.96 L 166.88 39.80 L 166.80 41.70 L 166.53 41.38 L 166.22 36.20 L 166.20 38.93 Z" fill="#d0d0d0" fill-opacity="0.5" stroke="none"/>
<path d="M 837.38 25.19 L 837.38 27.76 Z" fill="#d0d0d0" fill-opacity="0.5" stroke="none"/>
<path d="M 994.90 25.00 L 1014.87 25.00 L 1065.26 25.00 L 1094.29 25.00 L 1165.54 25.00 L 1170.00 25.00 L 1170.00 34.08 L 1165.54 34.74 L 1094.29 35.24 L 1065.26 35.98 L 1014.87 30.74 L 994.90 25.45 Z" fill="#d0d0d0" fill-opacity="0.5" stroke="none"/>
<polyline fill="none" stroke="#111" stroke-width="1.2" points="70.00,62.74 106.28,60.56 119.71,60.74 128.79,58.59 129.19,55.69 129.19,52.71 130.00,50.16 130.35,48.32 130.98,46.59 131.00,43.77 132.69,41.90 133.38,39.56 134.97,36.69 138.52,41.87 140.07,42.64 141.86,47.76 141.90,45.34 142.03,50.39 142.15,55.42 142.26,53.11 142.32,50.32 142.48,47.83 145.36,47.13 145.77,45.30 154.29,42.85 156.20,41.07 159.78,40.39 159.95,37.84 162.61,35.89 163.40,41.08 163.70,39.90 163.85,39.55 164.22,36.88 164.84,42.06 164.84,39.09 165.18,36.41 165.98,33.71 166.20,38.93 166.22,36.20 166.53,41.38 166.80,41.70 166.88,39.80 166.92,36.96 167.38,42.14 167.52,47.25 167.53,52.29 167.58,50.34 167.79,47.92 168.86,53.00 169.78,58.02 170.10,63.00 170.61,60.50 170.98,57.77 180.66,56.33 181.24,61.32 181.27,66.24 181.42,63.88 181.51,61.32 181.67,58.99 181.93,57.77 183.18,62.75 184.04,67.67 184.56,65.56 185.09,63.39 189.30,62.43 190.37,60.18 192.57,57.99 194.98,55.79 195.89,53.82 196.24,58.84 196.33,57.43 196.57,56.36 208.54,53.82 210.12,52.24 210.82,50.08 213.33,49.68 217.65,48.97 234.81,47.69 242.88,52.76 264.47,52.03 268.46,51.44 293.58,50.66 294.08,48.98 310.88,47.67 318.84,52.75 318.96,52.41 335.99,57.45 383.83,55.00 394.61,53.30 415.61,54.69 444.66,53.07 444.99,58.09 445.11,57.76 448.30,54.98 463.03,55.85 467.25,54.99 470.82,55.77 474.01,56.23 485.27,54.55 488.25,52.39 498.84,50.28 499.16,47.83 542.42,47.99 617.51,46.58 646.84,44.53 650.89,42.64 664.78,40.93 675.79,41.88 719.38,40.14 719.65,38.35 747.71,35.47 747.76,32.66 747.89,30.53 794.56,27.84 798.12,25.19 837.38,27.76 994.58,25.00 994.90,25.45 1014.87,30.74 1065.26,35.98 1094.29,35.24 1165.54,34.74 1170.00,34.08"/>
<text x="620.0" y="588" text-anchor="middle" font-family="sans-serif" font-size="12" fill="#333">UTC time</text>
<text x="15" y="287.5" transform="rotate(-90 15,287.5)" text-anchor="middle" font-family="sans-serif" font-size="12" fill="#333">Capital</text>
</svg>