<svg xmlns="http://www.w3.org/2000/svg" width="1200" height="600" viewBox="0 0 1200 600">
<desc>Equity curve with drawdown fill; x-axis is months only (no exact timestamps)</desc>
<text x="600.0" y="18.0" text-anchor="middle" font-family="sans-serif" font-size="14">Portfolio 2008 (UTC)</text>
<rect x="70" y="25" width="1100" height="525" fill="white" stroke="#ccc" />
<line x1="70" y1="550.00" x2="1170" y2="550.00" stroke="#eee"/>
<text x="62" y="554.0" text-anchor="end" font-family="sans-serif" font-size="11" fill="#555">0.00</text>
<line x1="70" y1="445.00" x2="1170" y2="445.00" stroke="#eee"/>
<text x="62" y="449.0" text-anchor="end" font-family="sans-serif" font-size="11" fill="#555">26177</text>
<line x1="70" y1="340.00" x2="1170" y2="340.00" stroke="#eee"/>
<text x="62" y="344.0" text-anchor="end" font-family="sans-serif" font-size="11" fill="#555">52354</text>
<line x1="70" y1="235.00" x2="1170" y2="235.00" stroke="#eee"/>
<text x="62" y="239.0" text-anchor="end" font-family="sans-serif" font-size="11" fill="#555">78530</text>
<line x1="70" y1="130.00" x2="1170" y2="130.00" stroke="#eee"/>
<text x="62" y="134.0" text-anchor="end" font-family="sans-serif" font-size="11" fill="#555">104707</text>
<line x1="70" y1="25.00" x2="1170" y2="25.00" stroke="#eee"/>
<text x="62" y="29.0" text-anchor="end" font-family="sans-serif" font-size="11" fill="#555">130884</text>
<line x1="161.67" y1="25" x2="161.67" y2="550" stroke="#f2f2f2"/>
<line x1="253.33" y1="25" x2="253.33" y2="550" stroke="#f2f2f2"/>
<line x1="345.00" y1="25" x2="345.00" y2="550" stroke="#f2f2f2"/>
<line x1="436.67" y1="25" x2="436.67" y2="550" stroke="#f2f2f2"/>
<line x1="528.33" y1="25" x2="528.33" y2="550" stroke="#f2f2f2"/>
<line x1="620.00" y1="25" x2="620.00" y2="550" stroke="#f2f2f2"/>
<line x1="711.67" y1="25" x2="711.67" y2="550" stroke="#f2f2f2"/>
<line x1="803.33" y1="25" x2="803.33" y2="550" stroke="#f2f2f2"/>
<line x1="895.00" y1="25" x2="895.00" y2="550" stroke="#f2f2f2"/>
<line x1="986.67" y1="25" x2="986.67" y2="550" stroke="#f2f2f2"/>
<line x1="1078.33" y1="25" x2="1078.33" y2="550" stroke="#f2f2f2"/>
<text x="115.83" y="566.00" text-anchor="middle" font-family="sans-serif" font-size="11" fill="#444">Jan</text>
<text x="207.50" y="566.00" text-anchor="middle" font-family="sans-serif" font-size="11" fill="#444">Feb</text>
<text x="299.17" y="566.00" text-anchor="middle" font-family="sans-serif" font-size="11" fill="#444">Mar</text>
<text x="390.83" y="566.00" text-anchor="middle" font-family="sans-serif" font-size="11" fill="#444">Apr</text>
<text x="482.50" y="566.00" text-anchor="middle" font-family="sans-serif" font-size="11" fill="#444">May</text>
<text x="574.17" y="566.00" text-anchor="middle" font-family="sans-serif" font-size="11" fill="#444">Jun</text>
<text x="665.83" y="566.00" text-anchor="middle" font-family="sans-serif" font-size="11" fill="#444">Jul</text>
<text x="757.50" y="566.00" text-anchor="middle" font-family="sans-serif" font-size="11" fill="#444">Aug</text>
<text x="849.17" y="566.00" text-anchor="middle" font-family="sans-serif" font-size="11" fill="#444">Sep</text>
<text x="940.83" y="566.00" text-anchor="middle" font-family="sans-serif" font-size="11" fill="#444">Oct</text>
<text x="1032.50" y="566.00" text-anchor="middle" font-family="sans-serif" font-size="11" fill="#444">Nov</text>
<text x="1124.17" y="566.00" text-anchor="middle" font-family="sans-serif" font-size="11" fill="#444">Dec</text>
<line x1="70" y1="550" x2="1170" y2="550" stroke="#888"/>
<line x1="70" y1="25" x2="70" y2="550" stroke="#888"/>
<line x1="74.58" y1="550.00" x2="74.58" y2="556.00" stroke="#888"/>
<line x1="1169.08"   y1="550.00" x2="1169.08"   y2="556.00" stroke="#888"/>
<text x="74.58" y="582.00" text-anchor="start" font-family="sans-serif" font-size="11" fill="#333">Initial Balance: 100000</text>
<text x="1169.08"   y="582.00" text-anchor="end"   font-family="sans-serif" font-size="11" fill="#333">Ending Balance: 129870</text>
<path d="M 157.08 128.63 L 184.58 128.63 L 230.42 128.63 L 230.42 130.47 L 184.58 132.87 L 157.08 134.89 Z" fill="#d0d0d0" fill-opacity="0.5" stroke="none"/>
<path d="M 272.43 125.73 L 280.07 125.73 L 287.71 125.73 L 287.71 126.57 L 280.07 129.39 L 272.43 132.13 Z" fill="#d0d0d0" fill-opacity="0.5" stroke="none"/>
<path d="M 310.62 122.25 L 318.26 122.25 L 325.90 122.25 L 333.54 122.25 L 341.18 122.25 L 348.82 122.25 L 356.46 122.25 L 364.10 122.25 L 371.74 122.25 L 379.38 122.25 L 387.01 122.25 L 394.65 122.25 L 402.29 122.25 L 409.93 122.25 L 417.57 122.25 L 425.21 122.25 L 432.85 122.25 L 459.58 122.25 L 505.42 122.25 L 535.97 122.25 L 551.25 122.25 L 566.53 122.25 L 581.81 122.25 L 597.08 122.25 L 612.36 122.25 L 629.17 122.25 L 647.50 122.25 L 665.83 122.25 L 684.17 122.25 L 702.50 122.25 L 718.21 122.25 L 718.21 122.39 L 702.50 126.03 L 684.17 125.65 L 665.83 126.00 L 647.50 129.28 L 629.17 132.13 L 612.36 135.70 L 597.08 129.34 L 581.81 131.47 L 566.53 132.29 L 551.25 135.12 L 535.97 138.66 L 505.42 141.62 L 459.58 144.42 L 432.85 147.18 L 425.21 149.82 L 417.57 143.68 L 409.93 144.32 L 402.29 145.89 L 394.65 139.68 L 387.01 133.39 L 379.38 136.62 L 371.74 138.10 L 364.10 136.82 L 356.46 134.30 L 348.82 137.59 L 341.18 131.27 L 333.54 131.49 L 325.90 133.16 L 318.26 126.77 L 310.62 128.70 Z" fill="#d0d0d0" fill-opacity="0.5" stroke="none"/>
<path d="M 816.29 90.31 L 818.28 90.31 L 820.27 90.31 L 822.26 90.31 L 824.26 90.31 L 826.25 90.31 L 828.24 90.31 L 830.24 90.31 L 832.23 90.31 L 834.22 90.31 L 836.21 90.31 L 838.21 90.31 L 840.20 90.31 L 842.19 90.31 L 844.18 90.31 L 846.18 90.31 L 848.17 90.31 L 850.16 90.31 L 852.16 90.31 L 854.15 90.31 L 856.14 90.31 L 858.13 90.31 L 860.13 90.31 L 862.12 90.31 L 864.11 90.31 L 866.11 90.31 L 868.10 90.31 L 870.09 90.31 L 872.08 90.31 L 874.08 90.31 L 876.07 90.31 L 878.06 90.31 L 880.05 90.31 L 882.05 90.31 L 884.04 90.31 L 886.03 90.31 L 888.03 90.31 L 890.02 90.31 L 892.01 90.31 L 894.00 90.31 L 895.54 90.31 L 896.62 90.31 L 897.70 90.31 L 898.77 90.31 L 899.85 90.31 L 900.93 90.31 L 902.01 90.31 L 903.09 90.31 L 904.17 90.31 L 905.25 90.31 L 906.32 90.31 L 907.40 90.31 L 908.48 90.31 L 909.56 90.31 L 910.64 90.31 L 911.72 90.31 L 912.79 90.31 L 913.87 90.31 L 914.95 90.31 L 916.03 90.31 L 917.11 90.31 L 918.19 90.31 L 919.26 90.31 L 920.34 90.31 L 921.42 90.31 L 922.50 90.31 L 923.58 90.31 L 924.66 90.31 L 925.74 90.31 L 926.81 90.31 L 927.89 90.31 L 928.97 90.31 L 930.05 90.31 L 931.13 90.31 L 932.21 90.31 L 933.28 90.31 L 934.36 90.31 L 935.44 90.31 L 936.52 90.31 L 937.60 90.31 L 938.68 90.31 L 939.75 90.31 L 940.83 90.31 L 941.91 90.31 L 942.99 90.31 L 944.07 90.31 L 945.15 90.31 L 946.23 90.31 L 947.30 90.31 L 948.38 90.31 L 949.46 90.31 L 950.54 90.31 L 951.62 90.31 L 952.70 90.31 L 953.77 90.31 L 954.85 90.31 L 955.93 90.31 L 957.01 90.31 L 958.09 90.31 L 959.17 90.31 L 960.25 90.31 L 961.32 90.31 L 962.40 90.31 L 963.48 90.31 L 964.56 90.31 L 965.64 90.31 L 966.72 90.31 L 967.79 90.31 L 968.87 90.31 L 969.95 90.31 L 971.03 90.31 L 972.11 90.31 L 973.19 90.31 L 974.26 90.31 L 975.34 90.31 L 976.42 90.31 L 977.50 90.31 L 978.58 90.31 L 979.66 90.31 L 980.74 90.31 L 981.81 90.31 L 982.89 90.31 L 983.97 90.31 L 985.05 90.31 L 986.13 90.31 L 987.76 90.31 L 989.94 90.31 L 992.12 90.31 L 994.31 90.31 L 996.49 90.31 L 998.67 90.31 L 1000.85 90.31 L 1003.04 90.31 L 1005.22 90.31 L 1007.40 90.31 L 1009.58 90.31 L 1011.77 90.31 L 1013.95 90.31 L 1016.13 90.31 L 1018.31 90.31 L 1020.50 90.31 L 1022.68 90.31 L 1024.86 90.31 L 1027.04 90.31 L 1029.23 90.31 L 1031.41 90.31 L 1033.59 90.31 L 1035.77 90.31 L 1037.96 90.31 L 1040.14 90.31 L 1042.32 90.31 L 1044.50 90.31 L 1046.69 90.31 L 1048.87 90.31 L 1051.05 90.31 L 1053.23 90.31 L 1053.23 93.75 L 1051.05 97.26 L 1048.87 100.06 L 1046.69 103.50 L 1044.50 107.25 L 1042.32 110.46 L 1040.14 103.70 L 1037.96 106.46 L 1035.77 109.23 L 1033.59 112.27 L 1031.41 114.38 L 1029.23 116.46 L 1027.04 118.36 L 1024.86 121.69 L 1022.68 125.28 L 1020.50 128.27 L 1018.31 129.82 L 1016.13 133.37 L 1013.95 136.96 L 1011.77 137.34 L 1009.58 130.97 L 1007.40 134.51 L 1005.22 137.53 L 1003.04 131.16 L 1000.85 124.70 L 998.67 124.09 L 996.49 126.42 L 994.31 129.65 L 992.12 132.44 L 989.94 132.85 L 987.76 126.41 L 986.13 126.48 L 985.05 129.89 L 983.97 123.44 L 982.89 116.86 L 981.81 120.37 L 980.74 120.05 L 979.66 113.43 L 978.58 115.26 L 977.50 117.77 L 976.42 118.52 L 975.34 121.55 L 974.26 115.01 L 973.19 108.35 L 972.11 101.57 L 971.03 103.86 L 969.95 107.07 L 968.87 110.55 L 967.79 110.20 L 966.72 103.44 L 965.64 104.09 L 964.56 107.59 L 963.48 100.83 L 962.40 104.59 L 961.32 107.70 L 960.25 111.41 L 959.17 114.83 L 958.09 117.39 L 957.01 110.74 L 955.93 114.42 L 954.85 117.91 L 953.77 111.26 L 952.70 114.03 L 951.62 117.69 L 950.54 120.27 L 949.46 121.04 L 948.38 114.45 L 947.30 117.51 L 946.23 118.56 L 945.15 122.19 L 944.07 125.79 L 942.99 128.84 L 941.91 122.44 L 940.83 125.85 L 939.75 129.05 L 938.68 122.61 L 937.60 116.06 L 936.52 119.69 L 935.44 113.08 L 934.36 116.37 L 933.28 116.59 L 932.21 119.85 L 931.13 122.71 L 930.05 125.40 L 928.97 127.01 L 927.89 120.50 L 926.81 122.27 L 925.74 125.19 L 924.66 124.64 L 923.58 128.21 L 922.50 131.75 L 921.42 125.33 L 920.34 118.81 L 919.26 120.89 L 918.19 114.30 L 917.11 107.64 L 916.03 100.87 L 914.95 103.31 L 913.87 107.04 L 912.79 108.21 L 911.72 106.85 L 910.64 110.19 L 909.56 113.58 L 908.48 116.92 L 907.40 119.68 L 906.32 122.75 L 905.25 125.51 L 904.17 118.99 L 903.09 122.63 L 902.01 126.24 L 900.93 129.80 L 899.85 133.14 L 898.77 136.65 L 897.70 130.31 L 896.62 123.86 L 895.54 124.07 L 894.00 127.68 L 892.01 130.05 L 890.02 123.59 L 888.03 117.16 L 886.03 120.99 L 884.04 124.63 L 882.05 118.11 L 880.05 111.49 L 878.06 114.32 L 876.07 116.82 L 874.08 117.98 L 872.08 118.67 L 870.09 121.59 L 868.10 123.23 L 866.11 116.69 L 864.11 119.75 L 862.12 122.88 L 860.13 116.34 L 858.13 119.31 L 856.14 112.73 L 854.15 115.73 L 852.16 109.10 L 850.16 102.35 L 848.17 104.95 L 846.18 98.16 L 844.18 91.26 L 842.19 94.19 L 840.20 95.88 L 838.21 99.04 L 836.21 100.68 L 834.22 93.81 L 832.23 97.66 L 830.24 98.44 L 828.24 91.56 L 826.25 94.73 L 824.26 97.44 L 822.26 90.54 L 820.27 90.78 L 818.28 94.30 L 816.29 97.22 Z" fill="#d0d0d0" fill-opacity="0.5" stroke="none"/>
<path d="M 1057.60 90.20 L 1059.78 90.20 L 1061.96 90.20 L 1061.96 91.15 L 1059.78 93.83 L 1057.60 97.11 Z" fill="#d0d0d0" fill-opacity="0.5" stroke="none"/>
<path d="M 1077.24 74.40 L 1079.25 74.40 L 1081.08 74.40 L 1081.08 74.87 L 1079.25 78.80 L 1077.24 81.52 Z" fill="#d0d0d0" fill-opacity="0.5" stroke="none"/>
<path d="M 1086.58 70.68 L 1088.42 70.68 L 1090.25 70.68 L 1092.08 70.68 L 1093.92 70.68 L 1095.75 70.68 L 1097.58 70.68 L 1099.42 70.68 L 1101.25 70.68 L 1101.25 71.15 L 1099.42 74.36 L 1097.58 78.00 L 1095.75 77.24 L 1093.92 80.85 L 1092.08 83.11 L 1090.25 85.04 L 1088.42 77.94 L 1086.58 77.85 Z" fill="#d0d0d0" fill-opacity="0.5" stroke="none"/>
<path d="M 1114.08 56.75 L 1115.92 56.75 L 1117.75 56.75 L 1119.58 56.75 L 1121.42 56.75 L 1123.25 56.75 L 1125.08 56.75 L 1126.92 56.75 L 1128.75 56.75 L 1130.58 56.75 L 1132.42 56.75 L 1134.25 56.75 L 1136.08 56.75 L 1136.08 57.65 L 1134.25 61.24 L 1132.42 64.48 L 1130.58 68.56 L 1128.75 71.63 L 1126.92 64.36 L 1125.08 67.67 L 1123.25 69.85 L 1121.42 71.63 L 1119.58 74.77 L 1117.75 78.59 L 1115.92 71.40 L 1114.08 64.13 Z" fill="#d0d0d0" fill-opacity="0.5" stroke="none"/>
<path d="M 1139.75 55.09 L 1141.58 55.09 L 1141.58 58.93 L 1139.75 62.49 Z" fill="#d0d0d0" fill-opacity="0.5" stroke="none"/>
<path d="M 1156.25 37.10 L 1158.08 37.10 L 1158.08 40.65 L 1156.25 44.71 Z" fill="#d0d0d0" fill-opacity="0.5" stroke="none"/>
<path d="M 1167.25 25.00 L 1169.08 25.00 L 1169.08 29.07 L 1167.25 32.73 Z" fill="#d0d0d0" fill-opacity="0.5" stroke="none"/>
<polyline fill="none" stroke="#111" stroke-width="1.2" points="74.58,148.88 83.75,146.05 92.92,142.59 102.08,139.93 111.25,136.69 120.42,135.80 129.58,135.54 138.75,132.30 147.92,128.63 157.08,134.89 184.58,132.87 230.42,130.47 257.15,128.08 264.79,125.73 272.43,132.13 280.07,129.39 287.71,126.57 295.35,125.24 302.99,122.25 310.62,128.70 318.26,126.77 325.90,133.16 333.54,131.49 341.18,131.27 348.82,137.59 356.46,134.30 364.10,136.82 371.74,138.10 379.38,136.62 387.01,133.39 394.65,139.68 402.29,145.89 409.93,144.32 417.57,143.68 425.21,149.82 432.85,147.18 459.58,144.42 505.42,141.62 535.97,138.66 551.25,135.12 566.53,132.29 581.81,131.47 597.08,129.34 612.36,135.70 629.17,132.13 647.50,129.28 665.83,126.00 684.17,125.65 702.50,126.03 718.21,122.39 731.31,118.57 744.40,116.37 757.50,113.71 770.60,111.64 783.69,108.88 796.79,106.47 804.33,106.24 806.32,102.46 808.32,101.03 810.31,97.21 812.30,93.55 814.29,90.31 816.29,97.22 818.28,94.30 820.27,90.78 822.26,90.54 824.26,97.44 826.25,94.73 828.24,91.56 830.24,98.44 832.23,97.66 834.22,93.81 836.21,100.68 838.21,99.04 840.20,95.88 842.19,94.19 844.18,91.26 846.18,98.16 848.17,104.95 850.16,102.35 852.16,109.10 854.15,115.73 856.14,112.73 858.13,119.31 860.13,116.34 862.12,122.88 864.11,119.75 866.11,116.69 868.10,123.23 870.09,121.59 872.08,118.67 874.08,117.98 876.07,116.82 878.06,114.32 880.05,111.49 882.05,118.11 884.04,124.63 886.03,120.99 888.03,117.16 890.02,123.59 892.01,130.05 894.00,127.68 895.54,124.07 896.62,123.86 897.70,130.31 898.77,136.65 899.85,133.14 900.93,129.80 902.01,126.24 903.09,122.63 904.17,118.99 905.25,125.51 906.32,122.75 907.40,119.68 908.48,116.92 909.56,113.58 910.64,110.19 911.72,106.85 912.79,108.21 913.87,107.04 914.95,103.31 916.03,100.87 917.11,107.64 918.19,114.30 919.26,120.89 920.34,118.81 921.42,125.33 922.50,131.75 923.58,128.21 924.66,124.64 925.74,125.19 926.81,122.27 927.89,120.50 928.97,127.01 930.05,125.40 931.13,122.71 932.21,119.85 933.28,116.59 934.36,116.37 935.44,113.08 936.52,119.69 937.60,116.06 938.68,122.61 939.75,129.05 940.83,125.85 941.91,122.44 942.99,128.84 944.07,125.79 945.15,122.19 946.23,118.56 947.30,117.51 948.38,114.45 949.46,121.04 950.54,120.27 951.62,117.69 952.70,114.03 953.77,111.26 954.85,117.91 955.93,114.42 957.01,110.74 958.09,117.39 959.17,114.83 960.25,111.41 961.32,107.70 962.40,104.59 963.48,100.83 964.56,107.59 965.64,104.09 966.72,103.44 967.79,110.20 968.87,110.55 969.95,107.07 971.03,103.86 972.11,101.57 973.19,108.35 974.26,115.01 975.34,121.55 976.42,118.52 977.50,117.77 978.58,115.26 979.66,113.43 980.74,120.05 981.81,120.37 982.89,116.86 983.97,123.44 985.05,129.89 986.13,126.48 987.76,126.41 989.94,132.85 992.12,132.44 994.31,129.65 996.49,126.42 998.67,124.09 1000.85,124.70 1003.04,131.16 1005.22,137.53 1007.40,134.51 1009.58,130.97 1011.77,137.34 1013.95,136.96 1016.13,133.37 1018.31,129.82 1020.50,128.27 1022.68,125.28 1024.86,121.69 1027.04,118.36 1029.23,116.46 1031.41,114.38 1033.59,112.27 1035.77,109.23 1037.96,106.46 1040.14,103.70 1042.32,110.46 1044.50,107.25 1046.69,103.50 1048.87,100.06 1051.05,97.26 1053.23,93.75 1055.42,90.20 1057.60,97.11 1059.78,93.83 1061.96,91.15 1064.15,88.06 1066.33,85.82 1068.51,83.24 1070.69,82.26 1072.88,78.34 1075.06,74.40 1077.24,81.52 1079.25,78.80 1081.08,74.87 1082.92,72.93 1084.75,70.68 1086.58,77.85 1088.42,77.94 1090.25,85.04 1092.08,83.11 1093.92,80.85 1095.75,77.24 1097.58,78.00 1099.42,74.36 1101.25,71.15 1103.08,67.15 1104.92,63.76 1106.75,62.74 1108.58,61.82 1110.42,60.15 1112.25,56.75 1114.08,64.13 1115.92,71.40 1117.75,78.59 1119.58,74.77 1121.42,71.63 1123.25,69.85 1125.08,67.67 1126.92,64.36 1128.75,71.63 1130.58,68.56 1132.42,64.48 1134.25,61.24 1136.08,57.65 1137.92,55.09 1139.75,62.49 1141.58,58.93 1143.42,54.80 1145.25,50.99 1147.08,48.74 1148.92,45.20 1150.75,41.71 1152.58,39.90 1154.42,37.10 1156.25,44.71 1158.08,40.65 1159.92,36.38 1161.75,32.50 1163.58,29.34 1165.42,25.00 1167.25,32.73 1169.08,29.07"/>
<text x="620.0" y="588" text-anchor="middle" font-family="sans-serif" font-size="12" fill="#333">Monthly Balance Curve</text>
<text x="15" y="287.5" transform="rotate(-90 15,287.5)" text-anchor="middle" font-family="sans-serif" font-size="12" fill="#333">Capital</text>
</svg>