<svg xmlns="http://www.w3.org/2000/svg" width="1200" height="600" viewBox="0 0 1200 600">
<desc>Equity curve with drawdown fill; x-axis is months only (no exact timestamps)</desc>
<text x="600.0" y="18.0" text-anchor="middle" font-family="sans-serif" font-size="14">Balance Curve 2008 (UTC)</text>
<rect x="70" y="25" width="1100" height="525" fill="white" stroke="#ccc" />
<line x1="70" y1="550.00" x2="1170" y2="550.00" stroke="#eee"/>
<text x="62" y="554.0" text-anchor="end" font-family="sans-serif" font-size="11" fill="#555">0.00</text>
<line x1="70" y1="445.00" x2="1170" y2="445.00" stroke="#eee"/>
<text x="62" y="449.0" text-anchor="end" font-family="sans-serif" font-size="11" fill="#555">22792</text>
<line x1="70" y1="340.00" x2="1170" y2="340.00" stroke="#eee"/>
<text x="62" y="344.0" text-anchor="end" font-family="sans-serif" font-size="11" fill="#555">45583</text>
<line x1="70" y1="235.00" x2="1170" y2="235.00" stroke="#eee"/>
<text x="62" y="239.0" text-anchor="end" font-family="sans-serif" font-size="11" fill="#555">68375</text>
<line x1="70" y1="130.00" x2="1170" y2="130.00" stroke="#eee"/>
<text x="62" y="134.0" text-anchor="end" font-family="sans-serif" font-size="11" fill="#555">91167</text>
<line x1="70" y1="25.00" x2="1170" y2="25.00" stroke="#eee"/>
<text x="62" y="29.0" text-anchor="end" font-family="sans-serif" font-size="11" fill="#555">113958</text>
<line x1="161.67" y1="25" x2="161.67" y2="550" stroke="#f2f2f2"/>
<line x1="253.33" y1="25" x2="253.33" y2="550" stroke="#f2f2f2"/>
<line x1="345.00" y1="25" x2="345.00" y2="550" stroke="#f2f2f2"/>
<line x1="436.67" y1="25" x2="436.67" y2="550" stroke="#f2f2f2"/>
<line x1="528.33" y1="25" x2="528.33" y2="550" stroke="#f2f2f2"/>
<line x1="620.00" y1="25" x2="620.00" y2="550" stroke="#f2f2f2"/>
<line x1="711.67" y1="25" x2="711.67" y2="550" stroke="#f2f2f2"/>
<line x1="803.33" y1="25" x2="803.33" y2="550" stroke="#f2f2f2"/>
<line x1="895.00" y1="25" x2="895.00" y2="550" stroke="#f2f2f2"/>
<line x1="986.67" y1="25" x2="986.67" y2="550" stroke="#f2f2f2"/>
<line x1="1078.33" y1="25" x2="1078.33" y2="550" stroke="#f2f2f2"/>
<text x="115.83" y="566.00" text-anchor="middle" font-family="sans-serif" font-size="11" fill="#444">Jan</text>
<text x="207.50" y="566.00" text-anchor="middle" font-family="sans-serif" font-size="11" fill="#444">Feb</text>
<text x="299.17" y="566.00" text-anchor="middle" font-family="sans-serif" font-size="11" fill="#444">Mar</text>
<text x="390.83" y="566.00" text-anchor="middle" font-family="sans-serif" font-size="11" fill="#444">Apr</text>
<text x="482.50" y="566.00" text-anchor="middle" font-family="sans-serif" font-size="11" fill="#444">May</text>
<text x="574.17" y="566.00" text-anchor="middle" font-family="sans-serif" font-size="11" fill="#444">Jun</text>
<text x="665.83" y="566.00" text-anchor="middle" font-family="sans-serif" font-size="11" fill="#444">Jul</text>
<text x="757.50" y="566.00" text-anchor="middle" font-family="sans-serif" font-size="11" fill="#444">Aug</text>
<text x="849.17" y="566.00" text-anchor="middle" font-family="sans-serif" font-size="11" fill="#444">Sep</text>
<text x="940.83" y="566.00" text-anchor="middle" font-family="sans-serif" font-size="11" fill="#444">Oct</text>
<text x="1032.50" y="566.00" text-anchor="middle" font-family="sans-serif" font-size="11" fill="#444">Nov</text>
<text x="1124.17" y="566.00" text-anchor="middle" font-family="sans-serif" font-size="11" fill="#444">Dec</text>
<line x1="70" y1="550" x2="1170" y2="550" stroke="#888"/>
<line x1="70" y1="25" x2="70" y2="550" stroke="#888"/>
<line x1="74.58" y1="550.00" x2="74.58" y2="556.00" stroke="#888"/>
<line x1="1169.08"   y1="550.00" x2="1169.08"   y2="556.00" stroke="#888"/>
<text x="74.58" y="582.00" text-anchor="start" font-family="sans-serif" font-size="11" fill="#333">Initial Balance: 100000</text>
<text x="1169.08"   y="582.00" text-anchor="end"   font-family="sans-serif" font-size="11" fill="#333">Ending Balance: 113345</text>
<path d="M 157.08 74.60 L 184.58 74.60 L 230.42 74.60 L 230.42 76.26 L 184.58 77.97 L 157.08 79.40 Z" fill="#d0d0d0" fill-opacity="0.5" stroke="none"/>
<path d="M 272.43 72.86 L 280.07 72.86 L 287.71 72.86 L 287.71 73.69 L 280.07 75.71 L 272.43 77.71 Z" fill="#d0d0d0" fill-opacity="0.5" stroke="none"/>
<path d="M 310.62 70.61 L 318.26 70.61 L 325.90 70.61 L 333.54 70.61 L 341.18 70.61 L 348.82 70.61 L 356.46 70.61 L 364.10 70.61 L 371.74 70.61 L 379.38 70.61 L 387.01 70.61 L 394.65 70.61 L 402.29 70.61 L 409.93 70.61 L 417.57 70.61 L 425.21 70.61 L 432.85 70.61 L 459.58 70.61 L 505.42 70.61 L 535.97 70.61 L 551.25 70.61 L 566.53 70.61 L 581.81 70.61 L 597.08 70.61 L 612.36 70.61 L 629.17 70.61 L 647.50 70.61 L 665.83 70.61 L 684.17 70.61 L 702.50 70.61 L 718.21 70.61 L 718.21 73.14 L 702.50 75.74 L 684.17 75.38 L 665.83 75.55 L 647.50 77.91 L 629.17 79.94 L 612.36 82.51 L 597.08 77.71 L 581.81 79.21 L 566.53 79.74 L 551.25 81.80 L 535.97 84.36 L 505.42 86.49 L 459.58 88.51 L 432.85 90.51 L 425.21 92.43 L 417.57 87.72 L 409.93 88.12 L 402.29 89.26 L 394.65 84.53 L 387.01 79.74 L 379.38 82.07 L 371.74 83.11 L 364.10 82.06 L 356.46 80.09 L 348.82 82.47 L 341.18 77.67 L 333.54 77.78 L 325.90 78.98 L 318.26 74.13 L 310.62 75.49 Z" fill="#d0d0d0" fill-opacity="0.5" stroke="none"/>
<path d="M 816.29 50.69 L 818.28 50.69 L 820.27 50.69 L 822.26 50.69 L 824.26 50.69 L 826.25 50.69 L 828.24 50.69 L 830.24 50.69 L 832.23 50.69 L 834.22 50.69 L 836.21 50.69 L 838.21 50.69 L 840.20 50.69 L 842.19 50.69 L 844.18 50.69 L 846.18 50.69 L 848.17 50.69 L 850.16 50.69 L 852.16 50.69 L 854.15 50.69 L 856.14 50.69 L 858.13 50.69 L 860.13 50.69 L 862.12 50.69 L 864.11 50.69 L 866.11 50.69 L 868.10 50.69 L 870.09 50.69 L 872.08 50.69 L 874.08 50.69 L 876.07 50.69 L 878.06 50.69 L 880.05 50.69 L 882.05 50.69 L 884.04 50.69 L 886.03 50.69 L 888.03 50.69 L 890.02 50.69 L 892.01 50.69 L 894.00 50.69 L 895.54 50.69 L 896.62 50.69 L 897.70 50.69 L 898.77 50.69 L 899.85 50.69 L 900.93 50.69 L 902.01 50.69 L 903.09 50.69 L 904.17 50.69 L 905.25 50.69 L 906.32 50.69 L 907.40 50.69 L 908.48 50.69 L 909.56 50.69 L 910.64 50.69 L 911.72 50.69 L 912.79 50.69 L 913.87 50.69 L 914.95 50.69 L 916.03 50.69 L 917.11 50.69 L 918.19 50.69 L 919.26 50.69 L 920.34 50.69 L 921.42 50.69 L 922.50 50.69 L 923.58 50.69 L 924.66 50.69 L 925.74 50.69 L 926.81 50.69 L 927.89 50.69 L 928.97 50.69 L 930.05 50.69 L 931.13 50.69 L 932.21 50.69 L 933.28 50.69 L 934.36 50.69 L 935.44 50.69 L 936.52 50.69 L 937.60 50.69 L 938.68 50.69 L 939.75 50.69 L 940.83 50.69 L 941.91 50.69 L 942.99 50.69 L 944.07 50.69 L 945.15 50.69 L 946.23 50.69 L 947.30 50.69 L 948.38 50.69 L 949.46 50.69 L 950.54 50.69 L 951.62 50.69 L 952.70 50.69 L 953.77 50.69 L 954.85 50.69 L 955.93 50.69 L 957.01 50.69 L 958.09 50.69 L 959.17 50.69 L 960.25 50.69 L 961.32 50.69 L 962.40 50.69 L 963.48 50.69 L 964.56 50.69 L 965.64 50.69 L 966.72 50.69 L 967.79 50.69 L 968.87 50.69 L 969.95 50.69 L 971.03 50.69 L 972.11 50.69 L 973.19 50.69 L 974.26 50.69 L 975.34 50.69 L 976.42 50.69 L 977.50 50.69 L 978.58 50.69 L 979.66 50.69 L 980.74 50.69 L 981.81 50.69 L 982.89 50.69 L 983.97 50.69 L 985.05 50.69 L 986.13 50.69 L 987.76 50.69 L 989.94 50.69 L 992.12 50.69 L 994.31 50.69 L 996.49 50.69 L 998.67 50.69 L 1000.85 50.69 L 1003.04 50.69 L 1005.22 50.69 L 1007.40 50.69 L 1009.58 50.69 L 1011.77 50.69 L 1013.95 50.69 L 1016.13 50.69 L 1018.31 50.69 L 1020.50 50.69 L 1022.68 50.69 L 1024.86 50.69 L 1027.04 50.69 L 1029.23 50.69 L 1031.41 50.69 L 1033.59 50.69 L 1035.77 50.69 L 1037.96 50.69 L 1040.14 50.69 L 1042.32 50.69 L 1044.50 50.69 L 1046.69 50.69 L 1048.87 50.69 L 1051.05 50.69 L 1053.23 50.69 L 1055.42 50.69 L 1057.60 50.69 L 1059.78 50.69 L 1061.96 50.69 L 1064.15 50.69 L 1066.33 50.69 L 1068.51 50.69 L 1070.69 50.69 L 1072.88 50.69 L 1075.06 50.69 L 1077.24 50.69 L 1079.25 50.69 L 1081.08 50.69 L 1082.92 50.69 L 1084.75 50.69 L 1086.58 50.69 L 1088.42 50.69 L 1090.25 50.69 L 1092.08 50.69 L 1093.92 50.69 L 1095.75 50.69 L 1097.58 50.69 L 1099.42 50.69 L 1101.25 50.69 L 1103.08 50.69 L 1103.08 50.79 L 1101.25 53.45 L 1099.42 55.56 L 1097.58 57.98 L 1095.75 57.39 L 1093.92 59.79 L 1092.08 61.25 L 1090.25 62.49 L 1088.42 57.45 L 1086.58 57.34 L 1084.75 52.30 L 1082.92 53.75 L 1081.08 54.99 L 1079.25 57.61 L 1077.24 59.39 L 1075.06 54.37 L 1072.88 57.00 L 1070.69 59.62 L 1068.51 60.20 L 1066.33 61.93 L 1064.15 63.39 L 1061.96 65.45 L 1059.78 67.22 L 1057.60 69.49 L 1055.42 64.58 L 1053.23 66.96 L 1051.05 69.33 L 1048.87 71.19 L 1046.69 73.52 L 1044.50 76.06 L 1042.32 78.28 L 1040.14 73.40 L 1037.96 75.25 L 1035.77 77.10 L 1033.59 79.15 L 1031.41 80.55 L 1029.23 81.93 L 1027.04 83.18 L 1024.86 85.47 L 1022.68 87.94 L 1020.50 89.99 L 1018.31 91.05 L 1016.13 93.51 L 1013.95 96.00 L 1011.77 96.22 L 1009.58 91.52 L 1007.40 93.97 L 1005.22 96.11 L 1003.04 91.42 L 1000.85 86.67 L 998.67 86.17 L 996.49 87.75 L 994.31 89.97 L 992.12 91.89 L 989.94 92.12 L 987.76 87.37 L 986.13 87.32 L 985.05 89.68 L 983.97 84.97 L 982.89 80.16 L 981.81 82.57 L 980.74 82.28 L 979.66 77.43 L 978.58 78.64 L 977.50 80.41 L 976.42 80.85 L 975.34 82.93 L 974.26 78.16 L 973.19 73.34 L 972.11 68.42 L 971.03 69.98 L 969.95 72.21 L 968.87 74.60 L 967.79 74.24 L 966.72 69.33 L 965.64 69.72 L 964.56 72.12 L 963.48 67.23 L 962.40 69.79 L 961.32 71.96 L 960.25 74.51 L 959.17 76.86 L 958.09 78.64 L 957.01 73.76 L 955.93 76.30 L 954.85 78.75 L 953.77 73.88 L 952.70 75.80 L 951.62 78.33 L 950.54 80.13 L 949.46 80.59 L 948.38 75.74 L 947.30 77.84 L 946.23 78.49 L 945.15 81.01 L 944.07 83.51 L 942.99 85.67 L 941.91 80.91 L 940.83 83.29 L 939.75 85.60 L 938.68 80.89 L 937.60 76.08 L 936.52 78.61 L 935.44 73.74 L 934.36 76.02 L 933.28 76.08 L 932.21 78.35 L 931.13 80.32 L 930.05 82.18 L 928.97 83.29 L 927.89 78.47 L 926.81 79.66 L 925.74 81.69 L 924.66 81.22 L 923.58 83.73 L 922.50 86.23 L 921.42 81.49 L 920.34 76.65 L 919.26 78.11 L 918.19 73.24 L 917.11 68.37 L 916.03 63.41 L 914.95 65.06 L 913.87 67.66 L 912.79 68.40 L 911.72 67.32 L 910.64 69.64 L 909.56 71.99 L 908.48 74.32 L 907.40 76.24 L 906.32 78.38 L 905.25 80.34 L 904.17 75.50 L 903.09 78.05 L 902.01 80.59 L 900.93 83.11 L 899.85 85.47 L 898.77 87.96 L 897.70 83.24 L 896.62 78.43 L 895.54 78.49 L 894.00 81.04 L 892.01 82.73 L 890.02 77.92 L 888.03 73.16 L 886.03 75.94 L 884.04 78.51 L 882.05 73.66 L 880.05 68.76 L 878.06 70.73 L 876.07 72.46 L 874.08 73.21 L 872.08 73.67 L 870.09 75.71 L 868.10 76.86 L 866.11 71.98 L 864.11 74.13 L 862.12 76.37 L 860.13 71.50 L 858.13 73.58 L 856.14 68.73 L 854.15 70.82 L 852.16 65.94 L 850.16 60.96 L 848.17 62.75 L 846.18 57.73 L 844.18 52.67 L 842.19 54.69 L 840.20 55.81 L 838.21 58.00 L 836.21 59.13 L 834.22 54.09 L 832.23 56.77 L 830.24 57.28 L 828.24 52.21 L 826.25 54.40 L 824.26 56.26 L 822.26 51.19 L 820.27 51.26 L 818.28 53.70 L 816.29 55.76 Z" fill="#d0d0d0" fill-opacity="0.5" stroke="none"/>
<path d="M 1114.08 44.13 L 1115.92 44.13 L 1117.75 44.13 L 1119.58 44.13 L 1121.42 44.13 L 1123.25 44.13 L 1125.08 44.13 L 1126.92 44.13 L 1128.75 44.13 L 1130.58 44.13 L 1132.42 44.13 L 1134.25 44.13 L 1136.08 44.13 L 1137.92 44.13 L 1139.75 44.13 L 1141.58 44.13 L 1143.42 44.13 L 1143.42 44.23 L 1141.58 46.96 L 1139.75 49.34 L 1137.92 44.18 L 1136.08 45.87 L 1134.25 48.23 L 1132.42 50.37 L 1130.58 53.07 L 1128.75 55.16 L 1126.92 50.07 L 1125.08 52.26 L 1123.25 53.66 L 1121.42 54.79 L 1119.58 56.87 L 1117.75 59.45 L 1115.92 54.40 L 1114.08 49.29 Z" fill="#d0d0d0" fill-opacity="0.5" stroke="none"/>
<path d="M 1156.25 32.60 L 1158.08 32.60 L 1158.08 35.16 L 1156.25 37.86 Z" fill="#d0d0d0" fill-opacity="0.5" stroke="none"/>
<path d="M 1167.25 25.00 L 1169.08 25.00 L 1169.08 27.83 L 1167.25 30.27 Z" fill="#d0d0d0" fill-opacity="0.5" stroke="none"/>
<polyline fill="none" stroke="#111" stroke-width="1.2" points="74.58,89.31 83.75,87.24 92.92,84.71 102.08,82.75 111.25,80.40 120.42,79.76 129.58,79.65 138.75,77.30 147.92,74.60 157.08,79.40 184.58,77.97 230.42,76.26 257.15,74.56 264.79,72.86 272.43,77.71 280.07,75.71 287.71,73.69 295.35,72.75 302.99,70.61 310.62,75.49 318.26,74.13 325.90,78.98 333.54,77.78 341.18,77.67 348.82,82.47 356.46,80.09 364.10,82.06 371.74,83.11 379.38,82.07 387.01,79.74 394.65,84.53 402.29,89.26 409.93,88.12 417.57,87.72 425.21,92.43 432.85,90.51 459.58,88.51 505.42,86.49 535.97,84.36 551.25,81.80 566.53,79.74 581.81,79.21 597.08,77.71 612.36,82.51 629.17,79.94 647.50,77.91 665.83,75.55 684.17,75.38 702.50,75.74 718.21,73.14 731.31,70.39 744.40,68.86 757.50,66.99 770.60,65.52 783.69,63.59 796.79,61.92 804.33,61.84 806.32,59.19 808.32,58.21 810.31,55.54 812.30,52.93 814.29,50.69 816.29,55.76 818.28,53.70 820.27,51.26 822.26,51.19 824.26,56.26 826.25,54.40 828.24,52.21 830.24,57.28 832.23,56.77 834.22,54.09 836.21,59.13 838.21,58.00 840.20,55.81 842.19,54.69 844.18,52.67 846.18,57.73 848.17,62.75 850.16,60.96 852.16,65.94 854.15,70.82 856.14,68.73 858.13,73.58 860.13,71.50 862.12,76.37 864.11,74.13 866.11,71.98 868.10,76.86 870.09,75.71 872.08,73.67 874.08,73.21 876.07,72.46 878.06,70.73 880.05,68.76 882.05,73.66 884.04,78.51 886.03,75.94 888.03,73.16 890.02,77.92 892.01,82.73 894.00,81.04 895.54,78.49 896.62,78.43 897.70,83.24 898.77,87.96 899.85,85.47 900.93,83.11 902.01,80.59 903.09,78.05 904.17,75.50 905.25,80.34 906.32,78.38 907.40,76.24 908.48,74.32 909.56,71.99 910.64,69.64 911.72,67.32 912.79,68.40 913.87,67.66 914.95,65.06 916.03,63.41 917.11,68.37 918.19,73.24 919.26,78.11 920.34,76.65 921.42,81.49 922.50,86.23 923.58,83.73 924.66,81.22 925.74,81.69 926.81,79.66 927.89,78.47 928.97,83.29 930.05,82.18 931.13,80.32 932.21,78.35 933.28,76.08 934.36,76.02 935.44,73.74 936.52,78.61 937.60,76.08 938.68,80.89 939.75,85.60 940.83,83.29 941.91,80.91 942.99,85.67 944.07,83.51 945.15,81.01 946.23,78.49 947.30,77.84 948.38,75.74 949.46,80.59 950.54,80.13 951.62,78.33 952.70,75.80 953.77,73.88 954.85,78.75 955.93,76.30 957.01,73.76 958.09,78.64 959.17,76.86 960.25,74.51 961.32,71.96 962.40,69.79 963.48,67.23 964.56,72.12 965.64,69.72 966.72,69.33 967.79,74.24 968.87,74.60 969.95,72.21 971.03,69.98 972.11,68.42 973.19,73.34 974.26,78.16 975.34,82.93 976.42,80.85 977.50,80.41 978.58,78.64 979.66,77.43 980.74,82.28 981.81,82.57 982.89,80.16 983.97,84.97 985.05,89.68 986.13,87.32 987.76,87.37 989.94,92.12 992.12,91.89 994.31,89.97 996.49,87.75 998.67,86.17 1000.85,86.67 1003.04,91.42 1005.22,96.11 1007.40,93.97 1009.58,91.52 1011.77,96.22 1013.95,96.00 1016.13,93.51 1018.31,91.05 1020.50,89.99 1022.68,87.94 1024.86,85.47 1027.04,83.18 1029.23,81.93 1031.41,80.55 1033.59,79.15 1035.77,77.10 1037.96,75.25 1040.14,73.40 1042.32,78.28 1044.50,76.06 1046.69,73.52 1048.87,71.19 1051.05,69.33 1053.23,66.96 1055.42,64.58 1057.60,69.49 1059.78,67.22 1061.96,65.45 1064.15,63.39 1066.33,61.93 1068.51,60.20 1070.69,59.62 1072.88,57.00 1075.06,54.37 1077.24,59.39 1079.25,57.61 1081.08,54.99 1082.92,53.75 1084.75,52.30 1086.58,57.34 1088.42,57.45 1090.25,62.49 1092.08,61.25 1093.92,59.79 1095.75,57.39 1097.58,57.98 1099.42,55.56 1101.25,53.45 1103.08,50.79 1104.92,48.57 1106.75,47.93 1108.58,47.40 1110.42,46.35 1112.25,44.13 1114.08,49.29 1115.92,54.40 1117.75,59.45 1119.58,56.87 1121.42,54.79 1123.25,53.66 1125.08,52.26 1126.92,50.07 1128.75,55.16 1130.58,53.07 1132.42,50.37 1134.25,48.23 1136.08,45.87 1137.92,44.18 1139.75,49.34 1141.58,46.96 1143.42,44.23 1145.25,41.69 1147.08,40.26 1148.92,37.95 1150.75,35.64 1152.58,34.44 1154.42,32.60 1156.25,37.86 1158.08,35.16 1159.92,32.38 1161.75,29.85 1163.58,27.82 1165.42,25.00 1167.25,30.27 1169.08,27.83"/>
<text x="15" y="287.5" transform="rotate(-90 15,287.5)" text-anchor="middle" font-family="sans-serif" font-size="12" fill="#333">USD</text>
</svg>