<svg xmlns="http://www.w3.org/2000/svg" width="1200" height="600" viewBox="0 0 1200 600">
<desc>Equity curve with drawdown fill</desc>
<text x="600.0" y="18.0" text-anchor="middle" font-family="sans-serif" font-size="14">Portfolio 2012</text>
<rect x="70" y="25" width="1100" height="525" fill="white" stroke="#ccc" />
<line x1="70" y1="550.00" x2="1170" y2="550.00" stroke="#eee"/>
<text x="62" y="554.0" text-anchor="end" font-family="sans-serif" font-size="11" fill="#555">0.00</text>
<line x1="70" y1="445.00" x2="1170" y2="445.00" stroke="#eee"/>
<text x="62" y="449.0" text-anchor="end" font-family="sans-serif" font-size="11" fill="#555">21434</text>
<line x1="70" y1="340.00" x2="1170" y2="340.00" stroke="#eee"/>
<text x="62" y="344.0" text-anchor="end" font-family="sans-serif" font-size="11" fill="#555">42868</text>
<line x1="70" y1="235.00" x2="1170" y2="235.00" stroke="#eee"/>
<text x="62" y="239.0" text-anchor="end" font-family="sans-serif" font-size="11" fill="#555">64302</text>
<line x1="70" y1="130.00" x2="1170" y2="130.00" stroke="#eee"/>
<text x="62" y="134.0" text-anchor="end" font-family="sans-serif" font-size="11" fill="#555">85737</text>
<line x1="70" y1="25.00" x2="1170" y2="25.00" stroke="#eee"/>
<text x="62" y="29.0" text-anchor="end" font-family="sans-serif" font-size="11" fill="#555">107171</text>
<line x1="154.27" y1="25" x2="154.27" y2="550" stroke="#f2f2f2"/>
<text x="154.27" y="566" text-anchor="middle" font-family="sans-serif" font-size="11" fill="#555">Feb</text>
<line x1="243.15" y1="25" x2="243.15" y2="550" stroke="#f2f2f2"/>
<text x="243.15" y="566" text-anchor="middle" font-family="sans-serif" font-size="11" fill="#555">Mar</text>
<line x1="338.17" y1="25" x2="338.17" y2="550" stroke="#f2f2f2"/>
<text x="338.17" y="566" text-anchor="middle" font-family="sans-serif" font-size="11" fill="#555">Apr</text>
<line x1="430.11" y1="25" x2="430.11" y2="550" stroke="#f2f2f2"/>
<text x="430.11" y="566" text-anchor="middle" font-family="sans-serif" font-size="11" fill="#555">May</text>
<line x1="525.13" y1="25" x2="525.13" y2="550" stroke="#f2f2f2"/>
<text x="525.13" y="566" text-anchor="middle" font-family="sans-serif" font-size="11" fill="#555">Jun</text>
<line x1="617.07" y1="25" x2="617.07" y2="550" stroke="#f2f2f2"/>
<text x="617.07" y="566" text-anchor="middle" font-family="sans-serif" font-size="11" fill="#555">Jul</text>
<line x1="712.08" y1="25" x2="712.08" y2="550" stroke="#f2f2f2"/>
<text x="712.08" y="566" text-anchor="middle" font-family="sans-serif" font-size="11" fill="#555">Aug</text>
<line x1="807.10" y1="25" x2="807.10" y2="550" stroke="#f2f2f2"/>
<text x="807.10" y="566" text-anchor="middle" font-family="sans-serif" font-size="11" fill="#555">Sep</text>
<line x1="899.04" y1="25" x2="899.04" y2="550" stroke="#f2f2f2"/>
<text x="899.04" y="566" text-anchor="middle" font-family="sans-serif" font-size="11" fill="#555">Oct</text>
<line x1="994.06" y1="25" x2="994.06" y2="550" stroke="#f2f2f2"/>
<text x="994.06" y="566" text-anchor="middle" font-family="sans-serif" font-size="11" fill="#555">Nov</text>
<line x1="1086.00" y1="25" x2="1086.00" y2="550" stroke="#f2f2f2"/>
<text x="1086.00" y="566" text-anchor="middle" font-family="sans-serif" font-size="11" fill="#555">Dec</text>
<line x1="70" y1="550" x2="1170" y2="550" stroke="#888"/>
<line x1="70" y1="25" x2="70" y2="550" stroke="#888"/>
<path d="M 97.85 45.96 L 97.99 45.96 L 98.00 45.96 L 98.07 45.96 L 110.19 45.96 L 112.67 45.96 L 118.79 45.96 L 128.17 45.96 L 135.05 45.96 L 135.24 45.96 L 137.18 45.96 L 141.06 45.96 L 153.18 45.96 L 155.54 45.96 L 155.95 45.96 L 158.92 45.96 L 159.41 45.96 L 162.19 45.96 L 162.26 45.96 L 171.72 45.96 L 173.68 45.96 L 173.68 46.48 L 171.72 49.57 L 162.26 51.17 L 162.19 54.81 L 159.41 57.69 L 158.92 59.67 L 155.95 63.49 L 155.54 64.31 L 153.18 56.83 L 141.06 59.29 L 137.18 63.15 L 135.24 66.55 L 135.05 64.86 L 128.17 68.46 L 118.79 61.07 L 112.67 62.08 L 110.19 66.23 L 98.07 66.91 L 98.00 68.35 L 97.99 61.07 L 97.85 53.59 Z" fill="#d0d0d0" fill-opacity="0.5" stroke="none"/>
<path d="M 183.53 41.23 L 183.53 42.13 Z" fill="#d0d0d0" fill-opacity="0.5" stroke="none"/>
<path d="M 202.41 34.40 L 212.50 34.40 L 215.93 34.40 L 215.93 37.45 L 212.50 41.81 L 202.41 42.20 Z" fill="#d0d0d0" fill-opacity="0.5" stroke="none"/>
<path d="M 300.46 25.00 L 308.73 25.00 L 311.91 25.00 L 321.50 25.00 L 346.76 25.00 L 346.91 25.00 L 351.91 25.00 L 367.51 25.00 L 376.98 25.00 L 386.66 25.00 L 392.31 25.00 L 394.98 25.00 L 432.12 25.00 L 434.56 25.00 L 448.44 25.00 L 448.49 25.00 L 474.92 25.00 L 498.77 25.00 L 499.53 25.00 L 501.76 25.00 L 505.51 25.00 L 518.20 25.00 L 524.12 25.00 L 526.97 25.00 L 527.03 25.00 L 536.28 25.00 L 538.56 25.00 L 542.24 25.00 L 542.76 25.00 L 555.71 25.00 L 557.89 25.00 L 560.79 25.00 L 564.08 25.00 L 577.21 25.00 L 578.50 25.00 L 582.41 25.00 L 585.62 25.00 L 588.45 25.00 L 609.03 25.00 L 609.12 25.00 L 611.45 25.00 L 611.56 25.00 L 611.67 25.00 L 612.69 25.00 L 612.80 25.00 L 612.91 25.00 L 630.99 25.00 L 631.19 25.00 L 631.31 25.00 L 634.23 25.00 L 655.82 25.00 L 664.91 25.00 L 668.11 25.00 L 674.15 25.00 L 676.99 25.00 L 695.17 25.00 L 695.24 25.00 L 695.36 25.00 L 695.49 25.00 L 695.57 25.00 L 698.45 25.00 L 698.59 25.00 L 699.22 25.00 L 714.54 25.00 L 716.88 25.00 L 716.89 25.00 L 716.92 25.00 L 717.03 25.00 L 717.09 25.00 L 717.29 25.00 L 719.81 25.00 L 720.19 25.00 L 727.53 25.00 L 741.72 25.00 L 756.51 25.00 L 760.11 25.00 L 763.17 25.00 L 784.68 25.00 L 796.22 25.00 L 803.05 25.00 L 805.43 25.00 L 821.05 25.00 L 827.35 25.00 L 841.97 25.00 L 846.12 25.00 L 846.35 25.00 L 848.56 25.00 L 848.92 25.00 L 858.03 25.00 L 866.39 25.00 L 869.72 25.00 L 891.90 25.00 L 924.75 25.00 L 925.73 25.00 L 970.77 25.00 L 1013.07 25.00 L 1014.06 25.00 L 1055.94 25.00 L 1103.36 25.00 L 1122.05 25.00 L 1128.13 25.00 L 1167.69 25.00 L 1170.00 25.00 L 1170.00 62.50 L 1167.69 63.70 L 1128.13 67.17 L 1122.05 67.48 L 1103.36 69.69 L 1055.94 67.94 L 1014.06 69.02 L 1013.07 61.60 L 970.77 61.42 L 925.73 63.92 L 924.75 67.19 L 891.90 67.41 L 869.72 67.18 L 866.39 69.41 L 858.03 72.30 L 848.92 75.26 L 848.56 76.90 L 846.35 77.03 L 846.12 69.73 L 841.97 73.80 L 827.35 77.86 L 821.05 75.40 L 805.43 78.20 L 803.05 80.98 L 796.22 83.22 L 784.68 85.51 L 763.17 88.77 L 760.11 90.28 L 756.51 92.26 L 741.72 93.97 L 727.53 96.51 L 720.19 99.33 L 719.81 92.39 L 717.29 91.83 L 717.09 91.64 L 717.03 94.61 L 716.92 94.67 L 716.89 98.54 L 716.88 102.49 L 714.54 95.60 L 699.22 99.42 L 698.59 92.49 L 698.45 96.37 L 695.57 100.18 L 695.49 103.41 L 695.36 104.11 L 695.24 97.25 L 695.17 90.32 L 676.99 83.24 L 674.15 84.50 L 668.11 85.35 L 664.91 78.20 L 655.82 80.05 L 634.23 80.78 L 631.31 82.85 L 631.19 79.38 L 630.99 72.16 L 612.91 64.80 L 612.80 66.17 L 612.69 66.37 L 611.67 58.92 L 611.56 51.37 L 611.45 51.82 L 609.12 44.16 L 609.03 46.09 L 588.45 38.34 L 585.62 37.60 L 582.41 41.51 L 578.50 42.31 L 577.21 42.33 L 564.08 40.60 L 560.79 41.19 L 557.89 45.06 L 555.71 48.98 L 542.76 49.92 L 542.24 47.09 L 538.56 50.94 L 536.28 43.27 L 527.03 42.97 L 526.97 45.02 L 524.12 37.26 L 518.20 41.16 L 505.51 39.93 L 501.76 38.42 L 499.53 42.76 L 498.77 34.97 L 474.92 38.61 L 448.49 38.67 L 448.44 41.82 L 434.56 34.01 L 432.12 35.98 L 394.98 39.64 L 392.31 42.36 L 386.66 45.91 L 376.98 44.30 L 367.51 45.11 L 351.91 48.37 L 346.91 46.43 L 346.76 44.90 L 321.50 37.14 L 311.91 29.28 L 308.73 28.50 L 300.46 32.93 Z" fill="#d0d0d0" fill-opacity="0.5" stroke="none"/>
<polyline fill="none" stroke="#111" stroke-width="1.2" points="70.00,59.48 72.68,56.55 76.39,55.02 91.36,50.77 94.95,49.84 97.37,45.96 97.85,53.59 97.99,61.07 98.00,68.35 98.07,66.91 110.19,66.23 112.67,62.08 118.79,61.07 128.17,68.46 135.05,64.86 135.24,66.55 137.18,63.15 141.06,59.29 153.18,56.83 155.54,64.31 155.95,63.49 158.92,59.67 159.41,57.69 162.19,54.81 162.26,51.17 171.72,49.57 173.68,46.48 174.43,42.76 174.78,41.23 183.53,42.13 190.96,38.79 198.87,34.40 202.41,42.20 212.50,41.81 215.93,37.45 226.73,34.37 242.02,29.97 269.42,26.39 281.78,25.48 290.95,25.00 300.46,32.93 308.73,28.50 311.91,29.28 321.50,37.14 346.76,44.90 346.91,46.43 351.91,48.37 367.51,45.11 376.98,44.30 386.66,45.91 392.31,42.36 394.98,39.64 432.12,35.98 434.56,34.01 448.44,41.82 448.49,38.67 474.92,38.61 498.77,34.97 499.53,42.76 501.76,38.42 505.51,39.93 518.20,41.16 524.12,37.26 526.97,45.02 527.03,42.97 536.28,43.27 538.56,50.94 542.24,47.09 542.76,49.92 555.71,48.98 557.89,45.06 560.79,41.19 564.08,40.60 577.21,42.33 578.50,42.31 582.41,41.51 585.62,37.60 588.45,38.34 609.03,46.09 609.12,44.16 611.45,51.82 611.56,51.37 611.67,58.92 612.69,66.37 612.80,66.17 612.91,64.80 630.99,72.16 631.19,79.38 631.31,82.85 634.23,80.78 655.82,80.05 664.91,78.20 668.11,85.35 674.15,84.50 676.99,83.24 695.17,90.32 695.24,97.25 695.36,104.11 695.49,103.41 695.57,100.18 698.45,96.37 698.59,92.49 699.22,99.42 714.54,95.60 716.88,102.49 716.89,98.54 716.92,94.67 717.03,94.61 717.09,91.64 717.29,91.83 719.81,92.39 720.19,99.33 727.53,96.51 741.72,93.97 756.51,92.26 760.11,90.28 763.17,88.77 784.68,85.51 796.22,83.22 803.05,80.98 805.43,78.20 821.05,75.40 827.35,77.86 841.97,73.80 846.12,69.73 846.35,77.03 848.56,76.90 848.92,75.26 858.03,72.30 866.39,69.41 869.72,67.18 891.90,67.41 924.75,67.19 925.73,63.92 970.77,61.42 1013.07,61.60 1014.06,69.02 1055.94,67.94 1103.36,69.69 1122.05,67.48 1128.13,67.17 1167.69,63.70 1170.00,62.50"/>
<text x="620.0" y="588" text-anchor="middle" font-family="sans-serif" font-size="12" fill="#333">UTC time</text>
<text x="15" y="287.5" transform="rotate(-90 15,287.5)" text-anchor="middle" font-family="sans-serif" font-size="12" fill="#333">Capital</text>
</svg>