<svg xmlns="http://www.w3.org/2000/svg" width="1200" height="600" viewBox="0 0 1200 600">
<desc>Equity curve with drawdown fill</desc>
<text x="600.0" y="18.0" text-anchor="middle" font-family="sans-serif" font-size="14">Portfolio 2023</text>
<rect x="70" y="25" width="1100" height="525" fill="white" stroke="#ccc" />
<line x1="70" y1="550.00" x2="1170" y2="550.00" stroke="#eee"/>
<text x="62" y="554.0" text-anchor="end" font-family="sans-serif" font-size="11" fill="#555">0.00</text>
<line x1="70" y1="445.00" x2="1170" y2="445.00" stroke="#eee"/>
<text x="62" y="449.0" text-anchor="end" font-family="sans-serif" font-size="11" fill="#555">20772</text>
<line x1="70" y1="340.00" x2="1170" y2="340.00" stroke="#eee"/>
<text x="62" y="344.0" text-anchor="end" font-family="sans-serif" font-size="11" fill="#555">41545</text>
<line x1="70" y1="235.00" x2="1170" y2="235.00" stroke="#eee"/>
<text x="62" y="239.0" text-anchor="end" font-family="sans-serif" font-size="11" fill="#555">62317</text>
<line x1="70" y1="130.00" x2="1170" y2="130.00" stroke="#eee"/>
<text x="62" y="134.0" text-anchor="end" font-family="sans-serif" font-size="11" fill="#555">83089</text>
<line x1="70" y1="25.00" x2="1170" y2="25.00" stroke="#eee"/>
<text x="62" y="29.0" text-anchor="end" font-family="sans-serif" font-size="11" fill="#555">103861</text>
<line x1="157.75" y1="25" x2="157.75" y2="550" stroke="#f2f2f2"/>
<text x="157.75" y="566" text-anchor="middle" font-family="sans-serif" font-size="11" fill="#555">Feb</text>
<line x1="243.48" y1="25" x2="243.48" y2="550" stroke="#f2f2f2"/>
<text x="243.48" y="566" text-anchor="middle" font-family="sans-serif" font-size="11" fill="#555">Mar</text>
<line x1="338.40" y1="25" x2="338.40" y2="550" stroke="#f2f2f2"/>
<text x="338.40" y="566" text-anchor="middle" font-family="sans-serif" font-size="11" fill="#555">Apr</text>
<line x1="430.26" y1="25" x2="430.26" y2="550" stroke="#f2f2f2"/>
<text x="430.26" y="566" text-anchor="middle" font-family="sans-serif" font-size="11" fill="#555">May</text>
<line x1="525.18" y1="25" x2="525.18" y2="550" stroke="#f2f2f2"/>
<text x="525.18" y="566" text-anchor="middle" font-family="sans-serif" font-size="11" fill="#555">Jun</text>
<line x1="617.04" y1="25" x2="617.04" y2="550" stroke="#f2f2f2"/>
<text x="617.04" y="566" text-anchor="middle" font-family="sans-serif" font-size="11" fill="#555">Jul</text>
<line x1="711.96" y1="25" x2="711.96" y2="550" stroke="#f2f2f2"/>
<text x="711.96" y="566" text-anchor="middle" font-family="sans-serif" font-size="11" fill="#555">Aug</text>
<line x1="806.88" y1="25" x2="806.88" y2="550" stroke="#f2f2f2"/>
<text x="806.88" y="566" text-anchor="middle" font-family="sans-serif" font-size="11" fill="#555">Sep</text>
<line x1="898.74" y1="25" x2="898.74" y2="550" stroke="#f2f2f2"/>
<text x="898.74" y="566" text-anchor="middle" font-family="sans-serif" font-size="11" fill="#555">Oct</text>
<line x1="993.66" y1="25" x2="993.66" y2="550" stroke="#f2f2f2"/>
<text x="993.66" y="566" text-anchor="middle" font-family="sans-serif" font-size="11" fill="#555">Nov</text>
<line x1="1085.52" y1="25" x2="1085.52" y2="550" stroke="#f2f2f2"/>
<text x="1085.52" y="566" text-anchor="middle" font-family="sans-serif" font-size="11" fill="#555">Dec</text>
<line x1="70" y1="550" x2="1170" y2="550" stroke="#888"/>
<line x1="70" y1="25" x2="70" y2="550" stroke="#888"/>
<path d="M 70.00 44.52 L 70.11 44.52 L 70.14 44.52 L 70.85 44.52 L 73.12 44.52 L 76.98 44.52 L 79.94 44.52 L 80.08 44.52 L 80.32 44.52 L 80.46 44.52 L 89.09 44.52 L 98.23 44.52 L 98.31 44.52 L 98.86 44.52 L 113.91 44.52 L 116.01 44.52 L 116.74 44.52 L 117.17 44.52 L 138.27 44.52 L 160.73 44.52 L 162.61 44.52 L 162.76 44.52 L 165.59 44.52 L 165.76 44.52 L 165.82 44.52 L 178.41 44.52 L 199.28 44.52 L 199.42 44.52 L 199.42 45.80 L 199.28 48.38 L 178.41 51.17 L 165.82 46.07 L 165.76 48.44 L 165.59 50.21 L 162.76 53.13 L 162.61 55.41 L 160.73 57.55 L 138.27 59.60 L 117.17 61.56 L 116.74 61.42 L 116.01 63.92 L 113.91 62.58 L 98.86 63.14 L 98.31 64.28 L 98.23 66.67 L 89.09 69.37 L 80.46 70.96 L 80.32 68.67 L 80.08 64.42 L 79.94 59.46 L 76.98 61.48 L 73.12 56.50 L 70.85 57.42 L 70.14 59.61 L 70.11 54.66 L 70.00 49.63 Z" fill="#d0d0d0" fill-opacity="0.5" stroke="none"/>
<path d="M 264.22 39.53 L 273.13 39.53 L 280.66 39.53 L 281.47 39.53 L 281.47 40.89 L 280.66 41.92 L 273.13 42.88 L 264.22 44.69 Z" fill="#d0d0d0" fill-opacity="0.5" stroke="none"/>
<path d="M 287.69 38.32 L 288.01 38.32 L 288.30 38.32 L 288.52 38.32 L 303.46 38.32 L 313.27 38.32 L 314.96 38.32 L 315.35 38.32 L 315.44 38.32 L 367.70 38.32 L 373.87 38.32 L 380.15 38.32 L 389.70 38.32 L 389.70 39.74 L 380.15 38.42 L 373.87 40.71 L 367.70 41.95 L 315.44 43.64 L 315.35 43.45 L 314.96 44.38 L 313.27 46.59 L 303.46 49.18 L 288.52 51.65 L 288.30 50.77 L 288.01 48.59 L 287.69 43.49 Z" fill="#d0d0d0" fill-opacity="0.5" stroke="none"/>
<path d="M 570.26 25.00 L 593.63 25.00 L 612.86 25.00 L 616.10 25.00 L 637.15 25.00 L 652.46 25.00 L 677.47 25.00 L 688.67 25.00 L 698.83 25.00 L 698.92 25.00 L 701.46 25.00 L 717.02 25.00 L 722.96 25.00 L 753.69 25.00 L 780.45 25.00 L 799.68 25.00 L 809.11 25.00 L 848.41 25.00 L 867.50 25.00 L 915.81 25.00 L 915.85 25.00 L 916.18 25.00 L 934.18 25.00 L 956.04 25.00 L 991.88 25.00 L 1001.38 25.00 L 1001.46 25.00 L 1001.57 25.00 L 1035.19 25.00 L 1035.37 25.00 L 1035.44 25.00 L 1096.57 25.00 L 1108.68 25.00 L 1124.72 25.00 L 1124.87 25.00 L 1127.16 25.00 L 1130.16 25.00 L 1170.00 25.00 L 1170.00 35.27 L 1130.16 37.40 L 1127.16 39.10 L 1124.87 41.09 L 1124.72 39.69 L 1108.68 34.48 L 1096.57 37.37 L 1035.44 39.42 L 1035.37 34.21 L 1035.19 28.97 L 1001.57 31.88 L 1001.46 33.99 L 1001.38 35.91 L 991.88 38.78 L 956.04 41.33 L 934.18 43.96 L 916.18 46.55 L 915.85 41.40 L 915.81 43.67 L 867.50 38.49 L 848.41 41.08 L 809.11 35.87 L 799.68 33.26 L 780.45 34.37 L 753.69 36.45 L 722.96 38.03 L 717.02 32.80 L 701.46 35.12 L 698.92 35.94 L 698.83 35.38 L 688.67 33.01 L 677.47 32.72 L 652.46 27.44 L 637.15 30.07 L 616.10 32.97 L 612.86 33.76 L 593.63 35.55 L 570.26 30.30 Z" fill="#d0d0d0" fill-opacity="0.5" stroke="none"/>
<polyline fill="none" stroke="#111" stroke-width="1.2" points="70.00,49.63 70.11,54.66 70.14,59.61 70.85,57.42 73.12,56.50 76.98,61.48 79.94,59.46 80.08,64.42 80.32,68.67 80.46,70.96 89.09,69.37 98.23,66.67 98.31,64.28 98.86,63.14 113.91,62.58 116.01,63.92 116.74,61.42 117.17,61.56 138.27,59.60 160.73,57.55 162.61,55.41 162.76,53.13 165.59,50.21 165.76,48.44 165.82,46.07 178.41,51.17 199.28,48.38 199.42,45.80 199.60,43.46 208.71,41.13 245.19,39.53 264.22,44.69 273.13,42.88 280.66,41.92 281.47,40.89 282.29,38.32 287.69,43.49 288.01,48.59 288.30,50.77 288.52,51.65 303.46,49.18 313.27,46.59 314.96,44.38 315.35,43.45 315.44,43.64 367.70,41.95 373.87,40.71 380.15,38.42 389.70,39.74 413.96,37.70 438.82,34.83 441.57,34.42 444.23,31.52 459.73,28.80 461.97,27.66 527.11,25.00 570.26,30.30 593.63,35.55 612.86,33.76 616.10,32.97 637.15,30.07 652.46,27.44 677.47,32.72 688.67,33.01 698.83,35.38 698.92,35.94 701.46,35.12 717.02,32.80 722.96,38.03 753.69,36.45 780.45,34.37 799.68,33.26 809.11,35.87 848.41,41.08 867.50,38.49 915.81,43.67 915.85,41.40 916.18,46.55 934.18,43.96 956.04,41.33 991.88,38.78 1001.38,35.91 1001.46,33.99 1001.57,31.88 1035.19,28.97 1035.37,34.21 1035.44,39.42 1096.57,37.37 1108.68,34.48 1124.72,39.69 1124.87,41.09 1127.16,39.10 1130.16,37.40 1170.00,35.27"/>
<text x="620.0" y="588" text-anchor="middle" font-family="sans-serif" font-size="12" fill="#333">UTC time</text>
<text x="15" y="287.5" transform="rotate(-90 15,287.5)" text-anchor="middle" font-family="sans-serif" font-size="12" fill="#333">Capital</text>
</svg>