<svg xmlns="http://www.w3.org/2000/svg" width="1200" height="600" viewBox="0 0 1200 600">
<desc>Equity curve with drawdown fill</desc>
<text x="600.0" y="18.0" text-anchor="middle" font-family="sans-serif" font-size="14">Portfolio 2013</text>
<rect x="70" y="25" width="1100" height="525" fill="white" stroke="#ccc" />
<line x1="70" y1="550.00" x2="1170" y2="550.00" stroke="#eee"/>
<text x="62" y="554.0" text-anchor="end" font-family="sans-serif" font-size="11" fill="#555">0.00</text>
<line x1="70" y1="445.00" x2="1170" y2="445.00" stroke="#eee"/>
<text x="62" y="449.0" text-anchor="end" font-family="sans-serif" font-size="11" fill="#555">20000</text>
<line x1="70" y1="340.00" x2="1170" y2="340.00" stroke="#eee"/>
<text x="62" y="344.0" text-anchor="end" font-family="sans-serif" font-size="11" fill="#555">40000</text>
<line x1="70" y1="235.00" x2="1170" y2="235.00" stroke="#eee"/>
<text x="62" y="239.0" text-anchor="end" font-family="sans-serif" font-size="11" fill="#555">60000</text>
<line x1="70" y1="130.00" x2="1170" y2="130.00" stroke="#eee"/>
<text x="62" y="134.0" text-anchor="end" font-family="sans-serif" font-size="11" fill="#555">80000</text>
<line x1="70" y1="25.00" x2="1170" y2="25.00" stroke="#eee"/>
<text x="62" y="29.0" text-anchor="end" font-family="sans-serif" font-size="11" fill="#555">100000</text>
<line x1="159.76" y1="25" x2="159.76" y2="550" stroke="#f2f2f2"/>
<text x="159.76" y="566" text-anchor="middle" font-family="sans-serif" font-size="11" fill="#555">Feb</text>
<line x1="245.61" y1="25" x2="245.61" y2="550" stroke="#f2f2f2"/>
<text x="245.61" y="566" text-anchor="middle" font-family="sans-serif" font-size="11" fill="#555">Mar</text>
<line x1="340.66" y1="25" x2="340.66" y2="550" stroke="#f2f2f2"/>
<text x="340.66" y="566" text-anchor="middle" font-family="sans-serif" font-size="11" fill="#555">Apr</text>
<line x1="432.64" y1="25" x2="432.64" y2="550" stroke="#f2f2f2"/>
<text x="432.64" y="566" text-anchor="middle" font-family="sans-serif" font-size="11" fill="#555">May</text>
<line x1="527.69" y1="25" x2="527.69" y2="550" stroke="#f2f2f2"/>
<text x="527.69" y="566" text-anchor="middle" font-family="sans-serif" font-size="11" fill="#555">Jun</text>
<line x1="619.68" y1="25" x2="619.68" y2="550" stroke="#f2f2f2"/>
<text x="619.68" y="566" text-anchor="middle" font-family="sans-serif" font-size="11" fill="#555">Jul</text>
<line x1="714.72" y1="25" x2="714.72" y2="550" stroke="#f2f2f2"/>
<text x="714.72" y="566" text-anchor="middle" font-family="sans-serif" font-size="11" fill="#555">Aug</text>
<line x1="809.77" y1="25" x2="809.77" y2="550" stroke="#f2f2f2"/>
<text x="809.77" y="566" text-anchor="middle" font-family="sans-serif" font-size="11" fill="#555">Sep</text>
<line x1="901.76" y1="25" x2="901.76" y2="550" stroke="#f2f2f2"/>
<text x="901.76" y="566" text-anchor="middle" font-family="sans-serif" font-size="11" fill="#555">Oct</text>
<line x1="996.81" y1="25" x2="996.81" y2="550" stroke="#f2f2f2"/>
<text x="996.81" y="566" text-anchor="middle" font-family="sans-serif" font-size="11" fill="#555">Nov</text>
<line x1="1088.79" y1="25" x2="1088.79" y2="550" stroke="#f2f2f2"/>
<text x="1088.79" y="566" text-anchor="middle" font-family="sans-serif" font-size="11" fill="#555">Dec</text>
<line x1="70" y1="550" x2="1170" y2="550" stroke="#888"/>
<line x1="70" y1="25" x2="70" y2="550" stroke="#888"/>
<path d="M 70.00 25.00 L 94.09 25.00 L 97.11 25.00 L 110.12 25.00 L 118.52 25.00 L 130.29 25.00 L 134.22 25.00 L 161.68 25.00 L 161.91 25.00 L 174.15 25.00 L 179.93 25.00 L 180.09 25.00 L 180.10 25.00 L 180.22 25.00 L 180.34 25.00 L 194.98 25.00 L 200.90 25.00 L 220.45 25.00 L 222.22 25.00 L 225.59 25.00 L 235.39 25.00 L 235.42 25.00 L 235.62 25.00 L 235.83 25.00 L 265.77 25.00 L 268.80 25.00 L 268.88 25.00 L 268.95 25.00 L 284.39 25.00 L 287.84 25.00 L 297.73 25.00 L 299.02 25.00 L 302.99 25.00 L 311.97 25.00 L 319.28 25.00 L 321.03 25.00 L 351.60 25.00 L 351.79 25.00 L 354.65 25.00 L 354.67 25.00 L 354.97 25.00 L 388.34 25.00 L 388.93 25.00 L 391.70 25.00 L 409.38 25.00 L 416.27 25.00 L 431.51 25.00 L 437.51 25.00 L 437.60 25.00 L 437.76 25.00 L 440.51 25.00 L 440.73 25.00 L 459.72 25.00 L 462.34 25.00 L 483.47 25.00 L 498.99 25.00 L 499.03 25.00 L 517.46 25.00 L 520.03 25.00 L 520.08 25.00 L 523.50 25.00 L 535.90 25.00 L 536.02 25.00 L 536.09 25.00 L 545.17 25.00 L 545.29 25.00 L 547.88 25.00 L 585.37 25.00 L 590.79 25.00 L 612.47 25.00 L 627.90 25.00 L 630.61 25.00 L 630.72 25.00 L 630.79 25.00 L 633.66 25.00 L 646.30 25.00 L 649.73 25.00 L 650.29 25.00 L 650.33 25.00 L 650.47 25.00 L 651.41 25.00 L 670.78 25.00 L 713.38 25.00 L 714.09 25.00 L 719.52 25.00 L 759.47 25.00 L 759.98 25.00 L 760.17 25.00 L 823.86 25.00 L 826.83 25.00 L 864.32 25.00 L 906.72 25.00 L 946.09 25.00 L 949.84 25.00 L 952.04 25.00 L 967.87 25.00 L 993.21 25.00 L 1016.83 25.00 L 1017.02 25.00 L 1017.04 25.00 L 1019.99 25.00 L 1035.73 25.00 L 1057.16 25.00 L 1102.91 25.00 L 1143.34 25.00 L 1170.00 25.00 L 1170.00 37.70 L 1143.34 40.74 L 1102.91 43.64 L 1057.16 45.48 L 1035.73 40.34 L 1019.99 43.23 L 1017.04 46.12 L 1017.02 40.98 L 1016.83 39.68 L 993.21 42.70 L 967.87 44.23 L 952.04 47.11 L 949.84 45.50 L 946.09 47.10 L 906.72 48.35 L 864.32 47.61 L 826.83 50.57 L 823.86 53.41 L 760.17 55.02 L 759.98 55.69 L 759.47 58.60 L 719.52 59.17 L 714.09 61.95 L 713.38 64.72 L 670.78 67.47 L 651.41 69.15 L 650.47 64.26 L 650.33 65.84 L 650.29 60.94 L 649.73 55.98 L 646.30 50.95 L 633.66 45.87 L 630.79 48.73 L 630.72 50.45 L 630.61 50.35 L 627.90 53.19 L 612.47 55.47 L 590.79 56.94 L 585.37 58.25 L 547.88 53.24 L 545.29 56.04 L 545.17 55.53 L 536.09 58.33 L 536.02 59.65 L 535.90 59.92 L 523.50 54.93 L 520.08 49.88 L 520.03 51.82 L 517.46 46.74 L 499.03 47.23 L 498.99 49.91 L 483.47 52.03 L 462.34 53.84 L 459.72 56.13 L 440.73 51.10 L 440.51 53.53 L 437.76 56.33 L 437.60 51.30 L 437.51 51.95 L 431.51 46.87 L 416.27 41.75 L 409.38 40.93 L 391.70 39.23 L 388.93 34.02 L 388.34 34.14 L 354.97 36.08 L 354.67 38.22 L 354.65 41.01 L 351.79 43.89 L 351.60 38.73 L 321.03 41.63 L 319.28 43.56 L 311.97 46.43 L 302.99 48.48 L 299.02 51.05 L 297.73 52.23 L 287.84 50.65 L 284.39 51.29 L 268.95 50.34 L 268.88 45.26 L 268.80 40.13 L 265.77 43.03 L 235.83 45.89 L 235.62 46.76 L 235.42 46.17 L 235.39 48.63 L 225.59 43.53 L 222.22 45.93 L 220.45 48.28 L 200.90 51.13 L 194.98 53.97 L 180.34 53.81 L 180.22 52.19 L 180.10 51.27 L 180.09 46.19 L 179.93 41.08 L 174.15 35.89 L 161.91 38.29 L 161.68 38.11 L 134.22 40.49 L 130.29 41.90 L 118.52 36.73 L 110.12 39.42 L 97.11 40.71 L 94.09 35.53 L 70.00 30.29 Z" fill="#d0d0d0" fill-opacity="0.5" stroke="none"/>
<polyline fill="none" stroke="#111" stroke-width="1.2" points="70.00,30.29 94.09,35.53 97.11,40.71 110.12,39.42 118.52,36.73 130.29,41.90 134.22,40.49 161.68,38.11 161.91,38.29 174.15,35.89 179.93,41.08 180.09,46.19 180.10,51.27 180.22,52.19 180.34,53.81 194.98,53.97 200.90,51.13 220.45,48.28 222.22,45.93 225.59,43.53 235.39,48.63 235.42,46.17 235.62,46.76 235.83,45.89 265.77,43.03 268.80,40.13 268.88,45.26 268.95,50.34 284.39,51.29 287.84,50.65 297.73,52.23 299.02,51.05 302.99,48.48 311.97,46.43 319.28,43.56 321.03,41.63 351.60,38.73 351.79,43.89 354.65,41.01 354.67,38.22 354.97,36.08 388.34,34.14 388.93,34.02 391.70,39.23 409.38,40.93 416.27,41.75 431.51,46.87 437.51,51.95 437.60,51.30 437.76,56.33 440.51,53.53 440.73,51.10 459.72,56.13 462.34,53.84 483.47,52.03 498.99,49.91 499.03,47.23 517.46,46.74 520.03,51.82 520.08,49.88 523.50,54.93 535.90,59.92 536.02,59.65 536.09,58.33 545.17,55.53 545.29,56.04 547.88,53.24 585.37,58.25 590.79,56.94 612.47,55.47 627.90,53.19 630.61,50.35 630.72,50.45 630.79,48.73 633.66,45.87 646.30,50.95 649.73,55.98 650.29,60.94 650.33,65.84 650.47,64.26 651.41,69.15 670.78,67.47 713.38,64.72 714.09,61.95 719.52,59.17 759.47,58.60 759.98,55.69 760.17,55.02 823.86,53.41 826.83,50.57 864.32,47.61 906.72,48.35 946.09,47.10 949.84,45.50 952.04,47.11 967.87,44.23 993.21,42.70 1016.83,39.68 1017.02,40.98 1017.04,46.12 1019.99,43.23 1035.73,40.34 1057.16,45.48 1102.91,43.64 1143.34,40.74 1170.00,37.70"/>
<text x="620.0" y="588" text-anchor="middle" font-family="sans-serif" font-size="12" fill="#333">UTC time</text>
<text x="15" y="287.5" transform="rotate(-90 15,287.5)" text-anchor="middle" font-family="sans-serif" font-size="12" fill="#333">Capital</text>
</svg>