<svg xmlns="http://www.w3.org/2000/svg" width="1200" height="600" viewBox="0 0 1200 600">
<desc>Equity curve with drawdown fill; x-axis is months only (no exact timestamps)</desc>
<text x="600.0" y="18.0" text-anchor="middle" font-family="sans-serif" font-size="14">Portfolio 2003 (UTC)</text>
<rect x="70" y="25" width="1100" height="525" fill="white" stroke="#ccc" />
<line x1="70" y1="550.00" x2="1170" y2="550.00" stroke="#eee"/>
<text x="62" y="554.0" text-anchor="end" font-family="sans-serif" font-size="11" fill="#555">0.00</text>
<line x1="70" y1="445.00" x2="1170" y2="445.00" stroke="#eee"/>
<text x="62" y="449.0" text-anchor="end" font-family="sans-serif" font-size="11" fill="#555">23032</text>
<line x1="70" y1="340.00" x2="1170" y2="340.00" stroke="#eee"/>
<text x="62" y="344.0" text-anchor="end" font-family="sans-serif" font-size="11" fill="#555">46064</text>
<line x1="70" y1="235.00" x2="1170" y2="235.00" stroke="#eee"/>
<text x="62" y="239.0" text-anchor="end" font-family="sans-serif" font-size="11" fill="#555">69096</text>
<line x1="70" y1="130.00" x2="1170" y2="130.00" stroke="#eee"/>
<text x="62" y="134.0" text-anchor="end" font-family="sans-serif" font-size="11" fill="#555">92127</text>
<line x1="70" y1="25.00" x2="1170" y2="25.00" stroke="#eee"/>
<text x="62" y="29.0" text-anchor="end" font-family="sans-serif" font-size="11" fill="#555">115159</text>
<line x1="161.67" y1="25" x2="161.67" y2="550" stroke="#f2f2f2"/>
<line x1="253.33" y1="25" x2="253.33" y2="550" stroke="#f2f2f2"/>
<line x1="345.00" y1="25" x2="345.00" y2="550" stroke="#f2f2f2"/>
<line x1="436.67" y1="25" x2="436.67" y2="550" stroke="#f2f2f2"/>
<line x1="528.33" y1="25" x2="528.33" y2="550" stroke="#f2f2f2"/>
<line x1="620.00" y1="25" x2="620.00" y2="550" stroke="#f2f2f2"/>
<line x1="711.67" y1="25" x2="711.67" y2="550" stroke="#f2f2f2"/>
<line x1="803.33" y1="25" x2="803.33" y2="550" stroke="#f2f2f2"/>
<line x1="895.00" y1="25" x2="895.00" y2="550" stroke="#f2f2f2"/>
<line x1="986.67" y1="25" x2="986.67" y2="550" stroke="#f2f2f2"/>
<line x1="1078.33" y1="25" x2="1078.33" y2="550" stroke="#f2f2f2"/>
<text x="115.83" y="566.00" text-anchor="middle" font-family="sans-serif" font-size="11" fill="#444">Jan</text>
<text x="207.50" y="566.00" text-anchor="middle" font-family="sans-serif" font-size="11" fill="#444">Feb</text>
<text x="299.17" y="566.00" text-anchor="middle" font-family="sans-serif" font-size="11" fill="#444">Mar</text>
<text x="390.83" y="566.00" text-anchor="middle" font-family="sans-serif" font-size="11" fill="#444">Apr</text>
<text x="482.50" y="566.00" text-anchor="middle" font-family="sans-serif" font-size="11" fill="#444">May</text>
<text x="574.17" y="566.00" text-anchor="middle" font-family="sans-serif" font-size="11" fill="#444">Jun</text>
<text x="665.83" y="566.00" text-anchor="middle" font-family="sans-serif" font-size="11" fill="#444">Jul</text>
<text x="757.50" y="566.00" text-anchor="middle" font-family="sans-serif" font-size="11" fill="#444">Aug</text>
<text x="849.17" y="566.00" text-anchor="middle" font-family="sans-serif" font-size="11" fill="#444">Sep</text>
<text x="940.83" y="566.00" text-anchor="middle" font-family="sans-serif" font-size="11" fill="#444">Oct</text>
<text x="1032.50" y="566.00" text-anchor="middle" font-family="sans-serif" font-size="11" fill="#444">Nov</text>
<text x="1124.17" y="566.00" text-anchor="middle" font-family="sans-serif" font-size="11" fill="#444">Dec</text>
<line x1="70" y1="550" x2="1170" y2="550" stroke="#888"/>
<line x1="70" y1="25" x2="70" y2="550" stroke="#888"/>
<line x1="76.55" y1="550.00" x2="76.55" y2="556.00" stroke="#888"/>
<line x1="1158.54"   y1="550.00" x2="1158.54"   y2="556.00" stroke="#888"/>
<text x="76.55" y="582.00" text-anchor="start" font-family="sans-serif" font-size="11" fill="#333">Initial Balance: 100000</text>
<text x="1158.54"   y="582.00" text-anchor="end"   font-family="sans-serif" font-size="11" fill="#333">Ending Balance: 114312</text>
<path d="M 89.64 94.11 L 102.74 94.11 L 115.83 94.11 L 128.93 94.11 L 142.02 94.11 L 155.12 94.11 L 169.31 94.11 L 184.58 94.11 L 199.86 94.11 L 215.14 94.11 L 230.42 94.11 L 245.69 94.11 L 256.03 94.11 L 261.42 94.11 L 266.81 94.11 L 266.81 95.87 L 261.42 98.95 L 256.03 101.55 L 245.69 99.69 L 230.42 102.26 L 215.14 105.22 L 199.86 106.36 L 184.58 106.27 L 169.31 99.45 L 155.12 101.33 L 142.02 103.86 L 128.93 105.18 L 115.83 104.26 L 102.74 107.87 L 89.64 101.06 Z" fill="#d0d0d0" fill-opacity="0.5" stroke="none"/>
<path d="M 277.60 91.98 L 282.99 91.98 L 288.38 91.98 L 293.77 91.98 L 299.17 91.98 L 304.56 91.98 L 309.95 91.98 L 315.34 91.98 L 320.74 91.98 L 326.13 91.98 L 331.52 91.98 L 336.91 91.98 L 342.30 91.98 L 350.73 91.98 L 362.19 91.98 L 373.65 91.98 L 385.10 91.98 L 385.10 92.65 L 373.65 95.57 L 362.19 97.13 L 350.73 100.46 L 342.30 99.69 L 336.91 100.92 L 331.52 102.05 L 326.13 104.45 L 320.74 108.03 L 315.34 109.84 L 309.95 112.93 L 304.56 106.17 L 299.17 108.93 L 293.77 102.10 L 288.38 103.19 L 282.99 96.27 L 277.60 98.85 Z" fill="#d0d0d0" fill-opacity="0.5" stroke="none"/>
<path d="M 441.76 83.73 L 451.94 83.73 L 462.13 83.73 L 462.13 85.91 L 451.94 87.92 L 441.76 90.85 Z" fill="#d0d0d0" fill-opacity="0.5" stroke="none"/>
<path d="M 482.50 82.43 L 482.50 83.65 Z" fill="#d0d0d0" fill-opacity="0.5" stroke="none"/>
<path d="M 513.06 78.64 L 513.06 79.57 Z" fill="#d0d0d0" fill-opacity="0.5" stroke="none"/>
<path d="M 557.50 70.27 L 565.83 70.27 L 574.17 70.27 L 582.50 70.27 L 582.50 72.07 L 574.17 75.11 L 565.83 75.06 L 557.50 77.52 Z" fill="#d0d0d0" fill-opacity="0.5" stroke="none"/>
<path d="M 665.83 51.26 L 676.02 51.26 L 686.20 51.26 L 696.39 51.26 L 706.57 51.26 L 717.40 51.26 L 728.85 51.26 L 740.31 51.26 L 751.77 51.26 L 763.23 51.26 L 763.23 52.43 L 751.77 56.07 L 740.31 59.96 L 728.85 52.38 L 717.40 55.44 L 706.57 58.71 L 696.39 62.02 L 686.20 60.65 L 676.02 62.31 L 665.83 54.78 Z" fill="#d0d0d0" fill-opacity="0.5" stroke="none"/>
<path d="M 809.88 42.34 L 822.98 42.34 L 836.07 42.34 L 849.17 42.34 L 862.26 42.34 L 875.36 42.34 L 888.45 42.34 L 898.82 42.34 L 898.82 46.44 L 888.45 49.82 L 875.36 51.86 L 862.26 49.57 L 849.17 53.63 L 836.07 53.95 L 822.98 57.62 L 809.88 50.06 Z" fill="#d0d0d0" fill-opacity="0.5" stroke="none"/>
<path d="M 929.38 40.10 L 937.01 40.10 L 944.65 40.10 L 952.29 40.10 L 952.29 43.27 L 944.65 46.99 L 937.01 49.13 L 929.38 41.42 Z" fill="#d0d0d0" fill-opacity="0.5" stroke="none"/>
<path d="M 967.57 39.71 L 975.21 39.71 L 982.85 39.71 L 982.85 40.11 L 975.21 44.27 L 967.57 47.45 Z" fill="#d0d0d0" fill-opacity="0.5" stroke="none"/>
<path d="M 1135.62 25.00 L 1158.54 25.00 L 1158.54 28.86 L 1135.62 32.93 Z" fill="#d0d0d0" fill-opacity="0.5" stroke="none"/>
<polyline fill="none" stroke="#111" stroke-width="1.2" points="76.55,94.11 89.64,101.06 102.74,107.87 115.83,104.26 128.93,105.18 142.02,103.86 155.12,101.33 169.31,99.45 184.58,106.27 199.86,106.36 215.14,105.22 230.42,102.26 245.69,99.69 256.03,101.55 261.42,98.95 266.81,95.87 272.21,91.98 277.60,98.85 282.99,96.27 288.38,103.19 293.77,102.10 299.17,108.93 304.56,106.17 309.95,112.93 315.34,109.84 320.74,108.03 326.13,104.45 331.52,102.05 336.91,100.92 342.30,99.69 350.73,100.46 362.19,97.13 373.65,95.57 385.10,92.65 396.56,89.31 408.02,87.17 419.48,84.14 430.94,83.73 441.76,90.85 451.94,87.92 462.13,85.91 472.31,82.43 482.50,83.65 492.69,81.21 502.87,78.64 513.06,79.57 523.24,76.40 532.50,75.35 540.83,74.17 549.17,70.27 557.50,77.52 565.83,75.06 574.17,75.11 582.50,72.07 590.83,68.94 599.17,66.75 607.50,64.91 615.83,62.19 625.09,60.14 635.28,57.81 645.46,54.52 655.65,51.26 665.83,54.78 676.02,62.31 686.20,60.65 696.39,62.02 706.57,58.71 717.40,55.44 728.85,52.38 740.31,59.96 751.77,56.07 763.23,52.43 774.69,48.76 786.15,45.59 797.60,42.34 809.88,50.06 822.98,57.62 836.07,53.95 849.17,53.63 862.26,49.57 875.36,51.86 888.45,49.82 898.82,46.44 906.46,42.29 914.10,40.31 921.74,40.10 929.38,41.42 937.01,49.13 944.65,46.99 952.29,43.27 959.93,39.71 967.57,47.45 975.21,44.27 982.85,40.11 1009.58,35.92 1055.42,33.08 1089.79,28.84 1112.71,25.00 1135.62,32.93 1158.54,28.86"/>
<text x="620.0" y="588" text-anchor="middle" font-family="sans-serif" font-size="12" fill="#333">Monthly Balance Curve</text>
<text x="15" y="287.5" transform="rotate(-90 15,287.5)" text-anchor="middle" font-family="sans-serif" font-size="12" fill="#333">Capital</text>
</svg>