<svg xmlns="http://www.w3.org/2000/svg" width="1200" height="600" viewBox="0 0 1200 600">
<desc>Equity curve with drawdown fill; x-axis is months only (no exact timestamps)</desc>
<text x="600.0" y="18.0" text-anchor="middle" font-family="sans-serif" font-size="14">Portfolio 2025 (UTC)</text>
<rect x="70" y="25" width="1100" height="525" fill="white" stroke="#ccc" />
<line x1="70" y1="550.00" x2="1170" y2="550.00" stroke="#eee"/>
<text x="62" y="554.0" text-anchor="end" font-family="sans-serif" font-size="11" fill="#555">0.00</text>
<line x1="70" y1="445.00" x2="1170" y2="445.00" stroke="#eee"/>
<text x="62" y="449.0" text-anchor="end" font-family="sans-serif" font-size="11" fill="#555">200865</text>
<line x1="70" y1="340.00" x2="1170" y2="340.00" stroke="#eee"/>
<text x="62" y="344.0" text-anchor="end" font-family="sans-serif" font-size="11" fill="#555">401730</text>
<line x1="70" y1="235.00" x2="1170" y2="235.00" stroke="#eee"/>
<text x="62" y="239.0" text-anchor="end" font-family="sans-serif" font-size="11" fill="#555">602595</text>
<line x1="70" y1="130.00" x2="1170" y2="130.00" stroke="#eee"/>
<text x="62" y="134.0" text-anchor="end" font-family="sans-serif" font-size="11" fill="#555">803459</text>
<line x1="70" y1="25.00" x2="1170" y2="25.00" stroke="#eee"/>
<text x="62" y="29.0" text-anchor="end" font-family="sans-serif" font-size="11" fill="#555">1004324</text>
<line x1="207.50" y1="25" x2="207.50" y2="550" stroke="#f2f2f2"/>
<line x1="345.00" y1="25" x2="345.00" y2="550" stroke="#f2f2f2"/>
<line x1="482.50" y1="25" x2="482.50" y2="550" stroke="#f2f2f2"/>
<line x1="620.00" y1="25" x2="620.00" y2="550" stroke="#f2f2f2"/>
<line x1="757.50" y1="25" x2="757.50" y2="550" stroke="#f2f2f2"/>
<line x1="895.00" y1="25" x2="895.00" y2="550" stroke="#f2f2f2"/>
<line x1="1032.50" y1="25" x2="1032.50" y2="550" stroke="#f2f2f2"/>
<text x="138.75" y="566.00" text-anchor="middle" font-family="sans-serif" font-size="11" fill="#444">Jan</text>
<text x="276.25" y="566.00" text-anchor="middle" font-family="sans-serif" font-size="11" fill="#444">Feb</text>
<text x="413.75" y="566.00" text-anchor="middle" font-family="sans-serif" font-size="11" fill="#444">Mar</text>
<text x="551.25" y="566.00" text-anchor="middle" font-family="sans-serif" font-size="11" fill="#444">Apr</text>
<text x="688.75" y="566.00" text-anchor="middle" font-family="sans-serif" font-size="11" fill="#444">May</text>
<text x="826.25" y="566.00" text-anchor="middle" font-family="sans-serif" font-size="11" fill="#444">Jun</text>
<text x="963.75" y="566.00" text-anchor="middle" font-family="sans-serif" font-size="11" fill="#444">Jul</text>
<text x="1101.25" y="566.00" text-anchor="middle" font-family="sans-serif" font-size="11" fill="#444">Aug</text>
<line x1="70" y1="550" x2="1170" y2="550" stroke="#888"/>
<line x1="70" y1="25" x2="70" y2="550" stroke="#888"/>
<line x1="75.73" y1="550.00" x2="75.73" y2="556.00" stroke="#888"/>
<line x1="1135.62"   y1="550.00" x2="1135.62"   y2="556.00" stroke="#888"/>
<text x="75.73" y="582.00" text-anchor="start" font-family="sans-serif" font-size="11" fill="#333">Initial Balance: 923511</text>
<text x="1135.62"   y="582.00" text-anchor="end"   font-family="sans-serif" font-size="11" fill="#333">Ending Balance: 978245</text>
<path d="M 98.65 64.78 L 110.10 64.78 L 121.56 64.78 L 133.02 64.78 L 133.02 67.48 L 121.56 69.24 L 110.10 72.43 L 98.65 72.15 Z" fill="#d0d0d0" fill-opacity="0.5" stroke="none"/>
<path d="M 356.46 35.59 L 379.38 35.59 L 402.29 35.59 L 402.29 36.24 L 379.38 39.61 L 356.46 43.38 Z" fill="#d0d0d0" fill-opacity="0.5" stroke="none"/>
<path d="M 485.94 27.97 L 492.81 27.97 L 499.69 27.97 L 506.56 27.97 L 513.44 27.97 L 520.31 27.97 L 527.19 27.97 L 534.06 27.97 L 540.94 27.97 L 547.81 27.97 L 547.81 31.86 L 540.94 34.75 L 534.06 35.12 L 527.19 37.61 L 520.31 38.95 L 513.44 36.15 L 506.56 28.40 L 499.69 32.98 L 492.81 33.24 L 485.94 35.88 Z" fill="#d0d0d0" fill-opacity="0.5" stroke="none"/>
<path d="M 568.44 25.00 L 575.31 25.00 L 582.19 25.00 L 589.06 25.00 L 595.94 25.00 L 602.81 25.00 L 609.69 25.00 L 616.56 25.00 L 633.75 25.00 L 661.25 25.00 L 688.75 25.00 L 716.25 25.00 L 743.75 25.00 L 780.42 25.00 L 826.25 25.00 L 872.08 25.00 L 908.75 25.00 L 936.25 25.00 L 963.75 25.00 L 991.25 25.00 L 1018.75 25.00 L 1066.88 25.00 L 1135.62 25.00 L 1135.62 38.63 L 1066.88 41.93 L 1018.75 45.45 L 991.25 37.69 L 963.75 41.09 L 936.25 44.59 L 908.75 36.93 L 872.08 41.35 L 826.25 45.22 L 780.42 48.56 L 743.75 52.34 L 716.25 44.68 L 688.75 48.36 L 661.25 40.64 L 633.75 44.58 L 616.56 36.81 L 609.69 37.95 L 602.81 30.08 L 595.94 32.19 L 589.06 36.14 L 582.19 36.10 L 575.31 28.35 L 568.44 32.94 Z" fill="#d0d0d0" fill-opacity="0.5" stroke="none"/>
<polyline fill="none" stroke="#111" stroke-width="1.2" points="75.73,67.24 87.19,64.78 98.65,72.15 110.10,72.43 121.56,69.24 133.02,67.48 144.48,63.47 155.94,60.02 167.40,55.96 178.85,51.86 190.31,50.33 201.77,46.61 230.42,43.55 276.25,39.79 322.08,35.59 356.46,43.38 379.38,39.61 402.29,36.24 425.21,33.17 448.12,30.93 471.04,27.97 485.94,35.88 492.81,33.24 499.69,32.98 506.56,28.40 513.44,36.15 520.31,38.95 527.19,37.61 534.06,35.12 540.94,34.75 547.81,31.86 554.69,27.31 561.56,25.00 568.44,32.94 575.31,28.35 582.19,36.10 589.06,36.14 595.94,32.19 602.81,30.08 609.69,37.95 616.56,36.81 633.75,44.58 661.25,40.64 688.75,48.36 716.25,44.68 743.75,52.34 780.42,48.56 826.25,45.22 872.08,41.35 908.75,36.93 936.25,44.59 963.75,41.09 991.25,37.69 1018.75,45.45 1066.88,41.93 1135.62,38.63"/>
<text x="620.0" y="588" text-anchor="middle" font-family="sans-serif" font-size="12" fill="#333">Monthly Balance Curve</text>
<text x="15" y="287.5" transform="rotate(-90 15,287.5)" text-anchor="middle" font-family="sans-serif" font-size="12" fill="#333">Capital</text>
</svg>