<svg xmlns="http://www.w3.org/2000/svg" width="1200" height="600" viewBox="0 0 1200 600">
<desc>Equity curve with drawdown fill; x-axis is months only (no exact timestamps)</desc>
<text x="600.0" y="18.0" text-anchor="middle" font-family="sans-serif" font-size="14">Balance Curve 2015 (UTC)</text>
<rect x="70" y="25" width="1100" height="525" fill="white" stroke="#ccc" />
<line x1="70" y1="550.00" x2="1170" y2="550.00" stroke="#eee"/>
<text x="62" y="554.0" text-anchor="end" font-family="sans-serif" font-size="11" fill="#555">0.00</text>
<line x1="70" y1="445.00" x2="1170" y2="445.00" stroke="#eee"/>
<text x="62" y="449.0" text-anchor="end" font-family="sans-serif" font-size="11" fill="#555">1885975</text>
<line x1="70" y1="340.00" x2="1170" y2="340.00" stroke="#eee"/>
<text x="62" y="344.0" text-anchor="end" font-family="sans-serif" font-size="11" fill="#555">3771950</text>
<line x1="70" y1="235.00" x2="1170" y2="235.00" stroke="#eee"/>
<text x="62" y="239.0" text-anchor="end" font-family="sans-serif" font-size="11" fill="#555">5657926</text>
<line x1="70" y1="130.00" x2="1170" y2="130.00" stroke="#eee"/>
<text x="62" y="134.0" text-anchor="end" font-family="sans-serif" font-size="11" fill="#555">7543901</text>
<line x1="70" y1="25.00" x2="1170" y2="25.00" stroke="#eee"/>
<text x="62" y="29.0" text-anchor="end" font-family="sans-serif" font-size="11" fill="#555">9429876</text>
<line x1="161.67" y1="25" x2="161.67" y2="550" stroke="#f2f2f2"/>
<line x1="253.33" y1="25" x2="253.33" y2="550" stroke="#f2f2f2"/>
<line x1="345.00" y1="25" x2="345.00" y2="550" stroke="#f2f2f2"/>
<line x1="436.67" y1="25" x2="436.67" y2="550" stroke="#f2f2f2"/>
<line x1="528.33" y1="25" x2="528.33" y2="550" stroke="#f2f2f2"/>
<line x1="620.00" y1="25" x2="620.00" y2="550" stroke="#f2f2f2"/>
<line x1="711.67" y1="25" x2="711.67" y2="550" stroke="#f2f2f2"/>
<line x1="803.33" y1="25" x2="803.33" y2="550" stroke="#f2f2f2"/>
<line x1="895.00" y1="25" x2="895.00" y2="550" stroke="#f2f2f2"/>
<line x1="986.67" y1="25" x2="986.67" y2="550" stroke="#f2f2f2"/>
<line x1="1078.33" y1="25" x2="1078.33" y2="550" stroke="#f2f2f2"/>
<text x="115.83" y="566.00" text-anchor="middle" font-family="sans-serif" font-size="11" fill="#444">Jan</text>
<text x="207.50" y="566.00" text-anchor="middle" font-family="sans-serif" font-size="11" fill="#444">Feb</text>
<text x="299.17" y="566.00" text-anchor="middle" font-family="sans-serif" font-size="11" fill="#444">Mar</text>
<text x="390.83" y="566.00" text-anchor="middle" font-family="sans-serif" font-size="11" fill="#444">Apr</text>
<text x="482.50" y="566.00" text-anchor="middle" font-family="sans-serif" font-size="11" fill="#444">May</text>
<text x="574.17" y="566.00" text-anchor="middle" font-family="sans-serif" font-size="11" fill="#444">Jun</text>
<text x="665.83" y="566.00" text-anchor="middle" font-family="sans-serif" font-size="11" fill="#444">Jul</text>
<text x="757.50" y="566.00" text-anchor="middle" font-family="sans-serif" font-size="11" fill="#444">Aug</text>
<text x="849.17" y="566.00" text-anchor="middle" font-family="sans-serif" font-size="11" fill="#444">Sep</text>
<text x="940.83" y="566.00" text-anchor="middle" font-family="sans-serif" font-size="11" fill="#444">Oct</text>
<text x="1032.50" y="566.00" text-anchor="middle" font-family="sans-serif" font-size="11" fill="#444">Nov</text>
<text x="1124.17" y="566.00" text-anchor="middle" font-family="sans-serif" font-size="11" fill="#444">Dec</text>
<line x1="70" y1="550" x2="1170" y2="550" stroke="#888"/>
<line x1="70" y1="25" x2="70" y2="550" stroke="#888"/>
<line x1="77.64" y1="550.00" x2="77.64" y2="556.00" stroke="#888"/>
<line x1="1158.54"   y1="550.00" x2="1158.54"   y2="556.00" stroke="#888"/>
<text x="77.64" y="582.00" text-anchor="start" font-family="sans-serif" font-size="11" fill="#333">Initial Balance: 8910994</text>
<text x="1158.54"   y="582.00" text-anchor="end"   font-family="sans-serif" font-size="11" fill="#333">Ending Balance: 9410224</text>
<path d="M 165.83 49.89 L 174.17 49.89 L 182.50 49.89 L 182.50 50.56 L 174.17 51.19 L 165.83 51.53 Z" fill="#d0d0d0" fill-opacity="0.5" stroke="none"/>
<path d="M 255.33 46.30 L 259.31 46.30 L 263.30 46.30 L 267.28 46.30 L 271.27 46.30 L 271.27 46.50 L 267.28 47.58 L 263.30 48.22 L 259.31 46.69 L 255.33 46.83 Z" fill="#d0d0d0" fill-opacity="0.5" stroke="none"/>
<path d="M 279.24 46.14 L 283.22 46.14 L 287.21 46.14 L 287.21 46.79 L 283.22 46.78 L 279.24 47.72 Z" fill="#d0d0d0" fill-opacity="0.5" stroke="none"/>
<path d="M 311.12 43.50 L 315.11 43.50 L 319.09 43.50 L 319.09 43.71 L 315.11 44.46 L 311.12 45.07 Z" fill="#d0d0d0" fill-opacity="0.5" stroke="none"/>
<path d="M 361.89 38.22 L 366.71 38.22 L 371.54 38.22 L 371.54 38.25 L 366.71 38.67 L 361.89 39.76 Z" fill="#d0d0d0" fill-opacity="0.5" stroke="none"/>
<path d="M 381.18 37.60 L 386.01 37.60 L 390.83 37.60 L 395.66 37.60 L 400.48 37.60 L 405.31 37.60 L 410.13 37.60 L 414.96 37.60 L 419.78 37.60 L 424.61 37.60 L 429.43 37.60 L 434.25 37.60 L 439.72 37.60 L 445.83 37.60 L 451.94 37.60 L 458.06 37.60 L 464.17 37.60 L 470.28 37.60 L 476.39 37.60 L 482.50 37.60 L 482.50 37.70 L 476.39 38.19 L 470.28 38.88 L 464.17 39.57 L 458.06 40.61 L 451.94 38.96 L 445.83 39.28 L 439.72 39.97 L 434.25 40.20 L 429.43 40.81 L 424.61 39.21 L 419.78 40.45 L 414.96 40.68 L 410.13 39.11 L 405.31 39.43 L 400.48 39.87 L 395.66 39.67 L 390.83 40.26 L 386.01 38.70 L 381.18 39.16 Z" fill="#d0d0d0" fill-opacity="0.5" stroke="none"/>
<path d="M 494.72 37.27 L 500.83 37.27 L 506.94 37.27 L 513.06 37.27 L 519.17 37.27 L 525.28 37.27 L 530.62 37.27 L 535.21 37.27 L 539.79 37.27 L 544.38 37.27 L 548.96 37.27 L 553.54 37.27 L 558.12 37.27 L 562.71 37.27 L 562.71 37.34 L 558.12 38.04 L 553.54 37.97 L 548.96 38.65 L 544.38 39.29 L 539.79 39.98 L 535.21 38.34 L 530.62 38.86 L 525.28 39.53 L 519.17 39.99 L 513.06 40.59 L 506.94 40.26 L 500.83 40.51 L 494.72 38.89 Z" fill="#d0d0d0" fill-opacity="0.5" stroke="none"/>
<path d="M 594.79 33.84 L 599.38 33.84 L 603.96 33.84 L 608.54 33.84 L 613.12 33.84 L 617.71 33.84 L 625.09 33.84 L 635.28 33.84 L 645.46 33.84 L 645.46 34.12 L 635.28 34.44 L 625.09 35.12 L 617.71 35.75 L 613.12 37.01 L 608.54 35.41 L 603.96 36.65 L 599.38 37.11 L 594.79 35.48 Z" fill="#d0d0d0" fill-opacity="0.5" stroke="none"/>
<path d="M 665.83 33.52 L 665.83 33.77 Z" fill="#d0d0d0" fill-opacity="0.5" stroke="none"/>
<path d="M 696.39 31.92 L 706.57 31.92 L 714.08 31.92 L 718.90 31.92 L 723.73 31.92 L 728.55 31.92 L 733.38 31.92 L 738.20 31.92 L 743.03 31.92 L 747.85 31.92 L 752.68 31.92 L 757.50 31.92 L 757.50 32.53 L 752.68 33.70 L 747.85 34.35 L 743.03 34.45 L 738.20 34.57 L 733.38 32.93 L 728.55 32.66 L 723.73 33.33 L 718.90 34.56 L 714.08 32.97 L 706.57 33.63 L 696.39 33.51 Z" fill="#d0d0d0" fill-opacity="0.5" stroke="none"/>
<path d="M 771.97 29.58 L 776.80 29.58 L 781.62 29.58 L 786.45 29.58 L 791.27 29.58 L 791.27 29.81 L 786.45 29.86 L 781.62 31.16 L 776.80 30.19 L 771.97 31.25 Z" fill="#d0d0d0" fill-opacity="0.5" stroke="none"/>
<path d="M 860.62 27.49 L 883.54 27.49 L 901.55 27.49 L 914.64 27.49 L 927.74 27.49 L 940.83 27.49 L 940.83 27.80 L 927.74 28.50 L 914.64 28.18 L 901.55 28.30 L 883.54 28.30 L 860.62 27.95 Z" fill="#d0d0d0" fill-opacity="0.5" stroke="none"/>
<path d="M 967.02 26.64 L 980.12 26.64 L 1009.58 26.64 L 1009.58 26.66 L 980.12 27.31 L 967.02 27.99 Z" fill="#d0d0d0" fill-opacity="0.5" stroke="none"/>
<path d="M 1112.71 25.00 L 1135.62 25.00 L 1158.54 25.00 L 1158.54 26.09 L 1135.62 26.23 L 1112.71 26.59 Z" fill="#d0d0d0" fill-opacity="0.5" stroke="none"/>
<polyline fill="none" stroke="#111" stroke-width="1.2" points="77.64,53.89 92.92,53.16 108.19,53.08 123.47,51.13 138.75,50.52 154.03,49.89 165.83,51.53 174.17,51.19 182.50,50.56 190.83,49.64 199.17,49.39 207.50,49.26 215.83,48.60 224.17,48.28 232.50,47.76 240.83,47.58 249.17,46.30 255.33,46.83 259.31,46.69 263.30,48.22 267.28,47.58 271.27,46.50 275.25,46.14 279.24,47.72 283.22,46.78 287.21,46.79 291.20,46.14 295.18,45.54 299.17,45.06 303.15,44.58 307.14,43.50 311.12,45.07 315.11,44.46 319.09,43.71 323.08,43.04 327.07,42.37 331.05,41.77 335.04,41.41 339.02,40.75 343.01,39.62 347.41,39.12 352.24,38.52 357.06,38.22 361.89,39.76 366.71,38.67 371.54,38.25 376.36,37.60 381.18,39.16 386.01,38.70 390.83,40.26 395.66,39.67 400.48,39.87 405.31,39.43 410.13,39.11 414.96,40.68 419.78,40.45 424.61,39.21 429.43,40.81 434.25,40.20 439.72,39.97 445.83,39.28 451.94,38.96 458.06,40.61 464.17,39.57 470.28,38.88 476.39,38.19 482.50,37.70 488.61,37.27 494.72,38.89 500.83,40.51 506.94,40.26 513.06,40.59 519.17,39.99 525.28,39.53 530.62,38.86 535.21,38.34 539.79,39.98 544.38,39.29 548.96,38.65 553.54,37.97 558.12,38.04 562.71,37.34 567.29,36.89 571.88,36.36 576.46,35.67 581.04,34.98 585.62,34.55 590.21,33.84 594.79,35.48 599.38,37.11 603.96,36.65 608.54,35.41 613.12,37.01 617.71,35.75 625.09,35.12 635.28,34.44 645.46,34.12 655.65,33.52 665.83,33.77 676.02,33.15 686.20,31.92 696.39,33.51 706.57,33.63 714.08,32.97 718.90,34.56 723.73,33.33 728.55,32.66 733.38,32.93 738.20,34.57 743.03,34.45 747.85,34.35 752.68,33.70 757.50,32.53 762.32,29.81 767.15,29.58 771.97,31.25 776.80,30.19 781.62,31.16 786.45,29.86 791.27,29.81 796.10,29.11 800.92,28.25 814.79,28.18 837.71,27.49 860.62,27.95 883.54,28.30 901.55,28.30 914.64,28.18 927.74,28.50 940.83,27.80 953.93,26.64 967.02,27.99 980.12,27.31 1009.58,26.66 1055.42,26.53 1089.79,25.00 1112.71,26.59 1135.62,26.23 1158.54,26.09"/>
<text x="15" y="287.5" transform="rotate(-90 15,287.5)" text-anchor="middle" font-family="sans-serif" font-size="12" fill="#333">USD</text>
</svg>