<svg xmlns="http://www.w3.org/2000/svg" width="1200" height="600" viewBox="0 0 1200 600">
<desc>Equity curve with drawdown fill; x-axis is months only (no exact timestamps)</desc>
<text x="600.0" y="18.0" text-anchor="middle" font-family="sans-serif" font-size="14">Portfolio 2008 (UTC)</text>
<rect x="70" y="25" width="1100" height="525" fill="white" stroke="#ccc" />
<line x1="70" y1="550.00" x2="1170" y2="550.00" stroke="#eee"/>
<text x="62" y="554.0" text-anchor="end" font-family="sans-serif" font-size="11" fill="#555">0.00</text>
<line x1="70" y1="445.00" x2="1170" y2="445.00" stroke="#eee"/>
<text x="62" y="449.0" text-anchor="end" font-family="sans-serif" font-size="11" fill="#555">23718</text>
<line x1="70" y1="340.00" x2="1170" y2="340.00" stroke="#eee"/>
<text x="62" y="344.0" text-anchor="end" font-family="sans-serif" font-size="11" fill="#555">47435</text>
<line x1="70" y1="235.00" x2="1170" y2="235.00" stroke="#eee"/>
<text x="62" y="239.0" text-anchor="end" font-family="sans-serif" font-size="11" fill="#555">71153</text>
<line x1="70" y1="130.00" x2="1170" y2="130.00" stroke="#eee"/>
<text x="62" y="134.0" text-anchor="end" font-family="sans-serif" font-size="11" fill="#555">94871</text>
<line x1="70" y1="25.00" x2="1170" y2="25.00" stroke="#eee"/>
<text x="62" y="29.0" text-anchor="end" font-family="sans-serif" font-size="11" fill="#555">118588</text>
<line x1="161.67" y1="25" x2="161.67" y2="550" stroke="#f2f2f2"/>
<line x1="253.33" y1="25" x2="253.33" y2="550" stroke="#f2f2f2"/>
<line x1="345.00" y1="25" x2="345.00" y2="550" stroke="#f2f2f2"/>
<line x1="436.67" y1="25" x2="436.67" y2="550" stroke="#f2f2f2"/>
<line x1="528.33" y1="25" x2="528.33" y2="550" stroke="#f2f2f2"/>
<line x1="620.00" y1="25" x2="620.00" y2="550" stroke="#f2f2f2"/>
<line x1="711.67" y1="25" x2="711.67" y2="550" stroke="#f2f2f2"/>
<line x1="803.33" y1="25" x2="803.33" y2="550" stroke="#f2f2f2"/>
<line x1="895.00" y1="25" x2="895.00" y2="550" stroke="#f2f2f2"/>
<line x1="986.67" y1="25" x2="986.67" y2="550" stroke="#f2f2f2"/>
<line x1="1078.33" y1="25" x2="1078.33" y2="550" stroke="#f2f2f2"/>
<text x="115.83" y="566.00" text-anchor="middle" font-family="sans-serif" font-size="11" fill="#444">Jan</text>
<text x="207.50" y="566.00" text-anchor="middle" font-family="sans-serif" font-size="11" fill="#444">Feb</text>
<text x="299.17" y="566.00" text-anchor="middle" font-family="sans-serif" font-size="11" fill="#444">Mar</text>
<text x="390.83" y="566.00" text-anchor="middle" font-family="sans-serif" font-size="11" fill="#444">Apr</text>
<text x="482.50" y="566.00" text-anchor="middle" font-family="sans-serif" font-size="11" fill="#444">May</text>
<text x="574.17" y="566.00" text-anchor="middle" font-family="sans-serif" font-size="11" fill="#444">Jun</text>
<text x="665.83" y="566.00" text-anchor="middle" font-family="sans-serif" font-size="11" fill="#444">Jul</text>
<text x="757.50" y="566.00" text-anchor="middle" font-family="sans-serif" font-size="11" fill="#444">Aug</text>
<text x="849.17" y="566.00" text-anchor="middle" font-family="sans-serif" font-size="11" fill="#444">Sep</text>
<text x="940.83" y="566.00" text-anchor="middle" font-family="sans-serif" font-size="11" fill="#444">Oct</text>
<text x="1032.50" y="566.00" text-anchor="middle" font-family="sans-serif" font-size="11" fill="#444">Nov</text>
<text x="1124.17" y="566.00" text-anchor="middle" font-family="sans-serif" font-size="11" fill="#444">Dec</text>
<line x1="70" y1="550" x2="1170" y2="550" stroke="#888"/>
<line x1="70" y1="25" x2="70" y2="550" stroke="#888"/>
<line x1="74.58" y1="550.00" x2="74.58" y2="556.00" stroke="#888"/>
<line x1="1169.08"   y1="550.00" x2="1169.08"   y2="556.00" stroke="#888"/>
<text x="74.58" y="582.00" text-anchor="start" font-family="sans-serif" font-size="11" fill="#333">Initial Balance: 100000</text>
<text x="1169.08"   y="582.00" text-anchor="end"   font-family="sans-serif" font-size="11" fill="#333">Ending Balance: 117964</text>
<path d="M 157.08 92.63 L 184.58 92.63 L 230.42 92.63 L 230.42 94.02 L 184.58 95.74 L 157.08 97.20 Z" fill="#d0d0d0" fill-opacity="0.5" stroke="none"/>
<path d="M 272.43 90.62 L 280.07 90.62 L 287.71 90.62 L 287.71 91.27 L 280.07 93.29 L 272.43 95.26 Z" fill="#d0d0d0" fill-opacity="0.5" stroke="none"/>
<path d="M 310.62 88.18 L 318.26 88.18 L 325.90 88.18 L 333.54 88.18 L 341.18 88.18 L 348.82 88.18 L 356.46 88.18 L 364.10 88.18 L 371.74 88.18 L 379.38 88.18 L 387.01 88.18 L 394.65 88.18 L 402.29 88.18 L 409.93 88.18 L 417.57 88.18 L 425.21 88.18 L 432.85 88.18 L 459.58 88.18 L 505.42 88.18 L 535.97 88.18 L 551.25 88.18 L 566.53 88.18 L 581.81 88.18 L 597.08 88.18 L 612.36 88.18 L 629.17 88.18 L 647.50 88.18 L 665.83 88.18 L 684.17 88.18 L 702.50 88.18 L 718.21 88.18 L 718.21 88.75 L 702.50 91.34 L 684.17 91.05 L 665.83 91.28 L 647.50 93.63 L 629.17 95.67 L 612.36 98.24 L 597.08 93.63 L 581.81 95.16 L 566.53 95.73 L 551.25 97.77 L 535.97 100.33 L 505.42 102.46 L 459.58 104.50 L 432.85 106.50 L 425.21 108.42 L 417.57 103.91 L 409.93 104.36 L 402.29 105.50 L 394.65 100.96 L 387.01 96.38 L 379.38 98.71 L 371.74 99.77 L 364.10 98.82 L 356.46 96.97 L 348.82 99.34 L 341.18 94.74 L 333.54 94.89 L 325.90 96.09 L 318.26 91.45 L 310.62 92.83 Z" fill="#d0d0d0" fill-opacity="0.5" stroke="none"/>
<path d="M 816.29 66.15 L 818.28 66.15 L 820.27 66.15 L 822.26 66.15 L 824.26 66.15 L 826.25 66.15 L 828.24 66.15 L 830.24 66.15 L 832.23 66.15 L 834.22 66.15 L 836.21 66.15 L 838.21 66.15 L 840.20 66.15 L 842.19 66.15 L 844.18 66.15 L 846.18 66.15 L 848.17 66.15 L 850.16 66.15 L 852.16 66.15 L 854.15 66.15 L 856.14 66.15 L 858.13 66.15 L 860.13 66.15 L 862.12 66.15 L 864.11 66.15 L 866.11 66.15 L 868.10 66.15 L 870.09 66.15 L 872.08 66.15 L 874.08 66.15 L 876.07 66.15 L 878.06 66.15 L 880.05 66.15 L 882.05 66.15 L 884.04 66.15 L 886.03 66.15 L 888.03 66.15 L 890.02 66.15 L 892.01 66.15 L 894.00 66.15 L 895.54 66.15 L 896.62 66.15 L 897.70 66.15 L 898.77 66.15 L 899.85 66.15 L 900.93 66.15 L 902.01 66.15 L 903.09 66.15 L 904.17 66.15 L 905.25 66.15 L 906.32 66.15 L 907.40 66.15 L 908.48 66.15 L 909.56 66.15 L 910.64 66.15 L 911.72 66.15 L 912.79 66.15 L 913.87 66.15 L 914.95 66.15 L 916.03 66.15 L 917.11 66.15 L 918.19 66.15 L 919.26 66.15 L 920.34 66.15 L 921.42 66.15 L 922.50 66.15 L 923.58 66.15 L 924.66 66.15 L 925.74 66.15 L 926.81 66.15 L 927.89 66.15 L 928.97 66.15 L 930.05 66.15 L 931.13 66.15 L 932.21 66.15 L 933.28 66.15 L 934.36 66.15 L 935.44 66.15 L 936.52 66.15 L 937.60 66.15 L 938.68 66.15 L 939.75 66.15 L 940.83 66.15 L 941.91 66.15 L 942.99 66.15 L 944.07 66.15 L 945.15 66.15 L 946.23 66.15 L 947.30 66.15 L 948.38 66.15 L 949.46 66.15 L 950.54 66.15 L 951.62 66.15 L 952.70 66.15 L 953.77 66.15 L 954.85 66.15 L 955.93 66.15 L 957.01 66.15 L 958.09 66.15 L 959.17 66.15 L 960.25 66.15 L 961.32 66.15 L 962.40 66.15 L 963.48 66.15 L 964.56 66.15 L 965.64 66.15 L 966.72 66.15 L 967.79 66.15 L 968.87 66.15 L 969.95 66.15 L 971.03 66.15 L 972.11 66.15 L 973.19 66.15 L 974.26 66.15 L 975.34 66.15 L 976.42 66.15 L 977.50 66.15 L 978.58 66.15 L 979.66 66.15 L 980.74 66.15 L 981.81 66.15 L 982.89 66.15 L 983.97 66.15 L 985.05 66.15 L 986.13 66.15 L 987.76 66.15 L 989.94 66.15 L 992.12 66.15 L 994.31 66.15 L 996.49 66.15 L 998.67 66.15 L 1000.85 66.15 L 1003.04 66.15 L 1005.22 66.15 L 1007.40 66.15 L 1009.58 66.15 L 1011.77 66.15 L 1013.95 66.15 L 1016.13 66.15 L 1018.31 66.15 L 1020.50 66.15 L 1022.68 66.15 L 1024.86 66.15 L 1027.04 66.15 L 1029.23 66.15 L 1031.41 66.15 L 1033.59 66.15 L 1035.77 66.15 L 1037.96 66.15 L 1040.14 66.15 L 1042.32 66.15 L 1044.50 66.15 L 1046.69 66.15 L 1048.87 66.15 L 1051.05 66.15 L 1053.23 66.15 L 1055.42 66.15 L 1057.60 66.15 L 1059.78 66.15 L 1061.96 66.15 L 1064.15 66.15 L 1064.15 67.28 L 1061.96 69.41 L 1059.78 71.27 L 1057.60 73.55 L 1055.42 68.70 L 1053.23 71.17 L 1051.05 73.61 L 1048.87 75.55 L 1046.69 77.96 L 1044.50 80.57 L 1042.32 82.83 L 1040.14 78.05 L 1037.96 79.97 L 1035.77 81.90 L 1033.59 84.03 L 1031.41 85.51 L 1029.23 86.96 L 1027.04 88.28 L 1024.86 90.64 L 1022.68 93.18 L 1020.50 95.31 L 1018.31 96.41 L 1016.13 98.93 L 1013.95 101.50 L 1011.77 101.76 L 1009.58 97.15 L 1007.40 99.68 L 1005.22 101.84 L 1003.04 97.24 L 1000.85 92.59 L 998.67 92.14 L 996.49 93.79 L 994.31 96.08 L 992.12 98.07 L 989.94 98.34 L 987.76 93.71 L 986.13 93.73 L 985.05 96.16 L 983.97 91.52 L 982.89 86.83 L 981.81 89.30 L 980.74 89.06 L 979.66 84.33 L 978.58 85.61 L 977.50 87.39 L 976.42 87.90 L 975.34 90.05 L 974.26 85.39 L 973.19 80.66 L 972.11 75.86 L 971.03 77.46 L 969.95 79.72 L 968.87 82.16 L 967.79 81.89 L 966.72 77.10 L 965.64 77.54 L 964.56 80.00 L 963.48 75.22 L 962.40 77.85 L 961.32 80.04 L 960.25 82.64 L 959.17 85.06 L 958.09 86.87 L 957.01 82.12 L 955.93 84.72 L 954.85 87.19 L 953.77 82.45 L 952.70 84.40 L 951.62 86.99 L 950.54 88.81 L 949.46 89.34 L 948.38 84.62 L 947.30 86.78 L 946.23 87.50 L 945.15 90.07 L 944.07 92.63 L 942.99 94.80 L 941.91 90.19 L 940.83 92.61 L 939.75 94.91 L 938.68 90.30 L 937.60 85.62 L 936.52 88.19 L 935.44 83.46 L 934.36 85.78 L 933.28 85.91 L 932.21 88.23 L 931.13 90.25 L 930.05 92.16 L 928.97 93.30 L 927.89 88.63 L 926.81 89.87 L 925.74 91.96 L 924.66 91.54 L 923.58 94.09 L 922.50 96.63 L 921.42 92.02 L 920.34 87.33 L 919.26 88.81 L 918.19 84.09 L 917.11 79.36 L 916.03 74.55 L 914.95 76.26 L 913.87 78.88 L 912.79 79.69 L 911.72 78.70 L 910.64 81.05 L 909.56 83.44 L 908.48 85.81 L 907.40 87.77 L 906.32 89.95 L 905.25 91.92 L 904.17 87.23 L 903.09 89.81 L 902.01 92.39 L 900.93 94.93 L 899.85 97.32 L 898.77 99.84 L 897.70 95.25 L 896.62 90.60 L 895.54 90.73 L 894.00 93.30 L 892.01 94.99 L 890.02 90.35 L 888.03 85.72 L 886.03 88.46 L 884.04 91.05 L 882.05 86.36 L 880.05 81.63 L 878.06 83.63 L 876.07 85.40 L 874.08 86.21 L 872.08 86.69 L 870.09 88.76 L 868.10 89.93 L 866.11 85.23 L 864.11 87.40 L 862.12 89.63 L 860.13 84.93 L 858.13 87.03 L 856.14 82.34 L 854.15 84.46 L 852.16 79.74 L 850.16 74.94 L 848.17 76.76 L 846.18 71.94 L 844.18 67.07 L 842.19 69.12 L 840.20 70.29 L 838.21 72.50 L 836.21 73.65 L 834.22 68.80 L 832.23 71.48 L 830.24 72.02 L 828.24 67.15 L 826.25 69.36 L 824.26 71.25 L 822.26 66.38 L 820.27 66.53 L 818.28 68.99 L 816.29 71.03 Z" fill="#d0d0d0" fill-opacity="0.5" stroke="none"/>
<path d="M 1077.24 57.88 L 1079.25 57.88 L 1081.08 57.88 L 1081.08 58.26 L 1079.25 60.97 L 1077.24 62.84 Z" fill="#d0d0d0" fill-opacity="0.5" stroke="none"/>
<path d="M 1086.58 55.41 L 1088.42 55.41 L 1090.25 55.41 L 1092.08 55.41 L 1093.92 55.41 L 1095.75 55.41 L 1097.58 55.41 L 1099.42 55.41 L 1101.25 55.41 L 1101.25 55.89 L 1099.42 58.08 L 1097.58 60.59 L 1095.75 60.05 L 1093.92 62.53 L 1092.08 64.08 L 1090.25 65.40 L 1088.42 60.45 L 1086.58 60.38 Z" fill="#d0d0d0" fill-opacity="0.5" stroke="none"/>
<path d="M 1114.08 46.10 L 1115.92 46.10 L 1117.75 46.10 L 1119.58 46.10 L 1121.42 46.10 L 1123.25 46.10 L 1125.08 46.10 L 1126.92 46.10 L 1128.75 46.10 L 1130.58 46.10 L 1132.42 46.10 L 1134.25 46.10 L 1136.08 46.10 L 1136.08 46.94 L 1134.25 49.38 L 1132.42 51.59 L 1130.58 54.37 L 1128.75 56.48 L 1126.92 51.46 L 1125.08 53.72 L 1123.25 55.21 L 1121.42 56.41 L 1119.58 58.56 L 1117.75 61.19 L 1115.92 56.21 L 1114.08 51.18 Z" fill="#d0d0d0" fill-opacity="0.5" stroke="none"/>
<path d="M 1139.75 45.19 L 1141.58 45.19 L 1141.58 47.86 L 1139.75 50.28 Z" fill="#d0d0d0" fill-opacity="0.5" stroke="none"/>
<path d="M 1156.25 33.08 L 1158.08 33.08 L 1158.08 35.52 L 1156.25 38.26 Z" fill="#d0d0d0" fill-opacity="0.5" stroke="none"/>
<path d="M 1167.25 25.00 L 1169.08 25.00 L 1169.08 27.76 L 1167.25 30.24 Z" fill="#d0d0d0" fill-opacity="0.5" stroke="none"/>
<polyline fill="none" stroke="#111" stroke-width="1.2" points="74.58,107.29 83.75,105.22 92.92,102.72 102.08,100.78 111.25,98.43 120.42,97.79 129.58,97.62 138.75,95.28 147.92,92.63 157.08,97.20 184.58,95.74 230.42,94.02 257.15,92.31 264.79,90.62 272.43,95.26 280.07,93.29 287.71,91.27 295.35,90.32 302.99,88.18 310.62,92.83 318.26,91.45 325.90,96.09 333.54,94.89 341.18,94.74 348.82,99.34 356.46,96.97 364.10,98.82 371.74,99.77 379.38,98.71 387.01,96.38 394.65,100.96 402.29,105.50 409.93,104.36 417.57,103.91 425.21,108.42 432.85,106.50 459.58,104.50 505.42,102.46 535.97,100.33 551.25,97.77 566.53,95.73 581.81,95.16 597.08,93.63 612.36,98.24 629.17,95.67 647.50,93.63 665.83,91.28 684.17,91.05 702.50,91.34 718.21,88.75 731.31,86.03 744.40,84.47 757.50,82.58 770.60,81.11 783.69,79.16 796.79,77.46 804.33,77.32 806.32,74.65 808.32,73.66 810.31,70.98 812.30,68.41 814.29,66.15 816.29,71.03 818.28,68.99 820.27,66.53 822.26,66.38 824.26,71.25 826.25,69.36 828.24,67.15 830.24,72.02 832.23,71.48 834.22,68.80 836.21,73.65 838.21,72.50 840.20,70.29 842.19,69.12 844.18,67.07 846.18,71.94 848.17,76.76 850.16,74.94 852.16,79.74 854.15,84.46 856.14,82.34 858.13,87.03 860.13,84.93 862.12,89.63 864.11,87.40 866.11,85.23 868.10,89.93 870.09,88.76 872.08,86.69 874.08,86.21 876.07,85.40 878.06,83.63 880.05,81.63 882.05,86.36 884.04,91.05 886.03,88.46 888.03,85.72 890.02,90.35 892.01,94.99 894.00,93.30 895.54,90.73 896.62,90.60 897.70,95.25 898.77,99.84 899.85,97.32 900.93,94.93 902.01,92.39 903.09,89.81 904.17,87.23 905.25,91.92 906.32,89.95 907.40,87.77 908.48,85.81 909.56,83.44 910.64,81.05 911.72,78.70 912.79,79.69 913.87,78.88 914.95,76.26 916.03,74.55 917.11,79.36 918.19,84.09 919.26,88.81 920.34,87.33 921.42,92.02 922.50,96.63 923.58,94.09 924.66,91.54 925.74,91.96 926.81,89.87 927.89,88.63 928.97,93.30 930.05,92.16 931.13,90.25 932.21,88.23 933.28,85.91 934.36,85.78 935.44,83.46 936.52,88.19 937.60,85.62 938.68,90.30 939.75,94.91 940.83,92.61 941.91,90.19 942.99,94.80 944.07,92.63 945.15,90.07 946.23,87.50 947.30,86.78 948.38,84.62 949.46,89.34 950.54,88.81 951.62,86.99 952.70,84.40 953.77,82.45 954.85,87.19 955.93,84.72 957.01,82.12 958.09,86.87 959.17,85.06 960.25,82.64 961.32,80.04 962.40,77.85 963.48,75.22 964.56,80.00 965.64,77.54 966.72,77.10 967.79,81.89 968.87,82.16 969.95,79.72 971.03,77.46 972.11,75.86 973.19,80.66 974.26,85.39 975.34,90.05 976.42,87.90 977.50,87.39 978.58,85.61 979.66,84.33 980.74,89.06 981.81,89.30 982.89,86.83 983.97,91.52 985.05,96.16 986.13,93.73 987.76,93.71 989.94,98.34 992.12,98.07 994.31,96.08 996.49,93.79 998.67,92.14 1000.85,92.59 1003.04,97.24 1005.22,101.84 1007.40,99.68 1009.58,97.15 1011.77,101.76 1013.95,101.50 1016.13,98.93 1018.31,96.41 1020.50,95.31 1022.68,93.18 1024.86,90.64 1027.04,88.28 1029.23,86.96 1031.41,85.51 1033.59,84.03 1035.77,81.90 1037.96,79.97 1040.14,78.05 1042.32,82.83 1044.50,80.57 1046.69,77.96 1048.87,75.55 1051.05,73.61 1053.23,71.17 1055.42,68.70 1057.60,73.55 1059.78,71.27 1061.96,69.41 1064.15,67.28 1066.33,65.73 1068.51,63.96 1070.69,63.29 1072.88,60.60 1075.06,57.88 1077.24,62.84 1079.25,60.97 1081.08,58.26 1082.92,56.94 1084.75,55.41 1086.58,60.38 1088.42,60.45 1090.25,65.40 1092.08,64.08 1093.92,62.53 1095.75,60.05 1097.58,60.59 1099.42,58.08 1101.25,55.89 1103.08,53.15 1104.92,50.84 1106.75,50.15 1108.58,49.54 1110.42,48.41 1112.25,46.10 1114.08,51.18 1115.92,56.21 1117.75,61.19 1119.58,58.56 1121.42,56.41 1123.25,55.21 1125.08,53.72 1126.92,51.46 1128.75,56.48 1130.58,54.37 1132.42,51.59 1134.25,49.38 1136.08,46.94 1137.92,45.19 1139.75,50.28 1141.58,47.86 1143.42,45.05 1145.25,42.46 1147.08,40.95 1148.92,38.56 1150.75,36.19 1152.58,34.96 1154.42,33.08 1156.25,38.26 1158.08,35.52 1159.92,32.64 1161.75,30.03 1163.58,27.91 1165.42,25.00 1167.25,30.24 1169.08,27.76"/>
<text x="620.0" y="588" text-anchor="middle" font-family="sans-serif" font-size="12" fill="#333">Monthly Balance Curve</text>
<text x="15" y="287.5" transform="rotate(-90 15,287.5)" text-anchor="middle" font-family="sans-serif" font-size="12" fill="#333">Capital</text>
</svg>