<svg xmlns="http://www.w3.org/2000/svg" width="1200" height="600" viewBox="0 0 1200 600">
<desc>Equity curve with drawdown fill; x-axis is months only (no exact timestamps)</desc>
<text x="600.0" y="18.0" text-anchor="middle" font-family="sans-serif" font-size="14">Portfolio 2011 (UTC)</text>
<rect x="70" y="25" width="1100" height="525" fill="white" stroke="#ccc" />
<line x1="70" y1="550.00" x2="1170" y2="550.00" stroke="#eee"/>
<text x="62" y="554.0" text-anchor="end" font-family="sans-serif" font-size="11" fill="#555">0.00</text>
<line x1="70" y1="445.00" x2="1170" y2="445.00" stroke="#eee"/>
<text x="62" y="449.0" text-anchor="end" font-family="sans-serif" font-size="11" fill="#555">77310</text>
<line x1="70" y1="340.00" x2="1170" y2="340.00" stroke="#eee"/>
<text x="62" y="344.0" text-anchor="end" font-family="sans-serif" font-size="11" fill="#555">154621</text>
<line x1="70" y1="235.00" x2="1170" y2="235.00" stroke="#eee"/>
<text x="62" y="239.0" text-anchor="end" font-family="sans-serif" font-size="11" fill="#555">231931</text>
<line x1="70" y1="130.00" x2="1170" y2="130.00" stroke="#eee"/>
<text x="62" y="134.0" text-anchor="end" font-family="sans-serif" font-size="11" fill="#555">309241</text>
<line x1="70" y1="25.00" x2="1170" y2="25.00" stroke="#eee"/>
<text x="62" y="29.0" text-anchor="end" font-family="sans-serif" font-size="11" fill="#555">386551</text>
<line x1="161.67" y1="25" x2="161.67" y2="550" stroke="#f2f2f2"/>
<line x1="253.33" y1="25" x2="253.33" y2="550" stroke="#f2f2f2"/>
<line x1="345.00" y1="25" x2="345.00" y2="550" stroke="#f2f2f2"/>
<line x1="436.67" y1="25" x2="436.67" y2="550" stroke="#f2f2f2"/>
<line x1="528.33" y1="25" x2="528.33" y2="550" stroke="#f2f2f2"/>
<line x1="620.00" y1="25" x2="620.00" y2="550" stroke="#f2f2f2"/>
<line x1="711.67" y1="25" x2="711.67" y2="550" stroke="#f2f2f2"/>
<line x1="803.33" y1="25" x2="803.33" y2="550" stroke="#f2f2f2"/>
<line x1="895.00" y1="25" x2="895.00" y2="550" stroke="#f2f2f2"/>
<line x1="986.67" y1="25" x2="986.67" y2="550" stroke="#f2f2f2"/>
<line x1="1078.33" y1="25" x2="1078.33" y2="550" stroke="#f2f2f2"/>
<text x="115.83" y="566.00" text-anchor="middle" font-family="sans-serif" font-size="11" fill="#444">Jan</text>
<text x="207.50" y="566.00" text-anchor="middle" font-family="sans-serif" font-size="11" fill="#444">Feb</text>
<text x="299.17" y="566.00" text-anchor="middle" font-family="sans-serif" font-size="11" fill="#444">Mar</text>
<text x="390.83" y="566.00" text-anchor="middle" font-family="sans-serif" font-size="11" fill="#444">Apr</text>
<text x="482.50" y="566.00" text-anchor="middle" font-family="sans-serif" font-size="11" fill="#444">May</text>
<text x="574.17" y="566.00" text-anchor="middle" font-family="sans-serif" font-size="11" fill="#444">Jun</text>
<text x="665.83" y="566.00" text-anchor="middle" font-family="sans-serif" font-size="11" fill="#444">Jul</text>
<text x="757.50" y="566.00" text-anchor="middle" font-family="sans-serif" font-size="11" fill="#444">Aug</text>
<text x="849.17" y="566.00" text-anchor="middle" font-family="sans-serif" font-size="11" fill="#444">Sep</text>
<text x="940.83" y="566.00" text-anchor="middle" font-family="sans-serif" font-size="11" fill="#444">Oct</text>
<text x="1032.50" y="566.00" text-anchor="middle" font-family="sans-serif" font-size="11" fill="#444">Nov</text>
<text x="1124.17" y="566.00" text-anchor="middle" font-family="sans-serif" font-size="11" fill="#444">Dec</text>
<line x1="70" y1="550" x2="1170" y2="550" stroke="#888"/>
<line x1="70" y1="25" x2="70" y2="550" stroke="#888"/>
<line x1="74.17" y1="550.00" x2="74.17" y2="556.00" stroke="#888"/>
<line x1="1154.72"   y1="550.00" x2="1154.72"   y2="556.00" stroke="#888"/>
<text x="74.17" y="582.00" text-anchor="start" font-family="sans-serif" font-size="11" fill="#333">Initial Balance: 331067</text>
<text x="1154.72"   y="582.00" text-anchor="end"   font-family="sans-serif" font-size="11" fill="#333">Ending Balance: 380225</text>
<path d="M 90.83 98.10 L 90.83 98.10 Z" fill="#d0d0d0" fill-opacity="0.5" stroke="none"/>
<path d="M 189.17 67.46 L 207.50 67.46 L 207.50 68.78 L 189.17 70.08 Z" fill="#d0d0d0" fill-opacity="0.5" stroke="none"/>
<path d="M 244.17 65.74 L 259.06 65.74 L 270.52 65.74 L 270.52 66.98 L 259.06 69.08 L 244.17 73.08 Z" fill="#d0d0d0" fill-opacity="0.5" stroke="none"/>
<path d="M 293.44 65.13 L 293.44 66.36 Z" fill="#d0d0d0" fill-opacity="0.5" stroke="none"/>
<path d="M 327.81 62.59 L 327.81 63.62 Z" fill="#d0d0d0" fill-opacity="0.5" stroke="none"/>
<path d="M 356.46 61.02 L 379.38 61.02 L 402.29 61.02 L 425.21 61.02 L 439.36 61.02 L 444.75 61.02 L 450.15 61.02 L 455.54 61.02 L 460.93 61.02 L 466.32 61.02 L 471.72 61.02 L 477.11 61.02 L 482.50 61.02 L 487.89 61.02 L 493.28 61.02 L 498.68 61.02 L 504.07 61.02 L 509.46 61.02 L 514.85 61.02 L 520.25 61.02 L 525.64 61.02 L 532.15 61.02 L 539.79 61.02 L 547.43 61.02 L 555.07 61.02 L 562.71 61.02 L 570.35 61.02 L 577.99 61.02 L 585.62 61.02 L 593.26 61.02 L 600.90 61.02 L 608.54 61.02 L 608.54 63.82 L 600.90 66.62 L 593.26 67.95 L 585.62 68.75 L 577.99 72.77 L 570.35 73.53 L 562.71 77.48 L 555.07 81.43 L 547.43 74.21 L 539.79 75.83 L 532.15 78.34 L 525.64 75.42 L 520.25 77.27 L 514.85 79.30 L 509.46 72.04 L 504.07 73.66 L 498.68 70.58 L 493.28 72.53 L 487.89 75.80 L 482.50 77.90 L 477.11 78.95 L 471.72 81.06 L 466.32 73.84 L 460.93 66.51 L 455.54 68.88 L 450.15 72.90 L 444.75 65.60 L 439.36 69.66 L 425.21 70.49 L 402.29 73.28 L 379.38 65.94 L 356.46 68.43 Z" fill="#d0d0d0" fill-opacity="0.5" stroke="none"/>
<path d="M 690.28 26.85 L 696.39 26.85 L 702.50 26.85 L 708.61 26.85 L 714.21 26.85 L 719.31 26.85 L 724.40 26.85 L 729.49 26.85 L 734.58 26.85 L 734.58 28.79 L 729.49 33.11 L 724.40 36.48 L 719.31 39.91 L 714.21 42.57 L 708.61 45.93 L 702.50 38.20 L 696.39 30.37 L 690.28 34.68 Z" fill="#d0d0d0" fill-opacity="0.5" stroke="none"/>
<path d="M 744.77 25.00 L 749.86 25.00 L 754.95 25.00 L 760.05 25.00 L 765.14 25.00 L 770.23 25.00 L 775.32 25.00 L 780.42 25.00 L 785.51 25.00 L 790.60 25.00 L 795.69 25.00 L 800.79 25.00 L 805.88 25.00 L 810.97 25.00 L 816.06 25.00 L 821.16 25.00 L 826.25 25.00 L 831.34 25.00 L 836.44 25.00 L 841.53 25.00 L 846.62 25.00 L 851.71 25.00 L 856.81 25.00 L 861.90 25.00 L 866.99 25.00 L 872.08 25.00 L 877.18 25.00 L 882.27 25.00 L 887.36 25.00 L 892.45 25.00 L 897.41 25.00 L 902.24 25.00 L 907.06 25.00 L 911.89 25.00 L 916.71 25.00 L 921.54 25.00 L 926.36 25.00 L 931.18 25.00 L 936.01 25.00 L 940.83 25.00 L 945.66 25.00 L 950.48 25.00 L 955.31 25.00 L 960.13 25.00 L 964.96 25.00 L 969.78 25.00 L 974.61 25.00 L 979.43 25.00 L 984.25 25.00 L 989.21 25.00 L 994.31 25.00 L 999.40 25.00 L 1004.49 25.00 L 1009.58 25.00 L 1014.68 25.00 L 1019.77 25.00 L 1024.86 25.00 L 1029.95 25.00 L 1035.05 25.00 L 1040.14 25.00 L 1045.23 25.00 L 1050.32 25.00 L 1055.42 25.00 L 1060.51 25.00 L 1065.60 25.00 L 1070.69 25.00 L 1075.79 25.00 L 1093.61 25.00 L 1124.17 25.00 L 1154.72 25.00 L 1154.72 33.59 L 1124.17 37.44 L 1093.61 39.76 L 1075.79 39.80 L 1070.69 41.04 L 1065.60 44.51 L 1060.51 48.25 L 1055.42 40.53 L 1050.32 38.30 L 1045.23 41.36 L 1040.14 44.35 L 1035.05 36.58 L 1029.95 36.59 L 1024.86 36.81 L 1019.77 39.91 L 1014.68 40.77 L 1009.58 44.69 L 1004.49 47.61 L 999.40 39.88 L 994.31 41.58 L 989.21 44.54 L 984.25 36.78 L 979.43 38.42 L 974.61 40.78 L 969.78 44.28 L 964.96 48.48 L 960.13 52.65 L 955.31 50.96 L 950.48 53.78 L 945.66 57.91 L 940.83 56.64 L 936.01 49.05 L 931.18 41.35 L 926.36 44.64 L 921.54 48.44 L 916.71 51.36 L 911.89 52.83 L 907.06 45.18 L 902.24 49.36 L 897.41 53.32 L 892.45 56.24 L 887.36 54.71 L 882.27 56.93 L 877.18 49.34 L 872.08 50.81 L 866.99 43.14 L 861.90 42.56 L 856.81 34.78 L 851.71 36.93 L 846.62 41.18 L 841.53 43.43 L 836.44 47.63 L 831.34 51.18 L 826.25 54.42 L 821.16 54.67 L 816.06 57.89 L 810.97 61.41 L 805.88 53.89 L 800.79 46.26 L 795.69 50.46 L 790.60 42.80 L 785.51 35.02 L 780.42 38.20 L 775.32 42.43 L 770.23 34.65 L 765.14 34.47 L 760.05 33.21 L 754.95 25.31 L 749.86 29.63 L 744.77 32.90 Z" fill="#d0d0d0" fill-opacity="0.5" stroke="none"/>
<polyline fill="none" stroke="#111" stroke-width="1.2" points="74.17,100.36 82.50,98.10 90.83,98.10 99.17,94.33 107.50,92.44 115.83,88.95 124.17,85.38 132.50,82.22 140.83,78.64 149.17,74.72 157.50,70.73 170.83,67.46 189.17,70.08 207.50,68.78 225.83,65.74 244.17,73.08 259.06,69.08 270.52,66.98 281.98,65.13 293.44,66.36 304.90,63.90 316.35,62.59 327.81,63.62 339.27,61.02 356.46,68.43 379.38,65.94 402.29,73.28 425.21,70.49 439.36,69.66 444.75,65.60 450.15,72.90 455.54,68.88 460.93,66.51 466.32,73.84 471.72,81.06 477.11,78.95 482.50,77.90 487.89,75.80 493.28,72.53 498.68,70.58 504.07,73.66 509.46,72.04 514.85,79.30 520.25,77.27 525.64,75.42 532.15,78.34 539.79,75.83 547.43,74.21 555.07,81.43 562.71,77.48 570.35,73.53 577.99,72.77 585.62,68.75 593.26,67.95 600.90,66.62 608.54,63.82 616.18,59.72 623.06,55.98 629.17,55.66 635.28,51.50 641.39,49.18 647.50,44.99 653.61,41.02 659.72,40.50 665.83,37.00 671.94,33.96 678.06,31.18 684.17,26.85 690.28,34.68 696.39,30.37 702.50,38.20 708.61,45.93 714.21,42.57 719.31,39.91 724.40,36.48 729.49,33.11 734.58,28.79 739.68,25.00 744.77,32.90 749.86,29.63 754.95,25.31 760.05,33.21 765.14,34.47 770.23,34.65 775.32,42.43 780.42,38.20 785.51,35.02 790.60,42.80 795.69,50.46 800.79,46.26 805.88,53.89 810.97,61.41 816.06,57.89 821.16,54.67 826.25,54.42 831.34,51.18 836.44,47.63 841.53,43.43 846.62,41.18 851.71,36.93 856.81,34.78 861.90,42.56 866.99,43.14 872.08,50.81 877.18,49.34 882.27,56.93 887.36,54.71 892.45,56.24 897.41,53.32 902.24,49.36 907.06,45.18 911.89,52.83 916.71,51.36 921.54,48.44 926.36,44.64 931.18,41.35 936.01,49.05 940.83,56.64 945.66,57.91 950.48,53.78 955.31,50.96 960.13,52.65 964.96,48.48 969.78,44.28 974.61,40.78 979.43,38.42 984.25,36.78 989.21,44.54 994.31,41.58 999.40,39.88 1004.49,47.61 1009.58,44.69 1014.68,40.77 1019.77,39.91 1024.86,36.81 1029.95,36.59 1035.05,36.58 1040.14,44.35 1045.23,41.36 1050.32,38.30 1055.42,40.53 1060.51,48.25 1065.60,44.51 1070.69,41.04 1075.79,39.80 1093.61,39.76 1124.17,37.44 1154.72,33.59"/>
<text x="620.0" y="588" text-anchor="middle" font-family="sans-serif" font-size="12" fill="#333">Monthly Balance Curve</text>
<text x="15" y="287.5" transform="rotate(-90 15,287.5)" text-anchor="middle" font-family="sans-serif" font-size="12" fill="#333">Capital</text>
</svg>