<svg xmlns="http://www.w3.org/2000/svg" width="1200" height="600" viewBox="0 0 1200 600">
<desc>Equity curve with drawdown fill; x-axis is months only (no exact timestamps)</desc>
<text x="600.0" y="18.0" text-anchor="middle" font-family="sans-serif" font-size="14">Balance Curve 2020 (UTC)</text>
<rect x="70" y="25" width="1100" height="525" fill="white" stroke="#ccc" />
<line x1="70" y1="550.00" x2="1170" y2="550.00" stroke="#eee"/>
<text x="62" y="554.0" text-anchor="end" font-family="sans-serif" font-size="11" fill="#555">0.00</text>
<line x1="70" y1="445.00" x2="1170" y2="445.00" stroke="#eee"/>
<text x="62" y="449.0" text-anchor="end" font-family="sans-serif" font-size="11" fill="#555">22551</text>
<line x1="70" y1="340.00" x2="1170" y2="340.00" stroke="#eee"/>
<text x="62" y="344.0" text-anchor="end" font-family="sans-serif" font-size="11" fill="#555">45101</text>
<line x1="70" y1="235.00" x2="1170" y2="235.00" stroke="#eee"/>
<text x="62" y="239.0" text-anchor="end" font-family="sans-serif" font-size="11" fill="#555">67652</text>
<line x1="70" y1="130.00" x2="1170" y2="130.00" stroke="#eee"/>
<text x="62" y="134.0" text-anchor="end" font-family="sans-serif" font-size="11" fill="#555">90203</text>
<line x1="70" y1="25.00" x2="1170" y2="25.00" stroke="#eee"/>
<text x="62" y="29.0" text-anchor="end" font-family="sans-serif" font-size="11" fill="#555">112753</text>
<line x1="180.00" y1="25" x2="180.00" y2="550" stroke="#f2f2f2"/>
<line x1="290.00" y1="25" x2="290.00" y2="550" stroke="#f2f2f2"/>
<line x1="400.00" y1="25" x2="400.00" y2="550" stroke="#f2f2f2"/>
<line x1="510.00" y1="25" x2="510.00" y2="550" stroke="#f2f2f2"/>
<line x1="620.00" y1="25" x2="620.00" y2="550" stroke="#f2f2f2"/>
<line x1="730.00" y1="25" x2="730.00" y2="550" stroke="#f2f2f2"/>
<line x1="840.00" y1="25" x2="840.00" y2="550" stroke="#f2f2f2"/>
<line x1="950.00" y1="25" x2="950.00" y2="550" stroke="#f2f2f2"/>
<line x1="1060.00" y1="25" x2="1060.00" y2="550" stroke="#f2f2f2"/>
<text x="125.00" y="566.00" text-anchor="middle" font-family="sans-serif" font-size="11" fill="#444">Jan</text>
<text x="235.00" y="566.00" text-anchor="middle" font-family="sans-serif" font-size="11" fill="#444">Mar</text>
<text x="345.00" y="566.00" text-anchor="middle" font-family="sans-serif" font-size="11" fill="#444">Apr</text>
<text x="455.00" y="566.00" text-anchor="middle" font-family="sans-serif" font-size="11" fill="#444">May</text>
<text x="565.00" y="566.00" text-anchor="middle" font-family="sans-serif" font-size="11" fill="#444">Jun</text>
<text x="675.00" y="566.00" text-anchor="middle" font-family="sans-serif" font-size="11" fill="#444">Jul</text>
<text x="785.00" y="566.00" text-anchor="middle" font-family="sans-serif" font-size="11" fill="#444">Aug</text>
<text x="895.00" y="566.00" text-anchor="middle" font-family="sans-serif" font-size="11" fill="#444">Sep</text>
<text x="1005.00" y="566.00" text-anchor="middle" font-family="sans-serif" font-size="11" fill="#444">Nov</text>
<text x="1115.00" y="566.00" text-anchor="middle" font-family="sans-serif" font-size="11" fill="#444">Dec</text>
<line x1="70" y1="550" x2="1170" y2="550" stroke="#888"/>
<line x1="70" y1="25" x2="70" y2="550" stroke="#888"/>
<line x1="125.00" y1="550.00" x2="125.00" y2="556.00" stroke="#888"/>
<line x1="1115.00"   y1="550.00" x2="1115.00"   y2="556.00" stroke="#888"/>
<text x="125.00" y="582.00" text-anchor="start" font-family="sans-serif" font-size="11" fill="#333">Initial Balance: 100000</text>
<text x="1115.00"   y="582.00" text-anchor="end"   font-family="sans-serif" font-size="11" fill="#333">Ending Balance: 112753</text>
<path d="M 188.19 77.60 L 190.53 77.60 L 190.53 79.60 L 188.19 82.35 Z" fill="#d0d0d0" fill-opacity="0.5" stroke="none"/>
<path d="M 206.91 67.07 L 206.91 67.90 Z" fill="#d0d0d0" fill-opacity="0.5" stroke="none"/>
<path d="M 225.64 54.44 L 225.64 54.89 Z" fill="#d0d0d0" fill-opacity="0.5" stroke="none"/>
<path d="M 230.32 53.14 L 232.66 53.14 L 235.00 53.14 L 235.00 53.34 L 232.66 55.77 L 230.32 58.19 Z" fill="#d0d0d0" fill-opacity="0.5" stroke="none"/>
<path d="M 239.68 50.88 L 242.02 50.88 L 244.36 50.88 L 246.70 50.88 L 249.04 50.88 L 251.38 50.88 L 253.72 50.88 L 256.06 50.88 L 258.40 50.88 L 260.74 50.88 L 263.09 50.88 L 265.43 50.88 L 267.77 50.88 L 270.11 50.88 L 272.45 50.88 L 274.79 50.88 L 277.13 50.88 L 279.47 50.88 L 281.81 50.88 L 284.15 50.88 L 286.49 50.88 L 288.83 50.88 L 308.33 50.88 L 308.33 51.77 L 288.83 52.39 L 286.49 54.39 L 284.15 56.77 L 281.81 58.10 L 279.47 59.91 L 277.13 61.95 L 274.79 64.04 L 272.45 64.87 L 270.11 66.89 L 267.77 68.85 L 265.43 71.38 L 263.09 66.46 L 260.74 61.49 L 258.40 62.57 L 256.06 57.59 L 253.72 58.89 L 251.38 61.24 L 249.04 56.22 L 246.70 58.77 L 244.36 53.73 L 242.02 56.33 L 239.68 55.96 Z" fill="#d0d0d0" fill-opacity="0.5" stroke="none"/>
<path d="M 565.00 41.65 L 565.00 42.55 Z" fill="#d0d0d0" fill-opacity="0.5" stroke="none"/>
<path d="M 1005.00 26.71 L 1005.00 27.22 Z" fill="#d0d0d0" fill-opacity="0.5" stroke="none"/>
<polyline fill="none" stroke="#111" stroke-width="1.2" points="125.00,84.38 181.17,82.22 183.51,80.26 185.85,77.60 188.19,82.35 190.53,79.60 192.87,77.34 195.21,75.83 197.55,73.32 199.89,71.69 202.23,69.62 204.57,67.07 206.91,67.90 209.26,66.54 211.60,63.99 213.94,63.44 216.28,61.23 218.62,58.64 220.96,56.04 223.30,54.44 225.64,54.89 227.98,53.14 230.32,58.19 232.66,55.77 235.00,53.34 237.34,50.88 239.68,55.96 242.02,56.33 244.36,53.73 246.70,58.77 249.04,56.22 251.38,61.24 253.72,58.89 256.06,57.59 258.40,62.57 260.74,61.49 263.09,66.46 265.43,71.38 267.77,68.85 270.11,66.89 272.45,64.87 274.79,64.04 277.13,61.95 279.47,59.91 281.81,58.10 284.15,56.77 286.49,54.39 288.83,52.39 308.33,51.77 345.00,50.24 381.67,49.08 427.50,46.76 482.50,44.35 528.33,41.65 565.00,42.55 601.67,40.55 647.50,39.26 702.50,37.49 757.50,35.91 812.50,34.30 867.50,31.78 922.50,29.31 968.33,26.71 1005.00,27.22 1041.67,25.39 1115.00,25.00"/>
<text x="15" y="287.5" transform="rotate(-90 15,287.5)" text-anchor="middle" font-family="sans-serif" font-size="12" fill="#333">USD</text>
</svg>