<svg xmlns="http://www.w3.org/2000/svg" width="1200" height="600" viewBox="0 0 1200 600">
<desc>Equity curve with drawdown fill; x-axis is months only (no exact timestamps)</desc>
<text x="600.0" y="18.0" text-anchor="middle" font-family="sans-serif" font-size="14">Portfolio 2008 (UTC)</text>
<rect x="70" y="25" width="1100" height="525" fill="white" stroke="#ccc" />
<line x1="70" y1="550.00" x2="1170" y2="550.00" stroke="#eee"/>
<text x="62" y="554.0" text-anchor="end" font-family="sans-serif" font-size="11" fill="#555">0.00</text>
<line x1="70" y1="445.00" x2="1170" y2="445.00" stroke="#eee"/>
<text x="62" y="449.0" text-anchor="end" font-family="sans-serif" font-size="11" fill="#555">23984</text>
<line x1="70" y1="340.00" x2="1170" y2="340.00" stroke="#eee"/>
<text x="62" y="344.0" text-anchor="end" font-family="sans-serif" font-size="11" fill="#555">47967</text>
<line x1="70" y1="235.00" x2="1170" y2="235.00" stroke="#eee"/>
<text x="62" y="239.0" text-anchor="end" font-family="sans-serif" font-size="11" fill="#555">71951</text>
<line x1="70" y1="130.00" x2="1170" y2="130.00" stroke="#eee"/>
<text x="62" y="134.0" text-anchor="end" font-family="sans-serif" font-size="11" fill="#555">95935</text>
<line x1="70" y1="25.00" x2="1170" y2="25.00" stroke="#eee"/>
<text x="62" y="29.0" text-anchor="end" font-family="sans-serif" font-size="11" fill="#555">119919</text>
<line x1="161.67" y1="25" x2="161.67" y2="550" stroke="#f2f2f2"/>
<line x1="253.33" y1="25" x2="253.33" y2="550" stroke="#f2f2f2"/>
<line x1="345.00" y1="25" x2="345.00" y2="550" stroke="#f2f2f2"/>
<line x1="436.67" y1="25" x2="436.67" y2="550" stroke="#f2f2f2"/>
<line x1="528.33" y1="25" x2="528.33" y2="550" stroke="#f2f2f2"/>
<line x1="620.00" y1="25" x2="620.00" y2="550" stroke="#f2f2f2"/>
<line x1="711.67" y1="25" x2="711.67" y2="550" stroke="#f2f2f2"/>
<line x1="803.33" y1="25" x2="803.33" y2="550" stroke="#f2f2f2"/>
<line x1="895.00" y1="25" x2="895.00" y2="550" stroke="#f2f2f2"/>
<line x1="986.67" y1="25" x2="986.67" y2="550" stroke="#f2f2f2"/>
<line x1="1078.33" y1="25" x2="1078.33" y2="550" stroke="#f2f2f2"/>
<text x="115.83" y="566.00" text-anchor="middle" font-family="sans-serif" font-size="11" fill="#444">Jan</text>
<text x="207.50" y="566.00" text-anchor="middle" font-family="sans-serif" font-size="11" fill="#444">Feb</text>
<text x="299.17" y="566.00" text-anchor="middle" font-family="sans-serif" font-size="11" fill="#444">Mar</text>
<text x="390.83" y="566.00" text-anchor="middle" font-family="sans-serif" font-size="11" fill="#444">Apr</text>
<text x="482.50" y="566.00" text-anchor="middle" font-family="sans-serif" font-size="11" fill="#444">May</text>
<text x="574.17" y="566.00" text-anchor="middle" font-family="sans-serif" font-size="11" fill="#444">Jun</text>
<text x="665.83" y="566.00" text-anchor="middle" font-family="sans-serif" font-size="11" fill="#444">Jul</text>
<text x="757.50" y="566.00" text-anchor="middle" font-family="sans-serif" font-size="11" fill="#444">Aug</text>
<text x="849.17" y="566.00" text-anchor="middle" font-family="sans-serif" font-size="11" fill="#444">Sep</text>
<text x="940.83" y="566.00" text-anchor="middle" font-family="sans-serif" font-size="11" fill="#444">Oct</text>
<text x="1032.50" y="566.00" text-anchor="middle" font-family="sans-serif" font-size="11" fill="#444">Nov</text>
<text x="1124.17" y="566.00" text-anchor="middle" font-family="sans-serif" font-size="11" fill="#444">Dec</text>
<line x1="70" y1="550" x2="1170" y2="550" stroke="#888"/>
<line x1="70" y1="25" x2="70" y2="550" stroke="#888"/>
<line x1="74.58" y1="550.00" x2="74.58" y2="556.00" stroke="#888"/>
<line x1="1169.08"   y1="550.00" x2="1169.08"   y2="556.00" stroke="#888"/>
<text x="74.58" y="582.00" text-anchor="start" font-family="sans-serif" font-size="11" fill="#333">Initial Balance: 100000</text>
<text x="1169.08"   y="582.00" text-anchor="end"   font-family="sans-serif" font-size="11" fill="#333">Ending Balance: 119293</text>
<path d="M 157.08 97.57 L 184.58 97.57 L 230.42 97.57 L 230.42 98.90 L 184.58 100.62 L 157.08 102.08 Z" fill="#d0d0d0" fill-opacity="0.5" stroke="none"/>
<path d="M 272.43 95.50 L 280.07 95.50 L 287.71 95.50 L 287.71 96.10 L 280.07 98.12 L 272.43 100.08 Z" fill="#d0d0d0" fill-opacity="0.5" stroke="none"/>
<path d="M 310.62 93.01 L 318.26 93.01 L 325.90 93.01 L 333.54 93.01 L 341.18 93.01 L 348.82 93.01 L 356.46 93.01 L 364.10 93.01 L 371.74 93.01 L 379.38 93.01 L 387.01 93.01 L 394.65 93.01 L 402.29 93.01 L 409.93 93.01 L 417.57 93.01 L 425.21 93.01 L 432.85 93.01 L 459.58 93.01 L 505.42 93.01 L 535.97 93.01 L 551.25 93.01 L 566.53 93.01 L 581.81 93.01 L 597.08 93.01 L 612.36 93.01 L 629.17 93.01 L 647.50 93.01 L 665.83 93.01 L 684.17 93.01 L 702.50 93.01 L 702.50 95.60 L 684.17 95.32 L 665.83 95.57 L 647.50 97.92 L 629.17 99.96 L 612.36 102.52 L 597.08 97.97 L 581.81 99.50 L 566.53 100.09 L 551.25 102.12 L 535.97 104.66 L 505.42 106.80 L 459.58 108.83 L 432.85 110.83 L 425.21 112.75 L 417.57 108.31 L 409.93 108.77 L 402.29 109.91 L 394.65 105.44 L 387.01 100.92 L 379.38 103.24 L 371.74 104.32 L 364.10 103.39 L 356.46 101.58 L 348.82 103.95 L 341.18 99.42 L 333.54 99.58 L 325.90 100.78 L 318.26 96.21 L 310.62 97.60 Z" fill="#d0d0d0" fill-opacity="0.5" stroke="none"/>
<path d="M 816.29 70.39 L 818.28 70.39 L 820.27 70.39 L 822.26 70.39 L 824.26 70.39 L 826.25 70.39 L 828.24 70.39 L 830.24 70.39 L 832.23 70.39 L 834.22 70.39 L 836.21 70.39 L 838.21 70.39 L 840.20 70.39 L 842.19 70.39 L 844.18 70.39 L 846.18 70.39 L 848.17 70.39 L 850.16 70.39 L 852.16 70.39 L 854.15 70.39 L 856.14 70.39 L 858.13 70.39 L 860.13 70.39 L 862.12 70.39 L 864.11 70.39 L 866.11 70.39 L 868.10 70.39 L 870.09 70.39 L 872.08 70.39 L 874.08 70.39 L 876.07 70.39 L 878.06 70.39 L 880.05 70.39 L 882.05 70.39 L 884.04 70.39 L 886.03 70.39 L 888.03 70.39 L 890.02 70.39 L 892.01 70.39 L 894.00 70.39 L 895.54 70.39 L 896.62 70.39 L 897.70 70.39 L 898.77 70.39 L 899.85 70.39 L 900.93 70.39 L 902.01 70.39 L 903.09 70.39 L 904.17 70.39 L 905.25 70.39 L 906.32 70.39 L 907.40 70.39 L 908.48 70.39 L 909.56 70.39 L 910.64 70.39 L 911.72 70.39 L 912.79 70.39 L 913.87 70.39 L 914.95 70.39 L 916.03 70.39 L 917.11 70.39 L 918.19 70.39 L 919.26 70.39 L 920.34 70.39 L 921.42 70.39 L 922.50 70.39 L 923.58 70.39 L 924.66 70.39 L 925.74 70.39 L 926.81 70.39 L 927.89 70.39 L 928.97 70.39 L 930.05 70.39 L 931.13 70.39 L 932.21 70.39 L 933.28 70.39 L 934.36 70.39 L 935.44 70.39 L 936.52 70.39 L 937.60 70.39 L 938.68 70.39 L 939.75 70.39 L 940.83 70.39 L 941.91 70.39 L 942.99 70.39 L 944.07 70.39 L 945.15 70.39 L 946.23 70.39 L 947.30 70.39 L 948.38 70.39 L 949.46 70.39 L 950.54 70.39 L 951.62 70.39 L 952.70 70.39 L 953.77 70.39 L 954.85 70.39 L 955.93 70.39 L 957.01 70.39 L 958.09 70.39 L 959.17 70.39 L 960.25 70.39 L 961.32 70.39 L 962.40 70.39 L 963.48 70.39 L 964.56 70.39 L 965.64 70.39 L 966.72 70.39 L 967.79 70.39 L 968.87 70.39 L 969.95 70.39 L 971.03 70.39 L 972.11 70.39 L 973.19 70.39 L 974.26 70.39 L 975.34 70.39 L 976.42 70.39 L 977.50 70.39 L 978.58 70.39 L 979.66 70.39 L 980.74 70.39 L 981.81 70.39 L 982.89 70.39 L 983.97 70.39 L 985.05 70.39 L 986.13 70.39 L 987.76 70.39 L 989.94 70.39 L 992.12 70.39 L 994.31 70.39 L 996.49 70.39 L 998.67 70.39 L 1000.85 70.39 L 1003.04 70.39 L 1005.22 70.39 L 1007.40 70.39 L 1009.58 70.39 L 1011.77 70.39 L 1013.95 70.39 L 1016.13 70.39 L 1018.31 70.39 L 1020.50 70.39 L 1022.68 70.39 L 1024.86 70.39 L 1027.04 70.39 L 1029.23 70.39 L 1031.41 70.39 L 1033.59 70.39 L 1035.77 70.39 L 1037.96 70.39 L 1040.14 70.39 L 1042.32 70.39 L 1044.50 70.39 L 1046.69 70.39 L 1048.87 70.39 L 1051.05 70.39 L 1053.23 70.39 L 1053.23 72.28 L 1051.05 74.74 L 1048.87 76.70 L 1046.69 79.12 L 1044.50 81.76 L 1042.32 84.02 L 1040.14 79.28 L 1037.96 81.22 L 1035.77 83.17 L 1033.59 85.31 L 1031.41 86.81 L 1029.23 88.28 L 1027.04 89.63 L 1024.86 92.00 L 1022.68 94.56 L 1020.50 96.70 L 1018.31 97.80 L 1016.13 100.34 L 1013.95 102.92 L 1011.77 103.19 L 1009.58 98.62 L 1007.40 101.15 L 1005.22 103.33 L 1003.04 98.77 L 1000.85 94.17 L 998.67 93.74 L 996.49 95.40 L 994.31 97.71 L 992.12 99.70 L 989.94 99.99 L 987.76 95.41 L 986.13 95.45 L 985.05 97.89 L 983.97 93.31 L 982.89 88.64 L 981.81 91.13 L 980.74 90.90 L 979.66 86.22 L 978.58 87.52 L 977.50 89.31 L 976.42 89.84 L 975.34 92.00 L 974.26 87.36 L 973.19 82.66 L 972.11 77.91 L 971.03 79.51 L 969.95 81.76 L 968.87 84.22 L 967.79 83.97 L 966.72 79.23 L 965.64 79.69 L 964.56 82.16 L 963.48 77.40 L 962.40 80.05 L 961.32 82.24 L 960.25 84.85 L 959.17 87.28 L 958.09 89.09 L 957.01 84.40 L 955.93 87.00 L 954.85 89.47 L 953.77 84.78 L 952.70 86.74 L 951.62 89.33 L 950.54 91.16 L 949.46 91.71 L 948.38 87.03 L 947.30 89.20 L 946.23 89.95 L 945.15 92.52 L 944.07 95.09 L 942.99 97.26 L 941.91 92.70 L 940.83 95.13 L 939.75 97.41 L 938.68 92.82 L 937.60 88.18 L 936.52 90.76 L 935.44 86.08 L 934.36 88.41 L 933.28 88.57 L 932.21 90.89 L 931.13 92.92 L 930.05 94.84 L 928.97 95.98 L 927.89 91.35 L 926.81 92.61 L 925.74 94.70 L 924.66 94.30 L 923.58 96.85 L 922.50 99.39 L 921.42 94.82 L 920.34 90.19 L 919.26 91.67 L 918.19 87.01 L 917.11 82.33 L 916.03 77.58 L 914.95 79.29 L 913.87 81.93 L 912.79 82.75 L 911.72 81.79 L 910.64 84.15 L 909.56 86.54 L 908.48 88.91 L 907.40 90.87 L 906.32 93.05 L 905.25 95.02 L 904.17 90.38 L 903.09 92.96 L 902.01 95.53 L 900.93 98.08 L 899.85 100.47 L 898.77 102.99 L 897.70 98.47 L 896.62 93.87 L 895.54 94.02 L 894.00 96.59 L 892.01 98.29 L 890.02 93.70 L 888.03 89.14 L 886.03 91.86 L 884.04 94.45 L 882.05 89.81 L 880.05 85.14 L 878.06 87.14 L 876.07 88.92 L 874.08 89.74 L 872.08 90.23 L 870.09 92.31 L 868.10 93.48 L 866.11 88.83 L 864.11 91.01 L 862.12 93.24 L 860.13 88.60 L 858.13 90.71 L 856.14 86.05 L 854.15 88.18 L 852.16 83.50 L 850.16 78.75 L 848.17 80.59 L 846.18 75.82 L 844.18 71.02 L 842.19 73.07 L 840.20 74.25 L 838.21 76.46 L 836.21 77.62 L 834.22 72.82 L 832.23 75.51 L 830.24 76.06 L 828.24 71.24 L 826.25 73.46 L 824.26 75.35 L 822.26 70.54 L 820.27 70.71 L 818.28 73.17 L 816.29 75.21 Z" fill="#d0d0d0" fill-opacity="0.5" stroke="none"/>
<path d="M 1057.60 69.80 L 1059.78 69.80 L 1061.96 69.80 L 1061.96 70.45 L 1059.78 72.33 L 1057.60 74.62 Z" fill="#d0d0d0" fill-opacity="0.5" stroke="none"/>
<path d="M 1077.24 58.82 L 1079.25 58.82 L 1081.08 58.82 L 1081.08 59.11 L 1079.25 61.84 L 1077.24 63.72 Z" fill="#d0d0d0" fill-opacity="0.5" stroke="none"/>
<path d="M 1086.58 56.22 L 1088.42 56.22 L 1090.25 56.22 L 1092.08 56.22 L 1093.92 56.22 L 1095.75 56.22 L 1097.58 56.22 L 1099.42 56.22 L 1101.25 56.22 L 1101.25 56.51 L 1099.42 58.73 L 1097.58 61.25 L 1095.75 60.73 L 1093.92 63.23 L 1092.08 64.80 L 1090.25 66.13 L 1088.42 61.22 L 1086.58 61.16 Z" fill="#d0d0d0" fill-opacity="0.5" stroke="none"/>
<path d="M 1114.08 46.62 L 1115.92 46.62 L 1117.75 46.62 L 1119.58 46.62 L 1121.42 46.62 L 1123.25 46.62 L 1125.08 46.62 L 1126.92 46.62 L 1128.75 46.62 L 1130.58 46.62 L 1132.42 46.62 L 1134.25 46.62 L 1136.08 46.62 L 1136.08 47.19 L 1134.25 49.65 L 1132.42 51.88 L 1130.58 54.68 L 1128.75 56.80 L 1126.92 51.80 L 1125.08 54.08 L 1123.25 55.58 L 1121.42 56.81 L 1119.58 58.98 L 1117.75 61.62 L 1115.92 56.66 L 1114.08 51.66 Z" fill="#d0d0d0" fill-opacity="0.5" stroke="none"/>
<path d="M 1139.75 45.44 L 1141.58 45.44 L 1141.58 48.06 L 1139.75 50.50 Z" fill="#d0d0d0" fill-opacity="0.5" stroke="none"/>
<path d="M 1156.25 33.18 L 1158.08 33.18 L 1158.08 35.59 L 1156.25 38.35 Z" fill="#d0d0d0" fill-opacity="0.5" stroke="none"/>
<path d="M 1167.25 25.00 L 1169.08 25.00 L 1169.08 27.74 L 1167.25 30.21 Z" fill="#d0d0d0" fill-opacity="0.5" stroke="none"/>
<polyline fill="none" stroke="#111" stroke-width="1.2" points="74.58,112.20 83.75,110.14 92.92,107.64 102.08,105.71 111.25,103.37 120.42,102.73 129.58,102.55 138.75,100.21 147.92,97.57 157.08,102.08 184.58,100.62 230.42,98.90 257.15,97.18 264.79,95.50 272.43,100.08 280.07,98.12 287.71,96.10 295.35,95.14 302.99,93.01 310.62,97.60 318.26,96.21 325.90,100.78 333.54,99.58 341.18,99.42 348.82,103.95 356.46,101.58 364.10,103.39 371.74,104.32 379.38,103.24 387.01,100.92 394.65,105.44 402.29,109.91 409.93,108.77 417.57,108.31 425.21,112.75 432.85,110.83 459.58,108.83 505.42,106.80 535.97,104.66 551.25,102.12 566.53,100.09 581.81,99.50 597.08,97.97 612.36,102.52 629.17,99.96 647.50,97.92 665.83,95.57 684.17,95.32 702.50,95.60 718.21,93.00 731.31,90.29 744.40,88.73 757.50,86.84 770.60,85.37 783.69,83.43 796.79,81.72 804.33,81.56 806.32,78.90 808.32,77.90 810.31,75.23 812.30,72.65 814.29,70.39 816.29,75.21 818.28,73.17 820.27,70.71 822.26,70.54 824.26,75.35 826.25,73.46 828.24,71.24 830.24,76.06 832.23,75.51 834.22,72.82 836.21,77.62 838.21,76.46 840.20,74.25 842.19,73.07 844.18,71.02 846.18,75.82 848.17,80.59 850.16,78.75 852.16,83.50 854.15,88.18 856.14,86.05 858.13,90.71 860.13,88.60 862.12,93.24 864.11,91.01 866.11,88.83 868.10,93.48 870.09,92.31 872.08,90.23 874.08,89.74 876.07,88.92 878.06,87.14 880.05,85.14 882.05,89.81 884.04,94.45 886.03,91.86 888.03,89.14 890.02,93.70 892.01,98.29 894.00,96.59 895.54,94.02 896.62,93.87 897.70,98.47 898.77,102.99 899.85,100.47 900.93,98.08 902.01,95.53 903.09,92.96 904.17,90.38 905.25,95.02 906.32,93.05 907.40,90.87 908.48,88.91 909.56,86.54 910.64,84.15 911.72,81.79 912.79,82.75 913.87,81.93 914.95,79.29 916.03,77.58 917.11,82.33 918.19,87.01 919.26,91.67 920.34,90.19 921.42,94.82 922.50,99.39 923.58,96.85 924.66,94.30 925.74,94.70 926.81,92.61 927.89,91.35 928.97,95.98 930.05,94.84 931.13,92.92 932.21,90.89 933.28,88.57 934.36,88.41 935.44,86.08 936.52,90.76 937.60,88.18 938.68,92.82 939.75,97.41 940.83,95.13 941.91,92.70 942.99,97.26 944.07,95.09 945.15,92.52 946.23,89.95 947.30,89.20 948.38,87.03 949.46,91.71 950.54,91.16 951.62,89.33 952.70,86.74 953.77,84.78 954.85,89.47 955.93,87.00 957.01,84.40 958.09,89.09 959.17,87.28 960.25,84.85 961.32,82.24 962.40,80.05 963.48,77.40 964.56,82.16 965.64,79.69 966.72,79.23 967.79,83.97 968.87,84.22 969.95,81.76 971.03,79.51 972.11,77.91 973.19,82.66 974.26,87.36 975.34,92.00 976.42,89.84 977.50,89.31 978.58,87.52 979.66,86.22 980.74,90.90 981.81,91.13 982.89,88.64 983.97,93.31 985.05,97.89 986.13,95.45 987.76,95.41 989.94,99.99 992.12,99.70 994.31,97.71 996.49,95.40 998.67,93.74 1000.85,94.17 1003.04,98.77 1005.22,103.33 1007.40,101.15 1009.58,98.62 1011.77,103.19 1013.95,102.92 1016.13,100.34 1018.31,97.80 1020.50,96.70 1022.68,94.56 1024.86,92.00 1027.04,89.63 1029.23,88.28 1031.41,86.81 1033.59,85.31 1035.77,83.17 1037.96,81.22 1040.14,79.28 1042.32,84.02 1044.50,81.76 1046.69,79.12 1048.87,76.70 1051.05,74.74 1053.23,72.28 1055.42,69.80 1057.60,74.62 1059.78,72.33 1061.96,70.45 1064.15,68.29 1066.33,66.73 1068.51,64.94 1070.69,64.26 1072.88,61.55 1075.06,58.82 1077.24,63.72 1079.25,61.84 1081.08,59.11 1082.92,57.77 1084.75,56.22 1086.58,61.16 1088.42,61.22 1090.25,66.13 1092.08,64.80 1093.92,63.23 1095.75,60.73 1097.58,61.25 1099.42,58.73 1101.25,56.51 1103.08,53.76 1104.92,51.43 1106.75,50.73 1108.58,50.09 1110.42,48.95 1112.25,46.62 1114.08,51.66 1115.92,56.66 1117.75,61.62 1119.58,58.98 1121.42,56.81 1123.25,55.58 1125.08,54.08 1126.92,51.80 1128.75,56.80 1130.58,54.68 1132.42,51.88 1134.25,49.65 1136.08,47.19 1137.92,45.44 1139.75,50.50 1141.58,48.06 1143.42,45.23 1145.25,42.64 1147.08,41.10 1148.92,38.69 1150.75,36.31 1152.58,35.08 1154.42,33.18 1156.25,38.35 1158.08,35.59 1159.92,32.70 1161.75,30.06 1163.58,27.93 1165.42,25.00 1167.25,30.21 1169.08,27.74"/>
<text x="620.0" y="588" text-anchor="middle" font-family="sans-serif" font-size="12" fill="#333">Monthly Balance Curve</text>
<text x="15" y="287.5" transform="rotate(-90 15,287.5)" text-anchor="middle" font-family="sans-serif" font-size="12" fill="#333">Capital</text>
</svg>