<svg xmlns="http://www.w3.org/2000/svg" width="1200" height="600" viewBox="0 0 1200 600">
<desc>Equity curve with drawdown fill; x-axis is months only (no exact timestamps)</desc>
<text x="600.0" y="18.0" text-anchor="middle" font-family="sans-serif" font-size="14">Portfolio 2009 (UTC)</text>
<rect x="70" y="25" width="1100" height="525" fill="white" stroke="#ccc" />
<line x1="70" y1="550.00" x2="1170" y2="550.00" stroke="#eee"/>
<text x="62" y="554.0" text-anchor="end" font-family="sans-serif" font-size="11" fill="#555">0.00</text>
<line x1="70" y1="445.00" x2="1170" y2="445.00" stroke="#eee"/>
<text x="62" y="449.0" text-anchor="end" font-family="sans-serif" font-size="11" fill="#555">44679</text>
<line x1="70" y1="340.00" x2="1170" y2="340.00" stroke="#eee"/>
<text x="62" y="344.0" text-anchor="end" font-family="sans-serif" font-size="11" fill="#555">89359</text>
<line x1="70" y1="235.00" x2="1170" y2="235.00" stroke="#eee"/>
<text x="62" y="239.0" text-anchor="end" font-family="sans-serif" font-size="11" fill="#555">134038</text>
<line x1="70" y1="130.00" x2="1170" y2="130.00" stroke="#eee"/>
<text x="62" y="134.0" text-anchor="end" font-family="sans-serif" font-size="11" fill="#555">178718</text>
<line x1="70" y1="25.00" x2="1170" y2="25.00" stroke="#eee"/>
<text x="62" y="29.0" text-anchor="end" font-family="sans-serif" font-size="11" fill="#555">223397</text>
<line x1="161.67" y1="25" x2="161.67" y2="550" stroke="#f2f2f2"/>
<line x1="253.33" y1="25" x2="253.33" y2="550" stroke="#f2f2f2"/>
<line x1="345.00" y1="25" x2="345.00" y2="550" stroke="#f2f2f2"/>
<line x1="436.67" y1="25" x2="436.67" y2="550" stroke="#f2f2f2"/>
<line x1="528.33" y1="25" x2="528.33" y2="550" stroke="#f2f2f2"/>
<line x1="620.00" y1="25" x2="620.00" y2="550" stroke="#f2f2f2"/>
<line x1="711.67" y1="25" x2="711.67" y2="550" stroke="#f2f2f2"/>
<line x1="803.33" y1="25" x2="803.33" y2="550" stroke="#f2f2f2"/>
<line x1="895.00" y1="25" x2="895.00" y2="550" stroke="#f2f2f2"/>
<line x1="986.67" y1="25" x2="986.67" y2="550" stroke="#f2f2f2"/>
<line x1="1078.33" y1="25" x2="1078.33" y2="550" stroke="#f2f2f2"/>
<text x="115.83" y="566.00" text-anchor="middle" font-family="sans-serif" font-size="11" fill="#444">Jan</text>
<text x="207.50" y="566.00" text-anchor="middle" font-family="sans-serif" font-size="11" fill="#444">Feb</text>
<text x="299.17" y="566.00" text-anchor="middle" font-family="sans-serif" font-size="11" fill="#444">Mar</text>
<text x="390.83" y="566.00" text-anchor="middle" font-family="sans-serif" font-size="11" fill="#444">Apr</text>
<text x="482.50" y="566.00" text-anchor="middle" font-family="sans-serif" font-size="11" fill="#444">May</text>
<text x="574.17" y="566.00" text-anchor="middle" font-family="sans-serif" font-size="11" fill="#444">Jun</text>
<text x="665.83" y="566.00" text-anchor="middle" font-family="sans-serif" font-size="11" fill="#444">Jul</text>
<text x="757.50" y="566.00" text-anchor="middle" font-family="sans-serif" font-size="11" fill="#444">Aug</text>
<text x="849.17" y="566.00" text-anchor="middle" font-family="sans-serif" font-size="11" fill="#444">Sep</text>
<text x="940.83" y="566.00" text-anchor="middle" font-family="sans-serif" font-size="11" fill="#444">Oct</text>
<text x="1032.50" y="566.00" text-anchor="middle" font-family="sans-serif" font-size="11" fill="#444">Nov</text>
<text x="1124.17" y="566.00" text-anchor="middle" font-family="sans-serif" font-size="11" fill="#444">Dec</text>
<line x1="70" y1="550" x2="1170" y2="550" stroke="#888"/>
<line x1="70" y1="25" x2="70" y2="550" stroke="#888"/>
<line x1="70.72" y1="550.00" x2="70.72" y2="556.00" stroke="#888"/>
<line x1="1164.27"   y1="550.00" x2="1164.27"   y2="556.00" stroke="#888"/>
<text x="70.72" y="582.00" text-anchor="start" font-family="sans-serif" font-size="11" fill="#333">Initial Balance: 166636</text>
<text x="1164.27"   y="582.00" text-anchor="end"   font-family="sans-serif" font-size="11" fill="#333">Ending Balance: 220205</text>
<path d="M 77.88 150.28 L 79.31 150.28 L 80.74 150.28 L 82.17 150.28 L 83.61 150.28 L 85.04 150.28 L 86.47 150.28 L 87.90 150.28 L 89.34 150.28 L 90.77 150.28 L 92.20 150.28 L 93.63 150.28 L 93.63 152.15 L 92.20 154.63 L 90.77 157.92 L 89.34 160.82 L 87.90 161.72 L 86.47 155.73 L 85.04 158.63 L 83.61 161.80 L 82.17 165.00 L 80.74 168.20 L 79.31 162.31 L 77.88 156.35 Z" fill="#d0d0d0" fill-opacity="0.5" stroke="none"/>
<path d="M 113.68 118.94 L 115.12 118.94 L 115.12 119.18 L 113.68 120.23 Z" fill="#d0d0d0" fill-opacity="0.5" stroke="none"/>
<path d="M 120.85 108.90 L 122.28 108.90 L 123.71 108.90 L 125.14 108.90 L 126.58 108.90 L 128.01 108.90 L 128.01 110.59 L 126.58 114.18 L 125.14 117.78 L 123.71 118.96 L 122.28 112.33 L 120.85 115.57 Z" fill="#d0d0d0" fill-opacity="0.5" stroke="none"/>
<path d="M 133.74 102.71 L 135.17 102.71 L 136.60 102.71 L 138.03 102.71 L 139.47 102.71 L 140.90 102.71 L 142.33 102.71 L 143.76 102.71 L 145.20 102.71 L 146.63 102.71 L 148.06 102.71 L 149.49 102.71 L 150.92 102.71 L 150.92 105.09 L 149.49 108.76 L 148.06 112.37 L 146.63 114.74 L 145.20 118.34 L 143.76 120.49 L 142.33 113.88 L 140.90 117.37 L 139.47 110.76 L 138.03 113.61 L 136.60 117.03 L 135.17 110.38 L 133.74 109.47 Z" fill="#d0d0d0" fill-opacity="0.5" stroke="none"/>
<path d="M 155.22 99.54 L 156.65 99.54 L 158.09 99.54 L 159.52 99.54 L 160.95 99.54 L 162.98 99.54 L 165.60 99.54 L 168.21 99.54 L 170.83 99.54 L 173.45 99.54 L 173.45 101.60 L 170.83 104.46 L 168.21 107.72 L 165.60 109.54 L 162.98 102.79 L 160.95 106.12 L 159.52 109.75 L 158.09 110.94 L 156.65 113.00 L 155.22 106.34 Z" fill="#d0d0d0" fill-opacity="0.5" stroke="none"/>
<path d="M 181.31 95.41 L 183.93 95.41 L 186.55 95.41 L 189.17 95.41 L 191.79 95.41 L 194.40 95.41 L 197.02 95.41 L 199.64 95.41 L 202.26 95.41 L 204.88 95.41 L 207.50 95.41 L 210.12 95.41 L 210.12 97.76 L 207.50 101.45 L 204.88 101.83 L 202.26 105.20 L 199.64 108.62 L 197.02 111.04 L 194.40 104.35 L 191.79 108.16 L 189.17 101.38 L 186.55 103.69 L 183.93 104.22 L 181.31 97.39 Z" fill="#d0d0d0" fill-opacity="0.5" stroke="none"/>
<path d="M 231.07 79.63 L 233.69 79.63 L 236.31 79.63 L 238.93 79.63 L 241.55 79.63 L 244.17 79.63 L 246.79 79.63 L 249.40 79.63 L 252.02 79.63 L 254.64 79.63 L 257.26 79.63 L 259.88 79.63 L 262.50 79.63 L 265.12 79.63 L 267.74 79.63 L 270.36 79.63 L 272.98 79.63 L 275.60 79.63 L 278.21 79.63 L 280.83 79.63 L 283.45 79.63 L 286.07 79.63 L 288.69 79.63 L 291.31 79.63 L 293.93 79.63 L 296.55 79.63 L 299.17 79.63 L 301.79 79.63 L 304.40 79.63 L 307.02 79.63 L 309.64 79.63 L 312.26 79.63 L 314.88 79.63 L 317.50 79.63 L 320.12 79.63 L 322.74 79.63 L 325.36 79.63 L 327.98 79.63 L 330.60 79.63 L 333.21 79.63 L 335.83 79.63 L 338.45 79.63 L 341.07 79.63 L 343.69 79.63 L 347.29 79.63 L 351.88 79.63 L 356.46 79.63 L 361.04 79.63 L 365.62 79.63 L 370.21 79.63 L 374.79 79.63 L 379.38 79.63 L 383.96 79.63 L 388.54 79.63 L 393.12 79.63 L 397.71 79.63 L 402.29 79.63 L 406.88 79.63 L 411.46 79.63 L 416.04 79.63 L 420.62 79.63 L 425.21 79.63 L 429.79 79.63 L 434.38 79.63 L 440.19 79.63 L 447.24 79.63 L 454.29 79.63 L 461.35 79.63 L 468.40 79.63 L 475.45 79.63 L 482.50 79.63 L 489.55 79.63 L 496.60 79.63 L 496.60 80.63 L 489.55 82.58 L 482.50 86.43 L 475.45 90.26 L 468.40 93.59 L 461.35 97.36 L 454.29 101.10 L 447.24 104.82 L 440.19 107.17 L 434.38 110.34 L 429.79 113.99 L 425.21 107.27 L 420.62 105.56 L 416.04 107.81 L 411.46 109.17 L 406.88 112.02 L 402.29 114.43 L 397.71 107.72 L 393.12 111.37 L 388.54 109.27 L 383.96 112.19 L 379.38 114.70 L 374.79 108.00 L 370.21 108.85 L 365.62 112.50 L 361.04 115.08 L 356.46 115.98 L 351.88 118.72 L 347.29 121.91 L 343.69 125.47 L 341.07 127.43 L 338.45 130.60 L 335.83 133.24 L 333.21 126.83 L 330.60 120.30 L 327.98 123.11 L 325.36 124.86 L 322.74 128.17 L 320.12 121.66 L 317.50 122.13 L 314.88 123.97 L 312.26 124.84 L 309.64 118.28 L 307.02 121.59 L 304.40 123.95 L 301.79 117.42 L 299.17 110.76 L 296.55 114.22 L 293.93 107.51 L 291.31 110.58 L 288.69 113.81 L 286.07 114.60 L 283.45 115.69 L 280.83 118.31 L 278.21 121.07 L 275.60 121.75 L 272.98 115.14 L 270.36 117.75 L 267.74 116.51 L 265.12 109.83 L 262.50 111.80 L 259.88 114.15 L 257.26 107.45 L 254.64 109.53 L 252.02 112.39 L 249.40 105.66 L 246.79 98.84 L 244.17 101.36 L 241.55 103.60 L 238.93 107.28 L 236.31 100.52 L 233.69 93.63 L 231.07 86.65 Z" fill="#d0d0d0" fill-opacity="0.5" stroke="none"/>
<path d="M 510.71 78.18 L 517.76 78.18 L 524.81 78.18 L 531.61 78.18 L 538.15 78.18 L 544.70 78.18 L 551.25 78.18 L 557.80 78.18 L 564.35 78.18 L 570.89 78.18 L 577.44 78.18 L 583.99 78.18 L 590.54 78.18 L 597.08 78.18 L 603.63 78.18 L 610.18 78.18 L 616.73 78.18 L 625.09 78.18 L 635.28 78.18 L 645.46 78.18 L 645.46 80.07 L 635.28 80.78 L 625.09 82.82 L 616.73 86.69 L 610.18 86.49 L 603.63 90.34 L 597.08 91.92 L 590.54 92.84 L 583.99 94.67 L 577.44 98.07 L 570.89 101.54 L 564.35 94.65 L 557.80 97.76 L 551.25 90.83 L 544.70 94.64 L 538.15 96.65 L 531.61 99.06 L 524.81 92.15 L 517.76 85.14 L 510.71 85.28 Z" fill="#d0d0d0" fill-opacity="0.5" stroke="none"/>
<path d="M 696.39 69.78 L 706.57 69.78 L 726.94 69.78 L 757.50 69.78 L 757.50 70.54 L 726.94 74.50 L 706.57 76.99 L 696.39 76.98 Z" fill="#d0d0d0" fill-opacity="0.5" stroke="none"/>
<path d="M 809.06 69.00 L 820.52 69.00 L 831.98 69.00 L 843.44 69.00 L 843.44 69.20 L 831.98 70.03 L 820.52 73.97 L 809.06 76.20 Z" fill="#d0d0d0" fill-opacity="0.5" stroke="none"/>
<path d="M 877.81 61.73 L 889.27 61.73 L 901.55 61.73 L 914.64 61.73 L 914.64 63.87 L 901.55 67.30 L 889.27 66.51 L 877.81 68.97 Z" fill="#d0d0d0" fill-opacity="0.5" stroke="none"/>
<path d="M 1055.42 37.51 L 1070.69 37.51 L 1084.06 37.51 L 1084.06 39.62 L 1070.69 43.49 L 1055.42 45.11 Z" fill="#d0d0d0" fill-opacity="0.5" stroke="none"/>
<path d="M 1152.81 25.00 L 1164.27 25.00 L 1164.27 32.50 L 1152.81 32.75 Z" fill="#d0d0d0" fill-opacity="0.5" stroke="none"/>
<polyline fill="none" stroke="#111" stroke-width="1.2" points="70.72,158.39 72.15,158.05 73.58,156.65 75.01,153.61 76.45,150.28 77.88,156.35 79.31,162.31 80.74,168.20 82.17,165.00 83.61,161.80 85.04,158.63 86.47,155.73 87.90,161.72 89.34,160.82 90.77,157.92 92.20,154.63 93.63,152.15 95.07,150.15 96.50,146.63 97.93,146.46 99.36,143.07 100.79,139.65 102.23,136.72 103.66,134.50 105.09,131.80 106.52,128.65 107.96,125.39 109.39,122.38 110.82,119.30 112.25,118.94 113.68,120.23 115.12,119.18 116.55,115.83 117.98,112.55 119.41,108.90 120.85,115.57 122.28,112.33 123.71,118.96 125.14,117.78 126.58,114.18 128.01,110.59 129.44,108.22 130.87,104.89 132.30,102.71 133.74,109.47 135.17,110.38 136.60,117.03 138.03,113.61 139.47,110.76 140.90,117.37 142.33,113.88 143.76,120.49 145.20,118.34 146.63,114.74 148.06,112.37 149.49,108.76 150.92,105.09 152.36,101.42 153.79,99.54 155.22,106.34 156.65,113.00 158.09,110.94 159.52,109.75 160.95,106.12 162.98,102.79 165.60,109.54 168.21,107.72 170.83,104.46 173.45,101.60 176.07,98.61 178.69,95.41 181.31,97.39 183.93,104.22 186.55,103.69 189.17,101.38 191.79,108.16 194.40,104.35 197.02,111.04 199.64,108.62 202.26,105.20 204.88,101.83 207.50,101.45 210.12,97.76 212.74,94.04 215.36,93.35 217.98,89.88 220.60,88.89 223.21,86.66 225.83,83.63 228.45,79.63 231.07,86.65 233.69,93.63 236.31,100.52 238.93,107.28 241.55,103.60 244.17,101.36 246.79,98.84 249.40,105.66 252.02,112.39 254.64,109.53 257.26,107.45 259.88,114.15 262.50,111.80 265.12,109.83 267.74,116.51 270.36,117.75 272.98,115.14 275.60,121.75 278.21,121.07 280.83,118.31 283.45,115.69 286.07,114.60 288.69,113.81 291.31,110.58 293.93,107.51 296.55,114.22 299.17,110.76 301.79,117.42 304.40,123.95 307.02,121.59 309.64,118.28 312.26,124.84 314.88,123.97 317.50,122.13 320.12,121.66 322.74,128.17 325.36,124.86 327.98,123.11 330.60,120.30 333.21,126.83 335.83,133.24 338.45,130.60 341.07,127.43 343.69,125.47 347.29,121.91 351.88,118.72 356.46,115.98 361.04,115.08 365.62,112.50 370.21,108.85 374.79,108.00 379.38,114.70 383.96,112.19 388.54,109.27 393.12,111.37 397.71,107.72 402.29,114.43 406.88,112.02 411.46,109.17 416.04,107.81 420.62,105.56 425.21,107.27 429.79,113.99 434.38,110.34 440.19,107.17 447.24,104.82 454.29,101.10 461.35,97.36 468.40,93.59 475.45,90.26 482.50,86.43 489.55,82.58 496.60,80.63 503.65,78.18 510.71,85.28 517.76,85.14 524.81,92.15 531.61,99.06 538.15,96.65 544.70,94.64 551.25,90.83 557.80,97.76 564.35,94.65 570.89,101.54 577.44,98.07 583.99,94.67 590.54,92.84 597.08,91.92 603.63,90.34 610.18,86.49 616.73,86.69 625.09,82.82 635.28,80.78 645.46,80.07 655.65,76.18 665.83,73.87 676.02,70.29 686.20,69.78 696.39,76.98 706.57,76.99 726.94,74.50 757.50,70.54 788.06,69.00 809.06,76.20 820.52,73.97 831.98,70.03 843.44,69.20 854.90,65.90 866.35,61.73 877.81,68.97 889.27,66.51 901.55,67.30 914.64,63.87 927.74,60.52 940.83,58.27 953.93,56.31 967.02,53.07 980.12,49.86 994.31,47.58 1009.58,43.42 1024.86,40.52 1040.14,37.51 1055.42,45.11 1070.69,43.49 1084.06,39.62 1095.52,37.46 1106.98,34.11 1118.44,31.07 1129.90,27.20 1141.35,25.00 1152.81,32.75 1164.27,32.50"/>
<text x="620.0" y="588" text-anchor="middle" font-family="sans-serif" font-size="12" fill="#333">Monthly Balance Curve</text>
<text x="15" y="287.5" transform="rotate(-90 15,287.5)" text-anchor="middle" font-family="sans-serif" font-size="12" fill="#333">Capital</text>
</svg>