<svg xmlns="http://www.w3.org/2000/svg" width="1200" height="600" viewBox="0 0 1200 600">
<desc>Equity curve with drawdown fill; x-axis is months only (no exact timestamps)</desc>
<text x="600.0" y="18.0" text-anchor="middle" font-family="sans-serif" font-size="14">Portfolio 2008 (UTC)</text>
<rect x="70" y="25" width="1100" height="525" fill="white" stroke="#ccc" />
<line x1="70" y1="550.00" x2="1170" y2="550.00" stroke="#eee"/>
<text x="62" y="554.0" text-anchor="end" font-family="sans-serif" font-size="11" fill="#555">0.00</text>
<line x1="70" y1="445.00" x2="1170" y2="445.00" stroke="#eee"/>
<text x="62" y="449.0" text-anchor="end" font-family="sans-serif" font-size="11" fill="#555">33592</text>
<line x1="70" y1="340.00" x2="1170" y2="340.00" stroke="#eee"/>
<text x="62" y="344.0" text-anchor="end" font-family="sans-serif" font-size="11" fill="#555">67184</text>
<line x1="70" y1="235.00" x2="1170" y2="235.00" stroke="#eee"/>
<text x="62" y="239.0" text-anchor="end" font-family="sans-serif" font-size="11" fill="#555">100776</text>
<line x1="70" y1="130.00" x2="1170" y2="130.00" stroke="#eee"/>
<text x="62" y="134.0" text-anchor="end" font-family="sans-serif" font-size="11" fill="#555">134368</text>
<line x1="70" y1="25.00" x2="1170" y2="25.00" stroke="#eee"/>
<text x="62" y="29.0" text-anchor="end" font-family="sans-serif" font-size="11" fill="#555">167959</text>
<line x1="161.67" y1="25" x2="161.67" y2="550" stroke="#f2f2f2"/>
<line x1="253.33" y1="25" x2="253.33" y2="550" stroke="#f2f2f2"/>
<line x1="345.00" y1="25" x2="345.00" y2="550" stroke="#f2f2f2"/>
<line x1="436.67" y1="25" x2="436.67" y2="550" stroke="#f2f2f2"/>
<line x1="528.33" y1="25" x2="528.33" y2="550" stroke="#f2f2f2"/>
<line x1="620.00" y1="25" x2="620.00" y2="550" stroke="#f2f2f2"/>
<line x1="711.67" y1="25" x2="711.67" y2="550" stroke="#f2f2f2"/>
<line x1="803.33" y1="25" x2="803.33" y2="550" stroke="#f2f2f2"/>
<line x1="895.00" y1="25" x2="895.00" y2="550" stroke="#f2f2f2"/>
<line x1="986.67" y1="25" x2="986.67" y2="550" stroke="#f2f2f2"/>
<line x1="1078.33" y1="25" x2="1078.33" y2="550" stroke="#f2f2f2"/>
<text x="115.83" y="566.00" text-anchor="middle" font-family="sans-serif" font-size="11" fill="#444">Jan</text>
<text x="207.50" y="566.00" text-anchor="middle" font-family="sans-serif" font-size="11" fill="#444">Feb</text>
<text x="299.17" y="566.00" text-anchor="middle" font-family="sans-serif" font-size="11" fill="#444">Mar</text>
<text x="390.83" y="566.00" text-anchor="middle" font-family="sans-serif" font-size="11" fill="#444">Apr</text>
<text x="482.50" y="566.00" text-anchor="middle" font-family="sans-serif" font-size="11" fill="#444">May</text>
<text x="574.17" y="566.00" text-anchor="middle" font-family="sans-serif" font-size="11" fill="#444">Jun</text>
<text x="665.83" y="566.00" text-anchor="middle" font-family="sans-serif" font-size="11" fill="#444">Jul</text>
<text x="757.50" y="566.00" text-anchor="middle" font-family="sans-serif" font-size="11" fill="#444">Aug</text>
<text x="849.17" y="566.00" text-anchor="middle" font-family="sans-serif" font-size="11" fill="#444">Sep</text>
<text x="940.83" y="566.00" text-anchor="middle" font-family="sans-serif" font-size="11" fill="#444">Oct</text>
<text x="1032.50" y="566.00" text-anchor="middle" font-family="sans-serif" font-size="11" fill="#444">Nov</text>
<text x="1124.17" y="566.00" text-anchor="middle" font-family="sans-serif" font-size="11" fill="#444">Dec</text>
<line x1="70" y1="550" x2="1170" y2="550" stroke="#888"/>
<line x1="70" y1="25" x2="70" y2="550" stroke="#888"/>
<line x1="74.58" y1="550.00" x2="74.58" y2="556.00" stroke="#888"/>
<line x1="1169.08"   y1="550.00" x2="1169.08"   y2="556.00" stroke="#888"/>
<text x="74.58" y="582.00" text-anchor="start" font-family="sans-serif" font-size="11" fill="#333">Initial Balance: 131524</text>
<text x="1169.08"   y="582.00" text-anchor="end"   font-family="sans-serif" font-size="11" fill="#333">Ending Balance: 166636</text>
<path d="M 157.08 118.42 L 184.58 118.42 L 230.42 118.42 L 230.42 120.43 L 184.58 122.84 L 157.08 124.87 Z" fill="#d0d0d0" fill-opacity="0.5" stroke="none"/>
<path d="M 272.43 115.65 L 280.07 115.65 L 287.71 115.65 L 287.71 116.62 L 280.07 119.46 L 272.43 122.23 Z" fill="#d0d0d0" fill-opacity="0.5" stroke="none"/>
<path d="M 310.62 112.26 L 318.26 112.26 L 325.90 112.26 L 333.54 112.26 L 341.18 112.26 L 348.82 112.26 L 356.46 112.26 L 364.10 112.26 L 371.74 112.26 L 379.38 112.26 L 387.01 112.26 L 394.65 112.26 L 402.29 112.26 L 409.93 112.26 L 417.57 112.26 L 425.21 112.26 L 432.85 112.26 L 459.58 112.26 L 505.42 112.26 L 535.97 112.26 L 551.25 112.26 L 566.53 112.26 L 581.81 112.26 L 597.08 112.26 L 612.36 112.26 L 629.17 112.26 L 647.50 112.26 L 665.83 112.26 L 684.17 112.26 L 702.50 112.26 L 718.21 112.26 L 718.21 113.52 L 702.50 117.19 L 684.17 116.76 L 665.83 117.08 L 647.50 120.39 L 629.17 123.25 L 612.36 126.86 L 597.08 120.34 L 581.81 122.48 L 566.53 123.28 L 551.25 126.14 L 535.97 129.71 L 505.42 132.68 L 459.58 135.51 L 432.85 138.28 L 425.21 140.95 L 417.57 134.65 L 409.93 135.27 L 402.29 136.85 L 394.65 130.48 L 387.01 124.02 L 379.38 127.28 L 371.74 128.76 L 364.10 127.41 L 356.46 124.80 L 348.82 128.12 L 341.18 121.62 L 333.54 121.83 L 325.90 123.51 L 318.26 116.95 L 310.62 118.88 Z" fill="#d0d0d0" fill-opacity="0.5" stroke="none"/>
<path d="M 816.29 81.28 L 818.28 81.28 L 820.27 81.28 L 822.26 81.28 L 824.26 81.28 L 826.25 81.28 L 828.24 81.28 L 830.24 81.28 L 832.23 81.28 L 834.22 81.28 L 836.21 81.28 L 838.21 81.28 L 840.20 81.28 L 842.19 81.28 L 844.18 81.28 L 846.18 81.28 L 848.17 81.28 L 850.16 81.28 L 852.16 81.28 L 854.15 81.28 L 856.14 81.28 L 858.13 81.28 L 860.13 81.28 L 862.12 81.28 L 864.11 81.28 L 866.11 81.28 L 868.10 81.28 L 870.09 81.28 L 872.08 81.28 L 874.08 81.28 L 876.07 81.28 L 878.06 81.28 L 880.05 81.28 L 882.05 81.28 L 884.04 81.28 L 886.03 81.28 L 888.03 81.28 L 890.02 81.28 L 892.01 81.28 L 894.00 81.28 L 895.54 81.28 L 896.62 81.28 L 897.70 81.28 L 898.77 81.28 L 899.85 81.28 L 900.93 81.28 L 902.01 81.28 L 903.09 81.28 L 904.17 81.28 L 905.25 81.28 L 906.32 81.28 L 907.40 81.28 L 908.48 81.28 L 909.56 81.28 L 910.64 81.28 L 911.72 81.28 L 912.79 81.28 L 913.87 81.28 L 914.95 81.28 L 916.03 81.28 L 917.11 81.28 L 918.19 81.28 L 919.26 81.28 L 920.34 81.28 L 921.42 81.28 L 922.50 81.28 L 923.58 81.28 L 924.66 81.28 L 925.74 81.28 L 926.81 81.28 L 927.89 81.28 L 928.97 81.28 L 930.05 81.28 L 931.13 81.28 L 932.21 81.28 L 933.28 81.28 L 934.36 81.28 L 935.44 81.28 L 936.52 81.28 L 937.60 81.28 L 938.68 81.28 L 939.75 81.28 L 940.83 81.28 L 941.91 81.28 L 942.99 81.28 L 944.07 81.28 L 945.15 81.28 L 946.23 81.28 L 947.30 81.28 L 948.38 81.28 L 949.46 81.28 L 950.54 81.28 L 951.62 81.28 L 952.70 81.28 L 953.77 81.28 L 954.85 81.28 L 955.93 81.28 L 957.01 81.28 L 958.09 81.28 L 959.17 81.28 L 960.25 81.28 L 961.32 81.28 L 962.40 81.28 L 963.48 81.28 L 964.56 81.28 L 965.64 81.28 L 966.72 81.28 L 967.79 81.28 L 968.87 81.28 L 969.95 81.28 L 971.03 81.28 L 972.11 81.28 L 973.19 81.28 L 974.26 81.28 L 975.34 81.28 L 976.42 81.28 L 977.50 81.28 L 978.58 81.28 L 979.66 81.28 L 980.74 81.28 L 981.81 81.28 L 982.89 81.28 L 983.97 81.28 L 985.05 81.28 L 986.13 81.28 L 987.76 81.28 L 989.94 81.28 L 992.12 81.28 L 994.31 81.28 L 996.49 81.28 L 998.67 81.28 L 1000.85 81.28 L 1003.04 81.28 L 1005.22 81.28 L 1007.40 81.28 L 1009.58 81.28 L 1011.77 81.28 L 1013.95 81.28 L 1016.13 81.28 L 1018.31 81.28 L 1020.50 81.28 L 1022.68 81.28 L 1024.86 81.28 L 1027.04 81.28 L 1029.23 81.28 L 1031.41 81.28 L 1033.59 81.28 L 1035.77 81.28 L 1037.96 81.28 L 1040.14 81.28 L 1042.32 81.28 L 1044.50 81.28 L 1046.69 81.28 L 1048.87 81.28 L 1051.05 81.28 L 1053.23 81.28 L 1055.42 81.28 L 1057.60 81.28 L 1059.78 81.28 L 1061.96 81.28 L 1064.15 81.28 L 1066.33 81.28 L 1066.33 83.74 L 1064.15 85.94 L 1061.96 88.99 L 1059.78 91.64 L 1057.60 94.93 L 1055.42 87.93 L 1053.23 91.45 L 1051.05 94.94 L 1048.87 97.70 L 1046.69 101.12 L 1044.50 104.83 L 1042.32 108.03 L 1040.14 101.18 L 1037.96 103.91 L 1035.77 106.64 L 1033.59 109.64 L 1031.41 111.72 L 1029.23 113.77 L 1027.04 115.62 L 1024.86 118.93 L 1022.68 122.49 L 1020.50 125.45 L 1018.31 126.98 L 1016.13 130.51 L 1013.95 134.07 L 1011.77 134.43 L 1009.58 127.97 L 1007.40 131.49 L 1005.22 134.50 L 1003.04 128.05 L 1000.85 121.50 L 998.67 120.86 L 996.49 123.16 L 994.31 126.36 L 992.12 129.12 L 989.94 129.50 L 987.76 122.97 L 986.13 122.99 L 985.05 126.37 L 983.97 119.84 L 982.89 113.17 L 981.81 116.65 L 980.74 116.30 L 979.66 109.58 L 978.58 111.38 L 977.50 113.90 L 976.42 114.61 L 975.34 117.62 L 974.26 110.99 L 973.19 104.23 L 972.11 97.34 L 971.03 99.62 L 969.95 102.84 L 968.87 106.30 L 967.79 105.90 L 966.72 99.03 L 965.64 99.66 L 964.56 103.14 L 963.48 96.28 L 962.40 100.02 L 961.32 103.14 L 960.25 106.83 L 959.17 110.24 L 958.09 112.79 L 957.01 106.02 L 955.93 109.70 L 954.85 113.19 L 953.77 106.43 L 952.70 109.19 L 951.62 112.85 L 950.54 115.42 L 949.46 116.15 L 948.38 109.44 L 947.30 112.48 L 946.23 113.49 L 945.15 117.11 L 944.07 120.71 L 942.99 123.76 L 941.91 117.25 L 940.83 120.65 L 939.75 123.89 L 938.68 117.35 L 937.60 110.70 L 936.52 114.32 L 935.44 107.59 L 934.36 110.87 L 933.28 111.04 L 932.21 114.30 L 931.13 117.15 L 930.05 119.83 L 928.97 121.42 L 927.89 114.79 L 926.81 116.53 L 925.74 119.45 L 924.66 118.86 L 923.58 122.43 L 922.50 125.97 L 921.42 119.45 L 920.34 112.79 L 919.26 114.87 L 918.19 108.15 L 917.11 101.37 L 916.03 94.46 L 914.95 96.89 L 913.87 100.62 L 912.79 101.76 L 911.72 100.33 L 910.64 103.67 L 909.56 107.06 L 908.48 110.40 L 907.40 113.16 L 906.32 116.23 L 905.25 119.00 L 904.17 112.34 L 903.09 115.98 L 902.01 119.60 L 900.93 123.17 L 899.85 126.51 L 898.77 130.02 L 897.70 123.57 L 896.62 116.98 L 895.54 117.15 L 894.00 120.78 L 892.01 123.16 L 890.02 116.57 L 888.03 110.03 L 886.03 113.91 L 884.04 117.57 L 882.05 110.90 L 880.05 104.13 L 878.06 106.97 L 876.07 109.47 L 874.08 110.60 L 872.08 111.29 L 870.09 114.21 L 868.10 115.85 L 866.11 109.16 L 864.11 112.22 L 862.12 115.39 L 860.13 108.68 L 858.13 111.65 L 856.14 104.94 L 854.15 107.95 L 852.16 101.19 L 850.16 94.29 L 848.17 96.89 L 846.18 89.93 L 844.18 82.87 L 842.19 85.81 L 840.20 87.48 L 838.21 90.65 L 836.21 92.29 L 834.22 85.27 L 832.23 89.14 L 830.24 89.91 L 828.24 82.86 L 826.25 86.04 L 824.26 88.74 L 822.26 81.67 L 820.27 81.88 L 818.28 85.41 L 816.29 88.35 Z" fill="#d0d0d0" fill-opacity="0.5" stroke="none"/>
<path d="M 1077.24 72.45 L 1079.25 72.45 L 1081.08 72.45 L 1081.08 73.06 L 1079.25 76.96 L 1077.24 79.64 Z" fill="#d0d0d0" fill-opacity="0.5" stroke="none"/>
<path d="M 1086.58 68.95 L 1088.42 68.95 L 1090.25 68.95 L 1092.08 68.95 L 1093.92 68.95 L 1095.75 68.95 L 1097.58 68.95 L 1099.42 68.95 L 1101.25 68.95 L 1101.25 69.83 L 1099.42 73.00 L 1097.58 76.61 L 1095.75 75.82 L 1093.92 79.39 L 1092.08 81.61 L 1090.25 83.49 L 1088.42 76.30 L 1086.58 76.19 Z" fill="#d0d0d0" fill-opacity="0.5" stroke="none"/>
<path d="M 1114.08 55.67 L 1115.92 55.67 L 1117.75 55.67 L 1119.58 55.67 L 1121.42 55.67 L 1123.25 55.67 L 1125.08 55.67 L 1126.92 55.67 L 1128.75 55.67 L 1130.58 55.67 L 1132.42 55.67 L 1134.25 55.67 L 1136.08 55.67 L 1136.08 57.13 L 1134.25 60.68 L 1132.42 63.89 L 1130.58 67.93 L 1128.75 71.01 L 1126.92 63.66 L 1125.08 66.94 L 1123.25 69.09 L 1121.42 70.82 L 1119.58 73.93 L 1117.75 77.73 L 1115.92 70.47 L 1114.08 63.12 Z" fill="#d0d0d0" fill-opacity="0.5" stroke="none"/>
<path d="M 1139.75 54.58 L 1141.58 54.58 L 1141.58 58.51 L 1139.75 62.05 Z" fill="#d0d0d0" fill-opacity="0.5" stroke="none"/>
<path d="M 1156.25 36.86 L 1158.08 36.86 L 1158.08 40.50 L 1156.25 44.55 Z" fill="#d0d0d0" fill-opacity="0.5" stroke="none"/>
<path d="M 1167.25 25.00 L 1169.08 25.00 L 1169.08 29.14 L 1167.25 32.79 Z" fill="#d0d0d0" fill-opacity="0.5" stroke="none"/>
<polyline fill="none" stroke="#111" stroke-width="1.2" points="74.58,138.89 83.75,136.03 92.92,132.53 102.08,129.82 111.25,126.55 120.42,125.65 129.58,125.43 138.75,122.15 147.92,118.42 157.08,124.87 184.58,122.84 230.42,120.43 257.15,118.02 264.79,115.65 272.43,122.23 280.07,119.46 287.71,116.62 295.35,115.28 302.99,112.26 310.62,118.88 318.26,116.95 325.90,123.51 333.54,121.83 341.18,121.62 348.82,128.12 356.46,124.80 364.10,127.41 371.74,128.76 379.38,127.28 387.01,124.02 394.65,130.48 402.29,136.85 409.93,135.27 417.57,134.65 425.21,140.95 432.85,138.28 459.58,135.51 505.42,132.68 535.97,129.71 551.25,126.14 566.53,123.28 581.81,122.48 597.08,120.34 612.36,126.86 629.17,123.25 647.50,120.39 665.83,117.08 684.17,116.76 702.50,117.19 718.21,113.52 731.31,109.65 744.40,107.45 757.50,104.78 770.60,102.69 783.69,99.93 796.79,97.50 804.33,97.31 806.32,93.51 808.32,92.08 810.31,88.24 812.30,84.53 814.29,81.28 816.29,88.35 818.28,85.41 820.27,81.88 822.26,81.67 824.26,88.74 826.25,86.04 828.24,82.86 830.24,89.91 832.23,89.14 834.22,85.27 836.21,92.29 838.21,90.65 840.20,87.48 842.19,85.81 844.18,82.87 846.18,89.93 848.17,96.89 850.16,94.29 852.16,101.19 854.15,107.95 856.14,104.94 858.13,111.65 860.13,108.68 862.12,115.39 864.11,112.22 866.11,109.16 868.10,115.85 870.09,114.21 872.08,111.29 874.08,110.60 876.07,109.47 878.06,106.97 880.05,104.13 882.05,110.90 884.04,117.57 886.03,113.91 888.03,110.03 890.02,116.57 892.01,123.16 894.00,120.78 895.54,117.15 896.62,116.98 897.70,123.57 898.77,130.02 899.85,126.51 900.93,123.17 902.01,119.60 903.09,115.98 904.17,112.34 905.25,119.00 906.32,116.23 907.40,113.16 908.48,110.40 909.56,107.06 910.64,103.67 911.72,100.33 912.79,101.76 913.87,100.62 914.95,96.89 916.03,94.46 917.11,101.37 918.19,108.15 919.26,114.87 920.34,112.79 921.42,119.45 922.50,125.97 923.58,122.43 924.66,118.86 925.74,119.45 926.81,116.53 927.89,114.79 928.97,121.42 930.05,119.83 931.13,117.15 932.21,114.30 933.28,111.04 934.36,110.87 935.44,107.59 936.52,114.32 937.60,110.70 938.68,117.35 939.75,123.89 940.83,120.65 941.91,117.25 942.99,123.76 944.07,120.71 945.15,117.11 946.23,113.49 947.30,112.48 948.38,109.44 949.46,116.15 950.54,115.42 951.62,112.85 952.70,109.19 953.77,106.43 954.85,113.19 955.93,109.70 957.01,106.02 958.09,112.79 959.17,110.24 960.25,106.83 961.32,103.14 962.40,100.02 963.48,96.28 964.56,103.14 965.64,99.66 966.72,99.03 967.79,105.90 968.87,106.30 969.95,102.84 971.03,99.62 972.11,97.34 973.19,104.23 974.26,110.99 975.34,117.62 976.42,114.61 977.50,113.90 978.58,111.38 979.66,109.58 980.74,116.30 981.81,116.65 982.89,113.17 983.97,119.84 985.05,126.37 986.13,122.99 987.76,122.97 989.94,129.50 992.12,129.12 994.31,126.36 996.49,123.16 998.67,120.86 1000.85,121.50 1003.04,128.05 1005.22,134.50 1007.40,131.49 1009.58,127.97 1011.77,134.43 1013.95,134.07 1016.13,130.51 1018.31,126.98 1020.50,125.45 1022.68,122.49 1024.86,118.93 1027.04,115.62 1029.23,113.77 1031.41,111.72 1033.59,109.64 1035.77,106.64 1037.96,103.91 1040.14,101.18 1042.32,108.03 1044.50,104.83 1046.69,101.12 1048.87,97.70 1051.05,94.94 1053.23,91.45 1055.42,87.93 1057.60,94.93 1059.78,91.64 1061.96,88.99 1064.15,85.94 1066.33,83.74 1068.51,81.18 1070.69,80.24 1072.88,76.36 1075.06,72.45 1077.24,79.64 1079.25,76.96 1081.08,73.06 1082.92,71.16 1084.75,68.95 1086.58,76.19 1088.42,76.30 1090.25,83.49 1092.08,81.61 1093.92,79.39 1095.75,75.82 1097.58,76.61 1099.42,73.00 1101.25,69.83 1103.08,65.87 1104.92,62.53 1106.75,61.53 1108.58,60.66 1110.42,59.02 1112.25,55.67 1114.08,63.12 1115.92,70.47 1117.75,77.73 1119.58,73.93 1121.42,70.82 1123.25,69.09 1125.08,66.94 1126.92,63.66 1128.75,71.01 1130.58,67.93 1132.42,63.89 1134.25,60.68 1136.08,57.13 1137.92,54.58 1139.75,62.05 1141.58,58.51 1143.42,54.41 1145.25,50.62 1147.08,48.40 1148.92,44.91 1150.75,41.44 1152.58,39.63 1154.42,36.86 1156.25,44.55 1158.08,40.50 1159.92,36.27 1161.75,32.42 1163.58,29.31 1165.42,25.00 1167.25,32.79 1169.08,29.14"/>
<text x="620.0" y="588" text-anchor="middle" font-family="sans-serif" font-size="12" fill="#333">Monthly Balance Curve</text>
<text x="15" y="287.5" transform="rotate(-90 15,287.5)" text-anchor="middle" font-family="sans-serif" font-size="12" fill="#333">Capital</text>
</svg>