<svg xmlns="http://www.w3.org/2000/svg" width="1200" height="600" viewBox="0 0 1200 600">
<desc>Equity curve with drawdown fill</desc>
<text x="600.0" y="18.0" text-anchor="middle" font-family="sans-serif" font-size="14">Portfolio 2010</text>
<rect x="70" y="25" width="1100" height="525" fill="white" stroke="#ccc" />
<line x1="70" y1="550.00" x2="1170" y2="550.00" stroke="#eee"/>
<text x="62" y="554.0" text-anchor="end" font-family="sans-serif" font-size="11" fill="#555">0.00</text>
<line x1="70" y1="445.00" x2="1170" y2="445.00" stroke="#eee"/>
<text x="62" y="449.0" text-anchor="end" font-family="sans-serif" font-size="11" fill="#555">32444</text>
<line x1="70" y1="340.00" x2="1170" y2="340.00" stroke="#eee"/>
<text x="62" y="344.0" text-anchor="end" font-family="sans-serif" font-size="11" fill="#555">64889</text>
<line x1="70" y1="235.00" x2="1170" y2="235.00" stroke="#eee"/>
<text x="62" y="239.0" text-anchor="end" font-family="sans-serif" font-size="11" fill="#555">97333</text>
<line x1="70" y1="130.00" x2="1170" y2="130.00" stroke="#eee"/>
<text x="62" y="134.0" text-anchor="end" font-family="sans-serif" font-size="11" fill="#555">129778</text>
<line x1="70" y1="25.00" x2="1170" y2="25.00" stroke="#eee"/>
<text x="62" y="29.0" text-anchor="end" font-family="sans-serif" font-size="11" fill="#555">162222</text>
<line x1="154.02" y1="25" x2="154.02" y2="550" stroke="#f2f2f2"/>
<text x="154.02" y="566" text-anchor="middle" font-family="sans-serif" font-size="11" fill="#555">Feb</text>
<line x1="239.38" y1="25" x2="239.38" y2="550" stroke="#f2f2f2"/>
<text x="239.38" y="566" text-anchor="middle" font-family="sans-serif" font-size="11" fill="#555">Mar</text>
<line x1="333.88" y1="25" x2="333.88" y2="550" stroke="#f2f2f2"/>
<text x="333.88" y="566" text-anchor="middle" font-family="sans-serif" font-size="11" fill="#555">Apr</text>
<line x1="425.33" y1="25" x2="425.33" y2="550" stroke="#f2f2f2"/>
<text x="425.33" y="566" text-anchor="middle" font-family="sans-serif" font-size="11" fill="#555">May</text>
<line x1="519.83" y1="25" x2="519.83" y2="550" stroke="#f2f2f2"/>
<text x="519.83" y="566" text-anchor="middle" font-family="sans-serif" font-size="11" fill="#555">Jun</text>
<line x1="611.29" y1="25" x2="611.29" y2="550" stroke="#f2f2f2"/>
<text x="611.29" y="566" text-anchor="middle" font-family="sans-serif" font-size="11" fill="#555">Jul</text>
<line x1="705.79" y1="25" x2="705.79" y2="550" stroke="#f2f2f2"/>
<text x="705.79" y="566" text-anchor="middle" font-family="sans-serif" font-size="11" fill="#555">Aug</text>
<line x1="800.29" y1="25" x2="800.29" y2="550" stroke="#f2f2f2"/>
<text x="800.29" y="566" text-anchor="middle" font-family="sans-serif" font-size="11" fill="#555">Sep</text>
<line x1="891.74" y1="25" x2="891.74" y2="550" stroke="#f2f2f2"/>
<text x="891.74" y="566" text-anchor="middle" font-family="sans-serif" font-size="11" fill="#555">Oct</text>
<line x1="986.24" y1="25" x2="986.24" y2="550" stroke="#f2f2f2"/>
<text x="986.24" y="566" text-anchor="middle" font-family="sans-serif" font-size="11" fill="#555">Nov</text>
<line x1="1077.70" y1="25" x2="1077.70" y2="550" stroke="#f2f2f2"/>
<text x="1077.70" y="566" text-anchor="middle" font-family="sans-serif" font-size="11" fill="#555">Dec</text>
<line x1="1170.00" y1="25" x2="1170.00" y2="550" stroke="#f2f2f2"/>
<text x="1170.00" y="566" text-anchor="middle" font-family="sans-serif" font-size="11" fill="#555">Jan</text>
<line x1="70" y1="550" x2="1170" y2="550" stroke="#888"/>
<line x1="70" y1="25" x2="70" y2="550" stroke="#888"/>
<path d="M 70.00 141.78 L 70.00 143.70 Z" fill="#d0d0d0" fill-opacity="0.5" stroke="none"/>
<path d="M 83.28 137.45 L 83.28 137.79 Z" fill="#d0d0d0" fill-opacity="0.5" stroke="none"/>
<path d="M 102.58 132.94 L 102.58 134.26 Z" fill="#d0d0d0" fill-opacity="0.5" stroke="none"/>
<path d="M 180.60 109.94 L 183.45 109.94 L 186.42 109.94 L 189.45 109.94 L 201.86 109.94 L 204.89 109.94 L 207.79 109.94 L 208.78 109.94 L 208.82 109.94 L 211.11 109.94 L 222.59 109.94 L 226.19 109.94 L 229.62 109.94 L 232.29 109.94 L 243.64 109.94 L 244.20 109.94 L 247.57 109.94 L 250.53 109.94 L 268.90 109.94 L 274.31 109.94 L 293.38 109.94 L 310.31 109.94 L 310.76 109.94 L 314.95 109.94 L 336.01 109.94 L 338.77 109.94 L 360.23 109.94 L 367.32 109.94 L 367.44 109.94 L 377.77 109.94 L 396.48 109.94 L 399.87 109.94 L 400.96 109.94 L 402.22 109.94 L 403.07 109.94 L 411.46 109.94 L 415.32 109.94 L 417.88 109.94 L 424.35 109.94 L 431.78 109.94 L 433.51 109.94 L 436.38 109.94 L 441.59 109.94 L 442.28 109.94 L 442.72 109.94 L 443.02 109.94 L 443.04 109.94 L 444.06 109.94 L 444.11 109.94 L 444.31 109.94 L 444.64 109.94 L 444.75 109.94 L 445.36 109.94 L 445.63 109.94 L 445.63 112.63 L 445.36 114.69 L 444.75 118.05 L 444.64 120.85 L 444.31 124.50 L 444.11 126.69 L 444.06 129.75 L 443.04 133.00 L 443.02 135.95 L 442.72 129.58 L 442.28 132.77 L 441.59 135.49 L 436.38 129.11 L 433.51 131.49 L 431.78 131.76 L 424.35 125.33 L 417.88 128.39 L 415.32 131.28 L 411.46 124.84 L 403.07 126.97 L 402.22 125.39 L 400.96 118.87 L 399.87 122.55 L 396.48 126.19 L 377.77 128.24 L 367.44 130.35 L 367.32 123.90 L 360.23 126.35 L 338.77 127.88 L 336.01 131.16 L 314.95 133.30 L 310.76 135.83 L 310.31 138.75 L 293.38 141.36 L 274.31 140.27 L 268.90 139.26 L 250.53 141.04 L 247.57 141.56 L 244.20 135.28 L 243.64 137.96 L 232.29 140.36 L 229.62 134.06 L 226.19 136.58 L 222.59 138.17 L 211.11 131.84 L 208.82 135.09 L 208.78 137.63 L 207.79 131.29 L 204.89 131.72 L 201.86 125.30 L 189.45 118.78 L 186.42 122.46 L 183.45 115.90 L 180.60 116.58 Z" fill="#d0d0d0" fill-opacity="0.5" stroke="none"/>
<path d="M 453.89 95.86 L 454.00 95.86 L 454.11 95.86 L 454.29 95.86 L 454.29 96.78 L 454.11 100.38 L 454.00 103.07 L 453.89 102.71 Z" fill="#d0d0d0" fill-opacity="0.5" stroke="none"/>
<path d="M 454.67 95.56 L 454.80 95.56 L 454.87 95.56 L 455.08 95.56 L 455.92 95.56 L 456.52 95.56 L 457.10 95.56 L 460.99 95.56 L 463.15 95.56 L 463.21 95.56 L 466.74 95.56 L 466.89 95.56 L 466.89 96.89 L 466.74 100.43 L 463.21 103.29 L 463.15 106.51 L 460.99 99.70 L 457.10 102.51 L 456.52 106.01 L 455.92 108.25 L 455.08 111.00 L 454.87 104.26 L 454.80 104.34 L 454.67 102.42 Z" fill="#d0d0d0" fill-opacity="0.5" stroke="none"/>
<path d="M 474.54 92.89 L 474.60 92.89 L 474.75 92.89 L 474.75 94.54 L 474.60 97.49 L 474.54 99.79 Z" fill="#d0d0d0" fill-opacity="0.5" stroke="none"/>
<path d="M 479.64 74.12 L 481.89 74.12 L 481.89 74.12 L 482.02 74.12 L 482.14 74.12 L 482.28 74.12 L 482.66 74.12 L 483.59 74.12 L 484.26 74.12 L 484.27 74.12 L 484.78 74.12 L 485.22 74.12 L 485.60 74.12 L 485.60 74.12 L 485.74 74.12 L 486.43 74.12 L 486.73 74.12 L 487.02 74.12 L 487.26 74.12 L 487.45 74.12 L 487.48 74.12 L 488.11 74.12 L 488.23 74.12 L 496.63 74.12 L 498.76 74.12 L 499.69 74.12 L 500.42 74.12 L 500.69 74.12 L 500.99 74.12 L 501.92 74.12 L 503.33 74.12 L 505.39 74.12 L 506.34 74.12 L 506.65 74.12 L 506.71 74.12 L 506.83 74.12 L 506.88 74.12 L 507.00 74.12 L 508.66 74.12 L 508.85 74.12 L 509.40 74.12 L 509.89 74.12 L 520.90 74.12 L 521.21 74.12 L 521.27 74.12 L 521.77 74.12 L 521.80 74.12 L 521.85 74.12 L 521.96 74.12 L 525.06 74.12 L 526.30 74.12 L 527.94 74.12 L 530.70 74.12 L 530.81 74.12 L 531.09 74.12 L 538.32 74.12 L 542.52 74.12 L 543.26 74.12 L 545.98 74.12 L 548.02 74.12 L 549.16 74.12 L 552.42 74.12 L 559.47 74.12 L 560.87 74.12 L 564.01 74.12 L 564.58 74.12 L 581.12 74.12 L 583.09 74.12 L 583.09 77.40 L 581.12 80.70 L 564.58 83.97 L 564.01 87.12 L 560.87 85.07 L 559.47 85.69 L 552.42 89.61 L 549.16 91.72 L 548.02 84.70 L 545.98 77.58 L 543.26 80.27 L 542.52 83.88 L 538.32 86.66 L 531.09 89.73 L 530.81 93.59 L 530.70 93.85 L 527.94 86.88 L 526.30 87.81 L 525.06 90.10 L 521.96 93.70 L 521.85 96.43 L 521.80 98.93 L 521.77 92.03 L 521.27 85.01 L 521.21 85.31 L 520.90 83.28 L 509.89 76.14 L 509.40 79.72 L 508.85 81.79 L 508.66 74.64 L 507.00 76.63 L 506.88 78.71 L 506.83 81.39 L 506.71 74.23 L 506.65 77.78 L 506.34 81.22 L 505.39 84.86 L 503.33 84.91 L 501.92 87.13 L 500.99 87.69 L 500.69 90.77 L 500.42 92.88 L 499.69 96.40 L 498.76 96.20 L 496.63 99.27 L 488.23 92.36 L 488.11 95.37 L 487.48 97.86 L 487.45 90.92 L 487.26 90.85 L 487.02 94.25 L 486.73 96.63 L 486.43 96.96 L 485.74 99.90 L 485.60 93.05 L 485.60 86.07 L 485.22 78.99 L 484.78 82.93 L 484.27 84.34 L 484.26 88.40 L 483.59 81.34 L 482.66 83.52 L 482.28 84.70 L 482.14 88.22 L 482.02 91.28 L 481.89 84.26 L 481.89 88.33 L 479.64 81.27 Z" fill="#d0d0d0" fill-opacity="0.5" stroke="none"/>
<path d="M 589.38 73.39 L 591.21 73.39 L 592.08 73.39 L 592.08 73.92 L 591.21 77.93 L 589.38 80.57 Z" fill="#d0d0d0" fill-opacity="0.5" stroke="none"/>
<path d="M 612.50 63.37 L 613.24 63.37 L 613.39 63.37 L 616.05 63.37 L 616.11 63.37 L 628.48 63.37 L 637.45 63.37 L 637.45 64.36 L 628.48 65.86 L 616.11 69.21 L 616.05 71.82 L 613.39 75.85 L 613.24 68.62 L 612.50 70.68 Z" fill="#d0d0d0" fill-opacity="0.5" stroke="none"/>
<path d="M 667.30 52.29 L 670.16 52.29 L 670.69 52.29 L 673.66 52.29 L 674.81 52.29 L 676.59 52.29 L 677.24 52.29 L 679.57 52.29 L 680.16 52.29 L 680.23 52.29 L 680.36 52.29 L 680.51 52.29 L 680.80 52.29 L 692.49 52.29 L 710.86 52.29 L 713.11 52.29 L 717.02 52.29 L 722.80 52.29 L 722.93 52.29 L 722.94 52.29 L 723.02 52.29 L 735.67 52.29 L 735.75 52.29 L 736.63 52.29 L 737.24 52.29 L 738.11 52.29 L 738.37 52.29 L 740.68 52.29 L 760.79 52.29 L 762.47 52.29 L 762.93 52.29 L 765.05 52.29 L 765.20 52.29 L 777.84 52.29 L 777.91 52.29 L 780.17 52.29 L 787.15 52.29 L 801.61 52.29 L 818.83 52.29 L 823.60 52.29 L 837.11 52.29 L 841.88 52.29 L 841.96 52.29 L 842.02 52.29 L 842.15 52.29 L 850.77 52.29 L 851.05 52.29 L 863.73 52.29 L 865.59 52.29 L 866.13 52.29 L 871.64 52.29 L 883.71 52.29 L 884.04 52.29 L 884.67 52.29 L 890.83 52.29 L 902.18 52.29 L 905.12 52.29 L 905.98 52.29 L 908.52 52.29 L 911.09 52.29 L 911.98 52.29 L 914.81 52.29 L 914.85 52.29 L 927.81 52.29 L 931.65 52.29 L 936.11 52.29 L 936.36 52.29 L 936.62 52.29 L 944.06 52.29 L 948.26 52.29 L 949.14 52.29 L 951.64 52.29 L 951.76 52.29 L 953.06 52.29 L 953.69 52.29 L 953.94 52.29 L 955.16 52.29 L 956.89 52.29 L 965.22 52.29 L 969.68 52.29 L 978.91 52.29 L 986.37 52.29 L 991.07 52.29 L 994.79 52.29 L 996.67 52.29 L 1000.15 52.29 L 1000.60 52.29 L 1007.87 52.29 L 1007.95 52.29 L 1010.74 52.29 L 1012.03 52.29 L 1012.78 52.29 L 1015.57 52.29 L 1015.61 52.29 L 1016.04 52.29 L 1017.91 52.29 L 1021.19 52.29 L 1033.99 52.29 L 1039.24 52.29 L 1051.95 52.29 L 1053.47 52.29 L 1055.10 52.29 L 1057.52 52.29 L 1057.55 52.29 L 1057.69 52.29 L 1058.23 52.29 L 1058.23 53.56 L 1057.69 57.32 L 1057.55 60.04 L 1057.52 63.57 L 1055.10 56.16 L 1053.47 59.86 L 1051.95 63.18 L 1039.24 55.78 L 1033.99 58.74 L 1021.19 62.52 L 1017.91 66.25 L 1016.04 69.57 L 1015.61 72.58 L 1015.57 76.44 L 1012.78 69.20 L 1012.03 71.13 L 1010.74 70.53 L 1007.95 70.12 L 1007.87 71.34 L 1000.60 64.04 L 1000.15 67.34 L 996.67 71.61 L 994.79 64.31 L 991.07 68.60 L 986.37 70.07 L 978.91 74.15 L 969.68 75.47 L 965.22 78.77 L 956.89 80.10 L 955.16 83.80 L 953.94 85.04 L 953.69 86.10 L 953.06 89.09 L 951.76 91.57 L 951.64 90.83 L 949.14 83.78 L 948.26 83.19 L 944.06 86.04 L 936.62 86.33 L 936.36 88.97 L 936.11 81.90 L 931.65 85.90 L 927.81 84.11 L 914.85 84.55 L 914.81 88.52 L 911.98 81.45 L 911.09 85.14 L 908.52 86.80 L 905.98 90.76 L 905.12 93.53 L 902.18 86.52 L 890.83 89.15 L 884.67 90.59 L 884.04 83.55 L 883.71 85.02 L 871.64 85.08 L 866.13 87.02 L 865.59 90.58 L 863.73 94.50 L 851.05 87.50 L 850.77 91.02 L 842.15 93.56 L 842.02 93.56 L 841.96 86.56 L 841.88 79.49 L 837.11 72.30 L 823.60 71.25 L 818.83 73.78 L 801.61 71.52 L 787.15 73.91 L 780.17 75.69 L 777.91 76.69 L 777.84 78.55 L 765.20 71.34 L 765.05 71.66 L 762.93 73.04 L 762.47 73.34 L 760.79 76.13 L 740.68 79.75 L 738.37 79.71 L 738.11 79.35 L 737.24 81.42 L 736.63 83.79 L 735.75 81.22 L 735.67 82.42 L 723.02 86.39 L 722.94 87.37 L 722.93 80.37 L 722.80 73.23 L 717.02 65.95 L 713.11 63.52 L 710.86 62.89 L 692.49 55.48 L 680.80 59.05 L 680.51 61.88 L 680.36 66.00 L 680.23 68.26 L 680.16 70.09 L 679.57 62.78 L 677.24 55.38 L 676.59 59.54 L 674.81 61.85 L 673.66 60.90 L 670.69 63.78 L 670.16 56.38 L 667.30 59.74 Z" fill="#d0d0d0" fill-opacity="0.5" stroke="none"/>
<path d="M 1073.01 44.15 L 1078.78 44.15 L 1078.78 48.33 L 1073.01 51.70 Z" fill="#d0d0d0" fill-opacity="0.5" stroke="none"/>
<path d="M 1103.36 29.77 L 1104.05 29.77 L 1115.82 29.77 L 1118.41 29.77 L 1119.25 29.77 L 1121.21 29.77 L 1122.72 29.77 L 1128.11 29.77 L 1128.57 29.77 L 1137.65 29.77 L 1138.94 29.77 L 1138.94 33.74 L 1137.65 33.59 L 1128.57 36.26 L 1128.11 35.79 L 1122.72 36.67 L 1121.21 34.79 L 1119.25 38.42 L 1118.41 30.70 L 1115.82 31.09 L 1104.05 34.14 L 1103.36 37.50 Z" fill="#d0d0d0" fill-opacity="0.5" stroke="none"/>
<path d="M 1161.89 25.00 L 1165.23 25.00 L 1170.00 25.00 L 1170.00 27.36 L 1165.23 30.50 L 1161.89 32.79 Z" fill="#d0d0d0" fill-opacity="0.5" stroke="none"/>
<polyline fill="none" stroke="#111" stroke-width="1.2" points="70.00,143.70 75.63,140.22 82.68,137.45 83.28,137.79 90.04,136.15 97.71,134.96 98.12,132.94 102.58,134.26 115.74,132.85 117.64,130.47 122.64,127.09 142.05,123.44 165.31,120.70 166.36,117.03 167.30,113.34 168.15,109.94 180.60,116.58 183.45,115.90 186.42,122.46 189.45,118.78 201.86,125.30 204.89,131.72 207.79,131.29 208.78,137.63 208.82,135.09 211.11,131.84 222.59,138.17 226.19,136.58 229.62,134.06 232.29,140.36 243.64,137.96 244.20,135.28 247.57,141.56 250.53,141.04 268.90,139.26 274.31,140.27 293.38,141.36 310.31,138.75 310.76,135.83 314.95,133.30 336.01,131.16 338.77,127.88 360.23,126.35 367.32,123.90 367.44,130.35 377.77,128.24 396.48,126.19 399.87,122.55 400.96,118.87 402.22,125.39 403.07,126.97 411.46,124.84 415.32,131.28 417.88,128.39 424.35,125.33 431.78,131.76 433.51,131.49 436.38,129.11 441.59,135.49 442.28,132.77 442.72,129.58 443.02,135.95 443.04,133.00 444.06,129.75 444.11,126.69 444.31,124.50 444.64,120.85 444.75,118.05 445.36,114.69 445.63,112.63 445.69,108.91 445.82,105.17 452.65,101.16 453.00,97.32 453.25,95.86 453.89,102.71 454.00,103.07 454.11,100.38 454.29,96.78 454.53,95.56 454.67,102.42 454.80,104.34 454.87,104.26 455.08,111.00 455.92,108.25 456.52,106.01 457.10,102.51 460.99,99.70 463.15,106.51 463.21,103.29 466.74,100.43 466.89,96.89 467.06,95.08 467.18,92.89 474.54,99.79 474.60,97.49 474.75,94.54 475.78,92.59 476.19,89.29 477.45,86.19 478.26,84.05 478.38,81.06 479.21,77.45 479.49,74.12 479.64,81.27 481.89,88.33 481.89,84.26 482.02,91.28 482.14,88.22 482.28,84.70 482.66,83.52 483.59,81.34 484.26,88.40 484.27,84.34 484.78,82.93 485.22,78.99 485.60,86.07 485.60,93.05 485.74,99.90 486.43,96.96 486.73,96.63 487.02,94.25 487.26,90.85 487.45,90.92 487.48,97.86 488.11,95.37 488.23,92.36 496.63,99.27 498.76,96.20 499.69,96.40 500.42,92.88 500.69,90.77 500.99,87.69 501.92,87.13 503.33,84.91 505.39,84.86 506.34,81.22 506.65,77.78 506.71,74.23 506.83,81.39 506.88,78.71 507.00,76.63 508.66,74.64 508.85,81.79 509.40,79.72 509.89,76.14 520.90,83.28 521.21,85.31 521.27,85.01 521.77,92.03 521.80,98.93 521.85,96.43 521.96,93.70 525.06,90.10 526.30,87.81 527.94,86.88 530.70,93.85 530.81,93.59 531.09,89.73 538.32,86.66 542.52,83.88 543.26,80.27 545.98,77.58 548.02,84.70 549.16,91.72 552.42,89.61 559.47,85.69 560.87,85.07 564.01,87.12 564.58,83.97 581.12,80.70 583.09,77.40 588.80,73.39 589.38,80.57 591.21,77.93 592.08,73.92 595.26,71.48 606.38,67.42 609.56,63.37 612.50,70.68 613.24,68.62 613.39,75.85 616.05,71.82 616.11,69.21 628.48,65.86 637.45,64.36 648.94,60.27 649.75,60.13 650.03,58.27 653.06,58.14 655.80,55.87 658.95,52.29 667.30,59.74 670.16,56.38 670.69,63.78 673.66,60.90 674.81,61.85 676.59,59.54 677.24,55.38 679.57,62.78 680.16,70.09 680.23,68.26 680.36,66.00 680.51,61.88 680.80,59.05 692.49,55.48 710.86,62.89 713.11,63.52 717.02,65.95 722.80,73.23 722.93,80.37 722.94,87.37 723.02,86.39 735.67,82.42 735.75,81.22 736.63,83.79 737.24,81.42 738.11,79.35 738.37,79.71 740.68,79.75 760.79,76.13 762.47,73.34 762.93,73.04 765.05,71.66 765.20,71.34 777.84,78.55 777.91,76.69 780.17,75.69 787.15,73.91 801.61,71.52 818.83,73.78 823.60,71.25 837.11,72.30 841.88,79.49 841.96,86.56 842.02,93.56 842.15,93.56 850.77,91.02 851.05,87.50 863.73,94.50 865.59,90.58 866.13,87.02 871.64,85.08 883.71,85.02 884.04,83.55 884.67,90.59 890.83,89.15 902.18,86.52 905.12,93.53 905.98,90.76 908.52,86.80 911.09,85.14 911.98,81.45 914.81,88.52 914.85,84.55 927.81,84.11 931.65,85.90 936.11,81.90 936.36,88.97 936.62,86.33 944.06,86.04 948.26,83.19 949.14,83.78 951.64,90.83 951.76,91.57 953.06,89.09 953.69,86.10 953.94,85.04 955.16,83.80 956.89,80.10 965.22,78.77 969.68,75.47 978.91,74.15 986.37,70.07 991.07,68.60 994.79,64.31 996.67,71.61 1000.15,67.34 1000.60,64.04 1007.87,71.34 1007.95,70.12 1010.74,70.53 1012.03,71.13 1012.78,69.20 1015.57,76.44 1015.61,72.58 1016.04,69.57 1017.91,66.25 1021.19,62.52 1033.99,58.74 1039.24,55.78 1051.95,63.18 1053.47,59.86 1055.10,56.16 1057.52,63.57 1057.55,60.04 1057.69,57.32 1058.23,53.56 1063.70,50.31 1071.73,47.97 1072.62,44.15 1073.01,51.70 1078.78,48.33 1079.84,43.90 1082.55,40.26 1082.65,35.95 1082.88,32.60 1085.88,31.50 1094.37,29.77 1103.36,37.50 1104.05,34.14 1115.82,31.09 1118.41,30.70 1119.25,38.42 1121.21,34.79 1122.72,36.67 1128.11,35.79 1128.57,36.26 1137.65,33.59 1138.94,33.74 1146.83,29.39 1160.04,25.00 1161.89,32.79 1165.23,30.50 1170.00,27.36"/>
<text x="620.0" y="588" text-anchor="middle" font-family="sans-serif" font-size="12" fill="#333">UTC time</text>
<text x="15" y="287.5" transform="rotate(-90 15,287.5)" text-anchor="middle" font-family="sans-serif" font-size="12" fill="#333">Capital</text>
</svg>