<svg xmlns="http://www.w3.org/2000/svg" width="1200" height="600" viewBox="0 0 1200 600">
<desc>Equity curve with drawdown fill</desc>
<text x="600.0" y="18.0" text-anchor="middle" font-family="sans-serif" font-size="14">Portfolio 2020</text>
<rect x="70" y="25" width="1100" height="525" fill="white" stroke="#ccc" />
<line x1="70" y1="550.00" x2="1170" y2="550.00" stroke="#eee"/>
<text x="62" y="554.0" text-anchor="end" font-family="sans-serif" font-size="11" fill="#555">0.00</text>
<line x1="70" y1="445.00" x2="1170" y2="445.00" stroke="#eee"/>
<text x="62" y="449.0" text-anchor="end" font-family="sans-serif" font-size="11" fill="#555">21412</text>
<line x1="70" y1="340.00" x2="1170" y2="340.00" stroke="#eee"/>
<text x="62" y="344.0" text-anchor="end" font-family="sans-serif" font-size="11" fill="#555">42825</text>
<line x1="70" y1="235.00" x2="1170" y2="235.00" stroke="#eee"/>
<text x="62" y="239.0" text-anchor="end" font-family="sans-serif" font-size="11" fill="#555">64237</text>
<line x1="70" y1="130.00" x2="1170" y2="130.00" stroke="#eee"/>
<text x="62" y="134.0" text-anchor="end" font-family="sans-serif" font-size="11" fill="#555">85650</text>
<line x1="70" y1="25.00" x2="1170" y2="25.00" stroke="#eee"/>
<text x="62" y="29.0" text-anchor="end" font-family="sans-serif" font-size="11" fill="#555">107062</text>
<line x1="100.06" y1="25" x2="100.06" y2="550" stroke="#f2f2f2"/>
<text x="100.06" y="566" text-anchor="middle" font-family="sans-serif" font-size="11" fill="#555">Mar</text>
<line x1="211.86" y1="25" x2="211.86" y2="550" stroke="#f2f2f2"/>
<text x="211.86" y="566" text-anchor="middle" font-family="sans-serif" font-size="11" fill="#555">Apr</text>
<line x1="320.05" y1="25" x2="320.05" y2="550" stroke="#f2f2f2"/>
<text x="320.05" y="566" text-anchor="middle" font-family="sans-serif" font-size="11" fill="#555">May</text>
<line x1="431.84" y1="25" x2="431.84" y2="550" stroke="#f2f2f2"/>
<text x="431.84" y="566" text-anchor="middle" font-family="sans-serif" font-size="11" fill="#555">Jun</text>
<line x1="540.03" y1="25" x2="540.03" y2="550" stroke="#f2f2f2"/>
<text x="540.03" y="566" text-anchor="middle" font-family="sans-serif" font-size="11" fill="#555">Jul</text>
<line x1="651.82" y1="25" x2="651.82" y2="550" stroke="#f2f2f2"/>
<text x="651.82" y="566" text-anchor="middle" font-family="sans-serif" font-size="11" fill="#555">Aug</text>
<line x1="763.62" y1="25" x2="763.62" y2="550" stroke="#f2f2f2"/>
<text x="763.62" y="566" text-anchor="middle" font-family="sans-serif" font-size="11" fill="#555">Sep</text>
<line x1="871.81" y1="25" x2="871.81" y2="550" stroke="#f2f2f2"/>
<text x="871.81" y="566" text-anchor="middle" font-family="sans-serif" font-size="11" fill="#555">Oct</text>
<line x1="983.60" y1="25" x2="983.60" y2="550" stroke="#f2f2f2"/>
<text x="983.60" y="566" text-anchor="middle" font-family="sans-serif" font-size="11" fill="#555">Nov</text>
<line x1="1091.79" y1="25" x2="1091.79" y2="550" stroke="#f2f2f2"/>
<text x="1091.79" y="566" text-anchor="middle" font-family="sans-serif" font-size="11" fill="#555">Dec</text>
<line x1="70" y1="550" x2="1170" y2="550" stroke="#888"/>
<line x1="70" y1="25" x2="70" y2="550" stroke="#888"/>
<path d="M 70.00 59.63 L 70.00 59.69 Z" fill="#d0d0d0" fill-opacity="0.5" stroke="none"/>
<path d="M 119.71 57.52 L 119.71 57.73 Z" fill="#d0d0d0" fill-opacity="0.5" stroke="none"/>
<path d="M 138.52 33.81 L 140.07 33.81 L 141.86 33.81 L 141.90 33.81 L 142.03 33.81 L 142.15 33.81 L 142.26 33.81 L 142.32 33.81 L 142.48 33.81 L 145.36 33.81 L 145.77 33.81 L 154.29 33.81 L 156.20 33.81 L 159.78 33.81 L 159.95 33.81 L 159.95 35.37 L 159.78 37.89 L 156.20 38.54 L 154.29 40.31 L 145.77 42.73 L 145.36 44.55 L 142.48 45.21 L 142.32 47.71 L 142.26 50.47 L 142.15 52.76 L 142.03 47.71 L 141.90 42.61 L 141.86 45.03 L 140.07 39.85 L 138.52 39.05 Z" fill="#d0d0d0" fill-opacity="0.5" stroke="none"/>
<path d="M 163.40 33.43 L 163.70 33.43 L 163.85 33.43 L 164.22 33.43 L 164.84 33.43 L 164.84 33.43 L 165.18 33.43 L 165.18 34.14 L 164.84 36.80 L 164.84 39.77 L 164.22 34.54 L 163.85 37.19 L 163.70 37.52 L 163.40 38.68 Z" fill="#d0d0d0" fill-opacity="0.5" stroke="none"/>
<path d="M 166.20 31.46 L 166.22 31.46 L 166.53 31.46 L 166.80 31.46 L 166.88 31.46 L 166.92 31.46 L 167.38 31.46 L 167.52 31.46 L 167.53 31.46 L 167.58 31.46 L 167.79 31.46 L 168.86 31.46 L 169.78 31.46 L 170.10 31.46 L 170.61 31.46 L 170.98 31.46 L 180.66 31.46 L 181.24 31.46 L 181.27 31.46 L 181.42 31.46 L 181.51 31.46 L 181.67 31.46 L 181.93 31.46 L 183.18 31.46 L 184.04 31.46 L 184.56 31.46 L 185.09 31.46 L 189.30 31.46 L 190.37 31.46 L 192.57 31.46 L 194.98 31.46 L 195.89 31.46 L 196.24 31.46 L 196.33 31.46 L 196.57 31.46 L 208.54 31.46 L 210.12 31.46 L 210.82 31.46 L 213.33 31.46 L 217.65 31.46 L 234.81 31.46 L 242.88 31.46 L 264.47 31.46 L 268.46 31.46 L 293.58 31.46 L 294.08 31.46 L 310.88 31.46 L 318.84 31.46 L 318.96 31.46 L 335.99 31.46 L 383.83 31.46 L 394.61 31.46 L 415.61 31.46 L 444.66 31.46 L 444.99 31.46 L 445.11 31.46 L 448.30 31.46 L 463.03 31.46 L 467.25 31.46 L 470.82 31.46 L 474.01 31.46 L 485.27 31.46 L 488.25 31.46 L 498.84 31.46 L 499.16 31.46 L 542.42 31.46 L 617.51 31.46 L 646.84 31.46 L 650.89 31.46 L 664.78 31.46 L 675.79 31.46 L 719.38 31.46 L 719.65 31.46 L 747.71 31.46 L 747.76 31.46 L 747.76 32.53 L 747.71 35.32 L 719.65 38.17 L 719.38 39.94 L 675.79 41.66 L 664.78 40.68 L 650.89 42.36 L 646.84 44.22 L 617.51 46.25 L 542.42 47.63 L 499.16 47.44 L 498.84 49.87 L 488.25 51.95 L 485.27 54.09 L 474.01 55.74 L 470.82 55.25 L 467.25 54.44 L 463.03 55.28 L 448.30 54.38 L 445.11 57.14 L 444.99 57.44 L 444.66 52.39 L 415.61 53.98 L 394.61 52.56 L 383.83 54.24 L 335.99 56.66 L 318.96 51.59 L 318.84 51.91 L 310.88 46.79 L 294.08 48.07 L 293.58 49.73 L 268.46 50.48 L 264.47 51.04 L 242.88 51.75 L 234.81 46.63 L 217.65 47.88 L 213.33 48.57 L 210.82 48.93 L 210.12 51.07 L 208.54 52.63 L 196.57 55.15 L 196.33 56.19 L 196.24 57.58 L 195.89 52.52 L 194.98 54.46 L 192.57 56.64 L 190.37 58.81 L 189.30 61.04 L 185.09 61.98 L 184.56 64.13 L 184.04 66.22 L 183.18 61.25 L 181.93 56.22 L 181.67 57.42 L 181.51 59.73 L 181.42 62.27 L 181.27 64.61 L 181.24 59.65 L 180.66 54.61 L 170.98 56.03 L 170.61 58.75 L 170.10 61.22 L 169.78 56.20 L 168.86 51.13 L 167.79 46.00 L 167.58 48.40 L 167.53 50.33 L 167.52 45.24 L 167.38 40.10 L 166.92 34.87 L 166.88 37.70 L 166.80 39.57 L 166.53 39.23 L 166.22 34.00 L 166.20 36.73 Z" fill="#d0d0d0" fill-opacity="0.5" stroke="none"/>
<path d="M 837.38 25.13 L 837.38 27.73 Z" fill="#d0d0d0" fill-opacity="0.5" stroke="none"/>
<path d="M 994.90 25.00 L 1014.87 25.00 L 1065.26 25.00 L 1094.29 25.00 L 1165.54 25.00 L 1170.00 25.00 L 1170.00 34.25 L 1165.54 34.88 L 1094.29 35.35 L 1065.26 36.06 L 1014.87 30.79 L 994.90 25.47 Z" fill="#d0d0d0" fill-opacity="0.5" stroke="none"/>
<polyline fill="none" stroke="#111" stroke-width="1.2" points="70.00,59.69 106.28,57.52 119.71,57.73 128.79,55.60 129.19,52.69 129.19,49.71 130.00,47.18 130.35,45.35 130.98,43.64 131.00,40.83 132.69,38.98 133.38,36.65 134.97,33.81 138.52,39.05 140.07,39.85 141.86,45.03 141.90,42.61 142.03,47.71 142.15,52.76 142.26,50.47 142.32,47.71 142.48,45.21 145.36,44.55 145.77,42.73 154.29,40.31 156.20,38.54 159.78,37.89 159.95,35.37 162.61,33.43 163.40,38.68 163.70,37.52 163.85,37.19 164.22,34.54 164.84,39.77 164.84,36.80 165.18,34.14 165.98,31.46 166.20,36.73 166.22,34.00 166.53,39.23 166.80,39.57 166.88,37.70 166.92,34.87 167.38,40.10 167.52,45.24 167.53,50.33 167.58,48.40 167.79,46.00 168.86,51.13 169.78,56.20 170.10,61.22 170.61,58.75 170.98,56.03 180.66,54.61 181.24,59.65 181.27,64.61 181.42,62.27 181.51,59.73 181.67,57.42 181.93,56.22 183.18,61.25 184.04,66.22 184.56,64.13 185.09,61.98 189.30,61.04 190.37,58.81 192.57,56.64 194.98,54.46 195.89,52.52 196.24,57.58 196.33,56.19 196.57,55.15 208.54,52.63 210.12,51.07 210.82,48.93 213.33,48.57 217.65,47.88 234.81,46.63 242.88,51.75 264.47,51.04 268.46,50.48 293.58,49.73 294.08,48.07 310.88,46.79 318.84,51.91 318.96,51.59 335.99,56.66 383.83,54.24 394.61,52.56 415.61,53.98 444.66,52.39 444.99,57.44 445.11,57.14 448.30,54.38 463.03,55.28 467.25,54.44 470.82,55.25 474.01,55.74 485.27,54.09 488.25,51.95 498.84,49.87 499.16,47.44 542.42,47.63 617.51,46.25 646.84,44.22 650.89,42.36 664.78,40.68 675.79,41.66 719.38,39.94 719.65,38.17 747.71,35.32 747.76,32.53 747.89,30.42 794.56,27.75 798.12,25.13 837.38,27.73 994.58,25.00 994.90,25.47 1014.87,30.79 1065.26,36.06 1094.29,35.35 1165.54,34.88 1170.00,34.25"/>
<text x="620.0" y="588" text-anchor="middle" font-family="sans-serif" font-size="12" fill="#333">UTC time</text>
<text x="15" y="287.5" transform="rotate(-90 15,287.5)" text-anchor="middle" font-family="sans-serif" font-size="12" fill="#333">Capital</text>
</svg>