<svg xmlns="http://www.w3.org/2000/svg" width="1200" height="600" viewBox="0 0 1200 600">
<desc>Equity curve with drawdown fill; x-axis is months only (no exact timestamps)</desc>
<text x="600.0" y="18.0" text-anchor="middle" font-family="sans-serif" font-size="14">Balance Curve 2022 (UTC)</text>
<rect x="70" y="25" width="1100" height="525" fill="white" stroke="#ccc" />
<line x1="70" y1="550.00" x2="1170" y2="550.00" stroke="#eee"/>
<text x="62" y="554.0" text-anchor="end" font-family="sans-serif" font-size="11" fill="#555">0.00</text>
<line x1="70" y1="445.00" x2="1170" y2="445.00" stroke="#eee"/>
<text x="62" y="449.0" text-anchor="end" font-family="sans-serif" font-size="11" fill="#555">21452</text>
<line x1="70" y1="340.00" x2="1170" y2="340.00" stroke="#eee"/>
<text x="62" y="344.0" text-anchor="end" font-family="sans-serif" font-size="11" fill="#555">42904</text>
<line x1="70" y1="235.00" x2="1170" y2="235.00" stroke="#eee"/>
<text x="62" y="239.0" text-anchor="end" font-family="sans-serif" font-size="11" fill="#555">64357</text>
<line x1="70" y1="130.00" x2="1170" y2="130.00" stroke="#eee"/>
<text x="62" y="134.0" text-anchor="end" font-family="sans-serif" font-size="11" fill="#555">85809</text>
<line x1="70" y1="25.00" x2="1170" y2="25.00" stroke="#eee"/>
<text x="62" y="29.0" text-anchor="end" font-family="sans-serif" font-size="11" fill="#555">107261</text>
<line x1="161.67" y1="25" x2="161.67" y2="550" stroke="#f2f2f2"/>
<line x1="253.33" y1="25" x2="253.33" y2="550" stroke="#f2f2f2"/>
<line x1="345.00" y1="25" x2="345.00" y2="550" stroke="#f2f2f2"/>
<line x1="436.67" y1="25" x2="436.67" y2="550" stroke="#f2f2f2"/>
<line x1="528.33" y1="25" x2="528.33" y2="550" stroke="#f2f2f2"/>
<line x1="620.00" y1="25" x2="620.00" y2="550" stroke="#f2f2f2"/>
<line x1="711.67" y1="25" x2="711.67" y2="550" stroke="#f2f2f2"/>
<line x1="803.33" y1="25" x2="803.33" y2="550" stroke="#f2f2f2"/>
<line x1="895.00" y1="25" x2="895.00" y2="550" stroke="#f2f2f2"/>
<line x1="986.67" y1="25" x2="986.67" y2="550" stroke="#f2f2f2"/>
<line x1="1078.33" y1="25" x2="1078.33" y2="550" stroke="#f2f2f2"/>
<text x="115.83" y="566.00" text-anchor="middle" font-family="sans-serif" font-size="11" fill="#444">Jan</text>
<text x="207.50" y="566.00" text-anchor="middle" font-family="sans-serif" font-size="11" fill="#444">Feb</text>
<text x="299.17" y="566.00" text-anchor="middle" font-family="sans-serif" font-size="11" fill="#444">Mar</text>
<text x="390.83" y="566.00" text-anchor="middle" font-family="sans-serif" font-size="11" fill="#444">Apr</text>
<text x="482.50" y="566.00" text-anchor="middle" font-family="sans-serif" font-size="11" fill="#444">May</text>
<text x="574.17" y="566.00" text-anchor="middle" font-family="sans-serif" font-size="11" fill="#444">Jun</text>
<text x="665.83" y="566.00" text-anchor="middle" font-family="sans-serif" font-size="11" fill="#444">Jul</text>
<text x="757.50" y="566.00" text-anchor="middle" font-family="sans-serif" font-size="11" fill="#444">Aug</text>
<text x="849.17" y="566.00" text-anchor="middle" font-family="sans-serif" font-size="11" fill="#444">Sep</text>
<text x="940.83" y="566.00" text-anchor="middle" font-family="sans-serif" font-size="11" fill="#444">Oct</text>
<text x="1032.50" y="566.00" text-anchor="middle" font-family="sans-serif" font-size="11" fill="#444">Nov</text>
<text x="1124.17" y="566.00" text-anchor="middle" font-family="sans-serif" font-size="11" fill="#444">Dec</text>
<line x1="70" y1="550" x2="1170" y2="550" stroke="#888"/>
<line x1="70" y1="25" x2="70" y2="550" stroke="#888"/>
<line x1="115.83" y1="550.00" x2="115.83" y2="556.00" stroke="#888"/>
<line x1="1160.83"   y1="550.00" x2="1160.83"   y2="556.00" stroke="#888"/>
<text x="115.83" y="582.00" text-anchor="start" font-family="sans-serif" font-size="11" fill="#333">Initial Balance: 100000</text>
<text x="1160.83"   y="582.00" text-anchor="end"   font-family="sans-serif" font-size="11" fill="#333">Ending Balance: 107261</text>
<path d="M 288.98 47.15 L 299.17 47.15 L 309.35 47.15 L 319.54 47.15 L 319.54 48.89 L 309.35 50.55 L 299.17 49.85 L 288.98 52.26 Z" fill="#d0d0d0" fill-opacity="0.5" stroke="none"/>
<path d="M 339.91 46.44 L 351.55 46.44 L 364.64 46.44 L 377.74 46.44 L 390.83 46.44 L 403.93 46.44 L 417.02 46.44 L 430.12 46.44 L 443.21 46.44 L 456.31 46.44 L 469.40 46.44 L 482.50 46.44 L 495.60 46.44 L 508.69 46.44 L 521.79 46.44 L 521.79 46.62 L 508.69 48.76 L 495.60 49.46 L 482.50 52.09 L 469.40 52.83 L 456.31 54.94 L 443.21 56.99 L 430.12 55.29 L 417.02 57.02 L 403.93 56.75 L 390.83 59.35 L 377.74 54.30 L 364.64 55.87 L 351.55 50.79 L 339.91 51.56 Z" fill="#d0d0d0" fill-opacity="0.5" stroke="none"/>
<path d="M 608.54 41.32 L 608.54 41.67 Z" fill="#d0d0d0" fill-opacity="0.5" stroke="none"/>
<path d="M 661.25 34.57 L 670.42 34.57 L 679.58 34.57 L 688.75 34.57 L 697.92 34.57 L 707.08 34.57 L 716.76 34.57 L 726.94 34.57 L 737.13 34.57 L 737.13 36.79 L 726.94 36.75 L 716.76 39.43 L 707.08 41.54 L 697.92 36.31 L 688.75 36.67 L 679.58 37.06 L 670.42 37.14 L 661.25 39.82 Z" fill="#d0d0d0" fill-opacity="0.5" stroke="none"/>
<path d="M 757.50 33.92 L 767.69 33.92 L 777.87 33.92 L 788.06 33.92 L 788.06 36.48 L 777.87 38.21 L 767.69 39.99 L 757.50 39.12 Z" fill="#d0d0d0" fill-opacity="0.5" stroke="none"/>
<path d="M 805.52 33.80 L 809.88 33.80 L 814.25 33.80 L 818.61 33.80 L 822.98 33.80 L 827.34 33.80 L 831.71 33.80 L 836.07 33.80 L 840.44 33.80 L 844.80 33.80 L 849.17 33.80 L 853.53 33.80 L 857.90 33.80 L 862.26 33.80 L 866.63 33.80 L 870.99 33.80 L 875.36 33.80 L 879.72 33.80 L 884.09 33.80 L 888.45 33.80 L 892.82 33.80 L 897.55 33.80 L 902.64 33.80 L 907.73 33.80 L 912.82 33.80 L 917.92 33.80 L 917.92 35.61 L 912.82 37.57 L 907.73 40.17 L 902.64 42.81 L 897.55 44.53 L 892.82 44.70 L 888.45 47.32 L 884.09 42.14 L 879.72 43.98 L 875.36 38.81 L 870.99 40.56 L 866.63 42.70 L 862.26 45.20 L 857.90 47.63 L 853.53 50.10 L 849.17 45.00 L 844.80 39.79 L 840.44 42.40 L 836.07 45.02 L 831.71 47.38 L 827.34 45.10 L 822.98 39.96 L 818.61 42.79 L 814.25 37.56 L 809.88 39.42 L 805.52 39.05 Z" fill="#d0d0d0" fill-opacity="0.5" stroke="none"/>
<path d="M 938.29 27.61 L 943.38 27.61 L 948.47 27.61 L 953.56 27.61 L 958.66 27.61 L 963.75 27.61 L 968.84 27.61 L 973.94 27.61 L 979.03 27.61 L 984.12 27.61 L 992.40 27.61 L 1003.85 27.61 L 1015.31 27.61 L 1026.77 27.61 L 1038.23 27.61 L 1049.69 27.61 L 1061.15 27.61 L 1072.60 27.61 L 1087.50 27.61 L 1105.83 27.61 L 1124.17 27.61 L 1142.50 27.61 L 1142.50 27.76 L 1124.17 29.84 L 1105.83 31.12 L 1087.50 30.08 L 1072.60 32.80 L 1061.15 35.10 L 1049.69 36.99 L 1038.23 38.87 L 1026.77 33.61 L 1015.31 34.09 L 1003.85 28.78 L 992.40 31.33 L 984.12 31.77 L 979.03 33.78 L 973.94 34.10 L 968.84 36.77 L 963.75 38.53 L 958.66 40.62 L 953.56 40.99 L 948.47 35.75 L 943.38 38.09 L 938.29 32.87 Z" fill="#d0d0d0" fill-opacity="0.5" stroke="none"/>
<polyline fill="none" stroke="#111" stroke-width="1.2" points="115.83,60.54 170.83,58.76 189.17,56.92 207.50,56.43 225.83,54.37 244.17,52.01 258.43,49.37 268.61,48.19 278.80,47.15 288.98,52.26 299.17,49.85 309.35,50.55 319.54,48.89 329.72,46.44 339.91,51.56 351.55,50.79 364.64,55.87 377.74,54.30 390.83,59.35 403.93,56.75 417.02,57.02 430.12,55.29 443.21,56.99 456.31,54.94 469.40,52.83 482.50,52.09 495.60,49.46 508.69,48.76 521.79,46.62 539.79,45.14 562.71,42.78 585.62,41.32 608.54,41.67 624.58,41.07 633.75,39.92 642.92,37.25 652.08,34.57 661.25,39.82 670.42,37.14 679.58,37.06 688.75,36.67 697.92,36.31 707.08,41.54 716.76,39.43 726.94,36.75 737.13,36.79 747.31,33.92 757.50,39.12 767.69,39.99 777.87,38.21 788.06,36.48 798.24,33.80 805.52,39.05 809.88,39.42 814.25,37.56 818.61,42.79 822.98,39.96 827.34,45.10 831.71,47.38 836.07,45.02 840.44,42.40 844.80,39.79 849.17,45.00 853.53,50.10 857.90,47.63 862.26,45.20 866.63,42.70 870.99,40.56 875.36,38.81 879.72,43.98 884.09,42.14 888.45,47.32 892.82,44.70 897.55,44.53 902.64,42.81 907.73,40.17 912.82,37.57 917.92,35.61 923.01,32.94 928.10,30.50 933.19,27.61 938.29,32.87 943.38,38.09 948.47,35.75 953.56,40.99 958.66,40.62 963.75,38.53 968.84,36.77 973.94,34.10 979.03,33.78 984.12,31.77 992.40,31.33 1003.85,28.78 1015.31,34.09 1026.77,33.61 1038.23,38.87 1049.69,36.99 1061.15,35.10 1072.60,32.80 1087.50,30.08 1105.83,31.12 1124.17,29.84 1142.50,27.76 1160.83,25.00"/>
<text x="15" y="287.5" transform="rotate(-90 15,287.5)" text-anchor="middle" font-family="sans-serif" font-size="12" fill="#333">USD</text>
</svg>