<svg xmlns="http://www.w3.org/2000/svg" width="1200" height="600" viewBox="0 0 1200 600">
<desc>Equity curve with drawdown fill; x-axis is months only (no exact timestamps)</desc>
<text x="600.0" y="18.0" text-anchor="middle" font-family="sans-serif" font-size="14">Balance Curve 2019 (UTC)</text>
<rect x="70" y="25" width="1100" height="525" fill="white" stroke="#ccc" />
<line x1="70" y1="550.00" x2="1170" y2="550.00" stroke="#eee"/>
<text x="62" y="554.0" text-anchor="end" font-family="sans-serif" font-size="11" fill="#555">0.00</text>
<line x1="70" y1="445.00" x2="1170" y2="445.00" stroke="#eee"/>
<text x="62" y="449.0" text-anchor="end" font-family="sans-serif" font-size="11" fill="#555">71480</text>
<line x1="70" y1="340.00" x2="1170" y2="340.00" stroke="#eee"/>
<text x="62" y="344.0" text-anchor="end" font-family="sans-serif" font-size="11" fill="#555">142960</text>
<line x1="70" y1="235.00" x2="1170" y2="235.00" stroke="#eee"/>
<text x="62" y="239.0" text-anchor="end" font-family="sans-serif" font-size="11" fill="#555">214440</text>
<line x1="70" y1="130.00" x2="1170" y2="130.00" stroke="#eee"/>
<text x="62" y="134.0" text-anchor="end" font-family="sans-serif" font-size="11" fill="#555">285919</text>
<line x1="70" y1="25.00" x2="1170" y2="25.00" stroke="#eee"/>
<text x="62" y="29.0" text-anchor="end" font-family="sans-serif" font-size="11" fill="#555">357399</text>
<line x1="170.00" y1="25" x2="170.00" y2="550" stroke="#f2f2f2"/>
<line x1="270.00" y1="25" x2="270.00" y2="550" stroke="#f2f2f2"/>
<line x1="370.00" y1="25" x2="370.00" y2="550" stroke="#f2f2f2"/>
<line x1="470.00" y1="25" x2="470.00" y2="550" stroke="#f2f2f2"/>
<line x1="570.00" y1="25" x2="570.00" y2="550" stroke="#f2f2f2"/>
<line x1="670.00" y1="25" x2="670.00" y2="550" stroke="#f2f2f2"/>
<line x1="770.00" y1="25" x2="770.00" y2="550" stroke="#f2f2f2"/>
<line x1="870.00" y1="25" x2="870.00" y2="550" stroke="#f2f2f2"/>
<line x1="970.00" y1="25" x2="970.00" y2="550" stroke="#f2f2f2"/>
<line x1="1070.00" y1="25" x2="1070.00" y2="550" stroke="#f2f2f2"/>
<text x="120.00" y="566.00" text-anchor="middle" font-family="sans-serif" font-size="11" fill="#444">Jan</text>
<text x="220.00" y="566.00" text-anchor="middle" font-family="sans-serif" font-size="11" fill="#444">Feb</text>
<text x="320.00" y="566.00" text-anchor="middle" font-family="sans-serif" font-size="11" fill="#444">Mar</text>
<text x="420.00" y="566.00" text-anchor="middle" font-family="sans-serif" font-size="11" fill="#444">Apr</text>
<text x="520.00" y="566.00" text-anchor="middle" font-family="sans-serif" font-size="11" fill="#444">May</text>
<text x="620.00" y="566.00" text-anchor="middle" font-family="sans-serif" font-size="11" fill="#444">Jul</text>
<text x="720.00" y="566.00" text-anchor="middle" font-family="sans-serif" font-size="11" fill="#444">Aug</text>
<text x="820.00" y="566.00" text-anchor="middle" font-family="sans-serif" font-size="11" fill="#444">Sep</text>
<text x="920.00" y="566.00" text-anchor="middle" font-family="sans-serif" font-size="11" fill="#444">Oct</text>
<text x="1020.00" y="566.00" text-anchor="middle" font-family="sans-serif" font-size="11" fill="#444">Nov</text>
<text x="1120.00" y="566.00" text-anchor="middle" font-family="sans-serif" font-size="11" fill="#444">Dec</text>
<line x1="70" y1="550" x2="1170" y2="550" stroke="#888"/>
<line x1="70" y1="25" x2="70" y2="550" stroke="#888"/>
<line x1="86.67" y1="550.00" x2="86.67" y2="556.00" stroke="#888"/>
<line x1="1157.50"   y1="550.00" x2="1157.50"   y2="556.00" stroke="#888"/>
<text x="86.67" y="582.00" text-anchor="start" font-family="sans-serif" font-size="11" fill="#333">Initial Balance: 331190</text>
<text x="1157.50"   y="582.00" text-anchor="end"   font-family="sans-serif" font-size="11" fill="#333">Ending Balance: 357399</text>
<path d="M 153.33 60.61 L 182.50 60.61 L 207.50 60.61 L 232.50 60.61 L 257.50 60.61 L 275.56 60.61 L 286.67 60.61 L 297.78 60.61 L 308.89 60.61 L 308.89 61.37 L 297.78 61.86 L 286.67 64.29 L 275.56 64.76 L 257.50 64.58 L 232.50 66.54 L 207.50 68.32 L 182.50 70.30 L 153.33 65.45 Z" fill="#d0d0d0" fill-opacity="0.5" stroke="none"/>
<path d="M 520.00 47.43 L 520.00 48.93 Z" fill="#d0d0d0" fill-opacity="0.5" stroke="none"/>
<path d="M 732.50 36.96 L 757.50 36.96 L 778.33 36.96 L 795.00 36.96 L 811.67 36.96 L 828.33 36.96 L 845.00 36.96 L 861.67 36.96 L 873.12 36.96 L 879.38 36.96 L 885.62 36.96 L 891.88 36.96 L 898.13 36.96 L 904.38 36.96 L 910.63 36.96 L 916.88 36.96 L 916.88 38.05 L 910.63 41.00 L 904.38 43.93 L 898.13 45.92 L 891.88 48.82 L 885.62 51.85 L 879.38 46.82 L 873.12 41.79 L 861.67 44.79 L 845.00 47.70 L 828.33 47.22 L 811.67 42.18 L 795.00 37.14 L 778.33 40.14 L 757.50 42.24 L 732.50 42.08 Z" fill="#d0d0d0" fill-opacity="0.5" stroke="none"/>
<path d="M 948.12 26.82 L 954.38 26.82 L 960.62 26.82 L 966.88 26.82 L 1020.00 26.82 L 1082.50 26.82 L 1107.50 26.82 L 1107.50 29.39 L 1082.50 30.85 L 1020.00 32.95 L 966.88 27.74 L 960.62 28.98 L 954.38 30.44 L 948.12 32.04 Z" fill="#d0d0d0" fill-opacity="0.5" stroke="none"/>
<polyline fill="none" stroke="#111" stroke-width="1.2" points="86.67,63.50 120.00,60.61 153.33,65.45 182.50,70.30 207.50,68.32 232.50,66.54 257.50,64.58 275.56,64.76 286.67,64.29 297.78,61.86 308.89,61.37 320.00,59.99 331.11,58.46 342.22,56.08 353.33,53.21 364.44,50.33 420.00,47.43 520.00,48.93 586.67,46.61 620.00,45.46 653.33,42.54 682.50,39.61 707.50,36.96 732.50,42.08 757.50,42.24 778.33,40.14 795.00,37.14 811.67,42.18 828.33,47.22 845.00,47.70 861.67,44.79 873.12,41.79 879.38,46.82 885.62,51.85 891.88,48.82 898.13,45.92 904.38,43.93 910.63,41.00 916.88,38.05 923.13,35.20 929.38,32.22 935.62,29.83 941.88,26.82 948.12,32.04 954.38,30.44 960.62,28.98 966.88,27.74 1020.00,32.95 1082.50,30.85 1107.50,29.39 1132.50,26.37 1157.50,25.00"/>
<text x="15" y="287.5" transform="rotate(-90 15,287.5)" text-anchor="middle" font-family="sans-serif" font-size="12" fill="#333">USD</text>
</svg>