<svg xmlns="http://www.w3.org/2000/svg" width="1200" height="600" viewBox="0 0 1200 600">
<desc>Equity curve with drawdown fill; x-axis is months only (no exact timestamps)</desc>
<text x="600.0" y="18.0" text-anchor="middle" font-family="sans-serif" font-size="14">Portfolio 2010 (UTC)</text>
<rect x="70" y="25" width="1100" height="525" fill="white" stroke="#ccc" />
<line x1="70" y1="550.00" x2="1170" y2="550.00" stroke="#eee"/>
<text x="62" y="554.0" text-anchor="end" font-family="sans-serif" font-size="11" fill="#555">0.00</text>
<line x1="70" y1="445.00" x2="1170" y2="445.00" stroke="#eee"/>
<text x="62" y="449.0" text-anchor="end" font-family="sans-serif" font-size="11" fill="#555">37906</text>
<line x1="70" y1="340.00" x2="1170" y2="340.00" stroke="#eee"/>
<text x="62" y="344.0" text-anchor="end" font-family="sans-serif" font-size="11" fill="#555">75813</text>
<line x1="70" y1="235.00" x2="1170" y2="235.00" stroke="#eee"/>
<text x="62" y="239.0" text-anchor="end" font-family="sans-serif" font-size="11" fill="#555">113719</text>
<line x1="70" y1="130.00" x2="1170" y2="130.00" stroke="#eee"/>
<text x="62" y="134.0" text-anchor="end" font-family="sans-serif" font-size="11" fill="#555">151625</text>
<line x1="70" y1="25.00" x2="1170" y2="25.00" stroke="#eee"/>
<text x="62" y="29.0" text-anchor="end" font-family="sans-serif" font-size="11" fill="#555">189532</text>
<line x1="161.67" y1="25" x2="161.67" y2="550" stroke="#f2f2f2"/>
<line x1="253.33" y1="25" x2="253.33" y2="550" stroke="#f2f2f2"/>
<line x1="345.00" y1="25" x2="345.00" y2="550" stroke="#f2f2f2"/>
<line x1="436.67" y1="25" x2="436.67" y2="550" stroke="#f2f2f2"/>
<line x1="528.33" y1="25" x2="528.33" y2="550" stroke="#f2f2f2"/>
<line x1="620.00" y1="25" x2="620.00" y2="550" stroke="#f2f2f2"/>
<line x1="711.67" y1="25" x2="711.67" y2="550" stroke="#f2f2f2"/>
<line x1="803.33" y1="25" x2="803.33" y2="550" stroke="#f2f2f2"/>
<line x1="895.00" y1="25" x2="895.00" y2="550" stroke="#f2f2f2"/>
<line x1="986.67" y1="25" x2="986.67" y2="550" stroke="#f2f2f2"/>
<line x1="1078.33" y1="25" x2="1078.33" y2="550" stroke="#f2f2f2"/>
<text x="115.83" y="566.00" text-anchor="middle" font-family="sans-serif" font-size="11" fill="#444">Jan</text>
<text x="207.50" y="566.00" text-anchor="middle" font-family="sans-serif" font-size="11" fill="#444">Feb</text>
<text x="299.17" y="566.00" text-anchor="middle" font-family="sans-serif" font-size="11" fill="#444">Mar</text>
<text x="390.83" y="566.00" text-anchor="middle" font-family="sans-serif" font-size="11" fill="#444">Apr</text>
<text x="482.50" y="566.00" text-anchor="middle" font-family="sans-serif" font-size="11" fill="#444">May</text>
<text x="574.17" y="566.00" text-anchor="middle" font-family="sans-serif" font-size="11" fill="#444">Jun</text>
<text x="665.83" y="566.00" text-anchor="middle" font-family="sans-serif" font-size="11" fill="#444">Jul</text>
<text x="757.50" y="566.00" text-anchor="middle" font-family="sans-serif" font-size="11" fill="#444">Aug</text>
<text x="849.17" y="566.00" text-anchor="middle" font-family="sans-serif" font-size="11" fill="#444">Sep</text>
<text x="940.83" y="566.00" text-anchor="middle" font-family="sans-serif" font-size="11" fill="#444">Oct</text>
<text x="1032.50" y="566.00" text-anchor="middle" font-family="sans-serif" font-size="11" fill="#444">Nov</text>
<text x="1124.17" y="566.00" text-anchor="middle" font-family="sans-serif" font-size="11" fill="#444">Dec</text>
<line x1="70" y1="550" x2="1170" y2="550" stroke="#888"/>
<line x1="70" y1="25" x2="70" y2="550" stroke="#888"/>
<line x1="75.09" y1="550.00" x2="75.09" y2="556.00" stroke="#888"/>
<line x1="1167.30"   y1="550.00" x2="1167.30"   y2="556.00" stroke="#888"/>
<text x="75.09" y="582.00" text-anchor="start" font-family="sans-serif" font-size="11" fill="#333">Initial Balance: 143398</text>
<text x="1167.30"   y="582.00" text-anchor="end"   font-family="sans-serif" font-size="11" fill="#333">Ending Balance: 189532</text>
<path d="M 115.83 147.01 L 115.83 147.26 Z" fill="#d0d0d0" fill-opacity="0.5" stroke="none"/>
<path d="M 207.50 136.19 L 225.83 136.19 L 244.17 136.19 L 244.17 136.67 L 225.83 138.29 L 207.50 140.38 Z" fill="#d0d0d0" fill-opacity="0.5" stroke="none"/>
<path d="M 306.81 130.37 L 306.81 131.14 Z" fill="#d0d0d0" fill-opacity="0.5" stroke="none"/>
<path d="M 398.47 123.64 L 413.75 123.64 L 429.03 123.64 L 437.60 123.64 L 439.47 123.64 L 441.34 123.64 L 443.21 123.64 L 445.09 123.64 L 446.96 123.64 L 448.83 123.64 L 450.70 123.64 L 452.57 123.64 L 452.57 124.09 L 450.70 126.46 L 448.83 128.79 L 446.96 130.92 L 445.09 132.91 L 443.21 135.01 L 441.34 137.06 L 439.47 138.81 L 437.60 134.61 L 429.03 130.36 L 413.75 126.06 L 398.47 127.95 Z" fill="#d0d0d0" fill-opacity="0.5" stroke="none"/>
<path d="M 471.28 108.81 L 473.15 108.81 L 475.02 108.81 L 475.02 110.86 L 473.15 112.06 L 471.28 113.26 Z" fill="#d0d0d0" fill-opacity="0.5" stroke="none"/>
<path d="M 482.50 104.81 L 484.37 104.81 L 486.24 104.81 L 488.11 104.81 L 489.98 104.81 L 491.85 104.81 L 493.72 104.81 L 495.60 103.63 L 497.47 103.63 L 497.47 112.52 L 495.60 108.04 L 493.72 106.23 L 491.85 107.08 L 489.98 109.43 L 488.11 104.94 L 486.24 106.27 L 484.37 106.98 L 482.50 109.31 Z" fill="#d0d0d0" fill-opacity="0.5" stroke="none"/>
<path d="M 501.21 103.63 L 503.08 103.63 L 504.95 103.63 L 506.82 103.63 L 508.69 103.63 L 508.69 105.27 L 506.82 106.85 L 504.95 108.99 L 503.08 110.50 L 501.21 110.66 Z" fill="#d0d0d0" fill-opacity="0.5" stroke="none"/>
<path d="M 518.04 100.30 L 518.04 100.32 Z" fill="#d0d0d0" fill-opacity="0.5" stroke="none"/>
<path d="M 563.38 78.99 L 568.77 78.99 L 574.17 78.99 L 579.56 78.99 L 584.95 78.99 L 590.34 78.99 L 595.74 78.99 L 595.74 80.11 L 590.34 82.23 L 584.95 81.26 L 579.56 79.85 L 574.17 80.22 L 568.77 81.59 L 563.38 83.72 Z" fill="#d0d0d0" fill-opacity="0.5" stroke="none"/>
<path d="M 706.57 59.98 L 719.31 59.98 L 734.58 59.98 L 749.86 59.98 L 765.14 59.98 L 780.42 59.98 L 795.69 59.98 L 812.50 59.98 L 830.83 59.98 L 849.17 59.98 L 867.50 59.98 L 885.83 59.98 L 897.86 59.98 L 903.59 59.98 L 903.59 62.07 L 897.86 63.17 L 885.83 65.27 L 867.50 66.22 L 849.17 67.72 L 830.83 68.67 L 812.50 68.21 L 795.69 66.67 L 780.42 69.05 L 765.14 70.75 L 749.86 72.31 L 734.58 70.53 L 719.31 65.74 L 706.57 60.87 Z" fill="#d0d0d0" fill-opacity="0.5" stroke="none"/>
<path d="M 915.05 59.39 L 920.78 59.39 L 920.78 61.66 L 915.05 64.27 Z" fill="#d0d0d0" fill-opacity="0.5" stroke="none"/>
<path d="M 932.24 58.97 L 932.24 60.24 Z" fill="#d0d0d0" fill-opacity="0.5" stroke="none"/>
<path d="M 1016.13 38.00 L 1022.68 38.00 L 1029.23 38.00 L 1035.77 38.00 L 1042.32 38.00 L 1048.87 38.00 L 1055.42 38.00 L 1061.96 38.00 L 1068.51 38.00 L 1075.06 38.00 L 1081.03 38.00 L 1086.42 38.00 L 1091.81 38.00 L 1097.21 38.00 L 1097.21 39.21 L 1091.81 41.36 L 1086.42 43.50 L 1081.03 38.48 L 1075.06 41.36 L 1068.51 43.85 L 1061.96 45.36 L 1055.42 47.55 L 1048.87 42.53 L 1042.32 44.33 L 1035.77 39.28 L 1029.23 41.32 L 1022.68 42.61 L 1016.13 43.06 Z" fill="#d0d0d0" fill-opacity="0.5" stroke="none"/>
<path d="M 1129.56 30.80 L 1134.95 30.80 L 1140.34 30.80 L 1140.34 31.69 L 1134.95 31.55 L 1129.56 32.08 Z" fill="#d0d0d0" fill-opacity="0.5" stroke="none"/>
<path d="M 1151.13 28.87 L 1151.13 30.89 Z" fill="#d0d0d0" fill-opacity="0.5" stroke="none"/>
<polyline fill="none" stroke="#111" stroke-width="1.2" points="75.09,152.79 85.28,150.56 95.46,148.33 105.65,147.01 115.83,147.26 126.02,146.13 136.20,144.63 146.39,142.50 156.57,140.21 170.83,138.49 189.17,136.19 207.50,140.38 225.83,138.29 244.17,136.67 260.97,134.35 276.25,132.13 291.53,130.37 306.81,131.14 322.08,129.41 337.36,127.74 352.64,126.34 367.92,125.02 383.19,123.64 398.47,127.95 413.75,126.06 429.03,130.36 437.60,134.61 439.47,138.81 441.34,137.06 443.21,135.01 445.09,132.91 446.96,130.92 448.83,128.79 450.70,126.46 452.57,124.09 454.44,121.72 456.31,120.84 458.18,118.60 460.05,117.85 461.92,115.59 463.79,113.83 465.66,112.40 467.53,110.63 469.40,108.81 471.28,113.26 473.15,112.06 475.02,110.86 476.89,108.80 478.76,106.87 480.63,104.81 482.50,109.31 484.37,106.98 486.24,106.27 488.11,104.94 489.98,109.43 491.85,107.08 493.72,106.23 495.60,108.04 497.47,112.52 499.34,103.63 501.21,110.66 503.08,110.50 504.95,108.99 506.82,106.85 508.69,105.27 510.56,103.31 512.43,102.00 514.30,101.68 516.17,100.30 518.04,100.32 519.91,98.03 521.79,95.80 523.66,94.36 525.53,93.07 527.40,90.82 531.03,89.35 536.42,86.84 541.81,84.85 547.21,83.05 552.60,80.72 557.99,78.99 563.38,83.72 568.77,81.59 574.17,80.22 579.56,79.85 584.95,81.26 590.34,82.23 595.74,80.11 601.13,77.98 606.52,75.39 611.91,73.84 617.30,71.24 625.09,68.62 635.28,66.92 645.46,65.97 655.65,64.78 665.83,64.74 676.02,63.99 686.20,61.84 696.39,59.98 706.57,60.87 719.31,65.74 734.58,70.53 749.86,72.31 765.14,70.75 780.42,69.05 795.69,66.67 812.50,68.21 830.83,68.67 849.17,67.72 867.50,66.22 885.83,65.27 897.86,63.17 903.59,62.07 909.32,59.39 915.05,64.27 920.78,61.66 926.51,58.97 932.24,60.24 937.97,57.53 943.70,57.37 949.43,55.44 955.16,53.73 960.89,51.69 966.61,50.87 972.34,49.99 978.07,47.74 983.80,46.88 989.94,44.11 996.49,43.15 1003.04,40.23 1009.58,38.00 1016.13,43.06 1022.68,42.61 1029.23,41.32 1035.77,39.28 1042.32,44.33 1048.87,42.53 1055.42,47.55 1061.96,45.36 1068.51,43.85 1075.06,41.36 1081.03,38.48 1086.42,43.50 1091.81,41.36 1097.21,39.21 1102.60,37.83 1107.99,35.89 1113.38,35.67 1118.77,33.16 1124.17,30.80 1129.56,32.08 1134.95,31.55 1140.34,31.69 1145.74,28.87 1151.13,30.89 1156.52,28.50 1161.91,27.03 1167.30,25.00"/>
<text x="620.0" y="588" text-anchor="middle" font-family="sans-serif" font-size="12" fill="#333">Monthly Balance Curve</text>
<text x="15" y="287.5" transform="rotate(-90 15,287.5)" text-anchor="middle" font-family="sans-serif" font-size="12" fill="#333">Capital</text>
</svg>