<svg xmlns="http://www.w3.org/2000/svg" width="1200" height="600" viewBox="0 0 1200 600">
<desc>Equity curve with drawdown fill; x-axis is months only (no exact timestamps)</desc>
<text x="600.0" y="18.0" text-anchor="middle" font-family="sans-serif" font-size="14">Balance Curve 2003 (UTC)</text>
<rect x="70" y="25" width="1100" height="525" fill="white" stroke="#ccc" />
<line x1="70" y1="550.00" x2="1170" y2="550.00" stroke="#eee"/>
<text x="62" y="554.0" text-anchor="end" font-family="sans-serif" font-size="11" fill="#555">0.00</text>
<line x1="70" y1="445.00" x2="1170" y2="445.00" stroke="#eee"/>
<text x="62" y="449.0" text-anchor="end" font-family="sans-serif" font-size="11" fill="#555">22742</text>
<line x1="70" y1="340.00" x2="1170" y2="340.00" stroke="#eee"/>
<text x="62" y="344.0" text-anchor="end" font-family="sans-serif" font-size="11" fill="#555">45485</text>
<line x1="70" y1="235.00" x2="1170" y2="235.00" stroke="#eee"/>
<text x="62" y="239.0" text-anchor="end" font-family="sans-serif" font-size="11" fill="#555">68227</text>
<line x1="70" y1="130.00" x2="1170" y2="130.00" stroke="#eee"/>
<text x="62" y="134.0" text-anchor="end" font-family="sans-serif" font-size="11" fill="#555">90969</text>
<line x1="70" y1="25.00" x2="1170" y2="25.00" stroke="#eee"/>
<text x="62" y="29.0" text-anchor="end" font-family="sans-serif" font-size="11" fill="#555">113711</text>
<line x1="161.67" y1="25" x2="161.67" y2="550" stroke="#f2f2f2"/>
<line x1="253.33" y1="25" x2="253.33" y2="550" stroke="#f2f2f2"/>
<line x1="345.00" y1="25" x2="345.00" y2="550" stroke="#f2f2f2"/>
<line x1="436.67" y1="25" x2="436.67" y2="550" stroke="#f2f2f2"/>
<line x1="528.33" y1="25" x2="528.33" y2="550" stroke="#f2f2f2"/>
<line x1="620.00" y1="25" x2="620.00" y2="550" stroke="#f2f2f2"/>
<line x1="711.67" y1="25" x2="711.67" y2="550" stroke="#f2f2f2"/>
<line x1="803.33" y1="25" x2="803.33" y2="550" stroke="#f2f2f2"/>
<line x1="895.00" y1="25" x2="895.00" y2="550" stroke="#f2f2f2"/>
<line x1="986.67" y1="25" x2="986.67" y2="550" stroke="#f2f2f2"/>
<line x1="1078.33" y1="25" x2="1078.33" y2="550" stroke="#f2f2f2"/>
<text x="115.83" y="566.00" text-anchor="middle" font-family="sans-serif" font-size="11" fill="#444">Jan</text>
<text x="207.50" y="566.00" text-anchor="middle" font-family="sans-serif" font-size="11" fill="#444">Feb</text>
<text x="299.17" y="566.00" text-anchor="middle" font-family="sans-serif" font-size="11" fill="#444">Mar</text>
<text x="390.83" y="566.00" text-anchor="middle" font-family="sans-serif" font-size="11" fill="#444">Apr</text>
<text x="482.50" y="566.00" text-anchor="middle" font-family="sans-serif" font-size="11" fill="#444">May</text>
<text x="574.17" y="566.00" text-anchor="middle" font-family="sans-serif" font-size="11" fill="#444">Jun</text>
<text x="665.83" y="566.00" text-anchor="middle" font-family="sans-serif" font-size="11" fill="#444">Jul</text>
<text x="757.50" y="566.00" text-anchor="middle" font-family="sans-serif" font-size="11" fill="#444">Aug</text>
<text x="849.17" y="566.00" text-anchor="middle" font-family="sans-serif" font-size="11" fill="#444">Sep</text>
<text x="940.83" y="566.00" text-anchor="middle" font-family="sans-serif" font-size="11" fill="#444">Oct</text>
<text x="1032.50" y="566.00" text-anchor="middle" font-family="sans-serif" font-size="11" fill="#444">Nov</text>
<text x="1124.17" y="566.00" text-anchor="middle" font-family="sans-serif" font-size="11" fill="#444">Dec</text>
<line x1="70" y1="550" x2="1170" y2="550" stroke="#888"/>
<line x1="70" y1="25" x2="70" y2="550" stroke="#888"/>
<line x1="76.55" y1="550.00" x2="76.55" y2="556.00" stroke="#888"/>
<line x1="1158.54"   y1="550.00" x2="1158.54"   y2="556.00" stroke="#888"/>
<text x="76.55" y="582.00" text-anchor="start" font-family="sans-serif" font-size="11" fill="#333">Initial Balance: 100000</text>
<text x="1158.54"   y="582.00" text-anchor="end"   font-family="sans-serif" font-size="11" fill="#333">Ending Balance: 112857</text>
<path d="M 89.64 88.30 L 102.74 88.30 L 115.83 88.30 L 128.93 88.30 L 142.02 88.30 L 155.12 88.30 L 169.31 88.30 L 184.58 88.30 L 199.86 88.30 L 215.14 88.30 L 230.42 88.30 L 245.69 88.30 L 256.03 88.30 L 261.42 88.30 L 266.81 88.30 L 266.81 91.07 L 261.42 94.09 L 256.03 96.64 L 245.69 94.71 L 230.42 97.23 L 215.14 100.13 L 199.86 101.21 L 184.58 101.05 L 169.31 94.15 L 155.12 95.97 L 142.02 98.44 L 128.93 99.70 L 115.83 98.72 L 102.74 102.27 L 89.64 95.37 Z" fill="#d0d0d0" fill-opacity="0.5" stroke="none"/>
<path d="M 277.60 87.20 L 282.99 87.20 L 288.38 87.20 L 293.77 87.20 L 299.17 87.20 L 304.56 87.20 L 309.95 87.20 L 315.34 87.20 L 320.74 87.20 L 326.13 87.20 L 331.52 87.20 L 336.91 87.20 L 342.30 87.20 L 350.09 87.20 L 360.28 87.20 L 370.46 87.20 L 380.65 87.20 L 380.65 88.86 L 370.46 91.72 L 360.28 93.22 L 350.09 96.48 L 342.30 95.66 L 336.91 96.82 L 331.52 97.88 L 326.13 100.22 L 320.74 103.74 L 315.34 105.49 L 309.95 108.55 L 304.56 101.70 L 299.17 104.45 L 293.77 97.53 L 288.38 98.59 L 282.99 91.58 L 277.60 94.17 Z" fill="#d0d0d0" fill-opacity="0.5" stroke="none"/>
<path d="M 441.76 79.83 L 451.94 79.83 L 462.13 79.83 L 462.13 82.16 L 451.94 84.11 L 441.76 87.00 Z" fill="#d0d0d0" fill-opacity="0.5" stroke="none"/>
<path d="M 482.50 78.75 L 482.50 80.03 Z" fill="#d0d0d0" fill-opacity="0.5" stroke="none"/>
<path d="M 513.06 75.14 L 513.06 76.13 Z" fill="#d0d0d0" fill-opacity="0.5" stroke="none"/>
<path d="M 557.50 67.09 L 565.83 67.09 L 574.17 67.09 L 582.50 67.09 L 582.50 69.11 L 574.17 72.08 L 565.83 71.96 L 557.50 74.41 Z" fill="#d0d0d0" fill-opacity="0.5" stroke="none"/>
<path d="M 665.83 48.82 L 676.02 48.82 L 686.20 48.82 L 696.39 48.82 L 706.57 48.82 L 717.40 48.82 L 728.85 48.82 L 740.31 48.82 L 751.77 48.82 L 763.23 48.82 L 763.23 50.62 L 751.77 54.18 L 740.31 58.02 L 728.85 50.40 L 717.40 53.38 L 706.57 56.58 L 696.39 59.81 L 686.20 58.37 L 676.02 59.99 L 665.83 52.41 Z" fill="#d0d0d0" fill-opacity="0.5" stroke="none"/>
<path d="M 809.88 40.78 L 822.98 40.78 L 836.07 40.78 L 849.17 40.78 L 862.26 40.78 L 875.36 40.78 L 888.45 40.78 L 898.82 40.78 L 906.46 40.78 L 906.46 41.31 L 898.82 45.38 L 888.45 48.69 L 875.36 50.64 L 862.26 48.31 L 849.17 52.29 L 836.07 52.54 L 822.98 56.12 L 809.88 48.54 Z" fill="#d0d0d0" fill-opacity="0.5" stroke="none"/>
<path d="M 929.38 39.27 L 937.01 39.27 L 944.65 39.27 L 952.29 39.27 L 952.29 42.71 L 944.65 46.34 L 937.01 48.40 L 929.38 40.65 Z" fill="#d0d0d0" fill-opacity="0.5" stroke="none"/>
<path d="M 967.57 39.20 L 975.21 39.20 L 982.85 39.20 L 982.85 39.76 L 975.21 43.83 L 967.57 46.96 Z" fill="#d0d0d0" fill-opacity="0.5" stroke="none"/>
<path d="M 1135.62 25.00 L 1158.54 25.00 L 1158.54 28.94 L 1135.62 32.95 Z" fill="#d0d0d0" fill-opacity="0.5" stroke="none"/>
<polyline fill="none" stroke="#111" stroke-width="1.2" points="76.55,88.30 89.64,95.37 102.74,102.27 115.83,98.72 128.93,99.70 142.02,98.44 155.12,95.97 169.31,94.15 184.58,101.05 199.86,101.21 215.14,100.13 230.42,97.23 245.69,94.71 256.03,96.64 261.42,94.09 266.81,91.07 272.21,87.20 277.60,94.17 282.99,91.58 288.38,98.59 293.77,97.53 299.17,104.45 304.56,101.70 309.95,108.55 315.34,105.49 320.74,103.74 326.13,100.22 331.52,97.88 336.91,96.82 342.30,95.66 350.09,96.48 360.28,93.22 370.46,91.72 380.65,88.86 390.83,85.59 401.02,83.51 411.20,80.55 421.39,80.21 431.57,79.83 441.76,87.00 451.94,84.11 462.13,82.16 472.31,78.75 482.50,80.03 492.69,77.65 502.87,75.14 513.06,76.13 523.24,73.02 532.50,72.04 540.83,70.93 549.17,67.09 557.50,74.41 565.83,71.96 574.17,72.08 582.50,69.11 590.83,66.04 599.17,63.88 607.50,62.12 615.83,59.47 625.09,57.48 635.28,55.22 645.46,52.01 655.65,48.82 665.83,52.41 676.02,59.99 686.20,58.37 696.39,59.81 706.57,56.58 717.40,53.38 728.85,50.40 740.31,58.02 751.77,54.18 763.23,50.62 774.69,47.04 786.15,43.95 797.60,40.78 809.88,48.54 822.98,56.12 836.07,52.54 849.17,52.29 862.26,48.31 875.36,50.64 888.45,48.69 898.82,45.38 906.46,41.31 914.10,39.41 921.74,39.27 929.38,40.65 937.01,48.40 944.65,46.34 952.29,42.71 959.93,39.20 967.57,46.96 975.21,43.83 982.85,39.76 1009.58,35.67 1055.42,32.90 1089.79,28.76 1112.71,25.00 1135.62,32.95 1158.54,28.94"/>
<text x="15" y="287.5" transform="rotate(-90 15,287.5)" text-anchor="middle" font-family="sans-serif" font-size="12" fill="#333">USD</text>
</svg>