<svg xmlns="http://www.w3.org/2000/svg" width="1200" height="600" viewBox="0 0 1200 600">
<desc>Equity curve with drawdown fill</desc>
<text x="600.0" y="18.0" text-anchor="middle" font-family="sans-serif" font-size="14">Portfolio 2013</text>
<rect x="70" y="25" width="1100" height="525" fill="white" stroke="#ccc" />
<line x1="70" y1="550.00" x2="1170" y2="550.00" stroke="#eee"/>
<text x="62" y="554.0" text-anchor="end" font-family="sans-serif" font-size="11" fill="#555">0.00</text>
<line x1="70" y1="445.00" x2="1170" y2="445.00" stroke="#eee"/>
<text x="62" y="449.0" text-anchor="end" font-family="sans-serif" font-size="11" fill="#555">20000</text>
<line x1="70" y1="340.00" x2="1170" y2="340.00" stroke="#eee"/>
<text x="62" y="344.0" text-anchor="end" font-family="sans-serif" font-size="11" fill="#555">40000</text>
<line x1="70" y1="235.00" x2="1170" y2="235.00" stroke="#eee"/>
<text x="62" y="239.0" text-anchor="end" font-family="sans-serif" font-size="11" fill="#555">60000</text>
<line x1="70" y1="130.00" x2="1170" y2="130.00" stroke="#eee"/>
<text x="62" y="134.0" text-anchor="end" font-family="sans-serif" font-size="11" fill="#555">80000</text>
<line x1="70" y1="25.00" x2="1170" y2="25.00" stroke="#eee"/>
<text x="62" y="29.0" text-anchor="end" font-family="sans-serif" font-size="11" fill="#555">100000</text>
<line x1="159.76" y1="25" x2="159.76" y2="550" stroke="#f2f2f2"/>
<text x="159.76" y="566" text-anchor="middle" font-family="sans-serif" font-size="11" fill="#555">Feb</text>
<line x1="245.61" y1="25" x2="245.61" y2="550" stroke="#f2f2f2"/>
<text x="245.61" y="566" text-anchor="middle" font-family="sans-serif" font-size="11" fill="#555">Mar</text>
<line x1="340.66" y1="25" x2="340.66" y2="550" stroke="#f2f2f2"/>
<text x="340.66" y="566" text-anchor="middle" font-family="sans-serif" font-size="11" fill="#555">Apr</text>
<line x1="432.64" y1="25" x2="432.64" y2="550" stroke="#f2f2f2"/>
<text x="432.64" y="566" text-anchor="middle" font-family="sans-serif" font-size="11" fill="#555">May</text>
<line x1="527.69" y1="25" x2="527.69" y2="550" stroke="#f2f2f2"/>
<text x="527.69" y="566" text-anchor="middle" font-family="sans-serif" font-size="11" fill="#555">Jun</text>
<line x1="619.68" y1="25" x2="619.68" y2="550" stroke="#f2f2f2"/>
<text x="619.68" y="566" text-anchor="middle" font-family="sans-serif" font-size="11" fill="#555">Jul</text>
<line x1="714.72" y1="25" x2="714.72" y2="550" stroke="#f2f2f2"/>
<text x="714.72" y="566" text-anchor="middle" font-family="sans-serif" font-size="11" fill="#555">Aug</text>
<line x1="809.77" y1="25" x2="809.77" y2="550" stroke="#f2f2f2"/>
<text x="809.77" y="566" text-anchor="middle" font-family="sans-serif" font-size="11" fill="#555">Sep</text>
<line x1="901.76" y1="25" x2="901.76" y2="550" stroke="#f2f2f2"/>
<text x="901.76" y="566" text-anchor="middle" font-family="sans-serif" font-size="11" fill="#555">Oct</text>
<line x1="996.81" y1="25" x2="996.81" y2="550" stroke="#f2f2f2"/>
<text x="996.81" y="566" text-anchor="middle" font-family="sans-serif" font-size="11" fill="#555">Nov</text>
<line x1="1088.79" y1="25" x2="1088.79" y2="550" stroke="#f2f2f2"/>
<text x="1088.79" y="566" text-anchor="middle" font-family="sans-serif" font-size="11" fill="#555">Dec</text>
<line x1="70" y1="550" x2="1170" y2="550" stroke="#888"/>
<line x1="70" y1="25" x2="70" y2="550" stroke="#888"/>
<path d="M 70.00 25.00 L 94.09 25.00 L 97.11 25.00 L 110.12 25.00 L 118.52 25.00 L 130.29 25.00 L 134.22 25.00 L 161.68 25.00 L 161.91 25.00 L 174.15 25.00 L 179.93 25.00 L 180.09 25.00 L 180.10 25.00 L 180.22 25.00 L 180.34 25.00 L 194.98 25.00 L 200.90 25.00 L 220.45 25.00 L 222.22 25.00 L 225.59 25.00 L 235.39 25.00 L 235.42 25.00 L 235.62 25.00 L 235.83 25.00 L 265.77 25.00 L 268.80 25.00 L 268.88 25.00 L 268.95 25.00 L 284.39 25.00 L 287.84 25.00 L 297.73 25.00 L 299.02 25.00 L 302.99 25.00 L 311.97 25.00 L 319.28 25.00 L 321.03 25.00 L 351.60 25.00 L 351.79 25.00 L 354.65 25.00 L 354.67 25.00 L 354.97 25.00 L 388.34 25.00 L 388.93 25.00 L 391.70 25.00 L 409.38 25.00 L 416.27 25.00 L 431.51 25.00 L 437.51 25.00 L 437.60 25.00 L 437.76 25.00 L 440.51 25.00 L 440.73 25.00 L 459.72 25.00 L 462.34 25.00 L 483.47 25.00 L 498.99 25.00 L 499.03 25.00 L 517.46 25.00 L 520.03 25.00 L 520.08 25.00 L 523.50 25.00 L 535.90 25.00 L 536.02 25.00 L 536.09 25.00 L 545.17 25.00 L 545.29 25.00 L 547.88 25.00 L 585.37 25.00 L 590.79 25.00 L 612.47 25.00 L 627.90 25.00 L 630.61 25.00 L 630.72 25.00 L 630.79 25.00 L 633.66 25.00 L 646.30 25.00 L 649.73 25.00 L 650.29 25.00 L 650.33 25.00 L 650.47 25.00 L 651.41 25.00 L 670.78 25.00 L 713.38 25.00 L 714.09 25.00 L 719.52 25.00 L 759.47 25.00 L 759.98 25.00 L 760.17 25.00 L 823.86 25.00 L 826.83 25.00 L 864.32 25.00 L 906.72 25.00 L 946.09 25.00 L 949.84 25.00 L 952.04 25.00 L 967.87 25.00 L 993.21 25.00 L 1016.83 25.00 L 1017.02 25.00 L 1017.04 25.00 L 1019.99 25.00 L 1035.73 25.00 L 1057.16 25.00 L 1102.91 25.00 L 1143.34 25.00 L 1170.00 25.00 L 1170.00 44.34 L 1143.34 48.84 L 1102.91 53.12 L 1057.16 55.83 L 1035.73 48.23 L 1019.99 52.52 L 1017.04 56.77 L 1017.02 49.18 L 1016.83 47.24 L 993.21 51.71 L 967.87 53.97 L 952.04 58.21 L 949.84 55.85 L 946.09 58.19 L 906.72 60.03 L 864.32 58.94 L 826.83 63.31 L 823.86 67.45 L 760.17 69.79 L 759.98 70.77 L 759.47 75.02 L 719.52 75.84 L 714.09 79.87 L 713.38 83.87 L 670.78 87.82 L 651.41 90.23 L 650.47 83.19 L 650.33 85.46 L 650.29 78.40 L 649.73 71.19 L 646.30 63.85 L 633.66 56.37 L 630.79 60.57 L 630.72 63.10 L 630.61 62.95 L 627.90 67.09 L 612.47 70.41 L 590.79 72.54 L 585.37 74.45 L 547.88 67.16 L 545.29 71.23 L 545.17 70.48 L 536.09 74.56 L 536.02 76.48 L 535.90 76.87 L 523.50 69.61 L 520.08 62.23 L 520.03 65.07 L 517.46 57.62 L 499.03 58.33 L 498.99 62.26 L 483.47 65.36 L 462.34 68.00 L 459.72 71.32 L 440.73 63.98 L 440.51 67.53 L 437.76 71.59 L 437.60 64.25 L 437.51 65.19 L 431.51 57.74 L 416.27 50.18 L 409.38 48.97 L 391.70 46.46 L 388.93 38.72 L 388.34 38.90 L 354.97 41.78 L 354.67 44.95 L 354.65 49.06 L 351.79 53.33 L 351.60 45.69 L 321.03 49.98 L 319.28 52.83 L 311.97 57.06 L 302.99 60.06 L 299.02 63.81 L 297.73 65.53 L 287.84 63.23 L 284.39 64.17 L 268.95 62.77 L 268.88 55.29 L 268.80 47.74 L 265.77 52.02 L 235.83 56.21 L 235.62 57.49 L 235.42 56.63 L 235.39 60.23 L 225.59 52.70 L 222.22 56.23 L 220.45 59.68 L 200.90 63.86 L 194.98 68.00 L 180.34 67.76 L 180.22 65.41 L 180.10 64.07 L 180.09 56.61 L 179.93 49.07 L 174.15 41.37 L 161.91 44.92 L 161.68 44.64 L 134.22 48.16 L 130.29 50.25 L 118.52 42.56 L 110.12 46.55 L 97.11 48.46 L 94.09 40.76 L 70.00 32.94 Z" fill="#d0d0d0" fill-opacity="0.5" stroke="none"/>
<polyline fill="none" stroke="#111" stroke-width="1.2" points="70.00,32.94 94.09,40.76 97.11,48.46 110.12,46.55 118.52,42.56 130.29,50.25 134.22,48.16 161.68,44.64 161.91,44.92 174.15,41.37 179.93,49.07 180.09,56.61 180.10,64.07 180.22,65.41 180.34,67.76 194.98,68.00 200.90,63.86 220.45,59.68 222.22,56.23 225.59,52.70 235.39,60.23 235.42,56.63 235.62,57.49 235.83,56.21 265.77,52.02 268.80,47.74 268.88,55.29 268.95,62.77 284.39,64.17 287.84,63.23 297.73,65.53 299.02,63.81 302.99,60.06 311.97,57.06 319.28,52.83 321.03,49.98 351.60,45.69 351.79,53.33 354.65,49.06 354.67,44.95 354.97,41.78 388.34,38.90 388.93,38.72 391.70,46.46 409.38,48.97 416.27,50.18 431.51,57.74 437.51,65.19 437.60,64.25 437.76,71.59 440.51,67.53 440.73,63.98 459.72,71.32 462.34,68.00 483.47,65.36 498.99,62.26 499.03,58.33 517.46,57.62 520.03,65.07 520.08,62.23 523.50,69.61 535.90,76.87 536.02,76.48 536.09,74.56 545.17,70.48 545.29,71.23 547.88,67.16 585.37,74.45 590.79,72.54 612.47,70.41 627.90,67.09 630.61,62.95 630.72,63.10 630.79,60.57 633.66,56.37 646.30,63.85 649.73,71.19 650.29,78.40 650.33,85.46 650.47,83.19 651.41,90.23 670.78,87.82 713.38,83.87 714.09,79.87 719.52,75.84 759.47,75.02 759.98,70.77 760.17,69.79 823.86,67.45 826.83,63.31 864.32,58.94 906.72,60.03 946.09,58.19 949.84,55.85 952.04,58.21 967.87,53.97 993.21,51.71 1016.83,47.24 1017.02,49.18 1017.04,56.77 1019.99,52.52 1035.73,48.23 1057.16,55.83 1102.91,53.12 1143.34,48.84 1170.00,44.34"/>
<text x="620.0" y="588" text-anchor="middle" font-family="sans-serif" font-size="12" fill="#333">UTC time</text>
<text x="15" y="287.5" transform="rotate(-90 15,287.5)" text-anchor="middle" font-family="sans-serif" font-size="12" fill="#333">Capital</text>
</svg>