<svg xmlns="http://www.w3.org/2000/svg" width="1200" height="600" viewBox="0 0 1200 600">
<desc>Equity curve with drawdown fill</desc>
<text x="600.0" y="18.0" text-anchor="middle" font-family="sans-serif" font-size="14">Portfolio 2011</text>
<rect x="70" y="25" width="1100" height="525" fill="white" stroke="#ccc" />
<line x1="70" y1="550.00" x2="1170" y2="550.00" stroke="#eee"/>
<text x="62" y="554.0" text-anchor="end" font-family="sans-serif" font-size="11" fill="#555">0.00</text>
<line x1="70" y1="445.00" x2="1170" y2="445.00" stroke="#eee"/>
<text x="62" y="449.0" text-anchor="end" font-family="sans-serif" font-size="11" fill="#555">28810</text>
<line x1="70" y1="340.00" x2="1170" y2="340.00" stroke="#eee"/>
<text x="62" y="344.0" text-anchor="end" font-family="sans-serif" font-size="11" fill="#555">57621</text>
<line x1="70" y1="235.00" x2="1170" y2="235.00" stroke="#eee"/>
<text x="62" y="239.0" text-anchor="end" font-family="sans-serif" font-size="11" fill="#555">86431</text>
<line x1="70" y1="130.00" x2="1170" y2="130.00" stroke="#eee"/>
<text x="62" y="134.0" text-anchor="end" font-family="sans-serif" font-size="11" fill="#555">115241</text>
<line x1="70" y1="25.00" x2="1170" y2="25.00" stroke="#eee"/>
<text x="62" y="29.0" text-anchor="end" font-family="sans-serif" font-size="11" fill="#555">144052</text>
<line x1="156.74" y1="25" x2="156.74" y2="550" stroke="#f2f2f2"/>
<text x="156.74" y="566" text-anchor="middle" font-family="sans-serif" font-size="11" fill="#555">Feb</text>
<line x1="242.53" y1="25" x2="242.53" y2="550" stroke="#f2f2f2"/>
<text x="242.53" y="566" text-anchor="middle" font-family="sans-serif" font-size="11" fill="#555">Mar</text>
<line x1="337.50" y1="25" x2="337.50" y2="550" stroke="#f2f2f2"/>
<text x="337.50" y="566" text-anchor="middle" font-family="sans-serif" font-size="11" fill="#555">Apr</text>
<line x1="429.42" y1="25" x2="429.42" y2="550" stroke="#f2f2f2"/>
<text x="429.42" y="566" text-anchor="middle" font-family="sans-serif" font-size="11" fill="#555">May</text>
<line x1="524.39" y1="25" x2="524.39" y2="550" stroke="#f2f2f2"/>
<text x="524.39" y="566" text-anchor="middle" font-family="sans-serif" font-size="11" fill="#555">Jun</text>
<line x1="616.31" y1="25" x2="616.31" y2="550" stroke="#f2f2f2"/>
<text x="616.31" y="566" text-anchor="middle" font-family="sans-serif" font-size="11" fill="#555">Jul</text>
<line x1="711.28" y1="25" x2="711.28" y2="550" stroke="#f2f2f2"/>
<text x="711.28" y="566" text-anchor="middle" font-family="sans-serif" font-size="11" fill="#555">Aug</text>
<line x1="806.26" y1="25" x2="806.26" y2="550" stroke="#f2f2f2"/>
<text x="806.26" y="566" text-anchor="middle" font-family="sans-serif" font-size="11" fill="#555">Sep</text>
<line x1="898.17" y1="25" x2="898.17" y2="550" stroke="#f2f2f2"/>
<text x="898.17" y="566" text-anchor="middle" font-family="sans-serif" font-size="11" fill="#555">Oct</text>
<line x1="993.15" y1="25" x2="993.15" y2="550" stroke="#f2f2f2"/>
<text x="993.15" y="566" text-anchor="middle" font-family="sans-serif" font-size="11" fill="#555">Nov</text>
<line x1="1085.06" y1="25" x2="1085.06" y2="550" stroke="#f2f2f2"/>
<text x="1085.06" y="566" text-anchor="middle" font-family="sans-serif" font-size="11" fill="#555">Dec</text>
<line x1="70" y1="550" x2="1170" y2="550" stroke="#888"/>
<line x1="70" y1="25" x2="70" y2="550" stroke="#888"/>
<path d="M 73.01 59.77 L 79.15 59.77 L 82.27 59.77 L 97.34 59.77 L 100.38 59.77 L 100.44 59.77 L 100.54 59.77 L 100.76 59.77 L 102.66 59.77 L 112.32 59.77 L 115.09 59.77 L 115.74 59.77 L 118.59 59.77 L 121.76 59.77 L 122.03 59.77 L 124.09 59.77 L 134.21 59.77 L 136.61 59.77 L 137.34 59.77 L 142.44 59.77 L 142.77 59.77 L 146.51 59.77 L 167.89 59.77 L 183.20 59.77 L 197.78 59.77 L 204.82 59.77 L 210.63 59.77 L 221.36 59.77 L 222.08 59.77 L 222.50 59.77 L 271.02 59.77 L 274.54 59.77 L 286.11 59.77 L 286.11 61.64 L 274.54 62.92 L 271.02 64.37 L 222.50 67.12 L 222.08 62.18 L 221.36 64.27 L 210.63 65.18 L 204.82 63.44 L 197.78 65.69 L 183.20 64.21 L 167.89 66.37 L 146.51 67.60 L 142.77 62.67 L 142.44 65.42 L 137.34 68.14 L 136.61 68.86 L 134.21 69.76 L 124.09 69.55 L 122.03 72.01 L 121.76 73.75 L 118.59 76.21 L 115.74 78.39 L 115.09 80.36 L 112.32 80.54 L 102.66 83.00 L 100.76 78.22 L 100.54 73.39 L 100.44 74.34 L 100.38 69.52 L 97.34 64.63 L 82.27 66.93 L 79.15 69.64 L 73.01 64.73 Z" fill="#d0d0d0" fill-opacity="0.5" stroke="none"/>
<path d="M 318.42 54.24 L 318.42 54.92 Z" fill="#d0d0d0" fill-opacity="0.5" stroke="none"/>
<path d="M 339.64 50.28 L 359.35 50.28 L 391.62 50.28 L 391.70 50.28 L 397.12 50.28 L 414.37 50.28 L 415.26 50.28 L 417.09 50.28 L 437.70 50.28 L 437.70 52.35 L 417.09 52.95 L 415.26 55.54 L 414.37 57.44 L 397.12 59.39 L 391.70 57.51 L 391.62 58.62 L 359.35 53.59 L 339.64 55.34 Z" fill="#d0d0d0" fill-opacity="0.5" stroke="none"/>
<path d="M 443.44 49.50 L 443.53 49.50 L 443.65 49.50 L 443.70 49.50 L 443.79 49.50 L 443.89 49.50 L 446.47 49.50 L 446.94 49.50 L 447.04 49.50 L 447.19 49.50 L 455.75 49.50 L 458.15 49.50 L 461.94 49.50 L 462.35 49.50 L 462.49 49.50 L 465.28 49.50 L 468.28 49.50 L 468.40 49.50 L 468.52 49.50 L 477.27 49.50 L 480.24 49.50 L 480.90 49.50 L 486.86 49.50 L 489.30 49.50 L 489.61 49.50 L 497.94 49.50 L 506.32 49.50 L 508.00 49.50 L 509.66 49.50 L 510.84 49.50 L 521.43 49.50 L 528.98 49.50 L 529.86 49.50 L 532.55 49.50 L 550.80 49.50 L 553.92 49.50 L 569.50 49.50 L 571.08 49.50 L 571.71 49.50 L 572.31 49.50 L 574.78 49.50 L 584.53 49.50 L 585.75 49.50 L 593.60 49.50 L 604.31 49.50 L 606.13 49.50 L 609.09 49.50 L 611.94 49.50 L 612.13 49.50 L 636.44 49.50 L 636.68 49.50 L 639.48 49.50 L 639.50 49.50 L 639.87 49.50 L 648.62 49.50 L 649.00 49.50 L 650.40 49.50 L 651.13 49.50 L 651.18 49.50 L 651.37 49.50 L 651.72 49.50 L 653.26 49.50 L 653.26 50.14 L 651.72 52.27 L 651.37 52.64 L 651.18 55.29 L 651.13 57.08 L 650.40 52.03 L 649.00 54.86 L 648.62 56.98 L 639.87 58.55 L 639.50 59.49 L 639.48 62.27 L 636.68 65.04 L 636.44 60.07 L 612.13 62.61 L 611.94 64.87 L 609.09 67.62 L 606.13 62.69 L 604.31 61.99 L 593.60 62.92 L 585.75 63.49 L 584.53 66.25 L 574.78 65.11 L 572.31 65.66 L 571.71 67.93 L 571.08 70.64 L 569.50 73.36 L 553.92 68.48 L 550.80 70.11 L 532.55 72.12 L 529.86 73.25 L 528.98 74.97 L 521.43 73.04 L 510.84 73.61 L 509.66 74.89 L 508.00 70.02 L 506.32 71.99 L 497.94 73.11 L 489.61 75.26 L 489.30 70.41 L 486.86 68.36 L 480.90 69.70 L 480.24 71.63 L 477.27 73.86 L 468.52 75.99 L 468.40 77.86 L 468.28 73.05 L 465.28 68.17 L 462.49 69.63 L 462.35 69.80 L 461.94 71.26 L 458.15 73.01 L 455.75 75.07 L 447.19 70.22 L 447.04 70.37 L 446.94 71.97 L 446.47 67.08 L 443.89 69.82 L 443.79 69.70 L 443.70 69.35 L 443.65 64.44 L 443.53 59.51 L 443.44 54.54 Z" fill="#d0d0d0" fill-opacity="0.5" stroke="none"/>
<path d="M 655.10 48.30 L 655.18 48.30 L 656.05 48.30 L 656.05 49.76 L 655.18 51.37 L 655.10 53.37 Z" fill="#d0d0d0" fill-opacity="0.5" stroke="none"/>
<path d="M 678.91 38.38 L 678.97 38.38 L 679.09 38.38 L 679.09 40.36 L 678.97 41.70 L 678.91 43.56 Z" fill="#d0d0d0" fill-opacity="0.5" stroke="none"/>
<path d="M 679.42 37.46 L 679.43 37.46 L 679.64 37.46 L 679.69 37.46 L 693.26 37.46 L 698.15 37.46 L 700.46 37.46 L 703.93 37.46 L 704.03 37.46 L 704.20 37.46 L 713.20 37.46 L 713.30 37.46 L 713.39 37.46 L 713.54 37.46 L 715.38 37.46 L 716.33 37.46 L 718.54 37.46 L 718.79 37.46 L 722.24 37.46 L 722.35 37.46 L 724.64 37.46 L 725.41 37.46 L 725.73 37.46 L 725.83 37.46 L 726.07 37.46 L 733.78 37.46 L 734.11 37.46 L 734.14 37.46 L 734.40 37.46 L 737.15 37.46 L 738.26 37.46 L 740.64 37.46 L 740.77 37.46 L 740.78 37.46 L 740.85 37.46 L 740.96 37.46 L 742.40 37.46 L 743.40 37.46 L 743.74 37.46 L 743.99 37.46 L 755.99 37.46 L 756.20 37.46 L 756.26 37.46 L 759.44 37.46 L 761.38 37.46 L 761.99 37.46 L 765.39 37.46 L 768.15 37.46 L 779.85 37.46 L 780.62 37.46 L 786.89 37.46 L 790.10 37.46 L 797.88 37.46 L 801.37 37.46 L 807.43 37.46 L 822.73 37.46 L 822.89 37.46 L 822.93 37.46 L 823.65 37.46 L 825.81 37.46 L 829.47 37.46 L 829.92 37.46 L 832.11 37.46 L 832.63 37.46 L 832.72 37.46 L 832.83 37.46 L 839.87 37.46 L 840.80 37.46 L 841.22 37.46 L 842.37 37.46 L 844.11 37.46 L 844.23 37.46 L 844.54 37.46 L 844.97 37.46 L 848.06 37.46 L 848.49 37.46 L 848.49 39.36 L 848.06 42.25 L 844.97 44.87 L 844.54 47.43 L 844.23 49.86 L 844.11 52.24 L 842.37 53.94 L 841.22 56.14 L 840.80 58.38 L 839.87 58.58 L 832.83 60.32 L 832.72 62.75 L 832.63 63.46 L 832.11 58.47 L 829.92 60.66 L 829.47 62.61 L 825.81 57.61 L 823.65 60.40 L 822.93 55.39 L 822.89 56.94 L 822.73 51.89 L 807.43 54.84 L 801.37 56.52 L 797.88 58.76 L 790.10 61.55 L 786.89 56.54 L 780.62 58.36 L 779.85 59.02 L 768.15 53.99 L 765.39 48.91 L 761.99 48.70 L 761.38 50.95 L 759.44 52.99 L 756.26 55.80 L 756.20 57.78 L 755.99 56.03 L 743.99 50.97 L 743.74 53.36 L 743.40 56.18 L 742.40 56.09 L 740.96 55.30 L 740.85 56.20 L 740.78 57.04 L 740.77 52.05 L 740.64 46.97 L 738.26 41.83 L 737.15 44.69 L 734.40 47.54 L 734.14 48.29 L 734.11 50.44 L 733.78 45.32 L 726.07 47.57 L 725.83 48.67 L 725.73 51.14 L 725.41 53.97 L 724.64 56.49 L 722.35 58.77 L 722.24 61.27 L 718.79 63.46 L 718.54 65.18 L 716.33 67.23 L 715.38 67.57 L 713.54 69.75 L 713.39 68.31 L 713.30 69.38 L 713.20 64.49 L 704.20 59.52 L 704.03 60.61 L 703.93 61.26 L 700.46 56.26 L 698.15 51.21 L 693.26 46.11 L 679.69 48.96 L 679.64 49.84 L 679.43 47.71 L 679.42 42.62 Z" fill="#d0d0d0" fill-opacity="0.5" stroke="none"/>
<path d="M 864.53 34.05 L 864.53 35.64 Z" fill="#d0d0d0" fill-opacity="0.5" stroke="none"/>
<path d="M 873.82 25.00 L 875.21 25.00 L 875.70 25.00 L 883.09 25.00 L 883.17 25.00 L 884.18 25.00 L 884.83 25.00 L 887.55 25.00 L 890.14 25.00 L 890.49 25.00 L 891.45 25.00 L 892.76 25.00 L 897.03 25.00 L 906.35 25.00 L 908.53 25.00 L 909.33 25.00 L 912.92 25.00 L 915.19 25.00 L 915.21 25.00 L 915.38 25.00 L 915.63 25.00 L 918.28 25.00 L 918.55 25.00 L 918.82 25.00 L 918.90 25.00 L 926.11 25.00 L 926.98 25.00 L 927.48 25.00 L 933.06 25.00 L 933.19 25.00 L 933.21 25.00 L 933.31 25.00 L 936.34 25.00 L 939.86 25.00 L 948.74 25.00 L 951.39 25.00 L 957.73 25.00 L 957.86 25.00 L 957.91 25.00 L 958.23 25.00 L 958.79 25.00 L 960.65 25.00 L 961.28 25.00 L 969.60 25.00 L 970.84 25.00 L 973.58 25.00 L 976.75 25.00 L 976.85 25.00 L 977.18 25.00 L 978.13 25.00 L 979.64 25.00 L 979.72 25.00 L 980.01 25.00 L 990.47 25.00 L 990.59 25.00 L 990.81 25.00 L 992.35 25.00 L 994.21 25.00 L 994.40 25.00 L 995.52 25.00 L 996.29 25.00 L 1001.19 25.00 L 1001.23 25.00 L 1001.68 25.00 L 1004.24 25.00 L 1004.33 25.00 L 1013.01 25.00 L 1013.46 25.00 L 1017.02 25.00 L 1018.90 25.00 L 1019.06 25.00 L 1019.12 25.00 L 1019.41 25.00 L 1021.88 25.00 L 1022.72 25.00 L 1025.87 25.00 L 1025.97 25.00 L 1039.49 25.00 L 1044.00 25.00 L 1044.49 25.00 L 1046.85 25.00 L 1047.22 25.00 L 1055.58 25.00 L 1056.54 25.00 L 1061.99 25.00 L 1062.67 25.00 L 1075.84 25.00 L 1077.06 25.00 L 1080.25 25.00 L 1080.31 25.00 L 1080.69 25.00 L 1083.66 25.00 L 1083.79 25.00 L 1083.80 25.00 L 1090.18 25.00 L 1090.29 25.00 L 1099.81 25.00 L 1108.34 25.00 L 1110.99 25.00 L 1111.40 25.00 L 1123.84 25.00 L 1123.96 25.00 L 1144.60 25.00 L 1147.67 25.00 L 1147.78 25.00 L 1150.51 25.00 L 1169.67 25.00 L 1169.84 25.00 L 1170.00 25.00 L 1170.00 87.06 L 1169.84 85.64 L 1169.67 86.29 L 1150.51 81.52 L 1147.78 83.10 L 1147.67 85.14 L 1144.60 87.51 L 1123.96 88.80 L 1123.84 88.76 L 1111.40 84.02 L 1110.99 85.48 L 1108.34 80.71 L 1099.81 75.89 L 1090.29 75.94 L 1090.18 75.85 L 1083.80 70.98 L 1083.79 66.10 L 1083.66 61.18 L 1080.69 64.06 L 1080.31 66.33 L 1080.25 68.76 L 1077.06 63.81 L 1075.84 65.73 L 1062.67 65.27 L 1061.99 66.42 L 1056.54 65.02 L 1055.58 66.98 L 1047.22 67.17 L 1046.85 69.15 L 1044.49 64.20 L 1044.00 66.72 L 1039.49 68.92 L 1025.97 68.95 L 1025.87 69.11 L 1022.72 64.17 L 1021.88 66.53 L 1019.41 69.07 L 1019.12 71.06 L 1019.06 66.20 L 1018.90 66.77 L 1017.02 61.81 L 1013.46 64.38 L 1013.01 66.02 L 1004.33 67.93 L 1004.24 68.50 L 1001.68 63.55 L 1001.23 58.56 L 1001.19 60.93 L 996.29 55.92 L 995.52 57.89 L 994.40 52.85 L 994.21 54.55 L 992.35 56.76 L 990.81 57.86 L 990.59 56.74 L 990.47 58.28 L 980.01 60.60 L 979.72 55.58 L 979.64 56.27 L 978.13 51.21 L 977.18 54.03 L 976.85 56.84 L 976.75 57.97 L 973.58 52.92 L 970.84 55.51 L 969.60 54.41 L 961.28 56.32 L 960.65 51.26 L 958.79 53.02 L 958.23 55.84 L 957.91 57.87 L 957.86 59.53 L 957.73 59.01 L 951.39 53.97 L 948.74 54.31 L 939.86 49.23 L 936.34 44.09 L 933.31 46.34 L 933.21 46.09 L 933.19 40.93 L 933.06 35.75 L 927.48 30.49 L 926.98 33.15 L 926.11 27.86 L 918.90 29.94 L 918.82 30.99 L 918.55 25.69 L 918.28 28.37 L 915.63 31.31 L 915.38 28.64 L 915.21 31.56 L 915.19 34.33 L 912.92 29.05 L 909.33 30.19 L 908.53 32.86 L 906.35 34.99 L 897.03 29.71 L 892.76 30.16 L 891.45 29.11 L 890.49 31.21 L 890.14 32.81 L 887.55 34.44 L 884.83 29.17 L 884.18 30.62 L 883.17 32.28 L 883.09 33.32 L 875.70 28.03 L 875.21 30.68 L 873.82 30.31 Z" fill="#d0d0d0" fill-opacity="0.5" stroke="none"/>
<polyline fill="none" stroke="#111" stroke-width="1.2" points="70.00,61.42 72.26,59.77 73.01,64.73 79.15,69.64 82.27,66.93 97.34,64.63 100.38,69.52 100.44,74.34 100.54,73.39 100.76,78.22 102.66,83.00 112.32,80.54 115.09,80.36 115.74,78.39 118.59,76.21 121.76,73.75 122.03,72.01 124.09,69.55 134.21,69.76 136.61,68.86 137.34,68.14 142.44,65.42 142.77,62.67 146.51,67.60 167.89,66.37 183.20,64.21 197.78,65.69 204.82,63.44 210.63,65.18 221.36,64.27 222.08,62.18 222.50,67.12 271.02,64.37 274.54,62.92 286.11,61.64 286.85,59.41 287.37,56.90 294.99,55.18 296.24,54.26 315.11,54.24 318.42,54.92 333.65,53.11 339.42,50.28 339.64,55.34 359.35,53.59 391.62,58.62 391.70,57.51 397.12,59.39 414.37,57.44 415.26,55.54 417.09,52.95 437.70,52.35 443.39,49.50 443.44,54.54 443.53,59.51 443.65,64.44 443.70,69.35 443.79,69.70 443.89,69.82 446.47,67.08 446.94,71.97 447.04,70.37 447.19,70.22 455.75,75.07 458.15,73.01 461.94,71.26 462.35,69.80 462.49,69.63 465.28,68.17 468.28,73.05 468.40,77.86 468.52,75.99 477.27,73.86 480.24,71.63 480.90,69.70 486.86,68.36 489.30,70.41 489.61,75.26 497.94,73.11 506.32,71.99 508.00,70.02 509.66,74.89 510.84,73.61 521.43,73.04 528.98,74.97 529.86,73.25 532.55,72.12 550.80,70.11 553.92,68.48 569.50,73.36 571.08,70.64 571.71,67.93 572.31,65.66 574.78,65.11 584.53,66.25 585.75,63.49 593.60,62.92 604.31,61.99 606.13,62.69 609.09,67.62 611.94,64.87 612.13,62.61 636.44,60.07 636.68,65.04 639.48,62.27 639.50,59.49 639.87,58.55 648.62,56.98 649.00,54.86 650.40,52.03 651.13,57.08 651.18,55.29 651.37,52.64 651.72,52.27 653.26,50.14 654.20,48.30 655.10,53.37 655.18,51.37 656.05,49.76 658.19,47.60 660.31,45.83 661.37,42.96 672.57,41.01 673.94,38.38 678.91,43.56 678.97,41.70 679.09,40.36 679.27,37.46 679.42,42.62 679.43,47.71 679.64,49.84 679.69,48.96 693.26,46.11 698.15,51.21 700.46,56.26 703.93,61.26 704.03,60.61 704.20,59.52 713.20,64.49 713.30,69.38 713.39,68.31 713.54,69.75 715.38,67.57 716.33,67.23 718.54,65.18 718.79,63.46 722.24,61.27 722.35,58.77 724.64,56.49 725.41,53.97 725.73,51.14 725.83,48.67 726.07,47.57 733.78,45.32 734.11,50.44 734.14,48.29 734.40,47.54 737.15,44.69 738.26,41.83 740.64,46.97 740.77,52.05 740.78,57.04 740.85,56.20 740.96,55.30 742.40,56.09 743.40,56.18 743.74,53.36 743.99,50.97 755.99,56.03 756.20,57.78 756.26,55.80 759.44,52.99 761.38,50.95 761.99,48.70 765.39,48.91 768.15,53.99 779.85,59.02 780.62,58.36 786.89,56.54 790.10,61.55 797.88,58.76 801.37,56.52 807.43,54.84 822.73,51.89 822.89,56.94 822.93,55.39 823.65,60.40 825.81,57.61 829.47,62.61 829.92,60.66 832.11,58.47 832.63,63.46 832.72,62.75 832.83,60.32 839.87,58.58 840.80,58.38 841.22,56.14 842.37,53.94 844.11,52.24 844.23,49.86 844.54,47.43 844.97,44.87 848.06,42.25 848.49,39.36 850.94,36.47 851.02,35.09 861.34,34.05 864.53,35.64 865.67,33.98 865.89,32.41 871.90,29.47 872.39,27.96 873.07,25.00 873.82,30.31 875.21,30.68 875.70,28.03 883.09,33.32 883.17,32.28 884.18,30.62 884.83,29.17 887.55,34.44 890.14,32.81 890.49,31.21 891.45,29.11 892.76,30.16 897.03,29.71 906.35,34.99 908.53,32.86 909.33,30.19 912.92,29.05 915.19,34.33 915.21,31.56 915.38,28.64 915.63,31.31 918.28,28.37 918.55,25.69 918.82,30.99 918.90,29.94 926.11,27.86 926.98,33.15 927.48,30.49 933.06,35.75 933.19,40.93 933.21,46.09 933.31,46.34 936.34,44.09 939.86,49.23 948.74,54.31 951.39,53.97 957.73,59.01 957.86,59.53 957.91,57.87 958.23,55.84 958.79,53.02 960.65,51.26 961.28,56.32 969.60,54.41 970.84,55.51 973.58,52.92 976.75,57.97 976.85,56.84 977.18,54.03 978.13,51.21 979.64,56.27 979.72,55.58 980.01,60.60 990.47,58.28 990.59,56.74 990.81,57.86 992.35,56.76 994.21,54.55 994.40,52.85 995.52,57.89 996.29,55.92 1001.19,60.93 1001.23,58.56 1001.68,63.55 1004.24,68.50 1004.33,67.93 1013.01,66.02 1013.46,64.38 1017.02,61.81 1018.90,66.77 1019.06,66.20 1019.12,71.06 1019.41,69.07 1021.88,66.53 1022.72,64.17 1025.87,69.11 1025.97,68.95 1039.49,68.92 1044.00,66.72 1044.49,64.20 1046.85,69.15 1047.22,67.17 1055.58,66.98 1056.54,65.02 1061.99,66.42 1062.67,65.27 1075.84,65.73 1077.06,63.81 1080.25,68.76 1080.31,66.33 1080.69,64.06 1083.66,61.18 1083.79,66.10 1083.80,70.98 1090.18,75.85 1090.29,75.94 1099.81,75.89 1108.34,80.71 1110.99,85.48 1111.40,84.02 1123.84,88.76 1123.96,88.80 1144.60,87.51 1147.67,85.14 1147.78,83.10 1150.51,81.52 1169.67,86.29 1169.84,85.64 1170.00,87.06"/>
<text x="620.0" y="588" text-anchor="middle" font-family="sans-serif" font-size="12" fill="#333">UTC time</text>
<text x="15" y="287.5" transform="rotate(-90 15,287.5)" text-anchor="middle" font-family="sans-serif" font-size="12" fill="#333">Capital</text>
</svg>