<svg xmlns="http://www.w3.org/2000/svg" width="1200" height="600" viewBox="0 0 1200 600">
<desc>Equity curve with drawdown fill; x-axis is months only (no exact timestamps)</desc>
<text x="600.0" y="18.0" text-anchor="middle" font-family="sans-serif" font-size="14">Balance Curve 2010 (UTC)</text>
<rect x="70" y="25" width="1100" height="525" fill="white" stroke="#ccc" />
<line x1="70" y1="550.00" x2="1170" y2="550.00" stroke="#eee"/>
<text x="62" y="554.0" text-anchor="end" font-family="sans-serif" font-size="11" fill="#555">0.00</text>
<line x1="70" y1="445.00" x2="1170" y2="445.00" stroke="#eee"/>
<text x="62" y="449.0" text-anchor="end" font-family="sans-serif" font-size="11" fill="#555">951362</text>
<line x1="70" y1="340.00" x2="1170" y2="340.00" stroke="#eee"/>
<text x="62" y="344.0" text-anchor="end" font-family="sans-serif" font-size="11" fill="#555">1902723</text>
<line x1="70" y1="235.00" x2="1170" y2="235.00" stroke="#eee"/>
<text x="62" y="239.0" text-anchor="end" font-family="sans-serif" font-size="11" fill="#555">2854085</text>
<line x1="70" y1="130.00" x2="1170" y2="130.00" stroke="#eee"/>
<text x="62" y="134.0" text-anchor="end" font-family="sans-serif" font-size="11" fill="#555">3805447</text>
<line x1="70" y1="25.00" x2="1170" y2="25.00" stroke="#eee"/>
<text x="62" y="29.0" text-anchor="end" font-family="sans-serif" font-size="11" fill="#555">4756808</text>
<line x1="161.67" y1="25" x2="161.67" y2="550" stroke="#f2f2f2"/>
<line x1="253.33" y1="25" x2="253.33" y2="550" stroke="#f2f2f2"/>
<line x1="345.00" y1="25" x2="345.00" y2="550" stroke="#f2f2f2"/>
<line x1="436.67" y1="25" x2="436.67" y2="550" stroke="#f2f2f2"/>
<line x1="528.33" y1="25" x2="528.33" y2="550" stroke="#f2f2f2"/>
<line x1="620.00" y1="25" x2="620.00" y2="550" stroke="#f2f2f2"/>
<line x1="711.67" y1="25" x2="711.67" y2="550" stroke="#f2f2f2"/>
<line x1="803.33" y1="25" x2="803.33" y2="550" stroke="#f2f2f2"/>
<line x1="895.00" y1="25" x2="895.00" y2="550" stroke="#f2f2f2"/>
<line x1="986.67" y1="25" x2="986.67" y2="550" stroke="#f2f2f2"/>
<line x1="1078.33" y1="25" x2="1078.33" y2="550" stroke="#f2f2f2"/>
<text x="115.83" y="566.00" text-anchor="middle" font-family="sans-serif" font-size="11" fill="#444">Jan</text>
<text x="207.50" y="566.00" text-anchor="middle" font-family="sans-serif" font-size="11" fill="#444">Feb</text>
<text x="299.17" y="566.00" text-anchor="middle" font-family="sans-serif" font-size="11" fill="#444">Mar</text>
<text x="390.83" y="566.00" text-anchor="middle" font-family="sans-serif" font-size="11" fill="#444">Apr</text>
<text x="482.50" y="566.00" text-anchor="middle" font-family="sans-serif" font-size="11" fill="#444">May</text>
<text x="574.17" y="566.00" text-anchor="middle" font-family="sans-serif" font-size="11" fill="#444">Jun</text>
<text x="665.83" y="566.00" text-anchor="middle" font-family="sans-serif" font-size="11" fill="#444">Jul</text>
<text x="757.50" y="566.00" text-anchor="middle" font-family="sans-serif" font-size="11" fill="#444">Aug</text>
<text x="849.17" y="566.00" text-anchor="middle" font-family="sans-serif" font-size="11" fill="#444">Sep</text>
<text x="940.83" y="566.00" text-anchor="middle" font-family="sans-serif" font-size="11" fill="#444">Oct</text>
<text x="1032.50" y="566.00" text-anchor="middle" font-family="sans-serif" font-size="11" fill="#444">Nov</text>
<text x="1124.17" y="566.00" text-anchor="middle" font-family="sans-serif" font-size="11" fill="#444">Dec</text>
<line x1="70" y1="550" x2="1170" y2="550" stroke="#888"/>
<line x1="70" y1="25" x2="70" y2="550" stroke="#888"/>
<line x1="75.09" y1="550.00" x2="75.09" y2="556.00" stroke="#888"/>
<line x1="1167.30"   y1="550.00" x2="1167.30"   y2="556.00" stroke="#888"/>
<text x="75.09" y="582.00" text-anchor="start" font-family="sans-serif" font-size="11" fill="#333">Initial Balance: 4002095</text>
<text x="1167.30"   y="582.00" text-anchor="end"   font-family="sans-serif" font-size="11" fill="#333">Ending Balance: 4756808</text>
<path d="M 115.83 103.06 L 115.83 103.44 Z" fill="#d0d0d0" fill-opacity="0.5" stroke="none"/>
<path d="M 207.50 94.34 L 225.83 94.34 L 244.17 94.34 L 244.17 95.22 L 225.83 96.47 L 207.50 98.13 Z" fill="#d0d0d0" fill-opacity="0.5" stroke="none"/>
<path d="M 306.81 89.75 L 306.81 90.56 Z" fill="#d0d0d0" fill-opacity="0.5" stroke="none"/>
<path d="M 398.47 85.03 L 413.75 85.03 L 429.03 85.03 L 437.60 85.03 L 439.47 85.03 L 441.34 85.03 L 443.21 85.03 L 445.09 85.03 L 446.96 85.03 L 448.83 85.03 L 450.70 85.03 L 452.57 85.03 L 452.57 86.21 L 450.70 88.61 L 448.83 90.31 L 446.96 91.86 L 445.09 93.86 L 443.21 95.39 L 441.34 96.90 L 439.47 98.18 L 437.60 94.63 L 429.03 90.95 L 413.75 87.30 L 398.47 88.70 Z" fill="#d0d0d0" fill-opacity="0.5" stroke="none"/>
<path d="M 471.28 74.76 L 473.15 74.76 L 475.02 74.76 L 476.89 74.76 L 476.89 74.94 L 475.02 76.31 L 473.15 77.05 L 471.28 78.19 Z" fill="#d0d0d0" fill-opacity="0.5" stroke="none"/>
<path d="M 482.50 71.62 L 484.37 71.62 L 486.24 71.62 L 486.24 72.31 L 484.37 72.67 L 482.50 75.00 Z" fill="#d0d0d0" fill-opacity="0.5" stroke="none"/>
<path d="M 489.98 71.47 L 491.85 71.47 L 493.72 71.47 L 495.60 69.38 L 497.47 69.38 L 497.47 77.58 L 495.60 74.16 L 493.72 72.07 L 491.85 72.55 L 489.98 74.90 Z" fill="#d0d0d0" fill-opacity="0.5" stroke="none"/>
<path d="M 501.21 69.38 L 503.08 69.38 L 504.95 69.38 L 506.82 69.38 L 508.69 69.38 L 510.56 69.38 L 512.43 69.38 L 514.30 69.38 L 516.17 69.38 L 518.04 69.38 L 518.04 69.54 L 516.17 69.39 L 514.30 70.24 L 512.43 70.32 L 510.56 71.13 L 508.69 72.41 L 506.82 73.44 L 504.95 74.90 L 503.08 76.36 L 501.21 76.34 Z" fill="#d0d0d0" fill-opacity="0.5" stroke="none"/>
<path d="M 563.38 55.50 L 568.77 55.50 L 574.17 55.50 L 579.56 55.50 L 584.95 55.50 L 590.34 55.50 L 595.74 55.50 L 601.13 55.50 L 601.13 56.19 L 595.74 57.53 L 590.34 58.87 L 584.95 57.74 L 579.56 56.62 L 574.17 56.73 L 568.77 57.53 L 563.38 58.83 Z" fill="#d0d0d0" fill-opacity="0.5" stroke="none"/>
<path d="M 665.83 47.12 L 665.83 47.24 Z" fill="#d0d0d0" fill-opacity="0.5" stroke="none"/>
<path d="M 706.57 44.31 L 719.31 44.31 L 734.58 44.31 L 749.86 44.31 L 765.14 44.31 L 780.42 44.31 L 795.69 44.31 L 812.50 44.31 L 830.83 44.31 L 849.17 44.31 L 867.50 44.31 L 885.83 44.31 L 897.86 44.31 L 903.59 44.31 L 909.32 44.31 L 915.05 44.31 L 920.78 44.31 L 926.51 44.31 L 932.24 44.31 L 937.97 44.31 L 943.70 44.31 L 949.43 44.31 L 949.43 44.50 L 943.70 45.81 L 937.97 45.79 L 932.24 47.71 L 926.51 46.59 L 920.78 48.48 L 915.05 51.02 L 909.32 47.19 L 903.59 49.08 L 897.86 49.77 L 885.83 51.22 L 867.50 51.79 L 849.17 52.77 L 830.83 53.33 L 812.50 52.87 L 795.69 51.62 L 780.42 53.17 L 765.14 54.24 L 749.86 55.22 L 734.58 53.78 L 719.31 48.73 L 706.57 45.09 Z" fill="#d0d0d0" fill-opacity="0.5" stroke="none"/>
<path d="M 1016.13 32.18 L 1022.68 32.18 L 1029.23 32.18 L 1035.77 32.18 L 1042.32 32.18 L 1048.87 32.18 L 1055.42 32.18 L 1061.96 32.18 L 1068.51 32.18 L 1075.06 32.18 L 1081.03 32.18 L 1086.42 32.18 L 1091.81 32.18 L 1097.21 32.18 L 1097.21 32.91 L 1091.81 34.96 L 1086.42 36.30 L 1081.03 32.68 L 1075.06 35.47 L 1068.51 37.07 L 1061.96 37.98 L 1055.42 39.43 L 1048.87 35.64 L 1042.32 37.34 L 1035.77 33.58 L 1029.23 34.91 L 1022.68 35.71 L 1016.13 36.05 Z" fill="#d0d0d0" fill-opacity="0.5" stroke="none"/>
<path d="M 1129.56 27.78 L 1134.95 27.78 L 1140.34 27.78 L 1140.34 28.83 L 1134.95 28.59 L 1129.56 28.81 Z" fill="#d0d0d0" fill-opacity="0.5" stroke="none"/>
<path d="M 1151.13 27.08 L 1156.52 27.08 L 1156.52 27.10 L 1151.13 28.60 Z" fill="#d0d0d0" fill-opacity="0.5" stroke="none"/>
<polyline fill="none" stroke="#111" stroke-width="1.2" points="75.09,108.30 85.28,106.34 95.46,104.38 105.65,103.06 115.83,103.44 126.02,102.52 136.20,101.28 146.39,99.48 156.57,97.58 170.83,96.21 189.17,94.34 207.50,98.13 225.83,96.47 244.17,95.22 260.97,93.38 276.25,91.10 291.53,89.75 306.81,90.56 322.08,89.24 337.36,88.00 352.64,86.98 367.92,86.02 383.19,85.03 398.47,88.70 413.75,87.30 429.03,90.95 437.60,94.63 439.47,98.18 441.34,96.90 443.21,95.39 445.09,93.86 446.96,91.86 448.83,90.31 450.70,88.61 452.57,86.21 454.44,84.49 456.31,83.94 458.18,82.30 460.05,81.63 461.92,79.35 463.79,78.13 465.66,77.18 467.53,75.98 469.40,74.76 471.28,78.19 473.15,77.05 475.02,76.31 476.89,74.94 478.76,73.66 480.63,71.62 482.50,75.00 484.37,72.67 486.24,72.31 488.11,71.47 489.98,74.90 491.85,72.55 493.72,72.07 495.60,74.16 497.47,77.58 499.34,69.38 501.21,76.34 503.08,76.36 504.95,74.90 506.82,73.44 508.69,72.41 510.56,71.13 512.43,70.32 514.30,70.24 516.17,69.39 518.04,69.54 519.91,68.05 521.79,65.85 523.66,64.96 525.53,64.19 527.40,62.72 531.03,61.83 536.42,60.24 541.81,59.03 547.21,57.96 552.60,56.52 557.99,55.50 563.38,58.83 568.77,57.53 574.17,56.73 579.56,56.62 584.95,57.74 590.34,58.87 595.74,57.53 601.13,56.19 606.52,54.55 611.91,53.63 617.30,52.01 625.09,50.34 635.28,48.72 645.46,48.21 655.65,47.12 665.83,47.24 676.02,46.85 686.20,45.47 696.39,44.31 706.57,45.09 719.31,48.73 734.58,53.78 749.86,55.22 765.14,54.24 780.42,53.17 795.69,51.62 812.50,52.87 830.83,53.33 849.17,52.77 867.50,51.79 885.83,51.22 897.86,49.77 903.59,49.08 909.32,47.19 915.05,51.02 920.78,48.48 926.51,46.59 932.24,47.71 937.97,45.79 943.70,45.81 949.43,44.50 955.16,43.36 960.89,41.97 966.61,41.51 972.34,41.00 978.07,39.47 983.80,38.98 989.94,37.08 996.49,36.51 1003.04,33.68 1009.58,32.18 1016.13,36.05 1022.68,35.71 1029.23,34.91 1035.77,33.58 1042.32,37.34 1048.87,35.64 1055.42,39.43 1061.96,37.98 1068.51,37.07 1075.06,35.47 1081.03,32.68 1086.42,36.30 1091.81,34.96 1097.21,32.91 1102.60,32.10 1107.99,30.90 1113.38,30.89 1118.77,29.27 1124.17,27.78 1129.56,28.81 1134.95,28.59 1140.34,28.83 1145.74,27.08 1151.13,28.60 1156.52,27.10 1161.91,26.25 1167.30,25.00"/>
<text x="15" y="287.5" transform="rotate(-90 15,287.5)" text-anchor="middle" font-family="sans-serif" font-size="12" fill="#333">USD</text>
</svg>