<svg xmlns="http://www.w3.org/2000/svg" width="1200" height="600" viewBox="0 0 1200 600">
<desc>Equity curve with drawdown fill</desc>
<text x="600.0" y="18.0" text-anchor="middle" font-family="sans-serif" font-size="14">Portfolio 2011</text>
<rect x="70" y="25" width="1100" height="525" fill="white" stroke="#ccc" />
<line x1="70" y1="550.00" x2="1170" y2="550.00" stroke="#eee"/>
<text x="62" y="554.0" text-anchor="end" font-family="sans-serif" font-size="11" fill="#555">0.00</text>
<line x1="70" y1="445.00" x2="1170" y2="445.00" stroke="#eee"/>
<text x="62" y="449.0" text-anchor="end" font-family="sans-serif" font-size="11" fill="#555">36597</text>
<line x1="70" y1="340.00" x2="1170" y2="340.00" stroke="#eee"/>
<text x="62" y="344.0" text-anchor="end" font-family="sans-serif" font-size="11" fill="#555">73194</text>
<line x1="70" y1="235.00" x2="1170" y2="235.00" stroke="#eee"/>
<text x="62" y="239.0" text-anchor="end" font-family="sans-serif" font-size="11" fill="#555">109791</text>
<line x1="70" y1="130.00" x2="1170" y2="130.00" stroke="#eee"/>
<text x="62" y="134.0" text-anchor="end" font-family="sans-serif" font-size="11" fill="#555">146388</text>
<line x1="70" y1="25.00" x2="1170" y2="25.00" stroke="#eee"/>
<text x="62" y="29.0" text-anchor="end" font-family="sans-serif" font-size="11" fill="#555">182984</text>
<line x1="156.74" y1="25" x2="156.74" y2="550" stroke="#f2f2f2"/>
<text x="156.74" y="566" text-anchor="middle" font-family="sans-serif" font-size="11" fill="#555">Feb</text>
<line x1="242.53" y1="25" x2="242.53" y2="550" stroke="#f2f2f2"/>
<text x="242.53" y="566" text-anchor="middle" font-family="sans-serif" font-size="11" fill="#555">Mar</text>
<line x1="337.50" y1="25" x2="337.50" y2="550" stroke="#f2f2f2"/>
<text x="337.50" y="566" text-anchor="middle" font-family="sans-serif" font-size="11" fill="#555">Apr</text>
<line x1="429.42" y1="25" x2="429.42" y2="550" stroke="#f2f2f2"/>
<text x="429.42" y="566" text-anchor="middle" font-family="sans-serif" font-size="11" fill="#555">May</text>
<line x1="524.39" y1="25" x2="524.39" y2="550" stroke="#f2f2f2"/>
<text x="524.39" y="566" text-anchor="middle" font-family="sans-serif" font-size="11" fill="#555">Jun</text>
<line x1="616.31" y1="25" x2="616.31" y2="550" stroke="#f2f2f2"/>
<text x="616.31" y="566" text-anchor="middle" font-family="sans-serif" font-size="11" fill="#555">Jul</text>
<line x1="711.28" y1="25" x2="711.28" y2="550" stroke="#f2f2f2"/>
<text x="711.28" y="566" text-anchor="middle" font-family="sans-serif" font-size="11" fill="#555">Aug</text>
<line x1="806.26" y1="25" x2="806.26" y2="550" stroke="#f2f2f2"/>
<text x="806.26" y="566" text-anchor="middle" font-family="sans-serif" font-size="11" fill="#555">Sep</text>
<line x1="898.17" y1="25" x2="898.17" y2="550" stroke="#f2f2f2"/>
<text x="898.17" y="566" text-anchor="middle" font-family="sans-serif" font-size="11" fill="#555">Oct</text>
<line x1="993.15" y1="25" x2="993.15" y2="550" stroke="#f2f2f2"/>
<text x="993.15" y="566" text-anchor="middle" font-family="sans-serif" font-size="11" fill="#555">Nov</text>
<line x1="1085.06" y1="25" x2="1085.06" y2="550" stroke="#f2f2f2"/>
<text x="1085.06" y="566" text-anchor="middle" font-family="sans-serif" font-size="11" fill="#555">Dec</text>
<line x1="70" y1="550" x2="1170" y2="550" stroke="#888"/>
<line x1="70" y1="25" x2="70" y2="550" stroke="#888"/>
<path d="M 73.01 81.85 L 79.15 81.85 L 82.27 81.85 L 97.34 81.85 L 100.38 81.85 L 100.44 81.85 L 100.54 81.85 L 100.76 81.85 L 102.66 81.85 L 112.32 81.85 L 115.09 81.85 L 115.74 81.85 L 118.59 81.85 L 121.76 81.85 L 122.03 81.85 L 124.09 81.85 L 134.21 81.85 L 136.61 81.85 L 137.34 81.85 L 142.44 81.85 L 142.77 81.85 L 146.51 81.85 L 167.89 81.85 L 183.20 81.85 L 197.78 81.85 L 204.82 81.85 L 210.63 81.85 L 221.36 81.85 L 222.08 81.85 L 222.50 81.85 L 271.02 81.85 L 274.54 81.85 L 286.11 81.85 L 286.11 83.60 L 274.54 85.47 L 271.02 87.58 L 222.50 91.54 L 222.08 84.49 L 221.36 87.52 L 210.63 88.85 L 204.82 86.39 L 197.78 89.64 L 183.20 87.56 L 167.89 90.67 L 146.51 92.45 L 142.77 85.42 L 142.44 89.39 L 137.34 93.29 L 136.61 94.36 L 134.21 95.65 L 124.09 95.40 L 122.03 98.92 L 121.76 101.41 L 118.59 104.91 L 115.74 108.00 L 115.09 110.79 L 112.32 111.08 L 102.66 114.55 L 100.76 107.86 L 100.54 101.08 L 100.44 102.43 L 100.38 95.66 L 97.34 88.71 L 82.27 92.01 L 79.15 95.91 L 73.01 88.93 Z" fill="#d0d0d0" fill-opacity="0.5" stroke="none"/>
<path d="M 318.42 72.80 L 318.42 73.74 Z" fill="#d0d0d0" fill-opacity="0.5" stroke="none"/>
<path d="M 339.64 66.97 L 359.35 66.97 L 391.62 66.97 L 391.70 66.97 L 397.12 66.97 L 414.37 66.97 L 415.26 66.97 L 417.09 66.97 L 437.70 66.97 L 437.70 69.73 L 417.09 70.63 L 415.26 74.40 L 414.37 77.17 L 397.12 80.02 L 391.70 77.34 L 391.62 78.96 L 359.35 71.72 L 339.64 74.28 Z" fill="#d0d0d0" fill-opacity="0.5" stroke="none"/>
<path d="M 443.44 65.56 L 443.53 65.56 L 443.65 65.56 L 443.70 65.56 L 443.79 65.56 L 443.89 65.56 L 446.47 65.56 L 446.94 65.56 L 447.04 65.56 L 447.19 65.56 L 455.75 65.56 L 458.15 65.56 L 461.94 65.56 L 462.35 65.56 L 462.49 65.56 L 465.28 65.56 L 468.28 65.56 L 468.40 65.56 L 468.52 65.56 L 477.27 65.56 L 480.24 65.56 L 480.90 65.56 L 486.86 65.56 L 489.30 65.56 L 489.61 65.56 L 497.94 65.56 L 506.32 65.56 L 508.00 65.56 L 509.66 65.56 L 510.84 65.56 L 521.43 65.56 L 528.98 65.56 L 529.86 65.56 L 532.55 65.56 L 550.80 65.56 L 553.92 65.56 L 569.50 65.56 L 571.08 65.56 L 571.71 65.56 L 572.31 65.56 L 574.78 65.56 L 584.53 65.56 L 585.75 65.56 L 593.60 65.56 L 604.31 65.56 L 606.13 65.56 L 609.09 65.56 L 611.94 65.56 L 612.13 65.56 L 636.44 65.56 L 636.68 65.56 L 639.48 65.56 L 639.50 65.56 L 639.87 65.56 L 648.62 65.56 L 649.00 65.56 L 650.40 65.56 L 651.13 65.56 L 651.18 65.56 L 651.37 65.56 L 651.72 65.56 L 651.72 67.99 L 651.37 68.56 L 651.18 72.44 L 651.13 75.05 L 650.40 67.75 L 649.00 71.88 L 648.62 74.98 L 639.87 77.28 L 639.50 78.68 L 639.48 82.73 L 636.68 86.74 L 636.44 79.61 L 612.13 83.29 L 611.94 86.56 L 609.09 90.55 L 606.13 83.48 L 604.31 82.50 L 593.60 83.88 L 585.75 84.73 L 584.53 88.72 L 574.78 87.12 L 572.31 87.93 L 571.71 91.21 L 571.08 95.11 L 569.50 99.02 L 553.92 92.08 L 550.80 94.42 L 532.55 97.31 L 529.86 98.95 L 528.98 101.43 L 521.43 98.71 L 510.84 99.56 L 509.66 101.40 L 508.00 94.49 L 506.32 97.33 L 497.94 98.95 L 489.61 102.03 L 489.30 95.14 L 486.86 92.23 L 480.90 94.19 L 480.24 96.96 L 477.27 100.16 L 468.52 103.20 L 468.40 105.88 L 468.28 99.07 L 465.28 92.13 L 462.49 94.24 L 462.35 94.51 L 461.94 96.61 L 458.15 99.12 L 455.75 102.07 L 447.19 95.18 L 447.04 95.43 L 446.94 97.71 L 446.47 90.76 L 443.89 94.70 L 443.79 94.56 L 443.70 94.08 L 443.65 87.08 L 443.53 79.98 L 443.44 72.87 Z" fill="#d0d0d0" fill-opacity="0.5" stroke="none"/>
<path d="M 655.10 62.14 L 655.18 62.14 L 656.05 62.14 L 656.05 64.22 L 655.18 66.60 L 655.10 69.53 Z" fill="#d0d0d0" fill-opacity="0.5" stroke="none"/>
<path d="M 678.91 47.37 L 678.97 47.37 L 679.09 47.37 L 679.09 50.22 L 678.97 52.22 L 678.91 54.97 Z" fill="#d0d0d0" fill-opacity="0.5" stroke="none"/>
<path d="M 679.42 45.91 L 679.43 45.91 L 679.64 45.91 L 679.69 45.91 L 693.26 45.91 L 698.15 45.91 L 700.46 45.91 L 703.93 45.91 L 704.03 45.91 L 704.20 45.91 L 713.20 45.91 L 713.30 45.91 L 713.39 45.91 L 713.54 45.91 L 715.38 45.91 L 716.33 45.91 L 718.54 45.91 L 718.79 45.91 L 722.24 45.91 L 722.35 45.91 L 724.64 45.91 L 725.41 45.91 L 725.73 45.91 L 725.83 45.91 L 726.07 45.91 L 733.78 45.91 L 734.11 45.91 L 734.14 45.91 L 734.40 45.91 L 737.15 45.91 L 738.26 45.91 L 740.64 45.91 L 740.77 45.91 L 740.78 45.91 L 740.85 45.91 L 740.96 45.91 L 742.40 45.91 L 743.40 45.91 L 743.74 45.91 L 743.99 45.91 L 755.99 45.91 L 756.20 45.91 L 756.26 45.91 L 759.44 45.91 L 761.38 45.91 L 761.99 45.91 L 765.39 45.91 L 768.15 45.91 L 779.85 45.91 L 780.62 45.91 L 786.89 45.91 L 790.10 45.91 L 797.88 45.91 L 801.37 45.91 L 807.43 45.91 L 822.73 45.91 L 822.89 45.91 L 822.93 45.91 L 823.65 45.91 L 825.81 45.91 L 829.47 45.91 L 829.92 45.91 L 832.11 45.91 L 832.63 45.91 L 832.72 45.91 L 832.83 45.91 L 839.87 45.91 L 840.80 45.91 L 841.22 45.91 L 842.37 45.91 L 844.11 45.91 L 844.23 45.91 L 844.54 45.91 L 844.97 45.91 L 848.06 45.91 L 848.49 45.91 L 848.49 46.68 L 848.06 50.99 L 844.97 54.89 L 844.54 58.68 L 844.23 62.28 L 844.11 65.78 L 842.37 68.30 L 841.22 71.55 L 840.80 74.84 L 839.87 75.16 L 832.83 77.73 L 832.72 81.27 L 832.63 82.32 L 832.11 75.10 L 829.92 78.31 L 829.47 81.15 L 825.81 73.91 L 823.65 78.01 L 822.93 70.72 L 822.89 73.00 L 822.73 65.65 L 807.43 69.97 L 801.37 72.46 L 797.88 75.75 L 790.10 79.83 L 786.89 72.58 L 780.62 75.26 L 779.85 76.25 L 768.15 68.95 L 765.39 61.54 L 761.99 61.26 L 761.38 64.58 L 759.44 67.59 L 756.26 71.71 L 756.20 74.62 L 755.99 72.09 L 743.99 64.73 L 743.74 68.25 L 743.40 72.38 L 742.40 72.28 L 740.96 71.18 L 740.85 72.52 L 740.78 73.75 L 740.77 66.53 L 740.64 59.11 L 738.26 51.57 L 737.15 55.81 L 734.40 60.02 L 734.14 61.14 L 734.11 64.30 L 733.78 56.83 L 726.07 60.15 L 725.83 61.81 L 725.73 65.43 L 725.41 69.59 L 724.64 73.28 L 722.35 76.63 L 722.24 80.27 L 718.79 83.45 L 718.54 85.96 L 716.33 88.94 L 715.38 89.45 L 713.54 92.61 L 713.39 90.58 L 713.30 92.11 L 713.20 85.09 L 704.20 77.93 L 704.03 79.54 L 703.93 80.50 L 700.46 73.26 L 698.15 65.92 L 693.26 58.49 L 679.69 62.71 L 679.64 64.02 L 679.43 60.92 L 679.42 53.51 Z" fill="#d0d0d0" fill-opacity="0.5" stroke="none"/>
<path d="M 864.53 38.72 L 864.53 41.05 Z" fill="#d0d0d0" fill-opacity="0.5" stroke="none"/>
<path d="M 873.82 25.00 L 875.21 25.00 L 875.70 25.00 L 883.09 25.00 L 883.17 25.00 L 884.18 25.00 L 884.83 25.00 L 887.55 25.00 L 890.14 25.00 L 890.49 25.00 L 891.45 25.00 L 892.76 25.00 L 897.03 25.00 L 906.35 25.00 L 908.53 25.00 L 909.33 25.00 L 912.92 25.00 L 915.19 25.00 L 915.21 25.00 L 915.38 25.00 L 915.63 25.00 L 918.28 25.00 L 918.55 25.00 L 918.82 25.00 L 918.90 25.00 L 926.11 25.00 L 926.98 25.00 L 927.48 25.00 L 933.06 25.00 L 933.19 25.00 L 933.21 25.00 L 933.31 25.00 L 936.34 25.00 L 939.86 25.00 L 948.74 25.00 L 951.39 25.00 L 957.73 25.00 L 957.86 25.00 L 957.91 25.00 L 958.23 25.00 L 958.79 25.00 L 960.65 25.00 L 961.28 25.00 L 969.60 25.00 L 970.84 25.00 L 973.58 25.00 L 976.75 25.00 L 976.85 25.00 L 977.18 25.00 L 978.13 25.00 L 979.64 25.00 L 979.72 25.00 L 980.01 25.00 L 990.47 25.00 L 990.59 25.00 L 990.81 25.00 L 992.35 25.00 L 994.21 25.00 L 994.40 25.00 L 995.52 25.00 L 996.29 25.00 L 1001.19 25.00 L 1001.23 25.00 L 1001.68 25.00 L 1004.24 25.00 L 1004.33 25.00 L 1013.01 25.00 L 1013.46 25.00 L 1017.02 25.00 L 1018.90 25.00 L 1019.06 25.00 L 1019.12 25.00 L 1019.41 25.00 L 1021.88 25.00 L 1022.72 25.00 L 1025.87 25.00 L 1025.97 25.00 L 1039.49 25.00 L 1044.00 25.00 L 1044.49 25.00 L 1046.85 25.00 L 1047.22 25.00 L 1055.58 25.00 L 1056.54 25.00 L 1061.99 25.00 L 1062.67 25.00 L 1075.84 25.00 L 1077.06 25.00 L 1080.25 25.00 L 1080.31 25.00 L 1080.69 25.00 L 1083.66 25.00 L 1083.79 25.00 L 1083.80 25.00 L 1090.18 25.00 L 1090.29 25.00 L 1099.81 25.00 L 1108.34 25.00 L 1110.99 25.00 L 1111.40 25.00 L 1123.84 25.00 L 1123.96 25.00 L 1144.60 25.00 L 1147.67 25.00 L 1147.78 25.00 L 1150.51 25.00 L 1169.67 25.00 L 1169.84 25.00 L 1170.00 25.00 L 1170.00 113.06 L 1169.84 111.06 L 1169.67 112.01 L 1150.51 105.21 L 1147.78 107.50 L 1147.67 110.44 L 1144.60 113.85 L 1123.96 115.72 L 1123.84 115.68 L 1111.40 108.95 L 1110.99 111.06 L 1108.34 104.25 L 1099.81 97.34 L 1090.29 97.44 L 1090.18 97.33 L 1083.80 90.32 L 1083.79 83.22 L 1083.66 76.05 L 1080.69 80.29 L 1080.31 83.62 L 1080.25 87.17 L 1077.06 79.99 L 1075.84 82.81 L 1062.67 82.18 L 1061.99 83.88 L 1056.54 81.89 L 1055.58 84.76 L 1047.22 85.07 L 1046.85 87.97 L 1044.49 80.81 L 1044.00 84.50 L 1039.49 87.72 L 1025.97 87.80 L 1025.87 88.05 L 1022.72 80.90 L 1021.88 84.36 L 1019.41 88.07 L 1019.12 90.98 L 1019.06 83.98 L 1018.90 84.83 L 1017.02 77.62 L 1013.46 81.40 L 1013.01 83.81 L 1004.33 86.62 L 1004.24 87.46 L 1001.68 80.30 L 1001.23 73.03 L 1001.19 76.51 L 996.29 69.19 L 995.52 72.11 L 994.40 64.73 L 994.21 67.25 L 992.35 70.52 L 990.81 72.16 L 990.59 70.54 L 990.47 72.83 L 980.01 76.24 L 979.72 68.91 L 979.64 69.94 L 978.13 62.53 L 977.18 66.72 L 976.85 70.88 L 976.75 72.56 L 973.58 65.18 L 970.84 69.00 L 969.60 67.42 L 961.28 70.26 L 960.65 62.85 L 958.79 65.47 L 958.23 69.63 L 957.91 72.63 L 957.86 75.09 L 957.73 74.35 L 951.39 67.00 L 948.74 67.53 L 939.86 60.08 L 936.34 52.53 L 933.31 55.87 L 933.21 55.53 L 933.19 47.91 L 933.06 40.22 L 927.48 32.39 L 926.98 36.40 L 926.11 28.52 L 918.90 31.66 L 918.82 33.25 L 918.55 25.32 L 918.28 29.38 L 915.63 33.82 L 915.38 29.84 L 915.21 34.23 L 915.19 38.38 L 912.92 30.52 L 909.33 32.27 L 908.53 36.28 L 906.35 39.48 L 897.03 31.64 L 892.76 32.34 L 891.45 30.81 L 890.49 33.98 L 890.14 36.40 L 887.55 38.87 L 884.83 31.03 L 884.18 33.23 L 883.17 35.74 L 883.09 37.31 L 875.70 29.44 L 875.21 33.43 L 873.82 32.92 Z" fill="#d0d0d0" fill-opacity="0.5" stroke="none"/>
<polyline fill="none" stroke="#111" stroke-width="1.2" points="70.00,84.24 72.26,81.85 73.01,88.93 79.15,95.91 82.27,92.01 97.34,88.71 100.38,95.66 100.44,102.43 100.54,101.08 100.76,107.86 102.66,114.55 112.32,111.08 115.09,110.79 115.74,108.00 118.59,104.91 121.76,101.41 122.03,98.92 124.09,95.40 134.21,95.65 136.61,94.36 137.34,93.29 142.44,89.39 142.77,85.42 146.51,92.45 167.89,90.67 183.20,87.56 197.78,89.64 204.82,86.39 210.63,88.85 221.36,87.52 222.08,84.49 222.50,91.54 271.02,87.58 274.54,85.47 286.11,83.60 286.85,80.38 287.37,76.73 294.99,74.23 296.24,72.86 315.11,72.80 318.42,73.74 333.65,71.10 339.42,66.97 339.64,74.28 359.35,71.72 391.62,78.96 391.70,77.34 397.12,80.02 414.37,77.17 415.26,74.40 417.09,70.63 437.70,69.73 443.39,65.56 443.44,72.87 443.53,79.98 443.65,87.08 443.70,94.08 443.79,94.56 443.89,94.70 446.47,90.76 446.94,97.71 447.04,95.43 447.19,95.18 455.75,102.07 458.15,99.12 461.94,96.61 462.35,94.51 462.49,94.24 465.28,92.13 468.28,99.07 468.40,105.88 468.52,103.20 477.27,100.16 480.24,96.96 480.90,94.19 486.86,92.23 489.30,95.14 489.61,102.03 497.94,98.95 506.32,97.33 508.00,94.49 509.66,101.40 510.84,99.56 521.43,98.71 528.98,101.43 529.86,98.95 532.55,97.31 550.80,94.42 553.92,92.08 569.50,99.02 571.08,95.11 571.71,91.21 572.31,87.93 574.78,87.12 584.53,88.72 585.75,84.73 593.60,83.88 604.31,82.50 606.13,83.48 609.09,90.55 611.94,86.56 612.13,83.29 636.44,79.61 636.68,86.74 639.48,82.73 639.50,78.68 639.87,77.28 648.62,74.98 649.00,71.88 650.40,67.75 651.13,75.05 651.18,72.44 651.37,68.56 651.72,67.99 653.26,64.86 654.20,62.14 655.10,69.53 655.18,66.60 656.05,64.22 658.19,61.03 660.31,58.43 661.37,54.18 672.57,51.28 673.94,47.37 678.91,54.97 678.97,52.22 679.09,50.22 679.27,45.91 679.42,53.51 679.43,60.92 679.64,64.02 679.69,62.71 693.26,58.49 698.15,65.92 700.46,73.26 703.93,80.50 704.03,79.54 704.20,77.93 713.20,85.09 713.30,92.11 713.39,90.58 713.54,92.61 715.38,89.45 716.33,88.94 718.54,85.96 718.79,83.45 722.24,80.27 722.35,76.63 724.64,73.28 725.41,69.59 725.73,65.43 725.83,61.81 726.07,60.15 733.78,56.83 734.11,64.30 734.14,61.14 734.40,60.02 737.15,55.81 738.26,51.57 740.64,59.11 740.77,66.53 740.78,73.75 740.85,72.52 740.96,71.18 742.40,72.28 743.40,72.38 743.74,68.25 743.99,64.73 755.99,72.09 756.20,74.62 756.26,71.71 759.44,67.59 761.38,64.58 761.99,61.26 765.39,61.54 768.15,68.95 779.85,76.25 780.62,75.26 786.89,72.58 790.10,79.83 797.88,75.75 801.37,72.46 807.43,69.97 822.73,65.65 822.89,73.00 822.93,70.72 823.65,78.01 825.81,73.91 829.47,81.15 829.92,78.31 832.11,75.10 832.63,82.32 832.72,81.27 832.83,77.73 839.87,75.16 840.80,74.84 841.22,71.55 842.37,68.30 844.11,65.78 844.23,62.28 844.54,58.68 844.97,54.89 848.06,50.99 848.49,46.68 850.94,42.37 851.02,40.30 861.34,38.72 864.53,41.05 865.67,38.55 865.89,36.17 871.90,31.75 872.39,29.47 873.07,25.00 873.82,32.92 875.21,33.43 875.70,29.44 883.09,37.31 883.17,35.74 884.18,33.23 884.83,31.03 887.55,38.87 890.14,36.40 890.49,33.98 891.45,30.81 892.76,32.34 897.03,31.64 906.35,39.48 908.53,36.28 909.33,32.27 912.92,30.52 915.19,38.38 915.21,34.23 915.38,29.84 915.63,33.82 918.28,29.38 918.55,25.32 918.82,33.25 918.90,31.66 926.11,28.52 926.98,36.40 927.48,32.39 933.06,40.22 933.19,47.91 933.21,55.53 933.31,55.87 936.34,52.53 939.86,60.08 948.74,67.53 951.39,67.00 957.73,74.35 957.86,75.09 957.91,72.63 958.23,69.63 958.79,65.47 960.65,62.85 961.28,70.26 969.60,67.42 970.84,69.00 973.58,65.18 976.75,72.56 976.85,70.88 977.18,66.72 978.13,62.53 979.64,69.94 979.72,68.91 980.01,76.24 990.47,72.83 990.59,70.54 990.81,72.16 992.35,70.52 994.21,67.25 994.40,64.73 995.52,72.11 996.29,69.19 1001.19,76.51 1001.23,73.03 1001.68,80.30 1004.24,87.46 1004.33,86.62 1013.01,83.81 1013.46,81.40 1017.02,77.62 1018.90,84.83 1019.06,83.98 1019.12,90.98 1019.41,88.07 1021.88,84.36 1022.72,80.90 1025.87,88.05 1025.97,87.80 1039.49,87.72 1044.00,84.50 1044.49,80.81 1046.85,87.97 1047.22,85.07 1055.58,84.76 1056.54,81.89 1061.99,83.88 1062.67,82.18 1075.84,82.81 1077.06,79.99 1080.25,87.17 1080.31,83.62 1080.69,80.29 1083.66,76.05 1083.79,83.22 1083.80,90.32 1090.18,97.33 1090.29,97.44 1099.81,97.34 1108.34,104.25 1110.99,111.06 1111.40,108.95 1123.84,115.68 1123.96,115.72 1144.60,113.85 1147.67,110.44 1147.78,107.50 1150.51,105.21 1169.67,112.01 1169.84,111.06 1170.00,113.06"/>
<text x="620.0" y="588" text-anchor="middle" font-family="sans-serif" font-size="12" fill="#333">UTC time</text>
<text x="15" y="287.5" transform="rotate(-90 15,287.5)" text-anchor="middle" font-family="sans-serif" font-size="12" fill="#333">Capital</text>
</svg>