<svg xmlns="http://www.w3.org/2000/svg" width="1200" height="600" viewBox="0 0 1200 600">
<desc>Equity curve with drawdown fill; x-axis is months only (no exact timestamps)</desc>
<text x="600.0" y="18.0" text-anchor="middle" font-family="sans-serif" font-size="14">Portfolio 2009 (UTC)</text>
<rect x="70" y="25" width="1100" height="525" fill="white" stroke="#ccc" />
<line x1="70" y1="550.00" x2="1170" y2="550.00" stroke="#eee"/>
<text x="62" y="554.0" text-anchor="end" font-family="sans-serif" font-size="11" fill="#555">0.00</text>
<line x1="70" y1="445.00" x2="1170" y2="445.00" stroke="#eee"/>
<text x="62" y="449.0" text-anchor="end" font-family="sans-serif" font-size="11" fill="#555">24545</text>
<line x1="70" y1="340.00" x2="1170" y2="340.00" stroke="#eee"/>
<text x="62" y="344.0" text-anchor="end" font-family="sans-serif" font-size="11" fill="#555">49090</text>
<line x1="70" y1="235.00" x2="1170" y2="235.00" stroke="#eee"/>
<text x="62" y="239.0" text-anchor="end" font-family="sans-serif" font-size="11" fill="#555">73634</text>
<line x1="70" y1="130.00" x2="1170" y2="130.00" stroke="#eee"/>
<text x="62" y="134.0" text-anchor="end" font-family="sans-serif" font-size="11" fill="#555">98179</text>
<line x1="70" y1="25.00" x2="1170" y2="25.00" stroke="#eee"/>
<text x="62" y="29.0" text-anchor="end" font-family="sans-serif" font-size="11" fill="#555">122724</text>
<line x1="161.67" y1="25" x2="161.67" y2="550" stroke="#f2f2f2"/>
<line x1="253.33" y1="25" x2="253.33" y2="550" stroke="#f2f2f2"/>
<line x1="345.00" y1="25" x2="345.00" y2="550" stroke="#f2f2f2"/>
<line x1="436.67" y1="25" x2="436.67" y2="550" stroke="#f2f2f2"/>
<line x1="528.33" y1="25" x2="528.33" y2="550" stroke="#f2f2f2"/>
<line x1="620.00" y1="25" x2="620.00" y2="550" stroke="#f2f2f2"/>
<line x1="711.67" y1="25" x2="711.67" y2="550" stroke="#f2f2f2"/>
<line x1="803.33" y1="25" x2="803.33" y2="550" stroke="#f2f2f2"/>
<line x1="895.00" y1="25" x2="895.00" y2="550" stroke="#f2f2f2"/>
<line x1="986.67" y1="25" x2="986.67" y2="550" stroke="#f2f2f2"/>
<line x1="1078.33" y1="25" x2="1078.33" y2="550" stroke="#f2f2f2"/>
<text x="115.83" y="566.00" text-anchor="middle" font-family="sans-serif" font-size="11" fill="#444">Jan</text>
<text x="207.50" y="566.00" text-anchor="middle" font-family="sans-serif" font-size="11" fill="#444">Feb</text>
<text x="299.17" y="566.00" text-anchor="middle" font-family="sans-serif" font-size="11" fill="#444">Mar</text>
<text x="390.83" y="566.00" text-anchor="middle" font-family="sans-serif" font-size="11" fill="#444">Apr</text>
<text x="482.50" y="566.00" text-anchor="middle" font-family="sans-serif" font-size="11" fill="#444">May</text>
<text x="574.17" y="566.00" text-anchor="middle" font-family="sans-serif" font-size="11" fill="#444">Jun</text>
<text x="665.83" y="566.00" text-anchor="middle" font-family="sans-serif" font-size="11" fill="#444">Jul</text>
<text x="757.50" y="566.00" text-anchor="middle" font-family="sans-serif" font-size="11" fill="#444">Aug</text>
<text x="849.17" y="566.00" text-anchor="middle" font-family="sans-serif" font-size="11" fill="#444">Sep</text>
<text x="940.83" y="566.00" text-anchor="middle" font-family="sans-serif" font-size="11" fill="#444">Oct</text>
<text x="1032.50" y="566.00" text-anchor="middle" font-family="sans-serif" font-size="11" fill="#444">Nov</text>
<text x="1124.17" y="566.00" text-anchor="middle" font-family="sans-serif" font-size="11" fill="#444">Dec</text>
<line x1="70" y1="550" x2="1170" y2="550" stroke="#888"/>
<line x1="70" y1="25" x2="70" y2="550" stroke="#888"/>
<line x1="70.72" y1="550.00" x2="70.72" y2="556.00" stroke="#888"/>
<line x1="1164.27"   y1="550.00" x2="1164.27"   y2="556.00" stroke="#888"/>
<text x="70.72" y="582.00" text-anchor="start" font-family="sans-serif" font-size="11" fill="#333">Initial Balance: 100000</text>
<text x="1164.27"   y="582.00" text-anchor="end"   font-family="sans-serif" font-size="11" fill="#333">Ending Balance: 121542</text>
<path d="M 77.88 116.25 L 79.31 116.25 L 80.74 116.25 L 82.17 116.25 L 83.61 116.25 L 85.04 116.25 L 86.47 116.25 L 87.90 116.25 L 89.34 116.25 L 90.77 116.25 L 92.20 116.25 L 93.63 116.25 L 93.63 117.37 L 92.20 119.19 L 90.77 121.60 L 89.34 123.74 L 87.90 124.41 L 86.47 120.06 L 85.04 122.20 L 83.61 124.52 L 82.17 126.89 L 80.74 129.26 L 79.31 124.95 L 77.88 120.64 Z" fill="#d0d0d0" fill-opacity="0.5" stroke="none"/>
<path d="M 113.68 93.36 L 115.12 93.36 L 115.12 93.50 L 113.68 94.27 Z" fill="#d0d0d0" fill-opacity="0.5" stroke="none"/>
<path d="M 120.85 86.20 L 122.28 86.20 L 123.71 86.20 L 125.14 86.20 L 126.58 86.20 L 128.01 86.20 L 128.01 87.27 L 126.58 89.83 L 125.14 92.39 L 123.71 93.24 L 122.28 88.58 L 120.85 90.89 Z" fill="#d0d0d0" fill-opacity="0.5" stroke="none"/>
<path d="M 133.74 81.68 L 135.17 81.68 L 136.60 81.68 L 138.03 81.68 L 139.47 81.68 L 140.90 81.68 L 142.33 81.68 L 143.76 81.68 L 145.20 81.68 L 146.63 81.68 L 148.06 81.68 L 149.49 81.68 L 150.92 81.68 L 150.92 83.12 L 149.49 85.72 L 148.06 88.29 L 146.63 89.97 L 145.20 92.54 L 143.76 94.08 L 142.33 89.42 L 140.90 91.91 L 139.47 87.26 L 138.03 89.29 L 136.60 91.72 L 135.17 87.04 L 133.74 86.41 Z" fill="#d0d0d0" fill-opacity="0.5" stroke="none"/>
<path d="M 155.22 79.18 L 156.65 79.18 L 158.09 79.18 L 159.52 79.18 L 160.95 79.18 L 162.98 79.18 L 165.60 79.18 L 168.21 79.18 L 170.83 79.18 L 173.45 79.18 L 173.45 80.45 L 170.83 82.48 L 168.21 84.80 L 165.60 86.09 L 162.98 81.35 L 160.95 83.72 L 159.52 86.29 L 158.09 87.15 L 156.65 88.61 L 155.22 83.94 Z" fill="#d0d0d0" fill-opacity="0.5" stroke="none"/>
<path d="M 181.31 76.07 L 183.93 76.07 L 186.55 76.07 L 189.17 76.07 L 191.79 76.07 L 194.40 76.07 L 197.02 76.07 L 199.64 76.07 L 202.26 76.07 L 204.88 76.07 L 207.50 76.07 L 210.12 76.07 L 210.12 77.50 L 207.50 80.11 L 204.88 80.39 L 202.26 82.79 L 199.64 85.22 L 197.02 86.92 L 194.40 82.22 L 191.79 84.93 L 189.17 80.19 L 186.55 81.83 L 183.93 82.21 L 181.31 77.44 Z" fill="#d0d0d0" fill-opacity="0.5" stroke="none"/>
<path d="M 231.07 64.75 L 233.69 64.75 L 236.31 64.75 L 238.93 64.75 L 241.55 64.75 L 244.17 64.75 L 246.79 64.75 L 249.40 64.75 L 252.02 64.75 L 254.64 64.75 L 257.26 64.75 L 259.88 64.75 L 262.50 64.75 L 265.12 64.75 L 267.74 64.75 L 270.36 64.75 L 272.98 64.75 L 275.60 64.75 L 278.21 64.75 L 280.83 64.75 L 283.45 64.75 L 286.07 64.75 L 288.69 64.75 L 291.31 64.75 L 293.93 64.75 L 296.55 64.75 L 299.17 64.75 L 301.79 64.75 L 304.40 64.75 L 307.02 64.75 L 309.64 64.75 L 312.26 64.75 L 314.88 64.75 L 317.50 64.75 L 320.12 64.75 L 322.74 64.75 L 325.36 64.75 L 327.98 64.75 L 330.60 64.75 L 333.21 64.75 L 335.83 64.75 L 338.45 64.75 L 341.07 64.75 L 343.69 64.75 L 347.29 64.75 L 351.88 64.75 L 356.46 64.75 L 361.04 64.75 L 365.62 64.75 L 370.21 64.75 L 374.79 64.75 L 379.38 64.75 L 383.96 64.75 L 388.54 64.75 L 393.12 64.75 L 397.71 64.75 L 402.29 64.75 L 406.88 64.75 L 411.46 64.75 L 416.04 64.75 L 420.62 64.75 L 425.21 64.75 L 429.79 64.75 L 434.38 64.75 L 440.19 64.75 L 447.24 64.75 L 454.29 64.75 L 461.35 64.75 L 468.40 64.75 L 475.45 64.75 L 482.50 64.75 L 489.55 64.75 L 489.55 65.52 L 482.50 68.22 L 475.45 70.90 L 468.40 73.25 L 461.35 75.90 L 454.29 78.54 L 447.24 81.17 L 440.19 82.85 L 434.38 85.11 L 429.79 87.70 L 425.21 82.98 L 420.62 81.78 L 416.04 83.40 L 411.46 84.37 L 406.88 86.40 L 402.29 88.12 L 397.71 83.40 L 393.12 85.99 L 388.54 84.52 L 383.96 86.61 L 379.38 88.40 L 374.79 83.68 L 370.21 84.29 L 365.62 86.89 L 361.04 88.72 L 356.46 89.38 L 351.88 91.33 L 347.29 93.62 L 343.69 96.17 L 341.07 97.58 L 338.45 99.87 L 335.83 101.76 L 333.21 97.20 L 330.60 92.56 L 327.98 94.57 L 325.36 95.84 L 322.74 98.22 L 320.12 93.60 L 317.50 93.95 L 314.88 95.28 L 312.26 95.91 L 309.64 91.26 L 307.02 93.63 L 304.40 95.31 L 301.79 90.70 L 299.17 86.01 L 296.55 88.46 L 293.93 83.75 L 291.31 85.94 L 288.69 88.25 L 286.07 88.82 L 283.45 89.61 L 280.83 91.48 L 278.21 93.46 L 275.60 93.96 L 272.98 89.29 L 270.36 91.16 L 267.74 90.29 L 265.12 85.60 L 262.50 87.01 L 259.88 88.68 L 257.26 83.96 L 254.64 85.45 L 252.02 87.49 L 249.40 82.77 L 246.79 78.00 L 244.17 79.80 L 241.55 81.38 L 238.93 83.98 L 236.31 79.26 L 233.69 74.46 L 231.07 69.61 Z" fill="#d0d0d0" fill-opacity="0.5" stroke="none"/>
<path d="M 510.71 62.43 L 517.76 62.43 L 524.81 62.43 L 531.61 62.43 L 538.15 62.43 L 544.70 62.43 L 551.25 62.43 L 557.80 62.43 L 564.35 62.43 L 570.89 62.43 L 577.44 62.43 L 583.99 62.43 L 590.54 62.43 L 597.08 62.43 L 603.63 62.43 L 610.18 62.43 L 616.73 62.43 L 625.09 62.43 L 635.28 62.43 L 645.46 62.43 L 645.46 63.39 L 635.28 63.90 L 625.09 65.34 L 616.73 68.04 L 610.18 67.92 L 603.63 70.62 L 597.08 71.74 L 590.54 72.40 L 583.99 73.70 L 577.44 76.11 L 570.89 78.56 L 564.35 73.75 L 557.80 75.94 L 551.25 71.11 L 544.70 73.79 L 538.15 75.22 L 531.61 76.92 L 524.81 72.10 L 517.76 67.24 L 510.71 67.34 Z" fill="#d0d0d0" fill-opacity="0.5" stroke="none"/>
<path d="M 696.39 56.18 L 706.57 56.18 L 726.94 56.18 L 757.50 56.18 L 757.50 56.64 L 726.94 59.40 L 706.57 61.15 L 696.39 61.15 Z" fill="#d0d0d0" fill-opacity="0.5" stroke="none"/>
<path d="M 809.06 55.56 L 820.52 55.56 L 831.98 55.56 L 843.44 55.56 L 843.44 55.63 L 831.98 56.22 L 820.52 58.97 L 809.06 60.53 Z" fill="#d0d0d0" fill-opacity="0.5" stroke="none"/>
<path d="M 877.81 50.44 L 889.27 50.44 L 901.55 50.44 L 914.64 50.44 L 914.64 51.84 L 901.55 54.22 L 889.27 53.70 L 877.81 55.42 Z" fill="#d0d0d0" fill-opacity="0.5" stroke="none"/>
<path d="M 1055.42 33.64 L 1070.69 33.64 L 1084.06 33.64 L 1084.06 35.02 L 1070.69 37.67 L 1055.42 38.79 Z" fill="#d0d0d0" fill-opacity="0.5" stroke="none"/>
<path d="M 1152.81 25.00 L 1164.27 25.00 L 1164.27 30.05 L 1152.81 30.24 Z" fill="#d0d0d0" fill-opacity="0.5" stroke="none"/>
<polyline fill="none" stroke="#111" stroke-width="1.2" points="70.72,122.21 72.15,121.95 73.58,120.91 75.01,118.68 76.45,116.25 77.88,120.64 79.31,124.95 80.74,129.26 82.17,126.89 83.61,124.52 85.04,122.20 86.47,120.06 87.90,124.41 89.34,123.74 90.77,121.60 92.20,119.19 93.63,117.37 95.07,115.90 96.50,113.34 97.93,113.21 99.36,110.76 100.79,108.28 102.23,106.17 103.66,104.56 105.09,102.60 106.52,100.33 107.96,97.99 109.39,95.83 110.82,93.63 112.25,93.36 113.68,94.27 115.12,93.50 116.55,91.12 117.98,88.78 119.41,86.20 120.85,90.89 122.28,88.58 123.71,93.24 125.14,92.39 126.58,89.83 128.01,87.27 129.44,85.59 130.87,83.23 132.30,81.68 133.74,86.41 135.17,87.04 136.60,91.72 138.03,89.29 139.47,87.26 140.90,91.91 142.33,89.42 143.76,94.08 145.20,92.54 146.63,89.97 148.06,88.29 149.49,85.72 150.92,83.12 152.36,80.52 153.79,79.18 155.22,83.94 156.65,88.61 158.09,87.15 159.52,86.29 160.95,83.72 162.98,81.35 165.60,86.09 168.21,84.80 170.83,82.48 173.45,80.45 176.07,78.34 178.69,76.07 181.31,77.44 183.93,82.21 186.55,81.83 189.17,80.19 191.79,84.93 194.40,82.22 197.02,86.92 199.64,85.22 202.26,82.79 204.88,80.39 207.50,80.11 210.12,77.50 212.74,74.88 215.36,74.38 217.98,71.94 220.60,71.24 223.21,69.66 225.83,67.54 228.45,64.75 231.07,69.61 233.69,74.46 236.31,79.26 238.93,83.98 241.55,81.38 244.17,79.80 246.79,78.00 249.40,82.77 252.02,87.49 254.64,85.45 257.26,83.96 259.88,88.68 262.50,87.01 265.12,85.60 267.74,90.29 270.36,91.16 272.98,89.29 275.60,93.96 278.21,93.46 280.83,91.48 283.45,89.61 286.07,88.82 288.69,88.25 291.31,85.94 293.93,83.75 296.55,88.46 299.17,86.01 301.79,90.70 304.40,95.31 307.02,93.63 309.64,91.26 312.26,95.91 314.88,95.28 317.50,93.95 320.12,93.60 322.74,98.22 325.36,95.84 327.98,94.57 330.60,92.56 333.21,97.20 335.83,101.76 338.45,99.87 341.07,97.58 343.69,96.17 347.29,93.62 351.88,91.33 356.46,89.38 361.04,88.72 365.62,86.89 370.21,84.29 374.79,83.68 379.38,88.40 383.96,86.61 388.54,84.52 393.12,85.99 397.71,83.40 402.29,88.12 406.88,86.40 411.46,84.37 416.04,83.40 420.62,81.78 425.21,82.98 429.79,87.70 434.38,85.11 440.19,82.85 447.24,81.17 454.29,78.54 461.35,75.90 468.40,73.25 475.45,70.90 482.50,68.22 489.55,65.52 496.60,64.15 503.65,62.43 510.71,67.34 517.76,67.24 524.81,72.10 531.61,76.92 538.15,75.22 544.70,73.79 551.25,71.11 557.80,75.94 564.35,73.75 570.89,78.56 577.44,76.11 583.99,73.70 590.54,72.40 597.08,71.74 603.63,70.62 610.18,67.92 616.73,68.04 625.09,65.34 635.28,63.90 645.46,63.39 655.65,60.67 665.83,59.05 676.02,56.55 686.20,56.18 696.39,61.15 706.57,61.15 726.94,59.40 757.50,56.64 788.06,55.56 809.06,60.53 820.52,58.97 831.98,56.22 843.44,55.63 854.90,53.33 866.35,50.44 877.81,55.42 889.27,53.70 901.55,54.22 914.64,51.84 927.74,49.52 940.83,47.95 953.93,46.59 967.02,44.35 980.12,42.14 994.31,40.56 1009.58,37.70 1024.86,35.70 1040.14,33.64 1055.42,38.79 1070.69,37.67 1084.06,35.02 1095.52,33.53 1106.98,31.22 1118.44,29.15 1129.90,26.51 1141.35,25.00 1152.81,30.24 1164.27,30.05"/>
<text x="620.0" y="588" text-anchor="middle" font-family="sans-serif" font-size="12" fill="#333">Monthly Balance Curve</text>
<text x="15" y="287.5" transform="rotate(-90 15,287.5)" text-anchor="middle" font-family="sans-serif" font-size="12" fill="#333">Capital</text>
</svg>