<svg xmlns="http://www.w3.org/2000/svg" width="1200" height="600" viewBox="0 0 1200 600">
<desc>Equity curve with drawdown fill; x-axis is months only (no exact timestamps)</desc>
<text x="600.0" y="18.0" text-anchor="middle" font-family="sans-serif" font-size="14">Balance Curve 2008 (UTC)</text>
<rect x="70" y="25" width="1100" height="525" fill="white" stroke="#ccc" />
<line x1="70" y1="550.00" x2="1170" y2="550.00" stroke="#eee"/>
<text x="62" y="554.0" text-anchor="end" font-family="sans-serif" font-size="11" fill="#555">0.00</text>
<line x1="70" y1="445.00" x2="1170" y2="445.00" stroke="#eee"/>
<text x="62" y="449.0" text-anchor="end" font-family="sans-serif" font-size="11" fill="#555">1638418</text>
<line x1="70" y1="340.00" x2="1170" y2="340.00" stroke="#eee"/>
<text x="62" y="344.0" text-anchor="end" font-family="sans-serif" font-size="11" fill="#555">3276835</text>
<line x1="70" y1="235.00" x2="1170" y2="235.00" stroke="#eee"/>
<text x="62" y="239.0" text-anchor="end" font-family="sans-serif" font-size="11" fill="#555">4915253</text>
<line x1="70" y1="130.00" x2="1170" y2="130.00" stroke="#eee"/>
<text x="62" y="134.0" text-anchor="end" font-family="sans-serif" font-size="11" fill="#555">6553671</text>
<line x1="70" y1="25.00" x2="1170" y2="25.00" stroke="#eee"/>
<text x="62" y="29.0" text-anchor="end" font-family="sans-serif" font-size="11" fill="#555">8192088</text>
<line x1="161.67" y1="25" x2="161.67" y2="550" stroke="#f2f2f2"/>
<line x1="253.33" y1="25" x2="253.33" y2="550" stroke="#f2f2f2"/>
<line x1="345.00" y1="25" x2="345.00" y2="550" stroke="#f2f2f2"/>
<line x1="436.67" y1="25" x2="436.67" y2="550" stroke="#f2f2f2"/>
<line x1="528.33" y1="25" x2="528.33" y2="550" stroke="#f2f2f2"/>
<line x1="620.00" y1="25" x2="620.00" y2="550" stroke="#f2f2f2"/>
<line x1="711.67" y1="25" x2="711.67" y2="550" stroke="#f2f2f2"/>
<line x1="803.33" y1="25" x2="803.33" y2="550" stroke="#f2f2f2"/>
<line x1="895.00" y1="25" x2="895.00" y2="550" stroke="#f2f2f2"/>
<line x1="986.67" y1="25" x2="986.67" y2="550" stroke="#f2f2f2"/>
<line x1="1078.33" y1="25" x2="1078.33" y2="550" stroke="#f2f2f2"/>
<text x="115.83" y="566.00" text-anchor="middle" font-family="sans-serif" font-size="11" fill="#444">Jan</text>
<text x="207.50" y="566.00" text-anchor="middle" font-family="sans-serif" font-size="11" fill="#444">Feb</text>
<text x="299.17" y="566.00" text-anchor="middle" font-family="sans-serif" font-size="11" fill="#444">Mar</text>
<text x="390.83" y="566.00" text-anchor="middle" font-family="sans-serif" font-size="11" fill="#444">Apr</text>
<text x="482.50" y="566.00" text-anchor="middle" font-family="sans-serif" font-size="11" fill="#444">May</text>
<text x="574.17" y="566.00" text-anchor="middle" font-family="sans-serif" font-size="11" fill="#444">Jun</text>
<text x="665.83" y="566.00" text-anchor="middle" font-family="sans-serif" font-size="11" fill="#444">Jul</text>
<text x="757.50" y="566.00" text-anchor="middle" font-family="sans-serif" font-size="11" fill="#444">Aug</text>
<text x="849.17" y="566.00" text-anchor="middle" font-family="sans-serif" font-size="11" fill="#444">Sep</text>
<text x="940.83" y="566.00" text-anchor="middle" font-family="sans-serif" font-size="11" fill="#444">Oct</text>
<text x="1032.50" y="566.00" text-anchor="middle" font-family="sans-serif" font-size="11" fill="#444">Nov</text>
<text x="1124.17" y="566.00" text-anchor="middle" font-family="sans-serif" font-size="11" fill="#444">Dec</text>
<line x1="70" y1="550" x2="1170" y2="550" stroke="#888"/>
<line x1="70" y1="25" x2="70" y2="550" stroke="#888"/>
<line x1="74.58" y1="550.00" x2="74.58" y2="556.00" stroke="#888"/>
<line x1="1169.08"   y1="550.00" x2="1169.08"   y2="556.00" stroke="#888"/>
<text x="74.58" y="582.00" text-anchor="start" font-family="sans-serif" font-size="11" fill="#333">Initial Balance: 7900000</text>
<text x="1169.08"   y="582.00" text-anchor="end"   font-family="sans-serif" font-size="11" fill="#333">Ending Balance: 7956844</text>
<path d="M 129.58 38.63 L 129.58 38.69 Z" fill="#d0d0d0" fill-opacity="0.5" stroke="none"/>
<path d="M 157.08 35.73 L 184.58 35.73 L 230.42 35.73 L 257.15 35.73 L 257.15 36.06 L 230.42 36.79 L 184.58 37.52 L 157.08 38.10 Z" fill="#d0d0d0" fill-opacity="0.5" stroke="none"/>
<path d="M 272.43 34.80 L 280.07 34.80 L 287.71 34.80 L 287.71 34.89 L 280.07 35.81 L 272.43 37.32 Z" fill="#d0d0d0" fill-opacity="0.5" stroke="none"/>
<path d="M 310.62 33.25 L 318.26 33.25 L 325.90 33.25 L 333.54 33.25 L 341.18 33.25 L 348.82 33.25 L 356.46 33.25 L 364.10 33.25 L 371.74 33.25 L 379.38 33.25 L 387.01 33.25 L 394.65 33.25 L 402.29 33.25 L 409.93 33.25 L 417.57 33.25 L 425.21 33.25 L 432.85 33.25 L 459.58 33.25 L 505.42 33.25 L 535.97 33.25 L 551.25 33.25 L 566.53 33.25 L 581.81 33.25 L 597.08 33.25 L 612.36 33.25 L 629.17 33.25 L 647.50 33.25 L 665.83 33.25 L 684.17 33.25 L 702.50 33.25 L 718.21 33.25 L 731.31 33.25 L 744.40 33.25 L 744.40 33.61 L 731.31 34.24 L 718.21 36.31 L 702.50 37.48 L 684.17 37.19 L 665.83 37.17 L 647.50 38.29 L 629.17 39.24 L 612.36 40.46 L 597.08 37.95 L 581.81 38.61 L 566.53 38.77 L 551.25 40.36 L 535.97 41.56 L 505.42 42.54 L 459.58 43.48 L 432.85 44.39 L 425.21 45.30 L 417.57 42.71 L 409.93 42.82 L 402.29 43.68 L 394.65 41.10 L 387.01 38.53 L 379.38 39.64 L 371.74 40.07 L 364.10 39.42 L 356.46 38.32 L 348.82 39.43 L 341.18 36.87 L 333.54 36.86 L 325.90 37.72 L 318.26 35.21 L 310.62 35.78 Z" fill="#d0d0d0" fill-opacity="0.5" stroke="none"/>
<path d="M 804.33 30.35 L 804.33 30.42 Z" fill="#d0d0d0" fill-opacity="0.5" stroke="none"/>
<path d="M 816.29 25.00 L 818.28 25.00 L 820.27 25.00 L 822.26 25.00 L 824.26 25.00 L 826.25 25.00 L 828.24 25.00 L 830.24 25.00 L 832.23 25.00 L 834.22 25.00 L 836.21 25.00 L 838.21 25.00 L 840.20 25.00 L 842.19 25.00 L 844.18 25.00 L 846.18 25.00 L 848.17 25.00 L 850.16 25.00 L 852.16 25.00 L 854.15 25.00 L 856.14 25.00 L 858.13 25.00 L 860.13 25.00 L 862.12 25.00 L 864.11 25.00 L 866.11 25.00 L 868.10 25.00 L 870.09 25.00 L 872.08 25.00 L 874.08 25.00 L 876.07 25.00 L 878.06 25.00 L 880.05 25.00 L 882.05 25.00 L 884.04 25.00 L 886.03 25.00 L 888.03 25.00 L 890.02 25.00 L 892.01 25.00 L 894.00 25.00 L 895.54 25.00 L 896.62 25.00 L 897.70 25.00 L 898.77 25.00 L 899.85 25.00 L 900.93 25.00 L 902.01 25.00 L 903.09 25.00 L 904.17 25.00 L 905.25 25.00 L 906.32 25.00 L 907.40 25.00 L 908.48 25.00 L 909.56 25.00 L 910.64 25.00 L 911.72 25.00 L 912.79 25.00 L 913.87 25.00 L 914.95 25.00 L 916.03 25.00 L 917.11 25.00 L 918.19 25.00 L 919.26 25.00 L 920.34 25.00 L 921.42 25.00 L 922.50 25.00 L 923.58 25.00 L 924.66 25.00 L 925.74 25.00 L 926.81 25.00 L 927.89 25.00 L 928.97 25.00 L 930.05 25.00 L 931.13 25.00 L 932.21 25.00 L 933.28 25.00 L 934.36 25.00 L 935.44 25.00 L 936.52 25.00 L 937.60 25.00 L 938.68 25.00 L 939.75 25.00 L 940.83 25.00 L 941.91 25.00 L 942.99 25.00 L 944.07 25.00 L 945.15 25.00 L 946.23 25.00 L 947.30 25.00 L 948.38 25.00 L 949.46 25.00 L 950.54 25.00 L 951.62 25.00 L 952.70 25.00 L 953.77 25.00 L 954.85 25.00 L 955.93 25.00 L 957.01 25.00 L 958.09 25.00 L 959.17 25.00 L 960.25 25.00 L 961.32 25.00 L 962.40 25.00 L 963.48 25.00 L 964.56 25.00 L 965.64 25.00 L 966.72 25.00 L 967.79 25.00 L 968.87 25.00 L 969.95 25.00 L 971.03 25.00 L 972.11 25.00 L 973.19 25.00 L 974.26 25.00 L 975.34 25.00 L 976.42 25.00 L 977.50 25.00 L 978.58 25.00 L 979.66 25.00 L 980.74 25.00 L 981.81 25.00 L 982.89 25.00 L 983.97 25.00 L 985.05 25.00 L 986.13 25.00 L 987.76 25.00 L 989.94 25.00 L 992.12 25.00 L 994.31 25.00 L 996.49 25.00 L 998.67 25.00 L 1000.85 25.00 L 1003.04 25.00 L 1005.22 25.00 L 1007.40 25.00 L 1009.58 25.00 L 1011.77 25.00 L 1013.95 25.00 L 1016.13 25.00 L 1018.31 25.00 L 1020.50 25.00 L 1022.68 25.00 L 1024.86 25.00 L 1027.04 25.00 L 1029.23 25.00 L 1031.41 25.00 L 1033.59 25.00 L 1035.77 25.00 L 1037.96 25.00 L 1040.14 25.00 L 1042.32 25.00 L 1044.50 25.00 L 1046.69 25.00 L 1048.87 25.00 L 1051.05 25.00 L 1053.23 25.00 L 1055.42 25.00 L 1057.60 25.00 L 1059.78 25.00 L 1061.96 25.00 L 1064.15 25.00 L 1066.33 25.00 L 1068.51 25.00 L 1070.69 25.00 L 1072.88 25.00 L 1075.06 25.00 L 1077.24 25.00 L 1079.25 25.00 L 1081.08 25.00 L 1082.92 25.00 L 1084.75 25.00 L 1086.58 25.00 L 1088.42 25.00 L 1090.25 25.00 L 1092.08 25.00 L 1093.92 25.00 L 1095.75 25.00 L 1097.58 25.00 L 1099.42 25.00 L 1101.25 25.00 L 1103.08 25.00 L 1104.92 25.00 L 1106.75 25.00 L 1108.58 25.00 L 1110.42 25.00 L 1112.25 25.00 L 1114.08 25.00 L 1115.92 25.00 L 1117.75 25.00 L 1119.58 25.00 L 1121.42 25.00 L 1123.25 25.00 L 1125.08 25.00 L 1126.92 25.00 L 1128.75 25.00 L 1130.58 25.00 L 1132.42 25.00 L 1134.25 25.00 L 1136.08 25.00 L 1137.92 25.00 L 1139.75 25.00 L 1141.58 25.00 L 1143.42 25.00 L 1145.25 25.00 L 1147.08 25.00 L 1148.92 25.00 L 1150.75 25.00 L 1152.58 25.00 L 1154.42 25.00 L 1156.25 25.00 L 1158.08 25.00 L 1159.92 25.00 L 1161.75 25.00 L 1163.58 25.00 L 1165.42 25.00 L 1167.25 25.00 L 1169.08 25.00 L 1169.08 40.08 L 1167.25 42.34 L 1165.42 38.72 L 1163.58 39.78 L 1161.75 40.52 L 1159.92 41.47 L 1158.08 42.54 L 1156.25 44.28 L 1154.42 41.97 L 1152.58 43.10 L 1150.75 44.17 L 1148.92 45.66 L 1147.08 46.54 L 1145.25 47.05 L 1143.42 48.69 L 1141.58 49.75 L 1139.75 51.29 L 1137.92 48.99 L 1136.08 50.05 L 1134.25 50.95 L 1132.42 51.77 L 1130.58 52.85 L 1128.75 54.89 L 1126.92 52.50 L 1125.08 53.36 L 1123.25 53.89 L 1121.42 54.27 L 1119.58 55.07 L 1117.75 56.80 L 1115.92 54.49 L 1114.08 52.24 L 1112.25 50.02 L 1110.42 50.82 L 1108.58 51.14 L 1106.75 51.25 L 1104.92 51.57 L 1103.08 52.36 L 1101.25 53.32 L 1099.42 54.07 L 1097.58 54.94 L 1095.75 54.45 L 1093.92 55.31 L 1092.08 55.79 L 1090.25 56.18 L 1088.42 54.08 L 1086.58 53.87 L 1084.75 50.59 L 1082.92 51.05 L 1081.08 51.43 L 1079.25 52.36 L 1077.24 52.96 L 1075.06 49.63 L 1072.88 50.58 L 1070.69 51.54 L 1068.51 51.67 L 1066.33 52.68 L 1064.15 53.15 L 1061.96 53.85 L 1059.78 54.45 L 1057.60 56.63 L 1055.42 53.35 L 1053.23 54.20 L 1051.05 55.05 L 1048.87 55.70 L 1046.69 56.55 L 1044.50 57.47 L 1042.32 58.81 L 1040.14 56.75 L 1037.96 57.39 L 1035.77 58.04 L 1033.59 58.77 L 1031.41 59.24 L 1029.23 59.71 L 1027.04 60.13 L 1024.86 60.99 L 1022.68 61.92 L 1020.50 62.68 L 1018.31 63.30 L 1016.13 64.26 L 1013.95 65.25 L 1011.77 65.29 L 1009.58 63.17 L 1007.40 64.12 L 1005.22 65.51 L 1003.04 63.38 L 1000.85 61.23 L 998.67 60.79 L 996.49 61.34 L 994.31 62.17 L 992.12 62.87 L 989.94 62.93 L 987.76 60.81 L 986.13 60.68 L 985.05 61.57 L 983.97 58.25 L 982.89 56.14 L 981.81 57.05 L 980.74 56.74 L 979.66 54.62 L 978.58 55.02 L 977.50 56.74 L 976.42 56.82 L 975.34 57.62 L 974.26 52.61 L 973.19 49.26 L 972.11 47.13 L 971.03 48.05 L 969.95 49.41 L 968.87 50.28 L 967.79 50.03 L 966.72 47.96 L 965.64 48.11 L 964.56 48.96 L 963.48 45.73 L 962.40 46.64 L 961.32 47.93 L 960.25 48.85 L 959.17 49.71 L 958.09 50.77 L 957.01 48.70 L 955.93 49.63 L 954.85 51.14 L 953.77 49.06 L 952.70 50.24 L 951.62 51.18 L 950.54 52.29 L 949.46 52.38 L 948.38 50.26 L 947.30 51.03 L 946.23 51.20 L 945.15 52.14 L 944.07 53.08 L 942.99 54.45 L 941.91 52.33 L 940.83 53.23 L 939.75 55.61 L 938.68 50.59 L 937.60 47.24 L 936.52 48.20 L 935.44 46.03 L 934.36 46.90 L 933.28 46.82 L 932.21 47.70 L 931.13 48.46 L 930.05 49.18 L 928.97 49.86 L 927.89 47.65 L 926.81 48.07 L 925.74 48.87 L 924.66 48.43 L 923.58 49.45 L 922.50 50.46 L 921.42 46.97 L 920.34 44.75 L 919.26 45.68 L 918.19 43.45 L 917.11 39.98 L 916.03 37.75 L 914.95 38.36 L 913.87 39.37 L 912.79 39.59 L 911.72 39.01 L 910.64 39.92 L 909.56 40.84 L 908.48 41.76 L 907.40 42.50 L 906.32 43.34 L 905.25 44.63 L 904.17 42.41 L 903.09 43.42 L 902.01 44.44 L 900.93 45.47 L 899.85 46.44 L 898.77 47.47 L 897.70 43.90 L 896.62 41.62 L 895.54 41.54 L 894.00 42.60 L 892.01 43.78 L 890.02 41.43 L 888.03 37.73 L 886.03 40.59 L 884.04 41.68 L 882.05 39.31 L 880.05 36.92 L 878.06 37.74 L 876.07 38.45 L 874.08 38.70 L 872.08 38.94 L 870.09 39.79 L 868.10 40.54 L 866.11 38.21 L 864.11 39.08 L 862.12 40.66 L 860.13 38.31 L 858.13 39.17 L 856.14 35.47 L 854.15 36.33 L 852.16 32.68 L 850.16 30.37 L 848.17 31.06 L 846.18 28.74 L 844.18 26.43 L 842.19 27.21 L 840.20 27.60 L 838.21 28.47 L 836.21 29.18 L 834.22 26.83 L 832.23 27.92 L 830.24 28.18 L 828.24 25.83 L 826.25 26.69 L 824.26 27.40 L 822.26 25.08 L 820.27 25.01 L 818.28 25.97 L 816.29 27.32 Z" fill="#d0d0d0" fill-opacity="0.5" stroke="none"/>
<polyline fill="none" stroke="#111" stroke-width="1.2" points="74.58,43.72 83.75,42.82 92.92,41.70 102.08,40.27 111.25,39.23 120.42,38.63 129.58,38.69 138.75,37.69 147.92,35.73 157.08,38.10 184.58,37.52 230.42,36.79 257.15,36.06 264.79,34.80 272.43,37.32 280.07,35.81 287.71,34.89 295.35,34.22 302.99,33.25 310.62,35.78 318.26,35.21 325.90,37.72 333.54,36.86 341.18,36.87 348.82,39.43 356.46,38.32 364.10,39.42 371.74,40.07 379.38,39.64 387.01,38.53 394.65,41.10 402.29,43.68 409.93,42.82 417.57,42.71 425.21,45.30 432.85,44.39 459.58,43.48 505.42,42.54 535.97,41.56 551.25,40.36 566.53,38.77 581.81,38.61 597.08,37.95 612.36,40.46 629.17,39.24 647.50,38.29 665.83,37.17 684.17,37.19 702.50,37.48 718.21,36.31 731.31,34.24 744.40,33.61 757.50,32.83 770.60,31.82 783.69,31.03 796.79,30.35 804.33,30.42 806.32,29.33 808.32,28.72 810.31,27.65 812.30,25.89 814.29,25.00 816.29,27.32 818.28,25.97 820.27,25.01 822.26,25.08 824.26,27.40 826.25,26.69 828.24,25.83 830.24,28.18 832.23,27.92 834.22,26.83 836.21,29.18 838.21,28.47 840.20,27.60 842.19,27.21 844.18,26.43 846.18,28.74 848.17,31.06 850.16,30.37 852.16,32.68 854.15,36.33 856.14,35.47 858.13,39.17 860.13,38.31 862.12,40.66 864.11,39.08 866.11,38.21 868.10,40.54 870.09,39.79 872.08,38.94 874.08,38.70 876.07,38.45 878.06,37.74 880.05,36.92 882.05,39.31 884.04,41.68 886.03,40.59 888.03,37.73 890.02,41.43 892.01,43.78 894.00,42.60 895.54,41.54 896.62,41.62 897.70,43.90 898.77,47.47 899.85,46.44 900.93,45.47 902.01,44.44 903.09,43.42 904.17,42.41 905.25,44.63 906.32,43.34 907.40,42.50 908.48,41.76 909.56,40.84 910.64,39.92 911.72,39.01 912.79,39.59 913.87,39.37 914.95,38.36 916.03,37.75 917.11,39.98 918.19,43.45 919.26,45.68 920.34,44.75 921.42,46.97 922.50,50.46 923.58,49.45 924.66,48.43 925.74,48.87 926.81,48.07 927.89,47.65 928.97,49.86 930.05,49.18 931.13,48.46 932.21,47.70 933.28,46.82 934.36,46.90 935.44,46.03 936.52,48.20 937.60,47.24 938.68,50.59 939.75,55.61 940.83,53.23 941.91,52.33 942.99,54.45 944.07,53.08 945.15,52.14 946.23,51.20 947.30,51.03 948.38,50.26 949.46,52.38 950.54,52.29 951.62,51.18 952.70,50.24 953.77,49.06 954.85,51.14 955.93,49.63 957.01,48.70 958.09,50.77 959.17,49.71 960.25,48.85 961.32,47.93 962.40,46.64 963.48,45.73 964.56,48.96 965.64,48.11 966.72,47.96 967.79,50.03 968.87,50.28 969.95,49.41 971.03,48.05 972.11,47.13 973.19,49.26 974.26,52.61 975.34,57.62 976.42,56.82 977.50,56.74 978.58,55.02 979.66,54.62 980.74,56.74 981.81,57.05 982.89,56.14 983.97,58.25 985.05,61.57 986.13,60.68 987.76,60.81 989.94,62.93 992.12,62.87 994.31,62.17 996.49,61.34 998.67,60.79 1000.85,61.23 1003.04,63.38 1005.22,65.51 1007.40,64.12 1009.58,63.17 1011.77,65.29 1013.95,65.25 1016.13,64.26 1018.31,63.30 1020.50,62.68 1022.68,61.92 1024.86,60.99 1027.04,60.13 1029.23,59.71 1031.41,59.24 1033.59,58.77 1035.77,58.04 1037.96,57.39 1040.14,56.75 1042.32,58.81 1044.50,57.47 1046.69,56.55 1048.87,55.70 1051.05,55.05 1053.23,54.20 1055.42,53.35 1057.60,56.63 1059.78,54.45 1061.96,53.85 1064.15,53.15 1066.33,52.68 1068.51,51.67 1070.69,51.54 1072.88,50.58 1075.06,49.63 1077.24,52.96 1079.25,52.36 1081.08,51.43 1082.92,51.05 1084.75,50.59 1086.58,53.87 1088.42,54.08 1090.25,56.18 1092.08,55.79 1093.92,55.31 1095.75,54.45 1097.58,54.94 1099.42,54.07 1101.25,53.32 1103.08,52.36 1104.92,51.57 1106.75,51.25 1108.58,51.14 1110.42,50.82 1112.25,50.02 1114.08,52.24 1115.92,54.49 1117.75,56.80 1119.58,55.07 1121.42,54.27 1123.25,53.89 1125.08,53.36 1126.92,52.50 1128.75,54.89 1130.58,52.85 1132.42,51.77 1134.25,50.95 1136.08,50.05 1137.92,48.99 1139.75,51.29 1141.58,49.75 1143.42,48.69 1145.25,47.05 1147.08,46.54 1148.92,45.66 1150.75,44.17 1152.58,43.10 1154.42,41.97 1156.25,44.28 1158.08,42.54 1159.92,41.47 1161.75,40.52 1163.58,39.78 1165.42,38.72 1167.25,42.34 1169.08,40.08"/>
<text x="15" y="287.5" transform="rotate(-90 15,287.5)" text-anchor="middle" font-family="sans-serif" font-size="12" fill="#333">USD</text>
</svg>