<svg xmlns="http://www.w3.org/2000/svg" width="1200" height="600" viewBox="0 0 1200 600">
<desc>Equity curve with drawdown fill</desc>
<text x="600.0" y="18.0" text-anchor="middle" font-family="sans-serif" font-size="14">Portfolio 2016</text>
<rect x="70" y="25" width="1100" height="525" fill="white" stroke="#ccc" />
<line x1="70" y1="550.00" x2="1170" y2="550.00" stroke="#eee"/>
<text x="62" y="554.0" text-anchor="end" font-family="sans-serif" font-size="11" fill="#555">0.00</text>
<line x1="70" y1="445.00" x2="1170" y2="445.00" stroke="#eee"/>
<text x="62" y="449.0" text-anchor="end" font-family="sans-serif" font-size="11" fill="#555">23373</text>
<line x1="70" y1="340.00" x2="1170" y2="340.00" stroke="#eee"/>
<text x="62" y="344.0" text-anchor="end" font-family="sans-serif" font-size="11" fill="#555">46745</text>
<line x1="70" y1="235.00" x2="1170" y2="235.00" stroke="#eee"/>
<text x="62" y="239.0" text-anchor="end" font-family="sans-serif" font-size="11" fill="#555">70118</text>
<line x1="70" y1="130.00" x2="1170" y2="130.00" stroke="#eee"/>
<text x="62" y="134.0" text-anchor="end" font-family="sans-serif" font-size="11" fill="#555">93490</text>
<line x1="70" y1="25.00" x2="1170" y2="25.00" stroke="#eee"/>
<text x="62" y="29.0" text-anchor="end" font-family="sans-serif" font-size="11" fill="#555">116863</text>
<line x1="154.21" y1="25" x2="154.21" y2="550" stroke="#f2f2f2"/>
<text x="154.21" y="566" text-anchor="middle" font-family="sans-serif" font-size="11" fill="#555">Feb</text>
<line x1="242.56" y1="25" x2="242.56" y2="550" stroke="#f2f2f2"/>
<text x="242.56" y="566" text-anchor="middle" font-family="sans-serif" font-size="11" fill="#555">Mar</text>
<line x1="337.00" y1="25" x2="337.00" y2="550" stroke="#f2f2f2"/>
<text x="337.00" y="566" text-anchor="middle" font-family="sans-serif" font-size="11" fill="#555">Apr</text>
<line x1="428.40" y1="25" x2="428.40" y2="550" stroke="#f2f2f2"/>
<text x="428.40" y="566" text-anchor="middle" font-family="sans-serif" font-size="11" fill="#555">May</text>
<line x1="522.84" y1="25" x2="522.84" y2="550" stroke="#f2f2f2"/>
<text x="522.84" y="566" text-anchor="middle" font-family="sans-serif" font-size="11" fill="#555">Jun</text>
<line x1="614.24" y1="25" x2="614.24" y2="550" stroke="#f2f2f2"/>
<text x="614.24" y="566" text-anchor="middle" font-family="sans-serif" font-size="11" fill="#555">Jul</text>
<line x1="708.68" y1="25" x2="708.68" y2="550" stroke="#f2f2f2"/>
<text x="708.68" y="566" text-anchor="middle" font-family="sans-serif" font-size="11" fill="#555">Aug</text>
<line x1="803.12" y1="25" x2="803.12" y2="550" stroke="#f2f2f2"/>
<text x="803.12" y="566" text-anchor="middle" font-family="sans-serif" font-size="11" fill="#555">Sep</text>
<line x1="894.51" y1="25" x2="894.51" y2="550" stroke="#f2f2f2"/>
<text x="894.51" y="566" text-anchor="middle" font-family="sans-serif" font-size="11" fill="#555">Oct</text>
<line x1="988.96" y1="25" x2="988.96" y2="550" stroke="#f2f2f2"/>
<text x="988.96" y="566" text-anchor="middle" font-family="sans-serif" font-size="11" fill="#555">Nov</text>
<line x1="1080.35" y1="25" x2="1080.35" y2="550" stroke="#f2f2f2"/>
<text x="1080.35" y="566" text-anchor="middle" font-family="sans-serif" font-size="11" fill="#555">Dec</text>
<line x1="70" y1="550" x2="1170" y2="550" stroke="#888"/>
<line x1="70" y1="25" x2="70" y2="550" stroke="#888"/>
<path d="M 70.76 99.12 L 79.26 99.12 L 80.45 99.12 L 81.30 99.12 L 81.30 100.80 L 80.45 103.06 L 79.26 104.81 L 70.76 100.26 Z" fill="#d0d0d0" fill-opacity="0.5" stroke="none"/>
<path d="M 104.18 93.38 L 104.19 93.38 L 104.19 95.53 L 104.18 97.99 Z" fill="#d0d0d0" fill-opacity="0.5" stroke="none"/>
<path d="M 123.18 91.45 L 123.18 92.25 Z" fill="#d0d0d0" fill-opacity="0.5" stroke="none"/>
<path d="M 146.93 87.97 L 162.03 87.97 L 162.28 87.97 L 162.34 87.97 L 162.39 87.97 L 162.68 87.97 L 164.45 87.97 L 168.11 87.97 L 168.16 87.97 L 168.23 87.97 L 168.40 87.97 L 177.05 87.97 L 177.59 87.97 L 180.31 87.97 L 183.60 87.97 L 185.79 87.97 L 189.47 87.97 L 198.83 87.97 L 226.27 87.97 L 232.22 87.97 L 250.76 87.97 L 253.42 87.97 L 253.42 88.02 L 250.76 90.61 L 232.22 93.17 L 226.27 93.98 L 198.83 94.76 L 189.47 95.90 L 185.79 97.78 L 183.60 100.05 L 180.31 95.46 L 177.59 98.01 L 177.05 93.39 L 168.40 94.61 L 168.23 94.56 L 168.16 96.33 L 168.11 98.70 L 164.45 101.23 L 162.68 102.76 L 162.39 98.19 L 162.34 99.83 L 162.28 95.24 L 162.03 90.61 L 146.93 92.64 Z" fill="#d0d0d0" fill-opacity="0.5" stroke="none"/>
<path d="M 269.10 81.20 L 269.10 83.32 Z" fill="#d0d0d0" fill-opacity="0.5" stroke="none"/>
<path d="M 271.62 80.69 L 271.73 80.69 L 271.75 80.69 L 271.75 82.29 L 271.73 84.90 L 271.62 85.41 Z" fill="#d0d0d0" fill-opacity="0.5" stroke="none"/>
<path d="M 271.92 78.48 L 271.97 78.48 L 272.06 78.48 L 272.14 78.48 L 272.26 78.48 L 274.17 78.48 L 275.01 78.48 L 290.67 78.48 L 290.72 78.48 L 292.57 78.48 L 307.78 78.48 L 330.07 78.48 L 339.00 78.48 L 354.12 78.48 L 354.35 78.48 L 356.52 78.48 L 372.47 78.48 L 399.64 78.48 L 399.64 80.15 L 372.47 81.58 L 356.52 83.41 L 354.35 85.37 L 354.12 87.98 L 339.00 89.63 L 330.07 90.01 L 307.78 92.59 L 292.57 93.78 L 290.72 93.33 L 290.67 88.70 L 275.01 91.28 L 274.17 91.76 L 272.26 92.68 L 272.14 92.27 L 272.06 92.49 L 271.97 87.85 L 271.92 83.17 Z" fill="#d0d0d0" fill-opacity="0.5" stroke="none"/>
<path d="M 399.94 77.38 L 415.03 77.38 L 418.63 77.38 L 418.63 77.86 L 415.03 80.51 L 399.94 82.15 Z" fill="#d0d0d0" fill-opacity="0.5" stroke="none"/>
<path d="M 530.74 65.80 L 530.83 65.80 L 530.90 65.80 L 531.05 65.80 L 567.90 65.80 L 570.06 65.80 L 570.79 65.80 L 570.82 65.80 L 570.95 65.80 L 585.56 65.80 L 591.18 65.80 L 591.18 68.48 L 585.56 70.90 L 570.95 73.57 L 570.82 75.20 L 570.79 77.53 L 570.06 72.71 L 567.90 72.89 L 531.05 75.56 L 530.90 74.55 L 530.83 75.46 L 530.74 70.65 Z" fill="#d0d0d0" fill-opacity="0.5" stroke="none"/>
<path d="M 593.12 62.74 L 593.17 62.74 L 593.21 62.74 L 593.34 62.74 L 593.36 62.74 L 593.40 62.74 L 593.51 62.74 L 593.54 62.74 L 593.65 62.74 L 593.69 62.74 L 593.83 62.74 L 593.85 62.74 L 593.97 62.74 L 594.02 62.74 L 594.09 62.74 L 594.18 62.74 L 594.47 62.74 L 594.86 62.74 L 595.27 62.74 L 601.95 62.74 L 612.93 62.74 L 613.34 62.74 L 613.34 64.91 L 612.93 67.62 L 601.95 69.92 L 595.27 71.85 L 594.86 66.98 L 594.47 69.18 L 594.18 69.36 L 594.09 71.46 L 594.02 72.47 L 593.97 67.63 L 593.85 70.31 L 593.83 73.05 L 593.69 75.70 L 593.65 77.34 L 593.54 72.54 L 593.51 75.06 L 593.40 70.30 L 593.36 72.58 L 593.34 75.07 L 593.21 70.25 L 593.17 72.49 L 593.12 67.65 Z" fill="#d0d0d0" fill-opacity="0.5" stroke="none"/>
<path d="M 628.59 59.55 L 637.28 59.55 L 637.28 61.77 L 628.59 64.49 Z" fill="#d0d0d0" fill-opacity="0.5" stroke="none"/>
<path d="M 787.04 40.15 L 805.19 40.15 L 807.88 40.15 L 808.17 40.15 L 820.32 40.15 L 820.40 40.15 L 829.42 40.15 L 850.69 40.15 L 892.57 40.15 L 892.57 40.61 L 850.69 42.43 L 829.42 43.40 L 820.40 44.02 L 820.32 45.27 L 808.17 40.15 L 807.88 42.52 L 805.19 45.35 L 787.04 45.27 Z" fill="#d0d0d0" fill-opacity="0.5" stroke="none"/>
<path d="M 1013.59 25.00 L 1013.63 25.00 L 1013.70 25.00 L 1013.76 25.00 L 1013.89 25.00 L 1013.90 25.00 L 1014.07 25.00 L 1014.21 25.00 L 1014.34 25.00 L 1014.42 25.00 L 1014.55 25.00 L 1014.60 25.00 L 1014.91 25.00 L 1015.28 25.00 L 1015.34 25.00 L 1028.75 25.00 L 1029.74 25.00 L 1030.54 25.00 L 1032.75 25.00 L 1035.69 25.00 L 1039.48 25.00 L 1042.74 25.00 L 1057.78 25.00 L 1071.58 25.00 L 1072.72 25.00 L 1079.14 25.00 L 1079.42 25.00 L 1092.41 25.00 L 1093.53 25.00 L 1093.67 25.00 L 1093.98 25.00 L 1094.04 25.00 L 1094.91 25.00 L 1103.29 25.00 L 1103.35 25.00 L 1103.41 25.00 L 1103.52 25.00 L 1103.68 25.00 L 1103.73 25.00 L 1106.38 25.00 L 1122.37 25.00 L 1123.09 25.00 L 1124.47 25.00 L 1125.17 25.00 L 1128.19 25.00 L 1146.27 25.00 L 1168.65 25.00 L 1168.69 25.00 L 1170.00 25.00 L 1170.00 43.19 L 1168.69 44.81 L 1168.65 47.04 L 1146.27 49.97 L 1128.19 52.26 L 1125.17 54.82 L 1124.47 56.06 L 1123.09 51.03 L 1122.37 51.34 L 1106.38 54.25 L 1103.73 54.48 L 1103.68 49.44 L 1103.52 44.38 L 1103.41 44.63 L 1103.35 39.53 L 1103.29 41.51 L 1094.91 44.48 L 1094.04 44.77 L 1093.98 46.82 L 1093.67 41.70 L 1093.53 42.73 L 1092.41 44.28 L 1079.42 47.22 L 1079.14 48.37 L 1072.72 50.55 L 1071.58 52.75 L 1057.78 52.65 L 1042.74 47.59 L 1039.48 50.11 L 1035.69 52.11 L 1032.75 54.14 L 1030.54 54.93 L 1029.74 54.04 L 1028.75 55.31 L 1015.34 57.45 L 1015.28 52.43 L 1014.91 51.88 L 1014.60 54.18 L 1014.55 49.18 L 1014.42 44.12 L 1014.34 45.05 L 1014.21 39.97 L 1014.07 42.65 L 1013.90 37.50 L 1013.89 40.48 L 1013.76 39.33 L 1013.70 34.23 L 1013.63 35.43 L 1013.59 30.25 Z" fill="#d0d0d0" fill-opacity="0.5" stroke="none"/>
<polyline fill="none" stroke="#111" stroke-width="1.2" points="70.00,99.12 70.76,100.26 79.26,104.81 80.45,103.06 81.30,100.80 83.06,98.70 90.12,96.17 98.34,94.42 100.59,93.92 101.45,93.38 104.18,97.99 104.19,95.53 122.42,92.85 122.50,91.45 123.18,92.25 143.23,90.56 145.54,87.97 146.93,92.64 162.03,90.61 162.28,95.24 162.34,99.83 162.39,98.19 162.68,102.76 164.45,101.23 168.11,98.70 168.16,96.33 168.23,94.56 168.40,94.61 177.05,93.39 177.59,98.01 180.31,95.46 183.60,100.05 185.79,97.78 189.47,95.90 198.83,94.76 226.27,93.98 232.22,93.17 250.76,90.61 253.42,88.02 253.44,85.49 253.48,82.88 253.67,81.44 263.10,81.20 269.10,83.32 271.60,80.69 271.62,85.41 271.73,84.90 271.75,82.29 271.78,79.54 271.88,78.48 271.92,83.17 271.97,87.85 272.06,92.49 272.14,92.27 272.26,92.68 274.17,91.76 275.01,91.28 290.67,88.70 290.72,93.33 292.57,93.78 307.78,92.59 330.07,90.01 339.00,89.63 354.12,87.98 354.35,85.37 356.52,83.41 372.47,81.58 399.64,80.15 399.68,77.38 399.94,82.15 415.03,80.51 418.63,77.86 433.35,75.21 435.70,74.09 445.35,71.41 466.89,68.98 482.71,68.63 530.65,65.80 530.74,70.65 530.83,75.46 530.90,74.55 531.05,75.56 567.90,72.89 570.06,72.71 570.79,77.53 570.82,75.20 570.95,73.57 585.56,70.90 591.18,68.48 592.91,65.64 592.95,62.74 593.12,67.65 593.17,72.49 593.21,70.25 593.34,75.07 593.36,72.58 593.40,70.30 593.51,75.06 593.54,72.54 593.65,77.34 593.69,75.70 593.83,73.05 593.85,70.31 593.97,67.63 594.02,72.47 594.09,71.46 594.18,69.36 594.47,69.18 594.86,66.98 595.27,71.85 601.95,69.92 612.93,67.62 613.34,64.91 613.37,62.29 627.50,59.55 628.59,64.49 637.28,61.77 637.37,59.03 655.40,56.27 658.80,55.72 680.30,54.26 701.39,53.00 722.58,50.21 722.80,49.68 743.99,49.28 755.57,48.16 759.87,45.58 786.74,42.75 786.79,40.15 787.04,45.27 805.19,45.35 807.88,42.52 808.17,40.15 820.32,45.27 820.40,44.02 829.42,43.40 850.69,42.43 892.57,40.61 893.37,39.32 905.77,36.47 905.81,33.87 914.58,31.24 954.15,28.55 954.24,26.07 979.19,25.00 1013.59,30.25 1013.63,35.43 1013.70,34.23 1013.76,39.33 1013.89,40.48 1013.90,37.50 1014.07,42.65 1014.21,39.97 1014.34,45.05 1014.42,44.12 1014.55,49.18 1014.60,54.18 1014.91,51.88 1015.28,52.43 1015.34,57.45 1028.75,55.31 1029.74,54.04 1030.54,54.93 1032.75,54.14 1035.69,52.11 1039.48,50.11 1042.74,47.59 1057.78,52.65 1071.58,52.75 1072.72,50.55 1079.14,48.37 1079.42,47.22 1092.41,44.28 1093.53,42.73 1093.67,41.70 1093.98,46.82 1094.04,44.77 1094.91,44.48 1103.29,41.51 1103.35,39.53 1103.41,44.63 1103.52,44.38 1103.68,49.44 1103.73,54.48 1106.38,54.25 1122.37,51.34 1123.09,51.03 1124.47,56.06 1125.17,54.82 1128.19,52.26 1146.27,49.97 1168.65,47.04 1168.69,44.81 1170.00,43.19"/>
<text x="620.0" y="588" text-anchor="middle" font-family="sans-serif" font-size="12" fill="#333">UTC time</text>
<text x="15" y="287.5" transform="rotate(-90 15,287.5)" text-anchor="middle" font-family="sans-serif" font-size="12" fill="#333">Capital</text>
</svg>