<svg xmlns="http://www.w3.org/2000/svg" width="1200" height="600" viewBox="0 0 1200 600">
<desc>Equity curve with drawdown fill; x-axis is months only (no exact timestamps)</desc>
<text x="600.0" y="18.0" text-anchor="middle" font-family="sans-serif" font-size="14">Balance Curve 2011 (UTC)</text>
<rect x="70" y="25" width="1100" height="525" fill="white" stroke="#ccc" />
<line x1="70" y1="550.00" x2="1170" y2="550.00" stroke="#eee"/>
<text x="62" y="554.0" text-anchor="end" font-family="sans-serif" font-size="11" fill="#555">0.00</text>
<line x1="70" y1="445.00" x2="1170" y2="445.00" stroke="#eee"/>
<text x="62" y="449.0" text-anchor="end" font-family="sans-serif" font-size="11" fill="#555">22050</text>
<line x1="70" y1="340.00" x2="1170" y2="340.00" stroke="#eee"/>
<text x="62" y="344.0" text-anchor="end" font-family="sans-serif" font-size="11" fill="#555">44101</text>
<line x1="70" y1="235.00" x2="1170" y2="235.00" stroke="#eee"/>
<text x="62" y="239.0" text-anchor="end" font-family="sans-serif" font-size="11" fill="#555">66151</text>
<line x1="70" y1="130.00" x2="1170" y2="130.00" stroke="#eee"/>
<text x="62" y="134.0" text-anchor="end" font-family="sans-serif" font-size="11" fill="#555">88201</text>
<line x1="70" y1="25.00" x2="1170" y2="25.00" stroke="#eee"/>
<text x="62" y="29.0" text-anchor="end" font-family="sans-serif" font-size="11" fill="#555">110252</text>
<line x1="161.67" y1="25" x2="161.67" y2="550" stroke="#f2f2f2"/>
<line x1="253.33" y1="25" x2="253.33" y2="550" stroke="#f2f2f2"/>
<line x1="345.00" y1="25" x2="345.00" y2="550" stroke="#f2f2f2"/>
<line x1="436.67" y1="25" x2="436.67" y2="550" stroke="#f2f2f2"/>
<line x1="528.33" y1="25" x2="528.33" y2="550" stroke="#f2f2f2"/>
<line x1="620.00" y1="25" x2="620.00" y2="550" stroke="#f2f2f2"/>
<line x1="711.67" y1="25" x2="711.67" y2="550" stroke="#f2f2f2"/>
<line x1="803.33" y1="25" x2="803.33" y2="550" stroke="#f2f2f2"/>
<line x1="895.00" y1="25" x2="895.00" y2="550" stroke="#f2f2f2"/>
<line x1="986.67" y1="25" x2="986.67" y2="550" stroke="#f2f2f2"/>
<line x1="1078.33" y1="25" x2="1078.33" y2="550" stroke="#f2f2f2"/>
<text x="115.83" y="566.00" text-anchor="middle" font-family="sans-serif" font-size="11" fill="#444">Jan</text>
<text x="207.50" y="566.00" text-anchor="middle" font-family="sans-serif" font-size="11" fill="#444">Feb</text>
<text x="299.17" y="566.00" text-anchor="middle" font-family="sans-serif" font-size="11" fill="#444">Mar</text>
<text x="390.83" y="566.00" text-anchor="middle" font-family="sans-serif" font-size="11" fill="#444">Apr</text>
<text x="482.50" y="566.00" text-anchor="middle" font-family="sans-serif" font-size="11" fill="#444">May</text>
<text x="574.17" y="566.00" text-anchor="middle" font-family="sans-serif" font-size="11" fill="#444">Jun</text>
<text x="665.83" y="566.00" text-anchor="middle" font-family="sans-serif" font-size="11" fill="#444">Jul</text>
<text x="757.50" y="566.00" text-anchor="middle" font-family="sans-serif" font-size="11" fill="#444">Aug</text>
<text x="849.17" y="566.00" text-anchor="middle" font-family="sans-serif" font-size="11" fill="#444">Sep</text>
<text x="940.83" y="566.00" text-anchor="middle" font-family="sans-serif" font-size="11" fill="#444">Oct</text>
<text x="1032.50" y="566.00" text-anchor="middle" font-family="sans-serif" font-size="11" fill="#444">Nov</text>
<text x="1124.17" y="566.00" text-anchor="middle" font-family="sans-serif" font-size="11" fill="#444">Dec</text>
<line x1="70" y1="550" x2="1170" y2="550" stroke="#888"/>
<line x1="70" y1="25" x2="70" y2="550" stroke="#888"/>
<line x1="74.17" y1="550.00" x2="74.17" y2="556.00" stroke="#888"/>
<line x1="1154.72"   y1="550.00" x2="1154.72"   y2="556.00" stroke="#888"/>
<text x="74.17" y="582.00" text-anchor="start" font-family="sans-serif" font-size="11" fill="#333">Initial Balance: 100000</text>
<text x="1154.72"   y="582.00" text-anchor="end"   font-family="sans-serif" font-size="11" fill="#333">Ending Balance: 108554</text>
<path d="M 90.83 72.27 L 90.83 72.32 Z" fill="#d0d0d0" fill-opacity="0.5" stroke="none"/>
<path d="M 189.17 51.45 L 207.50 51.45 L 207.50 52.42 L 189.17 53.28 Z" fill="#d0d0d0" fill-opacity="0.5" stroke="none"/>
<path d="M 244.17 50.38 L 259.06 50.38 L 270.52 50.38 L 270.52 51.34 L 259.06 52.74 L 244.17 55.44 Z" fill="#d0d0d0" fill-opacity="0.5" stroke="none"/>
<path d="M 293.44 50.11 L 293.44 50.99 Z" fill="#d0d0d0" fill-opacity="0.5" stroke="none"/>
<path d="M 327.81 48.49 L 327.81 49.23 Z" fill="#d0d0d0" fill-opacity="0.5" stroke="none"/>
<path d="M 356.46 47.49 L 379.38 47.49 L 402.29 47.49 L 425.21 47.49 L 439.36 47.49 L 444.75 47.49 L 450.15 47.49 L 455.54 47.49 L 460.93 47.49 L 466.32 47.49 L 471.72 47.49 L 477.11 47.49 L 482.50 47.49 L 487.89 47.49 L 493.28 47.49 L 498.68 47.49 L 504.07 47.49 L 509.46 47.49 L 514.85 47.49 L 520.25 47.49 L 525.64 47.49 L 532.15 47.49 L 539.79 47.49 L 547.43 47.49 L 555.07 47.49 L 562.71 47.49 L 570.35 47.49 L 577.99 47.49 L 585.62 47.49 L 593.26 47.49 L 600.90 47.49 L 608.54 47.49 L 616.18 47.49 L 616.18 47.67 L 608.54 50.42 L 600.90 52.29 L 593.26 53.16 L 585.62 53.67 L 577.99 56.38 L 570.35 56.87 L 562.71 59.54 L 555.07 62.22 L 547.43 57.23 L 539.79 58.31 L 532.15 60.00 L 525.64 57.96 L 520.25 59.20 L 514.85 60.57 L 509.46 55.57 L 504.07 56.64 L 498.68 54.49 L 493.28 55.80 L 487.89 58.01 L 482.50 59.42 L 477.11 60.10 L 471.72 61.54 L 466.32 56.54 L 460.93 51.50 L 455.54 53.10 L 450.15 55.82 L 444.75 50.80 L 439.36 53.54 L 425.21 54.07 L 402.29 55.95 L 379.38 50.90 L 356.46 52.58 Z" fill="#d0d0d0" fill-opacity="0.5" stroke="none"/>
<path d="M 690.28 25.93 L 696.39 25.93 L 702.50 25.93 L 708.61 25.93 L 714.21 25.93 L 719.31 25.93 L 724.40 25.93 L 729.49 25.93 L 734.58 25.93 L 734.58 27.51 L 729.49 30.35 L 724.40 32.56 L 719.31 34.83 L 714.21 36.60 L 708.61 38.82 L 702.50 33.61 L 696.39 28.34 L 690.28 31.18 Z" fill="#d0d0d0" fill-opacity="0.5" stroke="none"/>
<path d="M 744.77 25.00 L 749.86 25.00 L 754.95 25.00 L 760.05 25.00 L 765.14 25.00 L 770.23 25.00 L 775.32 25.00 L 780.42 25.00 L 785.51 25.00 L 790.60 25.00 L 795.69 25.00 L 800.79 25.00 L 805.88 25.00 L 810.97 25.00 L 816.06 25.00 L 821.16 25.00 L 826.25 25.00 L 831.34 25.00 L 836.44 25.00 L 841.53 25.00 L 846.62 25.00 L 851.71 25.00 L 856.81 25.00 L 861.90 25.00 L 866.99 25.00 L 872.08 25.00 L 877.18 25.00 L 882.27 25.00 L 887.36 25.00 L 892.45 25.00 L 897.41 25.00 L 902.24 25.00 L 907.06 25.00 L 911.89 25.00 L 916.71 25.00 L 921.54 25.00 L 926.36 25.00 L 931.18 25.00 L 936.01 25.00 L 940.83 25.00 L 945.66 25.00 L 950.48 25.00 L 955.31 25.00 L 960.13 25.00 L 964.96 25.00 L 969.78 25.00 L 974.61 25.00 L 979.43 25.00 L 984.25 25.00 L 989.21 25.00 L 994.31 25.00 L 999.40 25.00 L 1004.49 25.00 L 1009.58 25.00 L 1014.68 25.00 L 1019.77 25.00 L 1024.86 25.00 L 1029.95 25.00 L 1035.05 25.00 L 1040.14 25.00 L 1045.23 25.00 L 1050.32 25.00 L 1055.42 25.00 L 1060.51 25.00 L 1065.60 25.00 L 1070.69 25.00 L 1075.79 25.00 L 1093.61 25.00 L 1124.17 25.00 L 1154.72 25.00 L 1154.72 33.09 L 1124.17 35.61 L 1093.61 37.12 L 1075.79 37.10 L 1070.69 37.89 L 1065.60 40.17 L 1060.51 42.66 L 1055.42 37.47 L 1050.32 35.94 L 1045.23 37.94 L 1040.14 39.90 L 1035.05 34.68 L 1029.95 34.65 L 1024.86 34.77 L 1019.77 36.80 L 1014.68 37.36 L 1009.58 39.94 L 1004.49 41.86 L 999.40 36.66 L 994.31 37.76 L 989.21 39.71 L 984.25 34.49 L 979.43 35.55 L 974.61 37.10 L 969.78 39.41 L 964.96 42.19 L 960.13 44.95 L 955.31 43.78 L 950.48 45.64 L 945.66 48.39 L 940.83 47.50 L 936.01 42.35 L 931.18 37.17 L 926.36 39.34 L 921.54 41.85 L 916.71 43.77 L 911.89 44.74 L 907.06 39.57 L 902.24 42.33 L 897.41 44.98 L 892.45 46.90 L 887.36 45.84 L 882.27 47.30 L 877.18 42.16 L 872.08 43.13 L 866.99 37.94 L 861.90 37.52 L 856.81 32.29 L 851.71 33.69 L 846.62 36.48 L 841.53 37.95 L 836.44 40.73 L 831.34 43.08 L 826.25 45.23 L 821.16 45.36 L 816.06 47.50 L 810.97 49.87 L 805.88 44.76 L 800.79 39.59 L 795.69 42.38 L 790.60 37.20 L 785.51 31.96 L 780.42 34.06 L 775.32 36.86 L 770.23 31.62 L 765.14 31.46 L 760.05 30.58 L 754.95 25.28 L 749.86 28.12 L 744.77 30.29 Z" fill="#d0d0d0" fill-opacity="0.5" stroke="none"/>
<polyline fill="none" stroke="#111" stroke-width="1.2" points="74.17,73.82 82.50,72.27 90.83,72.32 99.17,69.72 107.50,68.44 115.83,66.05 124.17,63.60 132.50,61.45 140.83,59.01 149.17,56.35 157.50,53.65 170.83,51.45 189.17,53.28 207.50,52.42 225.83,50.38 244.17,55.44 259.06,52.74 270.52,51.34 281.98,50.11 293.44,50.99 304.90,49.35 316.35,48.49 327.81,49.23 339.27,47.49 356.46,52.58 379.38,50.90 402.29,55.95 425.21,54.07 439.36,53.54 444.75,50.80 450.15,55.82 455.54,53.10 460.93,51.50 466.32,56.54 471.72,61.54 477.11,60.10 482.50,59.42 487.89,58.01 493.28,55.80 498.68,54.49 504.07,56.64 509.46,55.57 514.85,60.57 520.25,59.20 525.64,57.96 532.15,60.00 539.79,58.31 547.43,57.23 555.07,62.22 562.71,59.54 570.35,56.87 577.99,56.38 585.62,53.67 593.26,53.16 600.90,52.29 608.54,50.42 616.18,47.67 623.06,45.16 629.17,44.98 635.28,42.21 641.39,40.68 647.50,37.89 653.61,35.25 659.72,34.94 665.83,32.63 671.94,30.62 678.06,28.78 684.17,25.93 690.28,31.18 696.39,28.34 702.50,33.61 708.61,38.82 714.21,36.60 719.31,34.83 724.40,32.56 729.49,30.35 734.58,27.51 739.68,25.00 744.77,30.29 749.86,28.12 754.95,25.28 760.05,30.58 765.14,31.46 770.23,31.62 775.32,36.86 780.42,34.06 785.51,31.96 790.60,37.20 795.69,42.38 800.79,39.59 805.88,44.76 810.97,49.87 816.06,47.50 821.16,45.36 826.25,45.23 831.34,43.08 836.44,40.73 841.53,37.95 846.62,36.48 851.71,33.69 856.81,32.29 861.90,37.52 866.99,37.94 872.08,43.13 877.18,42.16 882.27,47.30 887.36,45.84 892.45,46.90 897.41,44.98 902.24,42.33 907.06,39.57 911.89,44.74 916.71,43.77 921.54,41.85 926.36,39.34 931.18,37.17 936.01,42.35 940.83,47.50 945.66,48.39 950.48,45.64 955.31,43.78 960.13,44.95 964.96,42.19 969.78,39.41 974.61,37.10 979.43,35.55 984.25,34.49 989.21,39.71 994.31,37.76 999.40,36.66 1004.49,41.86 1009.58,39.94 1014.68,37.36 1019.77,36.80 1024.86,34.77 1029.95,34.65 1035.05,34.68 1040.14,39.90 1045.23,37.94 1050.32,35.94 1055.42,37.47 1060.51,42.66 1065.60,40.17 1070.69,37.89 1075.79,37.10 1093.61,37.12 1124.17,35.61 1154.72,33.09"/>
<text x="15" y="287.5" transform="rotate(-90 15,287.5)" text-anchor="middle" font-family="sans-serif" font-size="12" fill="#333">USD</text>
</svg>