<svg xmlns="http://www.w3.org/2000/svg" width="1200" height="600" viewBox="0 0 1200 600">
<desc>Equity curve with drawdown fill</desc>
<text x="600.0" y="18.0" text-anchor="middle" font-family="sans-serif" font-size="14">Portfolio 2012</text>
<rect x="70" y="25" width="1100" height="525" fill="white" stroke="#ccc" />
<line x1="70" y1="550.00" x2="1170" y2="550.00" stroke="#eee"/>
<text x="62" y="554.0" text-anchor="end" font-family="sans-serif" font-size="11" fill="#555">0.00</text>
<line x1="70" y1="445.00" x2="1170" y2="445.00" stroke="#eee"/>
<text x="62" y="449.0" text-anchor="end" font-family="sans-serif" font-size="11" fill="#555">27930</text>
<line x1="70" y1="340.00" x2="1170" y2="340.00" stroke="#eee"/>
<text x="62" y="344.0" text-anchor="end" font-family="sans-serif" font-size="11" fill="#555">55860</text>
<line x1="70" y1="235.00" x2="1170" y2="235.00" stroke="#eee"/>
<text x="62" y="239.0" text-anchor="end" font-family="sans-serif" font-size="11" fill="#555">83791</text>
<line x1="70" y1="130.00" x2="1170" y2="130.00" stroke="#eee"/>
<text x="62" y="134.0" text-anchor="end" font-family="sans-serif" font-size="11" fill="#555">111721</text>
<line x1="70" y1="25.00" x2="1170" y2="25.00" stroke="#eee"/>
<text x="62" y="29.0" text-anchor="end" font-family="sans-serif" font-size="11" fill="#555">139651</text>
<line x1="154.27" y1="25" x2="154.27" y2="550" stroke="#f2f2f2"/>
<text x="154.27" y="566" text-anchor="middle" font-family="sans-serif" font-size="11" fill="#555">Feb</text>
<line x1="243.15" y1="25" x2="243.15" y2="550" stroke="#f2f2f2"/>
<text x="243.15" y="566" text-anchor="middle" font-family="sans-serif" font-size="11" fill="#555">Mar</text>
<line x1="338.17" y1="25" x2="338.17" y2="550" stroke="#f2f2f2"/>
<text x="338.17" y="566" text-anchor="middle" font-family="sans-serif" font-size="11" fill="#555">Apr</text>
<line x1="430.11" y1="25" x2="430.11" y2="550" stroke="#f2f2f2"/>
<text x="430.11" y="566" text-anchor="middle" font-family="sans-serif" font-size="11" fill="#555">May</text>
<line x1="525.13" y1="25" x2="525.13" y2="550" stroke="#f2f2f2"/>
<text x="525.13" y="566" text-anchor="middle" font-family="sans-serif" font-size="11" fill="#555">Jun</text>
<line x1="617.07" y1="25" x2="617.07" y2="550" stroke="#f2f2f2"/>
<text x="617.07" y="566" text-anchor="middle" font-family="sans-serif" font-size="11" fill="#555">Jul</text>
<line x1="712.08" y1="25" x2="712.08" y2="550" stroke="#f2f2f2"/>
<text x="712.08" y="566" text-anchor="middle" font-family="sans-serif" font-size="11" fill="#555">Aug</text>
<line x1="807.10" y1="25" x2="807.10" y2="550" stroke="#f2f2f2"/>
<text x="807.10" y="566" text-anchor="middle" font-family="sans-serif" font-size="11" fill="#555">Sep</text>
<line x1="899.04" y1="25" x2="899.04" y2="550" stroke="#f2f2f2"/>
<text x="899.04" y="566" text-anchor="middle" font-family="sans-serif" font-size="11" fill="#555">Oct</text>
<line x1="994.06" y1="25" x2="994.06" y2="550" stroke="#f2f2f2"/>
<text x="994.06" y="566" text-anchor="middle" font-family="sans-serif" font-size="11" fill="#555">Nov</text>
<line x1="1086.00" y1="25" x2="1086.00" y2="550" stroke="#f2f2f2"/>
<text x="1086.00" y="566" text-anchor="middle" font-family="sans-serif" font-size="11" fill="#555">Dec</text>
<line x1="70" y1="550" x2="1170" y2="550" stroke="#888"/>
<line x1="70" y1="25" x2="70" y2="550" stroke="#888"/>
<path d="M 97.85 39.14 L 97.99 39.14 L 98.00 39.14 L 98.07 39.14 L 110.19 39.14 L 112.67 39.14 L 118.79 39.14 L 128.17 39.14 L 135.05 39.14 L 135.24 39.14 L 137.18 39.14 L 141.06 39.14 L 153.18 39.14 L 155.54 39.14 L 155.95 39.14 L 158.92 39.14 L 159.41 39.14 L 162.19 39.14 L 162.26 39.14 L 171.72 39.14 L 173.68 39.14 L 173.68 39.43 L 171.72 41.53 L 162.26 42.60 L 162.19 45.08 L 159.41 47.04 L 158.92 48.39 L 155.95 51.00 L 155.54 51.56 L 153.18 46.48 L 141.06 48.16 L 137.18 50.79 L 135.24 53.12 L 135.05 51.96 L 128.17 54.43 L 118.79 49.38 L 112.67 50.07 L 110.19 52.91 L 98.07 53.38 L 98.00 54.36 L 97.99 49.37 L 97.85 44.29 Z" fill="#d0d0d0" fill-opacity="0.5" stroke="none"/>
<path d="M 183.53 35.89 L 183.53 36.49 Z" fill="#d0d0d0" fill-opacity="0.5" stroke="none"/>
<path d="M 202.41 31.30 L 212.50 31.30 L 215.93 31.30 L 215.93 33.33 L 212.50 36.27 L 202.41 36.53 Z" fill="#d0d0d0" fill-opacity="0.5" stroke="none"/>
<path d="M 300.46 25.00 L 308.73 25.00 L 311.91 25.00 L 321.50 25.00 L 346.76 25.00 L 346.91 25.00 L 351.91 25.00 L 367.51 25.00 L 376.98 25.00 L 386.66 25.00 L 392.31 25.00 L 394.98 25.00 L 432.12 25.00 L 434.56 25.00 L 448.44 25.00 L 448.49 25.00 L 474.92 25.00 L 498.77 25.00 L 499.53 25.00 L 501.76 25.00 L 505.51 25.00 L 518.20 25.00 L 524.12 25.00 L 526.97 25.00 L 527.03 25.00 L 536.28 25.00 L 538.56 25.00 L 542.24 25.00 L 542.76 25.00 L 555.71 25.00 L 557.89 25.00 L 560.79 25.00 L 564.08 25.00 L 577.21 25.00 L 578.50 25.00 L 582.41 25.00 L 585.62 25.00 L 588.45 25.00 L 609.03 25.00 L 609.12 25.00 L 611.45 25.00 L 611.56 25.00 L 611.67 25.00 L 612.69 25.00 L 612.80 25.00 L 612.91 25.00 L 630.99 25.00 L 631.19 25.00 L 631.31 25.00 L 634.23 25.00 L 655.82 25.00 L 664.91 25.00 L 668.11 25.00 L 674.15 25.00 L 676.99 25.00 L 695.17 25.00 L 695.24 25.00 L 695.36 25.00 L 695.49 25.00 L 695.57 25.00 L 698.45 25.00 L 698.59 25.00 L 699.22 25.00 L 714.54 25.00 L 716.88 25.00 L 716.89 25.00 L 716.92 25.00 L 717.03 25.00 L 717.09 25.00 L 717.29 25.00 L 719.81 25.00 L 720.19 25.00 L 727.53 25.00 L 741.72 25.00 L 756.51 25.00 L 760.11 25.00 L 763.17 25.00 L 784.68 25.00 L 796.22 25.00 L 803.05 25.00 L 805.43 25.00 L 821.05 25.00 L 827.35 25.00 L 841.97 25.00 L 846.12 25.00 L 846.35 25.00 L 848.56 25.00 L 848.92 25.00 L 858.03 25.00 L 866.39 25.00 L 869.72 25.00 L 891.90 25.00 L 924.75 25.00 L 925.73 25.00 L 970.77 25.00 L 1013.07 25.00 L 1014.06 25.00 L 1055.94 25.00 L 1103.36 25.00 L 1122.05 25.00 L 1128.13 25.00 L 1167.69 25.00 L 1170.00 25.00 L 1170.00 49.96 L 1167.69 50.78 L 1128.13 53.16 L 1122.05 53.36 L 1103.36 54.88 L 1055.94 53.69 L 1014.06 54.42 L 1013.07 49.36 L 970.77 49.24 L 925.73 50.95 L 924.75 53.19 L 891.90 53.34 L 869.72 53.19 L 866.39 54.72 L 858.03 56.70 L 848.92 58.74 L 848.56 59.87 L 846.35 59.96 L 846.12 54.96 L 841.97 57.75 L 827.35 60.54 L 821.05 58.85 L 805.43 60.78 L 803.05 62.71 L 796.22 64.26 L 784.68 65.85 L 763.17 68.11 L 760.11 69.16 L 756.51 70.55 L 741.72 71.74 L 727.53 73.52 L 720.19 75.50 L 719.81 70.66 L 717.29 70.26 L 717.09 70.13 L 717.03 72.21 L 716.92 72.25 L 716.89 74.95 L 716.88 77.74 L 714.54 72.92 L 699.22 75.59 L 698.59 70.75 L 698.45 73.46 L 695.57 76.13 L 695.49 78.41 L 695.36 78.90 L 695.24 74.10 L 695.17 69.27 L 676.99 64.36 L 674.15 65.23 L 668.11 65.83 L 664.91 60.89 L 655.82 62.17 L 634.23 62.67 L 631.31 64.10 L 631.19 61.71 L 630.99 56.74 L 612.91 51.71 L 612.80 52.65 L 612.69 52.79 L 611.67 47.72 L 611.56 42.59 L 611.45 42.90 L 609.12 37.72 L 609.03 39.03 L 588.45 33.82 L 585.62 33.33 L 582.41 35.96 L 578.50 36.50 L 577.21 36.51 L 564.08 35.34 L 560.79 35.75 L 557.89 38.36 L 555.71 41.01 L 542.76 41.65 L 542.24 39.74 L 538.56 42.34 L 536.28 37.16 L 527.03 36.96 L 526.97 38.34 L 524.12 33.12 L 518.20 35.76 L 505.51 34.93 L 501.76 33.91 L 499.53 36.83 L 498.77 31.60 L 474.92 34.04 L 448.49 34.09 L 448.44 36.21 L 434.56 30.98 L 432.12 32.30 L 394.98 34.76 L 392.31 36.60 L 386.66 38.99 L 376.98 37.90 L 367.51 38.45 L 351.91 40.66 L 346.91 39.35 L 346.76 38.32 L 321.50 33.10 L 311.91 27.84 L 308.73 27.32 L 300.46 30.29 Z" fill="#d0d0d0" fill-opacity="0.5" stroke="none"/>
<polyline fill="none" stroke="#111" stroke-width="1.2" points="70.00,48.32 72.68,46.32 76.39,45.28 91.36,42.40 94.95,41.77 97.37,39.14 97.85,44.29 97.99,49.37 98.00,54.36 98.07,53.38 110.19,52.91 112.67,50.07 118.79,49.38 128.17,54.43 135.05,51.96 135.24,53.12 137.18,50.79 141.06,48.16 153.18,46.48 155.54,51.56 155.95,51.00 158.92,48.39 159.41,47.04 162.19,45.08 162.26,42.60 171.72,41.53 173.68,39.43 174.43,36.92 174.78,35.89 183.53,36.49 190.96,34.24 198.87,31.30 202.41,36.53 212.50,36.27 215.93,33.33 226.73,31.27 242.02,28.32 269.42,25.93 281.78,25.32 290.95,25.00 300.46,30.29 308.73,27.32 311.91,27.84 321.50,33.10 346.76,38.32 346.91,39.35 351.91,40.66 367.51,38.45 376.98,37.90 386.66,38.99 392.31,36.60 394.98,34.76 432.12,32.30 434.56,30.98 448.44,36.21 448.49,34.09 474.92,34.04 498.77,31.60 499.53,36.83 501.76,33.91 505.51,34.93 518.20,35.76 524.12,33.12 526.97,38.34 527.03,36.96 536.28,37.16 538.56,42.34 542.24,39.74 542.76,41.65 555.71,41.01 557.89,38.36 560.79,35.75 564.08,35.34 577.21,36.51 578.50,36.50 582.41,35.96 585.62,33.33 588.45,33.82 609.03,39.03 609.12,37.72 611.45,42.90 611.56,42.59 611.67,47.72 612.69,52.79 612.80,52.65 612.91,51.71 630.99,56.74 631.19,61.71 631.31,64.10 634.23,62.67 655.82,62.17 664.91,60.89 668.11,65.83 674.15,65.23 676.99,64.36 695.17,69.27 695.24,74.10 695.36,78.90 695.49,78.41 695.57,76.13 698.45,73.46 698.59,70.75 699.22,75.59 714.54,72.92 716.88,77.74 716.89,74.95 716.92,72.25 717.03,72.21 717.09,70.13 717.29,70.26 719.81,70.66 720.19,75.50 727.53,73.52 741.72,71.74 756.51,70.55 760.11,69.16 763.17,68.11 784.68,65.85 796.22,64.26 803.05,62.71 805.43,60.78 821.05,58.85 827.35,60.54 841.97,57.75 846.12,54.96 846.35,59.96 848.56,59.87 848.92,58.74 858.03,56.70 866.39,54.72 869.72,53.19 891.90,53.34 924.75,53.19 925.73,50.95 970.77,49.24 1013.07,49.36 1014.06,54.42 1055.94,53.69 1103.36,54.88 1122.05,53.36 1128.13,53.16 1167.69,50.78 1170.00,49.96"/>
<text x="620.0" y="588" text-anchor="middle" font-family="sans-serif" font-size="12" fill="#333">UTC time</text>
<text x="15" y="287.5" transform="rotate(-90 15,287.5)" text-anchor="middle" font-family="sans-serif" font-size="12" fill="#333">Capital</text>
</svg>