<svg xmlns="http://www.w3.org/2000/svg" width="1200" height="600" viewBox="0 0 1200 600">
<desc>Equity curve with drawdown fill</desc>
<text x="600.0" y="18.0" text-anchor="middle" font-family="sans-serif" font-size="14">Portfolio 2013</text>
<rect x="70" y="25" width="1100" height="525" fill="white" stroke="#ccc" />
<line x1="70" y1="550.00" x2="1170" y2="550.00" stroke="#eee"/>
<text x="62" y="554.0" text-anchor="end" font-family="sans-serif" font-size="11" fill="#555">0.00</text>
<line x1="70" y1="445.00" x2="1170" y2="445.00" stroke="#eee"/>
<text x="62" y="449.0" text-anchor="end" font-family="sans-serif" font-size="11" fill="#555">25172</text>
<line x1="70" y1="340.00" x2="1170" y2="340.00" stroke="#eee"/>
<text x="62" y="344.0" text-anchor="end" font-family="sans-serif" font-size="11" fill="#555">50344</text>
<line x1="70" y1="235.00" x2="1170" y2="235.00" stroke="#eee"/>
<text x="62" y="239.0" text-anchor="end" font-family="sans-serif" font-size="11" fill="#555">75516</text>
<line x1="70" y1="130.00" x2="1170" y2="130.00" stroke="#eee"/>
<text x="62" y="134.0" text-anchor="end" font-family="sans-serif" font-size="11" fill="#555">100689</text>
<line x1="70" y1="25.00" x2="1170" y2="25.00" stroke="#eee"/>
<text x="62" y="29.0" text-anchor="end" font-family="sans-serif" font-size="11" fill="#555">125861</text>
<line x1="159.76" y1="25" x2="159.76" y2="550" stroke="#f2f2f2"/>
<text x="159.76" y="566" text-anchor="middle" font-family="sans-serif" font-size="11" fill="#555">Feb</text>
<line x1="245.61" y1="25" x2="245.61" y2="550" stroke="#f2f2f2"/>
<text x="245.61" y="566" text-anchor="middle" font-family="sans-serif" font-size="11" fill="#555">Mar</text>
<line x1="340.66" y1="25" x2="340.66" y2="550" stroke="#f2f2f2"/>
<text x="340.66" y="566" text-anchor="middle" font-family="sans-serif" font-size="11" fill="#555">Apr</text>
<line x1="432.64" y1="25" x2="432.64" y2="550" stroke="#f2f2f2"/>
<text x="432.64" y="566" text-anchor="middle" font-family="sans-serif" font-size="11" fill="#555">May</text>
<line x1="527.69" y1="25" x2="527.69" y2="550" stroke="#f2f2f2"/>
<text x="527.69" y="566" text-anchor="middle" font-family="sans-serif" font-size="11" fill="#555">Jun</text>
<line x1="619.68" y1="25" x2="619.68" y2="550" stroke="#f2f2f2"/>
<text x="619.68" y="566" text-anchor="middle" font-family="sans-serif" font-size="11" fill="#555">Jul</text>
<line x1="714.72" y1="25" x2="714.72" y2="550" stroke="#f2f2f2"/>
<text x="714.72" y="566" text-anchor="middle" font-family="sans-serif" font-size="11" fill="#555">Aug</text>
<line x1="809.77" y1="25" x2="809.77" y2="550" stroke="#f2f2f2"/>
<text x="809.77" y="566" text-anchor="middle" font-family="sans-serif" font-size="11" fill="#555">Sep</text>
<line x1="901.76" y1="25" x2="901.76" y2="550" stroke="#f2f2f2"/>
<text x="901.76" y="566" text-anchor="middle" font-family="sans-serif" font-size="11" fill="#555">Oct</text>
<line x1="996.81" y1="25" x2="996.81" y2="550" stroke="#f2f2f2"/>
<text x="996.81" y="566" text-anchor="middle" font-family="sans-serif" font-size="11" fill="#555">Nov</text>
<line x1="1088.79" y1="25" x2="1088.79" y2="550" stroke="#f2f2f2"/>
<text x="1088.79" y="566" text-anchor="middle" font-family="sans-serif" font-size="11" fill="#555">Dec</text>
<line x1="70" y1="550" x2="1170" y2="550" stroke="#888"/>
<line x1="70" y1="25" x2="70" y2="550" stroke="#888"/>
<path d="M 70.00 25.00 L 94.09 25.00 L 97.11 25.00 L 110.12 25.00 L 118.52 25.00 L 130.29 25.00 L 134.22 25.00 L 161.68 25.00 L 161.91 25.00 L 174.15 25.00 L 179.93 25.00 L 180.09 25.00 L 180.10 25.00 L 180.22 25.00 L 180.34 25.00 L 194.98 25.00 L 200.90 25.00 L 220.45 25.00 L 222.22 25.00 L 225.59 25.00 L 235.39 25.00 L 235.42 25.00 L 235.62 25.00 L 235.83 25.00 L 265.77 25.00 L 268.80 25.00 L 268.88 25.00 L 268.95 25.00 L 284.39 25.00 L 287.84 25.00 L 297.73 25.00 L 299.02 25.00 L 302.99 25.00 L 311.97 25.00 L 319.28 25.00 L 321.03 25.00 L 351.60 25.00 L 351.79 25.00 L 354.65 25.00 L 354.67 25.00 L 354.97 25.00 L 388.34 25.00 L 388.93 25.00 L 391.70 25.00 L 409.38 25.00 L 416.27 25.00 L 431.51 25.00 L 437.51 25.00 L 437.60 25.00 L 437.76 25.00 L 440.51 25.00 L 440.73 25.00 L 459.72 25.00 L 462.34 25.00 L 483.47 25.00 L 498.99 25.00 L 499.03 25.00 L 517.46 25.00 L 520.03 25.00 L 520.08 25.00 L 523.50 25.00 L 535.90 25.00 L 536.02 25.00 L 536.09 25.00 L 545.17 25.00 L 545.29 25.00 L 547.88 25.00 L 585.37 25.00 L 590.79 25.00 L 612.47 25.00 L 627.90 25.00 L 630.61 25.00 L 630.72 25.00 L 630.79 25.00 L 633.66 25.00 L 646.30 25.00 L 649.73 25.00 L 650.29 25.00 L 650.33 25.00 L 650.47 25.00 L 651.41 25.00 L 670.78 25.00 L 713.38 25.00 L 714.09 25.00 L 719.52 25.00 L 759.47 25.00 L 759.98 25.00 L 760.17 25.00 L 823.86 25.00 L 826.83 25.00 L 864.32 25.00 L 906.72 25.00 L 946.09 25.00 L 949.84 25.00 L 952.04 25.00 L 967.87 25.00 L 993.21 25.00 L 1016.83 25.00 L 1017.02 25.00 L 1017.04 25.00 L 1019.99 25.00 L 1035.73 25.00 L 1057.16 25.00 L 1102.91 25.00 L 1143.34 25.00 L 1170.00 25.00 L 1170.00 40.01 L 1143.34 43.02 L 1102.91 45.89 L 1057.16 47.70 L 1035.73 42.55 L 1019.99 45.41 L 1017.04 48.26 L 1017.02 43.13 L 1016.83 41.82 L 993.21 44.81 L 967.87 46.32 L 952.04 49.17 L 949.84 47.54 L 946.09 49.11 L 906.72 50.33 L 864.32 49.57 L 826.83 52.52 L 823.86 55.32 L 760.17 56.90 L 759.98 57.55 L 759.47 60.45 L 719.52 60.98 L 714.09 63.73 L 713.38 66.47 L 670.78 69.19 L 651.41 70.84 L 650.47 65.95 L 650.33 67.50 L 650.29 62.62 L 649.73 57.67 L 646.30 52.62 L 633.66 47.52 L 630.79 50.35 L 630.72 52.05 L 630.61 51.93 L 627.90 54.73 L 612.47 56.98 L 590.79 58.42 L 585.37 59.70 L 547.88 54.69 L 545.29 57.46 L 545.17 56.93 L 536.09 59.70 L 536.02 61.00 L 535.90 61.26 L 523.50 56.25 L 520.08 51.20 L 520.03 53.12 L 517.46 48.03 L 499.03 48.49 L 498.99 51.15 L 483.47 53.24 L 462.34 55.02 L 459.72 57.28 L 440.73 52.25 L 440.51 54.65 L 437.76 57.42 L 437.60 52.38 L 437.51 53.01 L 431.51 47.92 L 416.27 42.79 L 409.38 41.94 L 391.70 40.22 L 388.93 35.00 L 388.34 35.10 L 354.97 37.01 L 354.67 39.12 L 354.65 41.88 L 351.79 44.74 L 351.60 39.56 L 321.03 42.43 L 319.28 44.34 L 311.97 47.18 L 302.99 49.20 L 299.02 51.75 L 297.73 52.90 L 287.84 51.31 L 284.39 51.93 L 268.95 50.95 L 268.88 45.84 L 268.80 40.72 L 265.77 43.59 L 235.83 46.41 L 235.62 47.27 L 235.42 46.66 L 235.39 49.10 L 225.59 43.98 L 222.22 46.36 L 220.45 48.69 L 200.90 51.51 L 194.98 54.32 L 180.34 54.13 L 180.22 52.50 L 180.10 51.56 L 180.09 46.47 L 179.93 41.35 L 174.15 36.14 L 161.91 38.51 L 161.68 38.31 L 134.22 40.66 L 130.29 42.05 L 118.52 36.85 L 110.12 39.52 L 97.11 40.79 L 94.09 35.58 L 70.00 30.32 Z" fill="#d0d0d0" fill-opacity="0.5" stroke="none"/>
<polyline fill="none" stroke="#111" stroke-width="1.2" points="70.00,30.32 94.09,35.58 97.11,40.79 110.12,39.52 118.52,36.85 130.29,42.05 134.22,40.66 161.68,38.31 161.91,38.51 174.15,36.14 179.93,41.35 180.09,46.47 180.10,51.56 180.22,52.50 180.34,54.13 194.98,54.32 200.90,51.51 220.45,48.69 222.22,46.36 225.59,43.98 235.39,49.10 235.42,46.66 235.62,47.27 235.83,46.41 265.77,43.59 268.80,40.72 268.88,45.84 268.95,50.95 284.39,51.93 287.84,51.31 297.73,52.90 299.02,51.75 302.99,49.20 311.97,47.18 319.28,44.34 321.03,42.43 351.60,39.56 351.79,44.74 354.65,41.88 354.67,39.12 354.97,37.01 388.34,35.10 388.93,35.00 391.70,40.22 409.38,41.94 416.27,42.79 431.51,47.92 437.51,53.01 437.60,52.38 437.76,57.42 440.51,54.65 440.73,52.25 459.72,57.28 462.34,55.02 483.47,53.24 498.99,51.15 499.03,48.49 517.46,48.03 520.03,53.12 520.08,51.20 523.50,56.25 535.90,61.26 536.02,61.00 536.09,59.70 545.17,56.93 545.29,57.46 547.88,54.69 585.37,59.70 590.79,58.42 612.47,56.98 627.90,54.73 630.61,51.93 630.72,52.05 630.79,50.35 633.66,47.52 646.30,52.62 649.73,57.67 650.29,62.62 650.33,67.50 650.47,65.95 651.41,70.84 670.78,69.19 713.38,66.47 714.09,63.73 719.52,60.98 759.47,60.45 759.98,57.55 760.17,56.90 823.86,55.32 826.83,52.52 864.32,49.57 906.72,50.33 946.09,49.11 949.84,47.54 952.04,49.17 967.87,46.32 993.21,44.81 1016.83,41.82 1017.02,43.13 1017.04,48.26 1019.99,45.41 1035.73,42.55 1057.16,47.70 1102.91,45.89 1143.34,43.02 1170.00,40.01"/>
<text x="620.0" y="588" text-anchor="middle" font-family="sans-serif" font-size="12" fill="#333">UTC time</text>
<text x="15" y="287.5" transform="rotate(-90 15,287.5)" text-anchor="middle" font-family="sans-serif" font-size="12" fill="#333">Capital</text>
</svg>