<svg xmlns="http://www.w3.org/2000/svg" width="1200" height="600" viewBox="0 0 1200 600">
<desc>Equity curve with drawdown fill</desc>
<text x="600.0" y="18.0" text-anchor="middle" font-family="sans-serif" font-size="14">Portfolio 2010</text>
<rect x="70" y="25" width="1100" height="525" fill="white" stroke="#ccc" />
<line x1="70" y1="550.00" x2="1170" y2="550.00" stroke="#eee"/>
<text x="62" y="554.0" text-anchor="end" font-family="sans-serif" font-size="11" fill="#555">0.00</text>
<line x1="70" y1="445.00" x2="1170" y2="445.00" stroke="#eee"/>
<text x="62" y="449.0" text-anchor="end" font-family="sans-serif" font-size="11" fill="#555">27745</text>
<line x1="70" y1="340.00" x2="1170" y2="340.00" stroke="#eee"/>
<text x="62" y="344.0" text-anchor="end" font-family="sans-serif" font-size="11" fill="#555">55491</text>
<line x1="70" y1="235.00" x2="1170" y2="235.00" stroke="#eee"/>
<text x="62" y="239.0" text-anchor="end" font-family="sans-serif" font-size="11" fill="#555">83236</text>
<line x1="70" y1="130.00" x2="1170" y2="130.00" stroke="#eee"/>
<text x="62" y="134.0" text-anchor="end" font-family="sans-serif" font-size="11" fill="#555">110981</text>
<line x1="70" y1="25.00" x2="1170" y2="25.00" stroke="#eee"/>
<text x="62" y="29.0" text-anchor="end" font-family="sans-serif" font-size="11" fill="#555">138727</text>
<line x1="154.02" y1="25" x2="154.02" y2="550" stroke="#f2f2f2"/>
<text x="154.02" y="566" text-anchor="middle" font-family="sans-serif" font-size="11" fill="#555">Feb</text>
<line x1="239.38" y1="25" x2="239.38" y2="550" stroke="#f2f2f2"/>
<text x="239.38" y="566" text-anchor="middle" font-family="sans-serif" font-size="11" fill="#555">Mar</text>
<line x1="333.88" y1="25" x2="333.88" y2="550" stroke="#f2f2f2"/>
<text x="333.88" y="566" text-anchor="middle" font-family="sans-serif" font-size="11" fill="#555">Apr</text>
<line x1="425.33" y1="25" x2="425.33" y2="550" stroke="#f2f2f2"/>
<text x="425.33" y="566" text-anchor="middle" font-family="sans-serif" font-size="11" fill="#555">May</text>
<line x1="519.83" y1="25" x2="519.83" y2="550" stroke="#f2f2f2"/>
<text x="519.83" y="566" text-anchor="middle" font-family="sans-serif" font-size="11" fill="#555">Jun</text>
<line x1="611.29" y1="25" x2="611.29" y2="550" stroke="#f2f2f2"/>
<text x="611.29" y="566" text-anchor="middle" font-family="sans-serif" font-size="11" fill="#555">Jul</text>
<line x1="705.79" y1="25" x2="705.79" y2="550" stroke="#f2f2f2"/>
<text x="705.79" y="566" text-anchor="middle" font-family="sans-serif" font-size="11" fill="#555">Aug</text>
<line x1="800.29" y1="25" x2="800.29" y2="550" stroke="#f2f2f2"/>
<text x="800.29" y="566" text-anchor="middle" font-family="sans-serif" font-size="11" fill="#555">Sep</text>
<line x1="891.74" y1="25" x2="891.74" y2="550" stroke="#f2f2f2"/>
<text x="891.74" y="566" text-anchor="middle" font-family="sans-serif" font-size="11" fill="#555">Oct</text>
<line x1="986.24" y1="25" x2="986.24" y2="550" stroke="#f2f2f2"/>
<text x="986.24" y="566" text-anchor="middle" font-family="sans-serif" font-size="11" fill="#555">Nov</text>
<line x1="1077.70" y1="25" x2="1077.70" y2="550" stroke="#f2f2f2"/>
<text x="1077.70" y="566" text-anchor="middle" font-family="sans-serif" font-size="11" fill="#555">Dec</text>
<line x1="1170.00" y1="25" x2="1170.00" y2="550" stroke="#f2f2f2"/>
<text x="1170.00" y="566" text-anchor="middle" font-family="sans-serif" font-size="11" fill="#555">Jan</text>
<line x1="70" y1="550" x2="1170" y2="550" stroke="#888"/>
<line x1="70" y1="25" x2="70" y2="550" stroke="#888"/>
<path d="M 70.00 106.96 L 70.00 108.35 Z" fill="#d0d0d0" fill-opacity="0.5" stroke="none"/>
<path d="M 83.28 103.83 L 83.28 104.07 Z" fill="#d0d0d0" fill-opacity="0.5" stroke="none"/>
<path d="M 102.58 100.58 L 102.58 101.53 Z" fill="#d0d0d0" fill-opacity="0.5" stroke="none"/>
<path d="M 180.60 84.19 L 183.45 84.19 L 186.42 84.19 L 189.45 84.19 L 201.86 84.19 L 204.89 84.19 L 207.79 84.19 L 208.78 84.19 L 208.82 84.19 L 211.11 84.19 L 222.59 84.19 L 226.19 84.19 L 229.62 84.19 L 232.29 84.19 L 243.64 84.19 L 244.20 84.19 L 247.57 84.19 L 250.53 84.19 L 268.90 84.19 L 274.31 84.19 L 293.38 84.19 L 310.31 84.19 L 310.76 84.19 L 314.95 84.19 L 336.01 84.19 L 338.77 84.19 L 360.23 84.19 L 367.32 84.19 L 367.44 84.19 L 377.77 84.19 L 396.48 84.19 L 399.87 84.19 L 400.96 84.19 L 402.22 84.19 L 403.07 84.19 L 411.46 84.19 L 415.32 84.19 L 417.88 84.19 L 424.35 84.19 L 431.78 84.19 L 433.51 84.19 L 436.38 84.19 L 441.59 84.19 L 442.28 84.19 L 442.72 84.19 L 443.02 84.19 L 443.04 84.19 L 444.06 84.19 L 444.11 84.19 L 444.31 84.19 L 444.64 84.19 L 444.75 84.19 L 445.36 84.19 L 445.63 84.19 L 445.63 85.95 L 445.36 87.40 L 444.75 89.79 L 444.64 91.78 L 444.31 94.37 L 444.11 95.94 L 444.06 98.13 L 443.04 100.45 L 443.02 102.58 L 442.72 98.02 L 442.28 100.30 L 441.59 102.26 L 436.38 97.69 L 433.51 99.40 L 431.78 99.59 L 424.35 95.00 L 417.88 97.19 L 415.32 99.26 L 411.46 94.66 L 403.07 96.18 L 402.22 95.06 L 400.96 90.42 L 399.87 93.03 L 396.48 95.63 L 377.77 97.10 L 367.44 98.61 L 367.32 94.02 L 360.23 95.77 L 338.77 96.86 L 336.01 99.21 L 314.95 100.74 L 310.76 102.57 L 310.31 104.67 L 293.38 106.56 L 274.31 105.77 L 268.90 105.04 L 250.53 106.32 L 247.57 106.70 L 244.20 102.18 L 243.64 104.11 L 232.29 105.85 L 229.62 101.32 L 226.19 103.13 L 222.59 104.27 L 211.11 99.73 L 208.82 102.07 L 208.78 103.90 L 207.79 99.35 L 204.89 99.66 L 201.86 95.08 L 189.45 90.45 L 186.42 93.06 L 183.45 88.41 L 180.60 88.89 Z" fill="#d0d0d0" fill-opacity="0.5" stroke="none"/>
<path d="M 453.89 74.15 L 454.00 74.15 L 454.11 74.15 L 454.29 74.15 L 454.29 74.79 L 454.11 77.31 L 454.00 79.20 L 453.89 78.94 Z" fill="#d0d0d0" fill-opacity="0.5" stroke="none"/>
<path d="M 454.67 73.94 L 454.80 73.94 L 454.87 73.94 L 455.08 73.94 L 455.92 73.94 L 456.52 73.94 L 457.10 73.94 L 460.99 73.94 L 463.15 73.94 L 463.21 73.94 L 466.74 73.94 L 466.89 73.94 L 466.89 74.83 L 466.74 77.31 L 463.21 79.32 L 463.15 81.59 L 460.99 76.82 L 457.10 78.79 L 456.52 81.25 L 455.92 82.83 L 455.08 84.77 L 454.87 80.03 L 454.80 80.08 L 454.67 78.74 Z" fill="#d0d0d0" fill-opacity="0.5" stroke="none"/>
<path d="M 474.54 72.04 L 474.60 72.04 L 474.75 72.04 L 474.75 73.17 L 474.60 75.24 L 474.54 76.85 Z" fill="#d0d0d0" fill-opacity="0.5" stroke="none"/>
<path d="M 479.64 58.98 L 481.89 58.98 L 481.89 58.98 L 482.02 58.98 L 482.14 58.98 L 482.28 58.98 L 482.66 58.98 L 483.59 58.98 L 484.26 58.98 L 484.27 58.98 L 484.78 58.98 L 485.22 58.98 L 485.60 58.98 L 485.60 58.98 L 485.74 58.98 L 486.43 58.98 L 486.73 58.98 L 487.02 58.98 L 487.26 58.98 L 487.45 58.98 L 487.48 58.98 L 488.11 58.98 L 488.23 58.98 L 496.63 58.98 L 498.76 58.98 L 499.69 58.98 L 500.42 58.98 L 500.69 58.98 L 500.99 58.98 L 501.92 58.98 L 503.33 58.98 L 505.39 58.98 L 506.34 58.98 L 506.65 58.98 L 506.65 61.40 L 506.34 63.79 L 505.39 66.32 L 503.33 66.35 L 501.92 67.89 L 500.99 68.28 L 500.69 70.43 L 500.42 71.90 L 499.69 74.37 L 498.76 74.22 L 496.63 76.37 L 488.23 71.55 L 488.11 73.65 L 487.48 75.39 L 487.45 70.56 L 487.26 70.50 L 487.02 72.88 L 486.73 74.55 L 486.43 74.78 L 485.74 76.84 L 485.60 72.05 L 485.60 67.21 L 485.22 62.30 L 484.78 65.03 L 484.27 66.01 L 484.26 68.83 L 483.59 63.94 L 482.66 65.46 L 482.28 66.27 L 482.14 68.73 L 482.02 70.86 L 481.89 65.99 L 481.89 68.82 L 479.64 63.92 Z" fill="#d0d0d0" fill-opacity="0.5" stroke="none"/>
<path d="M 506.83 58.95 L 506.88 58.95 L 507.00 58.95 L 508.66 58.95 L 508.85 58.95 L 509.40 58.95 L 509.89 58.95 L 520.90 58.95 L 521.21 58.95 L 521.27 58.95 L 521.77 58.95 L 521.80 58.95 L 521.85 58.95 L 521.96 58.95 L 525.06 58.95 L 526.30 58.95 L 527.94 58.95 L 530.70 58.95 L 530.81 58.95 L 531.09 58.95 L 538.32 58.95 L 542.52 58.95 L 543.26 58.95 L 545.98 58.95 L 548.02 58.95 L 549.16 58.95 L 552.42 58.95 L 559.47 58.95 L 560.87 58.95 L 564.01 58.95 L 564.58 58.95 L 581.12 58.95 L 583.09 58.95 L 583.09 61.01 L 581.12 63.30 L 564.58 65.57 L 564.01 67.76 L 560.87 66.33 L 559.47 66.76 L 552.42 69.49 L 549.16 70.97 L 548.02 66.09 L 545.98 61.17 L 543.26 63.04 L 542.52 65.54 L 538.32 67.47 L 531.09 69.61 L 530.81 72.31 L 530.70 72.49 L 527.94 67.65 L 526.30 68.29 L 525.06 69.89 L 521.96 72.40 L 521.85 74.32 L 521.80 76.06 L 521.77 71.26 L 521.27 66.38 L 521.21 66.59 L 520.90 65.18 L 509.89 60.24 L 509.40 62.72 L 508.85 64.15 L 508.66 59.21 L 507.00 60.58 L 506.88 62.03 L 506.83 63.88 Z" fill="#d0d0d0" fill-opacity="0.5" stroke="none"/>
<path d="M 589.38 58.25 L 591.21 58.25 L 592.08 58.25 L 592.08 58.60 L 591.21 61.37 L 589.38 63.20 Z" fill="#d0d0d0" fill-opacity="0.5" stroke="none"/>
<path d="M 612.50 51.35 L 613.24 51.35 L 613.39 51.35 L 616.05 51.35 L 616.11 51.35 L 628.48 51.35 L 637.45 51.35 L 637.45 52.02 L 628.48 53.05 L 616.11 55.35 L 616.05 57.15 L 613.39 59.92 L 613.24 54.94 L 612.50 56.36 Z" fill="#d0d0d0" fill-opacity="0.5" stroke="none"/>
<path d="M 667.30 43.75 L 670.16 43.75 L 670.69 43.75 L 673.66 43.75 L 674.81 43.75 L 676.59 43.75 L 677.24 43.75 L 679.57 43.75 L 680.16 43.75 L 680.23 43.75 L 680.36 43.75 L 680.51 43.75 L 680.80 43.75 L 692.49 43.75 L 710.86 43.75 L 713.11 43.75 L 717.02 43.75 L 722.80 43.75 L 722.93 43.75 L 722.94 43.75 L 723.02 43.75 L 735.67 43.75 L 735.75 43.75 L 736.63 43.75 L 737.24 43.75 L 738.11 43.75 L 738.37 43.75 L 740.68 43.75 L 760.79 43.75 L 762.47 43.75 L 762.93 43.75 L 765.05 43.75 L 765.20 43.75 L 777.84 43.75 L 777.91 43.75 L 780.17 43.75 L 787.15 43.75 L 801.61 43.75 L 818.83 43.75 L 823.60 43.75 L 837.11 43.75 L 841.88 43.75 L 841.96 43.75 L 842.02 43.75 L 842.15 43.75 L 850.77 43.75 L 851.05 43.75 L 863.73 43.75 L 865.59 43.75 L 866.13 43.75 L 871.64 43.75 L 883.71 43.75 L 884.04 43.75 L 884.67 43.75 L 890.83 43.75 L 902.18 43.75 L 905.12 43.75 L 905.98 43.75 L 908.52 43.75 L 911.09 43.75 L 911.98 43.75 L 914.81 43.75 L 914.85 43.75 L 927.81 43.75 L 931.65 43.75 L 936.11 43.75 L 936.36 43.75 L 936.62 43.75 L 944.06 43.75 L 948.26 43.75 L 949.14 43.75 L 951.64 43.75 L 951.76 43.75 L 953.06 43.75 L 953.69 43.75 L 953.94 43.75 L 955.16 43.75 L 956.89 43.75 L 965.22 43.75 L 969.68 43.75 L 978.91 43.75 L 986.37 43.75 L 991.07 43.75 L 994.79 43.75 L 996.67 43.75 L 1000.15 43.75 L 1000.60 43.75 L 1007.87 43.75 L 1007.95 43.75 L 1010.74 43.75 L 1012.03 43.75 L 1012.78 43.75 L 1015.57 43.75 L 1015.61 43.75 L 1016.04 43.75 L 1017.91 43.75 L 1021.19 43.75 L 1033.99 43.75 L 1039.24 43.75 L 1051.95 43.75 L 1053.47 43.75 L 1055.10 43.75 L 1057.52 43.75 L 1057.55 43.75 L 1057.69 43.75 L 1058.23 43.75 L 1058.23 44.38 L 1057.69 46.95 L 1057.55 48.81 L 1057.52 51.22 L 1055.10 46.17 L 1053.47 48.70 L 1051.95 50.98 L 1039.24 45.92 L 1033.99 47.95 L 1021.19 50.54 L 1017.91 53.10 L 1016.04 55.39 L 1015.61 57.47 L 1015.57 60.12 L 1012.78 55.15 L 1012.03 56.48 L 1010.74 56.06 L 1007.95 55.78 L 1007.87 56.62 L 1000.60 51.61 L 1000.15 53.87 L 996.67 56.80 L 994.79 51.80 L 991.07 54.73 L 986.37 55.74 L 978.91 58.55 L 969.68 59.46 L 965.22 61.74 L 956.89 62.66 L 955.16 65.23 L 953.94 66.08 L 953.69 66.83 L 953.06 68.90 L 951.76 70.63 L 951.64 70.11 L 949.14 65.23 L 948.26 64.82 L 944.06 66.80 L 936.62 67.00 L 936.36 68.83 L 936.11 63.93 L 931.65 66.71 L 927.81 65.46 L 914.85 65.77 L 914.81 68.53 L 911.98 63.63 L 911.09 66.19 L 908.52 67.35 L 905.98 70.10 L 905.12 72.04 L 902.18 67.17 L 890.83 69.00 L 884.67 70.01 L 884.04 65.12 L 883.71 66.14 L 871.64 66.19 L 866.13 67.53 L 865.59 70.01 L 863.73 72.74 L 851.05 67.87 L 850.77 70.33 L 842.15 72.10 L 842.02 72.10 L 841.96 67.23 L 841.88 62.35 L 837.11 57.39 L 823.60 56.66 L 818.83 58.41 L 801.61 56.85 L 787.15 58.50 L 780.17 59.73 L 777.91 60.42 L 777.84 61.71 L 765.20 56.75 L 765.05 56.97 L 762.93 57.92 L 762.47 58.12 L 760.79 60.05 L 740.68 62.56 L 738.37 62.53 L 738.11 62.28 L 737.24 63.72 L 736.63 65.36 L 735.75 63.58 L 735.67 64.41 L 723.02 67.16 L 722.94 67.84 L 722.93 62.98 L 722.80 58.05 L 717.02 53.06 L 713.11 51.39 L 710.86 50.96 L 692.49 45.90 L 680.80 48.34 L 680.51 50.28 L 680.36 53.10 L 680.23 54.66 L 680.16 55.92 L 679.57 50.90 L 677.24 45.83 L 676.59 48.68 L 674.81 50.26 L 673.66 49.61 L 670.69 51.59 L 670.16 46.53 L 667.30 48.83 Z" fill="#d0d0d0" fill-opacity="0.5" stroke="none"/>
<path d="M 1073.01 37.97 L 1078.78 37.97 L 1078.78 40.80 L 1073.01 43.10 Z" fill="#d0d0d0" fill-opacity="0.5" stroke="none"/>
<path d="M 1103.36 28.22 L 1104.05 28.22 L 1115.82 28.22 L 1118.41 28.22 L 1119.25 28.22 L 1121.21 28.22 L 1122.72 28.22 L 1128.11 28.22 L 1128.57 28.22 L 1137.65 28.22 L 1138.94 28.22 L 1138.94 30.89 L 1137.65 30.79 L 1128.57 32.59 L 1128.11 32.28 L 1122.72 32.87 L 1121.21 31.60 L 1119.25 34.06 L 1118.41 28.85 L 1115.82 29.11 L 1104.05 31.17 L 1103.36 33.44 Z" fill="#d0d0d0" fill-opacity="0.5" stroke="none"/>
<path d="M 1161.89 25.00 L 1165.23 25.00 L 1170.00 25.00 L 1170.00 26.58 L 1165.23 28.70 L 1161.89 30.25 Z" fill="#d0d0d0" fill-opacity="0.5" stroke="none"/>
<polyline fill="none" stroke="#111" stroke-width="1.2" points="70.00,108.35 75.63,105.83 82.68,103.83 83.28,104.07 90.04,102.89 97.71,102.03 98.12,100.58 102.58,101.53 115.74,100.52 117.64,98.81 122.64,96.40 142.05,93.79 165.31,91.83 166.36,89.22 167.30,86.60 168.15,84.19 180.60,88.89 183.45,88.41 186.42,93.06 189.45,90.45 201.86,95.08 204.89,99.66 207.79,99.35 208.78,103.90 208.82,102.07 211.11,99.73 222.59,104.27 226.19,103.13 229.62,101.32 232.29,105.85 243.64,104.11 244.20,102.18 247.57,106.70 250.53,106.32 268.90,105.04 274.31,105.77 293.38,106.56 310.31,104.67 310.76,102.57 314.95,100.74 336.01,99.21 338.77,96.86 360.23,95.77 367.32,94.02 367.44,98.61 377.77,97.10 396.48,95.63 399.87,93.03 400.96,90.42 402.22,95.06 403.07,96.18 411.46,94.66 415.32,99.26 417.88,97.19 424.35,95.00 431.78,99.59 433.51,99.40 436.38,97.69 441.59,102.26 442.28,100.30 442.72,98.02 443.02,102.58 443.04,100.45 444.06,98.13 444.11,95.94 444.31,94.37 444.64,91.78 444.75,89.79 445.36,87.40 445.63,85.95 445.69,83.32 445.82,80.68 452.65,77.87 453.00,75.18 453.25,74.15 453.89,78.94 454.00,79.20 454.11,77.31 454.29,74.79 454.53,73.94 454.67,78.74 454.80,80.08 454.87,80.03 455.08,84.77 455.92,82.83 456.52,81.25 457.10,78.79 460.99,76.82 463.15,81.59 463.21,79.32 466.74,77.31 466.89,74.83 467.06,73.57 467.18,72.04 474.54,76.85 474.60,75.24 474.75,73.17 475.78,71.81 476.19,69.51 477.45,67.35 478.26,65.86 478.38,63.78 479.21,61.29 479.49,58.98 479.64,63.92 481.89,68.82 481.89,65.99 482.02,70.86 482.14,68.73 482.28,66.27 482.66,65.46 483.59,63.94 484.26,68.83 484.27,66.01 484.78,65.03 485.22,62.30 485.60,67.21 485.60,72.05 485.74,76.84 486.43,74.78 486.73,74.55 487.02,72.88 487.26,70.50 487.45,70.56 487.48,75.39 488.11,73.65 488.23,71.55 496.63,76.37 498.76,74.22 499.69,74.37 500.42,71.90 500.69,70.43 500.99,68.28 501.92,67.89 503.33,66.35 505.39,66.32 506.34,63.79 506.65,61.40 506.71,58.95 506.83,63.88 506.88,62.03 507.00,60.58 508.66,59.21 508.85,64.15 509.40,62.72 509.89,60.24 520.90,65.18 521.21,66.59 521.27,66.38 521.77,71.26 521.80,76.06 521.85,74.32 521.96,72.40 525.06,69.89 526.30,68.29 527.94,67.65 530.70,72.49 530.81,72.31 531.09,69.61 538.32,67.47 542.52,65.54 543.26,63.04 545.98,61.17 548.02,66.09 549.16,70.97 552.42,69.49 559.47,66.76 560.87,66.33 564.01,67.76 564.58,65.57 581.12,63.30 583.09,61.01 588.80,58.25 589.38,63.20 591.21,61.37 592.08,58.60 595.26,56.92 606.38,54.13 609.56,51.35 612.50,56.36 613.24,54.94 613.39,59.92 616.05,57.15 616.11,55.35 628.48,53.05 637.45,52.02 648.94,49.21 649.75,49.11 650.03,47.84 653.06,47.75 655.80,46.20 658.95,43.75 667.30,48.83 670.16,46.53 670.69,51.59 673.66,49.61 674.81,50.26 676.59,48.68 677.24,45.83 679.57,50.90 680.16,55.92 680.23,54.66 680.36,53.10 680.51,50.28 680.80,48.34 692.49,45.90 710.86,50.96 713.11,51.39 717.02,53.06 722.80,58.05 722.93,62.98 722.94,67.84 723.02,67.16 735.67,64.41 735.75,63.58 736.63,65.36 737.24,63.72 738.11,62.28 738.37,62.53 740.68,62.56 760.79,60.05 762.47,58.12 762.93,57.92 765.05,56.97 765.20,56.75 777.84,61.71 777.91,60.42 780.17,59.73 787.15,58.50 801.61,56.85 818.83,58.41 823.60,56.66 837.11,57.39 841.88,62.35 841.96,67.23 842.02,72.10 842.15,72.10 850.77,70.33 851.05,67.87 863.73,72.74 865.59,70.01 866.13,67.53 871.64,66.19 883.71,66.14 884.04,65.12 884.67,70.01 890.83,69.00 902.18,67.17 905.12,72.04 905.98,70.10 908.52,67.35 911.09,66.19 911.98,63.63 914.81,68.53 914.85,65.77 927.81,65.46 931.65,66.71 936.11,63.93 936.36,68.83 936.62,67.00 944.06,66.80 948.26,64.82 949.14,65.23 951.64,70.11 951.76,70.63 953.06,68.90 953.69,66.83 953.94,66.08 955.16,65.23 956.89,62.66 965.22,61.74 969.68,59.46 978.91,58.55 986.37,55.74 991.07,54.73 994.79,51.80 996.67,56.80 1000.15,53.87 1000.60,51.61 1007.87,56.62 1007.95,55.78 1010.74,56.06 1012.03,56.48 1012.78,55.15 1015.57,60.12 1015.61,57.47 1016.04,55.39 1017.91,53.10 1021.19,50.54 1033.99,47.95 1039.24,45.92 1051.95,50.98 1053.47,48.70 1055.10,46.17 1057.52,51.22 1057.55,48.81 1057.69,46.95 1058.23,44.38 1063.70,42.16 1071.73,40.57 1072.62,37.97 1073.01,43.10 1078.78,40.80 1079.84,37.79 1082.55,35.32 1082.65,32.41 1082.88,30.14 1085.88,29.39 1094.37,28.22 1103.36,33.44 1104.05,31.17 1115.82,29.11 1118.41,28.85 1119.25,34.06 1121.21,31.60 1122.72,32.87 1128.11,32.28 1128.57,32.59 1137.65,30.79 1138.94,30.89 1146.83,27.95 1160.04,25.00 1161.89,30.25 1165.23,28.70 1170.00,26.58"/>
<text x="620.0" y="588" text-anchor="middle" font-family="sans-serif" font-size="12" fill="#333">UTC time</text>
<text x="15" y="287.5" transform="rotate(-90 15,287.5)" text-anchor="middle" font-family="sans-serif" font-size="12" fill="#333">Capital</text>
</svg>