<svg xmlns="http://www.w3.org/2000/svg" width="1200" height="600" viewBox="0 0 1200 600">
<desc>Equity curve with drawdown fill; x-axis is months only (no exact timestamps)</desc>
<text x="600.0" y="18.0" text-anchor="middle" font-family="sans-serif" font-size="14">Balance Curve 2025 (UTC)</text>
<rect x="70" y="25" width="1100" height="525" fill="white" stroke="#ccc" />
<line x1="70" y1="550.00" x2="1170" y2="550.00" stroke="#eee"/>
<text x="62" y="554.0" text-anchor="end" font-family="sans-serif" font-size="11" fill="#555">0.00</text>
<line x1="70" y1="445.00" x2="1170" y2="445.00" stroke="#eee"/>
<text x="62" y="449.0" text-anchor="end" font-family="sans-serif" font-size="11" fill="#555">67335</text>
<line x1="70" y1="340.00" x2="1170" y2="340.00" stroke="#eee"/>
<text x="62" y="344.0" text-anchor="end" font-family="sans-serif" font-size="11" fill="#555">134669</text>
<line x1="70" y1="235.00" x2="1170" y2="235.00" stroke="#eee"/>
<text x="62" y="239.0" text-anchor="end" font-family="sans-serif" font-size="11" fill="#555">202004</text>
<line x1="70" y1="130.00" x2="1170" y2="130.00" stroke="#eee"/>
<text x="62" y="134.0" text-anchor="end" font-family="sans-serif" font-size="11" fill="#555">269338</text>
<line x1="70" y1="25.00" x2="1170" y2="25.00" stroke="#eee"/>
<text x="62" y="29.0" text-anchor="end" font-family="sans-serif" font-size="11" fill="#555">336673</text>
<line x1="207.50" y1="25" x2="207.50" y2="550" stroke="#f2f2f2"/>
<line x1="345.00" y1="25" x2="345.00" y2="550" stroke="#f2f2f2"/>
<line x1="482.50" y1="25" x2="482.50" y2="550" stroke="#f2f2f2"/>
<line x1="620.00" y1="25" x2="620.00" y2="550" stroke="#f2f2f2"/>
<line x1="757.50" y1="25" x2="757.50" y2="550" stroke="#f2f2f2"/>
<line x1="895.00" y1="25" x2="895.00" y2="550" stroke="#f2f2f2"/>
<line x1="1032.50" y1="25" x2="1032.50" y2="550" stroke="#f2f2f2"/>
<text x="138.75" y="566.00" text-anchor="middle" font-family="sans-serif" font-size="11" fill="#444">Jan</text>
<text x="276.25" y="566.00" text-anchor="middle" font-family="sans-serif" font-size="11" fill="#444">Feb</text>
<text x="413.75" y="566.00" text-anchor="middle" font-family="sans-serif" font-size="11" fill="#444">Mar</text>
<text x="551.25" y="566.00" text-anchor="middle" font-family="sans-serif" font-size="11" fill="#444">Apr</text>
<text x="688.75" y="566.00" text-anchor="middle" font-family="sans-serif" font-size="11" fill="#444">May</text>
<text x="826.25" y="566.00" text-anchor="middle" font-family="sans-serif" font-size="11" fill="#444">Jun</text>
<text x="963.75" y="566.00" text-anchor="middle" font-family="sans-serif" font-size="11" fill="#444">Jul</text>
<text x="1101.25" y="566.00" text-anchor="middle" font-family="sans-serif" font-size="11" fill="#444">Aug</text>
<line x1="70" y1="550" x2="1170" y2="550" stroke="#888"/>
<line x1="70" y1="25" x2="70" y2="550" stroke="#888"/>
<line x1="75.73" y1="550.00" x2="75.73" y2="556.00" stroke="#888"/>
<line x1="1135.62"   y1="550.00" x2="1135.62"   y2="556.00" stroke="#888"/>
<text x="75.73" y="582.00" text-anchor="start" font-family="sans-serif" font-size="11" fill="#333">Initial Balance: 321555</text>
<text x="1135.62"   y="582.00" text-anchor="end"   font-family="sans-serif" font-size="11" fill="#333">Ending Balance: 328970</text>
<path d="M 98.65 47.06 L 110.10 47.06 L 121.56 47.06 L 133.02 47.06 L 133.02 49.48 L 121.56 50.51 L 110.10 52.52 L 98.65 52.23 Z" fill="#d0d0d0" fill-opacity="0.5" stroke="none"/>
<path d="M 356.46 29.48 L 379.38 29.48 L 402.29 29.48 L 402.29 30.40 L 379.38 32.47 L 356.46 34.83 Z" fill="#d0d0d0" fill-opacity="0.5" stroke="none"/>
<path d="M 485.94 25.41 L 492.81 25.41 L 499.69 25.41 L 506.56 25.41 L 513.44 25.41 L 520.31 25.41 L 527.19 25.41 L 534.06 25.41 L 540.94 25.41 L 547.81 25.41 L 554.69 25.41 L 554.69 26.43 L 547.81 29.34 L 540.94 31.09 L 534.06 31.18 L 527.19 32.67 L 520.31 33.40 L 513.44 31.38 L 506.56 26.12 L 499.69 29.12 L 492.81 29.13 L 485.94 30.79 Z" fill="#d0d0d0" fill-opacity="0.5" stroke="none"/>
<path d="M 568.44 25.00 L 575.31 25.00 L 582.19 25.00 L 589.06 25.00 L 595.94 25.00 L 602.81 25.00 L 609.69 25.00 L 616.56 25.00 L 633.75 25.00 L 661.25 25.00 L 688.75 25.00 L 716.25 25.00 L 743.75 25.00 L 780.42 25.00 L 826.25 25.00 L 872.08 25.00 L 908.75 25.00 L 936.25 25.00 L 963.75 25.00 L 991.25 25.00 L 1018.75 25.00 L 1066.88 25.00 L 1135.62 25.00 L 1135.62 37.01 L 1066.88 39.04 L 1018.75 41.22 L 991.25 35.95 L 963.75 38.05 L 936.25 40.33 L 908.75 35.11 L 872.08 37.96 L 826.25 40.38 L 780.42 42.45 L 743.75 44.81 L 716.25 39.58 L 688.75 41.94 L 661.25 36.68 L 633.75 39.14 L 616.56 33.85 L 609.69 34.45 L 602.81 29.12 L 595.94 30.35 L 589.06 32.81 L 582.19 32.63 L 575.31 27.38 L 568.44 30.38 Z" fill="#d0d0d0" fill-opacity="0.5" stroke="none"/>
<polyline fill="none" stroke="#111" stroke-width="1.2" points="75.73,48.57 87.19,47.06 98.65,52.23 110.10,52.52 121.56,50.51 133.02,49.48 144.48,46.93 155.94,44.68 167.40,42.11 178.85,39.52 190.31,38.66 201.77,36.33 230.42,34.45 276.25,32.11 322.08,29.48 356.46,34.83 379.38,32.47 402.29,30.40 425.21,28.52 448.12,27.20 471.04,25.41 485.94,30.79 492.81,29.13 499.69,29.12 506.56,26.12 513.44,31.38 520.31,33.40 527.19,32.67 534.06,31.18 540.94,31.09 547.81,29.34 554.69,26.43 561.56,25.00 568.44,30.38 575.31,27.38 582.19,32.63 589.06,32.81 595.94,30.35 602.81,29.12 609.69,34.45 616.56,33.85 633.75,39.14 661.25,36.68 688.75,41.94 716.25,39.58 743.75,44.81 780.42,42.45 826.25,40.38 872.08,37.96 908.75,35.11 936.25,40.33 963.75,38.05 991.25,35.95 1018.75,41.22 1066.88,39.04 1135.62,37.01"/>
<text x="15" y="287.5" transform="rotate(-90 15,287.5)" text-anchor="middle" font-family="sans-serif" font-size="12" fill="#333">USD</text>
</svg>