<svg xmlns="http://www.w3.org/2000/svg" width="1200" height="600" viewBox="0 0 1200 600">
<desc>Equity curve with drawdown fill; x-axis is months only (no exact timestamps)</desc>
<text x="600.0" y="18.0" text-anchor="middle" font-family="sans-serif" font-size="14">Balance Curve 2022 (UTC)</text>
<rect x="70" y="25" width="1100" height="525" fill="white" stroke="#ccc" />
<line x1="70" y1="550.00" x2="1170" y2="550.00" stroke="#eee"/>
<text x="62" y="554.0" text-anchor="end" font-family="sans-serif" font-size="11" fill="#555">0.00</text>
<line x1="70" y1="445.00" x2="1170" y2="445.00" stroke="#eee"/>
<text x="62" y="449.0" text-anchor="end" font-family="sans-serif" font-size="11" fill="#555">153247</text>
<line x1="70" y1="340.00" x2="1170" y2="340.00" stroke="#eee"/>
<text x="62" y="344.0" text-anchor="end" font-family="sans-serif" font-size="11" fill="#555">306493</text>
<line x1="70" y1="235.00" x2="1170" y2="235.00" stroke="#eee"/>
<text x="62" y="239.0" text-anchor="end" font-family="sans-serif" font-size="11" fill="#555">459740</text>
<line x1="70" y1="130.00" x2="1170" y2="130.00" stroke="#eee"/>
<text x="62" y="134.0" text-anchor="end" font-family="sans-serif" font-size="11" fill="#555">612986</text>
<line x1="70" y1="25.00" x2="1170" y2="25.00" stroke="#eee"/>
<text x="62" y="29.0" text-anchor="end" font-family="sans-serif" font-size="11" fill="#555">766233</text>
<line x1="161.67" y1="25" x2="161.67" y2="550" stroke="#f2f2f2"/>
<line x1="253.33" y1="25" x2="253.33" y2="550" stroke="#f2f2f2"/>
<line x1="345.00" y1="25" x2="345.00" y2="550" stroke="#f2f2f2"/>
<line x1="436.67" y1="25" x2="436.67" y2="550" stroke="#f2f2f2"/>
<line x1="528.33" y1="25" x2="528.33" y2="550" stroke="#f2f2f2"/>
<line x1="620.00" y1="25" x2="620.00" y2="550" stroke="#f2f2f2"/>
<line x1="711.67" y1="25" x2="711.67" y2="550" stroke="#f2f2f2"/>
<line x1="803.33" y1="25" x2="803.33" y2="550" stroke="#f2f2f2"/>
<line x1="895.00" y1="25" x2="895.00" y2="550" stroke="#f2f2f2"/>
<line x1="986.67" y1="25" x2="986.67" y2="550" stroke="#f2f2f2"/>
<line x1="1078.33" y1="25" x2="1078.33" y2="550" stroke="#f2f2f2"/>
<text x="115.83" y="566.00" text-anchor="middle" font-family="sans-serif" font-size="11" fill="#444">Jan</text>
<text x="207.50" y="566.00" text-anchor="middle" font-family="sans-serif" font-size="11" fill="#444">Feb</text>
<text x="299.17" y="566.00" text-anchor="middle" font-family="sans-serif" font-size="11" fill="#444">Mar</text>
<text x="390.83" y="566.00" text-anchor="middle" font-family="sans-serif" font-size="11" fill="#444">Apr</text>
<text x="482.50" y="566.00" text-anchor="middle" font-family="sans-serif" font-size="11" fill="#444">May</text>
<text x="574.17" y="566.00" text-anchor="middle" font-family="sans-serif" font-size="11" fill="#444">Jun</text>
<text x="665.83" y="566.00" text-anchor="middle" font-family="sans-serif" font-size="11" fill="#444">Jul</text>
<text x="757.50" y="566.00" text-anchor="middle" font-family="sans-serif" font-size="11" fill="#444">Aug</text>
<text x="849.17" y="566.00" text-anchor="middle" font-family="sans-serif" font-size="11" fill="#444">Sep</text>
<text x="940.83" y="566.00" text-anchor="middle" font-family="sans-serif" font-size="11" fill="#444">Oct</text>
<text x="1032.50" y="566.00" text-anchor="middle" font-family="sans-serif" font-size="11" fill="#444">Nov</text>
<text x="1124.17" y="566.00" text-anchor="middle" font-family="sans-serif" font-size="11" fill="#444">Dec</text>
<line x1="70" y1="550" x2="1170" y2="550" stroke="#888"/>
<line x1="70" y1="25" x2="70" y2="550" stroke="#888"/>
<line x1="115.83" y1="550.00" x2="115.83" y2="556.00" stroke="#888"/>
<line x1="1160.83"   y1="550.00" x2="1160.83"   y2="556.00" stroke="#888"/>
<text x="115.83" y="582.00" text-anchor="start" font-family="sans-serif" font-size="11" fill="#333">Initial Balance: 711730</text>
<text x="1160.83"   y="582.00" text-anchor="end"   font-family="sans-serif" font-size="11" fill="#333">Ending Balance: 766233</text>
<path d="M 288.98 43.67 L 299.17 43.67 L 309.35 43.67 L 319.54 43.67 L 319.54 46.76 L 309.35 49.07 L 299.17 47.90 L 288.98 51.40 Z" fill="#d0d0d0" fill-opacity="0.5" stroke="none"/>
<path d="M 339.91 43.28 L 351.55 43.28 L 364.64 43.28 L 377.74 43.28 L 390.83 43.28 L 403.93 43.28 L 417.02 43.28 L 430.12 43.28 L 443.21 43.28 L 456.31 43.28 L 469.40 43.28 L 482.50 43.28 L 495.60 43.28 L 508.69 43.28 L 521.79 43.28 L 539.79 43.28 L 539.79 43.78 L 521.79 45.81 L 508.69 48.82 L 495.60 49.70 L 482.50 53.42 L 469.40 54.37 L 456.31 57.32 L 443.21 60.19 L 430.12 57.55 L 417.02 59.94 L 403.93 59.40 L 390.83 63.07 L 377.74 55.51 L 364.64 57.66 L 351.55 50.02 L 339.91 51.01 Z" fill="#d0d0d0" fill-opacity="0.5" stroke="none"/>
<path d="M 608.54 38.43 L 608.54 39.04 Z" fill="#d0d0d0" fill-opacity="0.5" stroke="none"/>
<path d="M 661.25 29.14 L 670.42 29.14 L 679.58 29.14 L 688.75 29.14 L 697.92 29.14 L 707.08 29.14 L 716.76 29.14 L 726.94 29.14 L 737.13 29.14 L 747.31 29.14 L 757.50 29.14 L 767.69 29.14 L 777.87 29.14 L 788.06 29.14 L 798.24 29.14 L 805.52 29.14 L 809.88 29.14 L 814.25 29.14 L 818.61 29.14 L 822.98 29.14 L 827.34 29.14 L 831.71 29.14 L 836.07 29.14 L 840.44 29.14 L 844.80 29.14 L 849.17 29.14 L 853.53 29.14 L 857.90 29.14 L 862.26 29.14 L 866.63 29.14 L 870.99 29.14 L 875.36 29.14 L 879.72 29.14 L 884.09 29.14 L 888.45 29.14 L 892.82 29.14 L 897.55 29.14 L 902.64 29.14 L 907.73 29.14 L 912.82 29.14 L 917.92 29.14 L 923.01 29.14 L 928.10 29.14 L 928.10 29.46 L 923.01 32.89 L 917.92 36.66 L 912.82 39.36 L 907.73 43.10 L 902.64 46.81 L 897.55 49.17 L 892.82 49.26 L 888.45 52.92 L 884.09 45.19 L 879.72 47.72 L 875.36 39.97 L 870.99 42.38 L 866.63 45.35 L 862.26 48.84 L 857.90 52.22 L 853.53 55.80 L 849.17 48.17 L 844.80 40.36 L 840.44 44.13 L 836.07 47.82 L 831.71 51.10 L 827.34 47.67 L 822.98 39.98 L 818.61 44.07 L 814.25 36.21 L 809.88 38.79 L 805.52 38.10 L 798.24 30.15 L 788.06 33.97 L 777.87 36.37 L 767.69 38.83 L 757.50 37.40 L 747.31 29.56 L 737.13 33.74 L 726.94 33.59 L 716.76 37.40 L 707.08 40.37 L 697.92 32.46 L 688.75 32.84 L 679.58 33.26 L 670.42 33.28 L 661.25 37.09 Z" fill="#d0d0d0" fill-opacity="0.5" stroke="none"/>
<path d="M 938.29 25.28 L 943.38 25.28 L 948.47 25.28 L 953.56 25.28 L 958.66 25.28 L 963.75 25.28 L 968.84 25.28 L 973.94 25.28 L 979.03 25.28 L 984.12 25.28 L 992.40 25.28 L 1003.85 25.28 L 1015.31 25.28 L 1026.77 25.28 L 1038.23 25.28 L 1049.69 25.28 L 1061.15 25.28 L 1072.60 25.28 L 1087.50 25.28 L 1105.83 25.28 L 1124.17 25.28 L 1142.50 25.28 L 1142.50 28.91 L 1124.17 31.81 L 1105.83 33.54 L 1087.50 31.87 L 1072.60 35.72 L 1061.15 38.92 L 1049.69 41.54 L 1038.23 44.21 L 1026.77 36.35 L 1015.31 36.95 L 1003.85 28.99 L 992.40 32.59 L 984.12 33.07 L 979.03 35.86 L 973.94 36.18 L 968.84 39.93 L 963.75 42.34 L 958.66 45.23 L 953.56 45.62 L 948.47 37.77 L 943.38 41.04 L 938.29 33.19 Z" fill="#d0d0d0" fill-opacity="0.5" stroke="none"/>
<polyline fill="none" stroke="#111" stroke-width="1.2" points="115.83,62.34 170.83,59.86 189.17,57.29 207.50,56.69 225.83,53.81 244.17,50.46 258.43,46.68 268.61,45.07 278.80,43.67 288.98,51.40 299.17,47.90 309.35,49.07 319.54,46.76 329.72,43.28 339.91,51.01 351.55,50.02 364.64,57.66 377.74,55.51 390.83,63.07 403.93,59.40 417.02,59.94 430.12,57.55 443.21,60.19 456.31,57.32 469.40,54.37 482.50,53.42 495.60,49.70 508.69,48.82 521.79,45.81 539.79,43.78 562.71,40.45 585.62,38.43 608.54,39.04 624.58,38.32 633.75,36.76 642.92,32.96 652.08,29.14 661.25,37.09 670.42,33.28 679.58,33.26 688.75,32.84 697.92,32.46 707.08,40.37 716.76,37.40 726.94,33.59 737.13,33.74 747.31,29.56 757.50,37.40 767.69,38.83 777.87,36.37 788.06,33.97 798.24,30.15 805.52,38.10 809.88,38.79 814.25,36.21 818.61,44.07 822.98,39.98 827.34,47.67 831.71,51.10 836.07,47.82 840.44,44.13 844.80,40.36 849.17,48.17 853.53,55.80 857.90,52.22 862.26,48.84 866.63,45.35 870.99,42.38 875.36,39.97 879.72,47.72 884.09,45.19 888.45,52.92 892.82,49.26 897.55,49.17 902.64,46.81 907.73,43.10 912.82,39.36 917.92,36.66 923.01,32.89 928.10,29.46 933.19,25.28 938.29,33.19 943.38,41.04 948.47,37.77 953.56,45.62 958.66,45.23 963.75,42.34 968.84,39.93 973.94,36.18 979.03,35.86 984.12,33.07 992.40,32.59 1003.85,28.99 1015.31,36.95 1026.77,36.35 1038.23,44.21 1049.69,41.54 1061.15,38.92 1072.60,35.72 1087.50,31.87 1105.83,33.54 1124.17,31.81 1142.50,28.91 1160.83,25.00"/>
<text x="15" y="287.5" transform="rotate(-90 15,287.5)" text-anchor="middle" font-family="sans-serif" font-size="12" fill="#333">USD</text>
</svg>