<svg xmlns="http://www.w3.org/2000/svg" width="1200" height="600" viewBox="0 0 1200 600">
<desc>Equity curve with drawdown fill; x-axis is months only (no exact timestamps)</desc>
<text x="600.0" y="18.0" text-anchor="middle" font-family="sans-serif" font-size="14">Portfolio 2011 (UTC)</text>
<rect x="70" y="25" width="1100" height="525" fill="white" stroke="#ccc" />
<line x1="70" y1="550.00" x2="1170" y2="550.00" stroke="#eee"/>
<text x="62" y="554.0" text-anchor="end" font-family="sans-serif" font-size="11" fill="#555">0.00</text>
<line x1="70" y1="445.00" x2="1170" y2="445.00" stroke="#eee"/>
<text x="62" y="449.0" text-anchor="end" font-family="sans-serif" font-size="11" fill="#555">40001</text>
<line x1="70" y1="340.00" x2="1170" y2="340.00" stroke="#eee"/>
<text x="62" y="344.0" text-anchor="end" font-family="sans-serif" font-size="11" fill="#555">80003</text>
<line x1="70" y1="235.00" x2="1170" y2="235.00" stroke="#eee"/>
<text x="62" y="239.0" text-anchor="end" font-family="sans-serif" font-size="11" fill="#555">120004</text>
<line x1="70" y1="130.00" x2="1170" y2="130.00" stroke="#eee"/>
<text x="62" y="134.0" text-anchor="end" font-family="sans-serif" font-size="11" fill="#555">160005</text>
<line x1="70" y1="25.00" x2="1170" y2="25.00" stroke="#eee"/>
<text x="62" y="29.0" text-anchor="end" font-family="sans-serif" font-size="11" fill="#555">200007</text>
<line x1="161.67" y1="25" x2="161.67" y2="550" stroke="#f2f2f2"/>
<line x1="253.33" y1="25" x2="253.33" y2="550" stroke="#f2f2f2"/>
<line x1="345.00" y1="25" x2="345.00" y2="550" stroke="#f2f2f2"/>
<line x1="436.67" y1="25" x2="436.67" y2="550" stroke="#f2f2f2"/>
<line x1="528.33" y1="25" x2="528.33" y2="550" stroke="#f2f2f2"/>
<line x1="620.00" y1="25" x2="620.00" y2="550" stroke="#f2f2f2"/>
<line x1="711.67" y1="25" x2="711.67" y2="550" stroke="#f2f2f2"/>
<line x1="803.33" y1="25" x2="803.33" y2="550" stroke="#f2f2f2"/>
<line x1="895.00" y1="25" x2="895.00" y2="550" stroke="#f2f2f2"/>
<line x1="986.67" y1="25" x2="986.67" y2="550" stroke="#f2f2f2"/>
<line x1="1078.33" y1="25" x2="1078.33" y2="550" stroke="#f2f2f2"/>
<text x="115.83" y="566.00" text-anchor="middle" font-family="sans-serif" font-size="11" fill="#444">Jan</text>
<text x="207.50" y="566.00" text-anchor="middle" font-family="sans-serif" font-size="11" fill="#444">Feb</text>
<text x="299.17" y="566.00" text-anchor="middle" font-family="sans-serif" font-size="11" fill="#444">Mar</text>
<text x="390.83" y="566.00" text-anchor="middle" font-family="sans-serif" font-size="11" fill="#444">Apr</text>
<text x="482.50" y="566.00" text-anchor="middle" font-family="sans-serif" font-size="11" fill="#444">May</text>
<text x="574.17" y="566.00" text-anchor="middle" font-family="sans-serif" font-size="11" fill="#444">Jun</text>
<text x="665.83" y="566.00" text-anchor="middle" font-family="sans-serif" font-size="11" fill="#444">Jul</text>
<text x="757.50" y="566.00" text-anchor="middle" font-family="sans-serif" font-size="11" fill="#444">Aug</text>
<text x="849.17" y="566.00" text-anchor="middle" font-family="sans-serif" font-size="11" fill="#444">Sep</text>
<text x="940.83" y="566.00" text-anchor="middle" font-family="sans-serif" font-size="11" fill="#444">Oct</text>
<text x="1032.50" y="566.00" text-anchor="middle" font-family="sans-serif" font-size="11" fill="#444">Nov</text>
<text x="1124.17" y="566.00" text-anchor="middle" font-family="sans-serif" font-size="11" fill="#444">Dec</text>
<line x1="70" y1="550" x2="1170" y2="550" stroke="#888"/>
<line x1="70" y1="25" x2="70" y2="550" stroke="#888"/>
<line x1="74.17" y1="550.00" x2="74.17" y2="556.00" stroke="#888"/>
<line x1="1154.72"   y1="550.00" x2="1154.72"   y2="556.00" stroke="#888"/>
<text x="74.17" y="582.00" text-anchor="start" font-family="sans-serif" font-size="11" fill="#333">Initial Balance: 180988</text>
<text x="1154.72"   y="582.00" text-anchor="end"   font-family="sans-serif" font-size="11" fill="#333">Ending Balance: 197157</text>
<path d="M 90.83 73.36 L 90.83 73.39 Z" fill="#d0d0d0" fill-opacity="0.5" stroke="none"/>
<path d="M 189.17 52.28 L 207.50 52.28 L 207.50 53.24 L 189.17 54.11 Z" fill="#d0d0d0" fill-opacity="0.5" stroke="none"/>
<path d="M 244.17 51.17 L 259.06 51.17 L 270.52 51.17 L 270.52 52.10 L 259.06 53.52 L 244.17 56.26 Z" fill="#d0d0d0" fill-opacity="0.5" stroke="none"/>
<path d="M 293.44 50.85 L 293.44 51.73 Z" fill="#d0d0d0" fill-opacity="0.5" stroke="none"/>
<path d="M 327.81 49.19 L 327.81 49.92 Z" fill="#d0d0d0" fill-opacity="0.5" stroke="none"/>
<path d="M 356.46 48.16 L 379.38 48.16 L 402.29 48.16 L 425.21 48.16 L 439.36 48.16 L 444.75 48.16 L 450.15 48.16 L 455.54 48.16 L 460.93 48.16 L 466.32 48.16 L 471.72 48.16 L 477.11 48.16 L 482.50 48.16 L 487.89 48.16 L 493.28 48.16 L 498.68 48.16 L 504.07 48.16 L 509.46 48.16 L 514.85 48.16 L 520.25 48.16 L 525.64 48.16 L 532.15 48.16 L 539.79 48.16 L 547.43 48.16 L 555.07 48.16 L 562.71 48.16 L 570.35 48.16 L 577.99 48.16 L 585.62 48.16 L 593.26 48.16 L 600.90 48.16 L 608.54 48.16 L 608.54 50.82 L 600.90 52.72 L 593.26 53.61 L 585.62 54.14 L 577.99 56.88 L 570.35 57.37 L 562.71 60.08 L 555.07 62.79 L 547.43 57.77 L 539.79 58.87 L 532.15 60.58 L 525.64 58.54 L 520.25 59.79 L 514.85 61.18 L 509.46 56.14 L 504.07 57.23 L 498.68 55.08 L 493.28 56.40 L 487.89 58.64 L 482.50 60.07 L 477.11 60.77 L 471.72 62.22 L 466.32 57.19 L 460.93 52.12 L 455.54 53.73 L 450.15 56.48 L 444.75 51.44 L 439.36 54.21 L 425.21 54.75 L 402.29 56.66 L 379.38 51.58 L 356.46 53.27 Z" fill="#d0d0d0" fill-opacity="0.5" stroke="none"/>
<path d="M 690.28 26.04 L 696.39 26.04 L 702.50 26.04 L 708.61 26.04 L 714.21 26.04 L 719.31 26.04 L 724.40 26.04 L 729.49 26.04 L 734.58 26.04 L 734.58 27.53 L 729.49 30.41 L 724.40 32.65 L 719.31 34.94 L 714.21 36.73 L 708.61 38.98 L 702.50 33.73 L 696.39 28.43 L 690.28 31.31 Z" fill="#d0d0d0" fill-opacity="0.5" stroke="none"/>
<path d="M 744.77 25.00 L 749.86 25.00 L 754.95 25.00 L 760.05 25.00 L 765.14 25.00 L 770.23 25.00 L 775.32 25.00 L 780.42 25.00 L 785.51 25.00 L 790.60 25.00 L 795.69 25.00 L 800.79 25.00 L 805.88 25.00 L 810.97 25.00 L 816.06 25.00 L 821.16 25.00 L 826.25 25.00 L 831.34 25.00 L 836.44 25.00 L 841.53 25.00 L 846.62 25.00 L 851.71 25.00 L 856.81 25.00 L 861.90 25.00 L 866.99 25.00 L 872.08 25.00 L 877.18 25.00 L 882.27 25.00 L 887.36 25.00 L 892.45 25.00 L 897.41 25.00 L 902.24 25.00 L 907.06 25.00 L 911.89 25.00 L 916.71 25.00 L 921.54 25.00 L 926.36 25.00 L 931.18 25.00 L 936.01 25.00 L 940.83 25.00 L 945.66 25.00 L 950.48 25.00 L 955.31 25.00 L 960.13 25.00 L 964.96 25.00 L 969.78 25.00 L 974.61 25.00 L 979.43 25.00 L 984.25 25.00 L 989.21 25.00 L 994.31 25.00 L 999.40 25.00 L 1004.49 25.00 L 1009.58 25.00 L 1014.68 25.00 L 1019.77 25.00 L 1024.86 25.00 L 1029.95 25.00 L 1035.05 25.00 L 1040.14 25.00 L 1045.23 25.00 L 1050.32 25.00 L 1055.42 25.00 L 1060.51 25.00 L 1065.60 25.00 L 1070.69 25.00 L 1075.79 25.00 L 1093.61 25.00 L 1124.17 25.00 L 1154.72 25.00 L 1154.72 32.48 L 1124.17 35.04 L 1093.61 36.58 L 1075.79 36.57 L 1070.69 37.38 L 1065.60 39.70 L 1060.51 42.21 L 1055.42 36.97 L 1050.32 35.44 L 1045.23 37.48 L 1040.14 39.47 L 1035.05 34.21 L 1029.95 34.18 L 1024.86 34.31 L 1019.77 36.38 L 1014.68 36.94 L 1009.58 39.56 L 1004.49 41.51 L 999.40 36.27 L 994.31 37.39 L 989.21 39.37 L 984.25 34.11 L 979.43 35.19 L 974.61 36.76 L 969.78 39.10 L 964.96 41.92 L 960.13 44.72 L 955.31 43.54 L 950.48 45.43 L 945.66 48.21 L 940.83 47.33 L 936.01 42.15 L 931.18 36.92 L 926.36 39.11 L 921.54 41.66 L 916.71 43.62 L 911.89 44.60 L 907.06 39.39 L 902.24 42.20 L 897.41 44.86 L 892.45 46.82 L 887.36 45.76 L 882.27 47.24 L 877.18 42.06 L 872.08 43.05 L 866.99 37.82 L 861.90 37.41 L 856.81 32.13 L 851.71 33.55 L 846.62 36.39 L 841.53 37.88 L 836.44 40.70 L 831.34 43.09 L 826.25 45.26 L 821.16 45.40 L 816.06 47.58 L 810.97 49.96 L 805.88 44.82 L 800.79 39.62 L 795.69 42.44 L 790.60 37.22 L 785.51 31.95 L 780.42 34.07 L 775.32 36.90 L 770.23 31.63 L 765.14 31.47 L 760.05 30.60 L 754.95 25.27 L 749.86 28.15 L 744.77 30.33 Z" fill="#d0d0d0" fill-opacity="0.5" stroke="none"/>
<polyline fill="none" stroke="#111" stroke-width="1.2" points="74.17,74.92 82.50,73.36 90.83,73.39 99.17,70.76 107.50,69.47 115.83,67.05 124.17,64.58 132.50,62.40 140.83,59.93 149.17,57.24 157.50,54.51 170.83,52.28 189.17,54.11 207.50,53.24 225.83,51.17 244.17,56.26 259.06,53.52 270.52,52.10 281.98,50.85 293.44,51.73 304.90,50.06 316.35,49.19 327.81,49.92 339.27,48.16 356.46,53.27 379.38,51.58 402.29,56.66 425.21,54.75 439.36,54.21 444.75,51.44 450.15,56.48 455.54,53.73 460.93,52.12 466.32,57.19 471.72,62.22 477.11,60.77 482.50,60.07 487.89,58.64 493.28,56.40 498.68,55.08 504.07,57.23 509.46,56.14 514.85,61.18 520.25,59.79 525.64,58.54 532.15,60.58 539.79,58.87 547.43,57.77 555.07,62.79 562.71,60.08 570.35,57.37 577.99,56.88 585.62,54.14 593.26,53.61 600.90,52.72 608.54,50.82 616.18,48.05 623.06,45.51 629.17,45.32 635.28,42.51 641.39,40.96 647.50,38.14 653.61,35.47 659.72,35.15 665.83,32.81 671.94,30.78 678.06,28.92 684.17,26.04 690.28,31.31 696.39,28.43 702.50,33.73 708.61,38.98 714.21,36.73 719.31,34.94 724.40,32.65 729.49,30.41 734.58,27.53 739.68,25.00 744.77,30.33 749.86,28.15 754.95,25.27 760.05,30.60 765.14,31.47 770.23,31.63 775.32,36.90 780.42,34.07 785.51,31.95 790.60,37.22 795.69,42.44 800.79,39.62 805.88,44.82 810.97,49.96 816.06,47.58 821.16,45.40 826.25,45.26 831.34,43.09 836.44,40.70 841.53,37.88 846.62,36.39 851.71,33.55 856.81,32.13 861.90,37.41 866.99,37.82 872.08,43.05 877.18,42.06 882.27,47.24 887.36,45.76 892.45,46.82 897.41,44.86 902.24,42.20 907.06,39.39 911.89,44.60 916.71,43.62 921.54,41.66 926.36,39.11 931.18,36.92 936.01,42.15 940.83,47.33 945.66,48.21 950.48,45.43 955.31,43.54 960.13,44.72 964.96,41.92 969.78,39.10 974.61,36.76 979.43,35.19 984.25,34.11 989.21,39.37 994.31,37.39 999.40,36.27 1004.49,41.51 1009.58,39.56 1014.68,36.94 1019.77,36.38 1024.86,34.31 1029.95,34.18 1035.05,34.21 1040.14,39.47 1045.23,37.48 1050.32,35.44 1055.42,36.97 1060.51,42.21 1065.60,39.70 1070.69,37.38 1075.79,36.57 1093.61,36.58 1124.17,35.04 1154.72,32.48"/>
<text x="620.0" y="588" text-anchor="middle" font-family="sans-serif" font-size="12" fill="#333">Monthly Balance Curve</text>
<text x="15" y="287.5" transform="rotate(-90 15,287.5)" text-anchor="middle" font-family="sans-serif" font-size="12" fill="#333">Capital</text>
</svg>