<svg xmlns="http://www.w3.org/2000/svg" width="1200" height="600" viewBox="0 0 1200 600">
<desc>Equity curve with drawdown fill; x-axis is months only (no exact timestamps)</desc>
<text x="600.0" y="18.0" text-anchor="middle" font-family="sans-serif" font-size="14">Portfolio 2005 (UTC)</text>
<rect x="70" y="25" width="1100" height="525" fill="white" stroke="#ccc" />
<line x1="70" y1="550.00" x2="1170" y2="550.00" stroke="#eee"/>
<text x="62" y="554.0" text-anchor="end" font-family="sans-serif" font-size="11" fill="#555">0.00</text>
<line x1="70" y1="445.00" x2="1170" y2="445.00" stroke="#eee"/>
<text x="62" y="449.0" text-anchor="end" font-family="sans-serif" font-size="11" fill="#555">24527</text>
<line x1="70" y1="340.00" x2="1170" y2="340.00" stroke="#eee"/>
<text x="62" y="344.0" text-anchor="end" font-family="sans-serif" font-size="11" fill="#555">49055</text>
<line x1="70" y1="235.00" x2="1170" y2="235.00" stroke="#eee"/>
<text x="62" y="239.0" text-anchor="end" font-family="sans-serif" font-size="11" fill="#555">73582</text>
<line x1="70" y1="130.00" x2="1170" y2="130.00" stroke="#eee"/>
<text x="62" y="134.0" text-anchor="end" font-family="sans-serif" font-size="11" fill="#555">98109</text>
<line x1="70" y1="25.00" x2="1170" y2="25.00" stroke="#eee"/>
<text x="62" y="29.0" text-anchor="end" font-family="sans-serif" font-size="11" fill="#555">122637</text>
<line x1="161.67" y1="25" x2="161.67" y2="550" stroke="#f2f2f2"/>
<line x1="253.33" y1="25" x2="253.33" y2="550" stroke="#f2f2f2"/>
<line x1="345.00" y1="25" x2="345.00" y2="550" stroke="#f2f2f2"/>
<line x1="436.67" y1="25" x2="436.67" y2="550" stroke="#f2f2f2"/>
<line x1="528.33" y1="25" x2="528.33" y2="550" stroke="#f2f2f2"/>
<line x1="620.00" y1="25" x2="620.00" y2="550" stroke="#f2f2f2"/>
<line x1="711.67" y1="25" x2="711.67" y2="550" stroke="#f2f2f2"/>
<line x1="803.33" y1="25" x2="803.33" y2="550" stroke="#f2f2f2"/>
<line x1="895.00" y1="25" x2="895.00" y2="550" stroke="#f2f2f2"/>
<line x1="986.67" y1="25" x2="986.67" y2="550" stroke="#f2f2f2"/>
<line x1="1078.33" y1="25" x2="1078.33" y2="550" stroke="#f2f2f2"/>
<text x="115.83" y="566.00" text-anchor="middle" font-family="sans-serif" font-size="11" fill="#444">Jan</text>
<text x="207.50" y="566.00" text-anchor="middle" font-family="sans-serif" font-size="11" fill="#444">Feb</text>
<text x="299.17" y="566.00" text-anchor="middle" font-family="sans-serif" font-size="11" fill="#444">Mar</text>
<text x="390.83" y="566.00" text-anchor="middle" font-family="sans-serif" font-size="11" fill="#444">Apr</text>
<text x="482.50" y="566.00" text-anchor="middle" font-family="sans-serif" font-size="11" fill="#444">May</text>
<text x="574.17" y="566.00" text-anchor="middle" font-family="sans-serif" font-size="11" fill="#444">Jun</text>
<text x="665.83" y="566.00" text-anchor="middle" font-family="sans-serif" font-size="11" fill="#444">Jul</text>
<text x="757.50" y="566.00" text-anchor="middle" font-family="sans-serif" font-size="11" fill="#444">Aug</text>
<text x="849.17" y="566.00" text-anchor="middle" font-family="sans-serif" font-size="11" fill="#444">Sep</text>
<text x="940.83" y="566.00" text-anchor="middle" font-family="sans-serif" font-size="11" fill="#444">Oct</text>
<text x="1032.50" y="566.00" text-anchor="middle" font-family="sans-serif" font-size="11" fill="#444">Nov</text>
<text x="1124.17" y="566.00" text-anchor="middle" font-family="sans-serif" font-size="11" fill="#444">Dec</text>
<line x1="70" y1="550" x2="1170" y2="550" stroke="#888"/>
<line x1="70" y1="25" x2="70" y2="550" stroke="#888"/>
<line x1="79.17" y1="550.00" x2="79.17" y2="556.00" stroke="#888"/>
<line x1="1160.83"   y1="550.00" x2="1160.83"   y2="556.00" stroke="#888"/>
<text x="79.17" y="582.00" text-anchor="start" font-family="sans-serif" font-size="11" fill="#333">Initial Balance: 121162</text>
<text x="1160.83"   y="582.00" text-anchor="end"   font-family="sans-serif" font-size="11" fill="#333">Ending Balance: 117935</text>
<path d="M 134.17 26.52 L 152.50 26.52 L 170.83 26.52 L 189.17 26.52 L 207.50 26.52 L 225.83 26.52 L 244.17 26.52 L 264.79 26.52 L 287.71 26.52 L 310.62 26.52 L 310.62 28.23 L 287.71 30.20 L 264.79 32.32 L 244.17 34.68 L 225.83 37.16 L 207.50 31.94 L 189.17 32.87 L 170.83 34.12 L 152.50 28.86 L 134.17 31.78 Z" fill="#d0d0d0" fill-opacity="0.5" stroke="none"/>
<path d="M 356.46 26.06 L 379.38 26.06 L 402.29 26.06 L 425.21 26.06 L 442.40 26.06 L 453.85 26.06 L 465.31 26.06 L 476.77 26.06 L 488.23 26.06 L 499.69 26.06 L 511.15 26.06 L 522.60 26.06 L 535.97 26.06 L 551.25 26.06 L 566.53 26.06 L 581.81 26.06 L 597.08 26.06 L 597.08 27.34 L 581.81 28.77 L 566.53 31.11 L 551.25 33.44 L 535.97 34.23 L 522.60 37.11 L 511.15 37.09 L 499.69 37.92 L 488.23 32.70 L 476.77 35.60 L 465.31 38.48 L 453.85 36.40 L 442.40 39.27 L 425.21 34.07 L 402.29 35.29 L 379.38 36.57 L 356.46 31.34 Z" fill="#d0d0d0" fill-opacity="0.5" stroke="none"/>
<path d="M 623.82 25.26 L 631.46 25.26 L 639.10 25.26 L 639.10 25.81 L 631.46 28.09 L 623.82 30.57 Z" fill="#d0d0d0" fill-opacity="0.5" stroke="none"/>
<path d="M 654.38 25.18 L 654.38 26.14 Z" fill="#d0d0d0" fill-opacity="0.5" stroke="none"/>
<path d="M 669.65 25.00 L 677.29 25.00 L 684.93 25.00 L 692.57 25.00 L 700.21 25.00 L 707.85 25.00 L 723.12 25.00 L 746.04 25.00 L 768.96 25.00 L 791.88 25.00 L 826.25 25.00 L 872.08 25.00 L 900.73 25.00 L 912.19 25.00 L 923.65 25.00 L 935.10 25.00 L 946.56 25.00 L 958.02 25.00 L 969.48 25.00 L 980.94 25.00 L 998.12 25.00 L 1021.04 25.00 L 1043.96 25.00 L 1066.88 25.00 L 1087.50 25.00 L 1105.83 25.00 L 1124.17 25.00 L 1142.50 25.00 L 1160.83 25.00 L 1160.83 45.13 L 1142.50 41.84 L 1124.17 43.97 L 1105.83 38.80 L 1087.50 40.67 L 1066.88 43.26 L 1043.96 44.51 L 1021.04 47.32 L 998.12 49.74 L 980.94 44.63 L 969.48 47.19 L 958.02 42.06 L 946.56 44.62 L 935.10 45.44 L 923.65 48.00 L 912.19 49.39 L 900.73 49.47 L 872.08 44.37 L 826.25 45.73 L 791.88 40.59 L 768.96 41.22 L 746.04 36.04 L 723.12 37.01 L 707.85 39.42 L 700.21 37.72 L 692.57 38.20 L 684.93 40.73 L 677.29 35.53 L 669.65 30.30 Z" fill="#d0d0d0" fill-opacity="0.5" stroke="none"/>
<polyline fill="none" stroke="#111" stroke-width="1.2" points="79.17,31.31 97.50,29.46 115.83,26.52 134.17,31.78 152.50,28.86 170.83,34.12 189.17,32.87 207.50,31.94 225.83,37.16 244.17,34.68 264.79,32.32 287.71,30.20 310.62,28.23 333.54,26.06 356.46,31.34 379.38,36.57 402.29,35.29 425.21,34.07 442.40,39.27 453.85,36.40 465.31,38.48 476.77,35.60 488.23,32.70 499.69,37.92 511.15,37.09 522.60,37.11 535.97,34.23 551.25,33.44 566.53,31.11 581.81,28.77 597.08,27.34 612.36,25.26 623.82,30.57 631.46,28.09 639.10,25.81 646.74,25.18 654.38,26.14 662.01,25.00 669.65,30.30 677.29,35.53 684.93,40.73 692.57,38.20 700.21,37.72 707.85,39.42 723.12,37.01 746.04,36.04 768.96,41.22 791.88,40.59 826.25,45.73 872.08,44.37 900.73,49.47 912.19,49.39 923.65,48.00 935.10,45.44 946.56,44.62 958.02,42.06 969.48,47.19 980.94,44.63 998.12,49.74 1021.04,47.32 1043.96,44.51 1066.88,43.26 1087.50,40.67 1105.83,38.80 1124.17,43.97 1142.50,41.84 1160.83,45.13"/>
<text x="620.0" y="588" text-anchor="middle" font-family="sans-serif" font-size="12" fill="#333">Monthly Balance Curve</text>
<text x="15" y="287.5" transform="rotate(-90 15,287.5)" text-anchor="middle" font-family="sans-serif" font-size="12" fill="#333">Capital</text>
</svg>