<svg xmlns="http://www.w3.org/2000/svg" width="1200" height="600" viewBox="0 0 1200 600">
<desc>Equity curve with drawdown fill; x-axis is months only (no exact timestamps)</desc>
<text x="600.0" y="18.0" text-anchor="middle" font-family="sans-serif" font-size="14">Balance Curve 2008 (UTC)</text>
<rect x="70" y="25" width="1100" height="525" fill="white" stroke="#ccc" />
<line x1="70" y1="550.00" x2="1170" y2="550.00" stroke="#eee"/>
<text x="62" y="554.0" text-anchor="end" font-family="sans-serif" font-size="11" fill="#555">0.00</text>
<line x1="70" y1="445.00" x2="1170" y2="445.00" stroke="#eee"/>
<text x="62" y="449.0" text-anchor="end" font-family="sans-serif" font-size="11" fill="#555">23136</text>
<line x1="70" y1="340.00" x2="1170" y2="340.00" stroke="#eee"/>
<text x="62" y="344.0" text-anchor="end" font-family="sans-serif" font-size="11" fill="#555">46272</text>
<line x1="70" y1="235.00" x2="1170" y2="235.00" stroke="#eee"/>
<text x="62" y="239.0" text-anchor="end" font-family="sans-serif" font-size="11" fill="#555">69407</text>
<line x1="70" y1="130.00" x2="1170" y2="130.00" stroke="#eee"/>
<text x="62" y="134.0" text-anchor="end" font-family="sans-serif" font-size="11" fill="#555">92543</text>
<line x1="70" y1="25.00" x2="1170" y2="25.00" stroke="#eee"/>
<text x="62" y="29.0" text-anchor="end" font-family="sans-serif" font-size="11" fill="#555">115679</text>
<line x1="161.67" y1="25" x2="161.67" y2="550" stroke="#f2f2f2"/>
<line x1="253.33" y1="25" x2="253.33" y2="550" stroke="#f2f2f2"/>
<line x1="345.00" y1="25" x2="345.00" y2="550" stroke="#f2f2f2"/>
<line x1="436.67" y1="25" x2="436.67" y2="550" stroke="#f2f2f2"/>
<line x1="528.33" y1="25" x2="528.33" y2="550" stroke="#f2f2f2"/>
<line x1="620.00" y1="25" x2="620.00" y2="550" stroke="#f2f2f2"/>
<line x1="711.67" y1="25" x2="711.67" y2="550" stroke="#f2f2f2"/>
<line x1="803.33" y1="25" x2="803.33" y2="550" stroke="#f2f2f2"/>
<line x1="895.00" y1="25" x2="895.00" y2="550" stroke="#f2f2f2"/>
<line x1="986.67" y1="25" x2="986.67" y2="550" stroke="#f2f2f2"/>
<line x1="1078.33" y1="25" x2="1078.33" y2="550" stroke="#f2f2f2"/>
<text x="115.83" y="566.00" text-anchor="middle" font-family="sans-serif" font-size="11" fill="#444">Jan</text>
<text x="207.50" y="566.00" text-anchor="middle" font-family="sans-serif" font-size="11" fill="#444">Feb</text>
<text x="299.17" y="566.00" text-anchor="middle" font-family="sans-serif" font-size="11" fill="#444">Mar</text>
<text x="390.83" y="566.00" text-anchor="middle" font-family="sans-serif" font-size="11" fill="#444">Apr</text>
<text x="482.50" y="566.00" text-anchor="middle" font-family="sans-serif" font-size="11" fill="#444">May</text>
<text x="574.17" y="566.00" text-anchor="middle" font-family="sans-serif" font-size="11" fill="#444">Jun</text>
<text x="665.83" y="566.00" text-anchor="middle" font-family="sans-serif" font-size="11" fill="#444">Jul</text>
<text x="757.50" y="566.00" text-anchor="middle" font-family="sans-serif" font-size="11" fill="#444">Aug</text>
<text x="849.17" y="566.00" text-anchor="middle" font-family="sans-serif" font-size="11" fill="#444">Sep</text>
<text x="940.83" y="566.00" text-anchor="middle" font-family="sans-serif" font-size="11" fill="#444">Oct</text>
<text x="1032.50" y="566.00" text-anchor="middle" font-family="sans-serif" font-size="11" fill="#444">Nov</text>
<text x="1124.17" y="566.00" text-anchor="middle" font-family="sans-serif" font-size="11" fill="#444">Dec</text>
<line x1="70" y1="550" x2="1170" y2="550" stroke="#888"/>
<line x1="70" y1="25" x2="70" y2="550" stroke="#888"/>
<line x1="74.58" y1="550.00" x2="74.58" y2="556.00" stroke="#888"/>
<line x1="1169.08"   y1="550.00" x2="1169.08"   y2="556.00" stroke="#888"/>
<text x="74.58" y="582.00" text-anchor="start" font-family="sans-serif" font-size="11" fill="#333">Initial Balance: 100000</text>
<text x="1169.08"   y="582.00" text-anchor="end"   font-family="sans-serif" font-size="11" fill="#333">Ending Balance: 115064</text>
<path d="M 157.08 81.49 L 184.58 81.49 L 230.42 81.49 L 230.42 83.05 L 184.58 84.76 L 157.08 86.19 Z" fill="#d0d0d0" fill-opacity="0.5" stroke="none"/>
<path d="M 272.43 79.66 L 280.07 79.66 L 287.71 79.66 L 287.71 80.42 L 280.07 82.43 L 272.43 84.41 Z" fill="#d0d0d0" fill-opacity="0.5" stroke="none"/>
<path d="M 310.62 77.34 L 318.26 77.34 L 325.90 77.34 L 333.54 77.34 L 341.18 77.34 L 348.82 77.34 L 356.46 77.34 L 364.10 77.34 L 371.74 77.34 L 379.38 77.34 L 387.01 77.34 L 394.65 77.34 L 402.29 77.34 L 409.93 77.34 L 417.57 77.34 L 425.21 77.34 L 432.85 77.34 L 459.58 77.34 L 505.42 77.34 L 535.97 77.34 L 551.25 77.34 L 566.53 77.34 L 581.81 77.34 L 597.08 77.34 L 612.36 77.34 L 629.17 77.34 L 647.50 77.34 L 665.83 77.34 L 684.17 77.34 L 702.50 77.34 L 718.21 77.34 L 718.21 79.09 L 702.50 81.68 L 684.17 81.34 L 665.83 81.53 L 647.50 83.88 L 629.17 85.91 L 612.36 88.48 L 597.08 83.76 L 581.81 85.27 L 566.53 85.81 L 551.25 87.85 L 535.97 90.40 L 505.42 92.53 L 459.58 94.55 L 432.85 96.54 L 425.21 98.46 L 417.57 93.84 L 409.93 94.27 L 402.29 95.40 L 394.65 90.76 L 387.01 86.07 L 379.38 88.40 L 371.74 89.45 L 364.10 88.44 L 356.46 86.52 L 348.82 88.90 L 341.18 84.18 L 333.54 84.31 L 325.90 85.50 L 318.26 80.76 L 310.62 82.12 Z" fill="#d0d0d0" fill-opacity="0.5" stroke="none"/>
<path d="M 816.29 56.64 L 818.28 56.64 L 820.27 56.64 L 822.26 56.64 L 824.26 56.64 L 826.25 56.64 L 828.24 56.64 L 830.24 56.64 L 832.23 56.64 L 834.22 56.64 L 836.21 56.64 L 838.21 56.64 L 840.20 56.64 L 842.19 56.64 L 844.18 56.64 L 846.18 56.64 L 848.17 56.64 L 850.16 56.64 L 852.16 56.64 L 854.15 56.64 L 856.14 56.64 L 858.13 56.64 L 860.13 56.64 L 862.12 56.64 L 864.11 56.64 L 866.11 56.64 L 868.10 56.64 L 870.09 56.64 L 872.08 56.64 L 874.08 56.64 L 876.07 56.64 L 878.06 56.64 L 880.05 56.64 L 882.05 56.64 L 884.04 56.64 L 886.03 56.64 L 888.03 56.64 L 890.02 56.64 L 892.01 56.64 L 894.00 56.64 L 895.54 56.64 L 896.62 56.64 L 897.70 56.64 L 898.77 56.64 L 899.85 56.64 L 900.93 56.64 L 902.01 56.64 L 903.09 56.64 L 904.17 56.64 L 905.25 56.64 L 906.32 56.64 L 907.40 56.64 L 908.48 56.64 L 909.56 56.64 L 910.64 56.64 L 911.72 56.64 L 912.79 56.64 L 913.87 56.64 L 914.95 56.64 L 916.03 56.64 L 917.11 56.64 L 918.19 56.64 L 919.26 56.64 L 920.34 56.64 L 921.42 56.64 L 922.50 56.64 L 923.58 56.64 L 924.66 56.64 L 925.74 56.64 L 926.81 56.64 L 927.89 56.64 L 928.97 56.64 L 930.05 56.64 L 931.13 56.64 L 932.21 56.64 L 933.28 56.64 L 934.36 56.64 L 935.44 56.64 L 936.52 56.64 L 937.60 56.64 L 938.68 56.64 L 939.75 56.64 L 940.83 56.64 L 941.91 56.64 L 942.99 56.64 L 944.07 56.64 L 945.15 56.64 L 946.23 56.64 L 947.30 56.64 L 948.38 56.64 L 949.46 56.64 L 950.54 56.64 L 951.62 56.64 L 952.70 56.64 L 953.77 56.64 L 954.85 56.64 L 955.93 56.64 L 957.01 56.64 L 958.09 56.64 L 959.17 56.64 L 960.25 56.64 L 961.32 56.64 L 962.40 56.64 L 963.48 56.64 L 964.56 56.64 L 965.64 56.64 L 966.72 56.64 L 967.79 56.64 L 968.87 56.64 L 969.95 56.64 L 971.03 56.64 L 972.11 56.64 L 973.19 56.64 L 974.26 56.64 L 975.34 56.64 L 976.42 56.64 L 977.50 56.64 L 978.58 56.64 L 979.66 56.64 L 980.74 56.64 L 981.81 56.64 L 982.89 56.64 L 983.97 56.64 L 985.05 56.64 L 986.13 56.64 L 987.76 56.64 L 989.94 56.64 L 992.12 56.64 L 994.31 56.64 L 996.49 56.64 L 998.67 56.64 L 1000.85 56.64 L 1003.04 56.64 L 1005.22 56.64 L 1007.40 56.64 L 1009.58 56.64 L 1011.77 56.64 L 1013.95 56.64 L 1016.13 56.64 L 1018.31 56.64 L 1020.50 56.64 L 1022.68 56.64 L 1024.86 56.64 L 1027.04 56.64 L 1029.23 56.64 L 1031.41 56.64 L 1033.59 56.64 L 1035.77 56.64 L 1037.96 56.64 L 1040.14 56.64 L 1042.32 56.64 L 1044.50 56.64 L 1046.69 56.64 L 1048.87 56.64 L 1051.05 56.64 L 1053.23 56.64 L 1055.42 56.64 L 1057.60 56.64 L 1059.78 56.64 L 1061.96 56.64 L 1064.15 56.64 L 1066.33 56.64 L 1068.51 56.64 L 1070.69 56.64 L 1072.88 56.64 L 1072.88 58.34 L 1070.69 60.98 L 1068.51 61.59 L 1066.33 63.34 L 1064.15 64.82 L 1061.96 66.91 L 1059.78 68.71 L 1057.60 70.99 L 1055.42 66.10 L 1053.23 68.50 L 1051.05 70.89 L 1048.87 72.78 L 1046.69 75.14 L 1044.50 77.69 L 1042.32 79.92 L 1040.14 75.09 L 1037.96 76.96 L 1035.77 78.84 L 1033.59 80.92 L 1031.41 82.34 L 1029.23 83.75 L 1027.04 85.02 L 1024.86 87.33 L 1022.68 89.81 L 1020.50 91.88 L 1018.31 92.95 L 1016.13 95.43 L 1013.95 97.95 L 1011.77 98.18 L 1009.58 93.54 L 1007.40 96.01 L 1005.22 98.15 L 1003.04 93.50 L 1000.85 88.81 L 998.67 88.33 L 996.49 89.93 L 994.31 92.18 L 992.12 94.11 L 989.94 94.36 L 987.76 89.67 L 986.13 89.65 L 985.05 92.02 L 983.97 87.36 L 982.89 82.61 L 981.81 85.03 L 980.74 84.76 L 979.66 79.98 L 978.58 81.21 L 977.50 82.99 L 976.42 83.45 L 975.34 85.55 L 974.26 80.83 L 973.19 76.05 L 972.11 71.19 L 971.03 72.77 L 969.95 75.01 L 968.87 77.41 L 967.79 77.09 L 966.72 72.23 L 965.64 72.65 L 964.56 75.06 L 963.48 70.21 L 962.40 72.79 L 961.32 74.97 L 960.25 77.52 L 959.17 79.90 L 958.09 81.68 L 957.01 76.88 L 955.93 79.43 L 954.85 81.89 L 953.77 77.09 L 952.70 79.02 L 951.62 81.57 L 950.54 83.37 L 949.46 83.86 L 948.38 79.08 L 947.30 81.20 L 946.23 81.88 L 945.15 84.41 L 944.07 86.93 L 942.99 89.09 L 941.91 84.41 L 940.83 86.80 L 939.75 89.11 L 938.68 84.44 L 937.60 79.71 L 936.52 82.24 L 935.44 77.44 L 934.36 79.73 L 933.28 79.82 L 932.21 82.10 L 931.13 84.09 L 930.05 85.95 L 928.97 87.08 L 927.89 82.33 L 926.81 83.53 L 925.74 85.58 L 924.66 85.14 L 923.58 87.66 L 922.50 90.16 L 921.42 85.48 L 920.34 80.72 L 919.26 82.18 L 918.19 77.38 L 917.11 72.58 L 916.03 67.69 L 914.95 69.36 L 913.87 71.95 L 912.79 72.72 L 911.72 71.68 L 910.64 74.00 L 909.56 76.36 L 908.48 78.70 L 907.40 80.62 L 906.32 82.77 L 905.25 84.73 L 904.17 79.95 L 903.09 82.51 L 902.01 85.05 L 900.93 87.58 L 899.85 89.94 L 898.77 92.44 L 897.70 87.78 L 896.62 83.04 L 895.54 83.13 L 894.00 85.67 L 892.01 87.37 L 890.02 82.62 L 888.03 77.93 L 886.03 80.70 L 884.04 83.27 L 882.05 78.49 L 880.05 73.68 L 878.06 75.65 L 876.07 77.39 L 874.08 78.16 L 872.08 78.63 L 870.09 80.67 L 868.10 81.83 L 866.11 77.04 L 864.11 79.19 L 862.12 81.43 L 860.13 76.63 L 858.13 78.71 L 856.14 73.92 L 854.15 76.03 L 852.16 71.21 L 850.16 66.32 L 848.17 68.12 L 846.18 63.19 L 844.18 58.22 L 842.19 60.24 L 840.20 61.37 L 838.21 63.57 L 836.21 64.71 L 834.22 59.75 L 832.23 62.42 L 830.24 62.94 L 828.24 57.96 L 826.25 60.15 L 824.26 62.02 L 822.26 57.04 L 820.27 57.14 L 818.28 59.58 L 816.29 61.63 Z" fill="#d0d0d0" fill-opacity="0.5" stroke="none"/>
<path d="M 1077.24 55.68 L 1079.25 55.68 L 1081.08 55.68 L 1081.08 56.20 L 1079.25 58.85 L 1077.24 60.66 Z" fill="#d0d0d0" fill-opacity="0.5" stroke="none"/>
<path d="M 1086.58 53.46 L 1088.42 53.46 L 1090.25 53.46 L 1092.08 53.46 L 1093.92 53.46 L 1095.75 53.46 L 1097.58 53.46 L 1099.42 53.46 L 1101.25 53.46 L 1101.25 54.35 L 1099.42 56.48 L 1097.58 58.93 L 1095.75 58.35 L 1093.92 60.78 L 1092.08 62.27 L 1090.25 63.53 L 1088.42 58.55 L 1086.58 58.46 Z" fill="#d0d0d0" fill-opacity="0.5" stroke="none"/>
<path d="M 1114.08 44.88 L 1115.92 44.88 L 1117.75 44.88 L 1119.58 44.88 L 1121.42 44.88 L 1123.25 44.88 L 1125.08 44.88 L 1126.92 44.88 L 1128.75 44.88 L 1130.58 44.88 L 1132.42 44.88 L 1134.25 44.88 L 1136.08 44.88 L 1136.08 46.25 L 1134.25 48.64 L 1132.42 50.79 L 1130.58 53.52 L 1128.75 55.61 L 1126.92 50.57 L 1125.08 52.77 L 1123.25 54.21 L 1121.42 55.36 L 1119.58 57.46 L 1117.75 60.06 L 1115.92 55.05 L 1114.08 49.99 Z" fill="#d0d0d0" fill-opacity="0.5" stroke="none"/>
<path d="M 1139.75 44.54 L 1141.58 44.54 L 1141.58 47.26 L 1139.75 49.65 Z" fill="#d0d0d0" fill-opacity="0.5" stroke="none"/>
<path d="M 1156.25 32.77 L 1158.08 32.77 L 1158.08 35.26 L 1156.25 37.98 Z" fill="#d0d0d0" fill-opacity="0.5" stroke="none"/>
<path d="M 1167.25 25.00 L 1169.08 25.00 L 1169.08 27.79 L 1167.25 30.25 Z" fill="#d0d0d0" fill-opacity="0.5" stroke="none"/>
<polyline fill="none" stroke="#111" stroke-width="1.2" points="74.58,96.16 83.75,94.09 92.92,91.58 102.08,89.63 111.25,87.29 120.42,86.64 129.58,86.52 138.75,84.18 147.92,81.49 157.08,86.19 184.58,84.76 230.42,83.05 257.15,81.35 264.79,79.66 272.43,84.41 280.07,82.43 287.71,80.42 295.35,79.47 302.99,77.34 310.62,82.12 318.26,80.76 325.90,85.50 333.54,84.31 341.18,84.18 348.82,88.90 356.46,86.52 364.10,88.44 371.74,89.45 379.38,88.40 387.01,86.07 394.65,90.76 402.29,95.40 409.93,94.27 417.57,93.84 425.21,98.46 432.85,96.54 459.58,94.55 505.42,92.53 535.97,90.40 551.25,87.85 566.53,85.81 581.81,85.27 597.08,83.76 612.36,88.48 629.17,85.91 647.50,83.88 665.83,81.53 684.17,81.34 702.50,81.68 718.21,79.09 731.31,76.34 744.40,74.81 757.50,72.94 770.60,71.47 783.69,69.55 796.79,67.87 804.33,67.77 806.32,65.11 808.32,64.13 810.31,61.47 812.30,58.88 814.29,56.64 816.29,61.63 818.28,59.58 820.27,57.14 822.26,57.04 824.26,62.02 826.25,60.15 828.24,57.96 830.24,62.94 832.23,62.42 834.22,59.75 836.21,64.71 838.21,63.57 840.20,61.37 842.19,60.24 844.18,58.22 846.18,63.19 848.17,68.12 850.16,66.32 852.16,71.21 854.15,76.03 856.14,73.92 858.13,78.71 860.13,76.63 862.12,81.43 864.11,79.19 866.11,77.04 868.10,81.83 870.09,80.67 872.08,78.63 874.08,78.16 876.07,77.39 878.06,75.65 880.05,73.68 882.05,78.49 884.04,83.27 886.03,80.70 888.03,77.93 890.02,82.62 892.01,87.37 894.00,85.67 895.54,83.13 896.62,83.04 897.70,87.78 898.77,92.44 899.85,89.94 900.93,87.58 902.01,85.05 903.09,82.51 904.17,79.95 905.25,84.73 906.32,82.77 907.40,80.62 908.48,78.70 909.56,76.36 910.64,74.00 911.72,71.68 912.79,72.72 913.87,71.95 914.95,69.36 916.03,67.69 917.11,72.58 918.19,77.38 919.26,82.18 920.34,80.72 921.42,85.48 922.50,90.16 923.58,87.66 924.66,85.14 925.74,85.58 926.81,83.53 927.89,82.33 928.97,87.08 930.05,85.95 931.13,84.09 932.21,82.10 933.28,79.82 934.36,79.73 935.44,77.44 936.52,82.24 937.60,79.71 938.68,84.44 939.75,89.11 940.83,86.80 941.91,84.41 942.99,89.09 944.07,86.93 945.15,84.41 946.23,81.88 947.30,81.20 948.38,79.08 949.46,83.86 950.54,83.37 951.62,81.57 952.70,79.02 953.77,77.09 954.85,81.89 955.93,79.43 957.01,76.88 958.09,81.68 959.17,79.90 960.25,77.52 961.32,74.97 962.40,72.79 963.48,70.21 964.56,75.06 965.64,72.65 966.72,72.23 967.79,77.09 968.87,77.41 969.95,75.01 971.03,72.77 972.11,71.19 973.19,76.05 974.26,80.83 975.34,85.55 976.42,83.45 977.50,82.99 978.58,81.21 979.66,79.98 980.74,84.76 981.81,85.03 982.89,82.61 983.97,87.36 985.05,92.02 986.13,89.65 987.76,89.67 989.94,94.36 992.12,94.11 994.31,92.18 996.49,89.93 998.67,88.33 1000.85,88.81 1003.04,93.50 1005.22,98.15 1007.40,96.01 1009.58,93.54 1011.77,98.18 1013.95,97.95 1016.13,95.43 1018.31,92.95 1020.50,91.88 1022.68,89.81 1024.86,87.33 1027.04,85.02 1029.23,83.75 1031.41,82.34 1033.59,80.92 1035.77,78.84 1037.96,76.96 1040.14,75.09 1042.32,79.92 1044.50,77.69 1046.69,75.14 1048.87,72.78 1051.05,70.89 1053.23,68.50 1055.42,66.10 1057.60,70.99 1059.78,68.71 1061.96,66.91 1064.15,64.82 1066.33,63.34 1068.51,61.59 1070.69,60.98 1072.88,58.34 1075.06,55.68 1077.24,60.66 1079.25,58.85 1081.08,56.20 1082.92,54.94 1084.75,53.46 1086.58,58.46 1088.42,58.55 1090.25,63.53 1092.08,62.27 1093.92,60.78 1095.75,58.35 1097.58,58.93 1099.42,56.48 1101.25,54.35 1103.08,51.67 1104.92,49.42 1106.75,48.76 1108.58,48.21 1110.42,47.13 1112.25,44.88 1114.08,49.99 1115.92,55.05 1117.75,60.06 1119.58,57.46 1121.42,55.36 1123.25,54.21 1125.08,52.77 1126.92,50.57 1128.75,55.61 1130.58,53.52 1132.42,50.79 1134.25,48.64 1136.08,46.25 1137.92,44.54 1139.75,49.65 1141.58,47.26 1143.42,44.51 1145.25,41.95 1147.08,40.48 1148.92,38.16 1150.75,35.83 1152.58,34.62 1154.42,32.77 1156.25,37.98 1158.08,35.26 1159.92,32.44 1161.75,29.89 1163.58,27.84 1165.42,25.00 1167.25,30.25 1169.08,27.79"/>
<text x="15" y="287.5" transform="rotate(-90 15,287.5)" text-anchor="middle" font-family="sans-serif" font-size="12" fill="#333">USD</text>
</svg>