<svg xmlns="http://www.w3.org/2000/svg" width="1200" height="600" viewBox="0 0 1200 600">
<desc>Equity curve with drawdown fill</desc>
<text x="600.0" y="18.0" text-anchor="middle" font-family="sans-serif" font-size="14">Portfolio 2022</text>
<rect x="70" y="25" width="1100" height="525" fill="white" stroke="#ccc" />
<line x1="70" y1="550.00" x2="1170" y2="550.00" stroke="#eee"/>
<text x="62" y="554.0" text-anchor="end" font-family="sans-serif" font-size="11" fill="#555">0.00</text>
<line x1="70" y1="445.00" x2="1170" y2="445.00" stroke="#eee"/>
<text x="62" y="449.0" text-anchor="end" font-family="sans-serif" font-size="11" fill="#555">92768</text>
<line x1="70" y1="340.00" x2="1170" y2="340.00" stroke="#eee"/>
<text x="62" y="344.0" text-anchor="end" font-family="sans-serif" font-size="11" fill="#555">185535</text>
<line x1="70" y1="235.00" x2="1170" y2="235.00" stroke="#eee"/>
<text x="62" y="239.0" text-anchor="end" font-family="sans-serif" font-size="11" fill="#555">278303</text>
<line x1="70" y1="130.00" x2="1170" y2="130.00" stroke="#eee"/>
<text x="62" y="134.0" text-anchor="end" font-family="sans-serif" font-size="11" fill="#555">371071</text>
<line x1="70" y1="25.00" x2="1170" y2="25.00" stroke="#eee"/>
<text x="62" y="29.0" text-anchor="end" font-family="sans-serif" font-size="11" fill="#555">463839</text>
<line x1="157.17" y1="25" x2="157.17" y2="550" stroke="#f2f2f2"/>
<text x="157.17" y="566" text-anchor="middle" font-family="sans-serif" font-size="11" fill="#555">Mar</text>
<line x1="263.92" y1="25" x2="263.92" y2="550" stroke="#f2f2f2"/>
<text x="263.92" y="566" text-anchor="middle" font-family="sans-serif" font-size="11" fill="#555">Apr</text>
<line x1="367.22" y1="25" x2="367.22" y2="550" stroke="#f2f2f2"/>
<text x="367.22" y="566" text-anchor="middle" font-family="sans-serif" font-size="11" fill="#555">May</text>
<line x1="473.97" y1="25" x2="473.97" y2="550" stroke="#f2f2f2"/>
<text x="473.97" y="566" text-anchor="middle" font-family="sans-serif" font-size="11" fill="#555">Jun</text>
<line x1="577.28" y1="25" x2="577.28" y2="550" stroke="#f2f2f2"/>
<text x="577.28" y="566" text-anchor="middle" font-family="sans-serif" font-size="11" fill="#555">Jul</text>
<line x1="684.02" y1="25" x2="684.02" y2="550" stroke="#f2f2f2"/>
<text x="684.02" y="566" text-anchor="middle" font-family="sans-serif" font-size="11" fill="#555">Aug</text>
<line x1="790.77" y1="25" x2="790.77" y2="550" stroke="#f2f2f2"/>
<text x="790.77" y="566" text-anchor="middle" font-family="sans-serif" font-size="11" fill="#555">Sep</text>
<line x1="894.08" y1="25" x2="894.08" y2="550" stroke="#f2f2f2"/>
<text x="894.08" y="566" text-anchor="middle" font-family="sans-serif" font-size="11" fill="#555">Oct</text>
<line x1="1000.83" y1="25" x2="1000.83" y2="550" stroke="#f2f2f2"/>
<text x="1000.83" y="566" text-anchor="middle" font-family="sans-serif" font-size="11" fill="#555">Nov</text>
<line x1="1104.13" y1="25" x2="1104.13" y2="550" stroke="#f2f2f2"/>
<text x="1104.13" y="566" text-anchor="middle" font-family="sans-serif" font-size="11" fill="#555">Dec</text>
<line x1="70" y1="550" x2="1170" y2="550" stroke="#888"/>
<line x1="70" y1="25" x2="70" y2="550" stroke="#888"/>
<path d="M 70.00 95.76 L 93.83 95.76 L 94.07 95.76 L 97.90 95.76 L 116.45 95.76 L 140.63 95.76 L 141.40 95.76 L 141.40 96.86 L 140.63 100.33 L 116.45 101.17 L 97.90 103.86 L 94.07 106.46 L 93.83 99.63 L 70.00 102.65 Z" fill="#d0d0d0" fill-opacity="0.5" stroke="none"/>
<path d="M 177.84 74.55 L 177.84 75.54 Z" fill="#d0d0d0" fill-opacity="0.5" stroke="none"/>
<path d="M 179.64 73.87 L 179.66 73.87 L 179.66 77.21 L 179.64 81.10 Z" fill="#d0d0d0" fill-opacity="0.5" stroke="none"/>
<path d="M 183.91 73.02 L 183.91 73.86 Z" fill="#d0d0d0" fill-opacity="0.5" stroke="none"/>
<path d="M 187.10 67.24 L 190.32 67.24 L 193.26 67.24 L 193.26 69.33 L 190.32 73.05 L 187.10 74.55 Z" fill="#d0d0d0" fill-opacity="0.5" stroke="none"/>
<path d="M 255.51 61.62 L 307.79 61.62 L 310.73 61.62 L 310.82 61.62 L 311.00 61.62 L 330.91 61.62 L 333.99 61.62 L 347.60 61.62 L 354.68 61.62 L 355.54 61.62 L 358.19 61.62 L 362.31 61.62 L 371.84 61.62 L 376.16 61.62 L 382.87 61.62 L 385.60 61.62 L 397.33 61.62 L 397.33 63.70 L 385.60 64.99 L 382.87 68.29 L 376.16 71.51 L 371.84 69.16 L 362.31 72.49 L 358.19 75.20 L 355.54 78.83 L 354.68 78.60 L 347.60 81.80 L 333.99 85.73 L 330.91 78.57 L 311.00 81.00 L 310.82 82.20 L 310.73 75.03 L 307.79 67.72 L 255.51 69.02 Z" fill="#d0d0d0" fill-opacity="0.5" stroke="none"/>
<path d="M 406.28 59.60 L 407.56 59.60 L 431.51 59.60 L 444.45 59.60 L 447.57 59.60 L 472.27 59.60 L 476.23 59.60 L 476.23 60.09 L 472.27 60.21 L 447.57 63.55 L 444.45 67.62 L 431.51 60.19 L 407.56 63.36 L 406.28 67.04 Z" fill="#d0d0d0" fill-opacity="0.5" stroke="none"/>
<path d="M 524.18 48.44 L 527.71 48.44 L 528.23 48.44 L 528.31 48.44 L 531.31 48.44 L 548.43 48.44 L 551.09 48.44 L 551.89 48.44 L 569.01 48.44 L 576.24 48.44 L 579.54 48.44 L 592.32 48.44 L 592.49 48.44 L 592.57 48.44 L 592.66 48.44 L 602.59 48.44 L 602.66 48.44 L 616.97 48.44 L 620.53 48.44 L 620.53 48.44 L 620.86 48.44 L 620.95 48.44 L 624.11 48.44 L 624.34 48.44 L 638.13 48.44 L 640.48 48.44 L 640.64 48.44 L 640.71 48.44 L 644.39 48.44 L 648.05 48.44 L 648.17 48.44 L 648.25 48.44 L 650.93 48.44 L 651.73 48.44 L 661.47 48.44 L 664.95 48.44 L 675.84 48.44 L 688.72 48.44 L 693.24 48.44 L 696.73 48.44 L 699.73 48.44 L 699.89 48.44 L 716.95 48.44 L 717.23 48.44 L 744.79 48.44 L 758.81 48.44 L 761.90 48.44 L 761.99 48.44 L 762.15 48.44 L 765.52 48.44 L 765.54 48.44 L 772.18 48.44 L 772.48 48.44 L 782.16 48.44 L 789.66 48.44 L 792.96 48.44 L 793.05 48.44 L 796.86 48.44 L 805.77 48.44 L 810.18 48.44 L 813.75 48.44 L 816.91 48.44 L 816.95 48.44 L 817.08 48.44 L 818.68 48.44 L 820.15 48.44 L 829.80 48.44 L 829.87 48.44 L 830.05 48.44 L 834.03 48.44 L 834.22 48.44 L 834.32 48.44 L 834.50 48.44 L 844.81 48.44 L 858.19 48.44 L 860.66 48.44 L 860.76 48.44 L 862.37 48.44 L 864.39 48.44 L 864.49 48.44 L 865.44 48.44 L 867.71 48.44 L 868.84 48.44 L 877.14 48.44 L 877.16 48.44 L 878.07 48.44 L 878.48 48.44 L 878.86 48.44 L 879.25 48.44 L 882.90 48.44 L 885.33 48.44 L 885.86 48.44 L 885.89 48.44 L 886.02 48.44 L 886.34 48.44 L 886.34 48.44 L 886.46 48.44 L 889.36 48.44 L 889.63 48.44 L 892.57 48.44 L 892.93 48.44 L 902.59 48.44 L 903.15 48.44 L 905.63 48.44 L 906.42 48.44 L 910.00 48.44 L 913.38 48.44 L 916.68 48.44 L 916.68 52.39 L 913.38 56.52 L 910.00 60.16 L 906.42 64.24 L 905.63 66.95 L 903.15 68.58 L 902.59 72.24 L 892.93 72.67 L 892.57 76.22 L 889.63 80.17 L 889.36 78.97 L 886.46 82.89 L 886.34 81.71 L 886.34 74.57 L 886.02 67.25 L 885.89 71.24 L 885.86 74.79 L 885.33 78.74 L 882.90 82.66 L 879.25 85.30 L 878.86 88.47 L 878.48 92.13 L 878.07 95.69 L 877.16 88.64 L 877.14 92.53 L 868.84 85.44 L 867.71 87.13 L 865.44 89.89 L 864.49 90.14 L 864.39 93.82 L 862.37 97.60 L 860.76 101.37 L 860.66 104.97 L 858.19 108.66 L 844.81 111.97 L 834.50 110.84 L 834.32 104.04 L 834.22 104.03 L 834.03 101.42 L 830.05 105.36 L 829.87 98.48 L 829.80 91.52 L 820.15 84.43 L 818.68 87.18 L 817.08 86.86 L 816.95 90.29 L 816.91 93.65 L 813.75 86.59 L 810.18 86.31 L 805.77 88.85 L 796.86 92.70 L 793.05 85.63 L 792.96 89.27 L 789.66 82.15 L 782.16 82.97 L 772.48 85.56 L 772.18 88.19 L 765.54 92.05 L 765.52 95.41 L 762.15 88.38 L 761.99 90.72 L 761.90 92.13 L 758.81 85.05 L 744.79 84.02 L 717.23 84.02 L 716.95 76.82 L 699.89 80.98 L 699.73 81.04 L 696.73 84.96 L 693.24 88.07 L 688.72 85.50 L 675.84 88.97 L 664.95 87.45 L 661.47 88.13 L 651.73 88.84 L 650.93 81.71 L 648.25 81.06 L 648.17 84.16 L 648.05 84.37 L 644.39 88.26 L 640.71 81.13 L 640.64 82.09 L 640.48 80.17 L 638.13 72.91 L 624.34 74.69 L 624.11 78.65 L 620.95 82.58 L 620.86 84.53 L 620.53 77.34 L 620.53 81.28 L 616.97 85.19 L 602.66 86.98 L 602.59 89.59 L 592.66 93.43 L 592.57 94.89 L 592.49 87.86 L 592.32 80.76 L 579.54 73.52 L 576.24 73.16 L 569.01 65.80 L 551.89 68.50 L 551.09 72.23 L 548.43 64.87 L 531.31 67.69 L 528.31 71.29 L 528.23 63.91 L 527.71 63.52 L 524.18 56.03 Z" fill="#d0d0d0" fill-opacity="0.5" stroke="none"/>
<path d="M 937.74 29.58 L 937.79 29.58 L 937.97 29.58 L 940.87 29.58 L 940.90 29.58 L 951.51 29.58 L 957.89 29.58 L 961.28 29.58 L 964.90 29.58 L 964.95 29.58 L 965.14 29.58 L 965.14 32.81 L 964.95 36.51 L 964.90 40.76 L 961.28 43.62 L 957.89 46.96 L 951.51 47.72 L 940.90 49.88 L 940.87 53.63 L 937.97 45.98 L 937.79 45.18 L 937.74 37.45 Z" fill="#d0d0d0" fill-opacity="0.5" stroke="none"/>
<path d="M 978.80 25.00 L 978.88 25.00 L 979.05 25.00 L 981.48 25.00 L 982.59 25.00 L 985.55 25.00 L 988.37 25.00 L 1003.05 25.00 L 1007.06 25.00 L 1013.03 25.00 L 1013.12 25.00 L 1013.18 25.00 L 1013.23 25.00 L 1013.38 25.00 L 1022.86 25.00 L 1027.13 25.00 L 1030.55 25.00 L 1033.29 25.00 L 1033.75 25.00 L 1033.92 25.00 L 1034.11 25.00 L 1034.15 25.00 L 1036.56 25.00 L 1047.46 25.00 L 1051.35 25.00 L 1051.69 25.00 L 1051.72 25.00 L 1078.75 25.00 L 1095.09 25.00 L 1096.15 25.00 L 1099.26 25.00 L 1102.96 25.00 L 1103.02 25.00 L 1103.38 25.00 L 1103.66 25.00 L 1109.60 25.00 L 1110.15 25.00 L 1120.38 25.00 L 1126.67 25.00 L 1147.54 25.00 L 1147.65 25.00 L 1154.37 25.00 L 1154.44 25.00 L 1154.96 25.00 L 1170.00 25.00 L 1170.00 88.69 L 1154.96 92.58 L 1154.44 89.66 L 1154.37 91.29 L 1147.65 84.17 L 1147.54 84.86 L 1126.67 85.59 L 1120.38 88.60 L 1110.15 90.51 L 1109.60 89.27 L 1103.66 82.13 L 1103.38 78.65 L 1103.02 82.03 L 1102.96 84.68 L 1099.26 77.46 L 1096.15 80.30 L 1095.09 73.02 L 1078.75 65.64 L 1051.72 68.40 L 1051.69 71.69 L 1051.35 64.29 L 1047.46 66.71 L 1036.56 70.52 L 1034.15 73.62 L 1034.11 75.61 L 1033.92 71.82 L 1033.75 71.69 L 1033.29 75.99 L 1030.55 78.09 L 1027.13 82.04 L 1022.86 74.78 L 1013.38 74.72 L 1013.23 77.30 L 1013.18 70.02 L 1013.12 62.60 L 1013.03 63.42 L 1007.06 55.90 L 1003.05 48.28 L 988.37 48.96 L 985.55 52.27 L 982.59 55.40 L 981.48 56.06 L 979.05 48.45 L 978.88 40.72 L 978.80 32.93 Z" fill="#d0d0d0" fill-opacity="0.5" stroke="none"/>
<polyline fill="none" stroke="#111" stroke-width="1.2" points="70.00,102.65 93.83,99.63 94.07,106.46 97.90,103.86 116.45,101.17 140.63,100.33 141.40,96.86 142.26,93.35 142.68,90.30 153.66,90.17 155.31,86.31 159.64,83.19 162.98,79.23 167.65,77.37 169.54,74.55 177.84,75.54 179.38,73.87 179.64,81.10 179.66,77.21 179.80,73.63 182.54,73.02 183.91,73.86 186.24,71.29 186.74,67.24 187.10,74.55 190.32,73.05 193.26,69.33 203.37,65.72 251.55,61.62 255.51,69.02 307.79,67.72 310.73,75.03 310.82,82.20 311.00,81.00 330.91,78.57 333.99,85.73 347.60,81.80 354.68,78.60 355.54,78.83 358.19,75.20 362.31,72.49 371.84,69.16 376.16,71.51 382.87,68.29 385.60,64.99 397.33,63.70 403.59,59.60 406.28,67.04 407.56,63.36 431.51,60.19 444.45,67.62 447.57,63.55 472.27,60.21 476.23,60.09 503.49,57.73 503.62,54.51 503.74,52.16 506.92,48.44 524.18,56.03 527.71,63.52 528.23,63.91 528.31,71.29 531.31,67.69 548.43,64.87 551.09,72.23 551.89,68.50 569.01,65.80 576.24,73.16 579.54,73.52 592.32,80.76 592.49,87.86 592.57,94.89 592.66,93.43 602.59,89.59 602.66,86.98 616.97,85.19 620.53,81.28 620.53,77.34 620.86,84.53 620.95,82.58 624.11,78.65 624.34,74.69 638.13,72.91 640.48,80.17 640.64,82.09 640.71,81.13 644.39,88.26 648.05,84.37 648.17,84.16 648.25,81.06 650.93,81.71 651.73,88.84 661.47,88.13 664.95,87.45 675.84,88.97 688.72,85.50 693.24,88.07 696.73,84.96 699.73,81.04 699.89,80.98 716.95,76.82 717.23,84.02 744.79,84.02 758.81,85.05 761.90,92.13 761.99,90.72 762.15,88.38 765.52,95.41 765.54,92.05 772.18,88.19 772.48,85.56 782.16,82.97 789.66,82.15 792.96,89.27 793.05,85.63 796.86,92.70 805.77,88.85 810.18,86.31 813.75,86.59 816.91,93.65 816.95,90.29 817.08,86.86 818.68,87.18 820.15,84.43 829.80,91.52 829.87,98.48 830.05,105.36 834.03,101.42 834.22,104.03 834.32,104.04 834.50,110.84 844.81,111.97 858.19,108.66 860.66,104.97 860.76,101.37 862.37,97.60 864.39,93.82 864.49,90.14 865.44,89.89 867.71,87.13 868.84,85.44 877.14,92.53 877.16,88.64 878.07,95.69 878.48,92.13 878.86,88.47 879.25,85.30 882.90,82.66 885.33,78.74 885.86,74.79 885.89,71.24 886.02,67.25 886.34,74.57 886.34,81.71 886.46,82.89 889.36,78.97 889.63,80.17 892.57,76.22 892.93,72.67 902.59,72.24 903.15,68.58 905.63,66.95 906.42,64.24 910.00,60.16 913.38,56.52 916.68,52.39 916.74,48.41 927.29,44.22 930.98,41.08 932.68,36.83 937.34,32.32 937.52,29.58 937.74,37.45 937.79,45.18 937.97,45.98 940.87,53.63 940.90,49.88 951.51,47.72 957.89,46.96 961.28,43.62 964.90,40.76 964.95,36.51 965.14,32.81 965.31,29.04 965.43,27.36 975.44,25.00 978.80,32.93 978.88,40.72 979.05,48.45 981.48,56.06 982.59,55.40 985.55,52.27 988.37,48.96 1003.05,48.28 1007.06,55.90 1013.03,63.42 1013.12,62.60 1013.18,70.02 1013.23,77.30 1013.38,74.72 1022.86,74.78 1027.13,82.04 1030.55,78.09 1033.29,75.99 1033.75,71.69 1033.92,71.82 1034.11,75.61 1034.15,73.62 1036.56,70.52 1047.46,66.71 1051.35,64.29 1051.69,71.69 1051.72,68.40 1078.75,65.64 1095.09,73.02 1096.15,80.30 1099.26,77.46 1102.96,84.68 1103.02,82.03 1103.38,78.65 1103.66,82.13 1109.60,89.27 1110.15,90.51 1120.38,88.60 1126.67,85.59 1147.54,84.86 1147.65,84.17 1154.37,91.29 1154.44,89.66 1154.96,92.58 1170.00,88.69"/>
<text x="620.0" y="588" text-anchor="middle" font-family="sans-serif" font-size="12" fill="#333">UTC time</text>
<text x="15" y="287.5" transform="rotate(-90 15,287.5)" text-anchor="middle" font-family="sans-serif" font-size="12" fill="#333">Capital</text>
</svg>