<svg xmlns="http://www.w3.org/2000/svg" width="1200" height="600" viewBox="0 0 1200 600">
<desc>Equity curve with drawdown fill; x-axis is months only (no exact timestamps)</desc>
<text x="600.0" y="18.0" text-anchor="middle" font-family="sans-serif" font-size="14">Portfolio 2025 (UTC)</text>
<rect x="70" y="25" width="1100" height="525" fill="white" stroke="#ccc" />
<line x1="70" y1="550.00" x2="1170" y2="550.00" stroke="#eee"/>
<text x="62" y="554.0" text-anchor="end" font-family="sans-serif" font-size="11" fill="#555">0.00</text>
<line x1="70" y1="445.00" x2="1170" y2="445.00" stroke="#eee"/>
<text x="62" y="449.0" text-anchor="end" font-family="sans-serif" font-size="11" fill="#555">88317</text>
<line x1="70" y1="340.00" x2="1170" y2="340.00" stroke="#eee"/>
<text x="62" y="344.0" text-anchor="end" font-family="sans-serif" font-size="11" fill="#555">176634</text>
<line x1="70" y1="235.00" x2="1170" y2="235.00" stroke="#eee"/>
<text x="62" y="239.0" text-anchor="end" font-family="sans-serif" font-size="11" fill="#555">264950</text>
<line x1="70" y1="130.00" x2="1170" y2="130.00" stroke="#eee"/>
<text x="62" y="134.0" text-anchor="end" font-family="sans-serif" font-size="11" fill="#555">353267</text>
<line x1="70" y1="25.00" x2="1170" y2="25.00" stroke="#eee"/>
<text x="62" y="29.0" text-anchor="end" font-family="sans-serif" font-size="11" fill="#555">441584</text>
<line x1="207.50" y1="25" x2="207.50" y2="550" stroke="#f2f2f2"/>
<line x1="345.00" y1="25" x2="345.00" y2="550" stroke="#f2f2f2"/>
<line x1="482.50" y1="25" x2="482.50" y2="550" stroke="#f2f2f2"/>
<line x1="620.00" y1="25" x2="620.00" y2="550" stroke="#f2f2f2"/>
<line x1="757.50" y1="25" x2="757.50" y2="550" stroke="#f2f2f2"/>
<line x1="895.00" y1="25" x2="895.00" y2="550" stroke="#f2f2f2"/>
<line x1="1032.50" y1="25" x2="1032.50" y2="550" stroke="#f2f2f2"/>
<text x="138.75" y="566.00" text-anchor="middle" font-family="sans-serif" font-size="11" fill="#444">Jan</text>
<text x="276.25" y="566.00" text-anchor="middle" font-family="sans-serif" font-size="11" fill="#444">Feb</text>
<text x="413.75" y="566.00" text-anchor="middle" font-family="sans-serif" font-size="11" fill="#444">Mar</text>
<text x="551.25" y="566.00" text-anchor="middle" font-family="sans-serif" font-size="11" fill="#444">Apr</text>
<text x="688.75" y="566.00" text-anchor="middle" font-family="sans-serif" font-size="11" fill="#444">May</text>
<text x="826.25" y="566.00" text-anchor="middle" font-family="sans-serif" font-size="11" fill="#444">Jun</text>
<text x="963.75" y="566.00" text-anchor="middle" font-family="sans-serif" font-size="11" fill="#444">Jul</text>
<text x="1101.25" y="566.00" text-anchor="middle" font-family="sans-serif" font-size="11" fill="#444">Aug</text>
<line x1="70" y1="550" x2="1170" y2="550" stroke="#888"/>
<line x1="70" y1="25" x2="70" y2="550" stroke="#888"/>
<line x1="75.73" y1="550.00" x2="75.73" y2="556.00" stroke="#888"/>
<line x1="1135.62"   y1="550.00" x2="1135.62"   y2="556.00" stroke="#888"/>
<text x="75.73" y="582.00" text-anchor="start" font-family="sans-serif" font-size="11" fill="#333">Initial Balance: 418236</text>
<text x="1135.62"   y="582.00" text-anchor="end"   font-family="sans-serif" font-size="11" fill="#333">Ending Balance: 433485</text>
<path d="M 98.65 51.10 L 110.10 51.10 L 121.56 51.10 L 133.02 51.10 L 133.02 53.04 L 121.56 54.22 L 110.10 56.39 L 98.65 56.18 Z" fill="#d0d0d0" fill-opacity="0.5" stroke="none"/>
<path d="M 356.46 31.65 L 379.38 31.65 L 402.29 31.65 L 402.29 32.16 L 379.38 34.40 L 356.46 36.92 Z" fill="#d0d0d0" fill-opacity="0.5" stroke="none"/>
<path d="M 485.94 26.71 L 492.81 26.71 L 499.69 26.71 L 506.56 26.71 L 513.44 26.71 L 520.31 26.71 L 527.19 26.71 L 534.06 26.71 L 540.94 26.71 L 547.81 26.71 L 547.81 29.55 L 540.94 31.46 L 534.06 31.68 L 527.19 33.33 L 520.31 34.20 L 513.44 32.28 L 506.56 27.06 L 499.69 30.13 L 492.81 30.27 L 485.94 32.02 Z" fill="#d0d0d0" fill-opacity="0.5" stroke="none"/>
<path d="M 568.44 25.00 L 575.31 25.00 L 582.19 25.00 L 589.06 25.00 L 595.94 25.00 L 602.81 25.00 L 609.69 25.00 L 616.56 25.00 L 633.75 25.00 L 661.25 25.00 L 688.75 25.00 L 716.25 25.00 L 743.75 25.00 L 780.42 25.00 L 826.25 25.00 L 872.08 25.00 L 908.75 25.00 L 936.25 25.00 L 963.75 25.00 L 991.25 25.00 L 1018.75 25.00 L 1066.88 25.00 L 1135.62 25.00 L 1135.62 34.63 L 1066.88 36.82 L 1018.75 39.17 L 991.25 33.93 L 963.75 36.19 L 936.25 38.54 L 908.75 33.34 L 872.08 36.31 L 826.25 38.90 L 780.42 41.12 L 743.75 43.66 L 716.25 38.46 L 688.75 40.93 L 661.25 35.71 L 633.75 38.34 L 616.56 33.09 L 609.69 33.83 L 602.81 28.53 L 595.94 29.92 L 589.06 32.54 L 582.19 32.49 L 575.31 27.26 L 568.44 30.33 Z" fill="#d0d0d0" fill-opacity="0.5" stroke="none"/>
<polyline fill="none" stroke="#111" stroke-width="1.2" points="75.73,52.76 87.19,51.10 98.65,56.18 110.10,56.39 121.56,54.22 133.02,53.04 144.48,50.33 155.94,47.99 167.40,45.25 178.85,42.49 190.31,41.49 201.77,39.00 230.42,36.96 276.25,34.45 322.08,31.65 356.46,36.92 379.38,34.40 402.29,32.16 425.21,30.13 448.12,28.66 471.04,26.71 485.94,32.02 492.81,30.27 499.69,30.13 506.56,27.06 513.44,32.28 520.31,34.20 527.19,33.33 534.06,31.68 540.94,31.46 547.81,29.55 554.69,26.52 561.56,25.00 568.44,30.33 575.31,27.26 582.19,32.49 589.06,32.54 595.94,29.92 602.81,28.53 609.69,33.83 616.56,33.09 633.75,38.34 661.25,35.71 688.75,40.93 716.25,38.46 743.75,43.66 780.42,41.12 826.25,38.90 872.08,36.31 908.75,33.34 936.25,38.54 963.75,36.19 991.25,33.93 1018.75,39.17 1066.88,36.82 1135.62,34.63"/>
<text x="620.0" y="588" text-anchor="middle" font-family="sans-serif" font-size="12" fill="#333">Monthly Balance Curve</text>
<text x="15" y="287.5" transform="rotate(-90 15,287.5)" text-anchor="middle" font-family="sans-serif" font-size="12" fill="#333">Capital</text>
</svg>