<svg xmlns="http://www.w3.org/2000/svg" width="1200" height="600" viewBox="0 0 1200 600">
<desc>Equity curve with drawdown fill</desc>
<text x="600.0" y="18.0" text-anchor="middle" font-family="sans-serif" font-size="14">Portfolio 2010</text>
<rect x="70" y="25" width="1100" height="525" fill="white" stroke="#ccc" />
<line x1="70" y1="550.00" x2="1170" y2="550.00" stroke="#eee"/>
<text x="62" y="554.0" text-anchor="end" font-family="sans-serif" font-size="11" fill="#555">0.00</text>
<line x1="70" y1="445.00" x2="1170" y2="445.00" stroke="#eee"/>
<text x="62" y="449.0" text-anchor="end" font-family="sans-serif" font-size="11" fill="#555">23703</text>
<line x1="70" y1="340.00" x2="1170" y2="340.00" stroke="#eee"/>
<text x="62" y="344.0" text-anchor="end" font-family="sans-serif" font-size="11" fill="#555">47406</text>
<line x1="70" y1="235.00" x2="1170" y2="235.00" stroke="#eee"/>
<text x="62" y="239.0" text-anchor="end" font-family="sans-serif" font-size="11" fill="#555">71109</text>
<line x1="70" y1="130.00" x2="1170" y2="130.00" stroke="#eee"/>
<text x="62" y="134.0" text-anchor="end" font-family="sans-serif" font-size="11" fill="#555">94813</text>
<line x1="70" y1="25.00" x2="1170" y2="25.00" stroke="#eee"/>
<text x="62" y="29.0" text-anchor="end" font-family="sans-serif" font-size="11" fill="#555">118516</text>
<line x1="154.02" y1="25" x2="154.02" y2="550" stroke="#f2f2f2"/>
<text x="154.02" y="566" text-anchor="middle" font-family="sans-serif" font-size="11" fill="#555">Feb</text>
<line x1="239.38" y1="25" x2="239.38" y2="550" stroke="#f2f2f2"/>
<text x="239.38" y="566" text-anchor="middle" font-family="sans-serif" font-size="11" fill="#555">Mar</text>
<line x1="333.88" y1="25" x2="333.88" y2="550" stroke="#f2f2f2"/>
<text x="333.88" y="566" text-anchor="middle" font-family="sans-serif" font-size="11" fill="#555">Apr</text>
<line x1="425.33" y1="25" x2="425.33" y2="550" stroke="#f2f2f2"/>
<text x="425.33" y="566" text-anchor="middle" font-family="sans-serif" font-size="11" fill="#555">May</text>
<line x1="519.83" y1="25" x2="519.83" y2="550" stroke="#f2f2f2"/>
<text x="519.83" y="566" text-anchor="middle" font-family="sans-serif" font-size="11" fill="#555">Jun</text>
<line x1="611.29" y1="25" x2="611.29" y2="550" stroke="#f2f2f2"/>
<text x="611.29" y="566" text-anchor="middle" font-family="sans-serif" font-size="11" fill="#555">Jul</text>
<line x1="705.79" y1="25" x2="705.79" y2="550" stroke="#f2f2f2"/>
<text x="705.79" y="566" text-anchor="middle" font-family="sans-serif" font-size="11" fill="#555">Aug</text>
<line x1="800.29" y1="25" x2="800.29" y2="550" stroke="#f2f2f2"/>
<text x="800.29" y="566" text-anchor="middle" font-family="sans-serif" font-size="11" fill="#555">Sep</text>
<line x1="891.74" y1="25" x2="891.74" y2="550" stroke="#f2f2f2"/>
<text x="891.74" y="566" text-anchor="middle" font-family="sans-serif" font-size="11" fill="#555">Oct</text>
<line x1="986.24" y1="25" x2="986.24" y2="550" stroke="#f2f2f2"/>
<text x="986.24" y="566" text-anchor="middle" font-family="sans-serif" font-size="11" fill="#555">Nov</text>
<line x1="1077.70" y1="25" x2="1077.70" y2="550" stroke="#f2f2f2"/>
<text x="1077.70" y="566" text-anchor="middle" font-family="sans-serif" font-size="11" fill="#555">Dec</text>
<line x1="1170.00" y1="25" x2="1170.00" y2="550" stroke="#f2f2f2"/>
<text x="1170.00" y="566" text-anchor="middle" font-family="sans-serif" font-size="11" fill="#555">Jan</text>
<line x1="70" y1="550" x2="1170" y2="550" stroke="#888"/>
<line x1="70" y1="25" x2="70" y2="550" stroke="#888"/>
<path d="M 70.00 107.02 L 70.00 108.41 Z" fill="#d0d0d0" fill-opacity="0.5" stroke="none"/>
<path d="M 83.28 103.89 L 83.28 104.13 Z" fill="#d0d0d0" fill-opacity="0.5" stroke="none"/>
<path d="M 102.58 100.64 L 102.58 101.59 Z" fill="#d0d0d0" fill-opacity="0.5" stroke="none"/>
<path d="M 180.60 84.25 L 183.45 84.25 L 186.42 84.25 L 189.45 84.25 L 201.86 84.25 L 204.89 84.25 L 207.79 84.25 L 208.78 84.25 L 208.82 84.25 L 211.11 84.25 L 222.59 84.25 L 226.19 84.25 L 229.62 84.25 L 232.29 84.25 L 243.64 84.25 L 244.20 84.25 L 247.57 84.25 L 250.53 84.25 L 268.90 84.25 L 274.31 84.25 L 293.38 84.25 L 310.31 84.25 L 310.76 84.25 L 314.95 84.25 L 336.01 84.25 L 338.77 84.25 L 360.23 84.25 L 367.32 84.25 L 367.44 84.25 L 377.77 84.25 L 396.48 84.25 L 399.87 84.25 L 400.96 84.25 L 402.22 84.25 L 403.07 84.25 L 411.46 84.25 L 415.32 84.25 L 417.88 84.25 L 424.35 84.25 L 431.78 84.25 L 433.51 84.25 L 436.38 84.25 L 441.59 84.25 L 442.28 84.25 L 442.72 84.25 L 443.02 84.25 L 443.04 84.25 L 444.06 84.25 L 444.11 84.25 L 444.31 84.25 L 444.64 84.25 L 444.75 84.25 L 445.36 84.25 L 445.63 84.25 L 445.63 85.98 L 445.36 87.44 L 444.75 89.83 L 444.64 91.81 L 444.31 94.40 L 444.11 95.96 L 444.06 98.16 L 443.04 100.48 L 443.02 102.61 L 442.72 98.05 L 442.28 100.33 L 441.59 102.29 L 436.38 97.72 L 433.51 99.44 L 431.78 99.62 L 424.35 95.04 L 417.88 97.23 L 415.32 99.29 L 411.46 94.70 L 403.07 96.22 L 402.22 95.09 L 400.96 90.46 L 399.87 93.07 L 396.48 95.67 L 377.77 97.14 L 367.44 98.65 L 367.32 94.05 L 360.23 95.80 L 338.77 96.89 L 336.01 99.24 L 314.95 100.78 L 310.76 102.60 L 310.31 104.70 L 293.38 106.59 L 274.31 105.80 L 268.90 105.07 L 250.53 106.35 L 247.57 106.73 L 244.20 102.22 L 243.64 104.16 L 232.29 105.88 L 229.62 101.36 L 226.19 103.16 L 222.59 104.31 L 211.11 99.78 L 208.82 102.11 L 208.78 103.93 L 207.79 99.40 L 204.89 99.71 L 201.86 95.12 L 189.45 90.50 L 186.42 93.11 L 183.45 88.46 L 180.60 88.94 Z" fill="#d0d0d0" fill-opacity="0.5" stroke="none"/>
<path d="M 453.89 74.19 L 454.00 74.19 L 454.11 74.19 L 454.29 74.19 L 454.29 74.82 L 454.11 77.35 L 454.00 79.23 L 453.89 78.98 Z" fill="#d0d0d0" fill-opacity="0.5" stroke="none"/>
<path d="M 454.67 73.97 L 454.80 73.97 L 454.87 73.97 L 455.08 73.97 L 455.92 73.97 L 456.52 73.97 L 457.10 73.97 L 460.99 73.97 L 463.15 73.97 L 463.21 73.97 L 466.74 73.97 L 466.89 73.97 L 466.89 74.86 L 466.74 77.34 L 463.21 79.35 L 463.15 81.61 L 460.99 76.84 L 457.10 78.81 L 456.52 81.28 L 455.92 82.86 L 455.08 84.80 L 454.87 80.07 L 454.80 80.12 L 454.67 78.77 Z" fill="#d0d0d0" fill-opacity="0.5" stroke="none"/>
<path d="M 474.54 72.06 L 474.60 72.06 L 474.75 72.06 L 474.75 73.20 L 474.60 75.26 L 474.54 76.88 Z" fill="#d0d0d0" fill-opacity="0.5" stroke="none"/>
<path d="M 479.64 59.02 L 481.89 59.02 L 481.89 59.02 L 482.02 59.02 L 482.14 59.02 L 482.28 59.02 L 482.66 59.02 L 483.59 59.02 L 484.26 59.02 L 484.27 59.02 L 484.78 59.02 L 485.22 59.02 L 485.60 59.02 L 485.60 59.02 L 485.74 59.02 L 486.43 59.02 L 486.73 59.02 L 487.02 59.02 L 487.26 59.02 L 487.45 59.02 L 487.48 59.02 L 488.11 59.02 L 488.23 59.02 L 496.63 59.02 L 498.76 59.02 L 499.69 59.02 L 500.42 59.02 L 500.69 59.02 L 500.99 59.02 L 501.92 59.02 L 503.33 59.02 L 505.39 59.02 L 506.34 59.02 L 506.65 59.02 L 506.65 61.40 L 506.34 63.78 L 505.39 66.31 L 503.33 66.34 L 501.92 67.89 L 500.99 68.27 L 500.69 70.42 L 500.42 71.89 L 499.69 74.36 L 498.76 74.22 L 496.63 76.37 L 488.23 71.55 L 488.11 73.65 L 487.48 75.40 L 487.45 70.57 L 487.26 70.52 L 487.02 72.90 L 486.73 74.56 L 486.43 74.79 L 485.74 76.85 L 485.60 72.09 L 485.60 67.25 L 485.22 62.34 L 484.78 65.07 L 484.27 66.05 L 484.26 68.87 L 483.59 63.98 L 482.66 65.49 L 482.28 66.31 L 482.14 68.76 L 482.02 70.89 L 481.89 66.02 L 481.89 68.85 L 479.64 63.95 Z" fill="#d0d0d0" fill-opacity="0.5" stroke="none"/>
<path d="M 506.83 58.94 L 506.88 58.94 L 507.00 58.94 L 508.66 58.94 L 508.85 58.94 L 509.40 58.94 L 509.89 58.94 L 520.90 58.94 L 521.21 58.94 L 521.27 58.94 L 521.77 58.94 L 521.80 58.94 L 521.85 58.94 L 521.96 58.94 L 525.06 58.94 L 526.30 58.94 L 527.94 58.94 L 530.70 58.94 L 530.81 58.94 L 531.09 58.94 L 538.32 58.94 L 542.52 58.94 L 543.26 58.94 L 545.98 58.94 L 548.02 58.94 L 549.16 58.94 L 552.42 58.94 L 559.47 58.94 L 560.87 58.94 L 564.01 58.94 L 564.58 58.94 L 581.12 58.94 L 583.09 58.94 L 583.09 61.00 L 581.12 63.29 L 564.58 65.56 L 564.01 67.74 L 560.87 66.32 L 559.47 66.75 L 552.42 69.48 L 549.16 70.95 L 548.02 66.08 L 545.98 61.15 L 543.26 63.02 L 542.52 65.52 L 538.32 67.45 L 531.09 69.59 L 530.81 72.29 L 530.70 72.47 L 527.94 67.63 L 526.30 68.27 L 525.06 69.87 L 521.96 72.38 L 521.85 74.29 L 521.80 76.03 L 521.77 71.23 L 521.27 66.36 L 521.21 66.57 L 520.90 65.16 L 509.89 60.22 L 509.40 62.70 L 508.85 64.13 L 508.66 59.19 L 507.00 60.57 L 506.88 62.01 L 506.83 63.87 Z" fill="#d0d0d0" fill-opacity="0.5" stroke="none"/>
<path d="M 589.38 58.24 L 591.21 58.24 L 592.08 58.24 L 592.08 58.59 L 591.21 61.35 L 589.38 63.18 Z" fill="#d0d0d0" fill-opacity="0.5" stroke="none"/>
<path d="M 612.50 51.33 L 613.24 51.33 L 613.39 51.33 L 616.05 51.33 L 616.11 51.33 L 628.48 51.33 L 637.45 51.33 L 637.45 51.99 L 628.48 53.03 L 616.11 55.33 L 616.05 57.12 L 613.39 59.90 L 613.24 54.92 L 612.50 56.34 Z" fill="#d0d0d0" fill-opacity="0.5" stroke="none"/>
<path d="M 667.30 43.74 L 670.16 43.74 L 670.69 43.74 L 673.66 43.74 L 674.81 43.74 L 676.59 43.74 L 677.24 43.74 L 679.57 43.74 L 680.16 43.74 L 680.23 43.74 L 680.36 43.74 L 680.51 43.74 L 680.80 43.74 L 692.49 43.74 L 710.86 43.74 L 713.11 43.74 L 717.02 43.74 L 722.80 43.74 L 722.93 43.74 L 722.94 43.74 L 723.02 43.74 L 735.67 43.74 L 735.75 43.74 L 736.63 43.74 L 737.24 43.74 L 738.11 43.74 L 738.37 43.74 L 740.68 43.74 L 760.79 43.74 L 762.47 43.74 L 762.93 43.74 L 765.05 43.74 L 765.20 43.74 L 777.84 43.74 L 777.91 43.74 L 780.17 43.74 L 787.15 43.74 L 801.61 43.74 L 818.83 43.74 L 823.60 43.74 L 837.11 43.74 L 841.88 43.74 L 841.96 43.74 L 842.02 43.74 L 842.15 43.74 L 850.77 43.74 L 851.05 43.74 L 863.73 43.74 L 865.59 43.74 L 866.13 43.74 L 871.64 43.74 L 883.71 43.74 L 884.04 43.74 L 884.67 43.74 L 890.83 43.74 L 902.18 43.74 L 905.12 43.74 L 905.98 43.74 L 908.52 43.74 L 911.09 43.74 L 911.98 43.74 L 914.81 43.74 L 914.85 43.74 L 927.81 43.74 L 931.65 43.74 L 936.11 43.74 L 936.36 43.74 L 936.62 43.74 L 944.06 43.74 L 948.26 43.74 L 949.14 43.74 L 951.64 43.74 L 951.76 43.74 L 953.06 43.74 L 953.69 43.74 L 953.94 43.74 L 955.16 43.74 L 956.89 43.74 L 965.22 43.74 L 969.68 43.74 L 978.91 43.74 L 986.37 43.74 L 991.07 43.74 L 994.79 43.74 L 996.67 43.74 L 1000.15 43.74 L 1000.60 43.74 L 1007.87 43.74 L 1007.95 43.74 L 1010.74 43.74 L 1012.03 43.74 L 1012.78 43.74 L 1015.57 43.74 L 1015.61 43.74 L 1016.04 43.74 L 1017.91 43.74 L 1021.19 43.74 L 1033.99 43.74 L 1039.24 43.74 L 1051.95 43.74 L 1053.47 43.74 L 1055.10 43.74 L 1057.52 43.74 L 1057.55 43.74 L 1057.69 43.74 L 1058.23 43.74 L 1058.23 44.36 L 1057.69 46.93 L 1057.55 48.79 L 1057.52 51.20 L 1055.10 46.14 L 1053.47 48.68 L 1051.95 50.95 L 1039.24 45.90 L 1033.99 47.93 L 1021.19 50.51 L 1017.91 53.08 L 1016.04 55.36 L 1015.61 57.43 L 1015.57 60.10 L 1012.78 55.13 L 1012.03 56.46 L 1010.74 56.04 L 1007.95 55.77 L 1007.87 56.60 L 1000.60 51.59 L 1000.15 53.86 L 996.67 56.78 L 994.79 51.77 L 991.07 54.72 L 986.37 55.72 L 978.91 58.53 L 969.68 59.44 L 965.22 61.72 L 956.89 62.64 L 955.16 65.20 L 953.94 66.06 L 953.69 66.80 L 953.06 68.87 L 951.76 70.60 L 951.64 70.08 L 949.14 65.21 L 948.26 64.79 L 944.06 66.78 L 936.62 66.98 L 936.36 68.81 L 936.11 63.92 L 931.65 66.68 L 927.81 65.44 L 914.85 65.75 L 914.81 68.51 L 911.98 63.61 L 911.09 66.18 L 908.52 67.33 L 905.98 70.08 L 905.12 72.02 L 902.18 67.15 L 890.83 68.97 L 884.67 69.98 L 884.04 65.10 L 883.71 66.12 L 871.64 66.16 L 866.13 67.51 L 865.59 69.99 L 863.73 72.72 L 851.05 67.85 L 850.77 70.31 L 842.15 72.08 L 842.02 72.08 L 841.96 67.21 L 841.88 62.33 L 837.11 57.37 L 823.60 56.65 L 818.83 58.40 L 801.61 56.84 L 787.15 58.49 L 780.17 59.72 L 777.91 60.41 L 777.84 61.70 L 765.20 56.73 L 765.05 56.95 L 762.93 57.90 L 762.47 58.11 L 760.79 60.04 L 740.68 62.54 L 738.37 62.52 L 738.11 62.26 L 737.24 63.70 L 736.63 65.35 L 735.75 63.57 L 735.67 64.40 L 723.02 67.15 L 722.94 67.84 L 722.93 62.98 L 722.80 58.04 L 717.02 53.05 L 713.11 51.38 L 710.86 50.95 L 692.49 45.89 L 680.80 48.33 L 680.51 50.27 L 680.36 53.09 L 680.23 54.64 L 680.16 55.90 L 679.57 50.89 L 677.24 45.83 L 676.59 48.67 L 674.81 50.26 L 673.66 49.60 L 670.69 51.58 L 670.16 46.52 L 667.30 48.82 Z" fill="#d0d0d0" fill-opacity="0.5" stroke="none"/>
<path d="M 1073.01 37.95 L 1078.78 37.95 L 1078.78 40.79 L 1073.01 43.09 Z" fill="#d0d0d0" fill-opacity="0.5" stroke="none"/>
<path d="M 1103.36 28.23 L 1104.05 28.23 L 1115.82 28.23 L 1118.41 28.23 L 1119.25 28.23 L 1121.21 28.23 L 1122.72 28.23 L 1128.11 28.23 L 1128.57 28.23 L 1137.65 28.23 L 1138.94 28.23 L 1138.94 30.88 L 1137.65 30.78 L 1128.57 32.58 L 1128.11 32.27 L 1122.72 32.86 L 1121.21 31.59 L 1119.25 34.05 L 1118.41 28.84 L 1115.82 29.11 L 1104.05 31.17 L 1103.36 33.44 Z" fill="#d0d0d0" fill-opacity="0.5" stroke="none"/>
<path d="M 1161.89 25.00 L 1165.23 25.00 L 1170.00 25.00 L 1170.00 26.58 L 1165.23 28.70 L 1161.89 30.25 Z" fill="#d0d0d0" fill-opacity="0.5" stroke="none"/>
<polyline fill="none" stroke="#111" stroke-width="1.2" points="70.00,108.41 75.63,105.89 82.68,103.89 83.28,104.13 90.04,102.95 97.71,102.09 98.12,100.64 102.58,101.59 115.74,100.58 117.64,98.87 122.64,96.45 142.05,93.85 165.31,91.89 166.36,89.29 167.30,86.67 168.15,84.25 180.60,88.94 183.45,88.46 186.42,93.11 189.45,90.50 201.86,95.12 204.89,99.71 207.79,99.40 208.78,103.93 208.82,102.11 211.11,99.78 222.59,104.31 226.19,103.16 229.62,101.36 232.29,105.88 243.64,104.16 244.20,102.22 247.57,106.73 250.53,106.35 268.90,105.07 274.31,105.80 293.38,106.59 310.31,104.70 310.76,102.60 314.95,100.78 336.01,99.24 338.77,96.89 360.23,95.80 367.32,94.05 367.44,98.65 377.77,97.14 396.48,95.67 399.87,93.07 400.96,90.46 402.22,95.09 403.07,96.22 411.46,94.70 415.32,99.29 417.88,97.23 424.35,95.04 431.78,99.62 433.51,99.44 436.38,97.72 441.59,102.29 442.28,100.33 442.72,98.05 443.02,102.61 443.04,100.48 444.06,98.16 444.11,95.96 444.31,94.40 444.64,91.81 444.75,89.83 445.36,87.44 445.63,85.98 445.69,83.35 445.82,80.71 452.65,77.90 453.00,75.22 453.25,74.19 453.89,78.98 454.00,79.23 454.11,77.35 454.29,74.82 454.53,73.97 454.67,78.77 454.80,80.12 454.87,80.07 455.08,84.80 455.92,82.86 456.52,81.28 457.10,78.81 460.99,76.84 463.15,81.61 463.21,79.35 466.74,77.34 466.89,74.86 467.06,73.60 467.18,72.06 474.54,76.88 474.60,75.26 474.75,73.20 475.78,71.84 476.19,69.54 477.45,67.38 478.26,65.89 478.38,63.82 479.21,61.32 479.49,59.02 479.64,63.95 481.89,68.85 481.89,66.02 482.02,70.89 482.14,68.76 482.28,66.31 482.66,65.49 483.59,63.98 484.26,68.87 484.27,66.05 484.78,65.07 485.22,62.34 485.60,67.25 485.60,72.09 485.74,76.85 486.43,74.79 486.73,74.56 487.02,72.90 487.26,70.52 487.45,70.57 487.48,75.40 488.11,73.65 488.23,71.55 496.63,76.37 498.76,74.22 499.69,74.36 500.42,71.89 500.69,70.42 500.99,68.27 501.92,67.89 503.33,66.34 505.39,66.31 506.34,63.78 506.65,61.40 506.71,58.94 506.83,63.87 506.88,62.01 507.00,60.57 508.66,59.19 508.85,64.13 509.40,62.70 509.89,60.22 520.90,65.16 521.21,66.57 521.27,66.36 521.77,71.23 521.80,76.03 521.85,74.29 521.96,72.38 525.06,69.87 526.30,68.27 527.94,67.63 530.70,72.47 530.81,72.29 531.09,69.59 538.32,67.45 542.52,65.52 543.26,63.02 545.98,61.15 548.02,66.08 549.16,70.95 552.42,69.48 559.47,66.75 560.87,66.32 564.01,67.74 564.58,65.56 581.12,63.29 583.09,61.00 588.80,58.24 589.38,63.18 591.21,61.35 592.08,58.59 595.26,56.91 606.38,54.12 609.56,51.33 612.50,56.34 613.24,54.92 613.39,59.90 616.05,57.12 616.11,55.33 628.48,53.03 637.45,51.99 648.94,49.19 649.75,49.09 650.03,47.82 653.06,47.73 655.80,46.18 658.95,43.74 667.30,48.82 670.16,46.52 670.69,51.58 673.66,49.60 674.81,50.26 676.59,48.67 677.24,45.83 679.57,50.89 680.16,55.90 680.23,54.64 680.36,53.09 680.51,50.27 680.80,48.33 692.49,45.89 710.86,50.95 713.11,51.38 717.02,53.05 722.80,58.04 722.93,62.98 722.94,67.84 723.02,67.15 735.67,64.40 735.75,63.57 736.63,65.35 737.24,63.70 738.11,62.26 738.37,62.52 740.68,62.54 760.79,60.04 762.47,58.11 762.93,57.90 765.05,56.95 765.20,56.73 777.84,61.70 777.91,60.41 780.17,59.72 787.15,58.49 801.61,56.84 818.83,58.40 823.60,56.65 837.11,57.37 841.88,62.33 841.96,67.21 842.02,72.08 842.15,72.08 850.77,70.31 851.05,67.85 863.73,72.72 865.59,69.99 866.13,67.51 871.64,66.16 883.71,66.12 884.04,65.10 884.67,69.98 890.83,68.97 902.18,67.15 905.12,72.02 905.98,70.08 908.52,67.33 911.09,66.18 911.98,63.61 914.81,68.51 914.85,65.75 927.81,65.44 931.65,66.68 936.11,63.92 936.36,68.81 936.62,66.98 944.06,66.78 948.26,64.79 949.14,65.21 951.64,70.08 951.76,70.60 953.06,68.87 953.69,66.80 953.94,66.06 955.16,65.20 956.89,62.64 965.22,61.72 969.68,59.44 978.91,58.53 986.37,55.72 991.07,54.72 994.79,51.77 996.67,56.78 1000.15,53.86 1000.60,51.59 1007.87,56.60 1007.95,55.77 1010.74,56.04 1012.03,56.46 1012.78,55.13 1015.57,60.10 1015.61,57.43 1016.04,55.36 1017.91,53.08 1021.19,50.51 1033.99,47.93 1039.24,45.90 1051.95,50.95 1053.47,48.68 1055.10,46.14 1057.52,51.20 1057.55,48.79 1057.69,46.93 1058.23,44.36 1063.70,42.14 1071.73,40.55 1072.62,37.95 1073.01,43.09 1078.78,40.79 1079.84,37.79 1082.55,35.32 1082.65,32.40 1082.88,30.14 1085.88,29.40 1094.37,28.23 1103.36,33.44 1104.05,31.17 1115.82,29.11 1118.41,28.84 1119.25,34.05 1121.21,31.59 1122.72,32.86 1128.11,32.27 1128.57,32.58 1137.65,30.78 1138.94,30.88 1146.83,27.95 1160.04,25.00 1161.89,30.25 1165.23,28.70 1170.00,26.58"/>
<text x="620.0" y="588" text-anchor="middle" font-family="sans-serif" font-size="12" fill="#333">UTC time</text>
<text x="15" y="287.5" transform="rotate(-90 15,287.5)" text-anchor="middle" font-family="sans-serif" font-size="12" fill="#333">Capital</text>
</svg>