<svg xmlns="http://www.w3.org/2000/svg" width="1200" height="600" viewBox="0 0 1200 600">
<desc>Equity curve with drawdown fill; x-axis is months only (no exact timestamps)</desc>
<text x="600.0" y="18.0" text-anchor="middle" font-family="sans-serif" font-size="14">Portfolio 2009 (UTC)</text>
<rect x="70" y="25" width="1100" height="525" fill="white" stroke="#ccc" />
<line x1="70" y1="550.00" x2="1170" y2="550.00" stroke="#eee"/>
<text x="62" y="554.0" text-anchor="end" font-family="sans-serif" font-size="11" fill="#555">0.00</text>
<line x1="70" y1="445.00" x2="1170" y2="445.00" stroke="#eee"/>
<text x="62" y="449.0" text-anchor="end" font-family="sans-serif" font-size="11" fill="#555">28958</text>
<line x1="70" y1="340.00" x2="1170" y2="340.00" stroke="#eee"/>
<text x="62" y="344.0" text-anchor="end" font-family="sans-serif" font-size="11" fill="#555">57916</text>
<line x1="70" y1="235.00" x2="1170" y2="235.00" stroke="#eee"/>
<text x="62" y="239.0" text-anchor="end" font-family="sans-serif" font-size="11" fill="#555">86874</text>
<line x1="70" y1="130.00" x2="1170" y2="130.00" stroke="#eee"/>
<text x="62" y="134.0" text-anchor="end" font-family="sans-serif" font-size="11" fill="#555">115832</text>
<line x1="70" y1="25.00" x2="1170" y2="25.00" stroke="#eee"/>
<text x="62" y="29.0" text-anchor="end" font-family="sans-serif" font-size="11" fill="#555">144790</text>
<line x1="161.67" y1="25" x2="161.67" y2="550" stroke="#f2f2f2"/>
<line x1="253.33" y1="25" x2="253.33" y2="550" stroke="#f2f2f2"/>
<line x1="345.00" y1="25" x2="345.00" y2="550" stroke="#f2f2f2"/>
<line x1="436.67" y1="25" x2="436.67" y2="550" stroke="#f2f2f2"/>
<line x1="528.33" y1="25" x2="528.33" y2="550" stroke="#f2f2f2"/>
<line x1="620.00" y1="25" x2="620.00" y2="550" stroke="#f2f2f2"/>
<line x1="711.67" y1="25" x2="711.67" y2="550" stroke="#f2f2f2"/>
<line x1="803.33" y1="25" x2="803.33" y2="550" stroke="#f2f2f2"/>
<line x1="895.00" y1="25" x2="895.00" y2="550" stroke="#f2f2f2"/>
<line x1="986.67" y1="25" x2="986.67" y2="550" stroke="#f2f2f2"/>
<line x1="1078.33" y1="25" x2="1078.33" y2="550" stroke="#f2f2f2"/>
<text x="115.83" y="566.00" text-anchor="middle" font-family="sans-serif" font-size="11" fill="#444">Jan</text>
<text x="207.50" y="566.00" text-anchor="middle" font-family="sans-serif" font-size="11" fill="#444">Feb</text>
<text x="299.17" y="566.00" text-anchor="middle" font-family="sans-serif" font-size="11" fill="#444">Mar</text>
<text x="390.83" y="566.00" text-anchor="middle" font-family="sans-serif" font-size="11" fill="#444">Apr</text>
<text x="482.50" y="566.00" text-anchor="middle" font-family="sans-serif" font-size="11" fill="#444">May</text>
<text x="574.17" y="566.00" text-anchor="middle" font-family="sans-serif" font-size="11" fill="#444">Jun</text>
<text x="665.83" y="566.00" text-anchor="middle" font-family="sans-serif" font-size="11" fill="#444">Jul</text>
<text x="757.50" y="566.00" text-anchor="middle" font-family="sans-serif" font-size="11" fill="#444">Aug</text>
<text x="849.17" y="566.00" text-anchor="middle" font-family="sans-serif" font-size="11" fill="#444">Sep</text>
<text x="940.83" y="566.00" text-anchor="middle" font-family="sans-serif" font-size="11" fill="#444">Oct</text>
<text x="1032.50" y="566.00" text-anchor="middle" font-family="sans-serif" font-size="11" fill="#444">Nov</text>
<text x="1124.17" y="566.00" text-anchor="middle" font-family="sans-serif" font-size="11" fill="#444">Dec</text>
<line x1="70" y1="550" x2="1170" y2="550" stroke="#888"/>
<line x1="70" y1="25" x2="70" y2="550" stroke="#888"/>
<line x1="70.72" y1="550.00" x2="70.72" y2="556.00" stroke="#888"/>
<line x1="1164.27"   y1="550.00" x2="1164.27"   y2="556.00" stroke="#888"/>
<text x="70.72" y="582.00" text-anchor="start" font-family="sans-serif" font-size="11" fill="#333">Initial Balance: 117964</text>
<text x="1164.27"   y="582.00" text-anchor="end"   font-family="sans-serif" font-size="11" fill="#333">Ending Balance: 143398</text>
<path d="M 77.88 116.31 L 79.31 116.31 L 80.74 116.31 L 82.17 116.31 L 83.61 116.31 L 85.04 116.31 L 86.47 116.31 L 87.90 116.31 L 89.34 116.31 L 90.77 116.31 L 92.20 116.31 L 93.63 116.31 L 93.63 117.45 L 92.20 119.27 L 90.77 121.68 L 89.34 123.82 L 87.90 124.49 L 86.47 120.13 L 85.04 122.27 L 83.61 124.59 L 82.17 126.95 L 80.74 129.32 L 79.31 125.02 L 77.88 120.70 Z" fill="#d0d0d0" fill-opacity="0.5" stroke="none"/>
<path d="M 113.68 93.44 L 115.12 93.44 L 115.12 93.58 L 113.68 94.35 Z" fill="#d0d0d0" fill-opacity="0.5" stroke="none"/>
<path d="M 120.85 86.27 L 122.28 86.27 L 123.71 86.27 L 125.14 86.27 L 126.58 86.27 L 128.01 86.27 L 128.01 87.34 L 126.58 89.90 L 125.14 92.46 L 123.71 93.31 L 122.28 88.64 L 120.85 90.95 Z" fill="#d0d0d0" fill-opacity="0.5" stroke="none"/>
<path d="M 133.74 81.74 L 135.17 81.74 L 136.60 81.74 L 138.03 81.74 L 139.47 81.74 L 140.90 81.74 L 142.33 81.74 L 143.76 81.74 L 145.20 81.74 L 146.63 81.74 L 148.06 81.74 L 149.49 81.74 L 150.92 81.74 L 150.92 83.18 L 149.49 85.78 L 148.06 88.35 L 146.63 90.04 L 145.20 92.60 L 143.76 94.14 L 142.33 89.48 L 140.90 91.98 L 139.47 87.32 L 138.03 89.36 L 136.60 91.79 L 135.17 87.10 L 133.74 86.47 Z" fill="#d0d0d0" fill-opacity="0.5" stroke="none"/>
<path d="M 155.22 79.25 L 156.65 79.25 L 158.09 79.25 L 159.52 79.25 L 160.95 79.25 L 162.98 79.25 L 165.60 79.25 L 168.21 79.25 L 170.83 79.25 L 173.45 79.25 L 173.45 80.51 L 170.83 82.54 L 168.21 84.86 L 165.60 86.15 L 162.98 81.42 L 160.95 83.78 L 159.52 86.36 L 158.09 87.21 L 156.65 88.67 L 155.22 84.00 Z" fill="#d0d0d0" fill-opacity="0.5" stroke="none"/>
<path d="M 181.31 76.13 L 183.93 76.13 L 186.55 76.13 L 189.17 76.13 L 191.79 76.13 L 194.40 76.13 L 197.02 76.13 L 199.64 76.13 L 202.26 76.13 L 204.88 76.13 L 207.50 76.13 L 210.12 76.13 L 210.12 77.57 L 207.50 80.18 L 204.88 80.47 L 202.26 82.86 L 199.64 85.29 L 197.02 86.99 L 194.40 82.29 L 191.79 85.00 L 189.17 80.25 L 186.55 81.89 L 183.93 82.27 L 181.31 77.50 Z" fill="#d0d0d0" fill-opacity="0.5" stroke="none"/>
<path d="M 231.07 64.82 L 233.69 64.82 L 236.31 64.82 L 238.93 64.82 L 241.55 64.82 L 244.17 64.82 L 246.79 64.82 L 249.40 64.82 L 252.02 64.82 L 254.64 64.82 L 257.26 64.82 L 259.88 64.82 L 262.50 64.82 L 265.12 64.82 L 267.74 64.82 L 270.36 64.82 L 272.98 64.82 L 275.60 64.82 L 278.21 64.82 L 280.83 64.82 L 283.45 64.82 L 286.07 64.82 L 288.69 64.82 L 291.31 64.82 L 293.93 64.82 L 296.55 64.82 L 299.17 64.82 L 301.79 64.82 L 304.40 64.82 L 307.02 64.82 L 309.64 64.82 L 312.26 64.82 L 314.88 64.82 L 317.50 64.82 L 320.12 64.82 L 322.74 64.82 L 325.36 64.82 L 327.98 64.82 L 330.60 64.82 L 333.21 64.82 L 335.83 64.82 L 338.45 64.82 L 341.07 64.82 L 343.69 64.82 L 347.29 64.82 L 351.88 64.82 L 356.46 64.82 L 361.04 64.82 L 365.62 64.82 L 370.21 64.82 L 374.79 64.82 L 379.38 64.82 L 383.96 64.82 L 388.54 64.82 L 393.12 64.82 L 397.71 64.82 L 402.29 64.82 L 406.88 64.82 L 411.46 64.82 L 416.04 64.82 L 420.62 64.82 L 425.21 64.82 L 429.79 64.82 L 434.38 64.82 L 440.19 64.82 L 447.24 64.82 L 454.29 64.82 L 461.35 64.82 L 468.40 64.82 L 475.45 64.82 L 482.50 64.82 L 489.55 64.82 L 489.55 65.55 L 482.50 68.24 L 475.45 70.92 L 468.40 73.27 L 461.35 75.92 L 454.29 78.57 L 447.24 81.20 L 440.19 82.88 L 434.38 85.14 L 429.79 87.73 L 425.21 83.01 L 420.62 81.82 L 416.04 83.43 L 411.46 84.40 L 406.88 86.44 L 402.29 88.15 L 397.71 83.43 L 393.12 86.03 L 388.54 84.56 L 383.96 86.65 L 379.38 88.44 L 374.79 83.73 L 370.21 84.33 L 365.62 86.94 L 361.04 88.76 L 356.46 89.42 L 351.88 91.38 L 347.29 93.66 L 343.69 96.21 L 341.07 97.63 L 338.45 99.91 L 335.83 101.80 L 333.21 97.25 L 330.60 92.62 L 327.98 94.63 L 325.36 95.90 L 322.74 98.28 L 320.12 93.66 L 317.50 94.01 L 314.88 95.34 L 312.26 95.97 L 309.64 91.33 L 307.02 93.69 L 304.40 95.38 L 301.79 90.77 L 299.17 86.08 L 296.55 88.54 L 293.93 83.82 L 291.31 86.01 L 288.69 88.31 L 286.07 88.89 L 283.45 89.68 L 280.83 91.55 L 278.21 93.53 L 275.60 94.03 L 272.98 89.37 L 270.36 91.23 L 267.74 90.36 L 265.12 85.66 L 262.50 87.07 L 259.88 88.74 L 257.26 84.03 L 254.64 85.52 L 252.02 87.56 L 249.40 82.84 L 246.79 78.07 L 244.17 79.86 L 241.55 81.44 L 238.93 84.05 L 236.31 79.33 L 233.69 74.53 L 231.07 69.68 Z" fill="#d0d0d0" fill-opacity="0.5" stroke="none"/>
<path d="M 510.71 62.45 L 517.76 62.45 L 524.81 62.45 L 531.61 62.45 L 538.15 62.45 L 544.70 62.45 L 551.25 62.45 L 557.80 62.45 L 564.35 62.45 L 570.89 62.45 L 577.44 62.45 L 583.99 62.45 L 590.54 62.45 L 597.08 62.45 L 603.63 62.45 L 610.18 62.45 L 616.73 62.45 L 625.09 62.45 L 635.28 62.45 L 645.46 62.45 L 645.46 63.39 L 635.28 63.90 L 625.09 65.34 L 616.73 68.05 L 610.18 67.93 L 603.63 70.63 L 597.08 71.75 L 590.54 72.41 L 583.99 73.71 L 577.44 76.11 L 570.89 78.57 L 564.35 73.77 L 557.80 75.96 L 551.25 71.14 L 544.70 73.81 L 538.15 75.24 L 531.61 76.94 L 524.81 72.12 L 517.76 67.26 L 510.71 67.36 Z" fill="#d0d0d0" fill-opacity="0.5" stroke="none"/>
<path d="M 696.39 56.18 L 706.57 56.18 L 726.94 56.18 L 757.50 56.18 L 757.50 56.64 L 726.94 59.39 L 706.57 61.14 L 696.39 61.14 Z" fill="#d0d0d0" fill-opacity="0.5" stroke="none"/>
<path d="M 809.06 55.55 L 820.52 55.55 L 831.98 55.55 L 843.44 55.55 L 843.44 55.62 L 831.98 56.21 L 820.52 58.95 L 809.06 60.52 Z" fill="#d0d0d0" fill-opacity="0.5" stroke="none"/>
<path d="M 877.81 50.43 L 889.27 50.43 L 901.55 50.43 L 914.64 50.43 L 914.64 51.84 L 901.55 54.22 L 889.27 53.70 L 877.81 55.41 Z" fill="#d0d0d0" fill-opacity="0.5" stroke="none"/>
<path d="M 1055.42 33.64 L 1070.69 33.64 L 1084.06 33.64 L 1084.06 35.02 L 1070.69 37.68 L 1055.42 38.80 Z" fill="#d0d0d0" fill-opacity="0.5" stroke="none"/>
<path d="M 1152.81 25.00 L 1164.27 25.00 L 1164.27 30.05 L 1152.81 30.23 Z" fill="#d0d0d0" fill-opacity="0.5" stroke="none"/>
<polyline fill="none" stroke="#111" stroke-width="1.2" points="70.72,122.27 72.15,122.00 73.58,120.97 75.01,118.73 76.45,116.31 77.88,120.70 79.31,125.02 80.74,129.32 82.17,126.95 83.61,124.59 85.04,122.27 86.47,120.13 87.90,124.49 89.34,123.82 90.77,121.68 92.20,119.27 93.63,117.45 95.07,115.98 96.50,113.42 97.93,113.30 99.36,110.84 100.79,108.37 102.23,106.24 103.66,104.64 105.09,102.68 106.52,100.41 107.96,98.07 109.39,95.91 110.82,93.71 112.25,93.44 113.68,94.35 115.12,93.58 116.55,91.19 117.98,88.85 119.41,86.27 120.85,90.95 122.28,88.64 123.71,93.31 125.14,92.46 126.58,89.90 128.01,87.34 129.44,85.65 130.87,83.29 132.30,81.74 133.74,86.47 135.17,87.10 136.60,91.79 138.03,89.36 139.47,87.32 140.90,91.98 142.33,89.48 143.76,94.14 145.20,92.60 146.63,90.04 148.06,88.35 149.49,85.78 150.92,83.18 152.36,80.58 153.79,79.25 155.22,84.00 156.65,88.67 158.09,87.21 159.52,86.36 160.95,83.78 162.98,81.42 165.60,86.15 168.21,84.86 170.83,82.54 173.45,80.51 176.07,78.39 178.69,76.13 181.31,77.50 183.93,82.27 186.55,81.89 189.17,80.25 191.79,85.00 194.40,82.29 197.02,86.99 199.64,85.29 202.26,82.86 204.88,80.47 207.50,80.18 210.12,77.57 212.74,74.95 215.36,74.46 217.98,72.01 220.60,71.31 223.21,69.73 225.83,67.61 228.45,64.82 231.07,69.68 233.69,74.53 236.31,79.33 238.93,84.05 241.55,81.44 244.17,79.86 246.79,78.07 249.40,82.84 252.02,87.56 254.64,85.52 257.26,84.03 259.88,88.74 262.50,87.07 265.12,85.66 267.74,90.36 270.36,91.23 272.98,89.37 275.60,94.03 278.21,93.53 280.83,91.55 283.45,89.68 286.07,88.89 288.69,88.31 291.31,86.01 293.93,83.82 296.55,88.54 299.17,86.08 301.79,90.77 304.40,95.38 307.02,93.69 309.64,91.33 312.26,95.97 314.88,95.34 317.50,94.01 320.12,93.66 322.74,98.28 325.36,95.90 327.98,94.63 330.60,92.62 333.21,97.25 335.83,101.80 338.45,99.91 341.07,97.63 343.69,96.21 347.29,93.66 351.88,91.38 356.46,89.42 361.04,88.76 365.62,86.94 370.21,84.33 374.79,83.73 379.38,88.44 383.96,86.65 388.54,84.56 393.12,86.03 397.71,83.43 402.29,88.15 406.88,86.44 411.46,84.40 416.04,83.43 420.62,81.82 425.21,83.01 429.79,87.73 434.38,85.14 440.19,82.88 447.24,81.20 454.29,78.57 461.35,75.92 468.40,73.27 475.45,70.92 482.50,68.24 489.55,65.55 496.60,64.17 503.65,62.45 510.71,67.36 517.76,67.26 524.81,72.12 531.61,76.94 538.15,75.24 544.70,73.81 551.25,71.14 557.80,75.96 564.35,73.77 570.89,78.57 577.44,76.11 583.99,73.71 590.54,72.41 597.08,71.75 603.63,70.63 610.18,67.93 616.73,68.05 625.09,65.34 635.28,63.90 645.46,63.39 655.65,60.67 665.83,59.05 676.02,56.55 686.20,56.18 696.39,61.14 706.57,61.14 726.94,59.39 757.50,56.64 788.06,55.55 809.06,60.52 820.52,58.95 831.98,56.21 843.44,55.62 854.90,53.32 866.35,50.43 877.81,55.41 889.27,53.70 901.55,54.22 914.64,51.84 927.74,49.52 940.83,47.95 953.93,46.59 967.02,44.35 980.12,42.13 994.31,40.56 1009.58,37.70 1024.86,35.70 1040.14,33.64 1055.42,38.80 1070.69,37.68 1084.06,35.02 1095.52,33.53 1106.98,31.23 1118.44,29.15 1129.90,26.51 1141.35,25.00 1152.81,30.23 1164.27,30.05"/>
<text x="620.0" y="588" text-anchor="middle" font-family="sans-serif" font-size="12" fill="#333">Monthly Balance Curve</text>
<text x="15" y="287.5" transform="rotate(-90 15,287.5)" text-anchor="middle" font-family="sans-serif" font-size="12" fill="#333">Capital</text>
</svg>