<svg xmlns="http://www.w3.org/2000/svg" width="1200" height="600" viewBox="0 0 1200 600">
<desc>Equity curve with drawdown fill; x-axis is months only (no exact timestamps)</desc>
<text x="600.0" y="18.0" text-anchor="middle" font-family="sans-serif" font-size="14">Balance Curve 2004 (UTC)</text>
<rect x="70" y="25" width="1100" height="525" fill="white" stroke="#ccc" />
<line x1="70" y1="550.00" x2="1170" y2="550.00" stroke="#eee"/>
<text x="62" y="554.0" text-anchor="end" font-family="sans-serif" font-size="11" fill="#555">0.00</text>
<line x1="70" y1="445.00" x2="1170" y2="445.00" stroke="#eee"/>
<text x="62" y="449.0" text-anchor="end" font-family="sans-serif" font-size="11" fill="#555">22221</text>
<line x1="70" y1="340.00" x2="1170" y2="340.00" stroke="#eee"/>
<text x="62" y="344.0" text-anchor="end" font-family="sans-serif" font-size="11" fill="#555">44441</text>
<line x1="70" y1="235.00" x2="1170" y2="235.00" stroke="#eee"/>
<text x="62" y="239.0" text-anchor="end" font-family="sans-serif" font-size="11" fill="#555">66662</text>
<line x1="70" y1="130.00" x2="1170" y2="130.00" stroke="#eee"/>
<text x="62" y="134.0" text-anchor="end" font-family="sans-serif" font-size="11" fill="#555">88882</text>
<line x1="70" y1="25.00" x2="1170" y2="25.00" stroke="#eee"/>
<text x="62" y="29.0" text-anchor="end" font-family="sans-serif" font-size="11" fill="#555">111103</text>
<line x1="161.67" y1="25" x2="161.67" y2="550" stroke="#f2f2f2"/>
<line x1="253.33" y1="25" x2="253.33" y2="550" stroke="#f2f2f2"/>
<line x1="345.00" y1="25" x2="345.00" y2="550" stroke="#f2f2f2"/>
<line x1="436.67" y1="25" x2="436.67" y2="550" stroke="#f2f2f2"/>
<line x1="528.33" y1="25" x2="528.33" y2="550" stroke="#f2f2f2"/>
<line x1="620.00" y1="25" x2="620.00" y2="550" stroke="#f2f2f2"/>
<line x1="711.67" y1="25" x2="711.67" y2="550" stroke="#f2f2f2"/>
<line x1="803.33" y1="25" x2="803.33" y2="550" stroke="#f2f2f2"/>
<line x1="895.00" y1="25" x2="895.00" y2="550" stroke="#f2f2f2"/>
<line x1="986.67" y1="25" x2="986.67" y2="550" stroke="#f2f2f2"/>
<line x1="1078.33" y1="25" x2="1078.33" y2="550" stroke="#f2f2f2"/>
<text x="115.83" y="566.00" text-anchor="middle" font-family="sans-serif" font-size="11" fill="#444">Jan</text>
<text x="207.50" y="566.00" text-anchor="middle" font-family="sans-serif" font-size="11" fill="#444">Feb</text>
<text x="299.17" y="566.00" text-anchor="middle" font-family="sans-serif" font-size="11" fill="#444">Mar</text>
<text x="390.83" y="566.00" text-anchor="middle" font-family="sans-serif" font-size="11" fill="#444">Apr</text>
<text x="482.50" y="566.00" text-anchor="middle" font-family="sans-serif" font-size="11" fill="#444">May</text>
<text x="574.17" y="566.00" text-anchor="middle" font-family="sans-serif" font-size="11" fill="#444">Jun</text>
<text x="665.83" y="566.00" text-anchor="middle" font-family="sans-serif" font-size="11" fill="#444">Jul</text>
<text x="757.50" y="566.00" text-anchor="middle" font-family="sans-serif" font-size="11" fill="#444">Aug</text>
<text x="849.17" y="566.00" text-anchor="middle" font-family="sans-serif" font-size="11" fill="#444">Sep</text>
<text x="940.83" y="566.00" text-anchor="middle" font-family="sans-serif" font-size="11" fill="#444">Oct</text>
<text x="1032.50" y="566.00" text-anchor="middle" font-family="sans-serif" font-size="11" fill="#444">Nov</text>
<text x="1124.17" y="566.00" text-anchor="middle" font-family="sans-serif" font-size="11" fill="#444">Dec</text>
<line x1="70" y1="550" x2="1170" y2="550" stroke="#888"/>
<line x1="70" y1="25" x2="70" y2="550" stroke="#888"/>
<line x1="71.91" y1="550.00" x2="71.91" y2="556.00" stroke="#888"/>
<line x1="1163.45"   y1="550.00" x2="1163.45"   y2="556.00" stroke="#888"/>
<text x="71.91" y="582.00" text-anchor="start" font-family="sans-serif" font-size="11" fill="#333">Initial Balance: 100000</text>
<text x="1163.45"   y="582.00" text-anchor="end"   font-family="sans-serif" font-size="11" fill="#333">Ending Balance: 107933</text>
<path d="M 83.37 75.11 L 87.19 75.11 L 91.01 75.11 L 91.01 77.42 L 87.19 78.21 L 83.37 79.92 Z" fill="#d0d0d0" fill-opacity="0.5" stroke="none"/>
<path d="M 98.65 74.86 L 102.47 74.86 L 106.28 74.86 L 110.10 74.86 L 113.92 74.86 L 117.74 74.86 L 121.56 74.86 L 125.38 74.86 L 129.20 74.86 L 133.02 74.86 L 136.84 74.86 L 140.66 74.86 L 144.48 74.86 L 148.30 74.86 L 152.12 74.86 L 155.94 74.86 L 159.76 74.86 L 165.49 74.86 L 173.12 74.86 L 180.76 74.86 L 188.40 74.86 L 196.04 74.86 L 203.68 74.86 L 211.32 74.86 L 211.32 77.10 L 203.68 78.69 L 196.04 81.24 L 188.40 81.05 L 180.76 82.00 L 173.12 84.53 L 165.49 86.22 L 159.76 81.47 L 155.94 83.53 L 152.12 86.04 L 148.30 88.26 L 144.48 90.73 L 140.66 86.08 L 136.84 88.70 L 133.02 90.96 L 129.20 86.33 L 125.38 84.26 L 121.56 88.94 L 117.74 86.89 L 113.92 86.77 L 110.10 82.01 L 106.28 77.25 L 102.47 79.93 L 98.65 75.11 Z" fill="#d0d0d0" fill-opacity="0.5" stroke="none"/>
<path d="M 262.50 66.34 L 268.61 66.34 L 274.72 66.34 L 274.72 66.79 L 268.61 69.16 L 262.50 71.26 Z" fill="#d0d0d0" fill-opacity="0.5" stroke="none"/>
<path d="M 305.28 57.19 L 311.39 57.19 L 317.50 57.19 L 323.61 57.19 L 329.72 57.19 L 335.83 57.19 L 341.94 57.19 L 351.55 57.19 L 364.64 57.19 L 377.74 57.19 L 390.83 57.19 L 403.93 57.19 L 403.93 57.26 L 390.83 59.65 L 377.74 61.48 L 364.64 64.09 L 351.55 59.11 L 341.94 59.12 L 335.83 61.51 L 329.72 63.90 L 323.61 65.27 L 317.50 64.57 L 311.39 67.14 L 305.28 62.19 Z" fill="#d0d0d0" fill-opacity="0.5" stroke="none"/>
<path d="M 457.50 47.74 L 465.83 47.74 L 474.17 47.74 L 482.50 47.74 L 490.83 47.74 L 499.17 47.74 L 499.17 48.03 L 490.83 49.03 L 482.50 50.45 L 474.17 51.07 L 465.83 50.72 L 457.50 52.75 Z" fill="#d0d0d0" fill-opacity="0.5" stroke="none"/>
<path d="M 524.17 44.00 L 532.15 44.00 L 539.79 44.00 L 539.79 46.61 L 532.15 49.31 L 524.17 49.13 Z" fill="#d0d0d0" fill-opacity="0.5" stroke="none"/>
<path d="M 577.99 40.60 L 585.62 40.60 L 593.26 40.60 L 600.90 40.60 L 608.54 40.60 L 616.18 40.60 L 627.64 40.60 L 642.92 40.60 L 658.19 40.60 L 673.47 40.60 L 688.75 40.60 L 704.03 40.60 L 723.12 40.60 L 746.04 40.60 L 768.96 40.60 L 791.88 40.60 L 809.88 40.60 L 822.98 40.60 L 836.07 40.60 L 849.17 40.60 L 862.26 40.60 L 862.26 41.25 L 849.17 43.10 L 836.07 43.26 L 822.98 45.36 L 809.88 47.03 L 791.88 41.88 L 768.96 43.95 L 746.04 46.65 L 723.12 41.53 L 704.03 44.25 L 688.75 45.17 L 673.47 47.32 L 658.19 48.13 L 642.92 48.98 L 627.64 43.90 L 616.18 46.76 L 608.54 48.27 L 600.90 50.50 L 593.26 50.90 L 585.62 45.78 L 577.99 45.77 Z" fill="#d0d0d0" fill-opacity="0.5" stroke="none"/>
<path d="M 961.20 25.00 L 971.39 25.00 L 981.57 25.00 L 998.12 25.00 L 1021.04 25.00 L 1043.96 25.00 L 1066.88 25.00 L 1084.88 25.00 L 1097.98 25.00 L 1111.07 25.00 L 1124.17 25.00 L 1137.26 25.00 L 1150.36 25.00 L 1163.45 25.00 L 1163.45 39.98 L 1150.36 41.73 L 1137.26 36.53 L 1124.17 31.28 L 1111.07 32.74 L 1097.98 34.88 L 1084.88 29.61 L 1066.88 31.83 L 1043.96 30.22 L 1021.04 31.83 L 998.12 29.85 L 981.57 32.62 L 971.39 35.56 L 961.20 30.30 Z" fill="#d0d0d0" fill-opacity="0.5" stroke="none"/>
<polyline fill="none" stroke="#111" stroke-width="1.2" points="71.91,77.46 75.73,76.63 79.55,75.11 83.37,79.92 87.19,78.21 91.01,77.42 94.83,74.86 98.65,75.11 102.47,79.93 106.28,77.25 110.10,82.01 113.92,86.77 117.74,86.89 121.56,88.94 125.38,84.26 129.20,86.33 133.02,90.96 136.84,88.70 140.66,86.08 144.48,90.73 148.30,88.26 152.12,86.04 155.94,83.53 159.76,81.47 165.49,86.22 173.12,84.53 180.76,82.00 188.40,81.05 196.04,81.24 203.68,78.69 211.32,77.10 218.96,74.54 226.60,74.26 234.24,71.92 241.88,69.50 249.51,67.41 256.39,66.34 262.50,71.26 268.61,69.16 274.72,66.79 280.83,64.20 286.94,61.57 293.06,59.83 299.17,57.19 305.28,62.19 311.39,67.14 317.50,64.57 323.61,65.27 329.72,63.90 335.83,61.51 341.94,59.12 351.55,59.11 364.64,64.09 377.74,61.48 390.83,59.65 403.93,57.26 417.02,55.88 430.12,53.22 440.83,50.55 449.17,47.74 457.50,52.75 465.83,50.72 474.17,51.07 482.50,50.45 490.83,49.03 499.17,48.03 507.50,46.21 515.83,44.00 524.17,49.13 532.15,49.31 539.79,46.61 547.43,43.91 555.07,43.47 562.71,41.02 570.35,40.60 577.99,45.77 585.62,45.78 593.26,50.90 600.90,50.50 608.54,48.27 616.18,46.76 627.64,43.90 642.92,48.98 658.19,48.13 673.47,47.32 688.75,45.17 704.03,44.25 723.12,41.53 746.04,46.65 768.96,43.95 791.88,41.88 809.88,47.03 822.98,45.36 836.07,43.26 849.17,43.10 862.26,41.25 875.36,39.77 888.45,37.57 900.09,37.17 910.28,34.42 920.46,33.30 930.65,30.78 940.83,27.99 951.02,25.00 961.20,30.30 971.39,35.56 981.57,32.62 998.12,29.85 1021.04,31.83 1043.96,30.22 1066.88,31.83 1084.88,29.61 1097.98,34.88 1111.07,32.74 1124.17,31.28 1137.26,36.53 1150.36,41.73 1163.45,39.98"/>
<text x="15" y="287.5" transform="rotate(-90 15,287.5)" text-anchor="middle" font-family="sans-serif" font-size="12" fill="#333">USD</text>
</svg>