<svg xmlns="http://www.w3.org/2000/svg" width="1200" height="600" viewBox="0 0 1200 600">
<desc>Equity curve with drawdown fill; x-axis is months only (no exact timestamps)</desc>
<text x="600.0" y="18.0" text-anchor="middle" font-family="sans-serif" font-size="14">Portfolio 2011 (UTC)</text>
<rect x="70" y="25" width="1100" height="525" fill="white" stroke="#ccc" />
<line x1="70" y1="550.00" x2="1170" y2="550.00" stroke="#eee"/>
<text x="62" y="554.0" text-anchor="end" font-family="sans-serif" font-size="11" fill="#555">0.00</text>
<line x1="70" y1="445.00" x2="1170" y2="445.00" stroke="#eee"/>
<text x="62" y="449.0" text-anchor="end" font-family="sans-serif" font-size="11" fill="#555">43447</text>
<line x1="70" y1="340.00" x2="1170" y2="340.00" stroke="#eee"/>
<text x="62" y="344.0" text-anchor="end" font-family="sans-serif" font-size="11" fill="#555">86895</text>
<line x1="70" y1="235.00" x2="1170" y2="235.00" stroke="#eee"/>
<text x="62" y="239.0" text-anchor="end" font-family="sans-serif" font-size="11" fill="#555">130342</text>
<line x1="70" y1="130.00" x2="1170" y2="130.00" stroke="#eee"/>
<text x="62" y="134.0" text-anchor="end" font-family="sans-serif" font-size="11" fill="#555">173789</text>
<line x1="70" y1="25.00" x2="1170" y2="25.00" stroke="#eee"/>
<text x="62" y="29.0" text-anchor="end" font-family="sans-serif" font-size="11" fill="#555">217237</text>
<line x1="161.67" y1="25" x2="161.67" y2="550" stroke="#f2f2f2"/>
<line x1="253.33" y1="25" x2="253.33" y2="550" stroke="#f2f2f2"/>
<line x1="345.00" y1="25" x2="345.00" y2="550" stroke="#f2f2f2"/>
<line x1="436.67" y1="25" x2="436.67" y2="550" stroke="#f2f2f2"/>
<line x1="528.33" y1="25" x2="528.33" y2="550" stroke="#f2f2f2"/>
<line x1="620.00" y1="25" x2="620.00" y2="550" stroke="#f2f2f2"/>
<line x1="711.67" y1="25" x2="711.67" y2="550" stroke="#f2f2f2"/>
<line x1="803.33" y1="25" x2="803.33" y2="550" stroke="#f2f2f2"/>
<line x1="895.00" y1="25" x2="895.00" y2="550" stroke="#f2f2f2"/>
<line x1="986.67" y1="25" x2="986.67" y2="550" stroke="#f2f2f2"/>
<line x1="1078.33" y1="25" x2="1078.33" y2="550" stroke="#f2f2f2"/>
<text x="115.83" y="566.00" text-anchor="middle" font-family="sans-serif" font-size="11" fill="#444">Jan</text>
<text x="207.50" y="566.00" text-anchor="middle" font-family="sans-serif" font-size="11" fill="#444">Feb</text>
<text x="299.17" y="566.00" text-anchor="middle" font-family="sans-serif" font-size="11" fill="#444">Mar</text>
<text x="390.83" y="566.00" text-anchor="middle" font-family="sans-serif" font-size="11" fill="#444">Apr</text>
<text x="482.50" y="566.00" text-anchor="middle" font-family="sans-serif" font-size="11" fill="#444">May</text>
<text x="574.17" y="566.00" text-anchor="middle" font-family="sans-serif" font-size="11" fill="#444">Jun</text>
<text x="665.83" y="566.00" text-anchor="middle" font-family="sans-serif" font-size="11" fill="#444">Jul</text>
<text x="757.50" y="566.00" text-anchor="middle" font-family="sans-serif" font-size="11" fill="#444">Aug</text>
<text x="849.17" y="566.00" text-anchor="middle" font-family="sans-serif" font-size="11" fill="#444">Sep</text>
<text x="940.83" y="566.00" text-anchor="middle" font-family="sans-serif" font-size="11" fill="#444">Oct</text>
<text x="1032.50" y="566.00" text-anchor="middle" font-family="sans-serif" font-size="11" fill="#444">Nov</text>
<text x="1124.17" y="566.00" text-anchor="middle" font-family="sans-serif" font-size="11" fill="#444">Dec</text>
<line x1="70" y1="550" x2="1170" y2="550" stroke="#888"/>
<line x1="70" y1="25" x2="70" y2="550" stroke="#888"/>
<line x1="74.17" y1="550.00" x2="74.17" y2="556.00" stroke="#888"/>
<line x1="1154.72"   y1="550.00" x2="1154.72"   y2="556.00" stroke="#888"/>
<text x="74.17" y="582.00" text-anchor="start" font-family="sans-serif" font-size="11" fill="#333">Initial Balance: 194842</text>
<text x="1154.72"   y="582.00" text-anchor="end"   font-family="sans-serif" font-size="11" fill="#333">Ending Balance: 215890</text>
<path d="M 189.17 55.99 L 207.50 55.99 L 207.50 56.82 L 189.17 57.74 Z" fill="#d0d0d0" fill-opacity="0.5" stroke="none"/>
<path d="M 244.17 54.70 L 259.06 54.70 L 270.52 54.70 L 270.52 55.44 L 259.06 56.91 L 244.17 59.69 Z" fill="#d0d0d0" fill-opacity="0.5" stroke="none"/>
<path d="M 293.44 54.14 L 293.44 54.95 Z" fill="#d0d0d0" fill-opacity="0.5" stroke="none"/>
<path d="M 327.81 52.31 L 327.81 52.98 Z" fill="#d0d0d0" fill-opacity="0.5" stroke="none"/>
<path d="M 356.46 51.17 L 379.38 51.17 L 402.29 51.17 L 425.21 51.17 L 439.36 51.17 L 444.75 51.17 L 450.15 51.17 L 455.54 51.17 L 460.93 51.17 L 466.32 51.17 L 471.72 51.17 L 477.11 51.17 L 482.50 51.17 L 487.89 51.17 L 493.28 51.17 L 498.68 51.17 L 504.07 51.17 L 509.46 51.17 L 514.85 51.17 L 520.25 51.17 L 525.64 51.17 L 532.15 51.17 L 539.79 51.17 L 547.43 51.17 L 555.07 51.17 L 562.71 51.17 L 570.35 51.17 L 577.99 51.17 L 585.62 51.17 L 593.26 51.17 L 600.90 51.17 L 608.54 51.17 L 608.54 52.00 L 600.90 53.95 L 593.26 54.89 L 585.62 55.47 L 577.99 58.26 L 570.35 58.82 L 562.71 61.57 L 555.07 64.33 L 547.43 59.39 L 539.79 60.54 L 532.15 62.31 L 525.64 60.33 L 520.25 61.64 L 514.85 63.06 L 509.46 58.10 L 504.07 59.25 L 498.68 57.16 L 493.28 58.54 L 487.89 60.82 L 482.50 62.30 L 477.11 63.06 L 471.72 64.54 L 466.32 59.60 L 460.93 54.62 L 455.54 56.26 L 450.15 59.06 L 444.75 54.09 L 439.36 56.90 L 425.21 57.49 L 402.29 59.44 L 379.38 54.45 L 356.46 56.19 Z" fill="#d0d0d0" fill-opacity="0.5" stroke="none"/>
<path d="M 690.28 26.57 L 696.39 26.57 L 702.50 26.57 L 708.61 26.57 L 714.21 26.57 L 719.31 26.57 L 724.40 26.57 L 729.49 26.57 L 734.58 26.57 L 734.58 27.56 L 729.49 30.50 L 724.40 32.80 L 719.31 35.16 L 714.21 36.98 L 708.61 39.28 L 702.50 34.10 L 696.39 28.87 L 690.28 31.80 Z" fill="#d0d0d0" fill-opacity="0.5" stroke="none"/>
<path d="M 744.77 25.00 L 749.86 25.00 L 754.95 25.00 L 760.05 25.00 L 765.14 25.00 L 770.23 25.00 L 775.32 25.00 L 780.42 25.00 L 785.51 25.00 L 790.60 25.00 L 795.69 25.00 L 800.79 25.00 L 805.88 25.00 L 810.97 25.00 L 816.06 25.00 L 821.16 25.00 L 826.25 25.00 L 831.34 25.00 L 836.44 25.00 L 841.53 25.00 L 846.62 25.00 L 851.71 25.00 L 856.81 25.00 L 861.90 25.00 L 866.99 25.00 L 872.08 25.00 L 877.18 25.00 L 882.27 25.00 L 887.36 25.00 L 892.45 25.00 L 897.41 25.00 L 902.24 25.00 L 907.06 25.00 L 911.89 25.00 L 916.71 25.00 L 921.54 25.00 L 926.36 25.00 L 931.18 25.00 L 936.01 25.00 L 940.83 25.00 L 945.66 25.00 L 950.48 25.00 L 955.31 25.00 L 960.13 25.00 L 964.96 25.00 L 969.78 25.00 L 974.61 25.00 L 979.43 25.00 L 984.25 25.00 L 989.21 25.00 L 994.31 25.00 L 999.40 25.00 L 1004.49 25.00 L 1009.58 25.00 L 1014.68 25.00 L 1019.77 25.00 L 1024.86 25.00 L 1029.95 25.00 L 1035.05 25.00 L 1040.14 25.00 L 1045.23 25.00 L 1050.32 25.00 L 1055.42 25.00 L 1060.51 25.00 L 1065.60 25.00 L 1070.69 25.00 L 1075.79 25.00 L 1093.61 25.00 L 1124.17 25.00 L 1154.72 25.00 L 1154.72 28.25 L 1124.17 30.89 L 1093.61 32.51 L 1075.79 32.57 L 1070.69 33.45 L 1065.60 35.84 L 1060.51 38.41 L 1055.42 33.21 L 1050.32 31.74 L 1045.23 33.85 L 1040.14 35.92 L 1035.05 30.69 L 1029.95 30.73 L 1024.86 30.90 L 1019.77 33.04 L 1014.68 33.64 L 1009.58 36.34 L 1004.49 38.36 L 999.40 33.16 L 994.31 34.35 L 989.21 36.39 L 984.25 31.17 L 979.43 32.32 L 974.61 33.93 L 969.78 36.35 L 964.96 39.24 L 960.13 42.11 L 955.31 40.99 L 950.48 42.95 L 945.66 45.80 L 940.83 44.96 L 936.01 39.82 L 931.18 34.64 L 926.36 36.91 L 921.54 39.52 L 916.71 41.55 L 911.89 42.57 L 907.06 37.41 L 902.24 40.29 L 897.41 43.00 L 892.45 45.03 L 887.36 44.02 L 882.27 45.57 L 877.18 40.45 L 872.08 41.47 L 866.99 36.30 L 861.90 35.95 L 856.81 30.73 L 851.71 32.22 L 846.62 35.12 L 841.53 36.68 L 836.44 39.57 L 831.34 42.02 L 826.25 44.26 L 821.16 44.46 L 816.06 46.70 L 810.97 49.13 L 805.88 44.04 L 800.79 38.90 L 795.69 41.78 L 790.60 36.62 L 785.51 31.41 L 780.42 33.59 L 775.32 36.49 L 770.23 31.28 L 765.14 31.19 L 760.05 30.38 L 754.95 25.11 L 749.86 28.04 L 744.77 30.27 Z" fill="#d0d0d0" fill-opacity="0.5" stroke="none"/>
<polyline fill="none" stroke="#111" stroke-width="1.2" points="74.17,79.12 82.50,77.51 90.83,77.48 99.17,74.82 107.50,73.47 115.83,71.01 124.17,68.50 132.50,66.27 140.83,63.77 149.17,61.03 157.50,58.26 170.83,55.99 189.17,57.74 207.50,56.82 225.83,54.70 244.17,59.69 259.06,56.91 270.52,55.44 281.98,54.14 293.44,54.95 304.90,53.23 316.35,52.31 327.81,52.98 339.27,51.17 356.46,56.19 379.38,54.45 402.29,59.44 425.21,57.49 439.36,56.90 444.75,54.09 450.15,59.06 455.54,56.26 460.93,54.62 466.32,59.60 471.72,64.54 477.11,63.06 482.50,62.30 487.89,60.82 493.28,58.54 498.68,57.16 504.07,59.25 509.46,58.10 514.85,63.06 520.25,61.64 525.64,60.33 532.15,62.31 539.79,60.54 547.43,59.39 555.07,64.33 562.71,61.57 570.35,58.82 577.99,58.26 585.62,55.47 593.26,54.89 600.90,53.95 608.54,52.00 616.18,49.17 623.06,46.58 629.17,46.33 635.28,43.47 641.39,41.86 647.50,38.99 653.61,36.26 659.72,35.87 665.83,33.48 671.94,31.41 678.06,29.51 684.17,26.57 690.28,31.80 696.39,28.87 702.50,34.10 708.61,39.28 714.21,36.98 719.31,35.16 724.40,32.80 729.49,30.50 734.58,27.56 739.68,25.00 744.77,30.27 749.86,28.04 754.95,25.11 760.05,30.38 765.14,31.19 770.23,31.28 775.32,36.49 780.42,33.59 785.51,31.41 790.60,36.62 795.69,41.78 800.79,38.90 805.88,44.04 810.97,49.13 816.06,46.70 821.16,44.46 826.25,44.26 831.34,42.02 836.44,39.57 841.53,36.68 846.62,35.12 851.71,32.22 856.81,30.73 861.90,35.95 866.99,36.30 872.08,41.47 877.18,40.45 882.27,45.57 887.36,44.02 892.45,45.03 897.41,43.00 902.24,40.29 907.06,37.41 911.89,42.57 916.71,41.55 921.54,39.52 926.36,36.91 931.18,34.64 936.01,39.82 940.83,44.96 945.66,45.80 950.48,42.95 955.31,40.99 960.13,42.11 964.96,39.24 969.78,36.35 974.61,33.93 979.43,32.32 984.25,31.17 989.21,36.39 994.31,34.35 999.40,33.16 1004.49,38.36 1009.58,36.34 1014.68,33.64 1019.77,33.04 1024.86,30.90 1029.95,30.73 1035.05,30.69 1040.14,35.92 1045.23,33.85 1050.32,31.74 1055.42,33.21 1060.51,38.41 1065.60,35.84 1070.69,33.45 1075.79,32.57 1093.61,32.51 1124.17,30.89 1154.72,28.25"/>
<text x="620.0" y="588" text-anchor="middle" font-family="sans-serif" font-size="12" fill="#333">Monthly Balance Curve</text>
<text x="15" y="287.5" transform="rotate(-90 15,287.5)" text-anchor="middle" font-family="sans-serif" font-size="12" fill="#333">Capital</text>
</svg>