<svg xmlns="http://www.w3.org/2000/svg" width="1200" height="600" viewBox="0 0 1200 600">
<desc>Equity curve with drawdown fill</desc>
<text x="600.0" y="18.0" text-anchor="middle" font-family="sans-serif" font-size="14">Portfolio 2017</text>
<rect x="70" y="25" width="1100" height="525" fill="white" stroke="#ccc" />
<line x1="70" y1="550.00" x2="1170" y2="550.00" stroke="#eee"/>
<text x="62" y="554.0" text-anchor="end" font-family="sans-serif" font-size="11" fill="#555">0.00</text>
<line x1="70" y1="445.00" x2="1170" y2="445.00" stroke="#eee"/>
<text x="62" y="449.0" text-anchor="end" font-family="sans-serif" font-size="11" fill="#555">21718</text>
<line x1="70" y1="340.00" x2="1170" y2="340.00" stroke="#eee"/>
<text x="62" y="344.0" text-anchor="end" font-family="sans-serif" font-size="11" fill="#555">43437</text>
<line x1="70" y1="235.00" x2="1170" y2="235.00" stroke="#eee"/>
<text x="62" y="239.0" text-anchor="end" font-family="sans-serif" font-size="11" fill="#555">65155</text>
<line x1="70" y1="130.00" x2="1170" y2="130.00" stroke="#eee"/>
<text x="62" y="134.0" text-anchor="end" font-family="sans-serif" font-size="11" fill="#555">86873</text>
<line x1="70" y1="25.00" x2="1170" y2="25.00" stroke="#eee"/>
<text x="62" y="29.0" text-anchor="end" font-family="sans-serif" font-size="11" fill="#555">108591</text>
<line x1="159.32" y1="25" x2="159.32" y2="550" stroke="#f2f2f2"/>
<text x="159.32" y="566" text-anchor="middle" font-family="sans-serif" font-size="11" fill="#555">Feb</text>
<line x1="246.66" y1="25" x2="246.66" y2="550" stroke="#f2f2f2"/>
<text x="246.66" y="566" text-anchor="middle" font-family="sans-serif" font-size="11" fill="#555">Mar</text>
<line x1="343.35" y1="25" x2="343.35" y2="550" stroke="#f2f2f2"/>
<text x="343.35" y="566" text-anchor="middle" font-family="sans-serif" font-size="11" fill="#555">Apr</text>
<line x1="436.93" y1="25" x2="436.93" y2="550" stroke="#f2f2f2"/>
<text x="436.93" y="566" text-anchor="middle" font-family="sans-serif" font-size="11" fill="#555">May</text>
<line x1="533.63" y1="25" x2="533.63" y2="550" stroke="#f2f2f2"/>
<text x="533.63" y="566" text-anchor="middle" font-family="sans-serif" font-size="11" fill="#555">Jun</text>
<line x1="627.21" y1="25" x2="627.21" y2="550" stroke="#f2f2f2"/>
<text x="627.21" y="566" text-anchor="middle" font-family="sans-serif" font-size="11" fill="#555">Jul</text>
<line x1="723.90" y1="25" x2="723.90" y2="550" stroke="#f2f2f2"/>
<text x="723.90" y="566" text-anchor="middle" font-family="sans-serif" font-size="11" fill="#555">Aug</text>
<line x1="820.60" y1="25" x2="820.60" y2="550" stroke="#f2f2f2"/>
<text x="820.60" y="566" text-anchor="middle" font-family="sans-serif" font-size="11" fill="#555">Sep</text>
<line x1="914.18" y1="25" x2="914.18" y2="550" stroke="#f2f2f2"/>
<text x="914.18" y="566" text-anchor="middle" font-family="sans-serif" font-size="11" fill="#555">Oct</text>
<line x1="1010.87" y1="25" x2="1010.87" y2="550" stroke="#f2f2f2"/>
<text x="1010.87" y="566" text-anchor="middle" font-family="sans-serif" font-size="11" fill="#555">Nov</text>
<line x1="1104.45" y1="25" x2="1104.45" y2="550" stroke="#f2f2f2"/>
<text x="1104.45" y="566" text-anchor="middle" font-family="sans-serif" font-size="11" fill="#555">Dec</text>
<line x1="70" y1="550" x2="1170" y2="550" stroke="#888"/>
<line x1="70" y1="25" x2="70" y2="550" stroke="#888"/>
<path d="M 77.15 57.24 L 77.22 57.24 L 79.98 57.24 L 95.86 57.24 L 95.86 57.34 L 79.98 58.58 L 77.22 61.27 L 77.15 62.25 Z" fill="#d0d0d0" fill-opacity="0.5" stroke="none"/>
<path d="M 96.14 54.62 L 96.17 54.62 L 96.24 54.62 L 96.33 54.62 L 102.03 54.62 L 114.07 54.62 L 120.54 54.62 L 154.77 54.62 L 155.19 54.62 L 157.88 54.62 L 201.96 54.62 L 205.19 54.62 L 255.46 54.62 L 255.46 55.12 L 205.19 56.43 L 201.96 58.60 L 157.88 59.15 L 155.19 57.90 L 154.77 60.11 L 120.54 55.09 L 114.07 57.81 L 102.03 59.34 L 96.33 61.55 L 96.24 63.30 L 96.17 64.60 L 96.14 59.66 Z" fill="#d0d0d0" fill-opacity="0.5" stroke="none"/>
<path d="M 415.16 47.18 L 429.03 47.18 L 473.11 47.18 L 473.11 48.36 L 429.03 49.97 L 415.16 47.79 Z" fill="#d0d0d0" fill-opacity="0.5" stroke="none"/>
<path d="M 504.07 46.23 L 538.58 46.23 L 553.94 46.23 L 553.94 48.53 L 538.58 47.68 L 504.07 48.53 Z" fill="#d0d0d0" fill-opacity="0.5" stroke="none"/>
<path d="M 576.01 46.04 L 616.13 46.04 L 616.96 46.04 L 619.57 46.04 L 619.59 46.04 L 663.55 46.04 L 663.55 46.33 L 619.59 48.58 L 619.57 51.48 L 616.96 54.25 L 616.13 56.21 L 576.01 51.15 Z" fill="#d0d0d0" fill-opacity="0.5" stroke="none"/>
<path d="M 680.66 44.31 L 680.66 45.57 Z" fill="#d0d0d0" fill-opacity="0.5" stroke="none"/>
<path d="M 688.65 42.75 L 707.69 42.75 L 722.93 42.75 L 729.38 42.75 L 735.03 42.75 L 735.26 42.75 L 735.45 42.75 L 747.81 42.75 L 750.73 42.75 L 756.93 42.75 L 769.43 42.75 L 771.89 42.75 L 773.16 42.75 L 775.44 42.75 L 775.44 44.32 L 773.16 47.14 L 771.89 49.94 L 769.43 52.53 L 756.93 52.63 L 750.73 53.02 L 747.81 55.37 L 735.45 50.30 L 735.26 49.63 L 735.03 44.55 L 729.38 47.14 L 722.93 49.94 L 707.69 50.59 L 688.65 45.48 Z" fill="#d0d0d0" fill-opacity="0.5" stroke="none"/>
<path d="M 860.11 30.28 L 860.11 30.83 Z" fill="#d0d0d0" fill-opacity="0.5" stroke="none"/>
<path d="M 882.41 25.00 L 953.42 25.00 L 993.95 25.00 L 994.21 25.00 L 1070.14 25.00 L 1071.35 25.00 L 1103.40 25.00 L 1106.62 25.00 L 1170.00 25.00 L 1170.00 30.35 L 1106.62 33.01 L 1103.40 34.52 L 1071.35 33.04 L 1070.14 33.84 L 994.21 34.72 L 993.95 29.45 L 953.42 28.15 L 882.41 30.28 Z" fill="#d0d0d0" fill-opacity="0.5" stroke="none"/>
<polyline fill="none" stroke="#111" stroke-width="1.2" points="70.00,65.39 70.85,62.95 71.05,61.49 75.13,59.08 76.27,57.24 77.15,62.25 77.22,61.27 79.98,58.58 95.86,57.34 95.98,54.62 96.14,59.66 96.17,64.60 96.24,63.30 96.33,61.55 102.03,59.34 114.07,57.81 120.54,55.09 154.77,60.11 155.19,57.90 157.88,59.15 201.96,58.60 205.19,56.43 255.46,55.12 273.49,53.60 292.87,53.10 333.42,52.16 335.73,50.13 360.05,48.08 415.04,47.18 415.16,47.79 429.03,49.97 473.11,48.36 492.46,46.23 504.07,48.53 538.58,47.68 553.94,48.53 554.40,46.04 576.01,51.15 616.13,56.21 616.96,54.25 619.57,51.48 619.59,48.58 663.55,46.33 669.60,44.31 680.66,45.57 688.27,42.75 688.65,45.48 707.69,50.59 722.93,49.94 729.38,47.14 735.03,44.55 735.26,49.63 735.45,50.30 747.81,55.37 750.73,53.02 756.93,52.63 769.43,52.53 771.89,49.94 773.16,47.14 775.44,44.32 800.72,41.48 812.34,40.15 822.35,37.30 822.59,35.17 841.08,32.29 842.96,30.28 860.11,30.83 862.90,27.92 882.34,25.00 882.41,30.28 953.42,28.15 993.95,29.45 994.21,34.72 1070.14,33.84 1071.35,33.04 1103.40,34.52 1106.62,33.01 1170.00,30.35"/>
<text x="620.0" y="588" text-anchor="middle" font-family="sans-serif" font-size="12" fill="#333">UTC time</text>
<text x="15" y="287.5" transform="rotate(-90 15,287.5)" text-anchor="middle" font-family="sans-serif" font-size="12" fill="#333">Capital</text>
</svg>