<svg xmlns="http://www.w3.org/2000/svg" width="1200" height="600" viewBox="0 0 1200 600">
<desc>Equity curve with drawdown fill; x-axis is months only (no exact timestamps)</desc>
<text x="600.0" y="18.0" text-anchor="middle" font-family="sans-serif" font-size="14">Balance Curve 2009 (UTC)</text>
<rect x="70" y="25" width="1100" height="525" fill="white" stroke="#ccc" />
<line x1="70" y1="550.00" x2="1170" y2="550.00" stroke="#eee"/>
<text x="62" y="554.0" text-anchor="end" font-family="sans-serif" font-size="11" fill="#555">0.00</text>
<line x1="70" y1="445.00" x2="1170" y2="445.00" stroke="#eee"/>
<text x="62" y="449.0" text-anchor="end" font-family="sans-serif" font-size="11" fill="#555">23673</text>
<line x1="70" y1="340.00" x2="1170" y2="340.00" stroke="#eee"/>
<text x="62" y="344.0" text-anchor="end" font-family="sans-serif" font-size="11" fill="#555">47347</text>
<line x1="70" y1="235.00" x2="1170" y2="235.00" stroke="#eee"/>
<text x="62" y="239.0" text-anchor="end" font-family="sans-serif" font-size="11" fill="#555">71020</text>
<line x1="70" y1="130.00" x2="1170" y2="130.00" stroke="#eee"/>
<text x="62" y="134.0" text-anchor="end" font-family="sans-serif" font-size="11" fill="#555">94693</text>
<line x1="70" y1="25.00" x2="1170" y2="25.00" stroke="#eee"/>
<text x="62" y="29.0" text-anchor="end" font-family="sans-serif" font-size="11" fill="#555">118366</text>
<line x1="161.67" y1="25" x2="161.67" y2="550" stroke="#f2f2f2"/>
<line x1="253.33" y1="25" x2="253.33" y2="550" stroke="#f2f2f2"/>
<line x1="345.00" y1="25" x2="345.00" y2="550" stroke="#f2f2f2"/>
<line x1="436.67" y1="25" x2="436.67" y2="550" stroke="#f2f2f2"/>
<line x1="528.33" y1="25" x2="528.33" y2="550" stroke="#f2f2f2"/>
<line x1="620.00" y1="25" x2="620.00" y2="550" stroke="#f2f2f2"/>
<line x1="711.67" y1="25" x2="711.67" y2="550" stroke="#f2f2f2"/>
<line x1="803.33" y1="25" x2="803.33" y2="550" stroke="#f2f2f2"/>
<line x1="895.00" y1="25" x2="895.00" y2="550" stroke="#f2f2f2"/>
<line x1="986.67" y1="25" x2="986.67" y2="550" stroke="#f2f2f2"/>
<line x1="1078.33" y1="25" x2="1078.33" y2="550" stroke="#f2f2f2"/>
<text x="115.83" y="566.00" text-anchor="middle" font-family="sans-serif" font-size="11" fill="#444">Jan</text>
<text x="207.50" y="566.00" text-anchor="middle" font-family="sans-serif" font-size="11" fill="#444">Feb</text>
<text x="299.17" y="566.00" text-anchor="middle" font-family="sans-serif" font-size="11" fill="#444">Mar</text>
<text x="390.83" y="566.00" text-anchor="middle" font-family="sans-serif" font-size="11" fill="#444">Apr</text>
<text x="482.50" y="566.00" text-anchor="middle" font-family="sans-serif" font-size="11" fill="#444">May</text>
<text x="574.17" y="566.00" text-anchor="middle" font-family="sans-serif" font-size="11" fill="#444">Jun</text>
<text x="665.83" y="566.00" text-anchor="middle" font-family="sans-serif" font-size="11" fill="#444">Jul</text>
<text x="757.50" y="566.00" text-anchor="middle" font-family="sans-serif" font-size="11" fill="#444">Aug</text>
<text x="849.17" y="566.00" text-anchor="middle" font-family="sans-serif" font-size="11" fill="#444">Sep</text>
<text x="940.83" y="566.00" text-anchor="middle" font-family="sans-serif" font-size="11" fill="#444">Oct</text>
<text x="1032.50" y="566.00" text-anchor="middle" font-family="sans-serif" font-size="11" fill="#444">Nov</text>
<text x="1124.17" y="566.00" text-anchor="middle" font-family="sans-serif" font-size="11" fill="#444">Dec</text>
<line x1="70" y1="550" x2="1170" y2="550" stroke="#888"/>
<line x1="70" y1="25" x2="70" y2="550" stroke="#888"/>
<line x1="70.72" y1="550.00" x2="70.72" y2="556.00" stroke="#888"/>
<line x1="1164.27"   y1="550.00" x2="1164.27"   y2="556.00" stroke="#888"/>
<text x="70.72" y="582.00" text-anchor="start" font-family="sans-serif" font-size="11" fill="#333">Initial Balance: 100000</text>
<text x="1164.27"   y="582.00" text-anchor="end"   font-family="sans-serif" font-size="11" fill="#333">Ending Balance: 117194</text>
<path d="M 77.88 100.65 L 79.31 100.65 L 80.74 100.65 L 82.17 100.65 L 83.61 100.65 L 85.04 100.65 L 86.47 100.65 L 87.90 100.65 L 89.34 100.65 L 90.77 100.65 L 92.20 100.65 L 93.63 100.65 L 95.07 100.65 L 95.07 101.26 L 93.63 102.68 L 92.20 104.47 L 90.77 106.86 L 89.34 108.98 L 87.90 109.62 L 86.47 105.08 L 85.04 107.19 L 83.61 109.53 L 82.17 111.88 L 80.74 114.23 L 79.31 109.74 L 77.88 105.24 Z" fill="#d0d0d0" fill-opacity="0.5" stroke="none"/>
<path d="M 113.68 79.00 L 115.12 79.00 L 115.12 79.28 L 113.68 79.98 Z" fill="#d0d0d0" fill-opacity="0.5" stroke="none"/>
<path d="M 120.85 72.07 L 122.28 72.07 L 123.71 72.07 L 125.14 72.07 L 126.58 72.07 L 128.01 72.07 L 128.01 73.65 L 126.58 76.17 L 125.14 78.70 L 123.71 79.51 L 122.28 74.66 L 120.85 76.93 Z" fill="#d0d0d0" fill-opacity="0.5" stroke="none"/>
<path d="M 133.74 68.20 L 135.17 68.20 L 136.60 68.20 L 138.03 68.20 L 139.47 68.20 L 140.90 68.20 L 142.33 68.20 L 143.76 68.20 L 145.20 68.20 L 146.63 68.20 L 148.06 68.20 L 149.49 68.20 L 150.92 68.20 L 150.92 70.67 L 149.49 73.22 L 148.06 75.76 L 146.63 77.43 L 145.20 79.95 L 143.76 81.44 L 142.33 76.61 L 140.90 79.06 L 139.47 74.25 L 138.03 76.24 L 136.60 78.67 L 135.17 73.81 L 133.74 73.11 Z" fill="#d0d0d0" fill-opacity="0.5" stroke="none"/>
<path d="M 155.22 66.83 L 156.65 66.83 L 158.09 66.83 L 159.52 66.83 L 160.95 66.83 L 162.98 66.83 L 165.60 66.83 L 168.21 66.83 L 170.83 66.83 L 173.45 66.83 L 173.45 68.86 L 170.83 70.84 L 168.21 73.11 L 165.60 74.38 L 162.98 69.48 L 160.95 71.80 L 159.52 74.33 L 158.09 75.12 L 156.65 76.58 L 155.22 71.75 Z" fill="#d0d0d0" fill-opacity="0.5" stroke="none"/>
<path d="M 181.31 64.59 L 183.93 64.59 L 186.55 64.59 L 189.17 64.59 L 191.79 64.59 L 194.40 64.59 L 197.02 64.59 L 199.64 64.59 L 202.26 64.59 L 204.88 64.59 L 207.50 64.59 L 210.12 64.59 L 210.12 66.94 L 207.50 69.50 L 204.88 69.69 L 202.26 72.03 L 199.64 74.41 L 197.02 76.12 L 194.40 71.27 L 191.79 73.97 L 189.17 69.07 L 186.55 70.65 L 183.93 70.98 L 181.31 66.04 Z" fill="#d0d0d0" fill-opacity="0.5" stroke="none"/>
<path d="M 231.07 54.55 L 233.69 54.55 L 236.31 54.55 L 238.93 54.55 L 241.55 54.55 L 244.17 54.55 L 246.79 54.55 L 249.40 54.55 L 252.02 54.55 L 254.64 54.55 L 257.26 54.55 L 259.88 54.55 L 262.50 54.55 L 265.12 54.55 L 267.74 54.55 L 270.36 54.55 L 272.98 54.55 L 275.60 54.55 L 278.21 54.55 L 280.83 54.55 L 283.45 54.55 L 286.07 54.55 L 288.69 54.55 L 291.31 54.55 L 293.93 54.55 L 296.55 54.55 L 299.17 54.55 L 301.79 54.55 L 304.40 54.55 L 307.02 54.55 L 309.64 54.55 L 312.26 54.55 L 314.88 54.55 L 317.50 54.55 L 320.12 54.55 L 322.74 54.55 L 325.36 54.55 L 327.98 54.55 L 330.60 54.55 L 333.21 54.55 L 335.83 54.55 L 338.45 54.55 L 341.07 54.55 L 343.69 54.55 L 347.29 54.55 L 351.88 54.55 L 356.46 54.55 L 361.04 54.55 L 365.62 54.55 L 370.21 54.55 L 374.79 54.55 L 379.38 54.55 L 383.96 54.55 L 388.54 54.55 L 393.12 54.55 L 397.71 54.55 L 402.29 54.55 L 406.88 54.55 L 411.46 54.55 L 416.04 54.55 L 420.62 54.55 L 425.21 54.55 L 429.79 54.55 L 434.38 54.55 L 440.19 54.55 L 447.24 54.55 L 454.29 54.55 L 461.35 54.55 L 468.40 54.55 L 475.45 54.55 L 482.50 54.55 L 489.55 54.55 L 496.60 54.55 L 503.65 54.55 L 510.71 54.55 L 517.76 54.55 L 524.81 54.55 L 531.61 54.55 L 538.15 54.55 L 544.70 54.55 L 551.25 54.55 L 557.80 54.55 L 564.35 54.55 L 570.89 54.55 L 577.44 54.55 L 583.99 54.55 L 590.54 54.55 L 597.08 54.55 L 603.63 54.55 L 610.18 54.55 L 616.73 54.55 L 625.09 54.55 L 635.28 54.55 L 645.46 54.55 L 655.65 54.55 L 665.83 54.55 L 665.83 56.33 L 655.65 57.88 L 645.46 60.52 L 635.28 60.94 L 625.09 62.30 L 616.73 64.92 L 610.18 64.72 L 603.63 67.34 L 597.08 68.38 L 590.54 68.96 L 583.99 70.17 L 577.44 72.51 L 570.89 74.88 L 564.35 69.99 L 557.80 72.11 L 551.25 67.21 L 544.70 69.81 L 538.15 71.16 L 531.61 72.82 L 524.81 67.91 L 517.76 62.95 L 510.71 63.01 L 503.65 58.00 L 496.60 59.64 L 489.55 60.93 L 482.50 63.55 L 475.45 66.16 L 468.40 68.46 L 461.35 71.04 L 454.29 73.60 L 447.24 76.16 L 440.19 77.75 L 434.38 79.94 L 429.79 82.46 L 425.21 77.63 L 420.62 76.38 L 416.04 77.91 L 411.46 78.80 L 406.88 80.76 L 402.29 82.43 L 397.71 77.61 L 393.12 80.13 L 388.54 78.59 L 383.96 80.61 L 379.38 82.33 L 374.79 77.51 L 370.21 78.07 L 365.62 80.61 L 361.04 82.40 L 356.46 82.98 L 351.88 84.91 L 347.29 87.12 L 343.69 89.61 L 341.07 90.95 L 338.45 93.17 L 335.83 95.06 L 333.21 90.41 L 330.60 85.67 L 327.98 87.62 L 325.36 88.82 L 322.74 91.14 L 320.12 86.41 L 317.50 86.68 L 314.88 87.95 L 312.26 88.53 L 309.64 83.78 L 307.02 86.08 L 304.40 87.77 L 301.79 83.05 L 299.17 78.24 L 296.55 80.67 L 293.93 75.83 L 291.31 77.96 L 288.69 80.19 L 286.07 80.69 L 283.45 81.40 L 280.83 83.20 L 278.21 85.12 L 275.60 85.56 L 272.98 80.76 L 270.36 82.56 L 267.74 81.62 L 265.12 76.79 L 262.50 78.12 L 259.88 79.77 L 257.26 74.92 L 254.64 76.33 L 252.02 78.31 L 249.40 73.45 L 246.79 68.54 L 244.17 70.27 L 241.55 71.82 L 238.93 74.37 L 236.31 69.50 L 233.69 64.56 L 231.07 59.56 Z" fill="#d0d0d0" fill-opacity="0.5" stroke="none"/>
<path d="M 696.39 53.64 L 706.57 53.64 L 726.94 53.64 L 757.50 53.64 L 757.50 54.39 L 726.94 57.06 L 706.57 58.72 L 696.39 58.67 Z" fill="#d0d0d0" fill-opacity="0.5" stroke="none"/>
<path d="M 809.06 53.39 L 820.52 53.39 L 831.98 53.39 L 843.44 53.39 L 843.44 53.77 L 831.98 54.28 L 820.52 56.95 L 809.06 58.43 Z" fill="#d0d0d0" fill-opacity="0.5" stroke="none"/>
<path d="M 877.81 48.71 L 889.27 48.71 L 901.55 48.71 L 914.64 48.71 L 914.64 50.44 L 901.55 52.73 L 889.27 52.13 L 877.81 53.76 Z" fill="#d0d0d0" fill-opacity="0.5" stroke="none"/>
<path d="M 1055.42 32.99 L 1070.69 32.99 L 1084.06 32.99 L 1095.52 32.99 L 1095.52 33.20 L 1084.06 34.60 L 1070.69 37.17 L 1055.42 38.21 Z" fill="#d0d0d0" fill-opacity="0.5" stroke="none"/>
<path d="M 1152.81 25.00 L 1164.27 25.00 L 1164.27 30.20 L 1152.81 30.30 Z" fill="#d0d0d0" fill-opacity="0.5" stroke="none"/>
<polyline fill="none" stroke="#111" stroke-width="1.2" points="70.72,106.46 72.15,106.27 73.58,105.28 75.01,103.06 76.45,100.65 77.88,105.24 79.31,109.74 80.74,114.23 82.17,111.88 83.61,109.53 85.04,107.19 86.47,105.08 87.90,109.62 89.34,108.98 90.77,106.86 92.20,104.47 93.63,102.68 95.07,101.26 96.50,98.68 97.93,98.58 99.36,96.14 100.79,93.68 102.23,91.55 103.66,89.99 105.09,88.07 106.52,85.83 107.96,83.52 109.39,81.40 110.82,79.19 112.25,79.00 113.68,79.98 115.12,79.28 116.55,76.93 117.98,74.62 119.41,72.07 120.85,76.93 122.28,74.66 123.71,79.51 125.14,78.70 126.58,76.17 128.01,73.65 129.44,72.01 130.87,69.69 132.30,68.20 133.74,73.11 135.17,73.81 136.60,78.67 138.03,76.24 139.47,74.25 140.90,79.06 142.33,76.61 143.76,81.44 145.20,79.95 146.63,77.43 148.06,75.76 149.49,73.22 150.92,70.67 152.36,68.10 153.79,66.83 155.22,71.75 156.65,76.58 158.09,75.12 159.52,74.33 160.95,71.80 162.98,69.48 165.60,74.38 168.21,73.11 170.83,70.84 173.45,68.86 176.07,66.80 178.69,64.59 181.31,66.04 183.93,70.98 186.55,70.65 189.17,69.07 191.79,73.97 194.40,71.27 197.02,76.12 199.64,74.41 202.26,72.03 204.88,69.69 207.50,69.50 210.12,66.94 212.74,64.36 215.36,63.92 217.98,61.53 220.60,60.90 223.21,59.39 225.83,57.33 228.45,54.55 231.07,59.56 233.69,64.56 236.31,69.50 238.93,74.37 241.55,71.82 244.17,70.27 246.79,68.54 249.40,73.45 252.02,78.31 254.64,76.33 257.26,74.92 259.88,79.77 262.50,78.12 265.12,76.79 267.74,81.62 270.36,82.56 272.98,80.76 275.60,85.56 278.21,85.12 280.83,83.20 283.45,81.40 286.07,80.69 288.69,80.19 291.31,77.96 293.93,75.83 296.55,80.67 299.17,78.24 301.79,83.05 304.40,87.77 307.02,86.08 309.64,83.78 312.26,88.53 314.88,87.95 317.50,86.68 320.12,86.41 322.74,91.14 325.36,88.82 327.98,87.62 330.60,85.67 333.21,90.41 335.83,95.06 338.45,93.17 341.07,90.95 343.69,89.61 347.29,87.12 351.88,84.91 356.46,82.98 361.04,82.40 365.62,80.61 370.21,78.07 374.79,77.51 379.38,82.33 383.96,80.61 388.54,78.59 393.12,80.13 397.71,77.61 402.29,82.43 406.88,80.76 411.46,78.80 416.04,77.91 420.62,76.38 425.21,77.63 429.79,82.46 434.38,79.94 440.19,77.75 447.24,76.16 454.29,73.60 461.35,71.04 468.40,68.46 475.45,66.16 482.50,63.55 489.55,60.93 496.60,59.64 503.65,58.00 510.71,63.01 517.76,62.95 524.81,67.91 531.61,72.82 538.15,71.16 544.70,69.81 551.25,67.21 557.80,72.11 564.35,69.99 570.89,74.88 577.44,72.51 583.99,70.17 590.54,68.96 597.08,68.38 603.63,67.34 610.18,64.72 616.73,64.92 625.09,62.30 635.28,60.94 645.46,60.52 655.65,57.88 665.83,56.33 676.02,53.93 686.20,53.64 696.39,58.67 706.57,58.72 726.94,57.06 757.50,54.39 788.06,53.39 809.06,58.43 820.52,56.95 831.98,54.28 843.44,53.77 854.90,51.55 866.35,48.71 877.81,53.76 889.27,52.13 901.55,52.73 914.64,50.44 927.74,48.20 940.83,46.72 953.93,45.44 967.02,43.28 980.12,41.15 994.31,39.66 1009.58,36.89 1024.86,34.98 1040.14,32.99 1055.42,38.21 1070.69,37.17 1084.06,34.60 1095.52,33.20 1106.98,30.99 1118.44,28.96 1129.90,26.42 1141.35,25.00 1152.81,30.30 1164.27,30.20"/>
<text x="15" y="287.5" transform="rotate(-90 15,287.5)" text-anchor="middle" font-family="sans-serif" font-size="12" fill="#333">USD</text>
</svg>