<svg xmlns="http://www.w3.org/2000/svg" width="1200" height="600" viewBox="0 0 1200 600">
<desc>Equity curve with drawdown fill; x-axis is months only (no exact timestamps)</desc>
<text x="600.0" y="18.0" text-anchor="middle" font-family="sans-serif" font-size="14">Portfolio 2010 (UTC)</text>
<rect x="70" y="25" width="1100" height="525" fill="white" stroke="#ccc" />
<line x1="70" y1="550.00" x2="1170" y2="550.00" stroke="#eee"/>
<text x="62" y="554.0" text-anchor="end" font-family="sans-serif" font-size="11" fill="#555">0.00</text>
<line x1="70" y1="445.00" x2="1170" y2="445.00" stroke="#eee"/>
<text x="62" y="449.0" text-anchor="end" font-family="sans-serif" font-size="11" fill="#555">38968</text>
<line x1="70" y1="340.00" x2="1170" y2="340.00" stroke="#eee"/>
<text x="62" y="344.0" text-anchor="end" font-family="sans-serif" font-size="11" fill="#555">77937</text>
<line x1="70" y1="235.00" x2="1170" y2="235.00" stroke="#eee"/>
<text x="62" y="239.0" text-anchor="end" font-family="sans-serif" font-size="11" fill="#555">116905</text>
<line x1="70" y1="130.00" x2="1170" y2="130.00" stroke="#eee"/>
<text x="62" y="134.0" text-anchor="end" font-family="sans-serif" font-size="11" fill="#555">155874</text>
<line x1="70" y1="25.00" x2="1170" y2="25.00" stroke="#eee"/>
<text x="62" y="29.0" text-anchor="end" font-family="sans-serif" font-size="11" fill="#555">194842</text>
<line x1="161.67" y1="25" x2="161.67" y2="550" stroke="#f2f2f2"/>
<line x1="253.33" y1="25" x2="253.33" y2="550" stroke="#f2f2f2"/>
<line x1="345.00" y1="25" x2="345.00" y2="550" stroke="#f2f2f2"/>
<line x1="436.67" y1="25" x2="436.67" y2="550" stroke="#f2f2f2"/>
<line x1="528.33" y1="25" x2="528.33" y2="550" stroke="#f2f2f2"/>
<line x1="620.00" y1="25" x2="620.00" y2="550" stroke="#f2f2f2"/>
<line x1="711.67" y1="25" x2="711.67" y2="550" stroke="#f2f2f2"/>
<line x1="803.33" y1="25" x2="803.33" y2="550" stroke="#f2f2f2"/>
<line x1="895.00" y1="25" x2="895.00" y2="550" stroke="#f2f2f2"/>
<line x1="986.67" y1="25" x2="986.67" y2="550" stroke="#f2f2f2"/>
<line x1="1078.33" y1="25" x2="1078.33" y2="550" stroke="#f2f2f2"/>
<text x="115.83" y="566.00" text-anchor="middle" font-family="sans-serif" font-size="11" fill="#444">Jan</text>
<text x="207.50" y="566.00" text-anchor="middle" font-family="sans-serif" font-size="11" fill="#444">Feb</text>
<text x="299.17" y="566.00" text-anchor="middle" font-family="sans-serif" font-size="11" fill="#444">Mar</text>
<text x="390.83" y="566.00" text-anchor="middle" font-family="sans-serif" font-size="11" fill="#444">Apr</text>
<text x="482.50" y="566.00" text-anchor="middle" font-family="sans-serif" font-size="11" fill="#444">May</text>
<text x="574.17" y="566.00" text-anchor="middle" font-family="sans-serif" font-size="11" fill="#444">Jun</text>
<text x="665.83" y="566.00" text-anchor="middle" font-family="sans-serif" font-size="11" fill="#444">Jul</text>
<text x="757.50" y="566.00" text-anchor="middle" font-family="sans-serif" font-size="11" fill="#444">Aug</text>
<text x="849.17" y="566.00" text-anchor="middle" font-family="sans-serif" font-size="11" fill="#444">Sep</text>
<text x="940.83" y="566.00" text-anchor="middle" font-family="sans-serif" font-size="11" fill="#444">Oct</text>
<text x="1032.50" y="566.00" text-anchor="middle" font-family="sans-serif" font-size="11" fill="#444">Nov</text>
<text x="1124.17" y="566.00" text-anchor="middle" font-family="sans-serif" font-size="11" fill="#444">Dec</text>
<line x1="70" y1="550" x2="1170" y2="550" stroke="#888"/>
<line x1="70" y1="25" x2="70" y2="550" stroke="#888"/>
<line x1="75.09" y1="550.00" x2="75.09" y2="556.00" stroke="#888"/>
<line x1="1167.30"   y1="550.00" x2="1167.30"   y2="556.00" stroke="#888"/>
<text x="75.09" y="582.00" text-anchor="start" font-family="sans-serif" font-size="11" fill="#333">Initial Balance: 146389</text>
<text x="1167.30"   y="582.00" text-anchor="end"   font-family="sans-serif" font-size="11" fill="#333">Ending Balance: 194842</text>
<path d="M 115.83 149.77 L 115.83 150.00 Z" fill="#d0d0d0" fill-opacity="0.5" stroke="none"/>
<path d="M 207.50 138.90 L 225.83 138.90 L 244.17 138.90 L 244.17 139.31 L 225.83 140.94 L 207.50 143.04 Z" fill="#d0d0d0" fill-opacity="0.5" stroke="none"/>
<path d="M 306.81 133.00 L 306.81 133.75 Z" fill="#d0d0d0" fill-opacity="0.5" stroke="none"/>
<path d="M 398.47 126.20 L 413.75 126.20 L 429.03 126.20 L 437.60 126.20 L 439.47 126.20 L 441.34 126.20 L 443.21 126.20 L 445.09 126.20 L 446.96 126.20 L 448.83 126.20 L 450.70 126.20 L 452.57 126.20 L 452.57 126.41 L 450.70 128.78 L 448.83 131.12 L 446.96 133.25 L 445.09 135.25 L 443.21 137.35 L 441.34 139.41 L 439.47 141.18 L 437.60 137.01 L 429.03 132.81 L 413.75 128.57 L 398.47 130.47 Z" fill="#d0d0d0" fill-opacity="0.5" stroke="none"/>
<path d="M 471.28 111.04 L 473.15 111.04 L 475.02 111.04 L 475.02 113.03 L 473.15 114.25 L 471.28 115.45 Z" fill="#d0d0d0" fill-opacity="0.5" stroke="none"/>
<path d="M 482.50 106.96 L 484.37 106.96 L 486.24 106.96 L 488.11 106.96 L 489.98 106.96 L 491.85 106.96 L 493.72 106.96 L 495.60 105.63 L 497.47 105.63 L 497.47 114.45 L 495.60 110.01 L 493.72 108.24 L 491.85 109.10 L 489.98 111.45 L 488.11 107.01 L 486.24 108.36 L 484.37 109.08 L 482.50 111.41 Z" fill="#d0d0d0" fill-opacity="0.5" stroke="none"/>
<path d="M 501.21 105.63 L 503.08 105.63 L 504.95 105.63 L 506.82 105.63 L 508.69 105.63 L 508.69 107.13 L 506.82 108.72 L 504.95 110.87 L 503.08 112.38 L 501.21 112.57 Z" fill="#d0d0d0" fill-opacity="0.5" stroke="none"/>
<path d="M 563.38 80.59 L 568.77 80.59 L 574.17 80.59 L 579.56 80.59 L 584.95 80.59 L 590.34 80.59 L 595.74 80.59 L 595.74 81.54 L 590.34 83.68 L 584.95 82.73 L 579.56 81.35 L 574.17 81.74 L 568.77 83.13 L 563.38 85.27 Z" fill="#d0d0d0" fill-opacity="0.5" stroke="none"/>
<path d="M 706.57 61.21 L 719.31 61.21 L 734.58 61.21 L 749.86 61.21 L 765.14 61.21 L 780.42 61.21 L 795.69 61.21 L 812.50 61.21 L 830.83 61.21 L 849.17 61.21 L 867.50 61.21 L 885.83 61.21 L 897.86 61.21 L 903.59 61.21 L 903.59 62.99 L 897.86 64.11 L 885.83 66.22 L 867.50 67.20 L 849.17 68.71 L 830.83 69.69 L 812.50 69.26 L 795.69 67.74 L 780.42 70.14 L 765.14 71.86 L 749.86 73.43 L 734.58 71.68 L 719.31 66.91 L 706.57 62.07 Z" fill="#d0d0d0" fill-opacity="0.5" stroke="none"/>
<path d="M 915.05 60.29 L 920.78 60.29 L 920.78 62.54 L 915.05 65.14 Z" fill="#d0d0d0" fill-opacity="0.5" stroke="none"/>
<path d="M 932.24 59.82 L 932.24 61.07 Z" fill="#d0d0d0" fill-opacity="0.5" stroke="none"/>
<path d="M 1016.13 38.61 L 1022.68 38.61 L 1029.23 38.61 L 1035.77 38.61 L 1042.32 38.61 L 1048.87 38.61 L 1055.42 38.61 L 1061.96 38.61 L 1068.51 38.61 L 1075.06 38.61 L 1081.03 38.61 L 1086.42 38.61 L 1091.81 38.61 L 1097.21 38.61 L 1097.21 39.50 L 1091.81 41.67 L 1086.42 43.83 L 1081.03 38.84 L 1075.06 41.74 L 1068.51 44.24 L 1061.96 45.77 L 1055.42 47.99 L 1048.87 43.00 L 1042.32 44.81 L 1035.77 39.79 L 1029.23 41.85 L 1022.68 43.16 L 1016.13 43.63 Z" fill="#d0d0d0" fill-opacity="0.5" stroke="none"/>
<path d="M 1129.56 30.99 L 1134.95 30.99 L 1140.34 30.99 L 1140.34 31.81 L 1134.95 31.69 L 1129.56 32.25 Z" fill="#d0d0d0" fill-opacity="0.5" stroke="none"/>
<path d="M 1151.13 28.97 L 1151.13 30.96 Z" fill="#d0d0d0" fill-opacity="0.5" stroke="none"/>
<polyline fill="none" stroke="#111" stroke-width="1.2" points="75.09,155.56 85.28,153.33 95.46,151.09 105.65,149.77 115.83,150.00 126.02,148.86 136.20,147.35 146.39,145.22 156.57,142.92 170.83,141.20 189.17,138.90 207.50,143.04 225.83,140.94 244.17,139.31 260.97,136.99 276.25,134.77 291.53,133.00 306.81,133.75 322.08,132.01 337.36,130.33 352.64,128.93 367.92,127.59 383.19,126.20 398.47,130.47 413.75,128.57 429.03,132.81 437.60,137.01 439.47,141.18 441.34,139.41 443.21,137.35 445.09,135.25 446.96,133.25 448.83,131.12 450.70,128.78 452.57,126.41 454.44,124.03 456.31,123.14 458.18,120.89 460.05,120.13 461.92,117.87 463.79,116.10 465.66,114.66 467.53,112.87 469.40,111.04 471.28,115.45 473.15,114.25 475.02,113.03 476.89,110.96 478.76,109.02 480.63,106.96 482.50,111.41 484.37,109.08 486.24,108.36 488.11,107.01 489.98,111.45 491.85,109.10 493.72,108.24 495.60,110.01 497.47,114.45 499.34,105.63 501.21,112.57 503.08,112.38 504.95,110.87 506.82,108.72 508.69,107.13 510.56,105.16 512.43,103.82 514.30,103.49 516.17,102.09 518.04,102.08 519.91,99.78 521.79,97.55 523.66,96.09 525.53,94.79 527.40,92.52 531.03,91.03 536.42,88.50 541.81,86.49 547.21,84.68 552.60,82.33 557.99,80.59 563.38,85.27 568.77,83.13 574.17,81.74 579.56,81.35 584.95,82.73 590.34,83.68 595.74,81.54 601.13,79.40 606.52,76.79 611.91,75.22 617.30,72.61 625.09,69.97 635.28,68.26 645.46,67.29 655.65,66.09 665.83,66.03 676.02,65.25 686.20,63.09 696.39,61.21 706.57,62.07 719.31,66.91 734.58,71.68 749.86,73.43 765.14,71.86 780.42,70.14 795.69,67.74 812.50,69.26 830.83,69.69 849.17,68.71 867.50,67.20 885.83,66.22 897.86,64.11 903.59,62.99 909.32,60.29 915.05,65.14 920.78,62.54 926.51,59.82 932.24,61.07 937.97,58.35 943.70,58.17 949.43,56.21 955.16,54.49 960.89,52.43 966.61,51.59 972.34,50.69 978.07,48.42 983.80,47.54 989.94,44.76 996.49,43.77 1003.04,40.85 1009.58,38.61 1016.13,43.63 1022.68,43.16 1029.23,41.85 1035.77,39.79 1042.32,44.81 1048.87,43.00 1055.42,47.99 1061.96,45.77 1068.51,44.24 1075.06,41.74 1081.03,38.84 1086.42,43.83 1091.81,41.67 1097.21,39.50 1102.60,38.11 1107.99,36.14 1113.38,35.90 1118.77,33.37 1124.17,30.99 1129.56,32.25 1134.95,31.69 1140.34,31.81 1145.74,28.97 1151.13,30.96 1156.52,28.54 1161.91,27.05 1167.30,25.00"/>
<text x="620.0" y="588" text-anchor="middle" font-family="sans-serif" font-size="12" fill="#333">Monthly Balance Curve</text>
<text x="15" y="287.5" transform="rotate(-90 15,287.5)" text-anchor="middle" font-family="sans-serif" font-size="12" fill="#333">Capital</text>
</svg>