<svg xmlns="http://www.w3.org/2000/svg" width="1200" height="600" viewBox="0 0 1200 600">
<desc>Equity curve with drawdown fill; x-axis is months only (no exact timestamps)</desc>
<text x="600.0" y="18.0" text-anchor="middle" font-family="sans-serif" font-size="14">Balance Curve 2025 (UTC)</text>
<rect x="70" y="25" width="1100" height="525" fill="white" stroke="#ccc" />
<line x1="70" y1="550.00" x2="1170" y2="550.00" stroke="#eee"/>
<text x="62" y="554.0" text-anchor="end" font-family="sans-serif" font-size="11" fill="#555">0.00</text>
<line x1="70" y1="445.00" x2="1170" y2="445.00" stroke="#eee"/>
<text x="62" y="449.0" text-anchor="end" font-family="sans-serif" font-size="11" fill="#555">20981</text>
<line x1="70" y1="340.00" x2="1170" y2="340.00" stroke="#eee"/>
<text x="62" y="344.0" text-anchor="end" font-family="sans-serif" font-size="11" fill="#555">41962</text>
<line x1="70" y1="235.00" x2="1170" y2="235.00" stroke="#eee"/>
<text x="62" y="239.0" text-anchor="end" font-family="sans-serif" font-size="11" fill="#555">62942</text>
<line x1="70" y1="130.00" x2="1170" y2="130.00" stroke="#eee"/>
<text x="62" y="134.0" text-anchor="end" font-family="sans-serif" font-size="11" fill="#555">83923</text>
<line x1="70" y1="25.00" x2="1170" y2="25.00" stroke="#eee"/>
<text x="62" y="29.0" text-anchor="end" font-family="sans-serif" font-size="11" fill="#555">104904</text>
<line x1="207.50" y1="25" x2="207.50" y2="550" stroke="#f2f2f2"/>
<line x1="345.00" y1="25" x2="345.00" y2="550" stroke="#f2f2f2"/>
<line x1="482.50" y1="25" x2="482.50" y2="550" stroke="#f2f2f2"/>
<line x1="620.00" y1="25" x2="620.00" y2="550" stroke="#f2f2f2"/>
<line x1="757.50" y1="25" x2="757.50" y2="550" stroke="#f2f2f2"/>
<line x1="895.00" y1="25" x2="895.00" y2="550" stroke="#f2f2f2"/>
<line x1="1032.50" y1="25" x2="1032.50" y2="550" stroke="#f2f2f2"/>
<text x="138.75" y="566.00" text-anchor="middle" font-family="sans-serif" font-size="11" fill="#444">Jan</text>
<text x="276.25" y="566.00" text-anchor="middle" font-family="sans-serif" font-size="11" fill="#444">Feb</text>
<text x="413.75" y="566.00" text-anchor="middle" font-family="sans-serif" font-size="11" fill="#444">Mar</text>
<text x="551.25" y="566.00" text-anchor="middle" font-family="sans-serif" font-size="11" fill="#444">Apr</text>
<text x="688.75" y="566.00" text-anchor="middle" font-family="sans-serif" font-size="11" fill="#444">May</text>
<text x="826.25" y="566.00" text-anchor="middle" font-family="sans-serif" font-size="11" fill="#444">Jun</text>
<text x="963.75" y="566.00" text-anchor="middle" font-family="sans-serif" font-size="11" fill="#444">Jul</text>
<text x="1101.25" y="566.00" text-anchor="middle" font-family="sans-serif" font-size="11" fill="#444">Aug</text>
<line x1="70" y1="550" x2="1170" y2="550" stroke="#888"/>
<line x1="70" y1="25" x2="70" y2="550" stroke="#888"/>
<line x1="75.73" y1="550.00" x2="75.73" y2="556.00" stroke="#888"/>
<line x1="1135.62"   y1="550.00" x2="1135.62"   y2="556.00" stroke="#888"/>
<text x="75.73" y="582.00" text-anchor="start" font-family="sans-serif" font-size="11" fill="#333">Initial Balance: 100000</text>
<text x="1135.62"   y="582.00" text-anchor="end"   font-family="sans-serif" font-size="11" fill="#333">Ending Balance: 102604</text>
<path d="M 98.65 48.00 L 110.10 48.00 L 121.56 48.00 L 133.02 48.00 L 133.02 50.32 L 121.56 51.39 L 110.10 53.43 L 98.65 53.15 Z" fill="#d0d0d0" fill-opacity="0.5" stroke="none"/>
<path d="M 356.46 29.98 L 379.38 29.98 L 402.29 29.98 L 402.29 30.80 L 379.38 32.92 L 356.46 35.31 Z" fill="#d0d0d0" fill-opacity="0.5" stroke="none"/>
<path d="M 485.94 25.70 L 492.81 25.70 L 499.69 25.70 L 506.56 25.70 L 513.44 25.70 L 520.31 25.70 L 527.19 25.70 L 534.06 25.70 L 540.94 25.70 L 547.81 25.70 L 554.69 25.70 L 554.69 26.45 L 547.81 29.39 L 540.94 31.17 L 534.06 31.29 L 527.19 32.82 L 520.31 33.58 L 513.44 31.58 L 506.56 26.34 L 499.69 29.36 L 492.81 29.40 L 485.94 31.07 Z" fill="#d0d0d0" fill-opacity="0.5" stroke="none"/>
<path d="M 568.44 25.00 L 575.31 25.00 L 582.19 25.00 L 589.06 25.00 L 595.94 25.00 L 602.81 25.00 L 609.69 25.00 L 616.56 25.00 L 633.75 25.00 L 661.25 25.00 L 688.75 25.00 L 716.25 25.00 L 743.75 25.00 L 780.42 25.00 L 826.25 25.00 L 872.08 25.00 L 908.75 25.00 L 936.25 25.00 L 963.75 25.00 L 991.25 25.00 L 1018.75 25.00 L 1066.88 25.00 L 1135.62 25.00 L 1135.62 36.51 L 1066.88 38.57 L 1018.75 40.80 L 991.25 35.53 L 963.75 37.66 L 936.25 39.96 L 908.75 34.73 L 872.08 37.61 L 826.25 40.07 L 780.42 42.18 L 743.75 44.58 L 716.25 39.35 L 688.75 41.74 L 661.25 36.47 L 633.75 38.97 L 616.56 33.68 L 609.69 34.32 L 602.81 28.99 L 595.94 30.26 L 589.06 32.75 L 582.19 32.60 L 575.31 27.36 L 568.44 30.38 Z" fill="#d0d0d0" fill-opacity="0.5" stroke="none"/>
<polyline fill="none" stroke="#111" stroke-width="1.2" points="75.73,49.54 87.19,48.00 98.65,53.15 110.10,53.43 121.56,51.39 133.02,50.32 144.48,47.73 155.94,45.45 167.40,42.84 178.85,40.21 190.31,39.32 201.77,36.96 230.42,35.04 276.25,32.65 322.08,29.98 356.46,35.31 379.38,32.92 402.29,30.80 425.21,28.89 448.12,27.53 471.04,25.70 485.94,31.07 492.81,29.40 499.69,29.36 506.56,26.34 513.44,31.58 520.31,33.58 527.19,32.82 534.06,31.29 540.94,31.17 547.81,29.39 554.69,26.45 561.56,25.00 568.44,30.38 575.31,27.36 582.19,32.60 589.06,32.75 595.94,30.26 602.81,28.99 609.69,34.32 616.56,33.68 633.75,38.97 661.25,36.47 688.75,41.74 716.25,39.35 743.75,44.58 780.42,42.18 826.25,40.07 872.08,37.61 908.75,34.73 936.25,39.96 963.75,37.66 991.25,35.53 1018.75,40.80 1066.88,38.57 1135.62,36.51"/>
<text x="15" y="287.5" transform="rotate(-90 15,287.5)" text-anchor="middle" font-family="sans-serif" font-size="12" fill="#333">USD</text>
</svg>