<svg xmlns="http://www.w3.org/2000/svg" width="1200" height="600" viewBox="0 0 1200 600">
<desc>Equity curve with drawdown fill; x-axis is months only (no exact timestamps)</desc>
<text x="600.0" y="18.0" text-anchor="middle" font-family="sans-serif" font-size="14">Balance Curve 2025 (UTC)</text>
<rect x="70" y="25" width="1100" height="525" fill="white" stroke="#ccc" />
<line x1="70" y1="550.00" x2="1170" y2="550.00" stroke="#eee"/>
<text x="62" y="554.0" text-anchor="end" font-family="sans-serif" font-size="11" fill="#555">0.00</text>
<line x1="70" y1="445.00" x2="1170" y2="445.00" stroke="#eee"/>
<text x="62" y="449.0" text-anchor="end" font-family="sans-serif" font-size="11" fill="#555">73483</text>
<line x1="70" y1="340.00" x2="1170" y2="340.00" stroke="#eee"/>
<text x="62" y="344.0" text-anchor="end" font-family="sans-serif" font-size="11" fill="#555">146966</text>
<line x1="70" y1="235.00" x2="1170" y2="235.00" stroke="#eee"/>
<text x="62" y="239.0" text-anchor="end" font-family="sans-serif" font-size="11" fill="#555">220448</text>
<line x1="70" y1="130.00" x2="1170" y2="130.00" stroke="#eee"/>
<text x="62" y="134.0" text-anchor="end" font-family="sans-serif" font-size="11" fill="#555">293931</text>
<line x1="70" y1="25.00" x2="1170" y2="25.00" stroke="#eee"/>
<text x="62" y="29.0" text-anchor="end" font-family="sans-serif" font-size="11" fill="#555">367414</text>
<line x1="207.50" y1="25" x2="207.50" y2="550" stroke="#f2f2f2"/>
<line x1="345.00" y1="25" x2="345.00" y2="550" stroke="#f2f2f2"/>
<line x1="482.50" y1="25" x2="482.50" y2="550" stroke="#f2f2f2"/>
<line x1="620.00" y1="25" x2="620.00" y2="550" stroke="#f2f2f2"/>
<line x1="757.50" y1="25" x2="757.50" y2="550" stroke="#f2f2f2"/>
<line x1="895.00" y1="25" x2="895.00" y2="550" stroke="#f2f2f2"/>
<line x1="1032.50" y1="25" x2="1032.50" y2="550" stroke="#f2f2f2"/>
<text x="138.75" y="566.00" text-anchor="middle" font-family="sans-serif" font-size="11" fill="#444">Jan</text>
<text x="276.25" y="566.00" text-anchor="middle" font-family="sans-serif" font-size="11" fill="#444">Feb</text>
<text x="413.75" y="566.00" text-anchor="middle" font-family="sans-serif" font-size="11" fill="#444">Mar</text>
<text x="551.25" y="566.00" text-anchor="middle" font-family="sans-serif" font-size="11" fill="#444">Apr</text>
<text x="688.75" y="566.00" text-anchor="middle" font-family="sans-serif" font-size="11" fill="#444">May</text>
<text x="826.25" y="566.00" text-anchor="middle" font-family="sans-serif" font-size="11" fill="#444">Jun</text>
<text x="963.75" y="566.00" text-anchor="middle" font-family="sans-serif" font-size="11" fill="#444">Jul</text>
<text x="1101.25" y="566.00" text-anchor="middle" font-family="sans-serif" font-size="11" fill="#444">Aug</text>
<line x1="70" y1="550" x2="1170" y2="550" stroke="#888"/>
<line x1="70" y1="25" x2="70" y2="550" stroke="#888"/>
<line x1="75.73" y1="550.00" x2="75.73" y2="556.00" stroke="#888"/>
<line x1="1135.62"   y1="550.00" x2="1135.62"   y2="556.00" stroke="#888"/>
<text x="75.73" y="582.00" text-anchor="start" font-family="sans-serif" font-size="11" fill="#333">Initial Balance: 350124</text>
<text x="1135.62"   y="582.00" text-anchor="end"   font-family="sans-serif" font-size="11" fill="#333">Ending Balance: 359544</text>
<path d="M 98.65 48.16 L 110.10 48.16 L 121.56 48.16 L 133.02 48.16 L 133.02 50.42 L 121.56 51.50 L 110.10 53.54 L 98.65 53.27 Z" fill="#d0d0d0" fill-opacity="0.5" stroke="none"/>
<path d="M 356.46 30.11 L 379.38 30.11 L 402.29 30.11 L 402.29 30.90 L 379.38 33.01 L 356.46 35.41 Z" fill="#d0d0d0" fill-opacity="0.5" stroke="none"/>
<path d="M 485.94 25.80 L 492.81 25.80 L 499.69 25.80 L 506.56 25.80 L 513.44 25.80 L 520.31 25.80 L 527.19 25.80 L 534.06 25.80 L 540.94 25.80 L 547.81 25.80 L 554.69 25.80 L 554.69 26.45 L 547.81 29.39 L 540.94 31.18 L 534.06 31.31 L 527.19 32.84 L 520.31 33.60 L 513.44 31.63 L 506.56 26.39 L 499.69 29.40 L 492.81 29.45 L 485.94 31.13 Z" fill="#d0d0d0" fill-opacity="0.5" stroke="none"/>
<path d="M 568.44 25.00 L 575.31 25.00 L 582.19 25.00 L 589.06 25.00 L 595.94 25.00 L 602.81 25.00 L 609.69 25.00 L 616.56 25.00 L 633.75 25.00 L 661.25 25.00 L 688.75 25.00 L 716.25 25.00 L 743.75 25.00 L 780.42 25.00 L 826.25 25.00 L 872.08 25.00 L 908.75 25.00 L 936.25 25.00 L 963.75 25.00 L 991.25 25.00 L 1018.75 25.00 L 1066.88 25.00 L 1135.62 25.00 L 1135.62 36.25 L 1066.88 38.31 L 1018.75 40.54 L 991.25 35.30 L 963.75 37.43 L 936.25 39.73 L 908.75 34.54 L 872.08 37.41 L 826.25 39.87 L 780.42 41.98 L 743.75 44.38 L 716.25 39.18 L 688.75 41.57 L 661.25 36.34 L 633.75 38.84 L 616.56 33.59 L 609.69 34.23 L 602.81 28.93 L 595.94 30.20 L 589.06 32.70 L 582.19 32.55 L 575.31 27.32 L 568.44 30.34 Z" fill="#d0d0d0" fill-opacity="0.5" stroke="none"/>
<polyline fill="none" stroke="#111" stroke-width="1.2" points="75.73,49.71 87.19,48.16 98.65,53.27 110.10,53.54 121.56,51.50 133.02,50.42 144.48,47.84 155.94,45.57 167.40,42.96 178.85,40.33 190.31,39.43 201.77,37.07 230.42,35.16 276.25,32.77 322.08,30.11 356.46,35.41 379.38,33.01 402.29,30.90 425.21,28.99 448.12,27.63 471.04,25.80 485.94,31.13 492.81,29.45 499.69,29.40 506.56,26.39 513.44,31.63 520.31,33.60 527.19,32.84 534.06,31.31 540.94,31.18 547.81,29.39 554.69,26.45 561.56,25.00 568.44,30.34 575.31,27.32 582.19,32.55 589.06,32.70 595.94,30.20 602.81,28.93 609.69,34.23 616.56,33.59 633.75,38.84 661.25,36.34 688.75,41.57 716.25,39.18 743.75,44.38 780.42,41.98 826.25,39.87 872.08,37.41 908.75,34.54 936.25,39.73 963.75,37.43 991.25,35.30 1018.75,40.54 1066.88,38.31 1135.62,36.25"/>
<text x="15" y="287.5" transform="rotate(-90 15,287.5)" text-anchor="middle" font-family="sans-serif" font-size="12" fill="#333">USD</text>
</svg>