<svg xmlns="http://www.w3.org/2000/svg" width="1200" height="600" viewBox="0 0 1200 600">
<desc>Equity curve with drawdown fill</desc>
<text x="600.0" y="18.0" text-anchor="middle" font-family="sans-serif" font-size="14">Portfolio 2010</text>
<rect x="70" y="25" width="1100" height="525" fill="white" stroke="#ccc" />
<line x1="70" y1="550.00" x2="1170" y2="550.00" stroke="#eee"/>
<text x="62" y="554.0" text-anchor="end" font-family="sans-serif" font-size="11" fill="#555">0.00</text>
<line x1="70" y1="445.00" x2="1170" y2="445.00" stroke="#eee"/>
<text x="62" y="449.0" text-anchor="end" font-family="sans-serif" font-size="11" fill="#555">25718</text>
<line x1="70" y1="340.00" x2="1170" y2="340.00" stroke="#eee"/>
<text x="62" y="344.0" text-anchor="end" font-family="sans-serif" font-size="11" fill="#555">51436</text>
<line x1="70" y1="235.00" x2="1170" y2="235.00" stroke="#eee"/>
<text x="62" y="239.0" text-anchor="end" font-family="sans-serif" font-size="11" fill="#555">77154</text>
<line x1="70" y1="130.00" x2="1170" y2="130.00" stroke="#eee"/>
<text x="62" y="134.0" text-anchor="end" font-family="sans-serif" font-size="11" fill="#555">102872</text>
<line x1="70" y1="25.00" x2="1170" y2="25.00" stroke="#eee"/>
<text x="62" y="29.0" text-anchor="end" font-family="sans-serif" font-size="11" fill="#555">128590</text>
<line x1="154.02" y1="25" x2="154.02" y2="550" stroke="#f2f2f2"/>
<text x="154.02" y="566" text-anchor="middle" font-family="sans-serif" font-size="11" fill="#555">Feb</text>
<line x1="239.38" y1="25" x2="239.38" y2="550" stroke="#f2f2f2"/>
<text x="239.38" y="566" text-anchor="middle" font-family="sans-serif" font-size="11" fill="#555">Mar</text>
<line x1="333.88" y1="25" x2="333.88" y2="550" stroke="#f2f2f2"/>
<text x="333.88" y="566" text-anchor="middle" font-family="sans-serif" font-size="11" fill="#555">Apr</text>
<line x1="425.33" y1="25" x2="425.33" y2="550" stroke="#f2f2f2"/>
<text x="425.33" y="566" text-anchor="middle" font-family="sans-serif" font-size="11" fill="#555">May</text>
<line x1="519.83" y1="25" x2="519.83" y2="550" stroke="#f2f2f2"/>
<text x="519.83" y="566" text-anchor="middle" font-family="sans-serif" font-size="11" fill="#555">Jun</text>
<line x1="611.29" y1="25" x2="611.29" y2="550" stroke="#f2f2f2"/>
<text x="611.29" y="566" text-anchor="middle" font-family="sans-serif" font-size="11" fill="#555">Jul</text>
<line x1="705.79" y1="25" x2="705.79" y2="550" stroke="#f2f2f2"/>
<text x="705.79" y="566" text-anchor="middle" font-family="sans-serif" font-size="11" fill="#555">Aug</text>
<line x1="800.29" y1="25" x2="800.29" y2="550" stroke="#f2f2f2"/>
<text x="800.29" y="566" text-anchor="middle" font-family="sans-serif" font-size="11" fill="#555">Sep</text>
<line x1="891.74" y1="25" x2="891.74" y2="550" stroke="#f2f2f2"/>
<text x="891.74" y="566" text-anchor="middle" font-family="sans-serif" font-size="11" fill="#555">Oct</text>
<line x1="986.24" y1="25" x2="986.24" y2="550" stroke="#f2f2f2"/>
<text x="986.24" y="566" text-anchor="middle" font-family="sans-serif" font-size="11" fill="#555">Nov</text>
<line x1="1077.70" y1="25" x2="1077.70" y2="550" stroke="#f2f2f2"/>
<text x="1077.70" y="566" text-anchor="middle" font-family="sans-serif" font-size="11" fill="#555">Dec</text>
<line x1="1170.00" y1="25" x2="1170.00" y2="550" stroke="#f2f2f2"/>
<text x="1170.00" y="566" text-anchor="middle" font-family="sans-serif" font-size="11" fill="#555">Jan</text>
<line x1="70" y1="550" x2="1170" y2="550" stroke="#888"/>
<line x1="70" y1="25" x2="70" y2="550" stroke="#888"/>
<path d="M 70.00 141.73 L 70.00 143.65 Z" fill="#d0d0d0" fill-opacity="0.5" stroke="none"/>
<path d="M 83.28 137.40 L 83.28 137.73 Z" fill="#d0d0d0" fill-opacity="0.5" stroke="none"/>
<path d="M 102.58 132.88 L 102.58 134.20 Z" fill="#d0d0d0" fill-opacity="0.5" stroke="none"/>
<path d="M 180.60 109.88 L 183.45 109.88 L 186.42 109.88 L 189.45 109.88 L 201.86 109.88 L 204.89 109.88 L 207.79 109.88 L 208.78 109.88 L 208.82 109.88 L 211.11 109.88 L 222.59 109.88 L 226.19 109.88 L 229.62 109.88 L 232.29 109.88 L 243.64 109.88 L 244.20 109.88 L 247.57 109.88 L 250.53 109.88 L 268.90 109.88 L 274.31 109.88 L 293.38 109.88 L 310.31 109.88 L 310.76 109.88 L 314.95 109.88 L 336.01 109.88 L 338.77 109.88 L 360.23 109.88 L 367.32 109.88 L 367.44 109.88 L 377.77 109.88 L 396.48 109.88 L 399.87 109.88 L 400.96 109.88 L 402.22 109.88 L 403.07 109.88 L 411.46 109.88 L 415.32 109.88 L 417.88 109.88 L 424.35 109.88 L 431.78 109.88 L 433.51 109.88 L 436.38 109.88 L 441.59 109.88 L 442.28 109.88 L 442.72 109.88 L 443.02 109.88 L 443.04 109.88 L 444.06 109.88 L 444.11 109.88 L 444.31 109.88 L 444.64 109.88 L 444.75 109.88 L 445.36 109.88 L 445.63 109.88 L 445.63 112.60 L 445.36 114.66 L 444.75 118.03 L 444.64 120.82 L 444.31 124.47 L 444.11 126.66 L 444.06 129.72 L 443.04 132.96 L 443.02 135.92 L 442.72 129.54 L 442.28 132.72 L 441.59 135.45 L 436.38 129.07 L 433.51 131.46 L 431.78 131.72 L 424.35 125.29 L 417.88 128.36 L 415.32 131.24 L 411.46 124.80 L 403.07 126.92 L 402.22 125.34 L 400.96 118.82 L 399.87 122.50 L 396.48 126.15 L 377.77 128.20 L 367.44 130.31 L 367.32 123.86 L 360.23 126.31 L 338.77 127.84 L 336.01 131.13 L 314.95 133.26 L 310.76 135.79 L 310.31 138.71 L 293.38 141.32 L 274.31 140.23 L 268.90 139.22 L 250.53 141.00 L 247.57 141.52 L 244.20 135.24 L 243.64 137.92 L 232.29 140.32 L 229.62 134.02 L 226.19 136.53 L 222.59 138.12 L 211.11 131.79 L 208.82 135.04 L 208.78 137.58 L 207.79 131.24 L 204.89 131.66 L 201.86 125.24 L 189.45 118.72 L 186.42 122.40 L 183.45 115.85 L 180.60 116.52 Z" fill="#d0d0d0" fill-opacity="0.5" stroke="none"/>
<path d="M 453.89 95.84 L 454.00 95.84 L 454.11 95.84 L 454.29 95.84 L 454.29 96.77 L 454.11 100.37 L 454.00 103.05 L 453.89 102.69 Z" fill="#d0d0d0" fill-opacity="0.5" stroke="none"/>
<path d="M 454.67 95.55 L 454.80 95.55 L 454.87 95.55 L 455.08 95.55 L 455.92 95.55 L 456.52 95.55 L 457.10 95.55 L 460.99 95.55 L 463.15 95.55 L 463.21 95.55 L 466.74 95.55 L 466.89 95.55 L 466.89 96.88 L 466.74 100.41 L 463.21 103.27 L 463.15 106.49 L 460.99 99.69 L 457.10 102.50 L 456.52 106.00 L 455.92 108.24 L 455.08 110.99 L 454.87 104.25 L 454.80 104.33 L 454.67 102.40 Z" fill="#d0d0d0" fill-opacity="0.5" stroke="none"/>
<path d="M 474.54 92.89 L 474.60 92.89 L 474.75 92.89 L 474.75 94.53 L 474.60 97.48 L 474.54 99.78 Z" fill="#d0d0d0" fill-opacity="0.5" stroke="none"/>
<path d="M 479.64 74.10 L 481.89 74.10 L 481.89 74.10 L 482.02 74.10 L 482.14 74.10 L 482.28 74.10 L 482.66 74.10 L 483.59 74.10 L 484.26 74.10 L 484.27 74.10 L 484.78 74.10 L 485.22 74.10 L 485.60 74.10 L 485.60 74.10 L 485.74 74.10 L 486.43 74.10 L 486.73 74.10 L 487.02 74.10 L 487.26 74.10 L 487.45 74.10 L 487.48 74.10 L 488.11 74.10 L 488.23 74.10 L 496.63 74.10 L 498.76 74.10 L 499.69 74.10 L 500.42 74.10 L 500.69 74.10 L 500.99 74.10 L 501.92 74.10 L 503.33 74.10 L 505.39 74.10 L 506.34 74.10 L 506.65 74.10 L 506.71 74.10 L 506.83 74.10 L 506.88 74.10 L 507.00 74.10 L 508.66 74.10 L 508.85 74.10 L 509.40 74.10 L 509.89 74.10 L 520.90 74.10 L 521.21 74.10 L 521.27 74.10 L 521.77 74.10 L 521.80 74.10 L 521.85 74.10 L 521.96 74.10 L 525.06 74.10 L 526.30 74.10 L 527.94 74.10 L 530.70 74.10 L 530.81 74.10 L 531.09 74.10 L 538.32 74.10 L 542.52 74.10 L 543.26 74.10 L 545.98 74.10 L 548.02 74.10 L 549.16 74.10 L 552.42 74.10 L 559.47 74.10 L 560.87 74.10 L 564.01 74.10 L 564.58 74.10 L 581.12 74.10 L 583.09 74.10 L 583.09 77.40 L 581.12 80.70 L 564.58 83.97 L 564.01 87.12 L 560.87 85.07 L 559.47 85.69 L 552.42 89.60 L 549.16 91.72 L 548.02 84.69 L 545.98 77.57 L 543.26 80.26 L 542.52 83.87 L 538.32 86.65 L 531.09 89.72 L 530.81 93.58 L 530.70 93.84 L 527.94 86.88 L 526.30 87.81 L 525.06 90.10 L 521.96 93.70 L 521.85 96.43 L 521.80 98.92 L 521.77 92.03 L 521.27 85.01 L 521.21 85.32 L 520.90 83.28 L 509.89 76.14 L 509.40 79.71 L 508.85 81.78 L 508.66 74.63 L 507.00 76.62 L 506.88 78.70 L 506.83 81.38 L 506.71 74.22 L 506.65 77.77 L 506.34 81.22 L 505.39 84.86 L 503.33 84.90 L 501.92 87.13 L 500.99 87.68 L 500.69 90.76 L 500.42 92.87 L 499.69 96.40 L 498.76 96.19 L 496.63 99.26 L 488.23 92.35 L 488.11 95.36 L 487.48 97.85 L 487.45 90.92 L 487.26 90.84 L 487.02 94.25 L 486.73 96.63 L 486.43 96.96 L 485.74 99.90 L 485.60 93.04 L 485.60 86.07 L 485.22 78.98 L 484.78 82.92 L 484.27 84.33 L 484.26 88.40 L 483.59 81.34 L 482.66 83.52 L 482.28 84.70 L 482.14 88.22 L 482.02 91.28 L 481.89 84.26 L 481.89 88.32 L 479.64 81.25 Z" fill="#d0d0d0" fill-opacity="0.5" stroke="none"/>
<path d="M 589.38 73.38 L 591.21 73.38 L 592.08 73.38 L 592.08 73.91 L 591.21 77.93 L 589.38 80.56 Z" fill="#d0d0d0" fill-opacity="0.5" stroke="none"/>
<path d="M 612.50 63.36 L 613.24 63.36 L 613.39 63.36 L 616.05 63.36 L 616.11 63.36 L 628.48 63.36 L 637.45 63.36 L 637.45 64.36 L 628.48 65.86 L 616.11 69.20 L 616.05 71.81 L 613.39 75.84 L 613.24 68.61 L 612.50 70.67 Z" fill="#d0d0d0" fill-opacity="0.5" stroke="none"/>
<path d="M 667.30 52.29 L 670.16 52.29 L 670.69 52.29 L 673.66 52.29 L 674.81 52.29 L 676.59 52.29 L 677.24 52.29 L 679.57 52.29 L 680.16 52.29 L 680.23 52.29 L 680.36 52.29 L 680.51 52.29 L 680.80 52.29 L 692.49 52.29 L 710.86 52.29 L 713.11 52.29 L 717.02 52.29 L 722.80 52.29 L 722.93 52.29 L 722.94 52.29 L 723.02 52.29 L 735.67 52.29 L 735.75 52.29 L 736.63 52.29 L 737.24 52.29 L 738.11 52.29 L 738.37 52.29 L 740.68 52.29 L 760.79 52.29 L 762.47 52.29 L 762.93 52.29 L 765.05 52.29 L 765.20 52.29 L 777.84 52.29 L 777.91 52.29 L 780.17 52.29 L 787.15 52.29 L 801.61 52.29 L 818.83 52.29 L 823.60 52.29 L 837.11 52.29 L 841.88 52.29 L 841.96 52.29 L 842.02 52.29 L 842.15 52.29 L 850.77 52.29 L 851.05 52.29 L 863.73 52.29 L 865.59 52.29 L 866.13 52.29 L 871.64 52.29 L 883.71 52.29 L 884.04 52.29 L 884.67 52.29 L 890.83 52.29 L 902.18 52.29 L 905.12 52.29 L 905.98 52.29 L 908.52 52.29 L 911.09 52.29 L 911.98 52.29 L 914.81 52.29 L 914.85 52.29 L 927.81 52.29 L 931.65 52.29 L 936.11 52.29 L 936.36 52.29 L 936.62 52.29 L 944.06 52.29 L 948.26 52.29 L 949.14 52.29 L 951.64 52.29 L 951.76 52.29 L 953.06 52.29 L 953.69 52.29 L 953.94 52.29 L 955.16 52.29 L 956.89 52.29 L 965.22 52.29 L 969.68 52.29 L 978.91 52.29 L 986.37 52.29 L 991.07 52.29 L 994.79 52.29 L 996.67 52.29 L 1000.15 52.29 L 1000.60 52.29 L 1007.87 52.29 L 1007.95 52.29 L 1010.74 52.29 L 1012.03 52.29 L 1012.78 52.29 L 1015.57 52.29 L 1015.61 52.29 L 1016.04 52.29 L 1017.91 52.29 L 1021.19 52.29 L 1033.99 52.29 L 1039.24 52.29 L 1051.95 52.29 L 1053.47 52.29 L 1055.10 52.29 L 1057.52 52.29 L 1057.55 52.29 L 1057.69 52.29 L 1058.23 52.29 L 1058.23 53.56 L 1057.69 57.32 L 1057.55 60.04 L 1057.52 63.56 L 1055.10 56.16 L 1053.47 59.86 L 1051.95 63.18 L 1039.24 55.77 L 1033.99 58.74 L 1021.19 62.51 L 1017.91 66.24 L 1016.04 69.57 L 1015.61 72.58 L 1015.57 76.44 L 1012.78 69.21 L 1012.03 71.14 L 1010.74 70.54 L 1007.95 70.13 L 1007.87 71.35 L 1000.60 64.06 L 1000.15 67.35 L 996.67 71.61 L 994.79 64.31 L 991.07 68.60 L 986.37 70.06 L 978.91 74.15 L 969.68 75.46 L 965.22 78.77 L 956.89 80.10 L 955.16 83.80 L 953.94 85.03 L 953.69 86.10 L 953.06 89.08 L 951.76 91.56 L 951.64 90.82 L 949.14 83.78 L 948.26 83.18 L 944.06 86.04 L 936.62 86.33 L 936.36 88.96 L 936.11 81.89 L 931.65 85.89 L 927.81 84.10 L 914.85 84.54 L 914.81 88.51 L 911.98 81.43 L 911.09 85.13 L 908.52 86.79 L 905.98 90.75 L 905.12 93.52 L 902.18 86.51 L 890.83 89.13 L 884.67 90.58 L 884.04 83.54 L 883.71 85.01 L 871.64 85.08 L 866.13 87.02 L 865.59 90.57 L 863.73 94.49 L 851.05 87.50 L 850.77 91.02 L 842.15 93.55 L 842.02 93.56 L 841.96 86.55 L 841.88 79.48 L 837.11 72.29 L 823.60 71.24 L 818.83 73.77 L 801.61 71.51 L 787.15 73.90 L 780.17 75.68 L 777.91 76.68 L 777.84 78.54 L 765.20 71.34 L 765.05 71.65 L 762.93 73.03 L 762.47 73.33 L 760.79 76.12 L 740.68 79.74 L 738.37 79.71 L 738.11 79.34 L 737.24 81.42 L 736.63 83.79 L 735.75 81.21 L 735.67 82.42 L 723.02 86.39 L 722.94 87.37 L 722.93 80.39 L 722.80 73.23 L 717.02 65.96 L 713.11 63.53 L 710.86 62.90 L 692.49 55.49 L 680.80 59.06 L 680.51 61.89 L 680.36 66.01 L 680.23 68.27 L 680.16 70.10 L 679.57 62.79 L 677.24 55.38 L 676.59 59.54 L 674.81 61.86 L 673.66 60.90 L 670.69 63.79 L 670.16 56.39 L 667.30 59.74 Z" fill="#d0d0d0" fill-opacity="0.5" stroke="none"/>
<path d="M 1073.01 44.15 L 1078.78 44.15 L 1078.78 48.34 L 1073.01 51.71 Z" fill="#d0d0d0" fill-opacity="0.5" stroke="none"/>
<path d="M 1103.36 29.77 L 1104.05 29.77 L 1115.82 29.77 L 1118.41 29.77 L 1119.25 29.77 L 1121.21 29.77 L 1122.72 29.77 L 1128.11 29.77 L 1128.57 29.77 L 1137.65 29.77 L 1138.94 29.77 L 1138.94 33.74 L 1137.65 33.59 L 1128.57 36.25 L 1128.11 35.79 L 1122.72 36.66 L 1121.21 34.79 L 1119.25 38.42 L 1118.41 30.70 L 1115.82 31.10 L 1104.05 34.14 L 1103.36 37.50 Z" fill="#d0d0d0" fill-opacity="0.5" stroke="none"/>
<path d="M 1161.89 25.00 L 1165.23 25.00 L 1170.00 25.00 L 1170.00 27.37 L 1165.23 30.51 L 1161.89 32.80 Z" fill="#d0d0d0" fill-opacity="0.5" stroke="none"/>
<polyline fill="none" stroke="#111" stroke-width="1.2" points="70.00,143.65 75.63,140.17 82.68,137.40 83.28,137.73 90.04,136.10 97.71,134.90 98.12,132.88 102.58,134.20 115.74,132.80 117.64,130.42 122.64,127.04 142.05,123.39 165.31,120.65 166.36,116.98 167.30,113.29 168.15,109.88 180.60,116.52 183.45,115.85 186.42,122.40 189.45,118.72 201.86,125.24 204.89,131.66 207.79,131.24 208.78,137.58 208.82,135.04 211.11,131.79 222.59,138.12 226.19,136.53 229.62,134.02 232.29,140.32 243.64,137.92 244.20,135.24 247.57,141.52 250.53,141.00 268.90,139.22 274.31,140.23 293.38,141.32 310.31,138.71 310.76,135.79 314.95,133.26 336.01,131.13 338.77,127.84 360.23,126.31 367.32,123.86 367.44,130.31 377.77,128.20 396.48,126.15 399.87,122.50 400.96,118.82 402.22,125.34 403.07,126.92 411.46,124.80 415.32,131.24 417.88,128.36 424.35,125.29 431.78,131.72 433.51,131.46 436.38,129.07 441.59,135.45 442.28,132.72 442.72,129.54 443.02,135.92 443.04,132.96 444.06,129.72 444.11,126.66 444.31,124.47 444.64,120.82 444.75,118.03 445.36,114.66 445.63,112.60 445.69,108.89 445.82,105.14 452.65,101.14 453.00,97.30 453.25,95.84 453.89,102.69 454.00,103.05 454.11,100.37 454.29,96.77 454.53,95.55 454.67,102.40 454.80,104.33 454.87,104.25 455.08,110.99 455.92,108.24 456.52,106.00 457.10,102.50 460.99,99.69 463.15,106.49 463.21,103.27 466.74,100.41 466.89,96.88 467.06,95.08 467.18,92.89 474.54,99.78 474.60,97.48 474.75,94.53 475.78,92.58 476.19,89.29 477.45,86.18 478.26,84.04 478.38,81.05 479.21,77.44 479.49,74.10 479.64,81.25 481.89,88.32 481.89,84.26 482.02,91.28 482.14,88.22 482.28,84.70 482.66,83.52 483.59,81.34 484.26,88.40 484.27,84.33 484.78,82.92 485.22,78.98 485.60,86.07 485.60,93.04 485.74,99.90 486.43,96.96 486.73,96.63 487.02,94.25 487.26,90.84 487.45,90.92 487.48,97.85 488.11,95.36 488.23,92.35 496.63,99.26 498.76,96.19 499.69,96.40 500.42,92.87 500.69,90.76 500.99,87.68 501.92,87.13 503.33,84.90 505.39,84.86 506.34,81.22 506.65,77.77 506.71,74.22 506.83,81.38 506.88,78.70 507.00,76.62 508.66,74.63 508.85,81.78 509.40,79.71 509.89,76.14 520.90,83.28 521.21,85.32 521.27,85.01 521.77,92.03 521.80,98.92 521.85,96.43 521.96,93.70 525.06,90.10 526.30,87.81 527.94,86.88 530.70,93.84 530.81,93.58 531.09,89.72 538.32,86.65 542.52,83.87 543.26,80.26 545.98,77.57 548.02,84.69 549.16,91.72 552.42,89.60 559.47,85.69 560.87,85.07 564.01,87.12 564.58,83.97 581.12,80.70 583.09,77.40 588.80,73.38 589.38,80.56 591.21,77.93 592.08,73.91 595.26,71.48 606.38,67.42 609.56,63.36 612.50,70.67 613.24,68.61 613.39,75.84 616.05,71.81 616.11,69.20 628.48,65.86 637.45,64.36 648.94,60.27 649.75,60.13 650.03,58.27 653.06,58.15 655.80,55.87 658.95,52.29 667.30,59.74 670.16,56.39 670.69,63.79 673.66,60.90 674.81,61.86 676.59,59.54 677.24,55.38 679.57,62.79 680.16,70.10 680.23,68.27 680.36,66.01 680.51,61.89 680.80,59.06 692.49,55.49 710.86,62.90 713.11,63.53 717.02,65.96 722.80,73.23 722.93,80.39 722.94,87.37 723.02,86.39 735.67,82.42 735.75,81.21 736.63,83.79 737.24,81.42 738.11,79.34 738.37,79.71 740.68,79.74 760.79,76.12 762.47,73.33 762.93,73.03 765.05,71.65 765.20,71.34 777.84,78.54 777.91,76.68 780.17,75.68 787.15,73.90 801.61,71.51 818.83,73.77 823.60,71.24 837.11,72.29 841.88,79.48 841.96,86.55 842.02,93.56 842.15,93.55 850.77,91.02 851.05,87.50 863.73,94.49 865.59,90.57 866.13,87.02 871.64,85.08 883.71,85.01 884.04,83.54 884.67,90.58 890.83,89.13 902.18,86.51 905.12,93.52 905.98,90.75 908.52,86.79 911.09,85.13 911.98,81.43 914.81,88.51 914.85,84.54 927.81,84.10 931.65,85.89 936.11,81.89 936.36,88.96 936.62,86.33 944.06,86.04 948.26,83.18 949.14,83.78 951.64,90.82 951.76,91.56 953.06,89.08 953.69,86.10 953.94,85.03 955.16,83.80 956.89,80.10 965.22,78.77 969.68,75.46 978.91,74.15 986.37,70.06 991.07,68.60 994.79,64.31 996.67,71.61 1000.15,67.35 1000.60,64.06 1007.87,71.35 1007.95,70.13 1010.74,70.54 1012.03,71.14 1012.78,69.21 1015.57,76.44 1015.61,72.58 1016.04,69.57 1017.91,66.24 1021.19,62.51 1033.99,58.74 1039.24,55.77 1051.95,63.18 1053.47,59.86 1055.10,56.16 1057.52,63.56 1057.55,60.04 1057.69,57.32 1058.23,53.56 1063.70,50.31 1071.73,47.97 1072.62,44.15 1073.01,51.71 1078.78,48.34 1079.84,43.90 1082.55,40.26 1082.65,35.95 1082.88,32.61 1085.88,31.50 1094.37,29.77 1103.36,37.50 1104.05,34.14 1115.82,31.10 1118.41,30.70 1119.25,38.42 1121.21,34.79 1122.72,36.66 1128.11,35.79 1128.57,36.25 1137.65,33.59 1138.94,33.74 1146.83,29.38 1160.04,25.00 1161.89,32.80 1165.23,30.51 1170.00,27.37"/>
<text x="620.0" y="588" text-anchor="middle" font-family="sans-serif" font-size="12" fill="#333">UTC time</text>
<text x="15" y="287.5" transform="rotate(-90 15,287.5)" text-anchor="middle" font-family="sans-serif" font-size="12" fill="#333">Capital</text>
</svg>