<svg xmlns="http://www.w3.org/2000/svg" width="1200" height="600" viewBox="0 0 1200 600">
<desc>Equity curve with drawdown fill; x-axis is months only (no exact timestamps)</desc>
<text x="600.0" y="18.0" text-anchor="middle" font-family="sans-serif" font-size="14">Portfolio 2010 (UTC)</text>
<rect x="70" y="25" width="1100" height="525" fill="white" stroke="#ccc" />
<line x1="70" y1="550.00" x2="1170" y2="550.00" stroke="#eee"/>
<text x="62" y="554.0" text-anchor="end" font-family="sans-serif" font-size="11" fill="#555">0.00</text>
<line x1="70" y1="445.00" x2="1170" y2="445.00" stroke="#eee"/>
<text x="62" y="449.0" text-anchor="end" font-family="sans-serif" font-size="11" fill="#555">26615</text>
<line x1="70" y1="340.00" x2="1170" y2="340.00" stroke="#eee"/>
<text x="62" y="344.0" text-anchor="end" font-family="sans-serif" font-size="11" fill="#555">53230</text>
<line x1="70" y1="235.00" x2="1170" y2="235.00" stroke="#eee"/>
<text x="62" y="239.0" text-anchor="end" font-family="sans-serif" font-size="11" fill="#555">79846</text>
<line x1="70" y1="130.00" x2="1170" y2="130.00" stroke="#eee"/>
<text x="62" y="134.0" text-anchor="end" font-family="sans-serif" font-size="11" fill="#555">106461</text>
<line x1="70" y1="25.00" x2="1170" y2="25.00" stroke="#eee"/>
<text x="62" y="29.0" text-anchor="end" font-family="sans-serif" font-size="11" fill="#555">133076</text>
<line x1="161.67" y1="25" x2="161.67" y2="550" stroke="#f2f2f2"/>
<line x1="253.33" y1="25" x2="253.33" y2="550" stroke="#f2f2f2"/>
<line x1="345.00" y1="25" x2="345.00" y2="550" stroke="#f2f2f2"/>
<line x1="436.67" y1="25" x2="436.67" y2="550" stroke="#f2f2f2"/>
<line x1="528.33" y1="25" x2="528.33" y2="550" stroke="#f2f2f2"/>
<line x1="620.00" y1="25" x2="620.00" y2="550" stroke="#f2f2f2"/>
<line x1="711.67" y1="25" x2="711.67" y2="550" stroke="#f2f2f2"/>
<line x1="803.33" y1="25" x2="803.33" y2="550" stroke="#f2f2f2"/>
<line x1="895.00" y1="25" x2="895.00" y2="550" stroke="#f2f2f2"/>
<line x1="986.67" y1="25" x2="986.67" y2="550" stroke="#f2f2f2"/>
<line x1="1078.33" y1="25" x2="1078.33" y2="550" stroke="#f2f2f2"/>
<text x="115.83" y="566.00" text-anchor="middle" font-family="sans-serif" font-size="11" fill="#444">Jan</text>
<text x="207.50" y="566.00" text-anchor="middle" font-family="sans-serif" font-size="11" fill="#444">Feb</text>
<text x="299.17" y="566.00" text-anchor="middle" font-family="sans-serif" font-size="11" fill="#444">Mar</text>
<text x="390.83" y="566.00" text-anchor="middle" font-family="sans-serif" font-size="11" fill="#444">Apr</text>
<text x="482.50" y="566.00" text-anchor="middle" font-family="sans-serif" font-size="11" fill="#444">May</text>
<text x="574.17" y="566.00" text-anchor="middle" font-family="sans-serif" font-size="11" fill="#444">Jun</text>
<text x="665.83" y="566.00" text-anchor="middle" font-family="sans-serif" font-size="11" fill="#444">Jul</text>
<text x="757.50" y="566.00" text-anchor="middle" font-family="sans-serif" font-size="11" fill="#444">Aug</text>
<text x="849.17" y="566.00" text-anchor="middle" font-family="sans-serif" font-size="11" fill="#444">Sep</text>
<text x="940.83" y="566.00" text-anchor="middle" font-family="sans-serif" font-size="11" fill="#444">Oct</text>
<text x="1032.50" y="566.00" text-anchor="middle" font-family="sans-serif" font-size="11" fill="#444">Nov</text>
<text x="1124.17" y="566.00" text-anchor="middle" font-family="sans-serif" font-size="11" fill="#444">Dec</text>
<line x1="70" y1="550" x2="1170" y2="550" stroke="#888"/>
<line x1="70" y1="25" x2="70" y2="550" stroke="#888"/>
<line x1="75.09" y1="550.00" x2="75.09" y2="556.00" stroke="#888"/>
<line x1="1167.30"   y1="550.00" x2="1167.30"   y2="556.00" stroke="#888"/>
<text x="75.09" y="582.00" text-anchor="start" font-family="sans-serif" font-size="11" fill="#333">Initial Balance: 100000</text>
<text x="1167.30"   y="582.00" text-anchor="end"   font-family="sans-serif" font-size="11" fill="#333">Ending Balance: 133076</text>
<path d="M 115.83 149.70 L 115.83 149.94 Z" fill="#d0d0d0" fill-opacity="0.5" stroke="none"/>
<path d="M 207.50 138.83 L 225.83 138.83 L 244.17 138.83 L 244.17 139.25 L 225.83 140.88 L 207.50 142.97 Z" fill="#d0d0d0" fill-opacity="0.5" stroke="none"/>
<path d="M 306.81 132.94 L 306.81 133.68 Z" fill="#d0d0d0" fill-opacity="0.5" stroke="none"/>
<path d="M 398.47 126.14 L 413.75 126.14 L 429.03 126.14 L 437.60 126.14 L 439.47 126.14 L 441.34 126.14 L 443.21 126.14 L 445.09 126.14 L 446.96 126.14 L 448.83 126.14 L 450.70 126.14 L 452.57 126.14 L 452.57 126.37 L 450.70 128.73 L 448.83 131.07 L 446.96 133.20 L 445.09 135.19 L 443.21 137.30 L 441.34 139.36 L 439.47 141.12 L 437.60 136.95 L 429.03 132.75 L 413.75 128.51 L 398.47 130.40 Z" fill="#d0d0d0" fill-opacity="0.5" stroke="none"/>
<path d="M 471.28 111.00 L 473.15 111.00 L 475.02 111.00 L 475.02 112.99 L 473.15 114.21 L 471.28 115.41 Z" fill="#d0d0d0" fill-opacity="0.5" stroke="none"/>
<path d="M 482.50 106.93 L 484.37 106.93 L 486.24 106.93 L 488.11 106.93 L 489.98 106.93 L 491.85 106.93 L 493.72 106.93 L 495.60 105.61 L 497.47 105.61 L 497.47 114.43 L 495.60 109.99 L 493.72 108.21 L 491.85 109.07 L 489.98 111.42 L 488.11 106.98 L 486.24 108.33 L 484.37 109.05 L 482.50 111.37 Z" fill="#d0d0d0" fill-opacity="0.5" stroke="none"/>
<path d="M 501.21 105.61 L 503.08 105.61 L 504.95 105.61 L 506.82 105.61 L 508.69 105.61 L 508.69 107.12 L 506.82 108.71 L 504.95 110.86 L 503.08 112.37 L 501.21 112.56 Z" fill="#d0d0d0" fill-opacity="0.5" stroke="none"/>
<path d="M 563.38 80.59 L 568.77 80.59 L 574.17 80.59 L 579.56 80.59 L 584.95 80.59 L 590.34 80.59 L 595.74 80.59 L 595.74 81.53 L 590.34 83.67 L 584.95 82.72 L 579.56 81.34 L 574.17 81.73 L 568.77 83.12 L 563.38 85.26 Z" fill="#d0d0d0" fill-opacity="0.5" stroke="none"/>
<path d="M 706.57 61.21 L 719.31 61.21 L 734.58 61.21 L 749.86 61.21 L 765.14 61.21 L 780.42 61.21 L 795.69 61.21 L 812.50 61.21 L 830.83 61.21 L 849.17 61.21 L 867.50 61.21 L 885.83 61.21 L 897.86 61.21 L 903.59 61.21 L 903.59 63.00 L 897.86 64.11 L 885.83 66.22 L 867.50 67.20 L 849.17 68.71 L 830.83 69.69 L 812.50 69.26 L 795.69 67.74 L 780.42 70.14 L 765.14 71.85 L 749.86 73.43 L 734.58 71.68 L 719.31 66.91 L 706.57 62.08 Z" fill="#d0d0d0" fill-opacity="0.5" stroke="none"/>
<path d="M 915.05 60.30 L 920.78 60.30 L 920.78 62.53 L 915.05 65.14 Z" fill="#d0d0d0" fill-opacity="0.5" stroke="none"/>
<path d="M 932.24 59.82 L 932.24 61.07 Z" fill="#d0d0d0" fill-opacity="0.5" stroke="none"/>
<path d="M 1016.13 38.61 L 1022.68 38.61 L 1029.23 38.61 L 1035.77 38.61 L 1042.32 38.61 L 1048.87 38.61 L 1055.42 38.61 L 1061.96 38.61 L 1068.51 38.61 L 1075.06 38.61 L 1081.03 38.61 L 1086.42 38.61 L 1091.81 38.61 L 1097.21 38.61 L 1097.21 39.50 L 1091.81 41.67 L 1086.42 43.82 L 1081.03 38.85 L 1075.06 41.74 L 1068.51 44.24 L 1061.96 45.77 L 1055.42 47.98 L 1048.87 43.00 L 1042.32 44.81 L 1035.77 39.79 L 1029.23 41.85 L 1022.68 43.16 L 1016.13 43.63 Z" fill="#d0d0d0" fill-opacity="0.5" stroke="none"/>
<path d="M 1129.56 30.99 L 1134.95 30.99 L 1140.34 30.99 L 1140.34 31.81 L 1134.95 31.69 L 1129.56 32.25 Z" fill="#d0d0d0" fill-opacity="0.5" stroke="none"/>
<path d="M 1151.13 28.97 L 1151.13 30.96 Z" fill="#d0d0d0" fill-opacity="0.5" stroke="none"/>
<polyline fill="none" stroke="#111" stroke-width="1.2" points="75.09,155.49 85.28,153.26 95.46,151.02 105.65,149.70 115.83,149.94 126.02,148.80 136.20,147.29 146.39,145.15 156.57,142.86 170.83,141.13 189.17,138.83 207.50,142.97 225.83,140.88 244.17,139.25 260.97,136.92 276.25,134.71 291.53,132.94 306.81,133.68 322.08,131.94 337.36,130.27 352.64,128.86 367.92,127.52 383.19,126.14 398.47,130.40 413.75,128.51 429.03,132.75 437.60,136.95 439.47,141.12 441.34,139.36 443.21,137.30 445.09,135.19 446.96,133.20 448.83,131.07 450.70,128.73 452.57,126.37 454.44,123.99 456.31,123.09 458.18,120.84 460.05,120.09 461.92,117.83 463.79,116.06 465.66,114.62 467.53,112.84 469.40,111.00 471.28,115.41 473.15,114.21 475.02,112.99 476.89,110.93 478.76,108.98 480.63,106.93 482.50,111.37 484.37,109.05 486.24,108.33 488.11,106.98 489.98,111.42 491.85,109.07 493.72,108.21 495.60,109.99 497.47,114.43 499.34,105.61 501.21,112.56 503.08,112.37 504.95,110.86 506.82,108.71 508.69,107.12 510.56,105.15 512.43,103.81 514.30,103.48 516.17,102.08 518.04,102.07 519.91,99.77 521.79,97.54 523.66,96.08 525.53,94.78 527.40,92.51 531.03,91.03 536.42,88.50 541.81,86.49 547.21,84.68 552.60,82.33 557.99,80.59 563.38,85.26 568.77,83.12 574.17,81.73 579.56,81.34 584.95,82.72 590.34,83.67 595.74,81.53 601.13,79.39 606.52,76.78 611.91,75.21 617.30,72.60 625.09,69.96 635.28,68.25 645.46,67.29 655.65,66.09 665.83,66.03 676.02,65.25 686.20,63.09 696.39,61.21 706.57,62.08 719.31,66.91 734.58,71.68 749.86,73.43 765.14,71.85 780.42,70.14 795.69,67.74 812.50,69.26 830.83,69.69 849.17,68.71 867.50,67.20 885.83,66.22 897.86,64.11 903.59,63.00 909.32,60.30 915.05,65.14 920.78,62.53 926.51,59.82 932.24,61.07 937.97,58.35 943.70,58.17 949.43,56.21 955.16,54.49 960.89,52.42 966.61,51.58 972.34,50.68 978.07,48.42 983.80,47.54 989.94,44.75 996.49,43.77 1003.04,40.85 1009.58,38.61 1016.13,43.63 1022.68,43.16 1029.23,41.85 1035.77,39.79 1042.32,44.81 1048.87,43.00 1055.42,47.98 1061.96,45.77 1068.51,44.24 1075.06,41.74 1081.03,38.85 1086.42,43.82 1091.81,41.67 1097.21,39.50 1102.60,38.11 1107.99,36.14 1113.38,35.90 1118.77,33.37 1124.17,30.99 1129.56,32.25 1134.95,31.69 1140.34,31.81 1145.74,28.97 1151.13,30.96 1156.52,28.55 1161.91,27.05 1167.30,25.00"/>
<text x="620.0" y="588" text-anchor="middle" font-family="sans-serif" font-size="12" fill="#333">Monthly Balance Curve</text>
<text x="15" y="287.5" transform="rotate(-90 15,287.5)" text-anchor="middle" font-family="sans-serif" font-size="12" fill="#333">Capital</text>
</svg>