<svg xmlns="http://www.w3.org/2000/svg" width="1200" height="600" viewBox="0 0 1200 600">
<desc>Equity curve with drawdown fill; x-axis is months only (no exact timestamps)</desc>
<text x="600.0" y="18.0" text-anchor="middle" font-family="sans-serif" font-size="14">Balance Curve 2017 (UTC)</text>
<rect x="70" y="25" width="1100" height="525" fill="white" stroke="#ccc" />
<line x1="70" y1="550.00" x2="1170" y2="550.00" stroke="#eee"/>
<text x="62" y="554.0" text-anchor="end" font-family="sans-serif" font-size="11" fill="#555">0.00</text>
<line x1="70" y1="445.00" x2="1170" y2="445.00" stroke="#eee"/>
<text x="62" y="449.0" text-anchor="end" font-family="sans-serif" font-size="11" fill="#555">113719</text>
<line x1="70" y1="340.00" x2="1170" y2="340.00" stroke="#eee"/>
<text x="62" y="344.0" text-anchor="end" font-family="sans-serif" font-size="11" fill="#555">227437</text>
<line x1="70" y1="235.00" x2="1170" y2="235.00" stroke="#eee"/>
<text x="62" y="239.0" text-anchor="end" font-family="sans-serif" font-size="11" fill="#555">341156</text>
<line x1="70" y1="130.00" x2="1170" y2="130.00" stroke="#eee"/>
<text x="62" y="134.0" text-anchor="end" font-family="sans-serif" font-size="11" fill="#555">454874</text>
<line x1="70" y1="25.00" x2="1170" y2="25.00" stroke="#eee"/>
<text x="62" y="29.0" text-anchor="end" font-family="sans-serif" font-size="11" fill="#555">568593</text>
<line x1="207.50" y1="25" x2="207.50" y2="550" stroke="#f2f2f2"/>
<line x1="345.00" y1="25" x2="345.00" y2="550" stroke="#f2f2f2"/>
<line x1="482.50" y1="25" x2="482.50" y2="550" stroke="#f2f2f2"/>
<line x1="620.00" y1="25" x2="620.00" y2="550" stroke="#f2f2f2"/>
<line x1="757.50" y1="25" x2="757.50" y2="550" stroke="#f2f2f2"/>
<line x1="895.00" y1="25" x2="895.00" y2="550" stroke="#f2f2f2"/>
<line x1="1032.50" y1="25" x2="1032.50" y2="550" stroke="#f2f2f2"/>
<text x="138.75" y="566.00" text-anchor="middle" font-family="sans-serif" font-size="11" fill="#444">Jan</text>
<text x="276.25" y="566.00" text-anchor="middle" font-family="sans-serif" font-size="11" fill="#444">Feb</text>
<text x="413.75" y="566.00" text-anchor="middle" font-family="sans-serif" font-size="11" fill="#444">Jun</text>
<text x="551.25" y="566.00" text-anchor="middle" font-family="sans-serif" font-size="11" fill="#444">Jul</text>
<text x="688.75" y="566.00" text-anchor="middle" font-family="sans-serif" font-size="11" fill="#444">Aug</text>
<text x="826.25" y="566.00" text-anchor="middle" font-family="sans-serif" font-size="11" fill="#444">Sep</text>
<text x="963.75" y="566.00" text-anchor="middle" font-family="sans-serif" font-size="11" fill="#444">Oct</text>
<text x="1101.25" y="566.00" text-anchor="middle" font-family="sans-serif" font-size="11" fill="#444">Dec</text>
<line x1="70" y1="550" x2="1170" y2="550" stroke="#888"/>
<line x1="70" y1="25" x2="70" y2="550" stroke="#888"/>
<line x1="79.82" y1="550.00" x2="79.82" y2="556.00" stroke="#888"/>
<line x1="1135.62"   y1="550.00" x2="1135.62"   y2="556.00" stroke="#888"/>
<text x="79.82" y="582.00" text-anchor="start" font-family="sans-serif" font-size="11" fill="#333">Initial Balance: 524944</text>
<text x="1135.62"   y="582.00" text-anchor="end"   font-family="sans-serif" font-size="11" fill="#333">Ending Balance: 568593</text>
<path d="M 138.75 58.24 L 158.39 58.24 L 178.04 58.24 L 197.68 58.24 L 276.25 58.24 L 356.46 58.24 L 379.38 58.24 L 402.29 58.24 L 425.21 58.24 L 448.12 58.24 L 471.04 58.24 L 505.42 58.24 L 551.25 58.24 L 597.08 58.24 L 633.75 58.24 L 633.75 59.82 L 597.08 63.63 L 551.25 67.40 L 505.42 65.44 L 471.04 68.06 L 448.12 71.75 L 425.21 75.44 L 402.29 77.99 L 379.38 70.66 L 356.46 69.27 L 276.25 70.26 L 197.68 73.13 L 178.04 71.14 L 158.39 73.11 L 138.75 65.76 Z" fill="#d0d0d0" fill-opacity="0.5" stroke="none"/>
<path d="M 716.25 52.45 L 716.25 52.50 Z" fill="#d0d0d0" fill-opacity="0.5" stroke="none"/>
<polyline fill="none" stroke="#111" stroke-width="1.2" points="79.82,65.30 99.46,61.95 119.11,58.24 138.75,65.76 158.39,73.11 178.04,71.14 197.68,73.13 276.25,70.26 356.46,69.27 379.38,70.66 402.29,77.99 425.21,75.44 448.12,71.75 471.04,68.06 505.42,65.44 551.25,67.40 597.08,63.63 633.75,59.82 661.25,56.32 688.75,52.45 716.25,52.50 743.75,48.61 774.69,44.64 809.06,40.68 843.44,37.98 877.81,33.97 963.75,31.07 1066.88,29.04 1135.62,25.00"/>
<text x="15" y="287.5" transform="rotate(-90 15,287.5)" text-anchor="middle" font-family="sans-serif" font-size="12" fill="#333">USD</text>
</svg>