<svg xmlns="http://www.w3.org/2000/svg" width="1200" height="600" viewBox="0 0 1200 600">
<desc>Equity curve with drawdown fill; x-axis is months only (no exact timestamps)</desc>
<text x="600.0" y="18.0" text-anchor="middle" font-family="sans-serif" font-size="14">Balance Curve 2022 (UTC)</text>
<rect x="70" y="25" width="1100" height="525" fill="white" stroke="#ccc" />
<line x1="70" y1="550.00" x2="1170" y2="550.00" stroke="#eee"/>
<text x="62" y="554.0" text-anchor="end" font-family="sans-serif" font-size="11" fill="#555">0.00</text>
<line x1="70" y1="445.00" x2="1170" y2="445.00" stroke="#eee"/>
<text x="62" y="449.0" text-anchor="end" font-family="sans-serif" font-size="11" fill="#555">247430</text>
<line x1="70" y1="340.00" x2="1170" y2="340.00" stroke="#eee"/>
<text x="62" y="344.0" text-anchor="end" font-family="sans-serif" font-size="11" fill="#555">494860</text>
<line x1="70" y1="235.00" x2="1170" y2="235.00" stroke="#eee"/>
<text x="62" y="239.0" text-anchor="end" font-family="sans-serif" font-size="11" fill="#555">742289</text>
<line x1="70" y1="130.00" x2="1170" y2="130.00" stroke="#eee"/>
<text x="62" y="134.0" text-anchor="end" font-family="sans-serif" font-size="11" fill="#555">989719</text>
<line x1="70" y1="25.00" x2="1170" y2="25.00" stroke="#eee"/>
<text x="62" y="29.0" text-anchor="end" font-family="sans-serif" font-size="11" fill="#555">1237149</text>
<line x1="161.67" y1="25" x2="161.67" y2="550" stroke="#f2f2f2"/>
<line x1="253.33" y1="25" x2="253.33" y2="550" stroke="#f2f2f2"/>
<line x1="345.00" y1="25" x2="345.00" y2="550" stroke="#f2f2f2"/>
<line x1="436.67" y1="25" x2="436.67" y2="550" stroke="#f2f2f2"/>
<line x1="528.33" y1="25" x2="528.33" y2="550" stroke="#f2f2f2"/>
<line x1="620.00" y1="25" x2="620.00" y2="550" stroke="#f2f2f2"/>
<line x1="711.67" y1="25" x2="711.67" y2="550" stroke="#f2f2f2"/>
<line x1="803.33" y1="25" x2="803.33" y2="550" stroke="#f2f2f2"/>
<line x1="895.00" y1="25" x2="895.00" y2="550" stroke="#f2f2f2"/>
<line x1="986.67" y1="25" x2="986.67" y2="550" stroke="#f2f2f2"/>
<line x1="1078.33" y1="25" x2="1078.33" y2="550" stroke="#f2f2f2"/>
<text x="115.83" y="566.00" text-anchor="middle" font-family="sans-serif" font-size="11" fill="#444">Jan</text>
<text x="207.50" y="566.00" text-anchor="middle" font-family="sans-serif" font-size="11" fill="#444">Feb</text>
<text x="299.17" y="566.00" text-anchor="middle" font-family="sans-serif" font-size="11" fill="#444">Mar</text>
<text x="390.83" y="566.00" text-anchor="middle" font-family="sans-serif" font-size="11" fill="#444">Apr</text>
<text x="482.50" y="566.00" text-anchor="middle" font-family="sans-serif" font-size="11" fill="#444">May</text>
<text x="574.17" y="566.00" text-anchor="middle" font-family="sans-serif" font-size="11" fill="#444">Jun</text>
<text x="665.83" y="566.00" text-anchor="middle" font-family="sans-serif" font-size="11" fill="#444">Jul</text>
<text x="757.50" y="566.00" text-anchor="middle" font-family="sans-serif" font-size="11" fill="#444">Aug</text>
<text x="849.17" y="566.00" text-anchor="middle" font-family="sans-serif" font-size="11" fill="#444">Sep</text>
<text x="940.83" y="566.00" text-anchor="middle" font-family="sans-serif" font-size="11" fill="#444">Oct</text>
<text x="1032.50" y="566.00" text-anchor="middle" font-family="sans-serif" font-size="11" fill="#444">Nov</text>
<text x="1124.17" y="566.00" text-anchor="middle" font-family="sans-serif" font-size="11" fill="#444">Dec</text>
<line x1="70" y1="550" x2="1170" y2="550" stroke="#888"/>
<line x1="70" y1="25" x2="70" y2="550" stroke="#888"/>
<line x1="115.83" y1="550.00" x2="115.83" y2="556.00" stroke="#888"/>
<line x1="1160.83"   y1="550.00" x2="1160.83"   y2="556.00" stroke="#888"/>
<text x="115.83" y="582.00" text-anchor="start" font-family="sans-serif" font-size="11" fill="#333">Initial Balance: 1167566</text>
<text x="1160.83"   y="582.00" text-anchor="end"   font-family="sans-serif" font-size="11" fill="#333">Ending Balance: 1237149</text>
<path d="M 288.98 41.53 L 299.17 41.53 L 309.35 41.53 L 319.54 41.53 L 319.54 43.48 L 309.35 45.08 L 299.17 44.33 L 288.98 46.72 Z" fill="#d0d0d0" fill-opacity="0.5" stroke="none"/>
<path d="M 339.91 41.08 L 351.55 41.08 L 364.64 41.08 L 377.74 41.08 L 390.83 41.08 L 403.93 41.08 L 417.02 41.08 L 430.12 41.08 L 443.21 41.08 L 456.31 41.08 L 469.40 41.08 L 482.50 41.08 L 495.60 41.08 L 508.69 41.08 L 521.79 41.08 L 521.79 42.16 L 508.69 44.24 L 495.60 44.88 L 482.50 47.45 L 469.40 48.14 L 456.31 50.19 L 443.21 52.19 L 430.12 50.43 L 417.02 52.10 L 403.93 51.77 L 390.83 54.31 L 377.74 49.20 L 364.64 50.71 L 351.55 45.56 L 339.91 46.27 Z" fill="#d0d0d0" fill-opacity="0.5" stroke="none"/>
<path d="M 608.54 37.04 L 608.54 37.43 Z" fill="#d0d0d0" fill-opacity="0.5" stroke="none"/>
<path d="M 661.25 30.59 L 670.42 30.59 L 679.58 30.59 L 688.75 30.59 L 697.92 30.59 L 707.08 30.59 L 716.76 30.59 L 726.94 30.59 L 737.13 30.59 L 737.13 33.32 L 726.94 33.25 L 716.76 35.86 L 707.08 37.91 L 697.92 32.62 L 688.75 32.92 L 679.58 33.25 L 670.42 33.29 L 661.25 35.90 Z" fill="#d0d0d0" fill-opacity="0.5" stroke="none"/>
<path d="M 757.50 30.48 L 767.69 30.48 L 777.87 30.48 L 788.06 30.48 L 798.24 30.48 L 805.52 30.48 L 809.88 30.48 L 814.25 30.48 L 818.61 30.48 L 822.98 30.48 L 827.34 30.48 L 831.71 30.48 L 836.07 30.48 L 840.44 30.48 L 844.80 30.48 L 849.17 30.48 L 853.53 30.48 L 857.90 30.48 L 862.26 30.48 L 866.63 30.48 L 870.99 30.48 L 875.36 30.48 L 879.72 30.48 L 884.09 30.48 L 888.45 30.48 L 892.82 30.48 L 897.55 30.48 L 902.64 30.48 L 907.73 30.48 L 912.82 30.48 L 917.92 30.48 L 923.01 30.48 L 923.01 31.38 L 917.92 33.97 L 912.82 35.84 L 907.73 38.40 L 902.64 40.97 L 897.55 42.62 L 892.82 42.72 L 888.45 45.26 L 884.09 40.05 L 879.72 41.81 L 875.36 36.61 L 870.99 38.29 L 866.63 40.35 L 862.26 42.77 L 857.90 45.13 L 853.53 47.58 L 849.17 42.43 L 844.80 37.18 L 840.44 39.76 L 836.07 42.31 L 831.71 44.59 L 827.34 42.28 L 822.98 37.09 L 818.61 39.89 L 814.25 34.63 L 809.88 36.41 L 805.52 35.99 L 798.24 30.68 L 788.06 33.29 L 777.87 34.95 L 767.69 36.66 L 757.50 35.74 Z" fill="#d0d0d0" fill-opacity="0.5" stroke="none"/>
<path d="M 938.29 26.17 L 943.38 26.17 L 948.47 26.17 L 953.56 26.17 L 958.66 26.17 L 963.75 26.17 L 968.84 26.17 L 973.94 26.17 L 979.03 26.17 L 984.12 26.17 L 992.40 26.17 L 1003.85 26.17 L 1015.31 26.17 L 1026.77 26.17 L 1038.23 26.17 L 1049.69 26.17 L 1061.15 26.17 L 1072.60 26.17 L 1087.50 26.17 L 1105.83 26.17 L 1124.17 26.17 L 1142.50 26.17 L 1142.50 27.67 L 1124.17 29.67 L 1105.83 30.89 L 1087.50 29.80 L 1072.60 32.44 L 1061.15 34.65 L 1049.69 36.47 L 1038.23 38.31 L 1026.77 33.03 L 1015.31 33.46 L 1003.85 28.13 L 992.40 30.61 L 984.12 30.98 L 979.03 32.90 L 973.94 33.16 L 968.84 35.75 L 963.75 37.43 L 958.66 39.44 L 953.56 39.75 L 948.47 34.47 L 943.38 36.74 L 938.29 31.48 Z" fill="#d0d0d0" fill-opacity="0.5" stroke="none"/>
<polyline fill="none" stroke="#111" stroke-width="1.2" points="115.83,54.53 170.83,52.80 189.17,51.01 207.50,50.56 225.83,48.56 244.17,46.25 258.43,43.65 268.61,42.52 278.80,41.53 288.98,46.72 299.17,44.33 309.35,45.08 319.54,43.48 329.72,41.08 339.91,46.27 351.55,45.56 364.64,50.71 377.74,49.20 390.83,54.31 403.93,51.77 417.02,52.10 430.12,50.43 443.21,52.19 456.31,50.19 469.40,48.14 482.50,47.45 495.60,44.88 508.69,44.24 521.79,42.16 539.79,40.74 562.71,38.45 585.62,37.04 608.54,37.43 624.58,36.90 633.75,35.81 642.92,33.21 652.08,30.59 661.25,35.90 670.42,33.29 679.58,33.25 688.75,32.92 697.92,32.62 707.08,37.91 716.76,35.86 726.94,33.25 737.13,33.32 747.31,30.48 757.50,35.74 767.69,36.66 777.87,34.95 788.06,33.29 798.24,30.68 805.52,35.99 809.88,36.41 814.25,34.63 818.61,39.89 822.98,37.09 827.34,42.28 831.71,44.59 836.07,42.31 840.44,39.76 844.80,37.18 849.17,42.43 853.53,47.58 857.90,45.13 862.26,42.77 866.63,40.35 870.99,38.29 875.36,36.61 879.72,41.81 884.09,40.05 888.45,45.26 892.82,42.72 897.55,42.62 902.64,40.97 907.73,38.40 912.82,35.84 917.92,33.97 923.01,31.38 928.10,29.02 933.19,26.17 938.29,31.48 943.38,36.74 948.47,34.47 953.56,39.75 958.66,39.44 963.75,37.43 968.84,35.75 973.94,33.16 979.03,32.90 984.12,30.98 992.40,30.61 1003.85,28.13 1015.31,33.46 1026.77,33.03 1038.23,38.31 1049.69,36.47 1061.15,34.65 1072.60,32.44 1087.50,29.80 1105.83,30.89 1124.17,29.67 1142.50,27.67 1160.83,25.00"/>
<text x="15" y="287.5" transform="rotate(-90 15,287.5)" text-anchor="middle" font-family="sans-serif" font-size="12" fill="#333">USD</text>
</svg>