<svg xmlns="http://www.w3.org/2000/svg" width="1200" height="600" viewBox="0 0 1200 600">
<desc>Equity curve with drawdown fill; x-axis is months only (no exact timestamps)</desc>
<text x="600.0" y="18.0" text-anchor="middle" font-family="sans-serif" font-size="14">Portfolio 2011 (UTC)</text>
<rect x="70" y="25" width="1100" height="525" fill="white" stroke="#ccc" />
<line x1="70" y1="550.00" x2="1170" y2="550.00" stroke="#eee"/>
<text x="62" y="554.0" text-anchor="end" font-family="sans-serif" font-size="11" fill="#555">0.00</text>
<line x1="70" y1="445.00" x2="1170" y2="445.00" stroke="#eee"/>
<text x="62" y="449.0" text-anchor="end" font-family="sans-serif" font-size="11" fill="#555">22101</text>
<line x1="70" y1="340.00" x2="1170" y2="340.00" stroke="#eee"/>
<text x="62" y="344.0" text-anchor="end" font-family="sans-serif" font-size="11" fill="#555">44202</text>
<line x1="70" y1="235.00" x2="1170" y2="235.00" stroke="#eee"/>
<text x="62" y="239.0" text-anchor="end" font-family="sans-serif" font-size="11" fill="#555">66303</text>
<line x1="70" y1="130.00" x2="1170" y2="130.00" stroke="#eee"/>
<text x="62" y="134.0" text-anchor="end" font-family="sans-serif" font-size="11" fill="#555">88404</text>
<line x1="70" y1="25.00" x2="1170" y2="25.00" stroke="#eee"/>
<text x="62" y="29.0" text-anchor="end" font-family="sans-serif" font-size="11" fill="#555">110505</text>
<line x1="161.67" y1="25" x2="161.67" y2="550" stroke="#f2f2f2"/>
<line x1="253.33" y1="25" x2="253.33" y2="550" stroke="#f2f2f2"/>
<line x1="345.00" y1="25" x2="345.00" y2="550" stroke="#f2f2f2"/>
<line x1="436.67" y1="25" x2="436.67" y2="550" stroke="#f2f2f2"/>
<line x1="528.33" y1="25" x2="528.33" y2="550" stroke="#f2f2f2"/>
<line x1="620.00" y1="25" x2="620.00" y2="550" stroke="#f2f2f2"/>
<line x1="711.67" y1="25" x2="711.67" y2="550" stroke="#f2f2f2"/>
<line x1="803.33" y1="25" x2="803.33" y2="550" stroke="#f2f2f2"/>
<line x1="895.00" y1="25" x2="895.00" y2="550" stroke="#f2f2f2"/>
<line x1="986.67" y1="25" x2="986.67" y2="550" stroke="#f2f2f2"/>
<line x1="1078.33" y1="25" x2="1078.33" y2="550" stroke="#f2f2f2"/>
<text x="115.83" y="566.00" text-anchor="middle" font-family="sans-serif" font-size="11" fill="#444">Jan</text>
<text x="207.50" y="566.00" text-anchor="middle" font-family="sans-serif" font-size="11" fill="#444">Feb</text>
<text x="299.17" y="566.00" text-anchor="middle" font-family="sans-serif" font-size="11" fill="#444">Mar</text>
<text x="390.83" y="566.00" text-anchor="middle" font-family="sans-serif" font-size="11" fill="#444">Apr</text>
<text x="482.50" y="566.00" text-anchor="middle" font-family="sans-serif" font-size="11" fill="#444">May</text>
<text x="574.17" y="566.00" text-anchor="middle" font-family="sans-serif" font-size="11" fill="#444">Jun</text>
<text x="665.83" y="566.00" text-anchor="middle" font-family="sans-serif" font-size="11" fill="#444">Jul</text>
<text x="757.50" y="566.00" text-anchor="middle" font-family="sans-serif" font-size="11" fill="#444">Aug</text>
<text x="849.17" y="566.00" text-anchor="middle" font-family="sans-serif" font-size="11" fill="#444">Sep</text>
<text x="940.83" y="566.00" text-anchor="middle" font-family="sans-serif" font-size="11" fill="#444">Oct</text>
<text x="1032.50" y="566.00" text-anchor="middle" font-family="sans-serif" font-size="11" fill="#444">Nov</text>
<text x="1124.17" y="566.00" text-anchor="middle" font-family="sans-serif" font-size="11" fill="#444">Dec</text>
<line x1="70" y1="550" x2="1170" y2="550" stroke="#888"/>
<line x1="70" y1="25" x2="70" y2="550" stroke="#888"/>
<line x1="74.17" y1="550.00" x2="74.17" y2="556.00" stroke="#888"/>
<line x1="1154.72"   y1="550.00" x2="1154.72"   y2="556.00" stroke="#888"/>
<text x="74.17" y="582.00" text-anchor="start" font-family="sans-serif" font-size="11" fill="#333">Initial Balance: 100000</text>
<text x="1154.72"   y="582.00" text-anchor="end"   font-family="sans-serif" font-size="11" fill="#333">Ending Balance: 108928</text>
<path d="M 90.83 73.34 L 90.83 73.37 Z" fill="#d0d0d0" fill-opacity="0.5" stroke="none"/>
<path d="M 189.17 52.26 L 207.50 52.26 L 207.50 53.22 L 189.17 54.09 Z" fill="#d0d0d0" fill-opacity="0.5" stroke="none"/>
<path d="M 244.17 51.15 L 259.06 51.15 L 270.52 51.15 L 270.52 52.09 L 259.06 53.51 L 244.17 56.24 Z" fill="#d0d0d0" fill-opacity="0.5" stroke="none"/>
<path d="M 293.44 50.84 L 293.44 51.72 Z" fill="#d0d0d0" fill-opacity="0.5" stroke="none"/>
<path d="M 327.81 49.18 L 327.81 49.91 Z" fill="#d0d0d0" fill-opacity="0.5" stroke="none"/>
<path d="M 356.46 48.15 L 379.38 48.15 L 402.29 48.15 L 425.21 48.15 L 439.36 48.15 L 444.75 48.15 L 450.15 48.15 L 455.54 48.15 L 460.93 48.15 L 466.32 48.15 L 471.72 48.15 L 477.11 48.15 L 482.50 48.15 L 487.89 48.15 L 493.28 48.15 L 498.68 48.15 L 504.07 48.15 L 509.46 48.15 L 514.85 48.15 L 520.25 48.15 L 525.64 48.15 L 532.15 48.15 L 539.79 48.15 L 547.43 48.15 L 555.07 48.15 L 562.71 48.15 L 570.35 48.15 L 577.99 48.15 L 585.62 48.15 L 593.26 48.15 L 600.90 48.15 L 608.54 48.15 L 608.54 50.81 L 600.90 52.70 L 593.26 53.59 L 585.62 54.12 L 577.99 56.86 L 570.35 57.35 L 562.71 60.06 L 555.07 62.77 L 547.43 57.75 L 539.79 58.84 L 532.15 60.55 L 525.64 58.51 L 520.25 59.76 L 514.85 61.15 L 509.46 56.12 L 504.07 57.21 L 498.68 55.06 L 493.28 56.38 L 487.89 58.61 L 482.50 60.04 L 477.11 60.74 L 471.72 62.19 L 466.32 57.16 L 460.93 52.09 L 455.54 53.71 L 450.15 56.45 L 444.75 51.43 L 439.36 54.19 L 425.21 54.74 L 402.29 56.64 L 379.38 51.57 L 356.46 53.26 Z" fill="#d0d0d0" fill-opacity="0.5" stroke="none"/>
<path d="M 690.28 26.02 L 696.39 26.02 L 702.50 26.02 L 708.61 26.02 L 714.21 26.02 L 719.31 26.02 L 724.40 26.02 L 729.49 26.02 L 734.58 26.02 L 734.58 27.52 L 729.49 30.40 L 724.40 32.64 L 719.31 34.94 L 714.21 36.72 L 708.61 38.97 L 702.50 33.72 L 696.39 28.43 L 690.28 31.31 Z" fill="#d0d0d0" fill-opacity="0.5" stroke="none"/>
<path d="M 744.77 25.00 L 749.86 25.00 L 754.95 25.00 L 760.05 25.00 L 765.14 25.00 L 770.23 25.00 L 775.32 25.00 L 780.42 25.00 L 785.51 25.00 L 790.60 25.00 L 795.69 25.00 L 800.79 25.00 L 805.88 25.00 L 810.97 25.00 L 816.06 25.00 L 821.16 25.00 L 826.25 25.00 L 831.34 25.00 L 836.44 25.00 L 841.53 25.00 L 846.62 25.00 L 851.71 25.00 L 856.81 25.00 L 861.90 25.00 L 866.99 25.00 L 872.08 25.00 L 877.18 25.00 L 882.27 25.00 L 887.36 25.00 L 892.45 25.00 L 897.41 25.00 L 902.24 25.00 L 907.06 25.00 L 911.89 25.00 L 916.71 25.00 L 921.54 25.00 L 926.36 25.00 L 931.18 25.00 L 936.01 25.00 L 940.83 25.00 L 945.66 25.00 L 950.48 25.00 L 955.31 25.00 L 960.13 25.00 L 964.96 25.00 L 969.78 25.00 L 974.61 25.00 L 979.43 25.00 L 984.25 25.00 L 989.21 25.00 L 994.31 25.00 L 999.40 25.00 L 1004.49 25.00 L 1009.58 25.00 L 1014.68 25.00 L 1019.77 25.00 L 1024.86 25.00 L 1029.95 25.00 L 1035.05 25.00 L 1040.14 25.00 L 1045.23 25.00 L 1050.32 25.00 L 1055.42 25.00 L 1060.51 25.00 L 1065.60 25.00 L 1070.69 25.00 L 1075.79 25.00 L 1093.61 25.00 L 1124.17 25.00 L 1154.72 25.00 L 1154.72 32.49 L 1124.17 35.05 L 1093.61 36.58 L 1075.79 36.58 L 1070.69 37.39 L 1065.60 39.69 L 1060.51 42.20 L 1055.42 36.96 L 1050.32 35.43 L 1045.23 37.47 L 1040.14 39.46 L 1035.05 34.20 L 1029.95 34.17 L 1024.86 34.30 L 1019.77 36.36 L 1014.68 36.92 L 1009.58 39.54 L 1004.49 41.49 L 999.40 36.25 L 994.31 37.37 L 989.21 39.34 L 984.25 34.08 L 979.43 35.16 L 974.61 36.73 L 969.78 39.07 L 964.96 41.88 L 960.13 44.68 L 955.31 43.50 L 950.48 45.39 L 945.66 48.16 L 940.83 47.28 L 936.01 42.11 L 931.18 36.88 L 926.36 39.08 L 921.54 41.62 L 916.71 43.58 L 911.89 44.56 L 907.06 39.36 L 902.24 42.17 L 897.41 44.83 L 892.45 46.79 L 887.36 45.72 L 882.27 47.21 L 877.18 42.03 L 872.08 43.01 L 866.99 37.79 L 861.90 37.37 L 856.81 32.10 L 851.71 33.52 L 846.62 36.36 L 841.53 37.85 L 836.44 40.67 L 831.34 43.06 L 826.25 45.24 L 821.16 45.38 L 816.06 47.55 L 810.97 49.93 L 805.88 44.78 L 800.79 39.58 L 795.69 42.40 L 790.60 37.19 L 785.51 31.93 L 780.42 34.05 L 775.32 36.88 L 770.23 31.62 L 765.14 31.46 L 760.05 30.59 L 754.95 25.27 L 749.86 28.14 L 744.77 30.32 Z" fill="#d0d0d0" fill-opacity="0.5" stroke="none"/>
<polyline fill="none" stroke="#111" stroke-width="1.2" points="74.17,74.91 82.50,73.34 90.83,73.37 99.17,70.75 107.50,69.45 115.83,67.03 124.17,64.56 132.50,62.38 140.83,59.91 149.17,57.22 157.50,54.49 170.83,52.26 189.17,54.09 207.50,53.22 225.83,51.15 244.17,56.24 259.06,53.51 270.52,52.09 281.98,50.84 293.44,51.72 304.90,50.05 316.35,49.18 327.81,49.91 339.27,48.15 356.46,53.26 379.38,51.57 402.29,56.64 425.21,54.74 439.36,54.19 444.75,51.43 450.15,56.45 455.54,53.71 460.93,52.09 466.32,57.16 471.72,62.19 477.11,60.74 482.50,60.04 487.89,58.61 493.28,56.38 498.68,55.06 504.07,57.21 509.46,56.12 514.85,61.15 520.25,59.76 525.64,58.51 532.15,60.55 539.79,58.84 547.43,57.75 555.07,62.77 562.71,60.06 570.35,57.35 577.99,56.86 585.62,54.12 593.26,53.59 600.90,52.70 608.54,50.81 616.18,48.03 623.06,45.49 629.17,45.30 635.28,42.50 641.39,40.95 647.50,38.13 653.61,35.46 659.72,35.14 665.83,32.80 671.94,30.76 678.06,28.91 684.17,26.02 690.28,31.31 696.39,28.43 702.50,33.72 708.61,38.97 714.21,36.72 719.31,34.94 724.40,32.64 729.49,30.40 734.58,27.52 739.68,25.00 744.77,30.32 749.86,28.14 754.95,25.27 760.05,30.59 765.14,31.46 770.23,31.62 775.32,36.88 780.42,34.05 785.51,31.93 790.60,37.19 795.69,42.40 800.79,39.58 805.88,44.78 810.97,49.93 816.06,47.55 821.16,45.38 826.25,45.24 831.34,43.06 836.44,40.67 841.53,37.85 846.62,36.36 851.71,33.52 856.81,32.10 861.90,37.37 866.99,37.79 872.08,43.01 877.18,42.03 882.27,47.21 887.36,45.72 892.45,46.79 897.41,44.83 902.24,42.17 907.06,39.36 911.89,44.56 916.71,43.58 921.54,41.62 926.36,39.08 931.18,36.88 936.01,42.11 940.83,47.28 945.66,48.16 950.48,45.39 955.31,43.50 960.13,44.68 964.96,41.88 969.78,39.07 974.61,36.73 979.43,35.16 984.25,34.08 989.21,39.34 994.31,37.37 999.40,36.25 1004.49,41.49 1009.58,39.54 1014.68,36.92 1019.77,36.36 1024.86,34.30 1029.95,34.17 1035.05,34.20 1040.14,39.46 1045.23,37.47 1050.32,35.43 1055.42,36.96 1060.51,42.20 1065.60,39.69 1070.69,37.39 1075.79,36.58 1093.61,36.58 1124.17,35.05 1154.72,32.49"/>
<text x="620.0" y="588" text-anchor="middle" font-family="sans-serif" font-size="12" fill="#333">Monthly Balance Curve</text>
<text x="15" y="287.5" transform="rotate(-90 15,287.5)" text-anchor="middle" font-family="sans-serif" font-size="12" fill="#333">Capital</text>
</svg>