<svg xmlns="http://www.w3.org/2000/svg" width="1200" height="600" viewBox="0 0 1200 600">
<desc>Equity curve with drawdown fill</desc>
<text x="600.0" y="18.0" text-anchor="middle" font-family="sans-serif" font-size="14">Portfolio 2011</text>
<rect x="70" y="25" width="1100" height="525" fill="white" stroke="#ccc" />
<line x1="70" y1="550.00" x2="1170" y2="550.00" stroke="#eee"/>
<text x="62" y="554.0" text-anchor="end" font-family="sans-serif" font-size="11" fill="#555">0.00</text>
<line x1="70" y1="445.00" x2="1170" y2="445.00" stroke="#eee"/>
<text x="62" y="449.0" text-anchor="end" font-family="sans-serif" font-size="11" fill="#555">21565</text>
<line x1="70" y1="340.00" x2="1170" y2="340.00" stroke="#eee"/>
<text x="62" y="344.0" text-anchor="end" font-family="sans-serif" font-size="11" fill="#555">43130</text>
<line x1="70" y1="235.00" x2="1170" y2="235.00" stroke="#eee"/>
<text x="62" y="239.0" text-anchor="end" font-family="sans-serif" font-size="11" fill="#555">64695</text>
<line x1="70" y1="130.00" x2="1170" y2="130.00" stroke="#eee"/>
<text x="62" y="134.0" text-anchor="end" font-family="sans-serif" font-size="11" fill="#555">86260</text>
<line x1="70" y1="25.00" x2="1170" y2="25.00" stroke="#eee"/>
<text x="62" y="29.0" text-anchor="end" font-family="sans-serif" font-size="11" fill="#555">107826</text>
<line x1="156.74" y1="25" x2="156.74" y2="550" stroke="#f2f2f2"/>
<text x="156.74" y="566" text-anchor="middle" font-family="sans-serif" font-size="11" fill="#555">Feb</text>
<line x1="242.53" y1="25" x2="242.53" y2="550" stroke="#f2f2f2"/>
<text x="242.53" y="566" text-anchor="middle" font-family="sans-serif" font-size="11" fill="#555">Mar</text>
<line x1="337.50" y1="25" x2="337.50" y2="550" stroke="#f2f2f2"/>
<text x="337.50" y="566" text-anchor="middle" font-family="sans-serif" font-size="11" fill="#555">Apr</text>
<line x1="429.42" y1="25" x2="429.42" y2="550" stroke="#f2f2f2"/>
<text x="429.42" y="566" text-anchor="middle" font-family="sans-serif" font-size="11" fill="#555">May</text>
<line x1="524.39" y1="25" x2="524.39" y2="550" stroke="#f2f2f2"/>
<text x="524.39" y="566" text-anchor="middle" font-family="sans-serif" font-size="11" fill="#555">Jun</text>
<line x1="616.31" y1="25" x2="616.31" y2="550" stroke="#f2f2f2"/>
<text x="616.31" y="566" text-anchor="middle" font-family="sans-serif" font-size="11" fill="#555">Jul</text>
<line x1="711.28" y1="25" x2="711.28" y2="550" stroke="#f2f2f2"/>
<text x="711.28" y="566" text-anchor="middle" font-family="sans-serif" font-size="11" fill="#555">Aug</text>
<line x1="806.26" y1="25" x2="806.26" y2="550" stroke="#f2f2f2"/>
<text x="806.26" y="566" text-anchor="middle" font-family="sans-serif" font-size="11" fill="#555">Sep</text>
<line x1="898.17" y1="25" x2="898.17" y2="550" stroke="#f2f2f2"/>
<text x="898.17" y="566" text-anchor="middle" font-family="sans-serif" font-size="11" fill="#555">Oct</text>
<line x1="993.15" y1="25" x2="993.15" y2="550" stroke="#f2f2f2"/>
<text x="993.15" y="566" text-anchor="middle" font-family="sans-serif" font-size="11" fill="#555">Nov</text>
<line x1="1085.06" y1="25" x2="1085.06" y2="550" stroke="#f2f2f2"/>
<text x="1085.06" y="566" text-anchor="middle" font-family="sans-serif" font-size="11" fill="#555">Dec</text>
<line x1="70" y1="550" x2="1170" y2="550" stroke="#888"/>
<line x1="70" y1="25" x2="70" y2="550" stroke="#888"/>
<path d="M 73.01 59.78 L 79.15 59.78 L 82.27 59.78 L 97.34 59.78 L 100.38 59.78 L 100.44 59.78 L 100.54 59.78 L 100.76 59.78 L 102.66 59.78 L 112.32 59.78 L 115.09 59.78 L 115.74 59.78 L 118.59 59.78 L 121.76 59.78 L 122.03 59.78 L 124.09 59.78 L 134.21 59.78 L 136.61 59.78 L 137.34 59.78 L 142.44 59.78 L 142.77 59.78 L 146.51 59.78 L 167.89 59.78 L 183.20 59.78 L 197.78 59.78 L 204.82 59.78 L 210.63 59.78 L 221.36 59.78 L 222.08 59.78 L 222.50 59.78 L 271.02 59.78 L 274.54 59.78 L 286.11 59.78 L 286.11 61.65 L 274.54 62.93 L 271.02 64.38 L 222.50 67.12 L 222.08 62.18 L 221.36 64.27 L 210.63 65.18 L 204.82 63.44 L 197.78 65.69 L 183.20 64.21 L 167.89 66.37 L 146.51 67.60 L 142.77 62.67 L 142.44 65.42 L 137.34 68.15 L 136.61 68.87 L 134.21 69.76 L 124.09 69.56 L 122.03 72.02 L 121.76 73.76 L 118.59 76.21 L 115.74 78.39 L 115.09 80.36 L 112.32 80.54 L 102.66 82.99 L 100.76 78.21 L 100.54 73.39 L 100.44 74.34 L 100.38 69.52 L 97.34 64.65 L 82.27 66.94 L 79.15 69.66 L 73.01 64.75 Z" fill="#d0d0d0" fill-opacity="0.5" stroke="none"/>
<path d="M 318.42 54.25 L 318.42 54.93 Z" fill="#d0d0d0" fill-opacity="0.5" stroke="none"/>
<path d="M 339.64 50.29 L 359.35 50.29 L 391.62 50.29 L 391.70 50.29 L 397.12 50.29 L 414.37 50.29 L 415.26 50.29 L 417.09 50.29 L 437.70 50.29 L 437.70 52.35 L 417.09 52.95 L 415.26 55.55 L 414.37 57.45 L 397.12 59.40 L 391.70 57.52 L 391.62 58.63 L 359.35 53.61 L 339.64 55.36 Z" fill="#d0d0d0" fill-opacity="0.5" stroke="none"/>
<path d="M 443.44 49.51 L 443.53 49.51 L 443.65 49.51 L 443.70 49.51 L 443.79 49.51 L 443.89 49.51 L 446.47 49.51 L 446.94 49.51 L 447.04 49.51 L 447.19 49.51 L 455.75 49.51 L 458.15 49.51 L 461.94 49.51 L 462.35 49.51 L 462.49 49.51 L 465.28 49.51 L 468.28 49.51 L 468.40 49.51 L 468.52 49.51 L 477.27 49.51 L 480.24 49.51 L 480.90 49.51 L 486.86 49.51 L 489.30 49.51 L 489.61 49.51 L 497.94 49.51 L 506.32 49.51 L 508.00 49.51 L 509.66 49.51 L 510.84 49.51 L 521.43 49.51 L 528.98 49.51 L 529.86 49.51 L 532.55 49.51 L 550.80 49.51 L 553.92 49.51 L 569.50 49.51 L 571.08 49.51 L 571.71 49.51 L 572.31 49.51 L 574.78 49.51 L 584.53 49.51 L 585.75 49.51 L 593.60 49.51 L 604.31 49.51 L 606.13 49.51 L 609.09 49.51 L 611.94 49.51 L 612.13 49.51 L 636.44 49.51 L 636.68 49.51 L 639.48 49.51 L 639.50 49.51 L 639.87 49.51 L 648.62 49.51 L 649.00 49.51 L 650.40 49.51 L 651.13 49.51 L 651.18 49.51 L 651.37 49.51 L 651.72 49.51 L 653.26 49.51 L 653.26 50.15 L 651.72 52.27 L 651.37 52.65 L 651.18 55.30 L 651.13 57.08 L 650.40 52.03 L 649.00 54.85 L 648.62 56.97 L 639.87 58.54 L 639.50 59.48 L 639.48 62.26 L 636.68 65.03 L 636.44 60.07 L 612.13 62.60 L 611.94 64.86 L 609.09 67.62 L 606.13 62.69 L 604.31 61.99 L 593.60 62.92 L 585.75 63.49 L 584.53 66.26 L 574.78 65.12 L 572.31 65.66 L 571.71 67.93 L 571.08 70.65 L 569.50 73.36 L 553.92 68.49 L 550.80 70.12 L 532.55 72.13 L 529.86 73.26 L 528.98 74.98 L 521.43 73.05 L 510.84 73.63 L 509.66 74.90 L 508.00 70.03 L 506.32 72.00 L 497.94 73.12 L 489.61 75.27 L 489.30 70.41 L 486.86 68.36 L 480.90 69.71 L 480.24 71.63 L 477.27 73.86 L 468.52 75.98 L 468.40 77.86 L 468.28 73.06 L 465.28 68.18 L 462.49 69.64 L 462.35 69.81 L 461.94 71.27 L 458.15 73.02 L 455.75 75.08 L 447.19 70.22 L 447.04 70.37 L 446.94 71.97 L 446.47 67.09 L 443.89 69.83 L 443.79 69.71 L 443.70 69.36 L 443.65 64.44 L 443.53 59.51 L 443.44 54.54 Z" fill="#d0d0d0" fill-opacity="0.5" stroke="none"/>
<path d="M 655.10 48.31 L 655.18 48.31 L 656.05 48.31 L 656.05 49.78 L 655.18 51.39 L 655.10 53.39 Z" fill="#d0d0d0" fill-opacity="0.5" stroke="none"/>
<path d="M 678.91 38.40 L 678.97 38.40 L 679.09 38.40 L 679.09 40.38 L 678.97 41.72 L 678.91 43.58 Z" fill="#d0d0d0" fill-opacity="0.5" stroke="none"/>
<path d="M 679.42 37.48 L 679.43 37.48 L 679.64 37.48 L 679.69 37.48 L 693.26 37.48 L 698.15 37.48 L 700.46 37.48 L 703.93 37.48 L 704.03 37.48 L 704.20 37.48 L 713.20 37.48 L 713.30 37.48 L 713.39 37.48 L 713.54 37.48 L 715.38 37.48 L 716.33 37.48 L 718.54 37.48 L 718.79 37.48 L 722.24 37.48 L 722.35 37.48 L 724.64 37.48 L 725.41 37.48 L 725.73 37.48 L 725.83 37.48 L 726.07 37.48 L 733.78 37.48 L 734.11 37.48 L 734.14 37.48 L 734.40 37.48 L 737.15 37.48 L 738.26 37.48 L 740.64 37.48 L 740.77 37.48 L 740.78 37.48 L 740.85 37.48 L 740.96 37.48 L 742.40 37.48 L 743.40 37.48 L 743.74 37.48 L 743.99 37.48 L 755.99 37.48 L 756.20 37.48 L 756.26 37.48 L 759.44 37.48 L 761.38 37.48 L 761.99 37.48 L 765.39 37.48 L 768.15 37.48 L 779.85 37.48 L 780.62 37.48 L 786.89 37.48 L 790.10 37.48 L 797.88 37.48 L 801.37 37.48 L 807.43 37.48 L 822.73 37.48 L 822.89 37.48 L 822.93 37.48 L 823.65 37.48 L 825.81 37.48 L 829.47 37.48 L 829.92 37.48 L 832.11 37.48 L 832.63 37.48 L 832.72 37.48 L 832.83 37.48 L 839.87 37.48 L 840.80 37.48 L 841.22 37.48 L 842.37 37.48 L 844.11 37.48 L 844.23 37.48 L 844.54 37.48 L 844.97 37.48 L 848.06 37.48 L 848.49 37.48 L 848.49 39.35 L 848.06 42.24 L 844.97 44.86 L 844.54 47.42 L 844.23 49.85 L 844.11 52.22 L 842.37 53.93 L 841.22 56.13 L 840.80 58.37 L 839.87 58.57 L 832.83 60.32 L 832.72 62.74 L 832.63 63.45 L 832.11 58.46 L 829.92 60.64 L 829.47 62.58 L 825.81 57.59 L 823.65 60.38 L 822.93 55.37 L 822.89 56.92 L 822.73 51.87 L 807.43 54.81 L 801.37 56.49 L 797.88 58.73 L 790.10 61.52 L 786.89 56.53 L 780.62 58.34 L 779.85 59.01 L 768.15 53.98 L 765.39 48.91 L 761.99 48.70 L 761.38 50.95 L 759.44 52.99 L 756.26 55.79 L 756.20 57.77 L 755.99 56.02 L 743.99 50.97 L 743.74 53.37 L 743.40 56.18 L 742.40 56.09 L 740.96 55.31 L 740.85 56.21 L 740.78 57.04 L 740.77 52.05 L 740.64 46.99 L 738.26 41.84 L 737.15 44.71 L 734.40 47.55 L 734.14 48.30 L 734.11 50.45 L 733.78 45.34 L 726.07 47.59 L 725.83 48.69 L 725.73 51.16 L 725.41 53.99 L 724.64 56.51 L 722.35 58.79 L 722.24 61.29 L 718.79 63.47 L 718.54 65.19 L 716.33 67.25 L 715.38 67.58 L 713.54 69.76 L 713.39 68.32 L 713.30 69.38 L 713.20 64.49 L 704.20 59.53 L 704.03 60.63 L 703.93 61.27 L 700.46 56.27 L 698.15 51.22 L 693.26 46.13 L 679.69 48.99 L 679.64 49.87 L 679.43 47.73 L 679.42 42.65 Z" fill="#d0d0d0" fill-opacity="0.5" stroke="none"/>
<path d="M 864.53 34.04 L 864.53 35.63 Z" fill="#d0d0d0" fill-opacity="0.5" stroke="none"/>
<path d="M 873.82 25.00 L 875.21 25.00 L 875.70 25.00 L 883.09 25.00 L 883.17 25.00 L 884.18 25.00 L 884.83 25.00 L 887.55 25.00 L 890.14 25.00 L 890.49 25.00 L 891.45 25.00 L 892.76 25.00 L 897.03 25.00 L 906.35 25.00 L 908.53 25.00 L 909.33 25.00 L 912.92 25.00 L 915.19 25.00 L 915.21 25.00 L 915.38 25.00 L 915.63 25.00 L 918.28 25.00 L 918.55 25.00 L 918.82 25.00 L 918.90 25.00 L 926.11 25.00 L 926.98 25.00 L 927.48 25.00 L 933.06 25.00 L 933.19 25.00 L 933.21 25.00 L 933.31 25.00 L 936.34 25.00 L 939.86 25.00 L 948.74 25.00 L 951.39 25.00 L 957.73 25.00 L 957.86 25.00 L 957.91 25.00 L 958.23 25.00 L 958.79 25.00 L 960.65 25.00 L 961.28 25.00 L 969.60 25.00 L 970.84 25.00 L 973.58 25.00 L 976.75 25.00 L 976.85 25.00 L 977.18 25.00 L 978.13 25.00 L 979.64 25.00 L 979.72 25.00 L 980.01 25.00 L 990.47 25.00 L 990.59 25.00 L 990.81 25.00 L 992.35 25.00 L 994.21 25.00 L 994.40 25.00 L 995.52 25.00 L 996.29 25.00 L 1001.19 25.00 L 1001.23 25.00 L 1001.68 25.00 L 1004.24 25.00 L 1004.33 25.00 L 1013.01 25.00 L 1013.46 25.00 L 1017.02 25.00 L 1018.90 25.00 L 1019.06 25.00 L 1019.12 25.00 L 1019.41 25.00 L 1021.88 25.00 L 1022.72 25.00 L 1025.87 25.00 L 1025.97 25.00 L 1039.49 25.00 L 1044.00 25.00 L 1044.49 25.00 L 1046.85 25.00 L 1047.22 25.00 L 1055.58 25.00 L 1056.54 25.00 L 1061.99 25.00 L 1062.67 25.00 L 1075.84 25.00 L 1077.06 25.00 L 1080.25 25.00 L 1080.31 25.00 L 1080.69 25.00 L 1083.66 25.00 L 1083.79 25.00 L 1083.80 25.00 L 1090.18 25.00 L 1090.29 25.00 L 1099.81 25.00 L 1108.34 25.00 L 1110.99 25.00 L 1111.40 25.00 L 1123.84 25.00 L 1123.96 25.00 L 1144.60 25.00 L 1147.67 25.00 L 1147.78 25.00 L 1150.51 25.00 L 1169.67 25.00 L 1169.84 25.00 L 1170.00 25.00 L 1170.00 87.11 L 1169.84 85.69 L 1169.67 86.34 L 1150.51 81.57 L 1147.78 83.14 L 1147.67 85.19 L 1144.60 87.56 L 1123.96 88.85 L 1123.84 88.81 L 1111.40 84.08 L 1110.99 85.54 L 1108.34 80.77 L 1099.81 75.94 L 1090.29 75.99 L 1090.18 75.90 L 1083.80 71.03 L 1083.79 66.13 L 1083.66 61.22 L 1080.69 64.11 L 1080.31 66.38 L 1080.25 68.81 L 1077.06 63.86 L 1075.84 65.78 L 1062.67 65.32 L 1061.99 66.47 L 1056.54 65.08 L 1055.58 67.04 L 1047.22 67.23 L 1046.85 69.20 L 1044.49 64.27 L 1044.00 66.78 L 1039.49 68.98 L 1025.97 69.01 L 1025.87 69.17 L 1022.72 64.23 L 1021.88 66.59 L 1019.41 69.13 L 1019.12 71.12 L 1019.06 66.25 L 1018.90 66.82 L 1017.02 61.87 L 1013.46 64.44 L 1013.01 66.08 L 1004.33 67.99 L 1004.24 68.55 L 1001.68 63.61 L 1001.23 58.61 L 1001.19 60.97 L 996.29 55.95 L 995.52 57.93 L 994.40 52.88 L 994.21 54.57 L 992.35 56.78 L 990.81 57.88 L 990.59 56.75 L 990.47 58.30 L 980.01 60.61 L 979.72 55.59 L 979.64 56.28 L 978.13 51.21 L 977.18 54.04 L 976.85 56.85 L 976.75 57.97 L 973.58 52.93 L 970.84 55.52 L 969.60 54.42 L 961.28 56.34 L 960.65 51.28 L 958.79 53.04 L 958.23 55.85 L 957.91 57.88 L 957.86 59.54 L 957.73 59.02 L 951.39 53.99 L 948.74 54.32 L 939.86 49.23 L 936.34 44.11 L 933.31 46.35 L 933.21 46.10 L 933.19 40.95 L 933.06 35.77 L 927.48 30.51 L 926.98 33.17 L 926.11 27.88 L 918.90 29.96 L 918.82 31.01 L 918.55 25.69 L 918.28 28.38 L 915.63 31.32 L 915.38 28.65 L 915.21 31.57 L 915.19 34.34 L 912.92 29.06 L 909.33 30.20 L 908.53 32.87 L 906.35 34.99 L 897.03 29.71 L 892.76 30.16 L 891.45 29.11 L 890.49 31.21 L 890.14 32.81 L 887.55 34.44 L 884.83 29.17 L 884.18 30.62 L 883.17 32.27 L 883.09 33.31 L 875.70 28.02 L 875.21 30.67 L 873.82 30.31 Z" fill="#d0d0d0" fill-opacity="0.5" stroke="none"/>
<polyline fill="none" stroke="#111" stroke-width="1.2" points="70.00,61.43 72.26,59.78 73.01,64.75 79.15,69.66 82.27,66.94 97.34,64.65 100.38,69.52 100.44,74.34 100.54,73.39 100.76,78.21 102.66,82.99 112.32,80.54 115.09,80.36 115.74,78.39 118.59,76.21 121.76,73.76 122.03,72.02 124.09,69.56 134.21,69.76 136.61,68.87 137.34,68.15 142.44,65.42 142.77,62.67 146.51,67.60 167.89,66.37 183.20,64.21 197.78,65.69 204.82,63.44 210.63,65.18 221.36,64.27 222.08,62.18 222.50,67.12 271.02,64.38 274.54,62.93 286.11,61.65 286.85,59.42 287.37,56.91 294.99,55.19 296.24,54.27 315.11,54.25 318.42,54.93 333.65,53.12 339.42,50.29 339.64,55.36 359.35,53.61 391.62,58.63 391.70,57.52 397.12,59.40 414.37,57.45 415.26,55.55 417.09,52.95 437.70,52.35 443.39,49.51 443.44,54.54 443.53,59.51 443.65,64.44 443.70,69.36 443.79,69.71 443.89,69.83 446.47,67.09 446.94,71.97 447.04,70.37 447.19,70.22 455.75,75.08 458.15,73.02 461.94,71.27 462.35,69.81 462.49,69.64 465.28,68.18 468.28,73.06 468.40,77.86 468.52,75.98 477.27,73.86 480.24,71.63 480.90,69.71 486.86,68.36 489.30,70.41 489.61,75.27 497.94,73.12 506.32,72.00 508.00,70.03 509.66,74.90 510.84,73.63 521.43,73.05 528.98,74.98 529.86,73.26 532.55,72.13 550.80,70.12 553.92,68.49 569.50,73.36 571.08,70.65 571.71,67.93 572.31,65.66 574.78,65.12 584.53,66.26 585.75,63.49 593.60,62.92 604.31,61.99 606.13,62.69 609.09,67.62 611.94,64.86 612.13,62.60 636.44,60.07 636.68,65.03 639.48,62.26 639.50,59.48 639.87,58.54 648.62,56.97 649.00,54.85 650.40,52.03 651.13,57.08 651.18,55.30 651.37,52.65 651.72,52.27 653.26,50.15 654.20,48.31 655.10,53.39 655.18,51.39 656.05,49.78 658.19,47.61 660.31,45.85 661.37,42.98 672.57,41.03 673.94,38.40 678.91,43.58 678.97,41.72 679.09,40.38 679.27,37.48 679.42,42.65 679.43,47.73 679.64,49.87 679.69,48.99 693.26,46.13 698.15,51.22 700.46,56.27 703.93,61.27 704.03,60.63 704.20,59.53 713.20,64.49 713.30,69.38 713.39,68.32 713.54,69.76 715.38,67.58 716.33,67.25 718.54,65.19 718.79,63.47 722.24,61.29 722.35,58.79 724.64,56.51 725.41,53.99 725.73,51.16 725.83,48.69 726.07,47.59 733.78,45.34 734.11,50.45 734.14,48.30 734.40,47.55 737.15,44.71 738.26,41.84 740.64,46.99 740.77,52.05 740.78,57.04 740.85,56.21 740.96,55.31 742.40,56.09 743.40,56.18 743.74,53.37 743.99,50.97 755.99,56.02 756.20,57.77 756.26,55.79 759.44,52.99 761.38,50.95 761.99,48.70 765.39,48.91 768.15,53.98 779.85,59.01 780.62,58.34 786.89,56.53 790.10,61.52 797.88,58.73 801.37,56.49 807.43,54.81 822.73,51.87 822.89,56.92 822.93,55.37 823.65,60.38 825.81,57.59 829.47,62.58 829.92,60.64 832.11,58.46 832.63,63.45 832.72,62.74 832.83,60.32 839.87,58.57 840.80,58.37 841.22,56.13 842.37,53.93 844.11,52.22 844.23,49.85 844.54,47.42 844.97,44.86 848.06,42.24 848.49,39.35 850.94,36.46 851.02,35.08 861.34,34.04 864.53,35.63 865.67,33.97 865.89,32.40 871.90,29.47 872.39,27.96 873.07,25.00 873.82,30.31 875.21,30.67 875.70,28.02 883.09,33.31 883.17,32.27 884.18,30.62 884.83,29.17 887.55,34.44 890.14,32.81 890.49,31.21 891.45,29.11 892.76,30.16 897.03,29.71 906.35,34.99 908.53,32.87 909.33,30.20 912.92,29.06 915.19,34.34 915.21,31.57 915.38,28.65 915.63,31.32 918.28,28.38 918.55,25.69 918.82,31.01 918.90,29.96 926.11,27.88 926.98,33.17 927.48,30.51 933.06,35.77 933.19,40.95 933.21,46.10 933.31,46.35 936.34,44.11 939.86,49.23 948.74,54.32 951.39,53.99 957.73,59.02 957.86,59.54 957.91,57.88 958.23,55.85 958.79,53.04 960.65,51.28 961.28,56.34 969.60,54.42 970.84,55.52 973.58,52.93 976.75,57.97 976.85,56.85 977.18,54.04 978.13,51.21 979.64,56.28 979.72,55.59 980.01,60.61 990.47,58.30 990.59,56.75 990.81,57.88 992.35,56.78 994.21,54.57 994.40,52.88 995.52,57.93 996.29,55.95 1001.19,60.97 1001.23,58.61 1001.68,63.61 1004.24,68.55 1004.33,67.99 1013.01,66.08 1013.46,64.44 1017.02,61.87 1018.90,66.82 1019.06,66.25 1019.12,71.12 1019.41,69.13 1021.88,66.59 1022.72,64.23 1025.87,69.17 1025.97,69.01 1039.49,68.98 1044.00,66.78 1044.49,64.27 1046.85,69.20 1047.22,67.23 1055.58,67.04 1056.54,65.08 1061.99,66.47 1062.67,65.32 1075.84,65.78 1077.06,63.86 1080.25,68.81 1080.31,66.38 1080.69,64.11 1083.66,61.22 1083.79,66.13 1083.80,71.03 1090.18,75.90 1090.29,75.99 1099.81,75.94 1108.34,80.77 1110.99,85.54 1111.40,84.08 1123.84,88.81 1123.96,88.85 1144.60,87.56 1147.67,85.19 1147.78,83.14 1150.51,81.57 1169.67,86.34 1169.84,85.69 1170.00,87.11"/>
<text x="620.0" y="588" text-anchor="middle" font-family="sans-serif" font-size="12" fill="#333">UTC time</text>
<text x="15" y="287.5" transform="rotate(-90 15,287.5)" text-anchor="middle" font-family="sans-serif" font-size="12" fill="#333">Capital</text>
</svg>