<svg xmlns="http://www.w3.org/2000/svg" width="1200" height="600" viewBox="0 0 1200 600">
<desc>Equity curve with drawdown fill</desc>
<text x="600.0" y="18.0" text-anchor="middle" font-family="sans-serif" font-size="14">Portfolio 2025</text>
<rect x="70" y="25" width="1100" height="525" fill="white" stroke="#ccc" />
<line x1="70" y1="550.00" x2="1170" y2="550.00" stroke="#eee"/>
<text x="62" y="554.0" text-anchor="end" font-family="sans-serif" font-size="11" fill="#555">0.00</text>
<line x1="70" y1="445.00" x2="1170" y2="445.00" stroke="#eee"/>
<text x="62" y="449.0" text-anchor="end" font-family="sans-serif" font-size="11" fill="#555">21684</text>
<line x1="70" y1="340.00" x2="1170" y2="340.00" stroke="#eee"/>
<text x="62" y="344.0" text-anchor="end" font-family="sans-serif" font-size="11" fill="#555">43368</text>
<line x1="70" y1="235.00" x2="1170" y2="235.00" stroke="#eee"/>
<text x="62" y="239.0" text-anchor="end" font-family="sans-serif" font-size="11" fill="#555">65051</text>
<line x1="70" y1="130.00" x2="1170" y2="130.00" stroke="#eee"/>
<text x="62" y="134.0" text-anchor="end" font-family="sans-serif" font-size="11" fill="#555">86735</text>
<line x1="70" y1="25.00" x2="1170" y2="25.00" stroke="#eee"/>
<text x="62" y="29.0" text-anchor="end" font-family="sans-serif" font-size="11" fill="#555">108419</text>
<line x1="258.67" y1="25" x2="258.67" y2="550" stroke="#f2f2f2"/>
<text x="258.67" y="566" text-anchor="middle" font-family="sans-serif" font-size="11" fill="#555">Feb</text>
<line x1="437.51" y1="25" x2="437.51" y2="550" stroke="#f2f2f2"/>
<text x="437.51" y="566" text-anchor="middle" font-family="sans-serif" font-size="11" fill="#555">Mar</text>
<line x1="635.52" y1="25" x2="635.52" y2="550" stroke="#f2f2f2"/>
<text x="635.52" y="566" text-anchor="middle" font-family="sans-serif" font-size="11" fill="#555">Apr</text>
<line x1="827.13" y1="25" x2="827.13" y2="550" stroke="#f2f2f2"/>
<text x="827.13" y="566" text-anchor="middle" font-family="sans-serif" font-size="11" fill="#555">May</text>
<line x1="1025.14" y1="25" x2="1025.14" y2="550" stroke="#f2f2f2"/>
<text x="1025.14" y="566" text-anchor="middle" font-family="sans-serif" font-size="11" fill="#555">Jun</text>
<line x1="70" y1="550" x2="1170" y2="550" stroke="#888"/>
<line x1="70" y1="25" x2="70" y2="550" stroke="#888"/>
<path d="M 71.32 64.12 L 95.06 64.12 L 95.62 64.12 L 95.84 64.12 L 96.20 64.12 L 96.40 64.12 L 108.50 64.12 L 108.50 64.34 L 96.40 66.50 L 96.20 69.16 L 95.84 71.48 L 95.62 71.59 L 95.06 66.68 L 71.32 69.06 Z" fill="#d0d0d0" fill-opacity="0.5" stroke="none"/>
<path d="M 185.93 45.01 L 186.12 45.01 L 186.66 45.01 L 188.66 45.01 L 210.12 45.01 L 233.16 45.01 L 249.67 45.01 L 256.98 45.01 L 256.98 47.36 L 249.67 48.39 L 233.16 50.31 L 210.12 50.30 L 188.66 52.17 L 186.66 47.05 L 186.12 49.82 L 185.93 50.15 Z" fill="#d0d0d0" fill-opacity="0.5" stroke="none"/>
<path d="M 271.38 44.87 L 271.38 45.40 Z" fill="#d0d0d0" fill-opacity="0.5" stroke="none"/>
<path d="M 275.62 40.04 L 279.28 40.04 L 301.22 40.04 L 301.22 40.36 L 279.28 43.17 L 275.62 45.22 Z" fill="#d0d0d0" fill-opacity="0.5" stroke="none"/>
<path d="M 333.70 35.00 L 339.42 35.00 L 340.30 35.00 L 428.83 35.00 L 462.00 35.00 L 465.34 35.00 L 466.97 35.00 L 472.98 35.00 L 474.47 35.00 L 503.51 35.00 L 523.51 35.00 L 554.58 35.00 L 554.58 36.86 L 523.51 38.80 L 503.51 40.28 L 474.47 42.31 L 472.98 44.54 L 466.97 47.33 L 465.34 42.17 L 462.00 43.21 L 428.83 38.01 L 340.30 35.00 L 339.42 37.82 L 333.70 40.23 Z" fill="#d0d0d0" fill-opacity="0.5" stroke="none"/>
<path d="M 1054.70 34.59 L 1054.70 34.63 Z" fill="#d0d0d0" fill-opacity="0.5" stroke="none"/>
<path d="M 1170.00 25.00 L 1170.00 30.32 Z" fill="#d0d0d0" fill-opacity="0.5" stroke="none"/>
<polyline fill="none" stroke="#111" stroke-width="1.2" points="70.00,64.12 71.32,69.06 95.06,66.68 95.62,71.59 95.84,71.48 96.20,69.16 96.40,66.50 108.50,64.34 121.74,61.66 121.84,59.52 122.16,57.11 139.83,54.38 153.68,51.64 154.61,50.42 185.62,47.66 185.67,45.01 185.93,50.15 186.12,49.82 186.66,47.05 188.66,52.17 210.12,50.30 233.16,50.31 249.67,48.39 256.98,47.36 257.25,44.87 271.38,45.40 271.46,42.63 271.56,40.04 275.62,45.22 279.28,43.17 301.22,40.36 301.61,37.83 332.52,35.00 333.70,40.23 339.42,37.82 340.30,35.00 428.83,38.01 462.00,43.21 465.34,42.17 466.97,47.33 472.98,44.54 474.47,42.31 503.51,40.28 523.51,38.80 554.58,36.86 1033.92,34.59 1054.70,34.63 1092.66,32.02 1098.33,29.72 1102.26,27.06 1131.55,25.00 1170.00,30.32"/>
<text x="620.0" y="588" text-anchor="middle" font-family="sans-serif" font-size="12" fill="#333">UTC time</text>
<text x="15" y="287.5" transform="rotate(-90 15,287.5)" text-anchor="middle" font-family="sans-serif" font-size="12" fill="#333">Capital</text>
</svg>