<svg xmlns="http://www.w3.org/2000/svg" width="1200" height="600" viewBox="0 0 1200 600">
<desc>Equity curve with drawdown fill; x-axis is months only (no exact timestamps)</desc>
<text x="600.0" y="18.0" text-anchor="middle" font-family="sans-serif" font-size="14">Balance Curve 2025 (UTC)</text>
<rect x="70" y="25" width="1100" height="525" fill="white" stroke="#ccc" />
<line x1="70" y1="550.00" x2="1170" y2="550.00" stroke="#eee"/>
<text x="62" y="554.0" text-anchor="end" font-family="sans-serif" font-size="11" fill="#555">0.00</text>
<line x1="70" y1="445.00" x2="1170" y2="445.00" stroke="#eee"/>
<text x="62" y="449.0" text-anchor="end" font-family="sans-serif" font-size="11" fill="#555">1734211</text>
<line x1="70" y1="340.00" x2="1170" y2="340.00" stroke="#eee"/>
<text x="62" y="344.0" text-anchor="end" font-family="sans-serif" font-size="11" fill="#555">3468423</text>
<line x1="70" y1="235.00" x2="1170" y2="235.00" stroke="#eee"/>
<text x="62" y="239.0" text-anchor="end" font-family="sans-serif" font-size="11" fill="#555">5202634</text>
<line x1="70" y1="130.00" x2="1170" y2="130.00" stroke="#eee"/>
<text x="62" y="134.0" text-anchor="end" font-family="sans-serif" font-size="11" fill="#555">6936846</text>
<line x1="70" y1="25.00" x2="1170" y2="25.00" stroke="#eee"/>
<text x="62" y="29.0" text-anchor="end" font-family="sans-serif" font-size="11" fill="#555">8671057</text>
<line x1="207.50" y1="25" x2="207.50" y2="550" stroke="#f2f2f2"/>
<line x1="345.00" y1="25" x2="345.00" y2="550" stroke="#f2f2f2"/>
<line x1="482.50" y1="25" x2="482.50" y2="550" stroke="#f2f2f2"/>
<line x1="620.00" y1="25" x2="620.00" y2="550" stroke="#f2f2f2"/>
<line x1="757.50" y1="25" x2="757.50" y2="550" stroke="#f2f2f2"/>
<line x1="895.00" y1="25" x2="895.00" y2="550" stroke="#f2f2f2"/>
<line x1="1032.50" y1="25" x2="1032.50" y2="550" stroke="#f2f2f2"/>
<text x="138.75" y="566.00" text-anchor="middle" font-family="sans-serif" font-size="11" fill="#444">Jan</text>
<text x="276.25" y="566.00" text-anchor="middle" font-family="sans-serif" font-size="11" fill="#444">Feb</text>
<text x="413.75" y="566.00" text-anchor="middle" font-family="sans-serif" font-size="11" fill="#444">Mar</text>
<text x="551.25" y="566.00" text-anchor="middle" font-family="sans-serif" font-size="11" fill="#444">Apr</text>
<text x="688.75" y="566.00" text-anchor="middle" font-family="sans-serif" font-size="11" fill="#444">May</text>
<text x="826.25" y="566.00" text-anchor="middle" font-family="sans-serif" font-size="11" fill="#444">Jun</text>
<text x="963.75" y="566.00" text-anchor="middle" font-family="sans-serif" font-size="11" fill="#444">Jul</text>
<text x="1101.25" y="566.00" text-anchor="middle" font-family="sans-serif" font-size="11" fill="#444">Aug</text>
<line x1="70" y1="550" x2="1170" y2="550" stroke="#888"/>
<line x1="70" y1="25" x2="70" y2="550" stroke="#888"/>
<line x1="75.73" y1="550.00" x2="75.73" y2="556.00" stroke="#888"/>
<line x1="1135.62"   y1="550.00" x2="1135.62"   y2="556.00" stroke="#888"/>
<text x="75.73" y="582.00" text-anchor="start" font-family="sans-serif" font-size="11" fill="#333">Initial Balance: 8559238</text>
<text x="1135.62"   y="582.00" text-anchor="end"   font-family="sans-serif" font-size="11" fill="#333">Ending Balance: 8611285</text>
<path d="M 98.65 31.40 L 110.10 31.40 L 121.56 31.40 L 133.02 31.40 L 144.48 31.40 L 144.48 31.87 L 133.02 32.54 L 121.56 32.77 L 110.10 33.28 L 98.65 33.05 Z" fill="#d0d0d0" fill-opacity="0.5" stroke="none"/>
<path d="M 356.46 27.01 L 379.38 27.01 L 402.29 27.01 L 425.21 27.01 L 425.21 27.04 L 402.29 27.52 L 379.38 28.07 L 356.46 28.68 Z" fill="#d0d0d0" fill-opacity="0.5" stroke="none"/>
<path d="M 485.94 26.27 L 492.81 26.27 L 499.69 26.27 L 499.69 27.36 L 492.81 27.27 L 485.94 27.99 Z" fill="#d0d0d0" fill-opacity="0.5" stroke="none"/>
<path d="M 513.44 25.04 L 520.31 25.04 L 527.19 25.04 L 534.06 25.04 L 540.94 25.04 L 547.81 25.04 L 554.69 25.04 L 561.56 25.04 L 568.44 25.04 L 568.44 27.37 L 561.56 25.60 L 554.69 26.22 L 547.81 27.57 L 540.94 28.03 L 534.06 27.96 L 527.19 28.34 L 520.31 28.47 L 513.44 27.75 Z" fill="#d0d0d0" fill-opacity="0.5" stroke="none"/>
<path d="M 582.19 25.00 L 589.06 25.00 L 595.94 25.00 L 602.81 25.00 L 609.69 25.00 L 616.56 25.00 L 633.75 25.00 L 661.25 25.00 L 688.75 25.00 L 716.25 25.00 L 743.75 25.00 L 780.42 25.00 L 826.25 25.00 L 872.08 25.00 L 908.75 25.00 L 936.25 25.00 L 963.75 25.00 L 991.25 25.00 L 1018.75 25.00 L 1066.88 25.00 L 1135.62 25.00 L 1135.62 28.62 L 1066.88 29.20 L 1018.75 29.84 L 991.25 28.02 L 963.75 28.62 L 936.25 30.49 L 908.75 28.67 L 872.08 30.10 L 826.25 30.81 L 780.42 31.40 L 743.75 32.09 L 716.25 30.31 L 688.75 31.45 L 661.25 29.67 L 633.75 30.38 L 616.56 28.60 L 609.69 28.71 L 602.81 26.91 L 595.94 27.22 L 589.06 27.91 L 582.19 27.76 Z" fill="#d0d0d0" fill-opacity="0.5" stroke="none"/>
<polyline fill="none" stroke="#111" stroke-width="1.2" points="75.73,31.77 87.19,31.40 98.65,33.05 110.10,33.28 121.56,32.77 133.02,32.54 144.48,31.87 155.94,30.88 167.40,30.20 178.85,29.52 190.31,29.35 201.77,28.75 230.42,28.29 276.25,27.69 322.08,27.01 356.46,28.68 379.38,28.07 402.29,27.52 425.21,27.04 448.12,26.73 471.04,26.27 485.94,27.99 492.81,27.27 499.69,27.36 506.56,25.04 513.44,27.75 520.31,28.47 527.19,28.34 534.06,27.96 540.94,28.03 547.81,27.57 554.69,26.22 561.56,25.60 568.44,27.37 575.31,25.00 582.19,27.76 589.06,27.91 595.94,27.22 602.81,26.91 609.69,28.71 616.56,28.60 633.75,30.38 661.25,29.67 688.75,31.45 716.25,30.31 743.75,32.09 780.42,31.40 826.25,30.81 872.08,30.10 908.75,28.67 936.25,30.49 963.75,28.62 991.25,28.02 1018.75,29.84 1066.88,29.20 1135.62,28.62"/>
<text x="15" y="287.5" transform="rotate(-90 15,287.5)" text-anchor="middle" font-family="sans-serif" font-size="12" fill="#333">USD</text>
</svg>