<svg xmlns="http://www.w3.org/2000/svg" width="1200" height="600" viewBox="0 0 1200 600">
<desc>Equity curve with drawdown fill; x-axis is months only (no exact timestamps)</desc>
<text x="600.0" y="18.0" text-anchor="middle" font-family="sans-serif" font-size="14">Balance Curve 2015 (UTC)</text>
<rect x="70" y="25" width="1100" height="525" fill="white" stroke="#ccc" />
<line x1="70" y1="550.00" x2="1170" y2="550.00" stroke="#eee"/>
<text x="62" y="554.0" text-anchor="end" font-family="sans-serif" font-size="11" fill="#555">0.00</text>
<line x1="70" y1="445.00" x2="1170" y2="445.00" stroke="#eee"/>
<text x="62" y="449.0" text-anchor="end" font-family="sans-serif" font-size="11" fill="#555">24442</text>
<line x1="70" y1="340.00" x2="1170" y2="340.00" stroke="#eee"/>
<text x="62" y="344.0" text-anchor="end" font-family="sans-serif" font-size="11" fill="#555">48884</text>
<line x1="70" y1="235.00" x2="1170" y2="235.00" stroke="#eee"/>
<text x="62" y="239.0" text-anchor="end" font-family="sans-serif" font-size="11" fill="#555">73326</text>
<line x1="70" y1="130.00" x2="1170" y2="130.00" stroke="#eee"/>
<text x="62" y="134.0" text-anchor="end" font-family="sans-serif" font-size="11" fill="#555">97768</text>
<line x1="70" y1="25.00" x2="1170" y2="25.00" stroke="#eee"/>
<text x="62" y="29.0" text-anchor="end" font-family="sans-serif" font-size="11" fill="#555">122211</text>
<line x1="161.67" y1="25" x2="161.67" y2="550" stroke="#f2f2f2"/>
<line x1="253.33" y1="25" x2="253.33" y2="550" stroke="#f2f2f2"/>
<line x1="345.00" y1="25" x2="345.00" y2="550" stroke="#f2f2f2"/>
<line x1="436.67" y1="25" x2="436.67" y2="550" stroke="#f2f2f2"/>
<line x1="528.33" y1="25" x2="528.33" y2="550" stroke="#f2f2f2"/>
<line x1="620.00" y1="25" x2="620.00" y2="550" stroke="#f2f2f2"/>
<line x1="711.67" y1="25" x2="711.67" y2="550" stroke="#f2f2f2"/>
<line x1="803.33" y1="25" x2="803.33" y2="550" stroke="#f2f2f2"/>
<line x1="895.00" y1="25" x2="895.00" y2="550" stroke="#f2f2f2"/>
<line x1="986.67" y1="25" x2="986.67" y2="550" stroke="#f2f2f2"/>
<line x1="1078.33" y1="25" x2="1078.33" y2="550" stroke="#f2f2f2"/>
<text x="115.83" y="566.00" text-anchor="middle" font-family="sans-serif" font-size="11" fill="#444">Jan</text>
<text x="207.50" y="566.00" text-anchor="middle" font-family="sans-serif" font-size="11" fill="#444">Feb</text>
<text x="299.17" y="566.00" text-anchor="middle" font-family="sans-serif" font-size="11" fill="#444">Mar</text>
<text x="390.83" y="566.00" text-anchor="middle" font-family="sans-serif" font-size="11" fill="#444">Apr</text>
<text x="482.50" y="566.00" text-anchor="middle" font-family="sans-serif" font-size="11" fill="#444">May</text>
<text x="574.17" y="566.00" text-anchor="middle" font-family="sans-serif" font-size="11" fill="#444">Jun</text>
<text x="665.83" y="566.00" text-anchor="middle" font-family="sans-serif" font-size="11" fill="#444">Jul</text>
<text x="757.50" y="566.00" text-anchor="middle" font-family="sans-serif" font-size="11" fill="#444">Aug</text>
<text x="849.17" y="566.00" text-anchor="middle" font-family="sans-serif" font-size="11" fill="#444">Sep</text>
<text x="940.83" y="566.00" text-anchor="middle" font-family="sans-serif" font-size="11" fill="#444">Oct</text>
<text x="1032.50" y="566.00" text-anchor="middle" font-family="sans-serif" font-size="11" fill="#444">Nov</text>
<text x="1124.17" y="566.00" text-anchor="middle" font-family="sans-serif" font-size="11" fill="#444">Dec</text>
<line x1="70" y1="550" x2="1170" y2="550" stroke="#888"/>
<line x1="70" y1="25" x2="70" y2="550" stroke="#888"/>
<line x1="77.64" y1="550.00" x2="77.64" y2="556.00" stroke="#888"/>
<line x1="1158.54"   y1="550.00" x2="1158.54"   y2="556.00" stroke="#888"/>
<text x="77.64" y="582.00" text-anchor="start" font-family="sans-serif" font-size="11" fill="#333">Initial Balance: 100000</text>
<text x="1158.54"   y="582.00" text-anchor="end"   font-family="sans-serif" font-size="11" fill="#333">Ending Balance: 121559</text>
<path d="M 165.83 111.14 L 174.17 111.14 L 182.50 111.14 L 182.50 112.68 L 174.17 114.81 L 165.83 115.59 Z" fill="#d0d0d0" fill-opacity="0.5" stroke="none"/>
<path d="M 255.33 100.50 L 259.31 100.50 L 263.30 100.50 L 267.28 100.50 L 267.28 102.79 L 263.30 105.14 L 259.31 100.56 L 255.33 101.34 Z" fill="#d0d0d0" fill-opacity="0.5" stroke="none"/>
<path d="M 279.24 99.01 L 283.22 99.01 L 287.21 99.01 L 287.21 101.32 L 283.22 101.60 L 279.24 103.60 Z" fill="#d0d0d0" fill-opacity="0.5" stroke="none"/>
<path d="M 311.12 90.67 L 315.11 90.67 L 319.09 90.67 L 319.09 91.42 L 315.11 93.10 L 311.12 95.33 Z" fill="#d0d0d0" fill-opacity="0.5" stroke="none"/>
<path d="M 361.89 72.33 L 366.71 72.33 L 371.54 72.33 L 371.54 73.62 L 366.71 74.70 L 361.89 77.16 Z" fill="#d0d0d0" fill-opacity="0.5" stroke="none"/>
<path d="M 381.18 71.11 L 386.01 71.11 L 390.83 71.11 L 395.66 71.11 L 400.48 71.11 L 405.31 71.11 L 410.13 71.11 L 414.96 71.11 L 419.78 71.11 L 424.61 71.11 L 429.43 71.11 L 434.25 71.11 L 439.72 71.11 L 445.83 71.11 L 451.94 71.11 L 458.06 71.11 L 464.17 71.11 L 470.28 71.11 L 470.28 73.38 L 464.17 75.89 L 458.06 78.10 L 451.94 73.27 L 445.83 74.60 L 439.72 77.11 L 434.25 78.17 L 429.43 80.40 L 424.61 75.61 L 419.78 78.26 L 414.96 79.34 L 410.13 74.52 L 405.31 75.91 L 400.48 77.70 L 395.66 77.39 L 390.83 79.64 L 386.01 74.82 L 381.18 75.97 Z" fill="#d0d0d0" fill-opacity="0.5" stroke="none"/>
<path d="M 494.72 67.29 L 500.83 67.29 L 506.94 67.29 L 513.06 67.29 L 519.17 67.29 L 525.28 67.29 L 530.62 67.29 L 535.21 67.29 L 539.79 67.29 L 544.38 67.29 L 548.96 67.29 L 548.96 67.99 L 544.38 70.33 L 539.79 72.86 L 535.21 67.99 L 530.62 69.98 L 525.28 72.50 L 519.17 74.33 L 513.06 76.61 L 506.94 75.87 L 500.83 77.01 L 494.72 72.17 Z" fill="#d0d0d0" fill-opacity="0.5" stroke="none"/>
<path d="M 594.79 49.36 L 599.38 49.36 L 603.96 49.36 L 608.54 49.36 L 613.12 49.36 L 617.71 49.36 L 625.09 49.36 L 635.28 49.36 L 645.46 49.36 L 645.46 50.55 L 635.28 51.98 L 625.09 54.58 L 617.71 57.01 L 613.12 59.79 L 608.54 54.83 L 603.96 57.58 L 599.38 59.40 L 594.79 54.41 Z" fill="#d0d0d0" fill-opacity="0.5" stroke="none"/>
<path d="M 665.83 48.19 L 665.83 48.66 Z" fill="#d0d0d0" fill-opacity="0.5" stroke="none"/>
<path d="M 696.39 43.45 L 706.57 43.45 L 714.08 43.45 L 718.90 43.45 L 723.73 43.45 L 728.55 43.45 L 733.38 43.45 L 738.20 43.45 L 743.03 43.45 L 747.85 43.45 L 752.68 43.45 L 757.50 43.45 L 757.50 45.08 L 752.68 47.66 L 747.85 50.09 L 743.03 50.50 L 738.20 51.22 L 733.38 46.15 L 728.55 45.57 L 723.73 48.21 L 718.90 51.01 L 714.08 45.93 L 706.57 48.57 L 696.39 48.51 Z" fill="#d0d0d0" fill-opacity="0.5" stroke="none"/>
<path d="M 771.97 41.28 L 776.80 41.28 L 781.62 41.28 L 786.45 41.28 L 791.27 41.28 L 791.27 43.51 L 786.45 44.04 L 781.62 46.88 L 776.80 44.05 L 771.97 46.40 Z" fill="#d0d0d0" fill-opacity="0.5" stroke="none"/>
<path d="M 860.62 35.53 L 883.54 35.53 L 901.55 35.53 L 914.64 35.53 L 927.74 35.53 L 927.74 37.20 L 914.64 36.49 L 901.55 37.23 L 883.54 37.58 L 860.62 36.75 Z" fill="#d0d0d0" fill-opacity="0.5" stroke="none"/>
<path d="M 967.02 31.85 L 967.02 33.49 Z" fill="#d0d0d0" fill-opacity="0.5" stroke="none"/>
<path d="M 1112.71 25.00 L 1135.62 25.00 L 1158.54 25.00 L 1158.54 27.80 L 1135.62 28.63 L 1112.71 30.26 Z" fill="#d0d0d0" fill-opacity="0.5" stroke="none"/>
<polyline fill="none" stroke="#111" stroke-width="1.2" points="77.64,120.41 92.92,118.11 108.19,117.62 123.47,115.34 138.75,113.26 154.03,111.14 165.83,115.59 174.17,114.81 182.50,112.68 190.83,110.87 199.17,109.86 207.50,109.16 215.83,106.93 224.17,105.71 232.50,103.88 240.83,103.06 249.17,100.50 255.33,101.34 259.31,100.56 263.30,105.14 267.28,102.79 271.27,100.47 275.25,99.01 279.24,103.60 283.22,101.60 287.21,101.32 291.20,98.95 295.18,96.71 299.17,94.88 303.15,93.02 307.14,90.67 311.12,95.33 315.11,93.10 319.09,91.42 323.08,88.99 327.07,86.55 331.05,84.36 335.04,82.87 339.02,80.41 343.01,77.94 347.41,76.00 352.24,73.69 357.06,72.33 361.89,77.16 366.71,74.70 371.54,73.62 376.36,71.11 381.18,75.97 386.01,74.82 390.83,79.64 395.66,77.39 400.48,77.70 405.31,75.91 410.13,74.52 414.96,79.34 419.78,78.26 424.61,75.61 429.43,80.40 434.25,78.17 439.72,77.11 445.83,74.60 451.94,73.27 458.06,78.10 464.17,75.89 470.28,73.38 476.39,70.86 482.50,68.98 488.61,67.29 494.72,72.17 500.83,77.01 506.94,75.87 513.06,76.61 519.17,74.33 525.28,72.50 530.62,69.98 535.21,67.99 539.79,72.86 544.38,70.33 548.96,67.99 553.54,65.44 558.12,65.32 562.71,62.76 567.29,60.99 571.88,58.95 576.46,56.35 581.04,53.74 585.62,52.00 590.21,49.36 594.79,54.41 599.38,59.40 603.96,57.58 608.54,54.83 613.12,59.79 617.71,57.01 625.09,54.58 635.28,51.98 645.46,50.55 655.65,48.19 665.83,48.66 676.02,46.27 686.20,43.45 696.39,48.51 706.57,48.57 714.08,45.93 718.90,51.01 723.73,48.21 728.55,45.57 733.38,46.15 738.20,51.22 743.03,50.50 747.85,50.09 752.68,47.66 757.50,45.08 762.32,42.35 767.15,41.28 771.97,46.40 776.80,44.05 781.62,46.88 786.45,44.04 791.27,43.51 796.10,40.84 800.92,38.83 814.79,38.22 837.71,35.53 860.62,36.75 883.54,37.58 901.55,37.23 914.64,36.49 927.74,37.20 940.83,34.50 953.93,31.85 967.02,33.49 980.12,30.78 1009.58,28.08 1055.42,27.25 1089.79,25.00 1112.71,30.26 1135.62,28.63 1158.54,27.80"/>
<text x="15" y="287.5" transform="rotate(-90 15,287.5)" text-anchor="middle" font-family="sans-serif" font-size="12" fill="#333">USD</text>
</svg>