<svg xmlns="http://www.w3.org/2000/svg" width="1200" height="600" viewBox="0 0 1200 600">
<desc>Equity curve with drawdown fill; x-axis is months only (no exact timestamps)</desc>
<text x="600.0" y="18.0" text-anchor="middle" font-family="sans-serif" font-size="14">Portfolio 2003 (UTC)</text>
<rect x="70" y="25" width="1100" height="525" fill="white" stroke="#ccc" />
<line x1="70" y1="550.00" x2="1170" y2="550.00" stroke="#eee"/>
<text x="62" y="554.0" text-anchor="end" font-family="sans-serif" font-size="11" fill="#555">0.00</text>
<line x1="70" y1="445.00" x2="1170" y2="445.00" stroke="#eee"/>
<text x="62" y="449.0" text-anchor="end" font-family="sans-serif" font-size="11" fill="#555">22043</text>
<line x1="70" y1="340.00" x2="1170" y2="340.00" stroke="#eee"/>
<text x="62" y="344.0" text-anchor="end" font-family="sans-serif" font-size="11" fill="#555">44087</text>
<line x1="70" y1="235.00" x2="1170" y2="235.00" stroke="#eee"/>
<text x="62" y="239.0" text-anchor="end" font-family="sans-serif" font-size="11" fill="#555">66130</text>
<line x1="70" y1="130.00" x2="1170" y2="130.00" stroke="#eee"/>
<text x="62" y="134.0" text-anchor="end" font-family="sans-serif" font-size="11" fill="#555">88173</text>
<line x1="70" y1="25.00" x2="1170" y2="25.00" stroke="#eee"/>
<text x="62" y="29.0" text-anchor="end" font-family="sans-serif" font-size="11" fill="#555">110217</text>
<line x1="161.67" y1="25" x2="161.67" y2="550" stroke="#f2f2f2"/>
<line x1="253.33" y1="25" x2="253.33" y2="550" stroke="#f2f2f2"/>
<line x1="345.00" y1="25" x2="345.00" y2="550" stroke="#f2f2f2"/>
<line x1="436.67" y1="25" x2="436.67" y2="550" stroke="#f2f2f2"/>
<line x1="528.33" y1="25" x2="528.33" y2="550" stroke="#f2f2f2"/>
<line x1="620.00" y1="25" x2="620.00" y2="550" stroke="#f2f2f2"/>
<line x1="711.67" y1="25" x2="711.67" y2="550" stroke="#f2f2f2"/>
<line x1="803.33" y1="25" x2="803.33" y2="550" stroke="#f2f2f2"/>
<line x1="895.00" y1="25" x2="895.00" y2="550" stroke="#f2f2f2"/>
<line x1="986.67" y1="25" x2="986.67" y2="550" stroke="#f2f2f2"/>
<line x1="1078.33" y1="25" x2="1078.33" y2="550" stroke="#f2f2f2"/>
<text x="115.83" y="566.00" text-anchor="middle" font-family="sans-serif" font-size="11" fill="#444">Jan</text>
<text x="207.50" y="566.00" text-anchor="middle" font-family="sans-serif" font-size="11" fill="#444">Feb</text>
<text x="299.17" y="566.00" text-anchor="middle" font-family="sans-serif" font-size="11" fill="#444">Mar</text>
<text x="390.83" y="566.00" text-anchor="middle" font-family="sans-serif" font-size="11" fill="#444">Apr</text>
<text x="482.50" y="566.00" text-anchor="middle" font-family="sans-serif" font-size="11" fill="#444">May</text>
<text x="574.17" y="566.00" text-anchor="middle" font-family="sans-serif" font-size="11" fill="#444">Jun</text>
<text x="665.83" y="566.00" text-anchor="middle" font-family="sans-serif" font-size="11" fill="#444">Jul</text>
<text x="757.50" y="566.00" text-anchor="middle" font-family="sans-serif" font-size="11" fill="#444">Aug</text>
<text x="849.17" y="566.00" text-anchor="middle" font-family="sans-serif" font-size="11" fill="#444">Sep</text>
<text x="940.83" y="566.00" text-anchor="middle" font-family="sans-serif" font-size="11" fill="#444">Oct</text>
<text x="1032.50" y="566.00" text-anchor="middle" font-family="sans-serif" font-size="11" fill="#444">Nov</text>
<text x="1124.17" y="566.00" text-anchor="middle" font-family="sans-serif" font-size="11" fill="#444">Dec</text>
<line x1="70" y1="550" x2="1170" y2="550" stroke="#888"/>
<line x1="70" y1="25" x2="70" y2="550" stroke="#888"/>
<line x1="76.55" y1="550.00" x2="76.55" y2="556.00" stroke="#888"/>
<line x1="1158.54"   y1="550.00" x2="1158.54"   y2="556.00" stroke="#888"/>
<text x="76.55" y="582.00" text-anchor="start" font-family="sans-serif" font-size="11" fill="#333">Initial Balance: 100000</text>
<text x="1158.54"   y="582.00" text-anchor="end"   font-family="sans-serif" font-size="11" fill="#333">Ending Balance: 109679</text>
<path d="M 89.64 73.67 L 102.74 73.67 L 115.83 73.67 L 128.93 73.67 L 142.02 73.67 L 155.12 73.67 L 169.31 73.67 L 184.58 73.67 L 199.86 73.67 L 215.14 73.67 L 230.42 73.67 L 245.69 73.67 L 256.03 73.67 L 261.42 73.67 L 266.81 73.67 L 266.81 74.65 L 261.42 76.82 L 256.03 78.66 L 245.69 77.37 L 230.42 79.19 L 215.14 81.29 L 199.86 82.10 L 184.58 82.05 L 169.31 77.28 L 155.12 78.62 L 142.02 80.41 L 128.93 81.35 L 115.83 80.72 L 102.74 83.26 L 89.64 78.51 Z" fill="#d0d0d0" fill-opacity="0.5" stroke="none"/>
<path d="M 277.60 71.91 L 282.99 71.91 L 288.38 71.91 L 293.77 71.91 L 299.17 71.91 L 304.56 71.91 L 309.95 71.91 L 315.34 71.91 L 320.74 71.91 L 326.13 71.91 L 331.52 71.91 L 336.91 71.91 L 342.30 71.91 L 350.73 71.91 L 362.19 71.91 L 373.65 71.91 L 385.10 71.91 L 385.10 72.13 L 373.65 74.19 L 362.19 75.29 L 350.73 77.64 L 342.30 77.12 L 336.91 77.99 L 331.52 78.80 L 326.13 80.50 L 320.74 83.04 L 315.34 84.33 L 309.95 86.52 L 304.56 81.77 L 299.17 83.73 L 293.77 78.95 L 288.38 79.73 L 282.99 74.90 L 277.60 76.72 Z" fill="#d0d0d0" fill-opacity="0.5" stroke="none"/>
<path d="M 441.76 65.87 L 451.94 65.87 L 462.13 65.87 L 462.13 67.34 L 451.94 68.75 L 441.76 70.79 Z" fill="#d0d0d0" fill-opacity="0.5" stroke="none"/>
<path d="M 482.50 64.91 L 482.50 65.74 Z" fill="#d0d0d0" fill-opacity="0.5" stroke="none"/>
<path d="M 513.06 62.25 L 513.06 62.88 Z" fill="#d0d0d0" fill-opacity="0.5" stroke="none"/>
<path d="M 557.50 56.41 L 565.83 56.41 L 574.17 56.41 L 582.50 56.41 L 582.50 57.59 L 574.17 59.70 L 565.83 59.68 L 557.50 61.38 Z" fill="#d0d0d0" fill-opacity="0.5" stroke="none"/>
<path d="M 665.83 43.25 L 676.02 43.25 L 686.20 43.25 L 696.39 43.25 L 706.57 43.25 L 717.40 43.25 L 728.85 43.25 L 740.31 43.25 L 751.77 43.25 L 763.23 43.25 L 763.23 43.89 L 751.77 46.39 L 740.31 49.05 L 728.85 43.92 L 717.40 46.01 L 706.57 48.26 L 696.39 50.53 L 686.20 49.60 L 676.02 50.75 L 665.83 45.63 Z" fill="#d0d0d0" fill-opacity="0.5" stroke="none"/>
<path d="M 809.88 37.00 L 822.98 37.00 L 836.07 37.00 L 849.17 37.00 L 862.26 37.00 L 875.36 37.00 L 888.45 37.00 L 898.82 37.00 L 898.82 39.65 L 888.45 41.96 L 875.36 43.35 L 862.26 41.80 L 849.17 44.58 L 836.07 44.81 L 822.98 47.33 L 809.88 42.20 Z" fill="#d0d0d0" fill-opacity="0.5" stroke="none"/>
<path d="M 929.38 35.32 L 937.01 35.32 L 944.65 35.32 L 952.29 35.32 L 952.29 37.40 L 944.65 39.94 L 937.01 41.40 L 929.38 36.19 Z" fill="#d0d0d0" fill-opacity="0.5" stroke="none"/>
<path d="M 967.57 34.99 L 975.21 34.99 L 982.85 34.99 L 982.85 35.22 L 975.21 38.05 L 967.57 40.21 Z" fill="#d0d0d0" fill-opacity="0.5" stroke="none"/>
<path d="M 1135.62 25.00 L 1158.54 25.00 L 1158.54 27.56 L 1135.62 30.30 Z" fill="#d0d0d0" fill-opacity="0.5" stroke="none"/>
<polyline fill="none" stroke="#111" stroke-width="1.2" points="76.55,73.67 89.64,78.51 102.74,83.26 115.83,80.72 128.93,81.35 142.02,80.41 155.12,78.62 169.31,77.28 184.58,82.05 199.86,82.10 215.14,81.29 230.42,79.19 245.69,77.37 256.03,78.66 261.42,76.82 266.81,74.65 272.21,71.91 277.60,76.72 282.99,74.90 288.38,79.73 293.77,78.95 299.17,83.73 304.56,81.77 309.95,86.52 315.34,84.33 320.74,83.04 326.13,80.50 331.52,78.80 336.91,77.99 342.30,77.12 350.73,77.64 362.19,75.29 373.65,74.19 385.10,72.13 396.56,69.78 408.02,68.28 419.48,66.16 430.94,65.87 441.76,70.79 451.94,68.75 462.13,67.34 472.31,64.91 482.50,65.74 492.69,64.04 502.87,62.25 513.06,62.88 523.24,60.67 532.50,59.94 540.83,59.11 549.17,56.41 557.50,61.38 565.83,59.68 574.17,59.70 582.50,57.59 590.83,55.43 599.17,53.91 607.50,52.64 615.83,50.76 625.09,49.35 635.28,47.74 645.46,45.49 655.65,43.25 665.83,45.63 676.02,50.75 686.20,49.60 696.39,50.53 706.57,48.26 717.40,46.01 728.85,43.92 740.31,49.05 751.77,46.39 763.23,43.89 774.69,41.38 786.15,39.22 797.60,37.00 809.88,42.20 822.98,47.33 836.07,44.81 849.17,44.58 862.26,41.80 875.36,43.35 888.45,41.96 898.82,39.65 906.46,36.82 914.10,35.47 921.74,35.32 929.38,36.19 937.01,41.40 944.65,39.94 952.29,37.40 959.93,34.99 967.57,40.21 975.21,38.05 982.85,35.22 1009.58,32.39 1055.42,30.45 1089.79,27.59 1112.71,25.00 1135.62,30.30 1158.54,27.56"/>
<text x="620.0" y="588" text-anchor="middle" font-family="sans-serif" font-size="12" fill="#333">Monthly Balance Curve</text>
<text x="15" y="287.5" transform="rotate(-90 15,287.5)" text-anchor="middle" font-family="sans-serif" font-size="12" fill="#333">Capital</text>
</svg>