<svg xmlns="http://www.w3.org/2000/svg" width="1200" height="600" viewBox="0 0 1200 600">
<desc>Equity curve with drawdown fill</desc>
<text x="600.0" y="18.0" text-anchor="middle" font-family="sans-serif" font-size="14">Portfolio 2014</text>
<rect x="70" y="25" width="1100" height="525" fill="white" stroke="#ccc" />
<line x1="70" y1="550.00" x2="1170" y2="550.00" stroke="#eee"/>
<text x="62" y="554.0" text-anchor="end" font-family="sans-serif" font-size="11" fill="#555">0.00</text>
<line x1="70" y1="445.00" x2="1170" y2="445.00" stroke="#eee"/>
<text x="62" y="449.0" text-anchor="end" font-family="sans-serif" font-size="11" fill="#555">22340</text>
<line x1="70" y1="340.00" x2="1170" y2="340.00" stroke="#eee"/>
<text x="62" y="344.0" text-anchor="end" font-family="sans-serif" font-size="11" fill="#555">44680</text>
<line x1="70" y1="235.00" x2="1170" y2="235.00" stroke="#eee"/>
<text x="62" y="239.0" text-anchor="end" font-family="sans-serif" font-size="11" fill="#555">67019</text>
<line x1="70" y1="130.00" x2="1170" y2="130.00" stroke="#eee"/>
<text x="62" y="134.0" text-anchor="end" font-family="sans-serif" font-size="11" fill="#555">89359</text>
<line x1="70" y1="25.00" x2="1170" y2="25.00" stroke="#eee"/>
<text x="62" y="29.0" text-anchor="end" font-family="sans-serif" font-size="11" fill="#555">111699</text>
<line x1="162.62" y1="25" x2="162.62" y2="550" stroke="#f2f2f2"/>
<text x="162.62" y="566" text-anchor="middle" font-family="sans-serif" font-size="11" fill="#555">Feb</text>
<line x1="250.68" y1="25" x2="250.68" y2="550" stroke="#f2f2f2"/>
<text x="250.68" y="566" text-anchor="middle" font-family="sans-serif" font-size="11" fill="#555">Mar</text>
<line x1="348.17" y1="25" x2="348.17" y2="550" stroke="#f2f2f2"/>
<text x="348.17" y="566" text-anchor="middle" font-family="sans-serif" font-size="11" fill="#555">Apr</text>
<line x1="442.52" y1="25" x2="442.52" y2="550" stroke="#f2f2f2"/>
<text x="442.52" y="566" text-anchor="middle" font-family="sans-serif" font-size="11" fill="#555">May</text>
<line x1="540.02" y1="25" x2="540.02" y2="550" stroke="#f2f2f2"/>
<text x="540.02" y="566" text-anchor="middle" font-family="sans-serif" font-size="11" fill="#555">Jun</text>
<line x1="634.37" y1="25" x2="634.37" y2="550" stroke="#f2f2f2"/>
<text x="634.37" y="566" text-anchor="middle" font-family="sans-serif" font-size="11" fill="#555">Jul</text>
<line x1="731.86" y1="25" x2="731.86" y2="550" stroke="#f2f2f2"/>
<text x="731.86" y="566" text-anchor="middle" font-family="sans-serif" font-size="11" fill="#555">Aug</text>
<line x1="829.36" y1="25" x2="829.36" y2="550" stroke="#f2f2f2"/>
<text x="829.36" y="566" text-anchor="middle" font-family="sans-serif" font-size="11" fill="#555">Sep</text>
<line x1="923.71" y1="25" x2="923.71" y2="550" stroke="#f2f2f2"/>
<text x="923.71" y="566" text-anchor="middle" font-family="sans-serif" font-size="11" fill="#555">Oct</text>
<line x1="1021.20" y1="25" x2="1021.20" y2="550" stroke="#f2f2f2"/>
<text x="1021.20" y="566" text-anchor="middle" font-family="sans-serif" font-size="11" fill="#555">Nov</text>
<line x1="1115.55" y1="25" x2="1115.55" y2="550" stroke="#f2f2f2"/>
<text x="1115.55" y="566" text-anchor="middle" font-family="sans-serif" font-size="11" fill="#555">Dec</text>
<line x1="70" y1="550" x2="1170" y2="550" stroke="#888"/>
<line x1="70" y1="25" x2="70" y2="550" stroke="#888"/>
<path d="M 135.44 71.05 L 139.02 71.05 L 180.14 71.05 L 180.14 72.23 L 139.02 75.98 L 135.44 78.29 Z" fill="#d0d0d0" fill-opacity="0.5" stroke="none"/>
<path d="M 198.91 68.11 L 198.91 68.73 Z" fill="#d0d0d0" fill-opacity="0.5" stroke="none"/>
<path d="M 290.99 55.46 L 309.91 55.46 L 325.48 55.46 L 466.51 55.46 L 554.37 55.46 L 554.41 55.46 L 554.61 55.46 L 554.61 56.11 L 554.41 60.32 L 554.37 63.53 L 466.51 67.68 L 325.48 60.29 L 309.91 64.46 L 290.99 57.02 Z" fill="#d0d0d0" fill-opacity="0.5" stroke="none"/>
<path d="M 840.57 51.87 L 840.75 51.87 L 853.82 51.87 L 882.18 51.87 L 906.04 51.87 L 922.07 51.87 L 922.07 54.23 L 906.04 55.39 L 882.18 59.19 L 853.82 63.00 L 840.75 66.78 L 840.57 59.36 Z" fill="#d0d0d0" fill-opacity="0.5" stroke="none"/>
<path d="M 932.02 50.39 L 948.23 50.39 L 969.54 50.39 L 969.64 50.39 L 969.68 50.39 L 972.36 50.39 L 976.04 50.39 L 988.11 50.39 L 1010.51 50.39 L 1014.26 50.39 L 1014.42 50.39 L 1019.95 50.39 L 1027.60 50.39 L 1032.76 50.39 L 1038.70 50.39 L 1038.85 50.39 L 1038.89 50.39 L 1051.50 50.39 L 1064.17 50.39 L 1075.99 50.39 L 1075.99 54.60 L 1064.17 58.77 L 1051.50 61.83 L 1038.89 65.22 L 1038.85 67.82 L 1038.70 66.43 L 1032.76 70.53 L 1027.60 73.09 L 1019.95 76.74 L 1014.42 69.46 L 1014.26 66.79 L 1010.51 70.89 L 988.11 71.06 L 976.04 71.41 L 972.36 73.55 L 969.68 66.23 L 969.64 68.64 L 969.54 61.28 L 948.23 53.77 L 932.02 57.95 Z" fill="#d0d0d0" fill-opacity="0.5" stroke="none"/>
<path d="M 1085.28 50.36 L 1098.67 50.36 L 1126.78 50.36 L 1126.78 50.41 L 1098.67 54.35 L 1085.28 57.92 Z" fill="#d0d0d0" fill-opacity="0.5" stroke="none"/>
<polyline fill="none" stroke="#111" stroke-width="1.2" points="70.00,77.78 92.13,75.14 95.20,71.05 135.44,78.29 139.02,75.98 180.14,72.23 183.26,68.11 198.91,68.73 223.50,65.30 248.84,61.13 248.95,59.68 268.18,55.46 290.99,57.02 309.91,64.46 325.48,60.29 466.51,67.68 554.37,63.53 554.41,60.32 554.61,56.11 840.46,51.87 840.57,59.36 840.75,66.78 853.82,63.00 882.18,59.19 906.04,55.39 922.07,54.23 928.74,50.39 932.02,57.95 948.23,53.77 969.54,61.28 969.64,68.64 969.68,66.23 972.36,73.55 976.04,71.41 988.11,71.06 1010.51,70.89 1014.26,66.79 1014.42,69.46 1019.95,76.74 1027.60,73.09 1032.76,70.53 1038.70,66.43 1038.85,67.82 1038.89,65.22 1051.50,61.83 1064.17,58.77 1075.99,54.60 1080.30,50.36 1085.28,57.92 1098.67,54.35 1126.78,50.41 1126.85,47.72 1126.97,45.07 1130.11,42.21 1142.77,40.95 1148.97,37.05 1164.08,35.94 1164.34,32.56 1168.00,32.14 1168.43,28.05 1170.00,25.00"/>
<text x="620.0" y="588" text-anchor="middle" font-family="sans-serif" font-size="12" fill="#333">UTC time</text>
<text x="15" y="287.5" transform="rotate(-90 15,287.5)" text-anchor="middle" font-family="sans-serif" font-size="12" fill="#333">Capital</text>
</svg>