<svg xmlns="http://www.w3.org/2000/svg" width="1200" height="600" viewBox="0 0 1200 600">
<desc>Equity curve with drawdown fill; x-axis is months only (no exact timestamps)</desc>
<text x="600.0" y="18.0" text-anchor="middle" font-family="sans-serif" font-size="14">Balance Curve 2013 (UTC)</text>
<rect x="70" y="25" width="1100" height="525" fill="white" stroke="#ccc" />
<line x1="70" y1="550.00" x2="1170" y2="550.00" stroke="#eee"/>
<text x="62" y="554.0" text-anchor="end" font-family="sans-serif" font-size="11" fill="#555">0.00</text>
<line x1="70" y1="445.00" x2="1170" y2="445.00" stroke="#eee"/>
<text x="62" y="449.0" text-anchor="end" font-family="sans-serif" font-size="11" fill="#555">20730</text>
<line x1="70" y1="340.00" x2="1170" y2="340.00" stroke="#eee"/>
<text x="62" y="344.0" text-anchor="end" font-family="sans-serif" font-size="11" fill="#555">41459</text>
<line x1="70" y1="235.00" x2="1170" y2="235.00" stroke="#eee"/>
<text x="62" y="239.0" text-anchor="end" font-family="sans-serif" font-size="11" fill="#555">62189</text>
<line x1="70" y1="130.00" x2="1170" y2="130.00" stroke="#eee"/>
<text x="62" y="134.0" text-anchor="end" font-family="sans-serif" font-size="11" fill="#555">82918</text>
<line x1="70" y1="25.00" x2="1170" y2="25.00" stroke="#eee"/>
<text x="62" y="29.0" text-anchor="end" font-family="sans-serif" font-size="11" fill="#555">103648</text>
<line x1="161.67" y1="25" x2="161.67" y2="550" stroke="#f2f2f2"/>
<line x1="253.33" y1="25" x2="253.33" y2="550" stroke="#f2f2f2"/>
<line x1="345.00" y1="25" x2="345.00" y2="550" stroke="#f2f2f2"/>
<line x1="436.67" y1="25" x2="436.67" y2="550" stroke="#f2f2f2"/>
<line x1="528.33" y1="25" x2="528.33" y2="550" stroke="#f2f2f2"/>
<line x1="620.00" y1="25" x2="620.00" y2="550" stroke="#f2f2f2"/>
<line x1="711.67" y1="25" x2="711.67" y2="550" stroke="#f2f2f2"/>
<line x1="803.33" y1="25" x2="803.33" y2="550" stroke="#f2f2f2"/>
<line x1="895.00" y1="25" x2="895.00" y2="550" stroke="#f2f2f2"/>
<line x1="986.67" y1="25" x2="986.67" y2="550" stroke="#f2f2f2"/>
<line x1="1078.33" y1="25" x2="1078.33" y2="550" stroke="#f2f2f2"/>
<text x="115.83" y="566.00" text-anchor="middle" font-family="sans-serif" font-size="11" fill="#444">Jan</text>
<text x="207.50" y="566.00" text-anchor="middle" font-family="sans-serif" font-size="11" fill="#444">Feb</text>
<text x="299.17" y="566.00" text-anchor="middle" font-family="sans-serif" font-size="11" fill="#444">Mar</text>
<text x="390.83" y="566.00" text-anchor="middle" font-family="sans-serif" font-size="11" fill="#444">Apr</text>
<text x="482.50" y="566.00" text-anchor="middle" font-family="sans-serif" font-size="11" fill="#444">May</text>
<text x="574.17" y="566.00" text-anchor="middle" font-family="sans-serif" font-size="11" fill="#444">Jun</text>
<text x="665.83" y="566.00" text-anchor="middle" font-family="sans-serif" font-size="11" fill="#444">Jul</text>
<text x="757.50" y="566.00" text-anchor="middle" font-family="sans-serif" font-size="11" fill="#444">Aug</text>
<text x="849.17" y="566.00" text-anchor="middle" font-family="sans-serif" font-size="11" fill="#444">Sep</text>
<text x="940.83" y="566.00" text-anchor="middle" font-family="sans-serif" font-size="11" fill="#444">Oct</text>
<text x="1032.50" y="566.00" text-anchor="middle" font-family="sans-serif" font-size="11" fill="#444">Nov</text>
<text x="1124.17" y="566.00" text-anchor="middle" font-family="sans-serif" font-size="11" fill="#444">Dec</text>
<line x1="70" y1="550" x2="1170" y2="550" stroke="#888"/>
<line x1="70" y1="25" x2="70" y2="550" stroke="#888"/>
<line x1="81.46" y1="550.00" x2="81.46" y2="556.00" stroke="#888"/>
<line x1="1147.08"   y1="550.00" x2="1147.08"   y2="556.00" stroke="#888"/>
<text x="81.46" y="582.00" text-anchor="start" font-family="sans-serif" font-size="11" fill="#333">Initial Balance: 100000</text>
<text x="1147.08"   y="582.00" text-anchor="end"   font-family="sans-serif" font-size="11" fill="#333">Ending Balance: 102601</text>
<path d="M 104.38 43.48 L 127.29 43.48 L 150.21 43.48 L 184.58 43.48 L 230.42 43.48 L 276.25 43.48 L 322.08 43.48 L 360.28 43.48 L 360.28 43.93 L 322.08 46.63 L 276.25 48.07 L 230.42 50.75 L 184.58 50.47 L 150.21 52.64 L 127.29 53.76 L 104.38 48.64 Z" fill="#d0d0d0" fill-opacity="0.5" stroke="none"/>
<path d="M 513.06 34.91 L 537.50 34.91 L 555.83 34.91 L 574.17 34.91 L 592.50 34.91 L 610.83 34.91 L 627.64 34.91 L 642.92 34.91 L 658.19 34.91 L 658.19 37.44 L 642.92 37.25 L 627.64 39.98 L 610.83 42.17 L 592.50 43.38 L 574.17 42.77 L 555.83 45.49 L 537.50 45.37 L 513.06 40.17 Z" fill="#d0d0d0" fill-opacity="0.5" stroke="none"/>
<path d="M 688.75 34.69 L 704.03 34.69 L 704.03 37.20 L 688.75 39.95 Z" fill="#d0d0d0" fill-opacity="0.5" stroke="none"/>
<path d="M 791.88 31.07 L 849.17 31.07 L 910.28 31.07 L 940.83 31.07 L 940.83 33.57 L 910.28 34.40 L 849.17 33.52 L 791.88 36.29 Z" fill="#d0d0d0" fill-opacity="0.5" stroke="none"/>
<path d="M 1147.08 25.00 L 1147.08 30.31 Z" fill="#d0d0d0" fill-opacity="0.5" stroke="none"/>
<polyline fill="none" stroke="#111" stroke-width="1.2" points="81.46,43.48 104.38,48.64 127.29,53.76 150.21,52.64 184.58,50.47 230.42,50.75 276.25,48.07 322.08,46.63 360.28,43.93 390.83,41.22 421.39,38.83 451.94,36.62 482.50,34.91 513.06,40.17 537.50,45.37 555.83,45.49 574.17,42.77 592.50,43.38 610.83,42.17 627.64,39.98 642.92,37.25 658.19,37.44 673.47,34.69 688.75,39.95 704.03,37.20 723.12,34.44 746.04,33.98 768.96,31.07 791.88,36.29 849.17,33.52 910.28,34.40 940.83,33.57 971.39,30.78 1032.50,27.98 1101.25,25.00 1147.08,30.31"/>
<text x="15" y="287.5" transform="rotate(-90 15,287.5)" text-anchor="middle" font-family="sans-serif" font-size="12" fill="#333">USD</text>
</svg>