<svg xmlns="http://www.w3.org/2000/svg" width="1200" height="600" viewBox="0 0 1200 600">
<desc>Equity curve with drawdown fill; x-axis is months only (no exact timestamps)</desc>
<text x="600.0" y="18.0" text-anchor="middle" font-family="sans-serif" font-size="14">Portfolio 2006 (UTC)</text>
<rect x="70" y="25" width="1100" height="525" fill="white" stroke="#ccc" />
<line x1="70" y1="550.00" x2="1170" y2="550.00" stroke="#eee"/>
<text x="62" y="554.0" text-anchor="end" font-family="sans-serif" font-size="11" fill="#555">0.00</text>
<line x1="70" y1="445.00" x2="1170" y2="445.00" stroke="#eee"/>
<text x="62" y="449.0" text-anchor="end" font-family="sans-serif" font-size="11" fill="#555">24779</text>
<line x1="70" y1="340.00" x2="1170" y2="340.00" stroke="#eee"/>
<text x="62" y="344.0" text-anchor="end" font-family="sans-serif" font-size="11" fill="#555">49559</text>
<line x1="70" y1="235.00" x2="1170" y2="235.00" stroke="#eee"/>
<text x="62" y="239.0" text-anchor="end" font-family="sans-serif" font-size="11" fill="#555">74338</text>
<line x1="70" y1="130.00" x2="1170" y2="130.00" stroke="#eee"/>
<text x="62" y="134.0" text-anchor="end" font-family="sans-serif" font-size="11" fill="#555">99117</text>
<line x1="70" y1="25.00" x2="1170" y2="25.00" stroke="#eee"/>
<text x="62" y="29.0" text-anchor="end" font-family="sans-serif" font-size="11" fill="#555">123897</text>
<line x1="180.00" y1="25" x2="180.00" y2="550" stroke="#f2f2f2"/>
<line x1="290.00" y1="25" x2="290.00" y2="550" stroke="#f2f2f2"/>
<line x1="400.00" y1="25" x2="400.00" y2="550" stroke="#f2f2f2"/>
<line x1="510.00" y1="25" x2="510.00" y2="550" stroke="#f2f2f2"/>
<line x1="620.00" y1="25" x2="620.00" y2="550" stroke="#f2f2f2"/>
<line x1="730.00" y1="25" x2="730.00" y2="550" stroke="#f2f2f2"/>
<line x1="840.00" y1="25" x2="840.00" y2="550" stroke="#f2f2f2"/>
<line x1="950.00" y1="25" x2="950.00" y2="550" stroke="#f2f2f2"/>
<line x1="1060.00" y1="25" x2="1060.00" y2="550" stroke="#f2f2f2"/>
<text x="125.00" y="566.00" text-anchor="middle" font-family="sans-serif" font-size="11" fill="#444">Jan</text>
<text x="235.00" y="566.00" text-anchor="middle" font-family="sans-serif" font-size="11" fill="#444">Apr</text>
<text x="345.00" y="566.00" text-anchor="middle" font-family="sans-serif" font-size="11" fill="#444">May</text>
<text x="455.00" y="566.00" text-anchor="middle" font-family="sans-serif" font-size="11" fill="#444">Jun</text>
<text x="565.00" y="566.00" text-anchor="middle" font-family="sans-serif" font-size="11" fill="#444">Jul</text>
<text x="675.00" y="566.00" text-anchor="middle" font-family="sans-serif" font-size="11" fill="#444">Aug</text>
<text x="785.00" y="566.00" text-anchor="middle" font-family="sans-serif" font-size="11" fill="#444">Sep</text>
<text x="895.00" y="566.00" text-anchor="middle" font-family="sans-serif" font-size="11" fill="#444">Oct</text>
<text x="1005.00" y="566.00" text-anchor="middle" font-family="sans-serif" font-size="11" fill="#444">Nov</text>
<text x="1115.00" y="566.00" text-anchor="middle" font-family="sans-serif" font-size="11" fill="#444">Dec</text>
<line x1="70" y1="550" x2="1170" y2="550" stroke="#888"/>
<line x1="70" y1="25" x2="70" y2="550" stroke="#888"/>
<line x1="81.00" y1="550.00" x2="81.00" y2="556.00" stroke="#888"/>
<line x1="1142.50"   y1="550.00" x2="1142.50"   y2="556.00" stroke="#888"/>
<text x="81.00" y="582.00" text-anchor="start" font-family="sans-serif" font-size="11" fill="#333">Initial Balance: 117935</text>
<text x="1142.50"   y="582.00" text-anchor="end"   font-family="sans-serif" font-size="11" fill="#333">Ending Balance: 122599</text>
<path d="M 103.00 50.26 L 103.00 50.55 Z" fill="#d0d0d0" fill-opacity="0.5" stroke="none"/>
<path d="M 225.83 40.69 L 244.17 40.69 L 262.50 40.69 L 280.83 40.69 L 280.83 41.94 L 262.50 44.23 L 244.17 42.64 L 225.83 42.44 Z" fill="#d0d0d0" fill-opacity="0.5" stroke="none"/>
<path d="M 376.43 28.89 L 376.43 29.69 Z" fill="#d0d0d0" fill-opacity="0.5" stroke="none"/>
<path d="M 406.87 27.72 L 420.62 27.72 L 434.38 27.72 L 448.12 27.72 L 461.88 27.72 L 475.62 27.72 L 489.38 27.72 L 503.13 27.72 L 503.13 29.31 L 489.38 31.41 L 475.62 33.32 L 461.88 34.30 L 448.12 36.40 L 434.38 39.15 L 420.62 33.95 L 406.87 32.93 Z" fill="#d0d0d0" fill-opacity="0.5" stroke="none"/>
<path d="M 551.25 26.28 L 578.75 26.28 L 606.25 26.28 L 633.75 26.28 L 661.25 26.28 L 688.75 26.28 L 716.25 26.28 L 757.50 26.28 L 812.50 26.28 L 895.00 26.28 L 977.50 26.28 L 977.50 27.32 L 895.00 28.90 L 812.50 31.81 L 757.50 32.79 L 716.25 34.39 L 688.75 31.27 L 661.25 32.39 L 633.75 32.50 L 606.25 35.39 L 578.75 33.06 L 551.25 31.51 Z" fill="#d0d0d0" fill-opacity="0.5" stroke="none"/>
<path d="M 1087.50 25.00 L 1142.50 25.00 L 1142.50 30.50 L 1087.50 30.29 Z" fill="#d0d0d0" fill-opacity="0.5" stroke="none"/>
<polyline fill="none" stroke="#111" stroke-width="1.2" points="81.00,50.26 103.00,50.55 125.00,48.62 147.00,45.81 169.00,43.70 189.17,43.53 207.50,40.69 225.83,42.44 244.17,42.64 262.50,44.23 280.83,41.94 297.86,39.08 313.57,36.48 329.29,34.17 345.00,31.27 360.71,28.89 376.43,29.69 392.14,27.72 406.87,32.93 420.62,33.95 434.38,39.15 448.12,36.40 461.88,34.30 475.62,33.32 489.38,31.41 503.13,29.31 523.75,26.28 551.25,31.51 578.75,33.06 606.25,35.39 633.75,32.50 661.25,32.39 688.75,31.27 716.25,34.39 757.50,32.79 812.50,31.81 895.00,28.90 977.50,27.32 1032.50,25.00 1087.50,30.29 1142.50,30.50"/>
<text x="620.0" y="588" text-anchor="middle" font-family="sans-serif" font-size="12" fill="#333">Monthly Balance Curve</text>
<text x="15" y="287.5" transform="rotate(-90 15,287.5)" text-anchor="middle" font-family="sans-serif" font-size="12" fill="#333">Capital</text>
</svg>