<svg xmlns="http://www.w3.org/2000/svg" width="1200" height="600" viewBox="0 0 1200 600">
<desc>Equity curve with drawdown fill; x-axis is months only (no exact timestamps)</desc>
<text x="600.0" y="18.0" text-anchor="middle" font-family="sans-serif" font-size="14">Balance Curve 2010 (UTC)</text>
<rect x="70" y="25" width="1100" height="525" fill="white" stroke="#ccc" />
<line x1="70" y1="550.00" x2="1170" y2="550.00" stroke="#eee"/>
<text x="62" y="554.0" text-anchor="end" font-family="sans-serif" font-size="11" fill="#555">0.00</text>
<line x1="70" y1="445.00" x2="1170" y2="445.00" stroke="#eee"/>
<text x="62" y="449.0" text-anchor="end" font-family="sans-serif" font-size="11" fill="#555">334895</text>
<line x1="70" y1="340.00" x2="1170" y2="340.00" stroke="#eee"/>
<text x="62" y="344.0" text-anchor="end" font-family="sans-serif" font-size="11" fill="#555">669791</text>
<line x1="70" y1="235.00" x2="1170" y2="235.00" stroke="#eee"/>
<text x="62" y="239.0" text-anchor="end" font-family="sans-serif" font-size="11" fill="#555">1004686</text>
<line x1="70" y1="130.00" x2="1170" y2="130.00" stroke="#eee"/>
<text x="62" y="134.0" text-anchor="end" font-family="sans-serif" font-size="11" fill="#555">1339581</text>
<line x1="70" y1="25.00" x2="1170" y2="25.00" stroke="#eee"/>
<text x="62" y="29.0" text-anchor="end" font-family="sans-serif" font-size="11" fill="#555">1674477</text>
<line x1="161.67" y1="25" x2="161.67" y2="550" stroke="#f2f2f2"/>
<line x1="253.33" y1="25" x2="253.33" y2="550" stroke="#f2f2f2"/>
<line x1="345.00" y1="25" x2="345.00" y2="550" stroke="#f2f2f2"/>
<line x1="436.67" y1="25" x2="436.67" y2="550" stroke="#f2f2f2"/>
<line x1="528.33" y1="25" x2="528.33" y2="550" stroke="#f2f2f2"/>
<line x1="620.00" y1="25" x2="620.00" y2="550" stroke="#f2f2f2"/>
<line x1="711.67" y1="25" x2="711.67" y2="550" stroke="#f2f2f2"/>
<line x1="803.33" y1="25" x2="803.33" y2="550" stroke="#f2f2f2"/>
<line x1="895.00" y1="25" x2="895.00" y2="550" stroke="#f2f2f2"/>
<line x1="986.67" y1="25" x2="986.67" y2="550" stroke="#f2f2f2"/>
<line x1="1078.33" y1="25" x2="1078.33" y2="550" stroke="#f2f2f2"/>
<text x="115.83" y="566.00" text-anchor="middle" font-family="sans-serif" font-size="11" fill="#444">Jan</text>
<text x="207.50" y="566.00" text-anchor="middle" font-family="sans-serif" font-size="11" fill="#444">Feb</text>
<text x="299.17" y="566.00" text-anchor="middle" font-family="sans-serif" font-size="11" fill="#444">Mar</text>
<text x="390.83" y="566.00" text-anchor="middle" font-family="sans-serif" font-size="11" fill="#444">Apr</text>
<text x="482.50" y="566.00" text-anchor="middle" font-family="sans-serif" font-size="11" fill="#444">May</text>
<text x="574.17" y="566.00" text-anchor="middle" font-family="sans-serif" font-size="11" fill="#444">Jun</text>
<text x="665.83" y="566.00" text-anchor="middle" font-family="sans-serif" font-size="11" fill="#444">Jul</text>
<text x="757.50" y="566.00" text-anchor="middle" font-family="sans-serif" font-size="11" fill="#444">Aug</text>
<text x="849.17" y="566.00" text-anchor="middle" font-family="sans-serif" font-size="11" fill="#444">Sep</text>
<text x="940.83" y="566.00" text-anchor="middle" font-family="sans-serif" font-size="11" fill="#444">Oct</text>
<text x="1032.50" y="566.00" text-anchor="middle" font-family="sans-serif" font-size="11" fill="#444">Nov</text>
<text x="1124.17" y="566.00" text-anchor="middle" font-family="sans-serif" font-size="11" fill="#444">Dec</text>
<line x1="70" y1="550" x2="1170" y2="550" stroke="#888"/>
<line x1="70" y1="25" x2="70" y2="550" stroke="#888"/>
<line x1="75.09" y1="550.00" x2="75.09" y2="556.00" stroke="#888"/>
<line x1="1167.30"   y1="550.00" x2="1167.30"   y2="556.00" stroke="#888"/>
<text x="75.09" y="582.00" text-anchor="start" font-family="sans-serif" font-size="11" fill="#333">Initial Balance: 1308566</text>
<text x="1167.30"   y="582.00" text-anchor="end"   font-family="sans-serif" font-size="11" fill="#333">Ending Balance: 1674477</text>
<path d="M 115.83 134.02 L 115.83 134.35 Z" fill="#d0d0d0" fill-opacity="0.5" stroke="none"/>
<path d="M 207.50 123.56 L 225.83 123.56 L 244.17 123.56 L 244.17 124.29 L 225.83 125.86 L 207.50 127.90 Z" fill="#d0d0d0" fill-opacity="0.5" stroke="none"/>
<path d="M 306.81 118.09 L 306.81 118.96 Z" fill="#d0d0d0" fill-opacity="0.5" stroke="none"/>
<path d="M 398.47 111.77 L 413.75 111.77 L 429.03 111.77 L 437.60 111.77 L 439.47 111.77 L 441.34 111.77 L 443.21 111.77 L 445.09 111.77 L 446.96 111.77 L 448.83 111.77 L 450.70 111.77 L 452.57 111.77 L 452.57 113.19 L 450.70 115.54 L 448.83 117.81 L 446.96 119.87 L 445.09 121.84 L 443.21 123.87 L 441.34 125.86 L 439.47 127.55 L 437.60 123.20 L 429.03 118.82 L 413.75 114.40 L 398.47 116.22 Z" fill="#d0d0d0" fill-opacity="0.5" stroke="none"/>
<path d="M 471.28 98.48 L 473.15 98.48 L 475.02 98.48 L 476.89 98.48 L 476.89 98.82 L 475.02 100.79 L 473.15 101.91 L 471.28 103.07 Z" fill="#d0d0d0" fill-opacity="0.5" stroke="none"/>
<path d="M 482.50 94.94 L 484.37 94.94 L 486.24 94.94 L 488.11 94.94 L 489.98 94.94 L 491.85 94.94 L 493.72 94.94 L 495.60 94.31 L 497.47 94.31 L 497.47 103.43 L 495.60 98.83 L 493.72 96.92 L 491.85 97.68 L 489.98 100.00 L 488.11 95.39 L 486.24 96.64 L 484.37 97.25 L 482.50 99.56 Z" fill="#d0d0d0" fill-opacity="0.5" stroke="none"/>
<path d="M 501.21 94.31 L 503.08 94.31 L 504.95 94.31 L 506.82 94.31 L 508.69 94.31 L 510.56 94.31 L 510.56 94.69 L 508.69 96.56 L 506.82 98.05 L 504.95 100.11 L 503.08 101.58 L 501.21 101.65 Z" fill="#d0d0d0" fill-opacity="0.5" stroke="none"/>
<path d="M 518.04 91.95 L 518.04 92.06 Z" fill="#d0d0d0" fill-opacity="0.5" stroke="none"/>
<path d="M 563.38 71.73 L 568.77 71.73 L 574.17 71.73 L 579.56 71.73 L 584.95 71.73 L 590.34 71.73 L 595.74 71.73 L 595.74 73.52 L 590.34 75.54 L 584.95 74.50 L 579.56 72.99 L 574.17 73.26 L 568.77 74.54 L 563.38 76.56 Z" fill="#d0d0d0" fill-opacity="0.5" stroke="none"/>
<path d="M 665.83 58.90 L 665.83 58.96 Z" fill="#d0d0d0" fill-opacity="0.5" stroke="none"/>
<path d="M 706.57 54.49 L 719.31 54.49 L 734.58 54.49 L 749.86 54.49 L 765.14 54.49 L 780.42 54.49 L 795.69 54.49 L 812.50 54.49 L 830.83 54.49 L 849.17 54.49 L 867.50 54.49 L 885.83 54.49 L 897.86 54.49 L 903.59 54.49 L 909.32 54.49 L 915.05 54.49 L 920.78 54.49 L 926.51 54.49 L 932.24 54.49 L 932.24 56.48 L 926.51 55.12 L 920.78 57.72 L 915.05 60.27 L 909.32 55.32 L 903.59 57.90 L 897.86 58.91 L 885.83 60.91 L 867.50 61.77 L 849.17 63.18 L 830.83 64.04 L 812.50 63.48 L 795.69 61.84 L 780.42 64.13 L 765.14 65.72 L 749.86 67.18 L 734.58 65.32 L 719.31 60.43 L 706.57 55.47 Z" fill="#d0d0d0" fill-opacity="0.5" stroke="none"/>
<path d="M 1016.13 35.47 L 1022.68 35.47 L 1029.23 35.47 L 1035.77 35.47 L 1042.32 35.47 L 1048.87 35.47 L 1055.42 35.47 L 1061.96 35.47 L 1068.51 35.47 L 1075.06 35.47 L 1081.03 35.47 L 1086.42 35.47 L 1091.81 35.47 L 1097.21 35.47 L 1102.60 35.47 L 1102.60 36.54 L 1097.21 37.81 L 1091.81 39.90 L 1086.42 41.92 L 1081.03 36.85 L 1075.06 39.67 L 1068.51 42.04 L 1061.96 43.44 L 1055.42 45.53 L 1048.87 40.45 L 1042.32 42.19 L 1035.77 37.07 L 1029.23 39.01 L 1022.68 40.20 L 1016.13 40.60 Z" fill="#d0d0d0" fill-opacity="0.5" stroke="none"/>
<path d="M 1129.56 29.95 L 1134.95 29.95 L 1140.34 29.95 L 1140.34 31.14 L 1134.95 30.89 L 1129.56 31.33 Z" fill="#d0d0d0" fill-opacity="0.5" stroke="none"/>
<path d="M 1151.13 28.44 L 1151.13 30.54 Z" fill="#d0d0d0" fill-opacity="0.5" stroke="none"/>
<polyline fill="none" stroke="#111" stroke-width="1.2" points="75.09,139.72 85.28,137.53 95.46,135.32 105.65,134.02 115.83,134.35 126.02,133.28 136.20,131.83 146.39,129.74 156.57,127.48 170.83,125.82 189.17,123.56 207.50,127.90 225.83,125.86 244.17,124.29 260.97,122.02 276.25,119.80 291.53,118.09 306.81,118.96 322.08,117.28 337.36,115.68 352.64,114.35 367.92,113.08 383.19,111.77 398.47,116.22 413.75,114.40 429.03,118.82 437.60,123.20 439.47,127.55 441.34,125.86 443.21,123.87 445.09,121.84 446.96,119.87 448.83,117.81 450.70,115.54 452.57,113.19 454.44,110.88 456.31,110.08 458.18,107.91 460.05,107.20 461.92,104.96 463.79,103.27 465.66,101.93 467.53,100.23 469.40,98.48 471.28,103.07 473.15,101.91 475.02,100.79 476.89,98.82 478.76,96.97 480.63,94.94 482.50,99.56 484.37,97.25 486.24,96.64 488.11,95.39 489.98,100.00 491.85,97.68 493.72,96.92 495.60,98.83 497.47,103.43 499.34,94.31 501.21,101.65 503.08,101.58 504.95,100.11 506.82,98.05 508.69,96.56 510.56,94.69 512.43,93.46 514.30,93.25 516.17,91.95 518.04,92.06 519.91,89.87 521.79,87.68 523.66,86.33 525.53,85.14 527.40,82.97 531.03,81.60 536.42,79.18 541.81,77.29 547.21,75.59 552.60,73.36 557.99,71.73 563.38,76.56 568.77,74.54 574.17,73.26 579.56,72.99 584.95,74.50 590.34,75.54 595.74,73.52 601.13,71.49 606.52,69.00 611.91,67.54 617.30,65.05 625.09,62.53 635.28,60.87 645.46,60.03 655.65,58.90 665.83,58.96 676.02,58.30 686.20,56.25 696.39,54.49 706.57,55.47 719.31,60.43 734.58,65.32 749.86,67.18 765.14,65.72 780.42,64.13 795.69,61.84 812.50,63.48 830.83,64.04 849.17,63.18 867.50,61.77 885.83,60.91 897.86,58.91 903.59,57.90 909.32,55.32 915.05,60.27 920.78,57.72 926.51,55.12 932.24,56.48 937.97,53.87 943.70,53.80 949.43,51.96 955.16,50.36 960.89,48.41 966.61,47.68 972.34,46.90 978.07,44.76 983.80,43.99 989.94,41.32 996.49,40.46 1003.04,37.59 1009.58,35.47 1016.13,40.60 1022.68,40.20 1029.23,39.01 1035.77,37.07 1042.32,42.19 1048.87,40.45 1055.42,45.53 1061.96,43.44 1068.51,42.04 1075.06,39.67 1081.03,36.85 1086.42,41.92 1091.81,39.90 1097.21,37.81 1102.60,36.54 1107.99,34.71 1113.38,34.59 1118.77,32.20 1124.17,29.95 1129.56,31.33 1134.95,30.89 1140.34,31.14 1145.74,28.44 1151.13,30.54 1156.52,28.27 1161.91,26.91 1167.30,25.00"/>
<text x="15" y="287.5" transform="rotate(-90 15,287.5)" text-anchor="middle" font-family="sans-serif" font-size="12" fill="#333">USD</text>
</svg>