<svg xmlns="http://www.w3.org/2000/svg" width="1200" height="600" viewBox="0 0 1200 600">
<desc>Equity curve with drawdown fill</desc>
<text x="600.0" y="18.0" text-anchor="middle" font-family="sans-serif" font-size="14">Portfolio 2017</text>
<rect x="70" y="25" width="1100" height="525" fill="white" stroke="#ccc" />
<line x1="70" y1="550.00" x2="1170" y2="550.00" stroke="#eee"/>
<text x="62" y="554.0" text-anchor="end" font-family="sans-serif" font-size="11" fill="#555">0.00</text>
<line x1="70" y1="445.00" x2="1170" y2="445.00" stroke="#eee"/>
<text x="62" y="449.0" text-anchor="end" font-family="sans-serif" font-size="11" fill="#555">47419</text>
<line x1="70" y1="340.00" x2="1170" y2="340.00" stroke="#eee"/>
<text x="62" y="344.0" text-anchor="end" font-family="sans-serif" font-size="11" fill="#555">94838</text>
<line x1="70" y1="235.00" x2="1170" y2="235.00" stroke="#eee"/>
<text x="62" y="239.0" text-anchor="end" font-family="sans-serif" font-size="11" fill="#555">142257</text>
<line x1="70" y1="130.00" x2="1170" y2="130.00" stroke="#eee"/>
<text x="62" y="134.0" text-anchor="end" font-family="sans-serif" font-size="11" fill="#555">189677</text>
<line x1="70" y1="25.00" x2="1170" y2="25.00" stroke="#eee"/>
<text x="62" y="29.0" text-anchor="end" font-family="sans-serif" font-size="11" fill="#555">237096</text>
<line x1="159.32" y1="25" x2="159.32" y2="550" stroke="#f2f2f2"/>
<text x="159.32" y="566" text-anchor="middle" font-family="sans-serif" font-size="11" fill="#555">Feb</text>
<line x1="246.66" y1="25" x2="246.66" y2="550" stroke="#f2f2f2"/>
<text x="246.66" y="566" text-anchor="middle" font-family="sans-serif" font-size="11" fill="#555">Mar</text>
<line x1="343.35" y1="25" x2="343.35" y2="550" stroke="#f2f2f2"/>
<text x="343.35" y="566" text-anchor="middle" font-family="sans-serif" font-size="11" fill="#555">Apr</text>
<line x1="436.93" y1="25" x2="436.93" y2="550" stroke="#f2f2f2"/>
<text x="436.93" y="566" text-anchor="middle" font-family="sans-serif" font-size="11" fill="#555">May</text>
<line x1="533.63" y1="25" x2="533.63" y2="550" stroke="#f2f2f2"/>
<text x="533.63" y="566" text-anchor="middle" font-family="sans-serif" font-size="11" fill="#555">Jun</text>
<line x1="627.21" y1="25" x2="627.21" y2="550" stroke="#f2f2f2"/>
<text x="627.21" y="566" text-anchor="middle" font-family="sans-serif" font-size="11" fill="#555">Jul</text>
<line x1="723.90" y1="25" x2="723.90" y2="550" stroke="#f2f2f2"/>
<text x="723.90" y="566" text-anchor="middle" font-family="sans-serif" font-size="11" fill="#555">Aug</text>
<line x1="820.60" y1="25" x2="820.60" y2="550" stroke="#f2f2f2"/>
<text x="820.60" y="566" text-anchor="middle" font-family="sans-serif" font-size="11" fill="#555">Sep</text>
<line x1="914.18" y1="25" x2="914.18" y2="550" stroke="#f2f2f2"/>
<text x="914.18" y="566" text-anchor="middle" font-family="sans-serif" font-size="11" fill="#555">Oct</text>
<line x1="1010.87" y1="25" x2="1010.87" y2="550" stroke="#f2f2f2"/>
<text x="1010.87" y="566" text-anchor="middle" font-family="sans-serif" font-size="11" fill="#555">Nov</text>
<line x1="1104.45" y1="25" x2="1104.45" y2="550" stroke="#f2f2f2"/>
<text x="1104.45" y="566" text-anchor="middle" font-family="sans-serif" font-size="11" fill="#555">Dec</text>
<line x1="70" y1="550" x2="1170" y2="550" stroke="#888"/>
<line x1="70" y1="25" x2="70" y2="550" stroke="#888"/>
<path d="M 77.15 58.91 L 77.22 58.91 L 79.98 58.91 L 79.98 60.17 L 77.22 62.89 L 77.15 63.88 Z" fill="#d0d0d0" fill-opacity="0.5" stroke="none"/>
<path d="M 96.14 56.16 L 96.17 56.16 L 96.24 56.16 L 96.33 56.16 L 102.03 56.16 L 114.07 56.16 L 120.54 56.16 L 154.77 56.16 L 155.19 56.16 L 157.88 56.16 L 201.96 56.16 L 205.19 56.16 L 255.46 56.16 L 255.46 56.32 L 205.19 57.65 L 201.96 59.85 L 157.88 60.43 L 155.19 59.21 L 154.77 61.44 L 120.54 56.45 L 114.07 59.21 L 102.03 60.76 L 96.33 62.99 L 96.24 64.77 L 96.17 66.08 L 96.14 61.16 Z" fill="#d0d0d0" fill-opacity="0.5" stroke="none"/>
<path d="M 415.16 48.22 L 429.03 48.22 L 473.11 48.22 L 473.11 49.31 L 429.03 50.95 L 415.16 48.80 Z" fill="#d0d0d0" fill-opacity="0.5" stroke="none"/>
<path d="M 504.07 47.16 L 538.58 47.16 L 553.94 47.16 L 553.94 49.37 L 538.58 48.54 L 504.07 49.42 Z" fill="#d0d0d0" fill-opacity="0.5" stroke="none"/>
<path d="M 576.01 46.85 L 616.13 46.85 L 616.96 46.85 L 619.57 46.85 L 619.59 46.85 L 663.55 46.85 L 663.55 46.98 L 619.59 49.26 L 619.57 52.18 L 616.96 54.98 L 616.13 56.96 L 576.01 51.93 Z" fill="#d0d0d0" fill-opacity="0.5" stroke="none"/>
<path d="M 680.66 44.95 L 680.66 46.17 Z" fill="#d0d0d0" fill-opacity="0.5" stroke="none"/>
<path d="M 688.65 43.33 L 707.69 43.33 L 722.93 43.33 L 729.38 43.33 L 735.03 43.33 L 735.26 43.33 L 735.45 43.33 L 747.81 43.33 L 750.73 43.33 L 756.93 43.33 L 769.43 43.33 L 771.89 43.33 L 773.16 43.33 L 775.44 43.33 L 775.44 44.57 L 773.16 47.41 L 771.89 50.24 L 769.43 52.86 L 756.93 52.99 L 750.73 53.40 L 747.81 55.78 L 735.45 50.73 L 735.26 50.09 L 735.03 45.02 L 729.38 47.63 L 722.93 50.46 L 707.69 51.13 L 688.65 46.04 Z" fill="#d0d0d0" fill-opacity="0.5" stroke="none"/>
<path d="M 860.11 30.36 L 860.11 30.88 Z" fill="#d0d0d0" fill-opacity="0.5" stroke="none"/>
<path d="M 882.41 25.00 L 953.42 25.00 L 993.95 25.00 L 994.21 25.00 L 1070.14 25.00 L 1071.35 25.00 L 1103.40 25.00 L 1106.62 25.00 L 1170.00 25.00 L 1170.00 30.12 L 1106.62 32.81 L 1103.40 34.35 L 1071.35 32.89 L 1070.14 33.73 L 994.21 34.63 L 993.95 29.38 L 953.42 28.11 L 882.41 30.27 Z" fill="#d0d0d0" fill-opacity="0.5" stroke="none"/>
<polyline fill="none" stroke="#111" stroke-width="1.2" points="70.00,67.16 70.85,64.70 71.05,63.22 75.13,60.78 76.27,58.91 77.15,63.88 77.22,62.89 79.98,60.17 95.86,58.90 95.98,56.16 96.14,61.16 96.17,66.08 96.24,64.77 96.33,62.99 102.03,60.76 114.07,59.21 120.54,56.45 154.77,61.44 155.19,59.21 157.88,60.43 201.96,59.85 205.19,57.65 255.46,56.32 273.49,54.76 292.87,54.23 333.42,53.27 335.73,51.21 360.05,49.13 415.04,48.22 415.16,48.80 429.03,50.95 473.11,49.31 492.46,47.16 504.07,49.42 538.58,48.54 553.94,49.37 554.40,46.85 576.01,51.93 616.13,56.96 616.96,54.98 619.57,52.18 619.59,49.26 663.55,46.98 669.60,44.95 680.66,46.17 688.27,43.33 688.65,46.04 707.69,51.13 722.93,50.46 729.38,47.63 735.03,45.02 735.26,50.09 735.45,50.73 747.81,55.78 750.73,53.40 756.93,52.99 769.43,52.86 771.89,50.24 773.16,47.41 775.44,44.57 800.72,41.71 812.34,40.35 822.35,37.47 822.59,35.31 841.08,32.40 842.96,30.36 860.11,30.88 862.90,27.95 882.34,25.00 882.41,30.27 953.42,28.11 993.95,29.38 994.21,34.63 1070.14,33.73 1071.35,32.89 1103.40,34.35 1106.62,32.81 1170.00,30.12"/>
<text x="620.0" y="588" text-anchor="middle" font-family="sans-serif" font-size="12" fill="#333">UTC time</text>
<text x="15" y="287.5" transform="rotate(-90 15,287.5)" text-anchor="middle" font-family="sans-serif" font-size="12" fill="#333">Capital</text>
</svg>