<svg xmlns="http://www.w3.org/2000/svg" width="1200" height="600" viewBox="0 0 1200 600">
<desc>Equity curve with drawdown fill</desc>
<text x="600.0" y="18.0" text-anchor="middle" font-family="sans-serif" font-size="14">Portfolio 2019</text>
<rect x="70" y="25" width="1100" height="525" fill="white" stroke="#ccc" />
<line x1="70" y1="550.00" x2="1170" y2="550.00" stroke="#eee"/>
<text x="62" y="554.0" text-anchor="end" font-family="sans-serif" font-size="11" fill="#555">0.00</text>
<line x1="70" y1="445.00" x2="1170" y2="445.00" stroke="#eee"/>
<text x="62" y="449.0" text-anchor="end" font-family="sans-serif" font-size="11" fill="#555">73566</text>
<line x1="70" y1="340.00" x2="1170" y2="340.00" stroke="#eee"/>
<text x="62" y="344.0" text-anchor="end" font-family="sans-serif" font-size="11" fill="#555">147131</text>
<line x1="70" y1="235.00" x2="1170" y2="235.00" stroke="#eee"/>
<text x="62" y="239.0" text-anchor="end" font-family="sans-serif" font-size="11" fill="#555">220697</text>
<line x1="70" y1="130.00" x2="1170" y2="130.00" stroke="#eee"/>
<text x="62" y="134.0" text-anchor="end" font-family="sans-serif" font-size="11" fill="#555">294262</text>
<line x1="70" y1="25.00" x2="1170" y2="25.00" stroke="#eee"/>
<text x="62" y="29.0" text-anchor="end" font-family="sans-serif" font-size="11" fill="#555">367828</text>
<line x1="163.73" y1="25" x2="163.73" y2="550" stroke="#f2f2f2"/>
<text x="163.73" y="566" text-anchor="middle" font-family="sans-serif" font-size="11" fill="#555">Feb</text>
<line x1="253.00" y1="25" x2="253.00" y2="550" stroke="#f2f2f2"/>
<text x="253.00" y="566" text-anchor="middle" font-family="sans-serif" font-size="11" fill="#555">Mar</text>
<line x1="351.83" y1="25" x2="351.83" y2="550" stroke="#f2f2f2"/>
<text x="351.83" y="566" text-anchor="middle" font-family="sans-serif" font-size="11" fill="#555">Apr</text>
<line x1="447.47" y1="25" x2="447.47" y2="550" stroke="#f2f2f2"/>
<text x="447.47" y="566" text-anchor="middle" font-family="sans-serif" font-size="11" fill="#555">May</text>
<line x1="546.30" y1="25" x2="546.30" y2="550" stroke="#f2f2f2"/>
<text x="546.30" y="566" text-anchor="middle" font-family="sans-serif" font-size="11" fill="#555">Jun</text>
<line x1="641.95" y1="25" x2="641.95" y2="550" stroke="#f2f2f2"/>
<text x="641.95" y="566" text-anchor="middle" font-family="sans-serif" font-size="11" fill="#555">Jul</text>
<line x1="740.78" y1="25" x2="740.78" y2="550" stroke="#f2f2f2"/>
<text x="740.78" y="566" text-anchor="middle" font-family="sans-serif" font-size="11" fill="#555">Aug</text>
<line x1="839.61" y1="25" x2="839.61" y2="550" stroke="#f2f2f2"/>
<text x="839.61" y="566" text-anchor="middle" font-family="sans-serif" font-size="11" fill="#555">Sep</text>
<line x1="935.25" y1="25" x2="935.25" y2="550" stroke="#f2f2f2"/>
<text x="935.25" y="566" text-anchor="middle" font-family="sans-serif" font-size="11" fill="#555">Oct</text>
<line x1="1034.08" y1="25" x2="1034.08" y2="550" stroke="#f2f2f2"/>
<text x="1034.08" y="566" text-anchor="middle" font-family="sans-serif" font-size="11" fill="#555">Nov</text>
<line x1="1129.73" y1="25" x2="1129.73" y2="550" stroke="#f2f2f2"/>
<text x="1129.73" y="566" text-anchor="middle" font-family="sans-serif" font-size="11" fill="#555">Dec</text>
<line x1="70" y1="550" x2="1170" y2="550" stroke="#888"/>
<line x1="70" y1="25" x2="70" y2="550" stroke="#888"/>
<path d="M 92.40 31.38 L 98.72 31.38 L 140.67 31.38 L 159.96 31.38 L 274.15 31.38 L 316.02 31.38 L 316.13 31.38 L 321.08 31.38 L 321.22 31.38 L 407.30 31.38 L 475.06 31.38 L 564.09 31.38 L 567.36 31.38 L 720.35 31.38 L 740.12 31.38 L 781.03 31.38 L 787.48 31.38 L 813.10 31.38 L 835.37 31.38 L 876.37 31.38 L 876.42 31.38 L 876.54 31.38 L 876.64 31.38 L 910.96 31.38 L 910.96 32.43 L 876.64 33.50 L 876.54 37.84 L 876.42 40.53 L 876.37 32.68 L 835.37 37.03 L 813.10 41.34 L 787.48 33.50 L 781.03 36.57 L 740.12 40.57 L 720.35 44.86 L 567.36 48.77 L 564.09 47.29 L 475.06 50.06 L 407.30 50.20 L 321.22 52.47 L 321.08 52.78 L 316.13 56.97 L 316.02 57.34 L 274.15 49.76 L 159.96 44.59 L 140.67 36.81 L 98.72 35.69 L 92.40 39.24 Z" fill="#d0d0d0" fill-opacity="0.5" stroke="none"/>
<polyline fill="none" stroke="#111" stroke-width="1.2" points="70.00,34.03 73.33,31.38 92.40,39.24 98.72,35.69 140.67,36.81 159.96,44.59 274.15,49.76 316.02,57.34 316.13,56.97 321.08,52.78 321.22,52.47 407.30,50.20 475.06,50.06 564.09,47.29 567.36,48.77 720.35,44.86 740.12,40.57 781.03,36.57 787.48,33.50 813.10,41.34 835.37,37.03 876.37,32.68 876.42,40.53 876.54,37.84 876.64,33.50 910.96,32.43 987.70,28.98 1170.00,25.00"/>
<text x="620.0" y="588" text-anchor="middle" font-family="sans-serif" font-size="12" fill="#333">UTC time</text>
<text x="15" y="287.5" transform="rotate(-90 15,287.5)" text-anchor="middle" font-family="sans-serif" font-size="12" fill="#333">Capital</text>
</svg>