<svg xmlns="http://www.w3.org/2000/svg" width="1200" height="600" viewBox="0 0 1200 600">
<desc>Equity curve with drawdown fill; x-axis is months only (no exact timestamps)</desc>
<text x="600.0" y="18.0" text-anchor="middle" font-family="sans-serif" font-size="14">Portfolio 2018 (UTC)</text>
<rect x="70" y="25" width="1100" height="525" fill="white" stroke="#ccc" />
<line x1="70" y1="550.00" x2="1170" y2="550.00" stroke="#eee"/>
<text x="62" y="554.0" text-anchor="end" font-family="sans-serif" font-size="11" fill="#555">0.00</text>
<line x1="70" y1="445.00" x2="1170" y2="445.00" stroke="#eee"/>
<text x="62" y="449.0" text-anchor="end" font-family="sans-serif" font-size="11" fill="#555">20907</text>
<line x1="70" y1="340.00" x2="1170" y2="340.00" stroke="#eee"/>
<text x="62" y="344.0" text-anchor="end" font-family="sans-serif" font-size="11" fill="#555">41814</text>
<line x1="70" y1="235.00" x2="1170" y2="235.00" stroke="#eee"/>
<text x="62" y="239.0" text-anchor="end" font-family="sans-serif" font-size="11" fill="#555">62721</text>
<line x1="70" y1="130.00" x2="1170" y2="130.00" stroke="#eee"/>
<text x="62" y="134.0" text-anchor="end" font-family="sans-serif" font-size="11" fill="#555">83628</text>
<line x1="70" y1="25.00" x2="1170" y2="25.00" stroke="#eee"/>
<text x="62" y="29.0" text-anchor="end" font-family="sans-serif" font-size="11" fill="#555">104536</text>
<line x1="207.50" y1="25" x2="207.50" y2="550" stroke="#f2f2f2"/>
<line x1="345.00" y1="25" x2="345.00" y2="550" stroke="#f2f2f2"/>
<line x1="482.50" y1="25" x2="482.50" y2="550" stroke="#f2f2f2"/>
<line x1="620.00" y1="25" x2="620.00" y2="550" stroke="#f2f2f2"/>
<line x1="757.50" y1="25" x2="757.50" y2="550" stroke="#f2f2f2"/>
<line x1="895.00" y1="25" x2="895.00" y2="550" stroke="#f2f2f2"/>
<line x1="1032.50" y1="25" x2="1032.50" y2="550" stroke="#f2f2f2"/>
<text x="138.75" y="566.00" text-anchor="middle" font-family="sans-serif" font-size="11" fill="#444">Jan</text>
<text x="276.25" y="566.00" text-anchor="middle" font-family="sans-serif" font-size="11" fill="#444">Feb</text>
<text x="413.75" y="566.00" text-anchor="middle" font-family="sans-serif" font-size="11" fill="#444">May</text>
<text x="551.25" y="566.00" text-anchor="middle" font-family="sans-serif" font-size="11" fill="#444">Jun</text>
<text x="688.75" y="566.00" text-anchor="middle" font-family="sans-serif" font-size="11" fill="#444">Jul</text>
<text x="826.25" y="566.00" text-anchor="middle" font-family="sans-serif" font-size="11" fill="#444">Aug</text>
<text x="963.75" y="566.00" text-anchor="middle" font-family="sans-serif" font-size="11" fill="#444">Sep</text>
<text x="1101.25" y="566.00" text-anchor="middle" font-family="sans-serif" font-size="11" fill="#444">Nov</text>
<line x1="70" y1="550" x2="1170" y2="550" stroke="#888"/>
<line x1="70" y1="25" x2="70" y2="550" stroke="#888"/>
<line x1="81.46" y1="550.00" x2="81.46" y2="556.00" stroke="#888"/>
<line x1="1135.62"   y1="550.00" x2="1135.62"   y2="556.00" stroke="#888"/>
<text x="81.46" y="582.00" text-anchor="start" font-family="sans-serif" font-size="11" fill="#333">Initial Balance: 100000</text>
<text x="1135.62"   y="582.00" text-anchor="end"   font-family="sans-serif" font-size="11" fill="#333">Ending Balance: 103017</text>
<path d="M 396.56 37.70 L 430.94 37.70 L 465.31 37.70 L 465.31 38.26 L 430.94 41.07 L 396.56 42.90 Z" fill="#d0d0d0" fill-opacity="0.5" stroke="none"/>
<path d="M 551.25 34.00 L 578.75 34.00 L 578.75 36.74 L 551.25 39.24 Z" fill="#d0d0d0" fill-opacity="0.5" stroke="none"/>
<path d="M 734.58 30.96 L 734.58 31.77 Z" fill="#d0d0d0" fill-opacity="0.5" stroke="none"/>
<path d="M 877.81 25.00 L 912.19 25.00 L 946.56 25.00 L 980.94 25.00 L 1015.31 25.00 L 1066.88 25.00 L 1135.62 25.00 L 1135.62 32.62 L 1066.88 27.32 L 1015.31 28.77 L 980.94 31.12 L 946.56 30.38 L 912.19 25.06 L 877.81 25.17 Z" fill="#d0d0d0" fill-opacity="0.5" stroke="none"/>
<polyline fill="none" stroke="#111" stroke-width="1.2" points="81.46,47.78 104.38,47.57 127.29,46.51 150.21,43.73 173.12,40.92 196.04,38.64 276.25,37.94 362.19,37.70 396.56,42.90 430.94,41.07 465.31,38.26 496.25,36.82 523.75,34.00 551.25,39.24 578.75,36.74 606.25,33.91 642.92,31.55 688.75,30.96 734.58,31.77 774.69,28.91 809.06,27.88 843.44,25.00 877.81,25.17 912.19,25.06 946.56,30.38 980.94,31.12 1015.31,28.77 1066.88,27.32 1135.62,32.62"/>
<text x="620.0" y="588" text-anchor="middle" font-family="sans-serif" font-size="12" fill="#333">Monthly Balance Curve</text>
<text x="15" y="287.5" transform="rotate(-90 15,287.5)" text-anchor="middle" font-family="sans-serif" font-size="12" fill="#333">Capital</text>
</svg>