<svg xmlns="http://www.w3.org/2000/svg" width="1200" height="600" viewBox="0 0 1200 600">
<desc>Equity curve with drawdown fill</desc>
<text x="600.0" y="18.0" text-anchor="middle" font-family="sans-serif" font-size="14">Portfolio 2020</text>
<rect x="70" y="25" width="1100" height="525" fill="white" stroke="#ccc" />
<line x1="70" y1="550.00" x2="1170" y2="550.00" stroke="#eee"/>
<text x="62" y="554.0" text-anchor="end" font-family="sans-serif" font-size="11" fill="#555">0.00</text>
<line x1="70" y1="445.00" x2="1170" y2="445.00" stroke="#eee"/>
<text x="62" y="449.0" text-anchor="end" font-family="sans-serif" font-size="11" fill="#555">52355</text>
<line x1="70" y1="340.00" x2="1170" y2="340.00" stroke="#eee"/>
<text x="62" y="344.0" text-anchor="end" font-family="sans-serif" font-size="11" fill="#555">104711</text>
<line x1="70" y1="235.00" x2="1170" y2="235.00" stroke="#eee"/>
<text x="62" y="239.0" text-anchor="end" font-family="sans-serif" font-size="11" fill="#555">157066</text>
<line x1="70" y1="130.00" x2="1170" y2="130.00" stroke="#eee"/>
<text x="62" y="134.0" text-anchor="end" font-family="sans-serif" font-size="11" fill="#555">209421</text>
<line x1="70" y1="25.00" x2="1170" y2="25.00" stroke="#eee"/>
<text x="62" y="29.0" text-anchor="end" font-family="sans-serif" font-size="11" fill="#555">261777</text>
<line x1="100.06" y1="25" x2="100.06" y2="550" stroke="#f2f2f2"/>
<text x="100.06" y="566" text-anchor="middle" font-family="sans-serif" font-size="11" fill="#555">Mar</text>
<line x1="211.86" y1="25" x2="211.86" y2="550" stroke="#f2f2f2"/>
<text x="211.86" y="566" text-anchor="middle" font-family="sans-serif" font-size="11" fill="#555">Apr</text>
<line x1="320.05" y1="25" x2="320.05" y2="550" stroke="#f2f2f2"/>
<text x="320.05" y="566" text-anchor="middle" font-family="sans-serif" font-size="11" fill="#555">May</text>
<line x1="431.84" y1="25" x2="431.84" y2="550" stroke="#f2f2f2"/>
<text x="431.84" y="566" text-anchor="middle" font-family="sans-serif" font-size="11" fill="#555">Jun</text>
<line x1="540.03" y1="25" x2="540.03" y2="550" stroke="#f2f2f2"/>
<text x="540.03" y="566" text-anchor="middle" font-family="sans-serif" font-size="11" fill="#555">Jul</text>
<line x1="651.82" y1="25" x2="651.82" y2="550" stroke="#f2f2f2"/>
<text x="651.82" y="566" text-anchor="middle" font-family="sans-serif" font-size="11" fill="#555">Aug</text>
<line x1="763.62" y1="25" x2="763.62" y2="550" stroke="#f2f2f2"/>
<text x="763.62" y="566" text-anchor="middle" font-family="sans-serif" font-size="11" fill="#555">Sep</text>
<line x1="871.81" y1="25" x2="871.81" y2="550" stroke="#f2f2f2"/>
<text x="871.81" y="566" text-anchor="middle" font-family="sans-serif" font-size="11" fill="#555">Oct</text>
<line x1="983.60" y1="25" x2="983.60" y2="550" stroke="#f2f2f2"/>
<text x="983.60" y="566" text-anchor="middle" font-family="sans-serif" font-size="11" fill="#555">Nov</text>
<line x1="1091.79" y1="25" x2="1091.79" y2="550" stroke="#f2f2f2"/>
<text x="1091.79" y="566" text-anchor="middle" font-family="sans-serif" font-size="11" fill="#555">Dec</text>
<line x1="70" y1="550" x2="1170" y2="550" stroke="#888"/>
<line x1="70" y1="25" x2="70" y2="550" stroke="#888"/>
<path d="M 70.00 62.76 L 70.00 62.79 Z" fill="#d0d0d0" fill-opacity="0.5" stroke="none"/>
<path d="M 119.71 60.60 L 119.71 60.79 Z" fill="#d0d0d0" fill-opacity="0.5" stroke="none"/>
<path d="M 138.52 36.74 L 140.07 36.74 L 141.86 36.74 L 141.90 36.74 L 142.03 36.74 L 142.15 36.74 L 142.26 36.74 L 142.32 36.74 L 142.48 36.74 L 145.36 36.74 L 145.77 36.74 L 154.29 36.74 L 156.20 36.74 L 159.78 36.74 L 159.95 36.74 L 159.95 37.88 L 159.78 40.43 L 156.20 41.11 L 154.29 42.89 L 145.77 45.34 L 145.36 47.17 L 142.48 47.86 L 142.32 50.37 L 142.26 53.15 L 142.15 55.46 L 142.03 50.44 L 141.90 45.39 L 141.86 47.81 L 140.07 42.69 L 138.52 41.92 Z" fill="#d0d0d0" fill-opacity="0.5" stroke="none"/>
<path d="M 163.40 35.92 L 163.70 35.92 L 163.85 35.92 L 164.22 35.92 L 164.84 35.92 L 164.84 35.92 L 165.18 35.92 L 165.18 36.44 L 164.84 39.11 L 164.84 42.09 L 164.22 36.91 L 163.85 39.58 L 163.70 39.94 L 163.40 41.11 Z" fill="#d0d0d0" fill-opacity="0.5" stroke="none"/>
<path d="M 166.20 33.73 L 166.22 33.73 L 166.53 33.73 L 166.80 33.73 L 166.88 33.73 L 166.92 33.73 L 167.38 33.73 L 167.52 33.73 L 167.53 33.73 L 167.58 33.73 L 167.79 33.73 L 168.86 33.73 L 169.78 33.73 L 170.10 33.73 L 170.61 33.73 L 170.98 33.73 L 180.66 33.73 L 181.24 33.73 L 181.27 33.73 L 181.42 33.73 L 181.51 33.73 L 181.67 33.73 L 181.93 33.73 L 183.18 33.73 L 184.04 33.73 L 184.56 33.73 L 185.09 33.73 L 189.30 33.73 L 190.37 33.73 L 192.57 33.73 L 194.98 33.73 L 195.89 33.73 L 196.24 33.73 L 196.33 33.73 L 196.57 33.73 L 208.54 33.73 L 210.12 33.73 L 210.82 33.73 L 213.33 33.73 L 217.65 33.73 L 234.81 33.73 L 242.88 33.73 L 264.47 33.73 L 268.46 33.73 L 293.58 33.73 L 294.08 33.73 L 310.88 33.73 L 318.84 33.73 L 318.96 33.73 L 335.99 33.73 L 383.83 33.73 L 394.61 33.73 L 415.61 33.73 L 444.66 33.73 L 444.99 33.73 L 445.11 33.73 L 448.30 33.73 L 463.03 33.73 L 467.25 33.73 L 470.82 33.73 L 474.01 33.73 L 485.27 33.73 L 488.25 33.73 L 498.84 33.73 L 499.16 33.73 L 542.42 33.73 L 617.51 33.73 L 646.84 33.73 L 650.89 33.73 L 664.78 33.73 L 675.79 33.73 L 719.38 33.73 L 719.65 33.73 L 747.71 33.73 L 747.71 35.48 L 719.65 38.37 L 719.38 40.16 L 675.79 41.90 L 664.78 40.95 L 650.89 42.65 L 646.84 44.54 L 617.51 46.60 L 542.42 48.01 L 499.16 47.85 L 498.84 50.30 L 488.25 52.41 L 485.27 54.58 L 474.01 56.25 L 470.82 55.79 L 467.25 55.01 L 463.03 55.88 L 448.30 55.01 L 445.11 57.79 L 444.99 58.11 L 444.66 53.09 L 415.61 54.71 L 394.61 53.32 L 383.83 55.03 L 335.99 57.47 L 318.96 52.44 L 318.84 52.78 L 310.88 47.69 L 294.08 49.00 L 293.58 50.68 L 268.46 51.46 L 264.47 52.05 L 242.88 52.79 L 234.81 47.71 L 217.65 48.98 L 213.33 49.70 L 210.82 50.09 L 210.12 52.25 L 208.54 53.84 L 196.57 56.39 L 196.33 57.45 L 196.24 58.86 L 195.89 53.84 L 194.98 55.81 L 192.57 58.01 L 190.37 60.21 L 189.30 62.46 L 185.09 63.42 L 184.56 65.59 L 184.04 67.71 L 183.18 62.78 L 181.93 57.79 L 181.67 59.02 L 181.51 61.35 L 181.42 63.91 L 181.27 66.27 L 181.24 61.34 L 180.66 56.35 L 170.98 57.79 L 170.61 60.53 L 170.10 63.02 L 169.78 58.04 L 168.86 53.02 L 167.79 47.94 L 167.58 50.35 L 167.53 52.30 L 167.52 47.26 L 167.38 42.15 L 166.92 36.97 L 166.88 39.82 L 166.80 41.72 L 166.53 41.40 L 166.22 36.21 L 166.20 38.95 Z" fill="#d0d0d0" fill-opacity="0.5" stroke="none"/>
<path d="M 837.38 25.19 L 837.38 27.76 Z" fill="#d0d0d0" fill-opacity="0.5" stroke="none"/>
<path d="M 994.90 25.00 L 1014.87 25.00 L 1065.26 25.00 L 1094.29 25.00 L 1165.54 25.00 L 1170.00 25.00 L 1170.00 34.09 L 1165.54 34.74 L 1094.29 35.24 L 1065.26 35.98 L 1014.87 30.74 L 994.90 25.45 Z" fill="#d0d0d0" fill-opacity="0.5" stroke="none"/>
<polyline fill="none" stroke="#111" stroke-width="1.2" points="70.00,62.79 106.28,60.60 119.71,60.79 128.79,58.64 129.19,55.73 129.19,52.75 130.00,50.21 130.35,48.37 130.98,46.63 131.00,43.81 132.69,41.94 133.38,39.60 134.97,36.74 138.52,41.92 140.07,42.69 141.86,47.81 141.90,45.39 142.03,50.44 142.15,55.46 142.26,53.15 142.32,50.37 142.48,47.86 145.36,47.17 145.77,45.34 154.29,42.89 156.20,41.11 159.78,40.43 159.95,37.88 162.61,35.92 163.40,41.11 163.70,39.94 163.85,39.58 164.22,36.91 164.84,42.09 164.84,39.11 165.18,36.44 165.98,33.73 166.20,38.95 166.22,36.21 166.53,41.40 166.80,41.72 166.88,39.82 166.92,36.97 167.38,42.15 167.52,47.26 167.53,52.30 167.58,50.35 167.79,47.94 168.86,53.02 169.78,58.04 170.10,63.02 170.61,60.53 170.98,57.79 180.66,56.35 181.24,61.34 181.27,66.27 181.42,63.91 181.51,61.35 181.67,59.02 181.93,57.79 183.18,62.78 184.04,67.71 184.56,65.59 185.09,63.42 189.30,62.46 190.37,60.21 192.57,58.01 194.98,55.81 195.89,53.84 196.24,58.86 196.33,57.45 196.57,56.39 208.54,53.84 210.12,52.25 210.82,50.09 213.33,49.70 217.65,48.98 234.81,47.71 242.88,52.79 264.47,52.05 268.46,51.46 293.58,50.68 294.08,49.00 310.88,47.69 318.84,52.78 318.96,52.44 335.99,57.47 383.83,55.03 394.61,53.32 415.61,54.71 444.66,53.09 444.99,58.11 445.11,57.79 448.30,55.01 463.03,55.88 467.25,55.01 470.82,55.79 474.01,56.25 485.27,54.58 488.25,52.41 498.84,50.30 499.16,47.85 542.42,48.01 617.51,46.60 646.84,44.54 650.89,42.65 664.78,40.95 675.79,41.90 719.38,40.16 719.65,38.37 747.71,35.48 747.76,32.67 747.89,30.54 794.56,27.84 798.12,25.19 837.38,27.76 994.58,25.00 994.90,25.45 1014.87,30.74 1065.26,35.98 1094.29,35.24 1165.54,34.74 1170.00,34.09"/>
<text x="620.0" y="588" text-anchor="middle" font-family="sans-serif" font-size="12" fill="#333">UTC time</text>
<text x="15" y="287.5" transform="rotate(-90 15,287.5)" text-anchor="middle" font-family="sans-serif" font-size="12" fill="#333">Capital</text>
</svg>