<svg xmlns="http://www.w3.org/2000/svg" width="1200" height="600" viewBox="0 0 1200 600">
<desc>Equity curve with drawdown fill; x-axis is months only (no exact timestamps)</desc>
<text x="600.0" y="18.0" text-anchor="middle" font-family="sans-serif" font-size="14">Balance Curve 2018 (UTC)</text>
<rect x="70" y="25" width="1100" height="525" fill="white" stroke="#ccc" />
<line x1="70" y1="550.00" x2="1170" y2="550.00" stroke="#eee"/>
<text x="62" y="554.0" text-anchor="end" font-family="sans-serif" font-size="11" fill="#555">0.00</text>
<line x1="70" y1="445.00" x2="1170" y2="445.00" stroke="#eee"/>
<text x="62" y="449.0" text-anchor="end" font-family="sans-serif" font-size="11" fill="#555">66238</text>
<line x1="70" y1="340.00" x2="1170" y2="340.00" stroke="#eee"/>
<text x="62" y="344.0" text-anchor="end" font-family="sans-serif" font-size="11" fill="#555">132476</text>
<line x1="70" y1="235.00" x2="1170" y2="235.00" stroke="#eee"/>
<text x="62" y="239.0" text-anchor="end" font-family="sans-serif" font-size="11" fill="#555">198714</text>
<line x1="70" y1="130.00" x2="1170" y2="130.00" stroke="#eee"/>
<text x="62" y="134.0" text-anchor="end" font-family="sans-serif" font-size="11" fill="#555">264952</text>
<line x1="70" y1="25.00" x2="1170" y2="25.00" stroke="#eee"/>
<text x="62" y="29.0" text-anchor="end" font-family="sans-serif" font-size="11" fill="#555">331190</text>
<line x1="170.00" y1="25" x2="170.00" y2="550" stroke="#f2f2f2"/>
<line x1="270.00" y1="25" x2="270.00" y2="550" stroke="#f2f2f2"/>
<line x1="370.00" y1="25" x2="370.00" y2="550" stroke="#f2f2f2"/>
<line x1="470.00" y1="25" x2="470.00" y2="550" stroke="#f2f2f2"/>
<line x1="570.00" y1="25" x2="570.00" y2="550" stroke="#f2f2f2"/>
<line x1="670.00" y1="25" x2="670.00" y2="550" stroke="#f2f2f2"/>
<line x1="770.00" y1="25" x2="770.00" y2="550" stroke="#f2f2f2"/>
<line x1="870.00" y1="25" x2="870.00" y2="550" stroke="#f2f2f2"/>
<line x1="970.00" y1="25" x2="970.00" y2="550" stroke="#f2f2f2"/>
<line x1="1070.00" y1="25" x2="1070.00" y2="550" stroke="#f2f2f2"/>
<text x="120.00" y="566.00" text-anchor="middle" font-family="sans-serif" font-size="11" fill="#444">Jan</text>
<text x="220.00" y="566.00" text-anchor="middle" font-family="sans-serif" font-size="11" fill="#444">Feb</text>
<text x="320.00" y="566.00" text-anchor="middle" font-family="sans-serif" font-size="11" fill="#444">Mar</text>
<text x="420.00" y="566.00" text-anchor="middle" font-family="sans-serif" font-size="11" fill="#444">Apr</text>
<text x="520.00" y="566.00" text-anchor="middle" font-family="sans-serif" font-size="11" fill="#444">Jun</text>
<text x="620.00" y="566.00" text-anchor="middle" font-family="sans-serif" font-size="11" fill="#444">Jul</text>
<text x="720.00" y="566.00" text-anchor="middle" font-family="sans-serif" font-size="11" fill="#444">Aug</text>
<text x="820.00" y="566.00" text-anchor="middle" font-family="sans-serif" font-size="11" fill="#444">Sep</text>
<text x="920.00" y="566.00" text-anchor="middle" font-family="sans-serif" font-size="11" fill="#444">Oct</text>
<text x="1020.00" y="566.00" text-anchor="middle" font-family="sans-serif" font-size="11" fill="#444">Nov</text>
<text x="1120.00" y="566.00" text-anchor="middle" font-family="sans-serif" font-size="11" fill="#444">Dec</text>
<line x1="70" y1="550" x2="1170" y2="550" stroke="#888"/>
<line x1="70" y1="25" x2="70" y2="550" stroke="#888"/>
<line x1="80.00" y1="550.00" x2="80.00" y2="556.00" stroke="#888"/>
<line x1="1160.00"   y1="550.00" x2="1160.00"   y2="556.00" stroke="#888"/>
<text x="80.00" y="582.00" text-anchor="start" font-family="sans-serif" font-size="11" fill="#333">Initial Balance: 324140</text>
<text x="1160.00"   y="582.00" text-anchor="end"   font-family="sans-serif" font-size="11" fill="#333">Ending Balance: 331190</text>
<path d="M 100.00 36.18 L 120.00 36.18 L 140.00 36.18 L 160.00 36.18 L 160.00 38.72 L 140.00 38.69 L 120.00 39.87 L 100.00 41.31 Z" fill="#d0d0d0" fill-opacity="0.5" stroke="none"/>
<path d="M 191.43 35.74 L 205.71 35.74 L 220.00 35.74 L 234.29 35.74 L 248.57 35.74 L 262.86 35.74 L 295.00 35.74 L 345.00 35.74 L 395.00 35.74 L 445.00 35.74 L 486.67 35.74 L 520.00 35.74 L 553.33 35.74 L 595.00 35.74 L 645.00 35.74 L 695.00 35.74 L 745.00 35.74 L 778.33 35.74 L 795.00 35.74 L 811.67 35.74 L 828.33 35.74 L 845.00 35.74 L 861.67 35.74 L 882.50 35.74 L 907.50 35.74 L 907.50 37.25 L 882.50 40.22 L 861.67 39.26 L 845.00 37.13 L 828.33 39.65 L 811.67 42.60 L 795.00 43.06 L 778.33 45.99 L 745.00 48.89 L 695.00 51.52 L 645.00 51.52 L 595.00 52.86 L 553.33 55.71 L 520.00 57.99 L 486.67 58.94 L 445.00 60.89 L 395.00 58.44 L 345.00 53.48 L 295.00 53.07 L 262.86 54.85 L 248.57 53.68 L 234.29 48.67 L 220.00 51.01 L 205.71 45.97 L 191.43 40.88 Z" fill="#d0d0d0" fill-opacity="0.5" stroke="none"/>
<path d="M 974.55 32.54 L 983.64 32.54 L 992.73 32.54 L 1001.82 32.54 L 1010.91 32.54 L 1020.00 32.54 L 1029.09 32.54 L 1038.18 32.54 L 1038.18 33.32 L 1029.09 36.40 L 1020.00 39.37 L 1010.91 38.54 L 1001.82 33.37 L 992.73 36.36 L 983.64 36.72 L 974.55 37.71 Z" fill="#d0d0d0" fill-opacity="0.5" stroke="none"/>
<path d="M 1065.45 27.30 L 1080.00 27.30 L 1100.00 27.30 L 1120.00 27.30 L 1140.00 27.30 L 1140.00 27.50 L 1120.00 29.37 L 1100.00 32.11 L 1080.00 33.86 L 1065.45 32.52 Z" fill="#d0d0d0" fill-opacity="0.5" stroke="none"/>
<polyline fill="none" stroke="#111" stroke-width="1.2" points="80.00,36.18 100.00,41.31 120.00,39.87 140.00,38.69 160.00,38.72 177.14,35.74 191.43,40.88 205.71,45.97 220.00,51.01 234.29,48.67 248.57,53.68 262.86,54.85 295.00,53.07 345.00,53.48 395.00,58.44 445.00,60.89 486.67,58.94 520.00,57.99 553.33,55.71 595.00,52.86 645.00,51.52 695.00,51.52 745.00,48.89 778.33,45.99 795.00,43.06 811.67,42.60 828.33,39.65 845.00,37.13 861.67,39.26 882.50,40.22 907.50,37.25 932.50,34.99 957.50,32.54 974.55,37.71 983.64,36.72 992.73,36.36 1001.82,33.37 1010.91,38.54 1020.00,39.37 1029.09,36.40 1038.18,33.32 1047.27,30.32 1056.36,27.30 1065.45,32.52 1080.00,33.86 1100.00,32.11 1120.00,29.37 1140.00,27.50 1160.00,25.00"/>
<text x="15" y="287.5" transform="rotate(-90 15,287.5)" text-anchor="middle" font-family="sans-serif" font-size="12" fill="#333">USD</text>
</svg>