<svg xmlns="http://www.w3.org/2000/svg" width="1200" height="600" viewBox="0 0 1200 600">
<desc>Equity curve with drawdown fill; x-axis is months only (no exact timestamps)</desc>
<text x="600.0" y="18.0" text-anchor="middle" font-family="sans-serif" font-size="14">Balance Curve 2003 (UTC)</text>
<rect x="70" y="25" width="1100" height="525" fill="white" stroke="#ccc" />
<line x1="70" y1="550.00" x2="1170" y2="550.00" stroke="#eee"/>
<text x="62" y="554.0" text-anchor="end" font-family="sans-serif" font-size="11" fill="#555">0.00</text>
<line x1="70" y1="445.00" x2="1170" y2="445.00" stroke="#eee"/>
<text x="62" y="449.0" text-anchor="end" font-family="sans-serif" font-size="11" fill="#555">21652</text>
<line x1="70" y1="340.00" x2="1170" y2="340.00" stroke="#eee"/>
<text x="62" y="344.0" text-anchor="end" font-family="sans-serif" font-size="11" fill="#555">43305</text>
<line x1="70" y1="235.00" x2="1170" y2="235.00" stroke="#eee"/>
<text x="62" y="239.0" text-anchor="end" font-family="sans-serif" font-size="11" fill="#555">64957</text>
<line x1="70" y1="130.00" x2="1170" y2="130.00" stroke="#eee"/>
<text x="62" y="134.0" text-anchor="end" font-family="sans-serif" font-size="11" fill="#555">86609</text>
<line x1="70" y1="25.00" x2="1170" y2="25.00" stroke="#eee"/>
<text x="62" y="29.0" text-anchor="end" font-family="sans-serif" font-size="11" fill="#555">108261</text>
<line x1="161.67" y1="25" x2="161.67" y2="550" stroke="#f2f2f2"/>
<line x1="253.33" y1="25" x2="253.33" y2="550" stroke="#f2f2f2"/>
<line x1="345.00" y1="25" x2="345.00" y2="550" stroke="#f2f2f2"/>
<line x1="436.67" y1="25" x2="436.67" y2="550" stroke="#f2f2f2"/>
<line x1="528.33" y1="25" x2="528.33" y2="550" stroke="#f2f2f2"/>
<line x1="620.00" y1="25" x2="620.00" y2="550" stroke="#f2f2f2"/>
<line x1="711.67" y1="25" x2="711.67" y2="550" stroke="#f2f2f2"/>
<line x1="803.33" y1="25" x2="803.33" y2="550" stroke="#f2f2f2"/>
<line x1="895.00" y1="25" x2="895.00" y2="550" stroke="#f2f2f2"/>
<line x1="986.67" y1="25" x2="986.67" y2="550" stroke="#f2f2f2"/>
<line x1="1078.33" y1="25" x2="1078.33" y2="550" stroke="#f2f2f2"/>
<text x="115.83" y="566.00" text-anchor="middle" font-family="sans-serif" font-size="11" fill="#444">Jan</text>
<text x="207.50" y="566.00" text-anchor="middle" font-family="sans-serif" font-size="11" fill="#444">Feb</text>
<text x="299.17" y="566.00" text-anchor="middle" font-family="sans-serif" font-size="11" fill="#444">Mar</text>
<text x="390.83" y="566.00" text-anchor="middle" font-family="sans-serif" font-size="11" fill="#444">Apr</text>
<text x="482.50" y="566.00" text-anchor="middle" font-family="sans-serif" font-size="11" fill="#444">May</text>
<text x="574.17" y="566.00" text-anchor="middle" font-family="sans-serif" font-size="11" fill="#444">Jun</text>
<text x="665.83" y="566.00" text-anchor="middle" font-family="sans-serif" font-size="11" fill="#444">Jul</text>
<text x="757.50" y="566.00" text-anchor="middle" font-family="sans-serif" font-size="11" fill="#444">Aug</text>
<text x="849.17" y="566.00" text-anchor="middle" font-family="sans-serif" font-size="11" fill="#444">Sep</text>
<text x="940.83" y="566.00" text-anchor="middle" font-family="sans-serif" font-size="11" fill="#444">Oct</text>
<text x="1032.50" y="566.00" text-anchor="middle" font-family="sans-serif" font-size="11" fill="#444">Nov</text>
<text x="1124.17" y="566.00" text-anchor="middle" font-family="sans-serif" font-size="11" fill="#444">Dec</text>
<line x1="70" y1="550" x2="1170" y2="550" stroke="#888"/>
<line x1="70" y1="25" x2="70" y2="550" stroke="#888"/>
<line x1="76.55" y1="550.00" x2="76.55" y2="556.00" stroke="#888"/>
<line x1="1158.54"   y1="550.00" x2="1158.54"   y2="556.00" stroke="#888"/>
<text x="76.55" y="582.00" text-anchor="start" font-family="sans-serif" font-size="11" fill="#333">Initial Balance: 100000</text>
<text x="1158.54"   y="582.00" text-anchor="end"   font-family="sans-serif" font-size="11" fill="#333">Ending Balance: 107708</text>
<path d="M 89.64 65.06 L 102.74 65.06 L 115.83 65.06 L 128.93 65.06 L 142.02 65.06 L 155.12 65.06 L 169.31 65.06 L 184.58 65.06 L 199.86 65.06 L 215.14 65.06 L 230.42 65.06 L 245.69 65.06 L 256.03 65.06 L 261.42 65.06 L 266.81 65.06 L 266.81 67.47 L 261.42 69.56 L 256.03 71.31 L 245.69 69.92 L 230.42 71.65 L 215.14 73.66 L 199.86 74.38 L 184.58 74.24 L 169.31 69.37 L 155.12 70.61 L 142.02 72.32 L 128.93 73.17 L 115.83 72.44 L 102.74 74.91 L 89.64 70.04 Z" fill="#d0d0d0" fill-opacity="0.5" stroke="none"/>
<path d="M 277.60 64.77 L 282.99 64.77 L 288.38 64.77 L 293.77 64.77 L 299.17 64.77 L 304.56 64.77 L 309.95 64.77 L 315.34 64.77 L 320.74 64.77 L 326.13 64.77 L 331.52 64.77 L 336.91 64.77 L 342.30 64.77 L 350.09 64.77 L 360.28 64.77 L 370.46 64.77 L 380.65 64.77 L 380.65 66.46 L 370.46 68.43 L 360.28 69.44 L 350.09 71.69 L 342.30 71.07 L 336.91 71.85 L 331.52 72.56 L 326.13 74.17 L 320.74 76.62 L 315.34 77.82 L 309.95 79.98 L 304.56 75.10 L 299.17 77.02 L 293.77 72.12 L 288.38 72.84 L 282.99 67.89 L 277.60 69.69 Z" fill="#d0d0d0" fill-opacity="0.5" stroke="none"/>
<path d="M 441.76 60.36 L 451.94 60.36 L 462.13 60.36 L 462.13 62.07 L 451.94 63.39 L 441.76 65.38 Z" fill="#d0d0d0" fill-opacity="0.5" stroke="none"/>
<path d="M 482.50 59.73 L 482.50 60.65 Z" fill="#d0d0d0" fill-opacity="0.5" stroke="none"/>
<path d="M 513.06 57.34 L 513.06 58.06 Z" fill="#d0d0d0" fill-opacity="0.5" stroke="none"/>
<path d="M 557.50 51.96 L 565.83 51.96 L 574.17 51.96 L 582.50 51.96 L 582.50 53.44 L 574.17 55.45 L 565.83 55.33 L 557.50 57.01 Z" fill="#d0d0d0" fill-opacity="0.5" stroke="none"/>
<path d="M 665.83 39.85 L 676.02 39.85 L 686.20 39.85 L 696.39 39.85 L 706.57 39.85 L 717.40 39.85 L 728.85 39.85 L 740.31 39.85 L 751.77 39.85 L 763.23 39.85 L 763.23 41.39 L 751.77 43.78 L 740.31 46.37 L 728.85 41.16 L 717.40 43.14 L 706.57 45.28 L 696.39 47.46 L 686.20 46.44 L 676.02 47.52 L 665.83 42.32 Z" fill="#d0d0d0" fill-opacity="0.5" stroke="none"/>
<path d="M 809.88 34.84 L 822.98 34.84 L 836.07 34.84 L 849.17 34.84 L 862.26 34.84 L 875.36 34.84 L 888.45 34.84 L 898.82 34.84 L 906.46 34.84 L 906.46 35.51 L 898.82 38.22 L 888.45 40.43 L 875.36 41.72 L 862.26 40.12 L 849.17 42.77 L 836.07 42.90 L 822.98 45.30 L 809.88 40.13 Z" fill="#d0d0d0" fill-opacity="0.5" stroke="none"/>
<path d="M 929.38 34.21 L 937.01 34.21 L 944.65 34.21 L 952.29 34.21 L 959.93 34.21 L 967.57 34.21 L 975.21 34.21 L 982.85 34.21 L 982.85 34.77 L 975.21 37.48 L 967.57 39.57 L 959.93 34.30 L 952.29 36.65 L 944.65 39.07 L 937.01 40.43 L 929.38 35.17 Z" fill="#d0d0d0" fill-opacity="0.5" stroke="none"/>
<path d="M 1135.62 25.00 L 1158.54 25.00 L 1158.54 27.68 L 1135.62 30.36 Z" fill="#d0d0d0" fill-opacity="0.5" stroke="none"/>
<polyline fill="none" stroke="#111" stroke-width="1.2" points="76.55,65.06 89.64,70.04 102.74,74.91 115.83,72.44 128.93,73.17 142.02,72.32 155.12,70.61 169.31,69.37 184.58,74.24 199.86,74.38 215.14,73.66 230.42,71.65 245.69,69.92 256.03,71.31 261.42,69.56 266.81,67.47 272.21,64.77 277.60,69.69 282.99,67.89 288.38,72.84 293.77,72.12 299.17,77.02 304.56,75.10 309.95,79.98 315.34,77.82 320.74,76.62 326.13,74.17 331.52,72.56 336.91,71.85 342.30,71.07 350.09,71.69 360.28,69.44 370.46,68.43 380.65,66.46 390.83,64.22 401.02,62.81 411.20,60.79 421.39,60.59 431.57,60.36 441.76,65.38 451.94,63.39 462.13,62.07 472.31,59.73 482.50,60.65 492.69,59.04 502.87,57.34 513.06,58.06 523.24,55.94 532.50,55.30 540.83,54.57 549.17,51.96 557.50,57.01 565.83,55.33 574.17,55.45 582.50,53.44 590.83,51.36 599.17,49.90 607.50,48.73 615.83,46.95 625.09,45.64 635.28,44.13 645.46,41.98 655.65,39.85 665.83,42.32 676.02,47.52 686.20,46.44 696.39,47.46 706.57,45.28 717.40,43.14 728.85,41.16 740.31,46.37 751.77,43.78 763.23,41.39 774.69,38.99 786.15,36.94 797.60,34.84 809.88,40.13 822.98,45.30 836.07,42.90 849.17,42.77 862.26,40.12 875.36,41.72 888.45,40.43 898.82,38.22 906.46,35.51 914.10,34.26 921.74,34.21 929.38,35.17 937.01,40.43 944.65,39.07 952.29,36.65 959.93,34.30 967.57,39.57 975.21,37.48 982.85,34.77 1009.58,32.05 1055.42,30.23 1089.79,27.48 1112.71,25.00 1135.62,30.36 1158.54,27.68"/>
<text x="15" y="287.5" transform="rotate(-90 15,287.5)" text-anchor="middle" font-family="sans-serif" font-size="12" fill="#333">USD</text>
</svg>