<svg xmlns="http://www.w3.org/2000/svg" width="1200" height="600" viewBox="0 0 1200 600">
<desc>Equity curve with drawdown fill</desc>
<text x="600.0" y="18.0" text-anchor="middle" font-family="sans-serif" font-size="14">Portfolio 2022</text>
<rect x="70" y="25" width="1100" height="525" fill="white" stroke="#ccc" />
<line x1="70" y1="550.00" x2="1170" y2="550.00" stroke="#eee"/>
<text x="62" y="554.0" text-anchor="end" font-family="sans-serif" font-size="11" fill="#555">0.00</text>
<line x1="70" y1="445.00" x2="1170" y2="445.00" stroke="#eee"/>
<text x="62" y="449.0" text-anchor="end" font-family="sans-serif" font-size="11" fill="#555">21814</text>
<line x1="70" y1="340.00" x2="1170" y2="340.00" stroke="#eee"/>
<text x="62" y="344.0" text-anchor="end" font-family="sans-serif" font-size="11" fill="#555">43628</text>
<line x1="70" y1="235.00" x2="1170" y2="235.00" stroke="#eee"/>
<text x="62" y="239.0" text-anchor="end" font-family="sans-serif" font-size="11" fill="#555">65442</text>
<line x1="70" y1="130.00" x2="1170" y2="130.00" stroke="#eee"/>
<text x="62" y="134.0" text-anchor="end" font-family="sans-serif" font-size="11" fill="#555">87256</text>
<line x1="70" y1="25.00" x2="1170" y2="25.00" stroke="#eee"/>
<text x="62" y="29.0" text-anchor="end" font-family="sans-serif" font-size="11" fill="#555">109070</text>
<line x1="157.17" y1="25" x2="157.17" y2="550" stroke="#f2f2f2"/>
<text x="157.17" y="566" text-anchor="middle" font-family="sans-serif" font-size="11" fill="#555">Mar</text>
<line x1="263.92" y1="25" x2="263.92" y2="550" stroke="#f2f2f2"/>
<text x="263.92" y="566" text-anchor="middle" font-family="sans-serif" font-size="11" fill="#555">Apr</text>
<line x1="367.22" y1="25" x2="367.22" y2="550" stroke="#f2f2f2"/>
<text x="367.22" y="566" text-anchor="middle" font-family="sans-serif" font-size="11" fill="#555">May</text>
<line x1="473.97" y1="25" x2="473.97" y2="550" stroke="#f2f2f2"/>
<text x="473.97" y="566" text-anchor="middle" font-family="sans-serif" font-size="11" fill="#555">Jun</text>
<line x1="577.28" y1="25" x2="577.28" y2="550" stroke="#f2f2f2"/>
<text x="577.28" y="566" text-anchor="middle" font-family="sans-serif" font-size="11" fill="#555">Jul</text>
<line x1="684.02" y1="25" x2="684.02" y2="550" stroke="#f2f2f2"/>
<text x="684.02" y="566" text-anchor="middle" font-family="sans-serif" font-size="11" fill="#555">Aug</text>
<line x1="790.77" y1="25" x2="790.77" y2="550" stroke="#f2f2f2"/>
<text x="790.77" y="566" text-anchor="middle" font-family="sans-serif" font-size="11" fill="#555">Sep</text>
<line x1="894.08" y1="25" x2="894.08" y2="550" stroke="#f2f2f2"/>
<text x="894.08" y="566" text-anchor="middle" font-family="sans-serif" font-size="11" fill="#555">Oct</text>
<line x1="1000.83" y1="25" x2="1000.83" y2="550" stroke="#f2f2f2"/>
<text x="1000.83" y="566" text-anchor="middle" font-family="sans-serif" font-size="11" fill="#555">Nov</text>
<line x1="1104.13" y1="25" x2="1104.13" y2="550" stroke="#f2f2f2"/>
<text x="1104.13" y="566" text-anchor="middle" font-family="sans-serif" font-size="11" fill="#555">Dec</text>
<line x1="70" y1="550" x2="1170" y2="550" stroke="#888"/>
<line x1="70" y1="25" x2="70" y2="550" stroke="#888"/>
<path d="M 70.00 68.66 L 93.83 68.66 L 94.07 68.66 L 97.90 68.66 L 116.45 68.66 L 140.63 68.66 L 141.40 68.66 L 141.40 69.58 L 140.63 72.01 L 116.45 72.57 L 97.90 74.46 L 94.07 76.28 L 93.83 71.43 L 70.00 73.54 Z" fill="#d0d0d0" fill-opacity="0.5" stroke="none"/>
<path d="M 177.84 54.17 L 177.84 54.88 Z" fill="#d0d0d0" fill-opacity="0.5" stroke="none"/>
<path d="M 179.64 53.76 L 179.66 53.76 L 179.66 56.10 L 179.64 58.80 Z" fill="#d0d0d0" fill-opacity="0.5" stroke="none"/>
<path d="M 183.91 53.25 L 183.91 53.86 Z" fill="#d0d0d0" fill-opacity="0.5" stroke="none"/>
<path d="M 187.10 49.33 L 190.32 49.33 L 193.26 49.33 L 193.26 50.84 L 190.32 53.39 L 187.10 54.41 Z" fill="#d0d0d0" fill-opacity="0.5" stroke="none"/>
<path d="M 255.51 45.58 L 307.79 45.58 L 310.73 45.58 L 310.82 45.58 L 311.00 45.58 L 330.91 45.58 L 333.99 45.58 L 347.60 45.58 L 354.68 45.58 L 355.54 45.58 L 358.19 45.58 L 362.31 45.58 L 371.84 45.58 L 376.16 45.58 L 382.87 45.58 L 385.60 45.58 L 397.33 45.58 L 397.33 47.44 L 385.60 48.30 L 382.87 50.55 L 376.16 52.74 L 371.84 51.09 L 362.31 53.37 L 358.19 55.22 L 355.54 57.71 L 354.68 57.52 L 347.60 59.72 L 333.99 62.43 L 330.91 57.43 L 311.00 59.10 L 310.82 59.91 L 310.73 54.92 L 307.79 49.84 L 255.51 50.71 Z" fill="#d0d0d0" fill-opacity="0.5" stroke="none"/>
<path d="M 406.28 44.65 L 407.56 44.65 L 431.51 44.65 L 444.45 44.65 L 447.57 44.65 L 472.27 44.65 L 476.23 44.65 L 476.23 45.17 L 472.27 45.22 L 447.57 47.49 L 444.45 50.26 L 431.51 45.14 L 407.56 47.28 L 406.28 49.80 Z" fill="#d0d0d0" fill-opacity="0.5" stroke="none"/>
<path d="M 524.18 37.30 L 527.71 37.30 L 528.23 37.30 L 528.31 37.30 L 531.31 37.30 L 548.43 37.30 L 551.09 37.30 L 551.89 37.30 L 569.01 37.30 L 576.24 37.30 L 579.54 37.30 L 592.32 37.30 L 592.49 37.30 L 592.57 37.30 L 592.66 37.30 L 602.59 37.30 L 602.66 37.30 L 616.97 37.30 L 620.53 37.30 L 620.53 37.30 L 620.86 37.30 L 620.95 37.30 L 624.11 37.30 L 624.34 37.30 L 638.13 37.30 L 640.48 37.30 L 640.64 37.30 L 640.71 37.30 L 644.39 37.30 L 648.05 37.30 L 648.17 37.30 L 648.25 37.30 L 650.93 37.30 L 651.73 37.30 L 661.47 37.30 L 664.95 37.30 L 675.84 37.30 L 688.72 37.30 L 693.24 37.30 L 696.73 37.30 L 699.73 37.30 L 699.89 37.30 L 716.95 37.30 L 717.23 37.30 L 744.79 37.30 L 758.81 37.30 L 761.90 37.30 L 761.99 37.30 L 762.15 37.30 L 765.52 37.30 L 765.54 37.30 L 772.18 37.30 L 772.48 37.30 L 782.16 37.30 L 789.66 37.30 L 792.96 37.30 L 793.05 37.30 L 796.86 37.30 L 805.77 37.30 L 810.18 37.30 L 813.75 37.30 L 816.91 37.30 L 816.95 37.30 L 817.08 37.30 L 818.68 37.30 L 820.15 37.30 L 829.80 37.30 L 829.87 37.30 L 830.05 37.30 L 834.03 37.30 L 834.22 37.30 L 834.32 37.30 L 834.50 37.30 L 844.81 37.30 L 858.19 37.30 L 860.66 37.30 L 860.76 37.30 L 862.37 37.30 L 864.39 37.30 L 864.49 37.30 L 865.44 37.30 L 867.71 37.30 L 868.84 37.30 L 877.14 37.30 L 877.16 37.30 L 878.07 37.30 L 878.48 37.30 L 878.86 37.30 L 879.25 37.30 L 882.90 37.30 L 885.33 37.30 L 885.86 37.30 L 885.89 37.30 L 886.02 37.30 L 886.34 37.30 L 886.34 37.30 L 886.46 37.30 L 889.36 37.30 L 889.63 37.30 L 892.57 37.30 L 892.93 37.30 L 902.59 37.30 L 903.15 37.30 L 905.63 37.30 L 906.42 37.30 L 910.00 37.30 L 913.38 37.30 L 916.68 37.30 L 916.74 37.30 L 927.29 37.30 L 927.29 37.41 L 916.74 40.21 L 916.68 42.89 L 913.38 45.66 L 910.00 48.11 L 906.42 50.86 L 905.63 52.68 L 903.15 53.77 L 902.59 56.25 L 892.93 56.52 L 892.57 58.93 L 889.63 61.62 L 889.36 60.76 L 886.46 63.44 L 886.34 62.60 L 886.34 57.62 L 886.02 52.59 L 885.89 55.30 L 885.86 57.72 L 885.33 60.42 L 882.90 63.09 L 879.25 64.89 L 878.86 67.07 L 878.48 69.59 L 878.07 72.03 L 877.16 67.11 L 877.14 69.81 L 868.84 64.86 L 867.71 66.00 L 865.44 67.89 L 864.49 68.03 L 864.39 70.58 L 862.37 73.20 L 860.76 75.81 L 860.66 78.33 L 858.19 80.90 L 844.81 83.22 L 834.50 82.38 L 834.32 77.56 L 834.22 77.54 L 834.03 75.69 L 830.05 78.45 L 829.87 73.59 L 829.80 68.73 L 820.15 63.78 L 818.68 65.66 L 817.08 65.41 L 816.95 67.76 L 816.91 70.10 L 813.75 65.15 L 810.18 64.92 L 805.77 66.67 L 796.86 69.32 L 793.05 64.37 L 792.96 66.88 L 789.66 61.91 L 782.16 62.45 L 772.48 64.22 L 772.18 66.03 L 765.54 68.69 L 765.52 71.02 L 762.15 66.09 L 761.99 67.69 L 761.90 68.66 L 758.81 63.70 L 744.79 62.96 L 717.23 62.92 L 716.95 57.90 L 699.89 60.76 L 699.73 60.78 L 696.73 63.47 L 693.24 65.61 L 688.72 63.79 L 675.84 66.18 L 664.95 65.09 L 661.47 65.53 L 651.73 66.00 L 650.93 61.02 L 648.25 60.53 L 648.17 62.66 L 648.05 62.79 L 644.39 65.47 L 640.71 60.48 L 640.64 61.11 L 640.48 59.76 L 638.13 54.72 L 624.34 55.92 L 624.11 58.63 L 620.95 61.32 L 620.86 62.66 L 620.53 57.64 L 620.53 60.34 L 616.97 63.03 L 602.66 64.25 L 602.59 66.05 L 592.66 68.71 L 592.57 69.72 L 592.49 64.78 L 592.32 59.82 L 579.54 54.78 L 576.24 54.50 L 569.01 49.40 L 551.89 51.23 L 551.09 53.78 L 548.43 48.69 L 531.31 50.60 L 528.31 53.06 L 528.23 47.96 L 527.71 47.67 L 524.18 42.52 Z" fill="#d0d0d0" fill-opacity="0.5" stroke="none"/>
<path d="M 937.74 27.69 L 937.79 27.69 L 937.97 27.69 L 940.87 27.69 L 940.90 27.69 L 951.51 27.69 L 957.89 27.69 L 961.28 27.69 L 964.90 27.69 L 964.95 27.69 L 965.14 27.69 L 965.14 30.14 L 964.95 32.61 L 964.90 35.44 L 961.28 37.33 L 957.89 39.56 L 951.51 40.05 L 940.90 41.47 L 940.87 44.00 L 937.97 38.79 L 937.79 38.21 L 937.74 33.00 Z" fill="#d0d0d0" fill-opacity="0.5" stroke="none"/>
<path d="M 978.80 25.00 L 978.88 25.00 L 979.05 25.00 L 981.48 25.00 L 982.59 25.00 L 985.55 25.00 L 988.37 25.00 L 1003.05 25.00 L 1007.06 25.00 L 1013.03 25.00 L 1013.12 25.00 L 1013.18 25.00 L 1013.23 25.00 L 1013.38 25.00 L 1022.86 25.00 L 1027.13 25.00 L 1030.55 25.00 L 1033.29 25.00 L 1033.75 25.00 L 1033.92 25.00 L 1034.11 25.00 L 1034.15 25.00 L 1036.56 25.00 L 1047.46 25.00 L 1051.35 25.00 L 1051.69 25.00 L 1051.72 25.00 L 1078.75 25.00 L 1095.09 25.00 L 1096.15 25.00 L 1099.26 25.00 L 1102.96 25.00 L 1103.02 25.00 L 1103.38 25.00 L 1103.66 25.00 L 1109.60 25.00 L 1110.15 25.00 L 1120.38 25.00 L 1126.67 25.00 L 1147.54 25.00 L 1147.65 25.00 L 1154.37 25.00 L 1154.44 25.00 L 1154.96 25.00 L 1170.00 25.00 L 1170.00 69.37 L 1154.96 72.03 L 1154.44 69.98 L 1154.37 71.09 L 1147.65 66.16 L 1147.54 66.61 L 1126.67 67.10 L 1120.38 69.15 L 1110.15 70.44 L 1109.60 69.55 L 1103.66 64.61 L 1103.38 62.20 L 1103.02 64.50 L 1102.96 66.31 L 1099.26 61.32 L 1096.15 63.24 L 1095.09 58.22 L 1078.75 53.16 L 1051.72 55.01 L 1051.69 57.24 L 1051.35 52.16 L 1047.46 53.78 L 1036.56 56.36 L 1034.15 58.46 L 1034.11 59.79 L 1033.92 57.19 L 1033.75 57.09 L 1033.29 60.01 L 1030.55 61.42 L 1027.13 64.11 L 1022.86 59.09 L 1013.38 59.02 L 1013.23 60.76 L 1013.18 55.75 L 1013.12 50.65 L 1013.03 51.20 L 1007.06 46.06 L 1003.05 40.87 L 988.37 41.30 L 985.55 43.51 L 982.59 45.59 L 981.48 46.02 L 979.05 40.83 L 978.88 35.59 L 978.80 30.34 Z" fill="#d0d0d0" fill-opacity="0.5" stroke="none"/>
<polyline fill="none" stroke="#111" stroke-width="1.2" points="70.00,73.54 93.83,71.43 94.07,76.28 97.90,74.46 116.45,72.57 140.63,72.01 141.40,69.58 142.26,67.13 142.68,65.01 153.66,64.95 155.31,62.26 159.64,60.10 162.98,57.37 167.65,56.10 169.54,54.17 177.84,54.88 179.38,53.76 179.64,58.80 179.66,56.10 179.80,53.64 182.54,53.25 183.91,53.86 186.24,52.10 186.74,49.33 187.10,54.41 190.32,53.39 193.26,50.84 203.37,48.37 251.55,45.58 255.51,50.71 307.79,49.84 310.73,54.92 310.82,59.91 311.00,59.10 330.91,57.43 333.99,62.43 347.60,59.72 354.68,57.52 355.54,57.71 358.19,55.22 362.31,53.37 371.84,51.09 376.16,52.74 382.87,50.55 385.60,48.30 397.33,47.44 403.59,44.65 406.28,49.80 407.56,47.28 431.51,45.14 444.45,50.26 447.57,47.49 472.27,45.22 476.23,45.17 503.49,43.58 503.62,41.40 503.74,39.81 506.92,37.30 524.18,42.52 527.71,47.67 528.23,47.96 528.31,53.06 531.31,50.60 548.43,48.69 551.09,53.78 551.89,51.23 569.01,49.40 576.24,54.50 579.54,54.78 592.32,59.82 592.49,64.78 592.57,69.72 592.66,68.71 602.59,66.05 602.66,64.25 616.97,63.03 620.53,60.34 620.53,57.64 620.86,62.66 620.95,61.32 624.11,58.63 624.34,55.92 638.13,54.72 640.48,59.76 640.64,61.11 640.71,60.48 644.39,65.47 648.05,62.79 648.17,62.66 648.25,60.53 650.93,61.02 651.73,66.00 661.47,65.53 664.95,65.09 675.84,66.18 688.72,63.79 693.24,65.61 696.73,63.47 699.73,60.78 699.89,60.76 716.95,57.90 717.23,62.92 744.79,62.96 758.81,63.70 761.90,68.66 761.99,67.69 762.15,66.09 765.52,71.02 765.54,68.69 772.18,66.03 772.48,64.22 782.16,62.45 789.66,61.91 792.96,66.88 793.05,64.37 796.86,69.32 805.77,66.67 810.18,64.92 813.75,65.15 816.91,70.10 816.95,67.76 817.08,65.41 818.68,65.66 820.15,63.78 829.80,68.73 829.87,73.59 830.05,78.45 834.03,75.69 834.22,77.54 834.32,77.56 834.50,82.38 844.81,83.22 858.19,80.90 860.66,78.33 860.76,75.81 862.37,73.20 864.39,70.58 864.49,68.03 865.44,67.89 867.71,66.00 868.84,64.86 877.14,69.81 877.16,67.11 878.07,72.03 878.48,69.59 878.86,67.07 879.25,64.89 882.90,63.09 885.33,60.42 885.86,57.72 885.89,55.30 886.02,52.59 886.34,57.62 886.34,62.60 886.46,63.44 889.36,60.76 889.63,61.62 892.57,58.93 892.93,56.52 902.59,56.25 903.15,53.77 905.63,52.68 906.42,50.86 910.00,48.11 913.38,45.66 916.68,42.89 916.74,40.21 927.29,37.41 930.98,35.32 932.68,32.50 937.34,29.49 937.52,27.69 937.74,33.00 937.79,38.21 937.97,38.79 940.87,44.00 940.90,41.47 951.51,40.05 957.89,39.56 961.28,37.33 964.90,35.44 964.95,32.61 965.14,30.14 965.31,27.65 965.43,26.54 975.44,25.00 978.80,30.34 978.88,35.59 979.05,40.83 981.48,46.02 982.59,45.59 985.55,43.51 988.37,41.30 1003.05,40.87 1007.06,46.06 1013.03,51.20 1013.12,50.65 1013.18,55.75 1013.23,60.76 1013.38,59.02 1022.86,59.09 1027.13,64.11 1030.55,61.42 1033.29,60.01 1033.75,57.09 1033.92,57.19 1034.11,59.79 1034.15,58.46 1036.56,56.36 1047.46,53.78 1051.35,52.16 1051.69,57.24 1051.72,55.01 1078.75,53.16 1095.09,58.22 1096.15,63.24 1099.26,61.32 1102.96,66.31 1103.02,64.50 1103.38,62.20 1103.66,64.61 1109.60,69.55 1110.15,70.44 1120.38,69.15 1126.67,67.10 1147.54,66.61 1147.65,66.16 1154.37,71.09 1154.44,69.98 1154.96,72.03 1170.00,69.37"/>
<text x="620.0" y="588" text-anchor="middle" font-family="sans-serif" font-size="12" fill="#333">UTC time</text>
<text x="15" y="287.5" transform="rotate(-90 15,287.5)" text-anchor="middle" font-family="sans-serif" font-size="12" fill="#333">Capital</text>
</svg>