<svg xmlns="http://www.w3.org/2000/svg" width="1200" height="600" viewBox="0 0 1200 600">
<desc>Equity curve with drawdown fill</desc>
<text x="600.0" y="18.0" text-anchor="middle" font-family="sans-serif" font-size="14">Portfolio 2023</text>
<rect x="70" y="25" width="1100" height="525" fill="white" stroke="#ccc" />
<line x1="70" y1="550.00" x2="1170" y2="550.00" stroke="#eee"/>
<text x="62" y="554.0" text-anchor="end" font-family="sans-serif" font-size="11" fill="#555">0.00</text>
<line x1="70" y1="445.00" x2="1170" y2="445.00" stroke="#eee"/>
<text x="62" y="449.0" text-anchor="end" font-family="sans-serif" font-size="11" fill="#555">86241</text>
<line x1="70" y1="340.00" x2="1170" y2="340.00" stroke="#eee"/>
<text x="62" y="344.0" text-anchor="end" font-family="sans-serif" font-size="11" fill="#555">172481</text>
<line x1="70" y1="235.00" x2="1170" y2="235.00" stroke="#eee"/>
<text x="62" y="239.0" text-anchor="end" font-family="sans-serif" font-size="11" fill="#555">258722</text>
<line x1="70" y1="130.00" x2="1170" y2="130.00" stroke="#eee"/>
<text x="62" y="134.0" text-anchor="end" font-family="sans-serif" font-size="11" fill="#555">344963</text>
<line x1="70" y1="25.00" x2="1170" y2="25.00" stroke="#eee"/>
<text x="62" y="29.0" text-anchor="end" font-family="sans-serif" font-size="11" fill="#555">431203</text>
<line x1="157.75" y1="25" x2="157.75" y2="550" stroke="#f2f2f2"/>
<text x="157.75" y="566" text-anchor="middle" font-family="sans-serif" font-size="11" fill="#555">Feb</text>
<line x1="243.48" y1="25" x2="243.48" y2="550" stroke="#f2f2f2"/>
<text x="243.48" y="566" text-anchor="middle" font-family="sans-serif" font-size="11" fill="#555">Mar</text>
<line x1="338.40" y1="25" x2="338.40" y2="550" stroke="#f2f2f2"/>
<text x="338.40" y="566" text-anchor="middle" font-family="sans-serif" font-size="11" fill="#555">Apr</text>
<line x1="430.26" y1="25" x2="430.26" y2="550" stroke="#f2f2f2"/>
<text x="430.26" y="566" text-anchor="middle" font-family="sans-serif" font-size="11" fill="#555">May</text>
<line x1="525.18" y1="25" x2="525.18" y2="550" stroke="#f2f2f2"/>
<text x="525.18" y="566" text-anchor="middle" font-family="sans-serif" font-size="11" fill="#555">Jun</text>
<line x1="617.04" y1="25" x2="617.04" y2="550" stroke="#f2f2f2"/>
<text x="617.04" y="566" text-anchor="middle" font-family="sans-serif" font-size="11" fill="#555">Jul</text>
<line x1="711.96" y1="25" x2="711.96" y2="550" stroke="#f2f2f2"/>
<text x="711.96" y="566" text-anchor="middle" font-family="sans-serif" font-size="11" fill="#555">Aug</text>
<line x1="806.88" y1="25" x2="806.88" y2="550" stroke="#f2f2f2"/>
<text x="806.88" y="566" text-anchor="middle" font-family="sans-serif" font-size="11" fill="#555">Sep</text>
<line x1="898.74" y1="25" x2="898.74" y2="550" stroke="#f2f2f2"/>
<text x="898.74" y="566" text-anchor="middle" font-family="sans-serif" font-size="11" fill="#555">Oct</text>
<line x1="993.66" y1="25" x2="993.66" y2="550" stroke="#f2f2f2"/>
<text x="993.66" y="566" text-anchor="middle" font-family="sans-serif" font-size="11" fill="#555">Nov</text>
<line x1="1085.52" y1="25" x2="1085.52" y2="550" stroke="#f2f2f2"/>
<text x="1085.52" y="566" text-anchor="middle" font-family="sans-serif" font-size="11" fill="#555">Dec</text>
<line x1="70" y1="550" x2="1170" y2="550" stroke="#888"/>
<line x1="70" y1="25" x2="70" y2="550" stroke="#888"/>
<path d="M 70.00 53.78 L 70.11 53.78 L 70.14 53.78 L 70.85 53.78 L 73.12 53.78 L 76.98 53.78 L 79.94 53.78 L 80.08 53.78 L 80.32 53.78 L 80.46 53.78 L 89.09 53.78 L 98.23 53.78 L 98.31 53.78 L 98.86 53.78 L 113.91 53.78 L 116.01 53.78 L 116.74 53.78 L 117.17 53.78 L 138.27 53.78 L 160.73 53.78 L 162.61 53.78 L 162.76 53.78 L 165.59 53.78 L 165.76 53.78 L 165.82 53.78 L 178.41 53.78 L 199.28 53.78 L 199.42 53.78 L 199.42 55.80 L 199.28 59.59 L 178.41 63.67 L 165.82 56.17 L 165.76 59.67 L 165.59 62.26 L 162.76 66.55 L 162.61 69.87 L 160.73 72.98 L 138.27 75.97 L 117.17 78.80 L 116.74 78.60 L 116.01 82.20 L 113.91 80.27 L 98.86 81.07 L 98.31 82.72 L 98.23 86.15 L 89.09 90.04 L 80.46 92.32 L 80.32 89.02 L 80.08 82.89 L 79.94 75.69 L 76.98 78.61 L 73.12 71.35 L 70.85 72.70 L 70.14 75.88 L 70.11 68.69 L 70.00 61.31 Z" fill="#d0d0d0" fill-opacity="0.5" stroke="none"/>
<path d="M 264.22 46.55 L 273.13 46.55 L 280.66 46.55 L 281.47 46.55 L 281.47 48.59 L 280.66 50.11 L 273.13 51.53 L 264.22 54.20 Z" fill="#d0d0d0" fill-opacity="0.5" stroke="none"/>
<path d="M 287.69 44.79 L 288.01 44.79 L 288.30 44.79 L 288.52 44.79 L 303.46 44.79 L 313.27 44.79 L 314.96 44.79 L 315.35 44.79 L 315.44 44.79 L 367.70 44.79 L 373.87 44.79 L 380.15 44.79 L 389.70 44.79 L 389.70 46.96 L 380.15 45.01 L 373.87 48.40 L 367.70 50.23 L 315.44 52.73 L 315.35 52.45 L 314.96 53.81 L 313.27 57.08 L 303.46 60.86 L 288.52 64.48 L 288.30 63.18 L 288.01 59.98 L 287.69 52.46 Z" fill="#d0d0d0" fill-opacity="0.5" stroke="none"/>
<path d="M 570.26 25.00 L 593.63 25.00 L 612.86 25.00 L 616.10 25.00 L 637.15 25.00 L 652.46 25.00 L 677.47 25.00 L 688.67 25.00 L 698.83 25.00 L 698.92 25.00 L 701.46 25.00 L 717.02 25.00 L 722.96 25.00 L 753.69 25.00 L 780.45 25.00 L 799.68 25.00 L 809.11 25.00 L 848.41 25.00 L 867.50 25.00 L 915.81 25.00 L 915.85 25.00 L 916.18 25.00 L 934.18 25.00 L 956.04 25.00 L 991.88 25.00 L 1001.38 25.00 L 1001.46 25.00 L 1001.57 25.00 L 1035.19 25.00 L 1035.37 25.00 L 1035.44 25.00 L 1096.57 25.00 L 1108.68 25.00 L 1124.72 25.00 L 1124.87 25.00 L 1127.16 25.00 L 1130.16 25.00 L 1170.00 25.00 L 1170.00 40.62 L 1130.16 43.78 L 1127.16 46.29 L 1124.87 49.25 L 1124.72 47.18 L 1108.68 39.41 L 1096.57 43.70 L 1035.44 46.75 L 1035.37 38.98 L 1035.19 31.13 L 1001.57 35.49 L 1001.46 38.63 L 1001.38 41.48 L 991.88 45.75 L 956.04 49.52 L 934.18 53.40 L 916.18 57.22 L 915.85 49.60 L 915.81 52.96 L 867.50 45.28 L 848.41 49.10 L 809.11 41.37 L 799.68 37.47 L 780.45 39.12 L 753.69 42.22 L 722.96 44.57 L 717.02 36.77 L 701.46 40.21 L 698.92 41.44 L 698.83 40.61 L 688.67 37.06 L 677.47 36.63 L 652.46 28.72 L 637.15 32.66 L 616.10 36.97 L 612.86 38.15 L 593.63 40.81 L 570.26 32.96 Z" fill="#d0d0d0" fill-opacity="0.5" stroke="none"/>
<polyline fill="none" stroke="#111" stroke-width="1.2" points="70.00,61.31 70.11,68.69 70.14,75.88 70.85,72.70 73.12,71.35 76.98,78.61 79.94,75.69 80.08,82.89 80.32,89.02 80.46,92.32 89.09,90.04 98.23,86.15 98.31,82.72 98.86,81.07 113.91,80.27 116.01,82.20 116.74,78.60 117.17,78.80 138.27,75.97 160.73,72.98 162.61,69.87 162.76,66.55 165.59,62.26 165.76,59.67 165.82,56.17 178.41,63.67 199.28,59.59 199.42,55.80 199.60,52.36 208.71,48.91 245.19,46.55 264.22,54.20 273.13,51.53 280.66,50.11 281.47,48.59 282.29,44.79 287.69,52.46 288.01,59.98 288.30,63.18 288.52,64.48 303.46,60.86 313.27,57.08 314.96,53.81 315.35,52.45 315.44,52.73 367.70,50.23 373.87,48.40 380.15,45.01 389.70,46.96 413.96,43.94 438.82,39.68 441.57,39.08 444.23,34.75 459.73,30.69 461.97,28.98 527.11,25.00 570.26,32.96 593.63,40.81 612.86,38.15 616.10,36.97 637.15,32.66 652.46,28.72 677.47,36.63 688.67,37.06 698.83,40.61 698.92,41.44 701.46,40.21 717.02,36.77 722.96,44.57 753.69,42.22 780.45,39.12 799.68,37.47 809.11,41.37 848.41,49.10 867.50,45.28 915.81,52.96 915.85,49.60 916.18,57.22 934.18,53.40 956.04,49.52 991.88,45.75 1001.38,41.48 1001.46,38.63 1001.57,35.49 1035.19,31.13 1035.37,38.98 1035.44,46.75 1096.57,43.70 1108.68,39.41 1124.72,47.18 1124.87,49.25 1127.16,46.29 1130.16,43.78 1170.00,40.62"/>
<text x="620.0" y="588" text-anchor="middle" font-family="sans-serif" font-size="12" fill="#333">UTC time</text>
<text x="15" y="287.5" transform="rotate(-90 15,287.5)" text-anchor="middle" font-family="sans-serif" font-size="12" fill="#333">Capital</text>
</svg>