<svg xmlns="http://www.w3.org/2000/svg" width="1200" height="600" viewBox="0 0 1200 600">
<desc>Equity curve with drawdown fill</desc>
<text x="600.0" y="18.0" text-anchor="middle" font-family="sans-serif" font-size="14">Portfolio 2015</text>
<rect x="70" y="25" width="1100" height="525" fill="white" stroke="#ccc" />
<line x1="70" y1="550.00" x2="1170" y2="550.00" stroke="#eee"/>
<text x="62" y="554.0" text-anchor="end" font-family="sans-serif" font-size="11" fill="#555">0.00</text>
<line x1="70" y1="445.00" x2="1170" y2="445.00" stroke="#eee"/>
<text x="62" y="449.0" text-anchor="end" font-family="sans-serif" font-size="11" fill="#555">38557</text>
<line x1="70" y1="340.00" x2="1170" y2="340.00" stroke="#eee"/>
<text x="62" y="344.0" text-anchor="end" font-family="sans-serif" font-size="11" fill="#555">77115</text>
<line x1="70" y1="235.00" x2="1170" y2="235.00" stroke="#eee"/>
<text x="62" y="239.0" text-anchor="end" font-family="sans-serif" font-size="11" fill="#555">115672</text>
<line x1="70" y1="130.00" x2="1170" y2="130.00" stroke="#eee"/>
<text x="62" y="134.0" text-anchor="end" font-family="sans-serif" font-size="11" fill="#555">154229</text>
<line x1="70" y1="25.00" x2="1170" y2="25.00" stroke="#eee"/>
<text x="62" y="29.0" text-anchor="end" font-family="sans-serif" font-size="11" fill="#555">192787</text>
<line x1="125.38" y1="25" x2="125.38" y2="550" stroke="#f2f2f2"/>
<text x="125.38" y="566" text-anchor="middle" font-family="sans-serif" font-size="11" fill="#555">Feb</text>
<line x1="213.59" y1="25" x2="213.59" y2="550" stroke="#f2f2f2"/>
<text x="213.59" y="566" text-anchor="middle" font-family="sans-serif" font-size="11" fill="#555">Mar</text>
<line x1="311.26" y1="25" x2="311.26" y2="550" stroke="#f2f2f2"/>
<text x="311.26" y="566" text-anchor="middle" font-family="sans-serif" font-size="11" fill="#555">Apr</text>
<line x1="405.77" y1="25" x2="405.77" y2="550" stroke="#f2f2f2"/>
<text x="405.77" y="566" text-anchor="middle" font-family="sans-serif" font-size="11" fill="#555">May</text>
<line x1="503.43" y1="25" x2="503.43" y2="550" stroke="#f2f2f2"/>
<text x="503.43" y="566" text-anchor="middle" font-family="sans-serif" font-size="11" fill="#555">Jun</text>
<line x1="597.94" y1="25" x2="597.94" y2="550" stroke="#f2f2f2"/>
<text x="597.94" y="566" text-anchor="middle" font-family="sans-serif" font-size="11" fill="#555">Jul</text>
<line x1="695.60" y1="25" x2="695.60" y2="550" stroke="#f2f2f2"/>
<text x="695.60" y="566" text-anchor="middle" font-family="sans-serif" font-size="11" fill="#555">Aug</text>
<line x1="793.26" y1="25" x2="793.26" y2="550" stroke="#f2f2f2"/>
<text x="793.26" y="566" text-anchor="middle" font-family="sans-serif" font-size="11" fill="#555">Sep</text>
<line x1="887.77" y1="25" x2="887.77" y2="550" stroke="#f2f2f2"/>
<text x="887.77" y="566" text-anchor="middle" font-family="sans-serif" font-size="11" fill="#555">Oct</text>
<line x1="985.43" y1="25" x2="985.43" y2="550" stroke="#f2f2f2"/>
<text x="985.43" y="566" text-anchor="middle" font-family="sans-serif" font-size="11" fill="#555">Nov</text>
<line x1="1079.94" y1="25" x2="1079.94" y2="550" stroke="#f2f2f2"/>
<text x="1079.94" y="566" text-anchor="middle" font-family="sans-serif" font-size="11" fill="#555">Dec</text>
<line x1="70" y1="550" x2="1170" y2="550" stroke="#888"/>
<line x1="70" y1="25" x2="70" y2="550" stroke="#888"/>
<path d="M 70.49 167.17 L 70.54 167.17 L 73.08 167.17 L 73.08 167.49 L 70.54 169.64 L 70.49 171.04 Z" fill="#d0d0d0" fill-opacity="0.5" stroke="none"/>
<path d="M 73.93 159.17 L 73.94 159.17 L 73.94 161.09 L 73.93 163.12 Z" fill="#d0d0d0" fill-opacity="0.5" stroke="none"/>
<path d="M 95.96 150.19 L 96.00 150.19 L 96.13 150.19 L 96.19 150.19 L 98.20 150.19 L 98.22 150.19 L 98.35 150.19 L 98.41 150.19 L 98.60 150.19 L 98.64 150.19 L 98.65 150.19 L 98.89 150.19 L 106.43 150.19 L 107.54 150.19 L 110.78 150.19 L 110.83 150.19 L 111.42 150.19 L 111.53 150.19 L 111.69 150.19 L 133.49 150.19 L 133.56 150.19 L 133.70 150.19 L 137.96 150.19 L 139.03 150.19 L 139.43 150.19 L 140.43 150.19 L 143.18 150.19 L 152.33 150.19 L 155.36 150.19 L 162.01 150.19 L 175.00 150.19 L 177.39 150.19 L 181.43 150.19 L 187.26 150.19 L 187.55 150.19 L 205.96 150.19 L 206.13 150.19 L 206.14 150.19 L 206.20 150.19 L 209.23 150.19 L 225.01 150.19 L 227.99 150.19 L 228.07 150.19 L 228.45 150.19 L 230.58 150.19 L 231.12 150.19 L 231.30 150.19 L 231.35 150.19 L 243.28 150.19 L 243.90 150.19 L 244.20 150.19 L 244.20 151.96 L 243.90 153.99 L 243.28 155.88 L 231.35 156.87 L 231.30 158.45 L 231.12 154.45 L 230.58 156.77 L 228.45 158.78 L 228.07 160.53 L 227.99 162.15 L 225.01 164.14 L 209.23 166.30 L 206.20 167.84 L 206.14 168.68 L 206.13 164.78 L 205.96 160.87 L 187.55 156.90 L 187.26 159.21 L 181.43 161.40 L 177.39 163.59 L 175.00 164.39 L 162.01 166.09 L 155.36 167.58 L 152.33 169.62 L 143.18 170.32 L 140.43 169.26 L 139.43 170.24 L 139.03 171.87 L 137.96 173.82 L 133.70 174.08 L 133.56 174.09 L 133.49 174.83 L 111.69 171.00 L 111.53 167.13 L 111.42 168.97 L 110.83 170.94 L 110.78 172.75 L 107.54 168.90 L 106.43 170.82 L 98.89 166.95 L 98.65 168.82 L 98.64 171.08 L 98.60 167.23 L 98.41 163.32 L 98.35 164.39 L 98.22 160.45 L 98.20 162.55 L 96.19 158.59 L 96.13 159.18 L 96.00 158.16 L 95.96 154.20 Z" fill="#d0d0d0" fill-opacity="0.5" stroke="none"/>
<path d="M 249.32 148.81 L 249.38 148.81 L 249.51 148.81 L 249.51 150.30 L 249.38 151.51 L 249.32 152.87 Z" fill="#d0d0d0" fill-opacity="0.5" stroke="none"/>
<path d="M 253.38 148.06 L 253.39 148.06 L 253.39 149.80 L 253.38 152.13 Z" fill="#d0d0d0" fill-opacity="0.5" stroke="none"/>
<path d="M 262.81 146.39 L 269.48 146.39 L 269.48 148.23 L 262.81 150.47 Z" fill="#d0d0d0" fill-opacity="0.5" stroke="none"/>
<path d="M 270.49 144.73 L 270.89 144.73 L 271.40 144.73 L 271.47 144.73 L 271.57 144.73 L 271.70 144.73 L 271.96 144.73 L 271.96 145.52 L 271.70 147.78 L 271.57 149.68 L 271.47 151.42 L 271.40 152.53 L 270.89 148.47 L 270.49 148.82 Z" fill="#d0d0d0" fill-opacity="0.5" stroke="none"/>
<path d="M 275.42 137.64 L 275.44 137.64 L 275.77 137.64 L 275.89 137.64 L 284.29 137.64 L 284.47 137.64 L 284.66 137.64 L 287.35 137.64 L 287.35 139.45 L 284.66 139.72 L 284.47 139.22 L 284.29 140.80 L 275.89 142.93 L 275.77 144.09 L 275.44 139.95 L 275.42 141.80 Z" fill="#d0d0d0" fill-opacity="0.5" stroke="none"/>
<path d="M 296.66 129.97 L 297.34 129.97 L 297.76 129.97 L 297.76 130.42 L 297.34 132.76 L 296.66 134.21 Z" fill="#d0d0d0" fill-opacity="0.5" stroke="none"/>
<path d="M 319.63 114.21 L 331.40 114.21 L 331.50 114.21 L 335.32 114.21 L 335.84 114.21 L 338.51 114.21 L 340.74 114.21 L 350.50 114.21 L 350.91 114.21 L 350.91 115.63 L 350.50 118.04 L 340.74 119.40 L 338.51 120.35 L 335.84 115.99 L 335.32 117.97 L 331.50 119.90 L 331.40 120.66 L 319.63 116.30 Z" fill="#d0d0d0" fill-opacity="0.5" stroke="none"/>
<path d="M 354.05 113.78 L 354.18 113.78 L 354.29 113.78 L 356.69 113.78 L 357.22 113.78 L 357.30 113.78 L 357.74 113.78 L 357.83 113.78 L 357.83 114.06 L 357.74 115.12 L 357.30 117.53 L 357.22 119.36 L 356.69 121.75 L 354.29 121.53 L 354.18 122.48 L 354.05 118.14 Z" fill="#d0d0d0" fill-opacity="0.5" stroke="none"/>
<path d="M 360.05 109.97 L 360.12 109.97 L 360.12 112.34 L 360.05 114.38 Z" fill="#d0d0d0" fill-opacity="0.5" stroke="none"/>
<path d="M 361.04 109.92 L 362.99 109.92 L 363.47 109.92 L 375.40 109.92 L 375.40 110.61 L 363.47 110.42 L 362.99 112.64 L 361.04 114.33 Z" fill="#d0d0d0" fill-opacity="0.5" stroke="none"/>
<path d="M 384.74 104.55 L 384.85 104.55 L 384.98 104.55 L 384.98 105.38 L 384.85 107.26 L 384.74 109.01 Z" fill="#d0d0d0" fill-opacity="0.5" stroke="none"/>
<path d="M 401.26 100.60 L 401.41 100.60 L 401.48 100.60 L 401.67 100.60 L 401.74 100.60 L 401.96 100.60 L 402.01 100.60 L 403.76 100.60 L 403.79 100.60 L 403.87 100.60 L 404.44 100.60 L 404.73 100.60 L 407.80 100.60 L 416.45 100.60 L 417.11 100.60 L 420.21 100.60 L 420.47 100.60 L 420.47 102.28 L 420.21 103.57 L 417.11 105.53 L 416.45 106.64 L 407.80 108.11 L 404.73 109.88 L 404.44 112.17 L 403.87 114.37 L 403.79 115.24 L 403.76 110.85 L 402.01 106.40 L 401.96 108.81 L 401.74 111.25 L 401.67 111.80 L 401.48 107.36 L 401.41 102.91 L 401.26 105.10 Z" fill="#d0d0d0" fill-opacity="0.5" stroke="none"/>
<path d="M 423.47 99.79 L 423.62 99.79 L 426.44 99.79 L 429.59 99.79 L 429.61 99.79 L 429.88 99.79 L 438.34 99.79 L 441.56 99.79 L 445.52 99.79 L 447.78 99.79 L 448.83 99.79 L 451.88 99.79 L 451.98 99.79 L 452.10 99.79 L 460.47 99.79 L 461.33 99.79 L 461.33 100.96 L 460.47 101.81 L 452.10 103.86 L 451.98 104.52 L 451.88 104.99 L 448.83 100.49 L 447.78 102.99 L 445.52 104.67 L 441.56 100.17 L 438.34 101.28 L 429.88 103.15 L 429.61 105.49 L 429.59 107.96 L 426.44 110.43 L 423.62 105.98 L 423.47 104.29 Z" fill="#d0d0d0" fill-opacity="0.5" stroke="none"/>
<path d="M 463.53 98.90 L 463.59 98.90 L 463.68 98.90 L 463.74 98.90 L 464.30 98.90 L 466.66 98.90 L 468.12 98.90 L 469.93 98.90 L 473.85 98.90 L 473.92 98.90 L 474.05 98.90 L 485.63 98.90 L 489.56 98.90 L 489.70 98.90 L 489.87 98.90 L 492.48 98.90 L 505.47 98.90 L 507.71 98.90 L 508.07 98.90 L 508.45 98.90 L 508.63 98.90 L 510.83 98.90 L 511.08 98.90 L 511.58 98.90 L 511.71 98.90 L 511.77 98.90 L 511.90 98.90 L 512.00 98.90 L 514.10 98.90 L 514.15 98.90 L 514.35 98.90 L 514.75 98.90 L 514.78 98.90 L 515.21 98.90 L 515.38 98.90 L 516.08 98.90 L 517.10 98.90 L 517.98 98.90 L 526.51 98.90 L 527.31 98.90 L 528.98 98.90 L 529.74 98.90 L 530.47 98.90 L 532.90 98.90 L 533.42 98.90 L 533.70 98.90 L 533.91 98.90 L 536.10 98.90 L 539.37 98.90 L 539.41 98.90 L 539.84 98.90 L 551.79 98.90 L 552.46 98.90 L 556.33 98.90 L 556.33 99.99 L 552.46 102.49 L 551.79 104.19 L 539.84 105.79 L 539.41 108.26 L 539.37 110.15 L 536.10 112.60 L 533.91 115.04 L 533.70 117.47 L 533.42 119.51 L 532.90 121.42 L 530.47 117.07 L 529.74 118.76 L 528.98 120.95 L 527.31 123.35 L 526.51 123.55 L 517.98 125.93 L 517.10 127.35 L 516.08 129.32 L 515.38 130.76 L 515.21 132.93 L 514.78 135.27 L 514.75 137.16 L 514.35 132.95 L 514.15 128.70 L 514.10 124.43 L 512.00 120.11 L 511.90 118.91 L 511.77 117.56 L 511.71 113.21 L 511.58 108.81 L 511.08 111.09 L 510.83 113.03 L 508.63 114.91 L 508.45 110.50 L 508.07 106.07 L 507.71 108.53 L 505.47 109.69 L 492.48 111.79 L 489.87 113.59 L 489.70 115.81 L 489.56 117.98 L 485.63 117.39 L 474.05 118.56 L 473.92 118.27 L 473.85 119.25 L 469.93 114.90 L 468.12 117.31 L 466.66 119.73 L 464.30 115.36 L 463.74 110.95 L 463.68 112.29 L 463.59 107.85 L 463.53 103.41 Z" fill="#d0d0d0" fill-opacity="0.5" stroke="none"/>
<path d="M 573.25 89.92 L 574.61 89.92 L 580.44 89.92 L 584.35 89.92 L 591.55 89.92 L 591.74 89.92 L 592.62 89.92 L 592.79 89.92 L 593.71 89.92 L 594.07 89.92 L 594.07 90.05 L 593.71 92.72 L 592.79 95.02 L 592.62 96.73 L 591.74 99.36 L 591.55 94.81 L 584.35 96.31 L 580.44 97.27 L 574.61 99.07 L 573.25 94.51 Z" fill="#d0d0d0" fill-opacity="0.5" stroke="none"/>
<path d="M 596.89 88.38 L 599.29 88.38 L 599.29 90.60 L 596.89 92.98 Z" fill="#d0d0d0" fill-opacity="0.5" stroke="none"/>
<path d="M 618.17 85.38 L 618.17 85.49 Z" fill="#d0d0d0" fill-opacity="0.5" stroke="none"/>
<path d="M 627.76 72.41 L 627.76 72.76 Z" fill="#d0d0d0" fill-opacity="0.5" stroke="none"/>
<path d="M 636.93 70.36 L 636.98 70.36 L 644.00 70.36 L 663.01 70.36 L 668.48 70.36 L 668.48 72.81 L 663.01 72.17 L 644.00 73.95 L 636.98 73.30 L 636.93 75.12 Z" fill="#d0d0d0" fill-opacity="0.5" stroke="none"/>
<path d="M 707.65 58.63 L 707.65 59.30 Z" fill="#d0d0d0" fill-opacity="0.5" stroke="none"/>
<path d="M 716.29 56.60 L 716.56 56.60 L 716.56 58.79 L 716.29 61.47 Z" fill="#d0d0d0" fill-opacity="0.5" stroke="none"/>
<path d="M 728.31 56.09 L 731.53 56.09 L 754.87 56.09 L 757.52 56.09 L 760.83 56.09 L 768.43 56.09 L 768.64 56.09 L 769.73 56.09 L 769.87 56.09 L 769.92 56.09 L 770.46 56.09 L 772.75 56.09 L 772.78 56.09 L 773.33 56.09 L 776.07 56.09 L 776.13 56.09 L 776.40 56.09 L 778.82 56.09 L 779.43 56.09 L 779.61 56.09 L 782.83 56.09 L 782.91 56.09 L 782.91 57.09 L 782.83 59.09 L 779.61 61.78 L 779.43 64.19 L 778.82 63.69 L 776.40 65.76 L 776.13 68.42 L 776.07 71.20 L 773.33 68.59 L 772.78 63.78 L 772.75 66.10 L 770.46 61.27 L 769.92 62.40 L 769.87 57.57 L 769.73 60.14 L 768.64 62.63 L 768.43 63.09 L 760.83 63.90 L 757.52 59.05 L 754.87 61.27 L 731.53 60.82 L 728.31 60.96 Z" fill="#d0d0d0" fill-opacity="0.5" stroke="none"/>
<path d="M 801.35 55.22 L 801.40 55.22 L 801.54 55.22 L 805.08 55.22 L 816.04 55.22 L 823.74 55.22 L 827.06 55.22 L 842.61 55.22 L 846.16 55.22 L 848.87 55.22 L 858.47 55.22 L 880.58 55.22 L 892.92 55.22 L 892.98 55.22 L 893.40 55.22 L 905.65 55.22 L 910.97 55.22 L 911.63 55.22 L 911.63 56.22 L 910.97 57.04 L 905.65 58.71 L 893.40 60.93 L 892.98 61.37 L 892.92 63.18 L 880.58 62.61 L 858.47 61.92 L 848.87 61.27 L 846.16 63.17 L 842.61 65.85 L 827.06 64.78 L 823.74 63.72 L 816.04 66.39 L 805.08 67.07 L 801.54 69.73 L 801.40 64.92 L 801.35 60.10 Z" fill="#d0d0d0" fill-opacity="0.5" stroke="none"/>
<path d="M 933.79 53.67 L 933.79 54.24 Z" fill="#d0d0d0" fill-opacity="0.5" stroke="none"/>
<path d="M 955.92 48.90 L 956.02 48.90 L 958.82 48.90 L 975.32 48.90 L 975.53 48.90 L 981.16 48.90 L 981.16 50.52 L 975.53 52.35 L 975.32 49.77 L 958.82 52.63 L 956.02 55.35 L 955.92 50.43 Z" fill="#d0d0d0" fill-opacity="0.5" stroke="none"/>
<path d="M 1003.16 48.02 L 1003.16 48.03 Z" fill="#d0d0d0" fill-opacity="0.5" stroke="none"/>
<path d="M 1062.39 34.04 L 1063.28 34.04 L 1063.28 36.31 L 1062.39 39.09 Z" fill="#d0d0d0" fill-opacity="0.5" stroke="none"/>
<path d="M 1088.17 30.53 L 1088.32 30.53 L 1088.34 30.53 L 1088.41 30.53 L 1088.45 30.53 L 1088.58 30.53 L 1090.46 30.53 L 1091.16 30.53 L 1091.39 30.53 L 1091.73 30.53 L 1107.01 30.53 L 1107.54 30.53 L 1113.42 30.53 L 1113.42 31.31 L 1107.54 33.27 L 1107.01 35.58 L 1091.73 38.09 L 1091.39 39.80 L 1091.16 41.90 L 1090.46 44.66 L 1088.58 39.65 L 1088.45 41.55 L 1088.41 43.76 L 1088.34 38.77 L 1088.32 33.72 L 1088.17 31.12 Z" fill="#d0d0d0" fill-opacity="0.5" stroke="none"/>
<polyline fill="none" stroke="#111" stroke-width="1.2" points="70.00,167.17 70.49,171.04 70.54,169.64 73.08,167.49 73.09,165.20 73.22,163.02 73.72,161.05 73.79,159.17 73.93,163.12 73.94,161.09 76.91,159.11 77.07,157.56 85.74,156.29 92.64,155.75 92.67,153.42 95.68,151.08 95.80,150.19 95.96,154.20 96.00,158.16 96.13,159.18 96.19,158.59 98.20,162.55 98.22,160.45 98.35,164.39 98.41,163.32 98.60,167.23 98.64,171.08 98.65,168.82 98.89,166.95 106.43,170.82 107.54,168.90 110.78,172.75 110.83,170.94 111.42,168.97 111.53,167.13 111.69,171.00 133.49,174.83 133.56,174.09 133.70,174.08 137.96,173.82 139.03,171.87 139.43,170.24 140.43,169.26 143.18,170.32 152.33,169.62 155.36,167.58 162.01,166.09 175.00,164.39 177.39,163.59 181.43,161.40 187.26,159.21 187.55,156.90 205.96,160.87 206.13,164.78 206.14,168.68 206.20,167.84 209.23,166.30 225.01,164.14 227.99,162.15 228.07,160.53 228.45,158.78 230.58,156.77 231.12,154.45 231.30,158.45 231.35,156.87 243.28,155.88 243.90,153.99 244.20,151.96 246.30,149.74 246.68,149.62 247.60,148.81 249.32,152.87 249.38,151.51 249.51,150.30 250.02,148.06 253.38,152.13 253.39,149.80 253.52,147.81 253.85,146.39 262.81,150.47 269.48,148.23 269.64,145.86 269.75,144.73 270.49,148.82 270.89,148.47 271.40,152.53 271.47,151.42 271.57,149.68 271.70,147.78 271.96,145.52 272.09,143.39 272.52,141.63 275.21,139.83 275.29,137.64 275.42,141.80 275.44,139.95 275.77,144.09 275.89,142.93 284.29,140.80 284.47,139.22 284.66,139.72 287.35,139.45 287.83,137.14 287.86,134.82 288.02,134.14 293.63,132.87 294.18,130.78 294.41,130.14 294.87,129.97 296.66,134.21 297.34,132.76 297.76,130.42 297.78,128.13 309.43,126.04 313.03,124.09 315.40,122.21 316.24,120.00 319.24,117.59 319.33,115.06 319.44,114.21 319.63,116.30 331.40,120.66 331.50,119.90 335.32,117.97 335.84,115.99 338.51,120.35 340.74,119.40 350.50,118.04 350.91,115.63 354.01,113.78 354.05,118.14 354.18,122.48 354.29,121.53 356.69,121.75 357.22,119.36 357.30,117.53 357.74,115.12 357.83,114.06 358.67,111.63 359.69,109.97 360.05,114.38 360.12,112.34 360.29,109.92 361.04,114.33 362.99,112.64 363.47,110.42 375.40,110.61 376.37,109.20 379.19,107.40 382.04,105.98 382.64,104.55 384.74,109.01 384.85,107.26 384.98,105.38 385.25,104.25 395.31,102.89 398.34,100.60 401.26,105.10 401.41,102.91 401.48,107.36 401.67,111.80 401.74,111.25 401.96,108.81 402.01,106.40 403.76,110.85 403.79,115.24 403.87,114.37 404.44,112.17 404.73,109.88 407.80,108.11 416.45,106.64 417.11,105.53 420.21,103.57 420.47,102.28 422.08,99.79 423.47,104.29 423.62,105.98 426.44,110.43 429.59,107.96 429.61,105.49 429.88,103.15 438.34,101.28 441.56,100.17 445.52,104.67 447.78,102.99 448.83,100.49 451.88,104.99 451.98,104.52 452.10,103.86 460.47,101.81 461.33,100.96 461.86,98.90 463.53,103.41 463.59,107.85 463.68,112.29 463.74,110.95 464.30,115.36 466.66,119.73 468.12,117.31 469.93,114.90 473.85,119.25 473.92,118.27 474.05,118.56 485.63,117.39 489.56,117.98 489.70,115.81 489.87,113.59 492.48,111.79 505.47,109.69 507.71,108.53 508.07,106.07 508.45,110.50 508.63,114.91 510.83,113.03 511.08,111.09 511.58,108.81 511.71,113.21 511.77,117.56 511.90,118.91 512.00,120.11 514.10,124.43 514.15,128.70 514.35,132.95 514.75,137.16 514.78,135.27 515.21,132.93 515.38,130.76 516.08,129.32 517.10,127.35 517.98,125.93 526.51,123.55 527.31,123.35 528.98,120.95 529.74,118.76 530.47,117.07 532.90,121.42 533.42,119.51 533.70,117.47 533.91,115.04 536.10,112.60 539.37,110.15 539.41,108.26 539.84,105.79 551.79,104.19 552.46,102.49 556.33,99.99 556.37,98.25 558.25,97.04 559.30,94.51 561.22,92.47 570.70,89.92 573.25,94.51 574.61,99.07 580.44,97.27 584.35,96.31 591.55,94.81 591.74,99.36 592.62,96.73 592.79,95.02 593.71,92.72 594.07,90.05 596.66,88.38 596.89,92.98 599.29,90.60 613.56,87.94 614.60,85.38 618.17,85.49 618.62,84.04 621.16,81.46 621.89,79.05 622.16,76.70 624.30,74.50 626.24,72.41 627.76,72.76 636.80,70.36 636.93,75.12 636.98,73.30 644.00,73.95 663.01,72.17 668.48,72.81 680.93,70.17 680.97,67.87 688.64,65.21 694.22,62.41 694.36,60.62 694.48,58.68 694.87,58.63 707.65,59.30 716.27,56.60 716.29,61.47 716.56,58.79 726.27,56.09 728.31,60.96 731.53,60.82 754.87,61.27 757.52,59.05 760.83,63.90 768.43,63.09 768.64,62.63 769.73,60.14 769.87,57.57 769.92,62.40 770.46,61.27 772.75,66.10 772.78,63.78 773.33,68.59 776.07,71.20 776.13,68.42 776.40,65.76 778.82,63.69 779.43,64.19 779.61,61.78 782.83,59.09 782.91,57.09 794.45,55.22 801.35,60.10 801.40,64.92 801.54,69.73 805.08,67.07 816.04,66.39 823.74,63.72 827.06,64.78 842.61,65.85 846.16,63.17 848.87,61.27 858.47,61.92 880.58,62.61 892.92,63.18 892.98,61.37 893.40,60.93 905.65,58.71 910.97,57.04 911.63,56.22 914.17,54.69 933.06,53.67 933.79,54.24 955.70,51.52 955.71,48.90 955.92,50.43 956.02,55.35 958.82,52.63 975.32,49.77 975.53,52.35 981.16,50.52 996.81,48.02 1003.16,48.03 1003.24,46.23 1021.27,44.74 1022.00,41.98 1022.06,39.28 1032.66,37.76 1042.37,34.98 1044.35,34.04 1062.39,39.09 1063.28,36.31 1087.90,33.53 1087.90,30.53 1088.17,31.12 1088.32,33.72 1088.34,38.77 1088.41,43.76 1088.45,41.55 1088.58,39.65 1090.46,44.66 1091.16,41.90 1091.39,39.80 1091.73,38.09 1107.01,35.58 1107.54,33.27 1113.42,31.31 1122.96,29.72 1126.00,27.50 1130.33,27.35 1134.67,25.95 1170.00,25.00"/>
<text x="620.0" y="588" text-anchor="middle" font-family="sans-serif" font-size="12" fill="#333">UTC time</text>
<text x="15" y="287.5" transform="rotate(-90 15,287.5)" text-anchor="middle" font-family="sans-serif" font-size="12" fill="#333">Capital</text>
</svg>