<svg xmlns="http://www.w3.org/2000/svg" width="1200" height="600" viewBox="0 0 1200 600">
<desc>Equity curve with drawdown fill; x-axis is months only (no exact timestamps)</desc>
<text x="600.0" y="18.0" text-anchor="middle" font-family="sans-serif" font-size="14">Portfolio 2020 (UTC)</text>
<rect x="70" y="25" width="1100" height="525" fill="white" stroke="#ccc" />
<line x1="70" y1="550.00" x2="1170" y2="550.00" stroke="#eee"/>
<text x="62" y="554.0" text-anchor="end" font-family="sans-serif" font-size="11" fill="#555">0.00</text>
<line x1="70" y1="445.00" x2="1170" y2="445.00" stroke="#eee"/>
<text x="62" y="449.0" text-anchor="end" font-family="sans-serif" font-size="11" fill="#555">76397</text>
<line x1="70" y1="340.00" x2="1170" y2="340.00" stroke="#eee"/>
<text x="62" y="344.0" text-anchor="end" font-family="sans-serif" font-size="11" fill="#555">152793</text>
<line x1="70" y1="235.00" x2="1170" y2="235.00" stroke="#eee"/>
<text x="62" y="239.0" text-anchor="end" font-family="sans-serif" font-size="11" fill="#555">229190</text>
<line x1="70" y1="130.00" x2="1170" y2="130.00" stroke="#eee"/>
<text x="62" y="134.0" text-anchor="end" font-family="sans-serif" font-size="11" fill="#555">305587</text>
<line x1="70" y1="25.00" x2="1170" y2="25.00" stroke="#eee"/>
<text x="62" y="29.0" text-anchor="end" font-family="sans-serif" font-size="11" fill="#555">381983</text>
<line x1="180.00" y1="25" x2="180.00" y2="550" stroke="#f2f2f2"/>
<line x1="290.00" y1="25" x2="290.00" y2="550" stroke="#f2f2f2"/>
<line x1="400.00" y1="25" x2="400.00" y2="550" stroke="#f2f2f2"/>
<line x1="510.00" y1="25" x2="510.00" y2="550" stroke="#f2f2f2"/>
<line x1="620.00" y1="25" x2="620.00" y2="550" stroke="#f2f2f2"/>
<line x1="730.00" y1="25" x2="730.00" y2="550" stroke="#f2f2f2"/>
<line x1="840.00" y1="25" x2="840.00" y2="550" stroke="#f2f2f2"/>
<line x1="950.00" y1="25" x2="950.00" y2="550" stroke="#f2f2f2"/>
<line x1="1060.00" y1="25" x2="1060.00" y2="550" stroke="#f2f2f2"/>
<text x="125.00" y="566.00" text-anchor="middle" font-family="sans-serif" font-size="11" fill="#444">Jan</text>
<text x="235.00" y="566.00" text-anchor="middle" font-family="sans-serif" font-size="11" fill="#444">Mar</text>
<text x="345.00" y="566.00" text-anchor="middle" font-family="sans-serif" font-size="11" fill="#444">Apr</text>
<text x="455.00" y="566.00" text-anchor="middle" font-family="sans-serif" font-size="11" fill="#444">May</text>
<text x="565.00" y="566.00" text-anchor="middle" font-family="sans-serif" font-size="11" fill="#444">Jun</text>
<text x="675.00" y="566.00" text-anchor="middle" font-family="sans-serif" font-size="11" fill="#444">Jul</text>
<text x="785.00" y="566.00" text-anchor="middle" font-family="sans-serif" font-size="11" fill="#444">Aug</text>
<text x="895.00" y="566.00" text-anchor="middle" font-family="sans-serif" font-size="11" fill="#444">Sep</text>
<text x="1005.00" y="566.00" text-anchor="middle" font-family="sans-serif" font-size="11" fill="#444">Nov</text>
<text x="1115.00" y="566.00" text-anchor="middle" font-family="sans-serif" font-size="11" fill="#444">Dec</text>
<line x1="70" y1="550" x2="1170" y2="550" stroke="#888"/>
<line x1="70" y1="25" x2="70" y2="550" stroke="#888"/>
<line x1="125.00" y1="550.00" x2="125.00" y2="556.00" stroke="#888"/>
<line x1="1115.00"   y1="550.00" x2="1115.00"   y2="556.00" stroke="#888"/>
<text x="125.00" y="582.00" text-anchor="start" font-family="sans-serif" font-size="11" fill="#333">Initial Balance: 335870</text>
<text x="1115.00"   y="582.00" text-anchor="end"   font-family="sans-serif" font-size="11" fill="#333">Ending Balance: 381983</text>
<path d="M 188.19 81.44 L 190.53 81.44 L 190.53 83.39 L 188.19 86.16 Z" fill="#d0d0d0" fill-opacity="0.5" stroke="none"/>
<path d="M 206.91 70.47 L 206.91 71.24 Z" fill="#d0d0d0" fill-opacity="0.5" stroke="none"/>
<path d="M 225.64 57.32 L 225.64 57.74 Z" fill="#d0d0d0" fill-opacity="0.5" stroke="none"/>
<path d="M 230.32 55.92 L 232.66 55.92 L 235.00 55.92 L 235.00 55.93 L 232.66 58.44 L 230.32 60.93 Z" fill="#d0d0d0" fill-opacity="0.5" stroke="none"/>
<path d="M 239.68 53.40 L 242.02 53.40 L 244.36 53.40 L 246.70 53.40 L 249.04 53.40 L 251.38 53.40 L 253.72 53.40 L 256.06 53.40 L 258.40 53.40 L 260.74 53.40 L 263.09 53.40 L 265.43 53.40 L 267.77 53.40 L 270.11 53.40 L 272.45 53.40 L 274.79 53.40 L 277.13 53.40 L 279.47 53.40 L 281.81 53.40 L 284.15 53.40 L 286.49 53.40 L 288.83 53.40 L 288.83 53.68 L 286.49 55.76 L 284.15 58.23 L 281.81 59.60 L 279.47 61.48 L 277.13 63.59 L 274.79 65.75 L 272.45 66.65 L 270.11 68.74 L 267.77 70.78 L 265.43 73.36 L 263.09 68.47 L 260.74 63.52 L 258.40 64.67 L 256.06 59.72 L 253.72 61.09 L 251.38 63.51 L 249.04 58.52 L 246.70 61.12 L 244.36 56.10 L 242.02 58.78 L 239.68 58.44 Z" fill="#d0d0d0" fill-opacity="0.5" stroke="none"/>
<path d="M 565.00 42.49 L 565.00 43.34 Z" fill="#d0d0d0" fill-opacity="0.5" stroke="none"/>
<path d="M 1005.00 26.89 L 1005.00 27.36 Z" fill="#d0d0d0" fill-opacity="0.5" stroke="none"/>
<polyline fill="none" stroke="#111" stroke-width="1.2" points="125.00,88.38 181.17,86.15 183.51,84.13 185.85,81.44 188.19,86.16 190.53,83.39 192.87,81.05 195.21,79.49 197.55,76.91 199.89,75.22 202.23,73.09 204.57,70.47 206.91,71.24 209.26,69.83 211.60,67.21 213.94,66.59 216.28,64.32 218.62,61.66 220.96,58.99 223.30,57.32 225.64,57.74 227.98,55.92 230.32,60.93 232.66,58.44 235.00,55.93 237.34,53.40 239.68,58.44 242.02,58.78 244.36,56.10 246.70,61.12 249.04,58.52 251.38,63.51 253.72,61.09 256.06,59.72 258.40,64.67 260.74,63.52 263.09,68.47 265.43,73.36 267.77,70.78 270.11,68.74 272.45,66.65 274.79,65.75 277.13,63.59 279.47,61.48 281.81,59.60 284.15,58.23 286.49,55.76 288.83,53.68 308.33,53.01 345.00,51.40 381.67,50.16 427.50,47.76 482.50,45.27 528.33,42.49 565.00,43.34 601.67,41.26 647.50,39.90 702.50,38.06 757.50,36.41 812.50,34.72 867.50,32.12 922.50,29.56 968.33,26.89 1005.00,27.36 1041.67,25.45 1115.00,25.00"/>
<text x="620.0" y="588" text-anchor="middle" font-family="sans-serif" font-size="12" fill="#333">Monthly Balance Curve</text>
<text x="15" y="287.5" transform="rotate(-90 15,287.5)" text-anchor="middle" font-family="sans-serif" font-size="12" fill="#333">Capital</text>
</svg>