<svg xmlns="http://www.w3.org/2000/svg" width="1200" height="600" viewBox="0 0 1200 600">
<desc>Equity curve with drawdown fill; x-axis is months only (no exact timestamps)</desc>
<text x="600.0" y="18.0" text-anchor="middle" font-family="sans-serif" font-size="14">Balance Curve 2001 (UTC)</text>
<rect x="70" y="25" width="1100" height="525" fill="white" stroke="#ccc" />
<line x1="70" y1="550.00" x2="1170" y2="550.00" stroke="#eee"/>
<text x="62" y="554.0" text-anchor="end" font-family="sans-serif" font-size="11" fill="#555">0.00</text>
<line x1="70" y1="445.00" x2="1170" y2="445.00" stroke="#eee"/>
<text x="62" y="449.0" text-anchor="end" font-family="sans-serif" font-size="11" fill="#555">20473</text>
<line x1="70" y1="340.00" x2="1170" y2="340.00" stroke="#eee"/>
<text x="62" y="344.0" text-anchor="end" font-family="sans-serif" font-size="11" fill="#555">40947</text>
<line x1="70" y1="235.00" x2="1170" y2="235.00" stroke="#eee"/>
<text x="62" y="239.0" text-anchor="end" font-family="sans-serif" font-size="11" fill="#555">61420</text>
<line x1="70" y1="130.00" x2="1170" y2="130.00" stroke="#eee"/>
<text x="62" y="134.0" text-anchor="end" font-family="sans-serif" font-size="11" fill="#555">81894</text>
<line x1="70" y1="25.00" x2="1170" y2="25.00" stroke="#eee"/>
<text x="62" y="29.0" text-anchor="end" font-family="sans-serif" font-size="11" fill="#555">102367</text>
<line x1="161.67" y1="25" x2="161.67" y2="550" stroke="#f2f2f2"/>
<line x1="253.33" y1="25" x2="253.33" y2="550" stroke="#f2f2f2"/>
<line x1="345.00" y1="25" x2="345.00" y2="550" stroke="#f2f2f2"/>
<line x1="436.67" y1="25" x2="436.67" y2="550" stroke="#f2f2f2"/>
<line x1="528.33" y1="25" x2="528.33" y2="550" stroke="#f2f2f2"/>
<line x1="620.00" y1="25" x2="620.00" y2="550" stroke="#f2f2f2"/>
<line x1="711.67" y1="25" x2="711.67" y2="550" stroke="#f2f2f2"/>
<line x1="803.33" y1="25" x2="803.33" y2="550" stroke="#f2f2f2"/>
<line x1="895.00" y1="25" x2="895.00" y2="550" stroke="#f2f2f2"/>
<line x1="986.67" y1="25" x2="986.67" y2="550" stroke="#f2f2f2"/>
<line x1="1078.33" y1="25" x2="1078.33" y2="550" stroke="#f2f2f2"/>
<text x="115.83" y="566.00" text-anchor="middle" font-family="sans-serif" font-size="11" fill="#444">Jan</text>
<text x="207.50" y="566.00" text-anchor="middle" font-family="sans-serif" font-size="11" fill="#444">Feb</text>
<text x="299.17" y="566.00" text-anchor="middle" font-family="sans-serif" font-size="11" fill="#444">Mar</text>
<text x="390.83" y="566.00" text-anchor="middle" font-family="sans-serif" font-size="11" fill="#444">Apr</text>
<text x="482.50" y="566.00" text-anchor="middle" font-family="sans-serif" font-size="11" fill="#444">May</text>
<text x="574.17" y="566.00" text-anchor="middle" font-family="sans-serif" font-size="11" fill="#444">Jun</text>
<text x="665.83" y="566.00" text-anchor="middle" font-family="sans-serif" font-size="11" fill="#444">Jul</text>
<text x="757.50" y="566.00" text-anchor="middle" font-family="sans-serif" font-size="11" fill="#444">Aug</text>
<text x="849.17" y="566.00" text-anchor="middle" font-family="sans-serif" font-size="11" fill="#444">Sep</text>
<text x="940.83" y="566.00" text-anchor="middle" font-family="sans-serif" font-size="11" fill="#444">Oct</text>
<text x="1032.50" y="566.00" text-anchor="middle" font-family="sans-serif" font-size="11" fill="#444">Nov</text>
<text x="1124.17" y="566.00" text-anchor="middle" font-family="sans-serif" font-size="11" fill="#444">Dec</text>
<line x1="70" y1="550" x2="1170" y2="550" stroke="#888"/>
<line x1="70" y1="25" x2="70" y2="550" stroke="#888"/>
<line x1="73.53" y1="550.00" x2="73.53" y2="556.00" stroke="#888"/>
<line x1="1168.17"   y1="550.00" x2="1168.17"   y2="556.00" stroke="#888"/>
<text x="73.53" y="582.00" text-anchor="start" font-family="sans-serif" font-size="11" fill="#333">Initial Balance: 100000</text>
<text x="1168.17"   y="582.00" text-anchor="end"   font-family="sans-serif" font-size="11" fill="#333">Ending Balance: 87254</text>
<path d="M 80.58 37.14 L 87.63 37.14 L 94.68 37.14 L 101.73 37.14 L 108.78 37.14 L 115.83 37.14 L 122.88 37.14 L 129.94 37.14 L 136.99 37.14 L 144.04 37.14 L 151.09 37.14 L 158.14 37.14 L 164.36 37.14 L 169.75 37.14 L 175.15 37.14 L 180.54 37.14 L 185.93 37.14 L 191.32 37.14 L 196.72 37.14 L 202.11 37.14 L 207.50 37.14 L 212.89 37.14 L 218.28 37.14 L 223.68 37.14 L 229.07 37.14 L 234.46 37.14 L 239.85 37.14 L 245.25 37.14 L 250.64 37.14 L 258.43 37.14 L 268.61 37.14 L 278.80 37.14 L 288.98 37.14 L 299.17 37.14 L 309.35 37.14 L 319.54 37.14 L 329.72 37.14 L 339.91 37.14 L 348.53 37.14 L 355.58 37.14 L 362.63 37.14 L 369.68 37.14 L 376.73 37.14 L 383.78 37.14 L 390.83 37.14 L 397.88 37.14 L 404.94 37.14 L 411.99 37.14 L 419.04 37.14 L 426.09 37.14 L 433.14 37.14 L 439.94 37.14 L 439.94 38.45 L 433.14 39.77 L 426.09 42.11 L 419.04 42.29 L 411.99 44.70 L 404.94 47.22 L 397.88 49.04 L 390.83 49.71 L 383.78 49.96 L 376.73 52.45 L 369.68 54.94 L 362.63 53.27 L 355.58 48.09 L 348.53 48.77 L 339.91 50.46 L 329.72 51.54 L 319.54 53.79 L 309.35 53.96 L 299.17 53.88 L 288.98 55.42 L 278.80 57.35 L 268.61 59.59 L 258.43 58.69 L 250.64 53.57 L 245.25 54.70 L 239.85 57.01 L 234.46 56.57 L 229.07 54.42 L 223.68 49.26 L 218.28 51.36 L 212.89 52.19 L 207.50 52.93 L 202.11 53.89 L 196.72 55.53 L 191.32 57.81 L 185.93 58.83 L 180.54 59.25 L 175.15 60.12 L 169.75 58.63 L 164.36 60.02 L 158.14 62.01 L 151.09 56.94 L 144.04 57.36 L 136.99 58.35 L 129.94 60.58 L 122.88 62.89 L 115.83 65.01 L 108.78 62.73 L 101.73 57.72 L 94.68 52.60 L 87.63 47.53 L 80.58 42.37 Z" fill="#d0d0d0" fill-opacity="0.5" stroke="none"/>
<path d="M 453.04 35.66 L 459.58 35.66 L 466.13 35.66 L 472.68 35.66 L 472.68 35.97 L 466.13 38.24 L 459.58 40.61 L 453.04 40.92 Z" fill="#d0d0d0" fill-opacity="0.5" stroke="none"/>
<path d="M 485.77 35.27 L 492.32 35.27 L 498.87 35.27 L 498.87 35.86 L 492.32 38.27 L 485.77 40.59 Z" fill="#d0d0d0" fill-opacity="0.5" stroke="none"/>
<path d="M 538.15 25.00 L 544.70 25.00 L 551.25 25.00 L 557.80 25.00 L 564.35 25.00 L 570.89 25.00 L 577.44 25.00 L 583.99 25.00 L 590.54 25.00 L 597.08 25.00 L 603.63 25.00 L 610.18 25.00 L 616.73 25.00 L 626.55 25.00 L 639.64 25.00 L 652.74 25.00 L 665.83 25.00 L 678.93 25.00 L 692.02 25.00 L 705.12 25.00 L 715.83 25.00 L 724.17 25.00 L 732.50 25.00 L 740.83 25.00 L 749.17 25.00 L 757.50 25.00 L 765.83 25.00 L 774.17 25.00 L 782.50 25.00 L 790.83 25.00 L 799.17 25.00 L 805.33 25.00 L 809.31 25.00 L 813.30 25.00 L 817.28 25.00 L 821.27 25.00 L 825.25 25.00 L 829.24 25.00 L 833.22 25.00 L 837.21 25.00 L 841.20 25.00 L 845.18 25.00 L 849.17 25.00 L 853.15 25.00 L 857.14 25.00 L 861.12 25.00 L 865.11 25.00 L 869.09 25.00 L 873.08 25.00 L 877.07 25.00 L 881.05 25.00 L 885.04 25.00 L 889.02 25.00 L 893.01 25.00 L 906.46 25.00 L 929.38 25.00 L 952.29 25.00 L 975.21 25.00 L 1009.58 25.00 L 1055.42 25.00 L 1080.17 25.00 L 1083.83 25.00 L 1087.50 25.00 L 1091.17 25.00 L 1094.83 25.00 L 1098.50 25.00 L 1102.17 25.00 L 1105.83 25.00 L 1109.50 25.00 L 1113.17 25.00 L 1116.83 25.00 L 1120.50 25.00 L 1124.17 25.00 L 1127.83 25.00 L 1131.50 25.00 L 1135.17 25.00 L 1138.83 25.00 L 1142.50 25.00 L 1146.17 25.00 L 1149.83 25.00 L 1153.50 25.00 L 1157.17 25.00 L 1160.83 25.00 L 1164.50 25.00 L 1168.17 25.00 L 1168.17 102.51 L 1164.50 93.42 L 1160.83 97.94 L 1157.17 95.96 L 1153.50 91.31 L 1149.83 86.72 L 1146.17 89.31 L 1142.50 91.95 L 1138.83 87.25 L 1135.17 80.35 L 1131.50 89.75 L 1127.83 85.03 L 1124.17 82.98 L 1120.50 85.21 L 1116.83 80.40 L 1113.17 82.94 L 1109.50 82.60 L 1105.83 77.74 L 1102.17 72.94 L 1098.50 65.94 L 1094.83 75.65 L 1091.17 70.76 L 1087.50 68.65 L 1083.83 63.64 L 1080.17 63.99 L 1055.42 58.92 L 1009.58 57.80 L 975.21 58.72 L 952.29 61.42 L 929.38 56.38 L 906.46 56.69 L 893.01 58.51 L 889.02 58.28 L 885.04 60.78 L 881.05 55.73 L 877.07 57.16 L 873.08 59.65 L 869.09 61.44 L 865.11 63.75 L 861.12 66.03 L 857.14 67.94 L 853.15 69.95 L 849.17 70.67 L 845.18 71.71 L 841.20 73.02 L 837.21 61.51 L 833.22 56.53 L 829.24 66.55 L 825.25 71.64 L 821.27 51.56 L 817.28 46.44 L 813.30 48.96 L 809.31 51.23 L 805.33 52.47 L 799.17 47.28 L 790.83 48.68 L 782.50 43.46 L 774.17 46.00 L 765.83 48.54 L 757.50 49.73 L 749.17 52.24 L 740.83 53.43 L 732.50 48.26 L 724.17 50.73 L 715.83 45.51 L 705.12 47.23 L 692.02 49.52 L 678.93 50.13 L 665.83 50.27 L 652.74 52.14 L 639.64 46.93 L 626.55 48.94 L 616.73 51.20 L 610.18 45.99 L 603.63 44.48 L 597.08 44.91 L 590.54 45.43 L 583.99 47.35 L 577.44 49.85 L 570.89 51.76 L 564.35 46.56 L 557.80 41.82 L 551.25 37.22 L 544.70 32.26 L 538.15 28.25 Z" fill="#d0d0d0" fill-opacity="0.5" stroke="none"/>
<polyline fill="none" stroke="#111" stroke-width="1.2" points="73.53,37.14 80.58,42.37 87.63,47.53 94.68,52.60 101.73,57.72 108.78,62.73 115.83,65.01 122.88,62.89 129.94,60.58 136.99,58.35 144.04,57.36 151.09,56.94 158.14,62.01 164.36,60.02 169.75,58.63 175.15,60.12 180.54,59.25 185.93,58.83 191.32,57.81 196.72,55.53 202.11,53.89 207.50,52.93 212.89,52.19 218.28,51.36 223.68,49.26 229.07,54.42 234.46,56.57 239.85,57.01 245.25,54.70 250.64,53.57 258.43,58.69 268.61,59.59 278.80,57.35 288.98,55.42 299.17,53.88 309.35,53.96 319.54,53.79 329.72,51.54 339.91,50.46 348.53,48.77 355.58,48.09 362.63,53.27 369.68,54.94 376.73,52.45 383.78,49.96 390.83,49.71 397.88,49.04 404.94,47.22 411.99,44.70 419.04,42.29 426.09,42.11 433.14,39.77 439.94,38.45 446.49,35.66 453.04,40.92 459.58,40.61 466.13,38.24 472.68,35.97 479.23,35.27 485.77,40.59 492.32,38.27 498.87,35.86 505.42,34.81 511.96,32.49 518.51,29.91 525.06,27.59 531.61,25.00 538.15,28.25 544.70,32.26 551.25,37.22 557.80,41.82 564.35,46.56 570.89,51.76 577.44,49.85 583.99,47.35 590.54,45.43 597.08,44.91 603.63,44.48 610.18,45.99 616.73,51.20 626.55,48.94 639.64,46.93 652.74,52.14 665.83,50.27 678.93,50.13 692.02,49.52 705.12,47.23 715.83,45.51 724.17,50.73 732.50,48.26 740.83,53.43 749.17,52.24 757.50,49.73 765.83,48.54 774.17,46.00 782.50,43.46 790.83,48.68 799.17,47.28 805.33,52.47 809.31,51.23 813.30,48.96 817.28,46.44 821.27,51.56 825.25,71.64 829.24,66.55 833.22,56.53 837.21,61.51 841.20,73.02 845.18,71.71 849.17,70.67 853.15,69.95 857.14,67.94 861.12,66.03 865.11,63.75 869.09,61.44 873.08,59.65 877.07,57.16 881.05,55.73 885.04,60.78 889.02,58.28 893.01,58.51 906.46,56.69 929.38,56.38 952.29,61.42 975.21,58.72 1009.58,57.80 1055.42,58.92 1080.17,63.99 1083.83,63.64 1087.50,68.65 1091.17,70.76 1094.83,75.65 1098.50,65.94 1102.17,72.94 1105.83,77.74 1109.50,82.60 1113.17,82.94 1116.83,80.40 1120.50,85.21 1124.17,82.98 1127.83,85.03 1131.50,89.75 1135.17,80.35 1138.83,87.25 1142.50,91.95 1146.17,89.31 1149.83,86.72 1153.50,91.31 1157.17,95.96 1160.83,97.94 1164.50,93.42 1168.17,102.51"/>
<text x="15" y="287.5" transform="rotate(-90 15,287.5)" text-anchor="middle" font-family="sans-serif" font-size="12" fill="#333">USD</text>
</svg>