<svg xmlns="http://www.w3.org/2000/svg" width="1200" height="600" viewBox="0 0 1200 600">
<desc>Equity curve with drawdown fill; x-axis is months only (no exact timestamps)</desc>
<text x="600.0" y="18.0" text-anchor="middle" font-family="sans-serif" font-size="14">Balance Curve 2005 (UTC)</text>
<rect x="70" y="25" width="1100" height="525" fill="white" stroke="#ccc" />
<line x1="70" y1="550.00" x2="1170" y2="550.00" stroke="#eee"/>
<text x="62" y="554.0" text-anchor="end" font-family="sans-serif" font-size="11" fill="#555">0.00</text>
<line x1="70" y1="445.00" x2="1170" y2="445.00" stroke="#eee"/>
<text x="62" y="449.0" text-anchor="end" font-family="sans-serif" font-size="11" fill="#555">25630</text>
<line x1="70" y1="340.00" x2="1170" y2="340.00" stroke="#eee"/>
<text x="62" y="344.0" text-anchor="end" font-family="sans-serif" font-size="11" fill="#555">51260</text>
<line x1="70" y1="235.00" x2="1170" y2="235.00" stroke="#eee"/>
<text x="62" y="239.0" text-anchor="end" font-family="sans-serif" font-size="11" fill="#555">76890</text>
<line x1="70" y1="130.00" x2="1170" y2="130.00" stroke="#eee"/>
<text x="62" y="134.0" text-anchor="end" font-family="sans-serif" font-size="11" fill="#555">102520</text>
<line x1="70" y1="25.00" x2="1170" y2="25.00" stroke="#eee"/>
<text x="62" y="29.0" text-anchor="end" font-family="sans-serif" font-size="11" fill="#555">128150</text>
<line x1="161.67" y1="25" x2="161.67" y2="550" stroke="#f2f2f2"/>
<line x1="253.33" y1="25" x2="253.33" y2="550" stroke="#f2f2f2"/>
<line x1="345.00" y1="25" x2="345.00" y2="550" stroke="#f2f2f2"/>
<line x1="436.67" y1="25" x2="436.67" y2="550" stroke="#f2f2f2"/>
<line x1="528.33" y1="25" x2="528.33" y2="550" stroke="#f2f2f2"/>
<line x1="620.00" y1="25" x2="620.00" y2="550" stroke="#f2f2f2"/>
<line x1="711.67" y1="25" x2="711.67" y2="550" stroke="#f2f2f2"/>
<line x1="803.33" y1="25" x2="803.33" y2="550" stroke="#f2f2f2"/>
<line x1="895.00" y1="25" x2="895.00" y2="550" stroke="#f2f2f2"/>
<line x1="986.67" y1="25" x2="986.67" y2="550" stroke="#f2f2f2"/>
<line x1="1078.33" y1="25" x2="1078.33" y2="550" stroke="#f2f2f2"/>
<text x="115.83" y="566.00" text-anchor="middle" font-family="sans-serif" font-size="11" fill="#444">Jan</text>
<text x="207.50" y="566.00" text-anchor="middle" font-family="sans-serif" font-size="11" fill="#444">Feb</text>
<text x="299.17" y="566.00" text-anchor="middle" font-family="sans-serif" font-size="11" fill="#444">Mar</text>
<text x="390.83" y="566.00" text-anchor="middle" font-family="sans-serif" font-size="11" fill="#444">Apr</text>
<text x="482.50" y="566.00" text-anchor="middle" font-family="sans-serif" font-size="11" fill="#444">May</text>
<text x="574.17" y="566.00" text-anchor="middle" font-family="sans-serif" font-size="11" fill="#444">Jun</text>
<text x="665.83" y="566.00" text-anchor="middle" font-family="sans-serif" font-size="11" fill="#444">Jul</text>
<text x="757.50" y="566.00" text-anchor="middle" font-family="sans-serif" font-size="11" fill="#444">Aug</text>
<text x="849.17" y="566.00" text-anchor="middle" font-family="sans-serif" font-size="11" fill="#444">Sep</text>
<text x="940.83" y="566.00" text-anchor="middle" font-family="sans-serif" font-size="11" fill="#444">Oct</text>
<text x="1032.50" y="566.00" text-anchor="middle" font-family="sans-serif" font-size="11" fill="#444">Nov</text>
<text x="1124.17" y="566.00" text-anchor="middle" font-family="sans-serif" font-size="11" fill="#444">Dec</text>
<line x1="70" y1="550" x2="1170" y2="550" stroke="#888"/>
<line x1="70" y1="25" x2="70" y2="550" stroke="#888"/>
<line x1="79.17" y1="550.00" x2="79.17" y2="556.00" stroke="#888"/>
<line x1="1160.83"   y1="550.00" x2="1160.83"   y2="556.00" stroke="#888"/>
<text x="79.17" y="582.00" text-anchor="start" font-family="sans-serif" font-size="11" fill="#333">Initial Balance: 126465</text>
<text x="1160.83"   y="582.00" text-anchor="end"   font-family="sans-serif" font-size="11" fill="#333">Ending Balance: 119622</text>
<path d="M 134.17 25.00 L 152.50 25.00 L 170.83 25.00 L 189.17 25.00 L 207.50 25.00 L 225.83 25.00 L 244.17 25.00 L 264.79 25.00 L 287.71 25.00 L 310.62 25.00 L 333.54 25.00 L 356.46 25.00 L 379.38 25.00 L 402.29 25.00 L 425.21 25.00 L 442.40 25.00 L 453.85 25.00 L 465.31 25.00 L 476.77 25.00 L 488.23 25.00 L 499.69 25.00 L 511.15 25.00 L 522.60 25.00 L 535.97 25.00 L 551.25 25.00 L 566.53 25.00 L 581.81 25.00 L 597.08 25.00 L 612.36 25.00 L 623.82 25.00 L 631.46 25.00 L 639.10 25.00 L 646.74 25.00 L 654.38 25.00 L 662.01 25.00 L 669.65 25.00 L 677.29 25.00 L 684.93 25.00 L 692.57 25.00 L 700.21 25.00 L 707.85 25.00 L 723.12 25.00 L 746.04 25.00 L 768.96 25.00 L 791.88 25.00 L 826.25 25.00 L 872.08 25.00 L 900.73 25.00 L 912.19 25.00 L 923.65 25.00 L 935.10 25.00 L 946.56 25.00 L 958.02 25.00 L 969.48 25.00 L 980.94 25.00 L 998.12 25.00 L 1021.04 25.00 L 1043.96 25.00 L 1066.88 25.00 L 1087.50 25.00 L 1105.83 25.00 L 1124.17 25.00 L 1142.50 25.00 L 1160.83 25.00 L 1160.83 59.94 L 1142.50 55.05 L 1124.17 58.07 L 1105.83 50.44 L 1087.50 53.08 L 1066.88 56.71 L 1043.96 58.40 L 1021.04 62.34 L 998.12 65.76 L 980.94 58.25 L 969.48 61.83 L 958.02 54.26 L 946.56 57.84 L 935.10 58.91 L 923.65 62.48 L 912.19 64.35 L 900.73 64.36 L 872.08 56.83 L 826.25 58.68 L 791.88 51.08 L 768.96 51.89 L 746.04 44.17 L 723.12 45.48 L 707.85 48.87 L 700.21 46.27 L 692.57 46.84 L 684.93 50.47 L 677.29 42.73 L 669.65 34.93 L 662.01 26.94 L 654.38 28.50 L 646.74 26.95 L 639.10 27.76 L 631.46 31.01 L 623.82 34.59 L 612.36 26.60 L 597.08 29.55 L 581.81 31.53 L 566.53 34.86 L 551.25 38.17 L 535.97 39.20 L 522.60 43.32 L 511.15 43.18 L 499.69 44.33 L 488.23 36.50 L 476.77 40.66 L 465.31 44.79 L 453.85 41.63 L 442.40 45.75 L 425.21 37.95 L 402.29 39.64 L 379.38 41.41 L 356.46 33.55 L 333.54 25.56 L 310.62 28.67 L 287.71 31.47 L 264.79 34.51 L 244.17 37.88 L 225.83 41.47 L 207.50 33.60 L 189.17 34.87 L 170.83 36.64 L 152.50 28.71 L 134.17 32.94 Z" fill="#d0d0d0" fill-opacity="0.5" stroke="none"/>
<polyline fill="none" stroke="#111" stroke-width="1.2" points="79.17,31.90 97.50,29.26 115.83,25.00 134.17,32.94 152.50,28.71 170.83,36.64 189.17,34.87 207.50,33.60 225.83,41.47 244.17,37.88 264.79,34.51 287.71,31.47 310.62,28.67 333.54,25.56 356.46,33.55 379.38,41.41 402.29,39.64 425.21,37.95 442.40,45.75 453.85,41.63 465.31,44.79 476.77,40.66 488.23,36.50 499.69,44.33 511.15,43.18 522.60,43.32 535.97,39.20 551.25,38.17 566.53,34.86 581.81,31.53 597.08,29.55 612.36,26.60 623.82,34.59 631.46,31.01 639.10,27.76 646.74,26.95 654.38,28.50 662.01,26.94 669.65,34.93 677.29,42.73 684.93,50.47 692.57,46.84 700.21,46.27 707.85,48.87 723.12,45.48 746.04,44.17 768.96,51.89 791.88,51.08 826.25,58.68 872.08,56.83 900.73,64.36 912.19,64.35 923.65,62.48 935.10,58.91 946.56,57.84 958.02,54.26 969.48,61.83 980.94,58.25 998.12,65.76 1021.04,62.34 1043.96,58.40 1066.88,56.71 1087.50,53.08 1105.83,50.44 1124.17,58.07 1142.50,55.05 1160.83,59.94"/>
<text x="15" y="287.5" transform="rotate(-90 15,287.5)" text-anchor="middle" font-family="sans-serif" font-size="12" fill="#333">USD</text>
</svg>