<svg xmlns="http://www.w3.org/2000/svg" width="1200" height="600" viewBox="0 0 1200 600">
<desc>Equity curve with drawdown fill</desc>
<text x="600.0" y="18.0" text-anchor="middle" font-family="sans-serif" font-size="14">Portfolio 2023</text>
<rect x="70" y="25" width="1100" height="525" fill="white" stroke="#ccc" />
<line x1="70" y1="550.00" x2="1170" y2="550.00" stroke="#eee"/>
<text x="62" y="554.0" text-anchor="end" font-family="sans-serif" font-size="11" fill="#555">0.00</text>
<line x1="70" y1="445.00" x2="1170" y2="445.00" stroke="#eee"/>
<text x="62" y="449.0" text-anchor="end" font-family="sans-serif" font-size="11" fill="#555">54169</text>
<line x1="70" y1="340.00" x2="1170" y2="340.00" stroke="#eee"/>
<text x="62" y="344.0" text-anchor="end" font-family="sans-serif" font-size="11" fill="#555">108338</text>
<line x1="70" y1="235.00" x2="1170" y2="235.00" stroke="#eee"/>
<text x="62" y="239.0" text-anchor="end" font-family="sans-serif" font-size="11" fill="#555">162507</text>
<line x1="70" y1="130.00" x2="1170" y2="130.00" stroke="#eee"/>
<text x="62" y="134.0" text-anchor="end" font-family="sans-serif" font-size="11" fill="#555">216676</text>
<line x1="70" y1="25.00" x2="1170" y2="25.00" stroke="#eee"/>
<text x="62" y="29.0" text-anchor="end" font-family="sans-serif" font-size="11" fill="#555">270845</text>
<line x1="157.75" y1="25" x2="157.75" y2="550" stroke="#f2f2f2"/>
<text x="157.75" y="566" text-anchor="middle" font-family="sans-serif" font-size="11" fill="#555">Feb</text>
<line x1="243.48" y1="25" x2="243.48" y2="550" stroke="#f2f2f2"/>
<text x="243.48" y="566" text-anchor="middle" font-family="sans-serif" font-size="11" fill="#555">Mar</text>
<line x1="338.40" y1="25" x2="338.40" y2="550" stroke="#f2f2f2"/>
<text x="338.40" y="566" text-anchor="middle" font-family="sans-serif" font-size="11" fill="#555">Apr</text>
<line x1="430.26" y1="25" x2="430.26" y2="550" stroke="#f2f2f2"/>
<text x="430.26" y="566" text-anchor="middle" font-family="sans-serif" font-size="11" fill="#555">May</text>
<line x1="525.18" y1="25" x2="525.18" y2="550" stroke="#f2f2f2"/>
<text x="525.18" y="566" text-anchor="middle" font-family="sans-serif" font-size="11" fill="#555">Jun</text>
<line x1="617.04" y1="25" x2="617.04" y2="550" stroke="#f2f2f2"/>
<text x="617.04" y="566" text-anchor="middle" font-family="sans-serif" font-size="11" fill="#555">Jul</text>
<line x1="711.96" y1="25" x2="711.96" y2="550" stroke="#f2f2f2"/>
<text x="711.96" y="566" text-anchor="middle" font-family="sans-serif" font-size="11" fill="#555">Aug</text>
<line x1="806.88" y1="25" x2="806.88" y2="550" stroke="#f2f2f2"/>
<text x="806.88" y="566" text-anchor="middle" font-family="sans-serif" font-size="11" fill="#555">Sep</text>
<line x1="898.74" y1="25" x2="898.74" y2="550" stroke="#f2f2f2"/>
<text x="898.74" y="566" text-anchor="middle" font-family="sans-serif" font-size="11" fill="#555">Oct</text>
<line x1="993.66" y1="25" x2="993.66" y2="550" stroke="#f2f2f2"/>
<text x="993.66" y="566" text-anchor="middle" font-family="sans-serif" font-size="11" fill="#555">Nov</text>
<line x1="1085.52" y1="25" x2="1085.52" y2="550" stroke="#f2f2f2"/>
<text x="1085.52" y="566" text-anchor="middle" font-family="sans-serif" font-size="11" fill="#555">Dec</text>
<line x1="70" y1="550" x2="1170" y2="550" stroke="#888"/>
<line x1="70" y1="25" x2="70" y2="550" stroke="#888"/>
<path d="M 70.00 44.52 L 70.11 44.52 L 70.14 44.52 L 70.85 44.52 L 73.12 44.52 L 76.98 44.52 L 79.94 44.52 L 80.08 44.52 L 80.32 44.52 L 80.46 44.52 L 89.09 44.52 L 98.23 44.52 L 98.31 44.52 L 98.86 44.52 L 113.91 44.52 L 116.01 44.52 L 116.74 44.52 L 117.17 44.52 L 138.27 44.52 L 160.73 44.52 L 162.61 44.52 L 162.76 44.52 L 165.59 44.52 L 165.76 44.52 L 165.82 44.52 L 178.41 44.52 L 199.28 44.52 L 199.42 44.52 L 199.42 45.80 L 199.28 48.38 L 178.41 51.17 L 165.82 46.07 L 165.76 48.45 L 165.59 50.22 L 162.76 53.15 L 162.61 55.43 L 160.73 57.57 L 138.27 59.63 L 117.17 61.59 L 116.74 61.45 L 116.01 63.95 L 113.91 62.61 L 98.86 63.16 L 98.31 64.30 L 98.23 66.69 L 89.09 69.39 L 80.46 70.98 L 80.32 68.69 L 80.08 64.44 L 79.94 59.48 L 76.98 61.49 L 73.12 56.50 L 70.85 57.43 L 70.14 59.63 L 70.11 54.67 L 70.00 49.63 Z" fill="#d0d0d0" fill-opacity="0.5" stroke="none"/>
<path d="M 264.22 39.53 L 273.13 39.53 L 280.66 39.53 L 281.47 39.53 L 281.47 40.89 L 280.66 41.92 L 273.13 42.88 L 264.22 44.69 Z" fill="#d0d0d0" fill-opacity="0.5" stroke="none"/>
<path d="M 287.69 38.32 L 288.01 38.32 L 288.30 38.32 L 288.52 38.32 L 303.46 38.32 L 313.27 38.32 L 314.96 38.32 L 315.35 38.32 L 315.44 38.32 L 367.70 38.32 L 373.87 38.32 L 380.15 38.32 L 389.70 38.32 L 389.70 39.74 L 380.15 38.43 L 373.87 40.72 L 367.70 41.96 L 315.44 43.66 L 315.35 43.47 L 314.96 44.39 L 313.27 46.61 L 303.46 49.19 L 288.52 51.66 L 288.30 50.78 L 288.01 48.60 L 287.69 43.50 Z" fill="#d0d0d0" fill-opacity="0.5" stroke="none"/>
<path d="M 570.26 25.00 L 593.63 25.00 L 612.86 25.00 L 616.10 25.00 L 637.15 25.00 L 652.46 25.00 L 677.47 25.00 L 688.67 25.00 L 698.83 25.00 L 698.92 25.00 L 701.46 25.00 L 717.02 25.00 L 722.96 25.00 L 753.69 25.00 L 780.45 25.00 L 799.68 25.00 L 809.11 25.00 L 848.41 25.00 L 867.50 25.00 L 915.81 25.00 L 915.85 25.00 L 916.18 25.00 L 934.18 25.00 L 956.04 25.00 L 991.88 25.00 L 1001.38 25.00 L 1001.46 25.00 L 1001.57 25.00 L 1035.19 25.00 L 1035.37 25.00 L 1035.44 25.00 L 1096.57 25.00 L 1108.68 25.00 L 1124.72 25.00 L 1124.87 25.00 L 1127.16 25.00 L 1130.16 25.00 L 1170.00 25.00 L 1170.00 35.30 L 1130.16 37.43 L 1127.16 39.12 L 1124.87 41.12 L 1124.72 39.72 L 1108.68 34.50 L 1096.57 37.39 L 1035.44 39.45 L 1035.37 34.23 L 1035.19 28.98 L 1001.57 31.89 L 1001.46 34.00 L 1001.38 35.92 L 991.88 38.79 L 956.04 41.34 L 934.18 43.97 L 916.18 46.57 L 915.85 41.42 L 915.81 43.69 L 867.50 38.51 L 848.41 41.10 L 809.11 35.89 L 799.68 33.28 L 780.45 34.39 L 753.69 36.47 L 722.96 38.05 L 717.02 32.82 L 701.46 35.13 L 698.92 35.96 L 698.83 35.40 L 688.67 33.02 L 677.47 32.73 L 652.46 27.45 L 637.15 30.09 L 616.10 32.98 L 612.86 33.77 L 593.63 35.56 L 570.26 30.31 Z" fill="#d0d0d0" fill-opacity="0.5" stroke="none"/>
<polyline fill="none" stroke="#111" stroke-width="1.2" points="70.00,49.63 70.11,54.67 70.14,59.63 70.85,57.43 73.12,56.50 76.98,61.49 79.94,59.48 80.08,64.44 80.32,68.69 80.46,70.98 89.09,69.39 98.23,66.69 98.31,64.30 98.86,63.16 113.91,62.61 116.01,63.95 116.74,61.45 117.17,61.59 138.27,59.63 160.73,57.57 162.61,55.43 162.76,53.15 165.59,50.22 165.76,48.45 165.82,46.07 178.41,51.17 199.28,48.38 199.42,45.80 199.60,43.46 208.71,41.13 245.19,39.53 264.22,44.69 273.13,42.88 280.66,41.92 281.47,40.89 282.29,38.32 287.69,43.50 288.01,48.60 288.30,50.78 288.52,51.66 303.46,49.19 313.27,46.61 314.96,44.39 315.35,43.47 315.44,43.66 367.70,41.96 373.87,40.72 380.15,38.43 389.70,39.74 413.96,37.71 438.82,34.83 441.57,34.43 444.23,31.52 459.73,28.81 461.97,27.66 527.11,25.00 570.26,30.31 593.63,35.56 612.86,33.77 616.10,32.98 637.15,30.09 652.46,27.45 677.47,32.73 688.67,33.02 698.83,35.40 698.92,35.96 701.46,35.13 717.02,32.82 722.96,38.05 753.69,36.47 780.45,34.39 799.68,33.28 809.11,35.89 848.41,41.10 867.50,38.51 915.81,43.69 915.85,41.42 916.18,46.57 934.18,43.97 956.04,41.34 991.88,38.79 1001.38,35.92 1001.46,34.00 1001.57,31.89 1035.19,28.98 1035.37,34.23 1035.44,39.45 1096.57,37.39 1108.68,34.50 1124.72,39.72 1124.87,41.12 1127.16,39.12 1130.16,37.43 1170.00,35.30"/>
<text x="620.0" y="588" text-anchor="middle" font-family="sans-serif" font-size="12" fill="#333">UTC time</text>
<text x="15" y="287.5" transform="rotate(-90 15,287.5)" text-anchor="middle" font-family="sans-serif" font-size="12" fill="#333">Capital</text>
</svg>