<svg xmlns="http://www.w3.org/2000/svg" width="1200" height="600" viewBox="0 0 1200 600">
<desc>Equity curve with drawdown fill</desc>
<text x="600.0" y="18.0" text-anchor="middle" font-family="sans-serif" font-size="14">Portfolio 2018</text>
<rect x="70" y="25" width="1100" height="525" fill="white" stroke="#ccc" />
<line x1="70" y1="550.00" x2="1170" y2="550.00" stroke="#eee"/>
<text x="62" y="554.0" text-anchor="end" font-family="sans-serif" font-size="11" fill="#555">0.00</text>
<line x1="70" y1="445.00" x2="1170" y2="445.00" stroke="#eee"/>
<text x="62" y="449.0" text-anchor="end" font-family="sans-serif" font-size="11" fill="#555">21354</text>
<line x1="70" y1="340.00" x2="1170" y2="340.00" stroke="#eee"/>
<text x="62" y="344.0" text-anchor="end" font-family="sans-serif" font-size="11" fill="#555">42708</text>
<line x1="70" y1="235.00" x2="1170" y2="235.00" stroke="#eee"/>
<text x="62" y="239.0" text-anchor="end" font-family="sans-serif" font-size="11" fill="#555">64062</text>
<line x1="70" y1="130.00" x2="1170" y2="130.00" stroke="#eee"/>
<text x="62" y="134.0" text-anchor="end" font-family="sans-serif" font-size="11" fill="#555">85416</text>
<line x1="70" y1="25.00" x2="1170" y2="25.00" stroke="#eee"/>
<text x="62" y="29.0" text-anchor="end" font-family="sans-serif" font-size="11" fill="#555">106770</text>
<line x1="138.85" y1="25" x2="138.85" y2="550" stroke="#f2f2f2"/>
<text x="138.85" y="566" text-anchor="middle" font-family="sans-serif" font-size="11" fill="#555">Feb</text>
<line x1="228.39" y1="25" x2="228.39" y2="550" stroke="#f2f2f2"/>
<text x="228.39" y="566" text-anchor="middle" font-family="sans-serif" font-size="11" fill="#555">Mar</text>
<line x1="327.53" y1="25" x2="327.53" y2="550" stroke="#f2f2f2"/>
<text x="327.53" y="566" text-anchor="middle" font-family="sans-serif" font-size="11" fill="#555">Apr</text>
<line x1="423.47" y1="25" x2="423.47" y2="550" stroke="#f2f2f2"/>
<text x="423.47" y="566" text-anchor="middle" font-family="sans-serif" font-size="11" fill="#555">May</text>
<line x1="522.61" y1="25" x2="522.61" y2="550" stroke="#f2f2f2"/>
<text x="522.61" y="566" text-anchor="middle" font-family="sans-serif" font-size="11" fill="#555">Jun</text>
<line x1="618.55" y1="25" x2="618.55" y2="550" stroke="#f2f2f2"/>
<text x="618.55" y="566" text-anchor="middle" font-family="sans-serif" font-size="11" fill="#555">Jul</text>
<line x1="717.68" y1="25" x2="717.68" y2="550" stroke="#f2f2f2"/>
<text x="717.68" y="566" text-anchor="middle" font-family="sans-serif" font-size="11" fill="#555">Aug</text>
<line x1="816.82" y1="25" x2="816.82" y2="550" stroke="#f2f2f2"/>
<text x="816.82" y="566" text-anchor="middle" font-family="sans-serif" font-size="11" fill="#555">Sep</text>
<line x1="912.76" y1="25" x2="912.76" y2="550" stroke="#f2f2f2"/>
<text x="912.76" y="566" text-anchor="middle" font-family="sans-serif" font-size="11" fill="#555">Oct</text>
<line x1="1011.90" y1="25" x2="1011.90" y2="550" stroke="#f2f2f2"/>
<text x="1011.90" y="566" text-anchor="middle" font-family="sans-serif" font-size="11" fill="#555">Nov</text>
<line x1="1107.84" y1="25" x2="1107.84" y2="550" stroke="#f2f2f2"/>
<text x="1107.84" y="566" text-anchor="middle" font-family="sans-serif" font-size="11" fill="#555">Dec</text>
<line x1="70" y1="550" x2="1170" y2="550" stroke="#888"/>
<line x1="70" y1="25" x2="70" y2="550" stroke="#888"/>
<path d="M 73.43 58.03 L 76.04 58.03 L 85.92 58.03 L 85.92 59.14 L 76.04 60.23 L 73.43 62.99 Z" fill="#d0d0d0" fill-opacity="0.5" stroke="none"/>
<path d="M 118.29 53.57 L 118.37 53.57 L 118.57 53.57 L 119.00 53.57 L 119.14 53.57 L 119.14 55.44 L 119.00 55.34 L 118.57 58.14 L 118.37 57.26 L 118.29 58.58 Z" fill="#d0d0d0" fill-opacity="0.5" stroke="none"/>
<path d="M 252.94 37.46 L 252.94 38.81 Z" fill="#d0d0d0" fill-opacity="0.5" stroke="none"/>
<path d="M 409.67 35.45 L 429.27 35.45 L 435.01 35.45 L 454.21 35.45 L 470.21 35.45 L 491.86 35.45 L 495.05 35.45 L 501.98 35.45 L 514.37 35.45 L 514.37 37.50 L 501.98 36.82 L 495.05 38.73 L 491.86 39.57 L 470.21 41.63 L 454.21 36.45 L 435.01 36.74 L 429.27 38.86 L 409.67 40.63 Z" fill="#d0d0d0" fill-opacity="0.5" stroke="none"/>
<path d="M 565.90 25.00 L 566.03 25.00 L 566.03 25.00 L 566.16 25.00 L 566.18 25.00 L 566.29 25.00 L 581.48 25.00 L 588.40 25.00 L 612.63 25.00 L 636.37 25.00 L 653.01 25.00 L 678.62 25.00 L 681.27 25.00 L 747.29 25.00 L 747.38 25.00 L 747.47 25.00 L 781.85 25.00 L 784.23 25.00 L 793.26 25.00 L 831.56 25.00 L 837.94 25.00 L 857.15 25.00 L 879.43 25.00 L 900.91 25.00 L 1048.03 25.00 L 1055.50 25.00 L 1057.98 25.00 L 1061.79 25.00 L 1083.47 25.00 L 1100.53 25.00 L 1100.58 25.00 L 1100.68 25.00 L 1138.84 25.00 L 1150.74 25.00 L 1170.00 25.00 L 1170.00 48.05 L 1150.74 45.31 L 1138.84 43.45 L 1100.68 44.63 L 1100.58 39.48 L 1100.53 41.46 L 1083.47 36.27 L 1061.79 37.82 L 1057.98 32.61 L 1055.50 35.51 L 1048.03 37.12 L 900.91 38.60 L 879.43 40.97 L 857.15 40.29 L 837.94 35.10 L 831.56 35.25 L 793.26 37.32 L 784.23 39.96 L 781.85 39.85 L 747.47 42.71 L 747.38 44.91 L 747.29 45.94 L 681.27 48.77 L 678.62 48.04 L 653.01 48.66 L 636.37 50.03 L 612.63 52.38 L 588.40 55.17 L 581.48 50.12 L 566.29 51.64 L 566.18 50.79 L 566.16 45.75 L 566.03 40.63 L 566.03 35.49 L 565.90 30.28 Z" fill="#d0d0d0" fill-opacity="0.5" stroke="none"/>
<polyline fill="none" stroke="#111" stroke-width="1.2" points="70.00,58.03 73.43,62.99 76.04,60.23 85.92,59.14 88.64,56.37 90.98,53.57 118.29,58.58 118.37,57.26 118.57,58.14 119.00,55.34 119.14,55.44 120.72,53.17 144.10,51.28 155.96,48.99 156.63,48.26 182.22,45.41 182.44,42.54 224.02,39.95 252.50,37.46 252.94,38.81 316.75,37.02 358.03,35.45 409.67,40.63 429.27,38.86 435.01,36.74 454.21,36.45 470.21,41.63 491.86,39.57 495.05,38.73 501.98,36.82 514.37,37.50 517.43,35.27 518.41,32.36 524.65,29.45 537.76,27.93 560.23,25.00 565.90,30.28 566.03,35.49 566.03,40.63 566.16,45.75 566.18,50.79 566.29,51.64 581.48,50.12 588.40,55.17 612.63,52.38 636.37,50.03 653.01,48.66 678.62,48.04 681.27,48.77 747.29,45.94 747.38,44.91 747.47,42.71 781.85,39.85 784.23,39.96 793.26,37.32 831.56,35.25 837.94,35.10 857.15,40.29 879.43,40.97 900.91,38.60 1048.03,37.12 1055.50,35.51 1057.98,32.61 1061.79,37.82 1083.47,36.27 1100.53,41.46 1100.58,39.48 1100.68,44.63 1138.84,43.45 1150.74,45.31 1170.00,48.05"/>
<text x="620.0" y="588" text-anchor="middle" font-family="sans-serif" font-size="12" fill="#333">UTC time</text>
<text x="15" y="287.5" transform="rotate(-90 15,287.5)" text-anchor="middle" font-family="sans-serif" font-size="12" fill="#333">Capital</text>
</svg>