<svg xmlns="http://www.w3.org/2000/svg" width="1200" height="600" viewBox="0 0 1200 600">
<desc>Equity curve with drawdown fill; x-axis is months only (no exact timestamps)</desc>
<text x="600.0" y="18.0" text-anchor="middle" font-family="sans-serif" font-size="14">Portfolio 2010 (UTC)</text>
<rect x="70" y="25" width="1100" height="525" fill="white" stroke="#ccc" />
<line x1="70" y1="550.00" x2="1170" y2="550.00" stroke="#eee"/>
<text x="62" y="554.0" text-anchor="end" font-family="sans-serif" font-size="11" fill="#555">0.00</text>
<line x1="70" y1="445.00" x2="1170" y2="445.00" stroke="#eee"/>
<text x="62" y="449.0" text-anchor="end" font-family="sans-serif" font-size="11" fill="#555">53741</text>
<line x1="70" y1="340.00" x2="1170" y2="340.00" stroke="#eee"/>
<text x="62" y="344.0" text-anchor="end" font-family="sans-serif" font-size="11" fill="#555">107482</text>
<line x1="70" y1="235.00" x2="1170" y2="235.00" stroke="#eee"/>
<text x="62" y="239.0" text-anchor="end" font-family="sans-serif" font-size="11" fill="#555">161223</text>
<line x1="70" y1="130.00" x2="1170" y2="130.00" stroke="#eee"/>
<text x="62" y="134.0" text-anchor="end" font-family="sans-serif" font-size="11" fill="#555">214964</text>
<line x1="70" y1="25.00" x2="1170" y2="25.00" stroke="#eee"/>
<text x="62" y="29.0" text-anchor="end" font-family="sans-serif" font-size="11" fill="#555">268705</text>
<line x1="161.67" y1="25" x2="161.67" y2="550" stroke="#f2f2f2"/>
<line x1="253.33" y1="25" x2="253.33" y2="550" stroke="#f2f2f2"/>
<line x1="345.00" y1="25" x2="345.00" y2="550" stroke="#f2f2f2"/>
<line x1="436.67" y1="25" x2="436.67" y2="550" stroke="#f2f2f2"/>
<line x1="528.33" y1="25" x2="528.33" y2="550" stroke="#f2f2f2"/>
<line x1="620.00" y1="25" x2="620.00" y2="550" stroke="#f2f2f2"/>
<line x1="711.67" y1="25" x2="711.67" y2="550" stroke="#f2f2f2"/>
<line x1="803.33" y1="25" x2="803.33" y2="550" stroke="#f2f2f2"/>
<line x1="895.00" y1="25" x2="895.00" y2="550" stroke="#f2f2f2"/>
<line x1="986.67" y1="25" x2="986.67" y2="550" stroke="#f2f2f2"/>
<line x1="1078.33" y1="25" x2="1078.33" y2="550" stroke="#f2f2f2"/>
<text x="115.83" y="566.00" text-anchor="middle" font-family="sans-serif" font-size="11" fill="#444">Jan</text>
<text x="207.50" y="566.00" text-anchor="middle" font-family="sans-serif" font-size="11" fill="#444">Feb</text>
<text x="299.17" y="566.00" text-anchor="middle" font-family="sans-serif" font-size="11" fill="#444">Mar</text>
<text x="390.83" y="566.00" text-anchor="middle" font-family="sans-serif" font-size="11" fill="#444">Apr</text>
<text x="482.50" y="566.00" text-anchor="middle" font-family="sans-serif" font-size="11" fill="#444">May</text>
<text x="574.17" y="566.00" text-anchor="middle" font-family="sans-serif" font-size="11" fill="#444">Jun</text>
<text x="665.83" y="566.00" text-anchor="middle" font-family="sans-serif" font-size="11" fill="#444">Jul</text>
<text x="757.50" y="566.00" text-anchor="middle" font-family="sans-serif" font-size="11" fill="#444">Aug</text>
<text x="849.17" y="566.00" text-anchor="middle" font-family="sans-serif" font-size="11" fill="#444">Sep</text>
<text x="940.83" y="566.00" text-anchor="middle" font-family="sans-serif" font-size="11" fill="#444">Oct</text>
<text x="1032.50" y="566.00" text-anchor="middle" font-family="sans-serif" font-size="11" fill="#444">Nov</text>
<text x="1124.17" y="566.00" text-anchor="middle" font-family="sans-serif" font-size="11" fill="#444">Dec</text>
<line x1="70" y1="550" x2="1170" y2="550" stroke="#888"/>
<line x1="70" y1="25" x2="70" y2="550" stroke="#888"/>
<line x1="75.09" y1="550.00" x2="75.09" y2="556.00" stroke="#888"/>
<line x1="1167.30"   y1="550.00" x2="1167.30"   y2="556.00" stroke="#888"/>
<text x="75.09" y="582.00" text-anchor="start" font-family="sans-serif" font-size="11" fill="#333">Initial Balance: 175946</text>
<text x="1167.30"   y="582.00" text-anchor="end"   font-family="sans-serif" font-size="11" fill="#333">Ending Balance: 268705</text>
<path d="M 115.83 198.65 L 115.83 198.95 Z" fill="#d0d0d0" fill-opacity="0.5" stroke="none"/>
<path d="M 207.50 184.24 L 225.83 184.24 L 244.17 184.24 L 244.17 184.81 L 225.83 186.98 L 207.50 189.76 Z" fill="#d0d0d0" fill-opacity="0.5" stroke="none"/>
<path d="M 306.81 176.36 L 306.81 177.37 Z" fill="#d0d0d0" fill-opacity="0.5" stroke="none"/>
<path d="M 398.47 167.21 L 413.75 167.21 L 429.03 167.21 L 437.60 167.21 L 439.47 167.21 L 441.34 167.21 L 443.21 167.21 L 445.09 167.21 L 446.96 167.21 L 448.83 167.21 L 450.70 167.21 L 452.57 167.21 L 452.57 167.58 L 450.70 170.77 L 448.83 173.92 L 446.96 176.78 L 445.09 179.45 L 443.21 182.27 L 441.34 185.01 L 439.47 187.36 L 437.60 181.79 L 429.03 176.15 L 413.75 170.42 L 398.47 172.97 Z" fill="#d0d0d0" fill-opacity="0.5" stroke="none"/>
<path d="M 471.28 146.65 L 473.15 146.65 L 475.02 146.65 L 475.02 149.39 L 473.15 151.06 L 471.28 152.70 Z" fill="#d0d0d0" fill-opacity="0.5" stroke="none"/>
<path d="M 482.50 141.06 L 484.37 141.06 L 486.24 141.06 L 488.11 141.06 L 489.98 141.06 L 491.85 141.06 L 493.72 141.06 L 495.60 139.28 L 497.47 139.28 L 497.47 151.38 L 495.60 145.28 L 493.72 142.84 L 491.85 144.03 L 489.98 147.26 L 488.11 141.14 L 486.24 142.99 L 484.37 143.98 L 482.50 147.18 Z" fill="#d0d0d0" fill-opacity="0.5" stroke="none"/>
<path d="M 501.21 139.28 L 503.08 139.28 L 504.95 139.28 L 506.82 139.28 L 508.69 139.28 L 508.69 141.35 L 506.82 143.53 L 504.95 146.48 L 503.08 148.56 L 501.21 148.81 Z" fill="#d0d0d0" fill-opacity="0.5" stroke="none"/>
<path d="M 563.38 104.44 L 568.77 104.44 L 574.17 104.44 L 579.56 104.44 L 584.95 104.44 L 590.34 104.44 L 595.74 104.44 L 595.74 105.81 L 590.34 108.80 L 584.95 107.47 L 579.56 105.53 L 574.17 106.08 L 568.77 108.03 L 563.38 111.03 Z" fill="#d0d0d0" fill-opacity="0.5" stroke="none"/>
<path d="M 706.57 77.05 L 719.31 77.05 L 734.58 77.05 L 749.86 77.05 L 765.14 77.05 L 780.42 77.05 L 795.69 77.05 L 812.50 77.05 L 830.83 77.05 L 849.17 77.05 L 867.50 77.05 L 885.83 77.05 L 897.86 77.05 L 903.59 77.05 L 903.59 79.62 L 897.86 81.21 L 885.83 84.21 L 867.50 85.59 L 849.17 87.74 L 830.83 89.12 L 812.50 88.51 L 795.69 86.35 L 780.42 89.76 L 765.14 92.18 L 749.86 94.40 L 734.58 91.93 L 719.31 85.16 L 706.57 78.28 Z" fill="#d0d0d0" fill-opacity="0.5" stroke="none"/>
<path d="M 915.05 75.78 L 920.78 75.78 L 920.78 78.99 L 915.05 82.69 Z" fill="#d0d0d0" fill-opacity="0.5" stroke="none"/>
<path d="M 932.24 75.12 L 932.24 76.90 Z" fill="#d0d0d0" fill-opacity="0.5" stroke="none"/>
<path d="M 1016.13 44.67 L 1022.68 44.67 L 1029.23 44.67 L 1035.77 44.67 L 1042.32 44.67 L 1048.87 44.67 L 1055.42 44.67 L 1061.96 44.67 L 1068.51 44.67 L 1075.06 44.67 L 1081.03 44.67 L 1086.42 44.67 L 1091.81 44.67 L 1097.21 44.67 L 1097.21 46.01 L 1091.81 49.13 L 1086.42 52.23 L 1081.03 45.06 L 1075.06 49.23 L 1068.51 52.84 L 1061.96 55.04 L 1055.42 58.22 L 1048.87 51.03 L 1042.32 53.64 L 1035.77 46.40 L 1029.23 49.37 L 1022.68 51.25 L 1016.13 51.92 Z" fill="#d0d0d0" fill-opacity="0.5" stroke="none"/>
<path d="M 1129.56 33.69 L 1134.95 33.69 L 1140.34 33.69 L 1140.34 34.88 L 1134.95 34.71 L 1129.56 35.52 Z" fill="#d0d0d0" fill-opacity="0.5" stroke="none"/>
<path d="M 1151.13 30.76 L 1151.13 33.65 Z" fill="#d0d0d0" fill-opacity="0.5" stroke="none"/>
<polyline fill="none" stroke="#111" stroke-width="1.2" points="75.09,206.23 85.28,203.32 95.46,200.38 105.65,198.65 115.83,198.95 126.02,197.45 136.20,195.46 146.39,192.64 156.57,189.59 170.83,187.30 189.17,184.24 207.50,189.76 225.83,186.98 244.17,184.81 260.97,181.70 276.25,178.73 291.53,176.36 306.81,177.37 322.08,175.03 337.36,172.78 352.64,170.88 367.92,169.08 383.19,167.21 398.47,172.97 413.75,170.42 429.03,176.15 437.60,181.79 439.47,187.36 441.34,185.01 443.21,182.27 445.09,179.45 446.96,176.78 448.83,173.92 450.70,170.77 452.57,167.58 454.44,164.36 456.31,163.14 458.18,160.09 460.05,159.06 461.92,155.98 463.79,153.57 465.66,151.61 467.53,149.16 469.40,146.65 471.28,152.70 473.15,151.06 475.02,149.39 476.89,146.56 478.76,143.89 480.63,141.06 482.50,147.18 484.37,143.98 486.24,142.99 488.11,141.14 489.98,147.26 491.85,144.03 493.72,142.84 495.60,145.28 497.47,151.38 499.34,139.28 501.21,148.81 503.08,148.56 504.95,146.48 506.82,143.53 508.69,141.35 510.56,138.63 512.43,136.79 514.30,136.33 516.17,134.40 518.04,134.38 519.91,131.21 521.79,128.12 523.66,126.09 525.53,124.28 527.40,121.12 531.03,119.06 536.42,115.52 541.81,112.72 547.21,110.19 552.60,106.89 557.99,104.44 563.38,111.03 568.77,108.03 574.17,106.08 579.56,105.53 584.95,107.47 590.34,108.80 595.74,105.81 601.13,102.79 606.52,99.12 611.91,96.90 617.30,93.22 625.09,89.48 635.28,87.05 645.46,85.69 655.65,83.98 665.83,83.90 676.02,82.79 686.20,79.72 696.39,77.05 706.57,78.28 719.31,85.16 734.58,91.93 749.86,94.40 765.14,92.18 780.42,89.76 795.69,86.35 812.50,88.51 830.83,89.12 849.17,87.74 867.50,85.59 885.83,84.21 897.86,81.21 903.59,79.62 909.32,75.78 915.05,82.69 920.78,78.99 926.51,75.12 932.24,76.90 937.97,73.01 943.70,72.75 949.43,69.96 955.16,67.50 960.89,64.55 966.61,63.34 972.34,62.06 978.07,58.81 983.80,57.54 989.94,53.54 996.49,52.12 1003.04,47.90 1009.58,44.67 1016.13,51.92 1022.68,51.25 1029.23,49.37 1035.77,46.40 1042.32,53.64 1048.87,51.03 1055.42,58.22 1061.96,55.04 1068.51,52.84 1075.06,49.23 1081.03,45.06 1086.42,52.23 1091.81,49.13 1097.21,46.01 1102.60,43.99 1107.99,41.14 1113.38,40.80 1118.77,37.14 1124.17,33.69 1129.56,35.52 1134.95,34.71 1140.34,34.88 1145.74,30.76 1151.13,33.65 1156.52,30.15 1161.91,27.98 1167.30,25.00"/>
<text x="620.0" y="588" text-anchor="middle" font-family="sans-serif" font-size="12" fill="#333">Monthly Balance Curve</text>
<text x="15" y="287.5" transform="rotate(-90 15,287.5)" text-anchor="middle" font-family="sans-serif" font-size="12" fill="#333">Capital</text>
</svg>