<svg xmlns="http://www.w3.org/2000/svg" width="1200" height="600" viewBox="0 0 1200 600">
<desc>Equity curve with drawdown fill; x-axis is months only (no exact timestamps)</desc>
<text x="600.0" y="18.0" text-anchor="middle" font-family="sans-serif" font-size="14">Balance Curve 2009 (UTC)</text>
<rect x="70" y="25" width="1100" height="525" fill="white" stroke="#ccc" />
<line x1="70" y1="550.00" x2="1170" y2="550.00" stroke="#eee"/>
<text x="62" y="554.0" text-anchor="end" font-family="sans-serif" font-size="11" fill="#555">0.00</text>
<line x1="70" y1="445.00" x2="1170" y2="445.00" stroke="#eee"/>
<text x="62" y="449.0" text-anchor="end" font-family="sans-serif" font-size="11" fill="#555">38180</text>
<line x1="70" y1="340.00" x2="1170" y2="340.00" stroke="#eee"/>
<text x="62" y="344.0" text-anchor="end" font-family="sans-serif" font-size="11" fill="#555">76360</text>
<line x1="70" y1="235.00" x2="1170" y2="235.00" stroke="#eee"/>
<text x="62" y="239.0" text-anchor="end" font-family="sans-serif" font-size="11" fill="#555">114541</text>
<line x1="70" y1="130.00" x2="1170" y2="130.00" stroke="#eee"/>
<text x="62" y="134.0" text-anchor="end" font-family="sans-serif" font-size="11" fill="#555">152721</text>
<line x1="70" y1="25.00" x2="1170" y2="25.00" stroke="#eee"/>
<text x="62" y="29.0" text-anchor="end" font-family="sans-serif" font-size="11" fill="#555">190901</text>
<line x1="161.67" y1="25" x2="161.67" y2="550" stroke="#f2f2f2"/>
<line x1="253.33" y1="25" x2="253.33" y2="550" stroke="#f2f2f2"/>
<line x1="345.00" y1="25" x2="345.00" y2="550" stroke="#f2f2f2"/>
<line x1="436.67" y1="25" x2="436.67" y2="550" stroke="#f2f2f2"/>
<line x1="528.33" y1="25" x2="528.33" y2="550" stroke="#f2f2f2"/>
<line x1="620.00" y1="25" x2="620.00" y2="550" stroke="#f2f2f2"/>
<line x1="711.67" y1="25" x2="711.67" y2="550" stroke="#f2f2f2"/>
<line x1="803.33" y1="25" x2="803.33" y2="550" stroke="#f2f2f2"/>
<line x1="895.00" y1="25" x2="895.00" y2="550" stroke="#f2f2f2"/>
<line x1="986.67" y1="25" x2="986.67" y2="550" stroke="#f2f2f2"/>
<line x1="1078.33" y1="25" x2="1078.33" y2="550" stroke="#f2f2f2"/>
<text x="115.83" y="566.00" text-anchor="middle" font-family="sans-serif" font-size="11" fill="#444">Jan</text>
<text x="207.50" y="566.00" text-anchor="middle" font-family="sans-serif" font-size="11" fill="#444">Feb</text>
<text x="299.17" y="566.00" text-anchor="middle" font-family="sans-serif" font-size="11" fill="#444">Mar</text>
<text x="390.83" y="566.00" text-anchor="middle" font-family="sans-serif" font-size="11" fill="#444">Apr</text>
<text x="482.50" y="566.00" text-anchor="middle" font-family="sans-serif" font-size="11" fill="#444">May</text>
<text x="574.17" y="566.00" text-anchor="middle" font-family="sans-serif" font-size="11" fill="#444">Jun</text>
<text x="665.83" y="566.00" text-anchor="middle" font-family="sans-serif" font-size="11" fill="#444">Jul</text>
<text x="757.50" y="566.00" text-anchor="middle" font-family="sans-serif" font-size="11" fill="#444">Aug</text>
<text x="849.17" y="566.00" text-anchor="middle" font-family="sans-serif" font-size="11" fill="#444">Sep</text>
<text x="940.83" y="566.00" text-anchor="middle" font-family="sans-serif" font-size="11" fill="#444">Oct</text>
<text x="1032.50" y="566.00" text-anchor="middle" font-family="sans-serif" font-size="11" fill="#444">Nov</text>
<text x="1124.17" y="566.00" text-anchor="middle" font-family="sans-serif" font-size="11" fill="#444">Dec</text>
<line x1="70" y1="550" x2="1170" y2="550" stroke="#888"/>
<line x1="70" y1="25" x2="70" y2="550" stroke="#888"/>
<line x1="70.49" y1="550.00" x2="70.49" y2="556.00" stroke="#888"/>
<line x1="1162.36"   y1="550.00" x2="1162.36"   y2="556.00" stroke="#888"/>
<text x="70.49" y="582.00" text-anchor="start" font-family="sans-serif" font-size="11" fill="#333">Initial Balance: 133200</text>
<text x="1162.36"   y="582.00" text-anchor="end"   font-family="sans-serif" font-size="11" fill="#333">Ending Balance: 190901</text>
<path d="M 73.45 180.52 L 74.44 180.52 L 75.42 180.52 L 76.41 180.52 L 77.39 180.52 L 78.38 180.52 L 79.36 180.52 L 80.35 180.52 L 81.34 180.52 L 82.32 180.52 L 83.31 180.52 L 84.29 180.52 L 85.28 180.52 L 86.26 180.52 L 87.25 180.52 L 88.23 180.52 L 89.22 180.52 L 90.21 180.52 L 90.21 180.75 L 89.22 182.89 L 88.23 184.40 L 87.25 183.76 L 86.26 185.49 L 85.28 186.78 L 84.29 188.53 L 83.31 184.88 L 82.32 186.64 L 81.34 182.98 L 80.35 184.00 L 79.36 186.12 L 78.38 187.88 L 77.39 189.06 L 76.41 185.42 L 75.42 181.75 L 74.44 183.49 L 73.45 184.17 Z" fill="#d0d0d0" fill-opacity="0.5" stroke="none"/>
<path d="M 96.12 171.37 L 97.11 171.37 L 98.09 171.37 L 98.09 172.44 L 97.11 173.44 L 96.12 175.15 Z" fill="#d0d0d0" fill-opacity="0.5" stroke="none"/>
<path d="M 100.06 170.66 L 101.05 170.66 L 102.03 170.66 L 102.03 171.28 L 101.05 173.14 L 100.06 174.44 Z" fill="#d0d0d0" fill-opacity="0.5" stroke="none"/>
<path d="M 104.01 169.33 L 104.99 169.33 L 105.98 169.33 L 106.96 169.33 L 107.95 169.33 L 108.93 169.33 L 109.92 169.33 L 110.91 169.33 L 111.89 169.33 L 112.88 169.33 L 113.86 169.33 L 114.85 169.33 L 115.83 169.33 L 116.82 169.33 L 117.80 169.33 L 118.79 169.33 L 119.78 169.33 L 120.76 169.33 L 121.75 169.33 L 122.73 169.33 L 123.72 169.33 L 124.70 169.33 L 125.69 169.33 L 126.68 169.33 L 127.66 169.33 L 128.65 169.33 L 129.63 169.33 L 130.62 169.33 L 131.60 169.33 L 132.59 169.33 L 133.58 169.33 L 134.56 169.33 L 135.55 169.33 L 136.53 169.33 L 137.52 169.33 L 138.50 169.33 L 139.49 169.33 L 140.47 169.33 L 141.46 169.33 L 142.45 169.33 L 143.43 169.33 L 144.42 169.33 L 145.40 169.33 L 146.39 169.33 L 147.37 169.33 L 148.36 169.33 L 149.35 169.33 L 150.33 169.33 L 151.32 169.33 L 152.30 169.33 L 153.29 169.33 L 154.27 169.33 L 155.26 169.33 L 156.25 169.33 L 157.23 169.33 L 158.22 169.33 L 159.20 169.33 L 160.19 169.33 L 161.17 169.33 L 162.53 169.33 L 164.26 169.33 L 165.99 169.33 L 167.72 169.33 L 169.45 169.33 L 171.18 169.33 L 172.91 169.33 L 174.64 169.33 L 176.37 169.33 L 176.37 170.26 L 174.64 172.27 L 172.91 174.05 L 171.18 175.92 L 169.45 177.62 L 167.72 178.50 L 165.99 179.80 L 164.26 176.06 L 162.53 172.28 L 161.17 174.31 L 160.19 176.27 L 159.20 177.13 L 158.22 177.41 L 157.23 173.65 L 156.25 175.42 L 155.26 177.60 L 154.27 179.52 L 153.29 180.93 L 152.30 177.19 L 151.32 179.18 L 150.33 179.80 L 149.35 176.06 L 148.36 178.11 L 147.37 174.36 L 146.39 176.29 L 145.40 178.44 L 144.42 180.52 L 143.43 176.79 L 142.45 178.49 L 141.46 174.74 L 140.47 176.92 L 139.49 179.08 L 138.50 181.07 L 137.52 182.41 L 136.53 184.31 L 135.55 185.26 L 134.56 187.27 L 133.58 183.61 L 132.59 185.18 L 131.60 181.49 L 130.62 183.30 L 129.63 179.59 L 128.65 181.74 L 127.66 183.63 L 126.68 185.27 L 125.69 186.83 L 124.70 188.46 L 123.72 189.30 L 122.73 185.66 L 121.75 181.98 L 120.76 182.68 L 119.78 184.80 L 118.79 186.75 L 117.80 187.18 L 116.82 183.52 L 115.83 185.38 L 114.85 187.08 L 113.86 189.19 L 112.88 185.56 L 111.89 187.67 L 110.91 184.01 L 109.92 180.32 L 108.93 181.99 L 107.95 178.27 L 106.96 174.52 L 105.98 176.37 L 104.99 176.89 L 104.01 173.12 Z" fill="#d0d0d0" fill-opacity="0.5" stroke="none"/>
<path d="M 191.93 157.35 L 191.93 157.48 Z" fill="#d0d0d0" fill-opacity="0.5" stroke="none"/>
<path d="M 195.39 155.19 L 197.12 155.19 L 197.12 157.05 L 195.39 159.13 Z" fill="#d0d0d0" fill-opacity="0.5" stroke="none"/>
<path d="M 205.77 149.49 L 207.50 149.49 L 209.23 149.49 L 210.96 149.49 L 212.69 149.49 L 214.42 149.49 L 216.15 149.49 L 217.88 149.49 L 219.61 149.49 L 221.34 149.49 L 223.07 149.49 L 224.80 149.49 L 226.53 149.49 L 228.25 149.49 L 229.98 149.49 L 231.71 149.49 L 233.44 149.49 L 235.17 149.49 L 236.90 149.49 L 238.63 149.49 L 240.36 149.49 L 242.09 149.49 L 243.82 149.49 L 245.55 149.49 L 247.28 149.49 L 249.01 149.49 L 250.74 149.49 L 252.47 149.49 L 254.31 149.49 L 256.26 149.49 L 258.21 149.49 L 260.16 149.49 L 262.11 149.49 L 264.06 149.49 L 266.01 149.49 L 266.01 151.80 L 264.06 154.09 L 262.11 154.83 L 260.16 156.63 L 258.21 157.98 L 256.26 154.03 L 254.31 150.04 L 252.47 152.15 L 250.74 154.45 L 249.01 156.52 L 247.28 157.49 L 245.55 159.32 L 243.82 155.38 L 242.09 155.09 L 240.36 157.37 L 238.63 159.31 L 236.90 160.90 L 235.17 160.77 L 233.44 162.50 L 231.71 163.93 L 229.98 160.05 L 228.25 156.11 L 226.53 152.14 L 224.80 154.43 L 223.07 156.72 L 221.34 158.21 L 219.61 158.81 L 217.88 160.88 L 216.15 163.14 L 214.42 159.23 L 212.69 155.29 L 210.96 151.32 L 209.23 149.52 L 207.50 151.84 L 205.77 153.49 Z" fill="#d0d0d0" fill-opacity="0.5" stroke="none"/>
<path d="M 269.91 149.48 L 271.86 149.48 L 273.81 149.48 L 275.76 149.48 L 277.71 149.48 L 279.66 149.48 L 279.66 151.73 L 277.71 153.44 L 275.76 154.10 L 273.81 155.97 L 271.86 157.43 L 269.91 153.47 Z" fill="#d0d0d0" fill-opacity="0.5" stroke="none"/>
<path d="M 306.97 128.23 L 308.92 128.23 L 310.87 128.23 L 312.82 128.23 L 314.77 128.23 L 314.77 130.09 L 312.82 131.84 L 310.87 134.26 L 308.92 136.56 L 306.97 132.41 Z" fill="#d0d0d0" fill-opacity="0.5" stroke="none"/>
<path d="M 318.67 127.92 L 320.62 127.92 L 322.57 127.92 L 324.52 127.92 L 326.47 127.92 L 328.42 127.92 L 330.37 127.92 L 330.37 128.39 L 328.42 130.83 L 326.47 132.48 L 324.52 133.82 L 322.57 135.78 L 320.62 131.63 L 318.67 132.11 Z" fill="#d0d0d0" fill-opacity="0.5" stroke="none"/>
<path d="M 340.12 119.69 L 342.07 119.69 L 342.07 121.50 L 340.12 123.95 Z" fill="#d0d0d0" fill-opacity="0.5" stroke="none"/>
<path d="M 357.50 110.95 L 360.28 110.95 L 363.06 110.95 L 365.83 110.95 L 368.61 110.95 L 371.39 110.95 L 374.17 110.95 L 376.94 110.95 L 379.72 110.95 L 382.50 110.95 L 385.28 110.95 L 388.06 110.95 L 390.83 110.95 L 390.83 111.44 L 388.06 112.60 L 385.28 113.18 L 382.50 113.52 L 379.72 115.56 L 376.94 116.03 L 374.17 115.88 L 371.39 117.67 L 368.61 113.36 L 365.83 115.67 L 363.06 117.29 L 360.28 119.57 L 357.50 115.28 Z" fill="#d0d0d0" fill-opacity="0.5" stroke="none"/>
<path d="M 407.50 100.97 L 410.28 100.97 L 413.06 100.97 L 415.83 100.97 L 418.61 100.97 L 421.39 100.97 L 424.17 100.97 L 426.94 100.97 L 429.72 100.97 L 432.50 100.97 L 435.28 100.97 L 439.21 100.97 L 439.21 102.14 L 435.28 103.56 L 432.50 105.92 L 429.72 108.35 L 426.94 109.86 L 424.17 111.53 L 421.39 107.17 L 418.61 109.21 L 415.83 111.74 L 413.06 114.12 L 410.28 109.77 L 407.50 105.38 Z" fill="#d0d0d0" fill-opacity="0.5" stroke="none"/>
<path d="M 464.68 94.83 L 469.77 94.83 L 474.86 94.83 L 479.95 94.83 L 485.05 94.83 L 490.14 94.83 L 495.23 94.83 L 500.32 94.83 L 505.42 94.83 L 510.51 94.83 L 515.60 94.83 L 515.60 95.20 L 510.51 97.13 L 505.42 99.25 L 500.32 101.62 L 495.23 101.37 L 490.14 103.95 L 485.05 106.05 L 479.95 101.64 L 474.86 97.19 L 469.77 98.85 L 464.68 99.31 Z" fill="#d0d0d0" fill-opacity="0.5" stroke="none"/>
<path d="M 543.16 83.50 L 545.86 83.50 L 545.86 85.89 L 543.16 88.07 Z" fill="#d0d0d0" fill-opacity="0.5" stroke="none"/>
<path d="M 556.64 78.52 L 559.34 78.52 L 562.03 78.52 L 564.73 78.52 L 564.73 80.99 L 562.03 82.63 L 559.34 84.59 L 556.64 83.11 Z" fill="#d0d0d0" fill-opacity="0.5" stroke="none"/>
<path d="M 575.51 74.64 L 578.21 74.64 L 578.21 76.73 L 575.51 79.27 Z" fill="#d0d0d0" fill-opacity="0.5" stroke="none"/>
<path d="M 599.78 66.29 L 602.48 66.29 L 605.17 66.29 L 605.17 66.53 L 602.48 68.60 L 599.78 70.99 Z" fill="#d0d0d0" fill-opacity="0.5" stroke="none"/>
<path d="M 613.26 62.63 L 613.26 62.86 Z" fill="#d0d0d0" fill-opacity="0.5" stroke="none"/>
<path d="M 618.65 60.99 L 622.70 60.99 L 628.09 60.99 L 633.48 60.99 L 638.87 60.99 L 644.26 60.99 L 649.66 60.99 L 655.05 60.99 L 660.44 60.99 L 665.83 60.99 L 671.23 60.99 L 676.62 60.99 L 682.01 60.99 L 682.01 62.28 L 676.62 64.80 L 671.23 66.34 L 665.83 68.28 L 660.44 69.93 L 655.05 70.83 L 649.66 73.00 L 644.26 68.33 L 638.87 71.13 L 633.48 73.61 L 628.09 75.10 L 622.70 70.43 L 618.65 65.73 Z" fill="#d0d0d0" fill-opacity="0.5" stroke="none"/>
<path d="M 703.58 57.03 L 708.97 57.03 L 717.40 57.03 L 728.85 57.03 L 740.31 57.03 L 751.77 57.03 L 751.77 57.09 L 740.31 58.47 L 728.85 61.00 L 717.40 63.77 L 708.97 66.53 L 703.58 61.80 Z" fill="#d0d0d0" fill-opacity="0.5" stroke="none"/>
<path d="M 830.07 45.34 L 837.71 45.34 L 845.35 45.34 L 852.99 45.34 L 860.62 45.34 L 868.26 45.34 L 875.90 45.34 L 883.54 45.34 L 891.18 45.34 L 891.18 47.47 L 883.54 50.08 L 875.90 51.42 L 868.26 52.53 L 860.62 53.09 L 852.99 48.25 L 845.35 49.60 L 837.71 51.61 L 830.07 50.20 Z" fill="#d0d0d0" fill-opacity="0.5" stroke="none"/>
<path d="M 961.20 38.02 L 971.39 38.02 L 981.57 38.02 L 981.57 38.25 L 971.39 40.87 L 961.20 42.94 Z" fill="#d0d0d0" fill-opacity="0.5" stroke="none"/>
<path d="M 998.12 36.24 L 1005.76 36.24 L 1013.40 36.24 L 1021.04 36.24 L 1021.04 36.28 L 1013.40 38.73 L 1005.76 41.60 L 998.12 41.18 Z" fill="#d0d0d0" fill-opacity="0.5" stroke="none"/>
<path d="M 1036.32 33.58 L 1043.96 33.58 L 1051.60 33.58 L 1059.24 33.58 L 1066.88 33.58 L 1074.51 33.58 L 1074.51 34.72 L 1066.88 36.75 L 1059.24 39.43 L 1051.60 41.25 L 1043.96 43.45 L 1036.32 38.53 Z" fill="#d0d0d0" fill-opacity="0.5" stroke="none"/>
<polyline fill="none" stroke="#111" stroke-width="1.2" points="70.49,183.69 71.48,182.31 72.46,180.52 73.45,184.17 74.44,183.49 75.42,181.75 76.41,185.42 77.39,189.06 78.38,187.88 79.36,186.12 80.35,184.00 81.34,182.98 82.32,186.64 83.31,184.88 84.29,188.53 85.28,186.78 86.26,185.49 87.25,183.76 88.23,184.40 89.22,182.89 90.21,180.75 91.19,178.79 92.18,176.79 93.16,175.16 94.15,172.97 95.13,171.37 96.12,175.15 97.11,173.44 98.09,172.44 99.08,170.66 100.06,174.44 101.05,173.14 102.03,171.28 103.02,169.33 104.01,173.12 104.99,176.89 105.98,176.37 106.96,174.52 107.95,178.27 108.93,181.99 109.92,180.32 110.91,184.01 111.89,187.67 112.88,185.56 113.86,189.19 114.85,187.08 115.83,185.38 116.82,183.52 117.80,187.18 118.79,186.75 119.78,184.80 120.76,182.68 121.75,181.98 122.73,185.66 123.72,189.30 124.70,188.46 125.69,186.83 126.68,185.27 127.66,183.63 128.65,181.74 129.63,179.59 130.62,183.30 131.60,181.49 132.59,185.18 133.58,183.61 134.56,187.27 135.55,185.26 136.53,184.31 137.52,182.41 138.50,181.07 139.49,179.08 140.47,176.92 141.46,174.74 142.45,178.49 143.43,176.79 144.42,180.52 145.40,178.44 146.39,176.29 147.37,174.36 148.36,178.11 149.35,176.06 150.33,179.80 151.32,179.18 152.30,177.19 153.29,180.93 154.27,179.52 155.26,177.60 156.25,175.42 157.23,173.65 158.22,177.41 159.20,177.13 160.19,176.27 161.17,174.31 162.53,172.28 164.26,176.06 165.99,179.80 167.72,178.50 169.45,177.62 171.18,175.92 172.91,174.05 174.64,172.27 176.37,170.26 178.10,168.22 179.83,166.05 181.56,164.00 183.29,162.26 185.02,161.94 186.75,159.89 188.47,159.45 190.20,157.35 191.93,157.48 193.66,155.19 195.39,159.13 197.12,157.05 198.85,155.13 200.58,153.47 202.31,151.16 204.04,149.49 205.77,153.49 207.50,151.84 209.23,149.52 210.96,151.32 212.69,155.29 214.42,159.23 216.15,163.14 217.88,160.88 219.61,158.81 221.34,158.21 223.07,156.72 224.80,154.43 226.53,152.14 228.25,156.11 229.98,160.05 231.71,163.93 233.44,162.50 235.17,160.77 236.90,160.90 238.63,159.31 240.36,157.37 242.09,155.09 243.82,155.38 245.55,159.32 247.28,157.49 249.01,156.52 250.74,154.45 252.47,152.15 254.31,150.04 256.26,154.03 258.21,157.98 260.16,156.63 262.11,154.83 264.06,154.09 266.01,151.80 267.96,149.48 269.91,153.47 271.86,157.43 273.81,155.97 275.76,154.10 277.71,153.44 279.66,151.73 281.61,149.34 283.56,147.14 285.51,146.71 287.46,145.56 289.41,143.38 291.37,141.39 293.32,139.67 295.27,137.31 297.22,135.31 299.17,134.85 301.12,132.37 303.07,129.96 305.02,128.23 306.97,132.41 308.92,136.56 310.87,134.26 312.82,131.84 314.77,130.09 316.72,127.92 318.67,132.11 320.62,131.63 322.57,135.78 324.52,133.82 326.47,132.48 328.42,130.83 330.37,128.39 332.32,126.11 334.27,123.66 336.22,121.36 338.17,119.69 340.12,123.95 342.07,121.50 344.02,119.40 346.39,116.91 349.17,114.96 351.94,113.47 354.72,110.95 357.50,115.28 360.28,119.57 363.06,117.29 365.83,115.67 368.61,113.36 371.39,117.67 374.17,115.88 376.94,116.03 379.72,115.56 382.50,113.52 385.28,113.18 388.06,112.60 390.83,111.44 393.61,109.92 396.39,107.88 399.17,105.56 401.94,103.20 404.72,100.97 407.50,105.38 410.28,109.77 413.06,114.12 415.83,111.74 418.61,109.21 421.39,107.17 424.17,111.53 426.94,109.86 429.72,108.35 432.50,105.92 435.28,103.56 439.21,102.14 444.31,100.14 449.40,98.38 454.49,95.80 459.58,94.83 464.68,99.31 469.77,98.85 474.86,97.19 479.95,101.64 485.05,106.05 490.14,103.95 495.23,101.37 500.32,101.62 505.42,99.25 510.51,97.13 515.60,95.20 520.69,93.80 525.79,91.60 529.68,89.18 532.38,87.83 535.07,85.79 537.77,85.26 540.47,83.50 543.16,88.07 545.86,85.89 548.55,83.35 551.25,81.20 553.95,78.52 556.64,83.11 559.34,84.59 562.03,82.63 564.73,80.99 567.43,78.45 570.12,77.34 572.82,74.64 575.51,79.27 578.21,76.73 580.91,74.29 583.60,72.93 586.30,70.20 589.00,68.92 591.69,67.45 594.39,67.41 597.08,66.29 599.78,70.99 602.48,68.60 605.17,66.53 607.87,63.90 610.56,62.63 613.26,62.86 615.96,60.99 618.65,65.73 622.70,70.43 628.09,75.10 633.48,73.61 638.87,71.13 644.26,68.33 649.66,73.00 655.05,70.83 660.44,69.93 665.83,68.28 671.23,66.34 676.62,64.80 682.01,62.28 687.40,60.26 692.79,58.35 698.19,57.03 703.58,61.80 708.97,66.53 717.40,63.77 728.85,61.00 740.31,58.47 751.77,57.09 763.23,55.02 774.69,52.97 786.15,51.64 797.60,50.08 807.15,48.54 814.79,47.18 822.43,45.34 830.07,50.20 837.71,51.61 845.35,49.60 852.99,48.25 860.62,53.09 868.26,52.53 875.90,51.42 883.54,50.08 891.18,47.47 900.09,44.87 910.28,44.11 920.46,43.37 930.65,41.44 940.83,40.63 951.02,38.02 961.20,42.94 971.39,40.87 981.57,38.25 990.49,36.24 998.12,41.18 1005.76,41.60 1013.40,38.73 1021.04,36.28 1028.68,33.58 1036.32,38.53 1043.96,43.45 1051.60,41.25 1059.24,39.43 1066.88,36.75 1074.51,34.72 1085.97,32.98 1101.25,31.32 1116.53,28.41 1131.81,28.01 1147.08,25.64 1162.36,25.00"/>
<text x="15" y="287.5" transform="rotate(-90 15,287.5)" text-anchor="middle" font-family="sans-serif" font-size="12" fill="#333">USD</text>
</svg>