<svg xmlns="http://www.w3.org/2000/svg" width="1200" height="600" viewBox="0 0 1200 600">
<desc>Equity curve with drawdown fill; x-axis is months only (no exact timestamps)</desc>
<text x="600.0" y="18.0" text-anchor="middle" font-family="sans-serif" font-size="14">Balance Curve 2022 (UTC)</text>
<rect x="70" y="25" width="1100" height="525" fill="white" stroke="#ccc" />
<line x1="70" y1="550.00" x2="1170" y2="550.00" stroke="#eee"/>
<text x="62" y="554.0" text-anchor="end" font-family="sans-serif" font-size="11" fill="#555">0.00</text>
<line x1="70" y1="445.00" x2="1170" y2="445.00" stroke="#eee"/>
<text x="62" y="449.0" text-anchor="end" font-family="sans-serif" font-size="11" fill="#555">1748208</text>
<line x1="70" y1="340.00" x2="1170" y2="340.00" stroke="#eee"/>
<text x="62" y="344.0" text-anchor="end" font-family="sans-serif" font-size="11" fill="#555">3496416</text>
<line x1="70" y1="235.00" x2="1170" y2="235.00" stroke="#eee"/>
<text x="62" y="239.0" text-anchor="end" font-family="sans-serif" font-size="11" fill="#555">5244625</text>
<line x1="70" y1="130.00" x2="1170" y2="130.00" stroke="#eee"/>
<text x="62" y="134.0" text-anchor="end" font-family="sans-serif" font-size="11" fill="#555">6992833</text>
<line x1="70" y1="25.00" x2="1170" y2="25.00" stroke="#eee"/>
<text x="62" y="29.0" text-anchor="end" font-family="sans-serif" font-size="11" fill="#555">8741041</text>
<line x1="161.67" y1="25" x2="161.67" y2="550" stroke="#f2f2f2"/>
<line x1="253.33" y1="25" x2="253.33" y2="550" stroke="#f2f2f2"/>
<line x1="345.00" y1="25" x2="345.00" y2="550" stroke="#f2f2f2"/>
<line x1="436.67" y1="25" x2="436.67" y2="550" stroke="#f2f2f2"/>
<line x1="528.33" y1="25" x2="528.33" y2="550" stroke="#f2f2f2"/>
<line x1="620.00" y1="25" x2="620.00" y2="550" stroke="#f2f2f2"/>
<line x1="711.67" y1="25" x2="711.67" y2="550" stroke="#f2f2f2"/>
<line x1="803.33" y1="25" x2="803.33" y2="550" stroke="#f2f2f2"/>
<line x1="895.00" y1="25" x2="895.00" y2="550" stroke="#f2f2f2"/>
<line x1="986.67" y1="25" x2="986.67" y2="550" stroke="#f2f2f2"/>
<line x1="1078.33" y1="25" x2="1078.33" y2="550" stroke="#f2f2f2"/>
<text x="115.83" y="566.00" text-anchor="middle" font-family="sans-serif" font-size="11" fill="#444">Jan</text>
<text x="207.50" y="566.00" text-anchor="middle" font-family="sans-serif" font-size="11" fill="#444">Feb</text>
<text x="299.17" y="566.00" text-anchor="middle" font-family="sans-serif" font-size="11" fill="#444">Mar</text>
<text x="390.83" y="566.00" text-anchor="middle" font-family="sans-serif" font-size="11" fill="#444">Apr</text>
<text x="482.50" y="566.00" text-anchor="middle" font-family="sans-serif" font-size="11" fill="#444">May</text>
<text x="574.17" y="566.00" text-anchor="middle" font-family="sans-serif" font-size="11" fill="#444">Jun</text>
<text x="665.83" y="566.00" text-anchor="middle" font-family="sans-serif" font-size="11" fill="#444">Jul</text>
<text x="757.50" y="566.00" text-anchor="middle" font-family="sans-serif" font-size="11" fill="#444">Aug</text>
<text x="849.17" y="566.00" text-anchor="middle" font-family="sans-serif" font-size="11" fill="#444">Sep</text>
<text x="940.83" y="566.00" text-anchor="middle" font-family="sans-serif" font-size="11" fill="#444">Oct</text>
<text x="1032.50" y="566.00" text-anchor="middle" font-family="sans-serif" font-size="11" fill="#444">Nov</text>
<text x="1124.17" y="566.00" text-anchor="middle" font-family="sans-serif" font-size="11" fill="#444">Dec</text>
<line x1="70" y1="550" x2="1170" y2="550" stroke="#888"/>
<line x1="70" y1="25" x2="70" y2="550" stroke="#888"/>
<line x1="115.83" y1="550.00" x2="115.83" y2="556.00" stroke="#888"/>
<line x1="1160.83"   y1="550.00" x2="1160.83"   y2="556.00" stroke="#888"/>
<text x="115.83" y="582.00" text-anchor="start" font-family="sans-serif" font-size="11" fill="#333">Initial Balance: 8668406</text>
<text x="1160.83"   y="582.00" text-anchor="end"   font-family="sans-serif" font-size="11" fill="#333">Ending Balance: 8667565</text>
<path d="M 288.98 25.90 L 299.17 25.90 L 309.35 25.90 L 319.54 25.90 L 319.54 26.41 L 309.35 26.82 L 299.17 26.49 L 288.98 27.60 Z" fill="#d0d0d0" fill-opacity="0.5" stroke="none"/>
<path d="M 339.91 25.74 L 351.55 25.74 L 364.64 25.74 L 377.74 25.74 L 390.83 25.74 L 403.93 25.74 L 417.02 25.74 L 430.12 25.74 L 443.21 25.74 L 456.31 25.74 L 469.40 25.74 L 482.50 25.74 L 495.60 25.74 L 508.69 25.74 L 521.79 25.74 L 539.79 25.74 L 562.71 25.74 L 585.62 25.74 L 608.54 25.74 L 624.58 25.74 L 633.75 25.74 L 633.75 26.29 L 624.58 26.51 L 608.54 26.57 L 585.62 26.29 L 562.71 26.61 L 539.79 27.22 L 521.79 27.56 L 508.69 28.11 L 495.60 28.21 L 482.50 28.89 L 469.40 29.01 L 456.31 29.55 L 443.21 30.07 L 430.12 29.44 L 417.02 29.86 L 403.93 29.67 L 390.83 30.37 L 377.74 28.67 L 364.64 29.05 L 351.55 27.34 L 339.91 27.47 Z" fill="#d0d0d0" fill-opacity="0.5" stroke="none"/>
<path d="M 661.25 25.00 L 670.42 25.00 L 679.58 25.00 L 688.75 25.00 L 697.92 25.00 L 707.08 25.00 L 716.76 25.00 L 726.94 25.00 L 737.13 25.00 L 747.31 25.00 L 757.50 25.00 L 767.69 25.00 L 777.87 25.00 L 788.06 25.00 L 798.24 25.00 L 805.52 25.00 L 809.88 25.00 L 814.25 25.00 L 818.61 25.00 L 822.98 25.00 L 827.34 25.00 L 831.71 25.00 L 836.07 25.00 L 840.44 25.00 L 844.80 25.00 L 849.17 25.00 L 853.53 25.00 L 857.90 25.00 L 862.26 25.00 L 866.63 25.00 L 870.99 25.00 L 875.36 25.00 L 879.72 25.00 L 884.09 25.00 L 888.45 25.00 L 892.82 25.00 L 897.55 25.00 L 902.64 25.00 L 907.73 25.00 L 912.82 25.00 L 917.92 25.00 L 923.01 25.00 L 928.10 25.00 L 933.19 25.00 L 938.29 25.00 L 943.38 25.00 L 948.47 25.00 L 953.56 25.00 L 958.66 25.00 L 963.75 25.00 L 968.84 25.00 L 973.94 25.00 L 979.03 25.00 L 984.12 25.00 L 992.40 25.00 L 1003.85 25.00 L 1015.31 25.00 L 1026.77 25.00 L 1038.23 25.00 L 1049.69 25.00 L 1061.15 25.00 L 1072.60 25.00 L 1087.50 25.00 L 1105.83 25.00 L 1124.17 25.00 L 1142.50 25.00 L 1160.83 25.00 L 1160.83 29.41 L 1142.50 30.11 L 1124.17 30.60 L 1105.83 30.86 L 1087.50 30.45 L 1072.60 31.13 L 1061.15 31.68 L 1049.69 32.12 L 1038.23 32.90 L 1026.77 31.26 L 1015.31 31.37 L 1003.85 29.74 L 992.40 30.37 L 984.12 30.37 L 979.03 30.83 L 973.94 30.81 L 968.84 31.42 L 963.75 31.80 L 958.66 32.26 L 953.56 32.26 L 948.47 30.71 L 943.38 31.25 L 938.29 28.86 L 933.19 27.31 L 928.10 28.47 L 923.01 29.02 L 917.92 29.63 L 912.82 30.05 L 907.73 31.11 L 902.64 31.73 L 897.55 32.10 L 892.82 32.04 L 888.45 32.66 L 884.09 31.10 L 879.72 31.50 L 875.36 29.13 L 870.99 29.50 L 866.63 29.97 L 862.26 30.55 L 857.90 31.11 L 853.53 32.79 L 849.17 30.41 L 844.80 28.87 L 840.44 29.95 L 836.07 30.58 L 831.71 31.15 L 827.34 29.32 L 822.98 27.71 L 818.61 28.93 L 814.25 27.34 L 809.88 27.75 L 805.52 27.54 L 798.24 25.96 L 788.06 26.60 L 777.87 26.97 L 767.69 27.36 L 757.50 27.01 L 747.31 25.39 L 737.13 26.62 L 726.94 26.49 L 716.76 27.15 L 707.08 27.65 L 697.92 26.04 L 688.75 26.03 L 679.58 26.04 L 670.42 25.96 L 661.25 26.62 Z" fill="#d0d0d0" fill-opacity="0.5" stroke="none"/>
<polyline fill="none" stroke="#111" stroke-width="1.2" points="115.83,29.36 170.83,28.88 189.17,28.38 207.50,28.32 225.83,27.77 244.17,27.11 258.43,26.38 268.61,26.11 278.80,25.90 288.98,27.60 299.17,26.49 309.35,26.82 319.54,26.41 329.72,25.74 339.91,27.47 351.55,27.34 364.64,29.05 377.74,28.67 390.83,30.37 403.93,29.67 417.02,29.86 430.12,29.44 443.21,30.07 456.31,29.55 469.40,29.01 482.50,28.89 495.60,28.21 508.69,28.11 521.79,27.56 539.79,27.22 562.71,26.61 585.62,26.29 608.54,26.57 624.58,26.51 633.75,26.29 642.92,25.64 652.08,25.00 661.25,26.62 670.42,25.96 679.58,26.04 688.75,26.03 697.92,26.04 707.08,27.65 716.76,27.15 726.94,26.49 737.13,26.62 747.31,25.39 757.50,27.01 767.69,27.36 777.87,26.97 788.06,26.60 798.24,25.96 805.52,27.54 809.88,27.75 814.25,27.34 818.61,28.93 822.98,27.71 827.34,29.32 831.71,31.15 836.07,30.58 840.44,29.95 844.80,28.87 849.17,30.41 853.53,32.79 857.90,31.11 862.26,30.55 866.63,29.97 870.99,29.50 875.36,29.13 879.72,31.50 884.09,31.10 888.45,32.66 892.82,32.04 897.55,32.10 902.64,31.73 907.73,31.11 912.82,30.05 917.92,29.63 923.01,29.02 928.10,28.47 933.19,27.31 938.29,28.86 943.38,31.25 948.47,30.71 953.56,32.26 958.66,32.26 963.75,31.80 968.84,31.42 973.94,30.81 979.03,30.83 984.12,30.37 992.40,30.37 1003.85,29.74 1015.31,31.37 1026.77,31.26 1038.23,32.90 1049.69,32.12 1061.15,31.68 1072.60,31.13 1087.50,30.45 1105.83,30.86 1124.17,30.60 1142.50,30.11 1160.83,29.41"/>
<text x="15" y="287.5" transform="rotate(-90 15,287.5)" text-anchor="middle" font-family="sans-serif" font-size="12" fill="#333">USD</text>
</svg>