<svg xmlns="http://www.w3.org/2000/svg" width="1200" height="600" viewBox="0 0 1200 600">
<desc>Equity curve with drawdown fill</desc>
<text x="600.0" y="18.0" text-anchor="middle" font-family="sans-serif" font-size="14">Portfolio 2012</text>
<rect x="70" y="25" width="1100" height="525" fill="white" stroke="#ccc" />
<line x1="70" y1="550.00" x2="1170" y2="550.00" stroke="#eee"/>
<text x="62" y="554.0" text-anchor="end" font-family="sans-serif" font-size="11" fill="#555">0.00</text>
<line x1="70" y1="445.00" x2="1170" y2="445.00" stroke="#eee"/>
<text x="62" y="449.0" text-anchor="end" font-family="sans-serif" font-size="11" fill="#555">26559</text>
<line x1="70" y1="340.00" x2="1170" y2="340.00" stroke="#eee"/>
<text x="62" y="344.0" text-anchor="end" font-family="sans-serif" font-size="11" fill="#555">53118</text>
<line x1="70" y1="235.00" x2="1170" y2="235.00" stroke="#eee"/>
<text x="62" y="239.0" text-anchor="end" font-family="sans-serif" font-size="11" fill="#555">79677</text>
<line x1="70" y1="130.00" x2="1170" y2="130.00" stroke="#eee"/>
<text x="62" y="134.0" text-anchor="end" font-family="sans-serif" font-size="11" fill="#555">106236</text>
<line x1="70" y1="25.00" x2="1170" y2="25.00" stroke="#eee"/>
<text x="62" y="29.0" text-anchor="end" font-family="sans-serif" font-size="11" fill="#555">132796</text>
<line x1="154.27" y1="25" x2="154.27" y2="550" stroke="#f2f2f2"/>
<text x="154.27" y="566" text-anchor="middle" font-family="sans-serif" font-size="11" fill="#555">Feb</text>
<line x1="243.15" y1="25" x2="243.15" y2="550" stroke="#f2f2f2"/>
<text x="243.15" y="566" text-anchor="middle" font-family="sans-serif" font-size="11" fill="#555">Mar</text>
<line x1="338.17" y1="25" x2="338.17" y2="550" stroke="#f2f2f2"/>
<text x="338.17" y="566" text-anchor="middle" font-family="sans-serif" font-size="11" fill="#555">Apr</text>
<line x1="430.11" y1="25" x2="430.11" y2="550" stroke="#f2f2f2"/>
<text x="430.11" y="566" text-anchor="middle" font-family="sans-serif" font-size="11" fill="#555">May</text>
<line x1="525.13" y1="25" x2="525.13" y2="550" stroke="#f2f2f2"/>
<text x="525.13" y="566" text-anchor="middle" font-family="sans-serif" font-size="11" fill="#555">Jun</text>
<line x1="617.07" y1="25" x2="617.07" y2="550" stroke="#f2f2f2"/>
<text x="617.07" y="566" text-anchor="middle" font-family="sans-serif" font-size="11" fill="#555">Jul</text>
<line x1="712.08" y1="25" x2="712.08" y2="550" stroke="#f2f2f2"/>
<text x="712.08" y="566" text-anchor="middle" font-family="sans-serif" font-size="11" fill="#555">Aug</text>
<line x1="807.10" y1="25" x2="807.10" y2="550" stroke="#f2f2f2"/>
<text x="807.10" y="566" text-anchor="middle" font-family="sans-serif" font-size="11" fill="#555">Sep</text>
<line x1="899.04" y1="25" x2="899.04" y2="550" stroke="#f2f2f2"/>
<text x="899.04" y="566" text-anchor="middle" font-family="sans-serif" font-size="11" fill="#555">Oct</text>
<line x1="994.06" y1="25" x2="994.06" y2="550" stroke="#f2f2f2"/>
<text x="994.06" y="566" text-anchor="middle" font-family="sans-serif" font-size="11" fill="#555">Nov</text>
<line x1="1086.00" y1="25" x2="1086.00" y2="550" stroke="#f2f2f2"/>
<text x="1086.00" y="566" text-anchor="middle" font-family="sans-serif" font-size="11" fill="#555">Dec</text>
<line x1="70" y1="550" x2="1170" y2="550" stroke="#888"/>
<line x1="70" y1="25" x2="70" y2="550" stroke="#888"/>
<path d="M 97.85 38.35 L 97.99 38.35 L 98.00 38.35 L 98.07 38.35 L 110.19 38.35 L 112.67 38.35 L 118.79 38.35 L 128.17 38.35 L 135.05 38.35 L 135.24 38.35 L 137.18 38.35 L 141.06 38.35 L 153.18 38.35 L 155.54 38.35 L 155.95 38.35 L 158.92 38.35 L 159.41 38.35 L 162.19 38.35 L 162.26 38.35 L 171.72 38.35 L 173.68 38.35 L 173.68 39.13 L 171.72 41.20 L 162.26 42.25 L 162.19 44.72 L 159.41 46.65 L 158.92 47.98 L 155.95 50.56 L 155.54 51.10 L 153.18 45.99 L 141.06 47.64 L 137.18 50.26 L 135.24 52.57 L 135.05 51.39 L 128.17 53.84 L 118.79 48.76 L 112.67 49.43 L 110.19 52.24 L 98.07 52.69 L 98.00 53.66 L 97.99 48.63 L 97.85 43.53 Z" fill="#d0d0d0" fill-opacity="0.5" stroke="none"/>
<path d="M 183.53 35.63 L 183.53 36.26 Z" fill="#d0d0d0" fill-opacity="0.5" stroke="none"/>
<path d="M 202.41 31.11 L 212.50 31.11 L 215.93 31.11 L 226.73 31.11 L 226.73 31.18 L 215.93 33.22 L 212.50 36.13 L 202.41 36.36 Z" fill="#d0d0d0" fill-opacity="0.5" stroke="none"/>
<path d="M 300.46 25.00 L 308.73 25.00 L 311.91 25.00 L 321.50 25.00 L 346.76 25.00 L 346.91 25.00 L 351.91 25.00 L 367.51 25.00 L 376.98 25.00 L 386.66 25.00 L 392.31 25.00 L 394.98 25.00 L 432.12 25.00 L 434.56 25.00 L 448.44 25.00 L 448.49 25.00 L 474.92 25.00 L 498.77 25.00 L 499.53 25.00 L 501.76 25.00 L 505.51 25.00 L 518.20 25.00 L 524.12 25.00 L 526.97 25.00 L 527.03 25.00 L 536.28 25.00 L 538.56 25.00 L 542.24 25.00 L 542.76 25.00 L 555.71 25.00 L 557.89 25.00 L 560.79 25.00 L 564.08 25.00 L 577.21 25.00 L 578.50 25.00 L 582.41 25.00 L 585.62 25.00 L 588.45 25.00 L 609.03 25.00 L 609.12 25.00 L 611.45 25.00 L 611.56 25.00 L 611.67 25.00 L 612.69 25.00 L 612.80 25.00 L 612.91 25.00 L 630.99 25.00 L 631.19 25.00 L 631.31 25.00 L 634.23 25.00 L 655.82 25.00 L 664.91 25.00 L 668.11 25.00 L 674.15 25.00 L 676.99 25.00 L 695.17 25.00 L 695.24 25.00 L 695.36 25.00 L 695.49 25.00 L 695.57 25.00 L 698.45 25.00 L 698.59 25.00 L 699.22 25.00 L 714.54 25.00 L 716.88 25.00 L 716.89 25.00 L 716.92 25.00 L 717.03 25.00 L 717.09 25.00 L 717.29 25.00 L 719.81 25.00 L 720.19 25.00 L 727.53 25.00 L 741.72 25.00 L 756.51 25.00 L 760.11 25.00 L 763.17 25.00 L 784.68 25.00 L 796.22 25.00 L 803.05 25.00 L 805.43 25.00 L 821.05 25.00 L 827.35 25.00 L 841.97 25.00 L 846.12 25.00 L 846.35 25.00 L 848.56 25.00 L 848.92 25.00 L 858.03 25.00 L 866.39 25.00 L 869.72 25.00 L 891.90 25.00 L 924.75 25.00 L 925.73 25.00 L 970.77 25.00 L 1013.07 25.00 L 1014.06 25.00 L 1055.94 25.00 L 1103.36 25.00 L 1122.05 25.00 L 1128.13 25.00 L 1167.69 25.00 L 1170.00 25.00 L 1170.00 52.42 L 1167.69 53.21 L 1128.13 55.55 L 1122.05 55.73 L 1103.36 57.22 L 1055.94 56.00 L 1014.06 56.71 L 1013.07 51.65 L 970.77 51.50 L 925.73 53.18 L 924.75 55.39 L 891.90 55.51 L 869.72 55.33 L 866.39 56.83 L 858.03 58.78 L 848.92 60.79 L 848.56 61.88 L 846.35 61.95 L 846.12 56.95 L 841.97 59.71 L 827.35 62.46 L 821.05 60.76 L 805.43 62.65 L 803.05 64.54 L 796.22 66.06 L 784.68 67.62 L 763.17 69.85 L 760.11 70.87 L 756.51 72.22 L 741.72 73.39 L 727.53 75.14 L 720.19 77.08 L 719.81 72.24 L 717.29 71.82 L 717.09 71.67 L 717.03 73.71 L 716.92 73.74 L 716.89 76.41 L 716.88 79.17 L 714.54 74.34 L 699.22 76.99 L 698.59 72.14 L 698.45 74.81 L 695.57 77.46 L 695.49 79.70 L 695.36 80.18 L 695.24 75.37 L 695.17 70.53 L 676.99 65.62 L 674.15 66.46 L 668.11 67.03 L 664.91 62.07 L 655.82 63.33 L 634.23 63.80 L 631.31 65.21 L 631.19 62.79 L 630.99 57.82 L 612.91 52.77 L 612.80 53.69 L 612.69 53.81 L 611.67 48.72 L 611.56 43.58 L 611.45 43.87 L 609.12 38.68 L 609.03 39.97 L 588.45 34.75 L 585.62 34.23 L 582.41 36.84 L 578.50 37.35 L 577.21 37.34 L 564.08 36.14 L 560.79 36.52 L 557.89 39.10 L 555.71 41.73 L 542.76 42.35 L 542.24 40.41 L 538.56 42.99 L 536.28 37.78 L 527.03 37.56 L 526.97 38.92 L 524.12 33.69 L 518.20 36.29 L 505.51 35.43 L 501.76 34.39 L 499.53 37.28 L 498.77 32.03 L 474.92 34.45 L 448.49 34.46 L 448.44 36.56 L 434.56 31.31 L 432.12 32.60 L 394.98 35.04 L 392.31 36.85 L 386.66 39.22 L 376.98 38.11 L 367.51 38.63 L 351.91 40.81 L 346.91 39.48 L 346.76 38.44 L 321.50 33.20 L 311.91 27.91 L 308.73 27.37 L 300.46 30.31 Z" fill="#d0d0d0" fill-opacity="0.5" stroke="none"/>
<polyline fill="none" stroke="#111" stroke-width="1.2" points="70.00,47.41 72.68,45.43 76.39,44.41 91.36,41.56 94.95,40.95 97.37,38.35 97.85,43.53 97.99,48.63 98.00,53.66 98.07,52.69 110.19,52.24 112.67,49.43 118.79,48.76 128.17,53.84 135.05,51.39 135.24,52.57 137.18,50.26 141.06,47.64 153.18,45.99 155.54,51.10 155.95,50.56 158.92,47.98 159.41,46.65 162.19,44.72 162.26,42.25 171.72,41.20 173.68,39.13 174.43,36.64 174.78,35.63 183.53,36.26 190.96,34.03 198.87,31.11 202.41,36.36 212.50,36.13 215.93,33.22 226.73,31.18 242.02,28.25 269.42,25.88 281.78,25.29 290.95,25.00 300.46,30.31 308.73,27.37 311.91,27.91 321.50,33.20 346.76,38.44 346.91,39.48 351.91,40.81 367.51,38.63 376.98,38.11 386.66,39.22 392.31,36.85 394.98,35.04 432.12,32.60 434.56,31.31 448.44,36.56 448.49,34.46 474.92,34.45 498.77,32.03 499.53,37.28 501.76,34.39 505.51,35.43 518.20,36.29 524.12,33.69 526.97,38.92 527.03,37.56 536.28,37.78 538.56,42.99 542.24,40.41 542.76,42.35 555.71,41.73 557.89,39.10 560.79,36.52 564.08,36.14 577.21,37.34 578.50,37.35 582.41,36.84 585.62,34.23 588.45,34.75 609.03,39.97 609.12,38.68 611.45,43.87 611.56,43.58 611.67,48.72 612.69,53.81 612.80,53.69 612.91,52.77 630.99,57.82 631.19,62.79 631.31,65.21 634.23,63.80 655.82,63.33 664.91,62.07 668.11,67.03 674.15,66.46 676.99,65.62 695.17,70.53 695.24,75.37 695.36,80.18 695.49,79.70 695.57,77.46 698.45,74.81 698.59,72.14 699.22,76.99 714.54,74.34 716.88,79.17 716.89,76.41 716.92,73.74 717.03,73.71 717.09,71.67 717.29,71.82 719.81,72.24 720.19,77.08 727.53,75.14 741.72,73.39 756.51,72.22 760.11,70.87 763.17,69.85 784.68,67.62 796.22,66.06 803.05,64.54 805.43,62.65 821.05,60.76 827.35,62.46 841.97,59.71 846.12,56.95 846.35,61.95 848.56,61.88 848.92,60.79 858.03,58.78 866.39,56.83 869.72,55.33 891.90,55.51 924.75,55.39 925.73,53.18 970.77,51.50 1013.07,51.65 1014.06,56.71 1055.94,56.00 1103.36,57.22 1122.05,55.73 1128.13,55.55 1167.69,53.21 1170.00,52.42"/>
<text x="620.0" y="588" text-anchor="middle" font-family="sans-serif" font-size="12" fill="#333">UTC time</text>
<text x="15" y="287.5" transform="rotate(-90 15,287.5)" text-anchor="middle" font-family="sans-serif" font-size="12" fill="#333">Capital</text>
</svg>