<svg xmlns="http://www.w3.org/2000/svg" width="1200" height="600" viewBox="0 0 1200 600">
<desc>Equity curve with drawdown fill</desc>
<text x="600.0" y="18.0" text-anchor="middle" font-family="sans-serif" font-size="14">Portfolio 2023</text>
<rect x="70" y="25" width="1100" height="525" fill="white" stroke="#ccc" />
<line x1="70" y1="550.00" x2="1170" y2="550.00" stroke="#eee"/>
<text x="62" y="554.0" text-anchor="end" font-family="sans-serif" font-size="11" fill="#555">0.00</text>
<line x1="70" y1="445.00" x2="1170" y2="445.00" stroke="#eee"/>
<text x="62" y="449.0" text-anchor="end" font-family="sans-serif" font-size="11" fill="#555">47698</text>
<line x1="70" y1="340.00" x2="1170" y2="340.00" stroke="#eee"/>
<text x="62" y="344.0" text-anchor="end" font-family="sans-serif" font-size="11" fill="#555">95397</text>
<line x1="70" y1="235.00" x2="1170" y2="235.00" stroke="#eee"/>
<text x="62" y="239.0" text-anchor="end" font-family="sans-serif" font-size="11" fill="#555">143095</text>
<line x1="70" y1="130.00" x2="1170" y2="130.00" stroke="#eee"/>
<text x="62" y="134.0" text-anchor="end" font-family="sans-serif" font-size="11" fill="#555">190793</text>
<line x1="70" y1="25.00" x2="1170" y2="25.00" stroke="#eee"/>
<text x="62" y="29.0" text-anchor="end" font-family="sans-serif" font-size="11" fill="#555">238492</text>
<line x1="157.75" y1="25" x2="157.75" y2="550" stroke="#f2f2f2"/>
<text x="157.75" y="566" text-anchor="middle" font-family="sans-serif" font-size="11" fill="#555">Feb</text>
<line x1="243.48" y1="25" x2="243.48" y2="550" stroke="#f2f2f2"/>
<text x="243.48" y="566" text-anchor="middle" font-family="sans-serif" font-size="11" fill="#555">Mar</text>
<line x1="338.40" y1="25" x2="338.40" y2="550" stroke="#f2f2f2"/>
<text x="338.40" y="566" text-anchor="middle" font-family="sans-serif" font-size="11" fill="#555">Apr</text>
<line x1="430.26" y1="25" x2="430.26" y2="550" stroke="#f2f2f2"/>
<text x="430.26" y="566" text-anchor="middle" font-family="sans-serif" font-size="11" fill="#555">May</text>
<line x1="525.18" y1="25" x2="525.18" y2="550" stroke="#f2f2f2"/>
<text x="525.18" y="566" text-anchor="middle" font-family="sans-serif" font-size="11" fill="#555">Jun</text>
<line x1="617.04" y1="25" x2="617.04" y2="550" stroke="#f2f2f2"/>
<text x="617.04" y="566" text-anchor="middle" font-family="sans-serif" font-size="11" fill="#555">Jul</text>
<line x1="711.96" y1="25" x2="711.96" y2="550" stroke="#f2f2f2"/>
<text x="711.96" y="566" text-anchor="middle" font-family="sans-serif" font-size="11" fill="#555">Aug</text>
<line x1="806.88" y1="25" x2="806.88" y2="550" stroke="#f2f2f2"/>
<text x="806.88" y="566" text-anchor="middle" font-family="sans-serif" font-size="11" fill="#555">Sep</text>
<line x1="898.74" y1="25" x2="898.74" y2="550" stroke="#f2f2f2"/>
<text x="898.74" y="566" text-anchor="middle" font-family="sans-serif" font-size="11" fill="#555">Oct</text>
<line x1="993.66" y1="25" x2="993.66" y2="550" stroke="#f2f2f2"/>
<text x="993.66" y="566" text-anchor="middle" font-family="sans-serif" font-size="11" fill="#555">Nov</text>
<line x1="1085.52" y1="25" x2="1085.52" y2="550" stroke="#f2f2f2"/>
<text x="1085.52" y="566" text-anchor="middle" font-family="sans-serif" font-size="11" fill="#555">Dec</text>
<line x1="70" y1="550" x2="1170" y2="550" stroke="#888"/>
<line x1="70" y1="25" x2="70" y2="550" stroke="#888"/>
<path d="M 70.00 42.98 L 70.11 42.98 L 70.14 42.98 L 70.85 42.98 L 73.12 42.98 L 76.98 42.98 L 79.94 42.98 L 80.08 42.98 L 80.32 42.98 L 80.46 42.98 L 89.09 42.98 L 98.23 42.98 L 98.31 42.98 L 98.86 42.98 L 113.91 42.98 L 116.01 42.98 L 116.74 42.98 L 117.17 42.98 L 138.27 42.98 L 160.73 42.98 L 162.61 42.98 L 162.76 42.98 L 165.59 42.98 L 165.76 42.98 L 165.82 42.98 L 178.41 42.98 L 199.28 42.98 L 199.42 42.98 L 199.42 45.03 L 199.28 47.59 L 178.41 50.35 L 165.82 45.22 L 165.76 47.59 L 165.59 49.33 L 162.76 52.25 L 162.61 54.51 L 160.73 56.63 L 138.27 58.66 L 117.17 60.59 L 116.74 60.42 L 116.01 62.90 L 113.91 61.53 L 98.86 62.06 L 98.31 63.17 L 98.23 65.55 L 89.09 68.22 L 80.46 69.79 L 80.32 67.46 L 80.08 63.18 L 79.94 58.18 L 76.98 60.17 L 73.12 55.14 L 70.85 56.04 L 70.14 58.21 L 70.11 53.21 L 70.00 48.14 Z" fill="#d0d0d0" fill-opacity="0.5" stroke="none"/>
<path d="M 264.22 38.84 L 273.13 38.84 L 280.66 38.84 L 281.47 38.84 L 281.47 40.31 L 280.66 41.31 L 273.13 42.25 L 264.22 44.04 Z" fill="#d0d0d0" fill-opacity="0.5" stroke="none"/>
<path d="M 287.69 37.77 L 288.01 37.77 L 288.30 37.77 L 288.52 37.77 L 303.46 37.77 L 313.27 37.77 L 314.96 37.77 L 315.35 37.77 L 315.44 37.77 L 367.70 37.77 L 373.87 37.77 L 380.15 37.77 L 389.70 37.77 L 389.70 39.53 L 380.15 38.19 L 373.87 40.45 L 367.70 41.66 L 315.44 43.33 L 315.35 43.11 L 314.96 44.01 L 313.27 46.21 L 303.46 48.76 L 288.52 51.20 L 288.30 50.30 L 288.01 48.11 L 287.69 42.98 Z" fill="#d0d0d0" fill-opacity="0.5" stroke="none"/>
<path d="M 570.26 25.00 L 593.63 25.00 L 612.86 25.00 L 616.10 25.00 L 637.15 25.00 L 652.46 25.00 L 677.47 25.00 L 688.67 25.00 L 698.83 25.00 L 698.92 25.00 L 701.46 25.00 L 717.02 25.00 L 722.96 25.00 L 753.69 25.00 L 780.45 25.00 L 799.68 25.00 L 809.11 25.00 L 848.41 25.00 L 867.50 25.00 L 915.81 25.00 L 915.85 25.00 L 916.18 25.00 L 934.18 25.00 L 956.04 25.00 L 991.88 25.00 L 1001.38 25.00 L 1001.46 25.00 L 1001.57 25.00 L 1035.19 25.00 L 1035.37 25.00 L 1035.44 25.00 L 1096.57 25.00 L 1108.68 25.00 L 1124.72 25.00 L 1124.87 25.00 L 1127.16 25.00 L 1130.16 25.00 L 1170.00 25.00 L 1170.00 36.40 L 1130.16 38.49 L 1127.16 40.15 L 1124.87 42.12 L 1124.72 40.70 L 1108.68 35.46 L 1096.57 38.31 L 1035.44 40.33 L 1035.37 35.09 L 1035.19 29.83 L 1001.57 32.71 L 1001.46 34.78 L 1001.38 36.68 L 991.88 39.52 L 956.04 42.04 L 934.18 44.63 L 916.18 47.19 L 915.85 42.02 L 915.81 44.27 L 867.50 39.07 L 848.41 41.62 L 809.11 36.39 L 799.68 33.74 L 780.45 34.82 L 753.69 36.88 L 722.96 38.43 L 717.02 33.17 L 701.46 35.45 L 698.92 36.25 L 698.83 35.66 L 688.67 33.26 L 677.47 32.95 L 652.46 27.63 L 637.15 30.24 L 616.10 33.10 L 612.86 33.86 L 593.63 35.63 L 570.26 30.34 Z" fill="#d0d0d0" fill-opacity="0.5" stroke="none"/>
<polyline fill="none" stroke="#111" stroke-width="1.2" points="70.00,48.14 70.11,53.21 70.14,58.21 70.85,56.04 73.12,55.14 76.98,60.17 79.94,58.18 80.08,63.18 80.32,67.46 80.46,69.79 89.09,68.22 98.23,65.55 98.31,63.17 98.86,62.06 113.91,61.53 116.01,62.90 116.74,60.42 117.17,60.59 138.27,58.66 160.73,56.63 162.61,54.51 162.76,52.25 165.59,49.33 165.76,47.59 165.82,45.22 178.41,50.35 199.28,47.59 199.42,45.03 199.60,42.72 208.71,40.41 245.19,38.84 264.22,44.04 273.13,42.25 280.66,41.31 281.47,40.31 282.29,37.77 287.69,42.98 288.01,48.11 288.30,50.30 288.52,51.20 303.46,48.76 313.27,46.21 314.96,44.01 315.35,43.11 315.44,43.33 367.70,41.66 373.87,40.45 380.15,38.19 389.70,39.53 413.96,37.52 438.82,34.68 441.57,34.30 444.23,31.43 459.73,28.74 461.97,27.63 527.11,25.00 570.26,30.34 593.63,35.63 612.86,33.86 616.10,33.10 637.15,30.24 652.46,27.63 677.47,32.95 688.67,33.26 698.83,35.66 698.92,36.25 701.46,35.45 717.02,33.17 722.96,38.43 753.69,36.88 780.45,34.82 799.68,33.74 809.11,36.39 848.41,41.62 867.50,39.07 915.81,44.27 915.85,42.02 916.18,47.19 934.18,44.63 956.04,42.04 991.88,39.52 1001.38,36.68 1001.46,34.78 1001.57,32.71 1035.19,29.83 1035.37,35.09 1035.44,40.33 1096.57,38.31 1108.68,35.46 1124.72,40.70 1124.87,42.12 1127.16,40.15 1130.16,38.49 1170.00,36.40"/>
<text x="620.0" y="588" text-anchor="middle" font-family="sans-serif" font-size="12" fill="#333">UTC time</text>
<text x="15" y="287.5" transform="rotate(-90 15,287.5)" text-anchor="middle" font-family="sans-serif" font-size="12" fill="#333">Capital</text>
</svg>