<svg xmlns="http://www.w3.org/2000/svg" width="1200" height="600" viewBox="0 0 1200 600">
<desc>Equity curve with drawdown fill</desc>
<text x="600.0" y="18.0" text-anchor="middle" font-family="sans-serif" font-size="14">Portfolio 2017</text>
<rect x="70" y="25" width="1100" height="525" fill="white" stroke="#ccc" />
<line x1="70" y1="550.00" x2="1170" y2="550.00" stroke="#eee"/>
<text x="62" y="554.0" text-anchor="end" font-family="sans-serif" font-size="11" fill="#555">0.00</text>
<line x1="70" y1="445.00" x2="1170" y2="445.00" stroke="#eee"/>
<text x="62" y="449.0" text-anchor="end" font-family="sans-serif" font-size="11" fill="#555">22746</text>
<line x1="70" y1="340.00" x2="1170" y2="340.00" stroke="#eee"/>
<text x="62" y="344.0" text-anchor="end" font-family="sans-serif" font-size="11" fill="#555">45491</text>
<line x1="70" y1="235.00" x2="1170" y2="235.00" stroke="#eee"/>
<text x="62" y="239.0" text-anchor="end" font-family="sans-serif" font-size="11" fill="#555">68237</text>
<line x1="70" y1="130.00" x2="1170" y2="130.00" stroke="#eee"/>
<text x="62" y="134.0" text-anchor="end" font-family="sans-serif" font-size="11" fill="#555">90983</text>
<line x1="70" y1="25.00" x2="1170" y2="25.00" stroke="#eee"/>
<text x="62" y="29.0" text-anchor="end" font-family="sans-serif" font-size="11" fill="#555">113728</text>
<line x1="159.32" y1="25" x2="159.32" y2="550" stroke="#f2f2f2"/>
<text x="159.32" y="566" text-anchor="middle" font-family="sans-serif" font-size="11" fill="#555">Feb</text>
<line x1="246.66" y1="25" x2="246.66" y2="550" stroke="#f2f2f2"/>
<text x="246.66" y="566" text-anchor="middle" font-family="sans-serif" font-size="11" fill="#555">Mar</text>
<line x1="343.35" y1="25" x2="343.35" y2="550" stroke="#f2f2f2"/>
<text x="343.35" y="566" text-anchor="middle" font-family="sans-serif" font-size="11" fill="#555">Apr</text>
<line x1="436.93" y1="25" x2="436.93" y2="550" stroke="#f2f2f2"/>
<text x="436.93" y="566" text-anchor="middle" font-family="sans-serif" font-size="11" fill="#555">May</text>
<line x1="533.63" y1="25" x2="533.63" y2="550" stroke="#f2f2f2"/>
<text x="533.63" y="566" text-anchor="middle" font-family="sans-serif" font-size="11" fill="#555">Jun</text>
<line x1="627.21" y1="25" x2="627.21" y2="550" stroke="#f2f2f2"/>
<text x="627.21" y="566" text-anchor="middle" font-family="sans-serif" font-size="11" fill="#555">Jul</text>
<line x1="723.90" y1="25" x2="723.90" y2="550" stroke="#f2f2f2"/>
<text x="723.90" y="566" text-anchor="middle" font-family="sans-serif" font-size="11" fill="#555">Aug</text>
<line x1="820.60" y1="25" x2="820.60" y2="550" stroke="#f2f2f2"/>
<text x="820.60" y="566" text-anchor="middle" font-family="sans-serif" font-size="11" fill="#555">Sep</text>
<line x1="914.18" y1="25" x2="914.18" y2="550" stroke="#f2f2f2"/>
<text x="914.18" y="566" text-anchor="middle" font-family="sans-serif" font-size="11" fill="#555">Oct</text>
<line x1="1010.87" y1="25" x2="1010.87" y2="550" stroke="#f2f2f2"/>
<text x="1010.87" y="566" text-anchor="middle" font-family="sans-serif" font-size="11" fill="#555">Nov</text>
<line x1="1104.45" y1="25" x2="1104.45" y2="550" stroke="#f2f2f2"/>
<text x="1104.45" y="566" text-anchor="middle" font-family="sans-serif" font-size="11" fill="#555">Dec</text>
<line x1="70" y1="550" x2="1170" y2="550" stroke="#888"/>
<line x1="70" y1="25" x2="70" y2="550" stroke="#888"/>
<path d="M 77.15 74.78 L 77.22 74.78 L 79.98 74.78 L 95.86 74.78 L 95.86 74.79 L 79.98 76.63 L 77.22 80.56 L 77.15 81.99 Z" fill="#d0d0d0" fill-opacity="0.5" stroke="none"/>
<path d="M 96.14 70.82 L 96.17 70.82 L 96.24 70.82 L 96.33 70.82 L 102.03 70.82 L 114.07 70.82 L 120.54 70.82 L 154.77 70.82 L 155.19 70.82 L 157.88 70.82 L 201.96 70.82 L 205.19 70.82 L 255.46 70.82 L 255.46 71.11 L 205.19 73.05 L 201.96 76.23 L 157.88 77.07 L 155.19 75.30 L 154.77 78.54 L 120.54 71.28 L 114.07 75.29 L 102.03 77.55 L 96.33 80.77 L 96.24 83.33 L 96.17 85.22 L 96.14 78.09 Z" fill="#d0d0d0" fill-opacity="0.5" stroke="none"/>
<path d="M 415.16 59.30 L 429.03 59.30 L 473.11 59.30 L 473.11 60.90 L 429.03 63.30 L 415.16 60.15 Z" fill="#d0d0d0" fill-opacity="0.5" stroke="none"/>
<path d="M 504.07 57.75 L 538.58 57.75 L 553.94 57.75 L 553.94 60.99 L 538.58 59.79 L 504.07 61.07 Z" fill="#d0d0d0" fill-opacity="0.5" stroke="none"/>
<path d="M 576.01 57.30 L 616.13 57.30 L 616.96 57.30 L 619.57 57.30 L 619.59 57.30 L 663.55 57.30 L 663.55 57.54 L 619.59 60.88 L 619.57 65.14 L 616.96 69.22 L 616.13 72.11 L 576.01 64.76 Z" fill="#d0d0d0" fill-opacity="0.5" stroke="none"/>
<path d="M 680.66 54.55 L 680.66 56.35 Z" fill="#d0d0d0" fill-opacity="0.5" stroke="none"/>
<path d="M 688.65 52.16 L 707.69 52.16 L 722.93 52.16 L 729.38 52.16 L 735.03 52.16 L 735.26 52.16 L 735.45 52.16 L 747.81 52.16 L 750.73 52.16 L 756.93 52.16 L 769.43 52.16 L 771.89 52.16 L 773.16 52.16 L 775.44 52.16 L 775.44 54.04 L 773.16 58.23 L 771.89 62.37 L 769.43 66.19 L 756.93 66.38 L 750.73 66.98 L 747.81 70.44 L 735.45 63.07 L 735.26 62.13 L 735.03 54.66 L 729.38 58.49 L 722.93 62.64 L 707.69 63.63 L 688.65 56.16 Z" fill="#d0d0d0" fill-opacity="0.5" stroke="none"/>
<path d="M 860.11 33.01 L 860.11 33.79 Z" fill="#d0d0d0" fill-opacity="0.5" stroke="none"/>
<path d="M 882.41 25.00 L 953.42 25.00 L 993.95 25.00 L 994.21 25.00 L 1070.14 25.00 L 1071.35 25.00 L 1103.40 25.00 L 1106.62 25.00 L 1170.00 25.00 L 1170.00 32.69 L 1106.62 36.68 L 1103.40 38.97 L 1071.35 36.80 L 1070.14 38.04 L 994.21 39.37 L 993.95 31.56 L 953.42 29.66 L 882.41 32.88 Z" fill="#d0d0d0" fill-opacity="0.5" stroke="none"/>
<polyline fill="none" stroke="#111" stroke-width="1.2" points="70.00,86.69 70.85,83.15 71.05,81.01 75.13,77.49 76.27,74.78 77.15,81.99 77.22,80.56 79.98,76.63 95.86,74.79 95.98,70.82 96.14,78.09 96.17,85.22 96.24,83.33 96.33,80.77 102.03,77.55 114.07,75.29 120.54,71.28 154.77,78.54 155.19,75.30 157.88,77.07 201.96,76.23 205.19,73.05 255.46,71.11 273.49,68.85 292.87,68.08 333.42,66.67 335.73,63.68 360.05,60.63 415.04,59.30 415.16,60.15 429.03,63.30 473.11,60.90 492.46,57.75 504.07,61.07 538.58,59.79 553.94,60.99 554.40,57.30 576.01,64.76 616.13,72.11 616.96,69.22 619.57,65.14 619.59,60.88 663.55,57.54 669.60,54.55 680.66,56.35 688.27,52.16 688.65,56.16 707.69,63.63 722.93,62.64 729.38,58.49 735.03,54.66 735.26,62.13 735.45,63.07 747.81,70.44 750.73,66.98 756.93,66.38 769.43,66.19 771.89,62.37 773.16,58.23 775.44,54.04 800.72,49.82 812.34,47.82 822.35,43.56 822.59,40.37 841.08,36.04 842.96,33.01 860.11,33.79 862.90,29.41 882.34,25.00 882.41,32.88 953.42,29.66 993.95,31.56 994.21,39.37 1070.14,38.04 1071.35,36.80 1103.40,38.97 1106.62,36.68 1170.00,32.69"/>
<text x="620.0" y="588" text-anchor="middle" font-family="sans-serif" font-size="12" fill="#333">UTC time</text>
<text x="15" y="287.5" transform="rotate(-90 15,287.5)" text-anchor="middle" font-family="sans-serif" font-size="12" fill="#333">Capital</text>
</svg>