<svg xmlns="http://www.w3.org/2000/svg" width="1200" height="600" viewBox="0 0 1200 600">
<desc>Equity curve with drawdown fill; x-axis is months only (no exact timestamps)</desc>
<text x="600.0" y="18.0" text-anchor="middle" font-family="sans-serif" font-size="14">Portfolio 2009 (UTC)</text>
<rect x="70" y="25" width="1100" height="525" fill="white" stroke="#ccc" />
<line x1="70" y1="550.00" x2="1170" y2="550.00" stroke="#eee"/>
<text x="62" y="554.0" text-anchor="end" font-family="sans-serif" font-size="11" fill="#555">0.00</text>
<line x1="70" y1="445.00" x2="1170" y2="445.00" stroke="#eee"/>
<text x="62" y="449.0" text-anchor="end" font-family="sans-serif" font-size="11" fill="#555">27478</text>
<line x1="70" y1="340.00" x2="1170" y2="340.00" stroke="#eee"/>
<text x="62" y="344.0" text-anchor="end" font-family="sans-serif" font-size="11" fill="#555">54956</text>
<line x1="70" y1="235.00" x2="1170" y2="235.00" stroke="#eee"/>
<text x="62" y="239.0" text-anchor="end" font-family="sans-serif" font-size="11" fill="#555">82434</text>
<line x1="70" y1="130.00" x2="1170" y2="130.00" stroke="#eee"/>
<text x="62" y="134.0" text-anchor="end" font-family="sans-serif" font-size="11" fill="#555">109912</text>
<line x1="70" y1="25.00" x2="1170" y2="25.00" stroke="#eee"/>
<text x="62" y="29.0" text-anchor="end" font-family="sans-serif" font-size="11" fill="#555">137391</text>
<line x1="161.67" y1="25" x2="161.67" y2="550" stroke="#f2f2f2"/>
<line x1="253.33" y1="25" x2="253.33" y2="550" stroke="#f2f2f2"/>
<line x1="345.00" y1="25" x2="345.00" y2="550" stroke="#f2f2f2"/>
<line x1="436.67" y1="25" x2="436.67" y2="550" stroke="#f2f2f2"/>
<line x1="528.33" y1="25" x2="528.33" y2="550" stroke="#f2f2f2"/>
<line x1="620.00" y1="25" x2="620.00" y2="550" stroke="#f2f2f2"/>
<line x1="711.67" y1="25" x2="711.67" y2="550" stroke="#f2f2f2"/>
<line x1="803.33" y1="25" x2="803.33" y2="550" stroke="#f2f2f2"/>
<line x1="895.00" y1="25" x2="895.00" y2="550" stroke="#f2f2f2"/>
<line x1="986.67" y1="25" x2="986.67" y2="550" stroke="#f2f2f2"/>
<line x1="1078.33" y1="25" x2="1078.33" y2="550" stroke="#f2f2f2"/>
<text x="115.83" y="566.00" text-anchor="middle" font-family="sans-serif" font-size="11" fill="#444">Jan</text>
<text x="207.50" y="566.00" text-anchor="middle" font-family="sans-serif" font-size="11" fill="#444">Feb</text>
<text x="299.17" y="566.00" text-anchor="middle" font-family="sans-serif" font-size="11" fill="#444">Mar</text>
<text x="390.83" y="566.00" text-anchor="middle" font-family="sans-serif" font-size="11" fill="#444">Apr</text>
<text x="482.50" y="566.00" text-anchor="middle" font-family="sans-serif" font-size="11" fill="#444">May</text>
<text x="574.17" y="566.00" text-anchor="middle" font-family="sans-serif" font-size="11" fill="#444">Jun</text>
<text x="665.83" y="566.00" text-anchor="middle" font-family="sans-serif" font-size="11" fill="#444">Jul</text>
<text x="757.50" y="566.00" text-anchor="middle" font-family="sans-serif" font-size="11" fill="#444">Aug</text>
<text x="849.17" y="566.00" text-anchor="middle" font-family="sans-serif" font-size="11" fill="#444">Sep</text>
<text x="940.83" y="566.00" text-anchor="middle" font-family="sans-serif" font-size="11" fill="#444">Oct</text>
<text x="1032.50" y="566.00" text-anchor="middle" font-family="sans-serif" font-size="11" fill="#444">Nov</text>
<text x="1124.17" y="566.00" text-anchor="middle" font-family="sans-serif" font-size="11" fill="#444">Dec</text>
<line x1="70" y1="550" x2="1170" y2="550" stroke="#888"/>
<line x1="70" y1="25" x2="70" y2="550" stroke="#888"/>
<line x1="70.72" y1="550.00" x2="70.72" y2="556.00" stroke="#888"/>
<line x1="1164.27"   y1="550.00" x2="1164.27"   y2="556.00" stroke="#888"/>
<text x="70.72" y="582.00" text-anchor="start" font-family="sans-serif" font-size="11" fill="#333">Initial Balance: 100000</text>
<text x="1164.27"   y="582.00" text-anchor="end"   font-family="sans-serif" font-size="11" fill="#333">Ending Balance: 135462</text>
<path d="M 77.88 159.75 L 79.31 159.75 L 80.74 159.75 L 82.17 159.75 L 83.61 159.75 L 85.04 159.75 L 86.47 159.75 L 87.90 159.75 L 89.34 159.75 L 90.77 159.75 L 92.20 159.75 L 93.63 159.75 L 93.63 161.06 L 92.20 163.53 L 90.77 166.81 L 89.34 169.70 L 87.90 170.61 L 86.47 164.78 L 85.04 167.67 L 83.61 170.80 L 82.17 173.98 L 80.74 177.16 L 79.31 171.43 L 77.88 165.64 Z" fill="#d0d0d0" fill-opacity="0.5" stroke="none"/>
<path d="M 113.68 127.93 L 115.12 127.93 L 115.12 128.08 L 113.68 129.17 Z" fill="#d0d0d0" fill-opacity="0.5" stroke="none"/>
<path d="M 120.85 117.83 L 122.28 117.83 L 123.71 117.83 L 125.14 117.83 L 126.58 117.83 L 128.01 117.83 L 128.01 119.18 L 126.58 122.77 L 125.14 126.36 L 123.71 127.55 L 122.28 121.09 L 120.85 124.33 Z" fill="#d0d0d0" fill-opacity="0.5" stroke="none"/>
<path d="M 133.74 111.27 L 135.17 111.27 L 136.60 111.27 L 138.03 111.27 L 139.47 111.27 L 140.90 111.27 L 142.33 111.27 L 143.76 111.27 L 145.20 111.27 L 146.63 111.27 L 148.06 111.27 L 149.49 111.27 L 150.92 111.27 L 150.92 112.98 L 149.49 116.65 L 148.06 120.26 L 146.63 122.62 L 145.20 126.21 L 143.76 128.38 L 142.33 121.93 L 140.90 125.42 L 139.47 118.96 L 138.03 121.82 L 136.60 125.22 L 135.17 118.73 L 133.74 117.86 Z" fill="#d0d0d0" fill-opacity="0.5" stroke="none"/>
<path d="M 155.22 107.40 L 156.65 107.40 L 158.09 107.40 L 159.52 107.40 L 160.95 107.40 L 162.98 107.40 L 165.60 107.40 L 168.21 107.40 L 170.83 107.40 L 173.45 107.40 L 173.45 108.96 L 170.83 111.84 L 168.21 115.11 L 165.60 116.94 L 162.98 110.32 L 160.95 113.67 L 159.52 117.30 L 158.09 118.52 L 156.65 120.57 L 155.22 114.04 Z" fill="#d0d0d0" fill-opacity="0.5" stroke="none"/>
<path d="M 181.31 102.75 L 183.93 102.75 L 186.55 102.75 L 189.17 102.75 L 191.79 102.75 L 194.40 102.75 L 197.02 102.75 L 199.64 102.75 L 202.26 102.75 L 204.88 102.75 L 207.50 102.75 L 210.12 102.75 L 210.12 104.49 L 207.50 108.19 L 204.88 108.62 L 202.26 112.00 L 199.64 115.43 L 197.02 117.83 L 194.40 111.29 L 191.79 115.09 L 189.17 108.46 L 186.55 110.80 L 183.93 111.35 L 181.31 104.66 Z" fill="#d0d0d0" fill-opacity="0.5" stroke="none"/>
<path d="M 231.07 86.24 L 233.69 86.24 L 236.31 86.24 L 238.93 86.24 L 241.55 86.24 L 244.17 86.24 L 246.79 86.24 L 249.40 86.24 L 252.02 86.24 L 254.64 86.24 L 257.26 86.24 L 259.88 86.24 L 262.50 86.24 L 265.12 86.24 L 267.74 86.24 L 270.36 86.24 L 272.98 86.24 L 275.60 86.24 L 278.21 86.24 L 280.83 86.24 L 283.45 86.24 L 286.07 86.24 L 288.69 86.24 L 291.31 86.24 L 293.93 86.24 L 296.55 86.24 L 299.17 86.24 L 301.79 86.24 L 304.40 86.24 L 307.02 86.24 L 309.64 86.24 L 312.26 86.24 L 314.88 86.24 L 317.50 86.24 L 320.12 86.24 L 322.74 86.24 L 325.36 86.24 L 327.98 86.24 L 330.60 86.24 L 333.21 86.24 L 335.83 86.24 L 338.45 86.24 L 341.07 86.24 L 343.69 86.24 L 347.29 86.24 L 351.88 86.24 L 356.46 86.24 L 361.04 86.24 L 365.62 86.24 L 370.21 86.24 L 374.79 86.24 L 379.38 86.24 L 383.96 86.24 L 388.54 86.24 L 393.12 86.24 L 397.71 86.24 L 402.29 86.24 L 406.88 86.24 L 411.46 86.24 L 416.04 86.24 L 420.62 86.24 L 425.21 86.24 L 429.79 86.24 L 434.38 86.24 L 440.19 86.24 L 447.24 86.24 L 454.29 86.24 L 461.35 86.24 L 468.40 86.24 L 475.45 86.24 L 482.50 86.24 L 482.50 89.34 L 475.45 93.20 L 468.40 96.54 L 461.35 100.34 L 454.29 104.12 L 447.24 107.87 L 440.19 110.26 L 434.38 113.47 L 429.79 117.15 L 425.21 110.53 L 420.62 108.86 L 416.04 111.16 L 411.46 112.57 L 406.88 115.45 L 402.29 117.87 L 397.71 111.26 L 393.12 114.95 L 388.54 112.89 L 383.96 115.85 L 379.38 118.40 L 374.79 111.79 L 370.21 112.66 L 365.62 116.35 L 361.04 118.92 L 356.46 119.88 L 351.88 122.62 L 347.29 125.84 L 343.69 129.42 L 341.07 131.42 L 338.45 134.62 L 335.83 137.24 L 333.21 130.92 L 330.60 124.50 L 327.98 127.33 L 325.36 129.12 L 322.74 132.45 L 320.12 126.06 L 317.50 126.57 L 314.88 128.45 L 312.26 129.34 L 309.64 122.90 L 307.02 126.22 L 304.40 128.58 L 301.79 122.15 L 299.17 115.61 L 296.55 119.06 L 293.93 112.47 L 291.31 115.57 L 288.69 118.83 L 286.07 119.66 L 283.45 120.80 L 280.83 123.45 L 278.21 126.23 L 275.60 126.94 L 272.98 120.46 L 270.36 123.09 L 267.74 121.90 L 265.12 115.35 L 262.50 117.35 L 259.88 119.71 L 257.26 113.13 L 254.64 115.24 L 252.02 118.13 L 249.40 111.53 L 246.79 104.85 L 244.17 107.41 L 241.55 109.65 L 238.93 113.34 L 236.31 106.70 L 233.69 99.95 L 231.07 93.12 Z" fill="#d0d0d0" fill-opacity="0.5" stroke="none"/>
<path d="M 510.71 80.97 L 517.76 80.97 L 524.81 80.97 L 531.61 80.97 L 538.15 80.97 L 544.70 80.97 L 551.25 80.97 L 557.80 80.97 L 564.35 80.97 L 570.89 80.97 L 577.44 80.97 L 583.99 80.97 L 590.54 80.97 L 597.08 80.97 L 603.63 80.97 L 610.18 80.97 L 616.73 80.97 L 625.09 80.97 L 635.28 80.97 L 645.46 80.97 L 645.46 81.80 L 635.28 82.56 L 625.09 84.65 L 616.73 88.55 L 610.18 88.41 L 603.63 92.29 L 597.08 93.91 L 590.54 94.88 L 583.99 96.75 L 577.44 100.20 L 570.89 103.71 L 564.35 96.91 L 557.80 100.05 L 551.25 93.20 L 544.70 97.05 L 538.15 99.10 L 531.61 101.53 L 524.81 94.70 L 517.76 87.80 L 510.71 87.96 Z" fill="#d0d0d0" fill-opacity="0.5" stroke="none"/>
<path d="M 696.39 71.33 L 706.57 71.33 L 726.94 71.33 L 757.50 71.33 L 757.50 71.88 L 726.94 75.88 L 706.57 78.42 L 696.39 78.44 Z" fill="#d0d0d0" fill-opacity="0.5" stroke="none"/>
<path d="M 809.06 70.29 L 820.52 70.29 L 831.98 70.29 L 831.98 71.16 L 820.52 75.14 L 809.06 77.42 Z" fill="#d0d0d0" fill-opacity="0.5" stroke="none"/>
<path d="M 877.81 62.75 L 889.27 62.75 L 901.55 62.75 L 914.64 62.75 L 914.64 64.67 L 901.55 68.15 L 889.27 67.42 L 877.81 69.93 Z" fill="#d0d0d0" fill-opacity="0.5" stroke="none"/>
<path d="M 1055.42 37.91 L 1070.69 37.91 L 1084.06 37.91 L 1084.06 39.84 L 1070.69 43.76 L 1055.42 45.43 Z" fill="#d0d0d0" fill-opacity="0.5" stroke="none"/>
<path d="M 1152.81 25.00 L 1164.27 25.00 L 1164.27 32.37 L 1152.81 32.67 Z" fill="#d0d0d0" fill-opacity="0.5" stroke="none"/>
<polyline fill="none" stroke="#111" stroke-width="1.2" points="70.72,167.88 72.15,167.50 73.58,166.09 75.01,163.05 76.45,159.75 77.88,165.64 79.31,171.43 80.74,177.16 82.17,173.98 83.61,170.80 85.04,167.67 86.47,164.78 87.90,170.61 89.34,169.70 90.77,166.81 92.20,163.53 93.63,161.06 95.07,159.05 96.50,155.57 97.93,155.39 99.36,152.02 100.79,148.62 102.23,145.71 103.66,143.49 105.09,140.79 106.52,137.64 107.96,134.39 109.39,131.39 110.82,128.34 112.25,127.93 113.68,129.17 115.12,128.08 116.55,124.74 117.98,121.46 119.41,117.83 120.85,124.33 122.28,121.09 123.71,127.55 125.14,126.36 126.58,122.77 128.01,119.18 129.44,116.79 130.87,113.47 132.30,111.27 133.74,117.86 135.17,118.73 136.60,125.22 138.03,121.82 139.47,118.96 140.90,125.42 142.33,121.93 143.76,128.38 145.20,126.21 146.63,122.62 148.06,120.26 149.49,116.65 150.92,112.98 152.36,109.31 153.79,107.40 155.22,114.04 156.65,120.57 158.09,118.52 159.52,117.30 160.95,113.67 162.98,110.32 165.60,116.94 168.21,115.11 170.83,111.84 173.45,108.96 176.07,105.96 178.69,102.75 181.31,104.66 183.93,111.35 186.55,110.80 189.17,108.46 191.79,115.09 194.40,111.29 197.02,117.83 199.64,115.43 202.26,112.00 204.88,108.62 207.50,108.19 210.12,104.49 212.74,100.76 215.36,100.04 217.98,96.56 220.60,95.53 223.21,93.27 225.83,90.22 228.45,86.24 231.07,93.12 233.69,99.95 236.31,106.70 238.93,113.34 241.55,109.65 244.17,107.41 246.79,104.85 249.40,111.53 252.02,118.13 254.64,115.24 257.26,113.13 259.88,119.71 262.50,117.35 265.12,115.35 267.74,121.90 270.36,123.09 272.98,120.46 275.60,126.94 278.21,126.23 280.83,123.45 283.45,120.80 286.07,119.66 288.69,118.83 291.31,115.57 293.93,112.47 296.55,119.06 299.17,115.61 301.79,122.15 304.40,128.58 307.02,126.22 309.64,122.90 312.26,129.34 314.88,128.45 317.50,126.57 320.12,126.06 322.74,132.45 325.36,129.12 327.98,127.33 330.60,124.50 333.21,130.92 335.83,137.24 338.45,134.62 341.07,131.42 343.69,129.42 347.29,125.84 351.88,122.62 356.46,119.88 361.04,118.92 365.62,116.35 370.21,112.66 374.79,111.79 379.38,118.40 383.96,115.85 388.54,112.89 393.12,114.95 397.71,111.26 402.29,117.87 406.88,115.45 411.46,112.57 416.04,111.16 420.62,108.86 425.21,110.53 429.79,117.15 434.38,113.47 440.19,110.26 447.24,107.87 454.29,104.12 461.35,100.34 468.40,96.54 475.45,93.20 482.50,89.34 489.55,85.46 496.60,83.47 503.65,80.97 510.71,87.96 517.76,87.80 524.81,94.70 531.61,101.53 538.15,99.10 544.70,97.05 551.25,93.20 557.80,100.05 564.35,96.91 570.89,103.71 577.44,100.20 583.99,96.75 590.54,94.88 597.08,93.91 603.63,92.29 610.18,88.41 616.73,88.55 625.09,84.65 635.28,82.56 645.46,81.80 655.65,77.87 665.83,75.51 676.02,71.90 686.20,71.33 696.39,78.44 706.57,78.42 726.94,75.88 757.50,71.88 788.06,70.29 809.06,77.42 820.52,75.14 831.98,71.16 843.44,70.28 854.90,66.93 866.35,62.75 877.81,69.93 889.27,67.42 901.55,68.15 914.64,64.67 927.74,61.28 940.83,58.99 953.93,56.98 967.02,53.70 980.12,50.44 994.31,48.12 1009.58,43.92 1024.86,40.97 1040.14,37.91 1055.42,45.43 1070.69,43.76 1084.06,39.84 1095.52,37.64 1106.98,34.24 1118.44,31.17 1129.90,27.26 1141.35,25.00 1152.81,32.67 1164.27,32.37"/>
<text x="620.0" y="588" text-anchor="middle" font-family="sans-serif" font-size="12" fill="#333">Monthly Balance Curve</text>
<text x="15" y="287.5" transform="rotate(-90 15,287.5)" text-anchor="middle" font-family="sans-serif" font-size="12" fill="#333">Capital</text>
</svg>