<svg xmlns="http://www.w3.org/2000/svg" width="1200" height="600" viewBox="0 0 1200 600">
<desc>Equity curve with drawdown fill; x-axis is months only (no exact timestamps)</desc>
<text x="600.0" y="18.0" text-anchor="middle" font-family="sans-serif" font-size="14">Portfolio 2013 (UTC)</text>
<rect x="70" y="25" width="1100" height="525" fill="white" stroke="#ccc" />
<line x1="70" y1="550.00" x2="1170" y2="550.00" stroke="#eee"/>
<text x="62" y="554.0" text-anchor="end" font-family="sans-serif" font-size="11" fill="#555">0.00</text>
<line x1="70" y1="445.00" x2="1170" y2="445.00" stroke="#eee"/>
<text x="62" y="449.0" text-anchor="end" font-family="sans-serif" font-size="11" fill="#555">43736</text>
<line x1="70" y1="340.00" x2="1170" y2="340.00" stroke="#eee"/>
<text x="62" y="344.0" text-anchor="end" font-family="sans-serif" font-size="11" fill="#555">87473</text>
<line x1="70" y1="235.00" x2="1170" y2="235.00" stroke="#eee"/>
<text x="62" y="239.0" text-anchor="end" font-family="sans-serif" font-size="11" fill="#555">131209</text>
<line x1="70" y1="130.00" x2="1170" y2="130.00" stroke="#eee"/>
<text x="62" y="134.0" text-anchor="end" font-family="sans-serif" font-size="11" fill="#555">174946</text>
<line x1="70" y1="25.00" x2="1170" y2="25.00" stroke="#eee"/>
<text x="62" y="29.0" text-anchor="end" font-family="sans-serif" font-size="11" fill="#555">218682</text>
<line x1="161.67" y1="25" x2="161.67" y2="550" stroke="#f2f2f2"/>
<line x1="253.33" y1="25" x2="253.33" y2="550" stroke="#f2f2f2"/>
<line x1="345.00" y1="25" x2="345.00" y2="550" stroke="#f2f2f2"/>
<line x1="436.67" y1="25" x2="436.67" y2="550" stroke="#f2f2f2"/>
<line x1="528.33" y1="25" x2="528.33" y2="550" stroke="#f2f2f2"/>
<line x1="620.00" y1="25" x2="620.00" y2="550" stroke="#f2f2f2"/>
<line x1="711.67" y1="25" x2="711.67" y2="550" stroke="#f2f2f2"/>
<line x1="803.33" y1="25" x2="803.33" y2="550" stroke="#f2f2f2"/>
<line x1="895.00" y1="25" x2="895.00" y2="550" stroke="#f2f2f2"/>
<line x1="986.67" y1="25" x2="986.67" y2="550" stroke="#f2f2f2"/>
<line x1="1078.33" y1="25" x2="1078.33" y2="550" stroke="#f2f2f2"/>
<text x="115.83" y="566.00" text-anchor="middle" font-family="sans-serif" font-size="11" fill="#444">Jan</text>
<text x="207.50" y="566.00" text-anchor="middle" font-family="sans-serif" font-size="11" fill="#444">Feb</text>
<text x="299.17" y="566.00" text-anchor="middle" font-family="sans-serif" font-size="11" fill="#444">Mar</text>
<text x="390.83" y="566.00" text-anchor="middle" font-family="sans-serif" font-size="11" fill="#444">Apr</text>
<text x="482.50" y="566.00" text-anchor="middle" font-family="sans-serif" font-size="11" fill="#444">May</text>
<text x="574.17" y="566.00" text-anchor="middle" font-family="sans-serif" font-size="11" fill="#444">Jun</text>
<text x="665.83" y="566.00" text-anchor="middle" font-family="sans-serif" font-size="11" fill="#444">Jul</text>
<text x="757.50" y="566.00" text-anchor="middle" font-family="sans-serif" font-size="11" fill="#444">Aug</text>
<text x="849.17" y="566.00" text-anchor="middle" font-family="sans-serif" font-size="11" fill="#444">Sep</text>
<text x="940.83" y="566.00" text-anchor="middle" font-family="sans-serif" font-size="11" fill="#444">Oct</text>
<text x="1032.50" y="566.00" text-anchor="middle" font-family="sans-serif" font-size="11" fill="#444">Nov</text>
<text x="1124.17" y="566.00" text-anchor="middle" font-family="sans-serif" font-size="11" fill="#444">Dec</text>
<line x1="70" y1="550" x2="1170" y2="550" stroke="#888"/>
<line x1="70" y1="25" x2="70" y2="550" stroke="#888"/>
<line x1="81.46" y1="550.00" x2="81.46" y2="556.00" stroke="#888"/>
<line x1="1147.08"   y1="550.00" x2="1147.08"   y2="556.00" stroke="#888"/>
<text x="81.46" y="582.00" text-anchor="start" font-family="sans-serif" font-size="11" fill="#333">Initial Balance: 209814</text>
<text x="1147.08"   y="582.00" text-anchor="end"   font-family="sans-serif" font-size="11" fill="#333">Ending Balance: 216491</text>
<path d="M 104.38 46.29 L 127.29 46.29 L 150.21 46.29 L 184.58 46.29 L 230.42 46.29 L 276.25 46.29 L 322.08 46.29 L 322.08 48.88 L 276.25 50.41 L 230.42 53.18 L 184.58 52.98 L 150.21 55.25 L 127.29 56.45 L 104.38 51.40 Z" fill="#d0d0d0" fill-opacity="0.5" stroke="none"/>
<path d="M 513.06 36.69 L 537.50 36.69 L 555.83 36.69 L 574.17 36.69 L 592.50 36.69 L 610.83 36.69 L 627.64 36.69 L 642.92 36.69 L 658.19 36.69 L 658.19 38.56 L 642.92 38.42 L 627.64 41.26 L 610.83 43.55 L 592.50 44.85 L 574.17 44.30 L 555.83 47.12 L 537.50 47.05 L 513.06 41.90 Z" fill="#d0d0d0" fill-opacity="0.5" stroke="none"/>
<path d="M 688.75 35.70 L 704.03 35.70 L 704.03 38.06 L 688.75 40.91 Z" fill="#d0d0d0" fill-opacity="0.5" stroke="none"/>
<path d="M 791.88 31.67 L 849.17 31.67 L 910.28 31.67 L 940.83 31.67 L 940.83 33.85 L 910.28 34.78 L 849.17 33.97 L 791.88 36.85 Z" fill="#d0d0d0" fill-opacity="0.5" stroke="none"/>
<path d="M 1147.08 25.00 L 1147.08 30.26 Z" fill="#d0d0d0" fill-opacity="0.5" stroke="none"/>
<polyline fill="none" stroke="#111" stroke-width="1.2" points="81.46,46.29 104.38,51.40 127.29,56.45 150.21,55.25 184.58,52.98 230.42,53.18 276.25,50.41 322.08,48.88 360.28,46.08 390.83,43.26 421.39,40.81 451.94,38.51 482.50,36.69 513.06,41.90 537.50,47.05 555.83,47.12 574.17,44.30 592.50,44.85 610.83,43.55 627.64,41.26 642.92,38.42 658.19,38.56 673.47,35.70 688.75,40.91 704.03,38.06 723.12,35.20 746.04,34.65 768.96,31.67 791.88,36.85 849.17,33.97 910.28,34.78 940.83,33.85 971.39,30.95 1032.50,28.04 1101.25,25.00 1147.08,30.26"/>
<text x="620.0" y="588" text-anchor="middle" font-family="sans-serif" font-size="12" fill="#333">Monthly Balance Curve</text>
<text x="15" y="287.5" transform="rotate(-90 15,287.5)" text-anchor="middle" font-family="sans-serif" font-size="12" fill="#333">Capital</text>
</svg>