<svg xmlns="http://www.w3.org/2000/svg" width="1200" height="600" viewBox="0 0 1200 600">
<desc>Equity curve with drawdown fill; x-axis is months only (no exact timestamps)</desc>
<text x="600.0" y="18.0" text-anchor="middle" font-family="sans-serif" font-size="14">Portfolio 2016 (UTC)</text>
<rect x="70" y="25" width="1100" height="525" fill="white" stroke="#ccc" />
<line x1="70" y1="550.00" x2="1170" y2="550.00" stroke="#eee"/>
<text x="62" y="554.0" text-anchor="end" font-family="sans-serif" font-size="11" fill="#555">0.00</text>
<line x1="70" y1="445.00" x2="1170" y2="445.00" stroke="#eee"/>
<text x="62" y="449.0" text-anchor="end" font-family="sans-serif" font-size="11" fill="#555">24094</text>
<line x1="70" y1="340.00" x2="1170" y2="340.00" stroke="#eee"/>
<text x="62" y="344.0" text-anchor="end" font-family="sans-serif" font-size="11" fill="#555">48188</text>
<line x1="70" y1="235.00" x2="1170" y2="235.00" stroke="#eee"/>
<text x="62" y="239.0" text-anchor="end" font-family="sans-serif" font-size="11" fill="#555">72282</text>
<line x1="70" y1="130.00" x2="1170" y2="130.00" stroke="#eee"/>
<text x="62" y="134.0" text-anchor="end" font-family="sans-serif" font-size="11" fill="#555">96376</text>
<line x1="70" y1="25.00" x2="1170" y2="25.00" stroke="#eee"/>
<text x="62" y="29.0" text-anchor="end" font-family="sans-serif" font-size="11" fill="#555">120470</text>
<line x1="161.67" y1="25" x2="161.67" y2="550" stroke="#f2f2f2"/>
<line x1="253.33" y1="25" x2="253.33" y2="550" stroke="#f2f2f2"/>
<line x1="345.00" y1="25" x2="345.00" y2="550" stroke="#f2f2f2"/>
<line x1="436.67" y1="25" x2="436.67" y2="550" stroke="#f2f2f2"/>
<line x1="528.33" y1="25" x2="528.33" y2="550" stroke="#f2f2f2"/>
<line x1="620.00" y1="25" x2="620.00" y2="550" stroke="#f2f2f2"/>
<line x1="711.67" y1="25" x2="711.67" y2="550" stroke="#f2f2f2"/>
<line x1="803.33" y1="25" x2="803.33" y2="550" stroke="#f2f2f2"/>
<line x1="895.00" y1="25" x2="895.00" y2="550" stroke="#f2f2f2"/>
<line x1="986.67" y1="25" x2="986.67" y2="550" stroke="#f2f2f2"/>
<line x1="1078.33" y1="25" x2="1078.33" y2="550" stroke="#f2f2f2"/>
<text x="115.83" y="566.00" text-anchor="middle" font-family="sans-serif" font-size="11" fill="#444">Jan</text>
<text x="207.50" y="566.00" text-anchor="middle" font-family="sans-serif" font-size="11" fill="#444">Feb</text>
<text x="299.17" y="566.00" text-anchor="middle" font-family="sans-serif" font-size="11" fill="#444">Mar</text>
<text x="390.83" y="566.00" text-anchor="middle" font-family="sans-serif" font-size="11" fill="#444">Apr</text>
<text x="482.50" y="566.00" text-anchor="middle" font-family="sans-serif" font-size="11" fill="#444">May</text>
<text x="574.17" y="566.00" text-anchor="middle" font-family="sans-serif" font-size="11" fill="#444">Jun</text>
<text x="665.83" y="566.00" text-anchor="middle" font-family="sans-serif" font-size="11" fill="#444">Jul</text>
<text x="757.50" y="566.00" text-anchor="middle" font-family="sans-serif" font-size="11" fill="#444">Aug</text>
<text x="849.17" y="566.00" text-anchor="middle" font-family="sans-serif" font-size="11" fill="#444">Sep</text>
<text x="940.83" y="566.00" text-anchor="middle" font-family="sans-serif" font-size="11" fill="#444">Oct</text>
<text x="1032.50" y="566.00" text-anchor="middle" font-family="sans-serif" font-size="11" fill="#444">Nov</text>
<text x="1124.17" y="566.00" text-anchor="middle" font-family="sans-serif" font-size="11" fill="#444">Dec</text>
<line x1="70" y1="550" x2="1170" y2="550" stroke="#888"/>
<line x1="70" y1="25" x2="70" y2="550" stroke="#888"/>
<line x1="77.64" y1="550.00" x2="77.64" y2="556.00" stroke="#888"/>
<line x1="1162.36"   y1="550.00" x2="1162.36"   y2="556.00" stroke="#888"/>
<text x="77.64" y="582.00" text-anchor="start" font-family="sans-serif" font-size="11" fill="#333">Initial Balance: 100000</text>
<text x="1162.36"   y="582.00" text-anchor="end"   font-family="sans-serif" font-size="11" fill="#333">Ending Balance: 120344</text>
<path d="M 92.92 114.21 L 92.92 115.90 Z" fill="#d0d0d0" fill-opacity="0.5" stroke="none"/>
<path d="M 138.75 110.13 L 138.75 111.31 Z" fill="#d0d0d0" fill-opacity="0.5" stroke="none"/>
<path d="M 595.32 46.11 L 602.37 46.11 L 602.37 50.21 L 595.32 53.69 Z" fill="#d0d0d0" fill-opacity="0.5" stroke="none"/>
<path d="M 642.92 41.68 L 688.75 41.68 L 688.75 45.16 L 642.92 49.30 Z" fill="#d0d0d0" fill-opacity="0.5" stroke="none"/>
<path d="M 788.06 40.42 L 849.17 40.42 L 849.17 43.90 L 788.06 48.06 Z" fill="#d0d0d0" fill-opacity="0.5" stroke="none"/>
<path d="M 990.19 30.42 L 997.24 30.42 L 1004.29 30.42 L 1004.29 32.46 L 997.24 33.79 L 990.19 38.20 Z" fill="#d0d0d0" fill-opacity="0.5" stroke="none"/>
<path d="M 1018.40 28.44 L 1025.45 28.44 L 1032.50 28.44 L 1032.50 31.40 L 1025.45 35.24 L 1018.40 36.21 Z" fill="#d0d0d0" fill-opacity="0.5" stroke="none"/>
<path d="M 1053.65 25.00 L 1060.71 25.00 L 1067.76 25.00 L 1074.81 25.00 L 1085.97 25.00 L 1101.25 25.00 L 1116.53 25.00 L 1131.81 25.00 L 1147.08 25.00 L 1162.36 25.00 L 1162.36 25.55 L 1147.08 29.48 L 1131.81 31.37 L 1116.53 33.17 L 1101.25 25.32 L 1085.97 25.65 L 1074.81 27.98 L 1067.76 29.71 L 1060.71 33.05 L 1053.65 32.85 Z" fill="#d0d0d0" fill-opacity="0.5" stroke="none"/>
<polyline fill="none" stroke="#111" stroke-width="1.2" points="77.64,114.21 92.92,115.90 108.19,113.39 123.47,110.13 138.75,111.31 154.03,107.65 173.12,104.75 196.04,103.01 218.96,99.43 241.88,95.67 268.61,91.88 299.17,87.99 329.72,84.13 367.92,80.24 413.75,76.12 482.50,72.17 531.86,71.94 538.91,69.22 545.96,66.12 553.01,62.52 560.06,58.15 567.12,54.67 574.17,50.59 581.22,46.36 588.27,46.11 595.32,53.69 602.37,50.21 609.42,46.07 616.47,41.68 642.92,49.30 688.75,45.16 726.94,40.99 757.50,40.42 788.06,48.06 849.17,43.90 906.46,39.72 929.38,35.90 952.29,31.97 975.21,30.42 990.19,38.20 997.24,33.79 1004.29,32.46 1011.35,28.44 1018.40,36.21 1025.45,35.24 1032.50,31.40 1039.55,28.11 1046.60,25.00 1053.65,32.85 1060.71,33.05 1067.76,29.71 1074.81,27.98 1085.97,25.65 1101.25,25.32 1116.53,33.17 1131.81,31.37 1147.08,29.48 1162.36,25.55"/>
<text x="620.0" y="588" text-anchor="middle" font-family="sans-serif" font-size="12" fill="#333">Monthly Balance Curve</text>
<text x="15" y="287.5" transform="rotate(-90 15,287.5)" text-anchor="middle" font-family="sans-serif" font-size="12" fill="#333">Capital</text>
</svg>