<svg xmlns="http://www.w3.org/2000/svg" width="1200" height="600" viewBox="0 0 1200 600">
<desc>Equity curve with drawdown fill</desc>
<text x="600.0" y="18.0" text-anchor="middle" font-family="sans-serif" font-size="14">Portfolio 2016</text>
<rect x="70" y="25" width="1100" height="525" fill="white" stroke="#ccc" />
<line x1="70" y1="550.00" x2="1170" y2="550.00" stroke="#eee"/>
<text x="62" y="554.0" text-anchor="end" font-family="sans-serif" font-size="11" fill="#555">0.00</text>
<line x1="70" y1="445.00" x2="1170" y2="445.00" stroke="#eee"/>
<text x="62" y="449.0" text-anchor="end" font-family="sans-serif" font-size="11" fill="#555">45068</text>
<line x1="70" y1="340.00" x2="1170" y2="340.00" stroke="#eee"/>
<text x="62" y="344.0" text-anchor="end" font-family="sans-serif" font-size="11" fill="#555">90137</text>
<line x1="70" y1="235.00" x2="1170" y2="235.00" stroke="#eee"/>
<text x="62" y="239.0" text-anchor="end" font-family="sans-serif" font-size="11" fill="#555">135205</text>
<line x1="70" y1="130.00" x2="1170" y2="130.00" stroke="#eee"/>
<text x="62" y="134.0" text-anchor="end" font-family="sans-serif" font-size="11" fill="#555">180274</text>
<line x1="70" y1="25.00" x2="1170" y2="25.00" stroke="#eee"/>
<text x="62" y="29.0" text-anchor="end" font-family="sans-serif" font-size="11" fill="#555">225342</text>
<line x1="154.21" y1="25" x2="154.21" y2="550" stroke="#f2f2f2"/>
<text x="154.21" y="566" text-anchor="middle" font-family="sans-serif" font-size="11" fill="#555">Feb</text>
<line x1="242.56" y1="25" x2="242.56" y2="550" stroke="#f2f2f2"/>
<text x="242.56" y="566" text-anchor="middle" font-family="sans-serif" font-size="11" fill="#555">Mar</text>
<line x1="337.00" y1="25" x2="337.00" y2="550" stroke="#f2f2f2"/>
<text x="337.00" y="566" text-anchor="middle" font-family="sans-serif" font-size="11" fill="#555">Apr</text>
<line x1="428.40" y1="25" x2="428.40" y2="550" stroke="#f2f2f2"/>
<text x="428.40" y="566" text-anchor="middle" font-family="sans-serif" font-size="11" fill="#555">May</text>
<line x1="522.84" y1="25" x2="522.84" y2="550" stroke="#f2f2f2"/>
<text x="522.84" y="566" text-anchor="middle" font-family="sans-serif" font-size="11" fill="#555">Jun</text>
<line x1="614.24" y1="25" x2="614.24" y2="550" stroke="#f2f2f2"/>
<text x="614.24" y="566" text-anchor="middle" font-family="sans-serif" font-size="11" fill="#555">Jul</text>
<line x1="708.68" y1="25" x2="708.68" y2="550" stroke="#f2f2f2"/>
<text x="708.68" y="566" text-anchor="middle" font-family="sans-serif" font-size="11" fill="#555">Aug</text>
<line x1="803.12" y1="25" x2="803.12" y2="550" stroke="#f2f2f2"/>
<text x="803.12" y="566" text-anchor="middle" font-family="sans-serif" font-size="11" fill="#555">Sep</text>
<line x1="894.51" y1="25" x2="894.51" y2="550" stroke="#f2f2f2"/>
<text x="894.51" y="566" text-anchor="middle" font-family="sans-serif" font-size="11" fill="#555">Oct</text>
<line x1="988.96" y1="25" x2="988.96" y2="550" stroke="#f2f2f2"/>
<text x="988.96" y="566" text-anchor="middle" font-family="sans-serif" font-size="11" fill="#555">Nov</text>
<line x1="1080.35" y1="25" x2="1080.35" y2="550" stroke="#f2f2f2"/>
<text x="1080.35" y="566" text-anchor="middle" font-family="sans-serif" font-size="11" fill="#555">Dec</text>
<line x1="70" y1="550" x2="1170" y2="550" stroke="#888"/>
<line x1="70" y1="25" x2="70" y2="550" stroke="#888"/>
<path d="M 70.76 99.21 L 79.26 99.21 L 80.45 99.21 L 81.30 99.21 L 81.30 100.90 L 80.45 103.16 L 79.26 104.90 L 70.76 100.36 Z" fill="#d0d0d0" fill-opacity="0.5" stroke="none"/>
<path d="M 104.18 93.47 L 104.19 93.47 L 104.19 95.62 L 104.18 98.08 Z" fill="#d0d0d0" fill-opacity="0.5" stroke="none"/>
<path d="M 123.18 91.54 L 123.18 92.34 Z" fill="#d0d0d0" fill-opacity="0.5" stroke="none"/>
<path d="M 146.93 88.06 L 162.03 88.06 L 162.28 88.06 L 162.34 88.06 L 162.39 88.06 L 162.68 88.06 L 164.45 88.06 L 168.11 88.06 L 168.16 88.06 L 168.23 88.06 L 168.40 88.06 L 177.05 88.06 L 177.59 88.06 L 180.31 88.06 L 183.60 88.06 L 185.79 88.06 L 189.47 88.06 L 198.83 88.06 L 226.27 88.06 L 232.22 88.06 L 250.76 88.06 L 253.42 88.06 L 253.42 88.10 L 250.76 90.68 L 232.22 93.25 L 226.27 94.06 L 198.83 94.84 L 189.47 95.98 L 185.79 97.86 L 183.60 100.13 L 180.31 95.54 L 177.59 98.09 L 177.05 93.47 L 168.40 94.69 L 168.23 94.65 L 168.16 96.41 L 168.11 98.78 L 164.45 101.31 L 162.68 102.84 L 162.39 98.28 L 162.34 99.92 L 162.28 95.32 L 162.03 90.70 L 146.93 92.73 Z" fill="#d0d0d0" fill-opacity="0.5" stroke="none"/>
<path d="M 269.10 81.28 L 269.10 83.39 Z" fill="#d0d0d0" fill-opacity="0.5" stroke="none"/>
<path d="M 271.62 80.77 L 271.73 80.77 L 271.75 80.77 L 271.75 82.36 L 271.73 84.97 L 271.62 85.49 Z" fill="#d0d0d0" fill-opacity="0.5" stroke="none"/>
<path d="M 271.92 78.54 L 271.97 78.54 L 272.06 78.54 L 272.14 78.54 L 272.26 78.54 L 274.17 78.54 L 275.01 78.54 L 290.67 78.54 L 290.72 78.54 L 292.57 78.54 L 307.78 78.54 L 330.07 78.54 L 339.00 78.54 L 354.12 78.54 L 354.35 78.54 L 356.52 78.54 L 372.47 78.54 L 399.64 78.54 L 399.64 80.23 L 372.47 81.65 L 356.52 83.48 L 354.35 85.44 L 354.12 88.05 L 339.00 89.70 L 330.07 90.08 L 307.78 92.66 L 292.57 93.85 L 290.72 93.40 L 290.67 88.77 L 275.01 91.35 L 274.17 91.83 L 272.26 92.75 L 272.14 92.34 L 272.06 92.57 L 271.97 87.92 L 271.92 83.24 Z" fill="#d0d0d0" fill-opacity="0.5" stroke="none"/>
<path d="M 399.94 77.46 L 415.03 77.46 L 418.63 77.46 L 418.63 77.94 L 415.03 80.59 L 399.94 82.23 Z" fill="#d0d0d0" fill-opacity="0.5" stroke="none"/>
<path d="M 530.74 65.88 L 530.83 65.88 L 530.90 65.88 L 531.05 65.88 L 567.90 65.88 L 570.06 65.88 L 570.79 65.88 L 570.82 65.88 L 570.95 65.88 L 585.56 65.88 L 591.18 65.88 L 591.18 68.54 L 585.56 70.96 L 570.95 73.63 L 570.82 75.26 L 570.79 77.60 L 570.06 72.78 L 567.90 72.96 L 531.05 75.63 L 530.90 74.62 L 530.83 75.53 L 530.74 70.72 Z" fill="#d0d0d0" fill-opacity="0.5" stroke="none"/>
<path d="M 593.12 62.79 L 593.17 62.79 L 593.21 62.79 L 593.34 62.79 L 593.36 62.79 L 593.40 62.79 L 593.51 62.79 L 593.54 62.79 L 593.65 62.79 L 593.69 62.79 L 593.83 62.79 L 593.85 62.79 L 593.97 62.79 L 594.02 62.79 L 594.09 62.79 L 594.18 62.79 L 594.47 62.79 L 594.86 62.79 L 595.27 62.79 L 601.95 62.79 L 612.93 62.79 L 613.34 62.79 L 613.34 64.93 L 612.93 67.64 L 601.95 69.94 L 595.27 71.88 L 594.86 67.00 L 594.47 69.20 L 594.18 69.38 L 594.09 71.48 L 594.02 72.49 L 593.97 67.65 L 593.85 70.33 L 593.83 73.07 L 593.69 75.72 L 593.65 77.36 L 593.54 72.56 L 593.51 75.10 L 593.40 70.34 L 593.36 72.61 L 593.34 75.11 L 593.21 70.29 L 593.17 72.54 L 593.12 67.70 Z" fill="#d0d0d0" fill-opacity="0.5" stroke="none"/>
<path d="M 628.59 59.56 L 637.28 59.56 L 637.28 61.78 L 628.59 64.51 Z" fill="#d0d0d0" fill-opacity="0.5" stroke="none"/>
<path d="M 787.04 40.15 L 805.19 40.15 L 807.88 40.15 L 808.17 40.15 L 820.32 40.15 L 820.40 40.15 L 829.42 40.15 L 850.69 40.15 L 892.57 40.15 L 892.57 40.61 L 850.69 42.43 L 829.42 43.40 L 820.40 44.02 L 820.32 45.28 L 808.17 40.16 L 807.88 42.53 L 805.19 45.36 L 787.04 45.28 Z" fill="#d0d0d0" fill-opacity="0.5" stroke="none"/>
<path d="M 1013.59 25.00 L 1013.63 25.00 L 1013.70 25.00 L 1013.76 25.00 L 1013.89 25.00 L 1013.90 25.00 L 1014.07 25.00 L 1014.21 25.00 L 1014.34 25.00 L 1014.42 25.00 L 1014.55 25.00 L 1014.60 25.00 L 1014.91 25.00 L 1015.28 25.00 L 1015.34 25.00 L 1028.75 25.00 L 1029.74 25.00 L 1030.54 25.00 L 1032.75 25.00 L 1035.69 25.00 L 1039.48 25.00 L 1042.74 25.00 L 1057.78 25.00 L 1071.58 25.00 L 1072.72 25.00 L 1079.14 25.00 L 1079.42 25.00 L 1092.41 25.00 L 1093.53 25.00 L 1093.67 25.00 L 1093.98 25.00 L 1094.04 25.00 L 1094.91 25.00 L 1103.29 25.00 L 1103.35 25.00 L 1103.41 25.00 L 1103.52 25.00 L 1103.68 25.00 L 1103.73 25.00 L 1106.38 25.00 L 1122.37 25.00 L 1123.09 25.00 L 1124.47 25.00 L 1125.17 25.00 L 1128.19 25.00 L 1146.27 25.00 L 1168.65 25.00 L 1168.69 25.00 L 1170.00 25.00 L 1170.00 43.21 L 1168.69 44.83 L 1168.65 47.07 L 1146.27 50.00 L 1128.19 52.29 L 1125.17 54.85 L 1124.47 56.10 L 1123.09 51.07 L 1122.37 51.38 L 1106.38 54.29 L 1103.73 54.52 L 1103.68 49.48 L 1103.52 44.42 L 1103.41 44.66 L 1103.35 39.56 L 1103.29 41.55 L 1094.91 44.51 L 1094.04 44.80 L 1093.98 46.85 L 1093.67 41.74 L 1093.53 42.76 L 1092.41 44.31 L 1079.42 47.26 L 1079.14 48.42 L 1072.72 50.60 L 1071.58 52.80 L 1057.78 52.69 L 1042.74 47.63 L 1039.48 50.16 L 1035.69 52.16 L 1032.75 54.18 L 1030.54 54.98 L 1029.74 54.09 L 1028.75 55.36 L 1015.34 57.49 L 1015.28 52.48 L 1014.91 51.93 L 1014.60 54.22 L 1014.55 49.23 L 1014.42 44.16 L 1014.34 45.09 L 1014.21 39.99 L 1014.07 42.66 L 1013.90 37.52 L 1013.89 40.50 L 1013.76 39.35 L 1013.70 34.24 L 1013.63 35.45 L 1013.59 30.26 Z" fill="#d0d0d0" fill-opacity="0.5" stroke="none"/>
<polyline fill="none" stroke="#111" stroke-width="1.2" points="70.00,99.21 70.76,100.36 79.26,104.90 80.45,103.16 81.30,100.90 83.06,98.80 90.12,96.26 98.34,94.51 100.59,94.02 101.45,93.47 104.18,98.08 104.19,95.62 122.42,92.94 122.50,91.54 123.18,92.34 143.23,90.64 145.54,88.06 146.93,92.73 162.03,90.70 162.28,95.32 162.34,99.92 162.39,98.28 162.68,102.84 164.45,101.31 168.11,98.78 168.16,96.41 168.23,94.65 168.40,94.69 177.05,93.47 177.59,98.09 180.31,95.54 183.60,100.13 185.79,97.86 189.47,95.98 198.83,94.84 226.27,94.06 232.22,93.25 250.76,90.68 253.42,88.10 253.44,85.56 253.48,82.95 253.67,81.52 263.10,81.28 269.10,83.39 271.60,80.77 271.62,85.49 271.73,84.97 271.75,82.36 271.78,79.60 271.88,78.54 271.92,83.24 271.97,87.92 272.06,92.57 272.14,92.34 272.26,92.75 274.17,91.83 275.01,91.35 290.67,88.77 290.72,93.40 292.57,93.85 307.78,92.66 330.07,90.08 339.00,89.70 354.12,88.05 354.35,85.44 356.52,83.48 372.47,81.65 399.64,80.23 399.68,77.46 399.94,82.23 415.03,80.59 418.63,77.94 433.35,75.29 435.70,74.17 445.35,71.49 466.89,69.06 482.71,68.71 530.65,65.88 530.74,70.72 530.83,75.53 530.90,74.62 531.05,75.63 567.90,72.96 570.06,72.78 570.79,77.60 570.82,75.26 570.95,73.63 585.56,70.96 591.18,68.54 592.91,65.70 592.95,62.79 593.12,67.70 593.17,72.54 593.21,70.29 593.34,75.11 593.36,72.61 593.40,70.34 593.51,75.10 593.54,72.56 593.65,77.36 593.69,75.72 593.83,73.07 593.85,70.33 593.97,67.65 594.02,72.49 594.09,71.48 594.18,69.38 594.47,69.20 594.86,67.00 595.27,71.88 601.95,69.94 612.93,67.64 613.34,64.93 613.37,62.31 627.50,59.56 628.59,64.51 637.28,61.78 637.37,59.04 655.40,56.28 658.80,55.73 680.30,54.26 701.39,53.01 722.58,50.22 722.80,49.69 743.99,49.29 755.57,48.17 759.87,45.59 786.74,42.76 786.79,40.15 787.04,45.28 805.19,45.36 807.88,42.53 808.17,40.16 820.32,45.28 820.40,44.02 829.42,43.40 850.69,42.43 892.57,40.61 893.37,39.33 905.77,36.47 905.81,33.87 914.58,31.24 954.15,28.55 954.24,26.07 979.19,25.00 1013.59,30.26 1013.63,35.45 1013.70,34.24 1013.76,39.35 1013.89,40.50 1013.90,37.52 1014.07,42.66 1014.21,39.99 1014.34,45.09 1014.42,44.16 1014.55,49.23 1014.60,54.22 1014.91,51.93 1015.28,52.48 1015.34,57.49 1028.75,55.36 1029.74,54.09 1030.54,54.98 1032.75,54.18 1035.69,52.16 1039.48,50.16 1042.74,47.63 1057.78,52.69 1071.58,52.80 1072.72,50.60 1079.14,48.42 1079.42,47.26 1092.41,44.31 1093.53,42.76 1093.67,41.74 1093.98,46.85 1094.04,44.80 1094.91,44.51 1103.29,41.55 1103.35,39.56 1103.41,44.66 1103.52,44.42 1103.68,49.48 1103.73,54.52 1106.38,54.29 1122.37,51.38 1123.09,51.07 1124.47,56.10 1125.17,54.85 1128.19,52.29 1146.27,50.00 1168.65,47.07 1168.69,44.83 1170.00,43.21"/>
<text x="620.0" y="588" text-anchor="middle" font-family="sans-serif" font-size="12" fill="#333">UTC time</text>
<text x="15" y="287.5" transform="rotate(-90 15,287.5)" text-anchor="middle" font-family="sans-serif" font-size="12" fill="#333">Capital</text>
</svg>