<svg xmlns="http://www.w3.org/2000/svg" width="1200" height="600" viewBox="0 0 1200 600">
<desc>Equity curve with drawdown fill</desc>
<text x="600.0" y="18.0" text-anchor="middle" font-family="sans-serif" font-size="14">Portfolio 2020</text>
<rect x="70" y="25" width="1100" height="525" fill="white" stroke="#ccc" />
<line x1="70" y1="550.00" x2="1170" y2="550.00" stroke="#eee"/>
<text x="62" y="554.0" text-anchor="end" font-family="sans-serif" font-size="11" fill="#555">0.00</text>
<line x1="70" y1="445.00" x2="1170" y2="445.00" stroke="#eee"/>
<text x="62" y="449.0" text-anchor="end" font-family="sans-serif" font-size="11" fill="#555">22342</text>
<line x1="70" y1="340.00" x2="1170" y2="340.00" stroke="#eee"/>
<text x="62" y="344.0" text-anchor="end" font-family="sans-serif" font-size="11" fill="#555">44683</text>
<line x1="70" y1="235.00" x2="1170" y2="235.00" stroke="#eee"/>
<text x="62" y="239.0" text-anchor="end" font-family="sans-serif" font-size="11" fill="#555">67025</text>
<line x1="70" y1="130.00" x2="1170" y2="130.00" stroke="#eee"/>
<text x="62" y="134.0" text-anchor="end" font-family="sans-serif" font-size="11" fill="#555">89367</text>
<line x1="70" y1="25.00" x2="1170" y2="25.00" stroke="#eee"/>
<text x="62" y="29.0" text-anchor="end" font-family="sans-serif" font-size="11" fill="#555">111709</text>
<line x1="100.06" y1="25" x2="100.06" y2="550" stroke="#f2f2f2"/>
<text x="100.06" y="566" text-anchor="middle" font-family="sans-serif" font-size="11" fill="#555">Mar</text>
<line x1="211.86" y1="25" x2="211.86" y2="550" stroke="#f2f2f2"/>
<text x="211.86" y="566" text-anchor="middle" font-family="sans-serif" font-size="11" fill="#555">Apr</text>
<line x1="320.05" y1="25" x2="320.05" y2="550" stroke="#f2f2f2"/>
<text x="320.05" y="566" text-anchor="middle" font-family="sans-serif" font-size="11" fill="#555">May</text>
<line x1="431.84" y1="25" x2="431.84" y2="550" stroke="#f2f2f2"/>
<text x="431.84" y="566" text-anchor="middle" font-family="sans-serif" font-size="11" fill="#555">Jun</text>
<line x1="540.03" y1="25" x2="540.03" y2="550" stroke="#f2f2f2"/>
<text x="540.03" y="566" text-anchor="middle" font-family="sans-serif" font-size="11" fill="#555">Jul</text>
<line x1="651.82" y1="25" x2="651.82" y2="550" stroke="#f2f2f2"/>
<text x="651.82" y="566" text-anchor="middle" font-family="sans-serif" font-size="11" fill="#555">Aug</text>
<line x1="763.62" y1="25" x2="763.62" y2="550" stroke="#f2f2f2"/>
<text x="763.62" y="566" text-anchor="middle" font-family="sans-serif" font-size="11" fill="#555">Sep</text>
<line x1="871.81" y1="25" x2="871.81" y2="550" stroke="#f2f2f2"/>
<text x="871.81" y="566" text-anchor="middle" font-family="sans-serif" font-size="11" fill="#555">Oct</text>
<line x1="983.60" y1="25" x2="983.60" y2="550" stroke="#f2f2f2"/>
<text x="983.60" y="566" text-anchor="middle" font-family="sans-serif" font-size="11" fill="#555">Nov</text>
<line x1="1091.79" y1="25" x2="1091.79" y2="550" stroke="#f2f2f2"/>
<text x="1091.79" y="566" text-anchor="middle" font-family="sans-serif" font-size="11" fill="#555">Dec</text>
<line x1="70" y1="550" x2="1170" y2="550" stroke="#888"/>
<line x1="70" y1="25" x2="70" y2="550" stroke="#888"/>
<path d="M 70.00 80.03 L 70.00 80.07 Z" fill="#d0d0d0" fill-opacity="0.5" stroke="none"/>
<path d="M 119.71 76.91 L 119.71 77.18 Z" fill="#d0d0d0" fill-opacity="0.5" stroke="none"/>
<path d="M 138.52 41.94 L 140.07 41.94 L 141.86 41.94 L 141.90 41.94 L 142.03 41.94 L 142.15 41.94 L 142.26 41.94 L 142.32 41.94 L 142.48 41.94 L 145.36 41.94 L 145.77 41.94 L 154.29 41.94 L 156.20 41.94 L 159.78 41.94 L 159.95 41.94 L 159.95 43.70 L 159.78 47.46 L 156.20 48.47 L 154.29 51.10 L 145.77 54.70 L 145.36 57.40 L 142.48 58.41 L 142.32 62.07 L 142.26 66.14 L 142.15 69.50 L 142.03 62.15 L 141.90 54.75 L 141.86 58.30 L 140.07 50.74 L 138.52 49.61 Z" fill="#d0d0d0" fill-opacity="0.5" stroke="none"/>
<path d="M 163.40 40.81 L 163.70 40.81 L 163.85 40.81 L 164.22 40.81 L 164.84 40.81 L 164.84 40.81 L 165.18 40.81 L 165.18 41.63 L 164.84 45.59 L 164.84 49.98 L 164.22 42.29 L 163.85 46.25 L 163.70 46.77 L 163.40 48.51 Z" fill="#d0d0d0" fill-opacity="0.5" stroke="none"/>
<path d="M 166.20 37.62 L 166.22 37.62 L 166.53 37.62 L 166.80 37.62 L 166.88 37.62 L 166.92 37.62 L 167.38 37.62 L 167.52 37.62 L 167.53 37.62 L 167.58 37.62 L 167.79 37.62 L 168.86 37.62 L 169.78 37.62 L 170.10 37.62 L 170.61 37.62 L 170.98 37.62 L 180.66 37.62 L 181.24 37.62 L 181.27 37.62 L 181.42 37.62 L 181.51 37.62 L 181.67 37.62 L 181.93 37.62 L 183.18 37.62 L 184.04 37.62 L 184.56 37.62 L 185.09 37.62 L 189.30 37.62 L 190.37 37.62 L 192.57 37.62 L 194.98 37.62 L 195.89 37.62 L 196.24 37.62 L 196.33 37.62 L 196.57 37.62 L 208.54 37.62 L 210.12 37.62 L 210.82 37.62 L 213.33 37.62 L 217.65 37.62 L 234.81 37.62 L 242.88 37.62 L 264.47 37.62 L 268.46 37.62 L 293.58 37.62 L 294.08 37.62 L 310.88 37.62 L 318.84 37.62 L 318.96 37.62 L 335.99 37.62 L 383.83 37.62 L 394.61 37.62 L 415.61 37.62 L 444.66 37.62 L 444.99 37.62 L 445.11 37.62 L 448.30 37.62 L 463.03 37.62 L 467.25 37.62 L 470.82 37.62 L 474.01 37.62 L 485.27 37.62 L 488.25 37.62 L 498.84 37.62 L 499.16 37.62 L 542.42 37.62 L 617.51 37.62 L 646.84 37.62 L 650.89 37.62 L 664.78 37.62 L 675.79 37.62 L 719.38 37.62 L 719.65 37.62 L 747.71 37.62 L 747.71 40.61 L 719.65 44.88 L 719.38 47.54 L 675.79 50.11 L 664.78 48.70 L 650.89 51.21 L 646.84 53.99 L 617.51 57.01 L 542.42 59.08 L 499.16 58.85 L 498.84 62.45 L 488.25 65.53 L 485.27 68.69 L 474.01 71.13 L 470.82 70.46 L 467.25 69.32 L 463.03 70.59 L 448.30 69.32 L 445.11 73.37 L 444.99 73.85 L 444.66 66.49 L 415.61 68.86 L 394.61 66.83 L 383.83 69.32 L 335.99 72.87 L 318.96 65.51 L 318.84 66.01 L 310.88 58.55 L 294.08 60.46 L 293.58 62.93 L 268.46 64.06 L 264.47 64.93 L 242.88 66.00 L 234.81 58.54 L 217.65 60.41 L 213.33 61.46 L 210.82 62.04 L 210.12 65.20 L 208.54 67.52 L 196.57 71.22 L 196.33 72.77 L 196.24 74.82 L 195.89 67.50 L 194.98 70.36 L 192.57 73.57 L 190.37 76.75 L 189.30 80.01 L 185.09 81.40 L 184.56 84.53 L 184.04 87.58 L 183.18 80.44 L 181.93 73.20 L 181.67 74.98 L 181.51 78.36 L 181.42 82.05 L 181.27 85.45 L 181.24 78.32 L 180.66 71.04 L 170.98 73.13 L 170.61 77.10 L 170.10 80.71 L 169.78 73.48 L 168.86 66.14 L 167.79 58.68 L 167.58 62.22 L 167.53 65.05 L 167.52 57.70 L 167.38 50.16 L 166.92 42.48 L 166.88 46.69 L 166.80 49.48 L 166.53 49.01 L 166.22 41.32 L 166.20 45.37 Z" fill="#d0d0d0" fill-opacity="0.5" stroke="none"/>
<path d="M 837.38 25.28 L 837.38 29.13 Z" fill="#d0d0d0" fill-opacity="0.5" stroke="none"/>
<path d="M 994.90 25.00 L 1014.87 25.00 L 1065.26 25.00 L 1094.29 25.00 L 1165.54 25.00 L 1170.00 25.00 L 1170.00 38.60 L 1165.54 39.58 L 1094.29 40.31 L 1065.26 41.41 L 1014.87 33.60 L 994.90 25.67 Z" fill="#d0d0d0" fill-opacity="0.5" stroke="none"/>
<polyline fill="none" stroke="#111" stroke-width="1.2" points="70.00,80.07 106.28,76.91 119.71,77.18 128.79,74.06 129.19,69.84 129.19,65.50 130.00,61.77 130.35,59.08 130.98,56.54 131.00,52.39 132.69,49.63 133.38,46.17 134.97,41.94 138.52,49.61 140.07,50.74 141.86,58.30 141.90,54.75 142.03,62.15 142.15,69.50 142.26,66.14 142.32,62.07 142.48,58.41 145.36,57.40 145.77,54.70 154.29,51.10 156.20,48.47 159.78,47.46 159.95,43.70 162.61,40.81 163.40,48.51 163.70,46.77 163.85,46.25 164.22,42.29 164.84,49.98 164.84,45.59 165.18,41.63 165.98,37.62 166.20,45.37 166.22,41.32 166.53,49.01 166.80,49.48 166.88,46.69 166.92,42.48 167.38,50.16 167.52,57.70 167.53,65.05 167.58,62.22 167.79,58.68 168.86,66.14 169.78,73.48 170.10,80.71 170.61,77.10 170.98,73.13 180.66,71.04 181.24,78.32 181.27,85.45 181.42,82.05 181.51,78.36 181.67,74.98 181.93,73.20 183.18,80.44 184.04,87.58 184.56,84.53 185.09,81.40 189.30,80.01 190.37,76.75 192.57,73.57 194.98,70.36 195.89,67.50 196.24,74.82 196.33,72.77 196.57,71.22 208.54,67.52 210.12,65.20 210.82,62.04 213.33,61.46 217.65,60.41 234.81,58.54 242.88,66.00 264.47,64.93 268.46,64.06 293.58,62.93 294.08,60.46 310.88,58.55 318.84,66.01 318.96,65.51 335.99,72.87 383.83,69.32 394.61,66.83 415.61,68.86 444.66,66.49 444.99,73.85 445.11,73.37 448.30,69.32 463.03,70.59 467.25,69.32 470.82,70.46 474.01,71.13 485.27,68.69 488.25,65.53 498.84,62.45 499.16,58.85 542.42,59.08 617.51,57.01 646.84,53.99 650.89,51.21 664.78,48.70 675.79,50.11 719.38,47.54 719.65,44.88 747.71,40.61 747.76,36.43 747.89,33.26 794.56,29.24 798.12,25.28 837.38,29.13 994.58,25.00 994.90,25.67 1014.87,33.60 1065.26,41.41 1094.29,40.31 1165.54,39.58 1170.00,38.60"/>
<text x="620.0" y="588" text-anchor="middle" font-family="sans-serif" font-size="12" fill="#333">UTC time</text>
<text x="15" y="287.5" transform="rotate(-90 15,287.5)" text-anchor="middle" font-family="sans-serif" font-size="12" fill="#333">Capital</text>
</svg>