<svg xmlns="http://www.w3.org/2000/svg" width="1200" height="600" viewBox="0 0 1200 600">
<desc>Equity curve with drawdown fill; x-axis is months only (no exact timestamps)</desc>
<text x="600.0" y="18.0" text-anchor="middle" font-family="sans-serif" font-size="14">Portfolio 2015 (UTC)</text>
<rect x="70" y="25" width="1100" height="525" fill="white" stroke="#ccc" />
<line x1="70" y1="550.00" x2="1170" y2="550.00" stroke="#eee"/>
<text x="62" y="554.0" text-anchor="end" font-family="sans-serif" font-size="11" fill="#555">0.00</text>
<line x1="70" y1="445.00" x2="1170" y2="445.00" stroke="#eee"/>
<text x="62" y="449.0" text-anchor="end" font-family="sans-serif" font-size="11" fill="#555">56655</text>
<line x1="70" y1="340.00" x2="1170" y2="340.00" stroke="#eee"/>
<text x="62" y="344.0" text-anchor="end" font-family="sans-serif" font-size="11" fill="#555">113310</text>
<line x1="70" y1="235.00" x2="1170" y2="235.00" stroke="#eee"/>
<text x="62" y="239.0" text-anchor="end" font-family="sans-serif" font-size="11" fill="#555">169966</text>
<line x1="70" y1="130.00" x2="1170" y2="130.00" stroke="#eee"/>
<text x="62" y="134.0" text-anchor="end" font-family="sans-serif" font-size="11" fill="#555">226621</text>
<line x1="70" y1="25.00" x2="1170" y2="25.00" stroke="#eee"/>
<text x="62" y="29.0" text-anchor="end" font-family="sans-serif" font-size="11" fill="#555">283276</text>
<line x1="161.67" y1="25" x2="161.67" y2="550" stroke="#f2f2f2"/>
<line x1="253.33" y1="25" x2="253.33" y2="550" stroke="#f2f2f2"/>
<line x1="345.00" y1="25" x2="345.00" y2="550" stroke="#f2f2f2"/>
<line x1="436.67" y1="25" x2="436.67" y2="550" stroke="#f2f2f2"/>
<line x1="528.33" y1="25" x2="528.33" y2="550" stroke="#f2f2f2"/>
<line x1="620.00" y1="25" x2="620.00" y2="550" stroke="#f2f2f2"/>
<line x1="711.67" y1="25" x2="711.67" y2="550" stroke="#f2f2f2"/>
<line x1="803.33" y1="25" x2="803.33" y2="550" stroke="#f2f2f2"/>
<line x1="895.00" y1="25" x2="895.00" y2="550" stroke="#f2f2f2"/>
<line x1="986.67" y1="25" x2="986.67" y2="550" stroke="#f2f2f2"/>
<line x1="1078.33" y1="25" x2="1078.33" y2="550" stroke="#f2f2f2"/>
<text x="115.83" y="566.00" text-anchor="middle" font-family="sans-serif" font-size="11" fill="#444">Jan</text>
<text x="207.50" y="566.00" text-anchor="middle" font-family="sans-serif" font-size="11" fill="#444">Feb</text>
<text x="299.17" y="566.00" text-anchor="middle" font-family="sans-serif" font-size="11" fill="#444">Mar</text>
<text x="390.83" y="566.00" text-anchor="middle" font-family="sans-serif" font-size="11" fill="#444">Apr</text>
<text x="482.50" y="566.00" text-anchor="middle" font-family="sans-serif" font-size="11" fill="#444">May</text>
<text x="574.17" y="566.00" text-anchor="middle" font-family="sans-serif" font-size="11" fill="#444">Jun</text>
<text x="665.83" y="566.00" text-anchor="middle" font-family="sans-serif" font-size="11" fill="#444">Jul</text>
<text x="757.50" y="566.00" text-anchor="middle" font-family="sans-serif" font-size="11" fill="#444">Aug</text>
<text x="849.17" y="566.00" text-anchor="middle" font-family="sans-serif" font-size="11" fill="#444">Sep</text>
<text x="940.83" y="566.00" text-anchor="middle" font-family="sans-serif" font-size="11" fill="#444">Oct</text>
<text x="1032.50" y="566.00" text-anchor="middle" font-family="sans-serif" font-size="11" fill="#444">Nov</text>
<text x="1124.17" y="566.00" text-anchor="middle" font-family="sans-serif" font-size="11" fill="#444">Dec</text>
<line x1="70" y1="550" x2="1170" y2="550" stroke="#888"/>
<line x1="70" y1="25" x2="70" y2="550" stroke="#888"/>
<line x1="77.64" y1="550.00" x2="77.64" y2="556.00" stroke="#888"/>
<line x1="1158.54"   y1="550.00" x2="1158.54"   y2="556.00" stroke="#888"/>
<text x="77.64" y="582.00" text-anchor="start" font-family="sans-serif" font-size="11" fill="#333">Initial Balance: 226434</text>
<text x="1158.54"   y="582.00" text-anchor="end"   font-family="sans-serif" font-size="11" fill="#333">Ending Balance: 281907</text>
<path d="M 165.83 120.88 L 174.17 120.88 L 182.50 120.88 L 182.50 122.21 L 174.17 124.39 L 165.83 125.21 Z" fill="#d0d0d0" fill-opacity="0.5" stroke="none"/>
<path d="M 255.33 109.63 L 255.33 110.41 Z" fill="#d0d0d0" fill-opacity="0.5" stroke="none"/>
<path d="M 263.30 109.56 L 267.28 109.56 L 267.28 111.60 L 263.30 114.01 Z" fill="#d0d0d0" fill-opacity="0.5" stroke="none"/>
<path d="M 279.24 107.73 L 283.22 107.73 L 287.21 107.73 L 287.21 109.80 L 283.22 110.16 L 279.24 112.19 Z" fill="#d0d0d0" fill-opacity="0.5" stroke="none"/>
<path d="M 311.12 98.87 L 315.11 98.87 L 319.09 98.87 L 319.09 99.40 L 315.11 101.11 L 311.12 103.42 Z" fill="#d0d0d0" fill-opacity="0.5" stroke="none"/>
<path d="M 361.89 79.70 L 366.71 79.70 L 371.54 79.70 L 371.54 80.81 L 366.71 81.94 L 361.89 84.43 Z" fill="#d0d0d0" fill-opacity="0.5" stroke="none"/>
<path d="M 381.18 78.23 L 386.01 78.23 L 390.83 78.23 L 395.66 78.23 L 400.48 78.23 L 405.31 78.23 L 410.13 78.23 L 414.96 78.23 L 419.78 78.23 L 424.61 78.23 L 429.43 78.23 L 434.25 78.23 L 439.72 78.23 L 445.83 78.23 L 451.94 78.23 L 458.06 78.23 L 464.17 78.23 L 470.28 78.23 L 470.28 79.07 L 464.17 81.66 L 458.06 83.90 L 451.94 79.17 L 445.83 80.58 L 439.72 83.16 L 434.25 84.30 L 429.43 86.61 L 424.61 81.93 L 419.78 84.61 L 414.96 85.77 L 410.13 81.05 L 405.31 82.52 L 400.48 84.39 L 395.66 84.16 L 390.83 86.49 L 386.01 81.78 L 381.18 82.97 Z" fill="#d0d0d0" fill-opacity="0.5" stroke="none"/>
<path d="M 494.72 72.74 L 500.83 72.74 L 506.94 72.74 L 513.06 72.74 L 519.17 72.74 L 525.28 72.74 L 530.62 72.74 L 535.21 72.74 L 539.79 72.74 L 544.38 72.74 L 544.38 74.93 L 539.79 77.54 L 535.21 72.75 L 530.62 74.83 L 525.28 77.43 L 519.17 79.34 L 513.06 81.70 L 506.94 81.05 L 500.83 82.28 L 494.72 77.53 Z" fill="#d0d0d0" fill-opacity="0.5" stroke="none"/>
<path d="M 594.79 53.11 L 599.38 53.11 L 603.96 53.11 L 608.54 53.11 L 613.12 53.11 L 617.71 53.11 L 625.09 53.11 L 635.28 53.11 L 645.46 53.11 L 645.46 53.60 L 635.28 55.12 L 625.09 57.81 L 617.71 60.33 L 613.12 63.15 L 608.54 58.27 L 603.96 61.08 L 599.38 62.99 L 594.79 58.07 Z" fill="#d0d0d0" fill-opacity="0.5" stroke="none"/>
<path d="M 665.83 51.14 L 665.83 51.53 Z" fill="#d0d0d0" fill-opacity="0.5" stroke="none"/>
<path d="M 696.39 46.18 L 706.57 46.18 L 714.08 46.18 L 718.90 46.18 L 723.73 46.18 L 728.55 46.18 L 733.38 46.18 L 738.20 46.18 L 743.03 46.18 L 747.85 46.18 L 752.68 46.18 L 757.50 46.18 L 757.50 46.88 L 752.68 49.51 L 747.85 52.04 L 743.03 52.50 L 738.20 53.31 L 733.38 48.30 L 728.55 47.81 L 723.73 50.55 L 718.90 53.40 L 714.08 48.40 L 706.57 51.13 L 696.39 51.16 Z" fill="#d0d0d0" fill-opacity="0.5" stroke="none"/>
<path d="M 771.97 42.97 L 776.80 42.97 L 781.62 42.97 L 786.45 42.97 L 791.27 42.97 L 791.27 44.86 L 786.45 45.48 L 781.62 48.38 L 776.80 45.62 L 771.97 48.02 Z" fill="#d0d0d0" fill-opacity="0.5" stroke="none"/>
<path d="M 860.62 36.53 L 883.54 36.53 L 901.55 36.53 L 914.64 36.53 L 927.74 36.53 L 927.74 37.76 L 914.64 37.13 L 901.55 37.97 L 883.54 38.41 L 860.62 37.67 Z" fill="#d0d0d0" fill-opacity="0.5" stroke="none"/>
<path d="M 967.02 32.25 L 967.02 33.85 Z" fill="#d0d0d0" fill-opacity="0.5" stroke="none"/>
<path d="M 1112.71 25.00 L 1135.62 25.00 L 1158.54 25.00 L 1158.54 27.54 L 1135.62 28.47 L 1112.71 30.20 Z" fill="#d0d0d0" fill-opacity="0.5" stroke="none"/>
<polyline fill="none" stroke="#111" stroke-width="1.2" points="77.64,130.35 92.92,128.00 108.19,127.45 123.47,125.18 138.75,123.06 154.03,120.88 165.83,125.21 174.17,124.39 182.50,122.21 190.83,120.38 199.17,119.30 207.50,118.53 215.83,116.26 224.17,114.97 232.50,113.09 240.83,112.20 249.17,109.63 255.33,110.41 259.31,109.56 263.30,114.01 267.28,111.60 271.27,109.26 275.25,107.73 279.24,112.19 283.22,110.16 287.21,109.80 291.20,107.37 295.18,105.07 299.17,103.17 303.15,101.24 307.14,98.87 311.12,103.42 315.11,101.11 319.09,99.40 323.08,96.91 327.07,94.40 331.05,92.15 335.04,90.58 339.02,88.04 343.01,85.54 347.41,83.53 352.24,81.15 357.06,79.70 361.89,84.43 366.71,81.94 371.54,80.81 376.36,78.23 381.18,82.97 386.01,81.78 390.83,86.49 395.66,84.16 400.48,84.39 405.31,82.52 410.13,81.05 414.96,85.77 419.78,84.61 424.61,81.93 429.43,86.61 434.25,84.30 439.72,83.16 445.83,80.58 451.94,79.17 458.06,83.90 464.17,81.66 470.28,79.07 476.39,76.47 482.50,74.51 488.61,72.74 494.72,77.53 500.83,82.28 506.94,81.05 513.06,81.70 519.17,79.34 525.28,77.43 530.62,74.83 535.21,72.75 539.79,77.54 544.38,74.93 548.96,72.51 553.54,69.88 558.12,69.67 562.71,67.02 567.29,65.16 571.88,63.04 576.46,60.36 581.04,57.66 585.62,55.83 590.21,53.11 594.79,58.07 599.38,62.99 603.96,61.08 608.54,58.27 613.12,63.15 617.71,60.33 625.09,57.81 635.28,55.12 645.46,53.60 655.65,51.14 665.83,51.53 676.02,49.04 686.20,46.18 696.39,51.16 706.57,51.13 714.08,48.40 718.90,53.40 723.73,50.55 728.55,47.81 733.38,48.30 738.20,53.31 743.03,52.50 747.85,52.04 752.68,49.51 757.50,46.88 762.32,44.13 767.15,42.97 771.97,48.02 776.80,45.62 781.62,48.38 786.45,45.48 791.27,44.86 796.10,42.09 800.92,40.02 814.79,39.32 837.71,36.53 860.62,37.67 883.54,38.41 901.55,37.97 914.64,37.13 927.74,37.76 940.83,34.96 953.93,32.25 967.02,33.85 980.12,31.03 1009.58,28.21 1055.42,27.28 1089.79,25.00 1112.71,30.20 1135.62,28.47 1158.54,27.54"/>
<text x="620.0" y="588" text-anchor="middle" font-family="sans-serif" font-size="12" fill="#333">Monthly Balance Curve</text>
<text x="15" y="287.5" transform="rotate(-90 15,287.5)" text-anchor="middle" font-family="sans-serif" font-size="12" fill="#333">Capital</text>
</svg>