<svg xmlns="http://www.w3.org/2000/svg" width="1200" height="600" viewBox="0 0 1200 600">
<desc>Equity curve with drawdown fill</desc>
<text x="600.0" y="18.0" text-anchor="middle" font-family="sans-serif" font-size="14">Portfolio 2023</text>
<rect x="70" y="25" width="1100" height="525" fill="white" stroke="#ccc" />
<line x1="70" y1="550.00" x2="1170" y2="550.00" stroke="#eee"/>
<text x="62" y="554.0" text-anchor="end" font-family="sans-serif" font-size="11" fill="#555">0.00</text>
<line x1="70" y1="445.00" x2="1170" y2="445.00" stroke="#eee"/>
<text x="62" y="449.0" text-anchor="end" font-family="sans-serif" font-size="11" fill="#555">21159</text>
<line x1="70" y1="340.00" x2="1170" y2="340.00" stroke="#eee"/>
<text x="62" y="344.0" text-anchor="end" font-family="sans-serif" font-size="11" fill="#555">42319</text>
<line x1="70" y1="235.00" x2="1170" y2="235.00" stroke="#eee"/>
<text x="62" y="239.0" text-anchor="end" font-family="sans-serif" font-size="11" fill="#555">63478</text>
<line x1="70" y1="130.00" x2="1170" y2="130.00" stroke="#eee"/>
<text x="62" y="134.0" text-anchor="end" font-family="sans-serif" font-size="11" fill="#555">84638</text>
<line x1="70" y1="25.00" x2="1170" y2="25.00" stroke="#eee"/>
<text x="62" y="29.0" text-anchor="end" font-family="sans-serif" font-size="11" fill="#555">105797</text>
<line x1="157.75" y1="25" x2="157.75" y2="550" stroke="#f2f2f2"/>
<text x="157.75" y="566" text-anchor="middle" font-family="sans-serif" font-size="11" fill="#555">Feb</text>
<line x1="243.48" y1="25" x2="243.48" y2="550" stroke="#f2f2f2"/>
<text x="243.48" y="566" text-anchor="middle" font-family="sans-serif" font-size="11" fill="#555">Mar</text>
<line x1="338.40" y1="25" x2="338.40" y2="550" stroke="#f2f2f2"/>
<text x="338.40" y="566" text-anchor="middle" font-family="sans-serif" font-size="11" fill="#555">Apr</text>
<line x1="430.26" y1="25" x2="430.26" y2="550" stroke="#f2f2f2"/>
<text x="430.26" y="566" text-anchor="middle" font-family="sans-serif" font-size="11" fill="#555">May</text>
<line x1="525.18" y1="25" x2="525.18" y2="550" stroke="#f2f2f2"/>
<text x="525.18" y="566" text-anchor="middle" font-family="sans-serif" font-size="11" fill="#555">Jun</text>
<line x1="617.04" y1="25" x2="617.04" y2="550" stroke="#f2f2f2"/>
<text x="617.04" y="566" text-anchor="middle" font-family="sans-serif" font-size="11" fill="#555">Jul</text>
<line x1="711.96" y1="25" x2="711.96" y2="550" stroke="#f2f2f2"/>
<text x="711.96" y="566" text-anchor="middle" font-family="sans-serif" font-size="11" fill="#555">Aug</text>
<line x1="806.88" y1="25" x2="806.88" y2="550" stroke="#f2f2f2"/>
<text x="806.88" y="566" text-anchor="middle" font-family="sans-serif" font-size="11" fill="#555">Sep</text>
<line x1="898.74" y1="25" x2="898.74" y2="550" stroke="#f2f2f2"/>
<text x="898.74" y="566" text-anchor="middle" font-family="sans-serif" font-size="11" fill="#555">Oct</text>
<line x1="993.66" y1="25" x2="993.66" y2="550" stroke="#f2f2f2"/>
<text x="993.66" y="566" text-anchor="middle" font-family="sans-serif" font-size="11" fill="#555">Nov</text>
<line x1="1085.52" y1="25" x2="1085.52" y2="550" stroke="#f2f2f2"/>
<text x="1085.52" y="566" text-anchor="middle" font-family="sans-serif" font-size="11" fill="#555">Dec</text>
<line x1="70" y1="550" x2="1170" y2="550" stroke="#888"/>
<line x1="70" y1="25" x2="70" y2="550" stroke="#888"/>
<path d="M 70.00 53.77 L 70.11 53.77 L 70.14 53.77 L 70.85 53.77 L 73.12 53.77 L 76.98 53.77 L 79.94 53.77 L 80.08 53.77 L 80.32 53.77 L 80.46 53.77 L 89.09 53.77 L 98.23 53.77 L 98.31 53.77 L 98.86 53.77 L 113.91 53.77 L 116.01 53.77 L 116.74 53.77 L 117.17 53.77 L 138.27 53.77 L 160.73 53.77 L 162.61 53.77 L 162.76 53.77 L 165.59 53.77 L 165.76 53.77 L 165.82 53.77 L 178.41 53.77 L 199.28 53.77 L 199.42 53.77 L 199.42 55.78 L 199.28 59.57 L 178.41 63.64 L 165.82 56.15 L 165.76 59.64 L 165.59 62.24 L 162.76 66.53 L 162.61 69.84 L 160.73 72.95 L 138.27 75.93 L 117.17 78.76 L 116.74 78.57 L 116.01 82.16 L 113.91 80.23 L 98.86 81.03 L 98.31 82.68 L 98.23 86.11 L 89.09 89.99 L 80.46 92.27 L 80.32 88.98 L 80.08 82.85 L 79.94 75.66 L 76.98 78.58 L 73.12 71.33 L 70.85 72.68 L 70.14 75.85 L 70.11 68.68 L 70.00 61.29 Z" fill="#d0d0d0" fill-opacity="0.5" stroke="none"/>
<path d="M 264.22 46.54 L 273.13 46.54 L 280.66 46.54 L 281.47 46.54 L 281.47 48.58 L 280.66 50.10 L 273.13 51.52 L 264.22 54.18 Z" fill="#d0d0d0" fill-opacity="0.5" stroke="none"/>
<path d="M 287.69 44.78 L 288.01 44.78 L 288.30 44.78 L 288.52 44.78 L 303.46 44.78 L 313.27 44.78 L 314.96 44.78 L 315.35 44.78 L 315.44 44.78 L 367.70 44.78 L 373.87 44.78 L 380.15 44.78 L 389.70 44.78 L 389.70 46.95 L 380.15 45.00 L 373.87 48.38 L 367.70 50.21 L 315.44 52.72 L 315.35 52.44 L 314.96 53.80 L 313.27 57.06 L 303.46 60.84 L 288.52 64.46 L 288.30 63.16 L 288.01 59.97 L 287.69 52.45 Z" fill="#d0d0d0" fill-opacity="0.5" stroke="none"/>
<path d="M 570.26 25.00 L 593.63 25.00 L 612.86 25.00 L 616.10 25.00 L 637.15 25.00 L 652.46 25.00 L 677.47 25.00 L 688.67 25.00 L 698.83 25.00 L 698.92 25.00 L 701.46 25.00 L 717.02 25.00 L 722.96 25.00 L 753.69 25.00 L 780.45 25.00 L 799.68 25.00 L 809.11 25.00 L 848.41 25.00 L 867.50 25.00 L 915.81 25.00 L 915.85 25.00 L 916.18 25.00 L 934.18 25.00 L 956.04 25.00 L 991.88 25.00 L 1001.38 25.00 L 1001.46 25.00 L 1001.57 25.00 L 1035.19 25.00 L 1035.37 25.00 L 1035.44 25.00 L 1096.57 25.00 L 1108.68 25.00 L 1124.72 25.00 L 1124.87 25.00 L 1127.16 25.00 L 1130.16 25.00 L 1170.00 25.00 L 1170.00 40.59 L 1130.16 43.74 L 1127.16 46.26 L 1124.87 49.21 L 1124.72 47.14 L 1108.68 39.38 L 1096.57 43.67 L 1035.44 46.72 L 1035.37 38.96 L 1035.19 31.11 L 1001.57 35.47 L 1001.46 38.60 L 1001.38 41.45 L 991.88 45.72 L 956.04 49.49 L 934.18 53.37 L 916.18 57.18 L 915.85 49.58 L 915.81 52.93 L 867.50 45.26 L 848.41 49.08 L 809.11 41.35 L 799.68 37.46 L 780.45 39.11 L 753.69 42.21 L 722.96 44.55 L 717.02 36.76 L 701.46 40.20 L 698.92 41.42 L 698.83 40.59 L 688.67 37.05 L 677.47 36.62 L 652.46 28.72 L 637.15 32.66 L 616.10 36.97 L 612.86 38.15 L 593.63 40.81 L 570.26 32.96 Z" fill="#d0d0d0" fill-opacity="0.5" stroke="none"/>
<polyline fill="none" stroke="#111" stroke-width="1.2" points="70.00,61.29 70.11,68.68 70.14,75.85 70.85,72.68 73.12,71.33 76.98,78.58 79.94,75.66 80.08,82.85 80.32,88.98 80.46,92.27 89.09,89.99 98.23,86.11 98.31,82.68 98.86,81.03 113.91,80.23 116.01,82.16 116.74,78.57 117.17,78.76 138.27,75.93 160.73,72.95 162.61,69.84 162.76,66.53 165.59,62.24 165.76,59.64 165.82,56.15 178.41,63.64 199.28,59.57 199.42,55.78 199.60,52.34 208.71,48.90 245.19,46.54 264.22,54.18 273.13,51.52 280.66,50.10 281.47,48.58 282.29,44.78 287.69,52.45 288.01,59.97 288.30,63.16 288.52,64.46 303.46,60.84 313.27,57.06 314.96,53.80 315.35,52.44 315.44,52.72 367.70,50.21 373.87,48.38 380.15,45.00 389.70,46.95 413.96,43.93 438.82,39.68 441.57,39.07 444.23,34.74 459.73,30.69 461.97,28.98 527.11,25.00 570.26,32.96 593.63,40.81 612.86,38.15 616.10,36.97 637.15,32.66 652.46,28.72 677.47,36.62 688.67,37.05 698.83,40.59 698.92,41.42 701.46,40.20 717.02,36.76 722.96,44.55 753.69,42.21 780.45,39.11 799.68,37.46 809.11,41.35 848.41,49.08 867.50,45.26 915.81,52.93 915.85,49.58 916.18,57.18 934.18,53.37 956.04,49.49 991.88,45.72 1001.38,41.45 1001.46,38.60 1001.57,35.47 1035.19,31.11 1035.37,38.96 1035.44,46.72 1096.57,43.67 1108.68,39.38 1124.72,47.14 1124.87,49.21 1127.16,46.26 1130.16,43.74 1170.00,40.59"/>
<text x="620.0" y="588" text-anchor="middle" font-family="sans-serif" font-size="12" fill="#333">UTC time</text>
<text x="15" y="287.5" transform="rotate(-90 15,287.5)" text-anchor="middle" font-family="sans-serif" font-size="12" fill="#333">Capital</text>
</svg>