<svg xmlns="http://www.w3.org/2000/svg" width="1200" height="600" viewBox="0 0 1200 600">
<desc>Equity curve with drawdown fill</desc>
<text x="600.0" y="18.0" text-anchor="middle" font-family="sans-serif" font-size="14">Portfolio 2022</text>
<rect x="70" y="25" width="1100" height="525" fill="white" stroke="#ccc" />
<line x1="70" y1="550.00" x2="1170" y2="550.00" stroke="#eee"/>
<text x="62" y="554.0" text-anchor="end" font-family="sans-serif" font-size="11" fill="#555">0.00</text>
<line x1="70" y1="445.00" x2="1170" y2="445.00" stroke="#eee"/>
<text x="62" y="449.0" text-anchor="end" font-family="sans-serif" font-size="11" fill="#555">50315</text>
<line x1="70" y1="340.00" x2="1170" y2="340.00" stroke="#eee"/>
<text x="62" y="344.0" text-anchor="end" font-family="sans-serif" font-size="11" fill="#555">100631</text>
<line x1="70" y1="235.00" x2="1170" y2="235.00" stroke="#eee"/>
<text x="62" y="239.0" text-anchor="end" font-family="sans-serif" font-size="11" fill="#555">150946</text>
<line x1="70" y1="130.00" x2="1170" y2="130.00" stroke="#eee"/>
<text x="62" y="134.0" text-anchor="end" font-family="sans-serif" font-size="11" fill="#555">201261</text>
<line x1="70" y1="25.00" x2="1170" y2="25.00" stroke="#eee"/>
<text x="62" y="29.0" text-anchor="end" font-family="sans-serif" font-size="11" fill="#555">251577</text>
<line x1="157.17" y1="25" x2="157.17" y2="550" stroke="#f2f2f2"/>
<text x="157.17" y="566" text-anchor="middle" font-family="sans-serif" font-size="11" fill="#555">Mar</text>
<line x1="263.92" y1="25" x2="263.92" y2="550" stroke="#f2f2f2"/>
<text x="263.92" y="566" text-anchor="middle" font-family="sans-serif" font-size="11" fill="#555">Apr</text>
<line x1="367.22" y1="25" x2="367.22" y2="550" stroke="#f2f2f2"/>
<text x="367.22" y="566" text-anchor="middle" font-family="sans-serif" font-size="11" fill="#555">May</text>
<line x1="473.97" y1="25" x2="473.97" y2="550" stroke="#f2f2f2"/>
<text x="473.97" y="566" text-anchor="middle" font-family="sans-serif" font-size="11" fill="#555">Jun</text>
<line x1="577.28" y1="25" x2="577.28" y2="550" stroke="#f2f2f2"/>
<text x="577.28" y="566" text-anchor="middle" font-family="sans-serif" font-size="11" fill="#555">Jul</text>
<line x1="684.02" y1="25" x2="684.02" y2="550" stroke="#f2f2f2"/>
<text x="684.02" y="566" text-anchor="middle" font-family="sans-serif" font-size="11" fill="#555">Aug</text>
<line x1="790.77" y1="25" x2="790.77" y2="550" stroke="#f2f2f2"/>
<text x="790.77" y="566" text-anchor="middle" font-family="sans-serif" font-size="11" fill="#555">Sep</text>
<line x1="894.08" y1="25" x2="894.08" y2="550" stroke="#f2f2f2"/>
<text x="894.08" y="566" text-anchor="middle" font-family="sans-serif" font-size="11" fill="#555">Oct</text>
<line x1="1000.83" y1="25" x2="1000.83" y2="550" stroke="#f2f2f2"/>
<text x="1000.83" y="566" text-anchor="middle" font-family="sans-serif" font-size="11" fill="#555">Nov</text>
<line x1="1104.13" y1="25" x2="1104.13" y2="550" stroke="#f2f2f2"/>
<text x="1104.13" y="566" text-anchor="middle" font-family="sans-serif" font-size="11" fill="#555">Dec</text>
<line x1="70" y1="550" x2="1170" y2="550" stroke="#888"/>
<line x1="70" y1="25" x2="70" y2="550" stroke="#888"/>
<path d="M 70.00 68.66 L 93.83 68.66 L 94.07 68.66 L 97.90 68.66 L 116.45 68.66 L 140.63 68.66 L 141.40 68.66 L 141.40 69.59 L 140.63 72.02 L 116.45 72.59 L 97.90 74.48 L 94.07 76.30 L 93.83 71.44 L 70.00 73.55 Z" fill="#d0d0d0" fill-opacity="0.5" stroke="none"/>
<path d="M 177.84 54.17 L 177.84 54.89 Z" fill="#d0d0d0" fill-opacity="0.5" stroke="none"/>
<path d="M 179.64 53.76 L 179.66 53.76 L 179.66 56.11 L 179.64 58.80 Z" fill="#d0d0d0" fill-opacity="0.5" stroke="none"/>
<path d="M 183.91 53.25 L 183.91 53.87 Z" fill="#d0d0d0" fill-opacity="0.5" stroke="none"/>
<path d="M 187.10 49.33 L 190.32 49.33 L 193.26 49.33 L 193.26 50.85 L 190.32 53.40 L 187.10 54.42 Z" fill="#d0d0d0" fill-opacity="0.5" stroke="none"/>
<path d="M 255.51 45.58 L 307.79 45.58 L 310.73 45.58 L 310.82 45.58 L 311.00 45.58 L 330.91 45.58 L 333.99 45.58 L 347.60 45.58 L 354.68 45.58 L 355.54 45.58 L 358.19 45.58 L 362.31 45.58 L 371.84 45.58 L 376.16 45.58 L 382.87 45.58 L 385.60 45.58 L 397.33 45.58 L 397.33 47.46 L 385.60 48.31 L 382.87 50.56 L 376.16 52.76 L 371.84 51.11 L 362.31 53.39 L 358.19 55.24 L 355.54 57.73 L 354.68 57.55 L 347.60 59.75 L 333.99 62.46 L 330.91 57.45 L 311.00 59.11 L 310.82 59.92 L 310.73 54.92 L 307.79 49.84 L 255.51 50.71 Z" fill="#d0d0d0" fill-opacity="0.5" stroke="none"/>
<path d="M 406.28 44.67 L 407.56 44.67 L 431.51 44.67 L 444.45 44.67 L 447.57 44.67 L 472.27 44.67 L 476.23 44.67 L 476.23 45.19 L 472.27 45.24 L 447.57 47.51 L 444.45 50.28 L 431.51 45.15 L 407.56 47.30 L 406.28 49.81 Z" fill="#d0d0d0" fill-opacity="0.5" stroke="none"/>
<path d="M 524.18 37.32 L 527.71 37.32 L 528.23 37.32 L 528.31 37.32 L 531.31 37.32 L 548.43 37.32 L 551.09 37.32 L 551.89 37.32 L 569.01 37.32 L 576.24 37.32 L 579.54 37.32 L 592.32 37.32 L 592.49 37.32 L 592.57 37.32 L 592.66 37.32 L 602.59 37.32 L 602.66 37.32 L 616.97 37.32 L 620.53 37.32 L 620.53 37.32 L 620.86 37.32 L 620.95 37.32 L 624.11 37.32 L 624.34 37.32 L 638.13 37.32 L 640.48 37.32 L 640.64 37.32 L 640.71 37.32 L 644.39 37.32 L 648.05 37.32 L 648.17 37.32 L 648.25 37.32 L 650.93 37.32 L 651.73 37.32 L 661.47 37.32 L 664.95 37.32 L 675.84 37.32 L 688.72 37.32 L 693.24 37.32 L 696.73 37.32 L 699.73 37.32 L 699.89 37.32 L 716.95 37.32 L 717.23 37.32 L 744.79 37.32 L 758.81 37.32 L 761.90 37.32 L 761.99 37.32 L 762.15 37.32 L 765.52 37.32 L 765.54 37.32 L 772.18 37.32 L 772.48 37.32 L 782.16 37.32 L 789.66 37.32 L 792.96 37.32 L 793.05 37.32 L 796.86 37.32 L 805.77 37.32 L 810.18 37.32 L 813.75 37.32 L 816.91 37.32 L 816.95 37.32 L 817.08 37.32 L 818.68 37.32 L 820.15 37.32 L 829.80 37.32 L 829.87 37.32 L 830.05 37.32 L 834.03 37.32 L 834.22 37.32 L 834.32 37.32 L 834.50 37.32 L 844.81 37.32 L 858.19 37.32 L 860.66 37.32 L 860.76 37.32 L 862.37 37.32 L 864.39 37.32 L 864.49 37.32 L 865.44 37.32 L 867.71 37.32 L 868.84 37.32 L 877.14 37.32 L 877.16 37.32 L 878.07 37.32 L 878.48 37.32 L 878.86 37.32 L 879.25 37.32 L 882.90 37.32 L 885.33 37.32 L 885.86 37.32 L 885.89 37.32 L 886.02 37.32 L 886.34 37.32 L 886.34 37.32 L 886.46 37.32 L 889.36 37.32 L 889.63 37.32 L 892.57 37.32 L 892.93 37.32 L 902.59 37.32 L 903.15 37.32 L 905.63 37.32 L 906.42 37.32 L 910.00 37.32 L 913.38 37.32 L 916.68 37.32 L 916.74 37.32 L 927.29 37.32 L 927.29 37.42 L 916.74 40.22 L 916.68 42.91 L 913.38 45.68 L 910.00 48.14 L 906.42 50.89 L 905.63 52.71 L 903.15 53.80 L 902.59 56.28 L 892.93 56.55 L 892.57 58.97 L 889.63 61.66 L 889.36 60.80 L 886.46 63.48 L 886.34 62.64 L 886.34 57.66 L 886.02 52.63 L 885.89 55.33 L 885.86 57.76 L 885.33 60.45 L 882.90 63.12 L 879.25 64.93 L 878.86 67.10 L 878.48 69.62 L 878.07 72.07 L 877.16 67.14 L 877.14 69.84 L 868.84 64.88 L 867.71 66.02 L 865.44 67.91 L 864.49 68.06 L 864.39 70.61 L 862.37 73.23 L 860.76 75.84 L 860.66 78.36 L 858.19 80.93 L 844.81 83.25 L 834.50 82.42 L 834.32 77.60 L 834.22 77.58 L 834.03 75.73 L 830.05 78.48 L 829.87 73.62 L 829.80 68.75 L 820.15 63.79 L 818.68 65.67 L 817.08 65.42 L 816.95 67.78 L 816.91 70.12 L 813.75 65.17 L 810.18 64.94 L 805.77 66.68 L 796.86 69.33 L 793.05 64.38 L 792.96 66.90 L 789.66 61.93 L 782.16 62.47 L 772.48 64.24 L 772.18 66.04 L 765.54 68.70 L 765.52 71.04 L 762.15 66.10 L 761.99 67.71 L 761.90 68.68 L 758.81 63.72 L 744.79 62.97 L 717.23 62.94 L 716.95 57.92 L 699.89 60.78 L 699.73 60.80 L 696.73 63.50 L 693.24 65.64 L 688.72 63.82 L 675.84 66.21 L 664.95 65.12 L 661.47 65.56 L 651.73 66.03 L 650.93 61.05 L 648.25 60.56 L 648.17 62.69 L 648.05 62.82 L 644.39 65.50 L 640.71 60.52 L 640.64 61.15 L 640.48 59.80 L 638.13 54.75 L 624.34 55.94 L 624.11 58.66 L 620.95 61.36 L 620.86 62.69 L 620.53 57.68 L 620.53 60.38 L 616.97 63.07 L 602.66 64.29 L 602.59 66.09 L 592.66 68.75 L 592.57 69.76 L 592.49 64.81 L 592.32 59.86 L 579.54 54.81 L 576.24 54.53 L 569.01 49.43 L 551.89 51.26 L 551.09 53.82 L 548.43 48.72 L 531.31 50.63 L 528.31 53.09 L 528.23 47.98 L 527.71 47.69 L 524.18 42.53 Z" fill="#d0d0d0" fill-opacity="0.5" stroke="none"/>
<path d="M 937.74 27.68 L 937.79 27.68 L 937.97 27.68 L 940.87 27.68 L 940.90 27.68 L 951.51 27.68 L 957.89 27.68 L 961.28 27.68 L 964.90 27.68 L 964.95 27.68 L 965.14 27.68 L 965.14 30.15 L 964.95 32.62 L 964.90 35.44 L 961.28 37.34 L 957.89 39.57 L 951.51 40.05 L 940.90 41.48 L 940.87 44.01 L 937.97 38.80 L 937.79 38.23 L 937.74 33.00 Z" fill="#d0d0d0" fill-opacity="0.5" stroke="none"/>
<path d="M 978.80 25.00 L 978.88 25.00 L 979.05 25.00 L 981.48 25.00 L 982.59 25.00 L 985.55 25.00 L 988.37 25.00 L 1003.05 25.00 L 1007.06 25.00 L 1013.03 25.00 L 1013.12 25.00 L 1013.18 25.00 L 1013.23 25.00 L 1013.38 25.00 L 1022.86 25.00 L 1027.13 25.00 L 1030.55 25.00 L 1033.29 25.00 L 1033.75 25.00 L 1033.92 25.00 L 1034.11 25.00 L 1034.15 25.00 L 1036.56 25.00 L 1047.46 25.00 L 1051.35 25.00 L 1051.69 25.00 L 1051.72 25.00 L 1078.75 25.00 L 1095.09 25.00 L 1096.15 25.00 L 1099.26 25.00 L 1102.96 25.00 L 1103.02 25.00 L 1103.38 25.00 L 1103.66 25.00 L 1109.60 25.00 L 1110.15 25.00 L 1120.38 25.00 L 1126.67 25.00 L 1147.54 25.00 L 1147.65 25.00 L 1154.37 25.00 L 1154.44 25.00 L 1154.96 25.00 L 1170.00 25.00 L 1170.00 69.35 L 1154.96 72.01 L 1154.44 69.97 L 1154.37 71.07 L 1147.65 66.14 L 1147.54 66.59 L 1126.67 67.08 L 1120.38 69.13 L 1110.15 70.43 L 1109.60 69.54 L 1103.66 64.58 L 1103.38 62.18 L 1103.02 64.48 L 1102.96 66.28 L 1099.26 61.30 L 1096.15 63.22 L 1095.09 58.20 L 1078.75 53.13 L 1051.72 54.99 L 1051.69 57.22 L 1051.35 52.14 L 1047.46 53.77 L 1036.56 56.34 L 1034.15 58.44 L 1034.11 59.77 L 1033.92 57.17 L 1033.75 57.07 L 1033.29 60.00 L 1030.55 61.41 L 1027.13 64.10 L 1022.86 59.09 L 1013.38 59.02 L 1013.23 60.76 L 1013.18 55.75 L 1013.12 50.65 L 1013.03 51.19 L 1007.06 46.05 L 1003.05 40.86 L 988.37 41.30 L 985.55 43.51 L 982.59 45.60 L 981.48 46.02 L 979.05 40.83 L 978.88 35.59 L 978.80 30.34 Z" fill="#d0d0d0" fill-opacity="0.5" stroke="none"/>
<polyline fill="none" stroke="#111" stroke-width="1.2" points="70.00,73.55 93.83,71.44 94.07,76.30 97.90,74.48 116.45,72.59 140.63,72.02 141.40,69.59 142.26,67.14 142.68,65.02 153.66,64.96 155.31,62.27 159.64,60.11 162.98,57.38 167.65,56.11 169.54,54.17 177.84,54.89 179.38,53.76 179.64,58.80 179.66,56.11 179.80,53.65 182.54,53.25 183.91,53.87 186.24,52.11 186.74,49.33 187.10,54.42 190.32,53.40 193.26,50.85 203.37,48.38 251.55,45.58 255.51,50.71 307.79,49.84 310.73,54.92 310.82,59.92 311.00,59.11 330.91,57.45 333.99,62.46 347.60,59.75 354.68,57.55 355.54,57.73 358.19,55.24 362.31,53.39 371.84,51.11 376.16,52.76 382.87,50.56 385.60,48.31 397.33,47.46 403.59,44.67 406.28,49.81 407.56,47.30 431.51,45.15 444.45,50.28 447.57,47.51 472.27,45.24 476.23,45.19 503.49,43.59 503.62,41.42 503.74,39.83 506.92,37.32 524.18,42.53 527.71,47.69 528.23,47.98 528.31,53.09 531.31,50.63 548.43,48.72 551.09,53.82 551.89,51.26 569.01,49.43 576.24,54.53 579.54,54.81 592.32,59.86 592.49,64.81 592.57,69.76 592.66,68.75 602.59,66.09 602.66,64.29 616.97,63.07 620.53,60.38 620.53,57.68 620.86,62.69 620.95,61.36 624.11,58.66 624.34,55.94 638.13,54.75 640.48,59.80 640.64,61.15 640.71,60.52 644.39,65.50 648.05,62.82 648.17,62.69 648.25,60.56 650.93,61.05 651.73,66.03 661.47,65.56 664.95,65.12 675.84,66.21 688.72,63.82 693.24,65.64 696.73,63.50 699.73,60.80 699.89,60.78 716.95,57.92 717.23,62.94 744.79,62.97 758.81,63.72 761.90,68.68 761.99,67.71 762.15,66.10 765.52,71.04 765.54,68.70 772.18,66.04 772.48,64.24 782.16,62.47 789.66,61.93 792.96,66.90 793.05,64.38 796.86,69.33 805.77,66.68 810.18,64.94 813.75,65.17 816.91,70.12 816.95,67.78 817.08,65.42 818.68,65.67 820.15,63.79 829.80,68.75 829.87,73.62 830.05,78.48 834.03,75.73 834.22,77.58 834.32,77.60 834.50,82.42 844.81,83.25 858.19,80.93 860.66,78.36 860.76,75.84 862.37,73.23 864.39,70.61 864.49,68.06 865.44,67.91 867.71,66.02 868.84,64.88 877.14,69.84 877.16,67.14 878.07,72.07 878.48,69.62 878.86,67.10 879.25,64.93 882.90,63.12 885.33,60.45 885.86,57.76 885.89,55.33 886.02,52.63 886.34,57.66 886.34,62.64 886.46,63.48 889.36,60.80 889.63,61.66 892.57,58.97 892.93,56.55 902.59,56.28 903.15,53.80 905.63,52.71 906.42,50.89 910.00,48.14 913.38,45.68 916.68,42.91 916.74,40.22 927.29,37.42 930.98,35.33 932.68,32.50 937.34,29.49 937.52,27.68 937.74,33.00 937.79,38.23 937.97,38.80 940.87,44.01 940.90,41.48 951.51,40.05 957.89,39.57 961.28,37.34 964.90,35.44 964.95,32.62 965.14,30.15 965.31,27.65 965.43,26.55 975.44,25.00 978.80,30.34 978.88,35.59 979.05,40.83 981.48,46.02 982.59,45.60 985.55,43.51 988.37,41.30 1003.05,40.86 1007.06,46.05 1013.03,51.19 1013.12,50.65 1013.18,55.75 1013.23,60.76 1013.38,59.02 1022.86,59.09 1027.13,64.10 1030.55,61.41 1033.29,60.00 1033.75,57.07 1033.92,57.17 1034.11,59.77 1034.15,58.44 1036.56,56.34 1047.46,53.77 1051.35,52.14 1051.69,57.22 1051.72,54.99 1078.75,53.13 1095.09,58.20 1096.15,63.22 1099.26,61.30 1102.96,66.28 1103.02,64.48 1103.38,62.18 1103.66,64.58 1109.60,69.54 1110.15,70.43 1120.38,69.13 1126.67,67.08 1147.54,66.59 1147.65,66.14 1154.37,71.07 1154.44,69.97 1154.96,72.01 1170.00,69.35"/>
<text x="620.0" y="588" text-anchor="middle" font-family="sans-serif" font-size="12" fill="#333">UTC time</text>
<text x="15" y="287.5" transform="rotate(-90 15,287.5)" text-anchor="middle" font-family="sans-serif" font-size="12" fill="#333">Capital</text>
</svg>