<svg xmlns="http://www.w3.org/2000/svg" width="1200" height="600" viewBox="0 0 1200 600">
<desc>Equity curve with drawdown fill; x-axis is months only (no exact timestamps)</desc>
<text x="600.0" y="18.0" text-anchor="middle" font-family="sans-serif" font-size="14">Portfolio 2012 (UTC)</text>
<rect x="70" y="25" width="1100" height="525" fill="white" stroke="#ccc" />
<line x1="70" y1="550.00" x2="1170" y2="550.00" stroke="#eee"/>
<text x="62" y="554.0" text-anchor="end" font-family="sans-serif" font-size="11" fill="#555">0.00</text>
<line x1="70" y1="445.00" x2="1170" y2="445.00" stroke="#eee"/>
<text x="62" y="449.0" text-anchor="end" font-family="sans-serif" font-size="11" fill="#555">44360</text>
<line x1="70" y1="340.00" x2="1170" y2="340.00" stroke="#eee"/>
<text x="62" y="344.0" text-anchor="end" font-family="sans-serif" font-size="11" fill="#555">88720</text>
<line x1="70" y1="235.00" x2="1170" y2="235.00" stroke="#eee"/>
<text x="62" y="239.0" text-anchor="end" font-family="sans-serif" font-size="11" fill="#555">133079</text>
<line x1="70" y1="130.00" x2="1170" y2="130.00" stroke="#eee"/>
<text x="62" y="134.0" text-anchor="end" font-family="sans-serif" font-size="11" fill="#555">177439</text>
<line x1="70" y1="25.00" x2="1170" y2="25.00" stroke="#eee"/>
<text x="62" y="29.0" text-anchor="end" font-family="sans-serif" font-size="11" fill="#555">221799</text>
<line x1="161.67" y1="25" x2="161.67" y2="550" stroke="#f2f2f2"/>
<line x1="253.33" y1="25" x2="253.33" y2="550" stroke="#f2f2f2"/>
<line x1="345.00" y1="25" x2="345.00" y2="550" stroke="#f2f2f2"/>
<line x1="436.67" y1="25" x2="436.67" y2="550" stroke="#f2f2f2"/>
<line x1="528.33" y1="25" x2="528.33" y2="550" stroke="#f2f2f2"/>
<line x1="620.00" y1="25" x2="620.00" y2="550" stroke="#f2f2f2"/>
<line x1="711.67" y1="25" x2="711.67" y2="550" stroke="#f2f2f2"/>
<line x1="803.33" y1="25" x2="803.33" y2="550" stroke="#f2f2f2"/>
<line x1="895.00" y1="25" x2="895.00" y2="550" stroke="#f2f2f2"/>
<line x1="986.67" y1="25" x2="986.67" y2="550" stroke="#f2f2f2"/>
<line x1="1078.33" y1="25" x2="1078.33" y2="550" stroke="#f2f2f2"/>
<text x="115.83" y="566.00" text-anchor="middle" font-family="sans-serif" font-size="11" fill="#444">Jan</text>
<text x="207.50" y="566.00" text-anchor="middle" font-family="sans-serif" font-size="11" fill="#444">Feb</text>
<text x="299.17" y="566.00" text-anchor="middle" font-family="sans-serif" font-size="11" fill="#444">Mar</text>
<text x="390.83" y="566.00" text-anchor="middle" font-family="sans-serif" font-size="11" fill="#444">Apr</text>
<text x="482.50" y="566.00" text-anchor="middle" font-family="sans-serif" font-size="11" fill="#444">May</text>
<text x="574.17" y="566.00" text-anchor="middle" font-family="sans-serif" font-size="11" fill="#444">Jun</text>
<text x="665.83" y="566.00" text-anchor="middle" font-family="sans-serif" font-size="11" fill="#444">Jul</text>
<text x="757.50" y="566.00" text-anchor="middle" font-family="sans-serif" font-size="11" fill="#444">Aug</text>
<text x="849.17" y="566.00" text-anchor="middle" font-family="sans-serif" font-size="11" fill="#444">Sep</text>
<text x="940.83" y="566.00" text-anchor="middle" font-family="sans-serif" font-size="11" fill="#444">Oct</text>
<text x="1032.50" y="566.00" text-anchor="middle" font-family="sans-serif" font-size="11" fill="#444">Nov</text>
<text x="1124.17" y="566.00" text-anchor="middle" font-family="sans-serif" font-size="11" fill="#444">Dec</text>
<line x1="70" y1="550" x2="1170" y2="550" stroke="#888"/>
<line x1="70" y1="25" x2="70" y2="550" stroke="#888"/>
<line x1="75.73" y1="550.00" x2="75.73" y2="556.00" stroke="#888"/>
<line x1="1124.17"   y1="550.00" x2="1124.17"   y2="556.00" stroke="#888"/>
<text x="75.73" y="582.00" text-anchor="start" font-family="sans-serif" font-size="11" fill="#333">Initial Balance: 215890</text>
<text x="1124.17"   y="582.00" text-anchor="end"   font-family="sans-serif" font-size="11" fill="#333">Ending Balance: 217610</text>
<path d="M 121.56 33.05 L 133.02 33.05 L 144.48 33.05 L 155.94 33.05 L 166.76 33.05 L 176.94 33.05 L 176.94 34.73 L 166.76 37.37 L 155.94 37.93 L 144.48 40.58 L 133.02 35.39 L 121.56 38.27 Z" fill="#d0d0d0" fill-opacity="0.5" stroke="none"/>
<path d="M 207.50 30.12 L 207.50 30.75 Z" fill="#d0d0d0" fill-opacity="0.5" stroke="none"/>
<path d="M 238.06 25.00 L 248.24 25.00 L 268.61 25.00 L 299.17 25.00 L 329.72 25.00 L 356.46 25.00 L 379.38 25.00 L 402.29 25.00 L 425.21 25.00 L 451.94 25.00 L 482.50 25.00 L 513.06 25.00 L 534.06 25.00 L 545.52 25.00 L 556.98 25.00 L 568.44 25.00 L 579.90 25.00 L 591.35 25.00 L 602.81 25.00 L 614.27 25.00 L 629.17 25.00 L 647.50 25.00 L 665.83 25.00 L 684.17 25.00 L 702.50 25.00 L 717.40 25.00 L 728.85 25.00 L 740.31 25.00 L 751.77 25.00 L 763.23 25.00 L 774.69 25.00 L 786.15 25.00 L 797.60 25.00 L 849.17 25.00 L 940.83 25.00 L 1001.94 25.00 L 1032.50 25.00 L 1063.06 25.00 L 1124.17 25.00 L 1124.17 34.91 L 1063.06 35.11 L 1032.50 35.84 L 1001.94 30.60 L 940.83 30.45 L 849.17 32.75 L 797.60 30.95 L 786.15 32.96 L 774.69 34.62 L 763.23 37.00 L 751.77 38.26 L 740.31 40.35 L 728.85 40.39 L 717.40 43.23 L 702.50 46.20 L 684.17 49.00 L 665.83 43.91 L 647.50 38.75 L 629.17 39.64 L 614.27 41.12 L 602.81 40.90 L 591.35 35.70 L 579.90 35.64 L 568.44 30.42 L 556.98 25.12 L 545.52 25.50 L 534.06 28.19 L 513.06 30.81 L 482.50 29.96 L 451.94 28.91 L 425.21 30.21 L 402.29 32.03 L 379.38 30.91 L 356.46 33.12 L 329.72 31.77 L 299.17 26.49 L 268.61 26.78 L 248.24 27.37 L 238.06 30.30 Z" fill="#d0d0d0" fill-opacity="0.5" stroke="none"/>
<polyline fill="none" stroke="#111" stroke-width="1.2" points="75.73,38.99 87.19,38.56 98.65,35.68 110.10,33.05 121.56,38.27 133.02,35.39 144.48,40.58 155.94,37.93 166.76,37.37 176.94,34.73 187.13,32.64 197.31,30.12 207.50,30.75 217.69,27.82 227.87,25.00 238.06,30.30 248.24,27.37 268.61,26.78 299.17,26.49 329.72,31.77 356.46,33.12 379.38,30.91 402.29,32.03 425.21,30.21 451.94,28.91 482.50,29.96 513.06,30.81 534.06,28.19 545.52,25.50 556.98,25.12 568.44,30.42 579.90,35.64 591.35,35.70 602.81,40.90 614.27,41.12 629.17,39.64 647.50,38.75 665.83,43.91 684.17,49.00 702.50,46.20 717.40,43.23 728.85,40.39 740.31,40.35 751.77,38.26 763.23,37.00 774.69,34.62 786.15,32.96 797.60,30.95 849.17,32.75 940.83,30.45 1001.94,30.60 1032.50,35.84 1063.06,35.11 1124.17,34.91"/>
<text x="620.0" y="588" text-anchor="middle" font-family="sans-serif" font-size="12" fill="#333">Monthly Balance Curve</text>
<text x="15" y="287.5" transform="rotate(-90 15,287.5)" text-anchor="middle" font-family="sans-serif" font-size="12" fill="#333">Capital</text>
</svg>