<svg xmlns="http://www.w3.org/2000/svg" width="1200" height="600" viewBox="0 0 1200 600">
<desc>Equity curve with drawdown fill</desc>
<text x="600.0" y="18.0" text-anchor="middle" font-family="sans-serif" font-size="14">Portfolio 2018</text>
<rect x="70" y="25" width="1100" height="525" fill="white" stroke="#ccc" />
<line x1="70" y1="550.00" x2="1170" y2="550.00" stroke="#eee"/>
<text x="62" y="554.0" text-anchor="end" font-family="sans-serif" font-size="11" fill="#555">0.00</text>
<line x1="70" y1="445.00" x2="1170" y2="445.00" stroke="#eee"/>
<text x="62" y="449.0" text-anchor="end" font-family="sans-serif" font-size="11" fill="#555">22059</text>
<line x1="70" y1="340.00" x2="1170" y2="340.00" stroke="#eee"/>
<text x="62" y="344.0" text-anchor="end" font-family="sans-serif" font-size="11" fill="#555">44118</text>
<line x1="70" y1="235.00" x2="1170" y2="235.00" stroke="#eee"/>
<text x="62" y="239.0" text-anchor="end" font-family="sans-serif" font-size="11" fill="#555">66176</text>
<line x1="70" y1="130.00" x2="1170" y2="130.00" stroke="#eee"/>
<text x="62" y="134.0" text-anchor="end" font-family="sans-serif" font-size="11" fill="#555">88235</text>
<line x1="70" y1="25.00" x2="1170" y2="25.00" stroke="#eee"/>
<text x="62" y="29.0" text-anchor="end" font-family="sans-serif" font-size="11" fill="#555">110294</text>
<line x1="138.85" y1="25" x2="138.85" y2="550" stroke="#f2f2f2"/>
<text x="138.85" y="566" text-anchor="middle" font-family="sans-serif" font-size="11" fill="#555">Feb</text>
<line x1="228.39" y1="25" x2="228.39" y2="550" stroke="#f2f2f2"/>
<text x="228.39" y="566" text-anchor="middle" font-family="sans-serif" font-size="11" fill="#555">Mar</text>
<line x1="327.53" y1="25" x2="327.53" y2="550" stroke="#f2f2f2"/>
<text x="327.53" y="566" text-anchor="middle" font-family="sans-serif" font-size="11" fill="#555">Apr</text>
<line x1="423.47" y1="25" x2="423.47" y2="550" stroke="#f2f2f2"/>
<text x="423.47" y="566" text-anchor="middle" font-family="sans-serif" font-size="11" fill="#555">May</text>
<line x1="522.61" y1="25" x2="522.61" y2="550" stroke="#f2f2f2"/>
<text x="522.61" y="566" text-anchor="middle" font-family="sans-serif" font-size="11" fill="#555">Jun</text>
<line x1="618.55" y1="25" x2="618.55" y2="550" stroke="#f2f2f2"/>
<text x="618.55" y="566" text-anchor="middle" font-family="sans-serif" font-size="11" fill="#555">Jul</text>
<line x1="717.68" y1="25" x2="717.68" y2="550" stroke="#f2f2f2"/>
<text x="717.68" y="566" text-anchor="middle" font-family="sans-serif" font-size="11" fill="#555">Aug</text>
<line x1="816.82" y1="25" x2="816.82" y2="550" stroke="#f2f2f2"/>
<text x="816.82" y="566" text-anchor="middle" font-family="sans-serif" font-size="11" fill="#555">Sep</text>
<line x1="912.76" y1="25" x2="912.76" y2="550" stroke="#f2f2f2"/>
<text x="912.76" y="566" text-anchor="middle" font-family="sans-serif" font-size="11" fill="#555">Oct</text>
<line x1="1011.90" y1="25" x2="1011.90" y2="550" stroke="#f2f2f2"/>
<text x="1011.90" y="566" text-anchor="middle" font-family="sans-serif" font-size="11" fill="#555">Nov</text>
<line x1="1107.84" y1="25" x2="1107.84" y2="550" stroke="#f2f2f2"/>
<text x="1107.84" y="566" text-anchor="middle" font-family="sans-serif" font-size="11" fill="#555">Dec</text>
<line x1="70" y1="550" x2="1170" y2="550" stroke="#888"/>
<line x1="70" y1="25" x2="70" y2="550" stroke="#888"/>
<path d="M 73.43 73.63 L 76.04 73.63 L 85.92 73.63 L 85.92 75.26 L 76.04 76.84 L 73.43 80.84 Z" fill="#d0d0d0" fill-opacity="0.5" stroke="none"/>
<path d="M 118.29 67.15 L 118.37 67.15 L 118.57 67.15 L 119.00 67.15 L 119.14 67.15 L 119.14 69.90 L 119.00 69.75 L 118.57 73.83 L 118.37 72.55 L 118.29 74.46 Z" fill="#d0d0d0" fill-opacity="0.5" stroke="none"/>
<path d="M 252.94 43.49 L 252.94 45.49 Z" fill="#d0d0d0" fill-opacity="0.5" stroke="none"/>
<path d="M 409.67 40.51 L 429.27 40.51 L 435.01 40.51 L 454.21 40.51 L 470.21 40.51 L 491.86 40.51 L 495.05 40.51 L 501.98 40.51 L 514.37 40.51 L 514.37 43.62 L 501.98 42.61 L 495.05 45.43 L 491.86 46.67 L 470.21 49.71 L 454.21 42.02 L 435.01 42.45 L 429.27 45.59 L 409.67 48.21 Z" fill="#d0d0d0" fill-opacity="0.5" stroke="none"/>
<path d="M 565.90 25.00 L 566.03 25.00 L 566.03 25.00 L 566.16 25.00 L 566.18 25.00 L 566.29 25.00 L 581.48 25.00 L 588.40 25.00 L 612.63 25.00 L 636.37 25.00 L 653.01 25.00 L 678.62 25.00 L 681.27 25.00 L 747.29 25.00 L 747.38 25.00 L 747.47 25.00 L 781.85 25.00 L 784.23 25.00 L 793.26 25.00 L 831.56 25.00 L 837.94 25.00 L 857.15 25.00 L 879.43 25.00 L 900.91 25.00 L 1048.03 25.00 L 1055.50 25.00 L 1057.98 25.00 L 1061.79 25.00 L 1083.47 25.00 L 1100.53 25.00 L 1100.58 25.00 L 1100.68 25.00 L 1138.84 25.00 L 1150.74 25.00 L 1170.00 25.00 L 1170.00 59.32 L 1150.74 55.29 L 1138.84 52.55 L 1100.68 54.28 L 1100.58 46.66 L 1100.53 49.59 L 1083.47 41.90 L 1061.79 44.20 L 1057.98 36.43 L 1055.50 40.75 L 1048.03 43.15 L 900.91 45.34 L 879.43 48.84 L 857.15 47.84 L 837.94 40.13 L 831.56 40.35 L 793.26 43.41 L 784.23 47.33 L 781.85 47.16 L 747.47 51.39 L 747.38 54.63 L 747.29 56.15 L 681.27 60.31 L 678.62 59.23 L 653.01 60.15 L 636.37 62.16 L 612.63 65.59 L 588.40 69.67 L 581.48 62.28 L 566.29 64.50 L 566.18 63.25 L 566.16 55.87 L 566.03 48.30 L 566.03 40.71 L 565.90 32.92 Z" fill="#d0d0d0" fill-opacity="0.5" stroke="none"/>
<polyline fill="none" stroke="#111" stroke-width="1.2" points="70.00,73.63 73.43,80.84 76.04,76.84 85.92,75.26 88.64,71.24 90.98,67.15 118.29,74.46 118.37,72.55 118.57,73.83 119.00,69.75 119.14,69.90 120.72,66.59 144.10,63.84 155.96,60.49 156.63,59.41 182.22,55.22 182.44,51.00 224.02,47.17 252.50,43.49 252.94,45.49 316.75,42.83 358.03,40.51 409.67,48.21 429.27,45.59 435.01,42.45 454.21,42.02 470.21,49.71 491.86,46.67 495.05,45.43 501.98,42.61 514.37,43.62 517.43,40.31 518.41,35.98 524.65,31.65 537.76,29.38 560.23,25.00 565.90,32.92 566.03,40.71 566.03,48.30 566.16,55.87 566.18,63.25 566.29,64.50 581.48,62.28 588.40,69.67 612.63,65.59 636.37,62.16 653.01,60.15 678.62,59.23 681.27,60.31 747.29,56.15 747.38,54.63 747.47,51.39 781.85,47.16 784.23,47.33 793.26,43.41 831.56,40.35 837.94,40.13 857.15,47.84 879.43,48.84 900.91,45.34 1048.03,43.15 1055.50,40.75 1057.98,36.43 1061.79,44.20 1083.47,41.90 1100.53,49.59 1100.58,46.66 1100.68,54.28 1138.84,52.55 1150.74,55.29 1170.00,59.32"/>
<text x="620.0" y="588" text-anchor="middle" font-family="sans-serif" font-size="12" fill="#333">UTC time</text>
<text x="15" y="287.5" transform="rotate(-90 15,287.5)" text-anchor="middle" font-family="sans-serif" font-size="12" fill="#333">Capital</text>
</svg>