<svg xmlns="http://www.w3.org/2000/svg" width="1200" height="600" viewBox="0 0 1200 600">
<desc>Equity curve with drawdown fill</desc>
<text x="600.0" y="18.0" text-anchor="middle" font-family="sans-serif" font-size="14">Portfolio 2024</text>
<rect x="70" y="25" width="1100" height="525" fill="white" stroke="#ccc" />
<line x1="70" y1="550.00" x2="1170" y2="550.00" stroke="#eee"/>
<text x="62" y="554.0" text-anchor="end" font-family="sans-serif" font-size="11" fill="#555">0.00</text>
<line x1="70" y1="445.00" x2="1170" y2="445.00" stroke="#eee"/>
<text x="62" y="449.0" text-anchor="end" font-family="sans-serif" font-size="11" fill="#555">21225</text>
<line x1="70" y1="340.00" x2="1170" y2="340.00" stroke="#eee"/>
<text x="62" y="344.0" text-anchor="end" font-family="sans-serif" font-size="11" fill="#555">42449</text>
<line x1="70" y1="235.00" x2="1170" y2="235.00" stroke="#eee"/>
<text x="62" y="239.0" text-anchor="end" font-family="sans-serif" font-size="11" fill="#555">63674</text>
<line x1="70" y1="130.00" x2="1170" y2="130.00" stroke="#eee"/>
<text x="62" y="134.0" text-anchor="end" font-family="sans-serif" font-size="11" fill="#555">84898</text>
<line x1="70" y1="25.00" x2="1170" y2="25.00" stroke="#eee"/>
<text x="62" y="29.0" text-anchor="end" font-family="sans-serif" font-size="11" fill="#555">106123</text>
<line x1="150.60" y1="25" x2="150.60" y2="550" stroke="#f2f2f2"/>
<text x="150.60" y="566" text-anchor="middle" font-family="sans-serif" font-size="11" fill="#555">Feb</text>
<line x1="239.21" y1="25" x2="239.21" y2="550" stroke="#f2f2f2"/>
<text x="239.21" y="566" text-anchor="middle" font-family="sans-serif" font-size="11" fill="#555">Mar</text>
<line x1="333.94" y1="25" x2="333.94" y2="550" stroke="#f2f2f2"/>
<text x="333.94" y="566" text-anchor="middle" font-family="sans-serif" font-size="11" fill="#555">Apr</text>
<line x1="425.62" y1="25" x2="425.62" y2="550" stroke="#f2f2f2"/>
<text x="425.62" y="566" text-anchor="middle" font-family="sans-serif" font-size="11" fill="#555">May</text>
<line x1="520.35" y1="25" x2="520.35" y2="550" stroke="#f2f2f2"/>
<text x="520.35" y="566" text-anchor="middle" font-family="sans-serif" font-size="11" fill="#555">Jun</text>
<line x1="612.02" y1="25" x2="612.02" y2="550" stroke="#f2f2f2"/>
<text x="612.02" y="566" text-anchor="middle" font-family="sans-serif" font-size="11" fill="#555">Jul</text>
<line x1="706.75" y1="25" x2="706.75" y2="550" stroke="#f2f2f2"/>
<text x="706.75" y="566" text-anchor="middle" font-family="sans-serif" font-size="11" fill="#555">Aug</text>
<line x1="801.48" y1="25" x2="801.48" y2="550" stroke="#f2f2f2"/>
<text x="801.48" y="566" text-anchor="middle" font-family="sans-serif" font-size="11" fill="#555">Sep</text>
<line x1="893.15" y1="25" x2="893.15" y2="550" stroke="#f2f2f2"/>
<text x="893.15" y="566" text-anchor="middle" font-family="sans-serif" font-size="11" fill="#555">Oct</text>
<line x1="987.88" y1="25" x2="987.88" y2="550" stroke="#f2f2f2"/>
<text x="987.88" y="566" text-anchor="middle" font-family="sans-serif" font-size="11" fill="#555">Nov</text>
<line x1="1079.56" y1="25" x2="1079.56" y2="550" stroke="#f2f2f2"/>
<text x="1079.56" y="566" text-anchor="middle" font-family="sans-serif" font-size="11" fill="#555">Dec</text>
<line x1="70" y1="550" x2="1170" y2="550" stroke="#888"/>
<line x1="70" y1="25" x2="70" y2="550" stroke="#888"/>
<path d="M 155.53 49.78 L 155.65 49.78 L 155.65 51.49 L 155.53 50.92 Z" fill="#d0d0d0" fill-opacity="0.5" stroke="none"/>
<path d="M 363.36 38.38 L 363.53 38.38 L 402.25 38.38 L 433.45 38.38 L 540.40 38.38 L 540.40 38.86 L 433.45 41.68 L 402.25 44.48 L 363.53 47.27 L 363.36 43.55 Z" fill="#d0d0d0" fill-opacity="0.5" stroke="none"/>
<path d="M 751.37 25.66 L 776.04 25.66 L 793.58 25.66 L 818.48 25.66 L 818.48 27.90 L 793.58 30.78 L 776.04 31.50 L 751.37 26.19 Z" fill="#d0d0d0" fill-opacity="0.5" stroke="none"/>
<path d="M 869.88 25.00 L 904.04 25.00 L 943.87 25.00 L 1003.26 25.00 L 1003.32 25.00 L 1003.44 25.00 L 1003.55 25.00 L 1003.62 25.00 L 1003.67 25.00 L 1004.04 25.00 L 1004.69 25.00 L 1011.54 25.00 L 1026.48 25.00 L 1044.14 25.00 L 1051.23 25.00 L 1053.22 25.00 L 1053.25 25.00 L 1053.38 25.00 L 1061.09 25.00 L 1064.31 25.00 L 1068.39 25.00 L 1069.15 25.00 L 1084.54 25.00 L 1090.70 25.00 L 1096.57 25.00 L 1133.95 25.00 L 1170.00 25.00 L 1170.00 40.00 L 1133.95 41.35 L 1096.57 36.13 L 1090.70 38.68 L 1084.54 41.25 L 1069.15 43.77 L 1068.39 45.41 L 1064.31 48.19 L 1061.09 43.04 L 1053.38 45.83 L 1053.25 47.99 L 1053.22 50.75 L 1051.23 45.63 L 1044.14 44.04 L 1026.48 45.16 L 1011.54 39.97 L 1004.69 40.14 L 1004.04 42.44 L 1003.67 43.65 L 1003.62 44.93 L 1003.55 39.75 L 1003.44 34.57 L 1003.32 29.28 L 1003.26 30.35 L 943.87 25.02 L 904.04 27.44 L 869.88 30.33 Z" fill="#d0d0d0" fill-opacity="0.5" stroke="none"/>
<polyline fill="none" stroke="#111" stroke-width="1.2" points="70.00,52.54 155.37,49.78 155.53,50.92 155.65,51.49 188.98,48.72 189.08,47.41 215.82,44.62 262.36,42.06 299.73,41.21 363.16,38.38 363.36,43.55 363.53,47.27 402.25,44.48 433.45,41.68 540.40,38.86 555.68,36.02 644.30,33.17 711.53,30.30 720.10,28.29 720.74,25.66 751.37,26.19 776.04,31.50 793.58,30.78 818.48,27.90 855.85,25.00 869.88,30.33 904.04,27.44 943.87,25.02 1003.26,30.35 1003.32,29.28 1003.44,34.57 1003.55,39.75 1003.62,44.93 1003.67,43.65 1004.04,42.44 1004.69,40.14 1011.54,39.97 1026.48,45.16 1044.14,44.04 1051.23,45.63 1053.22,50.75 1053.25,47.99 1053.38,45.83 1061.09,43.04 1064.31,48.19 1068.39,45.41 1069.15,43.77 1084.54,41.25 1090.70,38.68 1096.57,36.13 1133.95,41.35 1170.00,40.00"/>
<text x="620.0" y="588" text-anchor="middle" font-family="sans-serif" font-size="12" fill="#333">UTC time</text>
<text x="15" y="287.5" transform="rotate(-90 15,287.5)" text-anchor="middle" font-family="sans-serif" font-size="12" fill="#333">Capital</text>
</svg>