<svg xmlns="http://www.w3.org/2000/svg" width="1200" height="600" viewBox="0 0 1200 600">
<desc>Equity curve with drawdown fill</desc>
<text x="600.0" y="18.0" text-anchor="middle" font-family="sans-serif" font-size="14">Portfolio 2015</text>
<rect x="70" y="25" width="1100" height="525" fill="white" stroke="#ccc" />
<line x1="70" y1="550.00" x2="1170" y2="550.00" stroke="#eee"/>
<text x="62" y="554.0" text-anchor="end" font-family="sans-serif" font-size="11" fill="#555">0.00</text>
<line x1="70" y1="445.00" x2="1170" y2="445.00" stroke="#eee"/>
<text x="62" y="449.0" text-anchor="end" font-family="sans-serif" font-size="11" fill="#555">26983</text>
<line x1="70" y1="340.00" x2="1170" y2="340.00" stroke="#eee"/>
<text x="62" y="344.0" text-anchor="end" font-family="sans-serif" font-size="11" fill="#555">53966</text>
<line x1="70" y1="235.00" x2="1170" y2="235.00" stroke="#eee"/>
<text x="62" y="239.0" text-anchor="end" font-family="sans-serif" font-size="11" fill="#555">80950</text>
<line x1="70" y1="130.00" x2="1170" y2="130.00" stroke="#eee"/>
<text x="62" y="134.0" text-anchor="end" font-family="sans-serif" font-size="11" fill="#555">107933</text>
<line x1="70" y1="25.00" x2="1170" y2="25.00" stroke="#eee"/>
<text x="62" y="29.0" text-anchor="end" font-family="sans-serif" font-size="11" fill="#555">134916</text>
<line x1="125.38" y1="25" x2="125.38" y2="550" stroke="#f2f2f2"/>
<text x="125.38" y="566" text-anchor="middle" font-family="sans-serif" font-size="11" fill="#555">Feb</text>
<line x1="213.59" y1="25" x2="213.59" y2="550" stroke="#f2f2f2"/>
<text x="213.59" y="566" text-anchor="middle" font-family="sans-serif" font-size="11" fill="#555">Mar</text>
<line x1="311.26" y1="25" x2="311.26" y2="550" stroke="#f2f2f2"/>
<text x="311.26" y="566" text-anchor="middle" font-family="sans-serif" font-size="11" fill="#555">Apr</text>
<line x1="405.77" y1="25" x2="405.77" y2="550" stroke="#f2f2f2"/>
<text x="405.77" y="566" text-anchor="middle" font-family="sans-serif" font-size="11" fill="#555">May</text>
<line x1="503.43" y1="25" x2="503.43" y2="550" stroke="#f2f2f2"/>
<text x="503.43" y="566" text-anchor="middle" font-family="sans-serif" font-size="11" fill="#555">Jun</text>
<line x1="597.94" y1="25" x2="597.94" y2="550" stroke="#f2f2f2"/>
<text x="597.94" y="566" text-anchor="middle" font-family="sans-serif" font-size="11" fill="#555">Jul</text>
<line x1="695.60" y1="25" x2="695.60" y2="550" stroke="#f2f2f2"/>
<text x="695.60" y="566" text-anchor="middle" font-family="sans-serif" font-size="11" fill="#555">Aug</text>
<line x1="793.26" y1="25" x2="793.26" y2="550" stroke="#f2f2f2"/>
<text x="793.26" y="566" text-anchor="middle" font-family="sans-serif" font-size="11" fill="#555">Sep</text>
<line x1="887.77" y1="25" x2="887.77" y2="550" stroke="#f2f2f2"/>
<text x="887.77" y="566" text-anchor="middle" font-family="sans-serif" font-size="11" fill="#555">Oct</text>
<line x1="985.43" y1="25" x2="985.43" y2="550" stroke="#f2f2f2"/>
<text x="985.43" y="566" text-anchor="middle" font-family="sans-serif" font-size="11" fill="#555">Nov</text>
<line x1="1079.94" y1="25" x2="1079.94" y2="550" stroke="#f2f2f2"/>
<text x="1079.94" y="566" text-anchor="middle" font-family="sans-serif" font-size="11" fill="#555">Dec</text>
<line x1="70" y1="550" x2="1170" y2="550" stroke="#888"/>
<line x1="70" y1="25" x2="70" y2="550" stroke="#888"/>
<path d="M 70.49 159.91 L 70.54 159.91 L 73.08 159.91 L 73.08 160.30 L 70.54 162.47 L 70.49 163.87 Z" fill="#d0d0d0" fill-opacity="0.5" stroke="none"/>
<path d="M 73.93 151.91 L 73.94 151.91 L 73.94 153.89 L 73.93 155.94 Z" fill="#d0d0d0" fill-opacity="0.5" stroke="none"/>
<path d="M 95.96 142.91 L 96.00 142.91 L 96.13 142.91 L 96.19 142.91 L 98.20 142.91 L 98.22 142.91 L 98.35 142.91 L 98.41 142.91 L 98.60 142.91 L 98.64 142.91 L 98.65 142.91 L 98.89 142.91 L 106.43 142.91 L 107.54 142.91 L 110.78 142.91 L 110.83 142.91 L 111.42 142.91 L 111.53 142.91 L 111.69 142.91 L 133.49 142.91 L 133.56 142.91 L 133.70 142.91 L 137.96 142.91 L 139.03 142.91 L 139.43 142.91 L 140.43 142.91 L 143.18 142.91 L 152.33 142.91 L 155.36 142.91 L 162.01 142.91 L 175.00 142.91 L 177.39 142.91 L 181.43 142.91 L 187.26 142.91 L 187.55 142.91 L 205.96 142.91 L 206.13 142.91 L 206.14 142.91 L 206.20 142.91 L 209.23 142.91 L 225.01 142.91 L 227.99 142.91 L 228.07 142.91 L 228.45 142.91 L 230.58 142.91 L 231.12 142.91 L 231.30 142.91 L 231.35 142.91 L 243.28 142.91 L 243.90 142.91 L 244.20 142.91 L 246.30 142.91 L 246.68 142.91 L 246.68 143.41 L 246.30 143.52 L 244.20 145.75 L 243.90 147.78 L 243.28 149.68 L 231.35 150.66 L 231.30 152.26 L 231.12 148.17 L 230.58 150.51 L 228.45 152.52 L 228.07 154.28 L 227.99 155.91 L 225.01 157.90 L 209.23 160.08 L 206.20 161.62 L 206.14 162.46 L 206.13 158.48 L 205.96 154.48 L 187.55 150.42 L 187.26 152.76 L 181.43 154.96 L 177.39 157.16 L 175.00 157.96 L 162.01 159.66 L 155.36 161.16 L 152.33 163.21 L 143.18 163.90 L 140.43 162.81 L 139.43 163.78 L 139.03 165.43 L 137.96 167.39 L 133.70 167.63 L 133.56 167.62 L 133.49 168.36 L 111.69 164.44 L 111.53 160.48 L 111.42 162.33 L 110.83 164.31 L 110.78 166.14 L 107.54 162.20 L 106.43 164.14 L 98.89 160.18 L 98.65 162.05 L 98.64 164.34 L 98.60 160.40 L 98.41 156.40 L 98.35 157.48 L 98.22 153.45 L 98.20 155.57 L 96.19 151.53 L 96.13 152.10 L 96.00 151.05 L 95.96 147.01 Z" fill="#d0d0d0" fill-opacity="0.5" stroke="none"/>
<path d="M 249.32 142.62 L 249.38 142.62 L 249.51 142.62 L 249.51 144.19 L 249.38 145.39 L 249.32 146.76 Z" fill="#d0d0d0" fill-opacity="0.5" stroke="none"/>
<path d="M 253.38 141.94 L 253.39 141.94 L 253.39 143.74 L 253.38 146.09 Z" fill="#d0d0d0" fill-opacity="0.5" stroke="none"/>
<path d="M 262.81 140.32 L 269.48 140.32 L 269.48 142.23 L 262.81 144.48 Z" fill="#d0d0d0" fill-opacity="0.5" stroke="none"/>
<path d="M 270.49 138.70 L 270.89 138.70 L 271.40 138.70 L 271.47 138.70 L 271.57 138.70 L 271.70 138.70 L 271.96 138.70 L 271.96 139.64 L 271.70 141.91 L 271.57 143.81 L 271.47 145.57 L 271.40 146.68 L 270.89 142.54 L 270.49 142.87 Z" fill="#d0d0d0" fill-opacity="0.5" stroke="none"/>
<path d="M 275.42 131.73 L 275.44 131.73 L 275.77 131.73 L 275.89 131.73 L 284.29 131.73 L 284.47 131.73 L 284.66 131.73 L 287.35 131.73 L 287.35 133.73 L 284.66 133.98 L 284.47 133.45 L 284.29 135.03 L 275.89 137.17 L 275.77 138.33 L 275.44 134.11 L 275.42 135.97 Z" fill="#d0d0d0" fill-opacity="0.5" stroke="none"/>
<path d="M 296.66 124.29 L 297.34 124.29 L 297.76 124.29 L 297.76 124.82 L 297.34 127.17 L 296.66 128.61 Z" fill="#d0d0d0" fill-opacity="0.5" stroke="none"/>
<path d="M 319.63 108.55 L 331.40 108.55 L 331.50 108.55 L 335.32 108.55 L 335.84 108.55 L 338.51 108.55 L 340.74 108.55 L 350.50 108.55 L 350.91 108.55 L 350.91 110.22 L 350.50 112.63 L 340.74 113.99 L 338.51 114.92 L 335.84 110.48 L 335.32 112.46 L 331.50 114.40 L 331.40 115.14 L 319.63 110.70 Z" fill="#d0d0d0" fill-opacity="0.5" stroke="none"/>
<path d="M 354.05 108.37 L 354.18 108.37 L 354.29 108.37 L 356.69 108.37 L 357.22 108.37 L 357.30 108.37 L 357.74 108.37 L 357.83 108.37 L 357.83 108.83 L 357.74 109.89 L 357.30 112.31 L 357.22 114.14 L 356.69 116.53 L 354.29 116.28 L 354.18 117.23 L 354.05 112.81 Z" fill="#d0d0d0" fill-opacity="0.5" stroke="none"/>
<path d="M 360.05 104.74 L 360.12 104.74 L 360.29 104.74 L 361.04 104.74 L 362.99 104.74 L 363.47 104.74 L 375.40 104.74 L 375.40 105.56 L 363.47 105.34 L 362.99 107.57 L 361.04 109.25 L 360.29 104.76 L 360.12 107.19 L 360.05 109.24 Z" fill="#d0d0d0" fill-opacity="0.5" stroke="none"/>
<path d="M 384.74 99.54 L 384.85 99.54 L 384.98 99.54 L 384.98 100.45 L 384.85 102.32 L 384.74 104.08 Z" fill="#d0d0d0" fill-opacity="0.5" stroke="none"/>
<path d="M 401.26 95.70 L 401.41 95.70 L 401.48 95.70 L 401.67 95.70 L 401.74 95.70 L 401.96 95.70 L 402.01 95.70 L 403.76 95.70 L 403.79 95.70 L 403.87 95.70 L 404.44 95.70 L 404.73 95.70 L 407.80 95.70 L 416.45 95.70 L 417.11 95.70 L 420.21 95.70 L 420.47 95.70 L 420.47 97.79 L 420.21 99.07 L 417.11 101.03 L 416.45 102.12 L 407.80 103.58 L 404.73 105.34 L 404.44 107.63 L 403.87 109.82 L 403.79 110.70 L 403.76 106.24 L 402.01 101.72 L 401.96 104.14 L 401.74 106.58 L 401.67 107.12 L 401.48 102.61 L 401.41 98.08 L 401.26 100.27 Z" fill="#d0d0d0" fill-opacity="0.5" stroke="none"/>
<path d="M 423.47 95.29 L 423.62 95.29 L 426.44 95.29 L 429.59 95.29 L 429.61 95.29 L 429.88 95.29 L 438.34 95.29 L 441.56 95.29 L 445.52 95.29 L 447.78 95.29 L 448.83 95.29 L 451.88 95.29 L 451.98 95.29 L 452.10 95.29 L 460.47 95.29 L 461.33 95.29 L 461.33 96.86 L 460.47 97.69 L 452.10 99.74 L 451.98 100.38 L 451.88 100.84 L 448.83 96.27 L 447.78 98.77 L 445.52 100.44 L 441.56 95.87 L 438.34 96.97 L 429.88 98.83 L 429.61 101.18 L 429.59 103.65 L 426.44 106.11 L 423.62 101.59 L 423.47 99.87 Z" fill="#d0d0d0" fill-opacity="0.5" stroke="none"/>
<path d="M 463.53 94.80 L 463.59 94.80 L 463.68 94.80 L 463.74 94.80 L 464.30 94.80 L 466.66 94.80 L 468.12 94.80 L 469.93 94.80 L 473.85 94.80 L 473.92 94.80 L 474.05 94.80 L 485.63 94.80 L 489.56 94.80 L 489.70 94.80 L 489.87 94.80 L 492.48 94.80 L 505.47 94.80 L 507.71 94.80 L 508.07 94.80 L 508.45 94.80 L 508.63 94.80 L 510.83 94.80 L 511.08 94.80 L 511.58 94.80 L 511.71 94.80 L 511.77 94.80 L 511.90 94.80 L 512.00 94.80 L 514.10 94.80 L 514.15 94.80 L 514.35 94.80 L 514.75 94.80 L 514.78 94.80 L 515.21 94.80 L 515.38 94.80 L 516.08 94.80 L 517.10 94.80 L 517.98 94.80 L 526.51 94.80 L 527.31 94.80 L 528.98 94.80 L 529.74 94.80 L 530.47 94.80 L 532.90 94.80 L 533.42 94.80 L 533.70 94.80 L 533.91 94.80 L 536.10 94.80 L 539.37 94.80 L 539.41 94.80 L 539.84 94.80 L 551.79 94.80 L 552.46 94.80 L 556.33 94.80 L 556.37 94.80 L 556.37 95.48 L 556.33 97.21 L 552.46 99.71 L 551.79 101.39 L 539.84 102.97 L 539.41 105.44 L 539.37 107.33 L 536.10 109.78 L 533.91 112.21 L 533.70 114.63 L 533.42 116.66 L 532.90 118.57 L 530.47 114.16 L 529.74 115.84 L 528.98 118.02 L 527.31 120.41 L 526.51 120.59 L 517.98 122.97 L 517.10 124.38 L 516.08 126.34 L 515.38 127.77 L 515.21 129.93 L 514.78 132.26 L 514.75 134.15 L 514.35 129.88 L 514.15 125.58 L 514.10 121.27 L 512.00 116.88 L 511.90 115.66 L 511.77 114.28 L 511.71 109.86 L 511.58 105.40 L 511.08 107.68 L 510.83 109.61 L 508.63 111.48 L 508.45 107.00 L 508.07 102.51 L 507.71 104.97 L 505.47 106.12 L 492.48 108.21 L 489.87 110.00 L 489.70 112.22 L 489.56 114.38 L 485.63 113.76 L 474.05 114.91 L 473.92 114.60 L 473.85 115.57 L 469.93 111.16 L 468.12 113.57 L 466.66 115.98 L 464.30 111.54 L 463.74 107.06 L 463.68 108.40 L 463.59 103.90 L 463.53 99.38 Z" fill="#d0d0d0" fill-opacity="0.5" stroke="none"/>
<path d="M 573.25 87.19 L 574.61 87.19 L 580.44 87.19 L 584.35 87.19 L 591.55 87.19 L 591.74 87.19 L 592.62 87.19 L 592.79 87.19 L 593.71 87.19 L 594.07 87.19 L 594.07 87.55 L 593.71 90.21 L 592.79 92.51 L 592.62 94.20 L 591.74 96.84 L 591.55 92.23 L 584.35 93.73 L 580.44 94.67 L 574.61 96.45 L 573.25 91.84 Z" fill="#d0d0d0" fill-opacity="0.5" stroke="none"/>
<path d="M 596.89 85.88 L 599.29 85.88 L 599.29 88.18 L 596.89 90.55 Z" fill="#d0d0d0" fill-opacity="0.5" stroke="none"/>
<path d="M 618.17 82.96 L 618.17 83.10 Z" fill="#d0d0d0" fill-opacity="0.5" stroke="none"/>
<path d="M 627.76 70.09 L 627.76 70.47 Z" fill="#d0d0d0" fill-opacity="0.5" stroke="none"/>
<path d="M 636.93 68.08 L 636.98 68.08 L 644.00 68.08 L 663.01 68.08 L 668.48 68.08 L 668.48 70.68 L 663.01 70.01 L 644.00 71.77 L 636.98 71.09 L 636.93 72.90 Z" fill="#d0d0d0" fill-opacity="0.5" stroke="none"/>
<path d="M 707.65 56.57 L 707.65 57.27 Z" fill="#d0d0d0" fill-opacity="0.5" stroke="none"/>
<path d="M 716.29 54.58 L 716.56 54.58 L 716.56 56.84 L 716.29 59.52 Z" fill="#d0d0d0" fill-opacity="0.5" stroke="none"/>
<path d="M 728.31 54.16 L 731.53 54.16 L 754.87 54.16 L 757.52 54.16 L 760.83 54.16 L 768.43 54.16 L 768.64 54.16 L 769.73 54.16 L 769.87 54.16 L 769.92 54.16 L 770.46 54.16 L 772.75 54.16 L 772.78 54.16 L 773.33 54.16 L 776.07 54.16 L 776.13 54.16 L 776.40 54.16 L 778.82 54.16 L 779.43 54.16 L 779.61 54.16 L 782.83 54.16 L 782.91 54.16 L 782.91 55.67 L 782.83 57.67 L 779.61 60.34 L 779.43 62.75 L 778.82 62.22 L 776.40 64.27 L 776.13 66.92 L 776.07 69.69 L 773.33 67.04 L 772.78 62.18 L 772.75 64.50 L 770.46 59.62 L 769.92 60.74 L 769.87 55.89 L 769.73 58.45 L 768.64 60.92 L 768.43 61.37 L 760.83 62.16 L 757.52 57.25 L 754.87 59.46 L 731.53 58.97 L 728.31 59.09 Z" fill="#d0d0d0" fill-opacity="0.5" stroke="none"/>
<path d="M 801.35 53.82 L 801.40 53.82 L 801.54 53.82 L 805.08 53.82 L 816.04 53.82 L 823.74 53.82 L 827.06 53.82 L 842.61 53.82 L 846.16 53.82 L 848.87 53.82 L 858.47 53.82 L 880.58 53.82 L 892.92 53.82 L 892.98 53.82 L 893.40 53.82 L 905.65 53.82 L 910.97 53.82 L 911.63 53.82 L 911.63 55.29 L 910.97 56.09 L 905.65 57.74 L 893.40 59.94 L 892.98 60.36 L 892.92 62.14 L 880.58 61.55 L 858.47 60.84 L 848.87 60.16 L 846.16 62.05 L 842.61 64.71 L 827.06 63.61 L 823.74 62.52 L 816.04 65.17 L 805.08 65.83 L 801.54 68.47 L 801.40 63.61 L 801.35 58.76 Z" fill="#d0d0d0" fill-opacity="0.5" stroke="none"/>
<path d="M 933.79 52.78 L 933.79 53.39 Z" fill="#d0d0d0" fill-opacity="0.5" stroke="none"/>
<path d="M 955.92 48.06 L 956.02 48.06 L 958.82 48.06 L 975.32 48.06 L 975.53 48.06 L 981.16 48.06 L 981.16 49.82 L 975.53 51.62 L 975.32 49.03 L 958.82 51.88 L 956.02 54.58 L 955.92 49.61 Z" fill="#d0d0d0" fill-opacity="0.5" stroke="none"/>
<path d="M 1003.16 47.34 L 1003.16 47.37 Z" fill="#d0d0d0" fill-opacity="0.5" stroke="none"/>
<path d="M 1062.39 33.50 L 1063.28 33.50 L 1063.28 35.84 L 1062.39 38.60 Z" fill="#d0d0d0" fill-opacity="0.5" stroke="none"/>
<path d="M 1088.17 30.08 L 1088.32 30.08 L 1088.34 30.08 L 1088.41 30.08 L 1088.45 30.08 L 1088.58 30.08 L 1090.46 30.08 L 1091.16 30.08 L 1091.39 30.08 L 1091.73 30.08 L 1107.01 30.08 L 1107.54 30.08 L 1113.42 30.08 L 1113.42 31.19 L 1107.54 33.12 L 1107.01 35.41 L 1091.73 37.90 L 1091.39 39.60 L 1091.16 41.67 L 1090.46 44.41 L 1088.58 39.36 L 1088.45 41.24 L 1088.41 43.43 L 1088.34 38.40 L 1088.32 33.30 L 1088.17 30.69 Z" fill="#d0d0d0" fill-opacity="0.5" stroke="none"/>
<polyline fill="none" stroke="#111" stroke-width="1.2" points="70.00,159.91 70.49,163.87 70.54,162.47 73.08,160.30 73.09,157.98 73.22,155.79 73.72,153.80 73.79,151.91 73.93,155.94 73.94,153.89 76.91,151.90 77.07,150.33 85.74,149.07 92.64,148.54 92.67,146.18 95.68,143.81 95.80,142.91 95.96,147.01 96.00,151.05 96.13,152.10 96.19,151.53 98.20,155.57 98.22,153.45 98.35,157.48 98.41,156.40 98.60,160.40 98.64,164.34 98.65,162.05 98.89,160.18 106.43,164.14 107.54,162.20 110.78,166.14 110.83,164.31 111.42,162.33 111.53,160.48 111.69,164.44 133.49,168.36 133.56,167.62 133.70,167.63 137.96,167.39 139.03,165.43 139.43,163.78 140.43,162.81 143.18,163.90 152.33,163.21 155.36,161.16 162.01,159.66 175.00,157.96 177.39,157.16 181.43,154.96 187.26,152.76 187.55,150.42 205.96,154.48 206.13,158.48 206.14,162.46 206.20,161.62 209.23,160.08 225.01,157.90 227.99,155.91 228.07,154.28 228.45,152.52 230.58,150.51 231.12,148.17 231.30,152.26 231.35,150.66 243.28,149.68 243.90,147.78 244.20,145.75 246.30,143.52 246.68,143.41 247.60,142.62 249.32,146.76 249.38,145.39 249.51,144.19 250.02,141.94 253.38,146.09 253.39,143.74 253.52,141.74 253.85,140.32 262.81,144.48 269.48,142.23 269.64,139.84 269.75,138.70 270.49,142.87 270.89,142.54 271.40,146.68 271.47,145.57 271.57,143.81 271.70,141.91 271.96,139.64 272.09,137.50 272.52,135.74 275.21,133.93 275.29,131.73 275.42,135.97 275.44,134.11 275.77,138.33 275.89,137.17 284.29,135.03 284.47,133.45 284.66,133.98 287.35,133.73 287.83,131.42 287.86,129.09 288.02,128.43 293.63,127.17 294.18,125.07 294.41,124.44 294.87,124.29 296.66,128.61 297.34,127.17 297.76,124.82 297.78,122.51 309.43,120.42 313.03,118.47 315.40,116.59 316.24,114.37 319.24,111.96 319.33,109.41 319.44,108.55 319.63,110.70 331.40,115.14 331.50,114.40 335.32,112.46 335.84,110.48 338.51,114.92 340.74,113.99 350.50,112.63 350.91,110.22 354.01,108.37 354.05,112.81 354.18,117.23 354.29,116.28 356.69,116.53 357.22,114.14 357.30,112.31 357.74,109.89 357.83,108.83 358.67,106.39 359.69,104.74 360.05,109.24 360.12,107.19 360.29,104.76 361.04,109.25 362.99,107.57 363.47,105.34 375.40,105.56 376.37,104.16 379.19,102.37 382.04,100.96 382.64,99.54 384.74,104.08 384.85,102.32 384.98,100.45 385.25,99.33 395.31,97.98 398.34,95.70 401.26,100.27 401.41,98.08 401.48,102.61 401.67,107.12 401.74,106.58 401.96,104.14 402.01,101.72 403.76,106.24 403.79,110.70 403.87,109.82 404.44,107.63 404.73,105.34 407.80,103.58 416.45,102.12 417.11,101.03 420.21,99.07 420.47,97.79 422.08,95.29 423.47,99.87 423.62,101.59 426.44,106.11 429.59,103.65 429.61,101.18 429.88,98.83 438.34,96.97 441.56,95.87 445.52,100.44 447.78,98.77 448.83,96.27 451.88,100.84 451.98,100.38 452.10,99.74 460.47,97.69 461.33,96.86 461.86,94.80 463.53,99.38 463.59,103.90 463.68,108.40 463.74,107.06 464.30,111.54 466.66,115.98 468.12,113.57 469.93,111.16 473.85,115.57 473.92,114.60 474.05,114.91 485.63,113.76 489.56,114.38 489.70,112.22 489.87,110.00 492.48,108.21 505.47,106.12 507.71,104.97 508.07,102.51 508.45,107.00 508.63,111.48 510.83,109.61 511.08,107.68 511.58,105.40 511.71,109.86 511.77,114.28 511.90,115.66 512.00,116.88 514.10,121.27 514.15,125.58 514.35,129.88 514.75,134.15 514.78,132.26 515.21,129.93 515.38,127.77 516.08,126.34 517.10,124.38 517.98,122.97 526.51,120.59 527.31,120.41 528.98,118.02 529.74,115.84 530.47,114.16 532.90,118.57 533.42,116.66 533.70,114.63 533.91,112.21 536.10,109.78 539.37,107.33 539.41,105.44 539.84,102.97 551.79,101.39 552.46,99.71 556.33,97.21 556.37,95.48 558.25,94.29 559.30,91.76 561.22,89.73 570.70,87.19 573.25,91.84 574.61,96.45 580.44,94.67 584.35,93.73 591.55,92.23 591.74,96.84 592.62,94.20 592.79,92.51 593.71,90.21 594.07,87.55 596.66,85.88 596.89,90.55 599.29,88.18 613.56,85.51 614.60,82.96 618.17,83.10 618.62,81.67 621.16,79.09 621.89,76.71 622.16,74.36 624.30,72.17 626.24,70.09 627.76,70.47 636.80,68.08 636.93,72.90 636.98,71.09 644.00,71.77 663.01,70.01 668.48,70.68 680.93,68.05 680.97,65.75 688.64,63.10 694.22,60.31 694.36,58.51 694.48,56.59 694.87,56.57 707.65,57.27 716.27,54.58 716.29,59.52 716.56,56.84 726.27,54.16 728.31,59.09 731.53,58.97 754.87,59.46 757.52,57.25 760.83,62.16 768.43,61.37 768.64,60.92 769.73,58.45 769.87,55.89 769.92,60.74 770.46,59.62 772.75,64.50 772.78,62.18 773.33,67.04 776.07,69.69 776.13,66.92 776.40,64.27 778.82,62.22 779.43,62.75 779.61,60.34 782.83,57.67 782.91,55.67 794.45,53.82 801.35,58.76 801.40,63.61 801.54,68.47 805.08,65.83 816.04,65.17 823.74,62.52 827.06,63.61 842.61,64.71 846.16,62.05 848.87,60.16 858.47,60.84 880.58,61.55 892.92,62.14 892.98,60.36 893.40,59.94 905.65,57.74 910.97,56.09 911.63,55.29 914.17,53.78 933.06,52.78 933.79,53.39 955.70,50.68 955.71,48.06 955.92,49.61 956.02,54.58 958.82,51.88 975.32,49.03 975.53,51.62 981.16,49.82 996.81,47.34 1003.16,47.37 1003.24,45.58 1021.27,44.11 1022.00,41.37 1022.06,38.67 1032.66,37.18 1042.37,34.41 1044.35,33.50 1062.39,38.60 1063.28,35.84 1087.90,33.08 1087.90,30.08 1088.17,30.69 1088.32,33.30 1088.34,38.40 1088.41,43.43 1088.45,41.24 1088.58,39.36 1090.46,44.41 1091.16,41.67 1091.39,39.60 1091.73,37.90 1107.01,35.41 1107.54,33.12 1113.42,31.19 1122.96,29.62 1126.00,27.42 1130.33,27.30 1134.67,25.92 1170.00,25.00"/>
<text x="620.0" y="588" text-anchor="middle" font-family="sans-serif" font-size="12" fill="#333">UTC time</text>
<text x="15" y="287.5" transform="rotate(-90 15,287.5)" text-anchor="middle" font-family="sans-serif" font-size="12" fill="#333">Capital</text>
</svg>