<svg xmlns="http://www.w3.org/2000/svg" width="1200" height="600" viewBox="0 0 1200 600">
<desc>Equity curve with drawdown fill</desc>
<text x="600.0" y="18.0" text-anchor="middle" font-family="sans-serif" font-size="14">Portfolio 2025</text>
<rect x="70" y="25" width="1100" height="525" fill="white" stroke="#ccc" />
<line x1="70" y1="550.00" x2="1170" y2="550.00" stroke="#eee"/>
<text x="62" y="554.0" text-anchor="end" font-family="sans-serif" font-size="11" fill="#555">0.00</text>
<line x1="70" y1="445.00" x2="1170" y2="445.00" stroke="#eee"/>
<text x="62" y="449.0" text-anchor="end" font-family="sans-serif" font-size="11" fill="#555">59707</text>
<line x1="70" y1="340.00" x2="1170" y2="340.00" stroke="#eee"/>
<text x="62" y="344.0" text-anchor="end" font-family="sans-serif" font-size="11" fill="#555">119414</text>
<line x1="70" y1="235.00" x2="1170" y2="235.00" stroke="#eee"/>
<text x="62" y="239.0" text-anchor="end" font-family="sans-serif" font-size="11" fill="#555">179121</text>
<line x1="70" y1="130.00" x2="1170" y2="130.00" stroke="#eee"/>
<text x="62" y="134.0" text-anchor="end" font-family="sans-serif" font-size="11" fill="#555">238827</text>
<line x1="70" y1="25.00" x2="1170" y2="25.00" stroke="#eee"/>
<text x="62" y="29.0" text-anchor="end" font-family="sans-serif" font-size="11" fill="#555">298534</text>
<line x1="258.67" y1="25" x2="258.67" y2="550" stroke="#f2f2f2"/>
<text x="258.67" y="566" text-anchor="middle" font-family="sans-serif" font-size="11" fill="#555">Feb</text>
<line x1="437.51" y1="25" x2="437.51" y2="550" stroke="#f2f2f2"/>
<text x="437.51" y="566" text-anchor="middle" font-family="sans-serif" font-size="11" fill="#555">Mar</text>
<line x1="635.52" y1="25" x2="635.52" y2="550" stroke="#f2f2f2"/>
<text x="635.52" y="566" text-anchor="middle" font-family="sans-serif" font-size="11" fill="#555">Apr</text>
<line x1="827.13" y1="25" x2="827.13" y2="550" stroke="#f2f2f2"/>
<text x="827.13" y="566" text-anchor="middle" font-family="sans-serif" font-size="11" fill="#555">May</text>
<line x1="1025.14" y1="25" x2="1025.14" y2="550" stroke="#f2f2f2"/>
<text x="1025.14" y="566" text-anchor="middle" font-family="sans-serif" font-size="11" fill="#555">Jun</text>
<line x1="70" y1="550" x2="1170" y2="550" stroke="#888"/>
<line x1="70" y1="25" x2="70" y2="550" stroke="#888"/>
<path d="M 71.32 65.52 L 95.06 65.52 L 95.62 65.52 L 95.84 65.52 L 96.20 65.52 L 96.40 65.52 L 108.50 65.52 L 108.50 65.56 L 96.40 67.74 L 96.20 70.42 L 95.84 72.77 L 95.62 72.90 L 95.06 68.02 L 71.32 70.43 Z" fill="#d0d0d0" fill-opacity="0.5" stroke="none"/>
<path d="M 185.93 46.03 L 186.12 46.03 L 186.66 46.03 L 188.66 46.03 L 210.12 46.03 L 233.16 46.03 L 249.67 46.03 L 256.98 46.03 L 256.98 48.14 L 249.67 49.20 L 233.16 51.15 L 210.12 51.16 L 188.66 53.07 L 186.66 47.99 L 186.12 50.78 L 185.93 51.12 Z" fill="#d0d0d0" fill-opacity="0.5" stroke="none"/>
<path d="M 271.38 45.62 L 271.38 46.13 Z" fill="#d0d0d0" fill-opacity="0.5" stroke="none"/>
<path d="M 275.62 40.72 L 279.28 40.72 L 301.22 40.72 L 301.22 40.96 L 279.28 43.79 L 275.62 45.87 Z" fill="#d0d0d0" fill-opacity="0.5" stroke="none"/>
<path d="M 333.70 35.53 L 339.42 35.53 L 339.42 38.28 L 333.70 40.73 Z" fill="#d0d0d0" fill-opacity="0.5" stroke="none"/>
<path d="M 428.83 35.44 L 462.00 35.44 L 465.34 35.44 L 466.97 35.44 L 472.98 35.44 L 474.47 35.44 L 503.51 35.44 L 523.51 35.44 L 554.58 35.44 L 554.58 37.03 L 523.51 39.00 L 503.51 40.51 L 474.47 42.57 L 472.98 44.83 L 466.97 47.65 L 465.34 42.52 L 462.00 43.59 L 428.83 38.42 Z" fill="#d0d0d0" fill-opacity="0.5" stroke="none"/>
<path d="M 1054.70 34.74 L 1054.70 34.74 Z" fill="#d0d0d0" fill-opacity="0.5" stroke="none"/>
<path d="M 1170.00 25.00 L 1170.00 30.29 Z" fill="#d0d0d0" fill-opacity="0.5" stroke="none"/>
<polyline fill="none" stroke="#111" stroke-width="1.2" points="70.00,65.52 71.32,70.43 95.06,68.02 95.62,72.90 95.84,72.77 96.20,70.42 96.40,67.74 108.50,65.56 121.74,62.84 121.84,60.69 122.16,58.25 139.83,55.50 153.68,52.73 154.61,51.48 185.62,48.69 185.67,46.03 185.93,51.12 186.12,50.78 186.66,47.99 188.66,53.07 210.12,51.16 233.16,51.15 249.67,49.20 256.98,48.14 257.25,45.62 271.38,46.13 271.46,43.33 271.56,40.72 275.62,45.87 279.28,43.79 301.22,40.96 301.61,38.39 332.52,35.53 333.70,40.73 339.42,38.28 340.30,35.44 428.83,38.42 462.00,43.59 465.34,42.52 466.97,47.65 472.98,44.83 474.47,42.57 503.51,40.51 523.51,39.00 554.58,37.03 1033.92,34.74 1054.70,34.74 1092.66,32.10 1098.33,29.77 1102.26,27.08 1131.55,25.00 1170.00,30.29"/>
<text x="620.0" y="588" text-anchor="middle" font-family="sans-serif" font-size="12" fill="#333">UTC time</text>
<text x="15" y="287.5" transform="rotate(-90 15,287.5)" text-anchor="middle" font-family="sans-serif" font-size="12" fill="#333">Capital</text>
</svg>