<svg xmlns="http://www.w3.org/2000/svg" width="1200" height="600" viewBox="0 0 1200 600">
<desc>Equity curve with drawdown fill; x-axis is months only (no exact timestamps)</desc>
<text x="600.0" y="18.0" text-anchor="middle" font-family="sans-serif" font-size="14">Balance Curve 2010 (UTC)</text>
<rect x="70" y="25" width="1100" height="525" fill="white" stroke="#ccc" />
<line x1="70" y1="550.00" x2="1170" y2="550.00" stroke="#eee"/>
<text x="62" y="554.0" text-anchor="end" font-family="sans-serif" font-size="11" fill="#555">0.00</text>
<line x1="70" y1="445.00" x2="1170" y2="445.00" stroke="#eee"/>
<text x="62" y="449.0" text-anchor="end" font-family="sans-serif" font-size="11" fill="#555">34115</text>
<line x1="70" y1="340.00" x2="1170" y2="340.00" stroke="#eee"/>
<text x="62" y="344.0" text-anchor="end" font-family="sans-serif" font-size="11" fill="#555">68230</text>
<line x1="70" y1="235.00" x2="1170" y2="235.00" stroke="#eee"/>
<text x="62" y="239.0" text-anchor="end" font-family="sans-serif" font-size="11" fill="#555">102345</text>
<line x1="70" y1="130.00" x2="1170" y2="130.00" stroke="#eee"/>
<text x="62" y="134.0" text-anchor="end" font-family="sans-serif" font-size="11" fill="#555">136460</text>
<line x1="70" y1="25.00" x2="1170" y2="25.00" stroke="#eee"/>
<text x="62" y="29.0" text-anchor="end" font-family="sans-serif" font-size="11" fill="#555">170575</text>
<line x1="161.67" y1="25" x2="161.67" y2="550" stroke="#f2f2f2"/>
<line x1="253.33" y1="25" x2="253.33" y2="550" stroke="#f2f2f2"/>
<line x1="345.00" y1="25" x2="345.00" y2="550" stroke="#f2f2f2"/>
<line x1="436.67" y1="25" x2="436.67" y2="550" stroke="#f2f2f2"/>
<line x1="528.33" y1="25" x2="528.33" y2="550" stroke="#f2f2f2"/>
<line x1="620.00" y1="25" x2="620.00" y2="550" stroke="#f2f2f2"/>
<line x1="711.67" y1="25" x2="711.67" y2="550" stroke="#f2f2f2"/>
<line x1="803.33" y1="25" x2="803.33" y2="550" stroke="#f2f2f2"/>
<line x1="895.00" y1="25" x2="895.00" y2="550" stroke="#f2f2f2"/>
<line x1="986.67" y1="25" x2="986.67" y2="550" stroke="#f2f2f2"/>
<line x1="1078.33" y1="25" x2="1078.33" y2="550" stroke="#f2f2f2"/>
<text x="115.83" y="566.00" text-anchor="middle" font-family="sans-serif" font-size="11" fill="#444">Jan</text>
<text x="207.50" y="566.00" text-anchor="middle" font-family="sans-serif" font-size="11" fill="#444">Feb</text>
<text x="299.17" y="566.00" text-anchor="middle" font-family="sans-serif" font-size="11" fill="#444">Mar</text>
<text x="390.83" y="566.00" text-anchor="middle" font-family="sans-serif" font-size="11" fill="#444">Apr</text>
<text x="482.50" y="566.00" text-anchor="middle" font-family="sans-serif" font-size="11" fill="#444">May</text>
<text x="574.17" y="566.00" text-anchor="middle" font-family="sans-serif" font-size="11" fill="#444">Jun</text>
<text x="665.83" y="566.00" text-anchor="middle" font-family="sans-serif" font-size="11" fill="#444">Jul</text>
<text x="757.50" y="566.00" text-anchor="middle" font-family="sans-serif" font-size="11" fill="#444">Aug</text>
<text x="849.17" y="566.00" text-anchor="middle" font-family="sans-serif" font-size="11" fill="#444">Sep</text>
<text x="940.83" y="566.00" text-anchor="middle" font-family="sans-serif" font-size="11" fill="#444">Oct</text>
<text x="1032.50" y="566.00" text-anchor="middle" font-family="sans-serif" font-size="11" fill="#444">Nov</text>
<text x="1124.17" y="566.00" text-anchor="middle" font-family="sans-serif" font-size="11" fill="#444">Dec</text>
<line x1="70" y1="550" x2="1170" y2="550" stroke="#888"/>
<line x1="70" y1="25" x2="70" y2="550" stroke="#888"/>
<line x1="75.09" y1="550.00" x2="75.09" y2="556.00" stroke="#888"/>
<line x1="1167.30"   y1="550.00" x2="1167.30"   y2="556.00" stroke="#888"/>
<text x="75.09" y="582.00" text-anchor="start" font-family="sans-serif" font-size="11" fill="#333">Initial Balance: 132837</text>
<text x="1167.30"   y="582.00" text-anchor="end"   font-family="sans-serif" font-size="11" fill="#333">Ending Balance: 170575</text>
<path d="M 115.83 135.43 L 115.83 135.76 Z" fill="#d0d0d0" fill-opacity="0.5" stroke="none"/>
<path d="M 207.50 124.91 L 225.83 124.91 L 244.17 124.91 L 244.17 125.62 L 225.83 127.19 L 207.50 129.24 Z" fill="#d0d0d0" fill-opacity="0.5" stroke="none"/>
<path d="M 306.81 119.39 L 306.81 120.25 Z" fill="#d0d0d0" fill-opacity="0.5" stroke="none"/>
<path d="M 398.47 113.02 L 413.75 113.02 L 429.03 113.02 L 437.60 113.02 L 439.47 113.02 L 441.34 113.02 L 443.21 113.02 L 445.09 113.02 L 446.96 113.02 L 448.83 113.02 L 450.70 113.02 L 452.57 113.02 L 452.57 114.37 L 450.70 116.72 L 448.83 119.00 L 446.96 121.08 L 445.09 123.05 L 443.21 125.10 L 441.34 127.09 L 439.47 128.79 L 437.60 124.45 L 429.03 120.07 L 413.75 115.64 L 398.47 117.47 Z" fill="#d0d0d0" fill-opacity="0.5" stroke="none"/>
<path d="M 471.28 99.56 L 473.15 99.56 L 475.02 99.56 L 476.89 99.56 L 476.89 99.87 L 475.02 101.86 L 473.15 102.99 L 471.28 104.15 Z" fill="#d0d0d0" fill-opacity="0.5" stroke="none"/>
<path d="M 482.50 95.97 L 484.37 95.97 L 486.24 95.97 L 488.11 95.97 L 489.98 95.97 L 491.85 95.97 L 493.72 95.97 L 495.60 95.32 L 497.47 95.32 L 497.47 104.44 L 495.60 99.84 L 493.72 97.92 L 491.85 98.69 L 489.98 101.02 L 488.11 96.41 L 486.24 97.67 L 484.37 98.29 L 482.50 100.60 Z" fill="#d0d0d0" fill-opacity="0.5" stroke="none"/>
<path d="M 501.21 95.32 L 503.08 95.32 L 504.95 95.32 L 506.82 95.32 L 508.69 95.32 L 510.56 95.32 L 510.56 95.64 L 508.69 97.53 L 506.82 99.02 L 504.95 101.10 L 503.08 102.57 L 501.21 102.65 Z" fill="#d0d0d0" fill-opacity="0.5" stroke="none"/>
<path d="M 518.04 92.87 L 518.04 92.97 Z" fill="#d0d0d0" fill-opacity="0.5" stroke="none"/>
<path d="M 563.38 72.48 L 568.77 72.48 L 574.17 72.48 L 579.56 72.48 L 584.95 72.48 L 590.34 72.48 L 595.74 72.48 L 595.74 74.22 L 590.34 76.25 L 584.95 75.22 L 579.56 73.71 L 574.17 73.99 L 568.77 75.28 L 563.38 77.32 Z" fill="#d0d0d0" fill-opacity="0.5" stroke="none"/>
<path d="M 665.83 59.49 L 665.83 59.54 Z" fill="#d0d0d0" fill-opacity="0.5" stroke="none"/>
<path d="M 706.57 55.03 L 719.31 55.03 L 734.58 55.03 L 749.86 55.03 L 765.14 55.03 L 780.42 55.03 L 795.69 55.03 L 812.50 55.03 L 830.83 55.03 L 849.17 55.03 L 867.50 55.03 L 885.83 55.03 L 897.86 55.03 L 903.59 55.03 L 909.32 55.03 L 915.05 55.03 L 920.78 55.03 L 926.51 55.03 L 932.24 55.03 L 932.24 56.89 L 926.51 55.53 L 920.78 58.15 L 915.05 60.71 L 909.32 55.74 L 903.59 58.34 L 897.86 59.36 L 885.83 61.38 L 867.50 62.25 L 849.17 63.67 L 830.83 64.54 L 812.50 63.99 L 795.69 62.35 L 780.42 64.65 L 765.14 66.26 L 749.86 67.73 L 734.58 65.87 L 719.31 60.98 L 706.57 56.01 Z" fill="#d0d0d0" fill-opacity="0.5" stroke="none"/>
<path d="M 1016.13 35.71 L 1022.68 35.71 L 1029.23 35.71 L 1035.77 35.71 L 1042.32 35.71 L 1048.87 35.71 L 1055.42 35.71 L 1061.96 35.71 L 1068.51 35.71 L 1075.06 35.71 L 1081.03 35.71 L 1086.42 35.71 L 1091.81 35.71 L 1097.21 35.71 L 1102.60 35.71 L 1102.60 36.69 L 1097.21 37.98 L 1091.81 40.08 L 1086.42 42.12 L 1081.03 37.03 L 1075.06 39.87 L 1068.51 42.25 L 1061.96 43.67 L 1055.42 45.78 L 1048.87 40.68 L 1042.32 42.43 L 1035.77 37.30 L 1029.23 39.25 L 1022.68 40.45 L 1016.13 40.86 Z" fill="#d0d0d0" fill-opacity="0.5" stroke="none"/>
<path d="M 1129.56 30.04 L 1134.95 30.04 L 1140.34 30.04 L 1140.34 31.20 L 1134.95 30.97 L 1129.56 31.41 Z" fill="#d0d0d0" fill-opacity="0.5" stroke="none"/>
<path d="M 1151.13 28.49 L 1151.13 30.59 Z" fill="#d0d0d0" fill-opacity="0.5" stroke="none"/>
<polyline fill="none" stroke="#111" stroke-width="1.2" points="75.09,141.15 85.28,138.95 95.46,136.73 105.65,135.43 115.83,135.76 126.02,134.67 136.20,133.21 146.39,131.11 156.57,128.85 170.83,127.17 189.17,124.91 207.50,129.24 225.83,127.19 244.17,125.62 260.97,123.33 276.25,121.11 291.53,119.39 306.81,120.25 322.08,118.57 337.36,116.95 352.64,115.61 367.92,114.34 383.19,113.02 398.47,117.47 413.75,115.64 429.03,120.07 437.60,124.45 439.47,128.79 441.34,127.09 443.21,125.10 445.09,123.05 446.96,121.08 448.83,119.00 450.70,116.72 452.57,114.37 454.44,112.05 456.31,111.24 458.18,109.04 460.05,108.33 461.92,106.09 463.79,104.38 465.66,103.03 467.53,101.31 469.40,99.56 471.28,104.15 473.15,102.99 475.02,101.86 476.89,99.87 478.76,98.00 480.63,95.97 482.50,100.60 484.37,98.29 486.24,97.67 488.11,96.41 489.98,101.02 491.85,98.69 493.72,97.92 495.60,99.84 497.47,104.44 499.34,95.32 501.21,102.65 503.08,102.57 504.95,101.10 506.82,99.02 508.69,97.53 510.56,95.64 512.43,94.40 514.30,94.17 516.17,92.87 518.04,92.97 519.91,90.76 521.79,88.56 523.66,87.20 525.53,86.00 527.40,83.81 531.03,82.43 536.42,79.99 541.81,78.08 547.21,76.37 552.60,74.12 557.99,72.48 563.38,77.32 568.77,75.28 574.17,73.99 579.56,73.71 584.95,75.22 590.34,76.25 595.74,74.22 601.13,72.17 606.52,69.66 611.91,68.19 617.30,65.68 625.09,63.14 635.28,61.48 645.46,60.63 655.65,59.49 665.83,59.54 676.02,58.87 686.20,56.81 696.39,55.03 706.57,56.01 719.31,60.98 734.58,65.87 749.86,67.73 765.14,66.26 780.42,64.65 795.69,62.35 812.50,63.99 830.83,64.54 849.17,63.67 867.50,62.25 885.83,61.38 897.86,59.36 903.59,58.34 909.32,55.74 915.05,60.71 920.78,58.15 926.51,55.53 932.24,56.89 937.97,54.26 943.70,54.19 949.43,52.33 955.16,50.71 960.89,48.75 966.61,48.01 972.34,47.22 978.07,45.06 983.80,44.28 989.94,41.60 996.49,40.72 1003.04,37.85 1009.58,35.71 1016.13,40.86 1022.68,40.45 1029.23,39.25 1035.77,37.30 1042.32,42.43 1048.87,40.68 1055.42,45.78 1061.96,43.67 1068.51,42.25 1075.06,39.87 1081.03,37.03 1086.42,42.12 1091.81,40.08 1097.21,37.98 1102.60,36.69 1107.99,34.84 1113.38,34.72 1118.77,32.30 1124.17,30.04 1129.56,31.41 1134.95,30.97 1140.34,31.20 1145.74,28.49 1151.13,30.59 1156.52,28.30 1161.91,26.93 1167.30,25.00"/>
<text x="15" y="287.5" transform="rotate(-90 15,287.5)" text-anchor="middle" font-family="sans-serif" font-size="12" fill="#333">USD</text>
</svg>