<svg xmlns="http://www.w3.org/2000/svg" width="1200" height="600" viewBox="0 0 1200 600">
<desc>Equity curve with drawdown fill; x-axis is months only (no exact timestamps)</desc>
<text x="600.0" y="18.0" text-anchor="middle" font-family="sans-serif" font-size="14">Portfolio 2015 (UTC)</text>
<rect x="70" y="25" width="1100" height="525" fill="white" stroke="#ccc" />
<line x1="70" y1="550.00" x2="1170" y2="550.00" stroke="#eee"/>
<text x="62" y="554.0" text-anchor="end" font-family="sans-serif" font-size="11" fill="#555">0.00</text>
<line x1="70" y1="445.00" x2="1170" y2="445.00" stroke="#eee"/>
<text x="62" y="449.0" text-anchor="end" font-family="sans-serif" font-size="11" fill="#555">27895</text>
<line x1="70" y1="340.00" x2="1170" y2="340.00" stroke="#eee"/>
<text x="62" y="344.0" text-anchor="end" font-family="sans-serif" font-size="11" fill="#555">55791</text>
<line x1="70" y1="235.00" x2="1170" y2="235.00" stroke="#eee"/>
<text x="62" y="239.0" text-anchor="end" font-family="sans-serif" font-size="11" fill="#555">83686</text>
<line x1="70" y1="130.00" x2="1170" y2="130.00" stroke="#eee"/>
<text x="62" y="134.0" text-anchor="end" font-family="sans-serif" font-size="11" fill="#555">111581</text>
<line x1="70" y1="25.00" x2="1170" y2="25.00" stroke="#eee"/>
<text x="62" y="29.0" text-anchor="end" font-family="sans-serif" font-size="11" fill="#555">139477</text>
<line x1="161.67" y1="25" x2="161.67" y2="550" stroke="#f2f2f2"/>
<line x1="253.33" y1="25" x2="253.33" y2="550" stroke="#f2f2f2"/>
<line x1="345.00" y1="25" x2="345.00" y2="550" stroke="#f2f2f2"/>
<line x1="436.67" y1="25" x2="436.67" y2="550" stroke="#f2f2f2"/>
<line x1="528.33" y1="25" x2="528.33" y2="550" stroke="#f2f2f2"/>
<line x1="620.00" y1="25" x2="620.00" y2="550" stroke="#f2f2f2"/>
<line x1="711.67" y1="25" x2="711.67" y2="550" stroke="#f2f2f2"/>
<line x1="803.33" y1="25" x2="803.33" y2="550" stroke="#f2f2f2"/>
<line x1="895.00" y1="25" x2="895.00" y2="550" stroke="#f2f2f2"/>
<line x1="986.67" y1="25" x2="986.67" y2="550" stroke="#f2f2f2"/>
<line x1="1078.33" y1="25" x2="1078.33" y2="550" stroke="#f2f2f2"/>
<text x="115.83" y="566.00" text-anchor="middle" font-family="sans-serif" font-size="11" fill="#444">Jan</text>
<text x="207.50" y="566.00" text-anchor="middle" font-family="sans-serif" font-size="11" fill="#444">Feb</text>
<text x="299.17" y="566.00" text-anchor="middle" font-family="sans-serif" font-size="11" fill="#444">Mar</text>
<text x="390.83" y="566.00" text-anchor="middle" font-family="sans-serif" font-size="11" fill="#444">Apr</text>
<text x="482.50" y="566.00" text-anchor="middle" font-family="sans-serif" font-size="11" fill="#444">May</text>
<text x="574.17" y="566.00" text-anchor="middle" font-family="sans-serif" font-size="11" fill="#444">Jun</text>
<text x="665.83" y="566.00" text-anchor="middle" font-family="sans-serif" font-size="11" fill="#444">Jul</text>
<text x="757.50" y="566.00" text-anchor="middle" font-family="sans-serif" font-size="11" fill="#444">Aug</text>
<text x="849.17" y="566.00" text-anchor="middle" font-family="sans-serif" font-size="11" fill="#444">Sep</text>
<text x="940.83" y="566.00" text-anchor="middle" font-family="sans-serif" font-size="11" fill="#444">Oct</text>
<text x="1032.50" y="566.00" text-anchor="middle" font-family="sans-serif" font-size="11" fill="#444">Nov</text>
<text x="1124.17" y="566.00" text-anchor="middle" font-family="sans-serif" font-size="11" fill="#444">Dec</text>
<line x1="70" y1="550" x2="1170" y2="550" stroke="#888"/>
<line x1="70" y1="25" x2="70" y2="550" stroke="#888"/>
<line x1="77.64" y1="550.00" x2="77.64" y2="556.00" stroke="#888"/>
<line x1="1158.54"   y1="550.00" x2="1158.54"   y2="556.00" stroke="#888"/>
<text x="77.64" y="582.00" text-anchor="start" font-family="sans-serif" font-size="11" fill="#333">Initial Balance: 100000</text>
<text x="1158.54"   y="582.00" text-anchor="end"   font-family="sans-serif" font-size="11" fill="#333">Ending Balance: 138483</text>
<path d="M 165.83 160.80 L 174.17 160.80 L 182.50 160.80 L 182.50 162.63 L 174.17 165.58 L 165.83 166.70 Z" fill="#d0d0d0" fill-opacity="0.5" stroke="none"/>
<path d="M 255.33 145.45 L 255.33 146.52 Z" fill="#d0d0d0" fill-opacity="0.5" stroke="none"/>
<path d="M 263.30 145.34 L 267.28 145.34 L 267.28 148.16 L 263.30 151.47 Z" fill="#d0d0d0" fill-opacity="0.5" stroke="none"/>
<path d="M 279.24 142.84 L 283.22 142.84 L 287.21 142.84 L 287.21 145.73 L 283.22 146.22 L 279.24 149.00 Z" fill="#d0d0d0" fill-opacity="0.5" stroke="none"/>
<path d="M 311.12 130.60 L 315.11 130.60 L 319.09 130.60 L 319.09 131.37 L 315.11 133.75 L 311.12 136.93 Z" fill="#d0d0d0" fill-opacity="0.5" stroke="none"/>
<path d="M 361.89 103.76 L 366.71 103.76 L 371.54 103.76 L 371.54 105.34 L 366.71 106.93 L 361.89 110.45 Z" fill="#d0d0d0" fill-opacity="0.5" stroke="none"/>
<path d="M 381.18 101.68 L 386.01 101.68 L 390.83 101.68 L 395.66 101.68 L 400.48 101.68 L 405.31 101.68 L 410.13 101.68 L 414.96 101.68 L 419.78 101.68 L 424.61 101.68 L 429.43 101.68 L 434.25 101.68 L 439.72 101.68 L 445.83 101.68 L 451.94 101.68 L 458.06 101.68 L 464.17 101.68 L 470.28 101.68 L 470.28 102.96 L 464.17 106.63 L 458.06 109.79 L 451.94 103.09 L 445.83 105.08 L 439.72 108.73 L 434.25 110.33 L 429.43 113.57 L 424.61 106.98 L 419.78 110.75 L 414.96 112.38 L 410.13 105.71 L 405.31 107.79 L 400.48 110.42 L 395.66 110.10 L 390.83 113.37 L 386.01 106.72 L 381.18 108.40 Z" fill="#d0d0d0" fill-opacity="0.5" stroke="none"/>
<path d="M 494.72 93.98 L 500.83 93.98 L 506.94 93.98 L 513.06 93.98 L 519.17 93.98 L 525.28 93.98 L 530.62 93.98 L 535.21 93.98 L 539.79 93.98 L 544.38 93.98 L 544.38 97.13 L 539.79 100.84 L 535.21 94.02 L 530.62 96.97 L 525.28 100.67 L 519.17 103.37 L 513.06 106.70 L 506.94 105.78 L 500.83 107.52 L 494.72 100.79 Z" fill="#d0d0d0" fill-opacity="0.5" stroke="none"/>
<path d="M 594.79 65.87 L 599.38 65.87 L 603.96 65.87 L 608.54 65.87 L 613.12 65.87 L 617.71 65.87 L 625.09 65.87 L 635.28 65.87 L 645.46 65.87 L 645.46 66.60 L 635.28 68.79 L 625.09 72.66 L 617.71 76.28 L 613.12 80.33 L 608.54 73.35 L 603.96 77.37 L 599.38 80.11 L 594.79 73.03 Z" fill="#d0d0d0" fill-opacity="0.5" stroke="none"/>
<path d="M 665.83 63.06 L 665.83 63.62 Z" fill="#d0d0d0" fill-opacity="0.5" stroke="none"/>
<path d="M 696.39 55.88 L 706.57 55.88 L 714.08 55.88 L 718.90 55.88 L 723.73 55.88 L 728.55 55.88 L 733.38 55.88 L 738.20 55.88 L 743.03 55.88 L 747.85 55.88 L 752.68 55.88 L 757.50 55.88 L 757.50 56.92 L 752.68 60.72 L 747.85 64.38 L 743.03 65.04 L 738.20 66.21 L 733.38 58.97 L 728.55 58.26 L 723.73 62.22 L 718.90 66.34 L 714.08 59.09 L 706.57 63.04 L 696.39 63.09 Z" fill="#d0d0d0" fill-opacity="0.5" stroke="none"/>
<path d="M 771.97 51.27 L 776.80 51.27 L 781.62 51.27 L 786.45 51.27 L 791.27 51.27 L 791.27 54.01 L 786.45 54.91 L 781.62 59.12 L 776.80 55.12 L 771.97 58.60 Z" fill="#d0d0d0" fill-opacity="0.5" stroke="none"/>
<path d="M 860.62 41.89 L 883.54 41.89 L 901.55 41.89 L 914.64 41.89 L 927.74 41.89 L 927.74 43.68 L 914.64 42.77 L 901.55 43.99 L 883.54 44.63 L 860.62 43.55 Z" fill="#d0d0d0" fill-opacity="0.5" stroke="none"/>
<path d="M 967.02 35.63 L 967.02 37.97 Z" fill="#d0d0d0" fill-opacity="0.5" stroke="none"/>
<path d="M 1112.71 25.00 L 1135.62 25.00 L 1158.54 25.00 L 1158.54 28.74 L 1135.62 30.10 L 1112.71 32.65 Z" fill="#d0d0d0" fill-opacity="0.5" stroke="none"/>
<polyline fill="none" stroke="#111" stroke-width="1.2" points="77.64,173.59 92.92,170.43 108.19,169.68 123.47,166.63 138.75,163.75 154.03,160.80 165.83,166.70 174.17,165.58 182.50,162.63 190.83,160.15 199.17,158.69 207.50,157.64 215.83,154.53 224.17,152.78 232.50,150.20 240.83,148.98 249.17,145.45 255.33,146.52 259.31,145.34 263.30,151.47 267.28,148.16 271.27,144.95 275.25,142.84 279.24,149.00 283.22,146.22 287.21,145.73 291.20,142.37 295.18,139.20 299.17,136.58 303.15,133.89 307.14,130.60 311.12,136.93 315.11,133.75 319.09,131.37 323.08,127.90 327.07,124.40 331.05,121.25 335.04,119.06 339.02,115.50 343.01,111.99 347.41,109.15 352.24,105.80 357.06,103.76 361.89,110.45 366.71,106.93 371.54,105.34 376.36,101.68 381.18,108.40 386.01,106.72 390.83,113.37 395.66,110.10 400.48,110.42 405.31,107.79 410.13,105.71 414.96,112.38 419.78,110.75 424.61,106.98 429.43,113.57 434.25,110.33 439.72,108.73 445.83,105.08 451.94,103.09 458.06,109.79 464.17,106.63 470.28,102.96 476.39,99.27 482.50,96.50 488.61,93.98 494.72,100.79 500.83,107.52 506.94,105.78 513.06,106.70 519.17,103.37 525.28,100.67 530.62,96.97 535.21,94.02 539.79,100.84 544.38,97.13 548.96,93.69 553.54,89.93 558.12,89.64 562.71,85.85 567.29,83.20 571.88,80.17 576.46,76.32 581.04,72.44 585.62,69.80 590.21,65.87 594.79,73.03 599.38,80.11 603.96,77.37 608.54,73.35 613.12,80.33 617.71,76.28 625.09,72.66 635.28,68.79 645.46,66.60 655.65,63.06 665.83,63.62 676.02,60.03 686.20,55.88 696.39,63.09 706.57,63.04 714.08,59.09 718.90,66.34 723.73,62.22 728.55,58.26 733.38,58.97 738.20,66.21 743.03,65.04 747.85,64.38 752.68,60.72 757.50,56.92 762.32,52.95 767.15,51.27 771.97,58.60 776.80,55.12 781.62,59.12 786.45,54.91 791.27,54.01 796.10,49.98 800.92,46.98 814.79,45.96 837.71,41.89 860.62,43.55 883.54,44.63 901.55,43.99 914.64,42.77 927.74,43.68 940.83,39.59 953.93,35.63 967.02,37.97 980.12,33.85 1009.58,29.72 1055.42,28.35 1089.79,25.00 1112.71,32.65 1135.62,30.10 1158.54,28.74"/>
<text x="620.0" y="588" text-anchor="middle" font-family="sans-serif" font-size="12" fill="#333">Monthly Balance Curve</text>
<text x="15" y="287.5" transform="rotate(-90 15,287.5)" text-anchor="middle" font-family="sans-serif" font-size="12" fill="#333">Capital</text>
</svg>