<svg xmlns="http://www.w3.org/2000/svg" width="1200" height="600" viewBox="0 0 1200 600">
<desc>Equity curve with drawdown fill</desc>
<text x="600.0" y="18.0" text-anchor="middle" font-family="sans-serif" font-size="14">Portfolio 2025</text>
<rect x="70" y="25" width="1100" height="525" fill="white" stroke="#ccc" />
<line x1="70" y1="550.00" x2="1170" y2="550.00" stroke="#eee"/>
<text x="62" y="554.0" text-anchor="end" font-family="sans-serif" font-size="11" fill="#555">0.00</text>
<line x1="70" y1="445.00" x2="1170" y2="445.00" stroke="#eee"/>
<text x="62" y="449.0" text-anchor="end" font-family="sans-serif" font-size="11" fill="#555">21748</text>
<line x1="70" y1="340.00" x2="1170" y2="340.00" stroke="#eee"/>
<text x="62" y="344.0" text-anchor="end" font-family="sans-serif" font-size="11" fill="#555">43495</text>
<line x1="70" y1="235.00" x2="1170" y2="235.00" stroke="#eee"/>
<text x="62" y="239.0" text-anchor="end" font-family="sans-serif" font-size="11" fill="#555">65243</text>
<line x1="70" y1="130.00" x2="1170" y2="130.00" stroke="#eee"/>
<text x="62" y="134.0" text-anchor="end" font-family="sans-serif" font-size="11" fill="#555">86991</text>
<line x1="70" y1="25.00" x2="1170" y2="25.00" stroke="#eee"/>
<text x="62" y="29.0" text-anchor="end" font-family="sans-serif" font-size="11" fill="#555">108738</text>
<line x1="258.67" y1="25" x2="258.67" y2="550" stroke="#f2f2f2"/>
<text x="258.67" y="566" text-anchor="middle" font-family="sans-serif" font-size="11" fill="#555">Feb</text>
<line x1="437.51" y1="25" x2="437.51" y2="550" stroke="#f2f2f2"/>
<text x="437.51" y="566" text-anchor="middle" font-family="sans-serif" font-size="11" fill="#555">Mar</text>
<line x1="635.52" y1="25" x2="635.52" y2="550" stroke="#f2f2f2"/>
<text x="635.52" y="566" text-anchor="middle" font-family="sans-serif" font-size="11" fill="#555">Apr</text>
<line x1="827.13" y1="25" x2="827.13" y2="550" stroke="#f2f2f2"/>
<text x="827.13" y="566" text-anchor="middle" font-family="sans-serif" font-size="11" fill="#555">May</text>
<line x1="1025.14" y1="25" x2="1025.14" y2="550" stroke="#f2f2f2"/>
<text x="1025.14" y="566" text-anchor="middle" font-family="sans-serif" font-size="11" fill="#555">Jun</text>
<line x1="70" y1="550" x2="1170" y2="550" stroke="#888"/>
<line x1="70" y1="25" x2="70" y2="550" stroke="#888"/>
<path d="M 71.32 65.51 L 95.06 65.51 L 95.62 65.51 L 95.84 65.51 L 96.20 65.51 L 96.40 65.51 L 108.50 65.51 L 108.50 65.55 L 96.40 67.72 L 96.20 70.41 L 95.84 72.75 L 95.62 72.88 L 95.06 68.01 L 71.32 70.41 Z" fill="#d0d0d0" fill-opacity="0.5" stroke="none"/>
<path d="M 185.93 46.03 L 186.12 46.03 L 186.66 46.03 L 188.66 46.03 L 210.12 46.03 L 233.16 46.03 L 249.67 46.03 L 256.98 46.03 L 256.98 48.13 L 249.67 49.19 L 233.16 51.13 L 210.12 51.15 L 188.66 53.05 L 186.66 47.98 L 186.12 50.77 L 185.93 51.11 Z" fill="#d0d0d0" fill-opacity="0.5" stroke="none"/>
<path d="M 271.38 45.61 L 271.38 46.12 Z" fill="#d0d0d0" fill-opacity="0.5" stroke="none"/>
<path d="M 275.62 40.71 L 279.28 40.71 L 301.22 40.71 L 301.22 40.95 L 279.28 43.78 L 275.62 45.86 Z" fill="#d0d0d0" fill-opacity="0.5" stroke="none"/>
<path d="M 333.70 35.53 L 339.42 35.53 L 339.42 38.28 L 333.70 40.73 Z" fill="#d0d0d0" fill-opacity="0.5" stroke="none"/>
<path d="M 428.83 35.44 L 462.00 35.44 L 465.34 35.44 L 466.97 35.44 L 472.98 35.44 L 474.47 35.44 L 503.51 35.44 L 523.51 35.44 L 554.58 35.44 L 554.58 37.02 L 523.51 39.00 L 503.51 40.50 L 474.47 42.56 L 472.98 44.81 L 466.97 47.63 L 465.34 42.51 L 462.00 43.58 L 428.83 38.41 Z" fill="#d0d0d0" fill-opacity="0.5" stroke="none"/>
<path d="M 1054.70 34.73 L 1054.70 34.74 Z" fill="#d0d0d0" fill-opacity="0.5" stroke="none"/>
<path d="M 1170.00 25.00 L 1170.00 30.29 Z" fill="#d0d0d0" fill-opacity="0.5" stroke="none"/>
<polyline fill="none" stroke="#111" stroke-width="1.2" points="70.00,65.51 71.32,70.41 95.06,68.01 95.62,72.88 95.84,72.75 96.20,70.41 96.40,67.72 108.50,65.55 121.74,62.83 121.84,60.68 122.16,58.24 139.83,55.50 153.68,52.73 154.61,51.49 185.62,48.70 185.67,46.03 185.93,51.11 186.12,50.77 186.66,47.98 188.66,53.05 210.12,51.15 233.16,51.13 249.67,49.19 256.98,48.13 257.25,45.61 271.38,46.12 271.46,43.32 271.56,40.71 275.62,45.86 279.28,43.78 301.22,40.95 301.61,38.39 332.52,35.53 333.70,40.73 339.42,38.28 340.30,35.44 428.83,38.41 462.00,43.58 465.34,42.51 466.97,47.63 472.98,44.81 474.47,42.56 503.51,40.50 523.51,39.00 554.58,37.02 1033.92,34.73 1054.70,34.74 1092.66,32.10 1098.33,29.77 1102.26,27.08 1131.55,25.00 1170.00,30.29"/>
<text x="620.0" y="588" text-anchor="middle" font-family="sans-serif" font-size="12" fill="#333">UTC time</text>
<text x="15" y="287.5" transform="rotate(-90 15,287.5)" text-anchor="middle" font-family="sans-serif" font-size="12" fill="#333">Capital</text>
</svg>