<svg xmlns="http://www.w3.org/2000/svg" width="1200" height="600" viewBox="0 0 1200 600">
<desc>Equity curve with drawdown fill; x-axis is months only (no exact timestamps)</desc>
<text x="600.0" y="18.0" text-anchor="middle" font-family="sans-serif" font-size="14">Portfolio 2025 (UTC)</text>
<rect x="70" y="25" width="1100" height="525" fill="white" stroke="#ccc" />
<line x1="70" y1="550.00" x2="1170" y2="550.00" stroke="#eee"/>
<text x="62" y="554.0" text-anchor="end" font-family="sans-serif" font-size="11" fill="#555">0.00</text>
<line x1="70" y1="445.00" x2="1170" y2="445.00" stroke="#eee"/>
<text x="62" y="449.0" text-anchor="end" font-family="sans-serif" font-size="11" fill="#555">79106</text>
<line x1="70" y1="340.00" x2="1170" y2="340.00" stroke="#eee"/>
<text x="62" y="344.0" text-anchor="end" font-family="sans-serif" font-size="11" fill="#555">158211</text>
<line x1="70" y1="235.00" x2="1170" y2="235.00" stroke="#eee"/>
<text x="62" y="239.0" text-anchor="end" font-family="sans-serif" font-size="11" fill="#555">237317</text>
<line x1="70" y1="130.00" x2="1170" y2="130.00" stroke="#eee"/>
<text x="62" y="134.0" text-anchor="end" font-family="sans-serif" font-size="11" fill="#555">316423</text>
<line x1="70" y1="25.00" x2="1170" y2="25.00" stroke="#eee"/>
<text x="62" y="29.0" text-anchor="end" font-family="sans-serif" font-size="11" fill="#555">395529</text>
<line x1="207.50" y1="25" x2="207.50" y2="550" stroke="#f2f2f2"/>
<line x1="345.00" y1="25" x2="345.00" y2="550" stroke="#f2f2f2"/>
<line x1="482.50" y1="25" x2="482.50" y2="550" stroke="#f2f2f2"/>
<line x1="620.00" y1="25" x2="620.00" y2="550" stroke="#f2f2f2"/>
<line x1="757.50" y1="25" x2="757.50" y2="550" stroke="#f2f2f2"/>
<line x1="895.00" y1="25" x2="895.00" y2="550" stroke="#f2f2f2"/>
<line x1="1032.50" y1="25" x2="1032.50" y2="550" stroke="#f2f2f2"/>
<text x="138.75" y="566.00" text-anchor="middle" font-family="sans-serif" font-size="11" fill="#444">Jan</text>
<text x="276.25" y="566.00" text-anchor="middle" font-family="sans-serif" font-size="11" fill="#444">Feb</text>
<text x="413.75" y="566.00" text-anchor="middle" font-family="sans-serif" font-size="11" fill="#444">Mar</text>
<text x="551.25" y="566.00" text-anchor="middle" font-family="sans-serif" font-size="11" fill="#444">Apr</text>
<text x="688.75" y="566.00" text-anchor="middle" font-family="sans-serif" font-size="11" fill="#444">May</text>
<text x="826.25" y="566.00" text-anchor="middle" font-family="sans-serif" font-size="11" fill="#444">Jun</text>
<text x="963.75" y="566.00" text-anchor="middle" font-family="sans-serif" font-size="11" fill="#444">Jul</text>
<text x="1101.25" y="566.00" text-anchor="middle" font-family="sans-serif" font-size="11" fill="#444">Aug</text>
<line x1="70" y1="550" x2="1170" y2="550" stroke="#888"/>
<line x1="70" y1="25" x2="70" y2="550" stroke="#888"/>
<line x1="75.73" y1="550.00" x2="75.73" y2="556.00" stroke="#888"/>
<line x1="1135.62"   y1="550.00" x2="1135.62"   y2="556.00" stroke="#888"/>
<text x="75.73" y="582.00" text-anchor="start" font-family="sans-serif" font-size="11" fill="#333">Initial Balance: 375692</text>
<text x="1135.62"   y="582.00" text-anchor="end"   font-family="sans-serif" font-size="11" fill="#333">Ending Balance: 387533</text>
<path d="M 98.65 49.71 L 110.10 49.71 L 121.56 49.71 L 133.02 49.71 L 133.02 51.85 L 121.56 52.98 L 110.10 55.10 L 98.65 54.86 Z" fill="#d0d0d0" fill-opacity="0.5" stroke="none"/>
<path d="M 356.46 30.86 L 379.38 30.86 L 402.29 30.86 L 402.29 31.53 L 379.38 33.72 L 356.46 36.19 Z" fill="#d0d0d0" fill-opacity="0.5" stroke="none"/>
<path d="M 485.94 26.21 L 492.81 26.21 L 499.69 26.21 L 506.56 26.21 L 513.44 26.21 L 520.31 26.21 L 527.19 26.21 L 534.06 26.21 L 540.94 26.21 L 547.81 26.21 L 554.69 26.21 L 554.69 26.49 L 547.81 29.49 L 540.94 31.35 L 534.06 31.52 L 527.19 33.12 L 520.31 33.94 L 513.44 31.98 L 506.56 26.72 L 499.69 29.77 L 492.81 29.86 L 485.94 31.59 Z" fill="#d0d0d0" fill-opacity="0.5" stroke="none"/>
<path d="M 568.44 25.00 L 575.31 25.00 L 582.19 25.00 L 589.06 25.00 L 595.94 25.00 L 602.81 25.00 L 609.69 25.00 L 616.56 25.00 L 633.75 25.00 L 661.25 25.00 L 688.75 25.00 L 716.25 25.00 L 743.75 25.00 L 780.42 25.00 L 826.25 25.00 L 872.08 25.00 L 908.75 25.00 L 936.25 25.00 L 963.75 25.00 L 991.25 25.00 L 1018.75 25.00 L 1066.88 25.00 L 1135.62 25.00 L 1135.62 35.61 L 1066.88 37.75 L 1018.75 40.05 L 991.25 34.77 L 963.75 36.98 L 936.25 39.31 L 908.75 34.07 L 872.08 37.01 L 826.25 39.54 L 780.42 41.72 L 743.75 44.21 L 716.25 38.97 L 688.75 41.41 L 661.25 36.13 L 633.75 38.72 L 616.56 33.42 L 609.69 34.11 L 602.81 28.77 L 595.94 30.11 L 589.06 32.68 L 582.19 32.58 L 575.31 27.33 L 568.44 30.38 Z" fill="#d0d0d0" fill-opacity="0.5" stroke="none"/>
<polyline fill="none" stroke="#111" stroke-width="1.2" points="75.73,51.33 87.19,49.71 98.65,54.86 110.10,55.10 121.56,52.98 133.02,51.85 144.48,49.18 155.94,46.87 167.40,44.17 178.85,41.46 190.31,40.51 201.77,38.06 230.42,36.07 276.25,33.61 322.08,30.86 356.46,36.19 379.38,33.72 402.29,31.53 425.21,29.54 448.12,28.12 471.04,26.21 485.94,31.59 492.81,29.86 499.69,29.77 506.56,26.72 513.44,31.98 520.31,33.94 527.19,33.12 534.06,31.52 540.94,31.35 547.81,29.49 554.69,26.49 561.56,25.00 568.44,30.38 575.31,27.33 582.19,32.58 589.06,32.68 595.94,30.11 602.81,28.77 609.69,34.11 616.56,33.42 633.75,38.72 661.25,36.13 688.75,41.41 716.25,38.97 743.75,44.21 780.42,41.72 826.25,39.54 872.08,37.01 908.75,34.07 936.25,39.31 963.75,36.98 991.25,34.77 1018.75,40.05 1066.88,37.75 1135.62,35.61"/>
<text x="620.0" y="588" text-anchor="middle" font-family="sans-serif" font-size="12" fill="#333">Monthly Balance Curve</text>
<text x="15" y="287.5" transform="rotate(-90 15,287.5)" text-anchor="middle" font-family="sans-serif" font-size="12" fill="#333">Capital</text>
</svg>