<svg xmlns="http://www.w3.org/2000/svg" width="1200" height="600" viewBox="0 0 1200 600">
<desc>Equity curve with drawdown fill; x-axis is months only (no exact timestamps)</desc>
<text x="600.0" y="18.0" text-anchor="middle" font-family="sans-serif" font-size="14">Portfolio 2004 (UTC)</text>
<rect x="70" y="25" width="1100" height="525" fill="white" stroke="#ccc" />
<line x1="70" y1="550.00" x2="1170" y2="550.00" stroke="#eee"/>
<text x="62" y="554.0" text-anchor="end" font-family="sans-serif" font-size="11" fill="#555">0.00</text>
<line x1="70" y1="445.00" x2="1170" y2="445.00" stroke="#eee"/>
<text x="62" y="449.0" text-anchor="end" font-family="sans-serif" font-size="11" fill="#555">24237</text>
<line x1="70" y1="340.00" x2="1170" y2="340.00" stroke="#eee"/>
<text x="62" y="344.0" text-anchor="end" font-family="sans-serif" font-size="11" fill="#555">48473</text>
<line x1="70" y1="235.00" x2="1170" y2="235.00" stroke="#eee"/>
<text x="62" y="239.0" text-anchor="end" font-family="sans-serif" font-size="11" fill="#555">72710</text>
<line x1="70" y1="130.00" x2="1170" y2="130.00" stroke="#eee"/>
<text x="62" y="134.0" text-anchor="end" font-family="sans-serif" font-size="11" fill="#555">96947</text>
<line x1="70" y1="25.00" x2="1170" y2="25.00" stroke="#eee"/>
<text x="62" y="29.0" text-anchor="end" font-family="sans-serif" font-size="11" fill="#555">121183</text>
<line x1="161.67" y1="25" x2="161.67" y2="550" stroke="#f2f2f2"/>
<line x1="253.33" y1="25" x2="253.33" y2="550" stroke="#f2f2f2"/>
<line x1="345.00" y1="25" x2="345.00" y2="550" stroke="#f2f2f2"/>
<line x1="436.67" y1="25" x2="436.67" y2="550" stroke="#f2f2f2"/>
<line x1="528.33" y1="25" x2="528.33" y2="550" stroke="#f2f2f2"/>
<line x1="620.00" y1="25" x2="620.00" y2="550" stroke="#f2f2f2"/>
<line x1="711.67" y1="25" x2="711.67" y2="550" stroke="#f2f2f2"/>
<line x1="803.33" y1="25" x2="803.33" y2="550" stroke="#f2f2f2"/>
<line x1="895.00" y1="25" x2="895.00" y2="550" stroke="#f2f2f2"/>
<line x1="986.67" y1="25" x2="986.67" y2="550" stroke="#f2f2f2"/>
<line x1="1078.33" y1="25" x2="1078.33" y2="550" stroke="#f2f2f2"/>
<text x="115.83" y="566.00" text-anchor="middle" font-family="sans-serif" font-size="11" fill="#444">Jan</text>
<text x="207.50" y="566.00" text-anchor="middle" font-family="sans-serif" font-size="11" fill="#444">Feb</text>
<text x="299.17" y="566.00" text-anchor="middle" font-family="sans-serif" font-size="11" fill="#444">Mar</text>
<text x="390.83" y="566.00" text-anchor="middle" font-family="sans-serif" font-size="11" fill="#444">Apr</text>
<text x="482.50" y="566.00" text-anchor="middle" font-family="sans-serif" font-size="11" fill="#444">May</text>
<text x="574.17" y="566.00" text-anchor="middle" font-family="sans-serif" font-size="11" fill="#444">Jun</text>
<text x="665.83" y="566.00" text-anchor="middle" font-family="sans-serif" font-size="11" fill="#444">Jul</text>
<text x="757.50" y="566.00" text-anchor="middle" font-family="sans-serif" font-size="11" fill="#444">Aug</text>
<text x="849.17" y="566.00" text-anchor="middle" font-family="sans-serif" font-size="11" fill="#444">Sep</text>
<text x="940.83" y="566.00" text-anchor="middle" font-family="sans-serif" font-size="11" fill="#444">Oct</text>
<text x="1032.50" y="566.00" text-anchor="middle" font-family="sans-serif" font-size="11" fill="#444">Nov</text>
<text x="1124.17" y="566.00" text-anchor="middle" font-family="sans-serif" font-size="11" fill="#444">Dec</text>
<line x1="70" y1="550" x2="1170" y2="550" stroke="#888"/>
<line x1="70" y1="25" x2="70" y2="550" stroke="#888"/>
<line x1="71.91" y1="550.00" x2="71.91" y2="556.00" stroke="#888"/>
<line x1="1163.45"   y1="550.00" x2="1163.45"   y2="556.00" stroke="#888"/>
<text x="71.91" y="582.00" text-anchor="start" font-family="sans-serif" font-size="11" fill="#333">Initial Balance: 108733</text>
<text x="1163.45"   y="582.00" text-anchor="end"   font-family="sans-serif" font-size="11" fill="#333">Ending Balance: 117731</text>
<path d="M 83.37 76.54 L 87.19 76.54 L 91.01 76.54 L 91.01 78.83 L 87.19 79.64 L 83.37 81.38 Z" fill="#d0d0d0" fill-opacity="0.5" stroke="none"/>
<path d="M 98.65 76.24 L 102.47 76.24 L 106.28 76.24 L 110.10 76.24 L 113.92 76.24 L 117.74 76.24 L 121.56 76.24 L 125.38 76.24 L 129.20 76.24 L 133.02 76.24 L 136.84 76.24 L 140.66 76.24 L 144.48 76.24 L 148.30 76.24 L 152.12 76.24 L 155.94 76.24 L 159.76 76.24 L 165.49 76.24 L 173.12 76.24 L 180.76 76.24 L 188.40 76.24 L 196.04 76.24 L 203.68 76.24 L 211.32 76.24 L 211.32 78.30 L 203.68 79.91 L 196.04 82.48 L 188.40 82.31 L 180.76 83.26 L 173.12 85.81 L 165.49 87.53 L 159.76 82.75 L 155.94 84.83 L 152.12 87.37 L 148.30 89.61 L 144.48 92.12 L 140.66 87.45 L 136.84 90.09 L 133.02 92.36 L 129.20 87.71 L 125.38 85.64 L 121.56 90.34 L 117.74 88.30 L 113.92 88.18 L 110.10 83.41 L 106.28 78.63 L 102.47 81.33 L 98.65 76.49 Z" fill="#d0d0d0" fill-opacity="0.5" stroke="none"/>
<path d="M 262.50 67.41 L 268.61 67.41 L 274.72 67.41 L 274.72 67.83 L 268.61 70.23 L 262.50 72.34 Z" fill="#d0d0d0" fill-opacity="0.5" stroke="none"/>
<path d="M 305.28 58.12 L 311.39 58.12 L 317.50 58.12 L 323.61 58.12 L 329.72 58.12 L 335.83 58.12 L 341.94 58.12 L 351.55 58.12 L 364.64 58.12 L 377.74 58.12 L 390.83 58.12 L 390.83 60.50 L 377.74 62.35 L 364.64 64.99 L 351.55 59.98 L 341.94 60.01 L 335.83 62.43 L 329.72 64.84 L 323.61 66.24 L 317.50 65.55 L 311.39 68.13 L 305.28 63.15 Z" fill="#d0d0d0" fill-opacity="0.5" stroke="none"/>
<path d="M 457.50 48.44 L 465.83 48.44 L 474.17 48.44 L 482.50 48.44 L 490.83 48.44 L 499.17 48.44 L 499.17 48.66 L 490.83 49.67 L 482.50 51.12 L 474.17 51.75 L 465.83 51.41 L 457.50 53.48 Z" fill="#d0d0d0" fill-opacity="0.5" stroke="none"/>
<path d="M 524.17 44.57 L 532.15 44.57 L 539.79 44.57 L 539.79 47.16 L 532.15 49.89 L 524.17 49.73 Z" fill="#d0d0d0" fill-opacity="0.5" stroke="none"/>
<path d="M 577.99 41.04 L 585.62 41.04 L 593.26 41.04 L 600.90 41.04 L 608.54 41.04 L 616.18 41.04 L 627.64 41.04 L 642.92 41.04 L 658.19 41.04 L 673.47 41.04 L 688.75 41.04 L 704.03 41.04 L 723.12 41.04 L 746.04 41.04 L 768.96 41.04 L 791.88 41.04 L 809.88 41.04 L 822.98 41.04 L 836.07 41.04 L 849.17 41.04 L 862.26 41.04 L 862.26 41.46 L 849.17 43.34 L 836.07 43.52 L 822.98 45.64 L 809.88 47.33 L 791.88 42.15 L 768.96 44.26 L 746.04 46.99 L 723.12 41.85 L 704.03 44.61 L 688.75 45.55 L 673.47 47.73 L 658.19 48.55 L 642.92 49.42 L 627.64 44.30 L 616.18 47.18 L 608.54 48.71 L 600.90 50.96 L 593.26 51.38 L 585.62 46.24 L 577.99 46.24 Z" fill="#d0d0d0" fill-opacity="0.5" stroke="none"/>
<path d="M 961.20 25.00 L 971.39 25.00 L 981.57 25.00 L 998.12 25.00 L 1021.04 25.00 L 1043.96 25.00 L 1066.88 25.00 L 1084.88 25.00 L 1097.98 25.00 L 1111.07 25.00 L 1124.17 25.00 L 1137.26 25.00 L 1150.36 25.00 L 1163.45 25.00 L 1163.45 39.95 L 1150.36 41.73 L 1137.26 36.50 L 1124.17 31.23 L 1111.07 32.71 L 1097.98 34.86 L 1084.88 29.57 L 1066.88 31.81 L 1043.96 30.20 L 1021.04 31.84 L 998.12 29.86 L 981.57 32.67 L 971.39 35.64 L 961.20 30.35 Z" fill="#d0d0d0" fill-opacity="0.5" stroke="none"/>
<polyline fill="none" stroke="#111" stroke-width="1.2" points="71.91,78.94 75.73,78.09 79.55,76.54 83.37,81.38 87.19,79.64 91.01,78.83 94.83,76.24 98.65,76.49 102.47,81.33 106.28,78.63 110.10,83.41 113.92,88.18 117.74,88.30 121.56,90.34 125.38,85.64 129.20,87.71 133.02,92.36 136.84,90.09 140.66,87.45 144.48,92.12 148.30,89.61 152.12,87.37 155.94,84.83 159.76,82.75 165.49,87.53 173.12,85.81 180.76,83.26 188.40,82.31 196.04,82.48 203.68,79.91 211.32,78.30 218.96,75.72 226.60,75.42 234.24,73.05 241.88,70.61 249.51,68.50 256.39,67.41 262.50,72.34 268.61,70.23 274.72,67.83 280.83,65.21 286.94,62.56 293.06,60.80 299.17,58.12 305.28,63.15 311.39,68.13 317.50,65.55 323.61,66.24 329.72,64.84 335.83,62.43 341.94,60.01 351.55,59.98 364.64,64.99 377.74,62.35 390.83,60.50 403.93,58.08 417.02,56.67 430.12,53.98 440.83,51.28 449.17,48.44 457.50,53.48 465.83,51.41 474.17,51.75 482.50,51.12 490.83,49.67 499.17,48.66 507.50,46.81 515.83,44.57 524.17,49.73 532.15,49.89 539.79,47.16 547.43,44.42 555.07,43.97 562.71,41.48 570.35,41.04 577.99,46.24 585.62,46.24 593.26,51.38 600.90,50.96 608.54,48.71 616.18,47.18 627.64,44.30 642.92,49.42 658.19,48.55 673.47,47.73 688.75,45.55 704.03,44.61 723.12,41.85 746.04,46.99 768.96,44.26 791.88,42.15 809.88,47.33 822.98,45.64 836.07,43.52 849.17,43.34 862.26,41.46 875.36,39.96 888.45,37.74 900.09,37.32 910.28,34.53 920.46,33.40 930.65,30.84 940.83,28.01 951.02,25.00 961.20,30.35 971.39,35.64 981.57,32.67 998.12,29.86 1021.04,31.84 1043.96,30.20 1066.88,31.81 1084.88,29.57 1097.98,34.86 1111.07,32.71 1124.17,31.23 1137.26,36.50 1150.36,41.73 1163.45,39.95"/>
<text x="620.0" y="588" text-anchor="middle" font-family="sans-serif" font-size="12" fill="#333">Monthly Balance Curve</text>
<text x="15" y="287.5" transform="rotate(-90 15,287.5)" text-anchor="middle" font-family="sans-serif" font-size="12" fill="#333">Capital</text>
</svg>