<svg xmlns="http://www.w3.org/2000/svg" width="1200" height="600" viewBox="0 0 1200 600">
<desc>Equity curve with drawdown fill; x-axis is months only (no exact timestamps)</desc>
<text x="600.0" y="18.0" text-anchor="middle" font-family="sans-serif" font-size="14">Balance Curve 2011 (UTC)</text>
<rect x="70" y="25" width="1100" height="525" fill="white" stroke="#ccc" />
<line x1="70" y1="550.00" x2="1170" y2="550.00" stroke="#eee"/>
<text x="62" y="554.0" text-anchor="end" font-family="sans-serif" font-size="11" fill="#555">0.00</text>
<line x1="70" y1="445.00" x2="1170" y2="445.00" stroke="#eee"/>
<text x="62" y="449.0" text-anchor="end" font-family="sans-serif" font-size="11" fill="#555">38925</text>
<line x1="70" y1="340.00" x2="1170" y2="340.00" stroke="#eee"/>
<text x="62" y="344.0" text-anchor="end" font-family="sans-serif" font-size="11" fill="#555">77849</text>
<line x1="70" y1="235.00" x2="1170" y2="235.00" stroke="#eee"/>
<text x="62" y="239.0" text-anchor="end" font-family="sans-serif" font-size="11" fill="#555">116774</text>
<line x1="70" y1="130.00" x2="1170" y2="130.00" stroke="#eee"/>
<text x="62" y="134.0" text-anchor="end" font-family="sans-serif" font-size="11" fill="#555">155698</text>
<line x1="70" y1="25.00" x2="1170" y2="25.00" stroke="#eee"/>
<text x="62" y="29.0" text-anchor="end" font-family="sans-serif" font-size="11" fill="#555">194623</text>
<line x1="161.67" y1="25" x2="161.67" y2="550" stroke="#f2f2f2"/>
<line x1="253.33" y1="25" x2="253.33" y2="550" stroke="#f2f2f2"/>
<line x1="345.00" y1="25" x2="345.00" y2="550" stroke="#f2f2f2"/>
<line x1="436.67" y1="25" x2="436.67" y2="550" stroke="#f2f2f2"/>
<line x1="528.33" y1="25" x2="528.33" y2="550" stroke="#f2f2f2"/>
<line x1="620.00" y1="25" x2="620.00" y2="550" stroke="#f2f2f2"/>
<line x1="711.67" y1="25" x2="711.67" y2="550" stroke="#f2f2f2"/>
<line x1="803.33" y1="25" x2="803.33" y2="550" stroke="#f2f2f2"/>
<line x1="895.00" y1="25" x2="895.00" y2="550" stroke="#f2f2f2"/>
<line x1="986.67" y1="25" x2="986.67" y2="550" stroke="#f2f2f2"/>
<line x1="1078.33" y1="25" x2="1078.33" y2="550" stroke="#f2f2f2"/>
<text x="115.83" y="566.00" text-anchor="middle" font-family="sans-serif" font-size="11" fill="#444">Jan</text>
<text x="207.50" y="566.00" text-anchor="middle" font-family="sans-serif" font-size="11" fill="#444">Feb</text>
<text x="299.17" y="566.00" text-anchor="middle" font-family="sans-serif" font-size="11" fill="#444">Mar</text>
<text x="390.83" y="566.00" text-anchor="middle" font-family="sans-serif" font-size="11" fill="#444">Apr</text>
<text x="482.50" y="566.00" text-anchor="middle" font-family="sans-serif" font-size="11" fill="#444">May</text>
<text x="574.17" y="566.00" text-anchor="middle" font-family="sans-serif" font-size="11" fill="#444">Jun</text>
<text x="665.83" y="566.00" text-anchor="middle" font-family="sans-serif" font-size="11" fill="#444">Jul</text>
<text x="757.50" y="566.00" text-anchor="middle" font-family="sans-serif" font-size="11" fill="#444">Aug</text>
<text x="849.17" y="566.00" text-anchor="middle" font-family="sans-serif" font-size="11" fill="#444">Sep</text>
<text x="940.83" y="566.00" text-anchor="middle" font-family="sans-serif" font-size="11" fill="#444">Oct</text>
<text x="1032.50" y="566.00" text-anchor="middle" font-family="sans-serif" font-size="11" fill="#444">Nov</text>
<text x="1124.17" y="566.00" text-anchor="middle" font-family="sans-serif" font-size="11" fill="#444">Dec</text>
<line x1="70" y1="550" x2="1170" y2="550" stroke="#888"/>
<line x1="70" y1="25" x2="70" y2="550" stroke="#888"/>
<line x1="74.17" y1="550.00" x2="74.17" y2="556.00" stroke="#888"/>
<line x1="1154.72"   y1="550.00" x2="1154.72"   y2="556.00" stroke="#888"/>
<text x="74.17" y="582.00" text-anchor="start" font-family="sans-serif" font-size="11" fill="#333">Initial Balance: 176953</text>
<text x="1154.72"   y="582.00" text-anchor="end"   font-family="sans-serif" font-size="11" fill="#333">Ending Balance: 191245</text>
<path d="M 90.83 71.13 L 90.83 71.19 Z" fill="#d0d0d0" fill-opacity="0.5" stroke="none"/>
<path d="M 189.17 50.47 L 207.50 50.47 L 207.50 51.48 L 189.17 52.31 Z" fill="#d0d0d0" fill-opacity="0.5" stroke="none"/>
<path d="M 244.17 49.45 L 259.06 49.45 L 270.52 49.45 L 270.52 50.45 L 259.06 51.83 L 244.17 54.52 Z" fill="#d0d0d0" fill-opacity="0.5" stroke="none"/>
<path d="M 293.44 49.24 L 293.44 50.13 Z" fill="#d0d0d0" fill-opacity="0.5" stroke="none"/>
<path d="M 327.81 47.66 L 327.81 48.41 Z" fill="#d0d0d0" fill-opacity="0.5" stroke="none"/>
<path d="M 356.46 46.69 L 379.38 46.69 L 402.29 46.69 L 425.21 46.69 L 439.36 46.69 L 444.75 46.69 L 450.15 46.69 L 455.54 46.69 L 460.93 46.69 L 466.32 46.69 L 471.72 46.69 L 477.11 46.69 L 482.50 46.69 L 487.89 46.69 L 493.28 46.69 L 498.68 46.69 L 504.07 46.69 L 509.46 46.69 L 514.85 46.69 L 520.25 46.69 L 525.64 46.69 L 532.15 46.69 L 539.79 46.69 L 547.43 46.69 L 555.07 46.69 L 562.71 46.69 L 570.35 46.69 L 577.99 46.69 L 585.62 46.69 L 593.26 46.69 L 600.90 46.69 L 608.54 46.69 L 616.18 46.69 L 616.18 47.34 L 608.54 50.06 L 600.90 51.92 L 593.26 52.78 L 585.62 53.27 L 577.99 55.96 L 570.35 56.43 L 562.71 59.09 L 555.07 61.75 L 547.43 56.75 L 539.79 57.81 L 532.15 59.49 L 525.64 57.44 L 520.25 58.66 L 514.85 60.02 L 509.46 55.01 L 504.07 56.07 L 498.68 53.91 L 493.28 55.19 L 487.89 57.39 L 482.50 58.78 L 477.11 59.45 L 471.72 60.88 L 466.32 55.88 L 460.93 50.82 L 455.54 52.42 L 450.15 55.12 L 444.75 50.10 L 439.36 52.82 L 425.21 53.34 L 402.29 55.20 L 379.38 50.13 L 356.46 51.79 Z" fill="#d0d0d0" fill-opacity="0.5" stroke="none"/>
<path d="M 690.28 25.78 L 696.39 25.78 L 702.50 25.78 L 708.61 25.78 L 714.21 25.78 L 719.31 25.78 L 724.40 25.78 L 729.49 25.78 L 734.58 25.78 L 734.58 27.49 L 729.49 30.32 L 724.40 32.51 L 719.31 34.76 L 714.21 36.52 L 708.61 38.72 L 702.50 33.49 L 696.39 28.22 L 690.28 31.04 Z" fill="#d0d0d0" fill-opacity="0.5" stroke="none"/>
<path d="M 744.77 25.00 L 749.86 25.00 L 754.95 25.00 L 760.05 25.00 L 765.14 25.00 L 770.23 25.00 L 775.32 25.00 L 780.42 25.00 L 785.51 25.00 L 790.60 25.00 L 795.69 25.00 L 800.79 25.00 L 805.88 25.00 L 810.97 25.00 L 816.06 25.00 L 821.16 25.00 L 826.25 25.00 L 831.34 25.00 L 836.44 25.00 L 841.53 25.00 L 846.62 25.00 L 851.71 25.00 L 856.81 25.00 L 861.90 25.00 L 866.99 25.00 L 872.08 25.00 L 877.18 25.00 L 882.27 25.00 L 887.36 25.00 L 892.45 25.00 L 897.41 25.00 L 902.24 25.00 L 907.06 25.00 L 911.89 25.00 L 916.71 25.00 L 921.54 25.00 L 926.36 25.00 L 931.18 25.00 L 936.01 25.00 L 940.83 25.00 L 945.66 25.00 L 950.48 25.00 L 955.31 25.00 L 960.13 25.00 L 964.96 25.00 L 969.78 25.00 L 974.61 25.00 L 979.43 25.00 L 984.25 25.00 L 989.21 25.00 L 994.31 25.00 L 999.40 25.00 L 1004.49 25.00 L 1009.58 25.00 L 1014.68 25.00 L 1019.77 25.00 L 1024.86 25.00 L 1029.95 25.00 L 1035.05 25.00 L 1040.14 25.00 L 1045.23 25.00 L 1050.32 25.00 L 1055.42 25.00 L 1060.51 25.00 L 1065.60 25.00 L 1070.69 25.00 L 1075.79 25.00 L 1093.61 25.00 L 1124.17 25.00 L 1154.72 25.00 L 1154.72 34.11 L 1124.17 36.61 L 1093.61 38.10 L 1075.79 38.07 L 1070.69 38.84 L 1065.60 41.09 L 1060.51 43.56 L 1055.42 38.37 L 1050.32 36.84 L 1045.23 38.82 L 1040.14 40.75 L 1035.05 35.54 L 1029.95 35.49 L 1024.86 35.60 L 1019.77 37.61 L 1014.68 38.15 L 1009.58 40.71 L 1004.49 42.61 L 999.40 37.42 L 994.31 38.49 L 989.21 40.42 L 984.25 35.20 L 979.43 36.24 L 974.61 37.78 L 969.78 40.07 L 964.96 42.82 L 960.13 45.56 L 955.31 44.37 L 950.48 46.21 L 945.66 48.93 L 940.83 48.04 L 936.01 42.89 L 931.18 37.71 L 926.36 39.86 L 921.54 42.34 L 916.71 44.25 L 911.89 45.20 L 907.06 40.03 L 902.24 42.77 L 897.41 45.40 L 892.45 47.31 L 887.36 46.23 L 882.27 47.67 L 877.18 42.52 L 872.08 43.48 L 866.99 38.30 L 861.90 37.86 L 856.81 32.62 L 851.71 34.00 L 846.62 36.77 L 841.53 38.22 L 836.44 40.98 L 831.34 43.31 L 826.25 45.44 L 821.16 45.55 L 816.06 47.68 L 810.97 50.03 L 805.88 44.91 L 800.79 39.74 L 795.69 42.51 L 790.60 37.32 L 785.51 32.08 L 780.42 34.16 L 775.32 36.94 L 770.23 31.69 L 765.14 31.52 L 760.05 30.63 L 754.95 25.33 L 749.86 28.15 L 744.77 30.30 Z" fill="#d0d0d0" fill-opacity="0.5" stroke="none"/>
<polyline fill="none" stroke="#111" stroke-width="1.2" points="74.17,72.66 82.50,71.13 90.83,71.19 99.17,68.61 107.50,67.35 115.83,64.97 124.17,62.55 132.50,60.41 140.83,57.99 149.17,55.34 157.50,52.66 170.83,50.47 189.17,52.31 207.50,51.48 225.83,49.45 244.17,54.52 259.06,51.83 270.52,50.45 281.98,49.24 293.44,50.13 304.90,48.50 316.35,47.66 327.81,48.41 339.27,46.69 356.46,51.79 379.38,50.13 402.29,55.20 425.21,53.34 439.36,52.82 444.75,50.10 450.15,55.12 455.54,52.42 460.93,50.82 466.32,55.88 471.72,60.88 477.11,59.45 482.50,58.78 487.89,57.39 493.28,55.19 498.68,53.91 504.07,56.07 509.46,55.01 514.85,60.02 520.25,58.66 525.64,57.44 532.15,59.49 539.79,57.81 547.43,56.75 555.07,61.75 562.71,59.09 570.35,56.43 577.99,55.96 585.62,53.27 593.26,52.78 600.90,51.92 608.54,50.06 616.18,47.34 623.06,44.85 629.17,44.68 635.28,41.93 641.39,40.42 647.50,37.65 653.61,35.04 659.72,34.74 665.83,32.45 671.94,30.44 678.06,28.61 684.17,25.78 690.28,31.04 696.39,28.22 702.50,33.49 708.61,38.72 714.21,36.52 719.31,34.76 724.40,32.51 729.49,30.32 734.58,27.49 739.68,25.00 744.77,30.30 749.86,28.15 754.95,25.33 760.05,30.63 765.14,31.52 770.23,31.69 775.32,36.94 780.42,34.16 785.51,32.08 790.60,37.32 795.69,42.51 800.79,39.74 805.88,44.91 810.97,50.03 816.06,47.68 821.16,45.55 826.25,45.44 831.34,43.31 836.44,40.98 841.53,38.22 846.62,36.77 851.71,34.00 856.81,32.62 861.90,37.86 866.99,38.30 872.08,43.48 877.18,42.52 882.27,47.67 887.36,46.23 892.45,47.31 897.41,45.40 902.24,42.77 907.06,40.03 911.89,45.20 916.71,44.25 921.54,42.34 926.36,39.86 931.18,37.71 936.01,42.89 940.83,48.04 945.66,48.93 950.48,46.21 955.31,44.37 960.13,45.56 964.96,42.82 969.78,40.07 974.61,37.78 979.43,36.24 984.25,35.20 989.21,40.42 994.31,38.49 999.40,37.42 1004.49,42.61 1009.58,40.71 1014.68,38.15 1019.77,37.61 1024.86,35.60 1029.95,35.49 1035.05,35.54 1040.14,40.75 1045.23,38.82 1050.32,36.84 1055.42,38.37 1060.51,43.56 1065.60,41.09 1070.69,38.84 1075.79,38.07 1093.61,38.10 1124.17,36.61 1154.72,34.11"/>
<text x="15" y="287.5" transform="rotate(-90 15,287.5)" text-anchor="middle" font-family="sans-serif" font-size="12" fill="#333">USD</text>
</svg>