<svg xmlns="http://www.w3.org/2000/svg" width="1200" height="600" viewBox="0 0 1200 600">
<desc>Equity curve with drawdown fill; x-axis is months only (no exact timestamps)</desc>
<text x="600.0" y="18.0" text-anchor="middle" font-family="sans-serif" font-size="14">Portfolio 2009 (UTC)</text>
<rect x="70" y="25" width="1100" height="525" fill="white" stroke="#ccc" />
<line x1="70" y1="550.00" x2="1170" y2="550.00" stroke="#eee"/>
<text x="62" y="554.0" text-anchor="end" font-family="sans-serif" font-size="11" fill="#555">0.00</text>
<line x1="70" y1="445.00" x2="1170" y2="445.00" stroke="#eee"/>
<text x="62" y="449.0" text-anchor="end" font-family="sans-serif" font-size="11" fill="#555">27981</text>
<line x1="70" y1="340.00" x2="1170" y2="340.00" stroke="#eee"/>
<text x="62" y="344.0" text-anchor="end" font-family="sans-serif" font-size="11" fill="#555">55962</text>
<line x1="70" y1="235.00" x2="1170" y2="235.00" stroke="#eee"/>
<text x="62" y="239.0" text-anchor="end" font-family="sans-serif" font-size="11" fill="#555">83943</text>
<line x1="70" y1="130.00" x2="1170" y2="130.00" stroke="#eee"/>
<text x="62" y="134.0" text-anchor="end" font-family="sans-serif" font-size="11" fill="#555">111924</text>
<line x1="70" y1="25.00" x2="1170" y2="25.00" stroke="#eee"/>
<text x="62" y="29.0" text-anchor="end" font-family="sans-serif" font-size="11" fill="#555">139905</text>
<line x1="161.67" y1="25" x2="161.67" y2="550" stroke="#f2f2f2"/>
<line x1="253.33" y1="25" x2="253.33" y2="550" stroke="#f2f2f2"/>
<line x1="345.00" y1="25" x2="345.00" y2="550" stroke="#f2f2f2"/>
<line x1="436.67" y1="25" x2="436.67" y2="550" stroke="#f2f2f2"/>
<line x1="528.33" y1="25" x2="528.33" y2="550" stroke="#f2f2f2"/>
<line x1="620.00" y1="25" x2="620.00" y2="550" stroke="#f2f2f2"/>
<line x1="711.67" y1="25" x2="711.67" y2="550" stroke="#f2f2f2"/>
<line x1="803.33" y1="25" x2="803.33" y2="550" stroke="#f2f2f2"/>
<line x1="895.00" y1="25" x2="895.00" y2="550" stroke="#f2f2f2"/>
<line x1="986.67" y1="25" x2="986.67" y2="550" stroke="#f2f2f2"/>
<line x1="1078.33" y1="25" x2="1078.33" y2="550" stroke="#f2f2f2"/>
<text x="115.83" y="566.00" text-anchor="middle" font-family="sans-serif" font-size="11" fill="#444">Jan</text>
<text x="207.50" y="566.00" text-anchor="middle" font-family="sans-serif" font-size="11" fill="#444">Feb</text>
<text x="299.17" y="566.00" text-anchor="middle" font-family="sans-serif" font-size="11" fill="#444">Mar</text>
<text x="390.83" y="566.00" text-anchor="middle" font-family="sans-serif" font-size="11" fill="#444">Apr</text>
<text x="482.50" y="566.00" text-anchor="middle" font-family="sans-serif" font-size="11" fill="#444">May</text>
<text x="574.17" y="566.00" text-anchor="middle" font-family="sans-serif" font-size="11" fill="#444">Jun</text>
<text x="665.83" y="566.00" text-anchor="middle" font-family="sans-serif" font-size="11" fill="#444">Jul</text>
<text x="757.50" y="566.00" text-anchor="middle" font-family="sans-serif" font-size="11" fill="#444">Aug</text>
<text x="849.17" y="566.00" text-anchor="middle" font-family="sans-serif" font-size="11" fill="#444">Sep</text>
<text x="940.83" y="566.00" text-anchor="middle" font-family="sans-serif" font-size="11" fill="#444">Oct</text>
<text x="1032.50" y="566.00" text-anchor="middle" font-family="sans-serif" font-size="11" fill="#444">Nov</text>
<text x="1124.17" y="566.00" text-anchor="middle" font-family="sans-serif" font-size="11" fill="#444">Dec</text>
<line x1="70" y1="550" x2="1170" y2="550" stroke="#888"/>
<line x1="70" y1="25" x2="70" y2="550" stroke="#888"/>
<line x1="70.72" y1="550.00" x2="70.72" y2="556.00" stroke="#888"/>
<line x1="1164.27"   y1="550.00" x2="1164.27"   y2="556.00" stroke="#888"/>
<text x="70.72" y="582.00" text-anchor="start" font-family="sans-serif" font-size="11" fill="#333">Initial Balance: 115784</text>
<text x="1164.27"   y="582.00" text-anchor="end"   font-family="sans-serif" font-size="11" fill="#333">Ending Balance: 138536</text>
<path d="M 77.88 109.59 L 79.31 109.59 L 80.74 109.59 L 82.17 109.59 L 83.61 109.59 L 85.04 109.59 L 86.47 109.59 L 87.90 109.59 L 89.34 109.59 L 90.77 109.59 L 92.20 109.59 L 93.63 109.59 L 95.07 109.59 L 95.07 109.66 L 93.63 111.12 L 92.20 112.93 L 90.77 115.35 L 89.34 117.49 L 87.90 118.14 L 86.47 113.70 L 85.04 115.83 L 83.61 118.17 L 82.17 120.54 L 80.74 122.91 L 79.31 118.50 L 77.88 114.09 Z" fill="#d0d0d0" fill-opacity="0.5" stroke="none"/>
<path d="M 113.68 87.17 L 115.12 87.17 L 115.12 87.37 L 113.68 88.11 Z" fill="#d0d0d0" fill-opacity="0.5" stroke="none"/>
<path d="M 120.85 80.07 L 122.28 80.07 L 123.71 80.07 L 125.14 80.07 L 126.58 80.07 L 128.01 80.07 L 128.01 81.37 L 126.58 83.93 L 125.14 86.48 L 123.71 87.32 L 122.28 82.55 L 120.85 84.85 Z" fill="#d0d0d0" fill-opacity="0.5" stroke="none"/>
<path d="M 133.74 75.81 L 135.17 75.81 L 136.60 75.81 L 138.03 75.81 L 139.47 75.81 L 140.90 75.81 L 142.33 75.81 L 143.76 75.81 L 145.20 75.81 L 146.63 75.81 L 148.06 75.81 L 149.49 75.81 L 150.92 75.81 L 150.92 77.70 L 149.49 80.29 L 148.06 82.86 L 146.63 84.54 L 145.20 87.09 L 143.76 88.61 L 142.33 83.86 L 140.90 86.35 L 139.47 81.62 L 138.03 83.64 L 136.60 86.09 L 135.17 81.30 L 133.74 80.64 Z" fill="#d0d0d0" fill-opacity="0.5" stroke="none"/>
<path d="M 155.22 73.79 L 156.65 73.79 L 158.09 73.79 L 159.52 73.79 L 160.95 73.79 L 162.98 73.79 L 165.60 73.79 L 168.21 73.79 L 170.83 73.79 L 173.45 73.79 L 173.45 75.42 L 170.83 77.43 L 168.21 79.74 L 165.60 81.02 L 162.98 76.19 L 160.95 78.54 L 159.52 81.12 L 158.09 81.94 L 156.65 83.41 L 155.22 78.64 Z" fill="#d0d0d0" fill-opacity="0.5" stroke="none"/>
<path d="M 181.31 71.07 L 183.93 71.07 L 186.55 71.07 L 189.17 71.07 L 191.79 71.07 L 194.40 71.07 L 197.02 71.07 L 199.64 71.07 L 202.26 71.07 L 204.88 71.07 L 207.50 71.07 L 210.12 71.07 L 210.12 72.92 L 207.50 75.52 L 204.88 75.77 L 202.26 78.15 L 199.64 80.56 L 197.02 82.28 L 194.40 77.49 L 191.79 80.20 L 189.17 75.36 L 186.55 76.98 L 183.93 77.34 L 181.31 72.48 Z" fill="#d0d0d0" fill-opacity="0.5" stroke="none"/>
<path d="M 231.07 60.29 L 233.69 60.29 L 236.31 60.29 L 238.93 60.29 L 241.55 60.29 L 244.17 60.29 L 246.79 60.29 L 249.40 60.29 L 252.02 60.29 L 254.64 60.29 L 257.26 60.29 L 259.88 60.29 L 262.50 60.29 L 265.12 60.29 L 267.74 60.29 L 270.36 60.29 L 272.98 60.29 L 275.60 60.29 L 278.21 60.29 L 280.83 60.29 L 283.45 60.29 L 286.07 60.29 L 288.69 60.29 L 291.31 60.29 L 293.93 60.29 L 296.55 60.29 L 299.17 60.29 L 301.79 60.29 L 304.40 60.29 L 307.02 60.29 L 309.64 60.29 L 312.26 60.29 L 314.88 60.29 L 317.50 60.29 L 320.12 60.29 L 322.74 60.29 L 325.36 60.29 L 327.98 60.29 L 330.60 60.29 L 333.21 60.29 L 335.83 60.29 L 338.45 60.29 L 341.07 60.29 L 343.69 60.29 L 347.29 60.29 L 351.88 60.29 L 356.46 60.29 L 361.04 60.29 L 365.62 60.29 L 370.21 60.29 L 374.79 60.29 L 379.38 60.29 L 383.96 60.29 L 388.54 60.29 L 393.12 60.29 L 397.71 60.29 L 402.29 60.29 L 406.88 60.29 L 411.46 60.29 L 416.04 60.29 L 420.62 60.29 L 425.21 60.29 L 429.79 60.29 L 434.38 60.29 L 440.19 60.29 L 447.24 60.29 L 454.29 60.29 L 461.35 60.29 L 468.40 60.29 L 475.45 60.29 L 482.50 60.29 L 489.55 60.29 L 496.60 60.29 L 503.65 60.29 L 510.71 60.29 L 517.76 60.29 L 524.81 60.29 L 531.61 60.29 L 538.15 60.29 L 544.70 60.29 L 551.25 60.29 L 557.80 60.29 L 564.35 60.29 L 570.89 60.29 L 577.44 60.29 L 583.99 60.29 L 590.54 60.29 L 597.08 60.29 L 603.63 60.29 L 610.18 60.29 L 616.73 60.29 L 625.09 60.29 L 635.28 60.29 L 645.46 60.29 L 645.46 62.24 L 635.28 62.72 L 625.09 64.13 L 616.73 66.81 L 610.18 66.65 L 603.63 69.33 L 597.08 70.42 L 590.54 71.05 L 583.99 72.31 L 577.44 74.69 L 570.89 77.12 L 564.35 72.25 L 557.80 74.42 L 551.25 69.53 L 544.70 72.19 L 538.15 73.59 L 531.61 75.28 L 524.81 70.40 L 517.76 65.46 L 510.71 65.54 L 503.65 60.57 L 496.60 62.26 L 489.55 63.61 L 482.50 66.28 L 475.45 68.95 L 468.40 71.27 L 461.35 73.90 L 454.29 76.52 L 447.24 79.13 L 440.19 80.78 L 434.38 83.01 L 429.79 85.59 L 425.21 80.80 L 420.62 79.57 L 416.04 81.15 L 411.46 82.09 L 406.88 84.10 L 402.29 85.80 L 397.71 81.01 L 393.12 83.59 L 388.54 82.08 L 383.96 84.15 L 379.38 85.92 L 374.79 81.13 L 370.21 81.72 L 365.62 84.30 L 361.04 86.13 L 356.46 86.76 L 351.88 88.70 L 347.29 90.96 L 343.69 93.49 L 341.07 94.88 L 338.45 97.15 L 335.83 99.04 L 333.21 94.42 L 330.60 89.72 L 327.98 91.72 L 325.36 92.96 L 322.74 95.32 L 320.12 90.63 L 317.50 90.95 L 314.88 92.26 L 312.26 92.87 L 309.64 88.15 L 307.02 90.50 L 304.40 92.18 L 301.79 87.50 L 299.17 82.74 L 296.55 85.19 L 293.93 80.40 L 291.31 82.57 L 288.69 84.85 L 286.07 85.40 L 283.45 86.15 L 280.83 88.01 L 278.21 89.96 L 275.60 90.44 L 272.98 85.69 L 270.36 87.53 L 267.74 86.63 L 265.12 81.85 L 262.50 83.23 L 259.88 84.90 L 257.26 80.10 L 254.64 81.56 L 252.02 83.58 L 249.40 78.77 L 246.79 73.92 L 244.17 75.69 L 241.55 77.26 L 238.93 79.85 L 236.31 75.06 L 233.69 70.17 L 231.07 65.23 Z" fill="#d0d0d0" fill-opacity="0.5" stroke="none"/>
<path d="M 696.39 55.15 L 706.57 55.15 L 726.94 55.15 L 757.50 55.15 L 757.50 55.74 L 726.94 58.47 L 706.57 60.19 L 696.39 60.17 Z" fill="#d0d0d0" fill-opacity="0.5" stroke="none"/>
<path d="M 809.06 54.70 L 820.52 54.70 L 831.98 54.70 L 843.44 54.70 L 843.44 54.91 L 831.98 55.46 L 820.52 58.18 L 809.06 59.71 Z" fill="#d0d0d0" fill-opacity="0.5" stroke="none"/>
<path d="M 877.81 49.76 L 889.27 49.76 L 901.55 49.76 L 914.64 49.76 L 914.64 51.32 L 901.55 53.67 L 889.27 53.11 L 877.81 54.80 Z" fill="#d0d0d0" fill-opacity="0.5" stroke="none"/>
<path d="M 1055.42 33.38 L 1070.69 33.38 L 1084.06 33.38 L 1095.52 33.38 L 1095.52 33.41 L 1084.06 34.87 L 1070.69 37.50 L 1055.42 38.58 Z" fill="#d0d0d0" fill-opacity="0.5" stroke="none"/>
<path d="M 1152.81 25.00 L 1164.27 25.00 L 1164.27 30.14 L 1152.81 30.28 Z" fill="#d0d0d0" fill-opacity="0.5" stroke="none"/>
<polyline fill="none" stroke="#111" stroke-width="1.2" points="70.72,115.51 72.15,115.28 73.58,114.26 75.01,112.02 76.45,109.59 77.88,114.09 79.31,118.50 80.74,122.91 82.17,120.54 83.61,118.17 85.04,115.83 86.47,113.70 87.90,118.14 89.34,117.49 90.77,115.35 92.20,112.93 93.63,111.12 95.07,109.66 96.50,107.09 97.93,106.98 99.36,104.51 100.79,102.04 102.23,99.91 103.66,98.32 105.09,96.37 106.52,94.10 107.96,91.76 109.39,89.61 110.82,87.40 112.25,87.17 113.68,88.11 115.12,87.37 116.55,84.98 117.98,82.65 119.41,80.07 120.85,84.85 122.28,82.55 123.71,87.32 125.14,86.48 126.58,83.93 128.01,81.37 129.44,79.70 130.87,77.34 132.30,75.81 133.74,80.64 135.17,81.30 136.60,86.09 138.03,83.64 139.47,81.62 140.90,86.35 142.33,83.86 143.76,88.61 145.20,87.09 146.63,84.54 148.06,82.86 149.49,80.29 150.92,77.70 152.36,75.11 153.79,73.79 155.22,78.64 156.65,83.41 158.09,81.94 159.52,81.12 160.95,78.54 162.98,76.19 165.60,81.02 168.21,79.74 170.83,77.43 173.45,75.42 176.07,73.31 178.69,71.07 181.31,72.48 183.93,77.34 186.55,76.98 189.17,75.36 191.79,80.20 194.40,77.49 197.02,82.28 199.64,80.56 202.26,78.15 204.88,75.77 207.50,75.52 210.12,72.92 212.74,70.31 215.36,69.84 217.98,67.41 220.60,66.74 223.21,65.18 225.83,63.07 228.45,60.29 231.07,65.23 233.69,70.17 236.31,75.06 238.93,79.85 241.55,77.26 244.17,75.69 246.79,73.92 249.40,78.77 252.02,83.58 254.64,81.56 257.26,80.10 259.88,84.90 262.50,83.23 265.12,81.85 267.74,86.63 270.36,87.53 272.98,85.69 275.60,90.44 278.21,89.96 280.83,88.01 283.45,86.15 286.07,85.40 288.69,84.85 291.31,82.57 293.93,80.40 296.55,85.19 299.17,82.74 301.79,87.50 304.40,92.18 307.02,90.50 309.64,88.15 312.26,92.87 314.88,92.26 317.50,90.95 320.12,90.63 322.74,95.32 325.36,92.96 327.98,91.72 330.60,89.72 333.21,94.42 335.83,99.04 338.45,97.15 341.07,94.88 343.69,93.49 347.29,90.96 351.88,88.70 356.46,86.76 361.04,86.13 365.62,84.30 370.21,81.72 374.79,81.13 379.38,85.92 383.96,84.15 388.54,82.08 393.12,83.59 397.71,81.01 402.29,85.80 406.88,84.10 411.46,82.09 416.04,81.15 420.62,79.57 425.21,80.80 429.79,85.59 434.38,83.01 440.19,80.78 447.24,79.13 454.29,76.52 461.35,73.90 468.40,71.27 475.45,68.95 482.50,66.28 489.55,63.61 496.60,62.26 503.65,60.57 510.71,65.54 517.76,65.46 524.81,70.40 531.61,75.28 538.15,73.59 544.70,72.19 551.25,69.53 557.80,74.42 564.35,72.25 570.89,77.12 577.44,74.69 583.99,72.31 590.54,71.05 597.08,70.42 603.63,69.33 610.18,66.65 616.73,66.81 625.09,64.13 635.28,62.72 645.46,62.24 655.65,59.55 665.83,57.96 676.02,55.49 686.20,55.15 696.39,60.17 706.57,60.19 726.94,58.47 757.50,55.74 788.06,54.70 809.06,59.71 820.52,58.18 831.98,55.46 843.44,54.91 854.90,52.63 866.35,49.76 877.81,54.80 889.27,53.11 901.55,53.67 914.64,51.32 927.74,49.03 940.83,47.49 953.93,46.16 967.02,43.95 980.12,41.76 994.31,40.22 1009.58,37.38 1024.86,35.42 1040.14,33.38 1055.42,38.58 1070.69,37.50 1084.06,34.87 1095.52,33.41 1106.98,31.15 1118.44,29.09 1129.90,26.48 1141.35,25.00 1152.81,30.28 1164.27,30.14"/>
<text x="620.0" y="588" text-anchor="middle" font-family="sans-serif" font-size="12" fill="#333">Monthly Balance Curve</text>
<text x="15" y="287.5" transform="rotate(-90 15,287.5)" text-anchor="middle" font-family="sans-serif" font-size="12" fill="#333">Capital</text>
</svg>