<svg xmlns="http://www.w3.org/2000/svg" width="1200" height="600" viewBox="0 0 1200 600">
<desc>Equity curve with drawdown fill; x-axis is months only (no exact timestamps)</desc>
<text x="600.0" y="18.0" text-anchor="middle" font-family="sans-serif" font-size="14">Balance Curve 2011 (UTC)</text>
<rect x="70" y="25" width="1100" height="525" fill="white" stroke="#ccc" />
<line x1="70" y1="550.00" x2="1170" y2="550.00" stroke="#eee"/>
<text x="62" y="554.0" text-anchor="end" font-family="sans-serif" font-size="11" fill="#555">0.00</text>
<line x1="70" y1="445.00" x2="1170" y2="445.00" stroke="#eee"/>
<text x="62" y="449.0" text-anchor="end" font-family="sans-serif" font-size="11" fill="#555">37358</text>
<line x1="70" y1="340.00" x2="1170" y2="340.00" stroke="#eee"/>
<text x="62" y="344.0" text-anchor="end" font-family="sans-serif" font-size="11" fill="#555">74716</text>
<line x1="70" y1="235.00" x2="1170" y2="235.00" stroke="#eee"/>
<text x="62" y="239.0" text-anchor="end" font-family="sans-serif" font-size="11" fill="#555">112073</text>
<line x1="70" y1="130.00" x2="1170" y2="130.00" stroke="#eee"/>
<text x="62" y="134.0" text-anchor="end" font-family="sans-serif" font-size="11" fill="#555">149431</text>
<line x1="70" y1="25.00" x2="1170" y2="25.00" stroke="#eee"/>
<text x="62" y="29.0" text-anchor="end" font-family="sans-serif" font-size="11" fill="#555">186789</text>
<line x1="161.67" y1="25" x2="161.67" y2="550" stroke="#f2f2f2"/>
<line x1="253.33" y1="25" x2="253.33" y2="550" stroke="#f2f2f2"/>
<line x1="345.00" y1="25" x2="345.00" y2="550" stroke="#f2f2f2"/>
<line x1="436.67" y1="25" x2="436.67" y2="550" stroke="#f2f2f2"/>
<line x1="528.33" y1="25" x2="528.33" y2="550" stroke="#f2f2f2"/>
<line x1="620.00" y1="25" x2="620.00" y2="550" stroke="#f2f2f2"/>
<line x1="711.67" y1="25" x2="711.67" y2="550" stroke="#f2f2f2"/>
<line x1="803.33" y1="25" x2="803.33" y2="550" stroke="#f2f2f2"/>
<line x1="895.00" y1="25" x2="895.00" y2="550" stroke="#f2f2f2"/>
<line x1="986.67" y1="25" x2="986.67" y2="550" stroke="#f2f2f2"/>
<line x1="1078.33" y1="25" x2="1078.33" y2="550" stroke="#f2f2f2"/>
<text x="115.83" y="566.00" text-anchor="middle" font-family="sans-serif" font-size="11" fill="#444">Jan</text>
<text x="207.50" y="566.00" text-anchor="middle" font-family="sans-serif" font-size="11" fill="#444">Feb</text>
<text x="299.17" y="566.00" text-anchor="middle" font-family="sans-serif" font-size="11" fill="#444">Mar</text>
<text x="390.83" y="566.00" text-anchor="middle" font-family="sans-serif" font-size="11" fill="#444">Apr</text>
<text x="482.50" y="566.00" text-anchor="middle" font-family="sans-serif" font-size="11" fill="#444">May</text>
<text x="574.17" y="566.00" text-anchor="middle" font-family="sans-serif" font-size="11" fill="#444">Jun</text>
<text x="665.83" y="566.00" text-anchor="middle" font-family="sans-serif" font-size="11" fill="#444">Jul</text>
<text x="757.50" y="566.00" text-anchor="middle" font-family="sans-serif" font-size="11" fill="#444">Aug</text>
<text x="849.17" y="566.00" text-anchor="middle" font-family="sans-serif" font-size="11" fill="#444">Sep</text>
<text x="940.83" y="566.00" text-anchor="middle" font-family="sans-serif" font-size="11" fill="#444">Oct</text>
<text x="1032.50" y="566.00" text-anchor="middle" font-family="sans-serif" font-size="11" fill="#444">Nov</text>
<text x="1124.17" y="566.00" text-anchor="middle" font-family="sans-serif" font-size="11" fill="#444">Dec</text>
<line x1="70" y1="550" x2="1170" y2="550" stroke="#888"/>
<line x1="70" y1="25" x2="70" y2="550" stroke="#888"/>
<line x1="74.17" y1="550.00" x2="74.17" y2="556.00" stroke="#888"/>
<line x1="1154.72"   y1="550.00" x2="1154.72"   y2="556.00" stroke="#888"/>
<text x="74.17" y="582.00" text-anchor="start" font-family="sans-serif" font-size="11" fill="#333">Initial Balance: 170575</text>
<text x="1154.72"   y="582.00" text-anchor="end"   font-family="sans-serif" font-size="11" fill="#333">Ending Balance: 182807</text>
<path d="M 90.83 69.06 L 90.83 69.15 Z" fill="#d0d0d0" fill-opacity="0.5" stroke="none"/>
<path d="M 189.17 48.63 L 207.50 48.63 L 207.50 49.70 L 189.17 50.51 Z" fill="#d0d0d0" fill-opacity="0.5" stroke="none"/>
<path d="M 244.17 47.69 L 259.06 47.69 L 270.52 47.69 L 270.52 48.79 L 259.06 50.15 L 244.17 52.82 Z" fill="#d0d0d0" fill-opacity="0.5" stroke="none"/>
<path d="M 293.44 47.61 L 293.44 48.54 Z" fill="#d0d0d0" fill-opacity="0.5" stroke="none"/>
<path d="M 327.81 46.11 L 327.81 46.90 Z" fill="#d0d0d0" fill-opacity="0.5" stroke="none"/>
<path d="M 356.46 45.20 L 379.38 45.20 L 402.29 45.20 L 425.21 45.20 L 439.36 45.20 L 444.75 45.20 L 450.15 45.20 L 455.54 45.20 L 460.93 45.20 L 466.32 45.20 L 471.72 45.20 L 477.11 45.20 L 482.50 45.20 L 487.89 45.20 L 493.28 45.20 L 498.68 45.20 L 504.07 45.20 L 509.46 45.20 L 514.85 45.20 L 520.25 45.20 L 525.64 45.20 L 532.15 45.20 L 539.79 45.20 L 547.43 45.20 L 555.07 45.20 L 562.71 45.20 L 570.35 45.20 L 577.99 45.20 L 585.62 45.20 L 593.26 45.20 L 600.90 45.20 L 608.54 45.20 L 616.18 45.20 L 616.18 46.77 L 608.54 49.48 L 600.90 51.31 L 593.26 52.13 L 585.62 52.60 L 577.99 55.27 L 570.35 55.71 L 562.71 58.35 L 555.07 60.98 L 547.43 55.95 L 539.79 56.99 L 532.15 58.63 L 525.64 56.55 L 520.25 57.74 L 514.85 59.09 L 509.46 54.04 L 504.07 55.07 L 498.68 52.88 L 493.28 54.14 L 487.89 56.31 L 482.50 57.68 L 477.11 58.32 L 471.72 59.74 L 466.32 54.69 L 460.93 49.59 L 455.54 51.17 L 450.15 53.85 L 444.75 48.79 L 439.36 51.49 L 425.21 51.98 L 402.29 53.82 L 379.38 48.71 L 356.46 50.35 Z" fill="#d0d0d0" fill-opacity="0.5" stroke="none"/>
<path d="M 690.28 25.50 L 696.39 25.50 L 702.50 25.50 L 708.61 25.50 L 714.21 25.50 L 719.31 25.50 L 724.40 25.50 L 729.49 25.50 L 734.58 25.50 L 734.58 27.48 L 729.49 30.27 L 724.40 32.43 L 719.31 34.65 L 714.21 36.39 L 708.61 38.57 L 702.50 33.31 L 696.39 28.00 L 690.28 30.80 Z" fill="#d0d0d0" fill-opacity="0.5" stroke="none"/>
<path d="M 744.77 25.00 L 749.86 25.00 L 754.95 25.00 L 760.05 25.00 L 765.14 25.00 L 770.23 25.00 L 775.32 25.00 L 780.42 25.00 L 785.51 25.00 L 790.60 25.00 L 795.69 25.00 L 800.79 25.00 L 805.88 25.00 L 810.97 25.00 L 816.06 25.00 L 821.16 25.00 L 826.25 25.00 L 831.34 25.00 L 836.44 25.00 L 841.53 25.00 L 846.62 25.00 L 851.71 25.00 L 856.81 25.00 L 861.90 25.00 L 866.99 25.00 L 872.08 25.00 L 877.18 25.00 L 882.27 25.00 L 887.36 25.00 L 892.45 25.00 L 897.41 25.00 L 902.24 25.00 L 907.06 25.00 L 911.89 25.00 L 916.71 25.00 L 921.54 25.00 L 926.36 25.00 L 931.18 25.00 L 936.01 25.00 L 940.83 25.00 L 945.66 25.00 L 950.48 25.00 L 955.31 25.00 L 960.13 25.00 L 964.96 25.00 L 969.78 25.00 L 974.61 25.00 L 979.43 25.00 L 984.25 25.00 L 989.21 25.00 L 994.31 25.00 L 999.40 25.00 L 1004.49 25.00 L 1009.58 25.00 L 1014.68 25.00 L 1019.77 25.00 L 1024.86 25.00 L 1029.95 25.00 L 1035.05 25.00 L 1040.14 25.00 L 1045.23 25.00 L 1050.32 25.00 L 1055.42 25.00 L 1060.51 25.00 L 1065.60 25.00 L 1070.69 25.00 L 1075.79 25.00 L 1093.61 25.00 L 1124.17 25.00 L 1154.72 25.00 L 1154.72 36.19 L 1124.17 38.65 L 1093.61 40.10 L 1075.79 40.04 L 1070.69 40.77 L 1065.60 42.99 L 1060.51 45.43 L 1055.42 40.23 L 1050.32 38.67 L 1045.23 40.61 L 1040.14 42.51 L 1035.05 37.28 L 1029.95 37.20 L 1024.86 37.29 L 1019.77 39.26 L 1014.68 39.78 L 1009.58 42.31 L 1004.49 44.17 L 999.40 38.95 L 994.31 40.00 L 989.21 41.88 L 984.25 36.65 L 979.43 37.66 L 974.61 39.18 L 969.78 41.43 L 964.96 44.15 L 960.13 46.85 L 955.31 45.63 L 950.48 47.44 L 945.66 50.12 L 940.83 49.21 L 936.01 44.05 L 931.18 38.83 L 926.36 40.95 L 921.54 43.40 L 916.71 45.27 L 911.89 46.20 L 907.06 41.01 L 902.24 43.72 L 897.41 46.32 L 892.45 48.20 L 887.36 47.09 L 882.27 48.50 L 877.18 43.32 L 872.08 44.26 L 866.99 39.05 L 861.90 38.58 L 856.81 33.31 L 851.71 34.66 L 846.62 37.40 L 841.53 38.82 L 836.44 41.54 L 831.34 43.84 L 826.25 45.94 L 821.16 46.02 L 816.06 48.11 L 810.97 50.45 L 805.88 45.30 L 800.79 40.10 L 795.69 42.84 L 790.60 37.62 L 785.51 32.35 L 780.42 34.39 L 775.32 37.14 L 770.23 31.87 L 765.14 31.67 L 760.05 30.74 L 754.95 25.41 L 749.86 28.20 L 744.77 30.34 Z" fill="#d0d0d0" fill-opacity="0.5" stroke="none"/>
<polyline fill="none" stroke="#111" stroke-width="1.2" points="74.17,70.57 82.50,69.06 90.83,69.15 99.17,66.59 107.50,65.36 115.83,63.01 124.17,60.60 132.50,58.48 140.83,56.08 149.17,53.45 157.50,50.79 170.83,48.63 189.17,50.51 207.50,49.70 225.83,47.69 244.17,52.82 259.06,50.15 270.52,48.79 281.98,47.61 293.44,48.54 304.90,46.93 316.35,46.11 327.81,46.90 339.27,45.20 356.46,50.35 379.38,48.71 402.29,53.82 425.21,51.98 439.36,51.49 444.75,48.79 450.15,53.85 455.54,51.17 460.93,49.59 466.32,54.69 471.72,59.74 477.11,58.32 482.50,57.68 487.89,56.31 493.28,54.14 498.68,52.88 504.07,55.07 509.46,54.04 514.85,59.09 520.25,57.74 525.64,56.55 532.15,58.63 539.79,56.99 547.43,55.95 555.07,60.98 562.71,58.35 570.35,55.71 577.99,55.27 585.62,52.60 593.26,52.13 600.90,51.31 608.54,49.48 616.18,46.77 623.06,44.31 629.17,44.17 635.28,41.45 641.39,39.96 647.50,37.22 653.61,34.64 659.72,34.37 665.83,32.11 671.94,30.12 678.06,28.30 684.17,25.50 690.28,30.80 696.39,28.00 702.50,33.31 708.61,38.57 714.21,36.39 719.31,34.65 724.40,32.43 729.49,30.27 734.58,27.48 739.68,25.00 744.77,30.34 749.86,28.20 754.95,25.41 760.05,30.74 765.14,31.67 770.23,31.87 775.32,37.14 780.42,34.39 785.51,32.35 790.60,37.62 795.69,42.84 800.79,40.10 805.88,45.30 810.97,50.45 816.06,48.11 821.16,46.02 826.25,45.94 831.34,43.84 836.44,41.54 841.53,38.82 846.62,37.40 851.71,34.66 856.81,33.31 861.90,38.58 866.99,39.05 872.08,44.26 877.18,43.32 882.27,48.50 887.36,47.09 892.45,48.20 897.41,46.32 902.24,43.72 907.06,41.01 911.89,46.20 916.71,45.27 921.54,43.40 926.36,40.95 931.18,38.83 936.01,44.05 940.83,49.21 945.66,50.12 950.48,47.44 955.31,45.63 960.13,46.85 964.96,44.15 969.78,41.43 974.61,39.18 979.43,37.66 984.25,36.65 989.21,41.88 994.31,40.00 999.40,38.95 1004.49,44.17 1009.58,42.31 1014.68,39.78 1019.77,39.26 1024.86,37.29 1029.95,37.20 1035.05,37.28 1040.14,42.51 1045.23,40.61 1050.32,38.67 1055.42,40.23 1060.51,45.43 1065.60,42.99 1070.69,40.77 1075.79,40.04 1093.61,40.10 1124.17,38.65 1154.72,36.19"/>
<text x="15" y="287.5" transform="rotate(-90 15,287.5)" text-anchor="middle" font-family="sans-serif" font-size="12" fill="#333">USD</text>
</svg>