<svg xmlns="http://www.w3.org/2000/svg" width="1200" height="600" viewBox="0 0 1200 600">
<desc>Equity curve with drawdown fill; x-axis is months only (no exact timestamps)</desc>
<text x="600.0" y="18.0" text-anchor="middle" font-family="sans-serif" font-size="14">Balance Curve 2009 (UTC)</text>
<rect x="70" y="25" width="1100" height="525" fill="white" stroke="#ccc" />
<line x1="70" y1="550.00" x2="1170" y2="550.00" stroke="#eee"/>
<text x="62" y="554.0" text-anchor="end" font-family="sans-serif" font-size="11" fill="#555">0.00</text>
<line x1="70" y1="445.00" x2="1170" y2="445.00" stroke="#eee"/>
<text x="62" y="449.0" text-anchor="end" font-family="sans-serif" font-size="11" fill="#555">39992</text>
<line x1="70" y1="340.00" x2="1170" y2="340.00" stroke="#eee"/>
<text x="62" y="344.0" text-anchor="end" font-family="sans-serif" font-size="11" fill="#555">79984</text>
<line x1="70" y1="235.00" x2="1170" y2="235.00" stroke="#eee"/>
<text x="62" y="239.0" text-anchor="end" font-family="sans-serif" font-size="11" fill="#555">119976</text>
<line x1="70" y1="130.00" x2="1170" y2="130.00" stroke="#eee"/>
<text x="62" y="134.0" text-anchor="end" font-family="sans-serif" font-size="11" fill="#555">159968</text>
<line x1="70" y1="25.00" x2="1170" y2="25.00" stroke="#eee"/>
<text x="62" y="29.0" text-anchor="end" font-family="sans-serif" font-size="11" fill="#555">199959</text>
<line x1="161.67" y1="25" x2="161.67" y2="550" stroke="#f2f2f2"/>
<line x1="253.33" y1="25" x2="253.33" y2="550" stroke="#f2f2f2"/>
<line x1="345.00" y1="25" x2="345.00" y2="550" stroke="#f2f2f2"/>
<line x1="436.67" y1="25" x2="436.67" y2="550" stroke="#f2f2f2"/>
<line x1="528.33" y1="25" x2="528.33" y2="550" stroke="#f2f2f2"/>
<line x1="620.00" y1="25" x2="620.00" y2="550" stroke="#f2f2f2"/>
<line x1="711.67" y1="25" x2="711.67" y2="550" stroke="#f2f2f2"/>
<line x1="803.33" y1="25" x2="803.33" y2="550" stroke="#f2f2f2"/>
<line x1="895.00" y1="25" x2="895.00" y2="550" stroke="#f2f2f2"/>
<line x1="986.67" y1="25" x2="986.67" y2="550" stroke="#f2f2f2"/>
<line x1="1078.33" y1="25" x2="1078.33" y2="550" stroke="#f2f2f2"/>
<text x="115.83" y="566.00" text-anchor="middle" font-family="sans-serif" font-size="11" fill="#444">Jan</text>
<text x="207.50" y="566.00" text-anchor="middle" font-family="sans-serif" font-size="11" fill="#444">Feb</text>
<text x="299.17" y="566.00" text-anchor="middle" font-family="sans-serif" font-size="11" fill="#444">Mar</text>
<text x="390.83" y="566.00" text-anchor="middle" font-family="sans-serif" font-size="11" fill="#444">Apr</text>
<text x="482.50" y="566.00" text-anchor="middle" font-family="sans-serif" font-size="11" fill="#444">May</text>
<text x="574.17" y="566.00" text-anchor="middle" font-family="sans-serif" font-size="11" fill="#444">Jun</text>
<text x="665.83" y="566.00" text-anchor="middle" font-family="sans-serif" font-size="11" fill="#444">Jul</text>
<text x="757.50" y="566.00" text-anchor="middle" font-family="sans-serif" font-size="11" fill="#444">Aug</text>
<text x="849.17" y="566.00" text-anchor="middle" font-family="sans-serif" font-size="11" fill="#444">Sep</text>
<text x="940.83" y="566.00" text-anchor="middle" font-family="sans-serif" font-size="11" fill="#444">Oct</text>
<text x="1032.50" y="566.00" text-anchor="middle" font-family="sans-serif" font-size="11" fill="#444">Nov</text>
<text x="1124.17" y="566.00" text-anchor="middle" font-family="sans-serif" font-size="11" fill="#444">Dec</text>
<line x1="70" y1="550" x2="1170" y2="550" stroke="#888"/>
<line x1="70" y1="25" x2="70" y2="550" stroke="#888"/>
<line x1="70.72" y1="550.00" x2="70.72" y2="556.00" stroke="#888"/>
<line x1="1164.27"   y1="550.00" x2="1164.27"   y2="556.00" stroke="#888"/>
<text x="70.72" y="582.00" text-anchor="start" font-family="sans-serif" font-size="11" fill="#333">Initial Balance: 154333</text>
<text x="1164.27"   y="582.00" text-anchor="end"   font-family="sans-serif" font-size="11" fill="#333">Ending Balance: 197051</text>
<path d="M 77.88 136.74 L 79.31 136.74 L 80.74 136.74 L 82.17 136.74 L 83.61 136.74 L 85.04 136.74 L 86.47 136.74 L 87.90 136.74 L 89.34 136.74 L 90.77 136.74 L 92.20 136.74 L 93.63 136.74 L 95.07 136.74 L 95.07 137.40 L 93.63 139.38 L 92.20 141.85 L 90.77 145.15 L 89.34 148.06 L 87.90 148.94 L 86.47 142.74 L 85.04 145.65 L 83.61 148.86 L 82.17 152.07 L 80.74 155.29 L 79.31 149.19 L 77.88 143.03 Z" fill="#d0d0d0" fill-opacity="0.5" stroke="none"/>
<path d="M 113.68 106.20 L 115.12 106.20 L 115.12 106.56 L 113.68 107.57 Z" fill="#d0d0d0" fill-opacity="0.5" stroke="none"/>
<path d="M 120.85 96.31 L 122.28 96.31 L 123.71 96.31 L 125.14 96.31 L 126.58 96.31 L 128.01 96.31 L 128.01 98.45 L 126.58 102.03 L 125.14 105.62 L 123.71 106.78 L 122.28 99.95 L 120.85 103.18 Z" fill="#d0d0d0" fill-opacity="0.5" stroke="none"/>
<path d="M 133.74 90.65 L 135.17 90.65 L 136.60 90.65 L 138.03 90.65 L 139.47 90.65 L 140.90 90.65 L 142.33 90.65 L 143.76 90.65 L 145.20 90.65 L 146.63 90.65 L 148.06 90.65 L 149.49 90.65 L 150.92 90.65 L 150.92 93.94 L 149.49 97.60 L 148.06 101.20 L 146.63 103.57 L 145.20 107.16 L 143.76 109.27 L 142.33 102.47 L 140.90 105.95 L 139.47 99.15 L 138.03 101.98 L 136.60 105.43 L 135.17 98.58 L 133.74 97.60 Z" fill="#d0d0d0" fill-opacity="0.5" stroke="none"/>
<path d="M 155.22 88.46 L 156.65 88.46 L 158.09 88.46 L 159.52 88.46 L 160.95 88.46 L 162.98 88.46 L 165.60 88.46 L 168.21 88.46 L 170.83 88.46 L 173.45 88.46 L 173.45 91.24 L 170.83 94.07 L 168.21 97.30 L 165.60 99.11 L 162.98 92.17 L 160.95 95.48 L 159.52 99.08 L 158.09 100.21 L 156.65 102.29 L 155.22 95.45 Z" fill="#d0d0d0" fill-opacity="0.5" stroke="none"/>
<path d="M 181.31 85.11 L 183.93 85.11 L 186.55 85.11 L 189.17 85.11 L 191.79 85.11 L 194.40 85.11 L 197.02 85.11 L 199.64 85.11 L 202.26 85.11 L 204.88 85.11 L 207.50 85.11 L 210.12 85.11 L 210.12 88.27 L 207.50 91.93 L 204.88 92.23 L 202.26 95.57 L 199.64 98.96 L 197.02 101.40 L 194.40 94.54 L 191.79 98.38 L 189.17 91.43 L 186.55 93.70 L 183.93 94.18 L 181.31 87.17 Z" fill="#d0d0d0" fill-opacity="0.5" stroke="none"/>
<path d="M 231.07 70.40 L 233.69 70.40 L 236.31 70.40 L 238.93 70.40 L 241.55 70.40 L 244.17 70.40 L 246.79 70.40 L 249.40 70.40 L 252.02 70.40 L 254.64 70.40 L 257.26 70.40 L 259.88 70.40 L 262.50 70.40 L 265.12 70.40 L 267.74 70.40 L 270.36 70.40 L 272.98 70.40 L 275.60 70.40 L 278.21 70.40 L 280.83 70.40 L 283.45 70.40 L 286.07 70.40 L 288.69 70.40 L 291.31 70.40 L 293.93 70.40 L 296.55 70.40 L 299.17 70.40 L 301.79 70.40 L 304.40 70.40 L 307.02 70.40 L 309.64 70.40 L 312.26 70.40 L 314.88 70.40 L 317.50 70.40 L 320.12 70.40 L 322.74 70.40 L 325.36 70.40 L 327.98 70.40 L 330.60 70.40 L 333.21 70.40 L 335.83 70.40 L 338.45 70.40 L 341.07 70.40 L 343.69 70.40 L 347.29 70.40 L 351.88 70.40 L 356.46 70.40 L 361.04 70.40 L 365.62 70.40 L 370.21 70.40 L 374.79 70.40 L 379.38 70.40 L 383.96 70.40 L 388.54 70.40 L 393.12 70.40 L 397.71 70.40 L 402.29 70.40 L 406.88 70.40 L 411.46 70.40 L 416.04 70.40 L 420.62 70.40 L 425.21 70.40 L 429.79 70.40 L 434.38 70.40 L 440.19 70.40 L 447.24 70.40 L 454.29 70.40 L 461.35 70.40 L 468.40 70.40 L 475.45 70.40 L 482.50 70.40 L 489.55 70.40 L 496.60 70.40 L 503.65 70.40 L 510.71 70.40 L 517.76 70.40 L 524.81 70.40 L 531.61 70.40 L 538.15 70.40 L 544.70 70.40 L 551.25 70.40 L 557.80 70.40 L 564.35 70.40 L 570.89 70.40 L 577.44 70.40 L 583.99 70.40 L 590.54 70.40 L 597.08 70.40 L 603.63 70.40 L 610.18 70.40 L 616.73 70.40 L 625.09 70.40 L 635.28 70.40 L 645.46 70.40 L 655.65 70.40 L 665.83 70.40 L 665.83 71.42 L 655.65 73.66 L 645.46 77.48 L 635.28 78.12 L 625.09 80.08 L 616.73 83.88 L 610.18 83.62 L 603.63 87.39 L 597.08 88.90 L 590.54 89.75 L 583.99 91.51 L 577.44 94.85 L 570.89 98.24 L 564.35 91.28 L 557.80 94.32 L 551.25 87.30 L 544.70 91.05 L 538.15 93.00 L 531.61 95.38 L 524.81 88.38 L 517.76 81.29 L 510.71 81.37 L 503.65 74.18 L 496.60 76.56 L 489.55 78.44 L 482.50 82.23 L 475.45 85.99 L 468.40 89.30 L 461.35 93.00 L 454.29 96.68 L 447.24 100.33 L 440.19 102.62 L 434.38 105.73 L 429.79 109.31 L 425.21 102.50 L 420.62 100.73 L 416.04 102.92 L 411.46 104.20 L 406.88 106.99 L 402.29 109.37 L 397.71 102.56 L 393.12 106.16 L 388.54 103.99 L 383.96 106.86 L 379.38 109.31 L 374.79 102.49 L 370.21 103.30 L 365.62 106.91 L 361.04 109.46 L 356.46 110.30 L 351.88 113.02 L 347.29 116.15 L 343.69 119.66 L 341.07 121.56 L 338.45 124.67 L 335.83 127.32 L 333.21 120.81 L 330.60 114.16 L 327.98 116.92 L 325.36 118.61 L 322.74 121.88 L 320.12 115.25 L 317.50 115.65 L 314.88 117.44 L 312.26 118.27 L 309.64 111.60 L 307.02 114.86 L 304.40 117.23 L 301.79 110.58 L 299.17 103.79 L 296.55 107.24 L 293.93 100.41 L 291.31 103.43 L 288.69 106.61 L 286.07 107.32 L 283.45 108.34 L 280.83 110.91 L 278.21 113.62 L 275.60 114.26 L 272.98 107.52 L 270.36 110.07 L 267.74 108.77 L 265.12 101.95 L 262.50 103.86 L 259.88 106.19 L 257.26 99.34 L 254.64 101.36 L 252.02 104.17 L 249.40 97.30 L 246.79 90.33 L 244.17 92.81 L 241.55 95.03 L 238.93 98.67 L 236.31 91.76 L 233.69 84.71 L 231.07 77.57 Z" fill="#d0d0d0" fill-opacity="0.5" stroke="none"/>
<path d="M 696.39 67.48 L 706.57 67.48 L 726.94 67.48 L 757.50 67.48 L 757.50 68.51 L 726.94 72.39 L 706.57 74.81 L 696.39 74.76 Z" fill="#d0d0d0" fill-opacity="0.5" stroke="none"/>
<path d="M 809.06 67.04 L 820.52 67.04 L 831.98 67.04 L 843.44 67.04 L 843.44 67.54 L 831.98 68.30 L 820.52 72.17 L 809.06 74.32 Z" fill="#d0d0d0" fill-opacity="0.5" stroke="none"/>
<path d="M 877.81 60.17 L 889.27 60.17 L 901.55 60.17 L 914.64 60.17 L 914.64 62.60 L 901.55 65.95 L 889.27 65.10 L 877.81 67.49 Z" fill="#d0d0d0" fill-opacity="0.5" stroke="none"/>
<path d="M 1055.42 36.93 L 1070.69 36.93 L 1084.06 36.93 L 1095.52 36.93 L 1095.52 37.17 L 1084.06 39.25 L 1070.69 43.04 L 1055.42 44.58 Z" fill="#d0d0d0" fill-opacity="0.5" stroke="none"/>
<path d="M 1152.81 25.00 L 1164.27 25.00 L 1164.27 32.64 L 1152.81 32.80 Z" fill="#d0d0d0" fill-opacity="0.5" stroke="none"/>
<polyline fill="none" stroke="#111" stroke-width="1.2" points="70.72,144.79 72.15,144.51 73.58,143.14 75.01,140.08 76.45,136.74 77.88,143.03 79.31,149.19 80.74,155.29 82.17,152.07 83.61,148.86 85.04,145.65 86.47,142.74 87.90,148.94 89.34,148.06 90.77,145.15 92.20,141.85 93.63,139.38 95.07,137.40 96.50,133.82 97.93,133.67 99.36,130.28 100.79,126.85 102.23,123.88 103.66,121.69 105.09,118.99 106.52,115.85 107.96,112.59 109.39,109.60 110.82,106.49 112.25,106.20 113.68,107.57 115.12,106.56 116.55,103.22 117.98,99.95 119.41,96.31 120.85,103.18 122.28,99.95 123.71,106.78 125.14,105.62 126.58,102.03 128.01,98.45 129.44,96.11 130.87,92.79 132.30,90.65 133.74,97.60 135.17,98.58 136.60,105.43 138.03,101.98 139.47,99.15 140.90,105.95 142.33,102.47 143.76,109.27 145.20,107.16 146.63,103.57 148.06,101.20 149.49,97.60 150.92,93.94 152.36,90.29 153.79,88.46 155.22,95.45 156.65,102.29 158.09,100.21 159.52,99.08 160.95,95.48 162.98,92.17 165.60,99.11 168.21,97.30 170.83,94.07 173.45,91.24 176.07,88.28 178.69,85.11 181.31,87.17 183.93,94.18 186.55,93.70 189.17,91.43 191.79,98.38 194.40,94.54 197.02,101.40 199.64,98.96 202.26,95.57 204.88,92.23 207.50,91.93 210.12,88.27 212.74,84.58 215.36,83.92 217.98,80.49 220.60,79.57 223.21,77.39 225.83,74.40 228.45,70.40 231.07,77.57 233.69,84.71 236.31,91.76 238.93,98.67 241.55,95.03 244.17,92.81 246.79,90.33 249.40,97.30 252.02,104.17 254.64,101.36 257.26,99.34 259.88,106.19 262.50,103.86 265.12,101.95 267.74,108.77 270.36,110.07 272.98,107.52 275.60,114.26 278.21,113.62 280.83,110.91 283.45,108.34 286.07,107.32 288.69,106.61 291.31,103.43 293.93,100.41 296.55,107.24 299.17,103.79 301.79,110.58 304.40,117.23 307.02,114.86 309.64,111.60 312.26,118.27 314.88,117.44 317.50,115.65 320.12,115.25 322.74,121.88 325.36,118.61 327.98,116.92 330.60,114.16 333.21,120.81 335.83,127.32 338.45,124.67 341.07,121.56 343.69,119.66 347.29,116.15 351.88,113.02 356.46,110.30 361.04,109.46 365.62,106.91 370.21,103.30 374.79,102.49 379.38,109.31 383.96,106.86 388.54,103.99 393.12,106.16 397.71,102.56 402.29,109.37 406.88,106.99 411.46,104.20 416.04,102.92 420.62,100.73 425.21,102.50 429.79,109.31 434.38,105.73 440.19,102.62 447.24,100.33 454.29,96.68 461.35,93.00 468.40,89.30 475.45,85.99 482.50,82.23 489.55,78.44 496.60,76.56 503.65,74.18 510.71,81.37 517.76,81.29 524.81,88.38 531.61,95.38 538.15,93.00 544.70,91.05 551.25,87.30 557.80,94.32 564.35,91.28 570.89,98.24 577.44,94.85 583.99,91.51 590.54,89.75 597.08,88.90 603.63,87.39 610.18,83.62 616.73,83.88 625.09,80.08 635.28,78.12 645.46,77.48 655.65,73.66 665.83,71.42 676.02,67.92 686.20,67.48 696.39,74.76 706.57,74.81 726.94,72.39 757.50,68.51 788.06,67.04 809.06,74.32 820.52,72.17 831.98,68.30 843.44,67.54 854.90,64.31 866.35,60.17 877.81,67.49 889.27,65.10 901.55,65.95 914.64,62.60 927.74,59.33 940.83,57.15 953.93,55.27 967.02,52.10 980.12,48.97 994.31,46.76 1009.58,42.68 1024.86,39.86 1040.14,36.93 1055.42,44.58 1070.69,43.04 1084.06,39.25 1095.52,37.17 1106.98,33.90 1118.44,30.90 1129.90,27.12 1141.35,25.00 1152.81,32.80 1164.27,32.64"/>
<text x="15" y="287.5" transform="rotate(-90 15,287.5)" text-anchor="middle" font-family="sans-serif" font-size="12" fill="#333">USD</text>
</svg>