<svg xmlns="http://www.w3.org/2000/svg" width="1200" height="600" viewBox="0 0 1200 600">
<desc>Equity curve with drawdown fill; x-axis is months only (no exact timestamps)</desc>
<text x="600.0" y="18.0" text-anchor="middle" font-family="sans-serif" font-size="14">Portfolio 2010 (UTC)</text>
<rect x="70" y="25" width="1100" height="525" fill="white" stroke="#ccc" />
<line x1="70" y1="550.00" x2="1170" y2="550.00" stroke="#eee"/>
<text x="62" y="554.0" text-anchor="end" font-family="sans-serif" font-size="11" fill="#555">0.00</text>
<line x1="70" y1="445.00" x2="1170" y2="445.00" stroke="#eee"/>
<text x="62" y="449.0" text-anchor="end" font-family="sans-serif" font-size="11" fill="#555">36198</text>
<line x1="70" y1="340.00" x2="1170" y2="340.00" stroke="#eee"/>
<text x="62" y="344.0" text-anchor="end" font-family="sans-serif" font-size="11" fill="#555">72395</text>
<line x1="70" y1="235.00" x2="1170" y2="235.00" stroke="#eee"/>
<text x="62" y="239.0" text-anchor="end" font-family="sans-serif" font-size="11" fill="#555">108593</text>
<line x1="70" y1="130.00" x2="1170" y2="130.00" stroke="#eee"/>
<text x="62" y="134.0" text-anchor="end" font-family="sans-serif" font-size="11" fill="#555">144791</text>
<line x1="70" y1="25.00" x2="1170" y2="25.00" stroke="#eee"/>
<text x="62" y="29.0" text-anchor="end" font-family="sans-serif" font-size="11" fill="#555">180988</text>
<line x1="161.67" y1="25" x2="161.67" y2="550" stroke="#f2f2f2"/>
<line x1="253.33" y1="25" x2="253.33" y2="550" stroke="#f2f2f2"/>
<line x1="345.00" y1="25" x2="345.00" y2="550" stroke="#f2f2f2"/>
<line x1="436.67" y1="25" x2="436.67" y2="550" stroke="#f2f2f2"/>
<line x1="528.33" y1="25" x2="528.33" y2="550" stroke="#f2f2f2"/>
<line x1="620.00" y1="25" x2="620.00" y2="550" stroke="#f2f2f2"/>
<line x1="711.67" y1="25" x2="711.67" y2="550" stroke="#f2f2f2"/>
<line x1="803.33" y1="25" x2="803.33" y2="550" stroke="#f2f2f2"/>
<line x1="895.00" y1="25" x2="895.00" y2="550" stroke="#f2f2f2"/>
<line x1="986.67" y1="25" x2="986.67" y2="550" stroke="#f2f2f2"/>
<line x1="1078.33" y1="25" x2="1078.33" y2="550" stroke="#f2f2f2"/>
<text x="115.83" y="566.00" text-anchor="middle" font-family="sans-serif" font-size="11" fill="#444">Jan</text>
<text x="207.50" y="566.00" text-anchor="middle" font-family="sans-serif" font-size="11" fill="#444">Feb</text>
<text x="299.17" y="566.00" text-anchor="middle" font-family="sans-serif" font-size="11" fill="#444">Mar</text>
<text x="390.83" y="566.00" text-anchor="middle" font-family="sans-serif" font-size="11" fill="#444">Apr</text>
<text x="482.50" y="566.00" text-anchor="middle" font-family="sans-serif" font-size="11" fill="#444">May</text>
<text x="574.17" y="566.00" text-anchor="middle" font-family="sans-serif" font-size="11" fill="#444">Jun</text>
<text x="665.83" y="566.00" text-anchor="middle" font-family="sans-serif" font-size="11" fill="#444">Jul</text>
<text x="757.50" y="566.00" text-anchor="middle" font-family="sans-serif" font-size="11" fill="#444">Aug</text>
<text x="849.17" y="566.00" text-anchor="middle" font-family="sans-serif" font-size="11" fill="#444">Sep</text>
<text x="940.83" y="566.00" text-anchor="middle" font-family="sans-serif" font-size="11" fill="#444">Oct</text>
<text x="1032.50" y="566.00" text-anchor="middle" font-family="sans-serif" font-size="11" fill="#444">Nov</text>
<text x="1124.17" y="566.00" text-anchor="middle" font-family="sans-serif" font-size="11" fill="#444">Dec</text>
<line x1="70" y1="550" x2="1170" y2="550" stroke="#888"/>
<line x1="70" y1="25" x2="70" y2="550" stroke="#888"/>
<line x1="75.09" y1="550.00" x2="75.09" y2="556.00" stroke="#888"/>
<line x1="1167.30"   y1="550.00" x2="1167.30"   y2="556.00" stroke="#888"/>
<text x="75.09" y="582.00" text-anchor="start" font-family="sans-serif" font-size="11" fill="#333">Initial Balance: 138536</text>
<text x="1167.30"   y="582.00" text-anchor="end"   font-family="sans-serif" font-size="11" fill="#333">Ending Balance: 180988</text>
<path d="M 115.83 142.37 L 115.83 142.65 Z" fill="#d0d0d0" fill-opacity="0.5" stroke="none"/>
<path d="M 207.50 131.65 L 225.83 131.65 L 244.17 131.65 L 244.17 132.23 L 225.83 133.83 L 207.50 135.91 Z" fill="#d0d0d0" fill-opacity="0.5" stroke="none"/>
<path d="M 306.81 125.94 L 306.81 126.75 Z" fill="#d0d0d0" fill-opacity="0.5" stroke="none"/>
<path d="M 398.47 119.34 L 413.75 119.34 L 429.03 119.34 L 437.60 119.34 L 439.47 119.34 L 441.34 119.34 L 443.21 119.34 L 445.09 119.34 L 446.96 119.34 L 448.83 119.34 L 450.70 119.34 L 452.57 119.34 L 452.57 120.20 L 450.70 122.56 L 448.83 124.88 L 446.96 127.00 L 445.09 128.99 L 443.21 131.07 L 441.34 133.10 L 439.47 134.84 L 437.60 130.55 L 429.03 126.22 L 413.75 121.86 L 398.47 123.73 Z" fill="#d0d0d0" fill-opacity="0.5" stroke="none"/>
<path d="M 471.28 105.07 L 473.15 105.07 L 475.02 105.07 L 476.89 105.07 L 476.89 105.21 L 475.02 107.24 L 473.15 108.42 L 471.28 109.60 Z" fill="#d0d0d0" fill-opacity="0.5" stroke="none"/>
<path d="M 482.50 101.25 L 484.37 101.25 L 486.24 101.25 L 488.11 101.25 L 489.98 101.25 L 491.85 101.25 L 493.72 101.25 L 495.60 100.31 L 497.47 100.31 L 497.47 109.33 L 495.60 104.78 L 493.72 102.92 L 491.85 103.73 L 489.98 106.08 L 488.11 101.51 L 486.24 102.82 L 484.37 103.49 L 482.50 105.82 Z" fill="#d0d0d0" fill-opacity="0.5" stroke="none"/>
<path d="M 501.21 100.31 L 503.08 100.31 L 504.95 100.31 L 506.82 100.31 L 508.69 100.31 L 508.69 102.21 L 506.82 103.75 L 504.95 105.87 L 503.08 107.37 L 501.21 107.50 Z" fill="#d0d0d0" fill-opacity="0.5" stroke="none"/>
<path d="M 518.04 97.35 L 518.04 97.40 Z" fill="#d0d0d0" fill-opacity="0.5" stroke="none"/>
<path d="M 563.38 76.36 L 568.77 76.36 L 574.17 76.36 L 579.56 76.36 L 584.95 76.36 L 590.34 76.36 L 595.74 76.36 L 595.74 77.75 L 590.34 79.84 L 584.95 78.84 L 579.56 77.38 L 574.17 77.71 L 568.77 79.06 L 563.38 81.15 Z" fill="#d0d0d0" fill-opacity="0.5" stroke="none"/>
<path d="M 665.83 62.62 L 665.83 62.62 Z" fill="#d0d0d0" fill-opacity="0.5" stroke="none"/>
<path d="M 706.57 57.94 L 719.31 57.94 L 734.58 57.94 L 749.86 57.94 L 765.14 57.94 L 780.42 57.94 L 795.69 57.94 L 812.50 57.94 L 830.83 57.94 L 849.17 57.94 L 867.50 57.94 L 885.83 57.94 L 897.86 57.94 L 903.59 57.94 L 903.59 60.58 L 897.86 61.65 L 885.83 63.72 L 867.50 64.64 L 849.17 66.11 L 830.83 67.03 L 812.50 66.53 L 795.69 64.94 L 780.42 67.30 L 765.14 68.96 L 749.86 70.49 L 734.58 68.67 L 719.31 63.81 L 706.57 58.88 Z" fill="#d0d0d0" fill-opacity="0.5" stroke="none"/>
<path d="M 915.05 57.92 L 920.78 57.92 L 920.78 60.27 L 915.05 62.86 Z" fill="#d0d0d0" fill-opacity="0.5" stroke="none"/>
<path d="M 932.24 57.60 L 932.24 58.91 Z" fill="#d0d0d0" fill-opacity="0.5" stroke="none"/>
<path d="M 1016.13 37.06 L 1022.68 37.06 L 1029.23 37.06 L 1035.77 37.06 L 1042.32 37.06 L 1048.87 37.06 L 1055.42 37.06 L 1061.96 37.06 L 1068.51 37.06 L 1075.06 37.06 L 1081.03 37.06 L 1086.42 37.06 L 1091.81 37.06 L 1097.21 37.06 L 1102.60 37.06 L 1102.60 37.39 L 1097.21 38.73 L 1091.81 40.87 L 1086.42 42.97 L 1081.03 37.90 L 1075.06 40.78 L 1068.51 43.23 L 1061.96 44.70 L 1055.42 46.87 L 1048.87 41.79 L 1042.32 43.58 L 1035.77 38.47 L 1029.23 40.48 L 1022.68 41.74 L 1016.13 42.17 Z" fill="#d0d0d0" fill-opacity="0.5" stroke="none"/>
<path d="M 1129.56 30.49 L 1134.95 30.49 L 1140.34 30.49 L 1140.34 31.51 L 1134.95 31.33 L 1129.56 31.82 Z" fill="#d0d0d0" fill-opacity="0.5" stroke="none"/>
<path d="M 1151.13 28.73 L 1151.13 30.79 Z" fill="#d0d0d0" fill-opacity="0.5" stroke="none"/>
<polyline fill="none" stroke="#111" stroke-width="1.2" points="75.09,148.14 85.28,145.92 95.46,143.68 105.65,142.37 115.83,142.65 126.02,141.54 136.20,140.05 146.39,137.93 156.57,135.64 170.83,133.94 189.17,131.65 207.50,135.91 225.83,133.83 244.17,132.23 260.97,129.92 276.25,127.69 291.53,125.94 306.81,126.75 322.08,125.03 337.36,123.39 352.64,122.01 367.92,120.70 383.19,119.34 398.47,123.73 413.75,121.86 429.03,126.22 437.60,130.55 439.47,134.84 441.34,133.10 443.21,131.07 445.09,128.99 446.96,127.00 448.83,124.88 450.70,122.56 452.57,120.20 454.44,117.84 456.31,116.99 458.18,114.76 460.05,114.03 461.92,111.77 463.79,110.03 465.66,108.63 467.53,106.87 469.40,105.07 471.28,109.60 473.15,108.42 475.02,107.24 476.89,105.21 478.76,103.30 480.63,101.25 482.50,105.82 484.37,103.49 486.24,102.82 488.11,101.51 489.98,106.08 491.85,103.73 493.72,102.92 495.60,104.78 497.47,109.33 499.34,100.31 501.21,107.50 503.08,107.37 504.95,105.87 506.82,103.75 508.69,102.21 510.56,100.27 512.43,98.98 514.30,98.71 516.17,97.35 518.04,97.40 519.91,95.14 521.79,92.92 523.66,91.51 525.53,90.26 527.40,88.02 531.03,86.59 536.42,84.09 541.81,82.13 547.21,80.36 552.60,78.05 557.99,76.36 563.38,81.15 568.77,79.06 574.17,77.71 579.56,77.38 584.95,78.84 590.34,79.84 595.74,77.75 601.13,75.64 606.52,73.08 611.91,71.56 617.30,68.99 625.09,66.38 635.28,64.69 645.46,63.79 655.65,62.62 665.83,62.62 676.02,61.90 686.20,59.78 696.39,57.94 706.57,58.88 719.31,63.81 734.58,68.67 749.86,70.49 765.14,68.96 780.42,67.30 795.69,64.94 812.50,66.53 830.83,67.03 849.17,66.11 867.50,64.64 885.83,63.72 897.86,61.65 903.59,60.58 909.32,57.92 915.05,62.86 920.78,60.27 926.51,57.60 932.24,58.91 937.97,56.23 943.70,56.11 949.43,54.20 955.16,52.52 960.89,50.51 966.61,49.72 972.34,48.88 978.07,46.66 983.80,45.83 989.94,43.09 996.49,42.16 1003.04,39.25 1009.58,37.06 1016.13,42.17 1022.68,41.74 1029.23,40.48 1035.77,38.47 1042.32,43.58 1048.87,41.79 1055.42,46.87 1061.96,44.70 1068.51,43.23 1075.06,40.78 1081.03,37.90 1086.42,42.97 1091.81,40.87 1097.21,38.73 1102.60,37.39 1107.99,35.48 1113.38,35.30 1118.77,32.82 1124.17,30.49 1129.56,31.82 1134.95,31.33 1140.34,31.51 1145.74,28.73 1151.13,30.79 1156.52,28.43 1161.91,27.00 1167.30,25.00"/>
<text x="620.0" y="588" text-anchor="middle" font-family="sans-serif" font-size="12" fill="#333">Monthly Balance Curve</text>
<text x="15" y="287.5" transform="rotate(-90 15,287.5)" text-anchor="middle" font-family="sans-serif" font-size="12" fill="#333">Capital</text>
</svg>