<svg xmlns="http://www.w3.org/2000/svg" width="1200" height="600" viewBox="0 0 1200 600">
<desc>Equity curve with drawdown fill; x-axis is months only (no exact timestamps)</desc>
<text x="600.0" y="18.0" text-anchor="middle" font-family="sans-serif" font-size="14">Balance Curve 2011 (UTC)</text>
<rect x="70" y="25" width="1100" height="525" fill="white" stroke="#ccc" />
<line x1="70" y1="550.00" x2="1170" y2="550.00" stroke="#eee"/>
<text x="62" y="554.0" text-anchor="end" font-family="sans-serif" font-size="11" fill="#555">0.00</text>
<line x1="70" y1="445.00" x2="1170" y2="445.00" stroke="#eee"/>
<text x="62" y="449.0" text-anchor="end" font-family="sans-serif" font-size="11" fill="#555">66427</text>
<line x1="70" y1="340.00" x2="1170" y2="340.00" stroke="#eee"/>
<text x="62" y="344.0" text-anchor="end" font-family="sans-serif" font-size="11" fill="#555">132855</text>
<line x1="70" y1="235.00" x2="1170" y2="235.00" stroke="#eee"/>
<text x="62" y="239.0" text-anchor="end" font-family="sans-serif" font-size="11" fill="#555">199282</text>
<line x1="70" y1="130.00" x2="1170" y2="130.00" stroke="#eee"/>
<text x="62" y="134.0" text-anchor="end" font-family="sans-serif" font-size="11" fill="#555">265709</text>
<line x1="70" y1="25.00" x2="1170" y2="25.00" stroke="#eee"/>
<text x="62" y="29.0" text-anchor="end" font-family="sans-serif" font-size="11" fill="#555">332136</text>
<line x1="161.67" y1="25" x2="161.67" y2="550" stroke="#f2f2f2"/>
<line x1="253.33" y1="25" x2="253.33" y2="550" stroke="#f2f2f2"/>
<line x1="345.00" y1="25" x2="345.00" y2="550" stroke="#f2f2f2"/>
<line x1="436.67" y1="25" x2="436.67" y2="550" stroke="#f2f2f2"/>
<line x1="528.33" y1="25" x2="528.33" y2="550" stroke="#f2f2f2"/>
<line x1="620.00" y1="25" x2="620.00" y2="550" stroke="#f2f2f2"/>
<line x1="711.67" y1="25" x2="711.67" y2="550" stroke="#f2f2f2"/>
<line x1="803.33" y1="25" x2="803.33" y2="550" stroke="#f2f2f2"/>
<line x1="895.00" y1="25" x2="895.00" y2="550" stroke="#f2f2f2"/>
<line x1="986.67" y1="25" x2="986.67" y2="550" stroke="#f2f2f2"/>
<line x1="1078.33" y1="25" x2="1078.33" y2="550" stroke="#f2f2f2"/>
<text x="115.83" y="566.00" text-anchor="middle" font-family="sans-serif" font-size="11" fill="#444">Jan</text>
<text x="207.50" y="566.00" text-anchor="middle" font-family="sans-serif" font-size="11" fill="#444">Feb</text>
<text x="299.17" y="566.00" text-anchor="middle" font-family="sans-serif" font-size="11" fill="#444">Mar</text>
<text x="390.83" y="566.00" text-anchor="middle" font-family="sans-serif" font-size="11" fill="#444">Apr</text>
<text x="482.50" y="566.00" text-anchor="middle" font-family="sans-serif" font-size="11" fill="#444">May</text>
<text x="574.17" y="566.00" text-anchor="middle" font-family="sans-serif" font-size="11" fill="#444">Jun</text>
<text x="665.83" y="566.00" text-anchor="middle" font-family="sans-serif" font-size="11" fill="#444">Jul</text>
<text x="757.50" y="566.00" text-anchor="middle" font-family="sans-serif" font-size="11" fill="#444">Aug</text>
<text x="849.17" y="566.00" text-anchor="middle" font-family="sans-serif" font-size="11" fill="#444">Sep</text>
<text x="940.83" y="566.00" text-anchor="middle" font-family="sans-serif" font-size="11" fill="#444">Oct</text>
<text x="1032.50" y="566.00" text-anchor="middle" font-family="sans-serif" font-size="11" fill="#444">Nov</text>
<text x="1124.17" y="566.00" text-anchor="middle" font-family="sans-serif" font-size="11" fill="#444">Dec</text>
<line x1="70" y1="550" x2="1170" y2="550" stroke="#888"/>
<line x1="70" y1="25" x2="70" y2="550" stroke="#888"/>
<line x1="74.17" y1="550.00" x2="74.17" y2="556.00" stroke="#888"/>
<line x1="1154.72"   y1="550.00" x2="1154.72"   y2="556.00" stroke="#888"/>
<text x="74.17" y="582.00" text-anchor="start" font-family="sans-serif" font-size="11" fill="#333">Initial Balance: 288370</text>
<text x="1154.72"   y="582.00" text-anchor="end"   font-family="sans-serif" font-size="11" fill="#333">Ending Balance: 323117</text>
<path d="M 90.83 92.00 L 90.83 92.08 Z" fill="#d0d0d0" fill-opacity="0.5" stroke="none"/>
<path d="M 189.17 62.12 L 207.50 62.12 L 207.50 63.61 L 189.17 64.83 Z" fill="#d0d0d0" fill-opacity="0.5" stroke="none"/>
<path d="M 244.17 60.65 L 259.06 60.65 L 270.52 60.65 L 270.52 62.14 L 259.06 64.16 L 244.17 68.08 Z" fill="#d0d0d0" fill-opacity="0.5" stroke="none"/>
<path d="M 293.44 60.38 L 293.44 61.69 Z" fill="#d0d0d0" fill-opacity="0.5" stroke="none"/>
<path d="M 327.81 58.08 L 327.81 59.19 Z" fill="#d0d0d0" fill-opacity="0.5" stroke="none"/>
<path d="M 356.46 56.68 L 379.38 56.68 L 402.29 56.68 L 425.21 56.68 L 439.36 56.68 L 444.75 56.68 L 450.15 56.68 L 455.54 56.68 L 460.93 56.68 L 466.32 56.68 L 471.72 56.68 L 477.11 56.68 L 482.50 56.68 L 487.89 56.68 L 493.28 56.68 L 498.68 56.68 L 504.07 56.68 L 509.46 56.68 L 514.85 56.68 L 520.25 56.68 L 525.64 56.68 L 532.15 56.68 L 539.79 56.68 L 547.43 56.68 L 555.07 56.68 L 562.71 56.68 L 570.35 56.68 L 577.99 56.68 L 585.62 56.68 L 593.26 56.68 L 600.90 56.68 L 608.54 56.68 L 616.18 56.68 L 616.18 57.92 L 608.54 61.91 L 600.90 64.62 L 593.26 65.86 L 585.62 66.58 L 577.99 70.51 L 570.35 71.18 L 562.71 75.03 L 555.07 78.89 L 547.43 71.62 L 539.79 73.16 L 532.15 75.58 L 525.64 72.60 L 520.25 74.36 L 514.85 76.34 L 509.46 69.03 L 504.07 70.56 L 498.68 67.40 L 493.28 69.27 L 487.89 72.46 L 482.50 74.47 L 477.11 75.44 L 471.72 77.51 L 466.32 70.22 L 460.93 62.82 L 455.54 65.15 L 450.15 69.09 L 444.75 61.72 L 439.36 65.70 L 425.21 66.45 L 402.29 69.16 L 379.38 61.75 L 356.46 64.16 Z" fill="#d0d0d0" fill-opacity="0.5" stroke="none"/>
<path d="M 690.28 26.07 L 696.39 26.07 L 702.50 26.07 L 708.61 26.07 L 714.21 26.07 L 719.31 26.07 L 724.40 26.07 L 729.49 26.07 L 734.58 26.07 L 734.58 28.72 L 729.49 32.92 L 724.40 36.18 L 719.31 39.50 L 714.21 42.10 L 708.61 45.35 L 702.50 37.60 L 696.39 29.74 L 690.28 33.94 Z" fill="#d0d0d0" fill-opacity="0.5" stroke="none"/>
<path d="M 744.77 25.00 L 749.86 25.00 L 754.95 25.00 L 760.05 25.00 L 765.14 25.00 L 770.23 25.00 L 775.32 25.00 L 780.42 25.00 L 785.51 25.00 L 790.60 25.00 L 795.69 25.00 L 800.79 25.00 L 805.88 25.00 L 810.97 25.00 L 816.06 25.00 L 821.16 25.00 L 826.25 25.00 L 831.34 25.00 L 836.44 25.00 L 841.53 25.00 L 846.62 25.00 L 851.71 25.00 L 856.81 25.00 L 861.90 25.00 L 866.99 25.00 L 872.08 25.00 L 877.18 25.00 L 882.27 25.00 L 887.36 25.00 L 892.45 25.00 L 897.41 25.00 L 902.24 25.00 L 907.06 25.00 L 911.89 25.00 L 916.71 25.00 L 921.54 25.00 L 926.36 25.00 L 931.18 25.00 L 936.01 25.00 L 940.83 25.00 L 945.66 25.00 L 950.48 25.00 L 955.31 25.00 L 960.13 25.00 L 964.96 25.00 L 969.78 25.00 L 974.61 25.00 L 979.43 25.00 L 984.25 25.00 L 989.21 25.00 L 994.31 25.00 L 999.40 25.00 L 1004.49 25.00 L 1009.58 25.00 L 1014.68 25.00 L 1019.77 25.00 L 1024.86 25.00 L 1029.95 25.00 L 1035.05 25.00 L 1040.14 25.00 L 1045.23 25.00 L 1050.32 25.00 L 1055.42 25.00 L 1060.51 25.00 L 1065.60 25.00 L 1070.69 25.00 L 1075.79 25.00 L 1093.61 25.00 L 1124.17 25.00 L 1154.72 25.00 L 1154.72 39.26 L 1124.17 42.94 L 1093.61 45.14 L 1075.79 45.08 L 1070.69 46.21 L 1065.60 49.53 L 1060.51 53.16 L 1055.42 45.49 L 1050.32 43.21 L 1045.23 46.13 L 1040.14 48.99 L 1035.05 41.26 L 1029.95 41.17 L 1024.86 41.34 L 1019.77 44.30 L 1014.68 45.10 L 1009.58 48.87 L 1004.49 51.66 L 999.40 43.97 L 994.31 45.56 L 989.21 48.39 L 984.25 40.65 L 979.43 42.19 L 974.61 44.46 L 969.78 47.83 L 964.96 51.89 L 960.13 55.91 L 955.31 54.16 L 950.48 56.86 L 945.66 60.84 L 940.83 59.53 L 936.01 51.96 L 931.18 44.28 L 926.36 47.44 L 921.54 51.10 L 916.71 53.90 L 911.89 55.30 L 907.06 47.67 L 902.24 51.71 L 897.41 55.57 L 892.45 58.36 L 887.36 56.77 L 882.27 58.88 L 877.18 51.29 L 872.08 52.70 L 866.99 45.03 L 861.90 44.38 L 856.81 36.59 L 851.71 38.63 L 846.62 42.74 L 841.53 44.88 L 836.44 48.95 L 831.34 52.37 L 826.25 55.49 L 821.16 55.65 L 816.06 58.76 L 810.97 62.20 L 805.88 54.67 L 800.79 47.04 L 795.69 51.12 L 790.60 43.44 L 785.51 35.65 L 780.42 38.72 L 775.32 42.83 L 770.23 35.04 L 765.14 34.77 L 760.05 33.44 L 754.95 25.52 L 749.86 29.72 L 744.77 32.93 Z" fill="#d0d0d0" fill-opacity="0.5" stroke="none"/>
<polyline fill="none" stroke="#111" stroke-width="1.2" points="74.17,94.18 82.50,92.00 90.83,92.08 99.17,88.38 107.50,86.57 115.83,83.16 124.17,79.66 132.50,76.57 140.83,73.07 149.17,69.22 157.50,65.31 170.83,62.12 189.17,64.83 207.50,63.61 225.83,60.65 244.17,68.08 259.06,64.16 270.52,62.14 281.98,60.38 293.44,61.69 304.90,59.31 316.35,58.08 327.81,59.19 339.27,56.68 356.46,64.16 379.38,61.75 402.29,69.16 425.21,66.45 439.36,65.70 444.75,61.72 450.15,69.09 455.54,65.15 460.93,62.82 466.32,70.22 471.72,77.51 477.11,75.44 482.50,74.47 487.89,72.46 493.28,69.27 498.68,67.40 504.07,70.56 509.46,69.03 514.85,76.34 520.25,74.36 525.64,72.60 532.15,75.58 539.79,73.16 547.43,71.62 555.07,78.89 562.71,75.03 570.35,71.18 577.99,70.51 585.62,66.58 593.26,65.86 600.90,64.62 608.54,61.91 616.18,57.92 623.06,54.27 629.17,54.03 635.28,49.98 641.39,47.76 647.50,43.67 653.61,39.81 659.72,39.38 665.83,35.99 671.94,33.01 678.06,30.29 684.17,26.07 690.28,33.94 696.39,29.74 702.50,37.60 708.61,45.35 714.21,42.10 719.31,39.50 724.40,36.18 729.49,32.92 734.58,28.72 739.68,25.00 744.77,32.93 749.86,29.72 754.95,25.52 760.05,33.44 765.14,34.77 770.23,35.04 775.32,42.83 780.42,38.72 785.51,35.65 790.60,43.44 795.69,51.12 800.79,47.04 805.88,54.67 810.97,62.20 816.06,58.76 821.16,55.65 826.25,55.49 831.34,52.37 836.44,48.95 841.53,44.88 846.62,42.74 851.71,38.63 856.81,36.59 861.90,44.38 866.99,45.03 872.08,52.70 877.18,51.29 882.27,58.88 887.36,56.77 892.45,58.36 897.41,55.57 902.24,51.71 907.06,47.67 911.89,55.30 916.71,53.90 921.54,51.10 926.36,47.44 931.18,44.28 936.01,51.96 940.83,59.53 945.66,60.84 950.48,56.86 955.31,54.16 960.13,55.91 964.96,51.89 969.78,47.83 974.61,44.46 979.43,42.19 984.25,40.65 989.21,48.39 994.31,45.56 999.40,43.97 1004.49,51.66 1009.58,48.87 1014.68,45.10 1019.77,44.30 1024.86,41.34 1029.95,41.17 1035.05,41.26 1040.14,48.99 1045.23,46.13 1050.32,43.21 1055.42,45.49 1060.51,53.16 1065.60,49.53 1070.69,46.21 1075.79,45.08 1093.61,45.14 1124.17,42.94 1154.72,39.26"/>
<text x="15" y="287.5" transform="rotate(-90 15,287.5)" text-anchor="middle" font-family="sans-serif" font-size="12" fill="#333">USD</text>
</svg>