<svg xmlns="http://www.w3.org/2000/svg" width="1200" height="600" viewBox="0 0 1200 600">
<desc>Equity curve with drawdown fill</desc>
<text x="600.0" y="18.0" text-anchor="middle" font-family="sans-serif" font-size="14">Portfolio 2016</text>
<rect x="70" y="25" width="1100" height="525" fill="white" stroke="#ccc" />
<line x1="70" y1="550.00" x2="1170" y2="550.00" stroke="#eee"/>
<text x="62" y="554.0" text-anchor="end" font-family="sans-serif" font-size="11" fill="#555">0.00</text>
<line x1="70" y1="445.00" x2="1170" y2="445.00" stroke="#eee"/>
<text x="62" y="449.0" text-anchor="end" font-family="sans-serif" font-size="11" fill="#555">65784</text>
<line x1="70" y1="340.00" x2="1170" y2="340.00" stroke="#eee"/>
<text x="62" y="344.0" text-anchor="end" font-family="sans-serif" font-size="11" fill="#555">131567</text>
<line x1="70" y1="235.00" x2="1170" y2="235.00" stroke="#eee"/>
<text x="62" y="239.0" text-anchor="end" font-family="sans-serif" font-size="11" fill="#555">197351</text>
<line x1="70" y1="130.00" x2="1170" y2="130.00" stroke="#eee"/>
<text x="62" y="134.0" text-anchor="end" font-family="sans-serif" font-size="11" fill="#555">263135</text>
<line x1="70" y1="25.00" x2="1170" y2="25.00" stroke="#eee"/>
<text x="62" y="29.0" text-anchor="end" font-family="sans-serif" font-size="11" fill="#555">328919</text>
<line x1="154.21" y1="25" x2="154.21" y2="550" stroke="#f2f2f2"/>
<text x="154.21" y="566" text-anchor="middle" font-family="sans-serif" font-size="11" fill="#555">Feb</text>
<line x1="242.56" y1="25" x2="242.56" y2="550" stroke="#f2f2f2"/>
<text x="242.56" y="566" text-anchor="middle" font-family="sans-serif" font-size="11" fill="#555">Mar</text>
<line x1="337.00" y1="25" x2="337.00" y2="550" stroke="#f2f2f2"/>
<text x="337.00" y="566" text-anchor="middle" font-family="sans-serif" font-size="11" fill="#555">Apr</text>
<line x1="428.40" y1="25" x2="428.40" y2="550" stroke="#f2f2f2"/>
<text x="428.40" y="566" text-anchor="middle" font-family="sans-serif" font-size="11" fill="#555">May</text>
<line x1="522.84" y1="25" x2="522.84" y2="550" stroke="#f2f2f2"/>
<text x="522.84" y="566" text-anchor="middle" font-family="sans-serif" font-size="11" fill="#555">Jun</text>
<line x1="614.24" y1="25" x2="614.24" y2="550" stroke="#f2f2f2"/>
<text x="614.24" y="566" text-anchor="middle" font-family="sans-serif" font-size="11" fill="#555">Jul</text>
<line x1="708.68" y1="25" x2="708.68" y2="550" stroke="#f2f2f2"/>
<text x="708.68" y="566" text-anchor="middle" font-family="sans-serif" font-size="11" fill="#555">Aug</text>
<line x1="803.12" y1="25" x2="803.12" y2="550" stroke="#f2f2f2"/>
<text x="803.12" y="566" text-anchor="middle" font-family="sans-serif" font-size="11" fill="#555">Sep</text>
<line x1="894.51" y1="25" x2="894.51" y2="550" stroke="#f2f2f2"/>
<text x="894.51" y="566" text-anchor="middle" font-family="sans-serif" font-size="11" fill="#555">Oct</text>
<line x1="988.96" y1="25" x2="988.96" y2="550" stroke="#f2f2f2"/>
<text x="988.96" y="566" text-anchor="middle" font-family="sans-serif" font-size="11" fill="#555">Nov</text>
<line x1="1080.35" y1="25" x2="1080.35" y2="550" stroke="#f2f2f2"/>
<text x="1080.35" y="566" text-anchor="middle" font-family="sans-serif" font-size="11" fill="#555">Dec</text>
<line x1="70" y1="550" x2="1170" y2="550" stroke="#888"/>
<line x1="70" y1="25" x2="70" y2="550" stroke="#888"/>
<path d="M 70.76 131.62 L 79.26 131.62 L 80.45 131.62 L 81.30 131.62 L 81.30 134.00 L 80.45 137.13 L 79.26 139.54 L 70.76 133.22 Z" fill="#d0d0d0" fill-opacity="0.5" stroke="none"/>
<path d="M 104.18 123.63 L 104.19 123.63 L 104.19 126.66 L 104.18 130.09 Z" fill="#d0d0d0" fill-opacity="0.5" stroke="none"/>
<path d="M 123.18 120.93 L 123.18 122.06 Z" fill="#d0d0d0" fill-opacity="0.5" stroke="none"/>
<path d="M 146.93 116.04 L 162.03 116.04 L 162.28 116.04 L 162.34 116.04 L 162.39 116.04 L 162.68 116.04 L 164.45 116.04 L 168.11 116.04 L 168.16 116.04 L 168.23 116.04 L 168.40 116.04 L 177.05 116.04 L 177.59 116.04 L 180.31 116.04 L 183.60 116.04 L 185.79 116.04 L 189.47 116.04 L 198.83 116.04 L 226.27 116.04 L 232.22 116.04 L 250.76 116.04 L 253.42 116.04 L 253.42 116.19 L 250.76 119.83 L 232.22 123.44 L 226.27 124.57 L 198.83 125.66 L 189.47 127.26 L 185.79 129.88 L 183.60 133.05 L 180.31 126.62 L 177.59 130.19 L 177.05 123.72 L 168.40 125.42 L 168.23 125.36 L 168.16 127.83 L 168.11 131.13 L 164.45 134.65 L 162.68 136.78 L 162.39 130.41 L 162.34 132.70 L 162.28 126.27 L 162.03 119.77 L 146.93 122.62 Z" fill="#d0d0d0" fill-opacity="0.5" stroke="none"/>
<path d="M 269.10 106.55 L 269.10 109.54 Z" fill="#d0d0d0" fill-opacity="0.5" stroke="none"/>
<path d="M 271.62 105.82 L 271.73 105.82 L 271.75 105.82 L 271.75 108.09 L 271.73 111.80 L 271.62 112.52 Z" fill="#d0d0d0" fill-opacity="0.5" stroke="none"/>
<path d="M 271.92 102.67 L 271.97 102.67 L 272.06 102.67 L 272.14 102.67 L 272.26 102.67 L 274.17 102.67 L 275.01 102.67 L 290.67 102.67 L 290.72 102.67 L 292.57 102.67 L 307.78 102.67 L 330.07 102.67 L 339.00 102.67 L 354.12 102.67 L 354.35 102.67 L 356.52 102.67 L 372.47 102.67 L 399.64 102.67 L 399.64 105.09 L 372.47 107.12 L 356.52 109.71 L 354.35 112.48 L 354.12 116.16 L 339.00 118.49 L 330.07 119.03 L 307.78 122.65 L 292.57 124.31 L 290.72 123.69 L 290.67 117.16 L 275.01 120.79 L 274.17 121.46 L 272.26 122.75 L 272.14 122.18 L 272.06 122.50 L 271.97 115.95 L 271.92 109.32 Z" fill="#d0d0d0" fill-opacity="0.5" stroke="none"/>
<path d="M 399.94 101.15 L 415.03 101.15 L 418.63 101.15 L 418.63 101.85 L 415.03 105.62 L 399.94 107.94 Z" fill="#d0d0d0" fill-opacity="0.5" stroke="none"/>
<path d="M 530.74 84.58 L 530.83 84.58 L 530.90 84.58 L 531.05 84.58 L 567.90 84.58 L 570.06 84.58 L 570.79 84.58 L 570.82 84.58 L 570.95 84.58 L 585.56 84.58 L 591.18 84.58 L 591.18 88.47 L 585.56 91.94 L 570.95 95.76 L 570.82 98.09 L 570.79 101.41 L 570.06 94.52 L 567.90 94.77 L 531.05 98.59 L 530.90 97.15 L 530.83 98.45 L 530.74 91.55 Z" fill="#d0d0d0" fill-opacity="0.5" stroke="none"/>
<path d="M 593.12 80.18 L 593.17 80.18 L 593.21 80.18 L 593.34 80.18 L 593.36 80.18 L 593.40 80.18 L 593.51 80.18 L 593.54 80.18 L 593.65 80.18 L 593.69 80.18 L 593.83 80.18 L 593.85 80.18 L 593.97 80.18 L 594.02 80.18 L 594.09 80.18 L 594.18 80.18 L 594.47 80.18 L 594.86 80.18 L 595.27 80.18 L 601.95 80.18 L 612.93 80.18 L 613.34 80.18 L 613.34 83.38 L 612.93 87.28 L 601.95 90.57 L 595.27 93.35 L 594.86 86.34 L 594.47 89.49 L 594.18 89.75 L 594.09 92.77 L 594.02 94.21 L 593.97 87.24 L 593.85 91.08 L 593.83 95.00 L 593.69 98.78 L 593.65 101.12 L 593.54 94.26 L 593.51 97.88 L 593.40 91.09 L 593.36 94.35 L 593.34 97.91 L 593.21 91.01 L 593.17 94.23 L 593.12 87.27 Z" fill="#d0d0d0" fill-opacity="0.5" stroke="none"/>
<path d="M 628.59 75.63 L 637.28 75.63 L 637.28 78.84 L 628.59 82.79 Z" fill="#d0d0d0" fill-opacity="0.5" stroke="none"/>
<path d="M 787.04 47.34 L 805.19 47.34 L 807.88 47.34 L 808.17 47.34 L 820.32 47.34 L 820.40 47.34 L 829.42 47.34 L 850.69 47.34 L 892.57 47.34 L 892.57 48.04 L 850.69 50.71 L 829.42 52.13 L 820.40 53.04 L 820.32 54.88 L 808.17 47.35 L 807.88 50.84 L 805.19 54.98 L 787.04 54.86 Z" fill="#d0d0d0" fill-opacity="0.5" stroke="none"/>
<path d="M 1013.59 25.00 L 1013.63 25.00 L 1013.70 25.00 L 1013.76 25.00 L 1013.89 25.00 L 1013.90 25.00 L 1014.07 25.00 L 1014.21 25.00 L 1014.34 25.00 L 1014.42 25.00 L 1014.55 25.00 L 1014.60 25.00 L 1014.91 25.00 L 1015.28 25.00 L 1015.34 25.00 L 1028.75 25.00 L 1029.74 25.00 L 1030.54 25.00 L 1032.75 25.00 L 1035.69 25.00 L 1039.48 25.00 L 1042.74 25.00 L 1057.78 25.00 L 1071.58 25.00 L 1072.72 25.00 L 1079.14 25.00 L 1079.42 25.00 L 1092.41 25.00 L 1093.53 25.00 L 1093.67 25.00 L 1093.98 25.00 L 1094.04 25.00 L 1094.91 25.00 L 1103.29 25.00 L 1103.35 25.00 L 1103.41 25.00 L 1103.52 25.00 L 1103.68 25.00 L 1103.73 25.00 L 1106.38 25.00 L 1122.37 25.00 L 1123.09 25.00 L 1124.47 25.00 L 1125.17 25.00 L 1128.19 25.00 L 1146.27 25.00 L 1168.65 25.00 L 1168.69 25.00 L 1170.00 25.00 L 1170.00 52.01 L 1168.69 54.37 L 1168.65 57.65 L 1146.27 61.93 L 1128.19 65.26 L 1125.17 68.98 L 1124.47 70.79 L 1123.09 63.46 L 1122.37 63.91 L 1106.38 68.15 L 1103.73 68.49 L 1103.68 61.13 L 1103.52 53.71 L 1103.41 54.08 L 1103.35 46.57 L 1103.29 49.49 L 1094.91 53.83 L 1094.04 54.26 L 1093.98 57.26 L 1093.67 49.75 L 1093.53 51.26 L 1092.41 53.53 L 1079.42 57.85 L 1079.14 59.53 L 1072.72 62.71 L 1071.58 65.92 L 1057.78 65.76 L 1042.74 58.37 L 1039.48 62.05 L 1035.69 64.96 L 1032.75 67.90 L 1030.54 69.06 L 1029.74 67.77 L 1028.75 69.61 L 1015.34 72.71 L 1015.28 65.42 L 1014.91 64.61 L 1014.60 67.95 L 1014.55 60.69 L 1014.42 53.27 L 1014.34 54.64 L 1014.21 47.14 L 1014.07 51.07 L 1013.90 43.50 L 1013.89 47.90 L 1013.76 46.20 L 1013.70 38.69 L 1013.63 40.47 L 1013.59 32.80 Z" fill="#d0d0d0" fill-opacity="0.5" stroke="none"/>
<polyline fill="none" stroke="#111" stroke-width="1.2" points="70.00,131.62 70.76,133.22 79.26,139.54 80.45,137.13 81.30,134.00 83.06,131.08 90.12,127.53 98.34,125.08 100.59,124.39 101.45,123.63 104.18,130.09 104.19,126.66 122.42,122.90 122.50,120.93 123.18,122.06 143.23,119.68 145.54,116.04 146.93,122.62 162.03,119.77 162.28,126.27 162.34,132.70 162.39,130.41 162.68,136.78 164.45,134.65 168.11,131.13 168.16,127.83 168.23,125.36 168.40,125.42 177.05,123.72 177.59,130.19 180.31,126.62 183.60,133.05 185.79,129.88 189.47,127.26 198.83,125.66 226.27,124.57 232.22,123.44 250.76,119.83 253.42,116.19 253.44,112.62 253.48,108.92 253.67,106.89 263.10,106.55 269.10,109.54 271.60,105.82 271.62,112.52 271.73,111.80 271.75,108.09 271.78,104.17 271.88,102.67 271.92,109.32 271.97,115.95 272.06,122.50 272.14,122.18 272.26,122.75 274.17,121.46 275.01,120.79 290.67,117.16 290.72,123.69 292.57,124.31 307.78,122.65 330.07,119.03 339.00,118.49 354.12,116.16 354.35,112.48 356.52,109.71 372.47,107.12 399.64,105.09 399.68,101.15 399.94,107.94 415.03,105.62 418.63,101.85 433.35,98.08 435.70,96.48 445.35,92.63 466.89,89.15 482.71,88.66 530.65,84.58 530.74,91.55 530.83,98.45 530.90,97.15 531.05,98.59 567.90,94.77 570.06,94.52 570.79,101.41 570.82,98.09 570.95,95.76 585.56,91.94 591.18,88.47 592.91,84.39 592.95,80.18 593.12,87.27 593.17,94.23 593.21,91.01 593.34,97.91 593.36,94.35 593.40,91.09 593.51,97.88 593.54,94.26 593.65,101.12 593.69,98.78 593.83,95.00 593.85,91.08 593.97,87.24 594.02,94.21 594.09,92.77 594.18,89.75 594.47,89.49 594.86,86.34 595.27,93.35 601.95,90.57 612.93,87.28 613.34,83.38 613.37,79.60 627.50,75.63 628.59,82.79 637.28,78.84 637.37,74.88 655.40,70.88 658.80,70.07 680.30,67.95 701.39,66.13 722.58,62.06 722.80,61.28 743.99,60.70 755.57,59.07 759.87,55.31 786.74,51.16 786.79,47.34 787.04,54.86 805.19,54.98 807.88,50.84 808.17,47.35 820.32,54.88 820.40,53.04 829.42,52.13 850.69,50.71 892.57,48.04 893.37,46.15 905.77,41.94 905.81,38.11 914.58,34.24 954.15,30.26 954.24,26.59 979.19,25.00 1013.59,32.80 1013.63,40.47 1013.70,38.69 1013.76,46.20 1013.89,47.90 1013.90,43.50 1014.07,51.07 1014.21,47.14 1014.34,54.64 1014.42,53.27 1014.55,60.69 1014.60,67.95 1014.91,64.61 1015.28,65.42 1015.34,72.71 1028.75,69.61 1029.74,67.77 1030.54,69.06 1032.75,67.90 1035.69,64.96 1039.48,62.05 1042.74,58.37 1057.78,65.76 1071.58,65.92 1072.72,62.71 1079.14,59.53 1079.42,57.85 1092.41,53.53 1093.53,51.26 1093.67,49.75 1093.98,57.26 1094.04,54.26 1094.91,53.83 1103.29,49.49 1103.35,46.57 1103.41,54.08 1103.52,53.71 1103.68,61.13 1103.73,68.49 1106.38,68.15 1122.37,63.91 1123.09,63.46 1124.47,70.79 1125.17,68.98 1128.19,65.26 1146.27,61.93 1168.65,57.65 1168.69,54.37 1170.00,52.01"/>
<text x="620.0" y="588" text-anchor="middle" font-family="sans-serif" font-size="12" fill="#333">UTC time</text>
<text x="15" y="287.5" transform="rotate(-90 15,287.5)" text-anchor="middle" font-family="sans-serif" font-size="12" fill="#333">Capital</text>
</svg>