<svg xmlns="http://www.w3.org/2000/svg" width="1200" height="600" viewBox="0 0 1200 600">
<desc>Equity curve with drawdown fill; x-axis is months only (no exact timestamps)</desc>
<text x="600.0" y="18.0" text-anchor="middle" font-family="sans-serif" font-size="14">Balance Curve 2020 (UTC)</text>
<rect x="70" y="25" width="1100" height="525" fill="white" stroke="#ccc" />
<line x1="70" y1="550.00" x2="1170" y2="550.00" stroke="#eee"/>
<text x="62" y="554.0" text-anchor="end" font-family="sans-serif" font-size="11" fill="#555">0.00</text>
<line x1="70" y1="445.00" x2="1170" y2="445.00" stroke="#eee"/>
<text x="62" y="449.0" text-anchor="end" font-family="sans-serif" font-size="11" fill="#555">65467</text>
<line x1="70" y1="340.00" x2="1170" y2="340.00" stroke="#eee"/>
<text x="62" y="344.0" text-anchor="end" font-family="sans-serif" font-size="11" fill="#555">130935</text>
<line x1="70" y1="235.00" x2="1170" y2="235.00" stroke="#eee"/>
<text x="62" y="239.0" text-anchor="end" font-family="sans-serif" font-size="11" fill="#555">196402</text>
<line x1="70" y1="130.00" x2="1170" y2="130.00" stroke="#eee"/>
<text x="62" y="134.0" text-anchor="end" font-family="sans-serif" font-size="11" fill="#555">261870</text>
<line x1="70" y1="25.00" x2="1170" y2="25.00" stroke="#eee"/>
<text x="62" y="29.0" text-anchor="end" font-family="sans-serif" font-size="11" fill="#555">327337</text>
<line x1="180.00" y1="25" x2="180.00" y2="550" stroke="#f2f2f2"/>
<line x1="290.00" y1="25" x2="290.00" y2="550" stroke="#f2f2f2"/>
<line x1="400.00" y1="25" x2="400.00" y2="550" stroke="#f2f2f2"/>
<line x1="510.00" y1="25" x2="510.00" y2="550" stroke="#f2f2f2"/>
<line x1="620.00" y1="25" x2="620.00" y2="550" stroke="#f2f2f2"/>
<line x1="730.00" y1="25" x2="730.00" y2="550" stroke="#f2f2f2"/>
<line x1="840.00" y1="25" x2="840.00" y2="550" stroke="#f2f2f2"/>
<line x1="950.00" y1="25" x2="950.00" y2="550" stroke="#f2f2f2"/>
<line x1="1060.00" y1="25" x2="1060.00" y2="550" stroke="#f2f2f2"/>
<text x="125.00" y="566.00" text-anchor="middle" font-family="sans-serif" font-size="11" fill="#444">Jan</text>
<text x="235.00" y="566.00" text-anchor="middle" font-family="sans-serif" font-size="11" fill="#444">Mar</text>
<text x="345.00" y="566.00" text-anchor="middle" font-family="sans-serif" font-size="11" fill="#444">Apr</text>
<text x="455.00" y="566.00" text-anchor="middle" font-family="sans-serif" font-size="11" fill="#444">May</text>
<text x="565.00" y="566.00" text-anchor="middle" font-family="sans-serif" font-size="11" fill="#444">Jun</text>
<text x="675.00" y="566.00" text-anchor="middle" font-family="sans-serif" font-size="11" fill="#444">Jul</text>
<text x="785.00" y="566.00" text-anchor="middle" font-family="sans-serif" font-size="11" fill="#444">Aug</text>
<text x="895.00" y="566.00" text-anchor="middle" font-family="sans-serif" font-size="11" fill="#444">Sep</text>
<text x="1005.00" y="566.00" text-anchor="middle" font-family="sans-serif" font-size="11" fill="#444">Nov</text>
<text x="1115.00" y="566.00" text-anchor="middle" font-family="sans-serif" font-size="11" fill="#444">Dec</text>
<line x1="70" y1="550" x2="1170" y2="550" stroke="#888"/>
<line x1="70" y1="25" x2="70" y2="550" stroke="#888"/>
<line x1="125.00" y1="550.00" x2="125.00" y2="556.00" stroke="#888"/>
<line x1="1115.00"   y1="550.00" x2="1115.00"   y2="556.00" stroke="#888"/>
<text x="125.00" y="582.00" text-anchor="start" font-family="sans-serif" font-size="11" fill="#333">Initial Balance: 291249</text>
<text x="1115.00"   y="582.00" text-anchor="end"   font-family="sans-serif" font-size="11" fill="#333">Ending Balance: 327337</text>
<path d="M 188.19 76.16 L 190.53 76.16 L 190.53 78.17 L 188.19 80.93 Z" fill="#d0d0d0" fill-opacity="0.5" stroke="none"/>
<path d="M 206.91 65.77 L 206.91 66.62 Z" fill="#d0d0d0" fill-opacity="0.5" stroke="none"/>
<path d="M 225.64 53.35 L 225.64 53.81 Z" fill="#d0d0d0" fill-opacity="0.5" stroke="none"/>
<path d="M 230.32 52.09 L 232.66 52.09 L 235.00 52.09 L 235.00 52.35 L 232.66 54.75 L 230.32 57.15 Z" fill="#d0d0d0" fill-opacity="0.5" stroke="none"/>
<path d="M 239.68 49.92 L 242.02 49.92 L 244.36 49.92 L 246.70 49.92 L 249.04 49.92 L 251.38 49.92 L 253.72 49.92 L 256.06 49.92 L 258.40 49.92 L 260.74 49.92 L 263.09 49.92 L 265.43 49.92 L 267.77 49.92 L 270.11 49.92 L 272.45 49.92 L 274.79 49.92 L 277.13 49.92 L 279.47 49.92 L 281.81 49.92 L 284.15 49.92 L 286.49 49.92 L 288.83 49.92 L 308.33 49.92 L 308.33 51.31 L 288.83 51.90 L 286.49 53.87 L 284.15 56.22 L 281.81 57.54 L 279.47 59.31 L 277.13 61.32 L 274.79 63.38 L 272.45 64.19 L 270.11 66.18 L 267.77 68.12 L 265.43 70.63 L 263.09 65.70 L 260.74 60.72 L 258.40 61.77 L 256.06 56.79 L 253.72 58.06 L 251.38 60.38 L 249.04 55.34 L 246.70 57.89 L 244.36 52.83 L 242.02 55.39 L 239.68 55.01 Z" fill="#d0d0d0" fill-opacity="0.5" stroke="none"/>
<path d="M 565.00 41.34 L 565.00 42.26 Z" fill="#d0d0d0" fill-opacity="0.5" stroke="none"/>
<path d="M 1005.00 26.65 L 1005.00 27.17 Z" fill="#d0d0d0" fill-opacity="0.5" stroke="none"/>
<polyline fill="none" stroke="#111" stroke-width="1.2" points="125.00,82.88 181.17,80.74 183.51,78.80 185.85,76.16 188.19,80.93 190.53,78.17 192.87,75.93 195.21,74.44 197.55,71.95 199.89,70.34 202.23,68.30 204.57,65.77 206.91,66.62 209.26,65.29 211.60,62.76 213.94,62.24 216.28,60.05 218.62,57.49 220.96,54.92 223.30,53.35 225.64,53.81 227.98,52.09 230.32,57.15 232.66,54.75 235.00,52.35 237.34,49.92 239.68,55.01 242.02,55.39 244.36,52.83 246.70,57.89 249.04,55.34 251.38,60.38 253.72,58.06 256.06,56.79 258.40,61.77 260.74,60.72 263.09,65.70 265.43,70.63 267.77,68.12 270.11,66.18 272.45,64.19 274.79,63.38 277.13,61.32 279.47,59.31 281.81,57.54 284.15,56.22 286.49,53.87 288.83,51.90 308.33,51.31 345.00,49.80 381.67,48.67 427.50,46.38 482.50,44.00 528.33,41.34 565.00,42.26 601.67,40.29 647.50,39.02 702.50,37.28 757.50,35.73 812.50,34.14 867.50,31.65 922.50,29.21 968.33,26.65 1005.00,27.17 1041.67,25.36 1115.00,25.00"/>
<text x="15" y="287.5" transform="rotate(-90 15,287.5)" text-anchor="middle" font-family="sans-serif" font-size="12" fill="#333">USD</text>
</svg>