<svg xmlns="http://www.w3.org/2000/svg" width="1200" height="600" viewBox="0 0 1200 600">
<desc>Equity curve with drawdown fill; x-axis is months only (no exact timestamps)</desc>
<text x="600.0" y="18.0" text-anchor="middle" font-family="sans-serif" font-size="14">Portfolio 2012 (UTC)</text>
<rect x="70" y="25" width="1100" height="525" fill="white" stroke="#ccc" />
<line x1="70" y1="550.00" x2="1170" y2="550.00" stroke="#eee"/>
<text x="62" y="554.0" text-anchor="end" font-family="sans-serif" font-size="11" fill="#555">0.00</text>
<line x1="70" y1="445.00" x2="1170" y2="445.00" stroke="#eee"/>
<text x="62" y="449.0" text-anchor="end" font-family="sans-serif" font-size="11" fill="#555">65182</text>
<line x1="70" y1="340.00" x2="1170" y2="340.00" stroke="#eee"/>
<text x="62" y="344.0" text-anchor="end" font-family="sans-serif" font-size="11" fill="#555">130364</text>
<line x1="70" y1="235.00" x2="1170" y2="235.00" stroke="#eee"/>
<text x="62" y="239.0" text-anchor="end" font-family="sans-serif" font-size="11" fill="#555">195547</text>
<line x1="70" y1="130.00" x2="1170" y2="130.00" stroke="#eee"/>
<text x="62" y="134.0" text-anchor="end" font-family="sans-serif" font-size="11" fill="#555">260729</text>
<line x1="70" y1="25.00" x2="1170" y2="25.00" stroke="#eee"/>
<text x="62" y="29.0" text-anchor="end" font-family="sans-serif" font-size="11" fill="#555">325911</text>
<line x1="161.67" y1="25" x2="161.67" y2="550" stroke="#f2f2f2"/>
<line x1="253.33" y1="25" x2="253.33" y2="550" stroke="#f2f2f2"/>
<line x1="345.00" y1="25" x2="345.00" y2="550" stroke="#f2f2f2"/>
<line x1="436.67" y1="25" x2="436.67" y2="550" stroke="#f2f2f2"/>
<line x1="528.33" y1="25" x2="528.33" y2="550" stroke="#f2f2f2"/>
<line x1="620.00" y1="25" x2="620.00" y2="550" stroke="#f2f2f2"/>
<line x1="711.67" y1="25" x2="711.67" y2="550" stroke="#f2f2f2"/>
<line x1="803.33" y1="25" x2="803.33" y2="550" stroke="#f2f2f2"/>
<line x1="895.00" y1="25" x2="895.00" y2="550" stroke="#f2f2f2"/>
<line x1="986.67" y1="25" x2="986.67" y2="550" stroke="#f2f2f2"/>
<line x1="1078.33" y1="25" x2="1078.33" y2="550" stroke="#f2f2f2"/>
<text x="115.83" y="566.00" text-anchor="middle" font-family="sans-serif" font-size="11" fill="#444">Jan</text>
<text x="207.50" y="566.00" text-anchor="middle" font-family="sans-serif" font-size="11" fill="#444">Feb</text>
<text x="299.17" y="566.00" text-anchor="middle" font-family="sans-serif" font-size="11" fill="#444">Mar</text>
<text x="390.83" y="566.00" text-anchor="middle" font-family="sans-serif" font-size="11" fill="#444">Apr</text>
<text x="482.50" y="566.00" text-anchor="middle" font-family="sans-serif" font-size="11" fill="#444">May</text>
<text x="574.17" y="566.00" text-anchor="middle" font-family="sans-serif" font-size="11" fill="#444">Jun</text>
<text x="665.83" y="566.00" text-anchor="middle" font-family="sans-serif" font-size="11" fill="#444">Jul</text>
<text x="757.50" y="566.00" text-anchor="middle" font-family="sans-serif" font-size="11" fill="#444">Aug</text>
<text x="849.17" y="566.00" text-anchor="middle" font-family="sans-serif" font-size="11" fill="#444">Sep</text>
<text x="940.83" y="566.00" text-anchor="middle" font-family="sans-serif" font-size="11" fill="#444">Oct</text>
<text x="1032.50" y="566.00" text-anchor="middle" font-family="sans-serif" font-size="11" fill="#444">Nov</text>
<text x="1124.17" y="566.00" text-anchor="middle" font-family="sans-serif" font-size="11" fill="#444">Dec</text>
<line x1="70" y1="550" x2="1170" y2="550" stroke="#888"/>
<line x1="70" y1="25" x2="70" y2="550" stroke="#888"/>
<line x1="75.73" y1="550.00" x2="75.73" y2="556.00" stroke="#888"/>
<line x1="1124.17"   y1="550.00" x2="1124.17"   y2="556.00" stroke="#888"/>
<text x="75.73" y="582.00" text-anchor="start" font-family="sans-serif" font-size="11" fill="#333">Initial Balance: 313002</text>
<text x="1124.17"   y="582.00" text-anchor="end"   font-family="sans-serif" font-size="11" fill="#333">Ending Balance: 316603</text>
<path d="M 121.56 36.99 L 133.02 36.99 L 144.48 36.99 L 155.94 36.99 L 166.76 36.99 L 176.94 36.99 L 176.94 39.52 L 166.76 43.44 L 155.94 44.26 L 144.48 48.19 L 133.02 40.47 L 121.56 44.75 Z" fill="#d0d0d0" fill-opacity="0.5" stroke="none"/>
<path d="M 207.50 32.66 L 207.50 33.60 Z" fill="#d0d0d0" fill-opacity="0.5" stroke="none"/>
<path d="M 238.06 25.00 L 248.24 25.00 L 268.61 25.00 L 299.17 25.00 L 329.72 25.00 L 356.46 25.00 L 379.38 25.00 L 402.29 25.00 L 425.21 25.00 L 451.94 25.00 L 482.50 25.00 L 513.06 25.00 L 534.06 25.00 L 545.52 25.00 L 556.98 25.00 L 568.44 25.00 L 579.90 25.00 L 591.35 25.00 L 602.81 25.00 L 614.27 25.00 L 629.17 25.00 L 647.50 25.00 L 665.83 25.00 L 684.17 25.00 L 702.50 25.00 L 717.40 25.00 L 728.85 25.00 L 740.31 25.00 L 751.77 25.00 L 763.23 25.00 L 774.69 25.00 L 786.15 25.00 L 797.60 25.00 L 849.17 25.00 L 940.83 25.00 L 1001.94 25.00 L 1032.50 25.00 L 1063.06 25.00 L 1124.17 25.00 L 1124.17 39.99 L 1063.06 40.28 L 1032.50 41.38 L 1001.94 33.55 L 940.83 33.32 L 849.17 36.75 L 797.60 34.06 L 786.15 37.06 L 774.69 39.54 L 763.23 43.07 L 751.77 44.92 L 740.31 48.02 L 728.85 48.07 L 717.40 52.28 L 702.50 56.66 L 684.17 60.76 L 665.83 53.25 L 647.50 45.60 L 629.17 46.92 L 614.27 49.10 L 602.81 48.77 L 591.35 41.06 L 579.90 40.97 L 568.44 33.17 L 556.98 25.22 L 545.52 25.79 L 534.06 29.81 L 513.06 33.73 L 482.50 32.45 L 451.94 30.89 L 425.21 32.83 L 402.29 35.54 L 379.38 33.87 L 356.46 37.15 L 329.72 35.15 L 299.17 27.24 L 268.61 27.68 L 248.24 28.55 L 238.06 32.95 Z" fill="#d0d0d0" fill-opacity="0.5" stroke="none"/>
<polyline fill="none" stroke="#111" stroke-width="1.2" points="75.73,45.80 87.19,45.16 98.65,40.89 110.10,36.99 121.56,44.75 133.02,40.47 144.48,48.19 155.94,44.26 166.76,43.44 176.94,39.52 187.13,36.41 197.31,32.66 207.50,33.60 217.69,29.21 227.87,25.00 238.06,32.95 248.24,28.55 268.61,27.68 299.17,27.24 329.72,35.15 356.46,37.15 379.38,33.87 402.29,35.54 425.21,32.83 451.94,30.89 482.50,32.45 513.06,33.73 534.06,29.81 545.52,25.79 556.98,25.22 568.44,33.17 579.90,40.97 591.35,41.06 602.81,48.77 614.27,49.10 629.17,46.92 647.50,45.60 665.83,53.25 684.17,60.76 702.50,56.66 717.40,52.28 728.85,48.07 740.31,48.02 751.77,44.92 763.23,43.07 774.69,39.54 786.15,37.06 797.60,34.06 849.17,36.75 940.83,33.32 1001.94,33.55 1032.50,41.38 1063.06,40.28 1124.17,39.99"/>
<text x="620.0" y="588" text-anchor="middle" font-family="sans-serif" font-size="12" fill="#333">Monthly Balance Curve</text>
<text x="15" y="287.5" transform="rotate(-90 15,287.5)" text-anchor="middle" font-family="sans-serif" font-size="12" fill="#333">Capital</text>
</svg>