<svg xmlns="http://www.w3.org/2000/svg" width="1200" height="600" viewBox="0 0 1200 600">
<desc>Equity curve with drawdown fill; x-axis is months only (no exact timestamps)</desc>
<text x="600.0" y="18.0" text-anchor="middle" font-family="sans-serif" font-size="14">Portfolio 2025 (UTC)</text>
<rect x="70" y="25" width="1100" height="525" fill="white" stroke="#ccc" />
<line x1="70" y1="550.00" x2="1170" y2="550.00" stroke="#eee"/>
<text x="62" y="554.0" text-anchor="end" font-family="sans-serif" font-size="11" fill="#555">0.00</text>
<line x1="70" y1="445.00" x2="1170" y2="445.00" stroke="#eee"/>
<text x="62" y="449.0" text-anchor="end" font-family="sans-serif" font-size="11" fill="#555">21054</text>
<line x1="70" y1="340.00" x2="1170" y2="340.00" stroke="#eee"/>
<text x="62" y="344.0" text-anchor="end" font-family="sans-serif" font-size="11" fill="#555">42108</text>
<line x1="70" y1="235.00" x2="1170" y2="235.00" stroke="#eee"/>
<text x="62" y="239.0" text-anchor="end" font-family="sans-serif" font-size="11" fill="#555">63162</text>
<line x1="70" y1="130.00" x2="1170" y2="130.00" stroke="#eee"/>
<text x="62" y="134.0" text-anchor="end" font-family="sans-serif" font-size="11" fill="#555">84216</text>
<line x1="70" y1="25.00" x2="1170" y2="25.00" stroke="#eee"/>
<text x="62" y="29.0" text-anchor="end" font-family="sans-serif" font-size="11" fill="#555">105270</text>
<line x1="207.50" y1="25" x2="207.50" y2="550" stroke="#f2f2f2"/>
<line x1="345.00" y1="25" x2="345.00" y2="550" stroke="#f2f2f2"/>
<line x1="482.50" y1="25" x2="482.50" y2="550" stroke="#f2f2f2"/>
<line x1="620.00" y1="25" x2="620.00" y2="550" stroke="#f2f2f2"/>
<line x1="757.50" y1="25" x2="757.50" y2="550" stroke="#f2f2f2"/>
<line x1="895.00" y1="25" x2="895.00" y2="550" stroke="#f2f2f2"/>
<line x1="1032.50" y1="25" x2="1032.50" y2="550" stroke="#f2f2f2"/>
<text x="138.75" y="566.00" text-anchor="middle" font-family="sans-serif" font-size="11" fill="#444">Jan</text>
<text x="276.25" y="566.00" text-anchor="middle" font-family="sans-serif" font-size="11" fill="#444">Feb</text>
<text x="413.75" y="566.00" text-anchor="middle" font-family="sans-serif" font-size="11" fill="#444">Mar</text>
<text x="551.25" y="566.00" text-anchor="middle" font-family="sans-serif" font-size="11" fill="#444">Apr</text>
<text x="688.75" y="566.00" text-anchor="middle" font-family="sans-serif" font-size="11" fill="#444">May</text>
<text x="826.25" y="566.00" text-anchor="middle" font-family="sans-serif" font-size="11" fill="#444">Jun</text>
<text x="963.75" y="566.00" text-anchor="middle" font-family="sans-serif" font-size="11" fill="#444">Jul</text>
<text x="1101.25" y="566.00" text-anchor="middle" font-family="sans-serif" font-size="11" fill="#444">Aug</text>
<line x1="70" y1="550" x2="1170" y2="550" stroke="#888"/>
<line x1="70" y1="25" x2="70" y2="550" stroke="#888"/>
<line x1="75.73" y1="550.00" x2="75.73" y2="556.00" stroke="#888"/>
<line x1="1135.62"   y1="550.00" x2="1135.62"   y2="556.00" stroke="#888"/>
<text x="75.73" y="582.00" text-anchor="start" font-family="sans-serif" font-size="11" fill="#333">Initial Balance: 100000</text>
<text x="1135.62"   y="582.00" text-anchor="end"   font-family="sans-serif" font-size="11" fill="#333">Ending Balance: 103142</text>
<path d="M 98.65 49.67 L 110.10 49.67 L 121.56 49.67 L 133.02 49.67 L 133.02 51.80 L 121.56 52.94 L 110.10 55.05 L 98.65 54.81 Z" fill="#d0d0d0" fill-opacity="0.5" stroke="none"/>
<path d="M 356.46 30.83 L 379.38 30.83 L 402.29 30.83 L 402.29 31.50 L 379.38 33.69 L 356.46 36.16 Z" fill="#d0d0d0" fill-opacity="0.5" stroke="none"/>
<path d="M 485.94 26.19 L 492.81 26.19 L 499.69 26.19 L 506.56 26.19 L 513.44 26.19 L 520.31 26.19 L 527.19 26.19 L 534.06 26.19 L 540.94 26.19 L 547.81 26.19 L 554.69 26.19 L 554.69 26.49 L 547.81 29.47 L 540.94 31.33 L 534.06 31.50 L 527.19 33.10 L 520.31 33.92 L 513.44 31.96 L 506.56 26.70 L 499.69 29.75 L 492.81 29.84 L 485.94 31.56 Z" fill="#d0d0d0" fill-opacity="0.5" stroke="none"/>
<path d="M 568.44 25.00 L 575.31 25.00 L 582.19 25.00 L 589.06 25.00 L 595.94 25.00 L 602.81 25.00 L 609.69 25.00 L 616.56 25.00 L 633.75 25.00 L 661.25 25.00 L 688.75 25.00 L 716.25 25.00 L 743.75 25.00 L 780.42 25.00 L 826.25 25.00 L 872.08 25.00 L 908.75 25.00 L 936.25 25.00 L 963.75 25.00 L 991.25 25.00 L 1018.75 25.00 L 1066.88 25.00 L 1135.62 25.00 L 1135.62 35.62 L 1066.88 37.75 L 1018.75 40.05 L 991.25 34.78 L 963.75 36.98 L 936.25 39.30 L 908.75 34.08 L 872.08 37.00 L 826.25 39.53 L 780.42 41.71 L 743.75 44.20 L 716.25 38.97 L 688.75 41.40 L 661.25 36.14 L 633.75 38.72 L 616.56 33.43 L 609.69 34.12 L 602.81 28.78 L 595.94 30.11 L 589.06 32.68 L 582.19 32.58 L 575.31 27.32 L 568.44 30.38 Z" fill="#d0d0d0" fill-opacity="0.5" stroke="none"/>
<polyline fill="none" stroke="#111" stroke-width="1.2" points="75.73,51.28 87.19,49.67 98.65,54.81 110.10,55.05 121.56,52.94 133.02,51.80 144.48,49.14 155.94,46.83 167.40,44.13 178.85,41.43 190.31,40.47 201.77,38.03 230.42,36.04 276.25,33.58 322.08,30.83 356.46,36.16 379.38,33.69 402.29,31.50 425.21,29.51 448.12,28.09 471.04,26.19 485.94,31.56 492.81,29.84 499.69,29.75 506.56,26.70 513.44,31.96 520.31,33.92 527.19,33.10 534.06,31.50 540.94,31.33 547.81,29.47 554.69,26.49 561.56,25.00 568.44,30.38 575.31,27.32 582.19,32.58 589.06,32.68 595.94,30.11 602.81,28.78 609.69,34.12 616.56,33.43 633.75,38.72 661.25,36.14 688.75,41.40 716.25,38.97 743.75,44.20 780.42,41.71 826.25,39.53 872.08,37.00 908.75,34.08 936.25,39.30 963.75,36.98 991.25,34.78 1018.75,40.05 1066.88,37.75 1135.62,35.62"/>
<text x="620.0" y="588" text-anchor="middle" font-family="sans-serif" font-size="12" fill="#333">Monthly Balance Curve</text>
<text x="15" y="287.5" transform="rotate(-90 15,287.5)" text-anchor="middle" font-family="sans-serif" font-size="12" fill="#333">Capital</text>
</svg>