<svg xmlns="http://www.w3.org/2000/svg" width="1200" height="600" viewBox="0 0 1200 600">
<desc>Equity curve with drawdown fill; x-axis is months only (no exact timestamps)</desc>
<text x="600.0" y="18.0" text-anchor="middle" font-family="sans-serif" font-size="14">Portfolio 2009 (UTC)</text>
<rect x="70" y="25" width="1100" height="525" fill="white" stroke="#ccc" />
<line x1="70" y1="550.00" x2="1170" y2="550.00" stroke="#eee"/>
<text x="62" y="554.0" text-anchor="end" font-family="sans-serif" font-size="11" fill="#555">0.00</text>
<line x1="70" y1="445.00" x2="1170" y2="445.00" stroke="#eee"/>
<text x="62" y="449.0" text-anchor="end" font-family="sans-serif" font-size="11" fill="#555">24774</text>
<line x1="70" y1="340.00" x2="1170" y2="340.00" stroke="#eee"/>
<text x="62" y="344.0" text-anchor="end" font-family="sans-serif" font-size="11" fill="#555">49548</text>
<line x1="70" y1="235.00" x2="1170" y2="235.00" stroke="#eee"/>
<text x="62" y="239.0" text-anchor="end" font-family="sans-serif" font-size="11" fill="#555">74322</text>
<line x1="70" y1="130.00" x2="1170" y2="130.00" stroke="#eee"/>
<text x="62" y="134.0" text-anchor="end" font-family="sans-serif" font-size="11" fill="#555">99096</text>
<line x1="70" y1="25.00" x2="1170" y2="25.00" stroke="#eee"/>
<text x="62" y="29.0" text-anchor="end" font-family="sans-serif" font-size="11" fill="#555">123870</text>
<line x1="161.67" y1="25" x2="161.67" y2="550" stroke="#f2f2f2"/>
<line x1="253.33" y1="25" x2="253.33" y2="550" stroke="#f2f2f2"/>
<line x1="345.00" y1="25" x2="345.00" y2="550" stroke="#f2f2f2"/>
<line x1="436.67" y1="25" x2="436.67" y2="550" stroke="#f2f2f2"/>
<line x1="528.33" y1="25" x2="528.33" y2="550" stroke="#f2f2f2"/>
<line x1="620.00" y1="25" x2="620.00" y2="550" stroke="#f2f2f2"/>
<line x1="711.67" y1="25" x2="711.67" y2="550" stroke="#f2f2f2"/>
<line x1="803.33" y1="25" x2="803.33" y2="550" stroke="#f2f2f2"/>
<line x1="895.00" y1="25" x2="895.00" y2="550" stroke="#f2f2f2"/>
<line x1="986.67" y1="25" x2="986.67" y2="550" stroke="#f2f2f2"/>
<line x1="1078.33" y1="25" x2="1078.33" y2="550" stroke="#f2f2f2"/>
<text x="115.83" y="566.00" text-anchor="middle" font-family="sans-serif" font-size="11" fill="#444">Jan</text>
<text x="207.50" y="566.00" text-anchor="middle" font-family="sans-serif" font-size="11" fill="#444">Feb</text>
<text x="299.17" y="566.00" text-anchor="middle" font-family="sans-serif" font-size="11" fill="#444">Mar</text>
<text x="390.83" y="566.00" text-anchor="middle" font-family="sans-serif" font-size="11" fill="#444">Apr</text>
<text x="482.50" y="566.00" text-anchor="middle" font-family="sans-serif" font-size="11" fill="#444">May</text>
<text x="574.17" y="566.00" text-anchor="middle" font-family="sans-serif" font-size="11" fill="#444">Jun</text>
<text x="665.83" y="566.00" text-anchor="middle" font-family="sans-serif" font-size="11" fill="#444">Jul</text>
<text x="757.50" y="566.00" text-anchor="middle" font-family="sans-serif" font-size="11" fill="#444">Aug</text>
<text x="849.17" y="566.00" text-anchor="middle" font-family="sans-serif" font-size="11" fill="#444">Sep</text>
<text x="940.83" y="566.00" text-anchor="middle" font-family="sans-serif" font-size="11" fill="#444">Oct</text>
<text x="1032.50" y="566.00" text-anchor="middle" font-family="sans-serif" font-size="11" fill="#444">Nov</text>
<text x="1124.17" y="566.00" text-anchor="middle" font-family="sans-serif" font-size="11" fill="#444">Dec</text>
<line x1="70" y1="550" x2="1170" y2="550" stroke="#888"/>
<line x1="70" y1="25" x2="70" y2="550" stroke="#888"/>
<line x1="70.72" y1="550.00" x2="70.72" y2="556.00" stroke="#888"/>
<line x1="1164.27"   y1="550.00" x2="1164.27"   y2="556.00" stroke="#888"/>
<text x="70.72" y="582.00" text-anchor="start" font-family="sans-serif" font-size="11" fill="#333">Initial Balance: 100000</text>
<text x="1164.27"   y="582.00" text-anchor="end"   font-family="sans-serif" font-size="11" fill="#333">Ending Balance: 122692</text>
<path d="M 77.88 120.18 L 79.31 120.18 L 80.74 120.18 L 82.17 120.18 L 83.61 120.18 L 85.04 120.18 L 86.47 120.18 L 87.90 120.18 L 89.34 120.18 L 90.77 120.18 L 92.20 120.18 L 93.63 120.18 L 93.63 121.09 L 92.20 122.91 L 90.77 125.32 L 89.34 127.46 L 87.90 128.14 L 86.47 123.84 L 85.04 125.97 L 83.61 128.29 L 82.17 130.66 L 80.74 133.02 L 79.31 128.77 L 77.88 124.51 Z" fill="#d0d0d0" fill-opacity="0.5" stroke="none"/>
<path d="M 113.68 97.06 L 115.12 97.06 L 115.12 97.16 L 113.68 97.94 Z" fill="#d0d0d0" fill-opacity="0.5" stroke="none"/>
<path d="M 120.85 89.83 L 122.28 89.83 L 123.71 89.83 L 125.14 89.83 L 126.58 89.83 L 128.01 89.83 L 128.01 90.78 L 126.58 93.33 L 125.14 95.90 L 123.71 96.75 L 122.28 92.14 L 120.85 94.46 Z" fill="#d0d0d0" fill-opacity="0.5" stroke="none"/>
<path d="M 133.74 85.15 L 135.17 85.15 L 136.60 85.15 L 138.03 85.15 L 139.47 85.15 L 140.90 85.15 L 142.33 85.15 L 143.76 85.15 L 145.20 85.15 L 146.63 85.15 L 148.06 85.15 L 149.49 85.15 L 150.92 85.15 L 150.92 86.29 L 149.49 88.90 L 148.06 91.48 L 146.63 93.16 L 145.20 95.73 L 143.76 97.28 L 142.33 92.67 L 140.90 95.17 L 139.47 90.57 L 138.03 92.61 L 136.60 95.04 L 135.17 90.43 L 133.74 89.81 Z" fill="#d0d0d0" fill-opacity="0.5" stroke="none"/>
<path d="M 155.22 82.34 L 156.65 82.34 L 158.09 82.34 L 159.52 82.34 L 160.95 82.34 L 162.98 82.34 L 165.60 82.34 L 168.21 82.34 L 170.83 82.34 L 173.45 82.34 L 173.45 83.40 L 170.83 85.44 L 168.21 87.76 L 165.60 89.06 L 162.98 84.38 L 160.95 86.75 L 159.52 89.33 L 158.09 90.20 L 156.65 91.67 L 155.22 87.03 Z" fill="#d0d0d0" fill-opacity="0.5" stroke="none"/>
<path d="M 181.31 79.01 L 183.93 79.01 L 186.55 79.01 L 189.17 79.01 L 191.79 79.01 L 194.40 79.01 L 197.02 79.01 L 199.64 79.01 L 202.26 79.01 L 204.88 79.01 L 207.50 79.01 L 210.12 79.01 L 210.12 80.20 L 207.50 82.81 L 204.88 83.12 L 202.26 85.52 L 199.64 87.95 L 197.02 89.66 L 194.40 85.02 L 191.79 87.71 L 189.17 83.02 L 186.55 84.68 L 183.93 85.07 L 181.31 80.36 Z" fill="#d0d0d0" fill-opacity="0.5" stroke="none"/>
<path d="M 231.07 67.37 L 233.69 67.37 L 236.31 67.37 L 238.93 67.37 L 241.55 67.37 L 244.17 67.37 L 246.79 67.37 L 249.40 67.37 L 252.02 67.37 L 254.64 67.37 L 257.26 67.37 L 259.88 67.37 L 262.50 67.37 L 265.12 67.37 L 267.74 67.37 L 270.36 67.37 L 272.98 67.37 L 275.60 67.37 L 278.21 67.37 L 280.83 67.37 L 283.45 67.37 L 286.07 67.37 L 288.69 67.37 L 291.31 67.37 L 293.93 67.37 L 296.55 67.37 L 299.17 67.37 L 301.79 67.37 L 304.40 67.37 L 307.02 67.37 L 309.64 67.37 L 312.26 67.37 L 314.88 67.37 L 317.50 67.37 L 320.12 67.37 L 322.74 67.37 L 325.36 67.37 L 327.98 67.37 L 330.60 67.37 L 333.21 67.37 L 335.83 67.37 L 338.45 67.37 L 341.07 67.37 L 343.69 67.37 L 347.29 67.37 L 351.88 67.37 L 356.46 67.37 L 361.04 67.37 L 365.62 67.37 L 370.21 67.37 L 374.79 67.37 L 379.38 67.37 L 383.96 67.37 L 388.54 67.37 L 393.12 67.37 L 397.71 67.37 L 402.29 67.37 L 406.88 67.37 L 411.46 67.37 L 416.04 67.37 L 420.62 67.37 L 425.21 67.37 L 429.79 67.37 L 434.38 67.37 L 440.19 67.37 L 447.24 67.37 L 454.29 67.37 L 461.35 67.37 L 468.40 67.37 L 475.45 67.37 L 482.50 67.37 L 482.50 69.36 L 475.45 72.06 L 468.40 74.41 L 461.35 77.08 L 454.29 79.73 L 447.24 82.37 L 440.19 84.07 L 434.38 86.34 L 429.79 88.95 L 425.21 84.26 L 420.62 83.09 L 416.04 84.72 L 411.46 85.71 L 406.88 87.76 L 402.29 89.48 L 397.71 84.79 L 393.12 87.41 L 388.54 85.95 L 383.96 88.05 L 379.38 89.86 L 374.79 85.19 L 370.21 85.80 L 365.62 88.41 L 361.04 90.25 L 356.46 90.93 L 351.88 92.88 L 347.29 95.18 L 343.69 97.74 L 341.07 99.18 L 338.45 101.48 L 335.83 103.36 L 333.21 98.83 L 330.60 94.25 L 327.98 96.27 L 325.36 97.55 L 322.74 99.95 L 320.12 95.36 L 317.50 95.73 L 314.88 97.08 L 312.26 97.72 L 309.64 93.12 L 307.02 95.50 L 304.40 97.18 L 301.79 92.60 L 299.17 87.96 L 296.55 90.41 L 293.93 85.75 L 291.31 87.95 L 288.69 90.26 L 286.07 90.86 L 283.45 91.66 L 280.83 93.56 L 278.21 95.55 L 275.60 96.05 L 272.98 91.43 L 270.36 93.30 L 267.74 92.46 L 265.12 87.80 L 262.50 89.22 L 259.88 90.91 L 257.26 86.24 L 254.64 87.74 L 252.02 89.79 L 249.40 85.12 L 246.79 80.40 L 244.17 82.20 L 241.55 83.79 L 238.93 86.40 L 236.31 81.72 L 233.69 76.97 L 231.07 72.17 Z" fill="#d0d0d0" fill-opacity="0.5" stroke="none"/>
<path d="M 510.71 63.52 L 517.76 63.52 L 524.81 63.52 L 531.61 63.52 L 538.15 63.52 L 544.70 63.52 L 551.25 63.52 L 557.80 63.52 L 564.35 63.52 L 570.89 63.52 L 577.44 63.52 L 583.99 63.52 L 590.54 63.52 L 597.08 63.52 L 603.63 63.52 L 610.18 63.52 L 616.73 63.52 L 625.09 63.52 L 635.28 63.52 L 645.46 63.52 L 645.46 64.06 L 635.28 64.59 L 625.09 66.04 L 616.73 68.76 L 610.18 68.66 L 603.63 71.37 L 597.08 72.51 L 590.54 73.19 L 583.99 74.51 L 577.44 76.93 L 570.89 79.40 L 564.35 74.63 L 557.80 76.84 L 551.25 72.05 L 544.70 74.74 L 538.15 76.18 L 531.61 77.90 L 524.81 73.10 L 517.76 68.28 L 510.71 68.40 Z" fill="#d0d0d0" fill-opacity="0.5" stroke="none"/>
<path d="M 696.39 56.78 L 706.57 56.78 L 726.94 56.78 L 757.50 56.78 L 757.50 57.16 L 726.94 59.93 L 706.57 61.69 L 696.39 61.71 Z" fill="#d0d0d0" fill-opacity="0.5" stroke="none"/>
<path d="M 809.06 56.05 L 820.52 56.05 L 831.98 56.05 L 831.98 56.64 L 820.52 59.41 L 809.06 60.99 Z" fill="#d0d0d0" fill-opacity="0.5" stroke="none"/>
<path d="M 877.81 50.83 L 889.27 50.83 L 901.55 50.83 L 914.64 50.83 L 914.64 52.16 L 901.55 54.56 L 889.27 54.05 L 877.81 55.79 Z" fill="#d0d0d0" fill-opacity="0.5" stroke="none"/>
<path d="M 1055.42 33.79 L 1070.69 33.79 L 1084.06 33.79 L 1084.06 35.10 L 1070.69 37.78 L 1055.42 38.92 Z" fill="#d0d0d0" fill-opacity="0.5" stroke="none"/>
<path d="M 1152.81 25.00 L 1164.27 25.00 L 1164.27 29.99 L 1152.81 30.20 Z" fill="#d0d0d0" fill-opacity="0.5" stroke="none"/>
<polyline fill="none" stroke="#111" stroke-width="1.2" points="70.72,126.17 72.15,125.89 73.58,124.84 75.01,122.61 76.45,120.18 77.88,124.51 79.31,128.77 80.74,133.02 82.17,130.66 83.61,128.29 85.04,125.97 86.47,123.84 87.90,128.14 89.34,127.46 90.77,125.32 92.20,122.91 93.63,121.09 95.07,119.61 96.50,117.06 97.93,116.93 99.36,114.47 100.79,112.00 102.23,109.88 103.66,108.27 105.09,106.31 106.52,104.04 107.96,101.69 109.39,99.53 110.82,97.34 112.25,97.06 113.68,97.94 115.12,97.16 116.55,94.76 117.98,92.42 119.41,89.83 120.85,94.46 122.28,92.14 123.71,96.75 125.14,95.90 126.58,93.33 128.01,90.78 129.44,89.08 130.87,86.71 132.30,85.15 133.74,89.81 135.17,90.43 136.60,95.04 138.03,92.61 139.47,90.57 140.90,95.17 142.33,92.67 143.76,97.28 145.20,95.73 146.63,93.16 148.06,91.48 149.49,88.90 150.92,86.29 152.36,83.69 153.79,82.34 155.22,87.03 156.65,91.67 158.09,90.20 159.52,89.33 160.95,86.75 162.98,84.38 165.60,89.06 168.21,87.76 170.83,85.44 173.45,83.40 176.07,81.28 178.69,79.01 181.31,80.36 183.93,85.07 186.55,84.68 189.17,83.02 191.79,87.71 194.40,85.02 197.02,89.66 199.64,87.95 202.26,85.52 204.88,83.12 207.50,82.81 210.12,80.20 212.74,77.56 215.36,77.06 217.98,74.61 220.60,73.89 223.21,72.30 225.83,70.16 228.45,67.37 231.07,72.17 233.69,76.97 236.31,81.72 238.93,86.40 241.55,83.79 244.17,82.20 246.79,80.40 249.40,85.12 252.02,89.79 254.64,87.74 257.26,86.24 259.88,90.91 262.50,89.22 265.12,87.80 267.74,92.46 270.36,93.30 272.98,91.43 275.60,96.05 278.21,95.55 280.83,93.56 283.45,91.66 286.07,90.86 288.69,90.26 291.31,87.95 293.93,85.75 296.55,90.41 299.17,87.96 301.79,92.60 304.40,97.18 307.02,95.50 309.64,93.12 312.26,97.72 314.88,97.08 317.50,95.73 320.12,95.36 322.74,99.95 325.36,97.55 327.98,96.27 330.60,94.25 333.21,98.83 335.83,103.36 338.45,101.48 341.07,99.18 343.69,97.74 347.29,95.18 351.88,92.88 356.46,90.93 361.04,90.25 365.62,88.41 370.21,85.80 374.79,85.19 379.38,89.86 383.96,88.05 388.54,85.95 393.12,87.41 397.71,84.79 402.29,89.48 406.88,87.76 411.46,85.71 416.04,84.72 420.62,83.09 425.21,84.26 429.79,88.95 434.38,86.34 440.19,84.07 447.24,82.37 454.29,79.73 461.35,77.08 468.40,74.41 475.45,72.06 482.50,69.36 489.55,66.65 496.60,65.26 503.65,63.52 510.71,68.40 517.76,68.28 524.81,73.10 531.61,77.90 538.15,76.18 544.70,74.74 551.25,72.05 557.80,76.84 564.35,74.63 570.89,79.40 577.44,76.93 583.99,74.51 590.54,73.19 597.08,72.51 603.63,71.37 610.18,68.66 616.73,68.76 625.09,66.04 635.28,64.59 645.46,64.06 655.65,61.32 665.83,59.68 676.02,57.17 686.20,56.78 696.39,61.71 706.57,61.69 726.94,59.93 757.50,57.16 788.06,56.05 809.06,60.99 820.52,59.41 831.98,56.64 843.44,56.04 854.90,53.72 866.35,50.83 877.81,55.79 889.27,54.05 901.55,54.56 914.64,52.16 927.74,49.82 940.83,48.24 953.93,46.86 967.02,44.60 980.12,42.36 994.31,40.76 1009.58,37.89 1024.86,35.88 1040.14,33.79 1055.42,38.92 1070.69,37.78 1084.06,35.10 1095.52,33.59 1106.98,31.28 1118.44,29.19 1129.90,26.53 1141.35,25.00 1152.81,30.20 1164.27,29.99"/>
<text x="620.0" y="588" text-anchor="middle" font-family="sans-serif" font-size="12" fill="#333">Monthly Balance Curve</text>
<text x="15" y="287.5" transform="rotate(-90 15,287.5)" text-anchor="middle" font-family="sans-serif" font-size="12" fill="#333">Capital</text>
</svg>