<svg xmlns="http://www.w3.org/2000/svg" width="1200" height="600" viewBox="0 0 1200 600">
<desc>Equity curve with drawdown fill; x-axis is months only (no exact timestamps)</desc>
<text x="600.0" y="18.0" text-anchor="middle" font-family="sans-serif" font-size="14">Balance Curve 2022 (UTC)</text>
<rect x="70" y="25" width="1100" height="525" fill="white" stroke="#ccc" />
<line x1="70" y1="550.00" x2="1170" y2="550.00" stroke="#eee"/>
<text x="62" y="554.0" text-anchor="end" font-family="sans-serif" font-size="11" fill="#555">0.00</text>
<line x1="70" y1="445.00" x2="1170" y2="445.00" stroke="#eee"/>
<text x="62" y="449.0" text-anchor="end" font-family="sans-serif" font-size="11" fill="#555">70593</text>
<line x1="70" y1="340.00" x2="1170" y2="340.00" stroke="#eee"/>
<text x="62" y="344.0" text-anchor="end" font-family="sans-serif" font-size="11" fill="#555">141185</text>
<line x1="70" y1="235.00" x2="1170" y2="235.00" stroke="#eee"/>
<text x="62" y="239.0" text-anchor="end" font-family="sans-serif" font-size="11" fill="#555">211778</text>
<line x1="70" y1="130.00" x2="1170" y2="130.00" stroke="#eee"/>
<text x="62" y="134.0" text-anchor="end" font-family="sans-serif" font-size="11" fill="#555">282371</text>
<line x1="70" y1="25.00" x2="1170" y2="25.00" stroke="#eee"/>
<text x="62" y="29.0" text-anchor="end" font-family="sans-serif" font-size="11" fill="#555">352963</text>
<line x1="161.67" y1="25" x2="161.67" y2="550" stroke="#f2f2f2"/>
<line x1="253.33" y1="25" x2="253.33" y2="550" stroke="#f2f2f2"/>
<line x1="345.00" y1="25" x2="345.00" y2="550" stroke="#f2f2f2"/>
<line x1="436.67" y1="25" x2="436.67" y2="550" stroke="#f2f2f2"/>
<line x1="528.33" y1="25" x2="528.33" y2="550" stroke="#f2f2f2"/>
<line x1="620.00" y1="25" x2="620.00" y2="550" stroke="#f2f2f2"/>
<line x1="711.67" y1="25" x2="711.67" y2="550" stroke="#f2f2f2"/>
<line x1="803.33" y1="25" x2="803.33" y2="550" stroke="#f2f2f2"/>
<line x1="895.00" y1="25" x2="895.00" y2="550" stroke="#f2f2f2"/>
<line x1="986.67" y1="25" x2="986.67" y2="550" stroke="#f2f2f2"/>
<line x1="1078.33" y1="25" x2="1078.33" y2="550" stroke="#f2f2f2"/>
<text x="115.83" y="566.00" text-anchor="middle" font-family="sans-serif" font-size="11" fill="#444">Jan</text>
<text x="207.50" y="566.00" text-anchor="middle" font-family="sans-serif" font-size="11" fill="#444">Feb</text>
<text x="299.17" y="566.00" text-anchor="middle" font-family="sans-serif" font-size="11" fill="#444">Mar</text>
<text x="390.83" y="566.00" text-anchor="middle" font-family="sans-serif" font-size="11" fill="#444">Apr</text>
<text x="482.50" y="566.00" text-anchor="middle" font-family="sans-serif" font-size="11" fill="#444">May</text>
<text x="574.17" y="566.00" text-anchor="middle" font-family="sans-serif" font-size="11" fill="#444">Jun</text>
<text x="665.83" y="566.00" text-anchor="middle" font-family="sans-serif" font-size="11" fill="#444">Jul</text>
<text x="757.50" y="566.00" text-anchor="middle" font-family="sans-serif" font-size="11" fill="#444">Aug</text>
<text x="849.17" y="566.00" text-anchor="middle" font-family="sans-serif" font-size="11" fill="#444">Sep</text>
<text x="940.83" y="566.00" text-anchor="middle" font-family="sans-serif" font-size="11" fill="#444">Oct</text>
<text x="1032.50" y="566.00" text-anchor="middle" font-family="sans-serif" font-size="11" fill="#444">Nov</text>
<text x="1124.17" y="566.00" text-anchor="middle" font-family="sans-serif" font-size="11" fill="#444">Dec</text>
<line x1="70" y1="550" x2="1170" y2="550" stroke="#888"/>
<line x1="70" y1="25" x2="70" y2="550" stroke="#888"/>
<line x1="115.83" y1="550.00" x2="115.83" y2="556.00" stroke="#888"/>
<line x1="1160.83"   y1="550.00" x2="1160.83"   y2="556.00" stroke="#888"/>
<text x="115.83" y="582.00" text-anchor="start" font-family="sans-serif" font-size="11" fill="#333">Initial Balance: 331098</text>
<text x="1160.83"   y="582.00" text-anchor="end"   font-family="sans-serif" font-size="11" fill="#333">Ending Balance: 352963</text>
<path d="M 288.98 44.34 L 299.17 44.34 L 309.35 44.34 L 319.54 44.34 L 319.54 46.17 L 309.35 47.81 L 299.17 47.08 L 288.98 49.49 Z" fill="#d0d0d0" fill-opacity="0.5" stroke="none"/>
<path d="M 339.91 43.75 L 351.55 43.75 L 364.64 43.75 L 377.74 43.75 L 390.83 43.75 L 403.93 43.75 L 417.02 43.75 L 430.12 43.75 L 443.21 43.75 L 456.31 43.75 L 469.40 43.75 L 482.50 43.75 L 495.60 43.75 L 508.69 43.75 L 521.79 43.75 L 521.79 44.39 L 508.69 46.49 L 495.60 47.16 L 482.50 49.76 L 469.40 50.48 L 456.31 52.55 L 443.21 54.58 L 430.12 52.85 L 417.02 54.55 L 403.93 54.25 L 390.83 56.82 L 377.74 51.74 L 364.64 53.28 L 351.55 48.17 L 339.91 48.91 Z" fill="#d0d0d0" fill-opacity="0.5" stroke="none"/>
<path d="M 608.54 39.19 L 608.54 39.55 Z" fill="#d0d0d0" fill-opacity="0.5" stroke="none"/>
<path d="M 661.25 32.59 L 670.42 32.59 L 679.58 32.59 L 688.75 32.59 L 697.92 32.59 L 707.08 32.59 L 716.76 32.59 L 726.94 32.59 L 737.13 32.59 L 737.13 35.06 L 726.94 35.01 L 716.76 37.65 L 707.08 39.73 L 697.92 34.47 L 688.75 34.80 L 679.58 35.16 L 670.42 35.22 L 661.25 37.86 Z" fill="#d0d0d0" fill-opacity="0.5" stroke="none"/>
<path d="M 757.50 32.21 L 767.69 32.21 L 777.87 32.21 L 788.06 32.21 L 798.24 32.21 L 805.52 32.21 L 809.88 32.21 L 814.25 32.21 L 818.61 32.21 L 822.98 32.21 L 827.34 32.21 L 831.71 32.21 L 836.07 32.21 L 840.44 32.21 L 844.80 32.21 L 849.17 32.21 L 853.53 32.21 L 857.90 32.21 L 862.26 32.21 L 866.63 32.21 L 870.99 32.21 L 875.36 32.21 L 879.72 32.21 L 884.09 32.21 L 888.45 32.21 L 892.82 32.21 L 897.55 32.21 L 902.64 32.21 L 907.73 32.21 L 912.82 32.21 L 917.92 32.21 L 917.92 34.78 L 912.82 36.69 L 907.73 39.28 L 902.64 41.88 L 897.55 43.56 L 892.82 43.70 L 888.45 46.28 L 884.09 41.08 L 879.72 42.89 L 875.36 37.70 L 870.99 39.41 L 866.63 41.52 L 862.26 43.97 L 857.90 46.36 L 853.53 48.82 L 849.17 43.70 L 844.80 38.48 L 840.44 41.07 L 836.07 43.66 L 831.71 45.97 L 827.34 43.68 L 822.98 38.52 L 818.61 41.34 L 814.25 36.10 L 809.88 37.91 L 805.52 37.52 L 798.24 32.24 L 788.06 34.89 L 777.87 36.58 L 767.69 38.32 L 757.50 37.43 Z" fill="#d0d0d0" fill-opacity="0.5" stroke="none"/>
<path d="M 938.29 26.89 L 943.38 26.89 L 948.47 26.89 L 953.56 26.89 L 958.66 26.89 L 963.75 26.89 L 968.84 26.89 L 973.94 26.89 L 979.03 26.89 L 984.12 26.89 L 992.40 26.89 L 1003.85 26.89 L 1015.31 26.89 L 1026.77 26.89 L 1038.23 26.89 L 1049.69 26.89 L 1061.15 26.89 L 1072.60 26.89 L 1087.50 26.89 L 1105.83 26.89 L 1124.17 26.89 L 1142.50 26.89 L 1142.50 27.71 L 1124.17 29.75 L 1105.83 31.00 L 1087.50 29.94 L 1072.60 32.61 L 1061.15 34.87 L 1049.69 36.72 L 1038.23 38.58 L 1026.77 33.32 L 1015.31 33.77 L 1003.85 28.46 L 992.40 30.97 L 984.12 31.37 L 979.03 33.34 L 973.94 33.63 L 968.84 36.26 L 963.75 37.98 L 958.66 40.02 L 953.56 40.37 L 948.47 35.11 L 943.38 37.41 L 938.29 32.17 Z" fill="#d0d0d0" fill-opacity="0.5" stroke="none"/>
<polyline fill="none" stroke="#111" stroke-width="1.2" points="115.83,57.52 170.83,55.77 189.17,53.96 207.50,53.49 225.83,51.46 244.17,49.12 258.43,46.50 268.61,45.35 278.80,44.34 288.98,49.49 299.17,47.08 309.35,47.81 319.54,46.17 329.72,43.75 339.91,48.91 351.55,48.17 364.64,53.28 377.74,51.74 390.83,56.82 403.93,54.25 417.02,54.55 430.12,52.85 443.21,54.58 456.31,52.55 469.40,50.48 482.50,49.76 495.60,47.16 508.69,46.49 521.79,44.39 539.79,42.94 562.71,40.62 585.62,39.19 608.54,39.55 624.58,38.99 633.75,37.87 642.92,35.23 652.08,32.59 661.25,37.86 670.42,35.22 679.58,35.16 688.75,34.80 697.92,34.47 707.08,39.73 716.76,37.65 726.94,35.01 737.13,35.06 747.31,32.21 757.50,37.43 767.69,38.32 777.87,36.58 788.06,34.89 798.24,32.24 805.52,37.52 809.88,37.91 814.25,36.10 818.61,41.34 822.98,38.52 827.34,43.68 831.71,45.97 836.07,43.66 840.44,41.07 844.80,38.48 849.17,43.70 853.53,48.82 857.90,46.36 862.26,43.97 866.63,41.52 870.99,39.41 875.36,37.70 879.72,42.89 884.09,41.08 888.45,46.28 892.82,43.70 897.55,43.56 902.64,41.88 907.73,39.28 912.82,36.69 917.92,34.78 923.01,32.15 928.10,29.75 933.19,26.89 938.29,32.17 943.38,37.41 948.47,35.11 953.56,40.37 958.66,40.02 963.75,37.98 968.84,36.26 973.94,33.63 979.03,33.34 984.12,31.37 992.40,30.97 1003.85,28.46 1015.31,33.77 1026.77,33.32 1038.23,38.58 1049.69,36.72 1061.15,34.87 1072.60,32.61 1087.50,29.94 1105.83,31.00 1124.17,29.75 1142.50,27.71 1160.83,25.00"/>
<text x="15" y="287.5" transform="rotate(-90 15,287.5)" text-anchor="middle" font-family="sans-serif" font-size="12" fill="#333">USD</text>
</svg>