<svg xmlns="http://www.w3.org/2000/svg" width="1200" height="600" viewBox="0 0 1200 600">
<desc>Equity curve with drawdown fill; x-axis is months only (no exact timestamps)</desc>
<text x="600.0" y="18.0" text-anchor="middle" font-family="sans-serif" font-size="14">Portfolio 2009 (UTC)</text>
<rect x="70" y="25" width="1100" height="525" fill="white" stroke="#ccc" />
<line x1="70" y1="550.00" x2="1170" y2="550.00" stroke="#eee"/>
<text x="62" y="554.0" text-anchor="end" font-family="sans-serif" font-size="11" fill="#555">0.00</text>
<line x1="70" y1="445.00" x2="1170" y2="445.00" stroke="#eee"/>
<text x="62" y="449.0" text-anchor="end" font-family="sans-serif" font-size="11" fill="#555">29559</text>
<line x1="70" y1="340.00" x2="1170" y2="340.00" stroke="#eee"/>
<text x="62" y="344.0" text-anchor="end" font-family="sans-serif" font-size="11" fill="#555">59118</text>
<line x1="70" y1="235.00" x2="1170" y2="235.00" stroke="#eee"/>
<text x="62" y="239.0" text-anchor="end" font-family="sans-serif" font-size="11" fill="#555">88677</text>
<line x1="70" y1="130.00" x2="1170" y2="130.00" stroke="#eee"/>
<text x="62" y="134.0" text-anchor="end" font-family="sans-serif" font-size="11" fill="#555">118236</text>
<line x1="70" y1="25.00" x2="1170" y2="25.00" stroke="#eee"/>
<text x="62" y="29.0" text-anchor="end" font-family="sans-serif" font-size="11" fill="#555">147795</text>
<line x1="161.67" y1="25" x2="161.67" y2="550" stroke="#f2f2f2"/>
<line x1="253.33" y1="25" x2="253.33" y2="550" stroke="#f2f2f2"/>
<line x1="345.00" y1="25" x2="345.00" y2="550" stroke="#f2f2f2"/>
<line x1="436.67" y1="25" x2="436.67" y2="550" stroke="#f2f2f2"/>
<line x1="528.33" y1="25" x2="528.33" y2="550" stroke="#f2f2f2"/>
<line x1="620.00" y1="25" x2="620.00" y2="550" stroke="#f2f2f2"/>
<line x1="711.67" y1="25" x2="711.67" y2="550" stroke="#f2f2f2"/>
<line x1="803.33" y1="25" x2="803.33" y2="550" stroke="#f2f2f2"/>
<line x1="895.00" y1="25" x2="895.00" y2="550" stroke="#f2f2f2"/>
<line x1="986.67" y1="25" x2="986.67" y2="550" stroke="#f2f2f2"/>
<line x1="1078.33" y1="25" x2="1078.33" y2="550" stroke="#f2f2f2"/>
<text x="115.83" y="566.00" text-anchor="middle" font-family="sans-serif" font-size="11" fill="#444">Jan</text>
<text x="207.50" y="566.00" text-anchor="middle" font-family="sans-serif" font-size="11" fill="#444">Feb</text>
<text x="299.17" y="566.00" text-anchor="middle" font-family="sans-serif" font-size="11" fill="#444">Mar</text>
<text x="390.83" y="566.00" text-anchor="middle" font-family="sans-serif" font-size="11" fill="#444">Apr</text>
<text x="482.50" y="566.00" text-anchor="middle" font-family="sans-serif" font-size="11" fill="#444">May</text>
<text x="574.17" y="566.00" text-anchor="middle" font-family="sans-serif" font-size="11" fill="#444">Jun</text>
<text x="665.83" y="566.00" text-anchor="middle" font-family="sans-serif" font-size="11" fill="#444">Jul</text>
<text x="757.50" y="566.00" text-anchor="middle" font-family="sans-serif" font-size="11" fill="#444">Aug</text>
<text x="849.17" y="566.00" text-anchor="middle" font-family="sans-serif" font-size="11" fill="#444">Sep</text>
<text x="940.83" y="566.00" text-anchor="middle" font-family="sans-serif" font-size="11" fill="#444">Oct</text>
<text x="1032.50" y="566.00" text-anchor="middle" font-family="sans-serif" font-size="11" fill="#444">Nov</text>
<text x="1124.17" y="566.00" text-anchor="middle" font-family="sans-serif" font-size="11" fill="#444">Dec</text>
<line x1="70" y1="550" x2="1170" y2="550" stroke="#888"/>
<line x1="70" y1="25" x2="70" y2="550" stroke="#888"/>
<line x1="70.72" y1="550.00" x2="70.72" y2="556.00" stroke="#888"/>
<line x1="1164.27"   y1="550.00" x2="1164.27"   y2="556.00" stroke="#888"/>
<text x="70.72" y="582.00" text-anchor="start" font-family="sans-serif" font-size="11" fill="#333">Initial Balance: 119293</text>
<text x="1164.27"   y="582.00" text-anchor="end"   font-family="sans-serif" font-size="11" fill="#333">Ending Balance: 146389</text>
<path d="M 77.88 120.26 L 79.31 120.26 L 80.74 120.26 L 82.17 120.26 L 83.61 120.26 L 85.04 120.26 L 86.47 120.26 L 87.90 120.26 L 89.34 120.26 L 90.77 120.26 L 92.20 120.26 L 93.63 120.26 L 93.63 121.18 L 92.20 123.00 L 90.77 125.41 L 89.34 127.55 L 87.90 128.22 L 86.47 123.92 L 85.04 126.06 L 83.61 128.37 L 82.17 130.74 L 80.74 133.11 L 79.31 128.87 L 77.88 124.59 Z" fill="#d0d0d0" fill-opacity="0.5" stroke="none"/>
<path d="M 113.68 97.14 L 115.12 97.14 L 115.12 97.24 L 113.68 98.02 Z" fill="#d0d0d0" fill-opacity="0.5" stroke="none"/>
<path d="M 120.85 89.92 L 122.28 89.92 L 123.71 89.92 L 125.14 89.92 L 126.58 89.92 L 128.01 89.92 L 128.01 90.87 L 126.58 93.43 L 125.14 95.99 L 123.71 96.84 L 122.28 92.24 L 120.85 94.55 Z" fill="#d0d0d0" fill-opacity="0.5" stroke="none"/>
<path d="M 133.74 85.24 L 135.17 85.24 L 136.60 85.24 L 138.03 85.24 L 139.47 85.24 L 140.90 85.24 L 142.33 85.24 L 143.76 85.24 L 145.20 85.24 L 146.63 85.24 L 148.06 85.24 L 149.49 85.24 L 150.92 85.24 L 150.92 86.40 L 149.49 89.00 L 148.06 91.57 L 146.63 93.26 L 145.20 95.82 L 143.76 97.37 L 142.33 92.78 L 140.90 95.27 L 139.47 90.67 L 138.03 92.71 L 136.60 95.14 L 135.17 90.52 L 133.74 89.91 Z" fill="#d0d0d0" fill-opacity="0.5" stroke="none"/>
<path d="M 155.22 82.44 L 156.65 82.44 L 158.09 82.44 L 159.52 82.44 L 160.95 82.44 L 162.98 82.44 L 165.60 82.44 L 168.21 82.44 L 170.83 82.44 L 173.45 82.44 L 173.45 83.50 L 170.83 85.55 L 168.21 87.87 L 165.60 89.17 L 162.98 84.49 L 160.95 86.86 L 159.52 89.44 L 158.09 90.31 L 156.65 91.78 L 155.22 87.14 Z" fill="#d0d0d0" fill-opacity="0.5" stroke="none"/>
<path d="M 181.31 79.11 L 183.93 79.11 L 186.55 79.11 L 189.17 79.11 L 191.79 79.11 L 194.40 79.11 L 197.02 79.11 L 199.64 79.11 L 202.26 79.11 L 204.88 79.11 L 207.50 79.11 L 210.12 79.11 L 210.12 80.30 L 207.50 82.92 L 204.88 83.22 L 202.26 85.62 L 199.64 88.05 L 197.02 89.76 L 194.40 85.12 L 191.79 87.81 L 189.17 83.13 L 186.55 84.78 L 183.93 85.17 L 181.31 80.46 Z" fill="#d0d0d0" fill-opacity="0.5" stroke="none"/>
<path d="M 231.07 67.48 L 233.69 67.48 L 236.31 67.48 L 238.93 67.48 L 241.55 67.48 L 244.17 67.48 L 246.79 67.48 L 249.40 67.48 L 252.02 67.48 L 254.64 67.48 L 257.26 67.48 L 259.88 67.48 L 262.50 67.48 L 265.12 67.48 L 267.74 67.48 L 270.36 67.48 L 272.98 67.48 L 275.60 67.48 L 278.21 67.48 L 280.83 67.48 L 283.45 67.48 L 286.07 67.48 L 288.69 67.48 L 291.31 67.48 L 293.93 67.48 L 296.55 67.48 L 299.17 67.48 L 301.79 67.48 L 304.40 67.48 L 307.02 67.48 L 309.64 67.48 L 312.26 67.48 L 314.88 67.48 L 317.50 67.48 L 320.12 67.48 L 322.74 67.48 L 325.36 67.48 L 327.98 67.48 L 330.60 67.48 L 333.21 67.48 L 335.83 67.48 L 338.45 67.48 L 341.07 67.48 L 343.69 67.48 L 347.29 67.48 L 351.88 67.48 L 356.46 67.48 L 361.04 67.48 L 365.62 67.48 L 370.21 67.48 L 374.79 67.48 L 379.38 67.48 L 383.96 67.48 L 388.54 67.48 L 393.12 67.48 L 397.71 67.48 L 402.29 67.48 L 406.88 67.48 L 411.46 67.48 L 416.04 67.48 L 420.62 67.48 L 425.21 67.48 L 429.79 67.48 L 434.38 67.48 L 440.19 67.48 L 447.24 67.48 L 454.29 67.48 L 461.35 67.48 L 468.40 67.48 L 475.45 67.48 L 482.50 67.48 L 482.50 69.40 L 475.45 72.10 L 468.40 74.45 L 461.35 77.12 L 454.29 79.77 L 447.24 82.42 L 440.19 84.11 L 434.38 86.38 L 429.79 88.99 L 425.21 84.31 L 420.62 83.13 L 416.04 84.76 L 411.46 85.75 L 406.88 87.80 L 402.29 89.52 L 397.71 84.84 L 393.12 87.46 L 388.54 86.00 L 383.96 88.10 L 379.38 89.91 L 374.79 85.24 L 370.21 85.85 L 365.62 88.47 L 361.04 90.31 L 356.46 90.99 L 351.88 92.95 L 347.29 95.25 L 343.69 97.81 L 341.07 99.24 L 338.45 101.54 L 335.83 103.44 L 333.21 98.91 L 330.60 94.32 L 327.98 96.35 L 325.36 97.64 L 322.74 100.03 L 320.12 95.45 L 317.50 95.82 L 314.88 97.17 L 312.26 97.81 L 309.64 93.22 L 307.02 95.59 L 304.40 97.28 L 301.79 92.71 L 299.17 88.06 L 296.55 90.51 L 293.93 85.84 L 291.31 88.04 L 288.69 90.36 L 286.07 90.95 L 283.45 91.76 L 280.83 93.65 L 278.21 95.64 L 275.60 96.15 L 272.98 91.53 L 270.36 93.41 L 267.74 92.56 L 265.12 87.91 L 262.50 89.34 L 259.88 91.01 L 257.26 86.35 L 254.64 87.85 L 252.02 89.90 L 249.40 85.22 L 246.79 80.50 L 244.17 82.31 L 241.55 83.90 L 238.93 86.51 L 236.31 81.83 L 233.69 77.07 L 231.07 72.28 Z" fill="#d0d0d0" fill-opacity="0.5" stroke="none"/>
<path d="M 510.71 63.56 L 517.76 63.56 L 524.81 63.56 L 531.61 63.56 L 538.15 63.56 L 544.70 63.56 L 551.25 63.56 L 557.80 63.56 L 564.35 63.56 L 570.89 63.56 L 577.44 63.56 L 583.99 63.56 L 590.54 63.56 L 597.08 63.56 L 603.63 63.56 L 610.18 63.56 L 616.73 63.56 L 625.09 63.56 L 635.28 63.56 L 645.46 63.56 L 645.46 64.07 L 635.28 64.60 L 625.09 66.06 L 616.73 68.78 L 610.18 68.68 L 603.63 71.40 L 597.08 72.54 L 590.54 73.22 L 583.99 74.53 L 577.44 76.96 L 570.89 79.42 L 564.35 74.65 L 557.80 76.86 L 551.25 72.07 L 544.70 74.77 L 538.15 76.21 L 531.61 77.92 L 524.81 73.14 L 517.76 68.31 L 510.71 68.43 Z" fill="#d0d0d0" fill-opacity="0.5" stroke="none"/>
<path d="M 696.39 56.80 L 706.57 56.80 L 726.94 56.80 L 757.50 56.80 L 757.50 57.19 L 726.94 59.96 L 706.57 61.72 L 696.39 61.73 Z" fill="#d0d0d0" fill-opacity="0.5" stroke="none"/>
<path d="M 809.06 56.09 L 820.52 56.09 L 831.98 56.09 L 831.98 56.67 L 820.52 59.44 L 809.06 61.02 Z" fill="#d0d0d0" fill-opacity="0.5" stroke="none"/>
<path d="M 877.81 50.86 L 889.27 50.86 L 901.55 50.86 L 914.64 50.86 L 914.64 52.18 L 901.55 54.57 L 889.27 54.07 L 877.81 55.81 Z" fill="#d0d0d0" fill-opacity="0.5" stroke="none"/>
<path d="M 1055.42 33.80 L 1070.69 33.80 L 1084.06 33.80 L 1084.06 35.11 L 1070.69 37.78 L 1055.42 38.92 Z" fill="#d0d0d0" fill-opacity="0.5" stroke="none"/>
<path d="M 1152.81 25.00 L 1164.27 25.00 L 1164.27 29.99 L 1152.81 30.20 Z" fill="#d0d0d0" fill-opacity="0.5" stroke="none"/>
<polyline fill="none" stroke="#111" stroke-width="1.2" points="70.72,126.24 72.15,125.96 73.58,124.92 75.01,122.68 76.45,120.26 77.88,124.59 79.31,128.87 80.74,133.11 82.17,130.74 83.61,128.37 85.04,126.06 86.47,123.92 87.90,128.22 89.34,127.55 90.77,125.41 92.20,123.00 93.63,121.18 95.07,119.70 96.50,117.15 97.93,117.02 99.36,114.56 100.79,112.08 102.23,109.97 103.66,108.35 105.09,106.40 106.52,104.12 107.96,101.78 109.39,99.62 110.82,97.42 112.25,97.14 113.68,98.02 115.12,97.24 116.55,94.84 117.98,92.50 119.41,89.92 120.85,94.55 122.28,92.24 123.71,96.84 125.14,95.99 126.58,93.43 128.01,90.87 129.44,89.17 130.87,86.80 132.30,85.24 133.74,89.91 135.17,90.52 136.60,95.14 138.03,92.71 139.47,90.67 140.90,95.27 142.33,92.78 143.76,97.37 145.20,95.82 146.63,93.26 148.06,91.57 149.49,89.00 150.92,86.40 152.36,83.79 153.79,82.44 155.22,87.14 156.65,91.78 158.09,90.31 159.52,89.44 160.95,86.86 162.98,84.49 165.60,89.17 168.21,87.87 170.83,85.55 173.45,83.50 176.07,81.38 178.69,79.11 181.31,80.46 183.93,85.17 186.55,84.78 189.17,83.13 191.79,87.81 194.40,85.12 197.02,89.76 199.64,88.05 202.26,85.62 204.88,83.22 207.50,82.92 210.12,80.30 212.74,77.67 215.36,77.17 217.98,74.71 220.60,73.99 223.21,72.40 225.83,70.27 228.45,67.48 231.07,72.28 233.69,77.07 236.31,81.83 238.93,86.51 241.55,83.90 244.17,82.31 246.79,80.50 249.40,85.22 252.02,89.90 254.64,87.85 257.26,86.35 259.88,91.01 262.50,89.34 265.12,87.91 267.74,92.56 270.36,93.41 272.98,91.53 275.60,96.15 278.21,95.64 280.83,93.65 283.45,91.76 286.07,90.95 288.69,90.36 291.31,88.04 293.93,85.84 296.55,90.51 299.17,88.06 301.79,92.71 304.40,97.28 307.02,95.59 309.64,93.22 312.26,97.81 314.88,97.17 317.50,95.82 320.12,95.45 322.74,100.03 325.36,97.64 327.98,96.35 330.60,94.32 333.21,98.91 335.83,103.44 338.45,101.54 341.07,99.24 343.69,97.81 347.29,95.25 351.88,92.95 356.46,90.99 361.04,90.31 365.62,88.47 370.21,85.85 374.79,85.24 379.38,89.91 383.96,88.10 388.54,86.00 393.12,87.46 397.71,84.84 402.29,89.52 406.88,87.80 411.46,85.75 416.04,84.76 420.62,83.13 425.21,84.31 429.79,88.99 434.38,86.38 440.19,84.11 447.24,82.42 454.29,79.77 461.35,77.12 468.40,74.45 475.45,72.10 482.50,69.40 489.55,66.69 496.60,65.30 503.65,63.56 510.71,68.43 517.76,68.31 524.81,73.14 531.61,77.92 538.15,76.21 544.70,74.77 551.25,72.07 557.80,76.86 564.35,74.65 570.89,79.42 577.44,76.96 583.99,74.53 590.54,73.22 597.08,72.54 603.63,71.40 610.18,68.68 616.73,68.78 625.09,66.06 635.28,64.60 645.46,64.07 655.65,61.34 665.83,59.70 676.02,57.19 686.20,56.80 696.39,61.73 706.57,61.72 726.94,59.96 757.50,57.19 788.06,56.09 809.06,61.02 820.52,59.44 831.98,56.67 843.44,56.07 854.90,53.75 866.35,50.86 877.81,55.81 889.27,54.07 901.55,54.57 914.64,52.18 927.74,49.83 940.83,48.25 953.93,46.87 967.02,44.61 980.12,42.37 994.31,40.78 1009.58,37.90 1024.86,35.89 1040.14,33.80 1055.42,38.92 1070.69,37.78 1084.06,35.11 1095.52,33.60 1106.98,31.28 1118.44,29.19 1129.90,26.53 1141.35,25.00 1152.81,30.20 1164.27,29.99"/>
<text x="620.0" y="588" text-anchor="middle" font-family="sans-serif" font-size="12" fill="#333">Monthly Balance Curve</text>
<text x="15" y="287.5" transform="rotate(-90 15,287.5)" text-anchor="middle" font-family="sans-serif" font-size="12" fill="#333">Capital</text>
</svg>