<svg xmlns="http://www.w3.org/2000/svg" width="1200" height="600" viewBox="0 0 1200 600">
<desc>Equity curve with drawdown fill; x-axis is months only (no exact timestamps)</desc>
<text x="600.0" y="18.0" text-anchor="middle" font-family="sans-serif" font-size="14">Balance Curve 2010 (UTC)</text>
<rect x="70" y="25" width="1100" height="525" fill="white" stroke="#ccc" />
<line x1="70" y1="550.00" x2="1170" y2="550.00" stroke="#eee"/>
<text x="62" y="554.0" text-anchor="end" font-family="sans-serif" font-size="11" fill="#555">0.00</text>
<line x1="70" y1="445.00" x2="1170" y2="445.00" stroke="#eee"/>
<text x="62" y="449.0" text-anchor="end" font-family="sans-serif" font-size="11" fill="#555">1784694</text>
<line x1="70" y1="340.00" x2="1170" y2="340.00" stroke="#eee"/>
<text x="62" y="344.0" text-anchor="end" font-family="sans-serif" font-size="11" fill="#555">3569387</text>
<line x1="70" y1="235.00" x2="1170" y2="235.00" stroke="#eee"/>
<text x="62" y="239.0" text-anchor="end" font-family="sans-serif" font-size="11" fill="#555">5354081</text>
<line x1="70" y1="130.00" x2="1170" y2="130.00" stroke="#eee"/>
<text x="62" y="134.0" text-anchor="end" font-family="sans-serif" font-size="11" fill="#555">7138774</text>
<line x1="70" y1="25.00" x2="1170" y2="25.00" stroke="#eee"/>
<text x="62" y="29.0" text-anchor="end" font-family="sans-serif" font-size="11" fill="#555">8923468</text>
<line x1="161.67" y1="25" x2="161.67" y2="550" stroke="#f2f2f2"/>
<line x1="253.33" y1="25" x2="253.33" y2="550" stroke="#f2f2f2"/>
<line x1="345.00" y1="25" x2="345.00" y2="550" stroke="#f2f2f2"/>
<line x1="436.67" y1="25" x2="436.67" y2="550" stroke="#f2f2f2"/>
<line x1="528.33" y1="25" x2="528.33" y2="550" stroke="#f2f2f2"/>
<line x1="620.00" y1="25" x2="620.00" y2="550" stroke="#f2f2f2"/>
<line x1="711.67" y1="25" x2="711.67" y2="550" stroke="#f2f2f2"/>
<line x1="803.33" y1="25" x2="803.33" y2="550" stroke="#f2f2f2"/>
<line x1="895.00" y1="25" x2="895.00" y2="550" stroke="#f2f2f2"/>
<line x1="986.67" y1="25" x2="986.67" y2="550" stroke="#f2f2f2"/>
<line x1="1078.33" y1="25" x2="1078.33" y2="550" stroke="#f2f2f2"/>
<text x="115.83" y="566.00" text-anchor="middle" font-family="sans-serif" font-size="11" fill="#444">Jan</text>
<text x="207.50" y="566.00" text-anchor="middle" font-family="sans-serif" font-size="11" fill="#444">Feb</text>
<text x="299.17" y="566.00" text-anchor="middle" font-family="sans-serif" font-size="11" fill="#444">Mar</text>
<text x="390.83" y="566.00" text-anchor="middle" font-family="sans-serif" font-size="11" fill="#444">Apr</text>
<text x="482.50" y="566.00" text-anchor="middle" font-family="sans-serif" font-size="11" fill="#444">May</text>
<text x="574.17" y="566.00" text-anchor="middle" font-family="sans-serif" font-size="11" fill="#444">Jun</text>
<text x="665.83" y="566.00" text-anchor="middle" font-family="sans-serif" font-size="11" fill="#444">Jul</text>
<text x="757.50" y="566.00" text-anchor="middle" font-family="sans-serif" font-size="11" fill="#444">Aug</text>
<text x="849.17" y="566.00" text-anchor="middle" font-family="sans-serif" font-size="11" fill="#444">Sep</text>
<text x="940.83" y="566.00" text-anchor="middle" font-family="sans-serif" font-size="11" fill="#444">Oct</text>
<text x="1032.50" y="566.00" text-anchor="middle" font-family="sans-serif" font-size="11" fill="#444">Nov</text>
<text x="1124.17" y="566.00" text-anchor="middle" font-family="sans-serif" font-size="11" fill="#444">Dec</text>
<line x1="70" y1="550" x2="1170" y2="550" stroke="#888"/>
<line x1="70" y1="25" x2="70" y2="550" stroke="#888"/>
<line x1="75.09" y1="550.00" x2="75.09" y2="556.00" stroke="#888"/>
<line x1="1167.30"   y1="550.00" x2="1167.30"   y2="556.00" stroke="#888"/>
<text x="75.09" y="582.00" text-anchor="start" font-family="sans-serif" font-size="11" fill="#333">Initial Balance: 8240247</text>
<text x="1167.30"   y="582.00" text-anchor="end"   font-family="sans-serif" font-size="11" fill="#333">Ending Balance: 8923468</text>
<path d="M 115.83 62.28 L 115.83 62.53 Z" fill="#d0d0d0" fill-opacity="0.5" stroke="none"/>
<path d="M 207.50 57.99 L 225.83 57.99 L 244.17 57.99 L 244.17 58.60 L 225.83 59.22 L 207.50 60.06 Z" fill="#d0d0d0" fill-opacity="0.5" stroke="none"/>
<path d="M 306.81 55.48 L 306.81 55.96 Z" fill="#d0d0d0" fill-opacity="0.5" stroke="none"/>
<path d="M 398.47 53.27 L 413.75 53.27 L 429.03 53.27 L 437.60 53.27 L 439.47 53.27 L 441.34 53.27 L 443.21 53.27 L 445.09 53.27 L 446.96 53.27 L 448.83 53.27 L 450.70 53.27 L 452.57 53.27 L 452.57 54.04 L 450.70 55.51 L 448.83 56.37 L 446.96 57.14 L 445.09 58.38 L 443.21 59.14 L 441.34 59.89 L 439.47 60.53 L 437.60 58.58 L 429.03 56.58 L 413.75 54.58 L 398.47 55.28 Z" fill="#d0d0d0" fill-opacity="0.5" stroke="none"/>
<path d="M 471.28 48.08 L 473.15 48.08 L 475.02 48.08 L 476.89 48.08 L 476.89 48.29 L 475.02 48.97 L 473.15 49.32 L 471.28 49.96 Z" fill="#d0d0d0" fill-opacity="0.5" stroke="none"/>
<path d="M 482.50 46.49 L 484.37 46.49 L 486.24 46.49 L 486.24 46.86 L 484.37 47.01 L 482.50 48.34 Z" fill="#d0d0d0" fill-opacity="0.5" stroke="none"/>
<path d="M 489.98 46.47 L 491.85 46.47 L 493.72 46.47 L 495.60 44.21 L 497.47 44.21 L 497.47 49.03 L 495.60 47.15 L 493.72 46.77 L 491.85 46.98 L 489.98 48.34 Z" fill="#d0d0d0" fill-opacity="0.5" stroke="none"/>
<path d="M 501.21 44.21 L 503.08 44.21 L 504.95 44.21 L 506.82 44.21 L 508.69 44.21 L 510.56 44.21 L 512.43 44.21 L 514.30 44.21 L 516.17 44.21 L 518.04 44.21 L 519.91 44.21 L 519.91 44.38 L 518.04 45.13 L 516.17 44.99 L 514.30 45.40 L 512.43 45.39 L 510.56 45.77 L 508.69 46.41 L 506.82 46.90 L 504.95 47.63 L 503.08 48.48 L 501.21 48.42 Z" fill="#d0d0d0" fill-opacity="0.5" stroke="none"/>
<path d="M 563.38 38.07 L 568.77 38.07 L 574.17 38.07 L 579.56 38.07 L 584.95 38.07 L 590.34 38.07 L 595.74 38.07 L 601.13 38.07 L 601.13 38.89 L 595.74 39.55 L 590.34 40.22 L 584.95 39.51 L 579.56 38.87 L 574.17 38.87 L 568.77 39.25 L 563.38 39.89 Z" fill="#d0d0d0" fill-opacity="0.5" stroke="none"/>
<path d="M 665.83 34.27 L 665.83 34.39 Z" fill="#d0d0d0" fill-opacity="0.5" stroke="none"/>
<path d="M 706.57 32.97 L 719.31 32.97 L 734.58 32.97 L 749.86 32.97 L 765.14 32.97 L 780.42 32.97 L 795.69 32.97 L 812.50 32.97 L 830.83 32.97 L 849.17 32.97 L 867.50 32.97 L 885.83 32.97 L 897.86 32.97 L 903.59 32.97 L 909.32 32.97 L 915.05 32.97 L 920.78 32.97 L 926.51 32.97 L 932.24 32.97 L 937.97 32.97 L 943.70 32.97 L 949.43 32.97 L 955.16 32.97 L 960.89 32.97 L 960.89 33.03 L 955.16 33.72 L 949.43 34.28 L 943.70 34.93 L 937.97 34.86 L 932.24 35.84 L 926.51 35.19 L 920.78 36.15 L 915.05 37.73 L 909.32 35.64 L 903.59 36.60 L 897.86 36.92 L 885.83 37.64 L 867.50 37.89 L 849.17 38.36 L 830.83 38.61 L 812.50 38.32 L 795.69 37.60 L 780.42 38.38 L 765.14 38.89 L 749.86 39.37 L 734.58 38.55 L 719.31 35.43 L 706.57 33.44 Z" fill="#d0d0d0" fill-opacity="0.5" stroke="none"/>
<path d="M 1016.13 27.93 L 1022.68 27.93 L 1029.23 27.93 L 1035.77 27.93 L 1042.32 27.93 L 1048.87 27.93 L 1055.42 27.93 L 1061.96 27.93 L 1068.51 27.93 L 1075.06 27.93 L 1081.03 27.93 L 1086.42 27.93 L 1091.81 27.93 L 1097.21 27.93 L 1102.60 27.93 L 1102.60 28.18 L 1097.21 28.57 L 1091.81 29.73 L 1086.42 30.39 L 1081.03 28.42 L 1075.06 30.01 L 1068.51 30.81 L 1061.96 31.25 L 1055.42 31.97 L 1048.87 29.90 L 1042.32 30.90 L 1035.77 28.84 L 1029.23 29.50 L 1022.68 29.88 L 1016.13 30.04 Z" fill="#d0d0d0" fill-opacity="0.5" stroke="none"/>
<path d="M 1113.38 27.59 L 1113.38 27.64 Z" fill="#d0d0d0" fill-opacity="0.5" stroke="none"/>
<path d="M 1129.56 26.08 L 1134.95 26.08 L 1140.34 26.08 L 1140.34 26.79 L 1134.95 26.61 L 1129.56 26.68 Z" fill="#d0d0d0" fill-opacity="0.5" stroke="none"/>
<path d="M 1151.13 25.91 L 1156.52 25.91 L 1156.52 26.02 L 1151.13 26.77 Z" fill="#d0d0d0" fill-opacity="0.5" stroke="none"/>
<polyline fill="none" stroke="#111" stroke-width="1.2" points="75.09,65.20 85.28,64.20 95.46,63.21 105.65,62.28 115.83,62.53 126.02,62.09 136.20,61.48 146.39,60.58 156.57,59.61 170.83,58.93 189.17,57.99 207.50,60.06 225.83,59.22 244.17,58.60 260.97,57.67 276.25,56.16 291.53,55.48 306.81,55.96 322.08,55.31 337.36,54.70 352.64,54.21 367.92,53.75 383.19,53.27 398.47,55.28 413.75,54.58 429.03,56.58 437.60,58.58 439.47,60.53 441.34,59.89 443.21,59.14 445.09,58.38 446.96,57.14 448.83,56.37 450.70,55.51 452.57,54.04 454.44,53.17 456.31,52.93 458.18,52.10 460.05,51.72 461.92,50.33 463.79,49.73 465.66,49.27 467.53,48.68 469.40,48.08 471.28,49.96 473.15,49.32 475.02,48.97 476.89,48.29 478.76,47.66 480.63,46.49 482.50,48.34 484.37,47.01 486.24,46.86 488.11,46.47 489.98,48.34 491.85,46.98 493.72,46.77 495.60,47.15 497.47,49.03 499.34,44.21 501.21,48.42 503.08,48.48 504.95,47.63 506.82,46.90 508.69,46.41 510.56,45.77 512.43,45.39 514.30,45.40 516.17,44.99 518.04,45.13 519.91,44.38 521.79,43.13 523.66,42.71 525.53,42.35 527.40,41.62 531.03,41.19 536.42,40.39 541.81,39.80 547.21,39.28 552.60,38.56 557.99,38.07 563.38,39.89 568.77,39.25 574.17,38.87 579.56,38.87 584.95,39.51 590.34,40.22 595.74,39.55 601.13,38.89 606.52,38.06 611.91,37.62 617.30,36.81 625.09,35.97 635.28,35.08 645.46,34.86 655.65,34.27 665.83,34.39 676.02,34.23 686.20,33.54 696.39,32.97 706.57,33.44 719.31,35.43 734.58,38.55 749.86,39.37 765.14,38.89 780.42,38.38 795.69,37.60 812.50,38.32 830.83,38.61 849.17,38.36 867.50,37.89 885.83,37.64 897.86,36.92 903.59,36.60 909.32,35.64 915.05,37.73 920.78,36.15 926.51,35.19 932.24,35.84 937.97,34.86 943.70,34.93 949.43,34.28 955.16,33.72 960.89,33.03 966.61,32.83 972.34,32.61 978.07,31.85 983.80,31.63 989.94,30.67 996.49,30.42 1003.04,28.68 1009.58,27.93 1016.13,30.04 1022.68,29.88 1029.23,29.50 1035.77,28.84 1042.32,30.90 1048.87,29.90 1055.42,31.97 1061.96,31.25 1068.51,30.81 1075.06,30.01 1081.03,28.42 1086.42,30.39 1091.81,29.73 1097.21,28.57 1102.60,28.18 1107.99,27.59 1113.38,27.64 1118.77,26.83 1124.17,26.08 1129.56,26.68 1134.95,26.61 1140.34,26.79 1145.74,25.91 1151.13,26.77 1156.52,26.02 1161.91,25.61 1167.30,25.00"/>
<text x="15" y="287.5" transform="rotate(-90 15,287.5)" text-anchor="middle" font-family="sans-serif" font-size="12" fill="#333">USD</text>
</svg>