<svg xmlns="http://www.w3.org/2000/svg" width="1200" height="600" viewBox="0 0 1200 600">
<desc>Equity curve with drawdown fill; x-axis is months only (no exact timestamps)</desc>
<text x="600.0" y="18.0" text-anchor="middle" font-family="sans-serif" font-size="14">Balance Curve 2020 (UTC)</text>
<rect x="70" y="25" width="1100" height="525" fill="white" stroke="#ccc" />
<line x1="70" y1="550.00" x2="1170" y2="550.00" stroke="#eee"/>
<text x="62" y="554.0" text-anchor="end" font-family="sans-serif" font-size="11" fill="#555">0.00</text>
<line x1="70" y1="445.00" x2="1170" y2="445.00" stroke="#eee"/>
<text x="62" y="449.0" text-anchor="end" font-family="sans-serif" font-size="11" fill="#555">22448</text>
<line x1="70" y1="340.00" x2="1170" y2="340.00" stroke="#eee"/>
<text x="62" y="344.0" text-anchor="end" font-family="sans-serif" font-size="11" fill="#555">44896</text>
<line x1="70" y1="235.00" x2="1170" y2="235.00" stroke="#eee"/>
<text x="62" y="239.0" text-anchor="end" font-family="sans-serif" font-size="11" fill="#555">67344</text>
<line x1="70" y1="130.00" x2="1170" y2="130.00" stroke="#eee"/>
<text x="62" y="134.0" text-anchor="end" font-family="sans-serif" font-size="11" fill="#555">89792</text>
<line x1="70" y1="25.00" x2="1170" y2="25.00" stroke="#eee"/>
<text x="62" y="29.0" text-anchor="end" font-family="sans-serif" font-size="11" fill="#555">112240</text>
<line x1="180.00" y1="25" x2="180.00" y2="550" stroke="#f2f2f2"/>
<line x1="290.00" y1="25" x2="290.00" y2="550" stroke="#f2f2f2"/>
<line x1="400.00" y1="25" x2="400.00" y2="550" stroke="#f2f2f2"/>
<line x1="510.00" y1="25" x2="510.00" y2="550" stroke="#f2f2f2"/>
<line x1="620.00" y1="25" x2="620.00" y2="550" stroke="#f2f2f2"/>
<line x1="730.00" y1="25" x2="730.00" y2="550" stroke="#f2f2f2"/>
<line x1="840.00" y1="25" x2="840.00" y2="550" stroke="#f2f2f2"/>
<line x1="950.00" y1="25" x2="950.00" y2="550" stroke="#f2f2f2"/>
<line x1="1060.00" y1="25" x2="1060.00" y2="550" stroke="#f2f2f2"/>
<text x="125.00" y="566.00" text-anchor="middle" font-family="sans-serif" font-size="11" fill="#444">Jan</text>
<text x="235.00" y="566.00" text-anchor="middle" font-family="sans-serif" font-size="11" fill="#444">Mar</text>
<text x="345.00" y="566.00" text-anchor="middle" font-family="sans-serif" font-size="11" fill="#444">Apr</text>
<text x="455.00" y="566.00" text-anchor="middle" font-family="sans-serif" font-size="11" fill="#444">May</text>
<text x="565.00" y="566.00" text-anchor="middle" font-family="sans-serif" font-size="11" fill="#444">Jun</text>
<text x="675.00" y="566.00" text-anchor="middle" font-family="sans-serif" font-size="11" fill="#444">Jul</text>
<text x="785.00" y="566.00" text-anchor="middle" font-family="sans-serif" font-size="11" fill="#444">Aug</text>
<text x="895.00" y="566.00" text-anchor="middle" font-family="sans-serif" font-size="11" fill="#444">Sep</text>
<text x="1005.00" y="566.00" text-anchor="middle" font-family="sans-serif" font-size="11" fill="#444">Nov</text>
<text x="1115.00" y="566.00" text-anchor="middle" font-family="sans-serif" font-size="11" fill="#444">Dec</text>
<line x1="70" y1="550" x2="1170" y2="550" stroke="#888"/>
<line x1="70" y1="25" x2="70" y2="550" stroke="#888"/>
<line x1="125.00" y1="550.00" x2="125.00" y2="556.00" stroke="#888"/>
<line x1="1115.00"   y1="550.00" x2="1115.00"   y2="556.00" stroke="#888"/>
<text x="125.00" y="582.00" text-anchor="start" font-family="sans-serif" font-size="11" fill="#333">Initial Balance: 100000</text>
<text x="1115.00"   y="582.00" text-anchor="end"   font-family="sans-serif" font-size="11" fill="#333">Ending Balance: 112240</text>
<path d="M 188.19 75.54 L 190.53 75.54 L 190.53 77.61 L 188.19 80.35 Z" fill="#d0d0d0" fill-opacity="0.5" stroke="none"/>
<path d="M 206.91 65.23 L 206.91 66.09 Z" fill="#d0d0d0" fill-opacity="0.5" stroke="none"/>
<path d="M 225.64 52.85 L 225.64 53.32 Z" fill="#d0d0d0" fill-opacity="0.5" stroke="none"/>
<path d="M 230.32 51.61 L 232.66 51.61 L 235.00 51.61 L 235.00 51.91 L 232.66 54.32 L 230.32 56.71 Z" fill="#d0d0d0" fill-opacity="0.5" stroke="none"/>
<path d="M 239.68 49.49 L 242.02 49.49 L 244.36 49.49 L 246.70 49.49 L 249.04 49.49 L 251.38 49.49 L 253.72 49.49 L 256.06 49.49 L 258.40 49.49 L 260.74 49.49 L 263.09 49.49 L 265.43 49.49 L 267.77 49.49 L 270.11 49.49 L 272.45 49.49 L 274.79 49.49 L 277.13 49.49 L 279.47 49.49 L 281.81 49.49 L 284.15 49.49 L 286.49 49.49 L 288.83 49.49 L 308.33 49.49 L 345.00 49.49 L 345.00 49.69 L 308.33 51.19 L 288.83 51.76 L 286.49 53.73 L 284.15 56.08 L 281.81 57.38 L 279.47 59.15 L 277.13 61.16 L 274.79 63.21 L 272.45 64.01 L 270.11 66.00 L 267.77 67.93 L 265.43 70.44 L 263.09 65.47 L 260.74 60.45 L 258.40 61.50 L 256.06 56.50 L 253.72 57.76 L 251.38 60.07 L 249.04 55.01 L 246.70 57.55 L 244.36 52.44 L 242.02 55.01 L 239.68 54.61 Z" fill="#d0d0d0" fill-opacity="0.5" stroke="none"/>
<path d="M 565.00 41.25 L 565.00 42.18 Z" fill="#d0d0d0" fill-opacity="0.5" stroke="none"/>
<path d="M 1005.00 26.62 L 1005.00 27.15 Z" fill="#d0d0d0" fill-opacity="0.5" stroke="none"/>
<polyline fill="none" stroke="#111" stroke-width="1.2" points="125.00,82.25 181.17,80.11 183.51,78.18 185.85,75.54 188.19,80.35 190.53,77.61 192.87,75.36 195.21,73.89 197.55,71.40 199.89,69.79 202.23,67.75 204.57,65.23 206.91,66.09 209.26,64.77 211.60,62.24 213.94,61.73 216.28,59.54 218.62,56.99 220.96,54.42 223.30,52.85 225.64,53.32 227.98,51.61 230.32,56.71 232.66,54.32 235.00,51.91 237.34,49.49 239.68,54.61 242.02,55.01 244.36,52.44 246.70,57.55 249.04,55.01 251.38,60.07 253.72,57.76 256.06,56.50 258.40,61.50 260.74,60.45 263.09,65.47 265.43,70.44 267.77,67.93 270.11,66.00 272.45,64.01 274.79,63.21 277.13,61.16 279.47,59.15 281.81,57.38 284.15,56.08 286.49,53.73 288.83,51.76 308.33,51.19 345.00,49.69 381.67,48.56 427.50,46.28 482.50,43.90 528.33,41.25 565.00,42.18 601.67,40.22 647.50,38.96 702.50,37.23 757.50,35.69 812.50,34.10 867.50,31.62 922.50,29.18 968.33,26.62 1005.00,27.15 1041.67,25.35 1115.00,25.00"/>
<text x="15" y="287.5" transform="rotate(-90 15,287.5)" text-anchor="middle" font-family="sans-serif" font-size="12" fill="#333">USD</text>
</svg>