<svg xmlns="http://www.w3.org/2000/svg" width="1200" height="600" viewBox="0 0 1200 600">
<desc>Equity curve with drawdown fill; x-axis is months only (no exact timestamps)</desc>
<text x="600.0" y="18.0" text-anchor="middle" font-family="sans-serif" font-size="14">Portfolio 2004 (UTC)</text>
<rect x="70" y="25" width="1100" height="525" fill="white" stroke="#ccc" />
<line x1="70" y1="550.00" x2="1170" y2="550.00" stroke="#eee"/>
<text x="62" y="554.0" text-anchor="end" font-family="sans-serif" font-size="11" fill="#555">0.00</text>
<line x1="70" y1="445.00" x2="1170" y2="445.00" stroke="#eee"/>
<text x="62" y="449.0" text-anchor="end" font-family="sans-serif" font-size="11" fill="#555">27113</text>
<line x1="70" y1="340.00" x2="1170" y2="340.00" stroke="#eee"/>
<text x="62" y="344.0" text-anchor="end" font-family="sans-serif" font-size="11" fill="#555">54226</text>
<line x1="70" y1="235.00" x2="1170" y2="235.00" stroke="#eee"/>
<text x="62" y="239.0" text-anchor="end" font-family="sans-serif" font-size="11" fill="#555">81339</text>
<line x1="70" y1="130.00" x2="1170" y2="130.00" stroke="#eee"/>
<text x="62" y="134.0" text-anchor="end" font-family="sans-serif" font-size="11" fill="#555">108453</text>
<line x1="70" y1="25.00" x2="1170" y2="25.00" stroke="#eee"/>
<text x="62" y="29.0" text-anchor="end" font-family="sans-serif" font-size="11" fill="#555">135566</text>
<line x1="161.67" y1="25" x2="161.67" y2="550" stroke="#f2f2f2"/>
<line x1="253.33" y1="25" x2="253.33" y2="550" stroke="#f2f2f2"/>
<line x1="345.00" y1="25" x2="345.00" y2="550" stroke="#f2f2f2"/>
<line x1="436.67" y1="25" x2="436.67" y2="550" stroke="#f2f2f2"/>
<line x1="528.33" y1="25" x2="528.33" y2="550" stroke="#f2f2f2"/>
<line x1="620.00" y1="25" x2="620.00" y2="550" stroke="#f2f2f2"/>
<line x1="711.67" y1="25" x2="711.67" y2="550" stroke="#f2f2f2"/>
<line x1="803.33" y1="25" x2="803.33" y2="550" stroke="#f2f2f2"/>
<line x1="895.00" y1="25" x2="895.00" y2="550" stroke="#f2f2f2"/>
<line x1="986.67" y1="25" x2="986.67" y2="550" stroke="#f2f2f2"/>
<line x1="1078.33" y1="25" x2="1078.33" y2="550" stroke="#f2f2f2"/>
<text x="115.83" y="566.00" text-anchor="middle" font-family="sans-serif" font-size="11" fill="#444">Jan</text>
<text x="207.50" y="566.00" text-anchor="middle" font-family="sans-serif" font-size="11" fill="#444">Feb</text>
<text x="299.17" y="566.00" text-anchor="middle" font-family="sans-serif" font-size="11" fill="#444">Mar</text>
<text x="390.83" y="566.00" text-anchor="middle" font-family="sans-serif" font-size="11" fill="#444">Apr</text>
<text x="482.50" y="566.00" text-anchor="middle" font-family="sans-serif" font-size="11" fill="#444">May</text>
<text x="574.17" y="566.00" text-anchor="middle" font-family="sans-serif" font-size="11" fill="#444">Jun</text>
<text x="665.83" y="566.00" text-anchor="middle" font-family="sans-serif" font-size="11" fill="#444">Jul</text>
<text x="757.50" y="566.00" text-anchor="middle" font-family="sans-serif" font-size="11" fill="#444">Aug</text>
<text x="849.17" y="566.00" text-anchor="middle" font-family="sans-serif" font-size="11" fill="#444">Sep</text>
<text x="940.83" y="566.00" text-anchor="middle" font-family="sans-serif" font-size="11" fill="#444">Oct</text>
<text x="1032.50" y="566.00" text-anchor="middle" font-family="sans-serif" font-size="11" fill="#444">Nov</text>
<text x="1124.17" y="566.00" text-anchor="middle" font-family="sans-serif" font-size="11" fill="#444">Dec</text>
<line x1="70" y1="550" x2="1170" y2="550" stroke="#888"/>
<line x1="70" y1="25" x2="70" y2="550" stroke="#888"/>
<line x1="71.91" y1="550.00" x2="71.91" y2="556.00" stroke="#888"/>
<line x1="1163.45"   y1="550.00" x2="1163.45"   y2="556.00" stroke="#888"/>
<text x="71.91" y="582.00" text-anchor="start" font-family="sans-serif" font-size="11" fill="#333">Initial Balance: 114312</text>
<text x="1163.45"   y="582.00" text-anchor="end"   font-family="sans-serif" font-size="11" fill="#333">Ending Balance: 129975</text>
<path d="M 83.37 103.85 L 87.19 103.85 L 91.01 103.85 L 91.01 106.98 L 87.19 108.17 L 83.37 110.64 Z" fill="#d0d0d0" fill-opacity="0.5" stroke="none"/>
<path d="M 98.65 103.29 L 102.47 103.29 L 106.28 103.29 L 110.10 103.29 L 113.92 103.29 L 117.74 103.29 L 121.56 103.29 L 125.38 103.29 L 129.20 103.29 L 133.02 103.29 L 136.84 103.29 L 140.66 103.29 L 144.48 103.29 L 148.30 103.29 L 152.12 103.29 L 155.94 103.29 L 159.76 103.29 L 165.49 103.29 L 173.12 103.29 L 180.76 103.29 L 188.40 103.29 L 196.04 103.29 L 203.68 103.29 L 211.32 103.29 L 211.32 105.30 L 203.68 107.63 L 196.04 111.29 L 188.40 111.08 L 180.76 112.44 L 173.12 116.07 L 165.49 118.50 L 159.76 111.83 L 155.94 114.79 L 152.12 118.38 L 148.30 121.54 L 144.48 125.08 L 140.66 118.62 L 136.84 122.31 L 133.02 125.50 L 129.20 119.11 L 125.38 116.27 L 121.56 122.76 L 117.74 119.98 L 113.92 119.87 L 110.10 113.22 L 106.28 106.58 L 102.47 110.38 L 98.65 103.60 Z" fill="#d0d0d0" fill-opacity="0.5" stroke="none"/>
<path d="M 262.50 89.62 L 268.61 89.62 L 274.72 89.62 L 274.72 90.14 L 268.61 93.59 L 262.50 96.63 Z" fill="#d0d0d0" fill-opacity="0.5" stroke="none"/>
<path d="M 305.28 76.04 L 311.39 76.04 L 317.50 76.04 L 323.61 76.04 L 329.72 76.04 L 335.83 76.04 L 341.94 76.04 L 351.55 76.04 L 364.64 76.04 L 377.74 76.04 L 390.83 76.04 L 390.83 79.05 L 377.74 81.75 L 364.64 85.59 L 351.55 78.42 L 341.94 78.50 L 335.83 82.02 L 329.72 85.52 L 323.61 87.56 L 317.50 86.61 L 311.39 90.34 L 305.28 83.24 Z" fill="#d0d0d0" fill-opacity="0.5" stroke="none"/>
<path d="M 457.50 61.40 L 465.83 61.40 L 474.17 61.40 L 482.50 61.40 L 490.83 61.40 L 499.17 61.40 L 499.17 61.43 L 490.83 62.95 L 482.50 65.10 L 474.17 66.07 L 465.83 65.62 L 457.50 68.65 Z" fill="#d0d0d0" fill-opacity="0.5" stroke="none"/>
<path d="M 524.17 55.38 L 532.15 55.38 L 539.79 55.38 L 539.79 59.05 L 532.15 63.07 L 524.17 62.88 Z" fill="#d0d0d0" fill-opacity="0.5" stroke="none"/>
<path d="M 577.99 49.92 L 585.62 49.92 L 593.26 49.92 L 600.90 49.92 L 608.54 49.92 L 616.18 49.92 L 627.64 49.92 L 642.92 49.92 L 658.19 49.92 L 673.47 49.92 L 688.75 49.92 L 704.03 49.92 L 723.12 49.92 L 746.04 49.92 L 768.96 49.92 L 791.88 49.92 L 809.88 49.92 L 822.98 49.92 L 836.07 49.92 L 849.17 49.92 L 849.17 52.49 L 836.07 52.79 L 822.98 55.95 L 809.88 58.45 L 791.88 50.89 L 768.96 54.02 L 746.04 58.06 L 723.12 50.55 L 704.03 54.64 L 688.75 56.06 L 673.47 59.29 L 658.19 60.54 L 642.92 61.84 L 627.64 54.43 L 616.18 58.66 L 608.54 60.94 L 600.90 64.26 L 593.26 64.91 L 585.62 57.44 L 577.99 57.49 Z" fill="#d0d0d0" fill-opacity="0.5" stroke="none"/>
<path d="M 961.20 25.00 L 971.39 25.00 L 981.57 25.00 L 998.12 25.00 L 1021.04 25.00 L 1043.96 25.00 L 1066.88 25.00 L 1084.88 25.00 L 1097.98 25.00 L 1111.07 25.00 L 1124.17 25.00 L 1137.26 25.00 L 1150.36 25.00 L 1163.45 25.00 L 1163.45 46.65 L 1150.36 49.28 L 1137.26 41.61 L 1124.17 33.83 L 1111.07 36.07 L 1097.98 39.28 L 1084.88 31.47 L 1066.88 34.84 L 1043.96 32.50 L 1021.04 34.97 L 998.12 32.07 L 981.57 36.29 L 971.39 40.69 L 961.20 32.90 Z" fill="#d0d0d0" fill-opacity="0.5" stroke="none"/>
<polyline fill="none" stroke="#111" stroke-width="1.2" points="71.91,107.31 75.73,106.07 79.55,103.85 83.37,110.64 87.19,108.17 91.01,106.98 94.83,103.29 98.65,103.60 102.47,110.38 106.28,106.58 110.10,113.22 113.92,119.87 117.74,119.98 121.56,122.76 125.38,116.27 129.20,119.11 133.02,125.50 136.84,122.31 140.66,118.62 144.48,125.08 148.30,121.54 152.12,118.38 155.94,114.79 159.76,111.83 165.49,118.50 173.12,116.07 180.76,112.44 188.40,111.08 196.04,111.29 203.68,107.63 211.32,105.30 218.96,101.63 226.60,101.16 234.24,97.77 241.88,94.27 249.51,91.21 256.39,89.62 262.50,96.63 268.61,93.59 274.72,90.14 280.83,86.34 286.94,82.49 293.06,79.93 299.17,76.04 305.28,83.24 311.39,90.34 317.50,86.61 323.61,87.56 329.72,85.52 335.83,82.02 341.94,78.50 351.55,78.42 364.64,85.59 377.74,81.75 390.83,79.05 403.93,75.51 417.02,73.44 430.12,69.51 440.83,65.53 449.17,61.40 457.50,68.65 465.83,65.62 474.17,66.07 482.50,65.10 490.83,62.95 499.17,61.43 507.50,58.70 515.83,55.38 524.17,62.88 532.15,63.07 539.79,59.05 547.43,54.99 555.07,54.29 562.71,50.61 570.35,49.92 577.99,57.49 585.62,57.44 593.26,64.91 600.90,64.26 608.54,60.94 616.18,58.66 627.64,54.43 642.92,61.84 658.19,60.54 673.47,59.29 688.75,56.06 704.03,54.64 723.12,50.55 746.04,58.06 768.96,54.02 791.88,50.89 809.88,58.45 822.98,55.95 836.07,52.79 849.17,52.49 862.26,49.69 875.36,47.43 888.45,44.12 900.09,43.46 910.28,39.28 920.46,37.59 930.65,33.77 940.83,29.52 951.02,25.00 961.20,32.90 971.39,40.69 981.57,36.29 998.12,32.07 1021.04,34.97 1043.96,32.50 1066.88,34.84 1084.88,31.47 1097.98,39.28 1111.07,36.07 1124.17,33.83 1137.26,41.61 1150.36,49.28 1163.45,46.65"/>
<text x="620.0" y="588" text-anchor="middle" font-family="sans-serif" font-size="12" fill="#333">Monthly Balance Curve</text>
<text x="15" y="287.5" transform="rotate(-90 15,287.5)" text-anchor="middle" font-family="sans-serif" font-size="12" fill="#333">Capital</text>
</svg>