<svg xmlns="http://www.w3.org/2000/svg" width="1200" height="600" viewBox="0 0 1200 600">
<desc>Equity curve with drawdown fill; x-axis is months only (no exact timestamps)</desc>
<text x="600.0" y="18.0" text-anchor="middle" font-family="sans-serif" font-size="14">Balance Curve 2015 (UTC)</text>
<rect x="70" y="25" width="1100" height="525" fill="white" stroke="#ccc" />
<line x1="70" y1="550.00" x2="1170" y2="550.00" stroke="#eee"/>
<text x="62" y="554.0" text-anchor="end" font-family="sans-serif" font-size="11" fill="#555">0.00</text>
<line x1="70" y1="445.00" x2="1170" y2="445.00" stroke="#eee"/>
<text x="62" y="449.0" text-anchor="end" font-family="sans-serif" font-size="11" fill="#555">45064</text>
<line x1="70" y1="340.00" x2="1170" y2="340.00" stroke="#eee"/>
<text x="62" y="344.0" text-anchor="end" font-family="sans-serif" font-size="11" fill="#555">90128</text>
<line x1="70" y1="235.00" x2="1170" y2="235.00" stroke="#eee"/>
<text x="62" y="239.0" text-anchor="end" font-family="sans-serif" font-size="11" fill="#555">135192</text>
<line x1="70" y1="130.00" x2="1170" y2="130.00" stroke="#eee"/>
<text x="62" y="134.0" text-anchor="end" font-family="sans-serif" font-size="11" fill="#555">180256</text>
<line x1="70" y1="25.00" x2="1170" y2="25.00" stroke="#eee"/>
<text x="62" y="29.0" text-anchor="end" font-family="sans-serif" font-size="11" fill="#555">225320</text>
<line x1="161.67" y1="25" x2="161.67" y2="550" stroke="#f2f2f2"/>
<line x1="253.33" y1="25" x2="253.33" y2="550" stroke="#f2f2f2"/>
<line x1="345.00" y1="25" x2="345.00" y2="550" stroke="#f2f2f2"/>
<line x1="436.67" y1="25" x2="436.67" y2="550" stroke="#f2f2f2"/>
<line x1="528.33" y1="25" x2="528.33" y2="550" stroke="#f2f2f2"/>
<line x1="620.00" y1="25" x2="620.00" y2="550" stroke="#f2f2f2"/>
<line x1="711.67" y1="25" x2="711.67" y2="550" stroke="#f2f2f2"/>
<line x1="803.33" y1="25" x2="803.33" y2="550" stroke="#f2f2f2"/>
<line x1="895.00" y1="25" x2="895.00" y2="550" stroke="#f2f2f2"/>
<line x1="986.67" y1="25" x2="986.67" y2="550" stroke="#f2f2f2"/>
<line x1="1078.33" y1="25" x2="1078.33" y2="550" stroke="#f2f2f2"/>
<text x="115.83" y="566.00" text-anchor="middle" font-family="sans-serif" font-size="11" fill="#444">Jan</text>
<text x="207.50" y="566.00" text-anchor="middle" font-family="sans-serif" font-size="11" fill="#444">Feb</text>
<text x="299.17" y="566.00" text-anchor="middle" font-family="sans-serif" font-size="11" fill="#444">Mar</text>
<text x="390.83" y="566.00" text-anchor="middle" font-family="sans-serif" font-size="11" fill="#444">Apr</text>
<text x="482.50" y="566.00" text-anchor="middle" font-family="sans-serif" font-size="11" fill="#444">May</text>
<text x="574.17" y="566.00" text-anchor="middle" font-family="sans-serif" font-size="11" fill="#444">Jun</text>
<text x="665.83" y="566.00" text-anchor="middle" font-family="sans-serif" font-size="11" fill="#444">Jul</text>
<text x="757.50" y="566.00" text-anchor="middle" font-family="sans-serif" font-size="11" fill="#444">Aug</text>
<text x="849.17" y="566.00" text-anchor="middle" font-family="sans-serif" font-size="11" fill="#444">Sep</text>
<text x="940.83" y="566.00" text-anchor="middle" font-family="sans-serif" font-size="11" fill="#444">Oct</text>
<text x="1032.50" y="566.00" text-anchor="middle" font-family="sans-serif" font-size="11" fill="#444">Nov</text>
<text x="1124.17" y="566.00" text-anchor="middle" font-family="sans-serif" font-size="11" fill="#444">Dec</text>
<line x1="70" y1="550" x2="1170" y2="550" stroke="#888"/>
<line x1="70" y1="25" x2="70" y2="550" stroke="#888"/>
<line x1="77.64" y1="550.00" x2="77.64" y2="556.00" stroke="#888"/>
<line x1="1158.54"   y1="550.00" x2="1158.54"   y2="556.00" stroke="#888"/>
<text x="77.64" y="582.00" text-anchor="start" font-family="sans-serif" font-size="11" fill="#333">Initial Balance: 186983</text>
<text x="1158.54"   y="582.00" text-anchor="end"   font-family="sans-serif" font-size="11" fill="#333">Ending Balance: 224044</text>
<path d="M 165.83 105.15 L 174.17 105.15 L 182.50 105.15 L 182.50 106.84 L 174.17 108.94 L 165.83 109.71 Z" fill="#d0d0d0" fill-opacity="0.5" stroke="none"/>
<path d="M 255.33 94.89 L 259.31 94.89 L 263.30 94.89 L 267.28 94.89 L 271.27 94.89 L 271.27 95.09 L 267.28 97.40 L 263.30 99.71 L 259.31 95.04 L 255.33 95.78 Z" fill="#d0d0d0" fill-opacity="0.5" stroke="none"/>
<path d="M 279.24 93.67 L 283.22 93.67 L 287.21 93.67 L 291.20 93.67 L 291.20 93.79 L 287.21 96.12 L 283.22 96.35 L 279.24 98.35 Z" fill="#d0d0d0" fill-opacity="0.5" stroke="none"/>
<path d="M 311.12 85.63 L 315.11 85.63 L 319.09 85.63 L 319.09 86.53 L 315.11 88.19 L 311.12 90.39 Z" fill="#d0d0d0" fill-opacity="0.5" stroke="none"/>
<path d="M 361.89 67.75 L 366.71 67.75 L 371.54 67.75 L 371.54 69.18 L 366.71 70.24 L 361.89 72.69 Z" fill="#d0d0d0" fill-opacity="0.5" stroke="none"/>
<path d="M 381.18 66.71 L 386.01 66.71 L 390.83 66.71 L 395.66 66.71 L 400.48 66.71 L 405.31 66.71 L 410.13 66.71 L 414.96 66.71 L 419.78 66.71 L 424.61 66.71 L 429.43 66.71 L 434.25 66.71 L 439.72 66.71 L 445.83 66.71 L 451.94 66.71 L 458.06 66.71 L 464.17 66.71 L 470.28 66.71 L 476.39 66.71 L 476.39 67.40 L 470.28 69.88 L 464.17 72.36 L 458.06 74.54 L 451.94 69.64 L 445.83 70.92 L 439.72 73.39 L 434.25 74.41 L 429.43 76.60 L 424.61 71.74 L 419.78 74.37 L 414.96 75.40 L 410.13 70.50 L 405.31 71.84 L 400.48 73.59 L 395.66 73.22 L 390.83 75.43 L 386.01 70.53 L 381.18 71.65 Z" fill="#d0d0d0" fill-opacity="0.5" stroke="none"/>
<path d="M 494.72 63.92 L 500.83 63.92 L 506.94 63.92 L 513.06 63.92 L 519.17 63.92 L 525.28 63.92 L 530.62 63.92 L 535.21 63.92 L 539.79 63.92 L 544.38 63.92 L 548.96 63.92 L 548.96 65.23 L 544.38 67.52 L 539.79 70.01 L 535.21 65.06 L 530.62 67.01 L 525.28 69.49 L 519.17 71.27 L 513.06 73.50 L 506.94 72.70 L 500.83 73.80 L 494.72 68.88 Z" fill="#d0d0d0" fill-opacity="0.5" stroke="none"/>
<path d="M 594.79 47.03 L 599.38 47.03 L 603.96 47.03 L 608.54 47.03 L 613.12 47.03 L 617.71 47.03 L 625.09 47.03 L 635.28 47.03 L 645.46 47.03 L 645.46 48.67 L 635.28 50.05 L 625.09 52.59 L 617.71 54.97 L 613.12 57.72 L 608.54 52.70 L 603.96 55.44 L 599.38 57.21 L 594.79 52.14 Z" fill="#d0d0d0" fill-opacity="0.5" stroke="none"/>
<path d="M 665.83 46.36 L 665.83 46.89 Z" fill="#d0d0d0" fill-opacity="0.5" stroke="none"/>
<path d="M 696.39 41.77 L 706.57 41.77 L 714.08 41.77 L 718.90 41.77 L 723.73 41.77 L 728.55 41.77 L 733.38 41.77 L 738.20 41.77 L 743.03 41.77 L 747.85 41.77 L 752.68 41.77 L 757.50 41.77 L 757.50 44.01 L 752.68 46.55 L 747.85 48.94 L 743.03 49.31 L 738.20 49.98 L 733.38 44.85 L 728.55 44.21 L 723.73 46.79 L 718.90 49.56 L 714.08 44.42 L 706.57 47.00 L 696.39 46.89 Z" fill="#d0d0d0" fill-opacity="0.5" stroke="none"/>
<path d="M 771.97 40.25 L 776.80 40.25 L 781.62 40.25 L 786.45 40.25 L 791.27 40.25 L 791.27 42.70 L 786.45 43.18 L 781.62 45.99 L 776.80 43.11 L 771.97 45.42 Z" fill="#d0d0d0" fill-opacity="0.5" stroke="none"/>
<path d="M 860.62 34.93 L 883.54 34.93 L 901.55 34.93 L 914.64 34.93 L 927.74 34.93 L 927.74 36.88 L 914.64 36.11 L 901.55 36.80 L 883.54 37.09 L 860.62 36.21 Z" fill="#d0d0d0" fill-opacity="0.5" stroke="none"/>
<path d="M 967.02 31.63 L 967.02 33.28 Z" fill="#d0d0d0" fill-opacity="0.5" stroke="none"/>
<path d="M 1112.71 25.00 L 1135.62 25.00 L 1158.54 25.00 L 1158.54 27.97 L 1135.62 28.74 L 1112.71 30.31 Z" fill="#d0d0d0" fill-opacity="0.5" stroke="none"/>
<polyline fill="none" stroke="#111" stroke-width="1.2" points="77.64,114.33 92.92,112.04 108.19,111.60 123.47,109.30 138.75,107.26 154.03,105.15 165.83,109.71 174.17,108.94 182.50,106.84 190.83,105.04 199.17,104.06 207.50,103.40 215.83,101.21 224.17,100.02 232.50,98.22 240.83,97.44 249.17,94.89 255.33,95.78 259.31,95.04 263.30,99.71 267.28,97.40 271.27,95.09 275.25,93.67 279.24,98.35 283.22,96.35 287.21,96.12 291.20,93.79 295.18,91.58 299.17,89.80 303.15,87.97 307.14,85.63 311.12,90.39 315.11,88.19 319.09,86.53 323.08,84.13 327.07,81.73 331.05,79.58 335.04,78.13 339.02,75.70 343.01,73.24 347.41,71.34 352.24,69.07 357.06,67.75 361.89,72.69 366.71,70.24 371.54,69.18 376.36,66.71 381.18,71.65 386.01,70.53 390.83,75.43 395.66,73.22 400.48,73.59 405.31,71.84 410.13,70.50 414.96,75.40 419.78,74.37 424.61,71.74 429.43,76.60 434.25,74.41 439.72,73.39 445.83,70.92 451.94,69.64 458.06,74.54 464.17,72.36 470.28,69.88 476.39,67.40 482.50,65.57 488.61,63.92 494.72,68.88 500.83,73.80 506.94,72.70 513.06,73.50 519.17,71.27 525.28,69.49 530.62,67.01 535.21,65.06 539.79,70.01 544.38,67.52 548.96,65.23 553.54,62.73 558.12,62.66 562.71,60.14 567.29,58.42 571.88,56.43 576.46,53.88 581.04,51.32 585.62,49.62 590.21,47.03 594.79,52.14 599.38,57.21 603.96,55.44 608.54,52.70 613.12,57.72 617.71,54.97 625.09,52.59 635.28,50.05 645.46,48.67 655.65,46.36 665.83,46.89 676.02,44.55 686.20,41.77 696.39,46.89 706.57,47.00 714.08,44.42 718.90,49.56 723.73,46.79 728.55,44.21 733.38,44.85 738.20,49.98 743.03,49.31 747.85,48.94 752.68,46.55 757.50,44.01 762.32,41.27 767.15,40.25 771.97,45.42 776.80,43.11 781.62,45.99 786.45,43.18 791.27,42.70 796.10,40.09 800.92,38.11 814.79,37.56 837.71,34.93 860.62,36.21 883.54,37.09 901.55,36.80 914.64,36.11 927.74,36.88 940.83,34.24 953.93,31.63 967.02,33.28 980.12,30.63 1009.58,27.99 1055.42,27.22 1089.79,25.00 1112.71,30.31 1135.62,28.74 1158.54,27.97"/>
<text x="15" y="287.5" transform="rotate(-90 15,287.5)" text-anchor="middle" font-family="sans-serif" font-size="12" fill="#333">USD</text>
</svg>