<svg xmlns="http://www.w3.org/2000/svg" width="1200" height="600" viewBox="0 0 1200 600">
<desc>Equity curve with drawdown fill; x-axis is months only (no exact timestamps)</desc>
<text x="600.0" y="18.0" text-anchor="middle" font-family="sans-serif" font-size="14">Balance Curve 2010 (UTC)</text>
<rect x="70" y="25" width="1100" height="525" fill="white" stroke="#ccc" />
<line x1="70" y1="550.00" x2="1170" y2="550.00" stroke="#eee"/>
<text x="62" y="554.0" text-anchor="end" font-family="sans-serif" font-size="11" fill="#555">0.00</text>
<line x1="70" y1="445.00" x2="1170" y2="445.00" stroke="#eee"/>
<text x="62" y="449.0" text-anchor="end" font-family="sans-serif" font-size="11" fill="#555">25985</text>
<line x1="70" y1="340.00" x2="1170" y2="340.00" stroke="#eee"/>
<text x="62" y="344.0" text-anchor="end" font-family="sans-serif" font-size="11" fill="#555">51970</text>
<line x1="70" y1="235.00" x2="1170" y2="235.00" stroke="#eee"/>
<text x="62" y="239.0" text-anchor="end" font-family="sans-serif" font-size="11" fill="#555">77955</text>
<line x1="70" y1="130.00" x2="1170" y2="130.00" stroke="#eee"/>
<text x="62" y="134.0" text-anchor="end" font-family="sans-serif" font-size="11" fill="#555">103940</text>
<line x1="70" y1="25.00" x2="1170" y2="25.00" stroke="#eee"/>
<text x="62" y="29.0" text-anchor="end" font-family="sans-serif" font-size="11" fill="#555">129926</text>
<line x1="161.67" y1="25" x2="161.67" y2="550" stroke="#f2f2f2"/>
<line x1="253.33" y1="25" x2="253.33" y2="550" stroke="#f2f2f2"/>
<line x1="345.00" y1="25" x2="345.00" y2="550" stroke="#f2f2f2"/>
<line x1="436.67" y1="25" x2="436.67" y2="550" stroke="#f2f2f2"/>
<line x1="528.33" y1="25" x2="528.33" y2="550" stroke="#f2f2f2"/>
<line x1="620.00" y1="25" x2="620.00" y2="550" stroke="#f2f2f2"/>
<line x1="711.67" y1="25" x2="711.67" y2="550" stroke="#f2f2f2"/>
<line x1="803.33" y1="25" x2="803.33" y2="550" stroke="#f2f2f2"/>
<line x1="895.00" y1="25" x2="895.00" y2="550" stroke="#f2f2f2"/>
<line x1="986.67" y1="25" x2="986.67" y2="550" stroke="#f2f2f2"/>
<line x1="1078.33" y1="25" x2="1078.33" y2="550" stroke="#f2f2f2"/>
<text x="115.83" y="566.00" text-anchor="middle" font-family="sans-serif" font-size="11" fill="#444">Jan</text>
<text x="207.50" y="566.00" text-anchor="middle" font-family="sans-serif" font-size="11" fill="#444">Feb</text>
<text x="299.17" y="566.00" text-anchor="middle" font-family="sans-serif" font-size="11" fill="#444">Mar</text>
<text x="390.83" y="566.00" text-anchor="middle" font-family="sans-serif" font-size="11" fill="#444">Apr</text>
<text x="482.50" y="566.00" text-anchor="middle" font-family="sans-serif" font-size="11" fill="#444">May</text>
<text x="574.17" y="566.00" text-anchor="middle" font-family="sans-serif" font-size="11" fill="#444">Jun</text>
<text x="665.83" y="566.00" text-anchor="middle" font-family="sans-serif" font-size="11" fill="#444">Jul</text>
<text x="757.50" y="566.00" text-anchor="middle" font-family="sans-serif" font-size="11" fill="#444">Aug</text>
<text x="849.17" y="566.00" text-anchor="middle" font-family="sans-serif" font-size="11" fill="#444">Sep</text>
<text x="940.83" y="566.00" text-anchor="middle" font-family="sans-serif" font-size="11" fill="#444">Oct</text>
<text x="1032.50" y="566.00" text-anchor="middle" font-family="sans-serif" font-size="11" fill="#444">Nov</text>
<text x="1124.17" y="566.00" text-anchor="middle" font-family="sans-serif" font-size="11" fill="#444">Dec</text>
<line x1="70" y1="550" x2="1170" y2="550" stroke="#888"/>
<line x1="70" y1="25" x2="70" y2="550" stroke="#888"/>
<line x1="75.09" y1="550.00" x2="75.09" y2="556.00" stroke="#888"/>
<line x1="1167.30"   y1="550.00" x2="1167.30"   y2="556.00" stroke="#888"/>
<text x="75.09" y="582.00" text-anchor="start" font-family="sans-serif" font-size="11" fill="#333">Initial Balance: 100000</text>
<text x="1167.30"   y="582.00" text-anchor="end"   font-family="sans-serif" font-size="11" fill="#333">Ending Balance: 129926</text>
<path d="M 115.83 140.19 L 115.83 140.48 Z" fill="#d0d0d0" fill-opacity="0.5" stroke="none"/>
<path d="M 207.50 129.57 L 225.83 129.57 L 244.17 129.57 L 244.17 130.17 L 225.83 131.76 L 207.50 133.82 Z" fill="#d0d0d0" fill-opacity="0.5" stroke="none"/>
<path d="M 306.81 123.92 L 306.81 124.74 Z" fill="#d0d0d0" fill-opacity="0.5" stroke="none"/>
<path d="M 398.47 117.41 L 413.75 117.41 L 429.03 117.41 L 437.60 117.41 L 439.47 117.41 L 441.34 117.41 L 443.21 117.41 L 445.09 117.41 L 446.96 117.41 L 448.83 117.41 L 450.70 117.41 L 452.57 117.41 L 452.57 118.36 L 450.70 120.72 L 448.83 123.02 L 446.96 125.11 L 445.09 127.09 L 443.21 129.15 L 441.34 131.16 L 439.47 132.88 L 437.60 128.61 L 429.03 124.30 L 413.75 119.94 L 398.47 121.79 Z" fill="#d0d0d0" fill-opacity="0.5" stroke="none"/>
<path d="M 471.28 103.38 L 473.15 103.38 L 475.02 103.38 L 476.89 103.38 L 476.89 103.56 L 475.02 105.57 L 473.15 106.73 L 471.28 107.90 Z" fill="#d0d0d0" fill-opacity="0.5" stroke="none"/>
<path d="M 482.50 99.63 L 484.37 99.63 L 486.24 99.63 L 488.11 99.63 L 489.98 99.63 L 491.85 99.63 L 493.72 99.63 L 495.60 98.76 L 497.47 98.76 L 497.47 107.74 L 495.60 103.21 L 493.72 101.36 L 491.85 102.16 L 489.98 104.49 L 488.11 99.93 L 486.24 101.22 L 484.37 101.88 L 482.50 104.19 Z" fill="#d0d0d0" fill-opacity="0.5" stroke="none"/>
<path d="M 501.21 98.76 L 503.08 98.76 L 504.95 98.76 L 506.82 98.76 L 508.69 98.76 L 510.56 98.76 L 510.56 98.78 L 508.69 100.70 L 506.82 102.22 L 504.95 104.32 L 503.08 105.81 L 501.21 105.93 Z" fill="#d0d0d0" fill-opacity="0.5" stroke="none"/>
<path d="M 518.04 95.91 L 518.04 95.98 Z" fill="#d0d0d0" fill-opacity="0.5" stroke="none"/>
<path d="M 563.38 75.18 L 568.77 75.18 L 574.17 75.18 L 579.56 75.18 L 584.95 75.18 L 590.34 75.18 L 595.74 75.18 L 595.74 76.64 L 590.34 78.71 L 584.95 77.70 L 579.56 76.25 L 574.17 76.56 L 568.77 77.89 L 563.38 79.95 Z" fill="#d0d0d0" fill-opacity="0.5" stroke="none"/>
<path d="M 665.83 61.69 L 665.83 61.70 Z" fill="#d0d0d0" fill-opacity="0.5" stroke="none"/>
<path d="M 706.57 57.09 L 719.31 57.09 L 734.58 57.09 L 749.86 57.09 L 765.14 57.09 L 780.42 57.09 L 795.69 57.09 L 812.50 57.09 L 830.83 57.09 L 849.17 57.09 L 867.50 57.09 L 885.83 57.09 L 897.86 57.09 L 903.59 57.09 L 909.32 57.09 L 915.05 57.09 L 920.78 57.09 L 920.78 59.58 L 915.05 62.15 L 909.32 57.24 L 903.59 59.87 L 897.86 60.92 L 885.83 62.97 L 867.50 63.88 L 849.17 65.32 L 830.83 66.23 L 812.50 65.72 L 795.69 64.13 L 780.42 66.46 L 765.14 68.11 L 749.86 69.61 L 734.58 67.79 L 719.31 62.94 L 706.57 58.03 Z" fill="#d0d0d0" fill-opacity="0.5" stroke="none"/>
<path d="M 932.24 56.94 L 932.24 58.26 Z" fill="#d0d0d0" fill-opacity="0.5" stroke="none"/>
<path d="M 1016.13 36.68 L 1022.68 36.68 L 1029.23 36.68 L 1035.77 36.68 L 1042.32 36.68 L 1048.87 36.68 L 1055.42 36.68 L 1061.96 36.68 L 1068.51 36.68 L 1075.06 36.68 L 1081.03 36.68 L 1086.42 36.68 L 1091.81 36.68 L 1097.21 36.68 L 1102.60 36.68 L 1102.60 37.15 L 1097.21 38.47 L 1091.81 40.59 L 1086.42 42.67 L 1081.03 37.62 L 1075.06 40.48 L 1068.51 42.90 L 1061.96 44.35 L 1055.42 46.49 L 1048.87 41.43 L 1042.32 43.20 L 1035.77 38.12 L 1029.23 40.11 L 1022.68 41.34 L 1016.13 41.77 Z" fill="#d0d0d0" fill-opacity="0.5" stroke="none"/>
<path d="M 1129.56 30.35 L 1134.95 30.35 L 1140.34 30.35 L 1140.34 31.40 L 1134.95 31.20 L 1129.56 31.68 Z" fill="#d0d0d0" fill-opacity="0.5" stroke="none"/>
<path d="M 1151.13 28.65 L 1151.13 30.71 Z" fill="#d0d0d0" fill-opacity="0.5" stroke="none"/>
<polyline fill="none" stroke="#111" stroke-width="1.2" points="75.09,145.92 85.28,143.72 95.46,141.50 105.65,140.19 115.83,140.48 126.02,139.38 136.20,137.91 146.39,135.80 156.57,133.53 170.83,131.84 189.17,129.57 207.50,133.82 225.83,131.76 244.17,130.17 260.97,127.88 276.25,125.66 291.53,123.92 306.81,124.74 322.08,123.04 337.36,121.41 352.64,120.05 367.92,118.75 383.19,117.41 398.47,121.79 413.75,119.94 429.03,124.30 437.60,128.61 439.47,132.88 441.34,131.16 443.21,129.15 445.09,127.09 446.96,125.11 448.83,123.02 450.70,120.72 452.57,118.36 454.44,116.02 456.31,115.18 458.18,112.98 460.05,112.25 461.92,110.00 463.79,108.28 465.66,106.90 467.53,105.16 469.40,103.38 471.28,107.90 473.15,106.73 475.02,105.57 476.89,103.56 478.76,101.67 480.63,99.63 482.50,104.19 484.37,101.88 486.24,101.22 488.11,99.93 489.98,104.49 491.85,102.16 493.72,101.36 495.60,103.21 497.47,107.74 499.34,98.76 501.21,105.93 503.08,105.81 504.95,104.32 506.82,102.22 508.69,100.70 510.56,98.78 512.43,97.51 514.30,97.25 516.17,95.91 518.04,95.98 519.91,93.74 521.79,91.54 523.66,90.15 525.53,88.90 527.40,86.70 531.03,85.28 536.42,82.82 541.81,80.88 547.21,79.14 552.60,76.85 557.99,75.18 563.38,79.95 568.77,77.89 574.17,76.56 579.56,76.25 584.95,77.70 590.34,78.71 595.74,76.64 601.13,74.57 606.52,72.03 611.91,70.52 617.30,67.99 625.09,65.41 635.28,63.73 645.46,62.84 655.65,61.69 665.83,61.70 676.02,60.99 686.20,58.90 696.39,57.09 706.57,58.03 719.31,62.94 734.58,67.79 749.86,69.61 765.14,68.11 780.42,66.46 795.69,64.13 812.50,65.72 830.83,66.23 849.17,65.32 867.50,63.88 885.83,62.97 897.86,60.92 903.59,59.87 909.32,57.24 915.05,62.15 920.78,59.58 926.51,56.94 932.24,58.26 937.97,55.61 943.70,55.49 949.43,53.61 955.16,51.95 960.89,49.96 966.61,49.19 972.34,48.36 978.07,46.17 983.80,45.35 989.94,42.64 996.49,41.73 1003.04,38.85 1009.58,36.68 1016.13,41.77 1022.68,41.34 1029.23,40.11 1035.77,38.12 1042.32,43.20 1048.87,41.43 1055.42,46.49 1061.96,44.35 1068.51,42.90 1075.06,40.48 1081.03,37.62 1086.42,42.67 1091.81,40.59 1097.21,38.47 1102.60,37.15 1107.99,35.26 1113.38,35.10 1118.77,32.65 1124.17,30.35 1129.56,31.68 1134.95,31.20 1140.34,31.40 1145.74,28.65 1151.13,30.71 1156.52,28.37 1161.91,26.97 1167.30,25.00"/>
<text x="15" y="287.5" transform="rotate(-90 15,287.5)" text-anchor="middle" font-family="sans-serif" font-size="12" fill="#333">USD</text>
</svg>