<svg xmlns="http://www.w3.org/2000/svg" width="1200" height="600" viewBox="0 0 1200 600">
<desc>Equity curve with drawdown fill</desc>
<text x="600.0" y="18.0" text-anchor="middle" font-family="sans-serif" font-size="14">Portfolio 2024</text>
<rect x="70" y="25" width="1100" height="525" fill="white" stroke="#ccc" />
<line x1="70" y1="550.00" x2="1170" y2="550.00" stroke="#eee"/>
<text x="62" y="554.0" text-anchor="end" font-family="sans-serif" font-size="11" fill="#555">0.00</text>
<line x1="70" y1="445.00" x2="1170" y2="445.00" stroke="#eee"/>
<text x="62" y="449.0" text-anchor="end" font-family="sans-serif" font-size="11" fill="#555">21915</text>
<line x1="70" y1="340.00" x2="1170" y2="340.00" stroke="#eee"/>
<text x="62" y="344.0" text-anchor="end" font-family="sans-serif" font-size="11" fill="#555">43829</text>
<line x1="70" y1="235.00" x2="1170" y2="235.00" stroke="#eee"/>
<text x="62" y="239.0" text-anchor="end" font-family="sans-serif" font-size="11" fill="#555">65744</text>
<line x1="70" y1="130.00" x2="1170" y2="130.00" stroke="#eee"/>
<text x="62" y="134.0" text-anchor="end" font-family="sans-serif" font-size="11" fill="#555">87658</text>
<line x1="70" y1="25.00" x2="1170" y2="25.00" stroke="#eee"/>
<text x="62" y="29.0" text-anchor="end" font-family="sans-serif" font-size="11" fill="#555">109573</text>
<line x1="150.60" y1="25" x2="150.60" y2="550" stroke="#f2f2f2"/>
<text x="150.60" y="566" text-anchor="middle" font-family="sans-serif" font-size="11" fill="#555">Feb</text>
<line x1="239.21" y1="25" x2="239.21" y2="550" stroke="#f2f2f2"/>
<text x="239.21" y="566" text-anchor="middle" font-family="sans-serif" font-size="11" fill="#555">Mar</text>
<line x1="333.94" y1="25" x2="333.94" y2="550" stroke="#f2f2f2"/>
<text x="333.94" y="566" text-anchor="middle" font-family="sans-serif" font-size="11" fill="#555">Apr</text>
<line x1="425.62" y1="25" x2="425.62" y2="550" stroke="#f2f2f2"/>
<text x="425.62" y="566" text-anchor="middle" font-family="sans-serif" font-size="11" fill="#555">May</text>
<line x1="520.35" y1="25" x2="520.35" y2="550" stroke="#f2f2f2"/>
<text x="520.35" y="566" text-anchor="middle" font-family="sans-serif" font-size="11" fill="#555">Jun</text>
<line x1="612.02" y1="25" x2="612.02" y2="550" stroke="#f2f2f2"/>
<text x="612.02" y="566" text-anchor="middle" font-family="sans-serif" font-size="11" fill="#555">Jul</text>
<line x1="706.75" y1="25" x2="706.75" y2="550" stroke="#f2f2f2"/>
<text x="706.75" y="566" text-anchor="middle" font-family="sans-serif" font-size="11" fill="#555">Aug</text>
<line x1="801.48" y1="25" x2="801.48" y2="550" stroke="#f2f2f2"/>
<text x="801.48" y="566" text-anchor="middle" font-family="sans-serif" font-size="11" fill="#555">Sep</text>
<line x1="893.15" y1="25" x2="893.15" y2="550" stroke="#f2f2f2"/>
<text x="893.15" y="566" text-anchor="middle" font-family="sans-serif" font-size="11" fill="#555">Oct</text>
<line x1="987.88" y1="25" x2="987.88" y2="550" stroke="#f2f2f2"/>
<text x="987.88" y="566" text-anchor="middle" font-family="sans-serif" font-size="11" fill="#555">Nov</text>
<line x1="1079.56" y1="25" x2="1079.56" y2="550" stroke="#f2f2f2"/>
<text x="1079.56" y="566" text-anchor="middle" font-family="sans-serif" font-size="11" fill="#555">Dec</text>
<line x1="70" y1="550" x2="1170" y2="550" stroke="#888"/>
<line x1="70" y1="25" x2="70" y2="550" stroke="#888"/>
<path d="M 155.53 62.73 L 155.65 62.73 L 155.65 65.16 L 155.53 64.37 Z" fill="#d0d0d0" fill-opacity="0.5" stroke="none"/>
<path d="M 363.36 45.66 L 363.53 45.66 L 402.25 45.66 L 433.45 45.66 L 540.40 45.66 L 540.40 46.15 L 433.45 50.37 L 402.25 54.56 L 363.53 58.70 L 363.36 53.26 Z" fill="#d0d0d0" fill-opacity="0.5" stroke="none"/>
<path d="M 751.37 26.29 L 776.04 26.29 L 793.58 26.29 L 818.48 26.29 L 818.48 29.49 L 793.58 33.81 L 776.04 34.93 L 751.37 27.04 Z" fill="#d0d0d0" fill-opacity="0.5" stroke="none"/>
<path d="M 869.88 25.10 L 904.04 25.10 L 904.04 28.66 L 869.88 33.02 Z" fill="#d0d0d0" fill-opacity="0.5" stroke="none"/>
<path d="M 1003.26 25.00 L 1003.32 25.00 L 1003.44 25.00 L 1003.55 25.00 L 1003.62 25.00 L 1003.67 25.00 L 1004.04 25.00 L 1004.69 25.00 L 1011.54 25.00 L 1026.48 25.00 L 1044.14 25.00 L 1051.23 25.00 L 1053.22 25.00 L 1053.25 25.00 L 1053.38 25.00 L 1061.09 25.00 L 1064.31 25.00 L 1068.39 25.00 L 1069.15 25.00 L 1084.54 25.00 L 1090.70 25.00 L 1096.57 25.00 L 1133.95 25.00 L 1170.00 25.00 L 1170.00 46.45 L 1133.95 48.50 L 1096.57 40.78 L 1090.70 44.60 L 1084.54 48.45 L 1069.15 52.21 L 1068.39 54.68 L 1064.31 58.82 L 1061.09 51.25 L 1053.38 55.42 L 1053.25 58.64 L 1053.22 62.70 L 1051.23 55.20 L 1044.14 52.91 L 1026.48 54.60 L 1011.54 46.98 L 1004.69 47.27 L 1004.04 50.71 L 1003.67 52.54 L 1003.62 54.45 L 1003.55 46.83 L 1003.44 39.14 L 1003.32 31.30 L 1003.26 32.93 Z" fill="#d0d0d0" fill-opacity="0.5" stroke="none"/>
<polyline fill="none" stroke="#111" stroke-width="1.2" points="70.00,66.81 155.37,62.73 155.53,64.37 155.65,65.16 188.98,61.06 189.08,59.13 215.82,54.98 262.36,51.17 299.73,49.88 363.16,45.66 363.36,53.26 363.53,58.70 402.25,54.56 433.45,50.37 540.40,46.15 555.68,41.90 644.30,37.61 711.53,33.29 720.10,30.27 720.74,26.29 751.37,27.04 776.04,34.93 793.58,33.81 818.48,29.49 855.85,25.10 869.88,33.02 904.04,28.66 943.87,25.00 1003.26,32.93 1003.32,31.30 1003.44,39.14 1003.55,46.83 1003.62,54.45 1003.67,52.54 1004.04,50.71 1004.69,47.27 1011.54,46.98 1026.48,54.60 1044.14,52.91 1051.23,55.20 1053.22,62.70 1053.25,58.64 1053.38,55.42 1061.09,51.25 1064.31,58.82 1068.39,54.68 1069.15,52.21 1084.54,48.45 1090.70,44.60 1096.57,40.78 1133.95,48.50 1170.00,46.45"/>
<text x="620.0" y="588" text-anchor="middle" font-family="sans-serif" font-size="12" fill="#333">UTC time</text>
<text x="15" y="287.5" transform="rotate(-90 15,287.5)" text-anchor="middle" font-family="sans-serif" font-size="12" fill="#333">Capital</text>
</svg>