<svg xmlns="http://www.w3.org/2000/svg" width="1200" height="600" viewBox="0 0 1200 600">
<desc>Equity curve with drawdown fill</desc>
<text x="600.0" y="18.0" text-anchor="middle" font-family="sans-serif" font-size="14">Portfolio 2013</text>
<rect x="70" y="25" width="1100" height="525" fill="white" stroke="#ccc" />
<line x1="70" y1="550.00" x2="1170" y2="550.00" stroke="#eee"/>
<text x="62" y="554.0" text-anchor="end" font-family="sans-serif" font-size="11" fill="#555">0.00</text>
<line x1="70" y1="445.00" x2="1170" y2="445.00" stroke="#eee"/>
<text x="62" y="449.0" text-anchor="end" font-family="sans-serif" font-size="11" fill="#555">20000</text>
<line x1="70" y1="340.00" x2="1170" y2="340.00" stroke="#eee"/>
<text x="62" y="344.0" text-anchor="end" font-family="sans-serif" font-size="11" fill="#555">40000</text>
<line x1="70" y1="235.00" x2="1170" y2="235.00" stroke="#eee"/>
<text x="62" y="239.0" text-anchor="end" font-family="sans-serif" font-size="11" fill="#555">60000</text>
<line x1="70" y1="130.00" x2="1170" y2="130.00" stroke="#eee"/>
<text x="62" y="134.0" text-anchor="end" font-family="sans-serif" font-size="11" fill="#555">80000</text>
<line x1="70" y1="25.00" x2="1170" y2="25.00" stroke="#eee"/>
<text x="62" y="29.0" text-anchor="end" font-family="sans-serif" font-size="11" fill="#555">100000</text>
<line x1="159.76" y1="25" x2="159.76" y2="550" stroke="#f2f2f2"/>
<text x="159.76" y="566" text-anchor="middle" font-family="sans-serif" font-size="11" fill="#555">Feb</text>
<line x1="245.61" y1="25" x2="245.61" y2="550" stroke="#f2f2f2"/>
<text x="245.61" y="566" text-anchor="middle" font-family="sans-serif" font-size="11" fill="#555">Mar</text>
<line x1="340.66" y1="25" x2="340.66" y2="550" stroke="#f2f2f2"/>
<text x="340.66" y="566" text-anchor="middle" font-family="sans-serif" font-size="11" fill="#555">Apr</text>
<line x1="432.64" y1="25" x2="432.64" y2="550" stroke="#f2f2f2"/>
<text x="432.64" y="566" text-anchor="middle" font-family="sans-serif" font-size="11" fill="#555">May</text>
<line x1="527.69" y1="25" x2="527.69" y2="550" stroke="#f2f2f2"/>
<text x="527.69" y="566" text-anchor="middle" font-family="sans-serif" font-size="11" fill="#555">Jun</text>
<line x1="619.68" y1="25" x2="619.68" y2="550" stroke="#f2f2f2"/>
<text x="619.68" y="566" text-anchor="middle" font-family="sans-serif" font-size="11" fill="#555">Jul</text>
<line x1="714.72" y1="25" x2="714.72" y2="550" stroke="#f2f2f2"/>
<text x="714.72" y="566" text-anchor="middle" font-family="sans-serif" font-size="11" fill="#555">Aug</text>
<line x1="809.77" y1="25" x2="809.77" y2="550" stroke="#f2f2f2"/>
<text x="809.77" y="566" text-anchor="middle" font-family="sans-serif" font-size="11" fill="#555">Sep</text>
<line x1="901.76" y1="25" x2="901.76" y2="550" stroke="#f2f2f2"/>
<text x="901.76" y="566" text-anchor="middle" font-family="sans-serif" font-size="11" fill="#555">Oct</text>
<line x1="996.81" y1="25" x2="996.81" y2="550" stroke="#f2f2f2"/>
<text x="996.81" y="566" text-anchor="middle" font-family="sans-serif" font-size="11" fill="#555">Nov</text>
<line x1="1088.79" y1="25" x2="1088.79" y2="550" stroke="#f2f2f2"/>
<text x="1088.79" y="566" text-anchor="middle" font-family="sans-serif" font-size="11" fill="#555">Dec</text>
<line x1="70" y1="550" x2="1170" y2="550" stroke="#888"/>
<line x1="70" y1="25" x2="70" y2="550" stroke="#888"/>
<path d="M 70.00 25.00 L 94.09 25.00 L 97.11 25.00 L 110.12 25.00 L 118.52 25.00 L 130.29 25.00 L 134.22 25.00 L 161.68 25.00 L 161.91 25.00 L 174.15 25.00 L 179.93 25.00 L 180.09 25.00 L 180.10 25.00 L 180.22 25.00 L 180.34 25.00 L 194.98 25.00 L 200.90 25.00 L 220.45 25.00 L 222.22 25.00 L 225.59 25.00 L 235.39 25.00 L 235.42 25.00 L 235.62 25.00 L 235.83 25.00 L 265.77 25.00 L 268.80 25.00 L 268.88 25.00 L 268.95 25.00 L 284.39 25.00 L 287.84 25.00 L 297.73 25.00 L 299.02 25.00 L 302.99 25.00 L 311.97 25.00 L 319.28 25.00 L 321.03 25.00 L 351.60 25.00 L 351.79 25.00 L 354.65 25.00 L 354.67 25.00 L 354.97 25.00 L 388.34 25.00 L 388.93 25.00 L 391.70 25.00 L 409.38 25.00 L 416.27 25.00 L 431.51 25.00 L 437.51 25.00 L 437.60 25.00 L 437.76 25.00 L 440.51 25.00 L 440.73 25.00 L 459.72 25.00 L 462.34 25.00 L 483.47 25.00 L 498.99 25.00 L 499.03 25.00 L 517.46 25.00 L 520.03 25.00 L 520.08 25.00 L 523.50 25.00 L 535.90 25.00 L 536.02 25.00 L 536.09 25.00 L 545.17 25.00 L 545.29 25.00 L 547.88 25.00 L 585.37 25.00 L 590.79 25.00 L 612.47 25.00 L 627.90 25.00 L 630.61 25.00 L 630.72 25.00 L 630.79 25.00 L 633.66 25.00 L 646.30 25.00 L 649.73 25.00 L 650.29 25.00 L 650.33 25.00 L 650.47 25.00 L 651.41 25.00 L 670.78 25.00 L 713.38 25.00 L 714.09 25.00 L 719.52 25.00 L 759.47 25.00 L 759.98 25.00 L 760.17 25.00 L 823.86 25.00 L 826.83 25.00 L 864.32 25.00 L 906.72 25.00 L 946.09 25.00 L 949.84 25.00 L 952.04 25.00 L 967.87 25.00 L 993.21 25.00 L 1016.83 25.00 L 1017.02 25.00 L 1017.04 25.00 L 1019.99 25.00 L 1035.73 25.00 L 1057.16 25.00 L 1102.91 25.00 L 1143.34 25.00 L 1170.00 25.00 L 1170.00 40.03 L 1143.34 43.04 L 1102.91 45.90 L 1057.16 47.71 L 1035.73 42.58 L 1019.99 45.44 L 1017.04 48.28 L 1017.02 43.15 L 1016.83 41.84 L 993.21 44.83 L 967.87 46.33 L 952.04 49.18 L 949.84 47.55 L 946.09 49.11 L 906.72 50.34 L 864.32 49.58 L 826.83 52.51 L 823.86 55.31 L 760.17 56.89 L 759.98 57.54 L 759.47 60.44 L 719.52 60.98 L 714.09 63.72 L 713.38 66.46 L 670.78 69.18 L 651.41 70.83 L 650.47 65.94 L 650.33 67.49 L 650.29 62.62 L 649.73 57.67 L 646.30 52.63 L 633.66 47.54 L 630.79 50.36 L 630.72 52.06 L 630.61 51.94 L 627.90 54.74 L 612.47 56.99 L 590.79 58.43 L 585.37 59.72 L 547.88 54.70 L 545.29 57.46 L 545.17 56.94 L 536.09 59.71 L 536.02 61.00 L 535.90 61.26 L 523.50 56.26 L 520.08 51.20 L 520.03 53.13 L 517.46 48.04 L 499.03 48.50 L 498.99 51.16 L 483.47 53.25 L 462.34 55.03 L 459.72 57.28 L 440.73 52.24 L 440.51 54.65 L 437.76 57.42 L 437.60 52.38 L 437.51 53.01 L 431.51 47.93 L 416.27 42.78 L 409.38 41.94 L 391.70 40.22 L 388.93 35.00 L 388.34 35.10 L 354.97 37.01 L 354.67 39.12 L 354.65 41.88 L 351.79 44.73 L 351.60 39.57 L 321.03 42.43 L 319.28 44.34 L 311.97 47.18 L 302.99 49.20 L 299.02 51.74 L 297.73 52.89 L 287.84 51.30 L 284.39 51.92 L 268.95 50.94 L 268.88 45.84 L 268.80 40.72 L 265.77 43.59 L 235.83 46.41 L 235.62 47.26 L 235.42 46.66 L 235.39 49.10 L 225.59 43.98 L 222.22 46.35 L 220.45 48.68 L 200.90 51.50 L 194.98 54.31 L 180.34 54.13 L 180.22 52.49 L 180.10 51.55 L 180.09 46.47 L 179.93 41.34 L 174.15 36.15 L 161.91 38.51 L 161.68 38.31 L 134.22 40.66 L 130.29 42.05 L 118.52 36.85 L 110.12 39.52 L 97.11 40.79 L 94.09 35.58 L 70.00 30.31 Z" fill="#d0d0d0" fill-opacity="0.5" stroke="none"/>
<polyline fill="none" stroke="#111" stroke-width="1.2" points="70.00,30.31 94.09,35.58 97.11,40.79 110.12,39.52 118.52,36.85 130.29,42.05 134.22,40.66 161.68,38.31 161.91,38.51 174.15,36.15 179.93,41.34 180.09,46.47 180.10,51.55 180.22,52.49 180.34,54.13 194.98,54.31 200.90,51.50 220.45,48.68 222.22,46.35 225.59,43.98 235.39,49.10 235.42,46.66 235.62,47.26 235.83,46.41 265.77,43.59 268.80,40.72 268.88,45.84 268.95,50.94 284.39,51.92 287.84,51.30 297.73,52.89 299.02,51.74 302.99,49.20 311.97,47.18 319.28,44.34 321.03,42.43 351.60,39.57 351.79,44.73 354.65,41.88 354.67,39.12 354.97,37.01 388.34,35.10 388.93,35.00 391.70,40.22 409.38,41.94 416.27,42.78 431.51,47.93 437.51,53.01 437.60,52.38 437.76,57.42 440.51,54.65 440.73,52.24 459.72,57.28 462.34,55.03 483.47,53.25 498.99,51.16 499.03,48.50 517.46,48.04 520.03,53.13 520.08,51.20 523.50,56.26 535.90,61.26 536.02,61.00 536.09,59.71 545.17,56.94 545.29,57.46 547.88,54.70 585.37,59.72 590.79,58.43 612.47,56.99 627.90,54.74 630.61,51.94 630.72,52.06 630.79,50.36 633.66,47.54 646.30,52.63 649.73,57.67 650.29,62.62 650.33,67.49 650.47,65.94 651.41,70.83 670.78,69.18 713.38,66.46 714.09,63.72 719.52,60.98 759.47,60.44 759.98,57.54 760.17,56.89 823.86,55.31 826.83,52.51 864.32,49.58 906.72,50.34 946.09,49.11 949.84,47.55 952.04,49.18 967.87,46.33 993.21,44.83 1016.83,41.84 1017.02,43.15 1017.04,48.28 1019.99,45.44 1035.73,42.58 1057.16,47.71 1102.91,45.90 1143.34,43.04 1170.00,40.03"/>
<text x="620.0" y="588" text-anchor="middle" font-family="sans-serif" font-size="12" fill="#333">UTC time</text>
<text x="15" y="287.5" transform="rotate(-90 15,287.5)" text-anchor="middle" font-family="sans-serif" font-size="12" fill="#333">Capital</text>
</svg>