<svg xmlns="http://www.w3.org/2000/svg" width="1200" height="600" viewBox="0 0 1200 600">
<desc>Equity curve with drawdown fill</desc>
<text x="600.0" y="18.0" text-anchor="middle" font-family="sans-serif" font-size="14">Portfolio 2010</text>
<rect x="70" y="25" width="1100" height="525" fill="white" stroke="#ccc" />
<line x1="70" y1="550.00" x2="1170" y2="550.00" stroke="#eee"/>
<text x="62" y="554.0" text-anchor="end" font-family="sans-serif" font-size="11" fill="#555">0.00</text>
<line x1="70" y1="445.00" x2="1170" y2="445.00" stroke="#eee"/>
<text x="62" y="449.0" text-anchor="end" font-family="sans-serif" font-size="11" fill="#555">23359</text>
<line x1="70" y1="340.00" x2="1170" y2="340.00" stroke="#eee"/>
<text x="62" y="344.0" text-anchor="end" font-family="sans-serif" font-size="11" fill="#555">46718</text>
<line x1="70" y1="235.00" x2="1170" y2="235.00" stroke="#eee"/>
<text x="62" y="239.0" text-anchor="end" font-family="sans-serif" font-size="11" fill="#555">70077</text>
<line x1="70" y1="130.00" x2="1170" y2="130.00" stroke="#eee"/>
<text x="62" y="134.0" text-anchor="end" font-family="sans-serif" font-size="11" fill="#555">93436</text>
<line x1="70" y1="25.00" x2="1170" y2="25.00" stroke="#eee"/>
<text x="62" y="29.0" text-anchor="end" font-family="sans-serif" font-size="11" fill="#555">116794</text>
<line x1="154.02" y1="25" x2="154.02" y2="550" stroke="#f2f2f2"/>
<text x="154.02" y="566" text-anchor="middle" font-family="sans-serif" font-size="11" fill="#555">Feb</text>
<line x1="239.38" y1="25" x2="239.38" y2="550" stroke="#f2f2f2"/>
<text x="239.38" y="566" text-anchor="middle" font-family="sans-serif" font-size="11" fill="#555">Mar</text>
<line x1="333.88" y1="25" x2="333.88" y2="550" stroke="#f2f2f2"/>
<text x="333.88" y="566" text-anchor="middle" font-family="sans-serif" font-size="11" fill="#555">Apr</text>
<line x1="425.33" y1="25" x2="425.33" y2="550" stroke="#f2f2f2"/>
<text x="425.33" y="566" text-anchor="middle" font-family="sans-serif" font-size="11" fill="#555">May</text>
<line x1="519.83" y1="25" x2="519.83" y2="550" stroke="#f2f2f2"/>
<text x="519.83" y="566" text-anchor="middle" font-family="sans-serif" font-size="11" fill="#555">Jun</text>
<line x1="611.29" y1="25" x2="611.29" y2="550" stroke="#f2f2f2"/>
<text x="611.29" y="566" text-anchor="middle" font-family="sans-serif" font-size="11" fill="#555">Jul</text>
<line x1="705.79" y1="25" x2="705.79" y2="550" stroke="#f2f2f2"/>
<text x="705.79" y="566" text-anchor="middle" font-family="sans-serif" font-size="11" fill="#555">Aug</text>
<line x1="800.29" y1="25" x2="800.29" y2="550" stroke="#f2f2f2"/>
<text x="800.29" y="566" text-anchor="middle" font-family="sans-serif" font-size="11" fill="#555">Sep</text>
<line x1="891.74" y1="25" x2="891.74" y2="550" stroke="#f2f2f2"/>
<text x="891.74" y="566" text-anchor="middle" font-family="sans-serif" font-size="11" fill="#555">Oct</text>
<line x1="986.24" y1="25" x2="986.24" y2="550" stroke="#f2f2f2"/>
<text x="986.24" y="566" text-anchor="middle" font-family="sans-serif" font-size="11" fill="#555">Nov</text>
<line x1="1077.70" y1="25" x2="1077.70" y2="550" stroke="#f2f2f2"/>
<text x="1077.70" y="566" text-anchor="middle" font-family="sans-serif" font-size="11" fill="#555">Dec</text>
<line x1="1170.00" y1="25" x2="1170.00" y2="550" stroke="#f2f2f2"/>
<text x="1170.00" y="566" text-anchor="middle" font-family="sans-serif" font-size="11" fill="#555">Jan</text>
<line x1="70" y1="550" x2="1170" y2="550" stroke="#888"/>
<line x1="70" y1="25" x2="70" y2="550" stroke="#888"/>
<path d="M 70.00 100.49 L 70.00 101.92 Z" fill="#d0d0d0" fill-opacity="0.5" stroke="none"/>
<path d="M 83.28 97.36 L 83.28 97.63 Z" fill="#d0d0d0" fill-opacity="0.5" stroke="none"/>
<path d="M 102.58 94.15 L 102.58 95.13 Z" fill="#d0d0d0" fill-opacity="0.5" stroke="none"/>
<path d="M 180.60 77.72 L 183.45 77.72 L 186.42 77.72 L 189.45 77.72 L 201.86 77.72 L 204.89 77.72 L 207.79 77.72 L 208.78 77.72 L 208.82 77.72 L 211.11 77.72 L 222.59 77.72 L 226.19 77.72 L 229.62 77.72 L 232.29 77.72 L 243.64 77.72 L 244.20 77.72 L 247.57 77.72 L 250.53 77.72 L 268.90 77.72 L 274.31 77.72 L 293.38 77.72 L 310.31 77.72 L 310.76 77.72 L 314.95 77.72 L 336.01 77.72 L 338.77 77.72 L 360.23 77.72 L 367.32 77.72 L 367.44 77.72 L 377.77 77.72 L 396.48 77.72 L 399.87 77.72 L 400.96 77.72 L 402.22 77.72 L 403.07 77.72 L 411.46 77.72 L 415.32 77.72 L 417.88 77.72 L 424.35 77.72 L 431.78 77.72 L 433.51 77.72 L 436.38 77.72 L 441.59 77.72 L 442.28 77.72 L 442.72 77.72 L 443.02 77.72 L 443.04 77.72 L 444.06 77.72 L 444.11 77.72 L 444.31 77.72 L 444.64 77.72 L 444.75 77.72 L 445.36 77.72 L 445.63 77.72 L 445.69 77.72 L 445.69 78.01 L 445.63 80.64 L 445.36 82.10 L 444.75 84.49 L 444.64 86.48 L 444.31 89.08 L 444.11 90.63 L 444.06 92.84 L 443.04 95.16 L 443.02 97.30 L 442.72 92.66 L 442.28 94.95 L 441.59 96.91 L 436.38 92.27 L 433.51 93.98 L 431.78 94.15 L 424.35 89.48 L 417.88 91.68 L 415.32 93.75 L 411.46 89.08 L 403.07 90.60 L 402.22 89.44 L 400.96 84.73 L 399.87 87.35 L 396.48 89.96 L 377.77 91.43 L 367.44 92.93 L 367.32 88.26 L 360.23 90.01 L 338.77 91.10 L 336.01 93.45 L 314.95 94.98 L 310.76 96.81 L 310.31 98.92 L 293.38 100.80 L 274.31 99.99 L 268.90 99.23 L 250.53 100.51 L 247.57 100.87 L 244.20 96.27 L 243.64 98.21 L 232.29 99.94 L 229.62 95.34 L 226.19 97.15 L 222.59 98.29 L 211.11 93.67 L 208.82 96.02 L 208.78 97.86 L 207.79 93.24 L 204.89 93.53 L 201.86 88.85 L 189.45 84.14 L 186.42 86.76 L 183.45 82.03 L 180.60 82.49 Z" fill="#d0d0d0" fill-opacity="0.5" stroke="none"/>
<path d="M 453.89 68.81 L 454.00 68.81 L 454.11 68.81 L 454.29 68.81 L 454.29 69.53 L 454.11 72.06 L 454.00 73.94 L 453.89 73.67 Z" fill="#d0d0d0" fill-opacity="0.5" stroke="none"/>
<path d="M 454.67 68.68 L 454.80 68.68 L 454.87 68.68 L 455.08 68.68 L 455.92 68.68 L 456.52 68.68 L 457.10 68.68 L 460.99 68.68 L 463.15 68.68 L 463.21 68.68 L 466.74 68.68 L 466.89 68.68 L 466.89 69.84 L 466.74 72.31 L 463.21 74.32 L 463.15 76.60 L 460.99 71.75 L 457.10 73.72 L 456.52 76.19 L 455.92 77.77 L 455.08 79.71 L 454.87 74.90 L 454.80 74.92 L 454.67 73.54 Z" fill="#d0d0d0" fill-opacity="0.5" stroke="none"/>
<path d="M 474.54 67.05 L 474.60 67.05 L 474.75 67.05 L 474.75 68.27 L 474.60 70.33 L 474.54 71.94 Z" fill="#d0d0d0" fill-opacity="0.5" stroke="none"/>
<path d="M 479.64 54.09 L 481.89 54.09 L 481.89 54.09 L 482.02 54.09 L 482.14 54.09 L 482.28 54.09 L 482.66 54.09 L 483.59 54.09 L 484.26 54.09 L 484.27 54.09 L 484.78 54.09 L 485.22 54.09 L 485.60 54.09 L 485.60 54.09 L 485.74 54.09 L 486.43 54.09 L 486.73 54.09 L 487.02 54.09 L 487.26 54.09 L 487.45 54.09 L 487.48 54.09 L 488.11 54.09 L 488.23 54.09 L 496.63 54.09 L 498.76 54.09 L 499.69 54.09 L 500.42 54.09 L 500.69 54.09 L 500.99 54.09 L 501.92 54.09 L 503.33 54.09 L 505.39 54.09 L 506.34 54.09 L 506.65 54.09 L 506.71 54.09 L 506.83 54.09 L 506.88 54.09 L 507.00 54.09 L 508.66 54.09 L 508.85 54.09 L 509.40 54.09 L 509.89 54.09 L 520.90 54.09 L 521.21 54.09 L 521.27 54.09 L 521.77 54.09 L 521.80 54.09 L 521.85 54.09 L 521.96 54.09 L 525.06 54.09 L 526.30 54.09 L 527.94 54.09 L 530.70 54.09 L 530.81 54.09 L 531.09 54.09 L 538.32 54.09 L 542.52 54.09 L 543.26 54.09 L 545.98 54.09 L 548.02 54.09 L 549.16 54.09 L 552.42 54.09 L 559.47 54.09 L 560.87 54.09 L 564.01 54.09 L 564.58 54.09 L 581.12 54.09 L 583.09 54.09 L 588.80 54.09 L 589.38 54.09 L 591.21 54.09 L 592.08 54.09 L 592.08 55.39 L 591.21 58.16 L 589.38 59.97 L 588.80 54.95 L 583.09 57.71 L 581.12 59.99 L 564.58 62.25 L 564.01 64.43 L 560.87 62.97 L 559.47 63.38 L 552.42 66.10 L 549.16 67.56 L 548.02 62.62 L 545.98 57.64 L 543.26 59.49 L 542.52 61.99 L 538.32 63.92 L 531.09 66.04 L 530.81 68.73 L 530.70 68.89 L 527.94 64.00 L 526.30 64.62 L 525.06 66.21 L 521.96 68.71 L 521.85 70.61 L 521.80 72.37 L 521.77 67.51 L 521.27 62.57 L 521.21 62.76 L 520.90 61.33 L 509.89 56.33 L 509.40 58.80 L 508.85 60.22 L 508.66 55.22 L 507.00 56.58 L 506.88 58.01 L 506.83 59.87 L 506.71 54.86 L 506.65 57.32 L 506.34 59.70 L 505.39 62.23 L 503.33 62.23 L 501.92 63.76 L 500.99 64.13 L 500.69 66.27 L 500.42 67.73 L 499.69 70.20 L 498.76 70.03 L 496.63 72.18 L 488.23 67.29 L 488.11 69.38 L 487.48 71.12 L 487.45 66.21 L 487.26 66.14 L 487.02 68.52 L 486.73 70.19 L 486.43 70.39 L 485.74 72.45 L 485.60 67.61 L 485.60 62.70 L 485.22 57.72 L 484.78 60.46 L 484.27 61.42 L 484.26 64.26 L 483.59 59.30 L 482.66 60.80 L 482.28 61.60 L 482.14 64.06 L 482.02 66.19 L 481.89 61.24 L 481.89 64.08 L 479.64 59.11 Z" fill="#d0d0d0" fill-opacity="0.5" stroke="none"/>
<path d="M 612.50 48.16 L 613.24 48.16 L 613.39 48.16 L 616.05 48.16 L 616.11 48.16 L 628.48 48.16 L 637.45 48.16 L 637.45 48.98 L 628.48 49.99 L 616.11 52.28 L 616.05 54.08 L 613.39 56.85 L 613.24 51.82 L 612.50 53.23 Z" fill="#d0d0d0" fill-opacity="0.5" stroke="none"/>
<path d="M 667.30 40.80 L 670.16 40.80 L 670.69 40.80 L 673.66 40.80 L 674.81 40.80 L 676.59 40.80 L 677.24 40.80 L 679.57 40.80 L 680.16 40.80 L 680.23 40.80 L 680.36 40.80 L 680.51 40.80 L 680.80 40.80 L 692.49 40.80 L 710.86 40.80 L 713.11 40.80 L 717.02 40.80 L 722.80 40.80 L 722.93 40.80 L 722.94 40.80 L 723.02 40.80 L 735.67 40.80 L 735.75 40.80 L 736.63 40.80 L 737.24 40.80 L 738.11 40.80 L 738.37 40.80 L 740.68 40.80 L 760.79 40.80 L 762.47 40.80 L 762.93 40.80 L 765.05 40.80 L 765.20 40.80 L 777.84 40.80 L 777.91 40.80 L 780.17 40.80 L 787.15 40.80 L 801.61 40.80 L 818.83 40.80 L 823.60 40.80 L 837.11 40.80 L 841.88 40.80 L 841.96 40.80 L 842.02 40.80 L 842.15 40.80 L 850.77 40.80 L 851.05 40.80 L 863.73 40.80 L 865.59 40.80 L 866.13 40.80 L 871.64 40.80 L 883.71 40.80 L 884.04 40.80 L 884.67 40.80 L 890.83 40.80 L 902.18 40.80 L 905.12 40.80 L 905.98 40.80 L 908.52 40.80 L 911.09 40.80 L 911.98 40.80 L 914.81 40.80 L 914.85 40.80 L 927.81 40.80 L 931.65 40.80 L 936.11 40.80 L 936.36 40.80 L 936.62 40.80 L 944.06 40.80 L 948.26 40.80 L 949.14 40.80 L 951.64 40.80 L 951.76 40.80 L 953.06 40.80 L 953.69 40.80 L 953.94 40.80 L 955.16 40.80 L 956.89 40.80 L 965.22 40.80 L 969.68 40.80 L 978.91 40.80 L 986.37 40.80 L 991.07 40.80 L 994.79 40.80 L 996.67 40.80 L 1000.15 40.80 L 1000.60 40.80 L 1007.87 40.80 L 1007.95 40.80 L 1010.74 40.80 L 1012.03 40.80 L 1012.78 40.80 L 1015.57 40.80 L 1015.61 40.80 L 1016.04 40.80 L 1017.91 40.80 L 1021.19 40.80 L 1033.99 40.80 L 1039.24 40.80 L 1051.95 40.80 L 1053.47 40.80 L 1055.10 40.80 L 1057.52 40.80 L 1057.55 40.80 L 1057.69 40.80 L 1058.23 40.80 L 1063.70 40.80 L 1063.70 41.66 L 1058.23 43.86 L 1057.69 46.41 L 1057.55 48.25 L 1057.52 50.66 L 1055.10 45.56 L 1053.47 48.08 L 1051.95 50.34 L 1039.24 45.25 L 1033.99 47.26 L 1021.19 49.83 L 1017.91 52.38 L 1016.04 54.65 L 1015.61 56.70 L 1015.57 59.36 L 1012.78 54.35 L 1012.03 55.66 L 1010.74 55.22 L 1007.95 54.92 L 1007.87 55.75 L 1000.60 50.70 L 1000.15 52.95 L 996.67 55.87 L 994.79 50.83 L 991.07 53.76 L 986.37 54.74 L 978.91 57.55 L 969.68 58.43 L 965.22 60.71 L 956.89 61.60 L 955.16 64.15 L 953.94 64.99 L 953.69 65.72 L 953.06 67.78 L 951.76 69.49 L 951.64 68.96 L 949.14 64.03 L 948.26 63.59 L 944.06 65.56 L 936.62 65.74 L 936.36 67.56 L 936.11 62.62 L 931.65 65.38 L 927.81 64.11 L 914.85 64.39 L 914.81 67.14 L 911.98 62.19 L 911.09 64.74 L 908.52 65.88 L 905.98 68.61 L 905.12 70.53 L 902.18 65.63 L 890.83 67.44 L 884.67 68.43 L 884.04 63.50 L 883.71 64.50 L 871.64 64.52 L 866.13 65.85 L 865.59 68.31 L 863.73 71.03 L 851.05 66.12 L 850.77 68.57 L 842.15 70.32 L 842.02 70.31 L 841.96 65.40 L 841.88 60.47 L 837.11 55.46 L 823.60 54.71 L 818.83 56.44 L 801.61 54.85 L 787.15 56.48 L 780.17 57.69 L 777.91 58.36 L 777.84 59.65 L 765.20 54.63 L 765.05 54.84 L 762.93 55.77 L 762.47 55.95 L 760.79 57.86 L 740.68 60.36 L 738.37 60.31 L 738.11 60.04 L 737.24 61.46 L 736.63 63.10 L 735.75 61.28 L 735.67 62.10 L 723.02 64.84 L 722.94 65.52 L 722.93 60.60 L 722.80 55.63 L 717.02 50.58 L 713.11 48.87 L 710.86 48.42 L 692.49 43.30 L 680.80 45.73 L 680.51 47.66 L 680.36 50.47 L 680.23 52.01 L 680.16 53.26 L 679.57 48.19 L 677.24 43.07 L 676.59 45.91 L 674.81 47.48 L 673.66 46.79 L 670.69 48.76 L 670.16 43.65 L 667.30 45.94 Z" fill="#d0d0d0" fill-opacity="0.5" stroke="none"/>
<path d="M 1073.01 37.50 L 1078.78 37.50 L 1078.78 40.39 L 1073.01 42.66 Z" fill="#d0d0d0" fill-opacity="0.5" stroke="none"/>
<path d="M 1103.36 27.91 L 1104.05 27.91 L 1115.82 27.91 L 1118.41 27.91 L 1119.25 27.91 L 1121.21 27.91 L 1122.72 27.91 L 1128.11 27.91 L 1128.57 27.91 L 1137.65 27.91 L 1138.94 27.91 L 1146.83 27.91 L 1146.83 27.94 L 1138.94 30.86 L 1137.65 30.73 L 1128.57 32.51 L 1128.11 32.18 L 1122.72 32.75 L 1121.21 31.46 L 1119.25 33.89 L 1118.41 28.64 L 1115.82 28.88 L 1104.05 30.92 L 1103.36 33.17 Z" fill="#d0d0d0" fill-opacity="0.5" stroke="none"/>
<path d="M 1161.89 25.00 L 1165.23 25.00 L 1170.00 25.00 L 1170.00 26.66 L 1165.23 28.76 L 1161.89 30.28 Z" fill="#d0d0d0" fill-opacity="0.5" stroke="none"/>
<polyline fill="none" stroke="#111" stroke-width="1.2" points="70.00,101.92 75.63,99.38 82.68,97.36 83.28,97.63 90.04,96.46 97.71,95.60 98.12,94.15 102.58,95.13 115.74,94.13 117.64,92.41 122.64,89.98 142.05,87.36 165.31,85.40 166.36,82.78 167.30,80.14 168.15,77.72 180.60,82.49 183.45,82.03 186.42,86.76 189.45,84.14 201.86,88.85 204.89,93.53 207.79,93.24 208.78,97.86 208.82,96.02 211.11,93.67 222.59,98.29 226.19,97.15 229.62,95.34 232.29,99.94 243.64,98.21 244.20,96.27 247.57,100.87 250.53,100.51 268.90,99.23 274.31,99.99 293.38,100.80 310.31,98.92 310.76,96.81 314.95,94.98 336.01,93.45 338.77,91.10 360.23,90.01 367.32,88.26 367.44,92.93 377.77,91.43 396.48,89.96 399.87,87.35 400.96,84.73 402.22,89.44 403.07,90.60 411.46,89.08 415.32,93.75 417.88,91.68 424.35,89.48 431.78,94.15 433.51,93.98 436.38,92.27 441.59,96.91 442.28,94.95 442.72,92.66 443.02,97.30 443.04,95.16 444.06,92.84 444.11,90.63 444.31,89.08 444.64,86.48 444.75,84.49 445.36,82.10 445.63,80.64 445.69,78.01 445.82,75.35 452.65,72.52 453.00,69.82 453.25,68.81 453.89,73.67 454.00,73.94 454.11,72.06 454.29,69.53 454.53,68.68 454.67,73.54 454.80,74.92 454.87,74.90 455.08,79.71 455.92,77.77 456.52,76.19 457.10,73.72 460.99,71.75 463.15,76.60 463.21,74.32 466.74,72.31 466.89,69.84 467.06,68.57 467.18,67.05 474.54,71.94 474.60,70.33 474.75,68.27 475.78,66.91 476.19,64.61 477.45,62.45 478.26,60.97 478.38,58.90 479.21,56.40 479.49,54.09 479.64,59.11 481.89,64.08 481.89,61.24 482.02,66.19 482.14,64.06 482.28,61.60 482.66,60.80 483.59,59.30 484.26,64.26 484.27,61.42 484.78,60.46 485.22,57.72 485.60,62.70 485.60,67.61 485.74,72.45 486.43,70.39 486.73,70.19 487.02,68.52 487.26,66.14 487.45,66.21 487.48,71.12 488.11,69.38 488.23,67.29 496.63,72.18 498.76,70.03 499.69,70.20 500.42,67.73 500.69,66.27 500.99,64.13 501.92,63.76 503.33,62.23 505.39,62.23 506.34,59.70 506.65,57.32 506.71,54.86 506.83,59.87 506.88,58.01 507.00,56.58 508.66,55.22 508.85,60.22 509.40,58.80 509.89,56.33 520.90,61.33 521.21,62.76 521.27,62.57 521.77,67.51 521.80,72.37 521.85,70.61 521.96,68.71 525.06,66.21 526.30,64.62 527.94,64.00 530.70,68.89 530.81,68.73 531.09,66.04 538.32,63.92 542.52,61.99 543.26,59.49 545.98,57.64 548.02,62.62 549.16,67.56 552.42,66.10 559.47,63.38 560.87,62.97 564.01,64.43 564.58,62.25 581.12,59.99 583.09,57.71 588.80,54.95 589.38,59.97 591.21,58.16 592.08,55.39 595.26,53.72 606.38,50.94 609.56,48.16 612.50,53.23 613.24,51.82 613.39,56.85 616.05,54.08 616.11,52.28 628.48,49.99 637.45,48.98 648.94,46.18 649.75,46.11 650.03,44.84 653.06,44.77 655.80,43.24 658.95,40.80 667.30,45.94 670.16,43.65 670.69,48.76 673.66,46.79 674.81,47.48 676.59,45.91 677.24,43.07 679.57,48.19 680.16,53.26 680.23,52.01 680.36,50.47 680.51,47.66 680.80,45.73 692.49,43.30 710.86,48.42 713.11,48.87 717.02,50.58 722.80,55.63 722.93,60.60 722.94,65.52 723.02,64.84 735.67,62.10 735.75,61.28 736.63,63.10 737.24,61.46 738.11,60.04 738.37,60.31 740.68,60.36 760.79,57.86 762.47,55.95 762.93,55.77 765.05,54.84 765.20,54.63 777.84,59.65 777.91,58.36 780.17,57.69 787.15,56.48 801.61,54.85 818.83,56.44 823.60,54.71 837.11,55.46 841.88,60.47 841.96,65.40 842.02,70.31 842.15,70.32 850.77,68.57 851.05,66.12 863.73,71.03 865.59,68.31 866.13,65.85 871.64,64.52 883.71,64.50 884.04,63.50 884.67,68.43 890.83,67.44 902.18,65.63 905.12,70.53 905.98,68.61 908.52,65.88 911.09,64.74 911.98,62.19 914.81,67.14 914.85,64.39 927.81,64.11 931.65,65.38 936.11,62.62 936.36,67.56 936.62,65.74 944.06,65.56 948.26,63.59 949.14,64.03 951.64,68.96 951.76,69.49 953.06,67.78 953.69,65.72 953.94,64.99 955.16,64.15 956.89,61.60 965.22,60.71 969.68,58.43 978.91,57.55 986.37,54.74 991.07,53.76 994.79,50.83 996.67,55.87 1000.15,52.95 1000.60,50.70 1007.87,55.75 1007.95,54.92 1010.74,55.22 1012.03,55.66 1012.78,54.35 1015.57,59.36 1015.61,56.70 1016.04,54.65 1017.91,52.38 1021.19,49.83 1033.99,47.26 1039.24,45.25 1051.95,50.34 1053.47,48.08 1055.10,45.56 1057.52,50.66 1057.55,48.25 1057.69,46.41 1058.23,43.86 1063.70,41.66 1071.73,40.08 1072.62,37.50 1073.01,42.66 1078.78,40.39 1079.84,37.39 1082.55,34.93 1082.65,32.03 1082.88,29.78 1085.88,29.06 1094.37,27.91 1103.36,33.17 1104.05,30.92 1115.82,28.88 1118.41,28.64 1119.25,33.89 1121.21,31.46 1122.72,32.75 1128.11,32.18 1128.57,32.51 1137.65,30.73 1138.94,30.86 1146.83,27.94 1160.04,25.00 1161.89,30.28 1165.23,28.76 1170.00,26.66"/>
<text x="620.0" y="588" text-anchor="middle" font-family="sans-serif" font-size="12" fill="#333">UTC time</text>
<text x="15" y="287.5" transform="rotate(-90 15,287.5)" text-anchor="middle" font-family="sans-serif" font-size="12" fill="#333">Capital</text>
</svg>