<svg xmlns="http://www.w3.org/2000/svg" width="1200" height="600" viewBox="0 0 1200 600">
<desc>Equity curve with drawdown fill; x-axis is months only (no exact timestamps)</desc>
<text x="600.0" y="18.0" text-anchor="middle" font-family="sans-serif" font-size="14">Portfolio 2015 (UTC)</text>
<rect x="70" y="25" width="1100" height="525" fill="white" stroke="#ccc" />
<line x1="70" y1="550.00" x2="1170" y2="550.00" stroke="#eee"/>
<text x="62" y="554.0" text-anchor="end" font-family="sans-serif" font-size="11" fill="#555">0.00</text>
<line x1="70" y1="445.00" x2="1170" y2="445.00" stroke="#eee"/>
<text x="62" y="449.0" text-anchor="end" font-family="sans-serif" font-size="11" fill="#555">54119</text>
<line x1="70" y1="340.00" x2="1170" y2="340.00" stroke="#eee"/>
<text x="62" y="344.0" text-anchor="end" font-family="sans-serif" font-size="11" fill="#555">108238</text>
<line x1="70" y1="235.00" x2="1170" y2="235.00" stroke="#eee"/>
<text x="62" y="239.0" text-anchor="end" font-family="sans-serif" font-size="11" fill="#555">162358</text>
<line x1="70" y1="130.00" x2="1170" y2="130.00" stroke="#eee"/>
<text x="62" y="134.0" text-anchor="end" font-family="sans-serif" font-size="11" fill="#555">216477</text>
<line x1="70" y1="25.00" x2="1170" y2="25.00" stroke="#eee"/>
<text x="62" y="29.0" text-anchor="end" font-family="sans-serif" font-size="11" fill="#555">270596</text>
<line x1="161.67" y1="25" x2="161.67" y2="550" stroke="#f2f2f2"/>
<line x1="253.33" y1="25" x2="253.33" y2="550" stroke="#f2f2f2"/>
<line x1="345.00" y1="25" x2="345.00" y2="550" stroke="#f2f2f2"/>
<line x1="436.67" y1="25" x2="436.67" y2="550" stroke="#f2f2f2"/>
<line x1="528.33" y1="25" x2="528.33" y2="550" stroke="#f2f2f2"/>
<line x1="620.00" y1="25" x2="620.00" y2="550" stroke="#f2f2f2"/>
<line x1="711.67" y1="25" x2="711.67" y2="550" stroke="#f2f2f2"/>
<line x1="803.33" y1="25" x2="803.33" y2="550" stroke="#f2f2f2"/>
<line x1="895.00" y1="25" x2="895.00" y2="550" stroke="#f2f2f2"/>
<line x1="986.67" y1="25" x2="986.67" y2="550" stroke="#f2f2f2"/>
<line x1="1078.33" y1="25" x2="1078.33" y2="550" stroke="#f2f2f2"/>
<text x="115.83" y="566.00" text-anchor="middle" font-family="sans-serif" font-size="11" fill="#444">Jan</text>
<text x="207.50" y="566.00" text-anchor="middle" font-family="sans-serif" font-size="11" fill="#444">Feb</text>
<text x="299.17" y="566.00" text-anchor="middle" font-family="sans-serif" font-size="11" fill="#444">Mar</text>
<text x="390.83" y="566.00" text-anchor="middle" font-family="sans-serif" font-size="11" fill="#444">Apr</text>
<text x="482.50" y="566.00" text-anchor="middle" font-family="sans-serif" font-size="11" fill="#444">May</text>
<text x="574.17" y="566.00" text-anchor="middle" font-family="sans-serif" font-size="11" fill="#444">Jun</text>
<text x="665.83" y="566.00" text-anchor="middle" font-family="sans-serif" font-size="11" fill="#444">Jul</text>
<text x="757.50" y="566.00" text-anchor="middle" font-family="sans-serif" font-size="11" fill="#444">Aug</text>
<text x="849.17" y="566.00" text-anchor="middle" font-family="sans-serif" font-size="11" fill="#444">Sep</text>
<text x="940.83" y="566.00" text-anchor="middle" font-family="sans-serif" font-size="11" fill="#444">Oct</text>
<text x="1032.50" y="566.00" text-anchor="middle" font-family="sans-serif" font-size="11" fill="#444">Nov</text>
<text x="1124.17" y="566.00" text-anchor="middle" font-family="sans-serif" font-size="11" fill="#444">Dec</text>
<line x1="70" y1="550" x2="1170" y2="550" stroke="#888"/>
<line x1="70" y1="25" x2="70" y2="550" stroke="#888"/>
<line x1="77.64" y1="550.00" x2="77.64" y2="556.00" stroke="#888"/>
<line x1="1158.54"   y1="550.00" x2="1158.54"   y2="556.00" stroke="#888"/>
<text x="77.64" y="582.00" text-anchor="start" font-family="sans-serif" font-size="11" fill="#333">Initial Balance: 217807</text>
<text x="1158.54"   y="582.00" text-anchor="end"   font-family="sans-serif" font-size="11" fill="#333">Ending Balance: 269241</text>
<path d="M 165.83 117.98 L 174.17 117.98 L 182.50 117.98 L 182.50 119.39 L 174.17 121.56 L 165.83 122.37 Z" fill="#d0d0d0" fill-opacity="0.5" stroke="none"/>
<path d="M 255.33 106.91 L 255.33 107.71 Z" fill="#d0d0d0" fill-opacity="0.5" stroke="none"/>
<path d="M 263.30 106.88 L 267.28 106.88 L 267.28 108.99 L 263.30 111.38 Z" fill="#d0d0d0" fill-opacity="0.5" stroke="none"/>
<path d="M 279.24 105.13 L 283.22 105.13 L 287.21 105.13 L 287.21 107.29 L 283.22 107.63 L 279.24 109.65 Z" fill="#d0d0d0" fill-opacity="0.5" stroke="none"/>
<path d="M 311.12 96.42 L 315.11 96.42 L 319.09 96.42 L 319.09 97.03 L 315.11 98.73 L 311.12 101.02 Z" fill="#d0d0d0" fill-opacity="0.5" stroke="none"/>
<path d="M 361.89 77.46 L 366.71 77.46 L 371.54 77.46 L 371.54 78.63 L 366.71 79.75 L 361.89 82.24 Z" fill="#d0d0d0" fill-opacity="0.5" stroke="none"/>
<path d="M 381.18 76.07 L 386.01 76.07 L 390.83 76.07 L 395.66 76.07 L 400.48 76.07 L 405.31 76.07 L 410.13 76.07 L 414.96 76.07 L 419.78 76.07 L 424.61 76.07 L 429.43 76.07 L 434.25 76.07 L 439.72 76.07 L 445.83 76.07 L 451.94 76.07 L 458.06 76.07 L 464.17 76.07 L 470.28 76.07 L 470.28 77.38 L 464.17 79.95 L 458.06 82.19 L 451.94 77.41 L 445.83 78.80 L 439.72 81.36 L 434.25 82.48 L 429.43 84.77 L 424.61 80.04 L 419.78 82.72 L 414.96 83.85 L 410.13 79.09 L 405.31 80.54 L 400.48 82.39 L 395.66 82.13 L 390.83 84.44 L 386.01 79.68 L 381.18 80.86 Z" fill="#d0d0d0" fill-opacity="0.5" stroke="none"/>
<path d="M 494.72 71.10 L 500.83 71.10 L 506.94 71.10 L 513.06 71.10 L 519.17 71.10 L 525.28 71.10 L 530.62 71.10 L 535.21 71.10 L 539.79 71.10 L 544.38 71.10 L 548.96 71.10 L 548.96 71.16 L 544.38 73.57 L 539.79 76.16 L 535.21 71.33 L 530.62 73.39 L 525.28 75.97 L 519.17 77.86 L 513.06 80.21 L 506.94 79.52 L 500.83 80.73 L 494.72 75.94 Z" fill="#d0d0d0" fill-opacity="0.5" stroke="none"/>
<path d="M 594.79 51.95 L 599.38 51.95 L 603.96 51.95 L 608.54 51.95 L 613.12 51.95 L 617.71 51.95 L 625.09 51.95 L 635.28 51.95 L 645.46 51.95 L 645.46 52.68 L 635.28 54.17 L 625.09 56.84 L 617.71 59.34 L 613.12 62.15 L 608.54 57.23 L 603.96 60.03 L 599.38 61.92 L 594.79 56.95 Z" fill="#d0d0d0" fill-opacity="0.5" stroke="none"/>
<path d="M 665.83 50.24 L 665.83 50.66 Z" fill="#d0d0d0" fill-opacity="0.5" stroke="none"/>
<path d="M 696.39 45.34 L 706.57 45.34 L 714.08 45.34 L 718.90 45.34 L 723.73 45.34 L 728.55 45.34 L 733.38 45.34 L 738.20 45.34 L 743.03 45.34 L 747.85 45.34 L 752.68 45.34 L 757.50 45.34 L 757.50 46.36 L 752.68 48.97 L 747.85 51.48 L 743.03 51.92 L 738.20 52.71 L 733.38 47.66 L 728.55 47.14 L 723.73 49.86 L 718.90 52.70 L 714.08 47.65 L 706.57 50.36 L 696.39 50.36 Z" fill="#d0d0d0" fill-opacity="0.5" stroke="none"/>
<path d="M 771.97 42.47 L 776.80 42.47 L 781.62 42.47 L 786.45 42.47 L 791.27 42.47 L 791.27 44.48 L 786.45 45.08 L 781.62 47.97 L 776.80 45.17 L 771.97 47.56 Z" fill="#d0d0d0" fill-opacity="0.5" stroke="none"/>
<path d="M 860.62 36.24 L 883.54 36.24 L 901.55 36.24 L 914.64 36.24 L 927.74 36.24 L 927.74 37.62 L 914.64 36.97 L 901.55 37.77 L 883.54 38.19 L 860.62 37.41 Z" fill="#d0d0d0" fill-opacity="0.5" stroke="none"/>
<path d="M 967.02 32.14 L 967.02 33.75 Z" fill="#d0d0d0" fill-opacity="0.5" stroke="none"/>
<path d="M 1112.71 25.00 L 1135.62 25.00 L 1158.54 25.00 L 1158.54 27.63 L 1135.62 28.53 L 1112.71 30.24 Z" fill="#d0d0d0" fill-opacity="0.5" stroke="none"/>
<polyline fill="none" stroke="#111" stroke-width="1.2" points="77.64,127.42 92.92,125.08 108.19,124.55 123.47,122.27 138.75,120.15 154.03,117.98 165.83,122.37 174.17,121.56 182.50,119.39 190.83,117.57 199.17,116.51 207.50,115.75 215.83,113.49 224.17,112.22 232.50,110.35 240.83,109.48 249.17,106.91 255.33,107.71 259.31,106.88 263.30,111.38 267.28,108.99 271.27,106.65 275.25,105.13 279.24,109.65 283.22,107.63 287.21,107.29 291.20,104.87 295.18,102.58 299.17,100.71 303.15,98.78 307.14,96.42 311.12,101.02 315.11,98.73 319.09,97.03 323.08,94.55 327.07,92.05 331.05,89.82 335.04,88.27 339.02,85.74 343.01,83.25 347.41,81.25 352.24,78.89 357.06,77.46 361.89,82.24 366.71,79.75 371.54,78.63 376.36,76.07 381.18,80.86 386.01,79.68 390.83,84.44 395.66,82.13 400.48,82.39 405.31,80.54 410.13,79.09 414.96,83.85 419.78,82.72 424.61,80.04 429.43,84.77 434.25,82.48 439.72,81.36 445.83,78.80 451.94,77.41 458.06,82.19 464.17,79.95 470.28,77.38 476.39,74.79 482.50,72.86 488.61,71.10 494.72,75.94 500.83,80.73 506.94,79.52 513.06,80.21 519.17,77.86 525.28,75.97 530.62,73.39 535.21,71.33 539.79,76.16 544.38,73.57 548.96,71.16 553.54,68.55 558.12,68.37 562.71,65.74 567.29,63.91 571.88,61.80 576.46,59.14 581.04,56.46 585.62,54.65 590.21,51.95 594.79,56.95 599.38,61.92 603.96,60.03 608.54,57.23 613.12,62.15 617.71,59.34 625.09,56.84 635.28,54.17 645.46,52.68 655.65,50.24 665.83,50.66 676.02,48.19 686.20,45.34 696.39,50.36 706.57,50.36 714.08,47.65 718.90,52.70 723.73,49.86 728.55,47.14 733.38,47.66 738.20,52.71 743.03,51.92 747.85,51.48 752.68,48.97 757.50,46.36 762.32,43.61 767.15,42.47 771.97,47.56 776.80,45.17 781.62,47.97 786.45,45.08 791.27,44.48 796.10,41.74 800.92,39.68 814.79,39.01 837.71,36.24 860.62,37.41 883.54,38.19 901.55,37.77 914.64,36.97 927.74,37.62 940.83,34.84 953.93,32.14 967.02,33.75 980.12,30.96 1009.58,28.17 1055.42,27.27 1089.79,25.00 1112.71,30.24 1135.62,28.53 1158.54,27.63"/>
<text x="620.0" y="588" text-anchor="middle" font-family="sans-serif" font-size="12" fill="#333">Monthly Balance Curve</text>
<text x="15" y="287.5" transform="rotate(-90 15,287.5)" text-anchor="middle" font-family="sans-serif" font-size="12" fill="#333">Capital</text>
</svg>