<svg xmlns="http://www.w3.org/2000/svg" width="1200" height="600" viewBox="0 0 1200 600">
<desc>Equity curve with drawdown fill; x-axis is months only (no exact timestamps)</desc>
<text x="600.0" y="18.0" text-anchor="middle" font-family="sans-serif" font-size="14">Portfolio 2009 (UTC)</text>
<rect x="70" y="25" width="1100" height="525" fill="white" stroke="#ccc" />
<line x1="70" y1="550.00" x2="1170" y2="550.00" stroke="#eee"/>
<text x="62" y="554.0" text-anchor="end" font-family="sans-serif" font-size="11" fill="#555">0.00</text>
<line x1="70" y1="445.00" x2="1170" y2="445.00" stroke="#eee"/>
<text x="62" y="449.0" text-anchor="end" font-family="sans-serif" font-size="11" fill="#555">35690</text>
<line x1="70" y1="340.00" x2="1170" y2="340.00" stroke="#eee"/>
<text x="62" y="344.0" text-anchor="end" font-family="sans-serif" font-size="11" fill="#555">71380</text>
<line x1="70" y1="235.00" x2="1170" y2="235.00" stroke="#eee"/>
<text x="62" y="239.0" text-anchor="end" font-family="sans-serif" font-size="11" fill="#555">107070</text>
<line x1="70" y1="130.00" x2="1170" y2="130.00" stroke="#eee"/>
<text x="62" y="134.0" text-anchor="end" font-family="sans-serif" font-size="11" fill="#555">142761</text>
<line x1="70" y1="25.00" x2="1170" y2="25.00" stroke="#eee"/>
<text x="62" y="29.0" text-anchor="end" font-family="sans-serif" font-size="11" fill="#555">178451</text>
<line x1="161.67" y1="25" x2="161.67" y2="550" stroke="#f2f2f2"/>
<line x1="253.33" y1="25" x2="253.33" y2="550" stroke="#f2f2f2"/>
<line x1="345.00" y1="25" x2="345.00" y2="550" stroke="#f2f2f2"/>
<line x1="436.67" y1="25" x2="436.67" y2="550" stroke="#f2f2f2"/>
<line x1="528.33" y1="25" x2="528.33" y2="550" stroke="#f2f2f2"/>
<line x1="620.00" y1="25" x2="620.00" y2="550" stroke="#f2f2f2"/>
<line x1="711.67" y1="25" x2="711.67" y2="550" stroke="#f2f2f2"/>
<line x1="803.33" y1="25" x2="803.33" y2="550" stroke="#f2f2f2"/>
<line x1="895.00" y1="25" x2="895.00" y2="550" stroke="#f2f2f2"/>
<line x1="986.67" y1="25" x2="986.67" y2="550" stroke="#f2f2f2"/>
<line x1="1078.33" y1="25" x2="1078.33" y2="550" stroke="#f2f2f2"/>
<text x="115.83" y="566.00" text-anchor="middle" font-family="sans-serif" font-size="11" fill="#444">Jan</text>
<text x="207.50" y="566.00" text-anchor="middle" font-family="sans-serif" font-size="11" fill="#444">Feb</text>
<text x="299.17" y="566.00" text-anchor="middle" font-family="sans-serif" font-size="11" fill="#444">Mar</text>
<text x="390.83" y="566.00" text-anchor="middle" font-family="sans-serif" font-size="11" fill="#444">Apr</text>
<text x="482.50" y="566.00" text-anchor="middle" font-family="sans-serif" font-size="11" fill="#444">May</text>
<text x="574.17" y="566.00" text-anchor="middle" font-family="sans-serif" font-size="11" fill="#444">Jun</text>
<text x="665.83" y="566.00" text-anchor="middle" font-family="sans-serif" font-size="11" fill="#444">Jul</text>
<text x="757.50" y="566.00" text-anchor="middle" font-family="sans-serif" font-size="11" fill="#444">Aug</text>
<text x="849.17" y="566.00" text-anchor="middle" font-family="sans-serif" font-size="11" fill="#444">Sep</text>
<text x="940.83" y="566.00" text-anchor="middle" font-family="sans-serif" font-size="11" fill="#444">Oct</text>
<text x="1032.50" y="566.00" text-anchor="middle" font-family="sans-serif" font-size="11" fill="#444">Nov</text>
<text x="1124.17" y="566.00" text-anchor="middle" font-family="sans-serif" font-size="11" fill="#444">Dec</text>
<line x1="70" y1="550" x2="1170" y2="550" stroke="#888"/>
<line x1="70" y1="25" x2="70" y2="550" stroke="#888"/>
<line x1="70.72" y1="550.00" x2="70.72" y2="556.00" stroke="#888"/>
<line x1="1164.27"   y1="550.00" x2="1164.27"   y2="556.00" stroke="#888"/>
<text x="70.72" y="582.00" text-anchor="start" font-family="sans-serif" font-size="11" fill="#333">Initial Balance: 129870</text>
<text x="1164.27"   y="582.00" text-anchor="end"   font-family="sans-serif" font-size="11" fill="#333">Ending Balance: 175946</text>
<path d="M 77.88 159.80 L 79.31 159.80 L 80.74 159.80 L 82.17 159.80 L 83.61 159.80 L 85.04 159.80 L 86.47 159.80 L 87.90 159.80 L 89.34 159.80 L 90.77 159.80 L 92.20 159.80 L 93.63 159.80 L 93.63 161.11 L 92.20 163.59 L 90.77 166.86 L 89.34 169.75 L 87.90 170.66 L 86.47 164.83 L 85.04 167.72 L 83.61 170.85 L 82.17 174.03 L 80.74 177.22 L 79.31 171.49 L 77.88 165.70 Z" fill="#d0d0d0" fill-opacity="0.5" stroke="none"/>
<path d="M 113.68 127.97 L 115.12 127.97 L 115.12 128.12 L 113.68 129.21 Z" fill="#d0d0d0" fill-opacity="0.5" stroke="none"/>
<path d="M 120.85 117.87 L 122.28 117.87 L 123.71 117.87 L 125.14 117.87 L 126.58 117.87 L 128.01 117.87 L 128.01 119.23 L 126.58 122.82 L 125.14 126.40 L 123.71 127.60 L 122.28 121.14 L 120.85 124.37 Z" fill="#d0d0d0" fill-opacity="0.5" stroke="none"/>
<path d="M 133.74 111.32 L 135.17 111.32 L 136.60 111.32 L 138.03 111.32 L 139.47 111.32 L 140.90 111.32 L 142.33 111.32 L 143.76 111.32 L 145.20 111.32 L 146.63 111.32 L 148.06 111.32 L 149.49 111.32 L 150.92 111.32 L 150.92 113.02 L 149.49 116.69 L 148.06 120.31 L 146.63 122.67 L 145.20 126.27 L 143.76 128.43 L 142.33 121.98 L 140.90 125.47 L 139.47 119.01 L 138.03 121.87 L 136.60 125.26 L 135.17 118.77 L 133.74 117.91 Z" fill="#d0d0d0" fill-opacity="0.5" stroke="none"/>
<path d="M 155.22 107.45 L 156.65 107.45 L 158.09 107.45 L 159.52 107.45 L 160.95 107.45 L 162.98 107.45 L 165.60 107.45 L 168.21 107.45 L 170.83 107.45 L 173.45 107.45 L 173.45 108.99 L 170.83 111.87 L 168.21 115.14 L 165.60 116.97 L 162.98 110.37 L 160.95 113.71 L 159.52 117.34 L 158.09 118.56 L 156.65 120.61 L 155.22 114.09 Z" fill="#d0d0d0" fill-opacity="0.5" stroke="none"/>
<path d="M 181.31 102.77 L 183.93 102.77 L 186.55 102.77 L 189.17 102.77 L 191.79 102.77 L 194.40 102.77 L 197.02 102.77 L 199.64 102.77 L 202.26 102.77 L 204.88 102.77 L 207.50 102.77 L 210.12 102.77 L 210.12 104.52 L 207.50 108.22 L 204.88 108.65 L 202.26 112.03 L 199.64 115.46 L 197.02 117.86 L 194.40 111.32 L 191.79 115.11 L 189.17 108.48 L 186.55 110.81 L 183.93 111.37 L 181.31 104.69 Z" fill="#d0d0d0" fill-opacity="0.5" stroke="none"/>
<path d="M 231.07 86.27 L 233.69 86.27 L 236.31 86.27 L 238.93 86.27 L 241.55 86.27 L 244.17 86.27 L 246.79 86.27 L 249.40 86.27 L 252.02 86.27 L 254.64 86.27 L 257.26 86.27 L 259.88 86.27 L 262.50 86.27 L 265.12 86.27 L 267.74 86.27 L 270.36 86.27 L 272.98 86.27 L 275.60 86.27 L 278.21 86.27 L 280.83 86.27 L 283.45 86.27 L 286.07 86.27 L 288.69 86.27 L 291.31 86.27 L 293.93 86.27 L 296.55 86.27 L 299.17 86.27 L 301.79 86.27 L 304.40 86.27 L 307.02 86.27 L 309.64 86.27 L 312.26 86.27 L 314.88 86.27 L 317.50 86.27 L 320.12 86.27 L 322.74 86.27 L 325.36 86.27 L 327.98 86.27 L 330.60 86.27 L 333.21 86.27 L 335.83 86.27 L 338.45 86.27 L 341.07 86.27 L 343.69 86.27 L 347.29 86.27 L 351.88 86.27 L 356.46 86.27 L 361.04 86.27 L 365.62 86.27 L 370.21 86.27 L 374.79 86.27 L 379.38 86.27 L 383.96 86.27 L 388.54 86.27 L 393.12 86.27 L 397.71 86.27 L 402.29 86.27 L 406.88 86.27 L 411.46 86.27 L 416.04 86.27 L 420.62 86.27 L 425.21 86.27 L 429.79 86.27 L 434.38 86.27 L 440.19 86.27 L 447.24 86.27 L 454.29 86.27 L 461.35 86.27 L 468.40 86.27 L 475.45 86.27 L 482.50 86.27 L 482.50 89.34 L 475.45 93.20 L 468.40 96.54 L 461.35 100.35 L 454.29 104.12 L 447.24 107.86 L 440.19 110.26 L 434.38 113.46 L 429.79 117.14 L 425.21 110.53 L 420.62 108.86 L 416.04 111.16 L 411.46 112.56 L 406.88 115.45 L 402.29 117.87 L 397.71 111.27 L 393.12 114.96 L 388.54 112.90 L 383.96 115.86 L 379.38 118.41 L 374.79 111.80 L 370.21 112.67 L 365.62 116.36 L 361.04 118.94 L 356.46 119.89 L 351.88 122.64 L 347.29 125.85 L 343.69 129.44 L 341.07 131.44 L 338.45 134.63 L 335.83 137.26 L 333.21 130.95 L 330.60 124.53 L 327.98 127.36 L 325.36 129.15 L 322.74 132.48 L 320.12 126.08 L 317.50 126.60 L 314.88 128.48 L 312.26 129.37 L 309.64 122.92 L 307.02 126.24 L 304.40 128.60 L 301.79 122.17 L 299.17 115.62 L 296.55 119.07 L 293.93 112.49 L 291.31 115.59 L 288.69 118.85 L 286.07 119.68 L 283.45 120.81 L 280.83 123.46 L 278.21 126.25 L 275.60 126.95 L 272.98 120.47 L 270.36 123.10 L 267.74 121.91 L 265.12 115.36 L 262.50 117.37 L 259.88 119.73 L 257.26 113.15 L 254.64 115.27 L 252.02 118.15 L 249.40 111.55 L 246.79 104.87 L 244.17 107.42 L 241.55 109.67 L 238.93 113.36 L 236.31 106.72 L 233.69 99.97 L 231.07 93.14 Z" fill="#d0d0d0" fill-opacity="0.5" stroke="none"/>
<path d="M 510.71 80.97 L 517.76 80.97 L 524.81 80.97 L 531.61 80.97 L 538.15 80.97 L 544.70 80.97 L 551.25 80.97 L 557.80 80.97 L 564.35 80.97 L 570.89 80.97 L 577.44 80.97 L 583.99 80.97 L 590.54 80.97 L 597.08 80.97 L 603.63 80.97 L 610.18 80.97 L 616.73 80.97 L 625.09 80.97 L 635.28 80.97 L 645.46 80.97 L 645.46 81.79 L 635.28 82.55 L 625.09 84.64 L 616.73 88.54 L 610.18 88.40 L 603.63 92.28 L 597.08 93.91 L 590.54 94.88 L 583.99 96.75 L 577.44 100.20 L 570.89 103.70 L 564.35 96.90 L 557.80 100.04 L 551.25 93.20 L 544.70 97.04 L 538.15 99.10 L 531.61 101.53 L 524.81 94.71 L 517.76 87.80 L 510.71 87.96 Z" fill="#d0d0d0" fill-opacity="0.5" stroke="none"/>
<path d="M 696.39 71.32 L 706.57 71.32 L 726.94 71.32 L 757.50 71.32 L 757.50 71.88 L 726.94 75.88 L 706.57 78.41 L 696.39 78.44 Z" fill="#d0d0d0" fill-opacity="0.5" stroke="none"/>
<path d="M 809.06 70.29 L 820.52 70.29 L 831.98 70.29 L 831.98 71.16 L 820.52 75.15 L 809.06 77.42 Z" fill="#d0d0d0" fill-opacity="0.5" stroke="none"/>
<path d="M 877.81 62.75 L 889.27 62.75 L 901.55 62.75 L 914.64 62.75 L 914.64 64.67 L 901.55 68.14 L 889.27 67.41 L 877.81 69.92 Z" fill="#d0d0d0" fill-opacity="0.5" stroke="none"/>
<path d="M 1055.42 37.92 L 1070.69 37.92 L 1084.06 37.92 L 1084.06 39.84 L 1070.69 43.76 L 1055.42 45.43 Z" fill="#d0d0d0" fill-opacity="0.5" stroke="none"/>
<path d="M 1152.81 25.00 L 1164.27 25.00 L 1164.27 32.37 L 1152.81 32.67 Z" fill="#d0d0d0" fill-opacity="0.5" stroke="none"/>
<polyline fill="none" stroke="#111" stroke-width="1.2" points="70.72,167.92 72.15,167.54 73.58,166.13 75.01,163.10 76.45,159.80 77.88,165.70 79.31,171.49 80.74,177.22 82.17,174.03 83.61,170.85 85.04,167.72 86.47,164.83 87.90,170.66 89.34,169.75 90.77,166.86 92.20,163.59 93.63,161.11 95.07,159.10 96.50,155.61 97.93,155.43 99.36,152.06 100.79,148.66 102.23,145.75 103.66,143.53 105.09,140.83 106.52,137.68 107.96,134.43 109.39,131.43 110.82,128.38 112.25,127.97 113.68,129.21 115.12,128.12 116.55,124.78 117.98,121.50 119.41,117.87 120.85,124.37 122.28,121.14 123.71,127.60 125.14,126.40 126.58,122.82 128.01,119.23 129.44,116.84 130.87,113.52 132.30,111.32 133.74,117.91 135.17,118.77 136.60,125.26 138.03,121.87 139.47,119.01 140.90,125.47 142.33,121.98 143.76,128.43 145.20,126.27 146.63,122.67 148.06,120.31 149.49,116.69 150.92,113.02 152.36,109.35 153.79,107.45 155.22,114.09 156.65,120.61 158.09,118.56 159.52,117.34 160.95,113.71 162.98,110.37 165.60,116.97 168.21,115.14 170.83,111.87 173.45,108.99 176.07,105.99 178.69,102.77 181.31,104.69 183.93,111.37 186.55,110.81 189.17,108.48 191.79,115.11 194.40,111.32 197.02,117.86 199.64,115.46 202.26,112.03 204.88,108.65 207.50,108.22 210.12,104.52 212.74,100.79 215.36,100.07 217.98,96.59 220.60,95.56 223.21,93.30 225.83,90.25 228.45,86.27 231.07,93.14 233.69,99.97 236.31,106.72 238.93,113.36 241.55,109.67 244.17,107.42 246.79,104.87 249.40,111.55 252.02,118.15 254.64,115.27 257.26,113.15 259.88,119.73 262.50,117.37 265.12,115.36 267.74,121.91 270.36,123.10 272.98,120.47 275.60,126.95 278.21,126.25 280.83,123.46 283.45,120.81 286.07,119.68 288.69,118.85 291.31,115.59 293.93,112.49 296.55,119.07 299.17,115.62 301.79,122.17 304.40,128.60 307.02,126.24 309.64,122.92 312.26,129.37 314.88,128.48 317.50,126.60 320.12,126.08 322.74,132.48 325.36,129.15 327.98,127.36 330.60,124.53 333.21,130.95 335.83,137.26 338.45,134.63 341.07,131.44 343.69,129.44 347.29,125.85 351.88,122.64 356.46,119.89 361.04,118.94 365.62,116.36 370.21,112.67 374.79,111.80 379.38,118.41 383.96,115.86 388.54,112.90 393.12,114.96 397.71,111.27 402.29,117.87 406.88,115.45 411.46,112.56 416.04,111.16 420.62,108.86 425.21,110.53 429.79,117.14 434.38,113.46 440.19,110.26 447.24,107.86 454.29,104.12 461.35,100.35 468.40,96.54 475.45,93.20 482.50,89.34 489.55,85.45 496.60,83.46 503.65,80.97 510.71,87.96 517.76,87.80 524.81,94.71 531.61,101.53 538.15,99.10 544.70,97.04 551.25,93.20 557.80,100.04 564.35,96.90 570.89,103.70 577.44,100.20 583.99,96.75 590.54,94.88 597.08,93.91 603.63,92.28 610.18,88.40 616.73,88.54 625.09,84.64 635.28,82.55 645.46,81.79 655.65,77.86 665.83,75.50 676.02,71.89 686.20,71.32 696.39,78.44 706.57,78.41 726.94,75.88 757.50,71.88 788.06,70.29 809.06,77.42 820.52,75.15 831.98,71.16 843.44,70.29 854.90,66.94 866.35,62.75 877.81,69.92 889.27,67.41 901.55,68.14 914.64,64.67 927.74,61.28 940.83,58.98 953.93,56.98 967.02,53.69 980.12,50.44 994.31,48.12 1009.58,43.92 1024.86,40.97 1040.14,37.92 1055.42,45.43 1070.69,43.76 1084.06,39.84 1095.52,37.64 1106.98,34.24 1118.44,31.16 1129.90,27.25 1141.35,25.00 1152.81,32.67 1164.27,32.37"/>
<text x="620.0" y="588" text-anchor="middle" font-family="sans-serif" font-size="12" fill="#333">Monthly Balance Curve</text>
<text x="15" y="287.5" transform="rotate(-90 15,287.5)" text-anchor="middle" font-family="sans-serif" font-size="12" fill="#333">Capital</text>
</svg>