<svg xmlns="http://www.w3.org/2000/svg" width="1200" height="600" viewBox="0 0 1200 600">
<desc>Equity curve with drawdown fill; x-axis is months only (no exact timestamps)</desc>
<text x="600.0" y="18.0" text-anchor="middle" font-family="sans-serif" font-size="14">Balance Curve 2022 (UTC)</text>
<rect x="70" y="25" width="1100" height="525" fill="white" stroke="#ccc" />
<line x1="70" y1="550.00" x2="1170" y2="550.00" stroke="#eee"/>
<text x="62" y="554.0" text-anchor="end" font-family="sans-serif" font-size="11" fill="#555">0.00</text>
<line x1="70" y1="445.00" x2="1170" y2="445.00" stroke="#eee"/>
<text x="62" y="449.0" text-anchor="end" font-family="sans-serif" font-size="11" fill="#555">94418</text>
<line x1="70" y1="340.00" x2="1170" y2="340.00" stroke="#eee"/>
<text x="62" y="344.0" text-anchor="end" font-family="sans-serif" font-size="11" fill="#555">188836</text>
<line x1="70" y1="235.00" x2="1170" y2="235.00" stroke="#eee"/>
<text x="62" y="239.0" text-anchor="end" font-family="sans-serif" font-size="11" fill="#555">283253</text>
<line x1="70" y1="130.00" x2="1170" y2="130.00" stroke="#eee"/>
<text x="62" y="134.0" text-anchor="end" font-family="sans-serif" font-size="11" fill="#555">377671</text>
<line x1="70" y1="25.00" x2="1170" y2="25.00" stroke="#eee"/>
<text x="62" y="29.0" text-anchor="end" font-family="sans-serif" font-size="11" fill="#555">472089</text>
<line x1="161.67" y1="25" x2="161.67" y2="550" stroke="#f2f2f2"/>
<line x1="253.33" y1="25" x2="253.33" y2="550" stroke="#f2f2f2"/>
<line x1="345.00" y1="25" x2="345.00" y2="550" stroke="#f2f2f2"/>
<line x1="436.67" y1="25" x2="436.67" y2="550" stroke="#f2f2f2"/>
<line x1="528.33" y1="25" x2="528.33" y2="550" stroke="#f2f2f2"/>
<line x1="620.00" y1="25" x2="620.00" y2="550" stroke="#f2f2f2"/>
<line x1="711.67" y1="25" x2="711.67" y2="550" stroke="#f2f2f2"/>
<line x1="803.33" y1="25" x2="803.33" y2="550" stroke="#f2f2f2"/>
<line x1="895.00" y1="25" x2="895.00" y2="550" stroke="#f2f2f2"/>
<line x1="986.67" y1="25" x2="986.67" y2="550" stroke="#f2f2f2"/>
<line x1="1078.33" y1="25" x2="1078.33" y2="550" stroke="#f2f2f2"/>
<text x="115.83" y="566.00" text-anchor="middle" font-family="sans-serif" font-size="11" fill="#444">Jan</text>
<text x="207.50" y="566.00" text-anchor="middle" font-family="sans-serif" font-size="11" fill="#444">Feb</text>
<text x="299.17" y="566.00" text-anchor="middle" font-family="sans-serif" font-size="11" fill="#444">Mar</text>
<text x="390.83" y="566.00" text-anchor="middle" font-family="sans-serif" font-size="11" fill="#444">Apr</text>
<text x="482.50" y="566.00" text-anchor="middle" font-family="sans-serif" font-size="11" fill="#444">May</text>
<text x="574.17" y="566.00" text-anchor="middle" font-family="sans-serif" font-size="11" fill="#444">Jun</text>
<text x="665.83" y="566.00" text-anchor="middle" font-family="sans-serif" font-size="11" fill="#444">Jul</text>
<text x="757.50" y="566.00" text-anchor="middle" font-family="sans-serif" font-size="11" fill="#444">Aug</text>
<text x="849.17" y="566.00" text-anchor="middle" font-family="sans-serif" font-size="11" fill="#444">Sep</text>
<text x="940.83" y="566.00" text-anchor="middle" font-family="sans-serif" font-size="11" fill="#444">Oct</text>
<text x="1032.50" y="566.00" text-anchor="middle" font-family="sans-serif" font-size="11" fill="#444">Nov</text>
<text x="1124.17" y="566.00" text-anchor="middle" font-family="sans-serif" font-size="11" fill="#444">Dec</text>
<line x1="70" y1="550" x2="1170" y2="550" stroke="#888"/>
<line x1="70" y1="25" x2="70" y2="550" stroke="#888"/>
<line x1="115.83" y1="550.00" x2="115.83" y2="556.00" stroke="#888"/>
<line x1="1164.27"   y1="550.00" x2="1164.27"   y2="556.00" stroke="#888"/>
<text x="115.83" y="582.00" text-anchor="start" font-family="sans-serif" font-size="11" fill="#333">Initial Balance: 430371</text>
<text x="1164.27"   y="582.00" text-anchor="end"   font-family="sans-serif" font-size="11" fill="#333">Ending Balance: 470556</text>
<path d="M 264.79 70.24 L 264.79 71.07 Z" fill="#d0d0d0" fill-opacity="0.5" stroke="none"/>
<path d="M 367.92 65.78 L 413.75 65.78 L 442.40 65.78 L 453.85 65.78 L 465.31 65.78 L 476.77 65.78 L 488.23 65.78 L 499.69 65.78 L 511.15 65.78 L 522.60 65.78 L 535.97 65.78 L 551.25 65.78 L 566.53 65.78 L 581.81 65.78 L 581.81 65.96 L 566.53 68.67 L 551.25 67.20 L 535.97 69.72 L 522.60 71.01 L 511.15 71.05 L 499.69 73.81 L 488.23 76.02 L 476.77 78.36 L 465.31 73.60 L 453.85 74.30 L 442.40 69.50 L 413.75 70.52 L 367.92 70.62 Z" fill="#d0d0d0" fill-opacity="0.5" stroke="none"/>
<path d="M 612.36 63.43 L 627.64 63.43 L 642.92 63.43 L 658.19 63.43 L 673.47 63.43 L 688.75 63.43 L 704.03 63.43 L 704.03 65.77 L 688.75 67.79 L 673.47 67.27 L 658.19 69.72 L 642.92 64.86 L 627.64 66.81 L 612.36 68.29 Z" fill="#d0d0d0" fill-opacity="0.5" stroke="none"/>
<path d="M 731.31 62.96 L 744.40 62.96 L 757.50 62.96 L 770.60 62.96 L 783.69 62.96 L 796.79 62.96 L 804.35 62.96 L 806.39 62.96 L 808.43 62.96 L 810.46 62.96 L 810.46 63.53 L 808.43 63.64 L 806.39 64.11 L 804.35 65.54 L 796.79 64.74 L 783.69 66.89 L 770.60 69.11 L 757.50 69.77 L 744.40 64.97 L 731.31 67.83 Z" fill="#d0d0d0" fill-opacity="0.5" stroke="none"/>
<path d="M 814.54 60.65 L 816.57 60.65 L 818.61 60.65 L 820.65 60.65 L 822.69 60.65 L 824.72 60.65 L 826.76 60.65 L 828.80 60.65 L 830.83 60.65 L 832.87 60.65 L 834.91 60.65 L 836.94 60.65 L 838.98 60.65 L 841.02 60.65 L 843.06 60.65 L 845.09 60.65 L 847.13 60.65 L 849.17 60.65 L 851.20 60.65 L 853.24 60.65 L 855.28 60.65 L 857.31 60.65 L 859.35 60.65 L 861.39 60.65 L 863.43 60.65 L 865.46 60.65 L 867.50 60.65 L 869.54 60.65 L 871.57 60.65 L 873.61 60.65 L 875.65 60.65 L 877.69 60.65 L 879.72 60.65 L 881.76 60.65 L 883.80 60.65 L 885.83 60.65 L 887.87 60.65 L 889.91 60.65 L 891.94 60.65 L 893.98 60.65 L 896.02 60.65 L 898.06 60.65 L 900.09 60.65 L 902.13 60.65 L 904.17 60.65 L 906.20 60.65 L 908.24 60.65 L 910.28 60.65 L 912.31 60.65 L 914.35 60.65 L 916.39 60.65 L 918.43 60.65 L 920.46 60.65 L 922.50 60.65 L 924.54 60.65 L 926.57 60.65 L 928.61 60.65 L 930.65 60.65 L 932.69 60.65 L 934.72 60.65 L 936.76 60.65 L 938.80 60.65 L 940.83 60.65 L 940.83 61.48 L 938.80 64.39 L 936.76 66.86 L 934.72 69.77 L 932.69 64.97 L 930.65 67.82 L 928.61 70.46 L 926.57 65.61 L 924.54 66.89 L 922.50 68.81 L 920.46 70.20 L 918.43 72.95 L 916.39 74.59 L 914.35 75.32 L 912.31 77.23 L 910.28 78.96 L 908.24 81.64 L 906.20 84.33 L 904.17 86.65 L 902.13 89.30 L 900.09 90.16 L 898.06 85.51 L 896.02 80.82 L 893.98 82.79 L 891.94 78.08 L 889.91 73.31 L 887.87 74.93 L 885.83 76.76 L 883.80 71.97 L 881.76 74.33 L 879.72 75.92 L 877.69 78.10 L 875.65 78.87 L 873.61 81.31 L 871.57 83.98 L 869.54 86.19 L 867.50 86.78 L 865.46 86.02 L 863.43 81.33 L 861.39 82.56 L 859.35 81.71 L 857.31 76.98 L 855.28 72.20 L 853.24 75.04 L 851.20 77.75 L 849.17 79.37 L 847.13 74.62 L 845.09 76.61 L 843.06 79.31 L 841.02 82.09 L 838.98 77.36 L 836.94 79.92 L 834.91 82.60 L 832.87 77.88 L 830.83 73.11 L 828.80 68.30 L 826.76 63.44 L 824.72 65.63 L 822.69 67.65 L 820.65 69.43 L 818.61 64.58 L 816.57 67.12 L 814.54 65.49 Z" fill="#d0d0d0" fill-opacity="0.5" stroke="none"/>
<path d="M 944.91 59.15 L 946.94 59.15 L 948.98 59.15 L 951.02 59.15 L 951.02 59.87 L 948.98 61.31 L 946.94 63.46 L 944.91 64.06 Z" fill="#d0d0d0" fill-opacity="0.5" stroke="none"/>
<path d="M 957.13 56.13 L 959.17 56.13 L 959.17 56.21 L 957.13 56.58 Z" fill="#d0d0d0" fill-opacity="0.5" stroke="none"/>
<path d="M 994.31 25.00 L 999.40 25.00 L 1004.49 25.00 L 1009.58 25.00 L 1014.68 25.00 L 1019.77 25.00 L 1024.86 25.00 L 1029.95 25.00 L 1035.05 25.00 L 1040.14 25.00 L 1045.23 25.00 L 1050.32 25.00 L 1055.42 25.00 L 1060.51 25.00 L 1065.60 25.00 L 1070.69 25.00 L 1075.79 25.00 L 1084.06 25.00 L 1095.52 25.00 L 1106.98 25.00 L 1118.44 25.00 L 1129.90 25.00 L 1141.35 25.00 L 1152.81 25.00 L 1164.27 25.00 L 1164.27 26.70 L 1152.81 29.11 L 1141.35 31.13 L 1129.90 33.92 L 1118.44 36.28 L 1106.98 37.89 L 1095.52 32.72 L 1084.06 35.69 L 1075.79 30.51 L 1070.69 32.97 L 1065.60 35.94 L 1060.51 37.20 L 1055.42 39.98 L 1050.32 34.83 L 1045.23 37.53 L 1040.14 37.16 L 1035.05 34.09 L 1029.95 36.46 L 1024.86 37.79 L 1019.77 39.82 L 1014.68 36.92 L 1009.58 31.74 L 1004.49 34.29 L 999.40 35.42 L 994.31 30.23 Z" fill="#d0d0d0" fill-opacity="0.5" stroke="none"/>
<polyline fill="none" stroke="#111" stroke-width="1.2" points="115.83,71.39 207.50,70.24 264.79,71.07 287.71,68.62 310.62,66.76 333.54,65.78 367.92,70.62 413.75,70.52 442.40,69.50 453.85,74.30 465.31,73.60 476.77,78.36 488.23,76.02 499.69,73.81 511.15,71.05 522.60,71.01 535.97,69.72 551.25,67.20 566.53,68.67 581.81,65.96 597.08,63.43 612.36,68.29 627.64,66.81 642.92,64.86 658.19,69.72 673.47,67.27 688.75,67.79 704.03,65.77 718.21,62.96 731.31,67.83 744.40,64.97 757.50,69.77 770.60,69.11 783.69,66.89 796.79,64.74 804.35,65.54 806.39,64.11 808.43,63.64 810.46,63.53 812.50,60.65 814.54,65.49 816.57,67.12 818.61,64.58 820.65,69.43 822.69,67.65 824.72,65.63 826.76,63.44 828.80,68.30 830.83,73.11 832.87,77.88 834.91,82.60 836.94,79.92 838.98,77.36 841.02,82.09 843.06,79.31 845.09,76.61 847.13,74.62 849.17,79.37 851.20,77.75 853.24,75.04 855.28,72.20 857.31,76.98 859.35,81.71 861.39,82.56 863.43,81.33 865.46,86.02 867.50,86.78 869.54,86.19 871.57,83.98 873.61,81.31 875.65,78.87 877.69,78.10 879.72,75.92 881.76,74.33 883.80,71.97 885.83,76.76 887.87,74.93 889.91,73.31 891.94,78.08 893.98,82.79 896.02,80.82 898.06,85.51 900.09,90.16 902.13,89.30 904.17,86.65 906.20,84.33 908.24,81.64 910.28,78.96 912.31,77.23 914.35,75.32 916.39,74.59 918.43,72.95 920.46,70.20 922.50,68.81 924.54,66.89 926.57,65.61 928.61,70.46 930.65,67.82 932.69,64.97 934.72,69.77 936.76,66.86 938.80,64.39 940.83,61.48 942.87,59.15 944.91,64.06 946.94,63.46 948.98,61.31 951.02,59.87 953.06,57.06 955.09,56.13 957.13,56.58 959.17,56.21 961.20,53.56 963.24,52.06 965.28,49.44 967.31,47.39 969.35,45.31 971.39,44.13 973.43,42.00 975.46,39.91 977.50,36.97 979.54,34.99 981.57,32.28 983.61,29.57 985.65,27.22 989.21,25.00 994.31,30.23 999.40,35.42 1004.49,34.29 1009.58,31.74 1014.68,36.92 1019.77,39.82 1024.86,37.79 1029.95,36.46 1035.05,34.09 1040.14,37.16 1045.23,37.53 1050.32,34.83 1055.42,39.98 1060.51,37.20 1065.60,35.94 1070.69,32.97 1075.79,30.51 1084.06,35.69 1095.52,32.72 1106.98,37.89 1118.44,36.28 1129.90,33.92 1141.35,31.13 1152.81,29.11 1164.27,26.70"/>
<text x="15" y="287.5" transform="rotate(-90 15,287.5)" text-anchor="middle" font-family="sans-serif" font-size="12" fill="#333">USD</text>
</svg>