<svg xmlns="http://www.w3.org/2000/svg" width="1200" height="600" viewBox="0 0 1200 600">
<desc>Equity curve with drawdown fill</desc>
<text x="600.0" y="18.0" text-anchor="middle" font-family="sans-serif" font-size="14">Portfolio 2016</text>
<rect x="70" y="25" width="1100" height="525" fill="white" stroke="#ccc" />
<line x1="70" y1="550.00" x2="1170" y2="550.00" stroke="#eee"/>
<text x="62" y="554.0" text-anchor="end" font-family="sans-serif" font-size="11" fill="#555">0.00</text>
<line x1="70" y1="445.00" x2="1170" y2="445.00" stroke="#eee"/>
<text x="62" y="449.0" text-anchor="end" font-family="sans-serif" font-size="11" fill="#555">23209</text>
<line x1="70" y1="340.00" x2="1170" y2="340.00" stroke="#eee"/>
<text x="62" y="344.0" text-anchor="end" font-family="sans-serif" font-size="11" fill="#555">46417</text>
<line x1="70" y1="235.00" x2="1170" y2="235.00" stroke="#eee"/>
<text x="62" y="239.0" text-anchor="end" font-family="sans-serif" font-size="11" fill="#555">69626</text>
<line x1="70" y1="130.00" x2="1170" y2="130.00" stroke="#eee"/>
<text x="62" y="134.0" text-anchor="end" font-family="sans-serif" font-size="11" fill="#555">92834</text>
<line x1="70" y1="25.00" x2="1170" y2="25.00" stroke="#eee"/>
<text x="62" y="29.0" text-anchor="end" font-family="sans-serif" font-size="11" fill="#555">116043</text>
<line x1="154.21" y1="25" x2="154.21" y2="550" stroke="#f2f2f2"/>
<text x="154.21" y="566" text-anchor="middle" font-family="sans-serif" font-size="11" fill="#555">Feb</text>
<line x1="242.56" y1="25" x2="242.56" y2="550" stroke="#f2f2f2"/>
<text x="242.56" y="566" text-anchor="middle" font-family="sans-serif" font-size="11" fill="#555">Mar</text>
<line x1="337.00" y1="25" x2="337.00" y2="550" stroke="#f2f2f2"/>
<text x="337.00" y="566" text-anchor="middle" font-family="sans-serif" font-size="11" fill="#555">Apr</text>
<line x1="428.40" y1="25" x2="428.40" y2="550" stroke="#f2f2f2"/>
<text x="428.40" y="566" text-anchor="middle" font-family="sans-serif" font-size="11" fill="#555">May</text>
<line x1="522.84" y1="25" x2="522.84" y2="550" stroke="#f2f2f2"/>
<text x="522.84" y="566" text-anchor="middle" font-family="sans-serif" font-size="11" fill="#555">Jun</text>
<line x1="614.24" y1="25" x2="614.24" y2="550" stroke="#f2f2f2"/>
<text x="614.24" y="566" text-anchor="middle" font-family="sans-serif" font-size="11" fill="#555">Jul</text>
<line x1="708.68" y1="25" x2="708.68" y2="550" stroke="#f2f2f2"/>
<text x="708.68" y="566" text-anchor="middle" font-family="sans-serif" font-size="11" fill="#555">Aug</text>
<line x1="803.12" y1="25" x2="803.12" y2="550" stroke="#f2f2f2"/>
<text x="803.12" y="566" text-anchor="middle" font-family="sans-serif" font-size="11" fill="#555">Sep</text>
<line x1="894.51" y1="25" x2="894.51" y2="550" stroke="#f2f2f2"/>
<text x="894.51" y="566" text-anchor="middle" font-family="sans-serif" font-size="11" fill="#555">Oct</text>
<line x1="988.96" y1="25" x2="988.96" y2="550" stroke="#f2f2f2"/>
<text x="988.96" y="566" text-anchor="middle" font-family="sans-serif" font-size="11" fill="#555">Nov</text>
<line x1="1080.35" y1="25" x2="1080.35" y2="550" stroke="#f2f2f2"/>
<text x="1080.35" y="566" text-anchor="middle" font-family="sans-serif" font-size="11" fill="#555">Dec</text>
<line x1="70" y1="550" x2="1170" y2="550" stroke="#888"/>
<line x1="70" y1="25" x2="70" y2="550" stroke="#888"/>
<path d="M 70.76 95.96 L 79.26 95.96 L 80.45 95.96 L 81.30 95.96 L 81.30 97.76 L 80.45 100.01 L 79.26 101.74 L 70.76 97.14 Z" fill="#d0d0d0" fill-opacity="0.5" stroke="none"/>
<path d="M 104.18 90.42 L 104.19 90.42 L 104.19 92.63 L 104.18 95.09 Z" fill="#d0d0d0" fill-opacity="0.5" stroke="none"/>
<path d="M 123.18 88.55 L 123.18 89.38 Z" fill="#d0d0d0" fill-opacity="0.5" stroke="none"/>
<path d="M 146.93 85.13 L 162.03 85.13 L 162.28 85.13 L 162.34 85.13 L 162.39 85.13 L 162.68 85.13 L 164.45 85.13 L 168.11 85.13 L 168.16 85.13 L 168.23 85.13 L 168.40 85.13 L 177.05 85.13 L 177.59 85.13 L 180.31 85.13 L 183.60 85.13 L 185.79 85.13 L 189.47 85.13 L 198.83 85.13 L 226.27 85.13 L 232.22 85.13 L 250.76 85.13 L 253.42 85.13 L 253.42 85.72 L 250.76 88.29 L 232.22 90.84 L 226.27 91.62 L 198.83 92.38 L 189.47 93.50 L 185.79 95.36 L 183.60 97.62 L 180.31 92.99 L 177.59 95.52 L 177.05 90.86 L 168.40 92.06 L 168.23 91.99 L 168.16 93.75 L 168.11 96.10 L 164.45 98.61 L 162.68 100.13 L 162.39 95.51 L 162.34 97.14 L 162.28 92.50 L 162.03 87.83 L 146.93 89.85 Z" fill="#d0d0d0" fill-opacity="0.5" stroke="none"/>
<path d="M 269.10 78.97 L 269.10 81.12 Z" fill="#d0d0d0" fill-opacity="0.5" stroke="none"/>
<path d="M 271.62 78.51 L 271.73 78.51 L 271.75 78.51 L 271.75 80.16 L 271.73 82.76 L 271.62 83.26 Z" fill="#d0d0d0" fill-opacity="0.5" stroke="none"/>
<path d="M 271.92 76.36 L 271.97 76.36 L 272.06 76.36 L 272.14 76.36 L 272.26 76.36 L 274.17 76.36 L 275.01 76.36 L 290.67 76.36 L 290.72 76.36 L 292.57 76.36 L 307.78 76.36 L 330.07 76.36 L 339.00 76.36 L 354.12 76.36 L 354.35 76.36 L 356.52 76.36 L 372.47 76.36 L 399.64 76.36 L 399.64 78.45 L 372.47 79.86 L 356.52 81.66 L 354.35 83.60 L 354.12 86.19 L 339.00 87.82 L 330.07 88.18 L 307.78 90.74 L 292.57 91.91 L 290.72 91.44 L 290.67 86.77 L 275.01 89.34 L 274.17 89.79 L 272.26 90.69 L 272.14 90.26 L 272.06 90.48 L 271.97 85.79 L 271.92 81.09 Z" fill="#d0d0d0" fill-opacity="0.5" stroke="none"/>
<path d="M 399.94 75.68 L 415.03 75.68 L 418.63 75.68 L 418.63 76.25 L 415.03 78.88 L 399.94 80.50 Z" fill="#d0d0d0" fill-opacity="0.5" stroke="none"/>
<path d="M 530.74 64.30 L 530.83 64.30 L 530.90 64.30 L 531.05 64.30 L 567.90 64.30 L 570.06 64.30 L 570.79 64.30 L 570.82 64.30 L 570.95 64.30 L 585.56 64.30 L 591.18 64.30 L 592.91 64.30 L 592.91 64.38 L 591.18 67.21 L 585.56 69.61 L 570.95 72.26 L 570.82 73.87 L 570.79 76.19 L 570.06 71.33 L 567.90 71.48 L 531.05 74.13 L 530.90 73.10 L 530.83 74.00 L 530.74 69.16 Z" fill="#d0d0d0" fill-opacity="0.5" stroke="none"/>
<path d="M 593.12 61.47 L 593.17 61.47 L 593.21 61.47 L 593.34 61.47 L 593.36 61.47 L 593.40 61.47 L 593.51 61.47 L 593.54 61.47 L 593.65 61.47 L 593.69 61.47 L 593.83 61.47 L 593.85 61.47 L 593.97 61.47 L 594.02 61.47 L 594.09 61.47 L 594.18 61.47 L 594.47 61.47 L 594.86 61.47 L 595.27 61.47 L 601.95 61.47 L 612.93 61.47 L 613.34 61.47 L 613.34 64.06 L 612.93 66.75 L 601.95 69.02 L 595.27 70.94 L 594.86 66.03 L 594.47 68.20 L 594.18 68.35 L 594.09 70.45 L 594.02 71.44 L 593.97 66.57 L 593.85 69.23 L 593.83 71.96 L 593.69 74.59 L 593.65 76.23 L 593.54 71.39 L 593.51 73.93 L 593.40 69.16 L 593.36 71.42 L 593.34 73.90 L 593.21 69.05 L 593.17 71.28 L 593.12 66.41 Z" fill="#d0d0d0" fill-opacity="0.5" stroke="none"/>
<path d="M 628.59 58.74 L 637.28 58.74 L 637.28 61.02 L 628.59 63.72 Z" fill="#d0d0d0" fill-opacity="0.5" stroke="none"/>
<path d="M 787.04 39.71 L 805.19 39.71 L 807.88 39.71 L 808.17 39.71 L 820.32 39.71 L 820.40 39.71 L 829.42 39.71 L 850.69 39.71 L 892.57 39.71 L 892.57 40.42 L 850.69 42.22 L 829.42 43.16 L 820.40 43.75 L 820.32 44.99 L 808.17 39.84 L 807.88 42.19 L 805.19 44.98 L 787.04 44.87 Z" fill="#d0d0d0" fill-opacity="0.5" stroke="none"/>
<path d="M 1013.59 25.00 L 1013.63 25.00 L 1013.70 25.00 L 1013.76 25.00 L 1013.89 25.00 L 1013.90 25.00 L 1014.07 25.00 L 1014.21 25.00 L 1014.34 25.00 L 1014.42 25.00 L 1014.55 25.00 L 1014.60 25.00 L 1014.91 25.00 L 1015.28 25.00 L 1015.34 25.00 L 1028.75 25.00 L 1029.74 25.00 L 1030.54 25.00 L 1032.75 25.00 L 1035.69 25.00 L 1039.48 25.00 L 1042.74 25.00 L 1057.78 25.00 L 1071.58 25.00 L 1072.72 25.00 L 1079.14 25.00 L 1079.42 25.00 L 1092.41 25.00 L 1093.53 25.00 L 1093.67 25.00 L 1093.98 25.00 L 1094.04 25.00 L 1094.91 25.00 L 1103.29 25.00 L 1103.35 25.00 L 1103.41 25.00 L 1103.52 25.00 L 1103.68 25.00 L 1103.73 25.00 L 1106.38 25.00 L 1122.37 25.00 L 1123.09 25.00 L 1124.47 25.00 L 1125.17 25.00 L 1128.19 25.00 L 1146.27 25.00 L 1168.65 25.00 L 1168.69 25.00 L 1170.00 25.00 L 1170.00 44.43 L 1168.69 46.01 L 1168.65 48.24 L 1146.27 51.14 L 1128.19 53.40 L 1125.17 55.92 L 1124.47 57.13 L 1123.09 52.08 L 1122.37 52.36 L 1106.38 55.24 L 1103.73 55.45 L 1103.68 50.38 L 1103.52 45.30 L 1103.41 45.54 L 1103.35 40.42 L 1103.29 42.37 L 1094.91 45.31 L 1094.04 45.57 L 1093.98 47.59 L 1093.67 42.46 L 1093.53 43.47 L 1092.41 44.98 L 1079.42 47.90 L 1079.14 49.02 L 1072.72 51.17 L 1071.58 53.34 L 1057.78 53.21 L 1042.74 48.12 L 1039.48 50.61 L 1035.69 52.58 L 1032.75 54.58 L 1030.54 55.34 L 1029.74 54.43 L 1028.75 55.66 L 1015.34 57.77 L 1015.28 52.73 L 1014.91 52.16 L 1014.60 54.42 L 1014.55 49.40 L 1014.42 44.33 L 1014.34 45.25 L 1014.21 40.13 L 1014.07 42.78 L 1013.90 37.60 L 1013.89 40.58 L 1013.76 39.41 L 1013.70 34.30 L 1013.63 35.49 L 1013.59 30.29 Z" fill="#d0d0d0" fill-opacity="0.5" stroke="none"/>
<polyline fill="none" stroke="#111" stroke-width="1.2" points="70.00,95.96 70.76,97.14 79.26,101.74 80.45,100.01 81.30,97.76 83.06,95.67 90.12,93.15 98.34,91.41 100.59,90.95 101.45,90.42 104.18,95.09 104.19,92.63 122.42,89.95 122.50,88.55 123.18,89.38 143.23,87.70 145.54,85.13 146.93,89.85 162.03,87.83 162.28,92.50 162.34,97.14 162.39,95.51 162.68,100.13 164.45,98.61 168.11,96.10 168.16,93.75 168.23,91.99 168.40,92.06 177.05,90.86 177.59,95.52 180.31,92.99 183.60,97.62 185.79,95.36 189.47,93.50 198.83,92.38 226.27,91.62 232.22,90.84 250.76,88.29 253.42,85.72 253.44,83.19 253.48,80.60 253.67,79.18 263.10,78.97 269.10,81.12 271.60,78.51 271.62,83.26 271.73,82.76 271.75,80.16 271.78,77.41 271.88,76.36 271.92,81.09 271.97,85.79 272.06,90.48 272.14,90.26 272.26,90.69 274.17,89.79 275.01,89.34 290.67,86.77 290.72,91.44 292.57,91.91 307.78,90.74 330.07,88.18 339.00,87.82 354.12,86.19 354.35,83.60 356.52,81.66 372.47,79.86 399.64,78.45 399.68,75.68 399.94,80.50 415.03,78.88 418.63,76.25 433.35,73.62 435.70,72.52 445.35,69.85 466.89,67.44 482.71,67.12 530.65,64.30 530.74,69.16 530.83,74.00 530.90,73.10 531.05,74.13 567.90,71.48 570.06,71.33 570.79,76.19 570.82,73.87 570.95,72.26 585.56,69.61 591.18,67.21 592.91,64.38 592.95,61.47 593.12,66.41 593.17,71.28 593.21,69.05 593.34,73.90 593.36,71.42 593.40,69.16 593.51,73.93 593.54,71.39 593.65,76.23 593.69,74.59 593.83,71.96 593.85,69.23 593.97,66.57 594.02,71.44 594.09,70.45 594.18,68.35 594.47,68.20 594.86,66.03 595.27,70.94 601.95,69.02 612.93,66.75 613.34,64.06 613.37,61.46 627.50,58.74 628.59,63.72 637.28,61.02 637.37,58.30 655.40,55.57 658.80,55.04 680.30,53.61 701.39,52.38 722.58,49.62 722.80,49.10 743.99,48.73 755.57,47.64 759.87,45.09 786.74,42.29 786.79,39.71 787.04,44.87 805.19,44.98 807.88,42.19 808.17,39.84 820.32,44.99 820.40,43.75 829.42,43.16 850.69,42.22 892.57,40.42 893.37,39.17 905.77,36.33 905.81,33.76 914.58,31.15 954.15,28.49 954.24,26.04 979.19,25.00 1013.59,30.29 1013.63,35.49 1013.70,34.30 1013.76,39.41 1013.89,40.58 1013.90,37.60 1014.07,42.78 1014.21,40.13 1014.34,45.25 1014.42,44.33 1014.55,49.40 1014.60,54.42 1014.91,52.16 1015.28,52.73 1015.34,57.77 1028.75,55.66 1029.74,54.43 1030.54,55.34 1032.75,54.58 1035.69,52.58 1039.48,50.61 1042.74,48.12 1057.78,53.21 1071.58,53.34 1072.72,51.17 1079.14,49.02 1079.42,47.90 1092.41,44.98 1093.53,43.47 1093.67,42.46 1093.98,47.59 1094.04,45.57 1094.91,45.31 1103.29,42.37 1103.35,40.42 1103.41,45.54 1103.52,45.30 1103.68,50.38 1103.73,55.45 1106.38,55.24 1122.37,52.36 1123.09,52.08 1124.47,57.13 1125.17,55.92 1128.19,53.40 1146.27,51.14 1168.65,48.24 1168.69,46.01 1170.00,44.43"/>
<text x="620.0" y="588" text-anchor="middle" font-family="sans-serif" font-size="12" fill="#333">UTC time</text>
<text x="15" y="287.5" transform="rotate(-90 15,287.5)" text-anchor="middle" font-family="sans-serif" font-size="12" fill="#333">Capital</text>
</svg>