<svg xmlns="http://www.w3.org/2000/svg" width="1200" height="600" viewBox="0 0 1200 600">
<desc>Equity curve with drawdown fill</desc>
<text x="600.0" y="18.0" text-anchor="middle" font-family="sans-serif" font-size="14">Portfolio 2021</text>
<rect x="70" y="25" width="1100" height="525" fill="white" stroke="#ccc" />
<line x1="70" y1="550.00" x2="1170" y2="550.00" stroke="#eee"/>
<text x="62" y="554.0" text-anchor="end" font-family="sans-serif" font-size="11" fill="#555">0.00</text>
<line x1="70" y1="445.00" x2="1170" y2="445.00" stroke="#eee"/>
<text x="62" y="449.0" text-anchor="end" font-family="sans-serif" font-size="11" fill="#555">82866</text>
<line x1="70" y1="340.00" x2="1170" y2="340.00" stroke="#eee"/>
<text x="62" y="344.0" text-anchor="end" font-family="sans-serif" font-size="11" fill="#555">165732</text>
<line x1="70" y1="235.00" x2="1170" y2="235.00" stroke="#eee"/>
<text x="62" y="239.0" text-anchor="end" font-family="sans-serif" font-size="11" fill="#555">248597</text>
<line x1="70" y1="130.00" x2="1170" y2="130.00" stroke="#eee"/>
<text x="62" y="134.0" text-anchor="end" font-family="sans-serif" font-size="11" fill="#555">331463</text>
<line x1="70" y1="25.00" x2="1170" y2="25.00" stroke="#eee"/>
<text x="62" y="29.0" text-anchor="end" font-family="sans-serif" font-size="11" fill="#555">414329</text>
<line x1="85.68" y1="25" x2="85.68" y2="550" stroke="#f2f2f2"/>
<text x="85.68" y="566" text-anchor="middle" font-family="sans-serif" font-size="11" fill="#555">Feb</text>
<line x1="185.99" y1="25" x2="185.99" y2="550" stroke="#f2f2f2"/>
<text x="185.99" y="566" text-anchor="middle" font-family="sans-serif" font-size="11" fill="#555">Mar</text>
<line x1="297.05" y1="25" x2="297.05" y2="550" stroke="#f2f2f2"/>
<text x="297.05" y="566" text-anchor="middle" font-family="sans-serif" font-size="11" fill="#555">Apr</text>
<line x1="404.53" y1="25" x2="404.53" y2="550" stroke="#f2f2f2"/>
<text x="404.53" y="566" text-anchor="middle" font-family="sans-serif" font-size="11" fill="#555">May</text>
<line x1="515.59" y1="25" x2="515.59" y2="550" stroke="#f2f2f2"/>
<text x="515.59" y="566" text-anchor="middle" font-family="sans-serif" font-size="11" fill="#555">Jun</text>
<line x1="623.06" y1="25" x2="623.06" y2="550" stroke="#f2f2f2"/>
<text x="623.06" y="566" text-anchor="middle" font-family="sans-serif" font-size="11" fill="#555">Jul</text>
<line x1="734.12" y1="25" x2="734.12" y2="550" stroke="#f2f2f2"/>
<text x="734.12" y="566" text-anchor="middle" font-family="sans-serif" font-size="11" fill="#555">Aug</text>
<line x1="845.18" y1="25" x2="845.18" y2="550" stroke="#f2f2f2"/>
<text x="845.18" y="566" text-anchor="middle" font-family="sans-serif" font-size="11" fill="#555">Sep</text>
<line x1="952.66" y1="25" x2="952.66" y2="550" stroke="#f2f2f2"/>
<text x="952.66" y="566" text-anchor="middle" font-family="sans-serif" font-size="11" fill="#555">Oct</text>
<line x1="1063.72" y1="25" x2="1063.72" y2="550" stroke="#f2f2f2"/>
<text x="1063.72" y="566" text-anchor="middle" font-family="sans-serif" font-size="11" fill="#555">Nov</text>
<line x1="1170.00" y1="25" x2="1170.00" y2="550" stroke="#f2f2f2"/>
<text x="1170.00" y="566" text-anchor="middle" font-family="sans-serif" font-size="11" fill="#555">Dec</text>
<line x1="70" y1="550" x2="1170" y2="550" stroke="#888"/>
<line x1="70" y1="25" x2="70" y2="550" stroke="#888"/>
<path d="M 363.01 32.08 L 363.01 33.00 Z" fill="#d0d0d0" fill-opacity="0.5" stroke="none"/>
<path d="M 528.58 27.42 L 528.58 29.44 Z" fill="#d0d0d0" fill-opacity="0.5" stroke="none"/>
<path d="M 572.33 25.00 L 1051.83 25.00 L 1055.42 25.00 L 1121.59 25.00 L 1129.66 25.00 L 1154.58 25.00 L 1169.98 25.00 L 1170.00 25.00 L 1170.00 41.48 L 1169.98 33.68 L 1154.58 25.74 L 1129.66 29.25 L 1121.59 32.70 L 1055.42 37.06 L 1051.83 29.16 L 572.33 25.01 Z" fill="#d0d0d0" fill-opacity="0.5" stroke="none"/>
<polyline fill="none" stroke="#111" stroke-width="1.2" points="70.00,39.76 174.49,37.63 199.53,36.42 246.01,32.08 363.01,33.00 428.13,31.84 445.95,27.42 528.58,29.44 572.16,25.00 572.33,25.01 1051.83,29.16 1055.42,37.06 1121.59,32.70 1129.66,29.25 1154.58,25.74 1169.98,33.68 1170.00,41.48"/>
<text x="620.0" y="588" text-anchor="middle" font-family="sans-serif" font-size="12" fill="#333">UTC time</text>
<text x="15" y="287.5" transform="rotate(-90 15,287.5)" text-anchor="middle" font-family="sans-serif" font-size="12" fill="#333">Capital</text>
</svg>