<svg xmlns="http://www.w3.org/2000/svg" width="1200" height="600" viewBox="0 0 1200 600">
<desc>Equity curve with drawdown fill; x-axis is months only (no exact timestamps)</desc>
<text x="600.0" y="18.0" text-anchor="middle" font-family="sans-serif" font-size="14">Balance Curve 2022 (UTC)</text>
<rect x="70" y="25" width="1100" height="525" fill="white" stroke="#ccc" />
<line x1="70" y1="550.00" x2="1170" y2="550.00" stroke="#eee"/>
<text x="62" y="554.0" text-anchor="end" font-family="sans-serif" font-size="11" fill="#555">0.00</text>
<line x1="70" y1="445.00" x2="1170" y2="445.00" stroke="#eee"/>
<text x="62" y="449.0" text-anchor="end" font-family="sans-serif" font-size="11" fill="#555">21284</text>
<line x1="70" y1="340.00" x2="1170" y2="340.00" stroke="#eee"/>
<text x="62" y="344.0" text-anchor="end" font-family="sans-serif" font-size="11" fill="#555">42569</text>
<line x1="70" y1="235.00" x2="1170" y2="235.00" stroke="#eee"/>
<text x="62" y="239.0" text-anchor="end" font-family="sans-serif" font-size="11" fill="#555">63853</text>
<line x1="70" y1="130.00" x2="1170" y2="130.00" stroke="#eee"/>
<text x="62" y="134.0" text-anchor="end" font-family="sans-serif" font-size="11" fill="#555">85137</text>
<line x1="70" y1="25.00" x2="1170" y2="25.00" stroke="#eee"/>
<text x="62" y="29.0" text-anchor="end" font-family="sans-serif" font-size="11" fill="#555">106422</text>
<line x1="161.67" y1="25" x2="161.67" y2="550" stroke="#f2f2f2"/>
<line x1="253.33" y1="25" x2="253.33" y2="550" stroke="#f2f2f2"/>
<line x1="345.00" y1="25" x2="345.00" y2="550" stroke="#f2f2f2"/>
<line x1="436.67" y1="25" x2="436.67" y2="550" stroke="#f2f2f2"/>
<line x1="528.33" y1="25" x2="528.33" y2="550" stroke="#f2f2f2"/>
<line x1="620.00" y1="25" x2="620.00" y2="550" stroke="#f2f2f2"/>
<line x1="711.67" y1="25" x2="711.67" y2="550" stroke="#f2f2f2"/>
<line x1="803.33" y1="25" x2="803.33" y2="550" stroke="#f2f2f2"/>
<line x1="895.00" y1="25" x2="895.00" y2="550" stroke="#f2f2f2"/>
<line x1="986.67" y1="25" x2="986.67" y2="550" stroke="#f2f2f2"/>
<line x1="1078.33" y1="25" x2="1078.33" y2="550" stroke="#f2f2f2"/>
<text x="115.83" y="566.00" text-anchor="middle" font-family="sans-serif" font-size="11" fill="#444">Jan</text>
<text x="207.50" y="566.00" text-anchor="middle" font-family="sans-serif" font-size="11" fill="#444">Feb</text>
<text x="299.17" y="566.00" text-anchor="middle" font-family="sans-serif" font-size="11" fill="#444">Mar</text>
<text x="390.83" y="566.00" text-anchor="middle" font-family="sans-serif" font-size="11" fill="#444">Apr</text>
<text x="482.50" y="566.00" text-anchor="middle" font-family="sans-serif" font-size="11" fill="#444">May</text>
<text x="574.17" y="566.00" text-anchor="middle" font-family="sans-serif" font-size="11" fill="#444">Jun</text>
<text x="665.83" y="566.00" text-anchor="middle" font-family="sans-serif" font-size="11" fill="#444">Jul</text>
<text x="757.50" y="566.00" text-anchor="middle" font-family="sans-serif" font-size="11" fill="#444">Aug</text>
<text x="849.17" y="566.00" text-anchor="middle" font-family="sans-serif" font-size="11" fill="#444">Sep</text>
<text x="940.83" y="566.00" text-anchor="middle" font-family="sans-serif" font-size="11" fill="#444">Oct</text>
<text x="1032.50" y="566.00" text-anchor="middle" font-family="sans-serif" font-size="11" fill="#444">Nov</text>
<text x="1124.17" y="566.00" text-anchor="middle" font-family="sans-serif" font-size="11" fill="#444">Dec</text>
<line x1="70" y1="550" x2="1170" y2="550" stroke="#888"/>
<line x1="70" y1="25" x2="70" y2="550" stroke="#888"/>
<line x1="115.83" y1="550.00" x2="115.83" y2="556.00" stroke="#888"/>
<line x1="1160.83"   y1="550.00" x2="1160.83"   y2="556.00" stroke="#888"/>
<text x="115.83" y="582.00" text-anchor="start" font-family="sans-serif" font-size="11" fill="#333">Initial Balance: 100000</text>
<text x="1160.83"   y="582.00" text-anchor="end"   font-family="sans-serif" font-size="11" fill="#333">Ending Balance: 106422</text>
<path d="M 288.98 43.48 L 299.17 43.48 L 309.35 43.48 L 319.54 43.48 L 319.54 45.38 L 309.35 47.01 L 299.17 46.27 L 288.98 48.67 Z" fill="#d0d0d0" fill-opacity="0.5" stroke="none"/>
<path d="M 339.91 42.95 L 351.55 42.95 L 364.64 42.95 L 377.74 42.95 L 390.83 42.95 L 403.93 42.95 L 417.02 42.95 L 430.12 42.95 L 443.21 42.95 L 456.31 42.95 L 469.40 42.95 L 482.50 42.95 L 495.60 42.95 L 508.69 42.95 L 521.79 42.95 L 521.79 43.74 L 508.69 45.85 L 495.60 46.51 L 482.50 49.12 L 469.40 49.83 L 456.31 51.91 L 443.21 53.95 L 430.12 52.20 L 417.02 53.89 L 403.93 53.58 L 390.83 56.16 L 377.74 51.04 L 364.64 52.57 L 351.55 47.41 L 339.91 48.15 Z" fill="#d0d0d0" fill-opacity="0.5" stroke="none"/>
<path d="M 608.54 38.53 L 608.54 38.91 Z" fill="#d0d0d0" fill-opacity="0.5" stroke="none"/>
<path d="M 661.25 31.94 L 670.42 31.94 L 679.58 31.94 L 688.75 31.94 L 697.92 31.94 L 707.08 31.94 L 716.76 31.94 L 726.94 31.94 L 737.13 31.94 L 737.13 34.52 L 726.94 34.46 L 716.76 37.11 L 707.08 39.19 L 697.92 33.89 L 688.75 34.21 L 679.58 34.56 L 670.42 34.62 L 661.25 37.27 Z" fill="#d0d0d0" fill-opacity="0.5" stroke="none"/>
<path d="M 757.50 31.66 L 767.69 31.66 L 777.87 31.66 L 788.06 31.66 L 798.24 31.66 L 805.52 31.66 L 809.88 31.66 L 814.25 31.66 L 818.61 31.66 L 822.98 31.66 L 827.34 31.66 L 831.71 31.66 L 836.07 31.66 L 840.44 31.66 L 844.80 31.66 L 849.17 31.66 L 853.53 31.66 L 857.90 31.66 L 862.26 31.66 L 866.63 31.66 L 870.99 31.66 L 875.36 31.66 L 879.72 31.66 L 884.09 31.66 L 888.45 31.66 L 892.82 31.66 L 897.55 31.66 L 902.64 31.66 L 907.73 31.66 L 912.82 31.66 L 917.92 31.66 L 923.01 31.66 L 923.01 31.92 L 917.92 34.56 L 912.82 36.47 L 907.73 39.06 L 902.64 41.67 L 897.55 43.35 L 892.82 43.48 L 888.45 46.06 L 884.09 40.83 L 879.72 42.63 L 875.36 37.42 L 870.99 39.14 L 866.63 41.24 L 862.26 43.70 L 857.90 46.10 L 853.53 48.55 L 849.17 43.40 L 844.80 38.13 L 840.44 40.73 L 836.07 43.32 L 831.71 45.64 L 827.34 43.34 L 822.98 38.13 L 818.61 40.95 L 814.25 35.66 L 809.88 37.48 L 805.52 37.08 L 798.24 31.76 L 788.06 34.41 L 777.87 36.10 L 767.69 37.85 L 757.50 36.93 Z" fill="#d0d0d0" fill-opacity="0.5" stroke="none"/>
<path d="M 938.29 26.65 L 943.38 26.65 L 948.47 26.65 L 953.56 26.65 L 958.66 26.65 L 963.75 26.65 L 968.84 26.65 L 973.94 26.65 L 979.03 26.65 L 984.12 26.65 L 992.40 26.65 L 1003.85 26.65 L 1015.31 26.65 L 1026.77 26.65 L 1038.23 26.65 L 1049.69 26.65 L 1061.15 26.65 L 1072.60 26.65 L 1087.50 26.65 L 1105.83 26.65 L 1124.17 26.65 L 1142.50 26.65 L 1142.50 27.72 L 1124.17 29.76 L 1105.83 31.00 L 1087.50 29.92 L 1072.60 32.60 L 1061.15 34.86 L 1049.69 36.71 L 1038.23 38.57 L 1026.77 33.26 L 1015.31 33.71 L 1003.85 28.36 L 992.40 30.87 L 984.12 31.27 L 979.03 33.23 L 973.94 33.51 L 968.84 36.14 L 963.75 37.86 L 958.66 39.91 L 953.56 40.24 L 948.47 34.95 L 943.38 37.25 L 938.29 31.98 Z" fill="#d0d0d0" fill-opacity="0.5" stroke="none"/>
<polyline fill="none" stroke="#111" stroke-width="1.2" points="115.83,56.68 170.83,54.92 189.17,53.11 207.50,52.64 225.83,50.61 244.17,48.27 258.43,45.64 268.61,44.49 278.80,43.48 288.98,48.67 299.17,46.27 309.35,47.01 319.54,45.38 329.72,42.95 339.91,48.15 351.55,47.41 364.64,52.57 377.74,51.04 390.83,56.16 403.93,53.58 417.02,53.89 430.12,52.20 443.21,53.95 456.31,51.91 469.40,49.83 482.50,49.12 495.60,46.51 508.69,45.85 521.79,43.74 539.79,42.29 562.71,39.96 585.62,38.53 608.54,38.91 624.58,38.35 633.75,37.23 642.92,34.59 652.08,31.94 661.25,37.27 670.42,34.62 679.58,34.56 688.75,34.21 697.92,33.89 707.08,39.19 716.76,37.11 726.94,34.46 737.13,34.52 747.31,31.66 757.50,36.93 767.69,37.85 777.87,36.10 788.06,34.41 798.24,31.76 805.52,37.08 809.88,37.48 814.25,35.66 818.61,40.95 822.98,38.13 827.34,43.34 831.71,45.64 836.07,43.32 840.44,40.73 844.80,38.13 849.17,43.40 853.53,48.55 857.90,46.10 862.26,43.70 866.63,41.24 870.99,39.14 875.36,37.42 879.72,42.63 884.09,40.83 888.45,46.06 892.82,43.48 897.55,43.35 902.64,41.67 907.73,39.06 912.82,36.47 917.92,34.56 923.01,31.92 928.10,29.52 933.19,26.65 938.29,31.98 943.38,37.25 948.47,34.95 953.56,40.24 958.66,39.91 963.75,37.86 968.84,36.14 973.94,33.51 979.03,33.23 984.12,31.27 992.40,30.87 1003.85,28.36 1015.31,33.71 1026.77,33.26 1038.23,38.57 1049.69,36.71 1061.15,34.86 1072.60,32.60 1087.50,29.92 1105.83,31.00 1124.17,29.76 1142.50,27.72 1160.83,25.00"/>
<text x="15" y="287.5" transform="rotate(-90 15,287.5)" text-anchor="middle" font-family="sans-serif" font-size="12" fill="#333">USD</text>
</svg>