<svg xmlns="http://www.w3.org/2000/svg" width="1200" height="600" viewBox="0 0 1200 600">
<desc>Equity curve with drawdown fill; x-axis is months only (no exact timestamps)</desc>
<text x="600.0" y="18.0" text-anchor="middle" font-family="sans-serif" font-size="14">Balance Curve 2004 (UTC)</text>
<rect x="70" y="25" width="1100" height="525" fill="white" stroke="#ccc" />
<line x1="70" y1="550.00" x2="1170" y2="550.00" stroke="#eee"/>
<text x="62" y="554.0" text-anchor="end" font-family="sans-serif" font-size="11" fill="#555">0.00</text>
<line x1="70" y1="445.00" x2="1170" y2="445.00" stroke="#eee"/>
<text x="62" y="449.0" text-anchor="end" font-family="sans-serif" font-size="11" fill="#555">26415</text>
<line x1="70" y1="340.00" x2="1170" y2="340.00" stroke="#eee"/>
<text x="62" y="344.0" text-anchor="end" font-family="sans-serif" font-size="11" fill="#555">52831</text>
<line x1="70" y1="235.00" x2="1170" y2="235.00" stroke="#eee"/>
<text x="62" y="239.0" text-anchor="end" font-family="sans-serif" font-size="11" fill="#555">79246</text>
<line x1="70" y1="130.00" x2="1170" y2="130.00" stroke="#eee"/>
<text x="62" y="134.0" text-anchor="end" font-family="sans-serif" font-size="11" fill="#555">105662</text>
<line x1="70" y1="25.00" x2="1170" y2="25.00" stroke="#eee"/>
<text x="62" y="29.0" text-anchor="end" font-family="sans-serif" font-size="11" fill="#555">132077</text>
<line x1="161.67" y1="25" x2="161.67" y2="550" stroke="#f2f2f2"/>
<line x1="253.33" y1="25" x2="253.33" y2="550" stroke="#f2f2f2"/>
<line x1="345.00" y1="25" x2="345.00" y2="550" stroke="#f2f2f2"/>
<line x1="436.67" y1="25" x2="436.67" y2="550" stroke="#f2f2f2"/>
<line x1="528.33" y1="25" x2="528.33" y2="550" stroke="#f2f2f2"/>
<line x1="620.00" y1="25" x2="620.00" y2="550" stroke="#f2f2f2"/>
<line x1="711.67" y1="25" x2="711.67" y2="550" stroke="#f2f2f2"/>
<line x1="803.33" y1="25" x2="803.33" y2="550" stroke="#f2f2f2"/>
<line x1="895.00" y1="25" x2="895.00" y2="550" stroke="#f2f2f2"/>
<line x1="986.67" y1="25" x2="986.67" y2="550" stroke="#f2f2f2"/>
<line x1="1078.33" y1="25" x2="1078.33" y2="550" stroke="#f2f2f2"/>
<text x="115.83" y="566.00" text-anchor="middle" font-family="sans-serif" font-size="11" fill="#444">Jan</text>
<text x="207.50" y="566.00" text-anchor="middle" font-family="sans-serif" font-size="11" fill="#444">Feb</text>
<text x="299.17" y="566.00" text-anchor="middle" font-family="sans-serif" font-size="11" fill="#444">Mar</text>
<text x="390.83" y="566.00" text-anchor="middle" font-family="sans-serif" font-size="11" fill="#444">Apr</text>
<text x="482.50" y="566.00" text-anchor="middle" font-family="sans-serif" font-size="11" fill="#444">May</text>
<text x="574.17" y="566.00" text-anchor="middle" font-family="sans-serif" font-size="11" fill="#444">Jun</text>
<text x="665.83" y="566.00" text-anchor="middle" font-family="sans-serif" font-size="11" fill="#444">Jul</text>
<text x="757.50" y="566.00" text-anchor="middle" font-family="sans-serif" font-size="11" fill="#444">Aug</text>
<text x="849.17" y="566.00" text-anchor="middle" font-family="sans-serif" font-size="11" fill="#444">Sep</text>
<text x="940.83" y="566.00" text-anchor="middle" font-family="sans-serif" font-size="11" fill="#444">Oct</text>
<text x="1032.50" y="566.00" text-anchor="middle" font-family="sans-serif" font-size="11" fill="#444">Nov</text>
<text x="1124.17" y="566.00" text-anchor="middle" font-family="sans-serif" font-size="11" fill="#444">Dec</text>
<line x1="70" y1="550" x2="1170" y2="550" stroke="#888"/>
<line x1="70" y1="25" x2="70" y2="550" stroke="#888"/>
<line x1="71.91" y1="550.00" x2="71.91" y2="556.00" stroke="#888"/>
<line x1="1163.45"   y1="550.00" x2="1163.45"   y2="556.00" stroke="#888"/>
<text x="71.91" y="582.00" text-anchor="start" font-family="sans-serif" font-size="11" fill="#333">Initial Balance: 112857</text>
<text x="1163.45"   y="582.00" text-anchor="end"   font-family="sans-serif" font-size="11" fill="#333">Ending Balance: 126465</text>
<path d="M 83.37 98.04 L 87.19 98.04 L 91.01 98.04 L 91.01 101.36 L 87.19 102.50 L 83.37 104.93 Z" fill="#d0d0d0" fill-opacity="0.5" stroke="none"/>
<path d="M 98.65 97.71 L 102.47 97.71 L 106.28 97.71 L 110.10 97.71 L 113.92 97.71 L 117.74 97.71 L 121.56 97.71 L 125.38 97.71 L 129.20 97.71 L 133.02 97.71 L 136.84 97.71 L 140.66 97.71 L 144.48 97.71 L 148.30 97.71 L 152.12 97.71 L 155.94 97.71 L 159.76 97.71 L 165.49 97.71 L 173.12 97.71 L 180.76 97.71 L 188.40 97.71 L 196.04 97.71 L 203.68 97.71 L 211.32 97.71 L 211.32 100.94 L 203.68 103.22 L 196.04 106.84 L 188.40 106.58 L 180.76 107.91 L 173.12 111.50 L 165.49 113.89 L 159.76 107.14 L 155.94 110.05 L 152.12 113.60 L 148.30 116.73 L 144.48 120.22 L 140.66 113.67 L 136.84 117.37 L 133.02 120.52 L 129.20 114.03 L 125.38 111.10 L 121.56 117.69 L 117.74 114.81 L 113.92 114.64 L 110.10 107.90 L 106.28 101.16 L 102.47 104.96 L 98.65 98.07 Z" fill="#d0d0d0" fill-opacity="0.5" stroke="none"/>
<path d="M 262.50 85.55 L 268.61 85.55 L 274.72 85.55 L 274.72 86.20 L 268.61 89.61 L 262.50 92.62 Z" fill="#d0d0d0" fill-opacity="0.5" stroke="none"/>
<path d="M 305.28 72.30 L 311.39 72.30 L 317.50 72.30 L 323.61 72.30 L 329.72 72.30 L 335.83 72.30 L 341.94 72.30 L 351.55 72.30 L 364.64 72.30 L 377.74 72.30 L 390.83 72.30 L 403.93 72.30 L 403.93 72.47 L 390.83 75.95 L 377.74 78.59 L 364.64 82.37 L 351.55 75.13 L 341.94 75.15 L 335.83 78.61 L 329.72 82.06 L 323.61 84.05 L 317.50 83.03 L 311.39 86.74 L 305.28 79.57 Z" fill="#d0d0d0" fill-opacity="0.5" stroke="none"/>
<path d="M 457.50 58.59 L 465.83 58.59 L 474.17 58.59 L 482.50 58.59 L 490.83 58.59 L 499.17 58.59 L 499.17 59.00 L 490.83 60.46 L 482.50 62.53 L 474.17 63.44 L 465.83 62.93 L 457.50 65.90 Z" fill="#d0d0d0" fill-opacity="0.5" stroke="none"/>
<path d="M 524.17 53.09 L 532.15 53.09 L 539.79 53.09 L 539.79 56.94 L 532.15 60.89 L 524.17 60.63 Z" fill="#d0d0d0" fill-opacity="0.5" stroke="none"/>
<path d="M 577.99 48.09 L 585.62 48.09 L 593.26 48.09 L 600.90 48.09 L 608.54 48.09 L 616.18 48.09 L 627.64 48.09 L 642.92 48.09 L 658.19 48.09 L 673.47 48.09 L 688.75 48.09 L 704.03 48.09 L 723.12 48.09 L 746.04 48.09 L 768.96 48.09 L 791.88 48.09 L 809.88 48.09 L 822.98 48.09 L 836.07 48.09 L 849.17 48.09 L 862.26 48.09 L 862.26 49.12 L 849.17 51.84 L 836.07 52.08 L 822.98 55.15 L 809.88 57.62 L 791.88 50.02 L 768.96 53.08 L 746.04 57.04 L 723.12 49.50 L 704.03 53.51 L 688.75 54.86 L 673.47 58.02 L 658.19 59.20 L 642.92 60.44 L 627.64 52.99 L 616.18 57.18 L 608.54 59.39 L 600.90 62.64 L 593.26 63.23 L 585.62 55.71 L 577.99 55.70 Z" fill="#d0d0d0" fill-opacity="0.5" stroke="none"/>
<path d="M 961.20 25.00 L 971.39 25.00 L 981.57 25.00 L 998.12 25.00 L 1021.04 25.00 L 1043.96 25.00 L 1066.88 25.00 L 1084.88 25.00 L 1097.98 25.00 L 1111.07 25.00 L 1124.17 25.00 L 1137.26 25.00 L 1150.36 25.00 L 1163.45 25.00 L 1163.45 47.31 L 1150.36 49.89 L 1137.26 42.20 L 1124.17 34.40 L 1111.07 36.56 L 1097.98 39.73 L 1084.88 31.90 L 1066.88 35.19 L 1043.96 32.79 L 1021.04 35.19 L 998.12 32.25 L 981.57 36.37 L 971.39 40.73 L 961.20 32.92 Z" fill="#d0d0d0" fill-opacity="0.5" stroke="none"/>
<polyline fill="none" stroke="#111" stroke-width="1.2" points="71.91,101.40 75.73,100.21 79.55,98.04 83.37,104.93 87.19,102.50 91.01,101.36 94.83,97.71 98.65,98.07 102.47,104.96 106.28,101.16 110.10,107.90 113.92,114.64 117.74,114.81 121.56,117.69 125.38,111.10 129.20,114.03 133.02,120.52 136.84,117.37 140.66,113.67 144.48,120.22 148.30,116.73 152.12,113.60 155.94,110.05 159.76,107.14 165.49,113.89 173.12,111.50 180.76,107.91 188.40,106.58 196.04,106.84 203.68,103.22 211.32,100.94 218.96,97.30 226.60,96.89 234.24,93.55 241.88,90.09 249.51,87.08 256.39,85.55 262.50,92.62 268.61,89.61 274.72,86.20 280.83,82.46 286.94,78.67 293.06,76.13 299.17,72.30 305.28,79.57 311.39,86.74 317.50,83.03 323.61,84.05 329.72,82.06 335.83,78.61 341.94,75.15 351.55,75.13 364.64,82.37 377.74,78.59 390.83,75.95 403.93,72.47 417.02,70.46 430.12,66.59 440.83,62.69 449.17,58.59 457.50,65.90 465.83,62.93 474.17,63.44 482.50,62.53 490.83,60.46 499.17,59.00 507.50,56.33 515.83,53.09 524.17,60.63 532.15,60.89 539.79,56.94 547.43,52.95 555.07,52.31 562.71,48.71 570.35,48.09 577.99,55.70 585.62,55.71 593.26,63.23 600.90,62.64 608.54,59.39 616.18,57.18 627.64,52.99 642.92,60.44 658.19,59.20 673.47,58.02 688.75,54.86 704.03,53.51 723.12,49.50 746.04,57.04 768.96,53.08 791.88,50.02 809.88,57.62 822.98,55.15 836.07,52.08 849.17,51.84 862.26,49.12 875.36,46.93 888.45,43.70 900.09,43.11 910.28,39.02 920.46,37.37 930.65,33.62 940.83,29.46 951.02,25.00 961.20,32.92 971.39,40.73 981.57,36.37 998.12,32.25 1021.04,35.19 1043.96,32.79 1066.88,35.19 1084.88,31.90 1097.98,39.73 1111.07,36.56 1124.17,34.40 1137.26,42.20 1150.36,49.89 1163.45,47.31"/>
<text x="15" y="287.5" transform="rotate(-90 15,287.5)" text-anchor="middle" font-family="sans-serif" font-size="12" fill="#333">USD</text>
</svg>