<svg xmlns="http://www.w3.org/2000/svg" width="1200" height="600" viewBox="0 0 1200 600">
<desc>Equity curve with drawdown fill; x-axis is months only (no exact timestamps)</desc>
<text x="600.0" y="18.0" text-anchor="middle" font-family="sans-serif" font-size="14">Balance Curve 2025 (UTC)</text>
<rect x="70" y="25" width="1100" height="525" fill="white" stroke="#ccc" />
<line x1="70" y1="550.00" x2="1170" y2="550.00" stroke="#eee"/>
<text x="62" y="554.0" text-anchor="end" font-family="sans-serif" font-size="11" fill="#555">0.00</text>
<line x1="70" y1="445.00" x2="1170" y2="445.00" stroke="#eee"/>
<text x="62" y="449.0" text-anchor="end" font-family="sans-serif" font-size="11" fill="#555">256436</text>
<line x1="70" y1="340.00" x2="1170" y2="340.00" stroke="#eee"/>
<text x="62" y="344.0" text-anchor="end" font-family="sans-serif" font-size="11" fill="#555">512873</text>
<line x1="70" y1="235.00" x2="1170" y2="235.00" stroke="#eee"/>
<text x="62" y="239.0" text-anchor="end" font-family="sans-serif" font-size="11" fill="#555">769309</text>
<line x1="70" y1="130.00" x2="1170" y2="130.00" stroke="#eee"/>
<text x="62" y="134.0" text-anchor="end" font-family="sans-serif" font-size="11" fill="#555">1025746</text>
<line x1="70" y1="25.00" x2="1170" y2="25.00" stroke="#eee"/>
<text x="62" y="29.0" text-anchor="end" font-family="sans-serif" font-size="11" fill="#555">1282182</text>
<line x1="207.50" y1="25" x2="207.50" y2="550" stroke="#f2f2f2"/>
<line x1="345.00" y1="25" x2="345.00" y2="550" stroke="#f2f2f2"/>
<line x1="482.50" y1="25" x2="482.50" y2="550" stroke="#f2f2f2"/>
<line x1="620.00" y1="25" x2="620.00" y2="550" stroke="#f2f2f2"/>
<line x1="757.50" y1="25" x2="757.50" y2="550" stroke="#f2f2f2"/>
<line x1="895.00" y1="25" x2="895.00" y2="550" stroke="#f2f2f2"/>
<line x1="1032.50" y1="25" x2="1032.50" y2="550" stroke="#f2f2f2"/>
<text x="138.75" y="566.00" text-anchor="middle" font-family="sans-serif" font-size="11" fill="#444">Jan</text>
<text x="276.25" y="566.00" text-anchor="middle" font-family="sans-serif" font-size="11" fill="#444">Feb</text>
<text x="413.75" y="566.00" text-anchor="middle" font-family="sans-serif" font-size="11" fill="#444">Mar</text>
<text x="551.25" y="566.00" text-anchor="middle" font-family="sans-serif" font-size="11" fill="#444">Apr</text>
<text x="688.75" y="566.00" text-anchor="middle" font-family="sans-serif" font-size="11" fill="#444">May</text>
<text x="826.25" y="566.00" text-anchor="middle" font-family="sans-serif" font-size="11" fill="#444">Jun</text>
<text x="963.75" y="566.00" text-anchor="middle" font-family="sans-serif" font-size="11" fill="#444">Jul</text>
<text x="1101.25" y="566.00" text-anchor="middle" font-family="sans-serif" font-size="11" fill="#444">Aug</text>
<line x1="70" y1="550" x2="1170" y2="550" stroke="#888"/>
<line x1="70" y1="25" x2="70" y2="550" stroke="#888"/>
<line x1="75.73" y1="550.00" x2="75.73" y2="556.00" stroke="#888"/>
<line x1="1135.62"   y1="550.00" x2="1135.62"   y2="556.00" stroke="#888"/>
<text x="75.73" y="582.00" text-anchor="start" font-family="sans-serif" font-size="11" fill="#333">Initial Balance: 1224101</text>
<text x="1135.62"   y="582.00" text-anchor="end"   font-family="sans-serif" font-size="11" fill="#333">Ending Balance: 1253449</text>
<path d="M 98.65 47.27 L 110.10 47.27 L 121.56 47.27 L 133.02 47.27 L 133.02 49.64 L 121.56 50.68 L 110.10 52.69 L 98.65 52.40 Z" fill="#d0d0d0" fill-opacity="0.5" stroke="none"/>
<path d="M 356.46 29.63 L 379.38 29.63 L 402.29 29.63 L 402.29 30.51 L 379.38 32.59 L 356.46 34.95 Z" fill="#d0d0d0" fill-opacity="0.5" stroke="none"/>
<path d="M 485.94 25.51 L 492.81 25.51 L 499.69 25.51 L 506.56 25.51 L 513.44 25.51 L 520.31 25.51 L 527.19 25.51 L 534.06 25.51 L 540.94 25.51 L 547.81 25.51 L 554.69 25.51 L 554.69 26.43 L 547.81 29.35 L 540.94 31.10 L 534.06 31.20 L 527.19 32.69 L 520.31 33.43 L 513.44 31.43 L 506.56 26.18 L 499.69 29.18 L 492.81 29.20 L 485.94 30.86 Z" fill="#d0d0d0" fill-opacity="0.5" stroke="none"/>
<path d="M 568.44 25.00 L 575.31 25.00 L 582.19 25.00 L 589.06 25.00 L 595.94 25.00 L 602.81 25.00 L 609.69 25.00 L 616.56 25.00 L 633.75 25.00 L 661.25 25.00 L 688.75 25.00 L 716.25 25.00 L 743.75 25.00 L 780.42 25.00 L 826.25 25.00 L 872.08 25.00 L 908.75 25.00 L 936.25 25.00 L 963.75 25.00 L 991.25 25.00 L 1018.75 25.00 L 1066.88 25.00 L 1135.62 25.00 L 1135.62 36.77 L 1066.88 38.80 L 1018.75 40.98 L 991.25 35.74 L 963.75 37.84 L 936.25 40.12 L 908.75 34.92 L 872.08 37.78 L 826.25 40.19 L 780.42 42.27 L 743.75 44.64 L 716.25 39.43 L 688.75 41.79 L 661.25 36.56 L 633.75 39.02 L 616.56 33.76 L 609.69 34.37 L 602.81 29.06 L 595.94 30.30 L 589.06 32.76 L 582.19 32.58 L 575.31 27.35 L 568.44 30.35 Z" fill="#d0d0d0" fill-opacity="0.5" stroke="none"/>
<polyline fill="none" stroke="#111" stroke-width="1.2" points="75.73,48.78 87.19,47.27 98.65,52.40 110.10,52.69 121.56,50.68 133.02,49.64 144.48,47.09 155.94,44.84 167.40,42.26 178.85,39.68 190.31,38.81 201.77,36.49 230.42,34.60 276.25,32.26 322.08,29.63 356.46,34.95 379.38,32.59 402.29,30.51 425.21,28.63 448.12,27.31 471.04,25.51 485.94,30.86 492.81,29.20 499.69,29.18 506.56,26.18 513.44,31.43 520.31,33.43 527.19,32.69 534.06,31.20 540.94,31.10 547.81,29.35 554.69,26.43 561.56,25.00 568.44,30.35 575.31,27.35 582.19,32.58 589.06,32.76 595.94,30.30 602.81,29.06 609.69,34.37 616.56,33.76 633.75,39.02 661.25,36.56 688.75,41.79 716.25,39.43 743.75,44.64 780.42,42.27 826.25,40.19 872.08,37.78 908.75,34.92 936.25,40.12 963.75,37.84 991.25,35.74 1018.75,40.98 1066.88,38.80 1135.62,36.77"/>
<text x="15" y="287.5" transform="rotate(-90 15,287.5)" text-anchor="middle" font-family="sans-serif" font-size="12" fill="#333">USD</text>
</svg>