<svg xmlns="http://www.w3.org/2000/svg" width="1200" height="600" viewBox="0 0 1200 600">
<desc>Equity curve with drawdown fill; x-axis is months only (no exact timestamps)</desc>
<text x="600.0" y="18.0" text-anchor="middle" font-family="sans-serif" font-size="14">Portfolio 2010 (UTC)</text>
<rect x="70" y="25" width="1100" height="525" fill="white" stroke="#ccc" />
<line x1="70" y1="550.00" x2="1170" y2="550.00" stroke="#eee"/>
<text x="62" y="554.0" text-anchor="end" font-family="sans-serif" font-size="11" fill="#555">0.00</text>
<line x1="70" y1="445.00" x2="1170" y2="445.00" stroke="#eee"/>
<text x="62" y="449.0" text-anchor="end" font-family="sans-serif" font-size="11" fill="#555">26432</text>
<line x1="70" y1="340.00" x2="1170" y2="340.00" stroke="#eee"/>
<text x="62" y="344.0" text-anchor="end" font-family="sans-serif" font-size="11" fill="#555">52865</text>
<line x1="70" y1="235.00" x2="1170" y2="235.00" stroke="#eee"/>
<text x="62" y="239.0" text-anchor="end" font-family="sans-serif" font-size="11" fill="#555">79297</text>
<line x1="70" y1="130.00" x2="1170" y2="130.00" stroke="#eee"/>
<text x="62" y="134.0" text-anchor="end" font-family="sans-serif" font-size="11" fill="#555">105730</text>
<line x1="70" y1="25.00" x2="1170" y2="25.00" stroke="#eee"/>
<text x="62" y="29.0" text-anchor="end" font-family="sans-serif" font-size="11" fill="#555">132162</text>
<line x1="161.67" y1="25" x2="161.67" y2="550" stroke="#f2f2f2"/>
<line x1="253.33" y1="25" x2="253.33" y2="550" stroke="#f2f2f2"/>
<line x1="345.00" y1="25" x2="345.00" y2="550" stroke="#f2f2f2"/>
<line x1="436.67" y1="25" x2="436.67" y2="550" stroke="#f2f2f2"/>
<line x1="528.33" y1="25" x2="528.33" y2="550" stroke="#f2f2f2"/>
<line x1="620.00" y1="25" x2="620.00" y2="550" stroke="#f2f2f2"/>
<line x1="711.67" y1="25" x2="711.67" y2="550" stroke="#f2f2f2"/>
<line x1="803.33" y1="25" x2="803.33" y2="550" stroke="#f2f2f2"/>
<line x1="895.00" y1="25" x2="895.00" y2="550" stroke="#f2f2f2"/>
<line x1="986.67" y1="25" x2="986.67" y2="550" stroke="#f2f2f2"/>
<line x1="1078.33" y1="25" x2="1078.33" y2="550" stroke="#f2f2f2"/>
<text x="115.83" y="566.00" text-anchor="middle" font-family="sans-serif" font-size="11" fill="#444">Jan</text>
<text x="207.50" y="566.00" text-anchor="middle" font-family="sans-serif" font-size="11" fill="#444">Feb</text>
<text x="299.17" y="566.00" text-anchor="middle" font-family="sans-serif" font-size="11" fill="#444">Mar</text>
<text x="390.83" y="566.00" text-anchor="middle" font-family="sans-serif" font-size="11" fill="#444">Apr</text>
<text x="482.50" y="566.00" text-anchor="middle" font-family="sans-serif" font-size="11" fill="#444">May</text>
<text x="574.17" y="566.00" text-anchor="middle" font-family="sans-serif" font-size="11" fill="#444">Jun</text>
<text x="665.83" y="566.00" text-anchor="middle" font-family="sans-serif" font-size="11" fill="#444">Jul</text>
<text x="757.50" y="566.00" text-anchor="middle" font-family="sans-serif" font-size="11" fill="#444">Aug</text>
<text x="849.17" y="566.00" text-anchor="middle" font-family="sans-serif" font-size="11" fill="#444">Sep</text>
<text x="940.83" y="566.00" text-anchor="middle" font-family="sans-serif" font-size="11" fill="#444">Oct</text>
<text x="1032.50" y="566.00" text-anchor="middle" font-family="sans-serif" font-size="11" fill="#444">Nov</text>
<text x="1124.17" y="566.00" text-anchor="middle" font-family="sans-serif" font-size="11" fill="#444">Dec</text>
<line x1="70" y1="550" x2="1170" y2="550" stroke="#888"/>
<line x1="70" y1="25" x2="70" y2="550" stroke="#888"/>
<line x1="75.09" y1="550.00" x2="75.09" y2="556.00" stroke="#888"/>
<line x1="1167.30"   y1="550.00" x2="1167.30"   y2="556.00" stroke="#888"/>
<text x="75.09" y="582.00" text-anchor="start" font-family="sans-serif" font-size="11" fill="#333">Initial Balance: 100000</text>
<text x="1167.30"   y="582.00" text-anchor="end"   font-family="sans-serif" font-size="11" fill="#333">Ending Balance: 132162</text>
<path d="M 115.83 146.98 L 115.83 147.23 Z" fill="#d0d0d0" fill-opacity="0.5" stroke="none"/>
<path d="M 207.50 136.16 L 225.83 136.16 L 244.17 136.16 L 244.17 136.64 L 225.83 138.26 L 207.50 140.35 Z" fill="#d0d0d0" fill-opacity="0.5" stroke="none"/>
<path d="M 306.81 130.33 L 306.81 131.11 Z" fill="#d0d0d0" fill-opacity="0.5" stroke="none"/>
<path d="M 398.47 123.61 L 413.75 123.61 L 429.03 123.61 L 437.60 123.61 L 439.47 123.61 L 441.34 123.61 L 443.21 123.61 L 445.09 123.61 L 446.96 123.61 L 448.83 123.61 L 450.70 123.61 L 452.57 123.61 L 452.57 124.05 L 450.70 126.42 L 448.83 128.75 L 446.96 130.88 L 445.09 132.87 L 443.21 134.96 L 441.34 137.01 L 439.47 138.76 L 437.60 134.56 L 429.03 130.32 L 413.75 126.03 L 398.47 127.91 Z" fill="#d0d0d0" fill-opacity="0.5" stroke="none"/>
<path d="M 471.28 108.77 L 473.15 108.77 L 475.02 108.77 L 476.89 108.77 L 476.89 108.77 L 475.02 110.82 L 473.15 112.03 L 471.28 113.22 Z" fill="#d0d0d0" fill-opacity="0.5" stroke="none"/>
<path d="M 482.50 104.78 L 484.37 104.78 L 486.24 104.78 L 488.11 104.78 L 489.98 104.78 L 491.85 104.78 L 493.72 104.78 L 495.60 103.61 L 497.47 103.61 L 497.47 112.49 L 495.60 108.01 L 493.72 106.20 L 491.85 107.05 L 489.98 109.40 L 488.11 104.91 L 486.24 106.24 L 484.37 106.94 L 482.50 109.27 Z" fill="#d0d0d0" fill-opacity="0.5" stroke="none"/>
<path d="M 501.21 103.61 L 503.08 103.61 L 504.95 103.61 L 506.82 103.61 L 508.69 103.61 L 508.69 105.25 L 506.82 106.82 L 504.95 108.96 L 503.08 110.46 L 501.21 110.63 Z" fill="#d0d0d0" fill-opacity="0.5" stroke="none"/>
<path d="M 518.04 100.28 L 518.04 100.30 Z" fill="#d0d0d0" fill-opacity="0.5" stroke="none"/>
<path d="M 563.38 78.99 L 568.77 78.99 L 574.17 78.99 L 579.56 78.99 L 584.95 78.99 L 590.34 78.99 L 595.74 78.99 L 595.74 80.10 L 590.34 82.22 L 584.95 81.25 L 579.56 79.85 L 574.17 80.21 L 568.77 81.59 L 563.38 83.71 Z" fill="#d0d0d0" fill-opacity="0.5" stroke="none"/>
<path d="M 706.57 59.97 L 719.31 59.97 L 734.58 59.97 L 749.86 59.97 L 765.14 59.97 L 780.42 59.97 L 795.69 59.97 L 812.50 59.97 L 830.83 59.97 L 849.17 59.97 L 867.50 59.97 L 885.83 59.97 L 897.86 59.97 L 903.59 59.97 L 903.59 62.08 L 897.86 63.18 L 885.83 65.27 L 867.50 66.23 L 849.17 67.72 L 830.83 68.68 L 812.50 68.22 L 795.69 66.67 L 780.42 69.05 L 765.14 70.75 L 749.86 72.30 L 734.58 70.53 L 719.31 65.73 L 706.57 60.86 Z" fill="#d0d0d0" fill-opacity="0.5" stroke="none"/>
<path d="M 915.05 59.40 L 920.78 59.40 L 920.78 61.67 L 915.05 64.28 Z" fill="#d0d0d0" fill-opacity="0.5" stroke="none"/>
<path d="M 932.24 58.98 L 932.24 60.25 Z" fill="#d0d0d0" fill-opacity="0.5" stroke="none"/>
<path d="M 1016.13 38.02 L 1022.68 38.02 L 1029.23 38.02 L 1035.77 38.02 L 1042.32 38.02 L 1048.87 38.02 L 1055.42 38.02 L 1061.96 38.02 L 1068.51 38.02 L 1075.06 38.02 L 1081.03 38.02 L 1086.42 38.02 L 1091.81 38.02 L 1097.21 38.02 L 1097.21 39.21 L 1091.81 41.36 L 1086.42 43.50 L 1081.03 38.48 L 1075.06 41.37 L 1068.51 43.85 L 1061.96 45.36 L 1055.42 47.56 L 1048.87 42.54 L 1042.32 44.34 L 1035.77 39.29 L 1029.23 41.33 L 1022.68 42.62 L 1016.13 43.07 Z" fill="#d0d0d0" fill-opacity="0.5" stroke="none"/>
<path d="M 1129.56 30.80 L 1134.95 30.80 L 1140.34 30.80 L 1140.34 31.69 L 1134.95 31.55 L 1129.56 32.08 Z" fill="#d0d0d0" fill-opacity="0.5" stroke="none"/>
<path d="M 1151.13 28.88 L 1151.13 30.89 Z" fill="#d0d0d0" fill-opacity="0.5" stroke="none"/>
<polyline fill="none" stroke="#111" stroke-width="1.2" points="75.09,152.76 85.28,150.53 95.46,148.30 105.65,146.98 115.83,147.23 126.02,146.10 136.20,144.60 146.39,142.47 156.57,140.18 170.83,138.46 189.17,136.16 207.50,140.35 225.83,138.26 244.17,136.64 260.97,134.32 276.25,132.10 291.53,130.33 306.81,131.11 322.08,129.37 337.36,127.71 352.64,126.31 367.92,124.99 383.19,123.61 398.47,127.91 413.75,126.03 429.03,130.32 437.60,134.56 439.47,138.76 441.34,137.01 443.21,134.96 445.09,132.87 446.96,130.88 448.83,128.75 450.70,126.42 452.57,124.05 454.44,121.68 456.31,120.80 458.18,118.56 460.05,117.81 461.92,115.55 463.79,113.79 465.66,112.37 467.53,110.59 469.40,108.77 471.28,113.22 473.15,112.03 475.02,110.82 476.89,108.77 478.76,106.84 480.63,104.78 482.50,109.27 484.37,106.94 486.24,106.24 488.11,104.91 489.98,109.40 491.85,107.05 493.72,106.20 495.60,108.01 497.47,112.49 499.34,103.61 501.21,110.63 503.08,110.46 504.95,108.96 506.82,106.82 508.69,105.25 510.56,103.29 512.43,101.98 514.30,101.66 516.17,100.28 518.04,100.30 519.91,98.01 521.79,95.79 523.66,94.35 525.53,93.06 527.40,90.81 531.03,89.34 536.42,86.83 541.81,84.84 547.21,83.05 552.60,80.71 557.99,78.99 563.38,83.71 568.77,81.59 574.17,80.21 579.56,79.85 584.95,81.25 590.34,82.22 595.74,80.10 601.13,77.98 606.52,75.38 611.91,73.83 617.30,71.23 625.09,68.61 635.28,66.91 645.46,65.96 655.65,64.78 665.83,64.74 676.02,63.98 686.20,61.84 696.39,59.97 706.57,60.86 719.31,65.73 734.58,70.53 749.86,72.30 765.14,70.75 780.42,69.05 795.69,66.67 812.50,68.22 830.83,68.68 849.17,67.72 867.50,66.23 885.83,65.27 897.86,63.18 903.59,62.08 909.32,59.40 915.05,64.28 920.78,61.67 926.51,58.98 932.24,60.25 937.97,57.55 943.70,57.39 949.43,55.45 955.16,53.75 960.89,51.70 966.61,50.88 972.34,50.00 978.07,47.76 983.80,46.89 989.94,44.12 996.49,43.16 1003.04,40.25 1009.58,38.02 1016.13,43.07 1022.68,42.62 1029.23,41.33 1035.77,39.29 1042.32,44.34 1048.87,42.54 1055.42,47.56 1061.96,45.36 1068.51,43.85 1075.06,41.37 1081.03,38.48 1086.42,43.50 1091.81,41.36 1097.21,39.21 1102.60,37.83 1107.99,35.88 1113.38,35.67 1118.77,33.15 1124.17,30.80 1129.56,32.08 1134.95,31.55 1140.34,31.69 1145.74,28.88 1151.13,30.89 1156.52,28.50 1161.91,27.03 1167.30,25.00"/>
<text x="620.0" y="588" text-anchor="middle" font-family="sans-serif" font-size="12" fill="#333">Monthly Balance Curve</text>
<text x="15" y="287.5" transform="rotate(-90 15,287.5)" text-anchor="middle" font-family="sans-serif" font-size="12" fill="#333">Capital</text>
</svg>