<svg xmlns="http://www.w3.org/2000/svg" width="1200" height="600" viewBox="0 0 1200 600">
<desc>Equity curve with drawdown fill; x-axis is months only (no exact timestamps)</desc>
<text x="600.0" y="18.0" text-anchor="middle" font-family="sans-serif" font-size="14">Balance Curve 2009 (UTC)</text>
<rect x="70" y="25" width="1100" height="525" fill="white" stroke="#ccc" />
<line x1="70" y1="550.00" x2="1170" y2="550.00" stroke="#eee"/>
<text x="62" y="554.0" text-anchor="end" font-family="sans-serif" font-size="11" fill="#555">0.00</text>
<line x1="70" y1="445.00" x2="1170" y2="445.00" stroke="#eee"/>
<text x="62" y="449.0" text-anchor="end" font-family="sans-serif" font-size="11" fill="#555">27576</text>
<line x1="70" y1="340.00" x2="1170" y2="340.00" stroke="#eee"/>
<text x="62" y="344.0" text-anchor="end" font-family="sans-serif" font-size="11" fill="#555">55152</text>
<line x1="70" y1="235.00" x2="1170" y2="235.00" stroke="#eee"/>
<text x="62" y="239.0" text-anchor="end" font-family="sans-serif" font-size="11" fill="#555">82728</text>
<line x1="70" y1="130.00" x2="1170" y2="130.00" stroke="#eee"/>
<text x="62" y="134.0" text-anchor="end" font-family="sans-serif" font-size="11" fill="#555">110304</text>
<line x1="70" y1="25.00" x2="1170" y2="25.00" stroke="#eee"/>
<text x="62" y="29.0" text-anchor="end" font-family="sans-serif" font-size="11" fill="#555">137880</text>
<line x1="161.67" y1="25" x2="161.67" y2="550" stroke="#f2f2f2"/>
<line x1="253.33" y1="25" x2="253.33" y2="550" stroke="#f2f2f2"/>
<line x1="345.00" y1="25" x2="345.00" y2="550" stroke="#f2f2f2"/>
<line x1="436.67" y1="25" x2="436.67" y2="550" stroke="#f2f2f2"/>
<line x1="528.33" y1="25" x2="528.33" y2="550" stroke="#f2f2f2"/>
<line x1="620.00" y1="25" x2="620.00" y2="550" stroke="#f2f2f2"/>
<line x1="711.67" y1="25" x2="711.67" y2="550" stroke="#f2f2f2"/>
<line x1="803.33" y1="25" x2="803.33" y2="550" stroke="#f2f2f2"/>
<line x1="895.00" y1="25" x2="895.00" y2="550" stroke="#f2f2f2"/>
<line x1="986.67" y1="25" x2="986.67" y2="550" stroke="#f2f2f2"/>
<line x1="1078.33" y1="25" x2="1078.33" y2="550" stroke="#f2f2f2"/>
<text x="115.83" y="566.00" text-anchor="middle" font-family="sans-serif" font-size="11" fill="#444">Jan</text>
<text x="207.50" y="566.00" text-anchor="middle" font-family="sans-serif" font-size="11" fill="#444">Feb</text>
<text x="299.17" y="566.00" text-anchor="middle" font-family="sans-serif" font-size="11" fill="#444">Mar</text>
<text x="390.83" y="566.00" text-anchor="middle" font-family="sans-serif" font-size="11" fill="#444">Apr</text>
<text x="482.50" y="566.00" text-anchor="middle" font-family="sans-serif" font-size="11" fill="#444">May</text>
<text x="574.17" y="566.00" text-anchor="middle" font-family="sans-serif" font-size="11" fill="#444">Jun</text>
<text x="665.83" y="566.00" text-anchor="middle" font-family="sans-serif" font-size="11" fill="#444">Jul</text>
<text x="757.50" y="566.00" text-anchor="middle" font-family="sans-serif" font-size="11" fill="#444">Aug</text>
<text x="849.17" y="566.00" text-anchor="middle" font-family="sans-serif" font-size="11" fill="#444">Sep</text>
<text x="940.83" y="566.00" text-anchor="middle" font-family="sans-serif" font-size="11" fill="#444">Oct</text>
<text x="1032.50" y="566.00" text-anchor="middle" font-family="sans-serif" font-size="11" fill="#444">Nov</text>
<text x="1124.17" y="566.00" text-anchor="middle" font-family="sans-serif" font-size="11" fill="#444">Dec</text>
<line x1="70" y1="550" x2="1170" y2="550" stroke="#888"/>
<line x1="70" y1="25" x2="70" y2="550" stroke="#888"/>
<line x1="70.72" y1="550.00" x2="70.72" y2="556.00" stroke="#888"/>
<line x1="1164.27"   y1="550.00" x2="1164.27"   y2="556.00" stroke="#888"/>
<text x="70.72" y="582.00" text-anchor="start" font-family="sans-serif" font-size="11" fill="#333">Initial Balance: 115064</text>
<text x="1164.27"   y="582.00" text-anchor="end"   font-family="sans-serif" font-size="11" fill="#333">Ending Balance: 136534</text>
<path d="M 77.88 106.03 L 79.31 106.03 L 80.74 106.03 L 82.17 106.03 L 83.61 106.03 L 85.04 106.03 L 86.47 106.03 L 87.90 106.03 L 89.34 106.03 L 90.77 106.03 L 92.20 106.03 L 93.63 106.03 L 95.07 106.03 L 95.07 106.28 L 93.63 107.72 L 92.20 109.51 L 90.77 111.91 L 89.34 114.03 L 87.90 114.68 L 86.47 110.21 L 85.04 112.33 L 83.61 114.66 L 82.17 117.01 L 80.74 119.37 L 79.31 114.96 L 77.88 110.53 Z" fill="#d0d0d0" fill-opacity="0.5" stroke="none"/>
<path d="M 113.68 83.98 L 115.12 83.98 L 115.12 84.21 L 113.68 84.93 Z" fill="#d0d0d0" fill-opacity="0.5" stroke="none"/>
<path d="M 120.85 76.97 L 122.28 76.97 L 123.71 76.97 L 125.14 76.97 L 126.58 76.97 L 128.01 76.97 L 128.01 78.37 L 126.58 80.90 L 125.14 83.43 L 123.71 84.26 L 122.28 79.49 L 120.85 81.76 Z" fill="#d0d0d0" fill-opacity="0.5" stroke="none"/>
<path d="M 133.74 72.89 L 135.17 72.89 L 136.60 72.89 L 138.03 72.89 L 139.47 72.89 L 140.90 72.89 L 142.33 72.89 L 143.76 72.89 L 145.20 72.89 L 146.63 72.89 L 148.06 72.89 L 149.49 72.89 L 150.92 72.89 L 150.92 74.96 L 149.49 77.53 L 148.06 80.07 L 146.63 81.74 L 145.20 84.28 L 143.76 85.78 L 142.33 81.02 L 140.90 83.48 L 139.47 78.74 L 138.03 80.73 L 136.60 83.16 L 135.17 78.38 L 133.74 77.71 Z" fill="#d0d0d0" fill-opacity="0.5" stroke="none"/>
<path d="M 155.22 71.10 L 156.65 71.10 L 158.09 71.10 L 159.52 71.10 L 160.95 71.10 L 162.98 71.10 L 165.60 71.10 L 168.21 71.10 L 170.83 71.10 L 173.45 71.10 L 173.45 72.85 L 170.83 74.85 L 168.21 77.13 L 165.60 78.40 L 162.98 73.57 L 160.95 75.90 L 159.52 78.44 L 158.09 79.25 L 156.65 80.71 L 155.22 75.94 Z" fill="#d0d0d0" fill-opacity="0.5" stroke="none"/>
<path d="M 181.31 68.56 L 183.93 68.56 L 186.55 68.56 L 189.17 68.56 L 191.79 68.56 L 194.40 68.56 L 197.02 68.56 L 199.64 68.56 L 202.26 68.56 L 204.88 68.56 L 207.50 68.56 L 210.12 68.56 L 210.12 70.56 L 207.50 73.13 L 204.88 73.36 L 202.26 75.71 L 199.64 78.09 L 197.02 79.81 L 194.40 75.02 L 191.79 77.72 L 189.17 72.89 L 186.55 74.48 L 183.93 74.83 L 181.31 69.98 Z" fill="#d0d0d0" fill-opacity="0.5" stroke="none"/>
<path d="M 231.07 58.08 L 233.69 58.08 L 236.31 58.08 L 238.93 58.08 L 241.55 58.08 L 244.17 58.08 L 246.79 58.08 L 249.40 58.08 L 252.02 58.08 L 254.64 58.08 L 257.26 58.08 L 259.88 58.08 L 262.50 58.08 L 265.12 58.08 L 267.74 58.08 L 270.36 58.08 L 272.98 58.08 L 275.60 58.08 L 278.21 58.08 L 280.83 58.08 L 283.45 58.08 L 286.07 58.08 L 288.69 58.08 L 291.31 58.08 L 293.93 58.08 L 296.55 58.08 L 299.17 58.08 L 301.79 58.08 L 304.40 58.08 L 307.02 58.08 L 309.64 58.08 L 312.26 58.08 L 314.88 58.08 L 317.50 58.08 L 320.12 58.08 L 322.74 58.08 L 325.36 58.08 L 327.98 58.08 L 330.60 58.08 L 333.21 58.08 L 335.83 58.08 L 338.45 58.08 L 341.07 58.08 L 343.69 58.08 L 347.29 58.08 L 351.88 58.08 L 356.46 58.08 L 361.04 58.08 L 365.62 58.08 L 370.21 58.08 L 374.79 58.08 L 379.38 58.08 L 383.96 58.08 L 388.54 58.08 L 393.12 58.08 L 397.71 58.08 L 402.29 58.08 L 406.88 58.08 L 411.46 58.08 L 416.04 58.08 L 420.62 58.08 L 425.21 58.08 L 429.79 58.08 L 434.38 58.08 L 440.19 58.08 L 447.24 58.08 L 454.29 58.08 L 461.35 58.08 L 468.40 58.08 L 475.45 58.08 L 482.50 58.08 L 489.55 58.08 L 496.60 58.08 L 503.65 58.08 L 510.71 58.08 L 517.76 58.08 L 524.81 58.08 L 531.61 58.08 L 538.15 58.08 L 544.70 58.08 L 551.25 58.08 L 557.80 58.08 L 564.35 58.08 L 570.89 58.08 L 577.44 58.08 L 583.99 58.08 L 590.54 58.08 L 597.08 58.08 L 603.63 58.08 L 610.18 58.08 L 616.73 58.08 L 625.09 58.08 L 635.28 58.08 L 645.46 58.08 L 655.65 58.08 L 655.65 58.77 L 645.46 61.43 L 635.28 61.89 L 625.09 63.26 L 616.73 65.91 L 610.18 65.74 L 603.63 68.38 L 597.08 69.45 L 590.54 70.06 L 583.99 71.30 L 577.44 73.65 L 570.89 76.04 L 564.35 71.19 L 557.80 73.33 L 551.25 68.46 L 544.70 71.09 L 538.15 72.46 L 531.61 74.13 L 524.81 69.27 L 517.76 64.37 L 510.71 64.43 L 503.65 59.47 L 496.60 61.13 L 489.55 62.45 L 482.50 65.09 L 475.45 67.72 L 468.40 70.03 L 461.35 72.63 L 454.29 75.21 L 447.24 77.78 L 440.19 79.40 L 434.38 81.61 L 429.79 84.14 L 425.21 79.37 L 420.62 78.14 L 416.04 79.70 L 411.46 80.62 L 406.88 82.60 L 402.29 84.28 L 397.71 79.51 L 393.12 82.05 L 388.54 80.54 L 383.96 82.57 L 379.38 84.31 L 374.79 79.54 L 370.21 80.12 L 365.62 82.67 L 361.04 84.48 L 356.46 85.08 L 351.88 87.01 L 347.29 89.25 L 343.69 91.75 L 341.07 93.12 L 338.45 95.35 L 335.83 97.24 L 333.21 92.62 L 330.60 87.94 L 327.98 89.90 L 325.36 91.12 L 322.74 93.46 L 320.12 88.77 L 317.50 89.07 L 314.88 90.35 L 312.26 90.95 L 309.64 86.25 L 307.02 88.57 L 304.40 90.25 L 301.79 85.58 L 299.17 80.83 L 296.55 83.26 L 293.93 78.48 L 291.31 80.62 L 288.69 82.87 L 286.07 83.40 L 283.45 84.13 L 280.83 85.96 L 278.21 87.89 L 275.60 88.35 L 272.98 83.62 L 270.36 85.43 L 267.74 84.53 L 265.12 79.76 L 262.50 81.12 L 259.88 82.77 L 257.26 77.98 L 254.64 79.42 L 252.02 81.41 L 249.40 76.61 L 246.79 71.77 L 244.17 73.51 L 241.55 75.07 L 238.93 77.63 L 236.31 72.83 L 233.69 67.96 L 231.07 63.03 Z" fill="#d0d0d0" fill-opacity="0.5" stroke="none"/>
<path d="M 696.39 54.46 L 706.57 54.46 L 726.94 54.46 L 757.50 54.46 L 757.50 55.11 L 726.94 57.80 L 706.57 59.49 L 696.39 59.46 Z" fill="#d0d0d0" fill-opacity="0.5" stroke="none"/>
<path d="M 809.06 54.08 L 820.52 54.08 L 831.98 54.08 L 843.44 54.08 L 843.44 54.36 L 831.98 54.89 L 820.52 57.58 L 809.06 59.08 Z" fill="#d0d0d0" fill-opacity="0.5" stroke="none"/>
<path d="M 877.81 49.26 L 889.27 49.26 L 901.55 49.26 L 914.64 49.26 L 914.64 50.87 L 901.55 53.20 L 889.27 52.62 L 877.81 54.28 Z" fill="#d0d0d0" fill-opacity="0.5" stroke="none"/>
<path d="M 1055.42 33.20 L 1070.69 33.20 L 1084.06 33.20 L 1095.52 33.20 L 1095.52 33.30 L 1084.06 34.73 L 1070.69 37.32 L 1055.42 38.39 Z" fill="#d0d0d0" fill-opacity="0.5" stroke="none"/>
<path d="M 1152.81 25.00 L 1164.27 25.00 L 1164.27 30.13 L 1152.81 30.26 Z" fill="#d0d0d0" fill-opacity="0.5" stroke="none"/>
<polyline fill="none" stroke="#111" stroke-width="1.2" points="70.72,111.88 72.15,111.66 73.58,110.65 75.01,108.44 76.45,106.03 77.88,110.53 79.31,114.96 80.74,119.37 82.17,117.01 83.61,114.66 85.04,112.33 86.47,110.21 87.90,114.68 89.34,114.03 90.77,111.91 92.20,109.51 93.63,107.72 95.07,106.28 96.50,103.72 97.93,103.61 99.36,101.17 100.79,98.71 102.23,96.59 103.66,95.02 105.09,93.09 106.52,90.84 107.96,88.52 109.39,86.39 110.82,84.20 112.25,83.98 113.68,84.93 115.12,84.21 116.55,81.84 117.98,79.53 119.41,76.97 120.85,81.76 122.28,79.49 123.71,84.26 125.14,83.43 126.58,80.90 128.01,78.37 129.44,76.72 130.87,74.39 132.30,72.89 133.74,77.71 135.17,78.38 136.60,83.16 138.03,80.73 139.47,78.74 140.90,83.48 142.33,81.02 143.76,85.78 145.20,84.28 146.63,81.74 148.06,80.07 149.49,77.53 150.92,74.96 152.36,72.39 153.79,71.10 155.22,75.94 156.65,80.71 158.09,79.25 159.52,78.44 160.95,75.90 162.98,73.57 165.60,78.40 168.21,77.13 170.83,74.85 173.45,72.85 176.07,70.78 178.69,68.56 181.31,69.98 183.93,74.83 186.55,74.48 189.17,72.89 191.79,77.72 194.40,75.02 197.02,79.81 199.64,78.09 202.26,75.71 204.88,73.36 207.50,73.13 210.12,70.56 212.74,67.98 215.36,67.52 217.98,65.12 220.60,64.46 223.21,62.94 225.83,60.86 228.45,58.08 231.07,63.03 233.69,67.96 236.31,72.83 238.93,77.63 241.55,75.07 244.17,73.51 246.79,71.77 249.40,76.61 252.02,81.41 254.64,79.42 257.26,77.98 259.88,82.77 262.50,81.12 265.12,79.76 267.74,84.53 270.36,85.43 272.98,83.62 275.60,88.35 278.21,87.89 280.83,85.96 283.45,84.13 286.07,83.40 288.69,82.87 291.31,80.62 293.93,78.48 296.55,83.26 299.17,80.83 301.79,85.58 304.40,90.25 307.02,88.57 309.64,86.25 312.26,90.95 314.88,90.35 317.50,89.07 320.12,88.77 322.74,93.46 325.36,91.12 327.98,89.90 330.60,87.94 333.21,92.62 335.83,97.24 338.45,95.35 341.07,93.12 343.69,91.75 347.29,89.25 351.88,87.01 356.46,85.08 361.04,84.48 365.62,82.67 370.21,80.12 374.79,79.54 379.38,84.31 383.96,82.57 388.54,80.54 393.12,82.05 397.71,79.51 402.29,84.28 406.88,82.60 411.46,80.62 416.04,79.70 420.62,78.14 425.21,79.37 429.79,84.14 434.38,81.61 440.19,79.40 447.24,77.78 454.29,75.21 461.35,72.63 468.40,70.03 475.45,67.72 482.50,65.09 489.55,62.45 496.60,61.13 503.65,59.47 510.71,64.43 517.76,64.37 524.81,69.27 531.61,74.13 538.15,72.46 544.70,71.09 551.25,68.46 557.80,73.33 564.35,71.19 570.89,76.04 577.44,73.65 583.99,71.30 590.54,70.06 597.08,69.45 603.63,68.38 610.18,65.74 616.73,65.91 625.09,63.26 635.28,61.89 645.46,61.43 655.65,58.77 665.83,57.21 676.02,54.78 686.20,54.46 696.39,59.46 706.57,59.49 726.94,57.80 757.50,55.11 788.06,54.08 809.06,59.08 820.52,57.58 831.98,54.89 843.44,54.36 854.90,52.12 866.35,49.26 877.81,54.28 889.27,52.62 901.55,53.20 914.64,50.87 927.74,48.61 940.83,47.11 953.93,45.80 967.02,43.62 980.12,41.46 994.31,39.94 1009.58,37.15 1024.86,35.21 1040.14,33.20 1055.42,38.39 1070.69,37.32 1084.06,34.73 1095.52,33.30 1106.98,31.07 1118.44,29.02 1129.90,26.45 1141.35,25.00 1152.81,30.26 1164.27,30.13"/>
<text x="15" y="287.5" transform="rotate(-90 15,287.5)" text-anchor="middle" font-family="sans-serif" font-size="12" fill="#333">USD</text>
</svg>