<svg xmlns="http://www.w3.org/2000/svg" width="1200" height="600" viewBox="0 0 1200 600">
<desc>Equity curve with drawdown fill; x-axis is months only (no exact timestamps)</desc>
<text x="600.0" y="18.0" text-anchor="middle" font-family="sans-serif" font-size="14">Portfolio 2025 (UTC)</text>
<rect x="70" y="25" width="1100" height="525" fill="white" stroke="#ccc" />
<line x1="70" y1="550.00" x2="1170" y2="550.00" stroke="#eee"/>
<text x="62" y="554.0" text-anchor="end" font-family="sans-serif" font-size="11" fill="#555">0.00</text>
<line x1="70" y1="445.00" x2="1170" y2="445.00" stroke="#eee"/>
<text x="62" y="449.0" text-anchor="end" font-family="sans-serif" font-size="11" fill="#555">94358</text>
<line x1="70" y1="340.00" x2="1170" y2="340.00" stroke="#eee"/>
<text x="62" y="344.0" text-anchor="end" font-family="sans-serif" font-size="11" fill="#555">188716</text>
<line x1="70" y1="235.00" x2="1170" y2="235.00" stroke="#eee"/>
<text x="62" y="239.0" text-anchor="end" font-family="sans-serif" font-size="11" fill="#555">283074</text>
<line x1="70" y1="130.00" x2="1170" y2="130.00" stroke="#eee"/>
<text x="62" y="134.0" text-anchor="end" font-family="sans-serif" font-size="11" fill="#555">377433</text>
<line x1="70" y1="25.00" x2="1170" y2="25.00" stroke="#eee"/>
<text x="62" y="29.0" text-anchor="end" font-family="sans-serif" font-size="11" fill="#555">471791</text>
<line x1="207.50" y1="25" x2="207.50" y2="550" stroke="#f2f2f2"/>
<line x1="345.00" y1="25" x2="345.00" y2="550" stroke="#f2f2f2"/>
<line x1="482.50" y1="25" x2="482.50" y2="550" stroke="#f2f2f2"/>
<line x1="620.00" y1="25" x2="620.00" y2="550" stroke="#f2f2f2"/>
<line x1="757.50" y1="25" x2="757.50" y2="550" stroke="#f2f2f2"/>
<line x1="895.00" y1="25" x2="895.00" y2="550" stroke="#f2f2f2"/>
<line x1="1032.50" y1="25" x2="1032.50" y2="550" stroke="#f2f2f2"/>
<text x="138.75" y="566.00" text-anchor="middle" font-family="sans-serif" font-size="11" fill="#444">Jan</text>
<text x="276.25" y="566.00" text-anchor="middle" font-family="sans-serif" font-size="11" fill="#444">Feb</text>
<text x="413.75" y="566.00" text-anchor="middle" font-family="sans-serif" font-size="11" fill="#444">Mar</text>
<text x="551.25" y="566.00" text-anchor="middle" font-family="sans-serif" font-size="11" fill="#444">Apr</text>
<text x="688.75" y="566.00" text-anchor="middle" font-family="sans-serif" font-size="11" fill="#444">May</text>
<text x="826.25" y="566.00" text-anchor="middle" font-family="sans-serif" font-size="11" fill="#444">Jun</text>
<text x="963.75" y="566.00" text-anchor="middle" font-family="sans-serif" font-size="11" fill="#444">Jul</text>
<text x="1101.25" y="566.00" text-anchor="middle" font-family="sans-serif" font-size="11" fill="#444">Aug</text>
<line x1="70" y1="550" x2="1170" y2="550" stroke="#888"/>
<line x1="70" y1="25" x2="70" y2="550" stroke="#888"/>
<line x1="75.73" y1="550.00" x2="75.73" y2="556.00" stroke="#888"/>
<line x1="1135.62"   y1="550.00" x2="1135.62"   y2="556.00" stroke="#888"/>
<text x="75.73" y="582.00" text-anchor="start" font-family="sans-serif" font-size="11" fill="#333">Initial Balance: 446075</text>
<text x="1135.62"   y="582.00" text-anchor="end"   font-family="sans-serif" font-size="11" fill="#333">Ending Balance: 463669</text>
<path d="M 98.65 51.93 L 110.10 51.93 L 121.56 51.93 L 133.02 51.93 L 133.02 53.76 L 121.56 54.97 L 110.10 57.16 L 98.65 56.97 Z" fill="#d0d0d0" fill-opacity="0.5" stroke="none"/>
<path d="M 356.46 32.12 L 379.38 32.12 L 402.29 32.12 L 402.29 32.54 L 379.38 34.81 L 356.46 37.36 Z" fill="#d0d0d0" fill-opacity="0.5" stroke="none"/>
<path d="M 485.94 27.00 L 492.81 27.00 L 499.69 27.00 L 506.56 27.00 L 513.44 27.00 L 520.31 27.00 L 527.19 27.00 L 534.06 27.00 L 540.94 27.00 L 547.81 27.00 L 547.81 29.59 L 540.94 31.52 L 534.06 31.78 L 527.19 33.45 L 520.31 34.35 L 513.44 32.47 L 506.56 27.26 L 499.69 30.34 L 492.81 30.51 L 485.94 32.28 Z" fill="#d0d0d0" fill-opacity="0.5" stroke="none"/>
<path d="M 568.44 25.00 L 575.31 25.00 L 582.19 25.00 L 589.06 25.00 L 595.94 25.00 L 602.81 25.00 L 609.69 25.00 L 616.56 25.00 L 633.75 25.00 L 661.25 25.00 L 688.75 25.00 L 716.25 25.00 L 743.75 25.00 L 780.42 25.00 L 826.25 25.00 L 872.08 25.00 L 908.75 25.00 L 936.25 25.00 L 963.75 25.00 L 991.25 25.00 L 1018.75 25.00 L 1066.88 25.00 L 1135.62 25.00 L 1135.62 34.04 L 1066.88 36.26 L 1018.75 38.64 L 991.25 33.42 L 963.75 35.71 L 936.25 38.08 L 908.75 32.90 L 872.08 35.89 L 826.25 38.51 L 780.42 40.77 L 743.75 43.33 L 716.25 38.16 L 688.75 40.65 L 661.25 35.44 L 633.75 38.11 L 616.56 32.88 L 609.69 33.65 L 602.81 28.38 L 595.94 29.80 L 589.06 32.45 L 582.19 32.42 L 575.31 27.22 L 568.44 30.30 Z" fill="#d0d0d0" fill-opacity="0.5" stroke="none"/>
<polyline fill="none" stroke="#111" stroke-width="1.2" points="75.73,53.62 87.19,51.93 98.65,56.97 110.10,57.16 121.56,54.97 133.02,53.76 144.48,51.02 155.94,48.66 167.40,45.90 178.85,43.12 190.31,42.08 201.77,39.56 230.42,37.49 276.25,34.95 322.08,32.12 356.46,37.36 379.38,34.81 402.29,32.54 425.21,30.48 448.12,28.98 471.04,27.00 485.94,32.28 492.81,30.51 499.69,30.34 506.56,27.26 513.44,32.47 520.31,34.35 527.19,33.45 534.06,31.78 540.94,31.52 547.81,29.59 554.69,26.54 561.56,25.00 568.44,30.30 575.31,27.22 582.19,32.42 589.06,32.45 595.94,29.80 602.81,28.38 609.69,33.65 616.56,32.88 633.75,38.11 661.25,35.44 688.75,40.65 716.25,38.16 743.75,43.33 780.42,40.77 826.25,38.51 872.08,35.89 908.75,32.90 936.25,38.08 963.75,35.71 991.25,33.42 1018.75,38.64 1066.88,36.26 1135.62,34.04"/>
<text x="620.0" y="588" text-anchor="middle" font-family="sans-serif" font-size="12" fill="#333">Monthly Balance Curve</text>
<text x="15" y="287.5" transform="rotate(-90 15,287.5)" text-anchor="middle" font-family="sans-serif" font-size="12" fill="#333">Capital</text>
</svg>