<svg xmlns="http://www.w3.org/2000/svg" width="1200" height="600" viewBox="0 0 1200 600">
<desc>Equity curve with drawdown fill</desc>
<text x="600.0" y="18.0" text-anchor="middle" font-family="sans-serif" font-size="14">Portfolio 2025</text>
<rect x="70" y="25" width="1100" height="525" fill="white" stroke="#ccc" />
<line x1="70" y1="550.00" x2="1170" y2="550.00" stroke="#eee"/>
<text x="62" y="554.0" text-anchor="end" font-family="sans-serif" font-size="11" fill="#555">0.00</text>
<line x1="70" y1="445.00" x2="1170" y2="445.00" stroke="#eee"/>
<text x="62" y="449.0" text-anchor="end" font-family="sans-serif" font-size="11" fill="#555">22667</text>
<line x1="70" y1="340.00" x2="1170" y2="340.00" stroke="#eee"/>
<text x="62" y="344.0" text-anchor="end" font-family="sans-serif" font-size="11" fill="#555">45334</text>
<line x1="70" y1="235.00" x2="1170" y2="235.00" stroke="#eee"/>
<text x="62" y="239.0" text-anchor="end" font-family="sans-serif" font-size="11" fill="#555">68001</text>
<line x1="70" y1="130.00" x2="1170" y2="130.00" stroke="#eee"/>
<text x="62" y="134.0" text-anchor="end" font-family="sans-serif" font-size="11" fill="#555">90668</text>
<line x1="70" y1="25.00" x2="1170" y2="25.00" stroke="#eee"/>
<text x="62" y="29.0" text-anchor="end" font-family="sans-serif" font-size="11" fill="#555">113335</text>
<line x1="258.67" y1="25" x2="258.67" y2="550" stroke="#f2f2f2"/>
<text x="258.67" y="566" text-anchor="middle" font-family="sans-serif" font-size="11" fill="#555">Feb</text>
<line x1="437.51" y1="25" x2="437.51" y2="550" stroke="#f2f2f2"/>
<text x="437.51" y="566" text-anchor="middle" font-family="sans-serif" font-size="11" fill="#555">Mar</text>
<line x1="635.52" y1="25" x2="635.52" y2="550" stroke="#f2f2f2"/>
<text x="635.52" y="566" text-anchor="middle" font-family="sans-serif" font-size="11" fill="#555">Apr</text>
<line x1="827.13" y1="25" x2="827.13" y2="550" stroke="#f2f2f2"/>
<text x="827.13" y="566" text-anchor="middle" font-family="sans-serif" font-size="11" fill="#555">May</text>
<line x1="1025.14" y1="25" x2="1025.14" y2="550" stroke="#f2f2f2"/>
<text x="1025.14" y="566" text-anchor="middle" font-family="sans-serif" font-size="11" fill="#555">Jun</text>
<line x1="70" y1="550" x2="1170" y2="550" stroke="#888"/>
<line x1="70" y1="25" x2="70" y2="550" stroke="#888"/>
<path d="M 71.32 84.36 L 95.06 84.36 L 95.62 84.36 L 95.84 84.36 L 96.20 84.36 L 96.40 84.36 L 108.50 84.36 L 108.50 84.44 L 96.40 87.58 L 96.20 91.44 L 95.84 94.80 L 95.62 94.98 L 95.06 87.97 L 71.32 91.42 Z" fill="#d0d0d0" fill-opacity="0.5" stroke="none"/>
<path d="M 185.93 56.02 L 186.12 56.02 L 186.66 56.02 L 188.66 56.02 L 210.12 56.02 L 233.16 56.02 L 249.67 56.02 L 256.98 56.02 L 256.98 59.15 L 249.67 60.70 L 233.16 63.54 L 210.12 63.56 L 188.66 66.34 L 186.66 58.91 L 186.12 63.00 L 185.93 63.50 Z" fill="#d0d0d0" fill-opacity="0.5" stroke="none"/>
<path d="M 271.38 55.45 L 271.38 56.21 Z" fill="#d0d0d0" fill-opacity="0.5" stroke="none"/>
<path d="M 275.62 48.26 L 279.28 48.26 L 301.22 48.26 L 301.22 48.62 L 279.28 52.80 L 275.62 55.85 Z" fill="#d0d0d0" fill-opacity="0.5" stroke="none"/>
<path d="M 333.70 40.60 L 339.42 40.60 L 339.42 44.70 L 333.70 48.31 Z" fill="#d0d0d0" fill-opacity="0.5" stroke="none"/>
<path d="M 428.83 40.49 L 462.00 40.49 L 465.34 40.49 L 466.97 40.49 L 472.98 40.49 L 474.47 40.49 L 503.51 40.49 L 523.51 40.49 L 554.58 40.49 L 554.58 42.88 L 523.51 45.80 L 503.51 48.02 L 474.47 51.06 L 472.98 54.38 L 466.97 58.53 L 465.34 50.97 L 462.00 52.55 L 428.83 44.91 Z" fill="#d0d0d0" fill-opacity="0.5" stroke="none"/>
<path d="M 1054.70 39.48 L 1054.70 39.49 Z" fill="#d0d0d0" fill-opacity="0.5" stroke="none"/>
<path d="M 1170.00 25.00 L 1170.00 32.91 Z" fill="#d0d0d0" fill-opacity="0.5" stroke="none"/>
<polyline fill="none" stroke="#111" stroke-width="1.2" points="70.00,84.36 71.32,91.42 95.06,87.97 95.62,94.98 95.84,94.80 96.20,91.44 96.40,87.58 108.50,84.44 121.74,80.52 121.84,77.40 122.16,73.87 139.83,69.87 153.68,65.83 154.61,64.01 185.62,59.92 185.67,56.02 185.93,63.50 186.12,63.00 186.66,58.91 188.66,66.34 210.12,63.56 233.16,63.54 249.67,60.70 256.98,59.15 257.25,55.45 271.38,56.21 271.46,52.10 271.56,48.26 275.62,55.85 279.28,52.80 301.22,48.62 301.61,44.84 332.52,40.60 333.70,48.31 339.42,44.70 340.30,40.49 428.83,44.91 462.00,52.55 465.34,50.97 466.97,58.53 472.98,54.38 474.47,51.06 503.51,48.02 523.51,45.80 554.58,42.88 1033.92,39.48 1054.70,39.49 1092.66,35.58 1098.33,32.11 1102.26,28.11 1131.55,25.00 1170.00,32.91"/>
<text x="620.0" y="588" text-anchor="middle" font-family="sans-serif" font-size="12" fill="#333">UTC time</text>
<text x="15" y="287.5" transform="rotate(-90 15,287.5)" text-anchor="middle" font-family="sans-serif" font-size="12" fill="#333">Capital</text>
</svg>