<svg xmlns="http://www.w3.org/2000/svg" width="1200" height="600" viewBox="0 0 1200 600">
<desc>Equity curve with drawdown fill</desc>
<text x="600.0" y="18.0" text-anchor="middle" font-family="sans-serif" font-size="14">Portfolio 2011</text>
<rect x="70" y="25" width="1100" height="525" fill="white" stroke="#ccc" />
<line x1="70" y1="550.00" x2="1170" y2="550.00" stroke="#eee"/>
<text x="62" y="554.0" text-anchor="end" font-family="sans-serif" font-size="11" fill="#555">0.00</text>
<line x1="70" y1="445.00" x2="1170" y2="445.00" stroke="#eee"/>
<text x="62" y="449.0" text-anchor="end" font-family="sans-serif" font-size="11" fill="#555">22662</text>
<line x1="70" y1="340.00" x2="1170" y2="340.00" stroke="#eee"/>
<text x="62" y="344.0" text-anchor="end" font-family="sans-serif" font-size="11" fill="#555">45324</text>
<line x1="70" y1="235.00" x2="1170" y2="235.00" stroke="#eee"/>
<text x="62" y="239.0" text-anchor="end" font-family="sans-serif" font-size="11" fill="#555">67987</text>
<line x1="70" y1="130.00" x2="1170" y2="130.00" stroke="#eee"/>
<text x="62" y="134.0" text-anchor="end" font-family="sans-serif" font-size="11" fill="#555">90649</text>
<line x1="70" y1="25.00" x2="1170" y2="25.00" stroke="#eee"/>
<text x="62" y="29.0" text-anchor="end" font-family="sans-serif" font-size="11" fill="#555">113311</text>
<line x1="156.74" y1="25" x2="156.74" y2="550" stroke="#f2f2f2"/>
<text x="156.74" y="566" text-anchor="middle" font-family="sans-serif" font-size="11" fill="#555">Feb</text>
<line x1="242.53" y1="25" x2="242.53" y2="550" stroke="#f2f2f2"/>
<text x="242.53" y="566" text-anchor="middle" font-family="sans-serif" font-size="11" fill="#555">Mar</text>
<line x1="337.50" y1="25" x2="337.50" y2="550" stroke="#f2f2f2"/>
<text x="337.50" y="566" text-anchor="middle" font-family="sans-serif" font-size="11" fill="#555">Apr</text>
<line x1="429.42" y1="25" x2="429.42" y2="550" stroke="#f2f2f2"/>
<text x="429.42" y="566" text-anchor="middle" font-family="sans-serif" font-size="11" fill="#555">May</text>
<line x1="524.39" y1="25" x2="524.39" y2="550" stroke="#f2f2f2"/>
<text x="524.39" y="566" text-anchor="middle" font-family="sans-serif" font-size="11" fill="#555">Jun</text>
<line x1="616.31" y1="25" x2="616.31" y2="550" stroke="#f2f2f2"/>
<text x="616.31" y="566" text-anchor="middle" font-family="sans-serif" font-size="11" fill="#555">Jul</text>
<line x1="711.28" y1="25" x2="711.28" y2="550" stroke="#f2f2f2"/>
<text x="711.28" y="566" text-anchor="middle" font-family="sans-serif" font-size="11" fill="#555">Aug</text>
<line x1="806.26" y1="25" x2="806.26" y2="550" stroke="#f2f2f2"/>
<text x="806.26" y="566" text-anchor="middle" font-family="sans-serif" font-size="11" fill="#555">Sep</text>
<line x1="898.17" y1="25" x2="898.17" y2="550" stroke="#f2f2f2"/>
<text x="898.17" y="566" text-anchor="middle" font-family="sans-serif" font-size="11" fill="#555">Oct</text>
<line x1="993.15" y1="25" x2="993.15" y2="550" stroke="#f2f2f2"/>
<text x="993.15" y="566" text-anchor="middle" font-family="sans-serif" font-size="11" fill="#555">Nov</text>
<line x1="1085.06" y1="25" x2="1085.06" y2="550" stroke="#f2f2f2"/>
<text x="1085.06" y="566" text-anchor="middle" font-family="sans-serif" font-size="11" fill="#555">Dec</text>
<line x1="70" y1="550" x2="1170" y2="550" stroke="#888"/>
<line x1="70" y1="25" x2="70" y2="550" stroke="#888"/>
<path d="M 73.01 81.86 L 79.15 81.86 L 82.27 81.86 L 97.34 81.86 L 100.38 81.86 L 100.44 81.86 L 100.54 81.86 L 100.76 81.86 L 102.66 81.86 L 112.32 81.86 L 115.09 81.86 L 115.74 81.86 L 118.59 81.86 L 121.76 81.86 L 122.03 81.86 L 124.09 81.86 L 134.21 81.86 L 136.61 81.86 L 137.34 81.86 L 142.44 81.86 L 142.77 81.86 L 146.51 81.86 L 167.89 81.86 L 183.20 81.86 L 197.78 81.86 L 204.82 81.86 L 210.63 81.86 L 221.36 81.86 L 222.08 81.86 L 222.50 81.86 L 271.02 81.86 L 274.54 81.86 L 286.11 81.86 L 286.11 83.64 L 274.54 85.51 L 271.02 87.61 L 222.50 91.57 L 222.08 84.51 L 221.36 87.54 L 210.63 88.87 L 204.82 86.41 L 197.78 89.65 L 183.20 87.58 L 167.89 90.69 L 146.51 92.47 L 142.77 85.44 L 142.44 89.41 L 137.34 93.31 L 136.61 94.38 L 134.21 95.68 L 124.09 95.42 L 122.03 98.94 L 121.76 101.42 L 118.59 104.92 L 115.74 108.01 L 115.09 110.80 L 112.32 111.09 L 102.66 114.56 L 100.76 107.88 L 100.54 101.08 L 100.44 102.44 L 100.38 95.68 L 97.34 88.73 L 82.27 92.03 L 79.15 95.92 L 73.01 88.94 Z" fill="#d0d0d0" fill-opacity="0.5" stroke="none"/>
<path d="M 318.42 72.85 L 318.42 73.79 Z" fill="#d0d0d0" fill-opacity="0.5" stroke="none"/>
<path d="M 339.64 67.01 L 359.35 67.01 L 391.62 67.01 L 391.70 67.01 L 397.12 67.01 L 414.37 67.01 L 415.26 67.01 L 417.09 67.01 L 437.70 67.01 L 437.70 69.77 L 417.09 70.67 L 415.26 74.44 L 414.37 77.21 L 397.12 80.05 L 391.70 77.37 L 391.62 78.99 L 359.35 71.76 L 339.64 74.32 Z" fill="#d0d0d0" fill-opacity="0.5" stroke="none"/>
<path d="M 443.44 65.60 L 443.53 65.60 L 443.65 65.60 L 443.70 65.60 L 443.79 65.60 L 443.89 65.60 L 446.47 65.60 L 446.94 65.60 L 447.04 65.60 L 447.19 65.60 L 455.75 65.60 L 458.15 65.60 L 461.94 65.60 L 462.35 65.60 L 462.49 65.60 L 465.28 65.60 L 468.28 65.60 L 468.40 65.60 L 468.52 65.60 L 477.27 65.60 L 480.24 65.60 L 480.90 65.60 L 486.86 65.60 L 489.30 65.60 L 489.61 65.60 L 497.94 65.60 L 506.32 65.60 L 508.00 65.60 L 509.66 65.60 L 510.84 65.60 L 521.43 65.60 L 528.98 65.60 L 529.86 65.60 L 532.55 65.60 L 550.80 65.60 L 553.92 65.60 L 569.50 65.60 L 571.08 65.60 L 571.71 65.60 L 572.31 65.60 L 574.78 65.60 L 584.53 65.60 L 585.75 65.60 L 593.60 65.60 L 604.31 65.60 L 606.13 65.60 L 609.09 65.60 L 611.94 65.60 L 612.13 65.60 L 636.44 65.60 L 636.68 65.60 L 639.48 65.60 L 639.50 65.60 L 639.87 65.60 L 648.62 65.60 L 649.00 65.60 L 650.40 65.60 L 651.13 65.60 L 651.18 65.60 L 651.37 65.60 L 651.72 65.60 L 651.72 67.99 L 651.37 68.56 L 651.18 72.45 L 651.13 75.05 L 650.40 67.74 L 649.00 71.87 L 648.62 74.98 L 639.87 77.28 L 639.50 78.67 L 639.48 82.71 L 636.68 86.72 L 636.44 79.59 L 612.13 83.26 L 611.94 86.54 L 609.09 90.52 L 606.13 83.46 L 604.31 82.48 L 593.60 83.85 L 585.75 84.71 L 584.53 88.70 L 574.78 87.09 L 572.31 87.91 L 571.71 91.18 L 571.08 95.08 L 569.50 98.98 L 553.92 92.04 L 550.80 94.39 L 532.55 97.27 L 529.86 98.91 L 528.98 101.38 L 521.43 98.66 L 510.84 99.52 L 509.66 101.36 L 508.00 94.46 L 506.32 97.29 L 497.94 98.92 L 489.61 102.00 L 489.30 95.11 L 486.86 92.20 L 480.90 94.15 L 480.24 96.93 L 477.27 100.12 L 468.52 103.16 L 468.40 105.84 L 468.28 99.03 L 465.28 92.10 L 462.49 94.21 L 462.35 94.49 L 461.94 96.58 L 458.15 99.09 L 455.75 102.04 L 447.19 95.15 L 447.04 95.40 L 446.94 97.69 L 446.47 90.75 L 443.89 94.69 L 443.79 94.55 L 443.70 94.07 L 443.65 87.06 L 443.53 79.99 L 443.44 72.88 Z" fill="#d0d0d0" fill-opacity="0.5" stroke="none"/>
<path d="M 655.10 62.15 L 655.18 62.15 L 656.05 62.15 L 656.05 64.22 L 655.18 66.60 L 655.10 69.53 Z" fill="#d0d0d0" fill-opacity="0.5" stroke="none"/>
<path d="M 678.91 47.38 L 678.97 47.38 L 679.09 47.38 L 679.09 50.24 L 678.97 52.24 L 678.91 54.98 Z" fill="#d0d0d0" fill-opacity="0.5" stroke="none"/>
<path d="M 679.42 45.92 L 679.43 45.92 L 679.64 45.92 L 679.69 45.92 L 693.26 45.92 L 698.15 45.92 L 700.46 45.92 L 703.93 45.92 L 704.03 45.92 L 704.20 45.92 L 713.20 45.92 L 713.30 45.92 L 713.39 45.92 L 713.54 45.92 L 715.38 45.92 L 716.33 45.92 L 718.54 45.92 L 718.79 45.92 L 722.24 45.92 L 722.35 45.92 L 724.64 45.92 L 725.41 45.92 L 725.73 45.92 L 725.83 45.92 L 726.07 45.92 L 733.78 45.92 L 734.11 45.92 L 734.14 45.92 L 734.40 45.92 L 737.15 45.92 L 738.26 45.92 L 740.64 45.92 L 740.77 45.92 L 740.78 45.92 L 740.85 45.92 L 740.96 45.92 L 742.40 45.92 L 743.40 45.92 L 743.74 45.92 L 743.99 45.92 L 755.99 45.92 L 756.20 45.92 L 756.26 45.92 L 759.44 45.92 L 761.38 45.92 L 761.99 45.92 L 765.39 45.92 L 768.15 45.92 L 779.85 45.92 L 780.62 45.92 L 786.89 45.92 L 790.10 45.92 L 797.88 45.92 L 801.37 45.92 L 807.43 45.92 L 822.73 45.92 L 822.89 45.92 L 822.93 45.92 L 823.65 45.92 L 825.81 45.92 L 829.47 45.92 L 829.92 45.92 L 832.11 45.92 L 832.63 45.92 L 832.72 45.92 L 832.83 45.92 L 839.87 45.92 L 840.80 45.92 L 841.22 45.92 L 842.37 45.92 L 844.11 45.92 L 844.23 45.92 L 844.54 45.92 L 844.97 45.92 L 848.06 45.92 L 848.49 45.92 L 848.49 46.67 L 848.06 50.98 L 844.97 54.87 L 844.54 58.66 L 844.23 62.26 L 844.11 65.76 L 842.37 68.29 L 841.22 71.53 L 840.80 74.82 L 839.87 75.14 L 832.83 77.70 L 832.72 81.25 L 832.63 82.29 L 832.11 75.08 L 829.92 78.28 L 829.47 81.13 L 825.81 73.90 L 823.65 78.00 L 822.93 70.72 L 822.89 73.00 L 822.73 65.65 L 807.43 69.97 L 801.37 72.45 L 797.88 75.73 L 790.10 79.81 L 786.89 72.57 L 780.62 75.24 L 779.85 76.24 L 768.15 68.94 L 765.39 61.53 L 761.99 61.25 L 761.38 64.57 L 759.44 67.58 L 756.26 71.69 L 756.20 74.60 L 755.99 72.07 L 743.99 64.72 L 743.74 68.23 L 743.40 72.37 L 742.40 72.26 L 740.96 71.16 L 740.85 72.50 L 740.78 73.74 L 740.77 66.51 L 740.64 59.11 L 738.26 51.57 L 737.15 55.81 L 734.40 60.02 L 734.14 61.14 L 734.11 64.30 L 733.78 56.83 L 726.07 60.16 L 725.83 61.81 L 725.73 65.43 L 725.41 69.58 L 724.64 73.28 L 722.35 76.63 L 722.24 80.27 L 718.79 83.45 L 718.54 85.96 L 716.33 88.93 L 715.38 89.45 L 713.54 92.61 L 713.39 90.57 L 713.30 92.10 L 713.20 85.08 L 704.20 77.92 L 704.03 79.53 L 703.93 80.49 L 700.46 73.26 L 698.15 65.92 L 693.26 58.48 L 679.69 62.70 L 679.64 64.02 L 679.43 60.91 L 679.42 53.50 Z" fill="#d0d0d0" fill-opacity="0.5" stroke="none"/>
<path d="M 864.53 38.71 L 864.53 41.04 Z" fill="#d0d0d0" fill-opacity="0.5" stroke="none"/>
<path d="M 873.82 25.00 L 875.21 25.00 L 875.70 25.00 L 883.09 25.00 L 883.17 25.00 L 884.18 25.00 L 884.83 25.00 L 887.55 25.00 L 890.14 25.00 L 890.49 25.00 L 891.45 25.00 L 892.76 25.00 L 897.03 25.00 L 906.35 25.00 L 908.53 25.00 L 909.33 25.00 L 912.92 25.00 L 915.19 25.00 L 915.21 25.00 L 915.38 25.00 L 915.63 25.00 L 918.28 25.00 L 918.55 25.00 L 918.82 25.00 L 918.90 25.00 L 926.11 25.00 L 926.98 25.00 L 927.48 25.00 L 933.06 25.00 L 933.19 25.00 L 933.21 25.00 L 933.31 25.00 L 936.34 25.00 L 939.86 25.00 L 948.74 25.00 L 951.39 25.00 L 957.73 25.00 L 957.86 25.00 L 957.91 25.00 L 958.23 25.00 L 958.79 25.00 L 960.65 25.00 L 961.28 25.00 L 969.60 25.00 L 970.84 25.00 L 973.58 25.00 L 976.75 25.00 L 976.85 25.00 L 977.18 25.00 L 978.13 25.00 L 979.64 25.00 L 979.72 25.00 L 980.01 25.00 L 990.47 25.00 L 990.59 25.00 L 990.81 25.00 L 992.35 25.00 L 994.21 25.00 L 994.40 25.00 L 995.52 25.00 L 996.29 25.00 L 1001.19 25.00 L 1001.23 25.00 L 1001.68 25.00 L 1004.24 25.00 L 1004.33 25.00 L 1013.01 25.00 L 1013.46 25.00 L 1017.02 25.00 L 1018.90 25.00 L 1019.06 25.00 L 1019.12 25.00 L 1019.41 25.00 L 1021.88 25.00 L 1022.72 25.00 L 1025.87 25.00 L 1025.97 25.00 L 1039.49 25.00 L 1044.00 25.00 L 1044.49 25.00 L 1046.85 25.00 L 1047.22 25.00 L 1055.58 25.00 L 1056.54 25.00 L 1061.99 25.00 L 1062.67 25.00 L 1075.84 25.00 L 1077.06 25.00 L 1080.25 25.00 L 1080.31 25.00 L 1080.69 25.00 L 1083.66 25.00 L 1083.79 25.00 L 1083.80 25.00 L 1090.18 25.00 L 1090.29 25.00 L 1099.81 25.00 L 1108.34 25.00 L 1110.99 25.00 L 1111.40 25.00 L 1123.84 25.00 L 1123.96 25.00 L 1144.60 25.00 L 1147.67 25.00 L 1147.78 25.00 L 1150.51 25.00 L 1169.67 25.00 L 1169.84 25.00 L 1170.00 25.00 L 1170.00 113.10 L 1169.84 111.10 L 1169.67 112.05 L 1150.51 105.26 L 1147.78 107.54 L 1147.67 110.49 L 1144.60 113.90 L 1123.96 115.77 L 1123.84 115.73 L 1111.40 108.99 L 1110.99 111.11 L 1108.34 104.30 L 1099.81 97.39 L 1090.29 97.50 L 1090.18 97.39 L 1083.80 90.38 L 1083.79 83.28 L 1083.66 76.09 L 1080.69 80.33 L 1080.31 83.66 L 1080.25 87.21 L 1077.06 80.04 L 1075.84 82.85 L 1062.67 82.22 L 1061.99 83.93 L 1056.54 81.93 L 1055.58 84.81 L 1047.22 85.12 L 1046.85 88.01 L 1044.49 80.86 L 1044.00 84.55 L 1039.49 87.77 L 1025.97 87.85 L 1025.87 88.10 L 1022.72 80.95 L 1021.88 84.41 L 1019.41 88.12 L 1019.12 91.04 L 1019.06 84.03 L 1018.90 84.87 L 1017.02 77.67 L 1013.46 81.44 L 1013.01 83.85 L 1004.33 86.66 L 1004.24 87.50 L 1001.68 80.34 L 1001.23 73.07 L 1001.19 76.54 L 996.29 69.22 L 995.52 72.14 L 994.40 64.76 L 994.21 67.28 L 992.35 70.55 L 990.81 72.19 L 990.59 70.57 L 990.47 72.86 L 980.01 76.26 L 979.72 68.95 L 979.64 69.98 L 978.13 62.56 L 977.18 66.75 L 976.85 70.90 L 976.75 72.57 L 973.58 65.19 L 970.84 69.01 L 969.60 67.43 L 961.28 70.26 L 960.65 62.85 L 958.79 65.47 L 958.23 69.63 L 957.91 72.62 L 957.86 75.08 L 957.73 74.34 L 951.39 67.00 L 948.74 67.52 L 939.86 60.07 L 936.34 52.52 L 933.31 55.86 L 933.21 55.52 L 933.19 47.91 L 933.06 40.23 L 927.48 32.40 L 926.98 36.40 L 926.11 28.51 L 918.90 31.66 L 918.82 33.24 L 918.55 25.32 L 918.28 29.38 L 915.63 33.82 L 915.38 29.84 L 915.21 34.23 L 915.19 38.38 L 912.92 30.53 L 909.33 32.27 L 908.53 36.29 L 906.35 39.48 L 897.03 31.65 L 892.76 32.35 L 891.45 30.82 L 890.49 33.99 L 890.14 36.41 L 887.55 38.88 L 884.83 31.03 L 884.18 33.23 L 883.17 35.74 L 883.09 37.31 L 875.70 29.45 L 875.21 33.43 L 873.82 32.93 Z" fill="#d0d0d0" fill-opacity="0.5" stroke="none"/>
<polyline fill="none" stroke="#111" stroke-width="1.2" points="70.00,84.26 72.26,81.86 73.01,88.94 79.15,95.92 82.27,92.03 97.34,88.73 100.38,95.68 100.44,102.44 100.54,101.08 100.76,107.88 102.66,114.56 112.32,111.09 115.09,110.80 115.74,108.01 118.59,104.92 121.76,101.42 122.03,98.94 124.09,95.42 134.21,95.68 136.61,94.38 137.34,93.31 142.44,89.41 142.77,85.44 146.51,92.47 167.89,90.69 183.20,87.58 197.78,89.65 204.82,86.41 210.63,88.87 221.36,87.54 222.08,84.51 222.50,91.57 271.02,87.61 274.54,85.51 286.11,83.64 286.85,80.42 287.37,76.78 294.99,74.27 296.24,72.91 315.11,72.85 318.42,73.79 333.65,71.15 339.42,67.01 339.64,74.32 359.35,71.76 391.62,78.99 391.70,77.37 397.12,80.05 414.37,77.21 415.26,74.44 417.09,70.67 437.70,69.77 443.39,65.60 443.44,72.88 443.53,79.99 443.65,87.06 443.70,94.07 443.79,94.55 443.89,94.69 446.47,90.75 446.94,97.69 447.04,95.40 447.19,95.15 455.75,102.04 458.15,99.09 461.94,96.58 462.35,94.49 462.49,94.21 465.28,92.10 468.28,99.03 468.40,105.84 468.52,103.16 477.27,100.12 480.24,96.93 480.90,94.15 486.86,92.20 489.30,95.11 489.61,102.00 497.94,98.92 506.32,97.29 508.00,94.46 509.66,101.36 510.84,99.52 521.43,98.66 528.98,101.38 529.86,98.91 532.55,97.27 550.80,94.39 553.92,92.04 569.50,98.98 571.08,95.08 571.71,91.18 572.31,87.91 574.78,87.09 584.53,88.70 585.75,84.71 593.60,83.85 604.31,82.48 606.13,83.46 609.09,90.52 611.94,86.54 612.13,83.26 636.44,79.59 636.68,86.72 639.48,82.71 639.50,78.67 639.87,77.28 648.62,74.98 649.00,71.87 650.40,67.74 651.13,75.05 651.18,72.45 651.37,68.56 651.72,67.99 653.26,64.86 654.20,62.15 655.10,69.53 655.18,66.60 656.05,64.22 658.19,61.04 660.31,58.43 661.37,54.19 672.57,51.29 673.94,47.38 678.91,54.98 678.97,52.24 679.09,50.24 679.27,45.92 679.42,53.50 679.43,60.91 679.64,64.02 679.69,62.70 693.26,58.48 698.15,65.92 700.46,73.26 703.93,80.49 704.03,79.53 704.20,77.92 713.20,85.08 713.30,92.10 713.39,90.57 713.54,92.61 715.38,89.45 716.33,88.93 718.54,85.96 718.79,83.45 722.24,80.27 722.35,76.63 724.64,73.28 725.41,69.58 725.73,65.43 725.83,61.81 726.07,60.16 733.78,56.83 734.11,64.30 734.14,61.14 734.40,60.02 737.15,55.81 738.26,51.57 740.64,59.11 740.77,66.51 740.78,73.74 740.85,72.50 740.96,71.16 742.40,72.26 743.40,72.37 743.74,68.23 743.99,64.72 755.99,72.07 756.20,74.60 756.26,71.69 759.44,67.58 761.38,64.57 761.99,61.25 765.39,61.53 768.15,68.94 779.85,76.24 780.62,75.24 786.89,72.57 790.10,79.81 797.88,75.73 801.37,72.45 807.43,69.97 822.73,65.65 822.89,73.00 822.93,70.72 823.65,78.00 825.81,73.90 829.47,81.13 829.92,78.28 832.11,75.08 832.63,82.29 832.72,81.25 832.83,77.70 839.87,75.14 840.80,74.82 841.22,71.53 842.37,68.29 844.11,65.76 844.23,62.26 844.54,58.66 844.97,54.87 848.06,50.98 848.49,46.67 850.94,42.36 851.02,40.29 861.34,38.71 864.53,41.04 865.67,38.54 865.89,36.17 871.90,31.75 872.39,29.47 873.07,25.00 873.82,32.93 875.21,33.43 875.70,29.45 883.09,37.31 883.17,35.74 884.18,33.23 884.83,31.03 887.55,38.88 890.14,36.41 890.49,33.99 891.45,30.82 892.76,32.35 897.03,31.65 906.35,39.48 908.53,36.29 909.33,32.27 912.92,30.53 915.19,38.38 915.21,34.23 915.38,29.84 915.63,33.82 918.28,29.38 918.55,25.32 918.82,33.24 918.90,31.66 926.11,28.51 926.98,36.40 927.48,32.40 933.06,40.23 933.19,47.91 933.21,55.52 933.31,55.86 936.34,52.52 939.86,60.07 948.74,67.52 951.39,67.00 957.73,74.34 957.86,75.08 957.91,72.62 958.23,69.63 958.79,65.47 960.65,62.85 961.28,70.26 969.60,67.43 970.84,69.01 973.58,65.19 976.75,72.57 976.85,70.90 977.18,66.75 978.13,62.56 979.64,69.98 979.72,68.95 980.01,76.26 990.47,72.86 990.59,70.57 990.81,72.19 992.35,70.55 994.21,67.28 994.40,64.76 995.52,72.14 996.29,69.22 1001.19,76.54 1001.23,73.07 1001.68,80.34 1004.24,87.50 1004.33,86.66 1013.01,83.85 1013.46,81.44 1017.02,77.67 1018.90,84.87 1019.06,84.03 1019.12,91.04 1019.41,88.12 1021.88,84.41 1022.72,80.95 1025.87,88.10 1025.97,87.85 1039.49,87.77 1044.00,84.55 1044.49,80.86 1046.85,88.01 1047.22,85.12 1055.58,84.81 1056.54,81.93 1061.99,83.93 1062.67,82.22 1075.84,82.85 1077.06,80.04 1080.25,87.21 1080.31,83.66 1080.69,80.33 1083.66,76.09 1083.79,83.28 1083.80,90.38 1090.18,97.39 1090.29,97.50 1099.81,97.39 1108.34,104.30 1110.99,111.11 1111.40,108.99 1123.84,115.73 1123.96,115.77 1144.60,113.90 1147.67,110.49 1147.78,107.54 1150.51,105.26 1169.67,112.05 1169.84,111.10 1170.00,113.10"/>
<text x="620.0" y="588" text-anchor="middle" font-family="sans-serif" font-size="12" fill="#333">UTC time</text>
<text x="15" y="287.5" transform="rotate(-90 15,287.5)" text-anchor="middle" font-family="sans-serif" font-size="12" fill="#333">Capital</text>
</svg>