<svg xmlns="http://www.w3.org/2000/svg" width="1200" height="600" viewBox="0 0 1200 600">
<desc>Equity curve with drawdown fill</desc>
<text x="600.0" y="18.0" text-anchor="middle" font-family="sans-serif" font-size="14">Portfolio 2022</text>
<rect x="70" y="25" width="1100" height="525" fill="white" stroke="#ccc" />
<line x1="70" y1="550.00" x2="1170" y2="550.00" stroke="#eee"/>
<text x="62" y="554.0" text-anchor="end" font-family="sans-serif" font-size="11" fill="#555">0.00</text>
<line x1="70" y1="445.00" x2="1170" y2="445.00" stroke="#eee"/>
<text x="62" y="449.0" text-anchor="end" font-family="sans-serif" font-size="11" fill="#555">23113</text>
<line x1="70" y1="340.00" x2="1170" y2="340.00" stroke="#eee"/>
<text x="62" y="344.0" text-anchor="end" font-family="sans-serif" font-size="11" fill="#555">46227</text>
<line x1="70" y1="235.00" x2="1170" y2="235.00" stroke="#eee"/>
<text x="62" y="239.0" text-anchor="end" font-family="sans-serif" font-size="11" fill="#555">69340</text>
<line x1="70" y1="130.00" x2="1170" y2="130.00" stroke="#eee"/>
<text x="62" y="134.0" text-anchor="end" font-family="sans-serif" font-size="11" fill="#555">92453</text>
<line x1="70" y1="25.00" x2="1170" y2="25.00" stroke="#eee"/>
<text x="62" y="29.0" text-anchor="end" font-family="sans-serif" font-size="11" fill="#555">115566</text>
<line x1="157.17" y1="25" x2="157.17" y2="550" stroke="#f2f2f2"/>
<text x="157.17" y="566" text-anchor="middle" font-family="sans-serif" font-size="11" fill="#555">Mar</text>
<line x1="263.92" y1="25" x2="263.92" y2="550" stroke="#f2f2f2"/>
<text x="263.92" y="566" text-anchor="middle" font-family="sans-serif" font-size="11" fill="#555">Apr</text>
<line x1="367.22" y1="25" x2="367.22" y2="550" stroke="#f2f2f2"/>
<text x="367.22" y="566" text-anchor="middle" font-family="sans-serif" font-size="11" fill="#555">May</text>
<line x1="473.97" y1="25" x2="473.97" y2="550" stroke="#f2f2f2"/>
<text x="473.97" y="566" text-anchor="middle" font-family="sans-serif" font-size="11" fill="#555">Jun</text>
<line x1="577.28" y1="25" x2="577.28" y2="550" stroke="#f2f2f2"/>
<text x="577.28" y="566" text-anchor="middle" font-family="sans-serif" font-size="11" fill="#555">Jul</text>
<line x1="684.02" y1="25" x2="684.02" y2="550" stroke="#f2f2f2"/>
<text x="684.02" y="566" text-anchor="middle" font-family="sans-serif" font-size="11" fill="#555">Aug</text>
<line x1="790.77" y1="25" x2="790.77" y2="550" stroke="#f2f2f2"/>
<text x="790.77" y="566" text-anchor="middle" font-family="sans-serif" font-size="11" fill="#555">Sep</text>
<line x1="894.08" y1="25" x2="894.08" y2="550" stroke="#f2f2f2"/>
<text x="894.08" y="566" text-anchor="middle" font-family="sans-serif" font-size="11" fill="#555">Oct</text>
<line x1="1000.83" y1="25" x2="1000.83" y2="550" stroke="#f2f2f2"/>
<text x="1000.83" y="566" text-anchor="middle" font-family="sans-serif" font-size="11" fill="#555">Nov</text>
<line x1="1104.13" y1="25" x2="1104.13" y2="550" stroke="#f2f2f2"/>
<text x="1104.13" y="566" text-anchor="middle" font-family="sans-serif" font-size="11" fill="#555">Dec</text>
<line x1="70" y1="550" x2="1170" y2="550" stroke="#888"/>
<line x1="70" y1="25" x2="70" y2="550" stroke="#888"/>
<path d="M 70.00 95.72 L 93.83 95.72 L 94.07 95.72 L 97.90 95.72 L 116.45 95.72 L 140.63 95.72 L 141.40 95.72 L 141.40 96.80 L 140.63 100.26 L 116.45 101.10 L 97.90 103.80 L 94.07 106.39 L 93.83 99.57 L 70.00 102.59 Z" fill="#d0d0d0" fill-opacity="0.5" stroke="none"/>
<path d="M 177.84 74.51 L 177.84 75.50 Z" fill="#d0d0d0" fill-opacity="0.5" stroke="none"/>
<path d="M 179.64 73.84 L 179.66 73.84 L 179.66 77.17 L 179.64 81.05 Z" fill="#d0d0d0" fill-opacity="0.5" stroke="none"/>
<path d="M 183.91 72.98 L 183.91 73.83 Z" fill="#d0d0d0" fill-opacity="0.5" stroke="none"/>
<path d="M 187.10 67.20 L 190.32 67.20 L 193.26 67.20 L 193.26 69.29 L 190.32 73.01 L 187.10 74.52 Z" fill="#d0d0d0" fill-opacity="0.5" stroke="none"/>
<path d="M 255.51 61.60 L 307.79 61.60 L 310.73 61.60 L 310.82 61.60 L 311.00 61.60 L 330.91 61.60 L 333.99 61.60 L 347.60 61.60 L 354.68 61.60 L 355.54 61.60 L 358.19 61.60 L 362.31 61.60 L 371.84 61.60 L 376.16 61.60 L 382.87 61.60 L 385.60 61.60 L 397.33 61.60 L 397.33 63.67 L 385.60 64.95 L 382.87 68.26 L 376.16 71.47 L 371.84 69.13 L 362.31 72.46 L 358.19 75.16 L 355.54 78.79 L 354.68 78.56 L 347.60 81.75 L 333.99 85.68 L 330.91 78.53 L 311.00 80.96 L 310.82 82.16 L 310.73 75.00 L 307.79 67.69 L 255.51 68.99 Z" fill="#d0d0d0" fill-opacity="0.5" stroke="none"/>
<path d="M 406.28 59.57 L 407.56 59.57 L 431.51 59.57 L 444.45 59.57 L 447.57 59.57 L 472.27 59.57 L 476.23 59.57 L 476.23 60.04 L 472.27 60.17 L 447.57 63.50 L 444.45 67.57 L 431.51 60.15 L 407.56 63.31 L 406.28 67.00 Z" fill="#d0d0d0" fill-opacity="0.5" stroke="none"/>
<path d="M 524.18 48.41 L 527.71 48.41 L 528.23 48.41 L 528.31 48.41 L 531.31 48.41 L 548.43 48.41 L 551.09 48.41 L 551.89 48.41 L 569.01 48.41 L 576.24 48.41 L 579.54 48.41 L 592.32 48.41 L 592.49 48.41 L 592.57 48.41 L 592.66 48.41 L 602.59 48.41 L 602.66 48.41 L 616.97 48.41 L 620.53 48.41 L 620.53 48.41 L 620.86 48.41 L 620.95 48.41 L 624.11 48.41 L 624.34 48.41 L 638.13 48.41 L 640.48 48.41 L 640.64 48.41 L 640.71 48.41 L 644.39 48.41 L 648.05 48.41 L 648.17 48.41 L 648.25 48.41 L 650.93 48.41 L 651.73 48.41 L 661.47 48.41 L 664.95 48.41 L 675.84 48.41 L 688.72 48.41 L 693.24 48.41 L 696.73 48.41 L 699.73 48.41 L 699.89 48.41 L 716.95 48.41 L 717.23 48.41 L 744.79 48.41 L 758.81 48.41 L 761.90 48.41 L 761.99 48.41 L 762.15 48.41 L 765.52 48.41 L 765.54 48.41 L 772.18 48.41 L 772.48 48.41 L 782.16 48.41 L 789.66 48.41 L 792.96 48.41 L 793.05 48.41 L 796.86 48.41 L 805.77 48.41 L 810.18 48.41 L 813.75 48.41 L 816.91 48.41 L 816.95 48.41 L 817.08 48.41 L 818.68 48.41 L 820.15 48.41 L 829.80 48.41 L 829.87 48.41 L 830.05 48.41 L 834.03 48.41 L 834.22 48.41 L 834.32 48.41 L 834.50 48.41 L 844.81 48.41 L 858.19 48.41 L 860.66 48.41 L 860.76 48.41 L 862.37 48.41 L 864.39 48.41 L 864.49 48.41 L 865.44 48.41 L 867.71 48.41 L 868.84 48.41 L 877.14 48.41 L 877.16 48.41 L 878.07 48.41 L 878.48 48.41 L 878.86 48.41 L 879.25 48.41 L 882.90 48.41 L 885.33 48.41 L 885.86 48.41 L 885.89 48.41 L 886.02 48.41 L 886.34 48.41 L 886.34 48.41 L 886.46 48.41 L 889.36 48.41 L 889.63 48.41 L 892.57 48.41 L 892.93 48.41 L 902.59 48.41 L 903.15 48.41 L 905.63 48.41 L 906.42 48.41 L 910.00 48.41 L 913.38 48.41 L 916.68 48.41 L 916.68 52.37 L 913.38 56.50 L 910.00 60.14 L 906.42 64.22 L 905.63 66.92 L 903.15 68.55 L 902.59 72.21 L 892.93 72.64 L 892.57 76.19 L 889.63 80.14 L 889.36 78.94 L 886.46 82.86 L 886.34 81.68 L 886.34 74.54 L 886.02 67.22 L 885.89 71.20 L 885.86 74.75 L 885.33 78.70 L 882.90 82.61 L 879.25 85.26 L 878.86 88.42 L 878.48 92.08 L 878.07 95.63 L 877.16 88.59 L 877.14 92.47 L 868.84 85.38 L 867.71 87.06 L 865.44 89.83 L 864.49 90.08 L 864.39 93.76 L 862.37 97.53 L 860.76 101.30 L 860.66 104.90 L 858.19 108.59 L 844.81 111.90 L 834.50 110.77 L 834.32 103.97 L 834.22 103.97 L 834.03 101.36 L 830.05 105.30 L 829.87 98.42 L 829.80 91.46 L 820.15 84.37 L 818.68 87.12 L 817.08 86.80 L 816.95 90.22 L 816.91 93.59 L 813.75 86.53 L 810.18 86.24 L 805.77 88.79 L 796.86 92.64 L 793.05 85.57 L 792.96 89.21 L 789.66 82.09 L 782.16 82.91 L 772.48 85.50 L 772.18 88.14 L 765.54 91.99 L 765.52 95.35 L 762.15 88.32 L 761.99 90.65 L 761.90 92.07 L 758.81 84.99 L 744.79 83.96 L 717.23 83.95 L 716.95 76.76 L 699.89 80.91 L 699.73 80.97 L 696.73 84.89 L 693.24 88.00 L 688.72 85.43 L 675.84 88.90 L 664.95 87.38 L 661.47 88.05 L 651.73 88.76 L 650.93 81.64 L 648.25 80.99 L 648.17 84.08 L 648.05 84.29 L 644.39 88.19 L 640.71 81.05 L 640.64 82.01 L 640.48 80.09 L 638.13 72.84 L 624.34 74.61 L 624.11 78.57 L 620.95 82.50 L 620.86 84.45 L 620.53 77.26 L 620.53 81.20 L 616.97 85.11 L 602.66 86.90 L 602.59 89.51 L 592.66 93.36 L 592.57 94.82 L 592.49 87.78 L 592.32 80.69 L 579.54 73.45 L 576.24 73.09 L 569.01 65.74 L 551.89 68.43 L 551.09 72.17 L 548.43 64.81 L 531.31 67.63 L 528.31 71.23 L 528.23 63.86 L 527.71 63.47 L 524.18 55.99 Z" fill="#d0d0d0" fill-opacity="0.5" stroke="none"/>
<path d="M 937.74 29.57 L 937.79 29.57 L 937.97 29.57 L 940.87 29.57 L 940.90 29.57 L 951.51 29.57 L 957.89 29.57 L 961.28 29.57 L 964.90 29.57 L 964.95 29.57 L 965.14 29.57 L 965.14 32.81 L 964.95 36.50 L 964.90 40.75 L 961.28 43.61 L 957.89 46.95 L 951.51 47.71 L 940.90 49.86 L 940.87 53.61 L 937.97 45.96 L 937.79 45.16 L 937.74 37.43 Z" fill="#d0d0d0" fill-opacity="0.5" stroke="none"/>
<path d="M 978.80 25.00 L 978.88 25.00 L 979.05 25.00 L 981.48 25.00 L 982.59 25.00 L 985.55 25.00 L 988.37 25.00 L 1003.05 25.00 L 1007.06 25.00 L 1013.03 25.00 L 1013.12 25.00 L 1013.18 25.00 L 1013.23 25.00 L 1013.38 25.00 L 1022.86 25.00 L 1027.13 25.00 L 1030.55 25.00 L 1033.29 25.00 L 1033.75 25.00 L 1033.92 25.00 L 1034.11 25.00 L 1034.15 25.00 L 1036.56 25.00 L 1047.46 25.00 L 1051.35 25.00 L 1051.69 25.00 L 1051.72 25.00 L 1078.75 25.00 L 1095.09 25.00 L 1096.15 25.00 L 1099.26 25.00 L 1102.96 25.00 L 1103.02 25.00 L 1103.38 25.00 L 1103.66 25.00 L 1109.60 25.00 L 1110.15 25.00 L 1120.38 25.00 L 1126.67 25.00 L 1147.54 25.00 L 1147.65 25.00 L 1154.37 25.00 L 1154.44 25.00 L 1154.96 25.00 L 1170.00 25.00 L 1170.00 88.66 L 1154.96 92.54 L 1154.44 89.63 L 1154.37 91.25 L 1147.65 84.14 L 1147.54 84.83 L 1126.67 85.55 L 1120.38 88.56 L 1110.15 90.47 L 1109.60 89.23 L 1103.66 82.09 L 1103.38 78.62 L 1103.02 82.00 L 1102.96 84.64 L 1099.26 77.43 L 1096.15 80.26 L 1095.09 72.99 L 1078.75 65.61 L 1051.72 68.37 L 1051.69 71.66 L 1051.35 64.26 L 1047.46 66.68 L 1036.56 70.48 L 1034.15 73.59 L 1034.11 75.57 L 1033.92 71.79 L 1033.75 71.66 L 1033.29 75.95 L 1030.55 78.04 L 1027.13 81.99 L 1022.86 74.75 L 1013.38 74.69 L 1013.23 77.27 L 1013.18 70.00 L 1013.12 62.58 L 1013.03 63.40 L 1007.06 55.89 L 1003.05 48.27 L 988.37 48.96 L 985.55 52.26 L 982.59 55.39 L 981.48 56.05 L 979.05 48.44 L 978.88 40.72 L 978.80 32.93 Z" fill="#d0d0d0" fill-opacity="0.5" stroke="none"/>
<polyline fill="none" stroke="#111" stroke-width="1.2" points="70.00,102.59 93.83,99.57 94.07,106.39 97.90,103.80 116.45,101.10 140.63,100.26 141.40,96.80 142.26,93.29 142.68,90.25 153.66,90.13 155.31,86.26 159.64,83.14 162.98,79.19 167.65,77.34 169.54,74.51 177.84,75.50 179.38,73.84 179.64,81.05 179.66,77.17 179.80,73.59 182.54,72.98 183.91,73.83 186.24,71.25 186.74,67.20 187.10,74.52 190.32,73.01 193.26,69.29 203.37,65.69 251.55,61.60 255.51,68.99 307.79,67.69 310.73,75.00 310.82,82.16 311.00,80.96 330.91,78.53 333.99,85.68 347.60,81.75 354.68,78.56 355.54,78.79 358.19,75.16 362.31,72.46 371.84,69.13 376.16,71.47 382.87,68.26 385.60,64.95 397.33,63.67 403.59,59.57 406.28,67.00 407.56,63.31 431.51,60.15 444.45,67.57 447.57,63.50 472.27,60.17 476.23,60.04 503.49,57.68 503.62,54.47 503.74,52.12 506.92,48.41 524.18,55.99 527.71,63.47 528.23,63.86 528.31,71.23 531.31,67.63 548.43,64.81 551.09,72.17 551.89,68.43 569.01,65.74 576.24,73.09 579.54,73.45 592.32,80.69 592.49,87.78 592.57,94.82 592.66,93.36 602.59,89.51 602.66,86.90 616.97,85.11 620.53,81.20 620.53,77.26 620.86,84.45 620.95,82.50 624.11,78.57 624.34,74.61 638.13,72.84 640.48,80.09 640.64,82.01 640.71,81.05 644.39,88.19 648.05,84.29 648.17,84.08 648.25,80.99 650.93,81.64 651.73,88.76 661.47,88.05 664.95,87.38 675.84,88.90 688.72,85.43 693.24,88.00 696.73,84.89 699.73,80.97 699.89,80.91 716.95,76.76 717.23,83.95 744.79,83.96 758.81,84.99 761.90,92.07 761.99,90.65 762.15,88.32 765.52,95.35 765.54,91.99 772.18,88.14 772.48,85.50 782.16,82.91 789.66,82.09 792.96,89.21 793.05,85.57 796.86,92.64 805.77,88.79 810.18,86.24 813.75,86.53 816.91,93.59 816.95,90.22 817.08,86.80 818.68,87.12 820.15,84.37 829.80,91.46 829.87,98.42 830.05,105.30 834.03,101.36 834.22,103.97 834.32,103.97 834.50,110.77 844.81,111.90 858.19,108.59 860.66,104.90 860.76,101.30 862.37,97.53 864.39,93.76 864.49,90.08 865.44,89.83 867.71,87.06 868.84,85.38 877.14,92.47 877.16,88.59 878.07,95.63 878.48,92.08 878.86,88.42 879.25,85.26 882.90,82.61 885.33,78.70 885.86,74.75 885.89,71.20 886.02,67.22 886.34,74.54 886.34,81.68 886.46,82.86 889.36,78.94 889.63,80.14 892.57,76.19 892.93,72.64 902.59,72.21 903.15,68.55 905.63,66.92 906.42,64.22 910.00,60.14 913.38,56.50 916.68,52.37 916.74,48.39 927.29,44.20 930.98,41.06 932.68,36.82 937.34,32.31 937.52,29.57 937.74,37.43 937.79,45.16 937.97,45.96 940.87,53.61 940.90,49.86 951.51,47.71 957.89,46.95 961.28,43.61 964.90,40.75 964.95,36.50 965.14,32.81 965.31,29.04 965.43,27.36 975.44,25.00 978.80,32.93 978.88,40.72 979.05,48.44 981.48,56.05 982.59,55.39 985.55,52.26 988.37,48.96 1003.05,48.27 1007.06,55.89 1013.03,63.40 1013.12,62.58 1013.18,70.00 1013.23,77.27 1013.38,74.69 1022.86,74.75 1027.13,81.99 1030.55,78.04 1033.29,75.95 1033.75,71.66 1033.92,71.79 1034.11,75.57 1034.15,73.59 1036.56,70.48 1047.46,66.68 1051.35,64.26 1051.69,71.66 1051.72,68.37 1078.75,65.61 1095.09,72.99 1096.15,80.26 1099.26,77.43 1102.96,84.64 1103.02,82.00 1103.38,78.62 1103.66,82.09 1109.60,89.23 1110.15,90.47 1120.38,88.56 1126.67,85.55 1147.54,84.83 1147.65,84.14 1154.37,91.25 1154.44,89.63 1154.96,92.54 1170.00,88.66"/>
<text x="620.0" y="588" text-anchor="middle" font-family="sans-serif" font-size="12" fill="#333">UTC time</text>
<text x="15" y="287.5" transform="rotate(-90 15,287.5)" text-anchor="middle" font-family="sans-serif" font-size="12" fill="#333">Capital</text>
</svg>