<svg xmlns="http://www.w3.org/2000/svg" width="1200" height="600" viewBox="0 0 1200 600">
<desc>Equity curve with drawdown fill</desc>
<text x="600.0" y="18.0" text-anchor="middle" font-family="sans-serif" font-size="14">Portfolio 2012</text>
<rect x="70" y="25" width="1100" height="525" fill="white" stroke="#ccc" />
<line x1="70" y1="550.00" x2="1170" y2="550.00" stroke="#eee"/>
<text x="62" y="554.0" text-anchor="end" font-family="sans-serif" font-size="11" fill="#555">0.00</text>
<line x1="70" y1="445.00" x2="1170" y2="445.00" stroke="#eee"/>
<text x="62" y="449.0" text-anchor="end" font-family="sans-serif" font-size="11" fill="#555">32642</text>
<line x1="70" y1="340.00" x2="1170" y2="340.00" stroke="#eee"/>
<text x="62" y="344.0" text-anchor="end" font-family="sans-serif" font-size="11" fill="#555">65284</text>
<line x1="70" y1="235.00" x2="1170" y2="235.00" stroke="#eee"/>
<text x="62" y="239.0" text-anchor="end" font-family="sans-serif" font-size="11" fill="#555">97926</text>
<line x1="70" y1="130.00" x2="1170" y2="130.00" stroke="#eee"/>
<text x="62" y="134.0" text-anchor="end" font-family="sans-serif" font-size="11" fill="#555">130568</text>
<line x1="70" y1="25.00" x2="1170" y2="25.00" stroke="#eee"/>
<text x="62" y="29.0" text-anchor="end" font-family="sans-serif" font-size="11" fill="#555">163210</text>
<line x1="154.27" y1="25" x2="154.27" y2="550" stroke="#f2f2f2"/>
<text x="154.27" y="566" text-anchor="middle" font-family="sans-serif" font-size="11" fill="#555">Feb</text>
<line x1="243.15" y1="25" x2="243.15" y2="550" stroke="#f2f2f2"/>
<text x="243.15" y="566" text-anchor="middle" font-family="sans-serif" font-size="11" fill="#555">Mar</text>
<line x1="338.17" y1="25" x2="338.17" y2="550" stroke="#f2f2f2"/>
<text x="338.17" y="566" text-anchor="middle" font-family="sans-serif" font-size="11" fill="#555">Apr</text>
<line x1="430.11" y1="25" x2="430.11" y2="550" stroke="#f2f2f2"/>
<text x="430.11" y="566" text-anchor="middle" font-family="sans-serif" font-size="11" fill="#555">May</text>
<line x1="525.13" y1="25" x2="525.13" y2="550" stroke="#f2f2f2"/>
<text x="525.13" y="566" text-anchor="middle" font-family="sans-serif" font-size="11" fill="#555">Jun</text>
<line x1="617.07" y1="25" x2="617.07" y2="550" stroke="#f2f2f2"/>
<text x="617.07" y="566" text-anchor="middle" font-family="sans-serif" font-size="11" fill="#555">Jul</text>
<line x1="712.08" y1="25" x2="712.08" y2="550" stroke="#f2f2f2"/>
<text x="712.08" y="566" text-anchor="middle" font-family="sans-serif" font-size="11" fill="#555">Aug</text>
<line x1="807.10" y1="25" x2="807.10" y2="550" stroke="#f2f2f2"/>
<text x="807.10" y="566" text-anchor="middle" font-family="sans-serif" font-size="11" fill="#555">Sep</text>
<line x1="899.04" y1="25" x2="899.04" y2="550" stroke="#f2f2f2"/>
<text x="899.04" y="566" text-anchor="middle" font-family="sans-serif" font-size="11" fill="#555">Oct</text>
<line x1="994.06" y1="25" x2="994.06" y2="550" stroke="#f2f2f2"/>
<text x="994.06" y="566" text-anchor="middle" font-family="sans-serif" font-size="11" fill="#555">Nov</text>
<line x1="1086.00" y1="25" x2="1086.00" y2="550" stroke="#f2f2f2"/>
<text x="1086.00" y="566" text-anchor="middle" font-family="sans-serif" font-size="11" fill="#555">Dec</text>
<line x1="70" y1="550" x2="1170" y2="550" stroke="#888"/>
<line x1="70" y1="25" x2="70" y2="550" stroke="#888"/>
<path d="M 97.85 45.95 L 97.99 45.95 L 98.00 45.95 L 98.07 45.95 L 110.19 45.95 L 112.67 45.95 L 118.79 45.95 L 128.17 45.95 L 135.05 45.95 L 135.24 45.95 L 137.18 45.95 L 141.06 45.95 L 153.18 45.95 L 155.54 45.95 L 155.95 45.95 L 158.92 45.95 L 159.41 45.95 L 162.19 45.95 L 162.26 45.95 L 171.72 45.95 L 173.68 45.95 L 173.68 46.48 L 171.72 49.57 L 162.26 51.17 L 162.19 54.81 L 159.41 57.68 L 158.92 59.67 L 155.95 63.49 L 155.54 64.31 L 153.18 56.84 L 141.06 59.30 L 137.18 63.15 L 135.24 66.56 L 135.05 64.86 L 128.17 68.47 L 118.79 61.06 L 112.67 62.08 L 110.19 66.23 L 98.07 66.91 L 98.00 68.35 L 97.99 61.06 L 97.85 53.58 Z" fill="#d0d0d0" fill-opacity="0.5" stroke="none"/>
<path d="M 183.53 41.24 L 183.53 42.13 Z" fill="#d0d0d0" fill-opacity="0.5" stroke="none"/>
<path d="M 202.41 34.40 L 212.50 34.40 L 215.93 34.40 L 215.93 37.44 L 212.50 41.81 L 202.41 42.20 Z" fill="#d0d0d0" fill-opacity="0.5" stroke="none"/>
<path d="M 300.46 25.00 L 308.73 25.00 L 311.91 25.00 L 321.50 25.00 L 346.76 25.00 L 346.91 25.00 L 351.91 25.00 L 367.51 25.00 L 376.98 25.00 L 386.66 25.00 L 392.31 25.00 L 394.98 25.00 L 432.12 25.00 L 434.56 25.00 L 448.44 25.00 L 448.49 25.00 L 474.92 25.00 L 498.77 25.00 L 499.53 25.00 L 501.76 25.00 L 505.51 25.00 L 518.20 25.00 L 524.12 25.00 L 526.97 25.00 L 527.03 25.00 L 536.28 25.00 L 538.56 25.00 L 542.24 25.00 L 542.76 25.00 L 555.71 25.00 L 557.89 25.00 L 560.79 25.00 L 564.08 25.00 L 577.21 25.00 L 578.50 25.00 L 582.41 25.00 L 585.62 25.00 L 588.45 25.00 L 609.03 25.00 L 609.12 25.00 L 611.45 25.00 L 611.56 25.00 L 611.67 25.00 L 612.69 25.00 L 612.80 25.00 L 612.91 25.00 L 630.99 25.00 L 631.19 25.00 L 631.31 25.00 L 634.23 25.00 L 655.82 25.00 L 664.91 25.00 L 668.11 25.00 L 674.15 25.00 L 676.99 25.00 L 695.17 25.00 L 695.24 25.00 L 695.36 25.00 L 695.49 25.00 L 695.57 25.00 L 698.45 25.00 L 698.59 25.00 L 699.22 25.00 L 714.54 25.00 L 716.88 25.00 L 716.89 25.00 L 716.92 25.00 L 717.03 25.00 L 717.09 25.00 L 717.29 25.00 L 719.81 25.00 L 720.19 25.00 L 727.53 25.00 L 741.72 25.00 L 756.51 25.00 L 760.11 25.00 L 763.17 25.00 L 784.68 25.00 L 796.22 25.00 L 803.05 25.00 L 805.43 25.00 L 821.05 25.00 L 827.35 25.00 L 841.97 25.00 L 846.12 25.00 L 846.35 25.00 L 848.56 25.00 L 848.92 25.00 L 858.03 25.00 L 866.39 25.00 L 869.72 25.00 L 891.90 25.00 L 924.75 25.00 L 925.73 25.00 L 970.77 25.00 L 1013.07 25.00 L 1014.06 25.00 L 1055.94 25.00 L 1103.36 25.00 L 1122.05 25.00 L 1128.13 25.00 L 1167.69 25.00 L 1170.00 25.00 L 1170.00 62.54 L 1167.69 63.74 L 1128.13 67.21 L 1122.05 67.52 L 1103.36 69.73 L 1055.94 67.99 L 1014.06 69.06 L 1013.07 61.63 L 970.77 61.46 L 925.73 63.96 L 924.75 67.23 L 891.90 67.45 L 869.72 67.22 L 866.39 69.45 L 858.03 72.34 L 848.92 75.30 L 848.56 76.94 L 846.35 77.07 L 846.12 69.78 L 841.97 73.84 L 827.35 77.90 L 821.05 75.45 L 805.43 78.24 L 803.05 81.03 L 796.22 83.27 L 784.68 85.56 L 763.17 88.82 L 760.11 90.33 L 756.51 92.31 L 741.72 94.02 L 727.53 96.56 L 720.19 99.38 L 719.81 92.45 L 717.29 91.88 L 717.09 91.69 L 717.03 94.66 L 716.92 94.73 L 716.89 98.59 L 716.88 102.55 L 714.54 95.66 L 699.22 99.48 L 698.59 92.54 L 698.45 96.42 L 695.57 100.23 L 695.49 103.47 L 695.36 104.16 L 695.24 97.30 L 695.17 90.36 L 676.99 83.28 L 674.15 84.53 L 668.11 85.39 L 664.91 78.23 L 655.82 80.08 L 634.23 80.81 L 631.31 82.88 L 631.19 79.42 L 630.99 72.20 L 612.91 64.84 L 612.80 66.21 L 612.69 66.41 L 611.67 58.96 L 611.56 51.40 L 611.45 51.86 L 609.12 44.19 L 609.03 46.13 L 588.45 38.37 L 585.62 37.63 L 582.41 41.55 L 578.50 42.35 L 577.21 42.37 L 564.08 40.63 L 560.79 41.22 L 557.89 45.10 L 555.71 49.02 L 542.76 49.97 L 542.24 47.14 L 538.56 50.98 L 536.28 43.30 L 527.03 43.00 L 526.97 45.05 L 524.12 37.28 L 518.20 41.19 L 505.51 39.96 L 501.76 38.45 L 499.53 42.79 L 498.77 34.99 L 474.92 38.62 L 448.49 38.69 L 448.44 41.83 L 434.56 34.02 L 432.12 35.99 L 394.98 39.65 L 392.31 42.37 L 386.66 45.92 L 376.98 44.30 L 367.51 45.12 L 351.91 48.38 L 346.91 46.44 L 346.76 44.91 L 321.50 37.15 L 311.91 29.28 L 308.73 28.50 L 300.46 32.94 Z" fill="#d0d0d0" fill-opacity="0.5" stroke="none"/>
<polyline fill="none" stroke="#111" stroke-width="1.2" points="70.00,59.47 72.68,56.54 76.39,55.01 91.36,50.76 94.95,49.83 97.37,45.95 97.85,53.58 97.99,61.06 98.00,68.35 98.07,66.91 110.19,66.23 112.67,62.08 118.79,61.06 128.17,68.47 135.05,64.86 135.24,66.56 137.18,63.15 141.06,59.30 153.18,56.84 155.54,64.31 155.95,63.49 158.92,59.67 159.41,57.68 162.19,54.81 162.26,51.17 171.72,49.57 173.68,46.48 174.43,42.76 174.78,41.24 183.53,42.13 190.96,38.79 198.87,34.40 202.41,42.20 212.50,41.81 215.93,37.44 226.73,34.37 242.02,29.97 269.42,26.39 281.78,25.48 290.95,25.00 300.46,32.94 308.73,28.50 311.91,29.28 321.50,37.15 346.76,44.91 346.91,46.44 351.91,48.38 367.51,45.12 376.98,44.30 386.66,45.92 392.31,42.37 394.98,39.65 432.12,35.99 434.56,34.02 448.44,41.83 448.49,38.69 474.92,38.62 498.77,34.99 499.53,42.79 501.76,38.45 505.51,39.96 518.20,41.19 524.12,37.28 526.97,45.05 527.03,43.00 536.28,43.30 538.56,50.98 542.24,47.14 542.76,49.97 555.71,49.02 557.89,45.10 560.79,41.22 564.08,40.63 577.21,42.37 578.50,42.35 582.41,41.55 585.62,37.63 588.45,38.37 609.03,46.13 609.12,44.19 611.45,51.86 611.56,51.40 611.67,58.96 612.69,66.41 612.80,66.21 612.91,64.84 630.99,72.20 631.19,79.42 631.31,82.88 634.23,80.81 655.82,80.08 664.91,78.23 668.11,85.39 674.15,84.53 676.99,83.28 695.17,90.36 695.24,97.30 695.36,104.16 695.49,103.47 695.57,100.23 698.45,96.42 698.59,92.54 699.22,99.48 714.54,95.66 716.88,102.55 716.89,98.59 716.92,94.73 717.03,94.66 717.09,91.69 717.29,91.88 719.81,92.45 720.19,99.38 727.53,96.56 741.72,94.02 756.51,92.31 760.11,90.33 763.17,88.82 784.68,85.56 796.22,83.27 803.05,81.03 805.43,78.24 821.05,75.45 827.35,77.90 841.97,73.84 846.12,69.78 846.35,77.07 848.56,76.94 848.92,75.30 858.03,72.34 866.39,69.45 869.72,67.22 891.90,67.45 924.75,67.23 925.73,63.96 970.77,61.46 1013.07,61.63 1014.06,69.06 1055.94,67.99 1103.36,69.73 1122.05,67.52 1128.13,67.21 1167.69,63.74 1170.00,62.54"/>
<text x="620.0" y="588" text-anchor="middle" font-family="sans-serif" font-size="12" fill="#333">UTC time</text>
<text x="15" y="287.5" transform="rotate(-90 15,287.5)" text-anchor="middle" font-family="sans-serif" font-size="12" fill="#333">Capital</text>
</svg>