<svg xmlns="http://www.w3.org/2000/svg" width="1200" height="600" viewBox="0 0 1200 600">
<desc>Equity curve with drawdown fill; x-axis is months only (no exact timestamps)</desc>
<text x="600.0" y="18.0" text-anchor="middle" font-family="sans-serif" font-size="14">Balance Curve 2022 (UTC)</text>
<rect x="70" y="25" width="1100" height="525" fill="white" stroke="#ccc" />
<line x1="70" y1="550.00" x2="1170" y2="550.00" stroke="#eee"/>
<text x="62" y="554.0" text-anchor="end" font-family="sans-serif" font-size="11" fill="#555">0.00</text>
<line x1="70" y1="445.00" x2="1170" y2="445.00" stroke="#eee"/>
<text x="62" y="449.0" text-anchor="end" font-family="sans-serif" font-size="11" fill="#555">65053</text>
<line x1="70" y1="340.00" x2="1170" y2="340.00" stroke="#eee"/>
<text x="62" y="344.0" text-anchor="end" font-family="sans-serif" font-size="11" fill="#555">130106</text>
<line x1="70" y1="235.00" x2="1170" y2="235.00" stroke="#eee"/>
<text x="62" y="239.0" text-anchor="end" font-family="sans-serif" font-size="11" fill="#555">195159</text>
<line x1="70" y1="130.00" x2="1170" y2="130.00" stroke="#eee"/>
<text x="62" y="134.0" text-anchor="end" font-family="sans-serif" font-size="11" fill="#555">260213</text>
<line x1="70" y1="25.00" x2="1170" y2="25.00" stroke="#eee"/>
<text x="62" y="29.0" text-anchor="end" font-family="sans-serif" font-size="11" fill="#555">325266</text>
<line x1="161.67" y1="25" x2="161.67" y2="550" stroke="#f2f2f2"/>
<line x1="253.33" y1="25" x2="253.33" y2="550" stroke="#f2f2f2"/>
<line x1="345.00" y1="25" x2="345.00" y2="550" stroke="#f2f2f2"/>
<line x1="436.67" y1="25" x2="436.67" y2="550" stroke="#f2f2f2"/>
<line x1="528.33" y1="25" x2="528.33" y2="550" stroke="#f2f2f2"/>
<line x1="620.00" y1="25" x2="620.00" y2="550" stroke="#f2f2f2"/>
<line x1="711.67" y1="25" x2="711.67" y2="550" stroke="#f2f2f2"/>
<line x1="803.33" y1="25" x2="803.33" y2="550" stroke="#f2f2f2"/>
<line x1="895.00" y1="25" x2="895.00" y2="550" stroke="#f2f2f2"/>
<line x1="986.67" y1="25" x2="986.67" y2="550" stroke="#f2f2f2"/>
<line x1="1078.33" y1="25" x2="1078.33" y2="550" stroke="#f2f2f2"/>
<text x="115.83" y="566.00" text-anchor="middle" font-family="sans-serif" font-size="11" fill="#444">Jan</text>
<text x="207.50" y="566.00" text-anchor="middle" font-family="sans-serif" font-size="11" fill="#444">Feb</text>
<text x="299.17" y="566.00" text-anchor="middle" font-family="sans-serif" font-size="11" fill="#444">Mar</text>
<text x="390.83" y="566.00" text-anchor="middle" font-family="sans-serif" font-size="11" fill="#444">Apr</text>
<text x="482.50" y="566.00" text-anchor="middle" font-family="sans-serif" font-size="11" fill="#444">May</text>
<text x="574.17" y="566.00" text-anchor="middle" font-family="sans-serif" font-size="11" fill="#444">Jun</text>
<text x="665.83" y="566.00" text-anchor="middle" font-family="sans-serif" font-size="11" fill="#444">Jul</text>
<text x="757.50" y="566.00" text-anchor="middle" font-family="sans-serif" font-size="11" fill="#444">Aug</text>
<text x="849.17" y="566.00" text-anchor="middle" font-family="sans-serif" font-size="11" fill="#444">Sep</text>
<text x="940.83" y="566.00" text-anchor="middle" font-family="sans-serif" font-size="11" fill="#444">Oct</text>
<text x="1032.50" y="566.00" text-anchor="middle" font-family="sans-serif" font-size="11" fill="#444">Nov</text>
<text x="1124.17" y="566.00" text-anchor="middle" font-family="sans-serif" font-size="11" fill="#444">Dec</text>
<line x1="70" y1="550" x2="1170" y2="550" stroke="#888"/>
<line x1="70" y1="25" x2="70" y2="550" stroke="#888"/>
<line x1="115.83" y1="550.00" x2="115.83" y2="556.00" stroke="#888"/>
<line x1="1160.83"   y1="550.00" x2="1160.83"   y2="556.00" stroke="#888"/>
<text x="115.83" y="582.00" text-anchor="start" font-family="sans-serif" font-size="11" fill="#333">Initial Balance: 307504</text>
<text x="1160.83"   y="582.00" text-anchor="end"   font-family="sans-serif" font-size="11" fill="#333">Ending Balance: 325266</text>
<path d="M 288.98 40.68 L 299.17 40.68 L 309.35 40.68 L 319.54 40.68 L 319.54 42.67 L 309.35 44.28 L 299.17 43.51 L 288.98 45.91 Z" fill="#d0d0d0" fill-opacity="0.5" stroke="none"/>
<path d="M 339.91 40.28 L 351.55 40.28 L 364.64 40.28 L 377.74 40.28 L 390.83 40.28 L 403.93 40.28 L 417.02 40.28 L 430.12 40.28 L 443.21 40.28 L 456.31 40.28 L 469.40 40.28 L 482.50 40.28 L 495.60 40.28 L 508.69 40.28 L 521.79 40.28 L 521.79 41.51 L 508.69 43.59 L 495.60 44.22 L 482.50 46.79 L 469.40 47.47 L 456.31 49.52 L 443.21 51.53 L 430.12 49.75 L 417.02 51.42 L 403.93 51.07 L 390.83 53.62 L 377.74 48.47 L 364.64 49.98 L 351.55 44.80 L 339.91 45.50 Z" fill="#d0d0d0" fill-opacity="0.5" stroke="none"/>
<path d="M 608.54 36.40 L 608.54 36.79 Z" fill="#d0d0d0" fill-opacity="0.5" stroke="none"/>
<path d="M 661.25 29.96 L 670.42 29.96 L 679.58 29.96 L 688.75 29.96 L 697.92 29.96 L 707.08 29.96 L 716.76 29.96 L 726.94 29.96 L 737.13 29.96 L 737.13 32.79 L 726.94 32.71 L 716.76 35.32 L 707.08 37.37 L 697.92 32.05 L 688.75 32.34 L 679.58 32.66 L 670.42 32.69 L 661.25 35.30 Z" fill="#d0d0d0" fill-opacity="0.5" stroke="none"/>
<path d="M 757.50 29.95 L 767.69 29.95 L 777.87 29.95 L 788.06 29.95 L 798.24 29.95 L 805.52 29.95 L 809.88 29.95 L 814.25 29.95 L 818.61 29.95 L 822.98 29.95 L 827.34 29.95 L 831.71 29.95 L 836.07 29.95 L 840.44 29.95 L 844.80 29.95 L 849.17 29.95 L 853.53 29.95 L 857.90 29.95 L 862.26 29.95 L 866.63 29.95 L 870.99 29.95 L 875.36 29.95 L 879.72 29.95 L 884.09 29.95 L 888.45 29.95 L 892.82 29.95 L 897.55 29.95 L 902.64 29.95 L 907.73 29.95 L 912.82 29.95 L 917.92 29.95 L 923.01 29.95 L 923.01 31.15 L 917.92 33.74 L 912.82 35.61 L 907.73 38.17 L 902.64 40.74 L 897.55 42.38 L 892.82 42.48 L 888.45 45.02 L 884.09 39.77 L 879.72 41.54 L 875.36 36.31 L 870.99 37.98 L 866.63 40.05 L 862.26 42.47 L 857.90 44.82 L 853.53 47.28 L 849.17 42.10 L 844.80 36.82 L 840.44 39.40 L 836.07 41.95 L 831.71 44.23 L 827.34 41.92 L 822.98 36.69 L 818.61 39.50 L 814.25 34.20 L 809.88 35.98 L 805.52 35.54 L 798.24 30.20 L 788.06 32.81 L 777.87 34.47 L 767.69 36.18 L 757.50 35.24 Z" fill="#d0d0d0" fill-opacity="0.5" stroke="none"/>
<path d="M 938.29 25.95 L 943.38 25.95 L 948.47 25.95 L 953.56 25.95 L 958.66 25.95 L 963.75 25.95 L 968.84 25.95 L 973.94 25.95 L 979.03 25.95 L 984.12 25.95 L 992.40 25.95 L 1003.85 25.95 L 1015.31 25.95 L 1026.77 25.95 L 1038.23 25.95 L 1049.69 25.95 L 1061.15 25.95 L 1072.60 25.95 L 1087.50 25.95 L 1105.83 25.95 L 1124.17 25.95 L 1142.50 25.95 L 1142.50 27.67 L 1124.17 29.67 L 1105.83 30.88 L 1087.50 29.77 L 1072.60 32.41 L 1061.15 34.63 L 1049.69 36.44 L 1038.23 38.28 L 1026.77 32.96 L 1015.31 33.39 L 1003.85 28.03 L 992.40 30.51 L 984.12 30.87 L 979.03 32.79 L 973.94 33.04 L 968.84 35.63 L 963.75 37.31 L 958.66 39.31 L 953.56 39.61 L 948.47 34.30 L 943.38 36.56 L 938.29 31.29 Z" fill="#d0d0d0" fill-opacity="0.5" stroke="none"/>
<polyline fill="none" stroke="#111" stroke-width="1.2" points="115.83,53.67 170.83,51.94 189.17,50.15 207.50,49.71 225.83,47.71 244.17,45.39 258.43,42.79 268.61,41.66 278.80,40.68 288.98,45.91 299.17,43.51 309.35,44.28 319.54,42.67 329.72,40.28 339.91,45.50 351.55,44.80 364.64,49.98 377.74,48.47 390.83,53.62 403.93,51.07 417.02,51.42 430.12,49.75 443.21,51.53 456.31,49.52 469.40,47.47 482.50,46.79 495.60,44.22 508.69,43.59 521.79,41.51 539.79,40.09 562.71,37.80 585.62,36.40 608.54,36.79 624.58,36.27 633.75,35.18 642.92,32.58 652.08,29.96 661.25,35.30 670.42,32.69 679.58,32.66 688.75,32.34 697.92,32.05 707.08,37.37 716.76,35.32 726.94,32.71 737.13,32.79 747.31,29.95 757.50,35.24 767.69,36.18 777.87,34.47 788.06,32.81 798.24,30.20 805.52,35.54 809.88,35.98 814.25,34.20 818.61,39.50 822.98,36.69 827.34,41.92 831.71,44.23 836.07,41.95 840.44,39.40 844.80,36.82 849.17,42.10 853.53,47.28 857.90,44.82 862.26,42.47 866.63,40.05 870.99,37.98 875.36,36.31 879.72,41.54 884.09,39.77 888.45,45.02 892.82,42.48 897.55,42.38 902.64,40.74 907.73,38.17 912.82,35.61 917.92,33.74 923.01,31.15 928.10,28.79 933.19,25.95 938.29,31.29 943.38,36.56 948.47,34.30 953.56,39.61 958.66,39.31 963.75,37.31 968.84,35.63 973.94,33.04 979.03,32.79 984.12,30.87 992.40,30.51 1003.85,28.03 1015.31,33.39 1026.77,32.96 1038.23,38.28 1049.69,36.44 1061.15,34.63 1072.60,32.41 1087.50,29.77 1105.83,30.88 1124.17,29.67 1142.50,27.67 1160.83,25.00"/>
<text x="15" y="287.5" transform="rotate(-90 15,287.5)" text-anchor="middle" font-family="sans-serif" font-size="12" fill="#333">USD</text>
</svg>