<svg xmlns="http://www.w3.org/2000/svg" width="1200" height="600" viewBox="0 0 1200 600">
<desc>Equity curve with drawdown fill; x-axis is months only (no exact timestamps)</desc>
<text x="600.0" y="18.0" text-anchor="middle" font-family="sans-serif" font-size="14">Portfolio 2020 (UTC)</text>
<rect x="70" y="25" width="1100" height="525" fill="white" stroke="#ccc" />
<line x1="70" y1="550.00" x2="1170" y2="550.00" stroke="#eee"/>
<text x="62" y="554.0" text-anchor="end" font-family="sans-serif" font-size="11" fill="#555">0.00</text>
<line x1="70" y1="445.00" x2="1170" y2="445.00" stroke="#eee"/>
<text x="62" y="449.0" text-anchor="end" font-family="sans-serif" font-size="11" fill="#555">184252</text>
<line x1="70" y1="340.00" x2="1170" y2="340.00" stroke="#eee"/>
<text x="62" y="344.0" text-anchor="end" font-family="sans-serif" font-size="11" fill="#555">368505</text>
<line x1="70" y1="235.00" x2="1170" y2="235.00" stroke="#eee"/>
<text x="62" y="239.0" text-anchor="end" font-family="sans-serif" font-size="11" fill="#555">552757</text>
<line x1="70" y1="130.00" x2="1170" y2="130.00" stroke="#eee"/>
<text x="62" y="134.0" text-anchor="end" font-family="sans-serif" font-size="11" fill="#555">737010</text>
<line x1="70" y1="25.00" x2="1170" y2="25.00" stroke="#eee"/>
<text x="62" y="29.0" text-anchor="end" font-family="sans-serif" font-size="11" fill="#555">921262</text>
<line x1="180.00" y1="25" x2="180.00" y2="550" stroke="#f2f2f2"/>
<line x1="290.00" y1="25" x2="290.00" y2="550" stroke="#f2f2f2"/>
<line x1="400.00" y1="25" x2="400.00" y2="550" stroke="#f2f2f2"/>
<line x1="510.00" y1="25" x2="510.00" y2="550" stroke="#f2f2f2"/>
<line x1="620.00" y1="25" x2="620.00" y2="550" stroke="#f2f2f2"/>
<line x1="730.00" y1="25" x2="730.00" y2="550" stroke="#f2f2f2"/>
<line x1="840.00" y1="25" x2="840.00" y2="550" stroke="#f2f2f2"/>
<line x1="950.00" y1="25" x2="950.00" y2="550" stroke="#f2f2f2"/>
<line x1="1060.00" y1="25" x2="1060.00" y2="550" stroke="#f2f2f2"/>
<text x="125.00" y="566.00" text-anchor="middle" font-family="sans-serif" font-size="11" fill="#444">Jan</text>
<text x="235.00" y="566.00" text-anchor="middle" font-family="sans-serif" font-size="11" fill="#444">Mar</text>
<text x="345.00" y="566.00" text-anchor="middle" font-family="sans-serif" font-size="11" fill="#444">Apr</text>
<text x="455.00" y="566.00" text-anchor="middle" font-family="sans-serif" font-size="11" fill="#444">May</text>
<text x="565.00" y="566.00" text-anchor="middle" font-family="sans-serif" font-size="11" fill="#444">Jun</text>
<text x="675.00" y="566.00" text-anchor="middle" font-family="sans-serif" font-size="11" fill="#444">Jul</text>
<text x="785.00" y="566.00" text-anchor="middle" font-family="sans-serif" font-size="11" fill="#444">Aug</text>
<text x="895.00" y="566.00" text-anchor="middle" font-family="sans-serif" font-size="11" fill="#444">Sep</text>
<text x="1005.00" y="566.00" text-anchor="middle" font-family="sans-serif" font-size="11" fill="#444">Nov</text>
<text x="1115.00" y="566.00" text-anchor="middle" font-family="sans-serif" font-size="11" fill="#444">Dec</text>
<line x1="70" y1="550" x2="1170" y2="550" stroke="#888"/>
<line x1="70" y1="25" x2="70" y2="550" stroke="#888"/>
<line x1="125.00" y1="550.00" x2="125.00" y2="556.00" stroke="#888"/>
<line x1="1115.00"   y1="550.00" x2="1115.00"   y2="556.00" stroke="#888"/>
<text x="125.00" y="582.00" text-anchor="start" font-family="sans-serif" font-size="11" fill="#333">Initial Balance: 762452</text>
<text x="1115.00"   y="582.00" text-anchor="end"   font-family="sans-serif" font-size="11" fill="#333">Ending Balance: 921262</text>
<path d="M 188.19 105.76 L 190.53 105.76 L 190.53 108.51 L 188.19 112.43 Z" fill="#d0d0d0" fill-opacity="0.5" stroke="none"/>
<path d="M 206.91 90.23 L 206.91 91.35 Z" fill="#d0d0d0" fill-opacity="0.5" stroke="none"/>
<path d="M 225.64 71.43 L 225.64 72.04 Z" fill="#d0d0d0" fill-opacity="0.5" stroke="none"/>
<path d="M 230.32 69.43 L 232.66 69.43 L 235.00 69.43 L 235.00 69.53 L 232.66 73.14 L 230.32 76.73 Z" fill="#d0d0d0" fill-opacity="0.5" stroke="none"/>
<path d="M 239.68 65.87 L 242.02 65.87 L 244.36 65.87 L 246.70 65.87 L 249.04 65.87 L 251.38 65.87 L 253.72 65.87 L 256.06 65.87 L 258.40 65.87 L 260.74 65.87 L 263.09 65.87 L 265.43 65.87 L 267.77 65.87 L 270.11 65.87 L 272.45 65.87 L 274.79 65.87 L 277.13 65.87 L 279.47 65.87 L 281.81 65.87 L 284.15 65.87 L 286.49 65.87 L 288.83 65.87 L 288.83 66.81 L 286.49 69.80 L 284.15 73.35 L 281.81 75.33 L 279.47 78.02 L 277.13 81.05 L 274.79 84.14 L 272.45 85.42 L 270.11 88.40 L 267.77 91.30 L 265.43 94.98 L 263.09 87.93 L 260.74 80.78 L 258.40 82.42 L 256.06 75.24 L 253.72 77.20 L 251.38 80.67 L 249.04 73.42 L 246.70 77.17 L 244.36 69.87 L 242.02 73.72 L 239.68 73.23 Z" fill="#d0d0d0" fill-opacity="0.5" stroke="none"/>
<path d="M 565.00 50.59 L 565.00 51.85 Z" fill="#d0d0d0" fill-opacity="0.5" stroke="none"/>
<path d="M 1005.00 27.75 L 1005.00 28.47 Z" fill="#d0d0d0" fill-opacity="0.5" stroke="none"/>
<polyline fill="none" stroke="#111" stroke-width="1.2" points="125.00,115.50 181.17,112.38 183.51,109.55 185.85,105.76 188.19,112.43 190.53,108.51 192.87,105.22 195.21,103.02 197.55,99.37 199.89,96.97 202.23,93.95 204.57,90.23 206.91,91.35 209.26,89.35 211.60,85.60 213.94,84.74 216.28,81.48 218.62,77.67 220.96,73.83 223.30,71.43 225.64,72.04 227.98,69.43 230.32,76.73 232.66,73.14 235.00,69.53 237.34,65.87 239.68,73.23 242.02,73.72 244.36,69.87 246.70,77.17 249.04,73.42 251.38,80.67 253.72,77.20 256.06,75.24 258.40,82.42 260.74,80.78 263.09,87.93 265.43,94.98 267.77,91.30 270.11,88.40 272.45,85.42 274.79,84.14 277.13,81.05 279.47,78.02 281.81,75.33 284.15,73.35 286.49,69.80 288.83,66.81 308.33,65.84 345.00,63.52 381.67,61.74 427.50,58.26 482.50,54.64 528.33,50.59 565.00,51.85 601.67,48.82 647.50,46.84 702.50,44.15 757.50,41.74 812.50,39.27 867.50,35.45 922.50,31.69 968.33,27.75 1005.00,28.47 1041.67,25.65 1115.00,25.00"/>
<text x="620.0" y="588" text-anchor="middle" font-family="sans-serif" font-size="12" fill="#333">Monthly Balance Curve</text>
<text x="15" y="287.5" transform="rotate(-90 15,287.5)" text-anchor="middle" font-family="sans-serif" font-size="12" fill="#333">Capital</text>
</svg>