<svg xmlns="http://www.w3.org/2000/svg" width="1200" height="600" viewBox="0 0 1200 600">
<desc>Equity curve with drawdown fill</desc>
<text x="600.0" y="18.0" text-anchor="middle" font-family="sans-serif" font-size="14">Portfolio 2015</text>
<rect x="70" y="25" width="1100" height="525" fill="white" stroke="#ccc" />
<line x1="70" y1="550.00" x2="1170" y2="550.00" stroke="#eee"/>
<text x="62" y="554.0" text-anchor="end" font-family="sans-serif" font-size="11" fill="#555">0.00</text>
<line x1="70" y1="445.00" x2="1170" y2="445.00" stroke="#eee"/>
<text x="62" y="449.0" text-anchor="end" font-family="sans-serif" font-size="11" fill="#555">52138</text>
<line x1="70" y1="340.00" x2="1170" y2="340.00" stroke="#eee"/>
<text x="62" y="344.0" text-anchor="end" font-family="sans-serif" font-size="11" fill="#555">104276</text>
<line x1="70" y1="235.00" x2="1170" y2="235.00" stroke="#eee"/>
<text x="62" y="239.0" text-anchor="end" font-family="sans-serif" font-size="11" fill="#555">156414</text>
<line x1="70" y1="130.00" x2="1170" y2="130.00" stroke="#eee"/>
<text x="62" y="134.0" text-anchor="end" font-family="sans-serif" font-size="11" fill="#555">208552</text>
<line x1="70" y1="25.00" x2="1170" y2="25.00" stroke="#eee"/>
<text x="62" y="29.0" text-anchor="end" font-family="sans-serif" font-size="11" fill="#555">260690</text>
<line x1="125.38" y1="25" x2="125.38" y2="550" stroke="#f2f2f2"/>
<text x="125.38" y="566" text-anchor="middle" font-family="sans-serif" font-size="11" fill="#555">Feb</text>
<line x1="213.59" y1="25" x2="213.59" y2="550" stroke="#f2f2f2"/>
<text x="213.59" y="566" text-anchor="middle" font-family="sans-serif" font-size="11" fill="#555">Mar</text>
<line x1="311.26" y1="25" x2="311.26" y2="550" stroke="#f2f2f2"/>
<text x="311.26" y="566" text-anchor="middle" font-family="sans-serif" font-size="11" fill="#555">Apr</text>
<line x1="405.77" y1="25" x2="405.77" y2="550" stroke="#f2f2f2"/>
<text x="405.77" y="566" text-anchor="middle" font-family="sans-serif" font-size="11" fill="#555">May</text>
<line x1="503.43" y1="25" x2="503.43" y2="550" stroke="#f2f2f2"/>
<text x="503.43" y="566" text-anchor="middle" font-family="sans-serif" font-size="11" fill="#555">Jun</text>
<line x1="597.94" y1="25" x2="597.94" y2="550" stroke="#f2f2f2"/>
<text x="597.94" y="566" text-anchor="middle" font-family="sans-serif" font-size="11" fill="#555">Jul</text>
<line x1="695.60" y1="25" x2="695.60" y2="550" stroke="#f2f2f2"/>
<text x="695.60" y="566" text-anchor="middle" font-family="sans-serif" font-size="11" fill="#555">Aug</text>
<line x1="793.26" y1="25" x2="793.26" y2="550" stroke="#f2f2f2"/>
<text x="793.26" y="566" text-anchor="middle" font-family="sans-serif" font-size="11" fill="#555">Sep</text>
<line x1="887.77" y1="25" x2="887.77" y2="550" stroke="#f2f2f2"/>
<text x="887.77" y="566" text-anchor="middle" font-family="sans-serif" font-size="11" fill="#555">Oct</text>
<line x1="985.43" y1="25" x2="985.43" y2="550" stroke="#f2f2f2"/>
<text x="985.43" y="566" text-anchor="middle" font-family="sans-serif" font-size="11" fill="#555">Nov</text>
<line x1="1079.94" y1="25" x2="1079.94" y2="550" stroke="#f2f2f2"/>
<text x="1079.94" y="566" text-anchor="middle" font-family="sans-serif" font-size="11" fill="#555">Dec</text>
<line x1="70" y1="550" x2="1170" y2="550" stroke="#888"/>
<line x1="70" y1="25" x2="70" y2="550" stroke="#888"/>
<path d="M 70.49 220.44 L 70.54 220.44 L 73.08 220.44 L 73.08 220.86 L 70.54 223.64 L 70.49 225.43 Z" fill="#d0d0d0" fill-opacity="0.5" stroke="none"/>
<path d="M 73.93 210.06 L 73.94 210.06 L 73.94 212.58 L 73.93 215.21 Z" fill="#d0d0d0" fill-opacity="0.5" stroke="none"/>
<path d="M 95.96 198.29 L 96.00 198.29 L 96.13 198.29 L 96.19 198.29 L 98.20 198.29 L 98.22 198.29 L 98.35 198.29 L 98.41 198.29 L 98.60 198.29 L 98.64 198.29 L 98.65 198.29 L 98.89 198.29 L 106.43 198.29 L 107.54 198.29 L 110.78 198.29 L 110.83 198.29 L 111.42 198.29 L 111.53 198.29 L 111.69 198.29 L 133.49 198.29 L 133.56 198.29 L 133.70 198.29 L 137.96 198.29 L 139.03 198.29 L 139.43 198.29 L 140.43 198.29 L 143.18 198.29 L 152.33 198.29 L 155.36 198.29 L 162.01 198.29 L 175.00 198.29 L 177.39 198.29 L 181.43 198.29 L 187.26 198.29 L 187.55 198.29 L 205.96 198.29 L 206.13 198.29 L 206.14 198.29 L 206.20 198.29 L 209.23 198.29 L 225.01 198.29 L 227.99 198.29 L 228.07 198.29 L 228.45 198.29 L 230.58 198.29 L 231.12 198.29 L 231.30 198.29 L 231.35 198.29 L 243.28 198.29 L 243.90 198.29 L 244.20 198.29 L 244.20 200.81 L 243.90 203.46 L 243.28 205.94 L 231.35 207.24 L 231.30 209.31 L 231.12 204.06 L 230.58 207.10 L 228.45 209.72 L 228.07 212.00 L 227.99 214.12 L 225.01 216.69 L 209.23 219.50 L 206.20 221.48 L 206.14 222.57 L 206.13 217.52 L 205.96 212.42 L 187.55 207.22 L 187.26 210.24 L 181.43 213.11 L 177.39 215.95 L 175.00 217.00 L 162.01 219.19 L 155.36 221.12 L 152.33 223.75 L 143.18 224.65 L 140.43 223.28 L 139.43 224.54 L 139.03 226.64 L 137.96 229.14 L 133.70 229.47 L 133.56 229.48 L 133.49 230.43 L 111.69 225.50 L 111.53 220.50 L 111.42 222.87 L 110.83 225.40 L 110.78 227.72 L 107.54 222.75 L 106.43 225.23 L 98.89 220.23 L 98.65 222.63 L 98.64 225.54 L 98.60 220.57 L 98.41 215.49 L 98.35 216.88 L 98.22 211.76 L 98.20 214.48 L 96.19 209.32 L 96.13 210.08 L 96.00 208.76 L 95.96 203.58 Z" fill="#d0d0d0" fill-opacity="0.5" stroke="none"/>
<path d="M 249.32 196.66 L 249.38 196.66 L 249.51 196.66 L 249.51 198.63 L 249.38 200.22 L 249.32 202.02 Z" fill="#d0d0d0" fill-opacity="0.5" stroke="none"/>
<path d="M 253.38 195.67 L 253.39 195.67 L 253.39 197.98 L 253.38 201.04 Z" fill="#d0d0d0" fill-opacity="0.5" stroke="none"/>
<path d="M 262.81 193.47 L 269.48 193.47 L 269.48 195.91 L 262.81 198.87 Z" fill="#d0d0d0" fill-opacity="0.5" stroke="none"/>
<path d="M 270.49 191.27 L 270.89 191.27 L 271.40 191.27 L 271.47 191.27 L 271.57 191.27 L 271.70 191.27 L 271.96 191.27 L 271.96 192.34 L 271.70 195.33 L 271.57 197.85 L 271.47 200.14 L 271.40 201.60 L 270.89 196.24 L 270.49 196.70 Z" fill="#d0d0d0" fill-opacity="0.5" stroke="none"/>
<path d="M 275.42 181.85 L 275.44 181.85 L 275.77 181.85 L 275.89 181.85 L 284.29 181.85 L 284.47 181.85 L 284.66 181.85 L 287.35 181.85 L 287.35 184.30 L 284.66 184.67 L 284.47 184.00 L 284.29 186.11 L 275.89 188.94 L 275.77 190.48 L 275.44 184.95 L 275.42 187.42 Z" fill="#d0d0d0" fill-opacity="0.5" stroke="none"/>
<path d="M 296.66 171.60 L 297.34 171.60 L 297.76 171.60 L 297.76 172.21 L 297.34 175.36 L 296.66 177.30 Z" fill="#d0d0d0" fill-opacity="0.5" stroke="none"/>
<path d="M 319.63 150.22 L 331.40 150.22 L 331.50 150.22 L 335.32 150.22 L 335.84 150.22 L 338.51 150.22 L 340.74 150.22 L 350.50 150.22 L 350.91 150.22 L 350.91 152.20 L 350.50 155.48 L 340.74 157.33 L 338.51 158.62 L 335.84 152.67 L 335.32 155.37 L 331.50 158.00 L 331.40 159.03 L 319.63 153.08 Z" fill="#d0d0d0" fill-opacity="0.5" stroke="none"/>
<path d="M 354.05 149.67 L 354.18 149.67 L 354.29 149.67 L 356.69 149.67 L 357.22 149.67 L 357.30 149.67 L 357.74 149.67 L 357.83 149.67 L 357.83 150.07 L 357.74 151.53 L 357.30 154.82 L 357.22 157.30 L 356.69 160.55 L 354.29 160.26 L 354.18 161.55 L 354.05 155.63 Z" fill="#d0d0d0" fill-opacity="0.5" stroke="none"/>
<path d="M 360.05 144.47 L 360.12 144.47 L 360.12 147.74 L 360.05 150.53 Z" fill="#d0d0d0" fill-opacity="0.5" stroke="none"/>
<path d="M 361.04 144.42 L 362.99 144.42 L 363.47 144.42 L 375.40 144.42 L 375.40 145.38 L 363.47 145.11 L 362.99 148.16 L 361.04 150.47 Z" fill="#d0d0d0" fill-opacity="0.5" stroke="none"/>
<path d="M 384.74 137.06 L 384.85 137.06 L 384.98 137.06 L 384.98 138.21 L 384.85 140.80 L 384.74 143.21 Z" fill="#d0d0d0" fill-opacity="0.5" stroke="none"/>
<path d="M 401.26 131.64 L 401.41 131.64 L 401.48 131.64 L 401.67 131.64 L 401.74 131.64 L 401.96 131.64 L 402.01 131.64 L 403.76 131.64 L 403.79 131.64 L 403.87 131.64 L 404.44 131.64 L 404.73 131.64 L 407.80 131.64 L 416.45 131.64 L 417.11 131.64 L 420.21 131.64 L 420.47 131.64 L 420.47 134.03 L 420.21 135.81 L 417.11 138.51 L 416.45 140.04 L 407.80 142.05 L 404.73 144.47 L 404.44 147.61 L 403.87 150.61 L 403.79 151.80 L 403.76 145.79 L 402.01 139.68 L 401.96 142.98 L 401.74 146.33 L 401.67 147.08 L 401.48 140.98 L 401.41 134.83 L 401.26 137.85 Z" fill="#d0d0d0" fill-opacity="0.5" stroke="none"/>
<path d="M 423.47 130.57 L 423.62 130.57 L 426.44 130.57 L 429.59 130.57 L 429.61 130.57 L 429.88 130.57 L 438.34 130.57 L 441.56 130.57 L 445.52 130.57 L 447.78 130.57 L 448.83 130.57 L 451.88 130.57 L 451.98 130.57 L 452.10 130.57 L 460.47 130.57 L 461.33 130.57 L 461.33 132.25 L 460.47 133.42 L 452.10 136.25 L 451.98 137.16 L 451.88 137.80 L 448.83 131.58 L 447.78 135.03 L 445.52 137.35 L 441.56 131.13 L 438.34 132.67 L 429.88 135.24 L 429.61 138.47 L 429.59 141.87 L 426.44 145.25 L 423.62 139.12 L 423.47 136.80 Z" fill="#d0d0d0" fill-opacity="0.5" stroke="none"/>
<path d="M 463.53 129.40 L 463.59 129.40 L 463.68 129.40 L 463.74 129.40 L 464.30 129.40 L 466.66 129.40 L 468.12 129.40 L 469.93 129.40 L 473.85 129.40 L 473.92 129.40 L 474.05 129.40 L 485.63 129.40 L 489.56 129.40 L 489.70 129.40 L 489.87 129.40 L 492.48 129.40 L 505.47 129.40 L 507.71 129.40 L 508.07 129.40 L 508.45 129.40 L 508.63 129.40 L 510.83 129.40 L 511.08 129.40 L 511.58 129.40 L 511.71 129.40 L 511.77 129.40 L 511.90 129.40 L 512.00 129.40 L 514.10 129.40 L 514.15 129.40 L 514.35 129.40 L 514.75 129.40 L 514.78 129.40 L 515.21 129.40 L 515.38 129.40 L 516.08 129.40 L 517.10 129.40 L 517.98 129.40 L 526.51 129.40 L 527.31 129.40 L 528.98 129.40 L 529.74 129.40 L 530.47 129.40 L 532.90 129.40 L 533.42 129.40 L 533.70 129.40 L 533.91 129.40 L 536.10 129.40 L 539.37 129.40 L 539.41 129.40 L 539.84 129.40 L 551.79 129.40 L 552.46 129.40 L 556.33 129.40 L 556.33 131.12 L 552.46 134.58 L 551.79 136.92 L 539.84 139.11 L 539.41 142.51 L 539.37 145.11 L 536.10 148.48 L 533.91 151.81 L 533.70 155.13 L 533.42 157.91 L 532.90 160.51 L 530.47 154.57 L 529.74 156.87 L 528.98 159.85 L 527.31 163.11 L 526.51 163.39 L 517.98 166.61 L 517.10 168.52 L 516.08 171.18 L 515.38 173.12 L 515.21 176.03 L 514.78 179.17 L 514.75 181.71 L 514.35 176.05 L 514.15 170.32 L 514.10 164.53 L 512.00 158.64 L 511.90 157.02 L 511.77 155.18 L 511.71 149.25 L 511.58 143.20 L 511.08 146.33 L 510.83 148.98 L 508.63 151.55 L 508.45 145.50 L 508.07 139.39 L 507.71 142.78 L 505.47 144.37 L 492.48 147.25 L 489.87 149.71 L 489.70 152.74 L 489.56 155.69 L 485.63 154.90 L 474.05 156.48 L 473.92 156.08 L 473.85 157.42 L 469.93 151.47 L 468.12 154.76 L 466.66 158.05 L 464.30 152.08 L 463.74 146.04 L 463.68 147.88 L 463.59 141.79 L 463.53 135.64 Z" fill="#d0d0d0" fill-opacity="0.5" stroke="none"/>
<path d="M 573.25 117.13 L 574.61 117.13 L 580.44 117.13 L 584.35 117.13 L 591.55 117.13 L 591.74 117.13 L 592.62 117.13 L 592.79 117.13 L 593.71 117.13 L 594.07 117.13 L 594.07 117.34 L 593.71 121.05 L 592.79 124.25 L 592.62 126.61 L 591.74 130.26 L 591.55 123.94 L 584.35 126.03 L 580.44 127.36 L 574.61 129.85 L 573.25 123.52 Z" fill="#d0d0d0" fill-opacity="0.5" stroke="none"/>
<path d="M 596.89 115.00 L 599.29 115.00 L 599.29 118.11 L 596.89 121.43 Z" fill="#d0d0d0" fill-opacity="0.5" stroke="none"/>
<path d="M 618.17 110.84 L 618.17 111.00 Z" fill="#d0d0d0" fill-opacity="0.5" stroke="none"/>
<path d="M 627.76 92.65 L 627.76 93.13 Z" fill="#d0d0d0" fill-opacity="0.5" stroke="none"/>
<path d="M 636.93 89.75 L 636.98 89.75 L 644.00 89.75 L 663.01 89.75 L 668.48 89.75 L 668.48 93.22 L 663.01 92.33 L 644.00 94.83 L 636.98 93.91 L 636.93 96.47 Z" fill="#d0d0d0" fill-opacity="0.5" stroke="none"/>
<path d="M 707.65 73.14 L 707.65 74.09 Z" fill="#d0d0d0" fill-opacity="0.5" stroke="none"/>
<path d="M 716.29 70.26 L 716.56 70.26 L 716.56 73.37 L 716.29 77.19 Z" fill="#d0d0d0" fill-opacity="0.5" stroke="none"/>
<path d="M 728.31 69.53 L 731.53 69.53 L 754.87 69.53 L 757.52 69.53 L 760.83 69.53 L 768.43 69.53 L 768.64 69.53 L 769.73 69.53 L 769.87 69.53 L 769.92 69.53 L 770.46 69.53 L 772.75 69.53 L 772.78 69.53 L 773.33 69.53 L 776.07 69.53 L 776.13 69.53 L 776.40 69.53 L 778.82 69.53 L 779.43 69.53 L 779.61 69.53 L 782.83 69.53 L 782.91 69.53 L 782.91 71.00 L 782.83 73.84 L 779.61 77.67 L 779.43 81.09 L 778.82 80.38 L 776.40 83.31 L 776.13 87.08 L 776.07 91.00 L 773.33 87.32 L 772.78 80.50 L 772.75 83.78 L 770.46 76.92 L 769.92 78.53 L 769.87 71.67 L 769.73 75.32 L 768.64 78.85 L 768.43 79.50 L 760.83 80.65 L 757.52 73.75 L 754.87 76.91 L 731.53 76.26 L 728.31 76.47 Z" fill="#d0d0d0" fill-opacity="0.5" stroke="none"/>
<path d="M 801.35 68.34 L 801.40 68.34 L 801.54 68.34 L 805.08 68.34 L 816.04 68.34 L 823.74 68.34 L 827.06 68.34 L 842.61 68.34 L 846.16 68.34 L 848.87 68.34 L 858.47 68.34 L 880.58 68.34 L 892.92 68.34 L 892.98 68.34 L 893.40 68.34 L 905.65 68.34 L 910.97 68.34 L 911.63 68.34 L 911.63 69.79 L 910.97 70.96 L 905.65 73.34 L 893.40 76.49 L 892.98 77.12 L 892.92 79.68 L 880.58 78.87 L 858.47 77.89 L 848.87 76.98 L 846.16 79.67 L 842.61 83.46 L 827.06 81.95 L 823.74 80.45 L 816.04 84.23 L 805.08 85.20 L 801.54 88.95 L 801.40 82.15 L 801.35 75.30 Z" fill="#d0d0d0" fill-opacity="0.5" stroke="none"/>
<path d="M 933.79 66.16 L 933.79 66.98 Z" fill="#d0d0d0" fill-opacity="0.5" stroke="none"/>
<path d="M 955.92 59.34 L 956.02 59.34 L 958.82 59.34 L 975.32 59.34 L 975.53 59.34 L 981.16 59.34 L 981.16 61.68 L 975.53 64.29 L 975.32 60.59 L 958.82 64.68 L 956.02 68.56 L 955.92 61.53 Z" fill="#d0d0d0" fill-opacity="0.5" stroke="none"/>
<path d="M 1003.16 58.10 L 1003.16 58.12 Z" fill="#d0d0d0" fill-opacity="0.5" stroke="none"/>
<path d="M 1062.39 38.01 L 1063.28 38.01 L 1063.28 41.29 L 1062.39 45.29 Z" fill="#d0d0d0" fill-opacity="0.5" stroke="none"/>
<path d="M 1088.17 32.94 L 1088.32 32.94 L 1088.34 32.94 L 1088.41 32.94 L 1088.45 32.94 L 1088.58 32.94 L 1090.46 32.94 L 1091.16 32.94 L 1091.39 32.94 L 1091.73 32.94 L 1107.01 32.94 L 1107.54 32.94 L 1113.42 32.94 L 1113.42 34.13 L 1107.54 36.95 L 1107.01 40.27 L 1091.73 43.88 L 1091.39 46.35 L 1091.16 49.37 L 1090.46 53.33 L 1088.58 46.13 L 1088.45 48.86 L 1088.41 52.02 L 1088.34 44.84 L 1088.32 37.55 L 1088.17 33.80 Z" fill="#d0d0d0" fill-opacity="0.5" stroke="none"/>
<polyline fill="none" stroke="#111" stroke-width="1.2" points="70.00,220.44 70.49,225.43 70.54,223.64 73.08,220.86 73.09,217.90 73.22,215.07 73.72,212.50 73.79,210.06 73.93,215.21 73.94,212.58 76.91,210.00 77.07,207.97 85.74,206.32 92.64,205.61 92.67,202.55 95.68,199.46 95.80,198.29 95.96,203.58 96.00,208.76 96.13,210.08 96.19,209.32 98.20,214.48 98.22,211.76 98.35,216.88 98.41,215.49 98.60,220.57 98.64,225.54 98.65,222.63 98.89,220.23 106.43,225.23 107.54,222.75 110.78,227.72 110.83,225.40 111.42,222.87 111.53,220.50 111.69,225.50 133.49,230.43 133.56,229.48 133.70,229.47 137.96,229.14 139.03,226.64 139.43,224.54 140.43,223.28 143.18,224.65 152.33,223.75 155.36,221.12 162.01,219.19 175.00,217.00 177.39,215.95 181.43,213.11 187.26,210.24 187.55,207.22 205.96,212.42 206.13,217.52 206.14,222.57 206.20,221.48 209.23,219.50 225.01,216.69 227.99,214.12 228.07,212.00 228.45,209.72 230.58,207.10 231.12,204.06 231.30,209.31 231.35,207.24 243.28,205.94 243.90,203.46 244.20,200.81 246.30,197.88 246.68,197.72 247.60,196.66 249.32,202.02 249.38,200.22 249.51,198.63 250.02,195.67 253.38,201.04 253.39,197.98 253.52,195.35 253.85,193.47 262.81,198.87 269.48,195.91 269.64,192.77 269.75,191.27 270.49,196.70 270.89,196.24 271.40,201.60 271.47,200.14 271.57,197.85 271.70,195.33 271.96,192.34 272.09,189.51 272.52,187.17 275.21,184.77 275.29,181.85 275.42,187.42 275.44,184.95 275.77,190.48 275.89,188.94 284.29,186.11 284.47,184.00 284.66,184.67 287.35,184.30 287.83,181.22 287.86,178.11 288.02,177.20 293.63,175.50 294.18,172.69 294.41,171.83 294.87,171.60 296.66,177.30 297.34,175.36 297.76,172.21 297.78,169.12 309.43,166.30 313.03,163.67 315.40,161.12 316.24,158.12 319.24,154.85 319.33,151.39 319.44,150.22 319.63,153.08 331.40,159.03 331.50,158.00 335.32,155.37 335.84,152.67 338.51,158.62 340.74,157.33 350.50,155.48 350.91,152.20 354.01,149.67 354.05,155.63 354.18,161.55 354.29,160.26 356.69,160.55 357.22,157.30 357.30,154.82 357.74,151.53 357.83,150.07 358.67,146.74 359.69,144.47 360.05,150.53 360.12,147.74 360.29,144.42 361.04,150.47 362.99,148.16 363.47,145.11 375.40,145.38 376.37,143.44 379.19,140.98 382.04,139.03 382.64,137.06 384.74,143.21 384.85,140.80 384.98,138.21 385.25,136.66 395.31,134.78 398.34,131.64 401.26,137.85 401.41,134.83 401.48,140.98 401.67,147.08 401.74,146.33 401.96,142.98 402.01,139.68 403.76,145.79 403.79,151.80 403.87,150.61 404.44,147.61 404.73,144.47 407.80,142.05 416.45,140.04 417.11,138.51 420.21,135.81 420.47,134.03 422.08,130.57 423.47,136.80 423.62,139.12 426.44,145.25 429.59,141.87 429.61,138.47 429.88,135.24 438.34,132.67 441.56,131.13 445.52,137.35 447.78,135.03 448.83,131.58 451.88,137.80 451.98,137.16 452.10,136.25 460.47,133.42 461.33,132.25 461.86,129.40 463.53,135.64 463.59,141.79 463.68,147.88 463.74,146.04 464.30,152.08 466.66,158.05 468.12,154.76 469.93,151.47 473.85,157.42 473.92,156.08 474.05,156.48 485.63,154.90 489.56,155.69 489.70,152.74 489.87,149.71 492.48,147.25 505.47,144.37 507.71,142.78 508.07,139.39 508.45,145.50 508.63,151.55 510.83,148.98 511.08,146.33 511.58,143.20 511.71,149.25 511.77,155.18 511.90,157.02 512.00,158.64 514.10,164.53 514.15,170.32 514.35,176.05 514.75,181.71 514.78,179.17 515.21,176.03 515.38,173.12 516.08,171.18 517.10,168.52 517.98,166.61 526.51,163.39 527.31,163.11 528.98,159.85 529.74,156.87 530.47,154.57 532.90,160.51 533.42,157.91 533.70,155.13 533.91,151.81 536.10,148.48 539.37,145.11 539.41,142.51 539.84,139.11 551.79,136.92 552.46,134.58 556.33,131.12 556.37,128.71 558.25,127.03 559.30,123.52 561.22,120.68 570.70,117.13 573.25,123.52 574.61,129.85 580.44,127.36 584.35,126.03 591.55,123.94 591.74,130.26 592.62,126.61 592.79,124.25 593.71,121.05 594.07,117.34 596.66,115.00 596.89,121.43 599.29,118.11 613.56,114.41 614.60,110.84 618.17,111.00 618.62,108.97 621.16,105.35 621.89,101.98 622.16,98.68 624.30,95.58 626.24,92.65 627.76,93.13 636.80,89.75 636.93,96.47 636.98,93.91 644.00,94.83 663.01,92.33 668.48,93.22 680.93,89.50 680.97,86.24 688.64,82.48 694.22,78.51 694.36,75.96 694.48,73.22 694.87,73.14 707.65,74.09 716.27,70.26 716.29,77.19 716.56,73.37 726.27,69.53 728.31,76.47 731.53,76.26 754.87,76.91 757.52,73.75 760.83,80.65 768.43,79.50 768.64,78.85 769.73,75.32 769.87,71.67 769.92,78.53 770.46,76.92 772.75,83.78 772.78,80.50 773.33,87.32 776.07,91.00 776.13,87.08 776.40,83.31 778.82,80.38 779.43,81.09 779.61,77.67 782.83,73.84 782.91,71.00 794.45,68.34 801.35,75.30 801.40,82.15 801.54,88.95 805.08,85.20 816.04,84.23 823.74,80.45 827.06,81.95 842.61,83.46 846.16,79.67 848.87,76.98 858.47,77.89 880.58,78.87 892.92,79.68 892.98,77.12 893.40,76.49 905.65,73.34 910.97,70.96 911.63,69.79 914.17,67.62 933.06,66.16 933.79,66.98 955.70,63.09 955.71,59.34 955.92,61.53 956.02,68.56 958.82,64.68 975.32,60.59 975.53,64.29 981.16,61.68 996.81,58.10 1003.16,58.12 1003.24,55.54 1021.27,53.40 1022.00,49.45 1022.06,45.56 1032.66,43.38 1042.37,39.36 1044.35,38.01 1062.39,45.29 1063.28,41.29 1087.90,37.27 1087.90,32.94 1088.17,33.80 1088.32,37.55 1088.34,44.84 1088.41,52.02 1088.45,48.86 1088.58,46.13 1090.46,53.33 1091.16,49.37 1091.39,46.35 1091.73,43.88 1107.01,40.27 1107.54,36.95 1113.42,34.13 1122.96,31.83 1126.00,28.61 1130.33,28.40 1134.67,26.37 1170.00,25.00"/>
<text x="620.0" y="588" text-anchor="middle" font-family="sans-serif" font-size="12" fill="#333">UTC time</text>
<text x="15" y="287.5" transform="rotate(-90 15,287.5)" text-anchor="middle" font-family="sans-serif" font-size="12" fill="#333">Capital</text>
</svg>