<svg xmlns="http://www.w3.org/2000/svg" width="1200" height="600" viewBox="0 0 1200 600">
<desc>Equity curve with drawdown fill; x-axis is months only (no exact timestamps)</desc>
<text x="600.0" y="18.0" text-anchor="middle" font-family="sans-serif" font-size="14">Balance Curve 2008 (UTC)</text>
<rect x="70" y="25" width="1100" height="525" fill="white" stroke="#ccc" />
<line x1="70" y1="550.00" x2="1170" y2="550.00" stroke="#eee"/>
<text x="62" y="554.0" text-anchor="end" font-family="sans-serif" font-size="11" fill="#555">0.00</text>
<line x1="70" y1="445.00" x2="1170" y2="445.00" stroke="#eee"/>
<text x="62" y="449.0" text-anchor="end" font-family="sans-serif" font-size="11" fill="#555">31116</text>
<line x1="70" y1="340.00" x2="1170" y2="340.00" stroke="#eee"/>
<text x="62" y="344.0" text-anchor="end" font-family="sans-serif" font-size="11" fill="#555">62232</text>
<line x1="70" y1="235.00" x2="1170" y2="235.00" stroke="#eee"/>
<text x="62" y="239.0" text-anchor="end" font-family="sans-serif" font-size="11" fill="#555">93349</text>
<line x1="70" y1="130.00" x2="1170" y2="130.00" stroke="#eee"/>
<text x="62" y="134.0" text-anchor="end" font-family="sans-serif" font-size="11" fill="#555">124465</text>
<line x1="70" y1="25.00" x2="1170" y2="25.00" stroke="#eee"/>
<text x="62" y="29.0" text-anchor="end" font-family="sans-serif" font-size="11" fill="#555">155581</text>
<line x1="161.67" y1="25" x2="161.67" y2="550" stroke="#f2f2f2"/>
<line x1="253.33" y1="25" x2="253.33" y2="550" stroke="#f2f2f2"/>
<line x1="345.00" y1="25" x2="345.00" y2="550" stroke="#f2f2f2"/>
<line x1="436.67" y1="25" x2="436.67" y2="550" stroke="#f2f2f2"/>
<line x1="528.33" y1="25" x2="528.33" y2="550" stroke="#f2f2f2"/>
<line x1="620.00" y1="25" x2="620.00" y2="550" stroke="#f2f2f2"/>
<line x1="711.67" y1="25" x2="711.67" y2="550" stroke="#f2f2f2"/>
<line x1="803.33" y1="25" x2="803.33" y2="550" stroke="#f2f2f2"/>
<line x1="895.00" y1="25" x2="895.00" y2="550" stroke="#f2f2f2"/>
<line x1="986.67" y1="25" x2="986.67" y2="550" stroke="#f2f2f2"/>
<line x1="1078.33" y1="25" x2="1078.33" y2="550" stroke="#f2f2f2"/>
<text x="115.83" y="566.00" text-anchor="middle" font-family="sans-serif" font-size="11" fill="#444">Jan</text>
<text x="207.50" y="566.00" text-anchor="middle" font-family="sans-serif" font-size="11" fill="#444">Feb</text>
<text x="299.17" y="566.00" text-anchor="middle" font-family="sans-serif" font-size="11" fill="#444">Mar</text>
<text x="390.83" y="566.00" text-anchor="middle" font-family="sans-serif" font-size="11" fill="#444">Apr</text>
<text x="482.50" y="566.00" text-anchor="middle" font-family="sans-serif" font-size="11" fill="#444">May</text>
<text x="574.17" y="566.00" text-anchor="middle" font-family="sans-serif" font-size="11" fill="#444">Jun</text>
<text x="665.83" y="566.00" text-anchor="middle" font-family="sans-serif" font-size="11" fill="#444">Jul</text>
<text x="757.50" y="566.00" text-anchor="middle" font-family="sans-serif" font-size="11" fill="#444">Aug</text>
<text x="849.17" y="566.00" text-anchor="middle" font-family="sans-serif" font-size="11" fill="#444">Sep</text>
<text x="940.83" y="566.00" text-anchor="middle" font-family="sans-serif" font-size="11" fill="#444">Oct</text>
<text x="1032.50" y="566.00" text-anchor="middle" font-family="sans-serif" font-size="11" fill="#444">Nov</text>
<text x="1124.17" y="566.00" text-anchor="middle" font-family="sans-serif" font-size="11" fill="#444">Dec</text>
<line x1="70" y1="550" x2="1170" y2="550" stroke="#888"/>
<line x1="70" y1="25" x2="70" y2="550" stroke="#888"/>
<line x1="74.58" y1="550.00" x2="74.58" y2="556.00" stroke="#888"/>
<line x1="1169.08"   y1="550.00" x2="1169.08"   y2="556.00" stroke="#888"/>
<text x="74.58" y="582.00" text-anchor="start" font-family="sans-serif" font-size="11" fill="#333">Initial Balance: 126135</text>
<text x="1169.08"   y="582.00" text-anchor="end"   font-family="sans-serif" font-size="11" fill="#333">Ending Balance: 154333</text>
<path d="M 157.08 103.69 L 184.58 103.69 L 230.42 103.69 L 230.42 105.92 L 184.58 108.34 L 157.08 110.37 Z" fill="#d0d0d0" fill-opacity="0.5" stroke="none"/>
<path d="M 272.43 101.09 L 280.07 101.09 L 287.71 101.09 L 287.71 102.21 L 280.07 105.07 L 272.43 107.90 Z" fill="#d0d0d0" fill-opacity="0.5" stroke="none"/>
<path d="M 310.62 97.82 L 318.26 97.82 L 325.90 97.82 L 333.54 97.82 L 341.18 97.82 L 348.82 97.82 L 356.46 97.82 L 364.10 97.82 L 371.74 97.82 L 379.38 97.82 L 387.01 97.82 L 394.65 97.82 L 402.29 97.82 L 409.93 97.82 L 417.57 97.82 L 425.21 97.82 L 432.85 97.82 L 459.58 97.82 L 505.42 97.82 L 535.97 97.82 L 551.25 97.82 L 566.53 97.82 L 581.81 97.82 L 597.08 97.82 L 612.36 97.82 L 629.17 97.82 L 647.50 97.82 L 665.83 97.82 L 684.17 97.82 L 702.50 97.82 L 718.21 97.82 L 718.21 100.71 L 702.50 104.41 L 684.17 103.92 L 665.83 104.19 L 647.50 107.52 L 629.17 110.40 L 612.36 114.03 L 597.08 107.31 L 581.81 109.44 L 566.53 110.21 L 551.25 113.11 L 535.97 116.71 L 505.42 119.71 L 459.58 122.55 L 432.85 125.34 L 425.21 128.02 L 417.57 121.50 L 409.93 122.09 L 402.29 123.68 L 394.65 117.10 L 387.01 110.43 L 379.38 113.72 L 371.74 115.19 L 364.10 113.76 L 356.46 111.02 L 348.82 114.38 L 341.18 107.66 L 333.54 107.84 L 325.90 109.53 L 318.26 102.74 L 310.62 104.68 Z" fill="#d0d0d0" fill-opacity="0.5" stroke="none"/>
<path d="M 816.29 68.36 L 818.28 68.36 L 820.27 68.36 L 822.26 68.36 L 824.26 68.36 L 826.25 68.36 L 828.24 68.36 L 830.24 68.36 L 832.23 68.36 L 834.22 68.36 L 836.21 68.36 L 838.21 68.36 L 840.20 68.36 L 842.19 68.36 L 844.18 68.36 L 846.18 68.36 L 848.17 68.36 L 850.16 68.36 L 852.16 68.36 L 854.15 68.36 L 856.14 68.36 L 858.13 68.36 L 860.13 68.36 L 862.12 68.36 L 864.11 68.36 L 866.11 68.36 L 868.10 68.36 L 870.09 68.36 L 872.08 68.36 L 874.08 68.36 L 876.07 68.36 L 878.06 68.36 L 880.05 68.36 L 882.05 68.36 L 884.04 68.36 L 886.03 68.36 L 888.03 68.36 L 890.02 68.36 L 892.01 68.36 L 894.00 68.36 L 895.54 68.36 L 896.62 68.36 L 897.70 68.36 L 898.77 68.36 L 899.85 68.36 L 900.93 68.36 L 902.01 68.36 L 903.09 68.36 L 904.17 68.36 L 905.25 68.36 L 906.32 68.36 L 907.40 68.36 L 908.48 68.36 L 909.56 68.36 L 910.64 68.36 L 911.72 68.36 L 912.79 68.36 L 913.87 68.36 L 914.95 68.36 L 916.03 68.36 L 917.11 68.36 L 918.19 68.36 L 919.26 68.36 L 920.34 68.36 L 921.42 68.36 L 922.50 68.36 L 923.58 68.36 L 924.66 68.36 L 925.74 68.36 L 926.81 68.36 L 927.89 68.36 L 928.97 68.36 L 930.05 68.36 L 931.13 68.36 L 932.21 68.36 L 933.28 68.36 L 934.36 68.36 L 935.44 68.36 L 936.52 68.36 L 937.60 68.36 L 938.68 68.36 L 939.75 68.36 L 940.83 68.36 L 941.91 68.36 L 942.99 68.36 L 944.07 68.36 L 945.15 68.36 L 946.23 68.36 L 947.30 68.36 L 948.38 68.36 L 949.46 68.36 L 950.54 68.36 L 951.62 68.36 L 952.70 68.36 L 953.77 68.36 L 954.85 68.36 L 955.93 68.36 L 957.01 68.36 L 958.09 68.36 L 959.17 68.36 L 960.25 68.36 L 961.32 68.36 L 962.40 68.36 L 963.48 68.36 L 964.56 68.36 L 965.64 68.36 L 966.72 68.36 L 967.79 68.36 L 968.87 68.36 L 969.95 68.36 L 971.03 68.36 L 972.11 68.36 L 973.19 68.36 L 974.26 68.36 L 975.34 68.36 L 976.42 68.36 L 977.50 68.36 L 978.58 68.36 L 979.66 68.36 L 980.74 68.36 L 981.81 68.36 L 982.89 68.36 L 983.97 68.36 L 985.05 68.36 L 986.13 68.36 L 987.76 68.36 L 989.94 68.36 L 992.12 68.36 L 994.31 68.36 L 996.49 68.36 L 998.67 68.36 L 1000.85 68.36 L 1003.04 68.36 L 1005.22 68.36 L 1007.40 68.36 L 1009.58 68.36 L 1011.77 68.36 L 1013.95 68.36 L 1016.13 68.36 L 1018.31 68.36 L 1020.50 68.36 L 1022.68 68.36 L 1024.86 68.36 L 1027.04 68.36 L 1029.23 68.36 L 1031.41 68.36 L 1033.59 68.36 L 1035.77 68.36 L 1037.96 68.36 L 1040.14 68.36 L 1042.32 68.36 L 1044.50 68.36 L 1046.69 68.36 L 1048.87 68.36 L 1051.05 68.36 L 1053.23 68.36 L 1055.42 68.36 L 1057.60 68.36 L 1059.78 68.36 L 1061.96 68.36 L 1064.15 68.36 L 1066.33 68.36 L 1068.51 68.36 L 1070.69 68.36 L 1072.88 68.36 L 1075.06 68.36 L 1077.24 68.36 L 1079.25 68.36 L 1081.08 68.36 L 1082.92 68.36 L 1082.92 68.52 L 1081.08 70.35 L 1079.25 74.19 L 1077.24 76.80 L 1075.06 69.53 L 1072.88 73.38 L 1070.69 77.20 L 1068.51 78.07 L 1066.33 80.60 L 1064.15 82.73 L 1061.96 85.72 L 1059.78 88.30 L 1057.60 91.58 L 1055.42 84.52 L 1053.23 87.97 L 1051.05 91.40 L 1048.87 94.09 L 1046.69 97.45 L 1044.50 101.10 L 1042.32 104.28 L 1040.14 97.35 L 1037.96 100.01 L 1035.77 102.68 L 1033.59 105.63 L 1031.41 107.64 L 1029.23 109.63 L 1027.04 111.42 L 1024.86 114.68 L 1022.68 118.18 L 1020.50 121.09 L 1018.31 122.60 L 1016.13 126.07 L 1013.95 129.59 L 1011.77 129.90 L 1009.58 123.36 L 1007.40 126.83 L 1005.22 129.82 L 1003.04 123.28 L 1000.85 116.64 L 998.67 115.96 L 996.49 118.20 L 994.31 121.35 L 992.12 124.06 L 989.94 124.40 L 987.76 117.78 L 986.13 117.74 L 985.05 121.07 L 983.97 114.45 L 982.89 107.67 L 981.81 111.11 L 980.74 110.72 L 979.66 103.89 L 978.58 105.63 L 977.50 108.15 L 976.42 108.80 L 975.34 111.77 L 974.26 105.05 L 973.19 98.19 L 972.11 91.18 L 971.03 93.44 L 969.95 96.64 L 968.87 100.06 L 967.79 99.59 L 966.72 92.61 L 965.64 93.20 L 964.56 96.64 L 963.48 89.66 L 962.40 93.37 L 961.32 96.47 L 960.25 100.13 L 959.17 103.50 L 958.09 106.04 L 957.01 99.15 L 955.93 102.79 L 954.85 106.28 L 953.77 99.40 L 952.70 102.16 L 951.62 105.77 L 950.54 108.34 L 949.46 109.01 L 948.38 102.17 L 947.30 105.17 L 946.23 106.13 L 945.15 109.72 L 944.07 113.29 L 942.99 116.34 L 941.91 109.71 L 940.83 113.08 L 939.75 116.34 L 938.68 109.69 L 937.60 102.91 L 936.52 106.51 L 935.44 99.63 L 934.36 102.89 L 933.28 103.00 L 932.21 106.24 L 931.13 109.06 L 930.05 111.70 L 928.97 113.29 L 927.89 106.51 L 926.81 108.22 L 925.74 111.11 L 924.66 110.48 L 923.58 114.03 L 922.50 117.56 L 921.42 110.89 L 920.34 104.08 L 919.26 106.17 L 918.19 99.29 L 917.11 92.35 L 916.03 85.28 L 914.95 87.68 L 913.87 91.41 L 912.79 92.51 L 911.72 90.99 L 910.64 94.32 L 909.56 97.69 L 908.48 101.02 L 907.40 103.76 L 906.32 106.81 L 905.25 109.59 L 904.17 102.76 L 903.09 106.40 L 902.01 110.01 L 900.93 113.58 L 899.85 116.91 L 898.77 120.42 L 897.70 113.80 L 896.62 107.05 L 895.54 107.16 L 894.00 110.79 L 892.01 113.18 L 890.02 106.42 L 888.03 99.69 L 886.03 103.63 L 884.04 107.28 L 882.05 100.44 L 880.05 93.49 L 878.06 96.32 L 876.07 98.80 L 874.08 99.90 L 872.08 100.56 L 870.09 103.47 L 868.10 105.11 L 866.11 98.24 L 864.11 101.31 L 862.12 104.50 L 860.13 97.62 L 858.13 100.59 L 856.14 93.68 L 854.15 96.69 L 852.16 89.74 L 850.16 82.65 L 848.17 85.25 L 846.18 78.09 L 844.18 70.83 L 842.19 73.77 L 840.20 75.40 L 838.21 78.58 L 836.21 80.22 L 834.22 73.00 L 832.23 76.88 L 830.24 77.63 L 828.24 70.38 L 826.25 73.56 L 824.26 76.26 L 822.26 68.98 L 820.27 69.13 L 818.28 72.67 L 816.29 75.64 Z" fill="#d0d0d0" fill-opacity="0.5" stroke="none"/>
<path d="M 1086.58 66.38 L 1088.42 66.38 L 1090.25 66.38 L 1092.08 66.38 L 1093.92 66.38 L 1095.75 66.38 L 1097.58 66.38 L 1099.42 66.38 L 1101.25 66.38 L 1101.25 67.83 L 1099.42 70.93 L 1097.58 74.47 L 1095.75 73.63 L 1093.92 77.13 L 1092.08 79.28 L 1090.25 81.09 L 1088.42 73.83 L 1086.58 73.70 Z" fill="#d0d0d0" fill-opacity="0.5" stroke="none"/>
<path d="M 1114.08 54.04 L 1115.92 54.04 L 1117.75 54.04 L 1119.58 54.04 L 1121.42 54.04 L 1123.25 54.04 L 1125.08 54.04 L 1126.92 54.04 L 1128.75 54.04 L 1130.58 54.04 L 1132.42 54.04 L 1134.25 54.04 L 1136.08 54.04 L 1136.08 56.27 L 1134.25 59.74 L 1132.42 62.88 L 1130.58 66.86 L 1128.75 69.93 L 1126.92 62.53 L 1125.08 65.75 L 1123.25 67.83 L 1121.42 69.49 L 1119.58 72.54 L 1117.75 76.30 L 1115.92 68.98 L 1114.08 61.56 Z" fill="#d0d0d0" fill-opacity="0.5" stroke="none"/>
<path d="M 1139.75 53.75 L 1141.58 53.75 L 1141.58 57.78 L 1139.75 61.28 Z" fill="#d0d0d0" fill-opacity="0.5" stroke="none"/>
<path d="M 1156.25 36.47 L 1158.08 36.47 L 1158.08 40.21 L 1156.25 44.22 Z" fill="#d0d0d0" fill-opacity="0.5" stroke="none"/>
<path d="M 1167.25 25.00 L 1169.08 25.00 L 1169.08 29.21 L 1167.25 32.85 Z" fill="#d0d0d0" fill-opacity="0.5" stroke="none"/>
<polyline fill="none" stroke="#111" stroke-width="1.2" points="74.58,124.36 83.75,121.48 92.92,117.94 102.08,115.19 111.25,111.88 120.42,110.97 129.58,110.80 138.75,107.49 147.92,103.69 157.08,110.37 184.58,108.34 230.42,105.92 257.15,103.50 264.79,101.09 272.43,107.90 280.07,105.07 287.71,102.21 295.35,100.86 302.99,97.82 310.62,104.68 318.26,102.74 325.90,109.53 333.54,107.84 341.18,107.66 348.82,114.38 356.46,111.02 364.10,113.76 371.74,115.19 379.38,113.72 387.01,110.43 394.65,117.10 402.29,123.68 409.93,122.09 417.57,121.50 425.21,128.02 432.85,125.34 459.58,122.55 505.42,119.71 535.97,116.71 551.25,113.11 566.53,110.21 581.81,109.44 597.08,107.31 612.36,114.03 629.17,110.40 647.50,107.52 665.83,104.19 684.17,103.92 702.50,104.41 718.21,100.71 731.31,96.77 744.40,94.58 757.50,91.91 770.60,89.80 783.69,87.03 796.79,84.62 804.33,84.48 806.32,80.66 808.32,79.23 810.31,75.38 812.30,71.62 814.29,68.36 816.29,75.64 818.28,72.67 820.27,69.13 822.26,68.98 824.26,76.26 826.25,73.56 828.24,70.38 830.24,77.63 832.23,76.88 834.22,73.00 836.21,80.22 838.21,78.58 840.20,75.40 842.19,73.77 844.18,70.83 846.18,78.09 848.17,85.25 850.16,82.65 852.16,89.74 854.15,96.69 856.14,93.68 858.13,100.59 860.13,97.62 862.12,104.50 864.11,101.31 866.11,98.24 868.10,105.11 870.09,103.47 872.08,100.56 874.08,99.90 876.07,98.80 878.06,96.32 880.05,93.49 882.05,100.44 884.04,107.28 886.03,103.63 888.03,99.69 890.02,106.42 892.01,113.18 894.00,110.79 895.54,107.16 896.62,107.05 897.70,113.80 898.77,120.42 899.85,116.91 900.93,113.58 902.01,110.01 903.09,106.40 904.17,102.76 905.25,109.59 906.32,106.81 907.40,103.76 908.48,101.02 909.56,97.69 910.64,94.32 911.72,90.99 912.79,92.51 913.87,91.41 914.95,87.68 916.03,85.28 917.11,92.35 918.19,99.29 919.26,106.17 920.34,104.08 921.42,110.89 922.50,117.56 923.58,114.03 924.66,110.48 925.74,111.11 926.81,108.22 927.89,106.51 928.97,113.29 930.05,111.70 931.13,109.06 932.21,106.24 933.28,103.00 934.36,102.89 935.44,99.63 936.52,106.51 937.60,102.91 938.68,109.69 939.75,116.34 940.83,113.08 941.91,109.71 942.99,116.34 944.07,113.29 945.15,109.72 946.23,106.13 947.30,105.17 948.38,102.17 949.46,109.01 950.54,108.34 951.62,105.77 952.70,102.16 953.77,99.40 954.85,106.28 955.93,102.79 957.01,99.15 958.09,106.04 959.17,103.50 960.25,100.13 961.32,96.47 962.40,93.37 963.48,89.66 964.56,96.64 965.64,93.20 966.72,92.61 967.79,99.59 968.87,100.06 969.95,96.64 971.03,93.44 972.11,91.18 973.19,98.19 974.26,105.05 975.34,111.77 976.42,108.80 977.50,108.15 978.58,105.63 979.66,103.89 980.74,110.72 981.81,111.11 982.89,107.67 983.97,114.45 985.05,121.07 986.13,117.74 987.76,117.78 989.94,124.40 992.12,124.06 994.31,121.35 996.49,118.20 998.67,115.96 1000.85,116.64 1003.04,123.28 1005.22,129.82 1007.40,126.83 1009.58,123.36 1011.77,129.90 1013.95,129.59 1016.13,126.07 1018.31,122.60 1020.50,121.09 1022.68,118.18 1024.86,114.68 1027.04,111.42 1029.23,109.63 1031.41,107.64 1033.59,105.63 1035.77,102.68 1037.96,100.01 1040.14,97.35 1042.32,104.28 1044.50,101.10 1046.69,97.45 1048.87,94.09 1051.05,91.40 1053.23,87.97 1055.42,84.52 1057.60,91.58 1059.78,88.30 1061.96,85.72 1064.15,82.73 1066.33,80.60 1068.51,78.07 1070.69,77.20 1072.88,73.38 1075.06,69.53 1077.24,76.80 1079.25,74.19 1081.08,70.35 1082.92,68.52 1084.75,66.38 1086.58,73.70 1088.42,73.83 1090.25,81.09 1092.08,79.28 1093.92,77.13 1095.75,73.63 1097.58,74.47 1099.42,70.93 1101.25,67.83 1103.08,63.93 1104.92,60.65 1106.75,59.70 1108.58,58.89 1110.42,57.33 1112.25,54.04 1114.08,61.56 1115.92,68.98 1117.75,76.30 1119.58,72.54 1121.42,69.49 1123.25,67.83 1125.08,65.75 1126.92,62.53 1128.75,69.93 1130.58,66.86 1132.42,62.88 1134.25,59.74 1136.08,56.27 1137.92,53.75 1139.75,61.28 1141.58,57.78 1143.42,53.75 1145.25,50.00 1147.08,47.85 1148.92,44.43 1150.75,40.99 1152.58,39.21 1154.42,36.47 1156.25,44.22 1158.08,40.21 1159.92,36.05 1161.75,32.27 1163.58,29.23 1165.42,25.00 1167.25,32.85 1169.08,29.21"/>
<text x="15" y="287.5" transform="rotate(-90 15,287.5)" text-anchor="middle" font-family="sans-serif" font-size="12" fill="#333">USD</text>
</svg>