<svg xmlns="http://www.w3.org/2000/svg" width="1200" height="600" viewBox="0 0 1200 600">
<desc>Equity curve with drawdown fill; x-axis is months only (no exact timestamps)</desc>
<text x="600.0" y="18.0" text-anchor="middle" font-family="sans-serif" font-size="14">Balance Curve 2011 (UTC)</text>
<rect x="70" y="25" width="1100" height="525" fill="white" stroke="#ccc" />
<line x1="70" y1="550.00" x2="1170" y2="550.00" stroke="#eee"/>
<text x="62" y="554.0" text-anchor="end" font-family="sans-serif" font-size="11" fill="#555">0.00</text>
<line x1="70" y1="445.00" x2="1170" y2="445.00" stroke="#eee"/>
<text x="62" y="449.0" text-anchor="end" font-family="sans-serif" font-size="11" fill="#555">21953</text>
<line x1="70" y1="340.00" x2="1170" y2="340.00" stroke="#eee"/>
<text x="62" y="344.0" text-anchor="end" font-family="sans-serif" font-size="11" fill="#555">43907</text>
<line x1="70" y1="235.00" x2="1170" y2="235.00" stroke="#eee"/>
<text x="62" y="239.0" text-anchor="end" font-family="sans-serif" font-size="11" fill="#555">65860</text>
<line x1="70" y1="130.00" x2="1170" y2="130.00" stroke="#eee"/>
<text x="62" y="134.0" text-anchor="end" font-family="sans-serif" font-size="11" fill="#555">87813</text>
<line x1="70" y1="25.00" x2="1170" y2="25.00" stroke="#eee"/>
<text x="62" y="29.0" text-anchor="end" font-family="sans-serif" font-size="11" fill="#555">109766</text>
<line x1="161.67" y1="25" x2="161.67" y2="550" stroke="#f2f2f2"/>
<line x1="253.33" y1="25" x2="253.33" y2="550" stroke="#f2f2f2"/>
<line x1="345.00" y1="25" x2="345.00" y2="550" stroke="#f2f2f2"/>
<line x1="436.67" y1="25" x2="436.67" y2="550" stroke="#f2f2f2"/>
<line x1="528.33" y1="25" x2="528.33" y2="550" stroke="#f2f2f2"/>
<line x1="620.00" y1="25" x2="620.00" y2="550" stroke="#f2f2f2"/>
<line x1="711.67" y1="25" x2="711.67" y2="550" stroke="#f2f2f2"/>
<line x1="803.33" y1="25" x2="803.33" y2="550" stroke="#f2f2f2"/>
<line x1="895.00" y1="25" x2="895.00" y2="550" stroke="#f2f2f2"/>
<line x1="986.67" y1="25" x2="986.67" y2="550" stroke="#f2f2f2"/>
<line x1="1078.33" y1="25" x2="1078.33" y2="550" stroke="#f2f2f2"/>
<text x="115.83" y="566.00" text-anchor="middle" font-family="sans-serif" font-size="11" fill="#444">Jan</text>
<text x="207.50" y="566.00" text-anchor="middle" font-family="sans-serif" font-size="11" fill="#444">Feb</text>
<text x="299.17" y="566.00" text-anchor="middle" font-family="sans-serif" font-size="11" fill="#444">Mar</text>
<text x="390.83" y="566.00" text-anchor="middle" font-family="sans-serif" font-size="11" fill="#444">Apr</text>
<text x="482.50" y="566.00" text-anchor="middle" font-family="sans-serif" font-size="11" fill="#444">May</text>
<text x="574.17" y="566.00" text-anchor="middle" font-family="sans-serif" font-size="11" fill="#444">Jun</text>
<text x="665.83" y="566.00" text-anchor="middle" font-family="sans-serif" font-size="11" fill="#444">Jul</text>
<text x="757.50" y="566.00" text-anchor="middle" font-family="sans-serif" font-size="11" fill="#444">Aug</text>
<text x="849.17" y="566.00" text-anchor="middle" font-family="sans-serif" font-size="11" fill="#444">Sep</text>
<text x="940.83" y="566.00" text-anchor="middle" font-family="sans-serif" font-size="11" fill="#444">Oct</text>
<text x="1032.50" y="566.00" text-anchor="middle" font-family="sans-serif" font-size="11" fill="#444">Nov</text>
<text x="1124.17" y="566.00" text-anchor="middle" font-family="sans-serif" font-size="11" fill="#444">Dec</text>
<line x1="70" y1="550" x2="1170" y2="550" stroke="#888"/>
<line x1="70" y1="25" x2="70" y2="550" stroke="#888"/>
<line x1="74.17" y1="550.00" x2="74.17" y2="556.00" stroke="#888"/>
<line x1="1154.72"   y1="550.00" x2="1154.72"   y2="556.00" stroke="#888"/>
<text x="74.17" y="582.00" text-anchor="start" font-family="sans-serif" font-size="11" fill="#333">Initial Balance: 100000</text>
<text x="1154.72"   y="582.00" text-anchor="end"   font-family="sans-serif" font-size="11" fill="#333">Ending Balance: 107645</text>
<path d="M 90.83 70.19 L 90.83 70.26 Z" fill="#d0d0d0" fill-opacity="0.5" stroke="none"/>
<path d="M 189.17 49.58 L 207.50 49.58 L 207.50 50.62 L 189.17 51.45 Z" fill="#d0d0d0" fill-opacity="0.5" stroke="none"/>
<path d="M 244.17 48.60 L 259.06 48.60 L 270.52 48.60 L 270.52 49.66 L 259.06 51.03 L 244.17 53.71 Z" fill="#d0d0d0" fill-opacity="0.5" stroke="none"/>
<path d="M 293.44 48.46 L 293.44 49.37 Z" fill="#d0d0d0" fill-opacity="0.5" stroke="none"/>
<path d="M 327.81 46.92 L 327.81 47.69 Z" fill="#d0d0d0" fill-opacity="0.5" stroke="none"/>
<path d="M 356.46 45.98 L 379.38 45.98 L 402.29 45.98 L 425.21 45.98 L 439.36 45.98 L 444.75 45.98 L 450.15 45.98 L 455.54 45.98 L 460.93 45.98 L 466.32 45.98 L 471.72 45.98 L 477.11 45.98 L 482.50 45.98 L 487.89 45.98 L 493.28 45.98 L 498.68 45.98 L 504.07 45.98 L 509.46 45.98 L 514.85 45.98 L 520.25 45.98 L 525.64 45.98 L 532.15 45.98 L 539.79 45.98 L 547.43 45.98 L 555.07 45.98 L 562.71 45.98 L 570.35 45.98 L 577.99 45.98 L 585.62 45.98 L 593.26 45.98 L 600.90 45.98 L 608.54 45.98 L 616.18 45.98 L 616.18 47.08 L 608.54 49.80 L 600.90 51.65 L 593.26 52.49 L 585.62 52.97 L 577.99 55.66 L 570.35 56.11 L 562.71 58.76 L 555.07 61.42 L 547.43 56.39 L 539.79 57.45 L 532.15 59.11 L 525.64 57.04 L 520.25 58.25 L 514.85 59.61 L 509.46 54.57 L 504.07 55.62 L 498.68 53.44 L 493.28 54.72 L 487.89 56.91 L 482.50 58.29 L 477.11 58.95 L 471.72 60.37 L 466.32 55.34 L 460.93 50.26 L 455.54 51.85 L 450.15 54.55 L 444.75 49.49 L 439.36 52.21 L 425.21 52.71 L 402.29 54.56 L 379.38 49.47 L 356.46 51.12 Z" fill="#d0d0d0" fill-opacity="0.5" stroke="none"/>
<path d="M 690.28 25.63 L 696.39 25.63 L 702.50 25.63 L 708.61 25.63 L 714.21 25.63 L 719.31 25.63 L 724.40 25.63 L 729.49 25.63 L 734.58 25.63 L 734.58 27.49 L 729.49 30.30 L 724.40 32.49 L 719.31 34.73 L 714.21 36.48 L 708.61 38.67 L 702.50 33.41 L 696.39 28.11 L 690.28 30.92 Z" fill="#d0d0d0" fill-opacity="0.5" stroke="none"/>
<path d="M 744.77 25.00 L 749.86 25.00 L 754.95 25.00 L 760.05 25.00 L 765.14 25.00 L 770.23 25.00 L 775.32 25.00 L 780.42 25.00 L 785.51 25.00 L 790.60 25.00 L 795.69 25.00 L 800.79 25.00 L 805.88 25.00 L 810.97 25.00 L 816.06 25.00 L 821.16 25.00 L 826.25 25.00 L 831.34 25.00 L 836.44 25.00 L 841.53 25.00 L 846.62 25.00 L 851.71 25.00 L 856.81 25.00 L 861.90 25.00 L 866.99 25.00 L 872.08 25.00 L 877.18 25.00 L 882.27 25.00 L 887.36 25.00 L 892.45 25.00 L 897.41 25.00 L 902.24 25.00 L 907.06 25.00 L 911.89 25.00 L 916.71 25.00 L 921.54 25.00 L 926.36 25.00 L 931.18 25.00 L 936.01 25.00 L 940.83 25.00 L 945.66 25.00 L 950.48 25.00 L 955.31 25.00 L 960.13 25.00 L 964.96 25.00 L 969.78 25.00 L 974.61 25.00 L 979.43 25.00 L 984.25 25.00 L 989.21 25.00 L 994.31 25.00 L 999.40 25.00 L 1004.49 25.00 L 1009.58 25.00 L 1014.68 25.00 L 1019.77 25.00 L 1024.86 25.00 L 1029.95 25.00 L 1035.05 25.00 L 1040.14 25.00 L 1045.23 25.00 L 1050.32 25.00 L 1055.42 25.00 L 1060.51 25.00 L 1065.60 25.00 L 1070.69 25.00 L 1075.79 25.00 L 1093.61 25.00 L 1124.17 25.00 L 1154.72 25.00 L 1154.72 35.15 L 1124.17 37.62 L 1093.61 39.10 L 1075.79 39.05 L 1070.69 39.80 L 1065.60 42.04 L 1060.51 44.50 L 1055.42 39.29 L 1050.32 37.74 L 1045.23 39.71 L 1040.14 41.64 L 1035.05 36.41 L 1029.95 36.34 L 1024.86 36.44 L 1019.77 38.44 L 1014.68 38.97 L 1009.58 41.52 L 1004.49 43.40 L 999.40 38.18 L 994.31 39.25 L 989.21 41.16 L 984.25 35.92 L 979.43 36.95 L 974.61 38.48 L 969.78 40.76 L 964.96 43.50 L 960.13 46.23 L 955.31 45.02 L 950.48 46.85 L 945.66 49.56 L 940.83 48.66 L 936.01 43.50 L 931.18 38.29 L 926.36 40.43 L 921.54 42.90 L 916.71 44.80 L 911.89 45.74 L 907.06 40.55 L 902.24 43.28 L 897.41 45.90 L 892.45 47.79 L 887.36 46.69 L 882.27 48.13 L 877.18 42.95 L 872.08 43.89 L 866.99 38.69 L 861.90 38.23 L 856.81 32.96 L 851.71 34.33 L 846.62 37.09 L 841.53 38.53 L 836.44 41.28 L 831.34 43.60 L 826.25 45.72 L 821.16 45.82 L 816.06 47.93 L 810.97 50.27 L 805.88 45.13 L 800.79 39.94 L 795.69 42.70 L 790.60 37.48 L 785.51 32.22 L 780.42 34.29 L 775.32 37.06 L 770.23 31.79 L 765.14 31.60 L 760.05 30.69 L 754.95 25.37 L 749.86 28.18 L 744.77 30.33 Z" fill="#d0d0d0" fill-opacity="0.5" stroke="none"/>
<polyline fill="none" stroke="#111" stroke-width="1.2" points="74.17,71.71 82.50,70.19 90.83,70.26 99.17,67.69 107.50,66.43 115.83,64.06 124.17,61.63 132.50,59.50 140.83,57.08 149.17,54.44 157.50,51.76 170.83,49.58 189.17,51.45 207.50,50.62 225.83,48.60 244.17,53.71 259.06,51.03 270.52,49.66 281.98,48.46 293.44,49.37 304.90,47.75 316.35,46.92 327.81,47.69 339.27,45.98 356.46,51.12 379.38,49.47 402.29,54.56 425.21,52.71 439.36,52.21 444.75,49.49 450.15,54.55 455.54,51.85 460.93,50.26 466.32,55.34 471.72,60.37 477.11,58.95 482.50,58.29 487.89,56.91 493.28,54.72 498.68,53.44 504.07,55.62 509.46,54.57 514.85,59.61 520.25,58.25 525.64,57.04 532.15,59.11 539.79,57.45 547.43,56.39 555.07,61.42 562.71,58.76 570.35,56.11 577.99,55.66 585.62,52.97 593.26,52.49 600.90,51.65 608.54,49.80 616.18,47.08 623.06,44.60 629.17,44.44 635.28,41.70 641.39,40.20 647.50,37.44 653.61,34.83 659.72,34.55 665.83,32.27 671.94,30.27 678.06,28.45 684.17,25.63 690.28,30.92 696.39,28.11 702.50,33.41 708.61,38.67 714.21,36.48 719.31,34.73 724.40,32.49 729.49,30.30 734.58,27.49 739.68,25.00 744.77,30.33 749.86,28.18 754.95,25.37 760.05,30.69 765.14,31.60 770.23,31.79 775.32,37.06 780.42,34.29 785.51,32.22 790.60,37.48 795.69,42.70 800.79,39.94 805.88,45.13 810.97,50.27 816.06,47.93 821.16,45.82 826.25,45.72 831.34,43.60 836.44,41.28 841.53,38.53 846.62,37.09 851.71,34.33 856.81,32.96 861.90,38.23 866.99,38.69 872.08,43.89 877.18,42.95 882.27,48.13 887.36,46.69 892.45,47.79 897.41,45.90 902.24,43.28 907.06,40.55 911.89,45.74 916.71,44.80 921.54,42.90 926.36,40.43 931.18,38.29 936.01,43.50 940.83,48.66 945.66,49.56 950.48,46.85 955.31,45.02 960.13,46.23 964.96,43.50 969.78,40.76 974.61,38.48 979.43,36.95 984.25,35.92 989.21,41.16 994.31,39.25 999.40,38.18 1004.49,43.40 1009.58,41.52 1014.68,38.97 1019.77,38.44 1024.86,36.44 1029.95,36.34 1035.05,36.41 1040.14,41.64 1045.23,39.71 1050.32,37.74 1055.42,39.29 1060.51,44.50 1065.60,42.04 1070.69,39.80 1075.79,39.05 1093.61,39.10 1124.17,37.62 1154.72,35.15"/>
<text x="15" y="287.5" transform="rotate(-90 15,287.5)" text-anchor="middle" font-family="sans-serif" font-size="12" fill="#333">USD</text>
</svg>