<svg xmlns="http://www.w3.org/2000/svg" width="1200" height="600" viewBox="0 0 1200 600">
<desc>Equity curve with drawdown fill; x-axis is months only (no exact timestamps)</desc>
<text x="600.0" y="18.0" text-anchor="middle" font-family="sans-serif" font-size="14">Portfolio 2010 (UTC)</text>
<rect x="70" y="25" width="1100" height="525" fill="white" stroke="#ccc" />
<line x1="70" y1="550.00" x2="1170" y2="550.00" stroke="#eee"/>
<text x="62" y="554.0" text-anchor="end" font-family="sans-serif" font-size="11" fill="#555">0.00</text>
<line x1="70" y1="445.00" x2="1170" y2="445.00" stroke="#eee"/>
<text x="62" y="449.0" text-anchor="end" font-family="sans-serif" font-size="11" fill="#555">26123</text>
<line x1="70" y1="340.00" x2="1170" y2="340.00" stroke="#eee"/>
<text x="62" y="344.0" text-anchor="end" font-family="sans-serif" font-size="11" fill="#555">52246</text>
<line x1="70" y1="235.00" x2="1170" y2="235.00" stroke="#eee"/>
<text x="62" y="239.0" text-anchor="end" font-family="sans-serif" font-size="11" fill="#555">78369</text>
<line x1="70" y1="130.00" x2="1170" y2="130.00" stroke="#eee"/>
<text x="62" y="134.0" text-anchor="end" font-family="sans-serif" font-size="11" fill="#555">104493</text>
<line x1="70" y1="25.00" x2="1170" y2="25.00" stroke="#eee"/>
<text x="62" y="29.0" text-anchor="end" font-family="sans-serif" font-size="11" fill="#555">130616</text>
<line x1="161.67" y1="25" x2="161.67" y2="550" stroke="#f2f2f2"/>
<line x1="253.33" y1="25" x2="253.33" y2="550" stroke="#f2f2f2"/>
<line x1="345.00" y1="25" x2="345.00" y2="550" stroke="#f2f2f2"/>
<line x1="436.67" y1="25" x2="436.67" y2="550" stroke="#f2f2f2"/>
<line x1="528.33" y1="25" x2="528.33" y2="550" stroke="#f2f2f2"/>
<line x1="620.00" y1="25" x2="620.00" y2="550" stroke="#f2f2f2"/>
<line x1="711.67" y1="25" x2="711.67" y2="550" stroke="#f2f2f2"/>
<line x1="803.33" y1="25" x2="803.33" y2="550" stroke="#f2f2f2"/>
<line x1="895.00" y1="25" x2="895.00" y2="550" stroke="#f2f2f2"/>
<line x1="986.67" y1="25" x2="986.67" y2="550" stroke="#f2f2f2"/>
<line x1="1078.33" y1="25" x2="1078.33" y2="550" stroke="#f2f2f2"/>
<text x="115.83" y="566.00" text-anchor="middle" font-family="sans-serif" font-size="11" fill="#444">Jan</text>
<text x="207.50" y="566.00" text-anchor="middle" font-family="sans-serif" font-size="11" fill="#444">Feb</text>
<text x="299.17" y="566.00" text-anchor="middle" font-family="sans-serif" font-size="11" fill="#444">Mar</text>
<text x="390.83" y="566.00" text-anchor="middle" font-family="sans-serif" font-size="11" fill="#444">Apr</text>
<text x="482.50" y="566.00" text-anchor="middle" font-family="sans-serif" font-size="11" fill="#444">May</text>
<text x="574.17" y="566.00" text-anchor="middle" font-family="sans-serif" font-size="11" fill="#444">Jun</text>
<text x="665.83" y="566.00" text-anchor="middle" font-family="sans-serif" font-size="11" fill="#444">Jul</text>
<text x="757.50" y="566.00" text-anchor="middle" font-family="sans-serif" font-size="11" fill="#444">Aug</text>
<text x="849.17" y="566.00" text-anchor="middle" font-family="sans-serif" font-size="11" fill="#444">Sep</text>
<text x="940.83" y="566.00" text-anchor="middle" font-family="sans-serif" font-size="11" fill="#444">Oct</text>
<text x="1032.50" y="566.00" text-anchor="middle" font-family="sans-serif" font-size="11" fill="#444">Nov</text>
<text x="1124.17" y="566.00" text-anchor="middle" font-family="sans-serif" font-size="11" fill="#444">Dec</text>
<line x1="70" y1="550" x2="1170" y2="550" stroke="#888"/>
<line x1="70" y1="25" x2="70" y2="550" stroke="#888"/>
<line x1="75.09" y1="550.00" x2="75.09" y2="556.00" stroke="#888"/>
<line x1="1167.30"   y1="550.00" x2="1167.30"   y2="556.00" stroke="#888"/>
<text x="75.09" y="582.00" text-anchor="start" font-family="sans-serif" font-size="11" fill="#333">Initial Balance: 100000</text>
<text x="1167.30"   y="582.00" text-anchor="end"   font-family="sans-serif" font-size="11" fill="#333">Ending Balance: 130616</text>
<path d="M 115.83 142.29 L 115.83 142.57 Z" fill="#d0d0d0" fill-opacity="0.5" stroke="none"/>
<path d="M 207.50 131.56 L 225.83 131.56 L 244.17 131.56 L 244.17 132.14 L 225.83 133.75 L 207.50 135.83 Z" fill="#d0d0d0" fill-opacity="0.5" stroke="none"/>
<path d="M 306.81 125.85 L 306.81 126.67 Z" fill="#d0d0d0" fill-opacity="0.5" stroke="none"/>
<path d="M 398.47 119.26 L 413.75 119.26 L 429.03 119.26 L 437.60 119.26 L 439.47 119.26 L 441.34 119.26 L 443.21 119.26 L 445.09 119.26 L 446.96 119.26 L 448.83 119.26 L 450.70 119.26 L 452.57 119.26 L 452.57 120.11 L 450.70 122.48 L 448.83 124.80 L 446.96 126.91 L 445.09 128.90 L 443.21 130.98 L 441.34 133.01 L 439.47 134.75 L 437.60 130.46 L 429.03 126.14 L 413.75 121.78 L 398.47 123.65 Z" fill="#d0d0d0" fill-opacity="0.5" stroke="none"/>
<path d="M 471.28 104.99 L 473.15 104.99 L 475.02 104.99 L 476.89 104.99 L 476.89 105.13 L 475.02 107.16 L 473.15 108.34 L 471.28 109.52 Z" fill="#d0d0d0" fill-opacity="0.5" stroke="none"/>
<path d="M 482.50 101.17 L 484.37 101.17 L 486.24 101.17 L 488.11 101.17 L 489.98 101.17 L 491.85 101.17 L 493.72 101.17 L 495.60 100.24 L 497.47 100.24 L 497.47 109.25 L 495.60 104.70 L 493.72 102.85 L 491.85 103.66 L 489.98 106.01 L 488.11 101.44 L 486.24 102.75 L 484.37 103.42 L 482.50 105.74 Z" fill="#d0d0d0" fill-opacity="0.5" stroke="none"/>
<path d="M 501.21 100.24 L 503.08 100.24 L 504.95 100.24 L 506.82 100.24 L 508.69 100.24 L 508.69 102.13 L 506.82 103.67 L 504.95 105.79 L 503.08 107.28 L 501.21 107.41 Z" fill="#d0d0d0" fill-opacity="0.5" stroke="none"/>
<path d="M 518.04 97.27 L 518.04 97.33 Z" fill="#d0d0d0" fill-opacity="0.5" stroke="none"/>
<path d="M 563.38 76.29 L 568.77 76.29 L 574.17 76.29 L 579.56 76.29 L 584.95 76.29 L 590.34 76.29 L 595.74 76.29 L 595.74 77.68 L 590.34 79.77 L 584.95 78.77 L 579.56 77.32 L 574.17 77.65 L 568.77 78.99 L 563.38 81.08 Z" fill="#d0d0d0" fill-opacity="0.5" stroke="none"/>
<path d="M 665.83 62.56 L 665.83 62.56 Z" fill="#d0d0d0" fill-opacity="0.5" stroke="none"/>
<path d="M 706.57 57.89 L 719.31 57.89 L 734.58 57.89 L 749.86 57.89 L 765.14 57.89 L 780.42 57.89 L 795.69 57.89 L 812.50 57.89 L 830.83 57.89 L 849.17 57.89 L 867.50 57.89 L 885.83 57.89 L 897.86 57.89 L 903.59 57.89 L 903.59 60.54 L 897.86 61.60 L 885.83 63.67 L 867.50 64.59 L 849.17 66.06 L 830.83 66.98 L 812.50 66.49 L 795.69 64.89 L 780.42 67.25 L 765.14 68.91 L 749.86 70.44 L 734.58 68.62 L 719.31 63.76 L 706.57 58.82 Z" fill="#d0d0d0" fill-opacity="0.5" stroke="none"/>
<path d="M 915.05 57.88 L 920.78 57.88 L 920.78 60.23 L 915.05 62.82 Z" fill="#d0d0d0" fill-opacity="0.5" stroke="none"/>
<path d="M 932.24 57.56 L 932.24 58.88 Z" fill="#d0d0d0" fill-opacity="0.5" stroke="none"/>
<path d="M 1016.13 37.04 L 1022.68 37.04 L 1029.23 37.04 L 1035.77 37.04 L 1042.32 37.04 L 1048.87 37.04 L 1055.42 37.04 L 1061.96 37.04 L 1068.51 37.04 L 1075.06 37.04 L 1081.03 37.04 L 1086.42 37.04 L 1091.81 37.04 L 1097.21 37.04 L 1102.60 37.04 L 1102.60 37.38 L 1097.21 38.72 L 1091.81 40.85 L 1086.42 42.96 L 1081.03 37.88 L 1075.06 40.75 L 1068.51 43.21 L 1061.96 44.68 L 1055.42 46.85 L 1048.87 41.77 L 1042.32 43.56 L 1035.77 38.45 L 1029.23 40.46 L 1022.68 41.72 L 1016.13 42.15 Z" fill="#d0d0d0" fill-opacity="0.5" stroke="none"/>
<path d="M 1129.56 30.49 L 1134.95 30.49 L 1140.34 30.49 L 1140.34 31.51 L 1134.95 31.32 L 1129.56 31.82 Z" fill="#d0d0d0" fill-opacity="0.5" stroke="none"/>
<path d="M 1151.13 28.73 L 1151.13 30.79 Z" fill="#d0d0d0" fill-opacity="0.5" stroke="none"/>
<polyline fill="none" stroke="#111" stroke-width="1.2" points="75.09,148.06 85.28,145.83 95.46,143.60 105.65,142.29 115.83,142.57 126.02,141.46 136.20,139.97 146.39,137.85 156.57,135.56 170.83,133.86 189.17,131.56 207.50,135.83 225.83,133.75 244.17,132.14 260.97,129.83 276.25,127.61 291.53,125.85 306.81,126.67 322.08,124.95 337.36,123.30 352.64,121.92 367.92,120.61 383.19,119.26 398.47,123.65 413.75,121.78 429.03,126.14 437.60,130.46 439.47,134.75 441.34,133.01 443.21,130.98 445.09,128.90 446.96,126.91 448.83,124.80 450.70,122.48 452.57,120.11 454.44,117.76 456.31,116.90 458.18,114.68 460.05,113.95 461.92,111.69 463.79,109.95 465.66,108.55 467.53,106.79 469.40,104.99 471.28,109.52 473.15,108.34 475.02,107.16 476.89,105.13 478.76,103.22 480.63,101.17 482.50,105.74 484.37,103.42 486.24,102.75 488.11,101.44 489.98,106.01 491.85,103.66 493.72,102.85 495.60,104.70 497.47,109.25 499.34,100.24 501.21,107.41 503.08,107.28 504.95,105.79 506.82,103.67 508.69,102.13 510.56,100.19 512.43,98.90 514.30,98.63 516.17,97.27 518.04,97.33 519.91,95.06 521.79,92.85 523.66,91.44 525.53,90.18 527.40,87.95 531.03,86.51 536.42,84.02 541.81,82.06 547.21,80.29 552.60,77.99 557.99,76.29 563.38,81.08 568.77,78.99 574.17,77.65 579.56,77.32 584.95,78.77 590.34,79.77 595.74,77.68 601.13,75.58 606.52,73.02 611.91,71.50 617.30,68.93 625.09,66.33 635.28,64.64 645.46,63.73 655.65,62.56 665.83,62.56 676.02,61.84 686.20,59.72 696.39,57.89 706.57,58.82 719.31,63.76 734.58,68.62 749.86,70.44 765.14,68.91 780.42,67.25 795.69,64.89 812.50,66.49 830.83,66.98 849.17,66.06 867.50,64.59 885.83,63.67 897.86,61.60 903.59,60.54 909.32,57.88 915.05,62.82 920.78,60.23 926.51,57.56 932.24,58.88 937.97,56.20 943.70,56.08 949.43,54.17 955.16,52.50 960.89,50.48 966.61,49.69 972.34,48.85 978.07,46.63 983.80,45.80 989.94,43.06 996.49,42.13 1003.04,39.23 1009.58,37.04 1016.13,42.15 1022.68,41.72 1029.23,40.46 1035.77,38.45 1042.32,43.56 1048.87,41.77 1055.42,46.85 1061.96,44.68 1068.51,43.21 1075.06,40.75 1081.03,37.88 1086.42,42.96 1091.81,40.85 1097.21,38.72 1102.60,37.38 1107.99,35.47 1113.38,35.29 1118.77,32.81 1124.17,30.49 1129.56,31.82 1134.95,31.32 1140.34,31.51 1145.74,28.73 1151.13,30.79 1156.52,28.43 1161.91,27.00 1167.30,25.00"/>
<text x="620.0" y="588" text-anchor="middle" font-family="sans-serif" font-size="12" fill="#333">Monthly Balance Curve</text>
<text x="15" y="287.5" transform="rotate(-90 15,287.5)" text-anchor="middle" font-family="sans-serif" font-size="12" fill="#333">Capital</text>
</svg>