<svg xmlns="http://www.w3.org/2000/svg" width="1200" height="600" viewBox="0 0 1200 600">
<desc>Equity curve with drawdown fill; x-axis is months only (no exact timestamps)</desc>
<text x="600.0" y="18.0" text-anchor="middle" font-family="sans-serif" font-size="14">Portfolio 2008 (UTC)</text>
<rect x="70" y="25" width="1100" height="525" fill="white" stroke="#ccc" />
<line x1="70" y1="550.00" x2="1170" y2="550.00" stroke="#eee"/>
<text x="62" y="554.0" text-anchor="end" font-family="sans-serif" font-size="11" fill="#555">0.00</text>
<line x1="70" y1="445.00" x2="1170" y2="445.00" stroke="#eee"/>
<text x="62" y="449.0" text-anchor="end" font-family="sans-serif" font-size="11" fill="#555">23281</text>
<line x1="70" y1="340.00" x2="1170" y2="340.00" stroke="#eee"/>
<text x="62" y="344.0" text-anchor="end" font-family="sans-serif" font-size="11" fill="#555">46561</text>
<line x1="70" y1="235.00" x2="1170" y2="235.00" stroke="#eee"/>
<text x="62" y="239.0" text-anchor="end" font-family="sans-serif" font-size="11" fill="#555">69842</text>
<line x1="70" y1="130.00" x2="1170" y2="130.00" stroke="#eee"/>
<text x="62" y="134.0" text-anchor="end" font-family="sans-serif" font-size="11" fill="#555">93123</text>
<line x1="70" y1="25.00" x2="1170" y2="25.00" stroke="#eee"/>
<text x="62" y="29.0" text-anchor="end" font-family="sans-serif" font-size="11" fill="#555">116404</text>
<line x1="161.67" y1="25" x2="161.67" y2="550" stroke="#f2f2f2"/>
<line x1="253.33" y1="25" x2="253.33" y2="550" stroke="#f2f2f2"/>
<line x1="345.00" y1="25" x2="345.00" y2="550" stroke="#f2f2f2"/>
<line x1="436.67" y1="25" x2="436.67" y2="550" stroke="#f2f2f2"/>
<line x1="528.33" y1="25" x2="528.33" y2="550" stroke="#f2f2f2"/>
<line x1="620.00" y1="25" x2="620.00" y2="550" stroke="#f2f2f2"/>
<line x1="711.67" y1="25" x2="711.67" y2="550" stroke="#f2f2f2"/>
<line x1="803.33" y1="25" x2="803.33" y2="550" stroke="#f2f2f2"/>
<line x1="895.00" y1="25" x2="895.00" y2="550" stroke="#f2f2f2"/>
<line x1="986.67" y1="25" x2="986.67" y2="550" stroke="#f2f2f2"/>
<line x1="1078.33" y1="25" x2="1078.33" y2="550" stroke="#f2f2f2"/>
<text x="115.83" y="566.00" text-anchor="middle" font-family="sans-serif" font-size="11" fill="#444">Jan</text>
<text x="207.50" y="566.00" text-anchor="middle" font-family="sans-serif" font-size="11" fill="#444">Feb</text>
<text x="299.17" y="566.00" text-anchor="middle" font-family="sans-serif" font-size="11" fill="#444">Mar</text>
<text x="390.83" y="566.00" text-anchor="middle" font-family="sans-serif" font-size="11" fill="#444">Apr</text>
<text x="482.50" y="566.00" text-anchor="middle" font-family="sans-serif" font-size="11" fill="#444">May</text>
<text x="574.17" y="566.00" text-anchor="middle" font-family="sans-serif" font-size="11" fill="#444">Jun</text>
<text x="665.83" y="566.00" text-anchor="middle" font-family="sans-serif" font-size="11" fill="#444">Jul</text>
<text x="757.50" y="566.00" text-anchor="middle" font-family="sans-serif" font-size="11" fill="#444">Aug</text>
<text x="849.17" y="566.00" text-anchor="middle" font-family="sans-serif" font-size="11" fill="#444">Sep</text>
<text x="940.83" y="566.00" text-anchor="middle" font-family="sans-serif" font-size="11" fill="#444">Oct</text>
<text x="1032.50" y="566.00" text-anchor="middle" font-family="sans-serif" font-size="11" fill="#444">Nov</text>
<text x="1124.17" y="566.00" text-anchor="middle" font-family="sans-serif" font-size="11" fill="#444">Dec</text>
<line x1="70" y1="550" x2="1170" y2="550" stroke="#888"/>
<line x1="70" y1="25" x2="70" y2="550" stroke="#888"/>
<line x1="74.58" y1="550.00" x2="74.58" y2="556.00" stroke="#888"/>
<line x1="1169.08"   y1="550.00" x2="1169.08"   y2="556.00" stroke="#888"/>
<text x="74.58" y="582.00" text-anchor="start" font-family="sans-serif" font-size="11" fill="#333">Initial Balance: 100000</text>
<text x="1169.08"   y="582.00" text-anchor="end"   font-family="sans-serif" font-size="11" fill="#333">Ending Balance: 115784</text>
<path d="M 157.08 84.26 L 184.58 84.26 L 230.42 84.26 L 230.42 85.79 L 184.58 87.50 L 157.08 88.95 Z" fill="#d0d0d0" fill-opacity="0.5" stroke="none"/>
<path d="M 272.43 82.37 L 280.07 82.37 L 287.71 82.37 L 287.71 83.13 L 280.07 85.15 L 272.43 87.14 Z" fill="#d0d0d0" fill-opacity="0.5" stroke="none"/>
<path d="M 310.62 80.03 L 318.26 80.03 L 325.90 80.03 L 333.54 80.03 L 341.18 80.03 L 348.82 80.03 L 356.46 80.03 L 364.10 80.03 L 371.74 80.03 L 379.38 80.03 L 387.01 80.03 L 394.65 80.03 L 402.29 80.03 L 409.93 80.03 L 417.57 80.03 L 425.21 80.03 L 432.85 80.03 L 459.58 80.03 L 505.42 80.03 L 535.97 80.03 L 551.25 80.03 L 566.53 80.03 L 581.81 80.03 L 597.08 80.03 L 612.36 80.03 L 629.17 80.03 L 647.50 80.03 L 665.83 80.03 L 684.17 80.03 L 702.50 80.03 L 718.21 80.03 L 718.21 81.52 L 702.50 84.13 L 684.17 83.80 L 665.83 84.00 L 647.50 86.36 L 629.17 88.40 L 612.36 90.98 L 597.08 86.27 L 581.81 87.79 L 566.53 88.34 L 551.25 90.39 L 535.97 92.95 L 505.42 95.09 L 459.58 97.13 L 432.85 99.13 L 425.21 101.06 L 417.57 96.45 L 409.93 96.88 L 402.29 98.02 L 394.65 93.38 L 387.01 88.69 L 379.38 91.04 L 371.74 92.09 L 364.10 91.09 L 356.46 89.18 L 348.82 91.56 L 341.18 86.85 L 333.54 86.98 L 325.90 88.18 L 318.26 83.44 L 310.62 84.81 Z" fill="#d0d0d0" fill-opacity="0.5" stroke="none"/>
<path d="M 816.29 58.92 L 818.28 58.92 L 820.27 58.92 L 822.26 58.92 L 824.26 58.92 L 826.25 58.92 L 828.24 58.92 L 830.24 58.92 L 832.23 58.92 L 834.22 58.92 L 836.21 58.92 L 838.21 58.92 L 840.20 58.92 L 842.19 58.92 L 844.18 58.92 L 846.18 58.92 L 848.17 58.92 L 850.16 58.92 L 852.16 58.92 L 854.15 58.92 L 856.14 58.92 L 858.13 58.92 L 860.13 58.92 L 862.12 58.92 L 864.11 58.92 L 866.11 58.92 L 868.10 58.92 L 870.09 58.92 L 872.08 58.92 L 874.08 58.92 L 876.07 58.92 L 878.06 58.92 L 880.05 58.92 L 882.05 58.92 L 884.04 58.92 L 886.03 58.92 L 888.03 58.92 L 890.02 58.92 L 892.01 58.92 L 894.00 58.92 L 895.54 58.92 L 896.62 58.92 L 897.70 58.92 L 898.77 58.92 L 899.85 58.92 L 900.93 58.92 L 902.01 58.92 L 903.09 58.92 L 904.17 58.92 L 905.25 58.92 L 906.32 58.92 L 907.40 58.92 L 908.48 58.92 L 909.56 58.92 L 910.64 58.92 L 911.72 58.92 L 912.79 58.92 L 913.87 58.92 L 914.95 58.92 L 916.03 58.92 L 917.11 58.92 L 918.19 58.92 L 919.26 58.92 L 920.34 58.92 L 921.42 58.92 L 922.50 58.92 L 923.58 58.92 L 924.66 58.92 L 925.74 58.92 L 926.81 58.92 L 927.89 58.92 L 928.97 58.92 L 930.05 58.92 L 931.13 58.92 L 932.21 58.92 L 933.28 58.92 L 934.36 58.92 L 935.44 58.92 L 936.52 58.92 L 937.60 58.92 L 938.68 58.92 L 939.75 58.92 L 940.83 58.92 L 941.91 58.92 L 942.99 58.92 L 944.07 58.92 L 945.15 58.92 L 946.23 58.92 L 947.30 58.92 L 948.38 58.92 L 949.46 58.92 L 950.54 58.92 L 951.62 58.92 L 952.70 58.92 L 953.77 58.92 L 954.85 58.92 L 955.93 58.92 L 957.01 58.92 L 958.09 58.92 L 959.17 58.92 L 960.25 58.92 L 961.32 58.92 L 962.40 58.92 L 963.48 58.92 L 964.56 58.92 L 965.64 58.92 L 966.72 58.92 L 967.79 58.92 L 968.87 58.92 L 969.95 58.92 L 971.03 58.92 L 972.11 58.92 L 973.19 58.92 L 974.26 58.92 L 975.34 58.92 L 976.42 58.92 L 977.50 58.92 L 978.58 58.92 L 979.66 58.92 L 980.74 58.92 L 981.81 58.92 L 982.89 58.92 L 983.97 58.92 L 985.05 58.92 L 986.13 58.92 L 987.76 58.92 L 989.94 58.92 L 992.12 58.92 L 994.31 58.92 L 996.49 58.92 L 998.67 58.92 L 1000.85 58.92 L 1003.04 58.92 L 1005.22 58.92 L 1007.40 58.92 L 1009.58 58.92 L 1011.77 58.92 L 1013.95 58.92 L 1016.13 58.92 L 1018.31 58.92 L 1020.50 58.92 L 1022.68 58.92 L 1024.86 58.92 L 1027.04 58.92 L 1029.23 58.92 L 1031.41 58.92 L 1033.59 58.92 L 1035.77 58.92 L 1037.96 58.92 L 1040.14 58.92 L 1042.32 58.92 L 1044.50 58.92 L 1046.69 58.92 L 1048.87 58.92 L 1051.05 58.92 L 1053.23 58.92 L 1055.42 58.92 L 1057.60 58.92 L 1059.78 58.92 L 1061.96 58.92 L 1064.15 58.92 L 1066.33 58.92 L 1068.51 58.92 L 1070.69 58.92 L 1072.88 58.92 L 1072.88 59.01 L 1070.69 61.68 L 1068.51 62.30 L 1066.33 64.06 L 1064.15 65.57 L 1061.96 67.68 L 1059.78 69.51 L 1057.60 71.80 L 1055.42 66.90 L 1053.23 69.33 L 1051.05 71.75 L 1048.87 73.66 L 1046.69 76.04 L 1044.50 78.62 L 1042.32 80.87 L 1040.14 76.01 L 1037.96 77.91 L 1035.77 79.81 L 1033.59 81.91 L 1031.41 83.36 L 1029.23 84.78 L 1027.04 86.08 L 1024.86 88.41 L 1022.68 90.92 L 1020.50 93.02 L 1018.31 94.10 L 1016.13 96.60 L 1013.95 99.14 L 1011.77 99.38 L 1009.58 94.71 L 1007.40 97.20 L 1005.22 99.36 L 1003.04 94.69 L 1000.85 89.99 L 998.67 89.52 L 996.49 91.13 L 994.31 93.40 L 992.12 95.36 L 989.94 95.62 L 987.76 90.92 L 986.13 90.90 L 985.05 93.30 L 983.97 88.63 L 982.89 83.86 L 981.81 86.32 L 980.74 86.05 L 979.66 81.25 L 978.58 82.50 L 977.50 84.27 L 976.42 84.75 L 975.34 86.87 L 974.26 82.15 L 973.19 77.36 L 972.11 72.48 L 971.03 74.07 L 969.95 76.32 L 968.87 78.75 L 967.79 78.44 L 966.72 73.57 L 965.64 73.99 L 964.56 76.42 L 963.48 71.58 L 962.40 74.19 L 961.32 76.38 L 960.25 78.96 L 959.17 81.36 L 958.09 83.16 L 957.01 78.33 L 955.93 80.91 L 954.85 83.37 L 953.77 78.55 L 952.70 80.50 L 951.62 83.07 L 950.54 84.89 L 949.46 85.39 L 948.38 80.58 L 947.30 82.72 L 946.23 83.42 L 945.15 85.97 L 944.07 88.51 L 942.99 90.69 L 941.91 85.99 L 940.83 88.40 L 939.75 90.70 L 938.68 86.03 L 937.60 81.28 L 936.52 83.84 L 935.44 79.02 L 934.36 81.34 L 933.28 81.44 L 932.21 83.73 L 931.13 85.74 L 930.05 87.63 L 928.97 88.76 L 927.89 84.01 L 926.81 85.23 L 925.74 87.29 L 924.66 86.86 L 923.58 89.39 L 922.50 91.92 L 921.42 87.23 L 920.34 82.46 L 919.26 83.93 L 918.19 79.13 L 917.11 74.31 L 916.03 69.42 L 914.95 71.10 L 913.87 73.72 L 912.79 74.51 L 911.72 73.47 L 910.64 75.81 L 909.56 78.19 L 908.48 80.55 L 907.40 82.50 L 906.32 84.67 L 905.25 86.64 L 904.17 81.85 L 903.09 84.43 L 902.01 87.00 L 900.93 89.54 L 899.85 91.93 L 898.77 94.44 L 897.70 89.79 L 896.62 85.05 L 895.54 85.14 L 894.00 87.71 L 892.01 89.41 L 890.02 84.65 L 888.03 79.94 L 886.03 82.70 L 884.04 85.29 L 882.05 80.51 L 880.05 75.68 L 878.06 77.67 L 876.07 79.43 L 874.08 80.21 L 872.08 80.68 L 870.09 82.74 L 868.10 83.90 L 866.11 79.11 L 864.11 81.28 L 862.12 83.52 L 860.13 78.71 L 858.13 80.82 L 856.14 76.04 L 854.15 78.16 L 852.16 73.35 L 850.16 68.45 L 848.17 70.27 L 846.18 65.34 L 844.18 60.36 L 842.19 62.40 L 840.20 63.55 L 838.21 65.76 L 836.21 66.90 L 834.22 61.94 L 832.23 64.63 L 830.24 65.16 L 828.24 60.19 L 826.25 62.39 L 824.26 64.28 L 822.26 59.29 L 820.27 59.41 L 818.28 61.87 L 816.29 63.91 Z" fill="#d0d0d0" fill-opacity="0.5" stroke="none"/>
<path d="M 1077.24 56.32 L 1079.25 56.32 L 1081.08 56.32 L 1081.08 56.79 L 1079.25 59.47 L 1077.24 61.30 Z" fill="#d0d0d0" fill-opacity="0.5" stroke="none"/>
<path d="M 1086.58 54.01 L 1088.42 54.01 L 1090.25 54.01 L 1092.08 54.01 L 1093.92 54.01 L 1095.75 54.01 L 1097.58 54.01 L 1099.42 54.01 L 1101.25 54.01 L 1101.25 54.81 L 1099.42 56.98 L 1097.58 59.45 L 1095.75 58.88 L 1093.92 61.34 L 1092.08 62.85 L 1090.25 64.13 L 1088.42 59.12 L 1086.58 59.03 Z" fill="#d0d0d0" fill-opacity="0.5" stroke="none"/>
<path d="M 1114.08 45.22 L 1115.92 45.22 L 1117.75 45.22 L 1119.58 45.22 L 1121.42 45.22 L 1123.25 45.22 L 1125.08 45.22 L 1126.92 45.22 L 1128.75 45.22 L 1130.58 45.22 L 1132.42 45.22 L 1134.25 45.22 L 1136.08 45.22 L 1136.08 46.51 L 1134.25 48.92 L 1132.42 51.09 L 1130.58 53.85 L 1128.75 55.96 L 1126.92 50.89 L 1125.08 53.12 L 1123.25 54.57 L 1121.42 55.74 L 1119.58 57.87 L 1117.75 60.49 L 1115.92 55.44 L 1114.08 50.36 Z" fill="#d0d0d0" fill-opacity="0.5" stroke="none"/>
<path d="M 1139.75 44.78 L 1141.58 44.78 L 1141.58 47.50 L 1139.75 49.92 Z" fill="#d0d0d0" fill-opacity="0.5" stroke="none"/>
<path d="M 1156.25 32.87 L 1158.08 32.87 L 1158.08 35.38 L 1156.25 38.12 Z" fill="#d0d0d0" fill-opacity="0.5" stroke="none"/>
<path d="M 1167.25 25.00 L 1169.08 25.00 L 1169.08 27.79 L 1167.25 30.26 Z" fill="#d0d0d0" fill-opacity="0.5" stroke="none"/>
<polyline fill="none" stroke="#111" stroke-width="1.2" points="74.58,98.98 83.75,96.91 92.92,94.39 102.08,92.43 111.25,90.08 120.42,89.44 129.58,89.30 138.75,86.95 147.92,84.26 157.08,88.95 184.58,87.50 230.42,85.79 257.15,84.07 264.79,82.37 272.43,87.14 280.07,85.15 287.71,83.13 295.35,82.17 302.99,80.03 310.62,84.81 318.26,83.44 325.90,88.18 333.54,86.98 341.18,86.85 348.82,91.56 356.46,89.18 364.10,91.09 371.74,92.09 379.38,91.04 387.01,88.69 394.65,93.38 402.29,98.02 409.93,96.88 417.57,96.45 425.21,101.06 432.85,99.13 459.58,97.13 505.42,95.09 535.97,92.95 551.25,90.39 566.53,88.34 581.81,87.79 597.08,86.27 612.36,90.98 629.17,88.40 647.50,86.36 665.83,84.00 684.17,83.80 702.50,84.13 718.21,81.52 731.31,78.77 744.40,77.22 757.50,75.34 770.60,73.86 783.69,71.92 796.79,70.23 804.33,70.11 806.32,67.45 808.32,66.46 810.31,63.78 812.30,61.18 814.29,58.92 816.29,63.91 818.28,61.87 820.27,59.41 822.26,59.29 824.26,64.28 826.25,62.39 828.24,60.19 830.24,65.16 832.23,64.63 834.22,61.94 836.21,66.90 838.21,65.76 840.20,63.55 842.19,62.40 844.18,60.36 846.18,65.34 848.17,70.27 850.16,68.45 852.16,73.35 854.15,78.16 856.14,76.04 858.13,80.82 860.13,78.71 862.12,83.52 864.11,81.28 866.11,79.11 868.10,83.90 870.09,82.74 872.08,80.68 874.08,80.21 876.07,79.43 878.06,77.67 880.05,75.68 882.05,80.51 884.04,85.29 886.03,82.70 888.03,79.94 890.02,84.65 892.01,89.41 894.00,87.71 895.54,85.14 896.62,85.05 897.70,89.79 898.77,94.44 899.85,91.93 900.93,89.54 902.01,87.00 903.09,84.43 904.17,81.85 905.25,86.64 906.32,84.67 907.40,82.50 908.48,80.55 909.56,78.19 910.64,75.81 911.72,73.47 912.79,74.51 913.87,73.72 914.95,71.10 916.03,69.42 917.11,74.31 918.19,79.13 919.26,83.93 920.34,82.46 921.42,87.23 922.50,91.92 923.58,89.39 924.66,86.86 925.74,87.29 926.81,85.23 927.89,84.01 928.97,88.76 930.05,87.63 931.13,85.74 932.21,83.73 933.28,81.44 934.36,81.34 935.44,79.02 936.52,83.84 937.60,81.28 938.68,86.03 939.75,90.70 940.83,88.40 941.91,85.99 942.99,90.69 944.07,88.51 945.15,85.97 946.23,83.42 947.30,82.72 948.38,80.58 949.46,85.39 950.54,84.89 951.62,83.07 952.70,80.50 953.77,78.55 954.85,83.37 955.93,80.91 957.01,78.33 958.09,83.16 959.17,81.36 960.25,78.96 961.32,76.38 962.40,74.19 963.48,71.58 964.56,76.42 965.64,73.99 966.72,73.57 967.79,78.44 968.87,78.75 969.95,76.32 971.03,74.07 972.11,72.48 973.19,77.36 974.26,82.15 975.34,86.87 976.42,84.75 977.50,84.27 978.58,82.50 979.66,81.25 980.74,86.05 981.81,86.32 982.89,83.86 983.97,88.63 985.05,93.30 986.13,90.90 987.76,90.92 989.94,95.62 992.12,95.36 994.31,93.40 996.49,91.13 998.67,89.52 1000.85,89.99 1003.04,94.69 1005.22,99.36 1007.40,97.20 1009.58,94.71 1011.77,99.38 1013.95,99.14 1016.13,96.60 1018.31,94.10 1020.50,93.02 1022.68,90.92 1024.86,88.41 1027.04,86.08 1029.23,84.78 1031.41,83.36 1033.59,81.91 1035.77,79.81 1037.96,77.91 1040.14,76.01 1042.32,80.87 1044.50,78.62 1046.69,76.04 1048.87,73.66 1051.05,71.75 1053.23,69.33 1055.42,66.90 1057.60,71.80 1059.78,69.51 1061.96,67.68 1064.15,65.57 1066.33,64.06 1068.51,62.30 1070.69,61.68 1072.88,59.01 1075.06,56.32 1077.24,61.30 1079.25,59.47 1081.08,56.79 1082.92,55.51 1084.75,54.01 1086.58,59.03 1088.42,59.12 1090.25,64.13 1092.08,62.85 1093.92,61.34 1095.75,58.88 1097.58,59.45 1099.42,56.98 1101.25,54.81 1103.08,52.11 1104.92,49.82 1106.75,49.16 1108.58,48.59 1110.42,47.49 1112.25,45.22 1114.08,50.36 1115.92,55.44 1117.75,60.49 1119.58,57.87 1121.42,55.74 1123.25,54.57 1125.08,53.12 1126.92,50.89 1128.75,55.96 1130.58,53.85 1132.42,51.09 1134.25,48.92 1136.08,46.51 1137.92,44.78 1139.75,49.92 1141.58,47.50 1143.42,44.72 1145.25,42.15 1147.08,40.66 1148.92,38.30 1150.75,35.96 1152.58,34.74 1154.42,32.87 1156.25,38.12 1158.08,35.38 1159.92,32.54 1161.75,29.96 1163.58,27.88 1165.42,25.00 1167.25,30.26 1169.08,27.79"/>
<text x="620.0" y="588" text-anchor="middle" font-family="sans-serif" font-size="12" fill="#333">Monthly Balance Curve</text>
<text x="15" y="287.5" transform="rotate(-90 15,287.5)" text-anchor="middle" font-family="sans-serif" font-size="12" fill="#333">Capital</text>
</svg>