<svg xmlns="http://www.w3.org/2000/svg" width="1200" height="600" viewBox="0 0 1200 600">
<desc>Equity curve with drawdown fill; x-axis is months only (no exact timestamps)</desc>
<text x="600.0" y="18.0" text-anchor="middle" font-family="sans-serif" font-size="14">Balance Curve 2009 (UTC)</text>
<rect x="70" y="25" width="1100" height="525" fill="white" stroke="#ccc" />
<line x1="70" y1="550.00" x2="1170" y2="550.00" stroke="#eee"/>
<text x="62" y="554.0" text-anchor="end" font-family="sans-serif" font-size="11" fill="#555">0.00</text>
<line x1="70" y1="445.00" x2="1170" y2="445.00" stroke="#eee"/>
<text x="62" y="449.0" text-anchor="end" font-family="sans-serif" font-size="11" fill="#555">264332</text>
<line x1="70" y1="340.00" x2="1170" y2="340.00" stroke="#eee"/>
<text x="62" y="344.0" text-anchor="end" font-family="sans-serif" font-size="11" fill="#555">528664</text>
<line x1="70" y1="235.00" x2="1170" y2="235.00" stroke="#eee"/>
<text x="62" y="239.0" text-anchor="end" font-family="sans-serif" font-size="11" fill="#555">792996</text>
<line x1="70" y1="130.00" x2="1170" y2="130.00" stroke="#eee"/>
<text x="62" y="134.0" text-anchor="end" font-family="sans-serif" font-size="11" fill="#555">1057327</text>
<line x1="70" y1="25.00" x2="1170" y2="25.00" stroke="#eee"/>
<text x="62" y="29.0" text-anchor="end" font-family="sans-serif" font-size="11" fill="#555">1321659</text>
<line x1="161.67" y1="25" x2="161.67" y2="550" stroke="#f2f2f2"/>
<line x1="253.33" y1="25" x2="253.33" y2="550" stroke="#f2f2f2"/>
<line x1="345.00" y1="25" x2="345.00" y2="550" stroke="#f2f2f2"/>
<line x1="436.67" y1="25" x2="436.67" y2="550" stroke="#f2f2f2"/>
<line x1="528.33" y1="25" x2="528.33" y2="550" stroke="#f2f2f2"/>
<line x1="620.00" y1="25" x2="620.00" y2="550" stroke="#f2f2f2"/>
<line x1="711.67" y1="25" x2="711.67" y2="550" stroke="#f2f2f2"/>
<line x1="803.33" y1="25" x2="803.33" y2="550" stroke="#f2f2f2"/>
<line x1="895.00" y1="25" x2="895.00" y2="550" stroke="#f2f2f2"/>
<line x1="986.67" y1="25" x2="986.67" y2="550" stroke="#f2f2f2"/>
<line x1="1078.33" y1="25" x2="1078.33" y2="550" stroke="#f2f2f2"/>
<text x="115.83" y="566.00" text-anchor="middle" font-family="sans-serif" font-size="11" fill="#444">Jan</text>
<text x="207.50" y="566.00" text-anchor="middle" font-family="sans-serif" font-size="11" fill="#444">Feb</text>
<text x="299.17" y="566.00" text-anchor="middle" font-family="sans-serif" font-size="11" fill="#444">Mar</text>
<text x="390.83" y="566.00" text-anchor="middle" font-family="sans-serif" font-size="11" fill="#444">Apr</text>
<text x="482.50" y="566.00" text-anchor="middle" font-family="sans-serif" font-size="11" fill="#444">May</text>
<text x="574.17" y="566.00" text-anchor="middle" font-family="sans-serif" font-size="11" fill="#444">Jun</text>
<text x="665.83" y="566.00" text-anchor="middle" font-family="sans-serif" font-size="11" fill="#444">Jul</text>
<text x="757.50" y="566.00" text-anchor="middle" font-family="sans-serif" font-size="11" fill="#444">Aug</text>
<text x="849.17" y="566.00" text-anchor="middle" font-family="sans-serif" font-size="11" fill="#444">Sep</text>
<text x="940.83" y="566.00" text-anchor="middle" font-family="sans-serif" font-size="11" fill="#444">Oct</text>
<text x="1032.50" y="566.00" text-anchor="middle" font-family="sans-serif" font-size="11" fill="#444">Nov</text>
<text x="1124.17" y="566.00" text-anchor="middle" font-family="sans-serif" font-size="11" fill="#444">Dec</text>
<line x1="70" y1="550" x2="1170" y2="550" stroke="#888"/>
<line x1="70" y1="25" x2="70" y2="550" stroke="#888"/>
<line x1="70.72" y1="550.00" x2="70.72" y2="556.00" stroke="#888"/>
<line x1="1164.27"   y1="550.00" x2="1164.27"   y2="556.00" stroke="#888"/>
<text x="70.72" y="582.00" text-anchor="start" font-family="sans-serif" font-size="11" fill="#333">Initial Balance: 1124389</text>
<text x="1164.27"   y="582.00" text-anchor="end"   font-family="sans-serif" font-size="11" fill="#333">Ending Balance: 1308566</text>
<path d="M 77.88 97.60 L 79.31 97.60 L 80.74 97.60 L 82.17 97.60 L 83.61 97.60 L 85.04 97.60 L 86.47 97.60 L 87.90 97.60 L 89.34 97.60 L 90.77 97.60 L 92.20 97.60 L 93.63 97.60 L 95.07 97.60 L 95.07 98.35 L 93.63 99.77 L 92.20 101.54 L 90.77 103.92 L 89.34 106.02 L 87.90 106.66 L 86.47 102.10 L 85.04 104.20 L 83.61 106.55 L 82.17 108.89 L 80.74 111.23 L 79.31 106.72 L 77.88 102.20 Z" fill="#d0d0d0" fill-opacity="0.5" stroke="none"/>
<path d="M 113.68 76.22 L 115.12 76.22 L 115.12 76.53 L 113.68 77.22 Z" fill="#d0d0d0" fill-opacity="0.5" stroke="none"/>
<path d="M 120.85 69.36 L 122.28 69.36 L 123.71 69.36 L 125.14 69.36 L 126.58 69.36 L 128.01 69.36 L 129.44 69.36 L 129.44 69.40 L 128.01 71.02 L 126.58 73.53 L 125.14 76.03 L 123.71 76.84 L 122.28 71.99 L 120.85 74.24 Z" fill="#d0d0d0" fill-opacity="0.5" stroke="none"/>
<path d="M 133.74 65.62 L 135.17 65.62 L 136.60 65.62 L 138.03 65.62 L 139.47 65.62 L 140.90 65.62 L 142.33 65.62 L 143.76 65.62 L 145.20 65.62 L 146.63 65.62 L 148.06 65.62 L 149.49 65.62 L 150.92 65.62 L 152.36 65.62 L 152.36 65.70 L 150.92 68.24 L 149.49 70.79 L 148.06 73.30 L 146.63 74.96 L 145.20 77.47 L 143.76 78.94 L 142.33 74.10 L 140.90 76.54 L 139.47 71.71 L 138.03 73.68 L 136.60 76.11 L 135.17 71.25 L 133.74 70.53 Z" fill="#d0d0d0" fill-opacity="0.5" stroke="none"/>
<path d="M 155.22 64.45 L 156.65 64.45 L 158.09 64.45 L 159.52 64.45 L 160.95 64.45 L 162.98 64.45 L 165.60 64.45 L 168.21 64.45 L 170.83 64.45 L 173.45 64.45 L 176.07 64.45 L 176.07 64.58 L 173.45 66.63 L 170.83 68.59 L 168.21 70.83 L 165.60 72.09 L 162.98 67.19 L 160.95 69.48 L 159.52 71.99 L 158.09 72.76 L 156.65 74.22 L 155.22 69.37 Z" fill="#d0d0d0" fill-opacity="0.5" stroke="none"/>
<path d="M 181.31 62.39 L 183.93 62.39 L 186.55 62.39 L 189.17 62.39 L 191.79 62.39 L 194.40 62.39 L 197.02 62.39 L 199.64 62.39 L 202.26 62.39 L 204.88 62.39 L 207.50 62.39 L 210.12 62.39 L 210.12 64.87 L 207.50 67.41 L 204.88 67.59 L 202.26 69.91 L 199.64 72.27 L 197.02 73.98 L 194.40 69.12 L 191.79 71.81 L 189.17 66.91 L 186.55 68.47 L 183.93 68.79 L 181.31 63.86 Z" fill="#d0d0d0" fill-opacity="0.5" stroke="none"/>
<path d="M 231.07 52.60 L 233.69 52.60 L 236.31 52.60 L 238.93 52.60 L 241.55 52.60 L 244.17 52.60 L 246.79 52.60 L 249.40 52.60 L 252.02 52.60 L 254.64 52.60 L 257.26 52.60 L 259.88 52.60 L 262.50 52.60 L 265.12 52.60 L 267.74 52.60 L 270.36 52.60 L 272.98 52.60 L 275.60 52.60 L 278.21 52.60 L 280.83 52.60 L 283.45 52.60 L 286.07 52.60 L 288.69 52.60 L 291.31 52.60 L 293.93 52.60 L 296.55 52.60 L 299.17 52.60 L 301.79 52.60 L 304.40 52.60 L 307.02 52.60 L 309.64 52.60 L 312.26 52.60 L 314.88 52.60 L 317.50 52.60 L 320.12 52.60 L 322.74 52.60 L 325.36 52.60 L 327.98 52.60 L 330.60 52.60 L 333.21 52.60 L 335.83 52.60 L 338.45 52.60 L 341.07 52.60 L 343.69 52.60 L 347.29 52.60 L 351.88 52.60 L 356.46 52.60 L 361.04 52.60 L 365.62 52.60 L 370.21 52.60 L 374.79 52.60 L 379.38 52.60 L 383.96 52.60 L 388.54 52.60 L 393.12 52.60 L 397.71 52.60 L 402.29 52.60 L 406.88 52.60 L 411.46 52.60 L 416.04 52.60 L 420.62 52.60 L 425.21 52.60 L 429.79 52.60 L 434.38 52.60 L 440.19 52.60 L 447.24 52.60 L 454.29 52.60 L 461.35 52.60 L 468.40 52.60 L 475.45 52.60 L 482.50 52.60 L 489.55 52.60 L 496.60 52.60 L 503.65 52.60 L 510.71 52.60 L 517.76 52.60 L 524.81 52.60 L 531.61 52.60 L 538.15 52.60 L 544.70 52.60 L 551.25 52.60 L 557.80 52.60 L 564.35 52.60 L 570.89 52.60 L 577.44 52.60 L 583.99 52.60 L 590.54 52.60 L 597.08 52.60 L 603.63 52.60 L 610.18 52.60 L 616.73 52.60 L 625.09 52.60 L 635.28 52.60 L 645.46 52.60 L 655.65 52.60 L 665.83 52.60 L 676.02 52.60 L 686.20 52.60 L 696.39 52.60 L 706.57 52.60 L 726.94 52.60 L 757.50 52.60 L 788.06 52.60 L 809.06 52.60 L 820.52 52.60 L 831.98 52.60 L 843.44 52.60 L 843.44 53.34 L 831.98 53.83 L 820.52 56.47 L 809.06 57.93 L 788.06 52.90 L 757.50 53.88 L 726.94 56.52 L 706.57 58.17 L 696.39 58.11 L 686.20 53.08 L 676.02 53.35 L 665.83 55.73 L 655.65 57.25 L 645.46 59.87 L 635.28 60.28 L 625.09 61.61 L 616.73 64.21 L 610.18 64.00 L 603.63 66.59 L 597.08 67.61 L 590.54 68.17 L 583.99 69.37 L 577.44 71.68 L 570.89 74.03 L 564.35 69.14 L 557.80 71.24 L 551.25 66.33 L 544.70 68.91 L 538.15 70.24 L 531.61 71.89 L 524.81 66.99 L 517.76 62.04 L 510.71 62.08 L 503.65 57.08 L 496.60 58.70 L 489.55 59.97 L 482.50 62.57 L 475.45 65.15 L 468.40 67.44 L 461.35 69.99 L 454.29 72.53 L 447.24 75.06 L 440.19 76.64 L 434.38 78.80 L 429.79 81.29 L 425.21 76.47 L 420.62 75.21 L 416.04 76.72 L 411.46 77.60 L 406.88 79.53 L 402.29 81.20 L 397.71 76.38 L 393.12 78.88 L 388.54 77.33 L 383.96 79.33 L 379.38 81.02 L 374.79 76.20 L 370.21 76.76 L 365.62 79.26 L 361.04 81.05 L 356.46 81.62 L 351.88 83.53 L 347.29 85.72 L 343.69 88.18 L 341.07 89.51 L 338.45 91.70 L 335.83 93.59 L 333.21 88.93 L 330.60 84.19 L 327.98 86.11 L 325.36 87.29 L 322.74 89.59 L 320.12 84.85 L 317.50 85.11 L 314.88 86.36 L 312.26 86.93 L 309.64 82.18 L 307.02 84.46 L 304.40 86.14 L 301.79 81.41 L 299.17 76.59 L 296.55 79.02 L 293.93 74.18 L 291.31 76.28 L 288.69 78.50 L 286.07 78.97 L 283.45 79.66 L 280.83 81.45 L 278.21 83.34 L 275.60 83.78 L 272.98 78.99 L 270.36 80.76 L 267.74 79.82 L 265.12 74.99 L 262.50 76.30 L 259.88 77.94 L 257.26 73.08 L 254.64 74.48 L 252.02 76.43 L 249.40 71.57 L 246.79 66.66 L 244.17 68.36 L 241.55 69.91 L 238.93 72.43 L 236.31 67.56 L 233.69 62.62 L 231.07 57.62 Z" fill="#d0d0d0" fill-opacity="0.5" stroke="none"/>
<path d="M 877.81 48.31 L 889.27 48.31 L 901.55 48.31 L 914.64 48.31 L 914.64 50.09 L 901.55 52.36 L 889.27 51.75 L 877.81 53.36 Z" fill="#d0d0d0" fill-opacity="0.5" stroke="none"/>
<path d="M 1055.42 32.85 L 1070.69 32.85 L 1084.06 32.85 L 1095.52 32.85 L 1095.52 33.11 L 1084.06 34.50 L 1070.69 37.04 L 1055.42 38.06 Z" fill="#d0d0d0" fill-opacity="0.5" stroke="none"/>
<path d="M 1152.81 25.00 L 1164.27 25.00 L 1164.27 30.20 L 1152.81 30.28 Z" fill="#d0d0d0" fill-opacity="0.5" stroke="none"/>
<polyline fill="none" stroke="#111" stroke-width="1.2" points="70.72,103.36 72.15,103.18 73.58,102.20 75.01,100.00 76.45,97.60 77.88,102.20 79.31,106.72 80.74,111.23 82.17,108.89 83.61,106.55 85.04,104.20 86.47,102.10 87.90,106.66 89.34,106.02 90.77,103.92 92.20,101.54 93.63,99.77 95.07,98.35 96.50,95.77 97.93,95.68 99.36,93.25 100.79,90.81 102.23,88.68 103.66,87.13 105.09,85.23 106.52,83.00 107.96,80.71 109.39,78.60 110.82,76.40 112.25,76.22 113.68,77.22 115.12,76.53 116.55,74.19 117.98,71.90 119.41,69.36 120.85,74.24 122.28,71.99 123.71,76.84 125.14,76.03 126.58,73.53 128.01,71.02 129.44,69.40 130.87,67.09 132.30,65.62 133.74,70.53 135.17,71.25 136.60,76.11 138.03,73.68 139.47,71.71 140.90,76.54 142.33,74.10 143.76,78.94 145.20,77.47 146.63,74.96 148.06,73.30 149.49,70.79 150.92,68.24 152.36,65.70 153.79,64.45 155.22,69.37 156.65,74.22 158.09,72.76 159.52,71.99 160.95,69.48 162.98,67.19 165.60,72.09 168.21,70.83 170.83,68.59 173.45,66.63 176.07,64.58 178.69,62.39 181.31,63.86 183.93,68.79 186.55,68.47 189.17,66.91 191.79,71.81 194.40,69.12 197.02,73.98 199.64,72.27 202.26,69.91 204.88,67.59 207.50,67.41 210.12,64.87 212.74,62.32 215.36,61.88 217.98,59.51 220.60,58.91 223.21,57.42 225.83,55.38 228.45,52.60 231.07,57.62 233.69,62.62 236.31,67.56 238.93,72.43 241.55,69.91 244.17,68.36 246.79,66.66 249.40,71.57 252.02,76.43 254.64,74.48 257.26,73.08 259.88,77.94 262.50,76.30 265.12,74.99 267.74,79.82 270.36,80.76 272.98,78.99 275.60,83.78 278.21,83.34 280.83,81.45 283.45,79.66 286.07,78.97 288.69,78.50 291.31,76.28 293.93,74.18 296.55,79.02 299.17,76.59 301.79,81.41 304.40,86.14 307.02,84.46 309.64,82.18 312.26,86.93 314.88,86.36 317.50,85.11 320.12,84.85 322.74,89.59 325.36,87.29 327.98,86.11 330.60,84.19 333.21,88.93 335.83,93.59 338.45,91.70 341.07,89.51 343.69,88.18 347.29,85.72 351.88,83.53 356.46,81.62 361.04,81.05 365.62,79.26 370.21,76.76 374.79,76.20 379.38,81.02 383.96,79.33 388.54,77.33 393.12,78.88 397.71,76.38 402.29,81.20 406.88,79.53 411.46,77.60 416.04,76.72 420.62,75.21 425.21,76.47 429.79,81.29 434.38,78.80 440.19,76.64 447.24,75.06 454.29,72.53 461.35,69.99 468.40,67.44 475.45,65.15 482.50,62.57 489.55,59.97 496.60,58.70 503.65,57.08 510.71,62.08 517.76,62.04 524.81,66.99 531.61,71.89 538.15,70.24 544.70,68.91 551.25,66.33 557.80,71.24 564.35,69.14 570.89,74.03 577.44,71.68 583.99,69.37 590.54,68.17 597.08,67.61 603.63,66.59 610.18,64.00 616.73,64.21 625.09,61.61 635.28,60.28 645.46,59.87 655.65,57.25 665.83,55.73 676.02,53.35 686.20,53.08 696.39,58.11 706.57,58.17 726.94,56.52 757.50,53.88 788.06,52.90 809.06,57.93 820.52,56.47 831.98,53.83 843.44,53.34 854.90,51.15 866.35,48.31 877.81,53.36 889.27,51.75 901.55,52.36 914.64,50.09 927.74,47.88 940.83,46.41 953.93,45.15 967.02,43.02 980.12,40.91 994.31,39.44 1009.58,36.70 1024.86,34.81 1040.14,32.85 1055.42,38.06 1070.69,37.04 1084.06,34.50 1095.52,33.11 1106.98,30.93 1118.44,28.92 1129.90,26.40 1141.35,25.00 1152.81,30.28 1164.27,30.20"/>
<text x="15" y="287.5" transform="rotate(-90 15,287.5)" text-anchor="middle" font-family="sans-serif" font-size="12" fill="#333">USD</text>
</svg>