<svg xmlns="http://www.w3.org/2000/svg" width="1200" height="600" viewBox="0 0 1200 600">
<desc>Equity curve with drawdown fill; x-axis is months only (no exact timestamps)</desc>
<text x="600.0" y="18.0" text-anchor="middle" font-family="sans-serif" font-size="14">Balance Curve 2008 (UTC)</text>
<rect x="70" y="25" width="1100" height="525" fill="white" stroke="#ccc" />
<line x1="70" y1="550.00" x2="1170" y2="550.00" stroke="#eee"/>
<text x="62" y="554.0" text-anchor="end" font-family="sans-serif" font-size="11" fill="#555">0.00</text>
<line x1="70" y1="445.00" x2="1170" y2="445.00" stroke="#eee"/>
<text x="62" y="449.0" text-anchor="end" font-family="sans-serif" font-size="11" fill="#555">26640</text>
<line x1="70" y1="340.00" x2="1170" y2="340.00" stroke="#eee"/>
<text x="62" y="344.0" text-anchor="end" font-family="sans-serif" font-size="11" fill="#555">53280</text>
<line x1="70" y1="235.00" x2="1170" y2="235.00" stroke="#eee"/>
<text x="62" y="239.0" text-anchor="end" font-family="sans-serif" font-size="11" fill="#555">79920</text>
<line x1="70" y1="130.00" x2="1170" y2="130.00" stroke="#eee"/>
<text x="62" y="134.0" text-anchor="end" font-family="sans-serif" font-size="11" fill="#555">106560</text>
<line x1="70" y1="25.00" x2="1170" y2="25.00" stroke="#eee"/>
<text x="62" y="29.0" text-anchor="end" font-family="sans-serif" font-size="11" fill="#555">133200</text>
<line x1="170.00" y1="25" x2="170.00" y2="550" stroke="#f2f2f2"/>
<line x1="270.00" y1="25" x2="270.00" y2="550" stroke="#f2f2f2"/>
<line x1="370.00" y1="25" x2="370.00" y2="550" stroke="#f2f2f2"/>
<line x1="470.00" y1="25" x2="470.00" y2="550" stroke="#f2f2f2"/>
<line x1="570.00" y1="25" x2="570.00" y2="550" stroke="#f2f2f2"/>
<line x1="670.00" y1="25" x2="670.00" y2="550" stroke="#f2f2f2"/>
<line x1="770.00" y1="25" x2="770.00" y2="550" stroke="#f2f2f2"/>
<line x1="870.00" y1="25" x2="870.00" y2="550" stroke="#f2f2f2"/>
<line x1="970.00" y1="25" x2="970.00" y2="550" stroke="#f2f2f2"/>
<line x1="1070.00" y1="25" x2="1070.00" y2="550" stroke="#f2f2f2"/>
<text x="120.00" y="566.00" text-anchor="middle" font-family="sans-serif" font-size="11" fill="#444">Jan</text>
<text x="220.00" y="566.00" text-anchor="middle" font-family="sans-serif" font-size="11" fill="#444">Feb</text>
<text x="320.00" y="566.00" text-anchor="middle" font-family="sans-serif" font-size="11" fill="#444">Mar</text>
<text x="420.00" y="566.00" text-anchor="middle" font-family="sans-serif" font-size="11" fill="#444">Apr</text>
<text x="520.00" y="566.00" text-anchor="middle" font-family="sans-serif" font-size="11" fill="#444">May</text>
<text x="620.00" y="566.00" text-anchor="middle" font-family="sans-serif" font-size="11" fill="#444">Jul</text>
<text x="720.00" y="566.00" text-anchor="middle" font-family="sans-serif" font-size="11" fill="#444">Aug</text>
<text x="820.00" y="566.00" text-anchor="middle" font-family="sans-serif" font-size="11" fill="#444">Sep</text>
<text x="920.00" y="566.00" text-anchor="middle" font-family="sans-serif" font-size="11" fill="#444">Oct</text>
<text x="1020.00" y="566.00" text-anchor="middle" font-family="sans-serif" font-size="11" fill="#444">Nov</text>
<text x="1120.00" y="566.00" text-anchor="middle" font-family="sans-serif" font-size="11" fill="#444">Dec</text>
<line x1="70" y1="550" x2="1170" y2="550" stroke="#888"/>
<line x1="70" y1="25" x2="70" y2="550" stroke="#888"/>
<line x1="86.67" y1="550.00" x2="86.67" y2="556.00" stroke="#888"/>
<line x1="1169.26"   y1="550.00" x2="1169.26"   y2="556.00" stroke="#888"/>
<text x="86.67" y="582.00" text-anchor="start" font-family="sans-serif" font-size="11" fill="#333">Initial Balance: 100000</text>
<text x="1169.26"   y="582.00" text-anchor="end"   font-family="sans-serif" font-size="11" fill="#333">Ending Balance: 133200</text>
<path d="M 153.33 153.53 L 186.67 153.53 L 220.00 153.53 L 253.33 153.53 L 275.00 153.53 L 285.00 153.53 L 295.00 153.53 L 295.00 154.04 L 285.00 155.07 L 275.00 153.82 L 253.33 155.74 L 220.00 153.80 L 186.67 153.68 L 153.33 154.39 Z" fill="#d0d0d0" fill-opacity="0.5" stroke="none"/>
<path d="M 325.00 150.46 L 335.00 150.46 L 345.00 150.46 L 345.00 151.64 L 335.00 153.99 L 325.00 154.45 Z" fill="#d0d0d0" fill-opacity="0.5" stroke="none"/>
<path d="M 407.50 148.73 L 407.50 148.97 Z" fill="#d0d0d0" fill-opacity="0.5" stroke="none"/>
<path d="M 457.50 146.80 L 482.50 146.80 L 507.50 146.80 L 507.50 147.70 L 482.50 148.46 L 457.50 150.82 Z" fill="#d0d0d0" fill-opacity="0.5" stroke="none"/>
<path d="M 699.17 137.71 L 707.50 137.71 L 715.83 137.71 L 724.17 137.71 L 732.50 137.71 L 740.83 137.71 L 749.17 137.71 L 757.50 137.71 L 765.83 137.71 L 771.79 137.71 L 775.36 137.71 L 778.93 137.71 L 782.50 137.71 L 786.07 137.71 L 789.64 137.71 L 793.21 137.71 L 796.79 137.71 L 800.36 137.71 L 803.93 137.71 L 807.50 137.71 L 811.07 137.71 L 814.64 137.71 L 818.21 137.71 L 818.21 138.29 L 814.64 137.84 L 811.07 140.11 L 807.50 140.66 L 803.93 142.40 L 800.36 144.59 L 796.79 146.60 L 793.21 147.34 L 789.64 149.69 L 786.07 145.65 L 782.50 148.00 L 778.93 149.41 L 775.36 145.37 L 771.79 146.39 L 765.83 146.95 L 757.50 148.12 L 749.17 144.08 L 740.83 143.62 L 732.50 144.05 L 724.17 144.49 L 715.83 146.03 L 707.50 145.88 L 699.17 141.82 Z" fill="#d0d0d0" fill-opacity="0.5" stroke="none"/>
<path d="M 825.36 136.10 L 828.93 136.10 L 832.50 136.10 L 836.07 136.10 L 839.64 136.10 L 843.21 136.10 L 846.79 136.10 L 850.36 136.10 L 853.93 136.10 L 857.50 136.10 L 861.07 136.10 L 864.64 136.10 L 868.21 136.10 L 870.49 136.10 L 871.46 136.10 L 872.43 136.10 L 873.40 136.10 L 874.37 136.10 L 875.34 136.10 L 876.31 136.10 L 877.28 136.10 L 878.25 136.10 L 879.22 136.10 L 880.19 136.10 L 881.17 136.10 L 882.14 136.10 L 883.11 136.10 L 884.08 136.10 L 885.05 136.10 L 886.02 136.10 L 886.99 136.10 L 887.96 136.10 L 888.93 136.10 L 889.90 136.10 L 890.87 136.10 L 891.84 136.10 L 892.82 136.10 L 893.79 136.10 L 894.76 136.10 L 895.73 136.10 L 896.70 136.10 L 897.67 136.10 L 898.64 136.10 L 899.61 136.10 L 900.58 136.10 L 901.55 136.10 L 902.52 136.10 L 903.50 136.10 L 904.47 136.10 L 905.44 136.10 L 906.41 136.10 L 907.38 136.10 L 908.35 136.10 L 909.32 136.10 L 910.29 136.10 L 911.26 136.10 L 912.23 136.10 L 913.20 136.10 L 914.17 136.10 L 915.15 136.10 L 916.12 136.10 L 917.09 136.10 L 918.06 136.10 L 919.03 136.10 L 920.00 136.10 L 920.97 136.10 L 921.94 136.10 L 922.91 136.10 L 923.88 136.10 L 924.85 136.10 L 925.83 136.10 L 926.80 136.10 L 927.77 136.10 L 928.74 136.10 L 929.71 136.10 L 930.68 136.10 L 931.65 136.10 L 932.62 136.10 L 933.59 136.10 L 934.56 136.10 L 935.53 136.10 L 936.50 136.10 L 937.48 136.10 L 938.45 136.10 L 939.42 136.10 L 940.39 136.10 L 941.36 136.10 L 942.33 136.10 L 943.30 136.10 L 944.27 136.10 L 945.24 136.10 L 946.21 136.10 L 947.18 136.10 L 947.18 138.05 L 946.21 140.45 L 945.24 140.41 L 944.27 142.80 L 943.30 144.50 L 942.33 146.92 L 941.36 148.67 L 940.39 149.13 L 939.42 151.46 L 938.45 152.78 L 937.48 148.77 L 936.50 150.89 L 935.53 153.02 L 934.56 155.30 L 933.59 151.31 L 932.62 152.84 L 931.65 148.82 L 930.68 151.21 L 929.71 147.18 L 928.74 149.49 L 927.77 145.44 L 926.80 141.35 L 925.83 137.26 L 924.85 139.72 L 923.88 141.16 L 922.91 143.16 L 921.94 145.16 L 920.97 147.52 L 920.00 149.48 L 919.03 151.35 L 918.06 153.39 L 917.09 155.24 L 916.12 157.03 L 915.15 153.08 L 914.17 149.07 L 913.20 151.02 L 912.23 153.33 L 911.26 155.65 L 910.29 156.13 L 909.32 152.16 L 908.35 154.48 L 907.38 155.97 L 906.41 151.98 L 905.44 153.50 L 904.47 154.67 L 903.50 155.70 L 902.52 157.72 L 901.55 160.06 L 900.58 156.12 L 899.61 157.16 L 898.64 153.19 L 897.67 154.69 L 896.70 155.31 L 895.73 157.22 L 894.76 153.25 L 893.79 153.89 L 892.82 155.68 L 891.84 151.71 L 890.87 153.90 L 889.90 155.11 L 888.93 157.24 L 887.96 153.27 L 886.99 155.56 L 886.02 157.68 L 885.05 159.65 L 884.08 155.71 L 883.11 151.74 L 882.14 153.24 L 881.17 154.84 L 880.19 156.64 L 879.22 158.37 L 878.25 160.67 L 877.28 156.74 L 876.31 157.21 L 875.34 159.28 L 874.37 160.71 L 873.40 156.79 L 872.43 158.95 L 871.46 155.01 L 870.49 156.68 L 868.21 157.49 L 864.64 159.84 L 861.07 162.12 L 857.50 158.22 L 853.93 159.75 L 850.36 159.65 L 846.79 155.71 L 843.21 151.75 L 839.64 150.16 L 836.07 146.14 L 832.50 142.07 L 828.93 137.97 L 825.36 140.22 Z" fill="#d0d0d0" fill-opacity="0.5" stroke="none"/>
<path d="M 949.13 133.62 L 949.13 137.74 Z" fill="#d0d0d0" fill-opacity="0.5" stroke="none"/>
<path d="M 951.07 133.62 L 952.04 133.62 L 953.01 133.62 L 953.98 133.62 L 954.95 133.62 L 955.92 133.62 L 956.89 133.62 L 957.86 133.62 L 958.83 133.62 L 959.81 133.62 L 960.78 133.62 L 961.75 133.62 L 962.72 133.62 L 963.69 133.62 L 963.69 135.24 L 962.72 137.66 L 961.75 138.58 L 960.78 140.80 L 959.81 142.66 L 958.83 143.44 L 957.86 139.34 L 956.89 141.51 L 955.92 137.38 L 954.95 139.38 L 953.98 141.61 L 953.01 144.00 L 952.04 145.90 L 951.07 141.82 Z" fill="#d0d0d0" fill-opacity="0.5" stroke="none"/>
<path d="M 970.63 121.18 L 971.88 121.18 L 973.12 121.18 L 974.38 121.18 L 975.63 121.18 L 976.88 121.18 L 978.12 121.18 L 979.38 121.18 L 980.62 121.18 L 981.88 121.18 L 983.13 121.18 L 984.38 121.18 L 985.62 121.18 L 986.88 121.18 L 988.13 121.18 L 989.38 121.18 L 990.62 121.18 L 991.88 121.18 L 991.88 122.92 L 990.62 125.41 L 989.38 127.65 L 988.13 123.40 L 986.88 125.77 L 985.62 127.95 L 984.38 129.12 L 983.13 131.27 L 981.88 131.28 L 980.62 127.06 L 979.38 129.18 L 978.12 131.40 L 976.88 131.18 L 975.63 126.96 L 974.38 129.13 L 973.12 130.66 L 971.88 126.43 L 970.63 125.45 Z" fill="#d0d0d0" fill-opacity="0.5" stroke="none"/>
<path d="M 994.38 120.44 L 995.63 120.44 L 996.88 120.44 L 998.12 120.44 L 999.38 120.44 L 1000.62 120.44 L 1001.88 120.44 L 1003.12 120.44 L 1004.38 120.44 L 1004.38 121.16 L 1003.12 123.21 L 1001.88 124.81 L 1000.62 120.52 L 999.38 123.00 L 998.12 125.25 L 996.88 120.98 L 995.63 122.83 L 994.38 124.71 Z" fill="#d0d0d0" fill-opacity="0.5" stroke="none"/>
<path d="M 1025.62 92.35 L 1026.88 92.35 L 1026.88 94.20 L 1025.62 96.89 Z" fill="#d0d0d0" fill-opacity="0.5" stroke="none"/>
<path d="M 1029.38 89.29 L 1029.38 93.81 Z" fill="#d0d0d0" fill-opacity="0.5" stroke="none"/>
<path d="M 1031.88 89.29 L 1033.12 89.29 L 1033.12 89.41 L 1031.88 92.05 Z" fill="#d0d0d0" fill-opacity="0.5" stroke="none"/>
<path d="M 1040.62 77.26 L 1041.88 77.26 L 1043.12 77.26 L 1044.38 77.26 L 1045.62 77.26 L 1046.88 77.26 L 1048.12 77.26 L 1049.38 77.26 L 1050.62 77.26 L 1050.62 77.58 L 1049.38 80.29 L 1048.12 81.27 L 1046.88 83.50 L 1045.62 85.98 L 1044.38 81.35 L 1043.12 83.89 L 1041.88 79.24 L 1040.62 81.92 Z" fill="#d0d0d0" fill-opacity="0.5" stroke="none"/>
<path d="M 1059.38 66.75 L 1060.62 66.75 L 1061.88 66.75 L 1063.12 66.75 L 1064.38 66.75 L 1065.62 66.75 L 1066.88 66.75 L 1068.12 66.75 L 1069.38 66.75 L 1070.74 66.75 L 1070.74 68.64 L 1069.38 70.42 L 1068.12 72.95 L 1066.88 74.97 L 1065.62 77.69 L 1064.38 79.80 L 1063.12 75.11 L 1061.88 70.38 L 1060.62 71.65 L 1059.38 71.51 Z" fill="#d0d0d0" fill-opacity="0.5" stroke="none"/>
<path d="M 1076.62 60.99 L 1078.09 60.99 L 1079.56 60.99 L 1081.03 60.99 L 1081.03 61.81 L 1079.56 64.13 L 1078.09 65.34 L 1076.62 65.79 Z" fill="#d0d0d0" fill-opacity="0.5" stroke="none"/>
<path d="M 1083.97 59.68 L 1085.44 59.68 L 1086.91 59.68 L 1088.38 59.68 L 1089.85 59.68 L 1091.32 59.68 L 1092.79 59.68 L 1092.79 61.61 L 1091.32 64.06 L 1089.85 63.30 L 1088.38 65.66 L 1086.91 60.86 L 1085.44 63.18 L 1083.97 64.49 Z" fill="#d0d0d0" fill-opacity="0.5" stroke="none"/>
<path d="M 1111.91 36.93 L 1113.38 36.93 L 1114.85 36.93 L 1116.32 36.93 L 1117.79 36.93 L 1119.26 36.93 L 1120.74 36.93 L 1122.21 36.93 L 1123.68 36.93 L 1125.15 36.93 L 1126.62 36.93 L 1128.09 36.93 L 1129.56 36.93 L 1131.03 36.93 L 1132.50 36.93 L 1133.97 36.93 L 1135.44 36.93 L 1136.91 36.93 L 1138.38 36.93 L 1139.85 36.93 L 1141.32 36.93 L 1142.79 36.93 L 1144.26 36.93 L 1145.74 36.93 L 1147.21 36.93 L 1148.68 36.93 L 1150.15 36.93 L 1151.62 36.93 L 1153.09 36.93 L 1154.56 36.93 L 1156.03 36.93 L 1157.50 36.93 L 1158.97 36.93 L 1158.97 39.38 L 1157.50 41.45 L 1156.03 44.34 L 1154.56 46.96 L 1153.09 49.56 L 1151.62 49.27 L 1150.15 51.81 L 1148.68 54.64 L 1147.21 56.67 L 1145.74 58.81 L 1144.26 60.43 L 1142.79 55.59 L 1141.32 58.41 L 1139.85 60.56 L 1138.38 55.71 L 1136.91 58.33 L 1135.44 53.47 L 1133.97 56.01 L 1132.50 58.64 L 1131.03 61.19 L 1129.56 61.61 L 1128.09 56.79 L 1126.62 58.25 L 1125.15 53.39 L 1123.68 48.50 L 1122.21 43.55 L 1120.74 44.26 L 1119.26 46.79 L 1117.79 46.45 L 1116.32 49.07 L 1114.85 51.78 L 1113.38 46.87 L 1111.91 41.92 Z" fill="#d0d0d0" fill-opacity="0.5" stroke="none"/>
<polyline fill="none" stroke="#111" stroke-width="1.2" points="86.67,155.85 120.00,153.53 153.33,154.39 186.67,153.68 220.00,153.80 253.33,155.74 275.00,153.82 285.00,155.07 295.00,154.04 305.00,152.03 315.00,150.46 325.00,154.45 335.00,153.99 345.00,151.64 355.00,149.77 365.00,149.43 382.50,148.73 407.50,148.97 432.50,146.80 457.50,150.82 482.50,148.46 507.50,147.70 532.50,146.67 557.50,144.73 620.00,142.77 674.17,141.35 682.50,139.41 690.83,137.71 699.17,141.82 707.50,145.88 715.83,146.03 724.17,144.49 732.50,144.05 740.83,143.62 749.17,144.08 757.50,148.12 765.83,146.95 771.79,146.39 775.36,145.37 778.93,149.41 782.50,148.00 786.07,145.65 789.64,149.69 793.21,147.34 796.79,146.60 800.36,144.59 803.93,142.40 807.50,140.66 811.07,140.11 814.64,137.84 818.21,138.29 821.79,136.10 825.36,140.22 828.93,137.97 832.50,142.07 836.07,146.14 839.64,150.16 843.21,151.75 846.79,155.71 850.36,159.65 853.93,159.75 857.50,158.22 861.07,162.12 864.64,159.84 868.21,157.49 870.49,156.68 871.46,155.01 872.43,158.95 873.40,156.79 874.37,160.71 875.34,159.28 876.31,157.21 877.28,156.74 878.25,160.67 879.22,158.37 880.19,156.64 881.17,154.84 882.14,153.24 883.11,151.74 884.08,155.71 885.05,159.65 886.02,157.68 886.99,155.56 887.96,153.27 888.93,157.24 889.90,155.11 890.87,153.90 891.84,151.71 892.82,155.68 893.79,153.89 894.76,153.25 895.73,157.22 896.70,155.31 897.67,154.69 898.64,153.19 899.61,157.16 900.58,156.12 901.55,160.06 902.52,157.72 903.50,155.70 904.47,154.67 905.44,153.50 906.41,151.98 907.38,155.97 908.35,154.48 909.32,152.16 910.29,156.13 911.26,155.65 912.23,153.33 913.20,151.02 914.17,149.07 915.15,153.08 916.12,157.03 917.09,155.24 918.06,153.39 919.03,151.35 920.00,149.48 920.97,147.52 921.94,145.16 922.91,143.16 923.88,141.16 924.85,139.72 925.83,137.26 926.80,141.35 927.77,145.44 928.74,149.49 929.71,147.18 930.68,151.21 931.65,148.82 932.62,152.84 933.59,151.31 934.56,155.30 935.53,153.02 936.50,150.89 937.48,148.77 938.45,152.78 939.42,151.46 940.39,149.13 941.36,148.67 942.33,146.92 943.30,144.50 944.27,142.80 945.24,140.41 946.21,140.45 947.18,138.05 948.16,136.10 949.13,137.74 950.10,133.62 951.07,141.82 952.04,145.90 953.01,144.00 953.98,141.61 954.95,139.38 955.92,137.38 956.89,141.51 957.86,139.34 958.83,143.44 959.81,142.66 960.78,140.80 961.75,138.58 962.72,137.66 963.69,135.24 964.66,132.80 965.63,130.61 966.60,128.16 967.57,125.69 968.54,123.21 969.51,121.18 970.63,125.45 971.88,126.43 973.12,130.66 974.38,129.13 975.63,126.96 976.88,131.18 978.12,131.40 979.38,129.18 980.62,127.06 981.88,131.28 983.13,131.27 984.38,129.12 985.62,127.95 986.88,125.77 988.13,123.40 989.38,127.65 990.62,125.41 991.88,122.92 993.12,120.44 994.38,124.71 995.63,122.83 996.88,120.98 998.12,125.25 999.38,123.00 1000.62,120.52 1001.88,124.81 1003.12,123.21 1004.38,121.16 1005.62,118.66 1006.88,116.99 1008.13,114.73 1009.38,113.21 1010.62,110.91 1011.88,108.65 1013.12,106.58 1014.38,104.92 1015.62,103.51 1016.88,102.52 1018.12,100.27 1019.38,99.82 1020.62,99.42 1021.88,96.80 1023.12,94.32 1024.38,92.35 1025.62,96.89 1026.88,94.20 1028.12,92.01 1029.38,93.81 1030.62,89.29 1031.88,92.05 1033.12,89.41 1034.38,86.74 1035.62,84.39 1036.88,81.90 1038.12,79.68 1039.38,77.26 1040.62,81.92 1041.88,79.24 1043.12,83.89 1044.38,81.35 1045.62,85.98 1046.88,83.50 1048.12,81.27 1049.38,80.29 1050.62,77.58 1051.88,76.21 1053.12,73.84 1054.38,71.59 1055.62,70.39 1056.88,68.05 1058.12,66.75 1059.38,71.51 1060.62,71.65 1061.88,70.38 1063.12,75.11 1064.38,79.80 1065.62,77.69 1066.88,74.97 1068.12,72.95 1069.38,70.42 1070.74,68.64 1072.21,66.11 1073.68,63.78 1075.15,60.99 1076.62,65.79 1078.09,65.34 1079.56,64.13 1081.03,61.81 1082.50,59.68 1083.97,64.49 1085.44,63.18 1086.91,60.86 1088.38,65.66 1089.85,63.30 1091.32,64.06 1092.79,61.61 1094.26,58.99 1095.74,58.44 1097.21,57.44 1098.68,54.61 1100.15,51.77 1101.62,48.92 1103.09,46.07 1104.56,44.87 1106.03,43.03 1107.50,40.14 1108.97,37.69 1110.44,36.93 1111.91,41.92 1113.38,46.87 1114.85,51.78 1116.32,49.07 1117.79,46.45 1119.26,46.79 1120.74,44.26 1122.21,43.55 1123.68,48.50 1125.15,53.39 1126.62,58.25 1128.09,56.79 1129.56,61.61 1131.03,61.19 1132.50,58.64 1133.97,56.01 1135.44,53.47 1136.91,58.33 1138.38,55.71 1139.85,60.56 1141.32,58.41 1142.79,55.59 1144.26,60.43 1145.74,58.81 1147.21,56.67 1148.68,54.64 1150.15,51.81 1151.62,49.27 1153.09,49.56 1154.56,46.96 1156.03,44.34 1157.50,41.45 1158.97,39.38 1160.44,36.47 1161.91,34.36 1163.38,33.75 1164.85,31.28 1166.32,29.18 1167.79,27.69 1169.26,25.00"/>
<text x="15" y="287.5" transform="rotate(-90 15,287.5)" text-anchor="middle" font-family="sans-serif" font-size="12" fill="#333">USD</text>
</svg>