<svg xmlns="http://www.w3.org/2000/svg" width="1200" height="600" viewBox="0 0 1200 600">
<desc>Equity curve with drawdown fill; x-axis is months only (no exact timestamps)</desc>
<text x="600.0" y="18.0" text-anchor="middle" font-family="sans-serif" font-size="14">Balance Curve 2012 (UTC)</text>
<rect x="70" y="25" width="1100" height="525" fill="white" stroke="#ccc" />
<line x1="70" y1="550.00" x2="1170" y2="550.00" stroke="#eee"/>
<text x="62" y="554.0" text-anchor="end" font-family="sans-serif" font-size="11" fill="#555">0.00</text>
<line x1="70" y1="445.00" x2="1170" y2="445.00" stroke="#eee"/>
<text x="62" y="449.0" text-anchor="end" font-family="sans-serif" font-size="11" fill="#555">720317</text>
<line x1="70" y1="340.00" x2="1170" y2="340.00" stroke="#eee"/>
<text x="62" y="344.0" text-anchor="end" font-family="sans-serif" font-size="11" fill="#555">1440634</text>
<line x1="70" y1="235.00" x2="1170" y2="235.00" stroke="#eee"/>
<text x="62" y="239.0" text-anchor="end" font-family="sans-serif" font-size="11" fill="#555">2160950</text>
<line x1="70" y1="130.00" x2="1170" y2="130.00" stroke="#eee"/>
<text x="62" y="134.0" text-anchor="end" font-family="sans-serif" font-size="11" fill="#555">2881267</text>
<line x1="70" y1="25.00" x2="1170" y2="25.00" stroke="#eee"/>
<text x="62" y="29.0" text-anchor="end" font-family="sans-serif" font-size="11" fill="#555">3601584</text>
<line x1="161.67" y1="25" x2="161.67" y2="550" stroke="#f2f2f2"/>
<line x1="253.33" y1="25" x2="253.33" y2="550" stroke="#f2f2f2"/>
<line x1="345.00" y1="25" x2="345.00" y2="550" stroke="#f2f2f2"/>
<line x1="436.67" y1="25" x2="436.67" y2="550" stroke="#f2f2f2"/>
<line x1="528.33" y1="25" x2="528.33" y2="550" stroke="#f2f2f2"/>
<line x1="620.00" y1="25" x2="620.00" y2="550" stroke="#f2f2f2"/>
<line x1="711.67" y1="25" x2="711.67" y2="550" stroke="#f2f2f2"/>
<line x1="803.33" y1="25" x2="803.33" y2="550" stroke="#f2f2f2"/>
<line x1="895.00" y1="25" x2="895.00" y2="550" stroke="#f2f2f2"/>
<line x1="986.67" y1="25" x2="986.67" y2="550" stroke="#f2f2f2"/>
<line x1="1078.33" y1="25" x2="1078.33" y2="550" stroke="#f2f2f2"/>
<text x="115.83" y="566.00" text-anchor="middle" font-family="sans-serif" font-size="11" fill="#444">Jan</text>
<text x="207.50" y="566.00" text-anchor="middle" font-family="sans-serif" font-size="11" fill="#444">Feb</text>
<text x="299.17" y="566.00" text-anchor="middle" font-family="sans-serif" font-size="11" fill="#444">Mar</text>
<text x="390.83" y="566.00" text-anchor="middle" font-family="sans-serif" font-size="11" fill="#444">Apr</text>
<text x="482.50" y="566.00" text-anchor="middle" font-family="sans-serif" font-size="11" fill="#444">May</text>
<text x="574.17" y="566.00" text-anchor="middle" font-family="sans-serif" font-size="11" fill="#444">Jun</text>
<text x="665.83" y="566.00" text-anchor="middle" font-family="sans-serif" font-size="11" fill="#444">Jul</text>
<text x="757.50" y="566.00" text-anchor="middle" font-family="sans-serif" font-size="11" fill="#444">Aug</text>
<text x="849.17" y="566.00" text-anchor="middle" font-family="sans-serif" font-size="11" fill="#444">Sep</text>
<text x="940.83" y="566.00" text-anchor="middle" font-family="sans-serif" font-size="11" fill="#444">Oct</text>
<text x="1032.50" y="566.00" text-anchor="middle" font-family="sans-serif" font-size="11" fill="#444">Nov</text>
<text x="1124.17" y="566.00" text-anchor="middle" font-family="sans-serif" font-size="11" fill="#444">Dec</text>
<line x1="70" y1="550" x2="1170" y2="550" stroke="#888"/>
<line x1="70" y1="25" x2="70" y2="550" stroke="#888"/>
<line x1="75.73" y1="550.00" x2="75.73" y2="556.00" stroke="#888"/>
<line x1="1124.17"   y1="550.00" x2="1124.17"   y2="556.00" stroke="#888"/>
<text x="75.73" y="582.00" text-anchor="start" font-family="sans-serif" font-size="11" fill="#333">Initial Balance: 3535176</text>
<text x="1124.17"   y="582.00" text-anchor="end"   font-family="sans-serif" font-size="11" fill="#333">Ending Balance: 3483737</text>
<path d="M 121.56 30.21 L 133.02 30.21 L 144.48 30.21 L 155.94 30.21 L 166.76 30.21 L 176.94 30.21 L 187.13 30.21 L 187.13 31.16 L 176.94 32.79 L 166.76 34.92 L 155.94 35.20 L 144.48 37.35 L 133.02 32.62 L 121.56 34.88 Z" fill="#d0d0d0" fill-opacity="0.5" stroke="none"/>
<path d="M 207.50 29.17 L 207.50 29.94 Z" fill="#d0d0d0" fill-opacity="0.5" stroke="none"/>
<path d="M 238.06 25.00 L 248.24 25.00 L 268.61 25.00 L 299.17 25.00 L 329.72 25.00 L 356.46 25.00 L 379.38 25.00 L 402.29 25.00 L 425.21 25.00 L 451.94 25.00 L 482.50 25.00 L 513.06 25.00 L 534.06 25.00 L 545.52 25.00 L 556.98 25.00 L 568.44 25.00 L 579.90 25.00 L 591.35 25.00 L 602.81 25.00 L 614.27 25.00 L 629.17 25.00 L 647.50 25.00 L 665.83 25.00 L 684.17 25.00 L 702.50 25.00 L 717.40 25.00 L 728.85 25.00 L 740.31 25.00 L 751.77 25.00 L 763.23 25.00 L 774.69 25.00 L 786.15 25.00 L 797.60 25.00 L 849.17 25.00 L 940.83 25.00 L 1001.94 25.00 L 1032.50 25.00 L 1063.06 25.00 L 1124.17 25.00 L 1124.17 42.18 L 1063.06 42.13 L 1032.50 42.55 L 1001.94 37.86 L 940.83 37.52 L 849.17 39.29 L 797.60 37.56 L 786.15 39.03 L 774.69 40.21 L 763.23 42.00 L 751.77 42.83 L 740.31 44.37 L 728.85 44.25 L 717.40 46.41 L 702.50 49.13 L 684.17 51.29 L 665.83 46.19 L 647.50 41.74 L 629.17 42.26 L 614.27 43.29 L 602.81 42.92 L 591.35 38.32 L 579.90 38.16 L 568.44 32.93 L 556.98 28.37 L 545.52 28.48 L 534.06 30.49 L 513.06 32.46 L 482.50 31.53 L 451.94 30.45 L 425.21 31.37 L 402.29 32.75 L 379.38 31.56 L 356.46 33.28 L 329.72 31.89 L 299.17 27.08 L 268.61 27.12 L 248.24 27.41 L 238.06 29.76 Z" fill="#d0d0d0" fill-opacity="0.5" stroke="none"/>
<polyline fill="none" stroke="#111" stroke-width="1.2" points="75.73,34.68 87.19,34.52 98.65,32.26 110.10,30.21 121.56,34.88 133.02,32.62 144.48,37.35 155.94,35.20 166.76,34.92 176.94,32.79 187.13,31.16 197.31,29.17 207.50,29.94 217.69,27.60 227.87,25.00 238.06,29.76 248.24,27.41 268.61,27.12 299.17,27.08 329.72,31.89 356.46,33.28 379.38,31.56 402.29,32.75 425.21,31.37 451.94,30.45 482.50,31.53 513.06,32.46 534.06,30.49 545.52,28.48 556.98,28.37 568.44,32.93 579.90,38.16 591.35,38.32 602.81,42.92 614.27,43.29 629.17,42.26 647.50,41.74 665.83,46.19 684.17,51.29 702.50,49.13 717.40,46.41 728.85,44.25 740.31,44.37 751.77,42.83 763.23,42.00 774.69,40.21 786.15,39.03 797.60,37.56 849.17,39.29 940.83,37.52 1001.94,37.86 1032.50,42.55 1063.06,42.13 1124.17,42.18"/>
<text x="15" y="287.5" transform="rotate(-90 15,287.5)" text-anchor="middle" font-family="sans-serif" font-size="12" fill="#333">USD</text>
</svg>