<svg xmlns="http://www.w3.org/2000/svg" width="1200" height="600" viewBox="0 0 1200 600">
<desc>Equity curve with drawdown fill</desc>
<text x="600.0" y="18.0" text-anchor="middle" font-family="sans-serif" font-size="14">Portfolio 2015</text>
<rect x="70" y="25" width="1100" height="525" fill="white" stroke="#ccc" />
<line x1="70" y1="550.00" x2="1170" y2="550.00" stroke="#eee"/>
<text x="62" y="554.0" text-anchor="end" font-family="sans-serif" font-size="11" fill="#555">0.00</text>
<line x1="70" y1="445.00" x2="1170" y2="445.00" stroke="#eee"/>
<text x="62" y="449.0" text-anchor="end" font-family="sans-serif" font-size="11" fill="#555">31976</text>
<line x1="70" y1="340.00" x2="1170" y2="340.00" stroke="#eee"/>
<text x="62" y="344.0" text-anchor="end" font-family="sans-serif" font-size="11" fill="#555">63951</text>
<line x1="70" y1="235.00" x2="1170" y2="235.00" stroke="#eee"/>
<text x="62" y="239.0" text-anchor="end" font-family="sans-serif" font-size="11" fill="#555">95927</text>
<line x1="70" y1="130.00" x2="1170" y2="130.00" stroke="#eee"/>
<text x="62" y="134.0" text-anchor="end" font-family="sans-serif" font-size="11" fill="#555">127902</text>
<line x1="70" y1="25.00" x2="1170" y2="25.00" stroke="#eee"/>
<text x="62" y="29.0" text-anchor="end" font-family="sans-serif" font-size="11" fill="#555">159878</text>
<line x1="125.38" y1="25" x2="125.38" y2="550" stroke="#f2f2f2"/>
<text x="125.38" y="566" text-anchor="middle" font-family="sans-serif" font-size="11" fill="#555">Feb</text>
<line x1="213.59" y1="25" x2="213.59" y2="550" stroke="#f2f2f2"/>
<text x="213.59" y="566" text-anchor="middle" font-family="sans-serif" font-size="11" fill="#555">Mar</text>
<line x1="311.26" y1="25" x2="311.26" y2="550" stroke="#f2f2f2"/>
<text x="311.26" y="566" text-anchor="middle" font-family="sans-serif" font-size="11" fill="#555">Apr</text>
<line x1="405.77" y1="25" x2="405.77" y2="550" stroke="#f2f2f2"/>
<text x="405.77" y="566" text-anchor="middle" font-family="sans-serif" font-size="11" fill="#555">May</text>
<line x1="503.43" y1="25" x2="503.43" y2="550" stroke="#f2f2f2"/>
<text x="503.43" y="566" text-anchor="middle" font-family="sans-serif" font-size="11" fill="#555">Jun</text>
<line x1="597.94" y1="25" x2="597.94" y2="550" stroke="#f2f2f2"/>
<text x="597.94" y="566" text-anchor="middle" font-family="sans-serif" font-size="11" fill="#555">Jul</text>
<line x1="695.60" y1="25" x2="695.60" y2="550" stroke="#f2f2f2"/>
<text x="695.60" y="566" text-anchor="middle" font-family="sans-serif" font-size="11" fill="#555">Aug</text>
<line x1="793.26" y1="25" x2="793.26" y2="550" stroke="#f2f2f2"/>
<text x="793.26" y="566" text-anchor="middle" font-family="sans-serif" font-size="11" fill="#555">Sep</text>
<line x1="887.77" y1="25" x2="887.77" y2="550" stroke="#f2f2f2"/>
<text x="887.77" y="566" text-anchor="middle" font-family="sans-serif" font-size="11" fill="#555">Oct</text>
<line x1="985.43" y1="25" x2="985.43" y2="550" stroke="#f2f2f2"/>
<text x="985.43" y="566" text-anchor="middle" font-family="sans-serif" font-size="11" fill="#555">Nov</text>
<line x1="1079.94" y1="25" x2="1079.94" y2="550" stroke="#f2f2f2"/>
<text x="1079.94" y="566" text-anchor="middle" font-family="sans-serif" font-size="11" fill="#555">Dec</text>
<line x1="70" y1="550" x2="1170" y2="550" stroke="#888"/>
<line x1="70" y1="25" x2="70" y2="550" stroke="#888"/>
<path d="M 70.49 220.39 L 70.54 220.39 L 73.08 220.39 L 73.08 220.81 L 70.54 223.59 L 70.49 225.38 Z" fill="#d0d0d0" fill-opacity="0.5" stroke="none"/>
<path d="M 73.93 210.02 L 73.94 210.02 L 73.94 212.54 L 73.93 215.17 Z" fill="#d0d0d0" fill-opacity="0.5" stroke="none"/>
<path d="M 95.96 198.26 L 96.00 198.26 L 96.13 198.26 L 96.19 198.26 L 98.20 198.26 L 98.22 198.26 L 98.35 198.26 L 98.41 198.26 L 98.60 198.26 L 98.64 198.26 L 98.65 198.26 L 98.89 198.26 L 106.43 198.26 L 107.54 198.26 L 110.78 198.26 L 110.83 198.26 L 111.42 198.26 L 111.53 198.26 L 111.69 198.26 L 133.49 198.26 L 133.56 198.26 L 133.70 198.26 L 137.96 198.26 L 139.03 198.26 L 139.43 198.26 L 140.43 198.26 L 143.18 198.26 L 152.33 198.26 L 155.36 198.26 L 162.01 198.26 L 175.00 198.26 L 177.39 198.26 L 181.43 198.26 L 187.26 198.26 L 187.55 198.26 L 205.96 198.26 L 206.13 198.26 L 206.14 198.26 L 206.20 198.26 L 209.23 198.26 L 225.01 198.26 L 227.99 198.26 L 228.07 198.26 L 228.45 198.26 L 230.58 198.26 L 231.12 198.26 L 231.30 198.26 L 231.35 198.26 L 243.28 198.26 L 243.90 198.26 L 244.20 198.26 L 244.20 200.79 L 243.90 203.44 L 243.28 205.92 L 231.35 207.22 L 231.30 209.29 L 231.12 204.04 L 230.58 207.08 L 228.45 209.70 L 228.07 211.98 L 227.99 214.09 L 225.01 216.66 L 209.23 219.47 L 206.20 221.45 L 206.14 222.53 L 206.13 217.48 L 205.96 212.39 L 187.55 207.19 L 187.26 210.21 L 181.43 213.07 L 177.39 215.91 L 175.00 216.96 L 162.01 219.15 L 155.36 221.08 L 152.33 223.71 L 143.18 224.61 L 140.43 223.25 L 139.43 224.50 L 139.03 226.60 L 137.96 229.10 L 133.70 229.43 L 133.56 229.44 L 133.49 230.39 L 111.69 225.46 L 111.53 220.46 L 111.42 222.83 L 110.83 225.36 L 110.78 227.67 L 107.54 222.71 L 106.43 225.19 L 98.89 220.19 L 98.65 222.59 L 98.64 225.50 L 98.60 220.53 L 98.41 215.46 L 98.35 216.85 L 98.22 211.72 L 98.20 214.45 L 96.19 209.29 L 96.13 210.05 L 96.00 208.73 L 95.96 203.55 Z" fill="#d0d0d0" fill-opacity="0.5" stroke="none"/>
<path d="M 249.32 196.64 L 249.38 196.64 L 249.51 196.64 L 249.51 198.61 L 249.38 200.20 L 249.32 202.00 Z" fill="#d0d0d0" fill-opacity="0.5" stroke="none"/>
<path d="M 253.38 195.65 L 253.39 195.65 L 253.39 197.96 L 253.38 201.02 Z" fill="#d0d0d0" fill-opacity="0.5" stroke="none"/>
<path d="M 262.81 193.45 L 269.48 193.45 L 269.48 195.89 L 262.81 198.85 Z" fill="#d0d0d0" fill-opacity="0.5" stroke="none"/>
<path d="M 270.49 191.25 L 270.89 191.25 L 271.40 191.25 L 271.47 191.25 L 271.57 191.25 L 271.70 191.25 L 271.96 191.25 L 271.96 192.33 L 271.70 195.33 L 271.57 197.84 L 271.47 200.12 L 271.40 201.59 L 270.89 196.22 L 270.49 196.69 Z" fill="#d0d0d0" fill-opacity="0.5" stroke="none"/>
<path d="M 275.42 181.85 L 275.44 181.85 L 275.77 181.85 L 275.89 181.85 L 284.29 181.85 L 284.47 181.85 L 284.66 181.85 L 287.35 181.85 L 287.35 184.30 L 284.66 184.67 L 284.47 184.00 L 284.29 186.10 L 275.89 188.94 L 275.77 190.47 L 275.44 184.95 L 275.42 187.41 Z" fill="#d0d0d0" fill-opacity="0.5" stroke="none"/>
<path d="M 296.66 171.60 L 297.34 171.60 L 297.76 171.60 L 297.76 172.21 L 297.34 175.36 L 296.66 177.31 Z" fill="#d0d0d0" fill-opacity="0.5" stroke="none"/>
<path d="M 319.63 150.23 L 331.40 150.23 L 331.50 150.23 L 335.32 150.23 L 335.84 150.23 L 338.51 150.23 L 340.74 150.23 L 350.50 150.23 L 350.91 150.23 L 350.91 152.21 L 350.50 155.50 L 340.74 157.35 L 338.51 158.63 L 335.84 152.68 L 335.32 155.38 L 331.50 158.01 L 331.40 159.04 L 319.63 153.09 Z" fill="#d0d0d0" fill-opacity="0.5" stroke="none"/>
<path d="M 354.05 149.69 L 354.18 149.69 L 354.29 149.69 L 356.69 149.69 L 357.22 149.69 L 357.30 149.69 L 357.74 149.69 L 357.83 149.69 L 357.83 150.08 L 357.74 151.54 L 357.30 154.83 L 357.22 157.31 L 356.69 160.56 L 354.29 160.27 L 354.18 161.56 L 354.05 155.64 Z" fill="#d0d0d0" fill-opacity="0.5" stroke="none"/>
<path d="M 360.05 144.49 L 360.12 144.49 L 360.12 147.76 L 360.05 150.54 Z" fill="#d0d0d0" fill-opacity="0.5" stroke="none"/>
<path d="M 361.04 144.44 L 362.99 144.44 L 363.47 144.44 L 375.40 144.44 L 375.40 145.40 L 363.47 145.13 L 362.99 148.18 L 361.04 150.49 Z" fill="#d0d0d0" fill-opacity="0.5" stroke="none"/>
<path d="M 384.74 137.08 L 384.85 137.08 L 384.98 137.08 L 384.98 138.24 L 384.85 140.82 L 384.74 143.23 Z" fill="#d0d0d0" fill-opacity="0.5" stroke="none"/>
<path d="M 401.26 131.66 L 401.41 131.66 L 401.48 131.66 L 401.67 131.66 L 401.74 131.66 L 401.96 131.66 L 402.01 131.66 L 403.76 131.66 L 403.79 131.66 L 403.87 131.66 L 404.44 131.66 L 404.73 131.66 L 407.80 131.66 L 416.45 131.66 L 417.11 131.66 L 420.21 131.66 L 420.47 131.66 L 420.47 134.06 L 420.21 135.84 L 417.11 138.54 L 416.45 140.07 L 407.80 142.08 L 404.73 144.50 L 404.44 147.63 L 403.87 150.63 L 403.79 151.83 L 403.76 145.82 L 402.01 139.70 L 401.96 143.01 L 401.74 146.35 L 401.67 147.10 L 401.48 141.00 L 401.41 134.85 L 401.26 137.87 Z" fill="#d0d0d0" fill-opacity="0.5" stroke="none"/>
<path d="M 423.47 130.61 L 423.62 130.61 L 426.44 130.61 L 429.59 130.61 L 429.61 130.61 L 429.88 130.61 L 438.34 130.61 L 441.56 130.61 L 445.52 130.61 L 447.78 130.61 L 448.83 130.61 L 451.88 130.61 L 451.98 130.61 L 452.10 130.61 L 460.47 130.61 L 461.33 130.61 L 461.33 132.27 L 460.47 133.44 L 452.10 136.26 L 451.98 137.18 L 451.88 137.82 L 448.83 131.60 L 447.78 135.06 L 445.52 137.38 L 441.56 131.16 L 438.34 132.69 L 429.88 135.27 L 429.61 138.50 L 429.59 141.90 L 426.44 145.28 L 423.62 139.16 L 423.47 136.84 Z" fill="#d0d0d0" fill-opacity="0.5" stroke="none"/>
<path d="M 463.53 129.42 L 463.59 129.42 L 463.68 129.42 L 463.74 129.42 L 464.30 129.42 L 466.66 129.42 L 468.12 129.42 L 469.93 129.42 L 473.85 129.42 L 473.92 129.42 L 474.05 129.42 L 485.63 129.42 L 489.56 129.42 L 489.70 129.42 L 489.87 129.42 L 492.48 129.42 L 505.47 129.42 L 507.71 129.42 L 508.07 129.42 L 508.45 129.42 L 508.63 129.42 L 510.83 129.42 L 511.08 129.42 L 511.58 129.42 L 511.71 129.42 L 511.77 129.42 L 511.90 129.42 L 512.00 129.42 L 514.10 129.42 L 514.15 129.42 L 514.35 129.42 L 514.75 129.42 L 514.78 129.42 L 515.21 129.42 L 515.38 129.42 L 516.08 129.42 L 517.10 129.42 L 517.98 129.42 L 526.51 129.42 L 527.31 129.42 L 528.98 129.42 L 529.74 129.42 L 530.47 129.42 L 532.90 129.42 L 533.42 129.42 L 533.70 129.42 L 533.91 129.42 L 536.10 129.42 L 539.37 129.42 L 539.41 129.42 L 539.84 129.42 L 551.79 129.42 L 552.46 129.42 L 556.33 129.42 L 556.33 131.11 L 552.46 134.57 L 551.79 136.90 L 539.84 139.10 L 539.41 142.50 L 539.37 145.10 L 536.10 148.45 L 533.91 151.80 L 533.70 155.11 L 533.42 157.89 L 532.90 160.49 L 530.47 154.55 L 529.74 156.85 L 528.98 159.83 L 527.31 163.09 L 526.51 163.36 L 517.98 166.59 L 517.10 168.50 L 516.08 171.16 L 515.38 173.10 L 515.21 176.02 L 514.78 179.16 L 514.75 181.69 L 514.35 176.03 L 514.15 170.29 L 514.10 164.51 L 512.00 158.63 L 511.90 157.01 L 511.77 155.17 L 511.71 149.24 L 511.58 143.19 L 511.08 146.32 L 510.83 148.98 L 508.63 151.54 L 508.45 145.49 L 508.07 139.40 L 507.71 142.79 L 505.47 144.38 L 492.48 147.26 L 489.87 149.72 L 489.70 152.75 L 489.56 155.70 L 485.63 154.91 L 474.05 156.49 L 473.92 156.10 L 473.85 157.43 L 469.93 151.48 L 468.12 154.77 L 466.66 158.06 L 464.30 152.09 L 463.74 146.05 L 463.68 147.89 L 463.59 141.80 L 463.53 135.66 Z" fill="#d0d0d0" fill-opacity="0.5" stroke="none"/>
<path d="M 573.25 117.12 L 574.61 117.12 L 580.44 117.12 L 584.35 117.12 L 591.55 117.12 L 591.74 117.12 L 592.62 117.12 L 592.79 117.12 L 593.71 117.12 L 594.07 117.12 L 594.07 117.32 L 593.71 121.03 L 592.79 124.23 L 592.62 126.60 L 591.74 130.25 L 591.55 123.93 L 584.35 126.01 L 580.44 127.34 L 574.61 129.83 L 573.25 123.51 Z" fill="#d0d0d0" fill-opacity="0.5" stroke="none"/>
<path d="M 596.89 114.98 L 599.29 114.98 L 599.29 118.10 L 596.89 121.41 Z" fill="#d0d0d0" fill-opacity="0.5" stroke="none"/>
<path d="M 618.17 110.83 L 618.17 110.99 Z" fill="#d0d0d0" fill-opacity="0.5" stroke="none"/>
<path d="M 627.76 92.64 L 627.76 93.12 Z" fill="#d0d0d0" fill-opacity="0.5" stroke="none"/>
<path d="M 636.93 89.74 L 636.98 89.74 L 644.00 89.74 L 663.01 89.74 L 668.48 89.74 L 668.48 93.21 L 663.01 92.32 L 644.00 94.82 L 636.98 93.90 L 636.93 96.46 Z" fill="#d0d0d0" fill-opacity="0.5" stroke="none"/>
<path d="M 707.65 73.14 L 707.65 74.08 Z" fill="#d0d0d0" fill-opacity="0.5" stroke="none"/>
<path d="M 716.29 70.25 L 716.56 70.25 L 716.56 73.36 L 716.29 77.18 Z" fill="#d0d0d0" fill-opacity="0.5" stroke="none"/>
<path d="M 728.31 69.52 L 731.53 69.52 L 754.87 69.52 L 757.52 69.52 L 760.83 69.52 L 768.43 69.52 L 768.64 69.52 L 769.73 69.52 L 769.87 69.52 L 769.92 69.52 L 770.46 69.52 L 772.75 69.52 L 772.78 69.52 L 773.33 69.52 L 776.07 69.52 L 776.13 69.52 L 776.40 69.52 L 778.82 69.52 L 779.43 69.52 L 779.61 69.52 L 782.83 69.52 L 782.91 69.52 L 782.91 70.98 L 782.83 73.83 L 779.61 77.66 L 779.43 81.08 L 778.82 80.37 L 776.40 83.30 L 776.13 87.07 L 776.07 90.99 L 773.33 87.30 L 772.78 80.48 L 772.75 83.77 L 770.46 76.91 L 769.92 78.52 L 769.87 71.67 L 769.73 75.31 L 768.64 78.84 L 768.43 79.50 L 760.83 80.64 L 757.52 73.75 L 754.87 76.90 L 731.53 76.26 L 728.31 76.47 Z" fill="#d0d0d0" fill-opacity="0.5" stroke="none"/>
<path d="M 801.35 68.32 L 801.40 68.32 L 801.54 68.32 L 805.08 68.32 L 816.04 68.32 L 823.74 68.32 L 827.06 68.32 L 842.61 68.32 L 846.16 68.32 L 848.87 68.32 L 858.47 68.32 L 880.58 68.32 L 892.92 68.32 L 892.98 68.32 L 893.40 68.32 L 905.65 68.32 L 910.97 68.32 L 911.63 68.32 L 911.63 69.77 L 910.97 70.94 L 905.65 73.32 L 893.40 76.46 L 892.98 77.10 L 892.92 79.65 L 880.58 78.84 L 858.47 77.87 L 848.87 76.95 L 846.16 79.65 L 842.61 83.44 L 827.06 81.92 L 823.74 80.43 L 816.04 84.21 L 805.08 85.17 L 801.54 88.93 L 801.40 82.12 L 801.35 75.28 Z" fill="#d0d0d0" fill-opacity="0.5" stroke="none"/>
<path d="M 933.79 66.14 L 933.79 66.96 Z" fill="#d0d0d0" fill-opacity="0.5" stroke="none"/>
<path d="M 955.92 59.33 L 956.02 59.33 L 958.82 59.33 L 975.32 59.33 L 975.53 59.33 L 981.16 59.33 L 981.16 61.66 L 975.53 64.27 L 975.32 60.57 L 958.82 64.66 L 956.02 68.54 L 955.92 61.51 Z" fill="#d0d0d0" fill-opacity="0.5" stroke="none"/>
<path d="M 1003.16 58.09 L 1003.16 58.11 Z" fill="#d0d0d0" fill-opacity="0.5" stroke="none"/>
<path d="M 1062.39 38.01 L 1063.28 38.01 L 1063.28 41.29 L 1062.39 45.29 Z" fill="#d0d0d0" fill-opacity="0.5" stroke="none"/>
<path d="M 1088.17 32.94 L 1088.32 32.94 L 1088.34 32.94 L 1088.41 32.94 L 1088.45 32.94 L 1088.58 32.94 L 1090.46 32.94 L 1091.16 32.94 L 1091.39 32.94 L 1091.73 32.94 L 1107.01 32.94 L 1107.54 32.94 L 1113.42 32.94 L 1113.42 34.13 L 1107.54 36.94 L 1107.01 40.27 L 1091.73 43.88 L 1091.39 46.35 L 1091.16 49.36 L 1090.46 53.32 L 1088.58 46.13 L 1088.45 48.86 L 1088.41 52.02 L 1088.34 44.84 L 1088.32 37.55 L 1088.17 33.80 Z" fill="#d0d0d0" fill-opacity="0.5" stroke="none"/>
<polyline fill="none" stroke="#111" stroke-width="1.2" points="70.00,220.39 70.49,225.38 70.54,223.59 73.08,220.81 73.09,217.86 73.22,215.03 73.72,212.46 73.79,210.02 73.93,215.17 73.94,212.54 76.91,209.96 77.07,207.94 85.74,206.28 92.64,205.58 92.67,202.52 95.68,199.43 95.80,198.26 95.96,203.55 96.00,208.73 96.13,210.05 96.19,209.29 98.20,214.45 98.22,211.72 98.35,216.85 98.41,215.46 98.60,220.53 98.64,225.50 98.65,222.59 98.89,220.19 106.43,225.19 107.54,222.71 110.78,227.67 110.83,225.36 111.42,222.83 111.53,220.46 111.69,225.46 133.49,230.39 133.56,229.44 133.70,229.43 137.96,229.10 139.03,226.60 139.43,224.50 140.43,223.25 143.18,224.61 152.33,223.71 155.36,221.08 162.01,219.15 175.00,216.96 177.39,215.91 181.43,213.07 187.26,210.21 187.55,207.19 205.96,212.39 206.13,217.48 206.14,222.53 206.20,221.45 209.23,219.47 225.01,216.66 227.99,214.09 228.07,211.98 228.45,209.70 230.58,207.08 231.12,204.04 231.30,209.29 231.35,207.22 243.28,205.92 243.90,203.44 244.20,200.79 246.30,197.87 246.68,197.70 247.60,196.64 249.32,202.00 249.38,200.20 249.51,198.61 250.02,195.65 253.38,201.02 253.39,197.96 253.52,195.33 253.85,193.45 262.81,198.85 269.48,195.89 269.64,192.76 269.75,191.25 270.49,196.69 270.89,196.22 271.40,201.59 271.47,200.12 271.57,197.84 271.70,195.33 271.96,192.33 272.09,189.50 272.52,187.16 275.21,184.76 275.29,181.85 275.42,187.41 275.44,184.95 275.77,190.47 275.89,188.94 284.29,186.10 284.47,184.00 284.66,184.67 287.35,184.30 287.83,181.22 287.86,178.11 288.02,177.20 293.63,175.50 294.18,172.69 294.41,171.83 294.87,171.60 296.66,177.31 297.34,175.36 297.76,172.21 297.78,169.13 309.43,166.30 313.03,163.67 315.40,161.12 316.24,158.12 319.24,154.85 319.33,151.39 319.44,150.23 319.63,153.09 331.40,159.04 331.50,158.01 335.32,155.38 335.84,152.68 338.51,158.63 340.74,157.35 350.50,155.50 350.91,152.21 354.01,149.69 354.05,155.64 354.18,161.56 354.29,160.27 356.69,160.56 357.22,157.31 357.30,154.83 357.74,151.54 357.83,150.08 358.67,146.76 359.69,144.49 360.05,150.54 360.12,147.76 360.29,144.44 361.04,150.49 362.99,148.18 363.47,145.13 375.40,145.40 376.37,143.46 379.19,141.00 382.04,139.05 382.64,137.08 384.74,143.23 384.85,140.82 384.98,138.24 385.25,136.68 395.31,134.81 398.34,131.66 401.26,137.87 401.41,134.85 401.48,141.00 401.67,147.10 401.74,146.35 401.96,143.01 402.01,139.70 403.76,145.82 403.79,151.83 403.87,150.63 404.44,147.63 404.73,144.50 407.80,142.08 416.45,140.07 417.11,138.54 420.21,135.84 420.47,134.06 422.08,130.61 423.47,136.84 423.62,139.16 426.44,145.28 429.59,141.90 429.61,138.50 429.88,135.27 438.34,132.69 441.56,131.16 445.52,137.38 447.78,135.06 448.83,131.60 451.88,137.82 451.98,137.18 452.10,136.26 460.47,133.44 461.33,132.27 461.86,129.42 463.53,135.66 463.59,141.80 463.68,147.89 463.74,146.05 464.30,152.09 466.66,158.06 468.12,154.77 469.93,151.48 473.85,157.43 473.92,156.10 474.05,156.49 485.63,154.91 489.56,155.70 489.70,152.75 489.87,149.72 492.48,147.26 505.47,144.38 507.71,142.79 508.07,139.40 508.45,145.49 508.63,151.54 510.83,148.98 511.08,146.32 511.58,143.19 511.71,149.24 511.77,155.17 511.90,157.01 512.00,158.63 514.10,164.51 514.15,170.29 514.35,176.03 514.75,181.69 514.78,179.16 515.21,176.02 515.38,173.10 516.08,171.16 517.10,168.50 517.98,166.59 526.51,163.36 527.31,163.09 528.98,159.83 529.74,156.85 530.47,154.55 532.90,160.49 533.42,157.89 533.70,155.11 533.91,151.80 536.10,148.45 539.37,145.10 539.41,142.50 539.84,139.10 551.79,136.90 552.46,134.57 556.33,131.11 556.37,128.70 558.25,127.02 559.30,123.51 561.22,120.67 570.70,117.12 573.25,123.51 574.61,129.83 580.44,127.34 584.35,126.01 591.55,123.93 591.74,130.25 592.62,126.60 592.79,124.23 593.71,121.03 594.07,117.32 596.66,114.98 596.89,121.41 599.29,118.10 613.56,114.39 614.60,110.83 618.17,110.99 618.62,108.96 621.16,105.34 621.89,101.98 622.16,98.67 624.30,95.58 626.24,92.64 627.76,93.12 636.80,89.74 636.93,96.46 636.98,93.90 644.00,94.82 663.01,92.32 668.48,93.21 680.93,89.49 680.97,86.24 688.64,82.47 694.22,78.51 694.36,75.96 694.48,73.21 694.87,73.14 707.65,74.08 716.27,70.25 716.29,77.18 716.56,73.36 726.27,69.52 728.31,76.47 731.53,76.26 754.87,76.90 757.52,73.75 760.83,80.64 768.43,79.50 768.64,78.84 769.73,75.31 769.87,71.67 769.92,78.52 770.46,76.91 772.75,83.77 772.78,80.48 773.33,87.30 776.07,90.99 776.13,87.07 776.40,83.30 778.82,80.37 779.43,81.08 779.61,77.66 782.83,73.83 782.91,70.98 794.45,68.32 801.35,75.28 801.40,82.12 801.54,88.93 805.08,85.17 816.04,84.21 823.74,80.43 827.06,81.92 842.61,83.44 846.16,79.65 848.87,76.95 858.47,77.87 880.58,78.84 892.92,79.65 892.98,77.10 893.40,76.46 905.65,73.32 910.97,70.94 911.63,69.77 914.17,67.59 933.06,66.14 933.79,66.96 955.70,63.07 955.71,59.33 955.92,61.51 956.02,68.54 958.82,64.66 975.32,60.57 975.53,64.27 981.16,61.66 996.81,58.09 1003.16,58.11 1003.24,55.53 1021.27,53.39 1022.00,49.44 1022.06,45.55 1032.66,43.37 1042.37,39.36 1044.35,38.01 1062.39,45.29 1063.28,41.29 1087.90,37.28 1087.90,32.94 1088.17,33.80 1088.32,37.55 1088.34,44.84 1088.41,52.02 1088.45,48.86 1088.58,46.13 1090.46,53.32 1091.16,49.36 1091.39,46.35 1091.73,43.88 1107.01,40.27 1107.54,36.94 1113.42,34.13 1122.96,31.82 1126.00,28.61 1130.33,28.40 1134.67,26.37 1170.00,25.00"/>
<text x="620.0" y="588" text-anchor="middle" font-family="sans-serif" font-size="12" fill="#333">UTC time</text>
<text x="15" y="287.5" transform="rotate(-90 15,287.5)" text-anchor="middle" font-family="sans-serif" font-size="12" fill="#333">Capital</text>
</svg>