<svg xmlns="http://www.w3.org/2000/svg" width="1200" height="600" viewBox="0 0 1200 600">
<desc>Equity curve with drawdown fill; x-axis is months only (no exact timestamps)</desc>
<text x="600.0" y="18.0" text-anchor="middle" font-family="sans-serif" font-size="14">Balance Curve 2006 (UTC)</text>
<rect x="70" y="25" width="1100" height="525" fill="white" stroke="#ccc" />
<line x1="70" y1="550.00" x2="1170" y2="550.00" stroke="#eee"/>
<text x="62" y="554.0" text-anchor="end" font-family="sans-serif" font-size="11" fill="#555">0.00</text>
<line x1="70" y1="445.00" x2="1170" y2="445.00" stroke="#eee"/>
<text x="62" y="449.0" text-anchor="end" font-family="sans-serif" font-size="11" fill="#555">23572</text>
<line x1="70" y1="340.00" x2="1170" y2="340.00" stroke="#eee"/>
<text x="62" y="344.0" text-anchor="end" font-family="sans-serif" font-size="11" fill="#555">47145</text>
<line x1="70" y1="235.00" x2="1170" y2="235.00" stroke="#eee"/>
<text x="62" y="239.0" text-anchor="end" font-family="sans-serif" font-size="11" fill="#555">70717</text>
<line x1="70" y1="130.00" x2="1170" y2="130.00" stroke="#eee"/>
<text x="62" y="134.0" text-anchor="end" font-family="sans-serif" font-size="11" fill="#555">94289</text>
<line x1="70" y1="25.00" x2="1170" y2="25.00" stroke="#eee"/>
<text x="62" y="29.0" text-anchor="end" font-family="sans-serif" font-size="11" fill="#555">117861</text>
<line x1="180.00" y1="25" x2="180.00" y2="550" stroke="#f2f2f2"/>
<line x1="290.00" y1="25" x2="290.00" y2="550" stroke="#f2f2f2"/>
<line x1="400.00" y1="25" x2="400.00" y2="550" stroke="#f2f2f2"/>
<line x1="510.00" y1="25" x2="510.00" y2="550" stroke="#f2f2f2"/>
<line x1="620.00" y1="25" x2="620.00" y2="550" stroke="#f2f2f2"/>
<line x1="730.00" y1="25" x2="730.00" y2="550" stroke="#f2f2f2"/>
<line x1="840.00" y1="25" x2="840.00" y2="550" stroke="#f2f2f2"/>
<line x1="950.00" y1="25" x2="950.00" y2="550" stroke="#f2f2f2"/>
<line x1="1060.00" y1="25" x2="1060.00" y2="550" stroke="#f2f2f2"/>
<text x="125.00" y="566.00" text-anchor="middle" font-family="sans-serif" font-size="11" fill="#444">Jan</text>
<text x="235.00" y="566.00" text-anchor="middle" font-family="sans-serif" font-size="11" fill="#444">Apr</text>
<text x="345.00" y="566.00" text-anchor="middle" font-family="sans-serif" font-size="11" fill="#444">May</text>
<text x="455.00" y="566.00" text-anchor="middle" font-family="sans-serif" font-size="11" fill="#444">Jun</text>
<text x="565.00" y="566.00" text-anchor="middle" font-family="sans-serif" font-size="11" fill="#444">Jul</text>
<text x="675.00" y="566.00" text-anchor="middle" font-family="sans-serif" font-size="11" fill="#444">Aug</text>
<text x="785.00" y="566.00" text-anchor="middle" font-family="sans-serif" font-size="11" fill="#444">Sep</text>
<text x="895.00" y="566.00" text-anchor="middle" font-family="sans-serif" font-size="11" fill="#444">Oct</text>
<text x="1005.00" y="566.00" text-anchor="middle" font-family="sans-serif" font-size="11" fill="#444">Nov</text>
<text x="1115.00" y="566.00" text-anchor="middle" font-family="sans-serif" font-size="11" fill="#444">Dec</text>
<line x1="70" y1="550" x2="1170" y2="550" stroke="#888"/>
<line x1="70" y1="25" x2="70" y2="550" stroke="#888"/>
<line x1="81.00" y1="550.00" x2="81.00" y2="556.00" stroke="#888"/>
<line x1="1142.50"   y1="550.00" x2="1142.50"   y2="556.00" stroke="#888"/>
<text x="81.00" y="582.00" text-anchor="start" font-family="sans-serif" font-size="11" fill="#333">Initial Balance: 112857</text>
<text x="1142.50"   y="582.00" text-anchor="end"   font-family="sans-serif" font-size="11" fill="#333">Ending Balance: 116612</text>
<path d="M 103.00 47.29 L 103.00 47.66 Z" fill="#d0d0d0" fill-opacity="0.5" stroke="none"/>
<path d="M 225.83 38.20 L 244.17 38.20 L 262.50 38.20 L 280.83 38.20 L 280.83 39.75 L 262.50 41.95 L 244.17 40.29 L 225.83 40.00 Z" fill="#d0d0d0" fill-opacity="0.5" stroke="none"/>
<path d="M 376.43 27.16 L 376.43 28.03 Z" fill="#d0d0d0" fill-opacity="0.5" stroke="none"/>
<path d="M 406.87 26.15 L 420.62 26.15 L 434.38 26.15 L 448.12 26.15 L 461.88 26.15 L 475.62 26.15 L 489.38 26.15 L 503.13 26.15 L 503.13 28.30 L 489.38 30.30 L 475.62 32.12 L 461.88 33.01 L 448.12 35.02 L 434.38 37.71 L 420.62 32.47 L 406.87 31.41 Z" fill="#d0d0d0" fill-opacity="0.5" stroke="none"/>
<path d="M 551.25 25.33 L 578.75 25.33 L 606.25 25.33 L 633.75 25.33 L 661.25 25.33 L 688.75 25.33 L 716.25 25.33 L 757.50 25.33 L 812.50 25.33 L 895.00 25.33 L 977.50 25.33 L 977.50 27.23 L 895.00 28.71 L 812.50 31.52 L 757.50 32.41 L 716.25 33.91 L 688.75 30.73 L 661.25 31.76 L 633.75 31.82 L 606.25 34.62 L 578.75 32.22 L 551.25 30.60 Z" fill="#d0d0d0" fill-opacity="0.5" stroke="none"/>
<path d="M 1087.50 25.00 L 1142.50 25.00 L 1142.50 30.57 L 1087.50 30.31 Z" fill="#d0d0d0" fill-opacity="0.5" stroke="none"/>
<polyline fill="none" stroke="#111" stroke-width="1.2" points="81.00,47.29 103.00,47.66 125.00,45.82 147.00,43.10 169.00,41.04 189.17,40.95 207.50,38.20 225.83,40.00 244.17,40.29 262.50,41.95 280.83,39.75 297.86,36.99 313.57,34.47 329.29,32.25 345.00,29.44 360.71,27.16 376.43,28.03 392.14,26.15 406.87,31.41 420.62,32.47 434.38,37.71 448.12,35.02 461.88,33.01 475.62,32.12 489.38,30.30 503.13,28.30 523.75,25.33 551.25,30.60 578.75,32.22 606.25,34.62 633.75,31.82 661.25,31.76 688.75,30.73 716.25,33.91 757.50,32.41 812.50,31.52 895.00,28.71 977.50,27.23 1032.50,25.00 1087.50,30.31 1142.50,30.57"/>
<text x="15" y="287.5" transform="rotate(-90 15,287.5)" text-anchor="middle" font-family="sans-serif" font-size="12" fill="#333">USD</text>
</svg>