<svg xmlns="http://www.w3.org/2000/svg" width="1200" height="600" viewBox="0 0 1200 600">
<desc>Equity curve with drawdown fill; x-axis is months only (no exact timestamps)</desc>
<text x="600.0" y="18.0" text-anchor="middle" font-family="sans-serif" font-size="14">Balance Curve 2009 (UTC)</text>
<rect x="70" y="25" width="1100" height="525" fill="white" stroke="#ccc" />
<line x1="70" y1="550.00" x2="1170" y2="550.00" stroke="#eee"/>
<text x="62" y="554.0" text-anchor="end" font-family="sans-serif" font-size="11" fill="#555">0.00</text>
<line x1="70" y1="445.00" x2="1170" y2="445.00" stroke="#eee"/>
<text x="62" y="449.0" text-anchor="end" font-family="sans-serif" font-size="11" fill="#555">26833</text>
<line x1="70" y1="340.00" x2="1170" y2="340.00" stroke="#eee"/>
<text x="62" y="344.0" text-anchor="end" font-family="sans-serif" font-size="11" fill="#555">53666</text>
<line x1="70" y1="235.00" x2="1170" y2="235.00" stroke="#eee"/>
<text x="62" y="239.0" text-anchor="end" font-family="sans-serif" font-size="11" fill="#555">80499</text>
<line x1="70" y1="130.00" x2="1170" y2="130.00" stroke="#eee"/>
<text x="62" y="134.0" text-anchor="end" font-family="sans-serif" font-size="11" fill="#555">107332</text>
<line x1="70" y1="25.00" x2="1170" y2="25.00" stroke="#eee"/>
<text x="62" y="29.0" text-anchor="end" font-family="sans-serif" font-size="11" fill="#555">134165</text>
<line x1="161.67" y1="25" x2="161.67" y2="550" stroke="#f2f2f2"/>
<line x1="253.33" y1="25" x2="253.33" y2="550" stroke="#f2f2f2"/>
<line x1="345.00" y1="25" x2="345.00" y2="550" stroke="#f2f2f2"/>
<line x1="436.67" y1="25" x2="436.67" y2="550" stroke="#f2f2f2"/>
<line x1="528.33" y1="25" x2="528.33" y2="550" stroke="#f2f2f2"/>
<line x1="620.00" y1="25" x2="620.00" y2="550" stroke="#f2f2f2"/>
<line x1="711.67" y1="25" x2="711.67" y2="550" stroke="#f2f2f2"/>
<line x1="803.33" y1="25" x2="803.33" y2="550" stroke="#f2f2f2"/>
<line x1="895.00" y1="25" x2="895.00" y2="550" stroke="#f2f2f2"/>
<line x1="986.67" y1="25" x2="986.67" y2="550" stroke="#f2f2f2"/>
<line x1="1078.33" y1="25" x2="1078.33" y2="550" stroke="#f2f2f2"/>
<text x="115.83" y="566.00" text-anchor="middle" font-family="sans-serif" font-size="11" fill="#444">Jan</text>
<text x="207.50" y="566.00" text-anchor="middle" font-family="sans-serif" font-size="11" fill="#444">Feb</text>
<text x="299.17" y="566.00" text-anchor="middle" font-family="sans-serif" font-size="11" fill="#444">Mar</text>
<text x="390.83" y="566.00" text-anchor="middle" font-family="sans-serif" font-size="11" fill="#444">Apr</text>
<text x="482.50" y="566.00" text-anchor="middle" font-family="sans-serif" font-size="11" fill="#444">May</text>
<text x="574.17" y="566.00" text-anchor="middle" font-family="sans-serif" font-size="11" fill="#444">Jun</text>
<text x="665.83" y="566.00" text-anchor="middle" font-family="sans-serif" font-size="11" fill="#444">Jul</text>
<text x="757.50" y="566.00" text-anchor="middle" font-family="sans-serif" font-size="11" fill="#444">Aug</text>
<text x="849.17" y="566.00" text-anchor="middle" font-family="sans-serif" font-size="11" fill="#444">Sep</text>
<text x="940.83" y="566.00" text-anchor="middle" font-family="sans-serif" font-size="11" fill="#444">Oct</text>
<text x="1032.50" y="566.00" text-anchor="middle" font-family="sans-serif" font-size="11" fill="#444">Nov</text>
<text x="1124.17" y="566.00" text-anchor="middle" font-family="sans-serif" font-size="11" fill="#444">Dec</text>
<line x1="70" y1="550" x2="1170" y2="550" stroke="#888"/>
<line x1="70" y1="25" x2="70" y2="550" stroke="#888"/>
<line x1="70.72" y1="550.00" x2="70.72" y2="556.00" stroke="#888"/>
<line x1="1164.27"   y1="550.00" x2="1164.27"   y2="556.00" stroke="#888"/>
<text x="70.72" y="582.00" text-anchor="start" font-family="sans-serif" font-size="11" fill="#333">Initial Balance: 113345</text>
<text x="1164.27"   y="582.00" text-anchor="end"   font-family="sans-serif" font-size="11" fill="#333">Ending Balance: 132837</text>
<path d="M 77.88 100.66 L 79.31 100.66 L 80.74 100.66 L 82.17 100.66 L 83.61 100.66 L 85.04 100.66 L 86.47 100.66 L 87.90 100.66 L 89.34 100.66 L 90.77 100.66 L 92.20 100.66 L 93.63 100.66 L 95.07 100.66 L 95.07 101.25 L 93.63 102.67 L 92.20 104.46 L 90.77 106.85 L 89.34 108.97 L 87.90 109.61 L 86.47 105.07 L 85.04 107.19 L 83.61 109.53 L 82.17 111.88 L 80.74 114.23 L 79.31 109.74 L 77.88 105.23 Z" fill="#d0d0d0" fill-opacity="0.5" stroke="none"/>
<path d="M 113.68 78.99 L 115.12 78.99 L 115.12 79.27 L 113.68 79.97 Z" fill="#d0d0d0" fill-opacity="0.5" stroke="none"/>
<path d="M 120.85 72.05 L 122.28 72.05 L 123.71 72.05 L 125.14 72.05 L 126.58 72.05 L 128.01 72.05 L 128.01 73.63 L 126.58 76.15 L 125.14 78.67 L 123.71 79.49 L 122.28 74.65 L 120.85 76.92 Z" fill="#d0d0d0" fill-opacity="0.5" stroke="none"/>
<path d="M 133.74 68.17 L 135.17 68.17 L 136.60 68.17 L 138.03 68.17 L 139.47 68.17 L 140.90 68.17 L 142.33 68.17 L 143.76 68.17 L 145.20 68.17 L 146.63 68.17 L 148.06 68.17 L 149.49 68.17 L 150.92 68.17 L 150.92 70.61 L 149.49 73.17 L 148.06 75.70 L 146.63 77.37 L 145.20 79.89 L 143.76 81.38 L 142.33 76.55 L 140.90 79.01 L 139.47 74.20 L 138.03 76.19 L 136.60 78.63 L 135.17 73.78 L 133.74 73.08 Z" fill="#d0d0d0" fill-opacity="0.5" stroke="none"/>
<path d="M 155.22 66.77 L 156.65 66.77 L 158.09 66.77 L 159.52 66.77 L 160.95 66.77 L 162.98 66.77 L 165.60 66.77 L 168.21 66.77 L 170.83 66.77 L 173.45 66.77 L 173.45 68.82 L 170.83 70.80 L 168.21 73.06 L 165.60 74.33 L 162.98 69.44 L 160.95 71.75 L 159.52 74.29 L 158.09 75.07 L 156.65 76.53 L 155.22 71.69 Z" fill="#d0d0d0" fill-opacity="0.5" stroke="none"/>
<path d="M 181.31 64.54 L 183.93 64.54 L 186.55 64.54 L 189.17 64.54 L 191.79 64.54 L 194.40 64.54 L 197.02 64.54 L 199.64 64.54 L 202.26 64.54 L 204.88 64.54 L 207.50 64.54 L 210.12 64.54 L 210.12 66.87 L 207.50 69.44 L 204.88 69.64 L 202.26 71.97 L 199.64 74.35 L 197.02 76.06 L 194.40 71.21 L 191.79 73.91 L 189.17 69.01 L 186.55 70.59 L 183.93 70.93 L 181.31 65.99 Z" fill="#d0d0d0" fill-opacity="0.5" stroke="none"/>
<path d="M 231.07 54.49 L 233.69 54.49 L 236.31 54.49 L 238.93 54.49 L 241.55 54.49 L 244.17 54.49 L 246.79 54.49 L 249.40 54.49 L 252.02 54.49 L 254.64 54.49 L 257.26 54.49 L 259.88 54.49 L 262.50 54.49 L 265.12 54.49 L 267.74 54.49 L 270.36 54.49 L 272.98 54.49 L 275.60 54.49 L 278.21 54.49 L 280.83 54.49 L 283.45 54.49 L 286.07 54.49 L 288.69 54.49 L 291.31 54.49 L 293.93 54.49 L 296.55 54.49 L 299.17 54.49 L 301.79 54.49 L 304.40 54.49 L 307.02 54.49 L 309.64 54.49 L 312.26 54.49 L 314.88 54.49 L 317.50 54.49 L 320.12 54.49 L 322.74 54.49 L 325.36 54.49 L 327.98 54.49 L 330.60 54.49 L 333.21 54.49 L 335.83 54.49 L 338.45 54.49 L 341.07 54.49 L 343.69 54.49 L 347.29 54.49 L 351.88 54.49 L 356.46 54.49 L 361.04 54.49 L 365.62 54.49 L 370.21 54.49 L 374.79 54.49 L 379.38 54.49 L 383.96 54.49 L 388.54 54.49 L 393.12 54.49 L 397.71 54.49 L 402.29 54.49 L 406.88 54.49 L 411.46 54.49 L 416.04 54.49 L 420.62 54.49 L 425.21 54.49 L 429.79 54.49 L 434.38 54.49 L 440.19 54.49 L 447.24 54.49 L 454.29 54.49 L 461.35 54.49 L 468.40 54.49 L 475.45 54.49 L 482.50 54.49 L 489.55 54.49 L 496.60 54.49 L 503.65 54.49 L 510.71 54.49 L 517.76 54.49 L 524.81 54.49 L 531.61 54.49 L 538.15 54.49 L 544.70 54.49 L 551.25 54.49 L 557.80 54.49 L 564.35 54.49 L 570.89 54.49 L 577.44 54.49 L 583.99 54.49 L 590.54 54.49 L 597.08 54.49 L 603.63 54.49 L 610.18 54.49 L 616.73 54.49 L 625.09 54.49 L 635.28 54.49 L 645.46 54.49 L 655.65 54.49 L 665.83 54.49 L 665.83 56.33 L 655.65 57.87 L 645.46 60.51 L 635.28 60.94 L 625.09 62.29 L 616.73 64.92 L 610.18 64.72 L 603.63 67.34 L 597.08 68.38 L 590.54 68.96 L 583.99 70.18 L 577.44 72.51 L 570.89 74.89 L 564.35 69.99 L 557.80 72.11 L 551.25 67.20 L 544.70 69.80 L 538.15 71.15 L 531.61 72.81 L 524.81 67.90 L 517.76 62.94 L 510.71 62.99 L 503.65 57.99 L 496.60 59.63 L 489.55 60.92 L 482.50 63.54 L 475.45 66.15 L 468.40 68.45 L 461.35 71.03 L 454.29 73.59 L 447.24 76.15 L 440.19 77.74 L 434.38 79.93 L 429.79 82.45 L 425.21 77.62 L 420.62 76.36 L 416.04 77.89 L 411.46 78.79 L 406.88 80.75 L 402.29 82.42 L 397.71 77.59 L 393.12 80.12 L 388.54 78.57 L 383.96 80.59 L 379.38 82.31 L 374.79 77.49 L 370.21 78.05 L 365.62 80.58 L 361.04 82.37 L 356.46 82.96 L 351.88 84.88 L 347.29 87.10 L 343.69 89.58 L 341.07 90.92 L 338.45 93.14 L 335.83 95.02 L 333.21 90.37 L 330.60 85.63 L 327.98 87.58 L 325.36 88.77 L 322.74 91.09 L 320.12 86.35 L 317.50 86.63 L 314.88 87.88 L 312.26 88.47 L 309.64 83.72 L 307.02 86.02 L 304.40 87.70 L 301.79 82.98 L 299.17 78.17 L 296.55 80.60 L 293.93 75.76 L 291.31 77.89 L 288.69 80.12 L 286.07 80.62 L 283.45 81.32 L 280.83 83.13 L 278.21 85.05 L 275.60 85.49 L 272.98 80.70 L 270.36 82.50 L 267.74 81.56 L 265.12 76.73 L 262.50 78.07 L 259.88 79.71 L 257.26 74.86 L 254.64 76.27 L 252.02 78.25 L 249.40 73.38 L 246.79 68.47 L 244.17 70.19 L 241.55 71.74 L 238.93 74.29 L 236.31 69.44 L 233.69 64.49 L 231.07 59.50 Z" fill="#d0d0d0" fill-opacity="0.5" stroke="none"/>
<path d="M 696.39 53.63 L 706.57 53.63 L 726.94 53.63 L 757.50 53.63 L 757.50 54.37 L 726.94 57.05 L 706.57 58.71 L 696.39 58.67 Z" fill="#d0d0d0" fill-opacity="0.5" stroke="none"/>
<path d="M 809.06 53.38 L 820.52 53.38 L 831.98 53.38 L 843.44 53.38 L 843.44 53.77 L 831.98 54.28 L 820.52 56.94 L 809.06 58.42 Z" fill="#d0d0d0" fill-opacity="0.5" stroke="none"/>
<path d="M 877.81 48.71 L 889.27 48.71 L 901.55 48.71 L 914.64 48.71 L 914.64 50.45 L 901.55 52.74 L 889.27 52.14 L 877.81 53.78 Z" fill="#d0d0d0" fill-opacity="0.5" stroke="none"/>
<path d="M 1055.42 33.00 L 1070.69 33.00 L 1084.06 33.00 L 1095.52 33.00 L 1095.52 33.21 L 1084.06 34.61 L 1070.69 37.18 L 1055.42 38.22 Z" fill="#d0d0d0" fill-opacity="0.5" stroke="none"/>
<path d="M 1152.81 25.00 L 1164.27 25.00 L 1164.27 30.20 L 1152.81 30.29 Z" fill="#d0d0d0" fill-opacity="0.5" stroke="none"/>
<polyline fill="none" stroke="#111" stroke-width="1.2" points="70.72,106.47 72.15,106.27 73.58,105.29 75.01,103.07 76.45,100.66 77.88,105.23 79.31,109.74 80.74,114.23 82.17,111.88 83.61,109.53 85.04,107.19 86.47,105.07 87.90,109.61 89.34,108.97 90.77,106.85 92.20,104.46 93.63,102.67 95.07,101.25 96.50,98.67 97.93,98.57 99.36,96.12 100.79,93.67 102.23,91.54 103.66,89.97 105.09,88.06 106.52,85.82 107.96,83.50 109.39,81.38 110.82,79.18 112.25,78.99 113.68,79.97 115.12,79.27 116.55,76.91 117.98,74.60 119.41,72.05 120.85,76.92 122.28,74.65 123.71,79.49 125.14,78.67 126.58,76.15 128.01,73.63 129.44,71.99 130.87,69.67 132.30,68.17 133.74,73.08 135.17,73.78 136.60,78.63 138.03,76.19 139.47,74.20 140.90,79.01 142.33,76.55 143.76,81.38 145.20,79.89 146.63,77.37 148.06,75.70 149.49,73.17 150.92,70.61 152.36,68.04 153.79,66.77 155.22,71.69 156.65,76.53 158.09,75.07 159.52,74.29 160.95,71.75 162.98,69.44 165.60,74.33 168.21,73.06 170.83,70.80 173.45,68.82 176.07,66.75 178.69,64.54 181.31,65.99 183.93,70.93 186.55,70.59 189.17,69.01 191.79,73.91 194.40,71.21 197.02,76.06 199.64,74.35 202.26,71.97 204.88,69.64 207.50,69.44 210.12,66.87 212.74,64.30 215.36,63.85 217.98,61.46 220.60,60.84 223.21,59.33 225.83,57.27 228.45,54.49 231.07,59.50 233.69,64.49 236.31,69.44 238.93,74.29 241.55,71.74 244.17,70.19 246.79,68.47 249.40,73.38 252.02,78.25 254.64,76.27 257.26,74.86 259.88,79.71 262.50,78.07 265.12,76.73 267.74,81.56 270.36,82.50 272.98,80.70 275.60,85.49 278.21,85.05 280.83,83.13 283.45,81.32 286.07,80.62 288.69,80.12 291.31,77.89 293.93,75.76 296.55,80.60 299.17,78.17 301.79,82.98 304.40,87.70 307.02,86.02 309.64,83.72 312.26,88.47 314.88,87.88 317.50,86.63 320.12,86.35 322.74,91.09 325.36,88.77 327.98,87.58 330.60,85.63 333.21,90.37 335.83,95.02 338.45,93.14 341.07,90.92 343.69,89.58 347.29,87.10 351.88,84.88 356.46,82.96 361.04,82.37 365.62,80.58 370.21,78.05 374.79,77.49 379.38,82.31 383.96,80.59 388.54,78.57 393.12,80.12 397.71,77.59 402.29,82.42 406.88,80.75 411.46,78.79 416.04,77.89 420.62,76.36 425.21,77.62 429.79,82.45 434.38,79.93 440.19,77.74 447.24,76.15 454.29,73.59 461.35,71.03 468.40,68.45 475.45,66.15 482.50,63.54 489.55,60.92 496.60,59.63 503.65,57.99 510.71,62.99 517.76,62.94 524.81,67.90 531.61,72.81 538.15,71.15 544.70,69.80 551.25,67.20 557.80,72.11 564.35,69.99 570.89,74.89 577.44,72.51 583.99,70.18 590.54,68.96 597.08,68.38 603.63,67.34 610.18,64.72 616.73,64.92 625.09,62.29 635.28,60.94 645.46,60.51 655.65,57.87 665.83,56.33 676.02,53.92 686.20,53.63 696.39,58.67 706.57,58.71 726.94,57.05 757.50,54.37 788.06,53.38 809.06,58.42 820.52,56.94 831.98,54.28 843.44,53.77 854.90,51.55 866.35,48.71 877.81,53.78 889.27,52.14 901.55,52.74 914.64,50.45 927.74,48.21 940.83,46.73 953.93,45.45 967.02,43.29 980.12,41.16 994.31,39.67 1009.58,36.90 1024.86,34.99 1040.14,33.00 1055.42,38.22 1070.69,37.18 1084.06,34.61 1095.52,33.21 1106.98,31.00 1118.44,28.97 1129.90,26.42 1141.35,25.00 1152.81,30.29 1164.27,30.20"/>
<text x="15" y="287.5" transform="rotate(-90 15,287.5)" text-anchor="middle" font-family="sans-serif" font-size="12" fill="#333">USD</text>
</svg>