<svg xmlns="http://www.w3.org/2000/svg" width="1200" height="600" viewBox="0 0 1200 600">
<desc>Equity curve with drawdown fill; x-axis is months only (no exact timestamps)</desc>
<text x="600.0" y="18.0" text-anchor="middle" font-family="sans-serif" font-size="14">Portfolio 2023 (UTC)</text>
<rect x="70" y="25" width="1100" height="525" fill="white" stroke="#ccc" />
<line x1="70" y1="550.00" x2="1170" y2="550.00" stroke="#eee"/>
<text x="62" y="554.0" text-anchor="end" font-family="sans-serif" font-size="11" fill="#555">0.00</text>
<line x1="70" y1="445.00" x2="1170" y2="445.00" stroke="#eee"/>
<text x="62" y="449.0" text-anchor="end" font-family="sans-serif" font-size="11" fill="#555">20026</text>
<line x1="70" y1="340.00" x2="1170" y2="340.00" stroke="#eee"/>
<text x="62" y="344.0" text-anchor="end" font-family="sans-serif" font-size="11" fill="#555">40052</text>
<line x1="70" y1="235.00" x2="1170" y2="235.00" stroke="#eee"/>
<text x="62" y="239.0" text-anchor="end" font-family="sans-serif" font-size="11" fill="#555">60078</text>
<line x1="70" y1="130.00" x2="1170" y2="130.00" stroke="#eee"/>
<text x="62" y="134.0" text-anchor="end" font-family="sans-serif" font-size="11" fill="#555">80104</text>
<line x1="70" y1="25.00" x2="1170" y2="25.00" stroke="#eee"/>
<text x="62" y="29.0" text-anchor="end" font-family="sans-serif" font-size="11" fill="#555">100131</text>
<line x1="170.00" y1="25" x2="170.00" y2="550" stroke="#f2f2f2"/>
<line x1="270.00" y1="25" x2="270.00" y2="550" stroke="#f2f2f2"/>
<line x1="370.00" y1="25" x2="370.00" y2="550" stroke="#f2f2f2"/>
<line x1="470.00" y1="25" x2="470.00" y2="550" stroke="#f2f2f2"/>
<line x1="570.00" y1="25" x2="570.00" y2="550" stroke="#f2f2f2"/>
<line x1="670.00" y1="25" x2="670.00" y2="550" stroke="#f2f2f2"/>
<line x1="770.00" y1="25" x2="770.00" y2="550" stroke="#f2f2f2"/>
<line x1="870.00" y1="25" x2="870.00" y2="550" stroke="#f2f2f2"/>
<line x1="970.00" y1="25" x2="970.00" y2="550" stroke="#f2f2f2"/>
<line x1="1070.00" y1="25" x2="1070.00" y2="550" stroke="#f2f2f2"/>
<text x="120.00" y="566.00" text-anchor="middle" font-family="sans-serif" font-size="11" fill="#444">Jan</text>
<text x="220.00" y="566.00" text-anchor="middle" font-family="sans-serif" font-size="11" fill="#444">Feb</text>
<text x="320.00" y="566.00" text-anchor="middle" font-family="sans-serif" font-size="11" fill="#444">Mar</text>
<text x="420.00" y="566.00" text-anchor="middle" font-family="sans-serif" font-size="11" fill="#444">Apr</text>
<text x="520.00" y="566.00" text-anchor="middle" font-family="sans-serif" font-size="11" fill="#444">May</text>
<text x="620.00" y="566.00" text-anchor="middle" font-family="sans-serif" font-size="11" fill="#444">Jun</text>
<text x="720.00" y="566.00" text-anchor="middle" font-family="sans-serif" font-size="11" fill="#444">Jul</text>
<text x="820.00" y="566.00" text-anchor="middle" font-family="sans-serif" font-size="11" fill="#444">Aug</text>
<text x="920.00" y="566.00" text-anchor="middle" font-family="sans-serif" font-size="11" fill="#444">Sep</text>
<text x="1020.00" y="566.00" text-anchor="middle" font-family="sans-serif" font-size="11" fill="#444">Oct</text>
<text x="1120.00" y="566.00" text-anchor="middle" font-family="sans-serif" font-size="11" fill="#444">Dec</text>
<line x1="70" y1="550" x2="1170" y2="550" stroke="#888"/>
<line x1="70" y1="25" x2="70" y2="550" stroke="#888"/>
<line x1="80.00" y1="550.00" x2="80.00" y2="556.00" stroke="#888"/>
<line x1="1145.00"   y1="550.00" x2="1145.00"   y2="556.00" stroke="#888"/>
<text x="80.00" y="582.00" text-anchor="start" font-family="sans-serif" font-size="11" fill="#333">Initial Balance: 100000</text>
<text x="1145.00"   y="582.00" text-anchor="end"   font-family="sans-serif" font-size="11" fill="#333">Ending Balance: 95918</text>
<path d="M 100.00 25.68 L 120.00 25.68 L 140.00 25.68 L 160.00 25.68 L 195.00 25.68 L 245.00 25.68 L 278.33 25.68 L 295.00 25.68 L 311.67 25.68 L 328.33 25.68 L 345.00 25.68 L 361.67 25.68 L 395.00 25.68 L 445.00 25.68 L 495.00 25.68 L 545.00 25.68 L 620.00 25.68 L 680.00 25.68 L 680.00 28.90 L 620.00 33.18 L 545.00 34.99 L 495.00 37.19 L 445.00 41.44 L 395.00 43.24 L 361.67 45.73 L 345.00 49.53 L 328.33 47.92 L 311.67 40.23 L 295.00 41.62 L 278.33 33.79 L 245.00 37.65 L 195.00 41.37 L 160.00 33.54 L 140.00 33.28 L 120.00 31.12 L 100.00 33.64 Z" fill="#d0d0d0" fill-opacity="0.5" stroke="none"/>
<path d="M 720.00 25.00 L 740.00 25.00 L 760.00 25.00 L 820.00 25.00 L 886.67 25.00 L 920.00 25.00 L 953.33 25.00 L 982.50 25.00 L 1007.50 25.00 L 1032.50 25.00 L 1057.50 25.00 L 1095.00 25.00 L 1145.00 25.00 L 1145.00 47.09 L 1095.00 50.45 L 1057.50 52.87 L 1032.50 56.62 L 1007.50 49.03 L 982.50 52.34 L 953.33 44.68 L 920.00 48.32 L 886.67 40.59 L 820.00 36.68 L 760.00 28.77 L 740.00 32.25 L 720.00 32.85 Z" fill="#d0d0d0" fill-opacity="0.5" stroke="none"/>
<polyline fill="none" stroke="#111" stroke-width="1.2" points="80.00,25.68 100.00,33.64 120.00,31.12 140.00,33.28 160.00,33.54 195.00,41.37 245.00,37.65 278.33,33.79 295.00,41.62 311.67,40.23 328.33,47.92 345.00,49.53 361.67,45.73 395.00,43.24 445.00,41.44 495.00,37.19 545.00,34.99 620.00,33.18 680.00,28.90 700.00,25.00 720.00,32.85 740.00,32.25 760.00,28.77 820.00,36.68 886.67,40.59 920.00,48.32 953.33,44.68 982.50,52.34 1007.50,49.03 1032.50,56.62 1057.50,52.87 1095.00,50.45 1145.00,47.09"/>
<text x="620.0" y="588" text-anchor="middle" font-family="sans-serif" font-size="12" fill="#333">Monthly Balance Curve</text>
<text x="15" y="287.5" transform="rotate(-90 15,287.5)" text-anchor="middle" font-family="sans-serif" font-size="12" fill="#333">Capital</text>
</svg>