<svg xmlns="http://www.w3.org/2000/svg" width="1200" height="600" viewBox="0 0 1200 600">
<desc>Equity curve with drawdown fill; x-axis is months only (no exact timestamps)</desc>
<text x="600.0" y="18.0" text-anchor="middle" font-family="sans-serif" font-size="14">Portfolio 2020 (UTC)</text>
<rect x="70" y="25" width="1100" height="525" fill="white" stroke="#ccc" />
<line x1="70" y1="550.00" x2="1170" y2="550.00" stroke="#eee"/>
<text x="62" y="554.0" text-anchor="end" font-family="sans-serif" font-size="11" fill="#555">0.00</text>
<line x1="70" y1="445.00" x2="1170" y2="445.00" stroke="#eee"/>
<text x="62" y="449.0" text-anchor="end" font-family="sans-serif" font-size="11" fill="#555">22612</text>
<line x1="70" y1="340.00" x2="1170" y2="340.00" stroke="#eee"/>
<text x="62" y="344.0" text-anchor="end" font-family="sans-serif" font-size="11" fill="#555">45224</text>
<line x1="70" y1="235.00" x2="1170" y2="235.00" stroke="#eee"/>
<text x="62" y="239.0" text-anchor="end" font-family="sans-serif" font-size="11" fill="#555">67837</text>
<line x1="70" y1="130.00" x2="1170" y2="130.00" stroke="#eee"/>
<text x="62" y="134.0" text-anchor="end" font-family="sans-serif" font-size="11" fill="#555">90449</text>
<line x1="70" y1="25.00" x2="1170" y2="25.00" stroke="#eee"/>
<text x="62" y="29.0" text-anchor="end" font-family="sans-serif" font-size="11" fill="#555">113061</text>
<line x1="180.00" y1="25" x2="180.00" y2="550" stroke="#f2f2f2"/>
<line x1="290.00" y1="25" x2="290.00" y2="550" stroke="#f2f2f2"/>
<line x1="400.00" y1="25" x2="400.00" y2="550" stroke="#f2f2f2"/>
<line x1="510.00" y1="25" x2="510.00" y2="550" stroke="#f2f2f2"/>
<line x1="620.00" y1="25" x2="620.00" y2="550" stroke="#f2f2f2"/>
<line x1="730.00" y1="25" x2="730.00" y2="550" stroke="#f2f2f2"/>
<line x1="840.00" y1="25" x2="840.00" y2="550" stroke="#f2f2f2"/>
<line x1="950.00" y1="25" x2="950.00" y2="550" stroke="#f2f2f2"/>
<line x1="1060.00" y1="25" x2="1060.00" y2="550" stroke="#f2f2f2"/>
<text x="125.00" y="566.00" text-anchor="middle" font-family="sans-serif" font-size="11" fill="#444">Jan</text>
<text x="235.00" y="566.00" text-anchor="middle" font-family="sans-serif" font-size="11" fill="#444">Mar</text>
<text x="345.00" y="566.00" text-anchor="middle" font-family="sans-serif" font-size="11" fill="#444">Apr</text>
<text x="455.00" y="566.00" text-anchor="middle" font-family="sans-serif" font-size="11" fill="#444">May</text>
<text x="565.00" y="566.00" text-anchor="middle" font-family="sans-serif" font-size="11" fill="#444">Jun</text>
<text x="675.00" y="566.00" text-anchor="middle" font-family="sans-serif" font-size="11" fill="#444">Jul</text>
<text x="785.00" y="566.00" text-anchor="middle" font-family="sans-serif" font-size="11" fill="#444">Aug</text>
<text x="895.00" y="566.00" text-anchor="middle" font-family="sans-serif" font-size="11" fill="#444">Sep</text>
<text x="1005.00" y="566.00" text-anchor="middle" font-family="sans-serif" font-size="11" fill="#444">Nov</text>
<text x="1115.00" y="566.00" text-anchor="middle" font-family="sans-serif" font-size="11" fill="#444">Dec</text>
<line x1="70" y1="550" x2="1170" y2="550" stroke="#888"/>
<line x1="70" y1="25" x2="70" y2="550" stroke="#888"/>
<line x1="125.00" y1="550.00" x2="125.00" y2="556.00" stroke="#888"/>
<line x1="1115.00"   y1="550.00" x2="1115.00"   y2="556.00" stroke="#888"/>
<text x="125.00" y="582.00" text-anchor="start" font-family="sans-serif" font-size="11" fill="#333">Initial Balance: 100000</text>
<text x="1115.00"   y="582.00" text-anchor="end"   font-family="sans-serif" font-size="11" fill="#333">Ending Balance: 113061</text>
<path d="M 188.19 78.80 L 190.53 78.80 L 190.53 80.81 L 188.19 83.58 Z" fill="#d0d0d0" fill-opacity="0.5" stroke="none"/>
<path d="M 206.91 68.11 L 206.91 68.93 Z" fill="#d0d0d0" fill-opacity="0.5" stroke="none"/>
<path d="M 225.64 55.27 L 225.64 55.71 Z" fill="#d0d0d0" fill-opacity="0.5" stroke="none"/>
<path d="M 230.32 53.94 L 232.66 53.94 L 235.00 53.94 L 235.00 54.10 L 232.66 56.56 L 230.32 59.02 Z" fill="#d0d0d0" fill-opacity="0.5" stroke="none"/>
<path d="M 239.68 51.60 L 242.02 51.60 L 244.36 51.60 L 246.70 51.60 L 249.04 51.60 L 251.38 51.60 L 253.72 51.60 L 256.06 51.60 L 258.40 51.60 L 260.74 51.60 L 263.09 51.60 L 265.43 51.60 L 267.77 51.60 L 270.11 51.60 L 272.45 51.60 L 274.79 51.60 L 277.13 51.60 L 279.47 51.60 L 281.81 51.60 L 284.15 51.60 L 286.49 51.60 L 288.83 51.60 L 308.33 51.60 L 308.33 52.23 L 288.83 52.86 L 286.49 54.89 L 284.15 57.31 L 281.81 58.65 L 279.47 60.48 L 277.13 62.56 L 274.79 64.68 L 272.45 65.53 L 270.11 67.58 L 267.77 69.57 L 265.43 72.12 L 263.09 67.18 L 260.74 62.17 L 258.40 63.27 L 256.06 58.28 L 253.72 59.61 L 251.38 61.99 L 249.04 56.93 L 246.70 59.51 L 244.36 54.43 L 242.02 57.07 L 239.68 56.70 Z" fill="#d0d0d0" fill-opacity="0.5" stroke="none"/>
<path d="M 565.00 41.96 L 565.00 42.85 Z" fill="#d0d0d0" fill-opacity="0.5" stroke="none"/>
<path d="M 1005.00 26.77 L 1005.00 27.27 Z" fill="#d0d0d0" fill-opacity="0.5" stroke="none"/>
<polyline fill="none" stroke="#111" stroke-width="1.2" points="125.00,85.65 181.17,83.45 183.51,81.47 185.85,78.80 188.19,83.58 190.53,80.81 192.87,78.51 195.21,76.99 197.55,74.44 199.89,72.78 202.23,70.68 204.57,68.11 206.91,68.93 209.26,67.55 211.60,64.96 213.94,64.39 216.28,62.15 218.62,59.54 220.96,56.90 223.30,55.27 225.64,55.71 227.98,53.94 230.32,59.02 232.66,56.56 235.00,54.10 237.34,51.60 239.68,56.70 242.02,57.07 244.36,54.43 246.70,59.51 249.04,56.93 251.38,61.99 253.72,59.61 256.06,58.28 258.40,63.27 260.74,62.17 263.09,67.18 265.43,72.12 267.77,69.57 270.11,67.58 272.45,65.53 274.79,64.68 277.13,62.56 279.47,60.48 281.81,58.65 284.15,57.31 286.49,54.89 288.83,52.86 308.33,52.23 345.00,50.67 381.67,49.48 427.50,47.13 482.50,44.68 528.33,41.96 565.00,42.85 601.67,40.82 647.50,39.50 702.50,37.71 757.50,36.10 812.50,34.46 867.50,31.90 922.50,29.39 968.33,26.77 1005.00,27.27 1041.67,25.40 1115.00,25.00"/>
<text x="620.0" y="588" text-anchor="middle" font-family="sans-serif" font-size="12" fill="#333">Monthly Balance Curve</text>
<text x="15" y="287.5" transform="rotate(-90 15,287.5)" text-anchor="middle" font-family="sans-serif" font-size="12" fill="#333">Capital</text>
</svg>