<svg xmlns="http://www.w3.org/2000/svg" width="1200" height="600" viewBox="0 0 1200 600">
<desc>Equity curve with drawdown fill; x-axis is months only (no exact timestamps)</desc>
<text x="600.0" y="18.0" text-anchor="middle" font-family="sans-serif" font-size="14">Balance Curve 2009 (UTC)</text>
<rect x="70" y="25" width="1100" height="525" fill="white" stroke="#ccc" />
<line x1="70" y1="550.00" x2="1170" y2="550.00" stroke="#eee"/>
<text x="62" y="554.0" text-anchor="end" font-family="sans-serif" font-size="11" fill="#555">0.00</text>
<line x1="70" y1="445.00" x2="1170" y2="445.00" stroke="#eee"/>
<text x="62" y="449.0" text-anchor="end" font-family="sans-serif" font-size="11" fill="#555">1655607</text>
<line x1="70" y1="340.00" x2="1170" y2="340.00" stroke="#eee"/>
<text x="62" y="344.0" text-anchor="end" font-family="sans-serif" font-size="11" fill="#555">3311215</text>
<line x1="70" y1="235.00" x2="1170" y2="235.00" stroke="#eee"/>
<text x="62" y="239.0" text-anchor="end" font-family="sans-serif" font-size="11" fill="#555">4966822</text>
<line x1="70" y1="130.00" x2="1170" y2="130.00" stroke="#eee"/>
<text x="62" y="134.0" text-anchor="end" font-family="sans-serif" font-size="11" fill="#555">6622430</text>
<line x1="70" y1="25.00" x2="1170" y2="25.00" stroke="#eee"/>
<text x="62" y="29.0" text-anchor="end" font-family="sans-serif" font-size="11" fill="#555">8278037</text>
<line x1="161.67" y1="25" x2="161.67" y2="550" stroke="#f2f2f2"/>
<line x1="253.33" y1="25" x2="253.33" y2="550" stroke="#f2f2f2"/>
<line x1="345.00" y1="25" x2="345.00" y2="550" stroke="#f2f2f2"/>
<line x1="436.67" y1="25" x2="436.67" y2="550" stroke="#f2f2f2"/>
<line x1="528.33" y1="25" x2="528.33" y2="550" stroke="#f2f2f2"/>
<line x1="620.00" y1="25" x2="620.00" y2="550" stroke="#f2f2f2"/>
<line x1="711.67" y1="25" x2="711.67" y2="550" stroke="#f2f2f2"/>
<line x1="803.33" y1="25" x2="803.33" y2="550" stroke="#f2f2f2"/>
<line x1="895.00" y1="25" x2="895.00" y2="550" stroke="#f2f2f2"/>
<line x1="986.67" y1="25" x2="986.67" y2="550" stroke="#f2f2f2"/>
<line x1="1078.33" y1="25" x2="1078.33" y2="550" stroke="#f2f2f2"/>
<text x="115.83" y="566.00" text-anchor="middle" font-family="sans-serif" font-size="11" fill="#444">Jan</text>
<text x="207.50" y="566.00" text-anchor="middle" font-family="sans-serif" font-size="11" fill="#444">Feb</text>
<text x="299.17" y="566.00" text-anchor="middle" font-family="sans-serif" font-size="11" fill="#444">Mar</text>
<text x="390.83" y="566.00" text-anchor="middle" font-family="sans-serif" font-size="11" fill="#444">Apr</text>
<text x="482.50" y="566.00" text-anchor="middle" font-family="sans-serif" font-size="11" fill="#444">May</text>
<text x="574.17" y="566.00" text-anchor="middle" font-family="sans-serif" font-size="11" fill="#444">Jun</text>
<text x="665.83" y="566.00" text-anchor="middle" font-family="sans-serif" font-size="11" fill="#444">Jul</text>
<text x="757.50" y="566.00" text-anchor="middle" font-family="sans-serif" font-size="11" fill="#444">Aug</text>
<text x="849.17" y="566.00" text-anchor="middle" font-family="sans-serif" font-size="11" fill="#444">Sep</text>
<text x="940.83" y="566.00" text-anchor="middle" font-family="sans-serif" font-size="11" fill="#444">Oct</text>
<text x="1032.50" y="566.00" text-anchor="middle" font-family="sans-serif" font-size="11" fill="#444">Nov</text>
<text x="1124.17" y="566.00" text-anchor="middle" font-family="sans-serif" font-size="11" fill="#444">Dec</text>
<line x1="70" y1="550" x2="1170" y2="550" stroke="#888"/>
<line x1="70" y1="25" x2="70" y2="550" stroke="#888"/>
<line x1="70.72" y1="550.00" x2="70.72" y2="556.00" stroke="#888"/>
<line x1="1164.27"   y1="550.00" x2="1164.27"   y2="556.00" stroke="#888"/>
<text x="70.72" y="582.00" text-anchor="start" font-family="sans-serif" font-size="11" fill="#333">Initial Balance: 7956844</text>
<text x="1164.27"   y="582.00" text-anchor="end"   font-family="sans-serif" font-size="11" fill="#333">Ending Balance: 8240247</text>
<path d="M 72.15 45.37 L 72.15 45.38 Z" fill="#d0d0d0" fill-opacity="0.5" stroke="none"/>
<path d="M 77.88 43.09 L 79.31 43.09 L 80.74 43.09 L 82.17 43.09 L 83.61 43.09 L 85.04 43.09 L 86.47 43.09 L 87.90 43.09 L 89.34 43.09 L 90.77 43.09 L 92.20 43.09 L 93.63 43.09 L 95.07 43.09 L 96.50 43.09 L 97.93 43.09 L 97.93 43.24 L 96.50 43.25 L 95.07 45.05 L 93.63 45.60 L 92.20 46.33 L 90.77 47.33 L 89.34 48.23 L 87.90 48.60 L 86.47 46.39 L 85.04 47.27 L 83.61 48.93 L 82.17 49.93 L 80.74 50.92 L 79.31 48.74 L 77.88 45.29 Z" fill="#d0d0d0" fill-opacity="0.5" stroke="none"/>
<path d="M 112.25 34.40 L 113.68 34.40 L 115.12 34.40 L 115.12 35.01 L 113.68 35.21 L 112.25 34.43 Z" fill="#d0d0d0" fill-opacity="0.5" stroke="none"/>
<path d="M 120.85 32.25 L 122.28 32.25 L 123.71 32.25 L 125.14 32.25 L 126.58 32.25 L 128.01 32.25 L 129.44 32.25 L 129.44 32.73 L 128.01 33.31 L 126.58 34.25 L 125.14 35.19 L 123.71 35.64 L 122.28 33.54 L 120.85 34.38 Z" fill="#d0d0d0" fill-opacity="0.5" stroke="none"/>
<path d="M 133.74 31.36 L 135.17 31.36 L 136.60 31.36 L 138.03 31.36 L 139.47 31.36 L 140.90 31.36 L 142.33 31.36 L 143.76 31.36 L 145.20 31.36 L 146.63 31.36 L 148.06 31.36 L 149.49 31.36 L 150.92 31.36 L 152.36 31.36 L 153.79 31.36 L 155.22 31.36 L 156.65 31.36 L 158.09 31.36 L 159.52 31.36 L 160.95 31.36 L 162.98 31.36 L 165.60 31.36 L 168.21 31.36 L 170.83 31.36 L 173.45 31.36 L 176.07 31.36 L 178.69 31.36 L 181.31 31.36 L 183.93 31.36 L 186.55 31.36 L 189.17 31.36 L 191.79 31.36 L 194.40 31.36 L 197.02 31.36 L 199.64 31.36 L 202.26 31.36 L 204.88 31.36 L 207.50 31.36 L 210.12 31.36 L 212.74 31.36 L 215.36 31.36 L 217.98 31.36 L 220.60 31.36 L 220.60 31.39 L 217.98 31.53 L 215.36 32.39 L 212.74 32.58 L 210.12 33.53 L 207.50 34.48 L 204.88 34.46 L 202.26 35.31 L 199.64 36.18 L 197.02 37.90 L 194.40 35.78 L 191.79 37.48 L 189.17 35.37 L 186.55 35.91 L 183.93 36.03 L 181.31 33.93 L 178.69 32.87 L 176.07 33.67 L 173.45 34.42 L 170.83 35.13 L 168.21 35.95 L 165.60 36.68 L 162.98 34.59 L 160.95 35.43 L 159.52 36.36 L 158.09 36.58 L 156.65 38.03 L 155.22 34.69 L 153.79 32.55 L 152.36 32.98 L 150.92 33.95 L 149.49 34.92 L 148.06 35.88 L 146.63 36.92 L 145.20 37.90 L 143.76 38.43 L 142.33 36.28 L 140.90 37.22 L 139.47 33.90 L 138.03 34.62 L 136.60 36.14 L 135.17 34.04 L 133.74 33.47 Z" fill="#d0d0d0" fill-opacity="0.5" stroke="none"/>
<path d="M 231.07 28.49 L 233.69 28.49 L 236.31 28.49 L 238.93 28.49 L 241.55 28.49 L 244.17 28.49 L 246.79 28.49 L 249.40 28.49 L 252.02 28.49 L 254.64 28.49 L 257.26 28.49 L 259.88 28.49 L 262.50 28.49 L 265.12 28.49 L 267.74 28.49 L 270.36 28.49 L 272.98 28.49 L 275.60 28.49 L 278.21 28.49 L 280.83 28.49 L 283.45 28.49 L 286.07 28.49 L 288.69 28.49 L 291.31 28.49 L 293.93 28.49 L 296.55 28.49 L 299.17 28.49 L 301.79 28.49 L 304.40 28.49 L 307.02 28.49 L 309.64 28.49 L 312.26 28.49 L 314.88 28.49 L 317.50 28.49 L 320.12 28.49 L 322.74 28.49 L 325.36 28.49 L 327.98 28.49 L 330.60 28.49 L 333.21 28.49 L 335.83 28.49 L 338.45 28.49 L 341.07 28.49 L 343.69 28.49 L 347.29 28.49 L 351.88 28.49 L 356.46 28.49 L 361.04 28.49 L 365.62 28.49 L 370.21 28.49 L 374.79 28.49 L 379.38 28.49 L 383.96 28.49 L 388.54 28.49 L 393.12 28.49 L 397.71 28.49 L 402.29 28.49 L 406.88 28.49 L 411.46 28.49 L 416.04 28.49 L 420.62 28.49 L 425.21 28.49 L 429.79 28.49 L 434.38 28.49 L 440.19 28.49 L 447.24 28.49 L 454.29 28.49 L 461.35 28.49 L 468.40 28.49 L 475.45 28.49 L 482.50 28.49 L 489.55 28.49 L 496.60 28.49 L 503.65 28.49 L 510.71 28.49 L 517.76 28.49 L 524.81 28.49 L 531.61 28.49 L 538.15 28.49 L 544.70 28.49 L 551.25 28.49 L 557.80 28.49 L 564.35 28.49 L 570.89 28.49 L 577.44 28.49 L 583.99 28.49 L 590.54 28.49 L 597.08 28.49 L 603.63 28.49 L 610.18 28.49 L 616.73 28.49 L 625.09 28.49 L 635.28 28.49 L 645.46 28.49 L 655.65 28.49 L 665.83 28.49 L 676.02 28.49 L 686.20 28.49 L 696.39 28.49 L 706.57 28.49 L 726.94 28.49 L 757.50 28.49 L 788.06 28.49 L 809.06 28.49 L 820.52 28.49 L 831.98 28.49 L 843.44 28.49 L 854.90 28.49 L 866.35 28.49 L 877.81 28.49 L 889.27 28.49 L 901.55 28.49 L 914.64 28.49 L 927.74 28.49 L 940.83 28.49 L 953.93 28.49 L 967.02 28.49 L 980.12 28.49 L 994.31 28.49 L 1009.58 28.49 L 1024.86 28.49 L 1024.86 28.87 L 1009.58 29.61 L 994.31 30.74 L 980.12 31.30 L 967.02 32.14 L 953.93 33.00 L 940.83 33.47 L 927.74 34.04 L 914.64 34.95 L 901.55 35.87 L 889.27 35.50 L 877.81 36.13 L 866.35 33.76 L 854.90 35.72 L 843.44 36.61 L 831.98 36.73 L 820.52 37.82 L 809.06 38.37 L 788.06 36.06 L 757.50 36.38 L 726.94 37.46 L 706.57 38.09 L 696.39 37.95 L 686.20 35.66 L 676.02 35.68 L 665.83 36.62 L 655.65 37.20 L 645.46 38.25 L 635.28 38.33 L 625.09 38.81 L 616.73 39.86 L 610.18 39.67 L 603.63 40.72 L 597.08 41.07 L 590.54 41.22 L 583.99 41.65 L 577.44 42.59 L 570.89 43.54 L 564.35 41.29 L 557.80 42.12 L 551.25 39.82 L 544.70 40.88 L 538.15 41.38 L 531.61 42.48 L 524.81 40.19 L 517.76 37.92 L 510.71 37.85 L 503.65 35.64 L 496.60 36.23 L 489.55 36.68 L 482.50 37.69 L 475.45 38.68 L 468.40 40.15 L 461.35 41.14 L 454.29 42.12 L 447.24 43.10 L 440.19 43.67 L 434.38 44.51 L 429.79 45.48 L 425.21 43.32 L 420.62 42.37 L 416.04 42.90 L 411.46 43.18 L 406.88 43.91 L 402.29 44.96 L 397.71 42.81 L 393.12 43.77 L 388.54 42.61 L 383.96 43.37 L 379.38 44.00 L 374.79 41.84 L 370.21 42.13 L 365.62 43.11 L 361.04 44.27 L 356.46 44.42 L 351.88 45.66 L 347.29 46.52 L 343.69 47.49 L 341.07 47.98 L 338.45 48.85 L 335.83 50.78 L 333.21 47.32 L 330.60 45.12 L 327.98 45.88 L 325.36 46.31 L 322.74 47.24 L 320.12 45.04 L 317.50 45.05 L 314.88 45.51 L 312.26 45.83 L 309.64 43.61 L 307.02 44.54 L 304.40 46.24 L 301.79 42.79 L 299.17 40.60 L 296.55 42.15 L 293.93 40.02 L 291.31 40.80 L 288.69 41.62 L 286.07 41.72 L 283.45 41.91 L 280.83 42.55 L 278.21 43.25 L 275.60 43.44 L 272.98 41.36 L 270.36 42.00 L 267.74 41.28 L 265.12 39.22 L 262.50 39.66 L 259.88 40.63 L 257.26 38.57 L 254.64 39.04 L 252.02 39.74 L 249.40 37.64 L 246.79 35.56 L 244.17 36.15 L 241.55 37.07 L 238.93 38.02 L 236.31 34.74 L 233.69 32.65 L 231.07 30.58 Z" fill="#d0d0d0" fill-opacity="0.5" stroke="none"/>
<path d="M 1055.42 28.09 L 1070.69 28.09 L 1084.06 28.09 L 1095.52 28.09 L 1095.52 28.60 L 1084.06 29.11 L 1070.69 30.14 L 1055.42 30.50 Z" fill="#d0d0d0" fill-opacity="0.5" stroke="none"/>
<path d="M 1152.81 25.00 L 1164.27 25.00 L 1164.27 27.40 L 1152.81 27.33 Z" fill="#d0d0d0" fill-opacity="0.5" stroke="none"/>
<polyline fill="none" stroke="#111" stroke-width="1.2" points="70.72,45.37 72.15,45.38 73.58,45.02 75.01,44.09 76.45,43.09 77.88,45.29 79.31,48.74 80.74,50.92 82.17,49.93 83.61,48.93 85.04,47.27 86.47,46.39 87.90,48.60 89.34,48.23 90.77,47.33 92.20,46.33 93.63,45.60 95.07,45.05 96.50,43.25 97.93,43.24 99.36,42.23 100.79,41.21 102.23,39.75 103.66,39.16 105.09,38.42 106.52,37.54 107.96,36.64 109.39,35.83 110.82,34.40 112.25,34.43 113.68,35.21 115.12,35.01 116.55,34.11 117.98,33.22 119.41,32.25 120.85,34.38 122.28,33.54 123.71,35.64 125.14,35.19 126.58,34.25 128.01,33.31 129.44,32.73 130.87,31.87 132.30,31.36 133.74,33.47 135.17,34.04 136.60,36.14 138.03,34.62 139.47,33.90 140.90,37.22 142.33,36.28 143.76,38.43 145.20,37.90 146.63,36.92 148.06,35.88 149.49,34.92 150.92,33.95 152.36,32.98 153.79,32.55 155.22,34.69 156.65,38.03 158.09,36.58 159.52,36.36 160.95,35.43 162.98,34.59 165.60,36.68 168.21,35.95 170.83,35.13 173.45,34.42 176.07,33.67 178.69,32.87 181.31,33.93 183.93,36.03 186.55,35.91 189.17,35.37 191.79,37.48 194.40,35.78 197.02,37.90 199.64,36.18 202.26,35.31 204.88,34.46 207.50,34.48 210.12,33.53 212.74,32.58 215.36,32.39 217.98,31.53 220.60,31.39 223.21,30.89 225.83,30.17 228.45,28.49 231.07,30.58 233.69,32.65 236.31,34.74 238.93,38.02 241.55,37.07 244.17,36.15 246.79,35.56 249.40,37.64 252.02,39.74 254.64,39.04 257.26,38.57 259.88,40.63 262.50,39.66 265.12,39.22 267.74,41.28 270.36,42.00 272.98,41.36 275.60,43.44 278.21,43.25 280.83,42.55 283.45,41.91 286.07,41.72 288.69,41.62 291.31,40.80 293.93,40.02 296.55,42.15 299.17,40.60 301.79,42.79 304.40,46.24 307.02,44.54 309.64,43.61 312.26,45.83 314.88,45.51 317.50,45.05 320.12,45.04 322.74,47.24 325.36,46.31 327.98,45.88 330.60,45.12 333.21,47.32 335.83,50.78 338.45,48.85 341.07,47.98 343.69,47.49 347.29,46.52 351.88,45.66 356.46,44.42 361.04,44.27 365.62,43.11 370.21,42.13 374.79,41.84 379.38,44.00 383.96,43.37 388.54,42.61 393.12,43.77 397.71,42.81 402.29,44.96 406.88,43.91 411.46,43.18 416.04,42.90 420.62,42.37 425.21,43.32 429.79,45.48 434.38,44.51 440.19,43.67 447.24,43.10 454.29,42.12 461.35,41.14 468.40,40.15 475.45,38.68 482.50,37.69 489.55,36.68 496.60,36.23 503.65,35.64 510.71,37.85 517.76,37.92 524.81,40.19 531.61,42.48 538.15,41.38 544.70,40.88 551.25,39.82 557.80,42.12 564.35,41.29 570.89,43.54 577.44,42.59 583.99,41.65 590.54,41.22 597.08,41.07 603.63,40.72 610.18,39.67 616.73,39.86 625.09,38.81 635.28,38.33 645.46,38.25 655.65,37.20 665.83,36.62 676.02,35.68 686.20,35.66 696.39,37.95 706.57,38.09 726.94,37.46 757.50,36.38 788.06,36.06 809.06,38.37 820.52,37.82 831.98,36.73 843.44,36.61 854.90,35.72 866.35,33.76 877.81,36.13 889.27,35.50 901.55,35.87 914.64,34.95 927.74,34.04 940.83,33.47 953.93,33.00 967.02,32.14 980.12,31.30 994.31,30.74 1009.58,29.61 1024.86,28.87 1040.14,28.09 1055.42,30.50 1070.69,30.14 1084.06,29.11 1095.52,28.60 1106.98,27.75 1118.44,26.46 1129.90,25.49 1141.35,25.00 1152.81,27.33 1164.27,27.40"/>
<text x="15" y="287.5" transform="rotate(-90 15,287.5)" text-anchor="middle" font-family="sans-serif" font-size="12" fill="#333">USD</text>
</svg>