<svg xmlns="http://www.w3.org/2000/svg" width="1200" height="600" viewBox="0 0 1200 600">
<desc>Equity curve with drawdown fill</desc>
<text x="600.0" y="18.0" text-anchor="middle" font-family="sans-serif" font-size="14">Portfolio 2015</text>
<rect x="70" y="25" width="1100" height="525" fill="white" stroke="#ccc" />
<line x1="70" y1="550.00" x2="1170" y2="550.00" stroke="#eee"/>
<text x="62" y="554.0" text-anchor="end" font-family="sans-serif" font-size="11" fill="#555">0.00</text>
<line x1="70" y1="445.00" x2="1170" y2="445.00" stroke="#eee"/>
<text x="62" y="449.0" text-anchor="end" font-family="sans-serif" font-size="11" fill="#555">35435</text>
<line x1="70" y1="340.00" x2="1170" y2="340.00" stroke="#eee"/>
<text x="62" y="344.0" text-anchor="end" font-family="sans-serif" font-size="11" fill="#555">70869</text>
<line x1="70" y1="235.00" x2="1170" y2="235.00" stroke="#eee"/>
<text x="62" y="239.0" text-anchor="end" font-family="sans-serif" font-size="11" fill="#555">106304</text>
<line x1="70" y1="130.00" x2="1170" y2="130.00" stroke="#eee"/>
<text x="62" y="134.0" text-anchor="end" font-family="sans-serif" font-size="11" fill="#555">141738</text>
<line x1="70" y1="25.00" x2="1170" y2="25.00" stroke="#eee"/>
<text x="62" y="29.0" text-anchor="end" font-family="sans-serif" font-size="11" fill="#555">177173</text>
<line x1="125.38" y1="25" x2="125.38" y2="550" stroke="#f2f2f2"/>
<text x="125.38" y="566" text-anchor="middle" font-family="sans-serif" font-size="11" fill="#555">Feb</text>
<line x1="213.59" y1="25" x2="213.59" y2="550" stroke="#f2f2f2"/>
<text x="213.59" y="566" text-anchor="middle" font-family="sans-serif" font-size="11" fill="#555">Mar</text>
<line x1="311.26" y1="25" x2="311.26" y2="550" stroke="#f2f2f2"/>
<text x="311.26" y="566" text-anchor="middle" font-family="sans-serif" font-size="11" fill="#555">Apr</text>
<line x1="405.77" y1="25" x2="405.77" y2="550" stroke="#f2f2f2"/>
<text x="405.77" y="566" text-anchor="middle" font-family="sans-serif" font-size="11" fill="#555">May</text>
<line x1="503.43" y1="25" x2="503.43" y2="550" stroke="#f2f2f2"/>
<text x="503.43" y="566" text-anchor="middle" font-family="sans-serif" font-size="11" fill="#555">Jun</text>
<line x1="597.94" y1="25" x2="597.94" y2="550" stroke="#f2f2f2"/>
<text x="597.94" y="566" text-anchor="middle" font-family="sans-serif" font-size="11" fill="#555">Jul</text>
<line x1="695.60" y1="25" x2="695.60" y2="550" stroke="#f2f2f2"/>
<text x="695.60" y="566" text-anchor="middle" font-family="sans-serif" font-size="11" fill="#555">Aug</text>
<line x1="793.26" y1="25" x2="793.26" y2="550" stroke="#f2f2f2"/>
<text x="793.26" y="566" text-anchor="middle" font-family="sans-serif" font-size="11" fill="#555">Sep</text>
<line x1="887.77" y1="25" x2="887.77" y2="550" stroke="#f2f2f2"/>
<text x="887.77" y="566" text-anchor="middle" font-family="sans-serif" font-size="11" fill="#555">Oct</text>
<line x1="985.43" y1="25" x2="985.43" y2="550" stroke="#f2f2f2"/>
<text x="985.43" y="566" text-anchor="middle" font-family="sans-serif" font-size="11" fill="#555">Nov</text>
<line x1="1079.94" y1="25" x2="1079.94" y2="550" stroke="#f2f2f2"/>
<text x="1079.94" y="566" text-anchor="middle" font-family="sans-serif" font-size="11" fill="#555">Dec</text>
<line x1="70" y1="550" x2="1170" y2="550" stroke="#888"/>
<line x1="70" y1="25" x2="70" y2="550" stroke="#888"/>
<path d="M 70.49 159.99 L 70.54 159.99 L 73.08 159.99 L 73.08 160.38 L 70.54 162.55 L 70.49 163.95 Z" fill="#d0d0d0" fill-opacity="0.5" stroke="none"/>
<path d="M 73.93 151.98 L 73.94 151.98 L 73.94 153.96 L 73.93 156.01 Z" fill="#d0d0d0" fill-opacity="0.5" stroke="none"/>
<path d="M 95.96 142.98 L 96.00 142.98 L 96.13 142.98 L 96.19 142.98 L 98.20 142.98 L 98.22 142.98 L 98.35 142.98 L 98.41 142.98 L 98.60 142.98 L 98.64 142.98 L 98.65 142.98 L 98.89 142.98 L 106.43 142.98 L 107.54 142.98 L 110.78 142.98 L 110.83 142.98 L 111.42 142.98 L 111.53 142.98 L 111.69 142.98 L 133.49 142.98 L 133.56 142.98 L 133.70 142.98 L 137.96 142.98 L 139.03 142.98 L 139.43 142.98 L 140.43 142.98 L 143.18 142.98 L 152.33 142.98 L 155.36 142.98 L 162.01 142.98 L 175.00 142.98 L 177.39 142.98 L 181.43 142.98 L 187.26 142.98 L 187.55 142.98 L 205.96 142.98 L 206.13 142.98 L 206.14 142.98 L 206.20 142.98 L 209.23 142.98 L 225.01 142.98 L 227.99 142.98 L 228.07 142.98 L 228.45 142.98 L 230.58 142.98 L 231.12 142.98 L 231.30 142.98 L 231.35 142.98 L 243.28 142.98 L 243.90 142.98 L 244.20 142.98 L 246.30 142.98 L 246.68 142.98 L 246.68 143.46 L 246.30 143.57 L 244.20 145.81 L 243.90 147.84 L 243.28 149.73 L 231.35 150.72 L 231.30 152.32 L 231.12 148.23 L 230.58 150.57 L 228.45 152.59 L 228.07 154.34 L 227.99 155.97 L 225.01 157.96 L 209.23 160.14 L 206.20 161.68 L 206.14 162.52 L 206.13 158.54 L 205.96 154.55 L 187.55 150.48 L 187.26 152.82 L 181.43 155.02 L 177.39 157.22 L 175.00 158.02 L 162.01 159.72 L 155.36 161.22 L 152.33 163.27 L 143.18 163.96 L 140.43 162.88 L 139.43 163.85 L 139.03 165.49 L 137.96 167.46 L 133.70 167.70 L 133.56 167.69 L 133.49 168.43 L 111.69 164.50 L 111.53 160.55 L 111.42 162.40 L 110.83 164.38 L 110.78 166.20 L 107.54 162.26 L 106.43 164.20 L 98.89 160.23 L 98.65 162.11 L 98.64 164.40 L 98.60 160.47 L 98.41 156.47 L 98.35 157.54 L 98.22 153.52 L 98.20 155.64 L 96.19 151.59 L 96.13 152.17 L 96.00 151.12 L 95.96 147.07 Z" fill="#d0d0d0" fill-opacity="0.5" stroke="none"/>
<path d="M 249.32 142.67 L 249.38 142.67 L 249.51 142.67 L 249.51 144.24 L 249.38 145.44 L 249.32 146.81 Z" fill="#d0d0d0" fill-opacity="0.5" stroke="none"/>
<path d="M 253.38 141.99 L 253.39 141.99 L 253.39 143.79 L 253.38 146.14 Z" fill="#d0d0d0" fill-opacity="0.5" stroke="none"/>
<path d="M 262.81 140.37 L 269.48 140.37 L 269.48 142.29 L 262.81 144.54 Z" fill="#d0d0d0" fill-opacity="0.5" stroke="none"/>
<path d="M 270.49 138.76 L 270.89 138.76 L 271.40 138.76 L 271.47 138.76 L 271.57 138.76 L 271.70 138.76 L 271.96 138.76 L 271.96 139.71 L 271.70 141.97 L 271.57 143.88 L 271.47 145.63 L 271.40 146.74 L 270.89 142.60 L 270.49 142.94 Z" fill="#d0d0d0" fill-opacity="0.5" stroke="none"/>
<path d="M 275.42 131.81 L 275.44 131.81 L 275.77 131.81 L 275.89 131.81 L 284.29 131.81 L 284.47 131.81 L 284.66 131.81 L 287.35 131.81 L 287.35 133.81 L 284.66 134.06 L 284.47 133.53 L 284.29 135.12 L 275.89 137.25 L 275.77 138.41 L 275.44 134.19 L 275.42 136.05 Z" fill="#d0d0d0" fill-opacity="0.5" stroke="none"/>
<path d="M 296.66 124.37 L 297.34 124.37 L 297.76 124.37 L 297.76 124.89 L 297.34 127.24 L 296.66 128.68 Z" fill="#d0d0d0" fill-opacity="0.5" stroke="none"/>
<path d="M 319.63 108.62 L 331.40 108.62 L 331.50 108.62 L 335.32 108.62 L 335.84 108.62 L 338.51 108.62 L 340.74 108.62 L 350.50 108.62 L 350.91 108.62 L 350.91 110.29 L 350.50 112.71 L 340.74 114.06 L 338.51 114.99 L 335.84 110.55 L 335.32 112.52 L 331.50 114.46 L 331.40 115.21 L 319.63 110.77 Z" fill="#d0d0d0" fill-opacity="0.5" stroke="none"/>
<path d="M 354.05 108.44 L 354.18 108.44 L 354.29 108.44 L 356.69 108.44 L 357.22 108.44 L 357.30 108.44 L 357.74 108.44 L 357.83 108.44 L 357.83 108.89 L 357.74 109.95 L 357.30 112.37 L 357.22 114.20 L 356.69 116.59 L 354.29 116.35 L 354.18 117.30 L 354.05 112.87 Z" fill="#d0d0d0" fill-opacity="0.5" stroke="none"/>
<path d="M 360.05 104.80 L 360.12 104.80 L 360.29 104.80 L 361.04 104.80 L 362.99 104.80 L 363.47 104.80 L 375.40 104.80 L 375.40 105.63 L 363.47 105.41 L 362.99 107.63 L 361.04 109.32 L 360.29 104.82 L 360.12 107.25 L 360.05 109.30 Z" fill="#d0d0d0" fill-opacity="0.5" stroke="none"/>
<path d="M 384.74 99.60 L 384.85 99.60 L 384.98 99.60 L 384.98 100.51 L 384.85 102.39 L 384.74 104.15 Z" fill="#d0d0d0" fill-opacity="0.5" stroke="none"/>
<path d="M 401.26 95.76 L 401.41 95.76 L 401.48 95.76 L 401.67 95.76 L 401.74 95.76 L 401.96 95.76 L 402.01 95.76 L 403.76 95.76 L 403.79 95.76 L 403.87 95.76 L 404.44 95.76 L 404.73 95.76 L 407.80 95.76 L 416.45 95.76 L 417.11 95.76 L 420.21 95.76 L 420.47 95.76 L 420.47 97.84 L 420.21 99.12 L 417.11 101.08 L 416.45 102.17 L 407.80 103.63 L 404.73 105.39 L 404.44 107.68 L 403.87 109.88 L 403.79 110.75 L 403.76 106.30 L 402.01 101.78 L 401.96 104.19 L 401.74 106.64 L 401.67 107.18 L 401.48 102.67 L 401.41 98.15 L 401.26 100.34 Z" fill="#d0d0d0" fill-opacity="0.5" stroke="none"/>
<path d="M 423.47 95.34 L 423.62 95.34 L 426.44 95.34 L 429.59 95.34 L 429.61 95.34 L 429.88 95.34 L 438.34 95.34 L 441.56 95.34 L 445.52 95.34 L 447.78 95.34 L 448.83 95.34 L 451.88 95.34 L 451.98 95.34 L 452.10 95.34 L 460.47 95.34 L 461.33 95.34 L 461.33 96.91 L 460.47 97.74 L 452.10 99.79 L 451.98 100.43 L 451.88 100.88 L 448.83 96.32 L 447.78 98.82 L 445.52 100.50 L 441.56 95.92 L 438.34 97.02 L 429.88 98.89 L 429.61 101.23 L 429.59 103.70 L 426.44 106.16 L 423.62 101.64 L 423.47 99.92 Z" fill="#d0d0d0" fill-opacity="0.5" stroke="none"/>
<path d="M 463.53 94.85 L 463.59 94.85 L 463.68 94.85 L 463.74 94.85 L 464.30 94.85 L 466.66 94.85 L 468.12 94.85 L 469.93 94.85 L 473.85 94.85 L 473.92 94.85 L 474.05 94.85 L 485.63 94.85 L 489.56 94.85 L 489.70 94.85 L 489.87 94.85 L 492.48 94.85 L 505.47 94.85 L 507.71 94.85 L 508.07 94.85 L 508.45 94.85 L 508.63 94.85 L 510.83 94.85 L 511.08 94.85 L 511.58 94.85 L 511.71 94.85 L 511.77 94.85 L 511.90 94.85 L 512.00 94.85 L 514.10 94.85 L 514.15 94.85 L 514.35 94.85 L 514.75 94.85 L 514.78 94.85 L 515.21 94.85 L 515.38 94.85 L 516.08 94.85 L 517.10 94.85 L 517.98 94.85 L 526.51 94.85 L 527.31 94.85 L 528.98 94.85 L 529.74 94.85 L 530.47 94.85 L 532.90 94.85 L 533.42 94.85 L 533.70 94.85 L 533.91 94.85 L 536.10 94.85 L 539.37 94.85 L 539.41 94.85 L 539.84 94.85 L 551.79 94.85 L 552.46 94.85 L 556.33 94.85 L 556.37 94.85 L 556.37 95.49 L 556.33 97.22 L 552.46 99.72 L 551.79 101.40 L 539.84 102.99 L 539.41 105.45 L 539.37 107.34 L 536.10 109.79 L 533.91 112.22 L 533.70 114.64 L 533.42 116.67 L 532.90 118.57 L 530.47 114.16 L 529.74 115.84 L 528.98 118.02 L 527.31 120.42 L 526.51 120.60 L 517.98 122.97 L 517.10 124.38 L 516.08 126.35 L 515.38 127.78 L 515.21 129.94 L 514.78 132.27 L 514.75 134.16 L 514.35 129.89 L 514.15 125.59 L 514.10 121.27 L 512.00 116.88 L 511.90 115.66 L 511.77 114.28 L 511.71 109.87 L 511.58 105.41 L 511.08 107.69 L 510.83 109.62 L 508.63 111.50 L 508.45 107.02 L 508.07 102.53 L 507.71 104.99 L 505.47 106.13 L 492.48 108.23 L 489.87 110.02 L 489.70 112.23 L 489.56 114.39 L 485.63 113.78 L 474.05 114.92 L 473.92 114.61 L 473.85 115.59 L 469.93 111.18 L 468.12 113.59 L 466.66 116.01 L 464.30 111.57 L 463.74 107.10 L 463.68 108.44 L 463.59 103.94 L 463.53 99.43 Z" fill="#d0d0d0" fill-opacity="0.5" stroke="none"/>
<path d="M 573.25 87.20 L 574.61 87.20 L 580.44 87.20 L 584.35 87.20 L 591.55 87.20 L 591.74 87.20 L 592.62 87.20 L 592.79 87.20 L 593.71 87.20 L 594.07 87.20 L 594.07 87.55 L 593.71 90.22 L 592.79 92.52 L 592.62 94.21 L 591.74 96.84 L 591.55 92.23 L 584.35 93.73 L 580.44 94.68 L 574.61 96.46 L 573.25 91.85 Z" fill="#d0d0d0" fill-opacity="0.5" stroke="none"/>
<path d="M 596.89 85.89 L 599.29 85.89 L 599.29 88.19 L 596.89 90.56 Z" fill="#d0d0d0" fill-opacity="0.5" stroke="none"/>
<path d="M 618.17 82.98 L 618.17 83.11 Z" fill="#d0d0d0" fill-opacity="0.5" stroke="none"/>
<path d="M 627.76 70.10 L 627.76 70.48 Z" fill="#d0d0d0" fill-opacity="0.5" stroke="none"/>
<path d="M 636.93 68.09 L 636.98 68.09 L 644.00 68.09 L 663.01 68.09 L 668.48 68.09 L 668.48 70.69 L 663.01 70.02 L 644.00 71.78 L 636.98 71.10 L 636.93 72.91 Z" fill="#d0d0d0" fill-opacity="0.5" stroke="none"/>
<path d="M 707.65 56.58 L 707.65 57.28 Z" fill="#d0d0d0" fill-opacity="0.5" stroke="none"/>
<path d="M 716.29 54.59 L 716.56 54.59 L 716.56 56.85 L 716.29 59.52 Z" fill="#d0d0d0" fill-opacity="0.5" stroke="none"/>
<path d="M 728.31 54.16 L 731.53 54.16 L 754.87 54.16 L 757.52 54.16 L 760.83 54.16 L 768.43 54.16 L 768.64 54.16 L 769.73 54.16 L 769.87 54.16 L 769.92 54.16 L 770.46 54.16 L 772.75 54.16 L 772.78 54.16 L 773.33 54.16 L 776.07 54.16 L 776.13 54.16 L 776.40 54.16 L 778.82 54.16 L 779.43 54.16 L 779.61 54.16 L 782.83 54.16 L 782.91 54.16 L 782.91 55.68 L 782.83 57.68 L 779.61 60.35 L 779.43 62.76 L 778.82 62.23 L 776.40 64.27 L 776.13 66.93 L 776.07 69.70 L 773.33 67.06 L 772.78 62.19 L 772.75 64.50 L 770.46 59.62 L 769.92 60.74 L 769.87 55.88 L 769.73 58.44 L 768.64 60.92 L 768.43 61.37 L 760.83 62.16 L 757.52 57.25 L 754.87 59.46 L 731.53 58.98 L 728.31 59.09 Z" fill="#d0d0d0" fill-opacity="0.5" stroke="none"/>
<path d="M 801.35 53.83 L 801.40 53.83 L 801.54 53.83 L 805.08 53.83 L 816.04 53.83 L 823.74 53.83 L 827.06 53.83 L 842.61 53.83 L 846.16 53.83 L 848.87 53.83 L 858.47 53.83 L 880.58 53.83 L 892.92 53.83 L 892.98 53.83 L 893.40 53.83 L 905.65 53.83 L 910.97 53.83 L 911.63 53.83 L 911.63 55.30 L 910.97 56.10 L 905.65 57.76 L 893.40 59.96 L 892.98 60.37 L 892.92 62.16 L 880.58 61.57 L 858.47 60.86 L 848.87 60.18 L 846.16 62.06 L 842.61 64.72 L 827.06 63.62 L 823.74 62.53 L 816.04 65.19 L 805.08 65.85 L 801.54 68.49 L 801.40 63.63 L 801.35 58.77 Z" fill="#d0d0d0" fill-opacity="0.5" stroke="none"/>
<path d="M 933.79 52.79 L 933.79 53.40 Z" fill="#d0d0d0" fill-opacity="0.5" stroke="none"/>
<path d="M 955.92 48.07 L 956.02 48.07 L 958.82 48.07 L 975.32 48.07 L 975.53 48.07 L 981.16 48.07 L 981.16 49.82 L 975.53 51.63 L 975.32 49.03 L 958.82 51.88 L 956.02 54.58 L 955.92 49.61 Z" fill="#d0d0d0" fill-opacity="0.5" stroke="none"/>
<path d="M 1003.16 47.34 L 1003.16 47.37 Z" fill="#d0d0d0" fill-opacity="0.5" stroke="none"/>
<path d="M 1062.39 33.50 L 1063.28 33.50 L 1063.28 35.85 L 1062.39 38.61 Z" fill="#d0d0d0" fill-opacity="0.5" stroke="none"/>
<path d="M 1088.17 30.08 L 1088.32 30.08 L 1088.34 30.08 L 1088.41 30.08 L 1088.45 30.08 L 1088.58 30.08 L 1090.46 30.08 L 1091.16 30.08 L 1091.39 30.08 L 1091.73 30.08 L 1107.01 30.08 L 1107.54 30.08 L 1113.42 30.08 L 1113.42 31.19 L 1107.54 33.12 L 1107.01 35.41 L 1091.73 37.90 L 1091.39 39.60 L 1091.16 41.68 L 1090.46 44.42 L 1088.58 39.36 L 1088.45 41.24 L 1088.41 43.44 L 1088.34 38.41 L 1088.32 33.31 L 1088.17 30.68 Z" fill="#d0d0d0" fill-opacity="0.5" stroke="none"/>
<polyline fill="none" stroke="#111" stroke-width="1.2" points="70.00,159.99 70.49,163.95 70.54,162.55 73.08,160.38 73.09,158.06 73.22,155.87 73.72,153.87 73.79,151.98 73.93,156.01 73.94,153.96 76.91,151.97 77.07,150.40 85.74,149.13 92.64,148.61 92.67,146.25 95.68,143.88 95.80,142.98 95.96,147.07 96.00,151.12 96.13,152.17 96.19,151.59 98.20,155.64 98.22,153.52 98.35,157.54 98.41,156.47 98.60,160.47 98.64,164.40 98.65,162.11 98.89,160.23 106.43,164.20 107.54,162.26 110.78,166.20 110.83,164.38 111.42,162.40 111.53,160.55 111.69,164.50 133.49,168.43 133.56,167.69 133.70,167.70 137.96,167.46 139.03,165.49 139.43,163.85 140.43,162.88 143.18,163.96 152.33,163.27 155.36,161.22 162.01,159.72 175.00,158.02 177.39,157.22 181.43,155.02 187.26,152.82 187.55,150.48 205.96,154.55 206.13,158.54 206.14,162.52 206.20,161.68 209.23,160.14 225.01,157.96 227.99,155.97 228.07,154.34 228.45,152.59 230.58,150.57 231.12,148.23 231.30,152.32 231.35,150.72 243.28,149.73 243.90,147.84 244.20,145.81 246.30,143.57 246.68,143.46 247.60,142.67 249.32,146.81 249.38,145.44 249.51,144.24 250.02,141.99 253.38,146.14 253.39,143.79 253.52,141.80 253.85,140.37 262.81,144.54 269.48,142.29 269.64,139.91 269.75,138.76 270.49,142.94 270.89,142.60 271.40,146.74 271.47,145.63 271.57,143.88 271.70,141.97 271.96,139.71 272.09,137.57 272.52,135.81 275.21,134.01 275.29,131.81 275.42,136.05 275.44,134.19 275.77,138.41 275.89,137.25 284.29,135.12 284.47,133.53 284.66,134.06 287.35,133.81 287.83,131.49 287.86,129.17 288.02,128.50 293.63,127.24 294.18,125.14 294.41,124.51 294.87,124.37 296.66,128.68 297.34,127.24 297.76,124.89 297.78,122.58 309.43,120.49 313.03,118.54 315.40,116.66 316.24,114.44 319.24,112.03 319.33,109.48 319.44,108.62 319.63,110.77 331.40,115.21 331.50,114.46 335.32,112.52 335.84,110.55 338.51,114.99 340.74,114.06 350.50,112.71 350.91,110.29 354.01,108.44 354.05,112.87 354.18,117.30 354.29,116.35 356.69,116.59 357.22,114.20 357.30,112.37 357.74,109.95 357.83,108.89 358.67,106.45 359.69,104.80 360.05,109.30 360.12,107.25 360.29,104.82 361.04,109.32 362.99,107.63 363.47,105.41 375.40,105.63 376.37,104.22 379.19,102.44 382.04,101.03 382.64,99.60 384.74,104.15 384.85,102.39 384.98,100.51 385.25,99.39 395.31,98.04 398.34,95.76 401.26,100.34 401.41,98.15 401.48,102.67 401.67,107.18 401.74,106.64 401.96,104.19 402.01,101.78 403.76,106.30 403.79,110.75 403.87,109.88 404.44,107.68 404.73,105.39 407.80,103.63 416.45,102.17 417.11,101.08 420.21,99.12 420.47,97.84 422.08,95.34 423.47,99.92 423.62,101.64 426.44,106.16 429.59,103.70 429.61,101.23 429.88,98.89 438.34,97.02 441.56,95.92 445.52,100.50 447.78,98.82 448.83,96.32 451.88,100.88 451.98,100.43 452.10,99.79 460.47,97.74 461.33,96.91 461.86,94.85 463.53,99.43 463.59,103.94 463.68,108.44 463.74,107.10 464.30,111.57 466.66,116.01 468.12,113.59 469.93,111.18 473.85,115.59 473.92,114.61 474.05,114.92 485.63,113.78 489.56,114.39 489.70,112.23 489.87,110.02 492.48,108.23 505.47,106.13 507.71,104.99 508.07,102.53 508.45,107.02 508.63,111.50 510.83,109.62 511.08,107.69 511.58,105.41 511.71,109.87 511.77,114.28 511.90,115.66 512.00,116.88 514.10,121.27 514.15,125.59 514.35,129.89 514.75,134.16 514.78,132.27 515.21,129.94 515.38,127.78 516.08,126.35 517.10,124.38 517.98,122.97 526.51,120.60 527.31,120.42 528.98,118.02 529.74,115.84 530.47,114.16 532.90,118.57 533.42,116.67 533.70,114.64 533.91,112.22 536.10,109.79 539.37,107.34 539.41,105.45 539.84,102.99 551.79,101.40 552.46,99.72 556.33,97.22 556.37,95.49 558.25,94.30 559.30,91.77 561.22,89.74 570.70,87.20 573.25,91.85 574.61,96.46 580.44,94.68 584.35,93.73 591.55,92.23 591.74,96.84 592.62,94.21 592.79,92.52 593.71,90.22 594.07,87.55 596.66,85.89 596.89,90.56 599.29,88.19 613.56,85.52 614.60,82.98 618.17,83.11 618.62,81.68 621.16,79.10 621.89,76.71 622.16,74.37 624.30,72.18 626.24,70.10 627.76,70.48 636.80,68.09 636.93,72.91 636.98,71.10 644.00,71.78 663.01,70.02 668.48,70.69 680.93,68.06 680.97,65.76 688.64,63.11 694.22,60.31 694.36,58.52 694.48,56.60 694.87,56.58 707.65,57.28 716.27,54.59 716.29,59.52 716.56,56.85 726.27,54.16 728.31,59.09 731.53,58.98 754.87,59.46 757.52,57.25 760.83,62.16 768.43,61.37 768.64,60.92 769.73,58.44 769.87,55.88 769.92,60.74 770.46,59.62 772.75,64.50 772.78,62.19 773.33,67.06 776.07,69.70 776.13,66.93 776.40,64.27 778.82,62.23 779.43,62.76 779.61,60.35 782.83,57.68 782.91,55.68 794.45,53.83 801.35,58.77 801.40,63.63 801.54,68.49 805.08,65.85 816.04,65.19 823.74,62.53 827.06,63.62 842.61,64.72 846.16,62.06 848.87,60.18 858.47,60.86 880.58,61.57 892.92,62.16 892.98,60.37 893.40,59.96 905.65,57.76 910.97,56.10 911.63,55.30 914.17,53.80 933.06,52.79 933.79,53.40 955.70,50.69 955.71,48.07 955.92,49.61 956.02,54.58 958.82,51.88 975.32,49.03 975.53,51.63 981.16,49.82 996.81,47.34 1003.16,47.37 1003.24,45.59 1021.27,44.12 1022.00,41.38 1022.06,38.68 1032.66,37.19 1042.37,34.42 1044.35,33.50 1062.39,38.61 1063.28,35.85 1087.90,33.08 1087.90,30.08 1088.17,30.68 1088.32,33.31 1088.34,38.41 1088.41,43.44 1088.45,41.24 1088.58,39.36 1090.46,44.42 1091.16,41.68 1091.39,39.60 1091.73,37.90 1107.01,35.41 1107.54,33.12 1113.42,31.19 1122.96,29.62 1126.00,27.42 1130.33,27.30 1134.67,25.92 1170.00,25.00"/>
<text x="620.0" y="588" text-anchor="middle" font-family="sans-serif" font-size="12" fill="#333">UTC time</text>
<text x="15" y="287.5" transform="rotate(-90 15,287.5)" text-anchor="middle" font-family="sans-serif" font-size="12" fill="#333">Capital</text>
</svg>