<svg xmlns="http://www.w3.org/2000/svg" width="1200" height="600" viewBox="0 0 1200 600">
<desc>Equity curve with drawdown fill</desc>
<text x="600.0" y="18.0" text-anchor="middle" font-family="sans-serif" font-size="14">Portfolio 2019</text>
<rect x="70" y="25" width="1100" height="525" fill="white" stroke="#ccc" />
<line x1="70" y1="550.00" x2="1170" y2="550.00" stroke="#eee"/>
<text x="62" y="554.0" text-anchor="end" font-family="sans-serif" font-size="11" fill="#555">0.00</text>
<line x1="70" y1="445.00" x2="1170" y2="445.00" stroke="#eee"/>
<text x="62" y="449.0" text-anchor="end" font-family="sans-serif" font-size="11" fill="#555">43819</text>
<line x1="70" y1="340.00" x2="1170" y2="340.00" stroke="#eee"/>
<text x="62" y="344.0" text-anchor="end" font-family="sans-serif" font-size="11" fill="#555">87637</text>
<line x1="70" y1="235.00" x2="1170" y2="235.00" stroke="#eee"/>
<text x="62" y="239.0" text-anchor="end" font-family="sans-serif" font-size="11" fill="#555">131456</text>
<line x1="70" y1="130.00" x2="1170" y2="130.00" stroke="#eee"/>
<text x="62" y="134.0" text-anchor="end" font-family="sans-serif" font-size="11" fill="#555">175274</text>
<line x1="70" y1="25.00" x2="1170" y2="25.00" stroke="#eee"/>
<text x="62" y="29.0" text-anchor="end" font-family="sans-serif" font-size="11" fill="#555">219093</text>
<line x1="163.73" y1="25" x2="163.73" y2="550" stroke="#f2f2f2"/>
<text x="163.73" y="566" text-anchor="middle" font-family="sans-serif" font-size="11" fill="#555">Feb</text>
<line x1="253.00" y1="25" x2="253.00" y2="550" stroke="#f2f2f2"/>
<text x="253.00" y="566" text-anchor="middle" font-family="sans-serif" font-size="11" fill="#555">Mar</text>
<line x1="351.83" y1="25" x2="351.83" y2="550" stroke="#f2f2f2"/>
<text x="351.83" y="566" text-anchor="middle" font-family="sans-serif" font-size="11" fill="#555">Apr</text>
<line x1="447.47" y1="25" x2="447.47" y2="550" stroke="#f2f2f2"/>
<text x="447.47" y="566" text-anchor="middle" font-family="sans-serif" font-size="11" fill="#555">May</text>
<line x1="546.30" y1="25" x2="546.30" y2="550" stroke="#f2f2f2"/>
<text x="546.30" y="566" text-anchor="middle" font-family="sans-serif" font-size="11" fill="#555">Jun</text>
<line x1="641.95" y1="25" x2="641.95" y2="550" stroke="#f2f2f2"/>
<text x="641.95" y="566" text-anchor="middle" font-family="sans-serif" font-size="11" fill="#555">Jul</text>
<line x1="740.78" y1="25" x2="740.78" y2="550" stroke="#f2f2f2"/>
<text x="740.78" y="566" text-anchor="middle" font-family="sans-serif" font-size="11" fill="#555">Aug</text>
<line x1="839.61" y1="25" x2="839.61" y2="550" stroke="#f2f2f2"/>
<text x="839.61" y="566" text-anchor="middle" font-family="sans-serif" font-size="11" fill="#555">Sep</text>
<line x1="935.25" y1="25" x2="935.25" y2="550" stroke="#f2f2f2"/>
<text x="935.25" y="566" text-anchor="middle" font-family="sans-serif" font-size="11" fill="#555">Oct</text>
<line x1="1034.08" y1="25" x2="1034.08" y2="550" stroke="#f2f2f2"/>
<text x="1034.08" y="566" text-anchor="middle" font-family="sans-serif" font-size="11" fill="#555">Nov</text>
<line x1="1129.73" y1="25" x2="1129.73" y2="550" stroke="#f2f2f2"/>
<text x="1129.73" y="566" text-anchor="middle" font-family="sans-serif" font-size="11" fill="#555">Dec</text>
<line x1="70" y1="550" x2="1170" y2="550" stroke="#888"/>
<line x1="70" y1="25" x2="70" y2="550" stroke="#888"/>
<path d="M 92.40 28.59 L 98.72 28.59 L 140.67 28.59 L 159.96 28.59 L 274.15 28.59 L 316.02 28.59 L 316.13 28.59 L 321.08 28.59 L 321.22 28.59 L 407.30 28.59 L 475.06 28.59 L 564.09 28.59 L 567.36 28.59 L 720.35 28.59 L 740.12 28.59 L 781.03 28.59 L 787.48 28.59 L 813.10 28.59 L 835.37 28.59 L 876.37 28.59 L 876.42 28.59 L 876.54 28.59 L 876.64 28.59 L 910.96 28.59 L 910.96 29.91 L 876.64 30.59 L 876.54 33.47 L 876.42 35.26 L 876.37 29.97 L 835.37 32.86 L 813.10 35.72 L 787.48 30.44 L 781.03 32.47 L 740.12 35.14 L 720.35 37.99 L 567.36 40.61 L 564.09 39.58 L 475.06 41.44 L 407.30 41.50 L 321.22 43.01 L 321.08 43.20 L 316.13 46.02 L 316.02 46.26 L 274.15 41.09 L 159.96 37.57 L 140.67 32.31 L 98.72 31.53 L 92.40 33.89 Z" fill="#d0d0d0" fill-opacity="0.5" stroke="none"/>
<polyline fill="none" stroke="#111" stroke-width="1.2" points="70.00,30.34 73.33,28.59 92.40,33.89 98.72,31.53 140.67,32.31 159.96,37.57 274.15,41.09 316.02,46.26 316.13,46.02 321.08,43.20 321.22,43.01 407.30,41.50 475.06,41.44 564.09,39.58 567.36,40.61 720.35,37.99 740.12,35.14 781.03,32.47 787.48,30.44 813.10,35.72 835.37,32.86 876.37,29.97 876.42,35.26 876.54,33.47 876.64,30.59 910.96,29.91 987.70,27.63 1170.00,25.00"/>
<text x="620.0" y="588" text-anchor="middle" font-family="sans-serif" font-size="12" fill="#333">UTC time</text>
<text x="15" y="287.5" transform="rotate(-90 15,287.5)" text-anchor="middle" font-family="sans-serif" font-size="12" fill="#333">Capital</text>
</svg>