<svg xmlns="http://www.w3.org/2000/svg" width="1200" height="600" viewBox="0 0 1200 600">
<desc>Equity curve with drawdown fill; x-axis is months only (no exact timestamps)</desc>
<text x="600.0" y="18.0" text-anchor="middle" font-family="sans-serif" font-size="14">Portfolio 2004 (UTC)</text>
<rect x="70" y="25" width="1100" height="525" fill="white" stroke="#ccc" />
<line x1="70" y1="550.00" x2="1170" y2="550.00" stroke="#eee"/>
<text x="62" y="554.0" text-anchor="end" font-family="sans-serif" font-size="11" fill="#555">0.00</text>
<line x1="70" y1="445.00" x2="1170" y2="445.00" stroke="#eee"/>
<text x="62" y="449.0" text-anchor="end" font-family="sans-serif" font-size="11" fill="#555">22287</text>
<line x1="70" y1="340.00" x2="1170" y2="340.00" stroke="#eee"/>
<text x="62" y="344.0" text-anchor="end" font-family="sans-serif" font-size="11" fill="#555">44575</text>
<line x1="70" y1="235.00" x2="1170" y2="235.00" stroke="#eee"/>
<text x="62" y="239.0" text-anchor="end" font-family="sans-serif" font-size="11" fill="#555">66862</text>
<line x1="70" y1="130.00" x2="1170" y2="130.00" stroke="#eee"/>
<text x="62" y="134.0" text-anchor="end" font-family="sans-serif" font-size="11" fill="#555">89150</text>
<line x1="70" y1="25.00" x2="1170" y2="25.00" stroke="#eee"/>
<text x="62" y="29.0" text-anchor="end" font-family="sans-serif" font-size="11" fill="#555">111437</text>
<line x1="161.67" y1="25" x2="161.67" y2="550" stroke="#f2f2f2"/>
<line x1="253.33" y1="25" x2="253.33" y2="550" stroke="#f2f2f2"/>
<line x1="345.00" y1="25" x2="345.00" y2="550" stroke="#f2f2f2"/>
<line x1="436.67" y1="25" x2="436.67" y2="550" stroke="#f2f2f2"/>
<line x1="528.33" y1="25" x2="528.33" y2="550" stroke="#f2f2f2"/>
<line x1="620.00" y1="25" x2="620.00" y2="550" stroke="#f2f2f2"/>
<line x1="711.67" y1="25" x2="711.67" y2="550" stroke="#f2f2f2"/>
<line x1="803.33" y1="25" x2="803.33" y2="550" stroke="#f2f2f2"/>
<line x1="895.00" y1="25" x2="895.00" y2="550" stroke="#f2f2f2"/>
<line x1="986.67" y1="25" x2="986.67" y2="550" stroke="#f2f2f2"/>
<line x1="1078.33" y1="25" x2="1078.33" y2="550" stroke="#f2f2f2"/>
<text x="115.83" y="566.00" text-anchor="middle" font-family="sans-serif" font-size="11" fill="#444">Jan</text>
<text x="207.50" y="566.00" text-anchor="middle" font-family="sans-serif" font-size="11" fill="#444">Feb</text>
<text x="299.17" y="566.00" text-anchor="middle" font-family="sans-serif" font-size="11" fill="#444">Mar</text>
<text x="390.83" y="566.00" text-anchor="middle" font-family="sans-serif" font-size="11" fill="#444">Apr</text>
<text x="482.50" y="566.00" text-anchor="middle" font-family="sans-serif" font-size="11" fill="#444">May</text>
<text x="574.17" y="566.00" text-anchor="middle" font-family="sans-serif" font-size="11" fill="#444">Jun</text>
<text x="665.83" y="566.00" text-anchor="middle" font-family="sans-serif" font-size="11" fill="#444">Jul</text>
<text x="757.50" y="566.00" text-anchor="middle" font-family="sans-serif" font-size="11" fill="#444">Aug</text>
<text x="849.17" y="566.00" text-anchor="middle" font-family="sans-serif" font-size="11" fill="#444">Sep</text>
<text x="940.83" y="566.00" text-anchor="middle" font-family="sans-serif" font-size="11" fill="#444">Oct</text>
<text x="1032.50" y="566.00" text-anchor="middle" font-family="sans-serif" font-size="11" fill="#444">Nov</text>
<text x="1124.17" y="566.00" text-anchor="middle" font-family="sans-serif" font-size="11" fill="#444">Dec</text>
<line x1="70" y1="550" x2="1170" y2="550" stroke="#888"/>
<line x1="70" y1="25" x2="70" y2="550" stroke="#888"/>
<line x1="71.91" y1="550.00" x2="71.91" y2="556.00" stroke="#888"/>
<line x1="1163.45"   y1="550.00" x2="1163.45"   y2="556.00" stroke="#888"/>
<text x="71.91" y="582.00" text-anchor="start" font-family="sans-serif" font-size="11" fill="#333">Initial Balance: 100000</text>
<text x="1163.45"   y="582.00" text-anchor="end"   font-family="sans-serif" font-size="11" fill="#333">Ending Balance: 108260</text>
<path d="M 83.37 76.49 L 87.19 76.49 L 91.01 76.49 L 91.01 78.79 L 87.19 79.61 L 83.37 81.34 Z" fill="#d0d0d0" fill-opacity="0.5" stroke="none"/>
<path d="M 98.65 76.21 L 102.47 76.21 L 106.28 76.21 L 110.10 76.21 L 113.92 76.21 L 117.74 76.21 L 121.56 76.21 L 125.38 76.21 L 129.20 76.21 L 133.02 76.21 L 136.84 76.21 L 140.66 76.21 L 144.48 76.21 L 148.30 76.21 L 152.12 76.21 L 155.94 76.21 L 159.76 76.21 L 165.49 76.21 L 173.12 76.21 L 180.76 76.21 L 188.40 76.21 L 196.04 76.21 L 203.68 76.21 L 211.32 76.21 L 211.32 78.28 L 203.68 79.90 L 196.04 82.47 L 188.40 82.30 L 180.76 83.25 L 173.12 85.81 L 165.49 87.52 L 159.76 82.74 L 155.94 84.82 L 152.12 87.35 L 148.30 89.60 L 144.48 92.10 L 140.66 87.42 L 136.84 90.07 L 133.02 92.34 L 129.20 87.70 L 125.38 85.62 L 121.56 90.32 L 117.74 88.26 L 113.92 88.15 L 110.10 83.38 L 106.28 78.60 L 102.47 81.29 L 98.65 76.45 Z" fill="#d0d0d0" fill-opacity="0.5" stroke="none"/>
<path d="M 262.50 67.39 L 268.61 67.39 L 274.72 67.39 L 274.72 67.82 L 268.61 70.22 L 262.50 72.33 Z" fill="#d0d0d0" fill-opacity="0.5" stroke="none"/>
<path d="M 305.28 58.11 L 311.39 58.11 L 317.50 58.11 L 323.61 58.11 L 329.72 58.11 L 335.83 58.11 L 341.94 58.11 L 351.55 58.11 L 364.64 58.11 L 377.74 58.11 L 390.83 58.11 L 390.83 60.48 L 377.74 62.33 L 364.64 64.98 L 351.55 59.97 L 341.94 59.99 L 335.83 62.41 L 329.72 64.83 L 323.61 66.22 L 317.50 65.53 L 311.39 68.11 L 305.28 63.13 Z" fill="#d0d0d0" fill-opacity="0.5" stroke="none"/>
<path d="M 457.50 48.42 L 465.83 48.42 L 474.17 48.42 L 482.50 48.42 L 490.83 48.42 L 499.17 48.42 L 499.17 48.64 L 490.83 49.65 L 482.50 51.10 L 474.17 51.73 L 465.83 51.39 L 457.50 53.47 Z" fill="#d0d0d0" fill-opacity="0.5" stroke="none"/>
<path d="M 524.17 44.55 L 532.15 44.55 L 539.79 44.55 L 539.79 47.15 L 532.15 49.88 L 524.17 49.72 Z" fill="#d0d0d0" fill-opacity="0.5" stroke="none"/>
<path d="M 577.99 41.03 L 585.62 41.03 L 593.26 41.03 L 600.90 41.03 L 608.54 41.03 L 616.18 41.03 L 627.64 41.03 L 642.92 41.03 L 658.19 41.03 L 673.47 41.03 L 688.75 41.03 L 704.03 41.03 L 723.12 41.03 L 746.04 41.03 L 768.96 41.03 L 791.88 41.03 L 809.88 41.03 L 822.98 41.03 L 836.07 41.03 L 849.17 41.03 L 862.26 41.03 L 862.26 41.47 L 849.17 43.34 L 836.07 43.52 L 822.98 45.64 L 809.88 47.34 L 791.88 42.15 L 768.96 44.25 L 746.04 46.99 L 723.12 41.85 L 704.03 44.60 L 688.75 45.54 L 673.47 47.72 L 658.19 48.54 L 642.92 49.41 L 627.64 44.29 L 616.18 47.17 L 608.54 48.70 L 600.90 50.95 L 593.26 51.37 L 585.62 46.22 L 577.99 46.23 Z" fill="#d0d0d0" fill-opacity="0.5" stroke="none"/>
<path d="M 961.20 25.00 L 971.39 25.00 L 981.57 25.00 L 998.12 25.00 L 1021.04 25.00 L 1043.96 25.00 L 1066.88 25.00 L 1084.88 25.00 L 1097.98 25.00 L 1111.07 25.00 L 1124.17 25.00 L 1137.26 25.00 L 1150.36 25.00 L 1163.45 25.00 L 1163.45 39.97 L 1150.36 41.74 L 1137.26 36.51 L 1124.17 31.22 L 1111.07 32.70 L 1097.98 34.85 L 1084.88 29.57 L 1066.88 31.82 L 1043.96 30.20 L 1021.04 31.84 L 998.12 29.86 L 981.57 32.67 L 971.39 35.64 L 961.20 30.35 Z" fill="#d0d0d0" fill-opacity="0.5" stroke="none"/>
<polyline fill="none" stroke="#111" stroke-width="1.2" points="71.91,78.88 75.73,78.03 79.55,76.49 83.37,81.34 87.19,79.61 91.01,78.79 94.83,76.21 98.65,76.45 102.47,81.29 106.28,78.60 110.10,83.38 113.92,88.15 117.74,88.26 121.56,90.32 125.38,85.62 129.20,87.70 133.02,92.34 136.84,90.07 140.66,87.42 144.48,92.10 148.30,89.60 152.12,87.35 155.94,84.82 159.76,82.74 165.49,87.52 173.12,85.81 180.76,83.25 188.40,82.30 196.04,82.47 203.68,79.90 211.32,78.28 218.96,75.70 226.60,75.40 234.24,73.04 241.88,70.60 249.51,68.48 256.39,67.39 262.50,72.33 268.61,70.22 274.72,67.82 280.83,65.20 286.94,62.55 293.06,60.78 299.17,58.11 305.28,63.13 311.39,68.11 317.50,65.53 323.61,66.22 329.72,64.83 335.83,62.41 341.94,59.99 351.55,59.97 364.64,64.98 377.74,62.33 390.83,60.48 403.93,58.06 417.02,56.65 430.12,53.97 440.83,51.26 449.17,48.42 457.50,53.47 465.83,51.39 474.17,51.73 482.50,51.10 490.83,49.65 499.17,48.64 507.50,46.80 515.83,44.55 524.17,49.72 532.15,49.88 539.79,47.15 547.43,44.40 555.07,43.95 562.71,41.47 570.35,41.03 577.99,46.23 585.62,46.22 593.26,51.37 600.90,50.95 608.54,48.70 616.18,47.17 627.64,44.29 642.92,49.41 658.19,48.54 673.47,47.72 688.75,45.54 704.03,44.60 723.12,41.85 746.04,46.99 768.96,44.25 791.88,42.15 809.88,47.34 822.98,45.64 836.07,43.52 849.17,43.34 862.26,41.47 875.36,39.96 888.45,37.74 900.09,37.32 910.28,34.53 920.46,33.40 930.65,30.85 940.83,28.01 951.02,25.00 961.20,30.35 971.39,35.64 981.57,32.67 998.12,29.86 1021.04,31.84 1043.96,30.20 1066.88,31.82 1084.88,29.57 1097.98,34.85 1111.07,32.70 1124.17,31.22 1137.26,36.51 1150.36,41.74 1163.45,39.97"/>
<text x="620.0" y="588" text-anchor="middle" font-family="sans-serif" font-size="12" fill="#333">Monthly Balance Curve</text>
<text x="15" y="287.5" transform="rotate(-90 15,287.5)" text-anchor="middle" font-family="sans-serif" font-size="12" fill="#333">Capital</text>
</svg>