<svg xmlns="http://www.w3.org/2000/svg" width="1200" height="600" viewBox="0 0 1200 600">
<desc>Equity curve with drawdown fill; x-axis is months only (no exact timestamps)</desc>
<text x="600.0" y="18.0" text-anchor="middle" font-family="sans-serif" font-size="14">Balance Curve 2010 (UTC)</text>
<rect x="70" y="25" width="1100" height="525" fill="white" stroke="#ccc" />
<line x1="70" y1="550.00" x2="1170" y2="550.00" stroke="#eee"/>
<text x="62" y="554.0" text-anchor="end" font-family="sans-serif" font-size="11" fill="#555">0.00</text>
<line x1="70" y1="445.00" x2="1170" y2="445.00" stroke="#eee"/>
<text x="62" y="449.0" text-anchor="end" font-family="sans-serif" font-size="11" fill="#555">35391</text>
<line x1="70" y1="340.00" x2="1170" y2="340.00" stroke="#eee"/>
<text x="62" y="344.0" text-anchor="end" font-family="sans-serif" font-size="11" fill="#555">70781</text>
<line x1="70" y1="235.00" x2="1170" y2="235.00" stroke="#eee"/>
<text x="62" y="239.0" text-anchor="end" font-family="sans-serif" font-size="11" fill="#555">106172</text>
<line x1="70" y1="130.00" x2="1170" y2="130.00" stroke="#eee"/>
<text x="62" y="134.0" text-anchor="end" font-family="sans-serif" font-size="11" fill="#555">141563</text>
<line x1="70" y1="25.00" x2="1170" y2="25.00" stroke="#eee"/>
<text x="62" y="29.0" text-anchor="end" font-family="sans-serif" font-size="11" fill="#555">176953</text>
<line x1="161.67" y1="25" x2="161.67" y2="550" stroke="#f2f2f2"/>
<line x1="253.33" y1="25" x2="253.33" y2="550" stroke="#f2f2f2"/>
<line x1="345.00" y1="25" x2="345.00" y2="550" stroke="#f2f2f2"/>
<line x1="436.67" y1="25" x2="436.67" y2="550" stroke="#f2f2f2"/>
<line x1="528.33" y1="25" x2="528.33" y2="550" stroke="#f2f2f2"/>
<line x1="620.00" y1="25" x2="620.00" y2="550" stroke="#f2f2f2"/>
<line x1="711.67" y1="25" x2="711.67" y2="550" stroke="#f2f2f2"/>
<line x1="803.33" y1="25" x2="803.33" y2="550" stroke="#f2f2f2"/>
<line x1="895.00" y1="25" x2="895.00" y2="550" stroke="#f2f2f2"/>
<line x1="986.67" y1="25" x2="986.67" y2="550" stroke="#f2f2f2"/>
<line x1="1078.33" y1="25" x2="1078.33" y2="550" stroke="#f2f2f2"/>
<text x="115.83" y="566.00" text-anchor="middle" font-family="sans-serif" font-size="11" fill="#444">Jan</text>
<text x="207.50" y="566.00" text-anchor="middle" font-family="sans-serif" font-size="11" fill="#444">Feb</text>
<text x="299.17" y="566.00" text-anchor="middle" font-family="sans-serif" font-size="11" fill="#444">Mar</text>
<text x="390.83" y="566.00" text-anchor="middle" font-family="sans-serif" font-size="11" fill="#444">Apr</text>
<text x="482.50" y="566.00" text-anchor="middle" font-family="sans-serif" font-size="11" fill="#444">May</text>
<text x="574.17" y="566.00" text-anchor="middle" font-family="sans-serif" font-size="11" fill="#444">Jun</text>
<text x="665.83" y="566.00" text-anchor="middle" font-family="sans-serif" font-size="11" fill="#444">Jul</text>
<text x="757.50" y="566.00" text-anchor="middle" font-family="sans-serif" font-size="11" fill="#444">Aug</text>
<text x="849.17" y="566.00" text-anchor="middle" font-family="sans-serif" font-size="11" fill="#444">Sep</text>
<text x="940.83" y="566.00" text-anchor="middle" font-family="sans-serif" font-size="11" fill="#444">Oct</text>
<text x="1032.50" y="566.00" text-anchor="middle" font-family="sans-serif" font-size="11" fill="#444">Nov</text>
<text x="1124.17" y="566.00" text-anchor="middle" font-family="sans-serif" font-size="11" fill="#444">Dec</text>
<line x1="70" y1="550" x2="1170" y2="550" stroke="#888"/>
<line x1="70" y1="25" x2="70" y2="550" stroke="#888"/>
<line x1="75.09" y1="550.00" x2="75.09" y2="556.00" stroke="#888"/>
<line x1="1167.30"   y1="550.00" x2="1167.30"   y2="556.00" stroke="#888"/>
<text x="75.09" y="582.00" text-anchor="start" font-family="sans-serif" font-size="11" fill="#333">Initial Balance: 136534</text>
<text x="1167.30"   y="582.00" text-anchor="end"   font-family="sans-serif" font-size="11" fill="#333">Ending Balance: 176953</text>
<path d="M 115.83 139.19 L 115.83 139.49 Z" fill="#d0d0d0" fill-opacity="0.5" stroke="none"/>
<path d="M 207.50 128.59 L 225.83 128.59 L 244.17 128.59 L 244.17 129.21 L 225.83 130.80 L 207.50 132.86 Z" fill="#d0d0d0" fill-opacity="0.5" stroke="none"/>
<path d="M 306.81 122.98 L 306.81 123.81 Z" fill="#d0d0d0" fill-opacity="0.5" stroke="none"/>
<path d="M 398.47 116.50 L 413.75 116.50 L 429.03 116.50 L 437.60 116.50 L 439.47 116.50 L 441.34 116.50 L 443.21 116.50 L 445.09 116.50 L 446.96 116.50 L 448.83 116.50 L 450.70 116.50 L 452.57 116.50 L 452.57 117.54 L 450.70 119.89 L 448.83 122.18 L 446.96 124.27 L 445.09 126.24 L 443.21 128.30 L 441.34 130.31 L 439.47 132.02 L 437.60 127.73 L 429.03 123.41 L 413.75 119.04 L 398.47 120.89 Z" fill="#d0d0d0" fill-opacity="0.5" stroke="none"/>
<path d="M 471.28 102.61 L 473.15 102.61 L 475.02 102.61 L 476.89 102.61 L 476.89 102.80 L 475.02 104.81 L 473.15 105.96 L 471.28 107.13 Z" fill="#d0d0d0" fill-opacity="0.5" stroke="none"/>
<path d="M 482.50 98.88 L 484.37 98.88 L 486.24 98.88 L 488.11 98.88 L 489.98 98.88 L 491.85 98.88 L 493.72 98.88 L 495.60 98.03 L 497.47 98.03 L 497.47 107.05 L 495.60 102.50 L 493.72 100.63 L 491.85 101.42 L 489.98 103.76 L 488.11 99.20 L 486.24 100.48 L 484.37 101.13 L 482.50 103.44 Z" fill="#d0d0d0" fill-opacity="0.5" stroke="none"/>
<path d="M 501.21 98.03 L 503.08 98.03 L 504.95 98.03 L 506.82 98.03 L 508.69 98.03 L 510.56 98.03 L 510.56 98.13 L 508.69 100.03 L 506.82 101.55 L 504.95 103.65 L 503.08 105.13 L 501.21 105.24 Z" fill="#d0d0d0" fill-opacity="0.5" stroke="none"/>
<path d="M 518.04 95.28 L 518.04 95.35 Z" fill="#d0d0d0" fill-opacity="0.5" stroke="none"/>
<path d="M 563.38 74.63 L 568.77 74.63 L 574.17 74.63 L 579.56 74.63 L 584.95 74.63 L 590.34 74.63 L 595.74 74.63 L 595.74 76.15 L 590.34 78.21 L 584.95 77.20 L 579.56 75.74 L 574.17 76.04 L 568.77 77.36 L 563.38 79.42 Z" fill="#d0d0d0" fill-opacity="0.5" stroke="none"/>
<path d="M 665.83 61.26 L 665.83 61.28 Z" fill="#d0d0d0" fill-opacity="0.5" stroke="none"/>
<path d="M 706.57 56.69 L 719.31 56.69 L 734.58 56.69 L 749.86 56.69 L 765.14 56.69 L 780.42 56.69 L 795.69 56.69 L 812.50 56.69 L 830.83 56.69 L 849.17 56.69 L 867.50 56.69 L 885.83 56.69 L 897.86 56.69 L 903.59 56.69 L 909.32 56.69 L 915.05 56.69 L 920.78 56.69 L 920.78 59.30 L 915.05 61.87 L 909.32 56.95 L 903.59 59.57 L 897.86 60.62 L 885.83 62.65 L 867.50 63.55 L 849.17 64.99 L 830.83 65.89 L 812.50 65.37 L 795.69 63.77 L 780.42 66.10 L 765.14 67.73 L 749.86 69.23 L 734.58 67.40 L 719.31 62.56 L 706.57 57.64 Z" fill="#d0d0d0" fill-opacity="0.5" stroke="none"/>
<path d="M 932.24 56.66 L 932.24 57.98 Z" fill="#d0d0d0" fill-opacity="0.5" stroke="none"/>
<path d="M 1016.13 36.49 L 1022.68 36.49 L 1029.23 36.49 L 1035.77 36.49 L 1042.32 36.49 L 1048.87 36.49 L 1055.42 36.49 L 1061.96 36.49 L 1068.51 36.49 L 1075.06 36.49 L 1081.03 36.49 L 1086.42 36.49 L 1091.81 36.49 L 1097.21 36.49 L 1102.60 36.49 L 1102.60 37.05 L 1097.21 38.36 L 1091.81 40.48 L 1086.42 42.54 L 1081.03 37.49 L 1075.06 40.34 L 1068.51 42.75 L 1061.96 44.20 L 1055.42 46.33 L 1048.87 41.27 L 1042.32 43.04 L 1035.77 37.96 L 1029.23 39.93 L 1022.68 41.16 L 1016.13 41.58 Z" fill="#d0d0d0" fill-opacity="0.5" stroke="none"/>
<path d="M 1129.56 30.29 L 1134.95 30.29 L 1140.34 30.29 L 1140.34 31.35 L 1134.95 31.15 L 1129.56 31.62 Z" fill="#d0d0d0" fill-opacity="0.5" stroke="none"/>
<path d="M 1151.13 28.62 L 1151.13 30.68 Z" fill="#d0d0d0" fill-opacity="0.5" stroke="none"/>
<polyline fill="none" stroke="#111" stroke-width="1.2" points="75.09,144.92 85.28,142.72 95.46,140.50 105.65,139.19 115.83,139.49 126.02,138.39 136.20,136.92 146.39,134.82 156.57,132.55 170.83,130.86 189.17,128.59 207.50,132.86 225.83,130.80 244.17,129.21 260.97,126.93 276.25,124.71 291.53,122.98 306.81,123.81 322.08,122.11 337.36,120.48 352.64,119.12 367.92,117.83 383.19,116.50 398.47,120.89 413.75,119.04 429.03,123.41 437.60,127.73 439.47,132.02 441.34,130.31 443.21,128.30 445.09,126.24 446.96,124.27 448.83,122.18 450.70,119.89 452.57,117.54 454.44,115.20 456.31,114.37 458.18,112.17 460.05,111.45 461.92,109.20 463.79,107.49 465.66,106.11 467.53,104.38 469.40,102.61 471.28,107.13 473.15,105.96 475.02,104.81 476.89,102.80 478.76,100.92 480.63,98.88 482.50,103.44 484.37,101.13 486.24,100.48 488.11,99.20 489.98,103.76 491.85,101.42 493.72,100.63 495.60,102.50 497.47,107.05 499.34,98.03 501.21,105.24 503.08,105.13 504.95,103.65 506.82,101.55 508.69,100.03 510.56,98.13 512.43,96.87 514.30,96.61 516.17,95.28 518.04,95.35 519.91,93.12 521.79,90.92 523.66,89.54 525.53,88.31 527.40,86.10 531.03,84.70 536.42,82.23 541.81,80.31 547.21,78.57 552.60,76.30 557.99,74.63 563.38,79.42 568.77,77.36 574.17,76.04 579.56,75.74 584.95,77.20 590.34,78.21 595.74,76.15 601.13,74.08 606.52,71.55 611.91,70.06 617.30,67.53 625.09,64.97 635.28,63.29 645.46,62.41 655.65,61.26 665.83,61.28 676.02,60.58 686.20,58.49 696.39,56.69 706.57,57.64 719.31,62.56 734.58,67.40 749.86,69.23 765.14,67.73 780.42,66.10 795.69,63.77 812.50,65.37 830.83,65.89 849.17,64.99 867.50,63.55 885.83,62.65 897.86,60.62 903.59,59.57 909.32,56.95 915.05,61.87 920.78,59.30 926.51,56.66 932.24,57.98 937.97,55.34 943.70,55.23 949.43,53.35 955.16,51.70 960.89,49.72 966.61,48.96 972.34,48.13 978.07,45.95 983.80,45.14 989.94,42.44 996.49,41.53 1003.04,38.65 1009.58,36.49 1016.13,41.58 1022.68,41.16 1029.23,39.93 1035.77,37.96 1042.32,43.04 1048.87,41.27 1055.42,46.33 1061.96,44.20 1068.51,42.75 1075.06,40.34 1081.03,37.49 1086.42,42.54 1091.81,40.48 1097.21,38.36 1102.60,37.05 1107.99,35.17 1113.38,35.02 1118.77,32.57 1124.17,30.29 1129.56,31.62 1134.95,31.15 1140.34,31.35 1145.74,28.62 1151.13,30.68 1156.52,28.36 1161.91,26.96 1167.30,25.00"/>
<text x="15" y="287.5" transform="rotate(-90 15,287.5)" text-anchor="middle" font-family="sans-serif" font-size="12" fill="#333">USD</text>
</svg>