<svg xmlns="http://www.w3.org/2000/svg" width="1200" height="600" viewBox="0 0 1200 600">
<desc>Equity curve with drawdown fill; x-axis is months only (no exact timestamps)</desc>
<text x="600.0" y="18.0" text-anchor="middle" font-family="sans-serif" font-size="14">Balance Curve 2020 (UTC)</text>
<rect x="70" y="25" width="1100" height="525" fill="white" stroke="#ccc" />
<line x1="70" y1="550.00" x2="1170" y2="550.00" stroke="#eee"/>
<text x="62" y="554.0" text-anchor="end" font-family="sans-serif" font-size="11" fill="#555">0.00</text>
<line x1="70" y1="445.00" x2="1170" y2="445.00" stroke="#eee"/>
<text x="62" y="449.0" text-anchor="end" font-family="sans-serif" font-size="11" fill="#555">60824</text>
<line x1="70" y1="340.00" x2="1170" y2="340.00" stroke="#eee"/>
<text x="62" y="344.0" text-anchor="end" font-family="sans-serif" font-size="11" fill="#555">121648</text>
<line x1="70" y1="235.00" x2="1170" y2="235.00" stroke="#eee"/>
<text x="62" y="239.0" text-anchor="end" font-family="sans-serif" font-size="11" fill="#555">182472</text>
<line x1="70" y1="130.00" x2="1170" y2="130.00" stroke="#eee"/>
<text x="62" y="134.0" text-anchor="end" font-family="sans-serif" font-size="11" fill="#555">243295</text>
<line x1="70" y1="25.00" x2="1170" y2="25.00" stroke="#eee"/>
<text x="62" y="29.0" text-anchor="end" font-family="sans-serif" font-size="11" fill="#555">304119</text>
<line x1="180.00" y1="25" x2="180.00" y2="550" stroke="#f2f2f2"/>
<line x1="290.00" y1="25" x2="290.00" y2="550" stroke="#f2f2f2"/>
<line x1="400.00" y1="25" x2="400.00" y2="550" stroke="#f2f2f2"/>
<line x1="510.00" y1="25" x2="510.00" y2="550" stroke="#f2f2f2"/>
<line x1="620.00" y1="25" x2="620.00" y2="550" stroke="#f2f2f2"/>
<line x1="730.00" y1="25" x2="730.00" y2="550" stroke="#f2f2f2"/>
<line x1="840.00" y1="25" x2="840.00" y2="550" stroke="#f2f2f2"/>
<line x1="950.00" y1="25" x2="950.00" y2="550" stroke="#f2f2f2"/>
<line x1="1060.00" y1="25" x2="1060.00" y2="550" stroke="#f2f2f2"/>
<text x="125.00" y="566.00" text-anchor="middle" font-family="sans-serif" font-size="11" fill="#444">Jan</text>
<text x="235.00" y="566.00" text-anchor="middle" font-family="sans-serif" font-size="11" fill="#444">Mar</text>
<text x="345.00" y="566.00" text-anchor="middle" font-family="sans-serif" font-size="11" fill="#444">Apr</text>
<text x="455.00" y="566.00" text-anchor="middle" font-family="sans-serif" font-size="11" fill="#444">May</text>
<text x="565.00" y="566.00" text-anchor="middle" font-family="sans-serif" font-size="11" fill="#444">Jun</text>
<text x="675.00" y="566.00" text-anchor="middle" font-family="sans-serif" font-size="11" fill="#444">Jul</text>
<text x="785.00" y="566.00" text-anchor="middle" font-family="sans-serif" font-size="11" fill="#444">Aug</text>
<text x="895.00" y="566.00" text-anchor="middle" font-family="sans-serif" font-size="11" fill="#444">Sep</text>
<text x="1005.00" y="566.00" text-anchor="middle" font-family="sans-serif" font-size="11" fill="#444">Nov</text>
<text x="1115.00" y="566.00" text-anchor="middle" font-family="sans-serif" font-size="11" fill="#444">Dec</text>
<line x1="70" y1="550" x2="1170" y2="550" stroke="#888"/>
<line x1="70" y1="25" x2="70" y2="550" stroke="#888"/>
<line x1="125.00" y1="550.00" x2="125.00" y2="556.00" stroke="#888"/>
<line x1="1115.00"   y1="550.00" x2="1115.00"   y2="556.00" stroke="#888"/>
<text x="125.00" y="582.00" text-anchor="start" font-family="sans-serif" font-size="11" fill="#333">Initial Balance: 271825</text>
<text x="1115.00"   y="582.00" text-anchor="end"   font-family="sans-serif" font-size="11" fill="#333">Ending Balance: 304119</text>
<path d="M 188.19 74.09 L 190.53 74.09 L 190.53 76.16 L 188.19 78.91 Z" fill="#d0d0d0" fill-opacity="0.5" stroke="none"/>
<path d="M 206.91 63.92 L 206.91 64.80 Z" fill="#d0d0d0" fill-opacity="0.5" stroke="none"/>
<path d="M 225.64 51.74 L 225.64 52.23 Z" fill="#d0d0d0" fill-opacity="0.5" stroke="none"/>
<path d="M 230.32 50.54 L 232.66 50.54 L 235.00 50.54 L 235.00 50.92 L 232.66 53.29 L 230.32 55.65 Z" fill="#d0d0d0" fill-opacity="0.5" stroke="none"/>
<path d="M 239.68 48.52 L 242.02 48.52 L 244.36 48.52 L 246.70 48.52 L 249.04 48.52 L 251.38 48.52 L 253.72 48.52 L 256.06 48.52 L 258.40 48.52 L 260.74 48.52 L 263.09 48.52 L 265.43 48.52 L 267.77 48.52 L 270.11 48.52 L 272.45 48.52 L 274.79 48.52 L 277.13 48.52 L 279.47 48.52 L 281.81 48.52 L 284.15 48.52 L 286.49 48.52 L 288.83 48.52 L 308.33 48.52 L 345.00 48.52 L 345.00 49.25 L 308.33 50.72 L 288.83 51.26 L 286.49 53.20 L 284.15 55.52 L 281.81 56.81 L 279.47 58.56 L 277.13 60.53 L 274.79 62.56 L 272.45 63.33 L 270.11 65.29 L 267.77 67.19 L 265.43 69.70 L 263.09 64.71 L 260.74 59.68 L 258.40 60.70 L 256.06 55.68 L 253.72 56.92 L 251.38 59.20 L 249.04 54.12 L 246.70 56.64 L 244.36 51.53 L 242.02 54.07 L 239.68 53.66 Z" fill="#d0d0d0" fill-opacity="0.5" stroke="none"/>
<path d="M 565.00 40.93 L 565.00 41.88 Z" fill="#d0d0d0" fill-opacity="0.5" stroke="none"/>
<path d="M 1005.00 26.55 L 1005.00 27.10 Z" fill="#d0d0d0" fill-opacity="0.5" stroke="none"/>
<polyline fill="none" stroke="#111" stroke-width="1.2" points="125.00,80.75 181.17,78.63 183.51,76.72 185.85,74.09 188.19,78.91 190.53,76.16 192.87,73.93 195.21,72.48 197.55,70.01 199.89,68.43 202.23,66.42 204.57,63.92 206.91,64.80 209.26,63.51 211.60,61.00 213.94,60.51 216.28,58.36 218.62,55.83 220.96,53.28 223.30,51.74 225.64,52.23 227.98,50.54 230.32,55.65 232.66,53.29 235.00,50.92 237.34,48.52 239.68,53.66 242.02,54.07 244.36,51.53 246.70,56.64 249.04,54.12 251.38,59.20 253.72,56.92 256.06,55.68 258.40,60.70 260.74,59.68 263.09,64.71 265.43,69.70 267.77,67.19 270.11,65.29 272.45,63.33 274.79,62.56 277.13,60.53 279.47,58.56 281.81,56.81 284.15,55.52 286.49,53.20 288.83,51.26 308.33,50.72 345.00,49.25 381.67,48.15 427.50,45.89 482.50,43.55 528.33,40.93 565.00,41.88 601.67,39.95 647.50,38.72 702.50,37.01 757.50,35.50 812.50,33.94 867.50,31.48 922.50,29.08 968.33,26.55 1005.00,27.10 1041.67,25.33 1115.00,25.00"/>
<text x="15" y="287.5" transform="rotate(-90 15,287.5)" text-anchor="middle" font-family="sans-serif" font-size="12" fill="#333">USD</text>
</svg>