<svg xmlns="http://www.w3.org/2000/svg" width="1200" height="600" viewBox="0 0 1200 600">
<desc>Equity curve with drawdown fill; x-axis is months only (no exact timestamps)</desc>
<text x="600.0" y="18.0" text-anchor="middle" font-family="sans-serif" font-size="14">Portfolio 2015 (UTC)</text>
<rect x="70" y="25" width="1100" height="525" fill="white" stroke="#ccc" />
<line x1="70" y1="550.00" x2="1170" y2="550.00" stroke="#eee"/>
<text x="62" y="554.0" text-anchor="end" font-family="sans-serif" font-size="11" fill="#555">0.00</text>
<line x1="70" y1="445.00" x2="1170" y2="445.00" stroke="#eee"/>
<text x="62" y="449.0" text-anchor="end" font-family="sans-serif" font-size="11" fill="#555">110926</text>
<line x1="70" y1="340.00" x2="1170" y2="340.00" stroke="#eee"/>
<text x="62" y="344.0" text-anchor="end" font-family="sans-serif" font-size="11" fill="#555">221852</text>
<line x1="70" y1="235.00" x2="1170" y2="235.00" stroke="#eee"/>
<text x="62" y="239.0" text-anchor="end" font-family="sans-serif" font-size="11" fill="#555">332777</text>
<line x1="70" y1="130.00" x2="1170" y2="130.00" stroke="#eee"/>
<text x="62" y="134.0" text-anchor="end" font-family="sans-serif" font-size="11" fill="#555">443703</text>
<line x1="70" y1="25.00" x2="1170" y2="25.00" stroke="#eee"/>
<text x="62" y="29.0" text-anchor="end" font-family="sans-serif" font-size="11" fill="#555">554629</text>
<line x1="161.67" y1="25" x2="161.67" y2="550" stroke="#f2f2f2"/>
<line x1="253.33" y1="25" x2="253.33" y2="550" stroke="#f2f2f2"/>
<line x1="345.00" y1="25" x2="345.00" y2="550" stroke="#f2f2f2"/>
<line x1="436.67" y1="25" x2="436.67" y2="550" stroke="#f2f2f2"/>
<line x1="528.33" y1="25" x2="528.33" y2="550" stroke="#f2f2f2"/>
<line x1="620.00" y1="25" x2="620.00" y2="550" stroke="#f2f2f2"/>
<line x1="711.67" y1="25" x2="711.67" y2="550" stroke="#f2f2f2"/>
<line x1="803.33" y1="25" x2="803.33" y2="550" stroke="#f2f2f2"/>
<line x1="895.00" y1="25" x2="895.00" y2="550" stroke="#f2f2f2"/>
<line x1="986.67" y1="25" x2="986.67" y2="550" stroke="#f2f2f2"/>
<line x1="1078.33" y1="25" x2="1078.33" y2="550" stroke="#f2f2f2"/>
<text x="115.83" y="566.00" text-anchor="middle" font-family="sans-serif" font-size="11" fill="#444">Jan</text>
<text x="207.50" y="566.00" text-anchor="middle" font-family="sans-serif" font-size="11" fill="#444">Feb</text>
<text x="299.17" y="566.00" text-anchor="middle" font-family="sans-serif" font-size="11" fill="#444">Mar</text>
<text x="390.83" y="566.00" text-anchor="middle" font-family="sans-serif" font-size="11" fill="#444">Apr</text>
<text x="482.50" y="566.00" text-anchor="middle" font-family="sans-serif" font-size="11" fill="#444">May</text>
<text x="574.17" y="566.00" text-anchor="middle" font-family="sans-serif" font-size="11" fill="#444">Jun</text>
<text x="665.83" y="566.00" text-anchor="middle" font-family="sans-serif" font-size="11" fill="#444">Jul</text>
<text x="757.50" y="566.00" text-anchor="middle" font-family="sans-serif" font-size="11" fill="#444">Aug</text>
<text x="849.17" y="566.00" text-anchor="middle" font-family="sans-serif" font-size="11" fill="#444">Sep</text>
<text x="940.83" y="566.00" text-anchor="middle" font-family="sans-serif" font-size="11" fill="#444">Oct</text>
<text x="1032.50" y="566.00" text-anchor="middle" font-family="sans-serif" font-size="11" fill="#444">Nov</text>
<text x="1124.17" y="566.00" text-anchor="middle" font-family="sans-serif" font-size="11" fill="#444">Dec</text>
<line x1="70" y1="550" x2="1170" y2="550" stroke="#888"/>
<line x1="70" y1="25" x2="70" y2="550" stroke="#888"/>
<line x1="77.64" y1="550.00" x2="77.64" y2="556.00" stroke="#888"/>
<line x1="1158.54"   y1="550.00" x2="1158.54"   y2="556.00" stroke="#888"/>
<text x="77.64" y="582.00" text-anchor="start" font-family="sans-serif" font-size="11" fill="#333">Initial Balance: 403770</text>
<text x="1158.54"   y="582.00" text-anchor="end"   font-family="sans-serif" font-size="11" fill="#333">Ending Balance: 550469</text>
<path d="M 165.83 155.03 L 174.17 155.03 L 182.50 155.03 L 182.50 157.01 L 174.17 159.95 L 165.83 161.05 Z" fill="#d0d0d0" fill-opacity="0.5" stroke="none"/>
<path d="M 255.33 139.97 L 255.33 141.08 Z" fill="#d0d0d0" fill-opacity="0.5" stroke="none"/>
<path d="M 263.30 139.95 L 267.28 139.95 L 267.28 142.90 L 263.30 146.19 Z" fill="#d0d0d0" fill-opacity="0.5" stroke="none"/>
<path d="M 279.24 137.60 L 283.22 137.60 L 287.21 137.60 L 287.21 140.65 L 283.22 141.09 L 279.24 143.88 Z" fill="#d0d0d0" fill-opacity="0.5" stroke="none"/>
<path d="M 311.12 125.62 L 315.11 125.62 L 319.09 125.62 L 319.09 126.53 L 315.11 128.90 L 311.12 132.06 Z" fill="#d0d0d0" fill-opacity="0.5" stroke="none"/>
<path d="M 361.89 99.13 L 366.71 99.13 L 371.54 99.13 L 371.54 100.85 L 366.71 102.42 L 361.89 105.94 Z" fill="#d0d0d0" fill-opacity="0.5" stroke="none"/>
<path d="M 381.18 97.22 L 386.01 97.22 L 390.83 97.22 L 395.66 97.22 L 400.48 97.22 L 405.31 97.22 L 410.13 97.22 L 414.96 97.22 L 419.78 97.22 L 424.61 97.22 L 429.43 97.22 L 434.25 97.22 L 439.72 97.22 L 445.83 97.22 L 451.94 97.22 L 458.06 97.22 L 464.17 97.22 L 470.28 97.22 L 470.28 99.44 L 464.17 103.07 L 458.06 106.22 L 451.94 99.42 L 445.83 101.37 L 439.72 104.99 L 434.25 106.56 L 429.43 109.77 L 424.61 103.07 L 419.78 106.84 L 414.96 108.43 L 410.13 101.66 L 405.31 103.69 L 400.48 106.29 L 395.66 105.91 L 390.83 109.15 L 386.01 102.39 L 381.18 104.05 Z" fill="#d0d0d0" fill-opacity="0.5" stroke="none"/>
<path d="M 494.72 90.56 L 500.83 90.56 L 506.94 90.56 L 513.06 90.56 L 519.17 90.56 L 525.28 90.56 L 530.62 90.56 L 535.21 90.56 L 539.79 90.56 L 544.38 90.56 L 548.96 90.56 L 548.96 90.90 L 544.38 94.30 L 539.79 97.97 L 535.21 91.06 L 530.62 93.97 L 525.28 97.64 L 519.17 100.30 L 513.06 103.60 L 506.94 102.61 L 500.83 104.30 L 494.72 97.48 Z" fill="#d0d0d0" fill-opacity="0.5" stroke="none"/>
<path d="M 594.79 63.46 L 599.38 63.46 L 603.96 63.46 L 608.54 63.46 L 613.12 63.46 L 617.71 63.46 L 625.09 63.46 L 635.28 63.46 L 645.46 63.46 L 645.46 64.68 L 635.28 66.82 L 625.09 70.64 L 617.71 74.22 L 613.12 78.26 L 608.54 71.18 L 603.96 75.19 L 599.38 77.88 L 594.79 70.71 Z" fill="#d0d0d0" fill-opacity="0.5" stroke="none"/>
<path d="M 665.83 61.18 L 665.83 61.80 Z" fill="#d0d0d0" fill-opacity="0.5" stroke="none"/>
<path d="M 696.39 54.14 L 706.57 54.14 L 714.08 54.14 L 718.90 54.14 L 723.73 54.14 L 728.55 54.14 L 733.38 54.14 L 738.20 54.14 L 743.03 54.14 L 747.85 54.14 L 752.68 54.14 L 757.50 54.14 L 757.50 55.83 L 752.68 59.61 L 747.85 63.22 L 743.03 63.85 L 738.20 64.96 L 733.38 57.63 L 728.55 56.86 L 723.73 60.77 L 718.90 64.87 L 714.08 57.53 L 706.57 61.44 L 696.39 61.42 Z" fill="#d0d0d0" fill-opacity="0.5" stroke="none"/>
<path d="M 771.97 50.20 L 776.80 50.20 L 781.62 50.20 L 786.45 50.20 L 791.27 50.20 L 791.27 53.20 L 786.45 54.05 L 781.62 58.24 L 776.80 54.17 L 771.97 57.62 Z" fill="#d0d0d0" fill-opacity="0.5" stroke="none"/>
<path d="M 860.62 41.27 L 883.54 41.27 L 901.55 41.27 L 914.64 41.27 L 927.74 41.27 L 927.74 43.37 L 914.64 42.40 L 901.55 43.56 L 883.54 44.14 L 860.62 42.99 Z" fill="#d0d0d0" fill-opacity="0.5" stroke="none"/>
<path d="M 967.02 35.41 L 967.02 37.77 Z" fill="#d0d0d0" fill-opacity="0.5" stroke="none"/>
<path d="M 1112.71 25.00 L 1135.62 25.00 L 1158.54 25.00 L 1158.54 28.94 L 1135.62 30.24 L 1112.71 32.72 Z" fill="#d0d0d0" fill-opacity="0.5" stroke="none"/>
<polyline fill="none" stroke="#111" stroke-width="1.2" points="77.64,167.80 92.92,164.64 108.19,163.93 123.47,160.84 138.75,157.98 154.03,155.03 165.83,161.05 174.17,159.95 182.50,157.01 190.83,154.52 199.17,153.09 207.50,152.07 215.83,148.98 224.17,147.25 232.50,144.69 240.83,143.51 249.17,139.97 255.33,141.08 259.31,139.95 263.30,146.19 267.28,142.90 271.27,139.68 275.25,137.60 279.24,143.88 283.22,141.09 287.21,140.65 291.20,137.31 295.18,134.16 299.17,131.56 303.15,128.91 307.14,125.62 311.12,132.06 315.11,128.90 319.09,126.53 323.08,123.08 327.07,119.60 331.05,116.48 335.04,114.32 339.02,110.78 343.01,107.27 347.41,104.46 352.24,101.14 357.06,99.13 361.89,105.94 366.71,102.42 371.54,100.85 376.36,97.22 381.18,104.05 386.01,102.39 390.83,109.15 395.66,105.91 400.48,106.29 405.31,103.69 410.13,101.66 414.96,108.43 419.78,106.84 424.61,103.07 429.43,109.77 434.25,106.56 439.72,104.99 445.83,101.37 451.94,99.42 458.06,106.22 464.17,103.07 470.28,99.44 476.39,95.77 482.50,93.04 488.61,90.56 494.72,97.48 500.83,104.30 506.94,102.61 513.06,103.60 519.17,100.30 525.28,97.64 530.62,93.97 535.21,91.06 539.79,97.97 544.38,94.30 548.96,90.90 553.54,87.18 558.12,86.94 562.71,83.19 567.29,80.59 571.88,77.59 576.46,73.78 581.04,69.94 585.62,67.34 590.21,63.46 594.79,70.71 599.38,77.88 603.96,75.19 608.54,71.18 613.12,78.26 617.71,74.22 625.09,70.64 635.28,66.82 645.46,64.68 655.65,61.18 665.83,61.80 676.02,58.26 686.20,54.14 696.39,61.42 706.57,61.44 714.08,57.53 718.90,64.87 723.73,60.77 728.55,56.86 733.38,57.63 738.20,64.96 743.03,63.85 747.85,63.22 752.68,59.61 757.50,55.83 762.32,51.83 767.15,50.20 771.97,57.62 776.80,54.17 781.62,58.24 786.45,54.05 791.27,53.20 796.10,49.23 800.92,46.25 814.79,45.29 837.71,41.27 860.62,42.99 883.54,44.14 901.55,43.56 914.64,42.40 927.74,43.37 940.83,39.33 953.93,35.41 967.02,37.77 980.12,33.71 1009.58,29.64 1055.42,28.33 1089.79,25.00 1112.71,32.72 1135.62,30.24 1158.54,28.94"/>
<text x="620.0" y="588" text-anchor="middle" font-family="sans-serif" font-size="12" fill="#333">Monthly Balance Curve</text>
<text x="15" y="287.5" transform="rotate(-90 15,287.5)" text-anchor="middle" font-family="sans-serif" font-size="12" fill="#333">Capital</text>
</svg>