<svg xmlns="http://www.w3.org/2000/svg" width="1200" height="600" viewBox="0 0 1200 600">
<desc>Equity curve with drawdown fill; x-axis is months only (no exact timestamps)</desc>
<text x="600.0" y="18.0" text-anchor="middle" font-family="sans-serif" font-size="14">Balance Curve 2012 (UTC)</text>
<rect x="70" y="25" width="1100" height="525" fill="white" stroke="#ccc" />
<line x1="70" y1="550.00" x2="1170" y2="550.00" stroke="#eee"/>
<text x="62" y="554.0" text-anchor="end" font-family="sans-serif" font-size="11" fill="#555">0.00</text>
<line x1="70" y1="445.00" x2="1170" y2="445.00" stroke="#eee"/>
<text x="62" y="449.0" text-anchor="end" font-family="sans-serif" font-size="11" fill="#555">66983</text>
<line x1="70" y1="340.00" x2="1170" y2="340.00" stroke="#eee"/>
<text x="62" y="344.0" text-anchor="end" font-family="sans-serif" font-size="11" fill="#555">133967</text>
<line x1="70" y1="235.00" x2="1170" y2="235.00" stroke="#eee"/>
<text x="62" y="239.0" text-anchor="end" font-family="sans-serif" font-size="11" fill="#555">200950</text>
<line x1="70" y1="130.00" x2="1170" y2="130.00" stroke="#eee"/>
<text x="62" y="134.0" text-anchor="end" font-family="sans-serif" font-size="11" fill="#555">267934</text>
<line x1="70" y1="25.00" x2="1170" y2="25.00" stroke="#eee"/>
<text x="62" y="29.0" text-anchor="end" font-family="sans-serif" font-size="11" fill="#555">334917</text>
<line x1="161.67" y1="25" x2="161.67" y2="550" stroke="#f2f2f2"/>
<line x1="253.33" y1="25" x2="253.33" y2="550" stroke="#f2f2f2"/>
<line x1="345.00" y1="25" x2="345.00" y2="550" stroke="#f2f2f2"/>
<line x1="436.67" y1="25" x2="436.67" y2="550" stroke="#f2f2f2"/>
<line x1="528.33" y1="25" x2="528.33" y2="550" stroke="#f2f2f2"/>
<line x1="620.00" y1="25" x2="620.00" y2="550" stroke="#f2f2f2"/>
<line x1="711.67" y1="25" x2="711.67" y2="550" stroke="#f2f2f2"/>
<line x1="803.33" y1="25" x2="803.33" y2="550" stroke="#f2f2f2"/>
<line x1="895.00" y1="25" x2="895.00" y2="550" stroke="#f2f2f2"/>
<line x1="986.67" y1="25" x2="986.67" y2="550" stroke="#f2f2f2"/>
<line x1="1078.33" y1="25" x2="1078.33" y2="550" stroke="#f2f2f2"/>
<text x="115.83" y="566.00" text-anchor="middle" font-family="sans-serif" font-size="11" fill="#444">Jan</text>
<text x="207.50" y="566.00" text-anchor="middle" font-family="sans-serif" font-size="11" fill="#444">Feb</text>
<text x="299.17" y="566.00" text-anchor="middle" font-family="sans-serif" font-size="11" fill="#444">Mar</text>
<text x="390.83" y="566.00" text-anchor="middle" font-family="sans-serif" font-size="11" fill="#444">Apr</text>
<text x="482.50" y="566.00" text-anchor="middle" font-family="sans-serif" font-size="11" fill="#444">May</text>
<text x="574.17" y="566.00" text-anchor="middle" font-family="sans-serif" font-size="11" fill="#444">Jun</text>
<text x="665.83" y="566.00" text-anchor="middle" font-family="sans-serif" font-size="11" fill="#444">Jul</text>
<text x="757.50" y="566.00" text-anchor="middle" font-family="sans-serif" font-size="11" fill="#444">Aug</text>
<text x="849.17" y="566.00" text-anchor="middle" font-family="sans-serif" font-size="11" fill="#444">Sep</text>
<text x="940.83" y="566.00" text-anchor="middle" font-family="sans-serif" font-size="11" fill="#444">Oct</text>
<text x="1032.50" y="566.00" text-anchor="middle" font-family="sans-serif" font-size="11" fill="#444">Nov</text>
<text x="1124.17" y="566.00" text-anchor="middle" font-family="sans-serif" font-size="11" fill="#444">Dec</text>
<line x1="70" y1="550" x2="1170" y2="550" stroke="#888"/>
<line x1="70" y1="25" x2="70" y2="550" stroke="#888"/>
<line x1="75.73" y1="550.00" x2="75.73" y2="556.00" stroke="#888"/>
<line x1="1124.17"   y1="550.00" x2="1124.17"   y2="556.00" stroke="#888"/>
<text x="75.73" y="582.00" text-anchor="start" font-family="sans-serif" font-size="11" fill="#333">Initial Balance: 323117</text>
<text x="1124.17"   y="582.00" text-anchor="end"   font-family="sans-serif" font-size="11" fill="#333">Ending Balance: 321829</text>
<path d="M 121.56 35.23 L 133.02 35.23 L 144.48 35.23 L 155.94 35.23 L 166.76 35.23 L 176.94 35.23 L 187.13 35.23 L 187.13 35.73 L 176.94 38.66 L 166.76 42.39 L 155.94 43.05 L 144.48 46.78 L 133.02 39.00 L 121.56 43.08 Z" fill="#d0d0d0" fill-opacity="0.5" stroke="none"/>
<path d="M 207.50 32.18 L 207.50 33.26 Z" fill="#d0d0d0" fill-opacity="0.5" stroke="none"/>
<path d="M 238.06 25.00 L 248.24 25.00 L 268.61 25.00 L 299.17 25.00 L 329.72 25.00 L 356.46 25.00 L 379.38 25.00 L 402.29 25.00 L 425.21 25.00 L 451.94 25.00 L 482.50 25.00 L 513.06 25.00 L 534.06 25.00 L 545.52 25.00 L 556.98 25.00 L 568.44 25.00 L 579.90 25.00 L 591.35 25.00 L 602.81 25.00 L 614.27 25.00 L 629.17 25.00 L 647.50 25.00 L 665.83 25.00 L 684.17 25.00 L 702.50 25.00 L 717.40 25.00 L 728.85 25.00 L 740.31 25.00 L 751.77 25.00 L 763.23 25.00 L 774.69 25.00 L 786.15 25.00 L 797.60 25.00 L 849.17 25.00 L 940.83 25.00 L 1001.94 25.00 L 1032.50 25.00 L 1063.06 25.00 L 1124.17 25.00 L 1124.17 45.52 L 1063.06 45.65 L 1032.50 46.56 L 1001.94 38.76 L 940.83 38.39 L 849.17 41.59 L 797.60 38.81 L 786.15 41.58 L 774.69 43.84 L 763.23 47.14 L 751.77 48.80 L 740.31 51.68 L 728.85 51.63 L 717.40 55.59 L 702.50 59.80 L 684.17 63.66 L 665.83 56.18 L 647.50 48.52 L 629.17 49.65 L 614.27 51.63 L 602.81 51.22 L 591.35 43.49 L 579.90 43.34 L 568.44 35.54 L 556.98 27.58 L 545.52 27.98 L 534.06 31.76 L 513.06 35.46 L 482.50 34.04 L 451.94 32.35 L 425.21 34.11 L 402.29 36.62 L 379.38 34.83 L 356.46 37.91 L 329.72 35.78 L 299.17 27.83 L 268.61 28.11 L 248.24 28.81 L 238.06 33.00 Z" fill="#d0d0d0" fill-opacity="0.5" stroke="none"/>
<polyline fill="none" stroke="#111" stroke-width="1.2" points="75.73,43.50 87.19,43.02 98.65,38.94 110.10,35.23 121.56,43.08 133.02,39.00 144.48,46.78 155.94,43.05 166.76,42.39 176.94,38.66 187.13,35.73 197.31,32.18 207.50,33.26 217.69,29.09 227.87,25.00 238.06,33.00 248.24,28.81 268.61,28.11 299.17,27.83 329.72,35.78 356.46,37.91 379.38,34.83 402.29,36.62 425.21,34.11 451.94,32.35 482.50,34.04 513.06,35.46 534.06,31.76 545.52,27.98 556.98,27.58 568.44,35.54 579.90,43.34 591.35,43.49 602.81,51.22 614.27,51.63 629.17,49.65 647.50,48.52 665.83,56.18 684.17,63.66 702.50,59.80 717.40,55.59 728.85,51.63 740.31,51.68 751.77,48.80 763.23,47.14 774.69,43.84 786.15,41.58 797.60,38.81 849.17,41.59 940.83,38.39 1001.94,38.76 1032.50,46.56 1063.06,45.65 1124.17,45.52"/>
<text x="15" y="287.5" transform="rotate(-90 15,287.5)" text-anchor="middle" font-family="sans-serif" font-size="12" fill="#333">USD</text>
</svg>