<svg xmlns="http://www.w3.org/2000/svg" width="1200" height="600" viewBox="0 0 1200 600">
<desc>Equity curve with drawdown fill; x-axis is months only (no exact timestamps)</desc>
<text x="600.0" y="18.0" text-anchor="middle" font-family="sans-serif" font-size="14">Balance Curve 2022 (UTC)</text>
<rect x="70" y="25" width="1100" height="525" fill="white" stroke="#ccc" />
<line x1="70" y1="550.00" x2="1170" y2="550.00" stroke="#eee"/>
<text x="62" y="554.0" text-anchor="end" font-family="sans-serif" font-size="11" fill="#555">0.00</text>
<line x1="70" y1="445.00" x2="1170" y2="445.00" stroke="#eee"/>
<text x="62" y="449.0" text-anchor="end" font-family="sans-serif" font-size="11" fill="#555">775815</text>
<line x1="70" y1="340.00" x2="1170" y2="340.00" stroke="#eee"/>
<text x="62" y="344.0" text-anchor="end" font-family="sans-serif" font-size="11" fill="#555">1551631</text>
<line x1="70" y1="235.00" x2="1170" y2="235.00" stroke="#eee"/>
<text x="62" y="239.0" text-anchor="end" font-family="sans-serif" font-size="11" fill="#555">2327446</text>
<line x1="70" y1="130.00" x2="1170" y2="130.00" stroke="#eee"/>
<text x="62" y="134.0" text-anchor="end" font-family="sans-serif" font-size="11" fill="#555">3103262</text>
<line x1="70" y1="25.00" x2="1170" y2="25.00" stroke="#eee"/>
<text x="62" y="29.0" text-anchor="end" font-family="sans-serif" font-size="11" fill="#555">3879077</text>
<line x1="161.67" y1="25" x2="161.67" y2="550" stroke="#f2f2f2"/>
<line x1="253.33" y1="25" x2="253.33" y2="550" stroke="#f2f2f2"/>
<line x1="345.00" y1="25" x2="345.00" y2="550" stroke="#f2f2f2"/>
<line x1="436.67" y1="25" x2="436.67" y2="550" stroke="#f2f2f2"/>
<line x1="528.33" y1="25" x2="528.33" y2="550" stroke="#f2f2f2"/>
<line x1="620.00" y1="25" x2="620.00" y2="550" stroke="#f2f2f2"/>
<line x1="711.67" y1="25" x2="711.67" y2="550" stroke="#f2f2f2"/>
<line x1="803.33" y1="25" x2="803.33" y2="550" stroke="#f2f2f2"/>
<line x1="895.00" y1="25" x2="895.00" y2="550" stroke="#f2f2f2"/>
<line x1="986.67" y1="25" x2="986.67" y2="550" stroke="#f2f2f2"/>
<line x1="1078.33" y1="25" x2="1078.33" y2="550" stroke="#f2f2f2"/>
<text x="115.83" y="566.00" text-anchor="middle" font-family="sans-serif" font-size="11" fill="#444">Jan</text>
<text x="207.50" y="566.00" text-anchor="middle" font-family="sans-serif" font-size="11" fill="#444">Feb</text>
<text x="299.17" y="566.00" text-anchor="middle" font-family="sans-serif" font-size="11" fill="#444">Mar</text>
<text x="390.83" y="566.00" text-anchor="middle" font-family="sans-serif" font-size="11" fill="#444">Apr</text>
<text x="482.50" y="566.00" text-anchor="middle" font-family="sans-serif" font-size="11" fill="#444">May</text>
<text x="574.17" y="566.00" text-anchor="middle" font-family="sans-serif" font-size="11" fill="#444">Jun</text>
<text x="665.83" y="566.00" text-anchor="middle" font-family="sans-serif" font-size="11" fill="#444">Jul</text>
<text x="757.50" y="566.00" text-anchor="middle" font-family="sans-serif" font-size="11" fill="#444">Aug</text>
<text x="849.17" y="566.00" text-anchor="middle" font-family="sans-serif" font-size="11" fill="#444">Sep</text>
<text x="940.83" y="566.00" text-anchor="middle" font-family="sans-serif" font-size="11" fill="#444">Oct</text>
<text x="1032.50" y="566.00" text-anchor="middle" font-family="sans-serif" font-size="11" fill="#444">Nov</text>
<text x="1124.17" y="566.00" text-anchor="middle" font-family="sans-serif" font-size="11" fill="#444">Dec</text>
<line x1="70" y1="550" x2="1170" y2="550" stroke="#888"/>
<line x1="70" y1="25" x2="70" y2="550" stroke="#888"/>
<line x1="115.83" y1="550.00" x2="115.83" y2="556.00" stroke="#888"/>
<line x1="1160.83"   y1="550.00" x2="1160.83"   y2="556.00" stroke="#888"/>
<text x="115.83" y="582.00" text-anchor="start" font-family="sans-serif" font-size="11" fill="#333">Initial Balance: 3776685</text>
<text x="1160.83"   y="582.00" text-anchor="end"   font-family="sans-serif" font-size="11" fill="#333">Ending Balance: 3858615</text>
<path d="M 288.98 30.13 L 299.17 30.13 L 309.35 30.13 L 319.54 30.13 L 319.54 31.10 L 309.35 32.15 L 299.17 31.52 L 288.98 33.85 Z" fill="#d0d0d0" fill-opacity="0.5" stroke="none"/>
<path d="M 339.91 29.49 L 351.55 29.49 L 364.64 29.49 L 377.74 29.49 L 390.83 29.49 L 403.93 29.49 L 417.02 29.49 L 430.12 29.49 L 443.21 29.49 L 456.31 29.49 L 469.40 29.49 L 482.50 29.49 L 495.60 29.49 L 508.69 29.49 L 521.79 29.49 L 539.79 29.49 L 562.71 29.49 L 562.71 29.50 L 539.79 30.97 L 521.79 31.85 L 508.69 33.21 L 495.60 33.55 L 482.50 35.21 L 469.40 35.59 L 456.31 36.91 L 443.21 38.21 L 430.12 36.90 L 417.02 37.97 L 403.93 37.64 L 390.83 39.35 L 377.74 35.63 L 364.64 36.61 L 351.55 32.87 L 339.91 33.28 Z" fill="#d0d0d0" fill-opacity="0.5" stroke="none"/>
<path d="M 608.54 28.65 L 624.58 28.65 L 624.58 28.88 L 608.54 29.13 Z" fill="#d0d0d0" fill-opacity="0.5" stroke="none"/>
<path d="M 661.25 25.14 L 670.42 25.14 L 679.58 25.14 L 688.75 25.14 L 697.92 25.14 L 707.08 25.14 L 716.76 25.14 L 726.94 25.14 L 737.13 25.14 L 737.13 27.74 L 726.94 27.58 L 716.76 29.18 L 707.08 30.42 L 697.92 26.90 L 688.75 27.00 L 679.58 27.12 L 670.42 27.07 L 661.25 28.66 Z" fill="#d0d0d0" fill-opacity="0.5" stroke="none"/>
<path d="M 757.50 25.00 L 767.69 25.00 L 777.87 25.00 L 788.06 25.00 L 798.24 25.00 L 805.52 25.00 L 809.88 25.00 L 814.25 25.00 L 818.61 25.00 L 822.98 25.00 L 827.34 25.00 L 831.71 25.00 L 836.07 25.00 L 840.44 25.00 L 844.80 25.00 L 849.17 25.00 L 853.53 25.00 L 857.90 25.00 L 862.26 25.00 L 866.63 25.00 L 870.99 25.00 L 875.36 25.00 L 879.72 25.00 L 884.09 25.00 L 888.45 25.00 L 892.82 25.00 L 897.55 25.00 L 902.64 25.00 L 907.73 25.00 L 912.82 25.00 L 917.92 25.00 L 923.01 25.00 L 928.10 25.00 L 933.19 25.00 L 938.29 25.00 L 943.38 25.00 L 948.47 25.00 L 953.56 25.00 L 958.66 25.00 L 963.75 25.00 L 968.84 25.00 L 973.94 25.00 L 979.03 25.00 L 984.12 25.00 L 992.40 25.00 L 1003.85 25.00 L 1015.31 25.00 L 1026.77 25.00 L 1038.23 25.00 L 1049.69 25.00 L 1061.15 25.00 L 1072.60 25.00 L 1087.50 25.00 L 1105.83 25.00 L 1124.17 25.00 L 1142.50 25.00 L 1160.83 25.00 L 1160.83 27.77 L 1142.50 29.44 L 1124.17 30.67 L 1105.83 31.39 L 1087.50 30.57 L 1072.60 32.21 L 1061.15 33.58 L 1049.69 34.68 L 1038.23 36.41 L 1026.77 32.84 L 1015.31 33.18 L 1003.85 29.62 L 992.40 31.13 L 984.12 31.27 L 979.03 32.40 L 973.94 32.47 L 968.84 33.98 L 963.75 34.93 L 958.66 36.10 L 953.56 36.20 L 948.47 32.84 L 943.38 34.16 L 938.29 28.89 L 933.19 25.52 L 928.10 28.23 L 923.01 29.59 L 917.92 31.09 L 912.82 32.16 L 907.73 34.60 L 902.64 36.11 L 897.55 37.07 L 892.82 37.05 L 888.45 38.56 L 884.09 35.16 L 879.72 36.18 L 875.36 30.95 L 870.99 31.89 L 866.63 33.08 L 862.26 34.50 L 857.90 35.88 L 853.53 38.29 L 849.17 33.05 L 844.80 29.70 L 840.44 32.17 L 836.07 33.72 L 831.71 35.11 L 827.34 32.73 L 822.98 29.22 L 818.61 31.94 L 814.25 28.46 L 809.88 29.51 L 805.52 29.15 L 798.24 25.69 L 788.06 27.25 L 777.87 28.21 L 767.69 29.21 L 757.50 28.53 Z" fill="#d0d0d0" fill-opacity="0.5" stroke="none"/>
<polyline fill="none" stroke="#111" stroke-width="1.2" points="115.83,38.86 170.83,37.65 189.17,36.40 207.50,36.17 225.83,34.80 244.17,33.21 258.43,31.44 268.61,30.73 278.80,30.13 288.98,33.85 299.17,31.52 309.35,32.15 319.54,31.10 329.72,29.49 339.91,33.28 351.55,32.87 364.64,36.61 377.74,35.63 390.83,39.35 403.93,37.64 417.02,37.97 430.12,36.90 443.21,38.21 456.31,36.91 469.40,35.59 482.50,35.21 495.60,33.55 508.69,33.21 521.79,31.85 539.79,30.97 562.71,29.50 585.62,28.65 608.54,29.13 624.58,28.88 633.75,28.27 642.92,26.70 652.08,25.14 661.25,28.66 670.42,27.07 679.58,27.12 688.75,27.00 697.92,26.90 707.08,30.42 716.76,29.18 726.94,27.58 737.13,27.74 747.31,25.00 757.50,28.53 767.69,29.21 777.87,28.21 788.06,27.25 798.24,25.69 805.52,29.15 809.88,29.51 814.25,28.46 818.61,31.94 822.98,29.22 827.34,32.73 831.71,35.11 836.07,33.72 840.44,32.17 844.80,29.70 849.17,33.05 853.53,38.29 857.90,35.88 862.26,34.50 866.63,33.08 870.99,31.89 875.36,30.95 879.72,36.18 884.09,35.16 888.45,38.56 892.82,37.05 897.55,37.07 902.64,36.11 907.73,34.60 912.82,32.16 917.92,31.09 923.01,29.59 928.10,28.23 933.19,25.52 938.29,28.89 943.38,34.16 948.47,32.84 953.56,36.20 958.66,36.10 963.75,34.93 968.84,33.98 973.94,32.47 979.03,32.40 984.12,31.27 992.40,31.13 1003.85,29.62 1015.31,33.18 1026.77,32.84 1038.23,36.41 1049.69,34.68 1061.15,33.58 1072.60,32.21 1087.50,30.57 1105.83,31.39 1124.17,30.67 1142.50,29.44 1160.83,27.77"/>
<text x="15" y="287.5" transform="rotate(-90 15,287.5)" text-anchor="middle" font-family="sans-serif" font-size="12" fill="#333">USD</text>
</svg>