<svg xmlns="http://www.w3.org/2000/svg" width="1200" height="600" viewBox="0 0 1200 600">
<desc>Equity curve with drawdown fill</desc>
<text x="600.0" y="18.0" text-anchor="middle" font-family="sans-serif" font-size="14">Portfolio 2009</text>
<rect x="70" y="25" width="1100" height="525" fill="white" stroke="#ccc" />
<line x1="70" y1="550.00" x2="1170" y2="550.00" stroke="#eee"/>
<text x="62" y="554.0" text-anchor="end" font-family="sans-serif" font-size="11" fill="#555">0.00</text>
<line x1="70" y1="445.00" x2="1170" y2="445.00" stroke="#eee"/>
<text x="62" y="449.0" text-anchor="end" font-family="sans-serif" font-size="11" fill="#555">23697</text>
<line x1="70" y1="340.00" x2="1170" y2="340.00" stroke="#eee"/>
<text x="62" y="344.0" text-anchor="end" font-family="sans-serif" font-size="11" fill="#555">47394</text>
<line x1="70" y1="235.00" x2="1170" y2="235.00" stroke="#eee"/>
<text x="62" y="239.0" text-anchor="end" font-family="sans-serif" font-size="11" fill="#555">71090</text>
<line x1="70" y1="130.00" x2="1170" y2="130.00" stroke="#eee"/>
<text x="62" y="134.0" text-anchor="end" font-family="sans-serif" font-size="11" fill="#555">94787</text>
<line x1="70" y1="25.00" x2="1170" y2="25.00" stroke="#eee"/>
<text x="62" y="29.0" text-anchor="end" font-family="sans-serif" font-size="11" fill="#555">118484</text>
<line x1="159.60" y1="25" x2="159.60" y2="550" stroke="#f2f2f2"/>
<text x="159.60" y="566" text-anchor="middle" font-family="sans-serif" font-size="11" fill="#555">Feb</text>
<line x1="244.39" y1="25" x2="244.39" y2="550" stroke="#f2f2f2"/>
<text x="244.39" y="566" text-anchor="middle" font-family="sans-serif" font-size="11" fill="#555">Mar</text>
<line x1="338.26" y1="25" x2="338.26" y2="550" stroke="#f2f2f2"/>
<text x="338.26" y="566" text-anchor="middle" font-family="sans-serif" font-size="11" fill="#555">Apr</text>
<line x1="429.11" y1="25" x2="429.11" y2="550" stroke="#f2f2f2"/>
<text x="429.11" y="566" text-anchor="middle" font-family="sans-serif" font-size="11" fill="#555">May</text>
<line x1="522.99" y1="25" x2="522.99" y2="550" stroke="#f2f2f2"/>
<text x="522.99" y="566" text-anchor="middle" font-family="sans-serif" font-size="11" fill="#555">Jun</text>
<line x1="613.84" y1="25" x2="613.84" y2="550" stroke="#f2f2f2"/>
<text x="613.84" y="566" text-anchor="middle" font-family="sans-serif" font-size="11" fill="#555">Jul</text>
<line x1="707.71" y1="25" x2="707.71" y2="550" stroke="#f2f2f2"/>
<text x="707.71" y="566" text-anchor="middle" font-family="sans-serif" font-size="11" fill="#555">Aug</text>
<line x1="801.59" y1="25" x2="801.59" y2="550" stroke="#f2f2f2"/>
<text x="801.59" y="566" text-anchor="middle" font-family="sans-serif" font-size="11" fill="#555">Sep</text>
<line x1="892.44" y1="25" x2="892.44" y2="550" stroke="#f2f2f2"/>
<text x="892.44" y="566" text-anchor="middle" font-family="sans-serif" font-size="11" fill="#555">Oct</text>
<line x1="986.31" y1="25" x2="986.31" y2="550" stroke="#f2f2f2"/>
<text x="986.31" y="566" text-anchor="middle" font-family="sans-serif" font-size="11" fill="#555">Nov</text>
<line x1="1077.16" y1="25" x2="1077.16" y2="550" stroke="#f2f2f2"/>
<text x="1077.16" y="566" text-anchor="middle" font-family="sans-serif" font-size="11" fill="#555">Dec</text>
<line x1="1170.00" y1="25" x2="1170.00" y2="550" stroke="#f2f2f2"/>
<text x="1170.00" y="566" text-anchor="middle" font-family="sans-serif" font-size="11" fill="#555">Jan</text>
<line x1="70" y1="550" x2="1170" y2="550" stroke="#888"/>
<line x1="70" y1="25" x2="70" y2="550" stroke="#888"/>
<path d="M 70.00 106.90 L 70.00 108.21 Z" fill="#d0d0d0" fill-opacity="0.5" stroke="none"/>
<path d="M 78.88 104.83 L 78.89 104.83 L 78.92 104.83 L 79.02 104.83 L 79.10 104.83 L 79.21 104.83 L 79.51 104.83 L 80.04 104.83 L 81.46 104.83 L 81.86 104.83 L 82.01 104.83 L 82.12 104.83 L 82.18 104.83 L 82.30 104.83 L 83.05 104.83 L 84.03 104.83 L 84.84 104.83 L 84.90 104.83 L 85.35 104.83 L 85.60 104.83 L 85.67 104.83 L 85.90 104.83 L 86.03 104.83 L 86.35 104.83 L 86.98 104.83 L 86.98 106.72 L 86.35 109.23 L 86.03 111.24 L 85.90 113.45 L 85.67 115.67 L 85.60 116.52 L 85.35 112.08 L 84.90 114.28 L 84.84 116.66 L 84.03 119.08 L 83.05 121.52 L 82.30 117.14 L 82.18 118.48 L 82.12 119.93 L 82.01 122.36 L 81.86 121.21 L 81.46 116.83 L 80.04 119.28 L 79.51 121.53 L 79.21 121.14 L 79.10 121.61 L 79.02 122.44 L 78.92 118.14 L 78.89 113.78 L 78.88 109.35 Z" fill="#d0d0d0" fill-opacity="0.5" stroke="none"/>
<path d="M 91.73 96.34 L 91.87 96.34 L 91.98 96.34 L 92.07 96.34 L 99.13 96.34 L 99.13 96.43 L 92.07 98.08 L 91.98 100.63 L 91.87 100.71 L 91.73 100.90 Z" fill="#d0d0d0" fill-opacity="0.5" stroke="none"/>
<path d="M 100.95 95.27 L 101.02 95.27 L 101.32 95.27 L 101.32 96.79 L 101.02 98.79 L 100.95 99.88 Z" fill="#d0d0d0" fill-opacity="0.5" stroke="none"/>
<path d="M 106.19 82.35 L 106.25 82.35 L 106.79 82.35 L 106.93 82.35 L 106.98 82.35 L 106.98 83.69 L 106.93 84.69 L 106.79 83.77 L 106.25 84.77 L 106.19 87.08 Z" fill="#d0d0d0" fill-opacity="0.5" stroke="none"/>
<path d="M 109.90 81.72 L 109.91 81.72 L 109.91 83.74 L 109.90 86.46 Z" fill="#d0d0d0" fill-opacity="0.5" stroke="none"/>
<path d="M 110.58 78.34 L 111.65 78.34 L 112.92 78.34 L 113.11 78.34 L 113.11 78.38 L 112.92 79.68 L 111.65 82.31 L 110.58 83.11 Z" fill="#d0d0d0" fill-opacity="0.5" stroke="none"/>
<path d="M 123.38 72.87 L 124.19 72.87 L 124.19 75.31 L 123.38 77.70 Z" fill="#d0d0d0" fill-opacity="0.5" stroke="none"/>
<path d="M 126.61 71.29 L 126.75 71.29 L 127.15 71.29 L 127.15 72.56 L 126.75 75.24 L 126.61 76.13 Z" fill="#d0d0d0" fill-opacity="0.5" stroke="none"/>
<path d="M 133.33 58.55 L 133.46 58.55 L 133.54 58.55 L 133.62 58.55 L 134.20 58.55 L 134.53 58.55 L 134.68 58.55 L 134.76 58.55 L 141.33 58.55 L 142.56 58.55 L 143.08 58.55 L 143.24 58.55 L 143.31 58.55 L 143.32 58.55 L 143.46 58.55 L 143.73 58.55 L 144.90 58.55 L 145.46 58.55 L 145.62 58.55 L 145.91 58.55 L 146.05 58.55 L 146.35 58.55 L 146.52 58.55 L 147.55 58.55 L 148.53 58.55 L 149.27 58.55 L 151.45 58.55 L 152.10 58.55 L 152.40 58.55 L 152.67 58.55 L 152.73 58.55 L 152.83 58.55 L 155.38 58.55 L 155.53 58.55 L 155.71 58.55 L 164.84 58.55 L 164.89 58.55 L 166.16 58.55 L 166.16 59.45 L 164.89 61.90 L 164.84 63.60 L 155.71 58.64 L 155.53 60.84 L 155.38 63.40 L 152.83 65.64 L 152.73 67.44 L 152.67 68.97 L 152.40 64.10 L 152.10 66.82 L 151.45 61.89 L 149.27 63.29 L 148.53 66.03 L 147.55 67.88 L 146.52 70.59 L 146.35 73.26 L 146.05 75.94 L 145.91 77.68 L 145.62 80.34 L 145.46 82.86 L 144.90 84.45 L 143.73 79.68 L 143.46 82.24 L 143.32 84.44 L 143.31 79.71 L 143.24 74.95 L 143.08 70.14 L 142.56 72.27 L 141.33 73.97 L 134.76 69.11 L 134.68 71.44 L 134.53 66.58 L 134.20 61.65 L 133.62 62.85 L 133.54 63.89 L 133.46 63.88 L 133.33 63.50 Z" fill="#d0d0d0" fill-opacity="0.5" stroke="none"/>
<path d="M 170.23 41.16 L 173.52 41.16 L 173.52 41.29 L 170.23 42.62 Z" fill="#d0d0d0" fill-opacity="0.5" stroke="none"/>
<path d="M 177.07 32.44 L 177.16 32.44 L 184.65 32.44 L 185.59 32.44 L 185.67 32.44 L 186.89 32.44 L 186.99 32.44 L 187.03 32.44 L 187.13 32.44 L 187.59 32.44 L 187.77 32.44 L 188.25 32.44 L 188.78 32.44 L 188.92 32.44 L 188.92 34.25 L 188.78 37.12 L 188.25 39.46 L 187.77 39.79 L 187.59 42.40 L 187.13 45.05 L 187.03 46.95 L 186.99 48.81 L 186.89 43.75 L 185.67 38.60 L 185.59 40.23 L 184.65 35.06 L 177.16 36.87 L 177.07 37.63 Z" fill="#d0d0d0" fill-opacity="0.5" stroke="none"/>
<path d="M 189.30 30.84 L 190.06 30.84 L 191.02 30.84 L 191.02 30.85 L 190.06 33.40 L 189.30 36.06 Z" fill="#d0d0d0" fill-opacity="0.5" stroke="none"/>
<path d="M 194.05 29.71 L 194.71 29.71 L 194.82 29.71 L 195.05 29.71 L 195.05 29.72 L 194.82 31.44 L 194.71 32.05 L 194.05 34.93 Z" fill="#d0d0d0" fill-opacity="0.5" stroke="none"/>
<path d="M 204.92 25.00 L 206.90 25.00 L 208.20 25.00 L 208.33 25.00 L 208.44 25.00 L 212.95 25.00 L 215.29 25.00 L 215.94 25.00 L 218.95 25.00 L 219.28 25.00 L 219.29 25.00 L 219.38 25.00 L 219.44 25.00 L 219.53 25.00 L 219.66 25.00 L 226.45 25.00 L 226.46 25.00 L 226.67 25.00 L 227.14 25.00 L 227.42 25.00 L 227.62 25.00 L 227.87 25.00 L 228.25 25.00 L 230.49 25.00 L 231.01 25.00 L 231.60 25.00 L 231.73 25.00 L 233.33 25.00 L 233.79 25.00 L 234.26 25.00 L 234.31 25.00 L 240.32 25.00 L 247.48 25.00 L 251.26 25.00 L 251.97 25.00 L 252.50 25.00 L 253.57 25.00 L 255.60 25.00 L 258.33 25.00 L 258.49 25.00 L 260.41 25.00 L 260.53 25.00 L 260.64 25.00 L 261.32 25.00 L 261.61 25.00 L 270.58 25.00 L 272.56 25.00 L 273.33 25.00 L 273.42 25.00 L 273.53 25.00 L 273.98 25.00 L 274.12 25.00 L 275.28 25.00 L 276.16 25.00 L 278.74 25.00 L 279.42 25.00 L 279.50 25.00 L 279.65 25.00 L 281.93 25.00 L 289.77 25.00 L 291.20 25.00 L 294.53 25.00 L 297.58 25.00 L 297.66 25.00 L 297.83 25.00 L 298.30 25.00 L 300.05 25.00 L 300.50 25.00 L 300.57 25.00 L 300.61 25.00 L 300.71 25.00 L 300.75 25.00 L 300.88 25.00 L 301.30 25.00 L 303.07 25.00 L 303.39 25.00 L 303.47 25.00 L 303.57 25.00 L 303.73 25.00 L 303.86 25.00 L 304.05 25.00 L 310.92 25.00 L 312.10 25.00 L 312.29 25.00 L 312.76 25.00 L 312.92 25.00 L 313.02 25.00 L 313.38 25.00 L 315.12 25.00 L 315.46 25.00 L 315.86 25.00 L 316.40 25.00 L 318.58 25.00 L 318.95 25.00 L 318.98 25.00 L 319.11 25.00 L 319.39 25.00 L 322.04 25.00 L 324.79 25.00 L 324.91 25.00 L 332.99 25.00 L 334.11 25.00 L 336.76 25.00 L 337.28 25.00 L 338.50 25.00 L 342.97 25.00 L 343.05 25.00 L 343.20 25.00 L 343.56 25.00 L 353.37 25.00 L 355.28 25.00 L 355.49 25.00 L 356.51 25.00 L 357.73 25.00 L 359.73 25.00 L 360.98 25.00 L 361.62 25.00 L 363.51 25.00 L 364.55 25.00 L 364.70 25.00 L 364.74 25.00 L 365.57 25.00 L 376.33 25.00 L 376.37 25.00 L 376.70 25.00 L 382.37 25.00 L 386.08 25.00 L 387.45 25.00 L 396.05 25.00 L 397.81 25.00 L 400.11 25.00 L 403.69 25.00 L 409.10 25.00 L 409.75 25.00 L 419.31 25.00 L 419.45 25.00 L 421.83 25.00 L 425.50 25.00 L 427.88 25.00 L 440.12 25.00 L 440.27 25.00 L 440.36 25.00 L 443.25 25.00 L 445.98 25.00 L 446.17 25.00 L 448.96 25.00 L 449.00 25.00 L 449.06 25.00 L 449.09 25.00 L 452.02 25.00 L 452.05 25.00 L 452.20 25.00 L 452.52 25.00 L 465.62 25.00 L 467.20 25.00 L 468.63 25.00 L 473.91 25.00 L 484.89 25.00 L 488.51 25.00 L 488.62 25.00 L 489.05 25.00 L 490.86 25.00 L 491.85 25.00 L 492.00 25.00 L 492.09 25.00 L 494.51 25.00 L 506.01 25.00 L 506.82 25.00 L 509.68 25.00 L 509.89 25.00 L 512.77 25.00 L 527.48 25.00 L 527.55 25.00 L 527.65 25.00 L 528.07 25.00 L 530.26 25.00 L 533.73 25.00 L 534.17 25.00 L 536.81 25.00 L 536.87 25.00 L 536.92 25.00 L 537.05 25.00 L 537.17 25.00 L 537.57 25.00 L 545.33 25.00 L 548.34 25.00 L 548.70 25.00 L 548.91 25.00 L 549.73 25.00 L 552.16 25.00 L 552.66 25.00 L 554.99 25.00 L 555.33 25.00 L 555.55 25.00 L 557.93 25.00 L 566.37 25.00 L 567.50 25.00 L 573.88 25.00 L 573.96 25.00 L 576.89 25.00 L 579.69 25.00 L 591.12 25.00 L 591.83 25.00 L 594.21 25.00 L 595.08 25.00 L 598.07 25.00 L 612.65 25.00 L 615.99 25.00 L 618.57 25.00 L 630.03 25.00 L 633.64 25.00 L 640.23 25.00 L 657.29 25.00 L 660.84 25.00 L 672.58 25.00 L 682.55 25.00 L 682.88 25.00 L 697.45 25.00 L 699.58 25.00 L 700.76 25.00 L 706.76 25.00 L 706.90 25.00 L 715.12 25.00 L 715.72 25.00 L 727.60 25.00 L 727.82 25.00 L 727.93 25.00 L 728.03 25.00 L 728.07 25.00 L 743.48 25.00 L 757.68 25.00 L 764.18 25.00 L 764.28 25.00 L 764.47 25.00 L 769.45 25.00 L 788.88 25.00 L 789.00 25.00 L 800.58 25.00 L 803.78 25.00 L 806.90 25.00 L 812.48 25.00 L 812.86 25.00 L 824.00 25.00 L 827.65 25.00 L 830.60 25.00 L 842.87 25.00 L 846.41 25.00 L 866.32 25.00 L 870.65 25.00 L 873.25 25.00 L 876.01 25.00 L 883.69 25.00 L 883.74 25.00 L 887.53 25.00 L 891.20 25.00 L 897.19 25.00 L 897.36 25.00 L 918.89 25.00 L 930.35 25.00 L 936.49 25.00 L 947.17 25.00 L 952.11 25.00 L 954.94 25.00 L 970.28 25.00 L 970.36 25.00 L 970.45 25.00 L 973.12 25.00 L 976.48 25.00 L 982.34 25.00 L 991.77 25.00 L 993.64 25.00 L 993.72 25.00 L 993.85 25.00 L 1021.57 25.00 L 1033.92 25.00 L 1041.89 25.00 L 1045.48 25.00 L 1064.12 25.00 L 1065.01 25.00 L 1066.01 25.00 L 1067.11 25.00 L 1074.36 25.00 L 1088.14 25.00 L 1088.20 25.00 L 1096.44 25.00 L 1096.51 25.00 L 1097.56 25.00 L 1100.10 25.00 L 1109.27 25.00 L 1109.46 25.00 L 1109.57 25.00 L 1120.70 25.00 L 1125.89 25.00 L 1126.04 25.00 L 1126.24 25.00 L 1128.98 25.00 L 1130.71 25.00 L 1142.74 25.00 L 1145.78 25.00 L 1164.03 25.00 L 1168.96 25.00 L 1170.00 25.00 L 1170.00 41.61 L 1168.96 43.05 L 1164.03 43.24 L 1145.78 38.08 L 1142.74 40.04 L 1130.71 42.92 L 1128.98 43.08 L 1126.24 44.57 L 1126.04 44.65 L 1125.89 46.70 L 1120.70 48.97 L 1109.57 48.38 L 1109.46 47.52 L 1109.27 47.08 L 1100.10 41.96 L 1097.56 43.45 L 1096.51 46.11 L 1096.44 47.65 L 1088.20 42.53 L 1088.14 37.36 L 1074.36 36.78 L 1067.11 37.93 L 1066.01 38.11 L 1065.01 32.91 L 1064.12 35.82 L 1045.48 35.80 L 1041.89 35.79 L 1033.92 38.18 L 1021.57 41.07 L 993.85 43.42 L 993.72 43.51 L 993.64 44.45 L 991.77 39.31 L 982.34 40.91 L 976.48 43.17 L 973.12 45.45 L 970.45 46.58 L 970.36 41.45 L 970.28 42.65 L 954.94 44.04 L 952.11 44.79 L 947.17 46.39 L 936.49 48.76 L 930.35 51.61 L 918.89 52.83 L 897.36 53.80 L 897.19 48.73 L 891.20 51.16 L 887.53 52.92 L 883.74 55.48 L 883.69 56.93 L 876.01 51.89 L 873.25 54.23 L 870.65 54.62 L 866.32 57.18 L 846.41 57.94 L 842.87 58.55 L 830.60 59.84 L 827.65 62.61 L 824.00 63.91 L 812.86 63.27 L 812.48 58.29 L 806.90 60.51 L 803.78 62.09 L 800.58 57.11 L 789.00 56.90 L 788.88 56.50 L 769.45 51.47 L 764.47 51.92 L 764.28 51.05 L 764.18 52.91 L 757.68 47.83 L 743.48 48.95 L 728.07 43.84 L 728.03 45.81 L 727.93 40.67 L 727.82 40.24 L 727.60 35.06 L 715.72 37.96 L 715.12 32.76 L 706.90 34.62 L 706.76 34.63 L 700.76 29.40 L 699.58 29.80 L 697.45 32.45 L 682.88 34.03 L 682.55 36.46 L 672.58 38.17 L 660.84 39.33 L 657.29 42.20 L 640.23 42.75 L 633.64 44.26 L 630.03 42.98 L 618.57 45.40 L 615.99 48.24 L 612.65 51.05 L 598.07 52.69 L 595.08 52.58 L 594.21 55.38 L 591.83 58.18 L 591.12 53.16 L 579.69 54.34 L 576.89 55.05 L 573.96 50.00 L 573.88 50.96 L 567.50 45.87 L 566.37 46.25 L 557.93 47.63 L 555.55 50.19 L 555.33 52.71 L 554.99 51.01 L 552.66 53.62 L 552.16 55.82 L 549.73 50.78 L 548.91 51.63 L 548.70 46.55 L 548.34 48.88 L 545.33 49.24 L 537.57 44.13 L 537.17 45.22 L 537.05 40.09 L 536.92 42.29 L 536.87 37.16 L 536.81 31.96 L 534.17 34.87 L 533.73 36.43 L 530.26 39.16 L 528.07 42.04 L 527.65 44.07 L 527.55 38.93 L 527.48 40.76 L 512.77 35.58 L 509.89 35.86 L 509.68 38.51 L 506.82 41.22 L 506.01 36.04 L 494.51 38.06 L 492.09 40.72 L 492.00 35.55 L 491.85 35.66 L 490.86 38.01 L 489.05 40.87 L 488.62 43.71 L 488.51 43.66 L 484.89 38.51 L 473.91 41.10 L 468.63 35.93 L 467.20 37.76 L 465.62 39.22 L 452.52 42.09 L 452.20 44.94 L 452.05 46.18 L 452.02 48.66 L 449.09 51.48 L 449.06 53.82 L 449.00 48.76 L 448.96 51.57 L 446.17 53.13 L 445.98 55.75 L 443.25 57.54 L 440.36 59.25 L 440.27 54.29 L 440.12 55.92 L 427.88 50.87 L 425.50 45.78 L 421.83 48.61 L 419.45 50.69 L 419.31 49.42 L 409.75 44.33 L 409.10 46.92 L 403.69 41.81 L 400.11 44.63 L 397.81 47.04 L 396.05 46.75 L 387.45 48.49 L 386.08 49.55 L 382.37 51.76 L 376.70 46.69 L 376.37 41.57 L 376.33 44.04 L 365.57 38.89 L 364.74 41.75 L 364.70 43.40 L 364.55 42.13 L 363.51 36.96 L 361.62 39.27 L 360.98 41.90 L 359.73 43.88 L 357.73 38.73 L 356.51 33.54 L 355.49 36.43 L 355.28 38.46 L 353.37 41.05 L 343.56 41.58 L 343.20 42.32 L 343.05 43.97 L 342.97 46.12 L 338.50 40.98 L 337.28 43.83 L 336.76 46.43 L 334.11 48.01 L 332.99 50.13 L 324.91 52.66 L 324.79 47.59 L 322.04 49.34 L 319.39 51.43 L 319.11 53.64 L 318.98 56.20 L 318.95 58.80 L 318.58 61.57 L 316.40 62.94 L 315.86 65.51 L 315.46 67.66 L 315.12 69.75 L 313.38 72.03 L 313.02 67.14 L 312.92 69.53 L 312.76 71.00 L 312.29 71.38 L 312.10 73.89 L 310.92 76.10 L 304.05 77.84 L 303.86 79.24 L 303.73 81.49 L 303.57 83.84 L 303.47 84.77 L 303.39 85.72 L 303.07 80.97 L 301.30 82.47 L 300.88 84.90 L 300.75 80.14 L 300.71 81.81 L 300.61 77.01 L 300.57 78.77 L 300.50 73.97 L 300.05 69.11 L 298.30 71.37 L 297.83 74.26 L 297.66 74.06 L 297.58 75.41 L 294.53 70.55 L 291.20 72.83 L 289.77 75.51 L 281.93 78.17 L 279.65 80.40 L 279.50 82.31 L 279.42 84.94 L 278.74 87.28 L 276.16 87.87 L 275.28 88.68 L 274.12 90.58 L 273.98 85.90 L 273.53 87.93 L 273.42 88.46 L 273.33 88.97 L 272.56 84.25 L 270.58 86.16 L 261.61 87.53 L 261.32 88.41 L 260.64 90.52 L 260.53 89.17 L 260.41 88.30 L 258.49 83.57 L 258.33 86.07 L 255.60 86.85 L 253.57 88.28 L 252.50 83.54 L 251.97 78.77 L 251.26 80.29 L 247.48 82.38 L 240.32 77.59 L 234.31 72.75 L 234.26 75.05 L 233.79 70.19 L 233.33 65.28 L 231.73 67.16 L 231.60 67.43 L 231.01 62.50 L 230.49 64.37 L 228.25 66.56 L 227.87 67.07 L 227.62 69.48 L 227.42 71.11 L 227.14 66.22 L 226.67 68.93 L 226.46 67.93 L 226.45 63.05 L 219.66 58.07 L 219.53 53.06 L 219.44 53.28 L 219.38 48.24 L 219.29 48.94 L 219.28 43.86 L 218.95 38.72 L 215.94 41.28 L 215.29 42.07 L 212.95 36.92 L 208.44 39.77 L 208.33 38.25 L 208.20 33.10 L 206.90 27.86 L 204.92 30.26 Z" fill="#d0d0d0" fill-opacity="0.5" stroke="none"/>
<polyline fill="none" stroke="#111" stroke-width="1.2" points="70.00,108.21 71.08,106.89 77.88,105.92 78.18,104.83 78.88,109.35 78.89,113.78 78.92,118.14 79.02,122.44 79.10,121.61 79.21,121.14 79.51,121.53 80.04,119.28 81.46,116.83 81.86,121.21 82.01,122.36 82.12,119.93 82.18,118.48 82.30,117.14 83.05,121.52 84.03,119.08 84.84,116.66 84.90,114.28 85.35,112.08 85.60,116.52 85.67,115.67 85.90,113.45 86.03,111.24 86.35,109.23 86.98,106.72 87.95,104.83 88.56,103.31 88.62,100.66 88.76,100.52 88.82,98.43 91.24,96.34 91.73,100.90 91.87,100.71 91.98,100.63 92.07,98.08 99.13,96.43 100.14,95.27 100.95,99.88 101.02,98.79 101.32,96.79 102.79,94.47 103.42,92.07 103.75,89.87 103.83,87.63 104.06,85.03 104.47,82.64 105.31,82.35 106.19,87.08 106.25,84.77 106.79,83.77 106.93,84.69 106.98,83.69 109.35,81.72 109.90,86.46 109.91,83.74 109.95,81.10 110.01,78.34 110.58,83.11 111.65,82.31 112.92,79.68 113.11,78.38 120.20,77.98 121.17,75.55 121.65,72.87 123.38,77.70 124.19,75.31 124.91,72.64 125.72,71.29 126.61,76.13 126.75,75.24 127.15,72.56 128.32,70.13 128.45,67.76 129.20,65.43 129.43,64.58 129.87,62.10 130.50,60.19 131.08,58.55 133.33,63.50 133.46,63.88 133.54,63.89 133.62,62.85 134.20,61.65 134.53,66.58 134.68,71.44 134.76,69.11 141.33,73.97 142.56,72.27 143.08,70.14 143.24,74.95 143.31,79.71 143.32,84.44 143.46,82.24 143.73,79.68 144.90,84.45 145.46,82.86 145.62,80.34 145.91,77.68 146.05,75.94 146.35,73.26 146.52,70.59 147.55,67.88 148.53,66.03 149.27,63.29 151.45,61.89 152.10,66.82 152.40,64.10 152.67,68.97 152.73,67.44 152.83,65.64 155.38,63.40 155.53,60.84 155.71,58.64 164.84,63.60 164.89,61.90 166.16,59.45 167.44,57.09 167.52,55.07 167.66,54.10 167.77,53.49 168.09,50.89 168.82,48.70 169.54,46.43 169.67,44.00 170.07,41.16 170.23,42.62 173.52,41.29 173.77,39.03 173.92,37.61 176.52,34.94 176.67,32.44 177.07,37.63 177.16,36.87 184.65,35.06 185.59,40.23 185.67,38.60 186.89,43.75 186.99,48.81 187.03,46.95 187.13,45.05 187.59,42.40 187.77,39.79 188.25,39.46 188.78,37.12 188.92,34.25 188.96,31.38 189.26,30.84 189.30,36.06 190.06,33.40 191.02,30.85 191.89,30.49 192.11,29.71 194.05,34.93 194.71,32.05 194.82,31.44 195.05,29.72 197.62,27.41 197.93,25.00 204.92,30.26 206.90,27.86 208.20,33.10 208.33,38.25 208.44,39.77 212.95,36.92 215.29,42.07 215.94,41.28 218.95,38.72 219.28,43.86 219.29,48.94 219.38,48.24 219.44,53.28 219.53,53.06 219.66,58.07 226.45,63.05 226.46,67.93 226.67,68.93 227.14,66.22 227.42,71.11 227.62,69.48 227.87,67.07 228.25,66.56 230.49,64.37 231.01,62.50 231.60,67.43 231.73,67.16 233.33,65.28 233.79,70.19 234.26,75.05 234.31,72.75 240.32,77.59 247.48,82.38 251.26,80.29 251.97,78.77 252.50,83.54 253.57,88.28 255.60,86.85 258.33,86.07 258.49,83.57 260.41,88.30 260.53,89.17 260.64,90.52 261.32,88.41 261.61,87.53 270.58,86.16 272.56,84.25 273.33,88.97 273.42,88.46 273.53,87.93 273.98,85.90 274.12,90.58 275.28,88.68 276.16,87.87 278.74,87.28 279.42,84.94 279.50,82.31 279.65,80.40 281.93,78.17 289.77,75.51 291.20,72.83 294.53,70.55 297.58,75.41 297.66,74.06 297.83,74.26 298.30,71.37 300.05,69.11 300.50,73.97 300.57,78.77 300.61,77.01 300.71,81.81 300.75,80.14 300.88,84.90 301.30,82.47 303.07,80.97 303.39,85.72 303.47,84.77 303.57,83.84 303.73,81.49 303.86,79.24 304.05,77.84 310.92,76.10 312.10,73.89 312.29,71.38 312.76,71.00 312.92,69.53 313.02,67.14 313.38,72.03 315.12,69.75 315.46,67.66 315.86,65.51 316.40,62.94 318.58,61.57 318.95,58.80 318.98,56.20 319.11,53.64 319.39,51.43 322.04,49.34 324.79,47.59 324.91,52.66 332.99,50.13 334.11,48.01 336.76,46.43 337.28,43.83 338.50,40.98 342.97,46.12 343.05,43.97 343.20,42.32 343.56,41.58 353.37,41.05 355.28,38.46 355.49,36.43 356.51,33.54 357.73,38.73 359.73,43.88 360.98,41.90 361.62,39.27 363.51,36.96 364.55,42.13 364.70,43.40 364.74,41.75 365.57,38.89 376.33,44.04 376.37,41.57 376.70,46.69 382.37,51.76 386.08,49.55 387.45,48.49 396.05,46.75 397.81,47.04 400.11,44.63 403.69,41.81 409.10,46.92 409.75,44.33 419.31,49.42 419.45,50.69 421.83,48.61 425.50,45.78 427.88,50.87 440.12,55.92 440.27,54.29 440.36,59.25 443.25,57.54 445.98,55.75 446.17,53.13 448.96,51.57 449.00,48.76 449.06,53.82 449.09,51.48 452.02,48.66 452.05,46.18 452.20,44.94 452.52,42.09 465.62,39.22 467.20,37.76 468.63,35.93 473.91,41.10 484.89,38.51 488.51,43.66 488.62,43.71 489.05,40.87 490.86,38.01 491.85,35.66 492.00,35.55 492.09,40.72 494.51,38.06 506.01,36.04 506.82,41.22 509.68,38.51 509.89,35.86 512.77,35.58 527.48,40.76 527.55,38.93 527.65,44.07 528.07,42.04 530.26,39.16 533.73,36.43 534.17,34.87 536.81,31.96 536.87,37.16 536.92,42.29 537.05,40.09 537.17,45.22 537.57,44.13 545.33,49.24 548.34,48.88 548.70,46.55 548.91,51.63 549.73,50.78 552.16,55.82 552.66,53.62 554.99,51.01 555.33,52.71 555.55,50.19 557.93,47.63 566.37,46.25 567.50,45.87 573.88,50.96 573.96,50.00 576.89,55.05 579.69,54.34 591.12,53.16 591.83,58.18 594.21,55.38 595.08,52.58 598.07,52.69 612.65,51.05 615.99,48.24 618.57,45.40 630.03,42.98 633.64,44.26 640.23,42.75 657.29,42.20 660.84,39.33 672.58,38.17 682.55,36.46 682.88,34.03 697.45,32.45 699.58,29.80 700.76,29.40 706.76,34.63 706.90,34.62 715.12,32.76 715.72,37.96 727.60,35.06 727.82,40.24 727.93,40.67 728.03,45.81 728.07,43.84 743.48,48.95 757.68,47.83 764.18,52.91 764.28,51.05 764.47,51.92 769.45,51.47 788.88,56.50 789.00,56.90 800.58,57.11 803.78,62.09 806.90,60.51 812.48,58.29 812.86,63.27 824.00,63.91 827.65,62.61 830.60,59.84 842.87,58.55 846.41,57.94 866.32,57.18 870.65,54.62 873.25,54.23 876.01,51.89 883.69,56.93 883.74,55.48 887.53,52.92 891.20,51.16 897.19,48.73 897.36,53.80 918.89,52.83 930.35,51.61 936.49,48.76 947.17,46.39 952.11,44.79 954.94,44.04 970.28,42.65 970.36,41.45 970.45,46.58 973.12,45.45 976.48,43.17 982.34,40.91 991.77,39.31 993.64,44.45 993.72,43.51 993.85,43.42 1021.57,41.07 1033.92,38.18 1041.89,35.79 1045.48,35.80 1064.12,35.82 1065.01,32.91 1066.01,38.11 1067.11,37.93 1074.36,36.78 1088.14,37.36 1088.20,42.53 1096.44,47.65 1096.51,46.11 1097.56,43.45 1100.10,41.96 1109.27,47.08 1109.46,47.52 1109.57,48.38 1120.70,48.97 1125.89,46.70 1126.04,44.65 1126.24,44.57 1128.98,43.08 1130.71,42.92 1142.74,40.04 1145.78,38.08 1164.03,43.24 1168.96,43.05 1170.00,41.61"/>
<text x="620.0" y="588" text-anchor="middle" font-family="sans-serif" font-size="12" fill="#333">UTC time</text>
<text x="15" y="287.5" transform="rotate(-90 15,287.5)" text-anchor="middle" font-family="sans-serif" font-size="12" fill="#333">Capital</text>
</svg>