<svg xmlns="http://www.w3.org/2000/svg" width="1200" height="600" viewBox="0 0 1200 600">
<desc>Equity curve with drawdown fill; x-axis is months only (no exact timestamps)</desc>
<text x="600.0" y="18.0" text-anchor="middle" font-family="sans-serif" font-size="14">Balance Curve 2025 (UTC)</text>
<rect x="70" y="25" width="1100" height="525" fill="white" stroke="#ccc" />
<line x1="70" y1="550.00" x2="1170" y2="550.00" stroke="#eee"/>
<text x="62" y="554.0" text-anchor="end" font-family="sans-serif" font-size="11" fill="#555">0.00</text>
<line x1="70" y1="445.00" x2="1170" y2="445.00" stroke="#eee"/>
<text x="62" y="449.0" text-anchor="end" font-family="sans-serif" font-size="11" fill="#555">781602</text>
<line x1="70" y1="340.00" x2="1170" y2="340.00" stroke="#eee"/>
<text x="62" y="344.0" text-anchor="end" font-family="sans-serif" font-size="11" fill="#555">1563204</text>
<line x1="70" y1="235.00" x2="1170" y2="235.00" stroke="#eee"/>
<text x="62" y="239.0" text-anchor="end" font-family="sans-serif" font-size="11" fill="#555">2344806</text>
<line x1="70" y1="130.00" x2="1170" y2="130.00" stroke="#eee"/>
<text x="62" y="134.0" text-anchor="end" font-family="sans-serif" font-size="11" fill="#555">3126408</text>
<line x1="70" y1="25.00" x2="1170" y2="25.00" stroke="#eee"/>
<text x="62" y="29.0" text-anchor="end" font-family="sans-serif" font-size="11" fill="#555">3908010</text>
<line x1="207.50" y1="25" x2="207.50" y2="550" stroke="#f2f2f2"/>
<line x1="345.00" y1="25" x2="345.00" y2="550" stroke="#f2f2f2"/>
<line x1="482.50" y1="25" x2="482.50" y2="550" stroke="#f2f2f2"/>
<line x1="620.00" y1="25" x2="620.00" y2="550" stroke="#f2f2f2"/>
<line x1="757.50" y1="25" x2="757.50" y2="550" stroke="#f2f2f2"/>
<line x1="895.00" y1="25" x2="895.00" y2="550" stroke="#f2f2f2"/>
<line x1="1032.50" y1="25" x2="1032.50" y2="550" stroke="#f2f2f2"/>
<text x="138.75" y="566.00" text-anchor="middle" font-family="sans-serif" font-size="11" fill="#444">Jan</text>
<text x="276.25" y="566.00" text-anchor="middle" font-family="sans-serif" font-size="11" fill="#444">Feb</text>
<text x="413.75" y="566.00" text-anchor="middle" font-family="sans-serif" font-size="11" fill="#444">Mar</text>
<text x="551.25" y="566.00" text-anchor="middle" font-family="sans-serif" font-size="11" fill="#444">Apr</text>
<text x="688.75" y="566.00" text-anchor="middle" font-family="sans-serif" font-size="11" fill="#444">May</text>
<text x="826.25" y="566.00" text-anchor="middle" font-family="sans-serif" font-size="11" fill="#444">Jun</text>
<text x="963.75" y="566.00" text-anchor="middle" font-family="sans-serif" font-size="11" fill="#444">Jul</text>
<text x="1101.25" y="566.00" text-anchor="middle" font-family="sans-serif" font-size="11" fill="#444">Aug</text>
<line x1="70" y1="550" x2="1170" y2="550" stroke="#888"/>
<line x1="70" y1="25" x2="70" y2="550" stroke="#888"/>
<line x1="75.73" y1="550.00" x2="75.73" y2="556.00" stroke="#888"/>
<line x1="1135.62"   y1="550.00" x2="1135.62"   y2="556.00" stroke="#888"/>
<text x="75.73" y="582.00" text-anchor="start" font-family="sans-serif" font-size="11" fill="#333">Initial Balance: 3795868</text>
<text x="1135.62"   y="582.00" text-anchor="end"   font-family="sans-serif" font-size="11" fill="#333">Ending Balance: 3841917</text>
<path d="M 98.65 39.14 L 110.10 39.14 L 121.56 39.14 L 133.02 39.14 L 144.48 39.14 L 144.48 39.57 L 133.02 41.18 L 121.56 41.79 L 110.10 43.05 L 98.65 42.67 Z" fill="#d0d0d0" fill-opacity="0.5" stroke="none"/>
<path d="M 356.46 28.04 L 379.38 28.04 L 402.29 28.04 L 402.29 28.83 L 379.38 30.14 L 356.46 31.63 Z" fill="#d0d0d0" fill-opacity="0.5" stroke="none"/>
<path d="M 485.94 25.71 L 492.81 25.71 L 499.69 25.71 L 499.69 27.93 L 492.81 27.85 L 485.94 29.40 Z" fill="#d0d0d0" fill-opacity="0.5" stroke="none"/>
<path d="M 513.44 25.00 L 520.31 25.00 L 527.19 25.00 L 534.06 25.00 L 540.94 25.00 L 547.81 25.00 L 554.69 25.00 L 561.56 25.00 L 568.44 25.00 L 575.31 25.00 L 582.19 25.00 L 589.06 25.00 L 595.94 25.00 L 602.81 25.00 L 609.69 25.00 L 616.56 25.00 L 633.75 25.00 L 661.25 25.00 L 688.75 25.00 L 716.25 25.00 L 743.75 25.00 L 780.42 25.00 L 826.25 25.00 L 872.08 25.00 L 908.75 25.00 L 936.25 25.00 L 963.75 25.00 L 991.25 25.00 L 1018.75 25.00 L 1066.88 25.00 L 1135.62 25.00 L 1135.62 33.88 L 1066.88 35.29 L 1018.75 36.81 L 991.25 32.90 L 963.75 34.34 L 936.25 36.57 L 908.75 32.64 L 872.08 35.39 L 826.25 37.08 L 780.42 38.52 L 743.75 40.16 L 716.25 36.33 L 688.75 38.59 L 661.25 34.76 L 633.75 36.44 L 616.56 32.61 L 609.69 32.95 L 602.81 29.09 L 595.94 29.88 L 589.06 31.54 L 582.19 31.32 L 575.31 26.07 L 568.44 29.00 L 561.56 25.19 L 554.69 26.52 L 547.81 29.30 L 540.94 30.42 L 534.06 30.39 L 527.19 31.33 L 520.31 31.75 L 513.44 30.26 Z" fill="#d0d0d0" fill-opacity="0.5" stroke="none"/>
<polyline fill="none" stroke="#111" stroke-width="1.2" points="75.73,40.07 87.19,39.14 98.65,42.67 110.10,43.05 121.56,41.79 133.02,41.18 144.48,39.57 155.94,37.41 167.40,35.79 178.85,34.17 190.31,33.69 201.77,32.24 230.42,31.10 276.25,29.66 322.08,28.04 356.46,31.63 379.38,30.14 402.29,28.83 425.21,27.64 448.12,26.84 471.04,25.71 485.94,29.40 492.81,27.85 499.69,27.93 506.56,25.00 513.44,30.26 520.31,31.75 527.19,31.33 534.06,30.39 540.94,30.42 547.81,29.30 554.69,26.52 561.56,25.19 568.44,29.00 575.31,26.07 582.19,31.32 589.06,31.54 595.94,29.88 602.81,29.09 609.69,32.95 616.56,32.61 633.75,36.44 661.25,34.76 688.75,38.59 716.25,36.33 743.75,40.16 780.42,38.52 826.25,37.08 872.08,35.39 908.75,32.64 936.25,36.57 963.75,34.34 991.25,32.90 1018.75,36.81 1066.88,35.29 1135.62,33.88"/>
<text x="15" y="287.5" transform="rotate(-90 15,287.5)" text-anchor="middle" font-family="sans-serif" font-size="12" fill="#333">USD</text>
</svg>