<svg xmlns="http://www.w3.org/2000/svg" width="1200" height="600" viewBox="0 0 1200 600">
<desc>Equity curve with drawdown fill; x-axis is months only (no exact timestamps)</desc>
<text x="600.0" y="18.0" text-anchor="middle" font-family="sans-serif" font-size="14">Balance Curve 2020 (UTC)</text>
<rect x="70" y="25" width="1100" height="525" fill="white" stroke="#ccc" />
<line x1="70" y1="550.00" x2="1170" y2="550.00" stroke="#eee"/>
<text x="62" y="554.0" text-anchor="end" font-family="sans-serif" font-size="11" fill="#555">0.00</text>
<line x1="70" y1="445.00" x2="1170" y2="445.00" stroke="#eee"/>
<text x="62" y="449.0" text-anchor="end" font-family="sans-serif" font-size="11" fill="#555">88045</text>
<line x1="70" y1="340.00" x2="1170" y2="340.00" stroke="#eee"/>
<text x="62" y="344.0" text-anchor="end" font-family="sans-serif" font-size="11" fill="#555">176090</text>
<line x1="70" y1="235.00" x2="1170" y2="235.00" stroke="#eee"/>
<text x="62" y="239.0" text-anchor="end" font-family="sans-serif" font-size="11" fill="#555">264136</text>
<line x1="70" y1="130.00" x2="1170" y2="130.00" stroke="#eee"/>
<text x="62" y="134.0" text-anchor="end" font-family="sans-serif" font-size="11" fill="#555">352181</text>
<line x1="70" y1="25.00" x2="1170" y2="25.00" stroke="#eee"/>
<text x="62" y="29.0" text-anchor="end" font-family="sans-serif" font-size="11" fill="#555">440226</text>
<line x1="161.67" y1="25" x2="161.67" y2="550" stroke="#f2f2f2"/>
<line x1="253.33" y1="25" x2="253.33" y2="550" stroke="#f2f2f2"/>
<line x1="345.00" y1="25" x2="345.00" y2="550" stroke="#f2f2f2"/>
<line x1="436.67" y1="25" x2="436.67" y2="550" stroke="#f2f2f2"/>
<line x1="528.33" y1="25" x2="528.33" y2="550" stroke="#f2f2f2"/>
<line x1="620.00" y1="25" x2="620.00" y2="550" stroke="#f2f2f2"/>
<line x1="711.67" y1="25" x2="711.67" y2="550" stroke="#f2f2f2"/>
<line x1="803.33" y1="25" x2="803.33" y2="550" stroke="#f2f2f2"/>
<line x1="895.00" y1="25" x2="895.00" y2="550" stroke="#f2f2f2"/>
<line x1="986.67" y1="25" x2="986.67" y2="550" stroke="#f2f2f2"/>
<line x1="1078.33" y1="25" x2="1078.33" y2="550" stroke="#f2f2f2"/>
<text x="115.83" y="566.00" text-anchor="middle" font-family="sans-serif" font-size="11" fill="#444">Jan</text>
<text x="207.50" y="566.00" text-anchor="middle" font-family="sans-serif" font-size="11" fill="#444">Feb</text>
<text x="299.17" y="566.00" text-anchor="middle" font-family="sans-serif" font-size="11" fill="#444">Mar</text>
<text x="390.83" y="566.00" text-anchor="middle" font-family="sans-serif" font-size="11" fill="#444">Apr</text>
<text x="482.50" y="566.00" text-anchor="middle" font-family="sans-serif" font-size="11" fill="#444">May</text>
<text x="574.17" y="566.00" text-anchor="middle" font-family="sans-serif" font-size="11" fill="#444">Jun</text>
<text x="665.83" y="566.00" text-anchor="middle" font-family="sans-serif" font-size="11" fill="#444">Jul</text>
<text x="757.50" y="566.00" text-anchor="middle" font-family="sans-serif" font-size="11" fill="#444">Aug</text>
<text x="849.17" y="566.00" text-anchor="middle" font-family="sans-serif" font-size="11" fill="#444">Sep</text>
<text x="940.83" y="566.00" text-anchor="middle" font-family="sans-serif" font-size="11" fill="#444">Oct</text>
<text x="1032.50" y="566.00" text-anchor="middle" font-family="sans-serif" font-size="11" fill="#444">Nov</text>
<text x="1124.17" y="566.00" text-anchor="middle" font-family="sans-serif" font-size="11" fill="#444">Dec</text>
<line x1="70" y1="550" x2="1170" y2="550" stroke="#888"/>
<line x1="70" y1="25" x2="70" y2="550" stroke="#888"/>
<line x1="85.28" y1="550.00" x2="85.28" y2="556.00" stroke="#888"/>
<line x1="1165.42"   y1="550.00" x2="1165.42"   y2="556.00" stroke="#888"/>
<text x="85.28" y="582.00" text-anchor="start" font-family="sans-serif" font-size="11" fill="#333">Initial Balance: 357399</text>
<text x="1165.42"   y="582.00" text-anchor="end"   font-family="sans-serif" font-size="11" fill="#333">Ending Balance: 435375</text>
<path d="M 253.96 116.45 L 255.22 116.45 L 256.47 116.45 L 257.73 116.45 L 257.73 117.86 L 256.47 119.98 L 255.22 121.46 L 253.96 120.78 Z" fill="#d0d0d0" fill-opacity="0.5" stroke="none"/>
<path d="M 260.24 115.29 L 261.50 115.29 L 262.75 115.29 L 264.01 115.29 L 265.26 115.29 L 266.52 115.29 L 267.77 115.29 L 269.03 115.29 L 270.29 115.29 L 270.29 115.32 L 269.03 117.66 L 267.77 118.59 L 266.52 120.91 L 265.26 122.53 L 264.01 118.22 L 262.75 119.38 L 261.50 120.71 L 260.24 119.60 Z" fill="#d0d0d0" fill-opacity="0.5" stroke="none"/>
<path d="M 274.05 113.46 L 275.31 113.46 L 276.56 113.46 L 277.82 113.46 L 279.08 113.46 L 280.33 113.46 L 281.59 113.46 L 282.84 113.46 L 284.10 113.46 L 285.35 113.46 L 286.61 113.46 L 287.87 113.46 L 289.12 113.46 L 290.38 113.46 L 291.63 113.46 L 292.89 113.46 L 294.14 113.46 L 295.40 113.46 L 296.66 113.46 L 297.91 113.46 L 299.17 113.46 L 300.42 113.46 L 301.68 113.46 L 302.93 113.46 L 304.19 113.46 L 305.45 113.46 L 306.70 113.46 L 307.96 113.46 L 309.21 113.46 L 310.47 113.46 L 311.72 113.46 L 312.98 113.46 L 314.24 113.46 L 315.49 113.46 L 316.75 113.46 L 318.00 113.46 L 318.00 114.17 L 316.75 113.83 L 315.49 116.08 L 314.24 118.57 L 312.98 120.40 L 311.72 122.63 L 310.47 118.31 L 309.21 120.87 L 307.96 116.53 L 306.70 119.01 L 305.45 121.46 L 304.19 123.54 L 302.93 125.86 L 301.68 128.30 L 300.42 130.65 L 299.17 126.41 L 297.91 122.13 L 296.66 123.97 L 295.40 126.26 L 294.14 128.41 L 292.89 124.15 L 291.63 125.85 L 290.38 121.57 L 289.12 117.28 L 287.87 119.87 L 286.61 122.13 L 285.35 124.42 L 284.10 125.65 L 282.84 128.08 L 281.59 123.82 L 280.33 119.52 L 279.08 121.99 L 277.82 117.69 L 276.56 120.31 L 275.31 122.14 L 274.05 117.82 Z" fill="#d0d0d0" fill-opacity="0.5" stroke="none"/>
<path d="M 325.54 103.62 L 326.79 103.62 L 328.05 103.62 L 328.05 104.40 L 326.79 106.67 L 325.54 108.09 Z" fill="#d0d0d0" fill-opacity="0.5" stroke="none"/>
<path d="M 331.82 100.68 L 333.07 100.68 L 333.07 102.78 L 331.82 105.17 Z" fill="#d0d0d0" fill-opacity="0.5" stroke="none"/>
<path d="M 340.61 90.74 L 341.86 90.74 L 341.86 92.53 L 340.61 95.28 Z" fill="#d0d0d0" fill-opacity="0.5" stroke="none"/>
<path d="M 757.50 50.82 L 757.50 51.81 Z" fill="#d0d0d0" fill-opacity="0.5" stroke="none"/>
<path d="M 810.97 47.70 L 826.25 47.70 L 841.53 47.70 L 856.81 47.70 L 872.08 47.70 L 872.08 50.15 L 856.81 52.77 L 841.53 55.61 L 826.25 50.66 L 810.97 52.67 Z" fill="#d0d0d0" fill-opacity="0.5" stroke="none"/>
<path d="M 995.83 44.67 L 1014.17 44.67 L 1032.50 44.67 L 1032.50 44.69 L 1014.17 46.70 L 995.83 49.66 Z" fill="#d0d0d0" fill-opacity="0.5" stroke="none"/>
<path d="M 1147.08 25.00 L 1156.25 25.00 L 1165.42 25.00 L 1165.42 30.79 L 1156.25 29.67 L 1147.08 30.16 Z" fill="#d0d0d0" fill-opacity="0.5" stroke="none"/>
<polyline fill="none" stroke="#111" stroke-width="1.2" points="85.28,123.78 115.83,122.04 146.39,119.55 184.58,118.31 230.42,116.45 253.96,120.78 255.22,121.46 256.47,119.98 257.73,117.86 258.98,115.29 260.24,119.60 261.50,120.71 262.75,119.38 264.01,118.22 265.26,122.53 266.52,120.91 267.77,118.59 269.03,117.66 270.29,115.32 271.54,113.64 272.80,113.46 274.05,117.82 275.31,122.14 276.56,120.31 277.82,117.69 279.08,121.99 280.33,119.52 281.59,123.82 282.84,128.08 284.10,125.65 285.35,124.42 286.61,122.13 287.87,119.87 289.12,117.28 290.38,121.57 291.63,125.85 292.89,124.15 294.14,128.41 295.40,126.26 296.66,123.97 297.91,122.13 299.17,126.41 300.42,130.65 301.68,128.30 302.93,125.86 304.19,123.54 305.45,121.46 306.70,119.01 307.96,116.53 309.21,120.87 310.47,118.31 311.72,122.63 312.98,120.40 314.24,118.57 315.49,116.08 316.75,113.83 318.00,114.17 319.26,111.66 320.51,109.62 321.77,107.07 323.03,104.87 324.28,103.62 325.54,108.09 326.79,106.67 328.05,104.40 329.30,102.24 330.56,100.68 331.82,105.17 333.07,102.78 334.33,100.46 335.58,98.04 336.84,96.08 338.09,93.45 339.35,90.74 340.61,95.28 341.86,92.53 343.12,89.88 344.37,88.37 352.64,85.95 367.92,85.45 383.19,83.58 398.47,83.05 413.75,80.85 429.03,78.89 445.83,76.17 464.17,74.10 482.50,71.65 500.83,69.75 519.17,68.09 535.97,66.19 551.25,63.41 566.53,61.61 581.81,59.83 597.08,57.55 612.36,57.00 665.83,54.70 720.83,53.23 739.17,50.82 757.50,51.81 775.83,50.56 794.17,47.70 810.97,52.67 826.25,50.66 841.53,55.61 856.81,52.77 872.08,50.15 887.36,47.55 940.83,44.67 995.83,49.66 1014.17,46.70 1032.50,44.69 1050.83,44.33 1069.17,41.43 1082.92,39.55 1092.08,36.62 1101.25,33.68 1110.42,30.96 1119.58,28.26 1128.75,26.47 1137.92,25.00 1147.08,30.16 1156.25,29.67 1165.42,30.79"/>
<text x="15" y="287.5" transform="rotate(-90 15,287.5)" text-anchor="middle" font-family="sans-serif" font-size="12" fill="#333">USD</text>
</svg>