<svg xmlns="http://www.w3.org/2000/svg" width="1200" height="600" viewBox="0 0 1200 600">
<desc>Equity curve with drawdown fill; x-axis is months only (no exact timestamps)</desc>
<text x="600.0" y="18.0" text-anchor="middle" font-family="sans-serif" font-size="14">Balance Curve 2003 (UTC)</text>
<rect x="70" y="25" width="1100" height="525" fill="white" stroke="#ccc" />
<line x1="70" y1="550.00" x2="1170" y2="550.00" stroke="#eee"/>
<text x="62" y="554.0" text-anchor="end" font-family="sans-serif" font-size="11" fill="#555">0.00</text>
<line x1="70" y1="445.00" x2="1170" y2="445.00" stroke="#eee"/>
<text x="62" y="449.0" text-anchor="end" font-family="sans-serif" font-size="11" fill="#555">21799</text>
<line x1="70" y1="340.00" x2="1170" y2="340.00" stroke="#eee"/>
<text x="62" y="344.0" text-anchor="end" font-family="sans-serif" font-size="11" fill="#555">43598</text>
<line x1="70" y1="235.00" x2="1170" y2="235.00" stroke="#eee"/>
<text x="62" y="239.0" text-anchor="end" font-family="sans-serif" font-size="11" fill="#555">65397</text>
<line x1="70" y1="130.00" x2="1170" y2="130.00" stroke="#eee"/>
<text x="62" y="134.0" text-anchor="end" font-family="sans-serif" font-size="11" fill="#555">87196</text>
<line x1="70" y1="25.00" x2="1170" y2="25.00" stroke="#eee"/>
<text x="62" y="29.0" text-anchor="end" font-family="sans-serif" font-size="11" fill="#555">108995</text>
<line x1="161.67" y1="25" x2="161.67" y2="550" stroke="#f2f2f2"/>
<line x1="253.33" y1="25" x2="253.33" y2="550" stroke="#f2f2f2"/>
<line x1="345.00" y1="25" x2="345.00" y2="550" stroke="#f2f2f2"/>
<line x1="436.67" y1="25" x2="436.67" y2="550" stroke="#f2f2f2"/>
<line x1="528.33" y1="25" x2="528.33" y2="550" stroke="#f2f2f2"/>
<line x1="620.00" y1="25" x2="620.00" y2="550" stroke="#f2f2f2"/>
<line x1="711.67" y1="25" x2="711.67" y2="550" stroke="#f2f2f2"/>
<line x1="803.33" y1="25" x2="803.33" y2="550" stroke="#f2f2f2"/>
<line x1="895.00" y1="25" x2="895.00" y2="550" stroke="#f2f2f2"/>
<line x1="986.67" y1="25" x2="986.67" y2="550" stroke="#f2f2f2"/>
<line x1="1078.33" y1="25" x2="1078.33" y2="550" stroke="#f2f2f2"/>
<text x="115.83" y="566.00" text-anchor="middle" font-family="sans-serif" font-size="11" fill="#444">Jan</text>
<text x="207.50" y="566.00" text-anchor="middle" font-family="sans-serif" font-size="11" fill="#444">Feb</text>
<text x="299.17" y="566.00" text-anchor="middle" font-family="sans-serif" font-size="11" fill="#444">Mar</text>
<text x="390.83" y="566.00" text-anchor="middle" font-family="sans-serif" font-size="11" fill="#444">Apr</text>
<text x="482.50" y="566.00" text-anchor="middle" font-family="sans-serif" font-size="11" fill="#444">May</text>
<text x="574.17" y="566.00" text-anchor="middle" font-family="sans-serif" font-size="11" fill="#444">Jun</text>
<text x="665.83" y="566.00" text-anchor="middle" font-family="sans-serif" font-size="11" fill="#444">Jul</text>
<text x="757.50" y="566.00" text-anchor="middle" font-family="sans-serif" font-size="11" fill="#444">Aug</text>
<text x="849.17" y="566.00" text-anchor="middle" font-family="sans-serif" font-size="11" fill="#444">Sep</text>
<text x="940.83" y="566.00" text-anchor="middle" font-family="sans-serif" font-size="11" fill="#444">Oct</text>
<text x="1032.50" y="566.00" text-anchor="middle" font-family="sans-serif" font-size="11" fill="#444">Nov</text>
<text x="1124.17" y="566.00" text-anchor="middle" font-family="sans-serif" font-size="11" fill="#444">Dec</text>
<line x1="70" y1="550" x2="1170" y2="550" stroke="#888"/>
<line x1="70" y1="25" x2="70" y2="550" stroke="#888"/>
<line x1="76.55" y1="550.00" x2="76.55" y2="556.00" stroke="#888"/>
<line x1="1158.54"   y1="550.00" x2="1158.54"   y2="556.00" stroke="#888"/>
<text x="76.55" y="582.00" text-anchor="start" font-family="sans-serif" font-size="11" fill="#333">Initial Balance: 100000</text>
<text x="1158.54"   y="582.00" text-anchor="end"   font-family="sans-serif" font-size="11" fill="#333">Ending Balance: 108452</text>
<path d="M 89.64 68.33 L 102.74 68.33 L 115.83 68.33 L 128.93 68.33 L 142.02 68.33 L 155.12 68.33 L 169.31 68.33 L 184.58 68.33 L 199.86 68.33 L 215.14 68.33 L 230.42 68.33 L 245.69 68.33 L 256.03 68.33 L 261.42 68.33 L 266.81 68.33 L 266.81 70.18 L 261.42 72.29 L 256.03 74.07 L 245.69 72.73 L 230.42 74.49 L 215.14 76.53 L 199.86 77.28 L 184.58 77.17 L 169.31 72.36 L 155.12 73.63 L 142.02 75.36 L 128.93 76.24 L 115.83 75.56 L 102.74 78.05 L 89.64 73.24 Z" fill="#d0d0d0" fill-opacity="0.5" stroke="none"/>
<path d="M 277.60 67.48 L 282.99 67.48 L 288.38 67.48 L 293.77 67.48 L 299.17 67.48 L 304.56 67.48 L 309.95 67.48 L 315.34 67.48 L 320.74 67.48 L 326.13 67.48 L 331.52 67.48 L 336.91 67.48 L 342.30 67.48 L 350.09 67.48 L 360.28 67.48 L 370.46 67.48 L 380.65 67.48 L 380.65 68.60 L 370.46 70.59 L 360.28 71.64 L 350.09 73.92 L 342.30 73.34 L 336.91 74.16 L 331.52 74.90 L 326.13 76.54 L 320.74 79.01 L 315.34 80.24 L 309.95 82.40 L 304.56 77.60 L 299.17 79.53 L 293.77 74.69 L 288.38 75.43 L 282.99 70.54 L 277.60 72.34 Z" fill="#d0d0d0" fill-opacity="0.5" stroke="none"/>
<path d="M 441.76 62.34 L 451.94 62.34 L 462.13 62.34 L 462.13 63.94 L 451.94 65.29 L 441.76 67.30 Z" fill="#d0d0d0" fill-opacity="0.5" stroke="none"/>
<path d="M 482.50 61.58 L 482.50 62.47 Z" fill="#d0d0d0" fill-opacity="0.5" stroke="none"/>
<path d="M 513.06 59.09 L 513.06 59.78 Z" fill="#d0d0d0" fill-opacity="0.5" stroke="none"/>
<path d="M 557.50 53.56 L 565.83 53.56 L 574.17 53.56 L 582.50 53.56 L 582.50 54.93 L 574.17 56.97 L 565.83 56.89 L 557.50 58.57 Z" fill="#d0d0d0" fill-opacity="0.5" stroke="none"/>
<path d="M 665.83 41.10 L 676.02 41.10 L 686.20 41.10 L 696.39 41.10 L 706.57 41.10 L 717.40 41.10 L 728.85 41.10 L 740.31 41.10 L 751.77 41.10 L 763.23 41.10 L 763.23 42.28 L 751.77 44.70 L 740.31 47.31 L 728.85 42.16 L 717.40 44.18 L 706.57 46.35 L 696.39 48.56 L 686.20 47.58 L 676.02 48.68 L 665.83 43.53 Z" fill="#d0d0d0" fill-opacity="0.5" stroke="none"/>
<path d="M 809.88 35.63 L 822.98 35.63 L 836.07 35.63 L 849.17 35.63 L 862.26 35.63 L 875.36 35.63 L 888.45 35.63 L 898.82 35.63 L 906.46 35.63 L 906.46 35.97 L 898.82 38.71 L 888.45 40.95 L 875.36 42.28 L 862.26 40.70 L 849.17 43.40 L 836.07 43.57 L 822.98 46.00 L 809.88 40.86 Z" fill="#d0d0d0" fill-opacity="0.5" stroke="none"/>
<path d="M 929.38 34.59 L 937.01 34.59 L 944.65 34.59 L 952.29 34.59 L 952.29 36.90 L 944.65 39.35 L 937.01 40.75 L 929.38 35.52 Z" fill="#d0d0d0" fill-opacity="0.5" stroke="none"/>
<path d="M 967.57 34.53 L 975.21 34.53 L 982.85 34.53 L 982.85 34.91 L 975.21 37.65 L 967.57 39.76 Z" fill="#d0d0d0" fill-opacity="0.5" stroke="none"/>
<path d="M 1135.62 25.00 L 1158.54 25.00 L 1158.54 27.62 L 1135.62 30.32 Z" fill="#d0d0d0" fill-opacity="0.5" stroke="none"/>
<polyline fill="none" stroke="#111" stroke-width="1.2" points="76.55,68.33 89.64,73.24 102.74,78.05 115.83,75.56 128.93,76.24 142.02,75.36 155.12,73.63 169.31,72.36 184.58,77.17 199.86,77.28 215.14,76.53 230.42,74.49 245.69,72.73 256.03,74.07 261.42,72.29 266.81,70.18 272.21,67.48 277.60,72.34 282.99,70.54 288.38,75.43 293.77,74.69 299.17,79.53 304.56,77.60 309.95,82.40 315.34,80.24 320.74,79.01 326.13,76.54 331.52,74.90 336.91,74.16 342.30,73.34 350.09,73.92 360.28,71.64 370.46,70.59 380.65,68.60 390.83,66.33 401.02,64.89 411.20,62.84 421.39,62.60 431.57,62.34 441.76,67.30 451.94,65.29 462.13,63.94 472.31,61.58 482.50,62.47 492.69,60.82 502.87,59.09 513.06,59.78 523.24,57.64 532.50,56.96 540.83,56.19 549.17,53.56 557.50,58.57 565.83,56.89 574.17,56.97 582.50,54.93 590.83,52.83 599.17,51.36 607.50,50.15 615.83,48.34 625.09,46.98 635.28,45.45 645.46,43.26 655.65,41.10 665.83,43.53 676.02,48.68 686.20,47.58 696.39,48.56 706.57,46.35 717.40,44.18 728.85,42.16 740.31,47.31 751.77,44.70 763.23,42.28 774.69,39.85 786.15,37.76 797.60,35.63 809.88,40.86 822.98,46.00 836.07,43.57 849.17,43.40 862.26,40.70 875.36,42.28 888.45,40.95 898.82,38.71 906.46,35.97 914.10,34.69 921.74,34.59 929.38,35.52 937.01,40.75 944.65,39.35 952.29,36.90 959.93,34.53 967.57,39.76 975.21,37.65 982.85,34.91 1009.58,32.15 1055.42,30.29 1089.79,27.52 1112.71,25.00 1135.62,30.32 1158.54,27.62"/>
<text x="15" y="287.5" transform="rotate(-90 15,287.5)" text-anchor="middle" font-family="sans-serif" font-size="12" fill="#333">USD</text>
</svg>