<svg xmlns="http://www.w3.org/2000/svg" width="1200" height="600" viewBox="0 0 1200 600">
<desc>Equity curve with drawdown fill; x-axis is months only (no exact timestamps)</desc>
<text x="600.0" y="18.0" text-anchor="middle" font-family="sans-serif" font-size="14">Balance Curve 2015 (UTC)</text>
<rect x="70" y="25" width="1100" height="525" fill="white" stroke="#ccc" />
<line x1="70" y1="550.00" x2="1170" y2="550.00" stroke="#eee"/>
<text x="62" y="554.0" text-anchor="end" font-family="sans-serif" font-size="11" fill="#555">0.00</text>
<line x1="70" y1="445.00" x2="1170" y2="445.00" stroke="#eee"/>
<text x="62" y="449.0" text-anchor="end" font-family="sans-serif" font-size="11" fill="#555">815152</text>
<line x1="70" y1="340.00" x2="1170" y2="340.00" stroke="#eee"/>
<text x="62" y="344.0" text-anchor="end" font-family="sans-serif" font-size="11" fill="#555">1630303</text>
<line x1="70" y1="235.00" x2="1170" y2="235.00" stroke="#eee"/>
<text x="62" y="239.0" text-anchor="end" font-family="sans-serif" font-size="11" fill="#555">2445455</text>
<line x1="70" y1="130.00" x2="1170" y2="130.00" stroke="#eee"/>
<text x="62" y="134.0" text-anchor="end" font-family="sans-serif" font-size="11" fill="#555">3260606</text>
<line x1="70" y1="25.00" x2="1170" y2="25.00" stroke="#eee"/>
<text x="62" y="29.0" text-anchor="end" font-family="sans-serif" font-size="11" fill="#555">4075758</text>
<line x1="161.67" y1="25" x2="161.67" y2="550" stroke="#f2f2f2"/>
<line x1="253.33" y1="25" x2="253.33" y2="550" stroke="#f2f2f2"/>
<line x1="345.00" y1="25" x2="345.00" y2="550" stroke="#f2f2f2"/>
<line x1="436.67" y1="25" x2="436.67" y2="550" stroke="#f2f2f2"/>
<line x1="528.33" y1="25" x2="528.33" y2="550" stroke="#f2f2f2"/>
<line x1="620.00" y1="25" x2="620.00" y2="550" stroke="#f2f2f2"/>
<line x1="711.67" y1="25" x2="711.67" y2="550" stroke="#f2f2f2"/>
<line x1="803.33" y1="25" x2="803.33" y2="550" stroke="#f2f2f2"/>
<line x1="895.00" y1="25" x2="895.00" y2="550" stroke="#f2f2f2"/>
<line x1="986.67" y1="25" x2="986.67" y2="550" stroke="#f2f2f2"/>
<line x1="1078.33" y1="25" x2="1078.33" y2="550" stroke="#f2f2f2"/>
<text x="115.83" y="566.00" text-anchor="middle" font-family="sans-serif" font-size="11" fill="#444">Jan</text>
<text x="207.50" y="566.00" text-anchor="middle" font-family="sans-serif" font-size="11" fill="#444">Feb</text>
<text x="299.17" y="566.00" text-anchor="middle" font-family="sans-serif" font-size="11" fill="#444">Mar</text>
<text x="390.83" y="566.00" text-anchor="middle" font-family="sans-serif" font-size="11" fill="#444">Apr</text>
<text x="482.50" y="566.00" text-anchor="middle" font-family="sans-serif" font-size="11" fill="#444">May</text>
<text x="574.17" y="566.00" text-anchor="middle" font-family="sans-serif" font-size="11" fill="#444">Jun</text>
<text x="665.83" y="566.00" text-anchor="middle" font-family="sans-serif" font-size="11" fill="#444">Jul</text>
<text x="757.50" y="566.00" text-anchor="middle" font-family="sans-serif" font-size="11" fill="#444">Aug</text>
<text x="849.17" y="566.00" text-anchor="middle" font-family="sans-serif" font-size="11" fill="#444">Sep</text>
<text x="940.83" y="566.00" text-anchor="middle" font-family="sans-serif" font-size="11" fill="#444">Oct</text>
<text x="1032.50" y="566.00" text-anchor="middle" font-family="sans-serif" font-size="11" fill="#444">Nov</text>
<text x="1124.17" y="566.00" text-anchor="middle" font-family="sans-serif" font-size="11" fill="#444">Dec</text>
<line x1="70" y1="550" x2="1170" y2="550" stroke="#888"/>
<line x1="70" y1="25" x2="70" y2="550" stroke="#888"/>
<line x1="77.64" y1="550.00" x2="77.64" y2="556.00" stroke="#888"/>
<line x1="1158.54"   y1="550.00" x2="1158.54"   y2="556.00" stroke="#888"/>
<text x="77.64" y="582.00" text-anchor="start" font-family="sans-serif" font-size="11" fill="#333">Initial Balance: 3542053</text>
<text x="1158.54"   y="582.00" text-anchor="end"   font-family="sans-serif" font-size="11" fill="#333">Ending Balance: 4058656</text>
<path d="M 165.83 86.25 L 174.17 86.25 L 182.50 86.25 L 182.50 87.64 L 174.17 89.23 L 165.83 89.94 Z" fill="#d0d0d0" fill-opacity="0.5" stroke="none"/>
<path d="M 255.33 77.91 L 259.31 77.91 L 263.30 77.91 L 267.28 77.91 L 271.27 77.91 L 271.27 78.02 L 267.28 80.30 L 263.30 81.89 L 259.31 78.45 L 255.33 78.89 Z" fill="#d0d0d0" fill-opacity="0.5" stroke="none"/>
<path d="M 279.24 77.09 L 283.22 77.09 L 287.21 77.09 L 287.21 78.60 L 283.22 78.68 L 279.24 80.64 Z" fill="#d0d0d0" fill-opacity="0.5" stroke="none"/>
<path d="M 311.12 70.76 L 315.11 70.76 L 319.09 70.76 L 319.09 71.16 L 315.11 72.77 L 311.12 74.29 Z" fill="#d0d0d0" fill-opacity="0.5" stroke="none"/>
<path d="M 361.89 57.80 L 366.71 57.80 L 371.54 57.80 L 371.54 57.89 L 366.71 58.87 L 361.89 61.26 Z" fill="#d0d0d0" fill-opacity="0.5" stroke="none"/>
<path d="M 381.18 56.28 L 386.01 56.28 L 390.83 56.28 L 395.66 56.28 L 400.48 56.28 L 405.31 56.28 L 410.13 56.28 L 414.96 56.28 L 419.78 56.28 L 424.61 56.28 L 429.43 56.28 L 434.25 56.28 L 439.72 56.28 L 445.83 56.28 L 451.94 56.28 L 458.06 56.28 L 464.17 56.28 L 470.28 56.28 L 476.39 56.28 L 476.39 56.44 L 470.28 58.14 L 464.17 59.85 L 458.06 61.98 L 451.94 58.29 L 445.83 59.13 L 439.72 60.83 L 434.25 61.48 L 429.43 63.00 L 424.61 59.41 L 419.78 62.00 L 414.96 62.64 L 410.13 59.11 L 405.31 59.96 L 400.48 61.10 L 395.66 60.75 L 390.83 62.22 L 386.01 58.72 L 381.18 59.77 Z" fill="#d0d0d0" fill-opacity="0.5" stroke="none"/>
<path d="M 494.72 54.09 L 500.83 54.09 L 506.94 54.09 L 513.06 54.09 L 519.17 54.09 L 525.28 54.09 L 530.62 54.09 L 535.21 54.09 L 539.79 54.09 L 544.38 54.09 L 548.96 54.09 L 553.54 54.09 L 558.12 54.09 L 558.12 54.45 L 553.54 54.40 L 548.96 56.09 L 544.38 57.67 L 539.79 59.39 L 535.21 55.69 L 530.62 57.00 L 525.28 58.67 L 519.17 59.84 L 513.06 61.33 L 506.94 60.68 L 500.83 61.37 L 494.72 57.74 Z" fill="#d0d0d0" fill-opacity="0.5" stroke="none"/>
<path d="M 594.79 43.98 L 599.38 43.98 L 603.96 43.98 L 608.54 43.98 L 613.12 43.98 L 617.71 43.98 L 625.09 43.98 L 635.28 43.98 L 645.46 43.98 L 645.46 44.33 L 635.28 45.18 L 625.09 46.86 L 617.71 48.43 L 613.12 51.10 L 608.54 47.51 L 603.96 50.15 L 599.38 51.32 L 594.79 47.66 Z" fill="#d0d0d0" fill-opacity="0.5" stroke="none"/>
<path d="M 665.83 42.83 L 665.83 43.29 Z" fill="#d0d0d0" fill-opacity="0.5" stroke="none"/>
<path d="M 696.39 39.07 L 706.57 39.07 L 714.08 39.07 L 718.90 39.07 L 723.73 39.07 L 728.55 39.07 L 733.38 39.07 L 738.20 39.07 L 743.03 39.07 L 747.85 39.07 L 752.68 39.07 L 757.50 39.07 L 757.50 39.86 L 752.68 42.31 L 747.85 43.92 L 743.03 44.22 L 738.20 44.60 L 733.38 40.92 L 728.55 40.40 L 723.73 42.06 L 718.90 44.73 L 714.08 41.17 L 706.57 42.82 L 696.39 42.65 Z" fill="#d0d0d0" fill-opacity="0.5" stroke="none"/>
<path d="M 771.97 36.50 L 776.80 36.50 L 781.62 36.50 L 786.45 36.50 L 791.27 36.50 L 791.27 37.19 L 786.45 37.43 L 781.62 40.16 L 776.80 38.02 L 771.97 40.25 Z" fill="#d0d0d0" fill-opacity="0.5" stroke="none"/>
<path d="M 860.62 31.60 L 883.54 31.60 L 901.55 31.60 L 914.64 31.60 L 927.74 31.60 L 940.83 31.60 L 940.83 31.66 L 927.74 33.39 L 914.64 32.77 L 901.55 33.15 L 883.54 33.26 L 860.62 32.57 Z" fill="#d0d0d0" fill-opacity="0.5" stroke="none"/>
<path d="M 967.02 29.15 L 980.12 29.15 L 980.12 29.17 L 967.02 30.86 Z" fill="#d0d0d0" fill-opacity="0.5" stroke="none"/>
<path d="M 1112.71 25.00 L 1135.62 25.00 L 1158.54 25.00 L 1158.54 27.20 L 1135.62 27.62 L 1112.71 28.57 Z" fill="#d0d0d0" fill-opacity="0.5" stroke="none"/>
<polyline fill="none" stroke="#111" stroke-width="1.2" points="77.64,93.75 92.92,91.94 108.19,91.67 123.47,89.34 138.75,87.82 154.03,86.25 165.83,89.94 174.17,89.23 182.50,87.64 190.83,85.86 199.17,85.18 207.50,84.75 215.83,83.12 224.17,82.28 232.50,80.96 240.83,80.44 249.17,77.91 255.33,78.89 259.31,78.45 263.30,81.89 267.28,80.30 271.27,78.02 275.25,77.09 279.24,80.64 283.22,78.68 287.21,78.60 291.20,76.99 295.18,75.48 299.17,74.28 303.15,73.05 307.14,70.76 311.12,74.29 315.11,72.77 319.09,71.16 323.08,69.50 327.07,67.84 331.05,66.36 335.04,65.41 339.02,63.77 343.01,61.37 347.41,60.12 352.24,58.62 357.06,57.80 361.89,61.26 366.71,58.87 371.54,57.89 376.36,56.28 381.18,59.77 386.01,58.72 390.83,62.22 395.66,60.75 400.48,61.10 405.31,59.96 410.13,59.11 414.96,62.64 419.78,62.00 424.61,59.41 429.43,63.00 434.25,61.48 439.72,60.83 445.83,59.13 451.94,58.29 458.06,61.98 464.17,59.85 470.28,58.14 476.39,56.44 482.50,55.21 488.61,54.09 494.72,57.74 500.83,61.37 506.94,60.68 513.06,61.33 519.17,59.84 525.28,58.67 530.62,57.00 535.21,55.69 539.79,59.39 544.38,57.67 548.96,56.09 553.54,54.40 558.12,54.45 562.71,52.73 567.29,51.59 571.88,50.25 576.46,48.53 581.04,46.82 585.62,45.72 590.21,43.98 594.79,47.66 599.38,51.32 603.96,50.15 608.54,47.51 613.12,51.10 617.71,48.43 625.09,46.86 635.28,45.18 645.46,44.33 655.65,42.83 665.83,43.29 676.02,41.76 686.20,39.07 696.39,42.65 706.57,42.82 714.08,41.17 718.90,44.73 723.73,42.06 728.55,40.40 733.38,40.92 738.20,44.60 743.03,44.22 747.85,43.92 752.68,42.31 757.50,39.86 762.32,37.13 767.15,36.50 771.97,40.25 776.80,38.02 781.62,40.16 786.45,37.43 791.27,37.19 796.10,35.48 800.92,33.59 814.79,33.31 837.71,31.60 860.62,32.57 883.54,33.26 901.55,33.15 914.64,32.77 927.74,33.39 940.83,31.66 953.93,29.15 967.02,30.86 980.12,29.17 1009.58,27.57 1055.42,27.16 1089.79,25.00 1112.71,28.57 1135.62,27.62 1158.54,27.20"/>
<text x="15" y="287.5" transform="rotate(-90 15,287.5)" text-anchor="middle" font-family="sans-serif" font-size="12" fill="#333">USD</text>
</svg>