<svg xmlns="http://www.w3.org/2000/svg" width="1200" height="600" viewBox="0 0 1200 600">
<desc>Equity curve with drawdown fill</desc>
<text x="600.0" y="18.0" text-anchor="middle" font-family="sans-serif" font-size="14">Portfolio 2011</text>
<rect x="70" y="25" width="1100" height="525" fill="white" stroke="#ccc" />
<line x1="70" y1="550.00" x2="1170" y2="550.00" stroke="#eee"/>
<text x="62" y="554.0" text-anchor="end" font-family="sans-serif" font-size="11" fill="#555">0.00</text>
<line x1="70" y1="445.00" x2="1170" y2="445.00" stroke="#eee"/>
<text x="62" y="449.0" text-anchor="end" font-family="sans-serif" font-size="11" fill="#555">30098</text>
<line x1="70" y1="340.00" x2="1170" y2="340.00" stroke="#eee"/>
<text x="62" y="344.0" text-anchor="end" font-family="sans-serif" font-size="11" fill="#555">60195</text>
<line x1="70" y1="235.00" x2="1170" y2="235.00" stroke="#eee"/>
<text x="62" y="239.0" text-anchor="end" font-family="sans-serif" font-size="11" fill="#555">90293</text>
<line x1="70" y1="130.00" x2="1170" y2="130.00" stroke="#eee"/>
<text x="62" y="134.0" text-anchor="end" font-family="sans-serif" font-size="11" fill="#555">120391</text>
<line x1="70" y1="25.00" x2="1170" y2="25.00" stroke="#eee"/>
<text x="62" y="29.0" text-anchor="end" font-family="sans-serif" font-size="11" fill="#555">150488</text>
<line x1="156.74" y1="25" x2="156.74" y2="550" stroke="#f2f2f2"/>
<text x="156.74" y="566" text-anchor="middle" font-family="sans-serif" font-size="11" fill="#555">Feb</text>
<line x1="242.53" y1="25" x2="242.53" y2="550" stroke="#f2f2f2"/>
<text x="242.53" y="566" text-anchor="middle" font-family="sans-serif" font-size="11" fill="#555">Mar</text>
<line x1="337.50" y1="25" x2="337.50" y2="550" stroke="#f2f2f2"/>
<text x="337.50" y="566" text-anchor="middle" font-family="sans-serif" font-size="11" fill="#555">Apr</text>
<line x1="429.42" y1="25" x2="429.42" y2="550" stroke="#f2f2f2"/>
<text x="429.42" y="566" text-anchor="middle" font-family="sans-serif" font-size="11" fill="#555">May</text>
<line x1="524.39" y1="25" x2="524.39" y2="550" stroke="#f2f2f2"/>
<text x="524.39" y="566" text-anchor="middle" font-family="sans-serif" font-size="11" fill="#555">Jun</text>
<line x1="616.31" y1="25" x2="616.31" y2="550" stroke="#f2f2f2"/>
<text x="616.31" y="566" text-anchor="middle" font-family="sans-serif" font-size="11" fill="#555">Jul</text>
<line x1="711.28" y1="25" x2="711.28" y2="550" stroke="#f2f2f2"/>
<text x="711.28" y="566" text-anchor="middle" font-family="sans-serif" font-size="11" fill="#555">Aug</text>
<line x1="806.26" y1="25" x2="806.26" y2="550" stroke="#f2f2f2"/>
<text x="806.26" y="566" text-anchor="middle" font-family="sans-serif" font-size="11" fill="#555">Sep</text>
<line x1="898.17" y1="25" x2="898.17" y2="550" stroke="#f2f2f2"/>
<text x="898.17" y="566" text-anchor="middle" font-family="sans-serif" font-size="11" fill="#555">Oct</text>
<line x1="993.15" y1="25" x2="993.15" y2="550" stroke="#f2f2f2"/>
<text x="993.15" y="566" text-anchor="middle" font-family="sans-serif" font-size="11" fill="#555">Nov</text>
<line x1="1085.06" y1="25" x2="1085.06" y2="550" stroke="#f2f2f2"/>
<text x="1085.06" y="566" text-anchor="middle" font-family="sans-serif" font-size="11" fill="#555">Dec</text>
<line x1="70" y1="550" x2="1170" y2="550" stroke="#888"/>
<line x1="70" y1="25" x2="70" y2="550" stroke="#888"/>
<path d="M 73.01 64.15 L 79.15 64.15 L 82.27 64.15 L 97.34 64.15 L 100.38 64.15 L 100.44 64.15 L 100.54 64.15 L 100.76 64.15 L 102.66 64.15 L 112.32 64.15 L 115.09 64.15 L 115.74 64.15 L 118.59 64.15 L 121.76 64.15 L 122.03 64.15 L 124.09 64.15 L 134.21 64.15 L 136.61 64.15 L 137.34 64.15 L 142.44 64.15 L 142.77 64.15 L 146.51 64.15 L 167.89 64.15 L 183.20 64.15 L 197.78 64.15 L 204.82 64.15 L 210.63 64.15 L 221.36 64.15 L 222.08 64.15 L 222.50 64.15 L 271.02 64.15 L 274.54 64.15 L 286.11 64.15 L 286.11 65.26 L 274.54 66.56 L 271.02 68.02 L 222.50 70.77 L 222.08 65.89 L 221.36 67.99 L 210.63 68.92 L 204.82 67.21 L 197.78 69.47 L 183.20 68.03 L 167.89 70.19 L 146.51 71.43 L 142.77 66.56 L 142.44 69.31 L 137.34 72.03 L 136.61 72.77 L 134.21 73.68 L 124.09 73.50 L 122.03 75.96 L 121.76 77.71 L 118.59 80.17 L 115.74 82.36 L 115.09 84.33 L 112.32 84.54 L 102.66 87.00 L 100.76 82.28 L 100.54 77.51 L 100.44 78.47 L 100.38 73.71 L 97.34 68.88 L 82.27 71.19 L 79.15 73.90 L 73.01 69.05 Z" fill="#d0d0d0" fill-opacity="0.5" stroke="none"/>
<path d="M 318.42 57.81 L 318.42 58.46 Z" fill="#d0d0d0" fill-opacity="0.5" stroke="none"/>
<path d="M 339.64 53.81 L 359.35 53.81 L 391.62 53.81 L 391.70 53.81 L 397.12 53.81 L 414.37 53.81 L 415.26 53.81 L 417.09 53.81 L 437.70 53.81 L 437.70 55.67 L 417.09 56.29 L 415.26 58.89 L 414.37 60.80 L 397.12 62.76 L 391.70 60.91 L 391.62 62.02 L 359.35 57.05 L 339.64 58.81 Z" fill="#d0d0d0" fill-opacity="0.5" stroke="none"/>
<path d="M 443.44 52.83 L 443.53 52.83 L 443.65 52.83 L 443.70 52.83 L 443.79 52.83 L 443.89 52.83 L 446.47 52.83 L 446.94 52.83 L 447.04 52.83 L 447.19 52.83 L 455.75 52.83 L 458.15 52.83 L 461.94 52.83 L 462.35 52.83 L 462.49 52.83 L 465.28 52.83 L 468.28 52.83 L 468.40 52.83 L 468.52 52.83 L 477.27 52.83 L 480.24 52.83 L 480.90 52.83 L 486.86 52.83 L 489.30 52.83 L 489.61 52.83 L 497.94 52.83 L 506.32 52.83 L 508.00 52.83 L 509.66 52.83 L 510.84 52.83 L 521.43 52.83 L 528.98 52.83 L 529.86 52.83 L 532.55 52.83 L 550.80 52.83 L 553.92 52.83 L 569.50 52.83 L 571.08 52.83 L 571.71 52.83 L 572.31 52.83 L 574.78 52.83 L 584.53 52.83 L 585.75 52.83 L 593.60 52.83 L 604.31 52.83 L 606.13 52.83 L 609.09 52.83 L 611.94 52.83 L 612.13 52.83 L 636.44 52.83 L 636.68 52.83 L 639.48 52.83 L 639.50 52.83 L 639.87 52.83 L 648.62 52.83 L 649.00 52.83 L 650.40 52.83 L 651.13 52.83 L 651.18 52.83 L 651.37 52.83 L 651.72 52.83 L 651.72 54.30 L 651.37 54.69 L 651.18 57.35 L 651.13 59.14 L 650.40 54.14 L 649.00 56.97 L 648.62 59.10 L 639.87 60.68 L 639.50 61.64 L 639.48 64.43 L 636.68 67.21 L 636.44 62.29 L 612.13 64.83 L 611.94 67.11 L 609.09 69.87 L 606.13 64.98 L 604.31 64.30 L 593.60 65.25 L 585.75 65.84 L 584.53 68.61 L 574.78 67.50 L 572.31 68.06 L 571.71 70.34 L 571.08 73.07 L 569.50 75.79 L 553.92 70.96 L 550.80 72.60 L 532.55 74.62 L 529.86 75.77 L 528.98 77.50 L 521.43 75.60 L 510.84 76.19 L 509.66 77.48 L 508.00 72.67 L 506.32 74.65 L 497.94 75.78 L 489.61 77.94 L 489.30 73.13 L 486.86 71.11 L 480.90 72.47 L 480.24 74.41 L 477.27 76.65 L 468.52 78.78 L 468.40 80.67 L 468.28 75.91 L 465.28 71.08 L 462.49 72.55 L 462.35 72.74 L 461.94 74.21 L 458.15 75.96 L 455.75 78.03 L 447.19 73.23 L 447.04 73.40 L 446.94 75.00 L 446.47 70.16 L 443.89 72.90 L 443.79 72.81 L 443.70 72.47 L 443.65 67.61 L 443.53 62.72 L 443.44 57.81 Z" fill="#d0d0d0" fill-opacity="0.5" stroke="none"/>
<path d="M 655.10 50.30 L 655.18 50.30 L 656.05 50.30 L 656.05 51.70 L 655.18 53.32 L 655.10 55.33 Z" fill="#d0d0d0" fill-opacity="0.5" stroke="none"/>
<path d="M 678.91 40.24 L 678.97 40.24 L 679.09 40.24 L 679.09 42.16 L 678.97 43.52 L 678.91 45.38 Z" fill="#d0d0d0" fill-opacity="0.5" stroke="none"/>
<path d="M 679.42 39.25 L 679.43 39.25 L 679.64 39.25 L 679.69 39.25 L 693.26 39.25 L 698.15 39.25 L 700.46 39.25 L 703.93 39.25 L 704.03 39.25 L 704.20 39.25 L 713.20 39.25 L 713.30 39.25 L 713.39 39.25 L 713.54 39.25 L 715.38 39.25 L 716.33 39.25 L 718.54 39.25 L 718.79 39.25 L 722.24 39.25 L 722.35 39.25 L 724.64 39.25 L 725.41 39.25 L 725.73 39.25 L 725.83 39.25 L 726.07 39.25 L 733.78 39.25 L 734.11 39.25 L 734.14 39.25 L 734.40 39.25 L 737.15 39.25 L 738.26 39.25 L 740.64 39.25 L 740.77 39.25 L 740.78 39.25 L 740.85 39.25 L 740.96 39.25 L 742.40 39.25 L 743.40 39.25 L 743.74 39.25 L 743.99 39.25 L 755.99 39.25 L 756.20 39.25 L 756.26 39.25 L 759.44 39.25 L 761.38 39.25 L 761.99 39.25 L 765.39 39.25 L 768.15 39.25 L 779.85 39.25 L 780.62 39.25 L 786.89 39.25 L 790.10 39.25 L 797.88 39.25 L 801.37 39.25 L 807.43 39.25 L 822.73 39.25 L 822.89 39.25 L 822.93 39.25 L 823.65 39.25 L 825.81 39.25 L 829.47 39.25 L 829.92 39.25 L 832.11 39.25 L 832.63 39.25 L 832.72 39.25 L 832.83 39.25 L 839.87 39.25 L 840.80 39.25 L 841.22 39.25 L 842.37 39.25 L 844.11 39.25 L 844.23 39.25 L 844.54 39.25 L 844.97 39.25 L 848.06 39.25 L 848.49 39.25 L 848.49 39.55 L 848.06 42.46 L 844.97 45.10 L 844.54 47.69 L 844.23 50.14 L 844.11 52.53 L 842.37 54.26 L 841.22 56.48 L 840.80 58.74 L 839.87 58.96 L 832.83 60.73 L 832.72 63.18 L 832.63 63.90 L 832.11 58.94 L 829.92 61.15 L 829.47 63.11 L 825.81 58.13 L 823.65 60.95 L 822.93 55.96 L 822.89 57.52 L 822.73 52.50 L 807.43 55.45 L 801.37 57.15 L 797.88 59.41 L 790.10 62.21 L 786.89 57.24 L 780.62 59.08 L 779.85 59.76 L 768.15 54.76 L 765.39 49.72 L 761.99 49.53 L 761.38 51.80 L 759.44 53.86 L 756.26 56.68 L 756.20 58.68 L 755.99 56.94 L 743.99 51.92 L 743.74 54.32 L 743.40 57.15 L 742.40 57.08 L 740.96 56.32 L 740.85 57.25 L 740.78 58.09 L 740.77 53.13 L 740.64 48.09 L 738.26 42.98 L 737.15 45.86 L 734.40 48.72 L 734.14 49.49 L 734.11 51.65 L 733.78 46.58 L 726.07 48.84 L 725.83 49.97 L 725.73 52.44 L 725.41 55.28 L 724.64 57.82 L 722.35 60.12 L 722.24 62.63 L 718.79 64.83 L 718.54 66.56 L 716.33 68.63 L 715.38 68.99 L 713.54 71.19 L 713.39 69.77 L 713.30 70.84 L 713.20 65.98 L 704.20 61.04 L 704.03 62.15 L 703.93 62.81 L 700.46 57.85 L 698.15 52.84 L 693.26 47.77 L 679.69 50.64 L 679.64 51.54 L 679.43 49.43 L 679.42 44.38 Z" fill="#d0d0d0" fill-opacity="0.5" stroke="none"/>
<path d="M 864.53 34.18 L 864.53 35.75 Z" fill="#d0d0d0" fill-opacity="0.5" stroke="none"/>
<path d="M 873.82 25.00 L 875.21 25.00 L 875.70 25.00 L 883.09 25.00 L 883.17 25.00 L 884.18 25.00 L 884.83 25.00 L 887.55 25.00 L 890.14 25.00 L 890.49 25.00 L 891.45 25.00 L 892.76 25.00 L 897.03 25.00 L 906.35 25.00 L 908.53 25.00 L 909.33 25.00 L 912.92 25.00 L 915.19 25.00 L 915.21 25.00 L 915.38 25.00 L 915.63 25.00 L 918.28 25.00 L 918.55 25.00 L 918.82 25.00 L 918.90 25.00 L 926.11 25.00 L 926.98 25.00 L 927.48 25.00 L 933.06 25.00 L 933.19 25.00 L 933.21 25.00 L 933.31 25.00 L 936.34 25.00 L 939.86 25.00 L 948.74 25.00 L 951.39 25.00 L 957.73 25.00 L 957.86 25.00 L 957.91 25.00 L 958.23 25.00 L 958.79 25.00 L 960.65 25.00 L 961.28 25.00 L 969.60 25.00 L 970.84 25.00 L 973.58 25.00 L 976.75 25.00 L 976.85 25.00 L 977.18 25.00 L 978.13 25.00 L 979.64 25.00 L 979.72 25.00 L 980.01 25.00 L 990.47 25.00 L 990.59 25.00 L 990.81 25.00 L 992.35 25.00 L 994.21 25.00 L 994.40 25.00 L 995.52 25.00 L 996.29 25.00 L 1001.19 25.00 L 1001.23 25.00 L 1001.68 25.00 L 1004.24 25.00 L 1004.33 25.00 L 1013.01 25.00 L 1013.46 25.00 L 1017.02 25.00 L 1018.90 25.00 L 1019.06 25.00 L 1019.12 25.00 L 1019.41 25.00 L 1021.88 25.00 L 1022.72 25.00 L 1025.87 25.00 L 1025.97 25.00 L 1039.49 25.00 L 1044.00 25.00 L 1044.49 25.00 L 1046.85 25.00 L 1047.22 25.00 L 1055.58 25.00 L 1056.54 25.00 L 1061.99 25.00 L 1062.67 25.00 L 1075.84 25.00 L 1077.06 25.00 L 1080.25 25.00 L 1080.31 25.00 L 1080.69 25.00 L 1083.66 25.00 L 1083.79 25.00 L 1083.80 25.00 L 1090.18 25.00 L 1090.29 25.00 L 1099.81 25.00 L 1108.34 25.00 L 1110.99 25.00 L 1111.40 25.00 L 1123.84 25.00 L 1123.96 25.00 L 1144.60 25.00 L 1147.67 25.00 L 1147.78 25.00 L 1150.51 25.00 L 1169.67 25.00 L 1169.84 25.00 L 1170.00 25.00 L 1170.00 84.86 L 1169.84 83.45 L 1169.67 84.12 L 1150.51 79.35 L 1147.78 80.95 L 1147.67 83.03 L 1144.60 85.44 L 1123.96 86.76 L 1123.84 86.73 L 1111.40 82.00 L 1110.99 83.49 L 1108.34 78.72 L 1099.81 73.90 L 1090.29 73.97 L 1090.18 73.89 L 1083.80 69.03 L 1083.79 64.13 L 1083.66 59.21 L 1080.69 62.12 L 1080.31 64.42 L 1080.25 66.87 L 1077.06 61.94 L 1075.84 63.88 L 1062.67 63.45 L 1061.99 64.63 L 1056.54 63.25 L 1055.58 65.23 L 1047.22 65.45 L 1046.85 67.45 L 1044.49 62.52 L 1044.00 65.06 L 1039.49 67.29 L 1025.97 67.35 L 1025.87 67.52 L 1022.72 62.59 L 1021.88 64.98 L 1019.41 67.55 L 1019.12 69.57 L 1019.06 64.71 L 1018.90 65.29 L 1017.02 60.34 L 1013.46 62.94 L 1013.01 64.61 L 1004.33 66.55 L 1004.24 67.13 L 1001.68 62.20 L 1001.23 57.22 L 1001.19 59.61 L 996.29 54.60 L 995.52 56.61 L 994.40 51.57 L 994.21 53.29 L 992.35 55.54 L 990.81 56.66 L 990.59 55.55 L 990.47 57.12 L 980.01 59.46 L 979.72 54.44 L 979.64 55.15 L 978.13 50.10 L 977.18 52.96 L 976.85 55.80 L 976.75 56.95 L 973.58 51.91 L 970.84 54.53 L 969.60 53.44 L 961.28 55.39 L 960.65 50.34 L 958.79 52.12 L 958.23 54.96 L 957.91 57.02 L 957.86 58.71 L 957.73 58.20 L 951.39 53.19 L 948.74 53.55 L 939.86 48.48 L 936.34 43.36 L 933.31 45.63 L 933.21 45.40 L 933.19 40.25 L 933.06 35.07 L 927.48 29.83 L 926.98 32.52 L 926.11 27.25 L 918.90 29.36 L 918.82 30.42 L 918.55 25.13 L 918.28 27.84 L 915.63 30.81 L 915.38 28.14 L 915.21 31.09 L 915.19 33.87 L 912.92 28.62 L 909.33 29.79 L 908.53 32.49 L 906.35 34.63 L 897.03 29.39 L 892.76 29.86 L 891.45 28.83 L 890.49 30.96 L 890.14 32.58 L 887.55 34.24 L 884.83 29.00 L 884.18 30.47 L 883.17 32.15 L 883.09 33.21 L 875.70 27.95 L 875.21 30.63 L 873.82 30.29 Z" fill="#d0d0d0" fill-opacity="0.5" stroke="none"/>
<polyline fill="none" stroke="#111" stroke-width="1.2" points="70.00,65.81 72.26,64.15 73.01,69.05 79.15,73.90 82.27,71.19 97.34,68.88 100.38,73.71 100.44,78.47 100.54,77.51 100.76,82.28 102.66,87.00 112.32,84.54 115.09,84.33 115.74,82.36 118.59,80.17 121.76,77.71 122.03,75.96 124.09,73.50 134.21,73.68 136.61,72.77 137.34,72.03 142.44,69.31 142.77,66.56 146.51,71.43 167.89,70.19 183.20,68.03 197.78,69.47 204.82,67.21 210.63,68.92 221.36,67.99 222.08,65.89 222.50,70.77 271.02,68.02 274.54,66.56 286.11,65.26 286.85,63.03 287.37,60.52 294.99,58.79 296.24,57.85 315.11,57.81 318.42,58.46 333.65,56.64 339.42,53.81 339.64,58.81 359.35,57.05 391.62,62.02 391.70,60.91 397.12,62.76 414.37,60.80 415.26,58.89 417.09,56.29 437.70,55.67 443.39,52.83 443.44,57.81 443.53,62.72 443.65,67.61 443.70,72.47 443.79,72.81 443.89,72.90 446.47,70.16 446.94,75.00 447.04,73.40 447.19,73.23 455.75,78.03 458.15,75.96 461.94,74.21 462.35,72.74 462.49,72.55 465.28,71.08 468.28,75.91 468.40,80.67 468.52,78.78 477.27,76.65 480.24,74.41 480.90,72.47 486.86,71.11 489.30,73.13 489.61,77.94 497.94,75.78 506.32,74.65 508.00,72.67 509.66,77.48 510.84,76.19 521.43,75.60 528.98,77.50 529.86,75.77 532.55,74.62 550.80,72.60 553.92,70.96 569.50,75.79 571.08,73.07 571.71,70.34 572.31,68.06 574.78,67.50 584.53,68.61 585.75,65.84 593.60,65.25 604.31,64.30 606.13,64.98 609.09,69.87 611.94,67.11 612.13,64.83 636.44,62.29 636.68,67.21 639.48,64.43 639.50,61.64 639.87,60.68 648.62,59.10 649.00,56.97 650.40,54.14 651.13,59.14 651.18,57.35 651.37,54.69 651.72,54.30 653.26,52.15 654.20,50.30 655.10,55.33 655.18,53.32 656.05,51.70 658.19,49.52 660.31,47.74 661.37,44.86 672.57,42.89 673.94,40.24 678.91,45.38 678.97,43.52 679.09,42.16 679.27,39.25 679.42,44.38 679.43,49.43 679.64,51.54 679.69,50.64 693.26,47.77 698.15,52.84 700.46,57.85 703.93,62.81 704.03,62.15 704.20,61.04 713.20,65.98 713.30,70.84 713.39,69.77 713.54,71.19 715.38,68.99 716.33,68.63 718.54,66.56 718.79,64.83 722.24,62.63 722.35,60.12 724.64,57.82 725.41,55.28 725.73,52.44 725.83,49.97 726.07,48.84 733.78,46.58 734.11,51.65 734.14,49.49 734.40,48.72 737.15,45.86 738.26,42.98 740.64,48.09 740.77,53.13 740.78,58.09 740.85,57.25 740.96,56.32 742.40,57.08 743.40,57.15 743.74,54.32 743.99,51.92 755.99,56.94 756.20,58.68 756.26,56.68 759.44,53.86 761.38,51.80 761.99,49.53 765.39,49.72 768.15,54.76 779.85,59.76 780.62,59.08 786.89,57.24 790.10,62.21 797.88,59.41 801.37,57.15 807.43,55.45 822.73,52.50 822.89,57.52 822.93,55.96 823.65,60.95 825.81,58.13 829.47,63.11 829.92,61.15 832.11,58.94 832.63,63.90 832.72,63.18 832.83,60.73 839.87,58.96 840.80,58.74 841.22,56.48 842.37,54.26 844.11,52.53 844.23,50.14 844.54,47.69 844.97,45.10 848.06,42.46 848.49,39.55 850.94,36.64 851.02,35.25 861.34,34.18 864.53,35.75 865.67,34.07 865.89,32.47 871.90,29.51 872.39,27.98 873.07,25.00 873.82,30.29 875.21,30.63 875.70,27.95 883.09,33.21 883.17,32.15 884.18,30.47 884.83,29.00 887.55,34.24 890.14,32.58 890.49,30.96 891.45,28.83 892.76,29.86 897.03,29.39 906.35,34.63 908.53,32.49 909.33,29.79 912.92,28.62 915.19,33.87 915.21,31.09 915.38,28.14 915.63,30.81 918.28,27.84 918.55,25.13 918.82,30.42 918.90,29.36 926.11,27.25 926.98,32.52 927.48,29.83 933.06,35.07 933.19,40.25 933.21,45.40 933.31,45.63 936.34,43.36 939.86,48.48 948.74,53.55 951.39,53.19 957.73,58.20 957.86,58.71 957.91,57.02 958.23,54.96 958.79,52.12 960.65,50.34 961.28,55.39 969.60,53.44 970.84,54.53 973.58,51.91 976.75,56.95 976.85,55.80 977.18,52.96 978.13,50.10 979.64,55.15 979.72,54.44 980.01,59.46 990.47,57.12 990.59,55.55 990.81,56.66 992.35,55.54 994.21,53.29 994.40,51.57 995.52,56.61 996.29,54.60 1001.19,59.61 1001.23,57.22 1001.68,62.20 1004.24,67.13 1004.33,66.55 1013.01,64.61 1013.46,62.94 1017.02,60.34 1018.90,65.29 1019.06,64.71 1019.12,69.57 1019.41,67.55 1021.88,64.98 1022.72,62.59 1025.87,67.52 1025.97,67.35 1039.49,67.29 1044.00,65.06 1044.49,62.52 1046.85,67.45 1047.22,65.45 1055.58,65.23 1056.54,63.25 1061.99,64.63 1062.67,63.45 1075.84,63.88 1077.06,61.94 1080.25,66.87 1080.31,64.42 1080.69,62.12 1083.66,59.21 1083.79,64.13 1083.80,69.03 1090.18,73.89 1090.29,73.97 1099.81,73.90 1108.34,78.72 1110.99,83.49 1111.40,82.00 1123.84,86.73 1123.96,86.76 1144.60,85.44 1147.67,83.03 1147.78,80.95 1150.51,79.35 1169.67,84.12 1169.84,83.45 1170.00,84.86"/>
<text x="620.0" y="588" text-anchor="middle" font-family="sans-serif" font-size="12" fill="#333">UTC time</text>
<text x="15" y="287.5" transform="rotate(-90 15,287.5)" text-anchor="middle" font-family="sans-serif" font-size="12" fill="#333">Capital</text>
</svg>