<svg xmlns="http://www.w3.org/2000/svg" width="1200" height="600" viewBox="0 0 1200 600">
<desc>Equity curve with drawdown fill</desc>
<text x="600.0" y="18.0" text-anchor="middle" font-family="sans-serif" font-size="14">Portfolio 2013</text>
<rect x="70" y="25" width="1100" height="525" fill="white" stroke="#ccc" />
<line x1="70" y1="550.00" x2="1170" y2="550.00" stroke="#eee"/>
<text x="62" y="554.0" text-anchor="end" font-family="sans-serif" font-size="11" fill="#555">0.00</text>
<line x1="70" y1="445.00" x2="1170" y2="445.00" stroke="#eee"/>
<text x="62" y="449.0" text-anchor="end" font-family="sans-serif" font-size="11" fill="#555">26681</text>
<line x1="70" y1="340.00" x2="1170" y2="340.00" stroke="#eee"/>
<text x="62" y="344.0" text-anchor="end" font-family="sans-serif" font-size="11" fill="#555">53362</text>
<line x1="70" y1="235.00" x2="1170" y2="235.00" stroke="#eee"/>
<text x="62" y="239.0" text-anchor="end" font-family="sans-serif" font-size="11" fill="#555">80043</text>
<line x1="70" y1="130.00" x2="1170" y2="130.00" stroke="#eee"/>
<text x="62" y="134.0" text-anchor="end" font-family="sans-serif" font-size="11" fill="#555">106724</text>
<line x1="70" y1="25.00" x2="1170" y2="25.00" stroke="#eee"/>
<text x="62" y="29.0" text-anchor="end" font-family="sans-serif" font-size="11" fill="#555">133405</text>
<line x1="159.76" y1="25" x2="159.76" y2="550" stroke="#f2f2f2"/>
<text x="159.76" y="566" text-anchor="middle" font-family="sans-serif" font-size="11" fill="#555">Feb</text>
<line x1="245.61" y1="25" x2="245.61" y2="550" stroke="#f2f2f2"/>
<text x="245.61" y="566" text-anchor="middle" font-family="sans-serif" font-size="11" fill="#555">Mar</text>
<line x1="340.66" y1="25" x2="340.66" y2="550" stroke="#f2f2f2"/>
<text x="340.66" y="566" text-anchor="middle" font-family="sans-serif" font-size="11" fill="#555">Apr</text>
<line x1="432.64" y1="25" x2="432.64" y2="550" stroke="#f2f2f2"/>
<text x="432.64" y="566" text-anchor="middle" font-family="sans-serif" font-size="11" fill="#555">May</text>
<line x1="527.69" y1="25" x2="527.69" y2="550" stroke="#f2f2f2"/>
<text x="527.69" y="566" text-anchor="middle" font-family="sans-serif" font-size="11" fill="#555">Jun</text>
<line x1="619.68" y1="25" x2="619.68" y2="550" stroke="#f2f2f2"/>
<text x="619.68" y="566" text-anchor="middle" font-family="sans-serif" font-size="11" fill="#555">Jul</text>
<line x1="714.72" y1="25" x2="714.72" y2="550" stroke="#f2f2f2"/>
<text x="714.72" y="566" text-anchor="middle" font-family="sans-serif" font-size="11" fill="#555">Aug</text>
<line x1="809.77" y1="25" x2="809.77" y2="550" stroke="#f2f2f2"/>
<text x="809.77" y="566" text-anchor="middle" font-family="sans-serif" font-size="11" fill="#555">Sep</text>
<line x1="901.76" y1="25" x2="901.76" y2="550" stroke="#f2f2f2"/>
<text x="901.76" y="566" text-anchor="middle" font-family="sans-serif" font-size="11" fill="#555">Oct</text>
<line x1="996.81" y1="25" x2="996.81" y2="550" stroke="#f2f2f2"/>
<text x="996.81" y="566" text-anchor="middle" font-family="sans-serif" font-size="11" fill="#555">Nov</text>
<line x1="1088.79" y1="25" x2="1088.79" y2="550" stroke="#f2f2f2"/>
<text x="1088.79" y="566" text-anchor="middle" font-family="sans-serif" font-size="11" fill="#555">Dec</text>
<line x1="70" y1="550" x2="1170" y2="550" stroke="#888"/>
<line x1="70" y1="25" x2="70" y2="550" stroke="#888"/>
<path d="M 70.00 25.00 L 94.09 25.00 L 97.11 25.00 L 110.12 25.00 L 118.52 25.00 L 130.29 25.00 L 134.22 25.00 L 161.68 25.00 L 161.91 25.00 L 174.15 25.00 L 179.93 25.00 L 180.09 25.00 L 180.10 25.00 L 180.22 25.00 L 180.34 25.00 L 194.98 25.00 L 200.90 25.00 L 220.45 25.00 L 222.22 25.00 L 225.59 25.00 L 235.39 25.00 L 235.42 25.00 L 235.62 25.00 L 235.83 25.00 L 265.77 25.00 L 268.80 25.00 L 268.88 25.00 L 268.95 25.00 L 284.39 25.00 L 287.84 25.00 L 297.73 25.00 L 299.02 25.00 L 302.99 25.00 L 311.97 25.00 L 319.28 25.00 L 321.03 25.00 L 351.60 25.00 L 351.79 25.00 L 354.65 25.00 L 354.67 25.00 L 354.97 25.00 L 388.34 25.00 L 388.93 25.00 L 391.70 25.00 L 409.38 25.00 L 416.27 25.00 L 431.51 25.00 L 437.51 25.00 L 437.60 25.00 L 437.76 25.00 L 440.51 25.00 L 440.73 25.00 L 459.72 25.00 L 462.34 25.00 L 483.47 25.00 L 498.99 25.00 L 499.03 25.00 L 517.46 25.00 L 520.03 25.00 L 520.08 25.00 L 523.50 25.00 L 535.90 25.00 L 536.02 25.00 L 536.09 25.00 L 545.17 25.00 L 545.29 25.00 L 547.88 25.00 L 585.37 25.00 L 590.79 25.00 L 612.47 25.00 L 627.90 25.00 L 630.61 25.00 L 630.72 25.00 L 630.79 25.00 L 633.66 25.00 L 646.30 25.00 L 649.73 25.00 L 650.29 25.00 L 650.33 25.00 L 650.47 25.00 L 651.41 25.00 L 670.78 25.00 L 713.38 25.00 L 714.09 25.00 L 719.52 25.00 L 759.47 25.00 L 759.98 25.00 L 760.17 25.00 L 823.86 25.00 L 826.83 25.00 L 864.32 25.00 L 906.72 25.00 L 946.09 25.00 L 949.84 25.00 L 952.04 25.00 L 967.87 25.00 L 993.21 25.00 L 1016.83 25.00 L 1017.02 25.00 L 1017.04 25.00 L 1019.99 25.00 L 1035.73 25.00 L 1057.16 25.00 L 1102.91 25.00 L 1143.34 25.00 L 1170.00 25.00 L 1170.00 37.57 L 1143.34 40.62 L 1102.91 43.52 L 1057.16 45.37 L 1035.73 40.22 L 1019.99 43.12 L 1017.04 46.00 L 1017.02 40.87 L 1016.83 39.56 L 993.21 42.58 L 967.87 44.12 L 952.04 47.00 L 949.84 45.39 L 946.09 46.99 L 906.72 48.24 L 864.32 47.50 L 826.83 50.47 L 823.86 53.31 L 760.17 54.92 L 759.98 55.59 L 759.47 58.52 L 719.52 59.09 L 714.09 61.87 L 713.38 64.64 L 670.78 67.39 L 651.41 69.08 L 650.47 64.18 L 650.33 65.76 L 650.29 60.88 L 649.73 55.93 L 646.30 50.90 L 633.66 45.81 L 630.79 48.67 L 630.72 50.39 L 630.61 50.29 L 627.90 53.13 L 612.47 55.41 L 590.79 56.88 L 585.37 58.20 L 547.88 53.19 L 545.29 55.99 L 545.17 55.48 L 536.09 58.29 L 536.02 59.61 L 535.90 59.88 L 523.50 54.89 L 520.08 49.84 L 520.03 51.78 L 517.46 46.71 L 499.03 47.19 L 498.99 49.88 L 483.47 52.01 L 462.34 53.81 L 459.72 56.10 L 440.73 51.07 L 440.51 53.50 L 437.76 56.30 L 437.60 51.27 L 437.51 51.92 L 431.51 46.84 L 416.27 41.71 L 409.38 40.89 L 391.70 39.20 L 388.93 33.99 L 388.34 34.11 L 354.97 36.05 L 354.67 38.19 L 354.65 40.97 L 351.79 43.85 L 351.60 38.69 L 321.03 41.59 L 319.28 43.53 L 311.97 46.40 L 302.99 48.45 L 299.02 51.03 L 297.73 52.20 L 287.84 50.62 L 284.39 51.27 L 268.95 50.32 L 268.88 45.22 L 268.80 40.11 L 265.77 43.01 L 235.83 45.87 L 235.62 46.73 L 235.42 46.15 L 235.39 48.61 L 225.59 43.50 L 222.22 45.90 L 220.45 48.26 L 200.90 51.11 L 194.98 53.94 L 180.34 53.78 L 180.22 52.16 L 180.10 51.25 L 180.09 46.17 L 179.93 41.07 L 174.15 35.89 L 161.91 38.29 L 161.68 38.10 L 134.22 40.49 L 130.29 41.90 L 118.52 36.73 L 110.12 39.42 L 97.11 40.72 L 94.09 35.53 L 70.00 30.29 Z" fill="#d0d0d0" fill-opacity="0.5" stroke="none"/>
<polyline fill="none" stroke="#111" stroke-width="1.2" points="70.00,30.29 94.09,35.53 97.11,40.72 110.12,39.42 118.52,36.73 130.29,41.90 134.22,40.49 161.68,38.10 161.91,38.29 174.15,35.89 179.93,41.07 180.09,46.17 180.10,51.25 180.22,52.16 180.34,53.78 194.98,53.94 200.90,51.11 220.45,48.26 222.22,45.90 225.59,43.50 235.39,48.61 235.42,46.15 235.62,46.73 235.83,45.87 265.77,43.01 268.80,40.11 268.88,45.22 268.95,50.32 284.39,51.27 287.84,50.62 297.73,52.20 299.02,51.03 302.99,48.45 311.97,46.40 319.28,43.53 321.03,41.59 351.60,38.69 351.79,43.85 354.65,40.97 354.67,38.19 354.97,36.05 388.34,34.11 388.93,33.99 391.70,39.20 409.38,40.89 416.27,41.71 431.51,46.84 437.51,51.92 437.60,51.27 437.76,56.30 440.51,53.50 440.73,51.07 459.72,56.10 462.34,53.81 483.47,52.01 498.99,49.88 499.03,47.19 517.46,46.71 520.03,51.78 520.08,49.84 523.50,54.89 535.90,59.88 536.02,59.61 536.09,58.29 545.17,55.48 545.29,55.99 547.88,53.19 585.37,58.20 590.79,56.88 612.47,55.41 627.90,53.13 630.61,50.29 630.72,50.39 630.79,48.67 633.66,45.81 646.30,50.90 649.73,55.93 650.29,60.88 650.33,65.76 650.47,64.18 651.41,69.08 670.78,67.39 713.38,64.64 714.09,61.87 719.52,59.09 759.47,58.52 759.98,55.59 760.17,54.92 823.86,53.31 826.83,50.47 864.32,47.50 906.72,48.24 946.09,46.99 949.84,45.39 952.04,47.00 967.87,44.12 993.21,42.58 1016.83,39.56 1017.02,40.87 1017.04,46.00 1019.99,43.12 1035.73,40.22 1057.16,45.37 1102.91,43.52 1143.34,40.62 1170.00,37.57"/>
<text x="620.0" y="588" text-anchor="middle" font-family="sans-serif" font-size="12" fill="#333">UTC time</text>
<text x="15" y="287.5" transform="rotate(-90 15,287.5)" text-anchor="middle" font-family="sans-serif" font-size="12" fill="#333">Capital</text>
</svg>