<svg xmlns="http://www.w3.org/2000/svg" width="1200" height="600" viewBox="0 0 1200 600">
<desc>Equity curve with drawdown fill</desc>
<text x="600.0" y="18.0" text-anchor="middle" font-family="sans-serif" font-size="14">Portfolio 2018</text>
<rect x="70" y="25" width="1100" height="525" fill="white" stroke="#ccc" />
<line x1="70" y1="550.00" x2="1170" y2="550.00" stroke="#eee"/>
<text x="62" y="554.0" text-anchor="end" font-family="sans-serif" font-size="11" fill="#555">0.00</text>
<line x1="70" y1="445.00" x2="1170" y2="445.00" stroke="#eee"/>
<text x="62" y="449.0" text-anchor="end" font-family="sans-serif" font-size="11" fill="#555">50135</text>
<line x1="70" y1="340.00" x2="1170" y2="340.00" stroke="#eee"/>
<text x="62" y="344.0" text-anchor="end" font-family="sans-serif" font-size="11" fill="#555">100271</text>
<line x1="70" y1="235.00" x2="1170" y2="235.00" stroke="#eee"/>
<text x="62" y="239.0" text-anchor="end" font-family="sans-serif" font-size="11" fill="#555">150406</text>
<line x1="70" y1="130.00" x2="1170" y2="130.00" stroke="#eee"/>
<text x="62" y="134.0" text-anchor="end" font-family="sans-serif" font-size="11" fill="#555">200541</text>
<line x1="70" y1="25.00" x2="1170" y2="25.00" stroke="#eee"/>
<text x="62" y="29.0" text-anchor="end" font-family="sans-serif" font-size="11" fill="#555">250677</text>
<line x1="138.85" y1="25" x2="138.85" y2="550" stroke="#f2f2f2"/>
<text x="138.85" y="566" text-anchor="middle" font-family="sans-serif" font-size="11" fill="#555">Feb</text>
<line x1="228.39" y1="25" x2="228.39" y2="550" stroke="#f2f2f2"/>
<text x="228.39" y="566" text-anchor="middle" font-family="sans-serif" font-size="11" fill="#555">Mar</text>
<line x1="327.53" y1="25" x2="327.53" y2="550" stroke="#f2f2f2"/>
<text x="327.53" y="566" text-anchor="middle" font-family="sans-serif" font-size="11" fill="#555">Apr</text>
<line x1="423.47" y1="25" x2="423.47" y2="550" stroke="#f2f2f2"/>
<text x="423.47" y="566" text-anchor="middle" font-family="sans-serif" font-size="11" fill="#555">May</text>
<line x1="522.61" y1="25" x2="522.61" y2="550" stroke="#f2f2f2"/>
<text x="522.61" y="566" text-anchor="middle" font-family="sans-serif" font-size="11" fill="#555">Jun</text>
<line x1="618.55" y1="25" x2="618.55" y2="550" stroke="#f2f2f2"/>
<text x="618.55" y="566" text-anchor="middle" font-family="sans-serif" font-size="11" fill="#555">Jul</text>
<line x1="717.68" y1="25" x2="717.68" y2="550" stroke="#f2f2f2"/>
<text x="717.68" y="566" text-anchor="middle" font-family="sans-serif" font-size="11" fill="#555">Aug</text>
<line x1="816.82" y1="25" x2="816.82" y2="550" stroke="#f2f2f2"/>
<text x="816.82" y="566" text-anchor="middle" font-family="sans-serif" font-size="11" fill="#555">Sep</text>
<line x1="912.76" y1="25" x2="912.76" y2="550" stroke="#f2f2f2"/>
<text x="912.76" y="566" text-anchor="middle" font-family="sans-serif" font-size="11" fill="#555">Oct</text>
<line x1="1011.90" y1="25" x2="1011.90" y2="550" stroke="#f2f2f2"/>
<text x="1011.90" y="566" text-anchor="middle" font-family="sans-serif" font-size="11" fill="#555">Nov</text>
<line x1="1107.84" y1="25" x2="1107.84" y2="550" stroke="#f2f2f2"/>
<text x="1107.84" y="566" text-anchor="middle" font-family="sans-serif" font-size="11" fill="#555">Dec</text>
<line x1="70" y1="550" x2="1170" y2="550" stroke="#888"/>
<line x1="70" y1="25" x2="70" y2="550" stroke="#888"/>
<path d="M 73.43 58.03 L 76.04 58.03 L 85.92 58.03 L 85.92 59.16 L 76.04 60.24 L 73.43 63.01 Z" fill="#d0d0d0" fill-opacity="0.5" stroke="none"/>
<path d="M 118.29 53.58 L 118.37 53.58 L 118.57 53.58 L 119.00 53.58 L 119.14 53.58 L 119.14 55.46 L 119.00 55.35 L 118.57 58.15 L 118.37 57.27 L 118.29 58.59 Z" fill="#d0d0d0" fill-opacity="0.5" stroke="none"/>
<path d="M 252.94 37.46 L 252.94 38.81 Z" fill="#d0d0d0" fill-opacity="0.5" stroke="none"/>
<path d="M 409.67 35.45 L 429.27 35.45 L 435.01 35.45 L 454.21 35.45 L 470.21 35.45 L 491.86 35.45 L 495.05 35.45 L 501.98 35.45 L 514.37 35.45 L 514.37 37.51 L 501.98 36.83 L 495.05 38.74 L 491.86 39.58 L 470.21 41.64 L 454.21 36.46 L 435.01 36.75 L 429.27 38.87 L 409.67 40.64 Z" fill="#d0d0d0" fill-opacity="0.5" stroke="none"/>
<path d="M 565.90 25.00 L 566.03 25.00 L 566.03 25.00 L 566.16 25.00 L 566.18 25.00 L 566.29 25.00 L 581.48 25.00 L 588.40 25.00 L 612.63 25.00 L 636.37 25.00 L 653.01 25.00 L 678.62 25.00 L 681.27 25.00 L 747.29 25.00 L 747.38 25.00 L 747.47 25.00 L 781.85 25.00 L 784.23 25.00 L 793.26 25.00 L 831.56 25.00 L 837.94 25.00 L 857.15 25.00 L 879.43 25.00 L 900.91 25.00 L 1048.03 25.00 L 1055.50 25.00 L 1057.98 25.00 L 1061.79 25.00 L 1083.47 25.00 L 1100.53 25.00 L 1100.58 25.00 L 1100.68 25.00 L 1138.84 25.00 L 1150.74 25.00 L 1170.00 25.00 L 1170.00 48.08 L 1150.74 45.34 L 1138.84 43.48 L 1100.68 44.66 L 1100.58 39.50 L 1100.53 41.49 L 1083.47 36.30 L 1061.79 37.85 L 1057.98 32.63 L 1055.50 35.53 L 1048.03 37.15 L 900.91 38.63 L 879.43 41.00 L 857.15 40.32 L 837.94 35.12 L 831.56 35.28 L 793.26 37.34 L 784.23 39.99 L 781.85 39.88 L 747.47 42.74 L 747.38 44.94 L 747.29 45.98 L 681.27 48.81 L 678.62 48.07 L 653.01 48.70 L 636.37 50.07 L 612.63 52.42 L 588.40 55.22 L 581.48 50.17 L 566.29 51.68 L 566.18 50.83 L 566.16 45.78 L 566.03 40.66 L 566.03 35.52 L 565.90 30.29 Z" fill="#d0d0d0" fill-opacity="0.5" stroke="none"/>
<polyline fill="none" stroke="#111" stroke-width="1.2" points="70.00,58.03 73.43,63.01 76.04,60.24 85.92,59.16 88.64,56.38 90.98,53.58 118.29,58.59 118.37,57.27 118.57,58.15 119.00,55.35 119.14,55.46 120.72,53.18 144.10,51.29 155.96,49.00 156.63,48.27 182.22,45.42 182.44,42.55 224.02,39.95 252.50,37.46 252.94,38.81 316.75,37.02 358.03,35.45 409.67,40.64 429.27,38.87 435.01,36.75 454.21,36.46 470.21,41.64 491.86,39.58 495.05,38.74 501.98,36.83 514.37,37.51 517.43,35.27 518.41,32.36 524.65,29.46 537.76,27.94 560.23,25.00 565.90,30.29 566.03,35.52 566.03,40.66 566.16,45.78 566.18,50.83 566.29,51.68 581.48,50.17 588.40,55.22 612.63,52.42 636.37,50.07 653.01,48.70 678.62,48.07 681.27,48.81 747.29,45.98 747.38,44.94 747.47,42.74 781.85,39.88 784.23,39.99 793.26,37.34 831.56,35.28 837.94,35.12 857.15,40.32 879.43,41.00 900.91,38.63 1048.03,37.15 1055.50,35.53 1057.98,32.63 1061.79,37.85 1083.47,36.30 1100.53,41.49 1100.58,39.50 1100.68,44.66 1138.84,43.48 1150.74,45.34 1170.00,48.08"/>
<text x="620.0" y="588" text-anchor="middle" font-family="sans-serif" font-size="12" fill="#333">UTC time</text>
<text x="15" y="287.5" transform="rotate(-90 15,287.5)" text-anchor="middle" font-family="sans-serif" font-size="12" fill="#333">Capital</text>
</svg>