<svg xmlns="http://www.w3.org/2000/svg" width="1200" height="600" viewBox="0 0 1200 600">
<desc>Equity curve with drawdown fill; x-axis is months only (no exact timestamps)</desc>
<text x="600.0" y="18.0" text-anchor="middle" font-family="sans-serif" font-size="14">Balance Curve 2015 (UTC)</text>
<rect x="70" y="25" width="1100" height="525" fill="white" stroke="#ccc" />
<line x1="70" y1="550.00" x2="1170" y2="550.00" stroke="#eee"/>
<text x="62" y="554.0" text-anchor="end" font-family="sans-serif" font-size="11" fill="#555">0.00</text>
<line x1="70" y1="445.00" x2="1170" y2="445.00" stroke="#eee"/>
<text x="62" y="449.0" text-anchor="end" font-family="sans-serif" font-size="11" fill="#555">24218</text>
<line x1="70" y1="340.00" x2="1170" y2="340.00" stroke="#eee"/>
<text x="62" y="344.0" text-anchor="end" font-family="sans-serif" font-size="11" fill="#555">48435</text>
<line x1="70" y1="235.00" x2="1170" y2="235.00" stroke="#eee"/>
<text x="62" y="239.0" text-anchor="end" font-family="sans-serif" font-size="11" fill="#555">72653</text>
<line x1="70" y1="130.00" x2="1170" y2="130.00" stroke="#eee"/>
<text x="62" y="134.0" text-anchor="end" font-family="sans-serif" font-size="11" fill="#555">96871</text>
<line x1="70" y1="25.00" x2="1170" y2="25.00" stroke="#eee"/>
<text x="62" y="29.0" text-anchor="end" font-family="sans-serif" font-size="11" fill="#555">121088</text>
<line x1="161.67" y1="25" x2="161.67" y2="550" stroke="#f2f2f2"/>
<line x1="253.33" y1="25" x2="253.33" y2="550" stroke="#f2f2f2"/>
<line x1="345.00" y1="25" x2="345.00" y2="550" stroke="#f2f2f2"/>
<line x1="436.67" y1="25" x2="436.67" y2="550" stroke="#f2f2f2"/>
<line x1="528.33" y1="25" x2="528.33" y2="550" stroke="#f2f2f2"/>
<line x1="620.00" y1="25" x2="620.00" y2="550" stroke="#f2f2f2"/>
<line x1="711.67" y1="25" x2="711.67" y2="550" stroke="#f2f2f2"/>
<line x1="803.33" y1="25" x2="803.33" y2="550" stroke="#f2f2f2"/>
<line x1="895.00" y1="25" x2="895.00" y2="550" stroke="#f2f2f2"/>
<line x1="986.67" y1="25" x2="986.67" y2="550" stroke="#f2f2f2"/>
<line x1="1078.33" y1="25" x2="1078.33" y2="550" stroke="#f2f2f2"/>
<text x="115.83" y="566.00" text-anchor="middle" font-family="sans-serif" font-size="11" fill="#444">Jan</text>
<text x="207.50" y="566.00" text-anchor="middle" font-family="sans-serif" font-size="11" fill="#444">Feb</text>
<text x="299.17" y="566.00" text-anchor="middle" font-family="sans-serif" font-size="11" fill="#444">Mar</text>
<text x="390.83" y="566.00" text-anchor="middle" font-family="sans-serif" font-size="11" fill="#444">Apr</text>
<text x="482.50" y="566.00" text-anchor="middle" font-family="sans-serif" font-size="11" fill="#444">May</text>
<text x="574.17" y="566.00" text-anchor="middle" font-family="sans-serif" font-size="11" fill="#444">Jun</text>
<text x="665.83" y="566.00" text-anchor="middle" font-family="sans-serif" font-size="11" fill="#444">Jul</text>
<text x="757.50" y="566.00" text-anchor="middle" font-family="sans-serif" font-size="11" fill="#444">Aug</text>
<text x="849.17" y="566.00" text-anchor="middle" font-family="sans-serif" font-size="11" fill="#444">Sep</text>
<text x="940.83" y="566.00" text-anchor="middle" font-family="sans-serif" font-size="11" fill="#444">Oct</text>
<text x="1032.50" y="566.00" text-anchor="middle" font-family="sans-serif" font-size="11" fill="#444">Nov</text>
<text x="1124.17" y="566.00" text-anchor="middle" font-family="sans-serif" font-size="11" fill="#444">Dec</text>
<line x1="70" y1="550" x2="1170" y2="550" stroke="#888"/>
<line x1="70" y1="25" x2="70" y2="550" stroke="#888"/>
<line x1="77.64" y1="550.00" x2="77.64" y2="556.00" stroke="#888"/>
<line x1="1158.54"   y1="550.00" x2="1158.54"   y2="556.00" stroke="#888"/>
<text x="77.64" y="582.00" text-anchor="start" font-family="sans-serif" font-size="11" fill="#333">Initial Balance: 100000</text>
<text x="1158.54"   y="582.00" text-anchor="end"   font-family="sans-serif" font-size="11" fill="#333">Ending Balance: 120415</text>
<path d="M 165.83 107.21 L 174.17 107.21 L 182.50 107.21 L 182.50 108.85 L 174.17 110.97 L 165.83 111.74 Z" fill="#d0d0d0" fill-opacity="0.5" stroke="none"/>
<path d="M 255.33 96.82 L 259.31 96.82 L 263.30 96.82 L 267.28 96.82 L 271.27 96.82 L 271.27 96.93 L 267.28 99.24 L 263.30 101.58 L 259.31 96.93 L 255.33 97.68 Z" fill="#d0d0d0" fill-opacity="0.5" stroke="none"/>
<path d="M 279.24 95.49 L 283.22 95.49 L 287.21 95.49 L 291.20 95.49 L 291.20 95.55 L 287.21 97.90 L 283.22 98.15 L 279.24 100.14 Z" fill="#d0d0d0" fill-opacity="0.5" stroke="none"/>
<path d="M 311.12 87.35 L 315.11 87.35 L 319.09 87.35 L 319.09 88.20 L 315.11 89.88 L 311.12 92.09 Z" fill="#d0d0d0" fill-opacity="0.5" stroke="none"/>
<path d="M 361.89 69.27 L 366.71 69.27 L 371.54 69.27 L 371.54 70.65 L 366.71 71.73 L 361.89 74.18 Z" fill="#d0d0d0" fill-opacity="0.5" stroke="none"/>
<path d="M 381.18 68.17 L 386.01 68.17 L 390.83 68.17 L 395.66 68.17 L 400.48 68.17 L 405.31 68.17 L 410.13 68.17 L 414.96 68.17 L 419.78 68.17 L 424.61 68.17 L 429.43 68.17 L 434.25 68.17 L 439.72 68.17 L 445.83 68.17 L 451.94 68.17 L 458.06 68.17 L 464.17 68.17 L 470.28 68.17 L 476.39 68.17 L 476.39 68.55 L 470.28 71.06 L 464.17 73.55 L 458.06 75.75 L 451.94 70.86 L 445.83 72.16 L 439.72 74.65 L 434.25 75.68 L 429.43 77.89 L 424.61 73.05 L 419.78 75.69 L 414.96 76.73 L 410.13 71.84 L 405.31 73.20 L 400.48 74.97 L 395.66 74.62 L 390.83 76.84 L 386.01 71.96 L 381.18 73.09 Z" fill="#d0d0d0" fill-opacity="0.5" stroke="none"/>
<path d="M 494.72 65.04 L 500.83 65.04 L 506.94 65.04 L 513.06 65.04 L 519.17 65.04 L 525.28 65.04 L 530.62 65.04 L 535.21 65.04 L 539.79 65.04 L 544.38 65.04 L 548.96 65.04 L 548.96 66.14 L 544.38 68.46 L 539.79 70.96 L 535.21 66.04 L 530.62 68.00 L 525.28 70.50 L 519.17 72.30 L 513.06 74.55 L 506.94 73.77 L 500.83 74.89 L 494.72 69.99 Z" fill="#d0d0d0" fill-opacity="0.5" stroke="none"/>
<path d="M 594.79 47.77 L 599.38 47.77 L 603.96 47.77 L 608.54 47.77 L 613.12 47.77 L 617.71 47.77 L 625.09 47.77 L 635.28 47.77 L 645.46 47.77 L 645.46 49.28 L 635.28 50.67 L 625.09 53.24 L 617.71 55.64 L 613.12 58.40 L 608.54 53.39 L 603.96 56.14 L 599.38 57.93 L 594.79 52.88 Z" fill="#d0d0d0" fill-opacity="0.5" stroke="none"/>
<path d="M 665.83 46.94 L 665.83 47.45 Z" fill="#d0d0d0" fill-opacity="0.5" stroke="none"/>
<path d="M 696.39 42.30 L 706.57 42.30 L 714.08 42.30 L 718.90 42.30 L 723.73 42.30 L 728.55 42.30 L 733.38 42.30 L 738.20 42.30 L 743.03 42.30 L 747.85 42.30 L 752.68 42.30 L 757.50 42.30 L 757.50 44.36 L 752.68 46.92 L 747.85 49.32 L 743.03 49.71 L 738.20 50.39 L 733.38 45.27 L 728.55 44.65 L 723.73 47.25 L 718.90 50.04 L 714.08 44.91 L 706.57 47.51 L 696.39 47.41 Z" fill="#d0d0d0" fill-opacity="0.5" stroke="none"/>
<path d="M 771.97 40.61 L 776.80 40.61 L 781.62 40.61 L 786.45 40.61 L 791.27 40.61 L 791.27 42.99 L 786.45 43.49 L 781.62 46.31 L 776.80 43.44 L 771.97 45.77 Z" fill="#d0d0d0" fill-opacity="0.5" stroke="none"/>
<path d="M 860.62 35.14 L 883.54 35.14 L 901.55 35.14 L 914.64 35.14 L 927.74 35.14 L 927.74 37.00 L 914.64 36.25 L 901.55 36.96 L 883.54 37.27 L 860.62 36.40 Z" fill="#d0d0d0" fill-opacity="0.5" stroke="none"/>
<path d="M 967.02 31.71 L 967.02 33.36 Z" fill="#d0d0d0" fill-opacity="0.5" stroke="none"/>
<path d="M 1112.71 25.00 L 1135.62 25.00 L 1158.54 25.00 L 1158.54 27.92 L 1135.62 28.71 L 1112.71 30.30 Z" fill="#d0d0d0" fill-opacity="0.5" stroke="none"/>
<polyline fill="none" stroke="#111" stroke-width="1.2" points="77.64,116.43 92.92,114.14 108.19,113.68 123.47,111.39 138.75,109.32 154.03,107.21 165.83,111.74 174.17,110.97 182.50,108.85 190.83,107.05 199.17,106.06 207.50,105.38 215.83,103.17 224.17,101.97 232.50,100.16 240.83,99.36 249.17,96.82 255.33,97.68 259.31,96.93 263.30,101.58 267.28,99.24 271.27,96.93 275.25,95.49 279.24,100.14 283.22,98.15 287.21,97.90 291.20,95.55 295.18,93.33 299.17,91.53 303.15,89.69 307.14,87.35 311.12,92.09 315.11,89.88 319.09,88.20 323.08,85.79 327.07,83.36 331.05,81.20 335.04,79.73 339.02,77.29 343.01,74.82 347.41,72.90 352.24,70.62 357.06,69.27 361.89,74.18 366.71,71.73 371.54,70.65 376.36,68.17 381.18,73.09 386.01,71.96 390.83,76.84 395.66,74.62 400.48,74.97 405.31,73.20 410.13,71.84 414.96,76.73 419.78,75.69 424.61,73.05 429.43,77.89 434.25,75.68 439.72,74.65 445.83,72.16 451.94,70.86 458.06,75.75 464.17,73.55 470.28,71.06 476.39,68.55 482.50,66.70 488.61,65.04 494.72,69.99 500.83,74.89 506.94,73.77 513.06,74.55 519.17,72.30 525.28,70.50 530.62,68.00 535.21,66.04 539.79,70.96 544.38,68.46 548.96,66.14 553.54,63.62 558.12,63.54 562.71,61.00 567.29,59.26 571.88,57.25 576.46,54.68 581.04,52.10 585.62,50.38 590.21,47.77 594.79,52.88 599.38,57.93 603.96,56.14 608.54,53.39 613.12,58.40 617.71,55.64 625.09,53.24 635.28,50.67 645.46,49.28 655.65,46.94 665.83,47.45 676.02,45.09 686.20,42.30 696.39,47.41 706.57,47.51 714.08,44.91 718.90,50.04 723.73,47.25 728.55,44.65 733.38,45.27 738.20,50.39 743.03,49.71 747.85,49.32 752.68,46.92 757.50,44.36 762.32,41.64 767.15,40.61 771.97,45.77 776.80,43.44 781.62,46.31 786.45,43.49 791.27,42.99 796.10,40.35 800.92,38.36 814.79,37.80 837.71,35.14 860.62,36.40 883.54,37.27 901.55,36.96 914.64,36.25 927.74,37.00 940.83,34.33 953.93,31.71 967.02,33.36 980.12,30.68 1009.58,28.02 1055.42,27.23 1089.79,25.00 1112.71,30.30 1135.62,28.71 1158.54,27.92"/>
<text x="15" y="287.5" transform="rotate(-90 15,287.5)" text-anchor="middle" font-family="sans-serif" font-size="12" fill="#333">USD</text>
</svg>