<svg xmlns="http://www.w3.org/2000/svg" width="1200" height="600" viewBox="0 0 1200 600">
<desc>Equity curve with drawdown fill; x-axis is months only (no exact timestamps)</desc>
<text x="600.0" y="18.0" text-anchor="middle" font-family="sans-serif" font-size="14">Balance Curve 2015 (UTC)</text>
<rect x="70" y="25" width="1100" height="525" fill="white" stroke="#ccc" />
<line x1="70" y1="550.00" x2="1170" y2="550.00" stroke="#eee"/>
<text x="62" y="554.0" text-anchor="end" font-family="sans-serif" font-size="11" fill="#555">0.00</text>
<line x1="70" y1="445.00" x2="1170" y2="445.00" stroke="#eee"/>
<text x="62" y="449.0" text-anchor="end" font-family="sans-serif" font-size="11" fill="#555">89689</text>
<line x1="70" y1="340.00" x2="1170" y2="340.00" stroke="#eee"/>
<text x="62" y="344.0" text-anchor="end" font-family="sans-serif" font-size="11" fill="#555">179379</text>
<line x1="70" y1="235.00" x2="1170" y2="235.00" stroke="#eee"/>
<text x="62" y="239.0" text-anchor="end" font-family="sans-serif" font-size="11" fill="#555">269068</text>
<line x1="70" y1="130.00" x2="1170" y2="130.00" stroke="#eee"/>
<text x="62" y="134.0" text-anchor="end" font-family="sans-serif" font-size="11" fill="#555">358757</text>
<line x1="70" y1="25.00" x2="1170" y2="25.00" stroke="#eee"/>
<text x="62" y="29.0" text-anchor="end" font-family="sans-serif" font-size="11" fill="#555">448446</text>
<line x1="161.67" y1="25" x2="161.67" y2="550" stroke="#f2f2f2"/>
<line x1="253.33" y1="25" x2="253.33" y2="550" stroke="#f2f2f2"/>
<line x1="345.00" y1="25" x2="345.00" y2="550" stroke="#f2f2f2"/>
<line x1="436.67" y1="25" x2="436.67" y2="550" stroke="#f2f2f2"/>
<line x1="528.33" y1="25" x2="528.33" y2="550" stroke="#f2f2f2"/>
<line x1="620.00" y1="25" x2="620.00" y2="550" stroke="#f2f2f2"/>
<line x1="711.67" y1="25" x2="711.67" y2="550" stroke="#f2f2f2"/>
<line x1="803.33" y1="25" x2="803.33" y2="550" stroke="#f2f2f2"/>
<line x1="895.00" y1="25" x2="895.00" y2="550" stroke="#f2f2f2"/>
<line x1="986.67" y1="25" x2="986.67" y2="550" stroke="#f2f2f2"/>
<line x1="1078.33" y1="25" x2="1078.33" y2="550" stroke="#f2f2f2"/>
<text x="115.83" y="566.00" text-anchor="middle" font-family="sans-serif" font-size="11" fill="#444">Jan</text>
<text x="207.50" y="566.00" text-anchor="middle" font-family="sans-serif" font-size="11" fill="#444">Feb</text>
<text x="299.17" y="566.00" text-anchor="middle" font-family="sans-serif" font-size="11" fill="#444">Mar</text>
<text x="390.83" y="566.00" text-anchor="middle" font-family="sans-serif" font-size="11" fill="#444">Apr</text>
<text x="482.50" y="566.00" text-anchor="middle" font-family="sans-serif" font-size="11" fill="#444">May</text>
<text x="574.17" y="566.00" text-anchor="middle" font-family="sans-serif" font-size="11" fill="#444">Jun</text>
<text x="665.83" y="566.00" text-anchor="middle" font-family="sans-serif" font-size="11" fill="#444">Jul</text>
<text x="757.50" y="566.00" text-anchor="middle" font-family="sans-serif" font-size="11" fill="#444">Aug</text>
<text x="849.17" y="566.00" text-anchor="middle" font-family="sans-serif" font-size="11" fill="#444">Sep</text>
<text x="940.83" y="566.00" text-anchor="middle" font-family="sans-serif" font-size="11" fill="#444">Oct</text>
<text x="1032.50" y="566.00" text-anchor="middle" font-family="sans-serif" font-size="11" fill="#444">Nov</text>
<text x="1124.17" y="566.00" text-anchor="middle" font-family="sans-serif" font-size="11" fill="#444">Dec</text>
<line x1="70" y1="550" x2="1170" y2="550" stroke="#888"/>
<line x1="70" y1="25" x2="70" y2="550" stroke="#888"/>
<line x1="77.64" y1="550.00" x2="77.64" y2="556.00" stroke="#888"/>
<line x1="1158.54"   y1="550.00" x2="1158.54"   y2="556.00" stroke="#888"/>
<text x="77.64" y="582.00" text-anchor="start" font-family="sans-serif" font-size="11" fill="#333">Initial Balance: 336413</text>
<text x="1158.54"   y="582.00" text-anchor="end"   font-family="sans-serif" font-size="11" fill="#333">Ending Balance: 444813</text>
<path d="M 165.83 143.53 L 174.17 143.53 L 182.50 143.53 L 182.50 145.77 L 174.17 148.67 L 165.83 149.74 Z" fill="#d0d0d0" fill-opacity="0.5" stroke="none"/>
<path d="M 255.33 129.10 L 259.31 129.10 L 263.30 129.10 L 267.28 129.10 L 271.27 129.10 L 271.27 129.22 L 267.28 132.44 L 263.30 135.67 L 259.31 129.25 L 255.33 130.30 Z" fill="#d0d0d0" fill-opacity="0.5" stroke="none"/>
<path d="M 279.24 127.22 L 283.22 127.22 L 287.21 127.22 L 291.20 127.22 L 291.20 127.26 L 287.21 130.54 L 283.22 130.90 L 279.24 133.67 Z" fill="#d0d0d0" fill-opacity="0.5" stroke="none"/>
<path d="M 311.12 115.79 L 315.11 115.79 L 319.09 115.79 L 319.09 116.96 L 315.11 119.30 L 311.12 122.40 Z" fill="#d0d0d0" fill-opacity="0.5" stroke="none"/>
<path d="M 361.89 90.18 L 366.71 90.18 L 371.54 90.18 L 371.54 92.13 L 366.71 93.65 L 361.89 97.15 Z" fill="#d0d0d0" fill-opacity="0.5" stroke="none"/>
<path d="M 381.18 88.58 L 386.01 88.58 L 390.83 88.58 L 395.66 88.58 L 400.48 88.58 L 405.31 88.58 L 410.13 88.58 L 414.96 88.58 L 419.78 88.58 L 424.61 88.58 L 429.43 88.58 L 434.25 88.58 L 439.72 88.58 L 445.83 88.58 L 451.94 88.58 L 458.06 88.58 L 464.17 88.58 L 470.28 88.58 L 476.39 88.58 L 476.39 88.94 L 470.28 92.51 L 464.17 96.06 L 458.06 99.18 L 451.94 92.26 L 445.83 94.11 L 439.72 97.65 L 434.25 99.12 L 429.43 102.25 L 424.61 95.41 L 419.78 99.16 L 414.96 100.65 L 410.13 93.74 L 405.31 95.68 L 400.48 98.19 L 395.66 97.70 L 390.83 100.86 L 386.01 93.95 L 381.18 95.56 Z" fill="#d0d0d0" fill-opacity="0.5" stroke="none"/>
<path d="M 494.72 83.91 L 500.83 83.91 L 506.94 83.91 L 513.06 83.91 L 519.17 83.91 L 525.28 83.91 L 530.62 83.91 L 535.21 83.91 L 539.79 83.91 L 544.38 83.91 L 548.96 83.91 L 548.96 85.39 L 544.38 88.70 L 539.79 92.28 L 535.21 85.25 L 530.62 88.07 L 525.28 91.63 L 519.17 94.20 L 513.06 97.40 L 506.94 96.31 L 500.83 97.90 L 494.72 90.95 Z" fill="#d0d0d0" fill-opacity="0.5" stroke="none"/>
<path d="M 594.79 58.87 L 599.38 58.87 L 603.96 58.87 L 608.54 58.87 L 613.12 58.87 L 617.71 58.87 L 625.09 58.87 L 635.28 58.87 L 645.46 58.87 L 645.46 60.95 L 635.28 62.97 L 625.09 66.68 L 617.71 70.15 L 613.12 74.13 L 608.54 66.96 L 603.96 70.91 L 599.38 73.50 L 594.79 66.23 Z" fill="#d0d0d0" fill-opacity="0.5" stroke="none"/>
<path d="M 665.83 57.56 L 665.83 58.29 Z" fill="#d0d0d0" fill-opacity="0.5" stroke="none"/>
<path d="M 696.39 50.79 L 706.57 50.79 L 714.08 50.79 L 718.90 50.79 L 723.73 50.79 L 728.55 50.79 L 733.38 50.79 L 738.20 50.79 L 743.03 50.79 L 747.85 50.79 L 752.68 50.79 L 757.50 50.79 L 757.50 53.62 L 752.68 57.34 L 747.85 60.83 L 743.03 61.39 L 738.20 62.40 L 733.38 54.99 L 728.55 54.10 L 723.73 57.89 L 718.90 61.93 L 714.08 54.51 L 706.57 58.29 L 696.39 58.17 Z" fill="#d0d0d0" fill-opacity="0.5" stroke="none"/>
<path d="M 771.97 48.11 L 776.80 48.11 L 781.62 48.11 L 786.45 48.11 L 791.27 48.11 L 791.27 51.52 L 786.45 52.25 L 781.62 56.38 L 776.80 52.22 L 771.97 55.60 Z" fill="#d0d0d0" fill-opacity="0.5" stroke="none"/>
<path d="M 860.62 40.03 L 883.54 40.03 L 901.55 40.03 L 914.64 40.03 L 927.74 40.03 L 927.74 42.67 L 914.64 41.59 L 901.55 42.63 L 883.54 43.10 L 860.62 41.85 Z" fill="#d0d0d0" fill-opacity="0.5" stroke="none"/>
<path d="M 967.02 34.90 L 967.02 37.32 Z" fill="#d0d0d0" fill-opacity="0.5" stroke="none"/>
<path d="M 1112.71 25.00 L 1135.62 25.00 L 1158.54 25.00 L 1158.54 29.25 L 1135.62 30.43 L 1112.71 32.78 Z" fill="#d0d0d0" fill-opacity="0.5" stroke="none"/>
<polyline fill="none" stroke="#111" stroke-width="1.2" points="77.64,156.16 92.92,153.03 108.19,152.39 123.47,149.26 138.75,146.44 154.03,143.53 165.83,149.74 174.17,148.67 182.50,145.77 190.83,143.29 199.17,141.92 207.50,140.98 215.83,137.93 224.17,136.27 232.50,133.76 240.83,132.65 249.17,129.10 255.33,130.30 259.31,129.25 263.30,135.67 267.28,132.44 271.27,129.22 275.25,127.22 279.24,133.67 283.22,130.90 287.21,130.54 291.20,127.26 295.18,124.18 299.17,121.66 303.15,119.07 307.14,115.79 311.12,122.40 315.11,119.30 319.09,116.96 323.08,113.57 327.07,110.16 331.05,107.11 335.04,105.04 339.02,101.57 343.01,98.07 347.41,95.34 352.24,92.10 357.06,90.18 361.89,97.15 366.71,93.65 371.54,92.13 376.36,88.58 381.18,95.56 386.01,93.95 390.83,100.86 395.66,97.70 400.48,98.19 405.31,95.68 410.13,93.74 414.96,100.65 419.78,99.16 424.61,95.41 429.43,102.25 434.25,99.12 439.72,97.65 445.83,94.11 451.94,92.26 458.06,99.18 464.17,96.06 470.28,92.51 476.39,88.94 482.50,86.30 488.61,83.91 494.72,90.95 500.83,97.90 506.94,96.31 513.06,97.40 519.17,94.20 525.28,91.63 530.62,88.07 535.21,85.25 539.79,92.28 544.38,88.70 548.96,85.39 553.54,81.77 558.12,81.64 562.71,77.99 567.29,75.48 571.88,72.59 576.46,68.88 581.04,65.15 585.62,62.65 590.21,58.87 594.79,66.23 599.38,73.50 603.96,70.91 608.54,66.96 613.12,74.13 617.71,70.15 625.09,66.68 635.28,62.97 645.46,60.95 655.65,57.56 665.83,58.29 676.02,54.86 686.20,50.79 696.39,58.17 706.57,58.29 714.08,54.51 718.90,61.93 723.73,57.89 728.55,54.10 733.38,54.99 738.20,62.40 743.03,61.39 747.85,60.83 752.68,57.34 757.50,53.62 762.32,49.63 767.15,48.11 771.97,55.60 776.80,52.22 781.62,56.38 786.45,52.25 791.27,51.52 796.10,47.67 800.92,44.76 814.79,43.92 837.71,40.03 860.62,41.85 883.54,43.10 901.55,42.63 914.64,41.59 927.74,42.67 940.83,38.76 953.93,34.90 967.02,37.32 980.12,33.39 1009.58,29.47 1055.42,28.29 1089.79,25.00 1112.71,32.78 1135.62,30.43 1158.54,29.25"/>
<text x="15" y="287.5" transform="rotate(-90 15,287.5)" text-anchor="middle" font-family="sans-serif" font-size="12" fill="#333">USD</text>
</svg>