<svg xmlns="http://www.w3.org/2000/svg" width="1200" height="600" viewBox="0 0 1200 600">
<desc>Equity curve with drawdown fill; x-axis is months only (no exact timestamps)</desc>
<text x="600.0" y="18.0" text-anchor="middle" font-family="sans-serif" font-size="14">Portfolio 2001 (UTC)</text>
<rect x="70" y="25" width="1100" height="525" fill="white" stroke="#ccc" />
<line x1="70" y1="550.00" x2="1170" y2="550.00" stroke="#eee"/>
<text x="62" y="554.0" text-anchor="end" font-family="sans-serif" font-size="11" fill="#555">0.00</text>
<line x1="70" y1="445.00" x2="1170" y2="445.00" stroke="#eee"/>
<text x="62" y="449.0" text-anchor="end" font-family="sans-serif" font-size="11" fill="#555">20527</text>
<line x1="70" y1="340.00" x2="1170" y2="340.00" stroke="#eee"/>
<text x="62" y="344.0" text-anchor="end" font-family="sans-serif" font-size="11" fill="#555">41053</text>
<line x1="70" y1="235.00" x2="1170" y2="235.00" stroke="#eee"/>
<text x="62" y="239.0" text-anchor="end" font-family="sans-serif" font-size="11" fill="#555">61580</text>
<line x1="70" y1="130.00" x2="1170" y2="130.00" stroke="#eee"/>
<text x="62" y="134.0" text-anchor="end" font-family="sans-serif" font-size="11" fill="#555">82106</text>
<line x1="70" y1="25.00" x2="1170" y2="25.00" stroke="#eee"/>
<text x="62" y="29.0" text-anchor="end" font-family="sans-serif" font-size="11" fill="#555">102633</text>
<line x1="161.67" y1="25" x2="161.67" y2="550" stroke="#f2f2f2"/>
<line x1="253.33" y1="25" x2="253.33" y2="550" stroke="#f2f2f2"/>
<line x1="345.00" y1="25" x2="345.00" y2="550" stroke="#f2f2f2"/>
<line x1="436.67" y1="25" x2="436.67" y2="550" stroke="#f2f2f2"/>
<line x1="528.33" y1="25" x2="528.33" y2="550" stroke="#f2f2f2"/>
<line x1="620.00" y1="25" x2="620.00" y2="550" stroke="#f2f2f2"/>
<line x1="711.67" y1="25" x2="711.67" y2="550" stroke="#f2f2f2"/>
<line x1="803.33" y1="25" x2="803.33" y2="550" stroke="#f2f2f2"/>
<line x1="895.00" y1="25" x2="895.00" y2="550" stroke="#f2f2f2"/>
<line x1="986.67" y1="25" x2="986.67" y2="550" stroke="#f2f2f2"/>
<line x1="1078.33" y1="25" x2="1078.33" y2="550" stroke="#f2f2f2"/>
<text x="115.83" y="566.00" text-anchor="middle" font-family="sans-serif" font-size="11" fill="#444">Jan</text>
<text x="207.50" y="566.00" text-anchor="middle" font-family="sans-serif" font-size="11" fill="#444">Feb</text>
<text x="299.17" y="566.00" text-anchor="middle" font-family="sans-serif" font-size="11" fill="#444">Mar</text>
<text x="390.83" y="566.00" text-anchor="middle" font-family="sans-serif" font-size="11" fill="#444">Apr</text>
<text x="482.50" y="566.00" text-anchor="middle" font-family="sans-serif" font-size="11" fill="#444">May</text>
<text x="574.17" y="566.00" text-anchor="middle" font-family="sans-serif" font-size="11" fill="#444">Jun</text>
<text x="665.83" y="566.00" text-anchor="middle" font-family="sans-serif" font-size="11" fill="#444">Jul</text>
<text x="757.50" y="566.00" text-anchor="middle" font-family="sans-serif" font-size="11" fill="#444">Aug</text>
<text x="849.17" y="566.00" text-anchor="middle" font-family="sans-serif" font-size="11" fill="#444">Sep</text>
<text x="940.83" y="566.00" text-anchor="middle" font-family="sans-serif" font-size="11" fill="#444">Oct</text>
<text x="1032.50" y="566.00" text-anchor="middle" font-family="sans-serif" font-size="11" fill="#444">Nov</text>
<text x="1124.17" y="566.00" text-anchor="middle" font-family="sans-serif" font-size="11" fill="#444">Dec</text>
<line x1="70" y1="550" x2="1170" y2="550" stroke="#888"/>
<line x1="70" y1="25" x2="70" y2="550" stroke="#888"/>
<line x1="73.53" y1="550.00" x2="73.53" y2="556.00" stroke="#888"/>
<line x1="1168.17"   y1="550.00" x2="1168.17"   y2="556.00" stroke="#888"/>
<text x="73.53" y="582.00" text-anchor="start" font-family="sans-serif" font-size="11" fill="#333">Initial Balance: 100000</text>
<text x="1168.17"   y="582.00" text-anchor="end"   font-family="sans-serif" font-size="11" fill="#333">Ending Balance: 90316</text>
<path d="M 80.58 38.47 L 87.63 38.47 L 94.68 38.47 L 101.73 38.47 L 108.78 38.47 L 115.83 38.47 L 122.88 38.47 L 129.94 38.47 L 136.99 38.47 L 144.04 38.47 L 151.09 38.47 L 158.14 38.47 L 164.36 38.47 L 169.75 38.47 L 175.15 38.47 L 180.54 38.47 L 185.93 38.47 L 191.32 38.47 L 196.72 38.47 L 202.11 38.47 L 207.50 38.47 L 212.89 38.47 L 218.28 38.47 L 223.68 38.47 L 229.07 38.47 L 234.46 38.47 L 239.85 38.47 L 245.25 38.47 L 250.64 38.47 L 258.43 38.47 L 268.61 38.47 L 278.80 38.47 L 288.98 38.47 L 299.17 38.47 L 309.35 38.47 L 319.54 38.47 L 329.72 38.47 L 339.91 38.47 L 348.53 38.47 L 355.58 38.47 L 362.63 38.47 L 369.68 38.47 L 376.73 38.47 L 383.78 38.47 L 390.83 38.47 L 397.88 38.47 L 404.94 38.47 L 411.99 38.47 L 419.04 38.47 L 426.09 38.47 L 433.14 38.47 L 439.94 38.47 L 439.94 39.52 L 433.14 40.92 L 426.09 43.33 L 419.04 43.55 L 411.99 46.01 L 404.94 48.63 L 397.88 50.53 L 390.83 51.27 L 383.78 51.58 L 376.73 54.16 L 369.68 56.74 L 362.63 53.62 L 355.58 48.44 L 348.53 49.17 L 339.91 50.94 L 329.72 52.11 L 319.54 54.44 L 309.35 54.68 L 299.17 54.66 L 288.98 56.27 L 278.80 58.29 L 268.61 60.61 L 258.43 59.76 L 250.64 54.65 L 245.25 55.85 L 239.85 58.24 L 234.46 57.86 L 229.07 55.74 L 223.68 50.58 L 218.28 52.77 L 212.89 53.65 L 207.50 54.45 L 202.11 55.46 L 196.72 57.14 L 191.32 59.51 L 185.93 60.57 L 180.54 61.05 L 175.15 61.99 L 169.75 60.54 L 164.36 62.00 L 158.14 64.07 L 151.09 59.02 L 144.04 58.30 L 136.99 59.37 L 129.94 61.68 L 122.88 64.07 L 115.83 66.26 L 108.78 64.00 L 101.73 59.00 L 94.68 53.89 L 87.63 48.83 L 80.58 43.68 Z" fill="#d0d0d0" fill-opacity="0.5" stroke="none"/>
<path d="M 453.04 36.67 L 459.58 36.67 L 466.13 36.67 L 472.68 36.67 L 472.68 36.72 L 466.13 39.08 L 459.58 41.54 L 453.04 41.91 Z" fill="#d0d0d0" fill-opacity="0.5" stroke="none"/>
<path d="M 485.77 35.95 L 492.32 35.95 L 498.87 35.95 L 498.87 36.34 L 492.32 38.85 L 485.77 41.26 Z" fill="#d0d0d0" fill-opacity="0.5" stroke="none"/>
<path d="M 538.15 25.00 L 544.70 25.00 L 551.25 25.00 L 557.80 25.00 L 564.35 25.00 L 570.89 25.00 L 577.44 25.00 L 583.99 25.00 L 590.54 25.00 L 597.08 25.00 L 603.63 25.00 L 610.18 25.00 L 616.73 25.00 L 626.55 25.00 L 639.64 25.00 L 652.74 25.00 L 665.83 25.00 L 678.93 25.00 L 692.02 25.00 L 705.12 25.00 L 715.83 25.00 L 724.17 25.00 L 732.50 25.00 L 740.83 25.00 L 749.17 25.00 L 757.50 25.00 L 765.83 25.00 L 774.17 25.00 L 782.50 25.00 L 790.83 25.00 L 799.17 25.00 L 805.62 25.00 L 810.21 25.00 L 814.79 25.00 L 819.38 25.00 L 823.96 25.00 L 828.54 25.00 L 833.12 25.00 L 837.71 25.00 L 842.29 25.00 L 846.87 25.00 L 851.46 25.00 L 856.04 25.00 L 860.62 25.00 L 865.21 25.00 L 869.79 25.00 L 874.38 25.00 L 878.96 25.00 L 883.54 25.00 L 888.12 25.00 L 892.71 25.00 L 906.46 25.00 L 929.38 25.00 L 952.29 25.00 L 975.21 25.00 L 1009.58 25.00 L 1055.42 25.00 L 1080.17 25.00 L 1083.83 25.00 L 1087.50 25.00 L 1091.17 25.00 L 1094.83 25.00 L 1098.50 25.00 L 1102.17 25.00 L 1105.83 25.00 L 1109.50 25.00 L 1113.17 25.00 L 1116.83 25.00 L 1120.50 25.00 L 1124.17 25.00 L 1127.83 25.00 L 1131.50 25.00 L 1135.17 25.00 L 1138.83 25.00 L 1142.50 25.00 L 1146.17 25.00 L 1149.83 25.00 L 1153.50 25.00 L 1157.17 25.00 L 1160.83 25.00 L 1164.50 25.00 L 1168.17 25.00 L 1168.17 88.01 L 1164.50 78.58 L 1160.83 83.27 L 1157.17 81.25 L 1153.50 76.42 L 1149.83 71.65 L 1146.17 74.37 L 1142.50 77.14 L 1138.83 72.27 L 1135.17 74.91 L 1131.50 70.02 L 1127.83 65.18 L 1124.17 67.94 L 1120.50 70.28 L 1116.83 65.31 L 1113.17 68.00 L 1109.50 62.67 L 1105.83 57.72 L 1102.17 67.70 L 1098.50 60.56 L 1094.83 55.52 L 1091.17 50.52 L 1087.50 53.37 L 1083.83 48.18 L 1080.17 48.59 L 1055.42 43.36 L 1009.58 42.25 L 975.21 43.28 L 952.29 46.12 L 929.38 40.92 L 906.46 38.23 L 892.71 40.20 L 888.12 40.02 L 883.54 42.67 L 878.96 37.43 L 874.38 38.96 L 869.79 41.64 L 865.21 43.55 L 860.62 46.04 L 856.04 48.49 L 851.46 50.56 L 846.87 52.72 L 842.29 53.55 L 837.71 54.67 L 833.12 56.11 L 828.54 54.72 L 823.96 49.73 L 819.38 44.57 L 814.79 47.20 L 810.21 49.58 L 805.62 50.85 L 799.17 45.65 L 790.83 47.09 L 782.50 41.84 L 774.17 44.49 L 765.83 47.13 L 757.50 48.40 L 749.17 51.01 L 740.83 52.26 L 732.50 47.07 L 724.17 49.60 L 715.83 44.38 L 705.12 46.18 L 692.02 48.57 L 678.93 49.26 L 665.83 49.46 L 652.74 51.42 L 639.64 46.21 L 626.55 48.32 L 616.73 50.68 L 610.18 45.46 L 603.63 44.00 L 597.08 44.50 L 590.54 45.09 L 583.99 47.11 L 577.44 49.71 L 570.89 51.71 L 564.35 46.50 L 557.80 41.78 L 551.25 37.19 L 544.70 32.24 L 538.15 28.24 Z" fill="#d0d0d0" fill-opacity="0.5" stroke="none"/>
<polyline fill="none" stroke="#111" stroke-width="1.2" points="73.53,38.47 80.58,43.68 87.63,48.83 94.68,53.89 101.73,59.00 108.78,64.00 115.83,66.26 122.88,64.07 129.94,61.68 136.99,59.37 144.04,58.30 151.09,59.02 158.14,64.07 164.36,62.00 169.75,60.54 175.15,61.99 180.54,61.05 185.93,60.57 191.32,59.51 196.72,57.14 202.11,55.46 207.50,54.45 212.89,53.65 218.28,52.77 223.68,50.58 229.07,55.74 234.46,57.86 239.85,58.24 245.25,55.85 250.64,54.65 258.43,59.76 268.61,60.61 278.80,58.29 288.98,56.27 299.17,54.66 309.35,54.68 319.54,54.44 329.72,52.11 339.91,50.94 348.53,49.17 355.58,48.44 362.63,53.62 369.68,56.74 376.73,54.16 383.78,51.58 390.83,51.27 397.88,50.53 404.94,48.63 411.99,46.01 419.04,43.55 426.09,43.33 433.14,40.92 439.94,39.52 446.49,36.67 453.04,41.91 459.58,41.54 466.13,39.08 472.68,36.72 479.23,35.95 485.77,41.26 492.32,38.85 498.87,36.34 505.42,35.21 511.96,32.80 518.51,30.11 525.06,27.69 531.61,25.00 538.15,28.24 544.70,32.24 551.25,37.19 557.80,41.78 564.35,46.50 570.89,51.71 577.44,49.71 583.99,47.11 590.54,45.09 597.08,44.50 603.63,44.00 610.18,45.46 616.73,50.68 626.55,48.32 639.64,46.21 652.74,51.42 665.83,49.46 678.93,49.26 692.02,48.57 705.12,46.18 715.83,44.38 724.17,49.60 732.50,47.07 740.83,52.26 749.17,51.01 757.50,48.40 765.83,47.13 774.17,44.49 782.50,41.84 790.83,47.09 799.17,45.65 805.62,50.85 810.21,49.58 814.79,47.20 819.38,44.57 823.96,49.73 828.54,54.72 833.12,56.11 837.71,54.67 842.29,53.55 846.87,52.72 851.46,50.56 856.04,48.49 860.62,46.04 865.21,43.55 869.79,41.64 874.38,38.96 878.96,37.43 883.54,42.67 888.12,40.02 892.71,40.20 906.46,38.23 929.38,40.92 952.29,46.12 975.21,43.28 1009.58,42.25 1055.42,43.36 1080.17,48.59 1083.83,48.18 1087.50,53.37 1091.17,50.52 1094.83,55.52 1098.50,60.56 1102.17,67.70 1105.83,57.72 1109.50,62.67 1113.17,68.00 1116.83,65.31 1120.50,70.28 1124.17,67.94 1127.83,65.18 1131.50,70.02 1135.17,74.91 1138.83,72.27 1142.50,77.14 1146.17,74.37 1149.83,71.65 1153.50,76.42 1157.17,81.25 1160.83,83.27 1164.50,78.58 1168.17,88.01"/>
<text x="620.0" y="588" text-anchor="middle" font-family="sans-serif" font-size="12" fill="#333">Monthly Balance Curve</text>
<text x="15" y="287.5" transform="rotate(-90 15,287.5)" text-anchor="middle" font-family="sans-serif" font-size="12" fill="#333">Capital</text>
</svg>