<svg xmlns="http://www.w3.org/2000/svg" width="1200" height="600" viewBox="0 0 1200 600">
<desc>Equity curve with drawdown fill; x-axis is months only (no exact timestamps)</desc>
<text x="600.0" y="18.0" text-anchor="middle" font-family="sans-serif" font-size="14">Portfolio 2002 (UTC)</text>
<rect x="70" y="25" width="1100" height="525" fill="white" stroke="#ccc" />
<line x1="70" y1="550.00" x2="1170" y2="550.00" stroke="#eee"/>
<text x="62" y="554.0" text-anchor="end" font-family="sans-serif" font-size="11" fill="#555">0.00</text>
<line x1="70" y1="445.00" x2="1170" y2="445.00" stroke="#eee"/>
<text x="62" y="449.0" text-anchor="end" font-family="sans-serif" font-size="11" fill="#555">20000</text>
<line x1="70" y1="340.00" x2="1170" y2="340.00" stroke="#eee"/>
<text x="62" y="344.0" text-anchor="end" font-family="sans-serif" font-size="11" fill="#555">40000</text>
<line x1="70" y1="235.00" x2="1170" y2="235.00" stroke="#eee"/>
<text x="62" y="239.0" text-anchor="end" font-family="sans-serif" font-size="11" fill="#555">60000</text>
<line x1="70" y1="130.00" x2="1170" y2="130.00" stroke="#eee"/>
<text x="62" y="134.0" text-anchor="end" font-family="sans-serif" font-size="11" fill="#555">80000</text>
<line x1="70" y1="25.00" x2="1170" y2="25.00" stroke="#eee"/>
<text x="62" y="29.0" text-anchor="end" font-family="sans-serif" font-size="11" fill="#555">100000</text>
<line x1="170.00" y1="25" x2="170.00" y2="550" stroke="#f2f2f2"/>
<line x1="270.00" y1="25" x2="270.00" y2="550" stroke="#f2f2f2"/>
<line x1="370.00" y1="25" x2="370.00" y2="550" stroke="#f2f2f2"/>
<line x1="470.00" y1="25" x2="470.00" y2="550" stroke="#f2f2f2"/>
<line x1="570.00" y1="25" x2="570.00" y2="550" stroke="#f2f2f2"/>
<line x1="670.00" y1="25" x2="670.00" y2="550" stroke="#f2f2f2"/>
<line x1="770.00" y1="25" x2="770.00" y2="550" stroke="#f2f2f2"/>
<line x1="870.00" y1="25" x2="870.00" y2="550" stroke="#f2f2f2"/>
<line x1="970.00" y1="25" x2="970.00" y2="550" stroke="#f2f2f2"/>
<line x1="1070.00" y1="25" x2="1070.00" y2="550" stroke="#f2f2f2"/>
<text x="120.00" y="566.00" text-anchor="middle" font-family="sans-serif" font-size="11" fill="#444">Jan</text>
<text x="220.00" y="566.00" text-anchor="middle" font-family="sans-serif" font-size="11" fill="#444">Feb</text>
<text x="320.00" y="566.00" text-anchor="middle" font-family="sans-serif" font-size="11" fill="#444">Apr</text>
<text x="420.00" y="566.00" text-anchor="middle" font-family="sans-serif" font-size="11" fill="#444">May</text>
<text x="520.00" y="566.00" text-anchor="middle" font-family="sans-serif" font-size="11" fill="#444">Jun</text>
<text x="620.00" y="566.00" text-anchor="middle" font-family="sans-serif" font-size="11" fill="#444">Jul</text>
<text x="720.00" y="566.00" text-anchor="middle" font-family="sans-serif" font-size="11" fill="#444">Aug</text>
<text x="820.00" y="566.00" text-anchor="middle" font-family="sans-serif" font-size="11" fill="#444">Sep</text>
<text x="920.00" y="566.00" text-anchor="middle" font-family="sans-serif" font-size="11" fill="#444">Oct</text>
<text x="1020.00" y="566.00" text-anchor="middle" font-family="sans-serif" font-size="11" fill="#444">Nov</text>
<text x="1120.00" y="566.00" text-anchor="middle" font-family="sans-serif" font-size="11" fill="#444">Dec</text>
<line x1="70" y1="550" x2="1170" y2="550" stroke="#888"/>
<line x1="70" y1="25" x2="70" y2="550" stroke="#888"/>
<line x1="76.25" y1="550.00" x2="76.25" y2="556.00" stroke="#888"/>
<line x1="1161.67"   y1="550.00" x2="1161.67"   y2="556.00" stroke="#888"/>
<text x="76.25" y="582.00" text-anchor="start" font-family="sans-serif" font-size="11" fill="#333">Initial Balance: 100000</text>
<text x="1161.67"   y="582.00" text-anchor="end"   font-family="sans-serif" font-size="11" fill="#333">Ending Balance: 90029</text>
<path d="M 88.75 25.00 L 101.25 25.00 L 113.75 25.00 L 126.25 25.00 L 138.75 25.00 L 151.25 25.00 L 163.75 25.00 L 180.00 25.00 L 200.00 25.00 L 220.00 25.00 L 240.00 25.00 L 260.00 25.00 L 295.00 25.00 L 345.00 25.00 L 377.14 25.00 L 391.43 25.00 L 405.71 25.00 L 420.00 25.00 L 434.29 25.00 L 448.57 25.00 L 462.86 25.00 L 478.33 25.00 L 495.00 25.00 L 511.67 25.00 L 528.33 25.00 L 545.00 25.00 L 561.67 25.00 L 573.12 25.00 L 579.38 25.00 L 585.62 25.00 L 591.88 25.00 L 598.12 25.00 L 604.38 25.00 L 610.62 25.00 L 616.88 25.00 L 623.12 25.00 L 629.38 25.00 L 635.62 25.00 L 641.88 25.00 L 648.12 25.00 L 654.38 25.00 L 660.62 25.00 L 666.88 25.00 L 678.33 25.00 L 695.00 25.00 L 711.67 25.00 L 728.33 25.00 L 745.00 25.00 L 761.67 25.00 L 777.14 25.00 L 791.43 25.00 L 805.71 25.00 L 820.00 25.00 L 834.29 25.00 L 848.57 25.00 L 862.86 25.00 L 895.00 25.00 L 945.00 25.00 L 982.50 25.00 L 1007.50 25.00 L 1032.50 25.00 L 1057.50 25.00 L 1078.33 25.00 L 1095.00 25.00 L 1111.67 25.00 L 1128.33 25.00 L 1145.00 25.00 L 1161.67 25.00 L 1161.67 77.35 L 1145.00 76.12 L 1128.33 76.55 L 1111.67 75.23 L 1095.00 77.49 L 1078.33 78.67 L 1057.50 79.95 L 1032.50 80.65 L 1007.50 75.86 L 982.50 70.96 L 945.00 71.61 L 895.00 73.15 L 862.86 72.87 L 848.57 74.34 L 834.29 69.41 L 820.00 71.15 L 805.71 66.19 L 791.43 66.68 L 777.14 68.49 L 761.67 70.72 L 745.00 70.21 L 728.33 71.46 L 711.67 72.95 L 695.00 74.20 L 678.33 75.58 L 666.88 77.37 L 660.62 74.67 L 654.38 69.81 L 648.12 64.89 L 641.88 66.62 L 635.62 61.61 L 629.38 63.95 L 623.12 63.73 L 616.88 58.89 L 610.62 60.94 L 604.38 63.23 L 598.12 65.50 L 591.88 60.47 L 585.62 59.98 L 579.38 62.29 L 573.12 57.23 L 561.67 57.40 L 545.00 58.28 L 528.33 60.88 L 511.67 63.15 L 495.00 58.10 L 478.33 60.12 L 462.86 55.03 L 448.57 57.14 L 434.29 59.41 L 420.00 58.44 L 405.71 58.14 L 391.43 53.80 L 377.14 48.68 L 345.00 48.28 L 295.00 48.50 L 260.00 43.27 L 240.00 44.39 L 220.00 39.11 L 200.00 40.82 L 180.00 42.00 L 163.75 42.40 L 151.25 44.54 L 138.75 39.27 L 126.25 34.00 L 113.75 28.79 L 101.25 31.76 L 88.75 30.42 Z" fill="#d0d0d0" fill-opacity="0.5" stroke="none"/>
<polyline fill="none" stroke="#111" stroke-width="1.2" points="76.25,25.00 88.75,30.42 101.25,31.76 113.75,28.79 126.25,34.00 138.75,39.27 151.25,44.54 163.75,42.40 180.00,42.00 200.00,40.82 220.00,39.11 240.00,44.39 260.00,43.27 295.00,48.50 345.00,48.28 377.14,48.68 391.43,53.80 405.71,58.14 420.00,58.44 434.29,59.41 448.57,57.14 462.86,55.03 478.33,60.12 495.00,58.10 511.67,63.15 528.33,60.88 545.00,58.28 561.67,57.40 573.12,57.23 579.38,62.29 585.62,59.98 591.88,60.47 598.12,65.50 604.38,63.23 610.62,60.94 616.88,58.89 623.12,63.73 629.38,63.95 635.62,61.61 641.88,66.62 648.12,64.89 654.38,69.81 660.62,74.67 666.88,77.37 678.33,75.58 695.00,74.20 711.67,72.95 728.33,71.46 745.00,70.21 761.67,70.72 777.14,68.49 791.43,66.68 805.71,66.19 820.00,71.15 834.29,69.41 848.57,74.34 862.86,72.87 895.00,73.15 945.00,71.61 982.50,70.96 1007.50,75.86 1032.50,80.65 1057.50,79.95 1078.33,78.67 1095.00,77.49 1111.67,75.23 1128.33,76.55 1145.00,76.12 1161.67,77.35"/>
<text x="620.0" y="588" text-anchor="middle" font-family="sans-serif" font-size="12" fill="#333">Monthly Balance Curve</text>
<text x="15" y="287.5" transform="rotate(-90 15,287.5)" text-anchor="middle" font-family="sans-serif" font-size="12" fill="#333">Capital</text>
</svg>