<svg xmlns="http://www.w3.org/2000/svg" width="1200" height="600" viewBox="0 0 1200 600">
<desc>Equity curve with drawdown fill; x-axis is months only (no exact timestamps)</desc>
<text x="600.0" y="18.0" text-anchor="middle" font-family="sans-serif" font-size="14">Balance Curve 2015 (UTC)</text>
<rect x="70" y="25" width="1100" height="525" fill="white" stroke="#ccc" />
<line x1="70" y1="550.00" x2="1170" y2="550.00" stroke="#eee"/>
<text x="62" y="554.0" text-anchor="end" font-family="sans-serif" font-size="11" fill="#555">0.00</text>
<line x1="70" y1="445.00" x2="1170" y2="445.00" stroke="#eee"/>
<text x="62" y="449.0" text-anchor="end" font-family="sans-serif" font-size="11" fill="#555">263943</text>
<line x1="70" y1="340.00" x2="1170" y2="340.00" stroke="#eee"/>
<text x="62" y="344.0" text-anchor="end" font-family="sans-serif" font-size="11" fill="#555">527886</text>
<line x1="70" y1="235.00" x2="1170" y2="235.00" stroke="#eee"/>
<text x="62" y="239.0" text-anchor="end" font-family="sans-serif" font-size="11" fill="#555">791829</text>
<line x1="70" y1="130.00" x2="1170" y2="130.00" stroke="#eee"/>
<text x="62" y="134.0" text-anchor="end" font-family="sans-serif" font-size="11" fill="#555">1055772</text>
<line x1="70" y1="25.00" x2="1170" y2="25.00" stroke="#eee"/>
<text x="62" y="29.0" text-anchor="end" font-family="sans-serif" font-size="11" fill="#555">1319716</text>
<line x1="161.67" y1="25" x2="161.67" y2="550" stroke="#f2f2f2"/>
<line x1="253.33" y1="25" x2="253.33" y2="550" stroke="#f2f2f2"/>
<line x1="345.00" y1="25" x2="345.00" y2="550" stroke="#f2f2f2"/>
<line x1="436.67" y1="25" x2="436.67" y2="550" stroke="#f2f2f2"/>
<line x1="528.33" y1="25" x2="528.33" y2="550" stroke="#f2f2f2"/>
<line x1="620.00" y1="25" x2="620.00" y2="550" stroke="#f2f2f2"/>
<line x1="711.67" y1="25" x2="711.67" y2="550" stroke="#f2f2f2"/>
<line x1="803.33" y1="25" x2="803.33" y2="550" stroke="#f2f2f2"/>
<line x1="895.00" y1="25" x2="895.00" y2="550" stroke="#f2f2f2"/>
<line x1="986.67" y1="25" x2="986.67" y2="550" stroke="#f2f2f2"/>
<line x1="1078.33" y1="25" x2="1078.33" y2="550" stroke="#f2f2f2"/>
<text x="115.83" y="566.00" text-anchor="middle" font-family="sans-serif" font-size="11" fill="#444">Jan</text>
<text x="207.50" y="566.00" text-anchor="middle" font-family="sans-serif" font-size="11" fill="#444">Feb</text>
<text x="299.17" y="566.00" text-anchor="middle" font-family="sans-serif" font-size="11" fill="#444">Mar</text>
<text x="390.83" y="566.00" text-anchor="middle" font-family="sans-serif" font-size="11" fill="#444">Apr</text>
<text x="482.50" y="566.00" text-anchor="middle" font-family="sans-serif" font-size="11" fill="#444">May</text>
<text x="574.17" y="566.00" text-anchor="middle" font-family="sans-serif" font-size="11" fill="#444">Jun</text>
<text x="665.83" y="566.00" text-anchor="middle" font-family="sans-serif" font-size="11" fill="#444">Jul</text>
<text x="757.50" y="566.00" text-anchor="middle" font-family="sans-serif" font-size="11" fill="#444">Aug</text>
<text x="849.17" y="566.00" text-anchor="middle" font-family="sans-serif" font-size="11" fill="#444">Sep</text>
<text x="940.83" y="566.00" text-anchor="middle" font-family="sans-serif" font-size="11" fill="#444">Oct</text>
<text x="1032.50" y="566.00" text-anchor="middle" font-family="sans-serif" font-size="11" fill="#444">Nov</text>
<text x="1124.17" y="566.00" text-anchor="middle" font-family="sans-serif" font-size="11" fill="#444">Dec</text>
<line x1="70" y1="550" x2="1170" y2="550" stroke="#888"/>
<line x1="70" y1="25" x2="70" y2="550" stroke="#888"/>
<line x1="77.64" y1="550.00" x2="77.64" y2="556.00" stroke="#888"/>
<line x1="1158.54"   y1="550.00" x2="1158.54"   y2="556.00" stroke="#888"/>
<text x="77.64" y="582.00" text-anchor="start" font-family="sans-serif" font-size="11" fill="#333">Initial Balance: 1095930</text>
<text x="1158.54"   y="582.00" text-anchor="end"   font-family="sans-serif" font-size="11" fill="#333">Ending Balance: 1312287</text>
<path d="M 165.83 104.88 L 174.17 104.88 L 182.50 104.88 L 182.50 106.56 L 174.17 108.66 L 165.83 109.42 Z" fill="#d0d0d0" fill-opacity="0.5" stroke="none"/>
<path d="M 255.33 94.66 L 259.31 94.66 L 263.30 94.66 L 267.28 94.66 L 271.27 94.66 L 271.27 94.84 L 267.28 97.15 L 263.30 99.45 L 259.31 94.81 L 255.33 95.54 Z" fill="#d0d0d0" fill-opacity="0.5" stroke="none"/>
<path d="M 279.24 93.43 L 283.22 93.43 L 287.21 93.43 L 291.20 93.43 L 291.20 93.55 L 287.21 95.87 L 283.22 96.10 L 279.24 98.09 Z" fill="#d0d0d0" fill-opacity="0.5" stroke="none"/>
<path d="M 311.12 85.43 L 315.11 85.43 L 319.09 85.43 L 319.09 86.32 L 315.11 87.97 L 311.12 90.16 Z" fill="#d0d0d0" fill-opacity="0.5" stroke="none"/>
<path d="M 361.89 67.63 L 366.71 67.63 L 371.54 67.63 L 371.54 69.03 L 366.71 70.09 L 361.89 72.53 Z" fill="#d0d0d0" fill-opacity="0.5" stroke="none"/>
<path d="M 381.18 66.58 L 386.01 66.58 L 390.83 66.58 L 395.66 66.58 L 400.48 66.58 L 405.31 66.58 L 410.13 66.58 L 414.96 66.58 L 419.78 66.58 L 424.61 66.58 L 429.43 66.58 L 434.25 66.58 L 439.72 66.58 L 445.83 66.58 L 451.94 66.58 L 458.06 66.58 L 464.17 66.58 L 470.28 66.58 L 476.39 66.58 L 476.39 67.25 L 470.28 69.73 L 464.17 72.19 L 458.06 74.37 L 451.94 69.49 L 445.83 70.76 L 439.72 73.22 L 434.25 74.23 L 429.43 76.41 L 424.61 71.57 L 419.78 74.20 L 414.96 75.23 L 410.13 70.35 L 405.31 71.68 L 400.48 73.42 L 395.66 73.05 L 390.83 75.25 L 386.01 70.37 L 381.18 71.49 Z" fill="#d0d0d0" fill-opacity="0.5" stroke="none"/>
<path d="M 494.72 63.79 L 500.83 63.79 L 506.94 63.79 L 513.06 63.79 L 519.17 63.79 L 525.28 63.79 L 530.62 63.79 L 535.21 63.79 L 539.79 63.79 L 544.38 63.79 L 548.96 63.79 L 548.96 65.09 L 544.38 67.38 L 539.79 69.85 L 535.21 64.93 L 530.62 66.86 L 525.28 69.33 L 519.17 71.10 L 513.06 73.32 L 506.94 72.53 L 500.83 73.62 L 494.72 68.73 Z" fill="#d0d0d0" fill-opacity="0.5" stroke="none"/>
<path d="M 594.79 46.98 L 599.38 46.98 L 603.96 46.98 L 608.54 46.98 L 613.12 46.98 L 617.71 46.98 L 625.09 46.98 L 635.28 46.98 L 645.46 46.98 L 645.46 48.61 L 635.28 49.98 L 625.09 52.51 L 617.71 54.88 L 613.12 57.62 L 608.54 52.63 L 603.96 55.35 L 599.38 57.12 L 594.79 52.07 Z" fill="#d0d0d0" fill-opacity="0.5" stroke="none"/>
<path d="M 665.83 46.31 L 665.83 46.84 Z" fill="#d0d0d0" fill-opacity="0.5" stroke="none"/>
<path d="M 696.39 41.73 L 706.57 41.73 L 714.08 41.73 L 718.90 41.73 L 723.73 41.73 L 728.55 41.73 L 733.38 41.73 L 738.20 41.73 L 743.03 41.73 L 747.85 41.73 L 752.68 41.73 L 757.50 41.73 L 757.50 43.95 L 752.68 46.49 L 747.85 48.86 L 743.03 49.23 L 738.20 49.90 L 733.38 44.79 L 728.55 44.16 L 723.73 46.73 L 718.90 49.49 L 714.08 44.37 L 706.57 46.94 L 696.39 46.83 Z" fill="#d0d0d0" fill-opacity="0.5" stroke="none"/>
<path d="M 771.97 40.20 L 776.80 40.20 L 781.62 40.20 L 786.45 40.20 L 791.27 40.20 L 791.27 42.63 L 786.45 43.11 L 781.62 45.91 L 776.80 43.04 L 771.97 45.35 Z" fill="#d0d0d0" fill-opacity="0.5" stroke="none"/>
<path d="M 860.62 34.89 L 883.54 34.89 L 901.55 34.89 L 914.64 34.89 L 927.74 34.89 L 927.74 36.83 L 914.64 36.07 L 901.55 36.75 L 883.54 37.04 L 860.62 36.16 Z" fill="#d0d0d0" fill-opacity="0.5" stroke="none"/>
<path d="M 967.02 31.59 L 967.02 33.25 Z" fill="#d0d0d0" fill-opacity="0.5" stroke="none"/>
<path d="M 1112.71 25.00 L 1135.62 25.00 L 1158.54 25.00 L 1158.54 27.96 L 1135.62 28.72 L 1112.71 30.29 Z" fill="#d0d0d0" fill-opacity="0.5" stroke="none"/>
<polyline fill="none" stroke="#111" stroke-width="1.2" points="77.64,114.02 92.92,111.75 108.19,111.31 123.47,109.02 138.75,106.98 154.03,104.88 165.83,109.42 174.17,108.66 182.50,106.56 190.83,104.76 199.17,103.79 207.50,103.13 215.83,100.95 224.17,99.77 232.50,97.98 240.83,97.20 249.17,94.66 255.33,95.54 259.31,94.81 263.30,99.45 267.28,97.15 271.27,94.84 275.25,93.43 279.24,98.09 283.22,96.10 287.21,95.87 291.20,93.55 295.18,91.35 299.17,89.58 303.15,87.76 307.14,85.43 311.12,90.16 315.11,87.97 319.09,86.32 323.08,83.93 327.07,81.54 331.05,79.40 335.04,77.96 339.02,75.54 343.01,73.08 347.41,71.19 352.24,68.94 357.06,67.63 361.89,72.53 366.71,70.09 371.54,69.03 376.36,66.58 381.18,71.49 386.01,70.37 390.83,75.25 395.66,73.05 400.48,73.42 405.31,71.68 410.13,70.35 414.96,75.23 419.78,74.20 424.61,71.57 429.43,76.41 434.25,74.23 439.72,73.22 445.83,70.76 451.94,69.49 458.06,74.37 464.17,72.19 470.28,69.73 476.39,67.25 482.50,65.43 488.61,63.79 494.72,68.73 500.83,73.62 506.94,72.53 513.06,73.32 519.17,71.10 525.28,69.33 530.62,66.86 535.21,64.93 539.79,69.85 544.38,67.38 548.96,65.09 553.54,62.60 558.12,62.54 562.71,60.03 567.29,58.31 571.88,56.33 576.46,53.80 581.04,51.25 585.62,49.56 590.21,46.98 594.79,52.07 599.38,57.12 603.96,55.35 608.54,52.63 613.12,57.62 617.71,54.88 625.09,52.51 635.28,49.98 645.46,48.61 655.65,46.31 665.83,46.84 676.02,44.51 686.20,41.73 696.39,46.83 706.57,46.94 714.08,44.37 718.90,49.49 723.73,46.73 728.55,44.16 733.38,44.79 738.20,49.90 743.03,49.23 747.85,48.86 752.68,46.49 757.50,43.95 762.32,41.21 767.15,40.20 771.97,45.35 776.80,43.04 781.62,45.91 786.45,43.11 791.27,42.63 796.10,40.03 800.92,38.06 814.79,37.51 837.71,34.89 860.62,36.16 883.54,37.04 901.55,36.75 914.64,36.07 927.74,36.83 940.83,34.20 953.93,31.59 967.02,33.25 980.12,30.61 1009.58,27.99 1055.42,27.22 1089.79,25.00 1112.71,30.29 1135.62,28.72 1158.54,27.96"/>
<text x="15" y="287.5" transform="rotate(-90 15,287.5)" text-anchor="middle" font-family="sans-serif" font-size="12" fill="#333">USD</text>
</svg>