<svg xmlns="http://www.w3.org/2000/svg" width="1200" height="600" viewBox="0 0 1200 600">
<desc>Equity curve with drawdown fill; x-axis is months only (no exact timestamps)</desc>
<text x="600.0" y="18.0" text-anchor="middle" font-family="sans-serif" font-size="14">Portfolio 2004 (UTC)</text>
<rect x="70" y="25" width="1100" height="525" fill="white" stroke="#ccc" />
<line x1="70" y1="550.00" x2="1170" y2="550.00" stroke="#eee"/>
<text x="62" y="554.0" text-anchor="end" font-family="sans-serif" font-size="11" fill="#555">0.00</text>
<line x1="70" y1="445.00" x2="1170" y2="445.00" stroke="#eee"/>
<text x="62" y="449.0" text-anchor="end" font-family="sans-serif" font-size="11" fill="#555">22476</text>
<line x1="70" y1="340.00" x2="1170" y2="340.00" stroke="#eee"/>
<text x="62" y="344.0" text-anchor="end" font-family="sans-serif" font-size="11" fill="#555">44951</text>
<line x1="70" y1="235.00" x2="1170" y2="235.00" stroke="#eee"/>
<text x="62" y="239.0" text-anchor="end" font-family="sans-serif" font-size="11" fill="#555">67427</text>
<line x1="70" y1="130.00" x2="1170" y2="130.00" stroke="#eee"/>
<text x="62" y="134.0" text-anchor="end" font-family="sans-serif" font-size="11" fill="#555">89903</text>
<line x1="70" y1="25.00" x2="1170" y2="25.00" stroke="#eee"/>
<text x="62" y="29.0" text-anchor="end" font-family="sans-serif" font-size="11" fill="#555">112378</text>
<line x1="161.67" y1="25" x2="161.67" y2="550" stroke="#f2f2f2"/>
<line x1="253.33" y1="25" x2="253.33" y2="550" stroke="#f2f2f2"/>
<line x1="345.00" y1="25" x2="345.00" y2="550" stroke="#f2f2f2"/>
<line x1="436.67" y1="25" x2="436.67" y2="550" stroke="#f2f2f2"/>
<line x1="528.33" y1="25" x2="528.33" y2="550" stroke="#f2f2f2"/>
<line x1="620.00" y1="25" x2="620.00" y2="550" stroke="#f2f2f2"/>
<line x1="711.67" y1="25" x2="711.67" y2="550" stroke="#f2f2f2"/>
<line x1="803.33" y1="25" x2="803.33" y2="550" stroke="#f2f2f2"/>
<line x1="895.00" y1="25" x2="895.00" y2="550" stroke="#f2f2f2"/>
<line x1="986.67" y1="25" x2="986.67" y2="550" stroke="#f2f2f2"/>
<line x1="1078.33" y1="25" x2="1078.33" y2="550" stroke="#f2f2f2"/>
<text x="115.83" y="566.00" text-anchor="middle" font-family="sans-serif" font-size="11" fill="#444">Jan</text>
<text x="207.50" y="566.00" text-anchor="middle" font-family="sans-serif" font-size="11" fill="#444">Feb</text>
<text x="299.17" y="566.00" text-anchor="middle" font-family="sans-serif" font-size="11" fill="#444">Mar</text>
<text x="390.83" y="566.00" text-anchor="middle" font-family="sans-serif" font-size="11" fill="#444">Apr</text>
<text x="482.50" y="566.00" text-anchor="middle" font-family="sans-serif" font-size="11" fill="#444">May</text>
<text x="574.17" y="566.00" text-anchor="middle" font-family="sans-serif" font-size="11" fill="#444">Jun</text>
<text x="665.83" y="566.00" text-anchor="middle" font-family="sans-serif" font-size="11" fill="#444">Jul</text>
<text x="757.50" y="566.00" text-anchor="middle" font-family="sans-serif" font-size="11" fill="#444">Aug</text>
<text x="849.17" y="566.00" text-anchor="middle" font-family="sans-serif" font-size="11" fill="#444">Sep</text>
<text x="940.83" y="566.00" text-anchor="middle" font-family="sans-serif" font-size="11" fill="#444">Oct</text>
<text x="1032.50" y="566.00" text-anchor="middle" font-family="sans-serif" font-size="11" fill="#444">Nov</text>
<text x="1124.17" y="566.00" text-anchor="middle" font-family="sans-serif" font-size="11" fill="#444">Dec</text>
<line x1="70" y1="550" x2="1170" y2="550" stroke="#888"/>
<line x1="70" y1="25" x2="70" y2="550" stroke="#888"/>
<line x1="71.91" y1="550.00" x2="71.91" y2="556.00" stroke="#888"/>
<line x1="1163.45"   y1="550.00" x2="1163.45"   y2="556.00" stroke="#888"/>
<text x="71.91" y="582.00" text-anchor="start" font-family="sans-serif" font-size="11" fill="#333">Initial Balance: 100000</text>
<text x="1163.45"   y="582.00" text-anchor="end"   font-family="sans-serif" font-size="11" fill="#333">Ending Balance: 109294</text>
<path d="M 83.37 80.38 L 87.19 80.38 L 91.01 80.38 L 91.01 82.54 L 87.19 83.39 L 83.37 85.14 Z" fill="#d0d0d0" fill-opacity="0.5" stroke="none"/>
<path d="M 98.65 79.94 L 102.47 79.94 L 106.28 79.94 L 110.10 79.94 L 113.92 79.94 L 117.74 79.94 L 121.56 79.94 L 125.38 79.94 L 129.20 79.94 L 133.02 79.94 L 136.84 79.94 L 140.66 79.94 L 144.48 79.94 L 148.30 79.94 L 152.12 79.94 L 155.94 79.94 L 159.76 79.94 L 165.49 79.94 L 173.12 79.94 L 180.76 79.94 L 188.40 79.94 L 196.04 79.94 L 203.68 79.94 L 211.32 79.94 L 211.32 81.10 L 203.68 82.75 L 196.04 85.34 L 188.40 85.21 L 180.76 86.18 L 173.12 88.75 L 165.49 90.50 L 159.76 85.80 L 155.94 87.91 L 152.12 90.46 L 148.30 92.73 L 144.48 95.26 L 140.66 90.65 L 136.84 93.29 L 133.02 95.59 L 129.20 91.01 L 125.38 89.02 L 121.56 93.64 L 117.74 91.68 L 113.92 91.60 L 110.10 86.91 L 106.28 82.21 L 102.47 84.90 L 98.65 80.14 Z" fill="#d0d0d0" fill-opacity="0.5" stroke="none"/>
<path d="M 262.50 70.04 L 268.61 70.04 L 274.72 70.04 L 274.72 70.36 L 268.61 72.78 L 262.50 74.91 Z" fill="#d0d0d0" fill-opacity="0.5" stroke="none"/>
<path d="M 305.28 60.55 L 311.39 60.55 L 317.50 60.55 L 323.61 60.55 L 329.72 60.55 L 335.83 60.55 L 341.94 60.55 L 351.55 60.55 L 364.64 60.55 L 377.74 60.55 L 390.83 60.55 L 390.83 62.47 L 377.74 64.35 L 364.64 67.02 L 351.55 62.08 L 341.94 62.15 L 335.83 64.60 L 329.72 67.05 L 323.61 68.48 L 317.50 67.83 L 311.39 70.43 L 305.28 65.52 Z" fill="#d0d0d0" fill-opacity="0.5" stroke="none"/>
<path d="M 457.50 50.26 L 465.83 50.26 L 474.17 50.26 L 482.50 50.26 L 490.83 50.26 L 490.83 51.28 L 482.50 52.76 L 474.17 53.44 L 465.83 53.14 L 457.50 55.25 Z" fill="#d0d0d0" fill-opacity="0.5" stroke="none"/>
<path d="M 524.17 46.06 L 532.15 46.06 L 539.79 46.06 L 539.79 48.52 L 532.15 51.28 L 524.17 51.16 Z" fill="#d0d0d0" fill-opacity="0.5" stroke="none"/>
<path d="M 577.99 42.24 L 585.62 42.24 L 593.26 42.24 L 600.90 42.24 L 608.54 42.24 L 616.18 42.24 L 627.64 42.24 L 642.92 42.24 L 658.19 42.24 L 673.47 42.24 L 688.75 42.24 L 704.03 42.24 L 723.12 42.24 L 746.04 42.24 L 768.96 42.24 L 791.88 42.24 L 809.88 42.24 L 822.98 42.24 L 836.07 42.24 L 849.17 42.24 L 849.17 43.69 L 836.07 43.91 L 822.98 46.07 L 809.88 47.79 L 791.88 42.67 L 768.96 44.82 L 746.04 47.58 L 723.12 42.49 L 704.03 45.28 L 688.75 46.26 L 673.47 48.49 L 658.19 49.35 L 642.92 50.26 L 627.64 45.20 L 616.18 48.10 L 608.54 49.67 L 600.90 51.96 L 593.26 52.42 L 585.62 47.33 L 577.99 47.38 Z" fill="#d0d0d0" fill-opacity="0.5" stroke="none"/>
<path d="M 961.20 25.00 L 971.39 25.00 L 981.57 25.00 L 998.12 25.00 L 1021.04 25.00 L 1043.96 25.00 L 1066.88 25.00 L 1084.88 25.00 L 1097.98 25.00 L 1111.07 25.00 L 1124.17 25.00 L 1137.26 25.00 L 1150.36 25.00 L 1163.45 25.00 L 1163.45 39.41 L 1150.36 41.20 L 1137.26 36.03 L 1124.17 30.78 L 1111.07 32.30 L 1097.98 34.48 L 1084.88 29.23 L 1066.88 31.52 L 1043.96 29.95 L 1021.04 31.63 L 998.12 29.69 L 981.57 32.54 L 971.39 35.53 L 961.20 30.29 Z" fill="#d0d0d0" fill-opacity="0.5" stroke="none"/>
<polyline fill="none" stroke="#111" stroke-width="1.2" points="71.91,82.83 75.73,81.95 79.55,80.38 83.37,85.14 87.19,83.39 91.01,82.54 94.83,79.94 98.65,80.14 102.47,84.90 106.28,82.21 110.10,86.91 113.92,91.60 117.74,91.68 121.56,93.64 125.38,89.02 129.20,91.01 133.02,95.59 136.84,93.29 140.66,90.65 144.48,95.26 148.30,92.73 152.12,90.46 155.94,87.91 159.76,85.80 165.49,90.50 173.12,88.75 180.76,86.18 188.40,85.21 196.04,85.34 203.68,82.75 211.32,81.10 218.96,78.50 226.60,78.17 234.24,75.77 241.88,73.31 249.51,71.16 256.39,70.04 262.50,74.91 268.61,72.78 274.72,70.36 280.83,67.70 286.94,65.03 293.06,63.25 299.17,60.55 305.28,65.52 311.39,70.43 317.50,67.83 323.61,68.48 329.72,67.05 335.83,64.60 341.94,62.15 351.55,62.08 364.64,67.02 377.74,64.35 390.83,62.47 403.93,60.02 417.02,58.57 430.12,55.85 440.83,53.12 449.17,50.26 457.50,55.25 465.83,53.14 474.17,53.44 482.50,52.76 490.83,51.28 499.17,50.22 507.50,48.34 515.83,46.06 524.17,51.16 532.15,51.28 539.79,48.52 547.43,45.74 555.07,45.24 562.71,42.72 570.35,42.24 577.99,47.38 585.62,47.33 593.26,52.42 600.90,51.96 608.54,49.67 616.18,48.10 627.64,45.20 642.92,50.26 658.19,49.35 673.47,48.49 688.75,46.26 704.03,45.28 723.12,42.49 746.04,47.58 768.96,44.82 791.88,42.67 809.88,47.79 822.98,46.07 836.07,43.91 849.17,43.69 862.26,41.78 875.36,40.23 888.45,37.96 900.09,37.50 910.28,34.67 920.46,33.51 930.65,30.92 940.83,28.04 951.02,25.00 961.20,30.29 971.39,35.53 981.57,32.54 998.12,29.69 1021.04,31.63 1043.96,29.95 1066.88,31.52 1084.88,29.23 1097.98,34.48 1111.07,32.30 1124.17,30.78 1137.26,36.03 1150.36,41.20 1163.45,39.41"/>
<text x="620.0" y="588" text-anchor="middle" font-family="sans-serif" font-size="12" fill="#333">Monthly Balance Curve</text>
<text x="15" y="287.5" transform="rotate(-90 15,287.5)" text-anchor="middle" font-family="sans-serif" font-size="12" fill="#333">Capital</text>
</svg>