<svg xmlns="http://www.w3.org/2000/svg" width="1200" height="600" viewBox="0 0 1200 600">
<desc>Equity curve with drawdown fill</desc>
<text x="600.0" y="18.0" text-anchor="middle" font-family="sans-serif" font-size="14">Portfolio 2016</text>
<rect x="70" y="25" width="1100" height="525" fill="white" stroke="#ccc" />
<line x1="70" y1="550.00" x2="1170" y2="550.00" stroke="#eee"/>
<text x="62" y="554.0" text-anchor="end" font-family="sans-serif" font-size="11" fill="#555">0.00</text>
<line x1="70" y1="445.00" x2="1170" y2="445.00" stroke="#eee"/>
<text x="62" y="449.0" text-anchor="end" font-family="sans-serif" font-size="11" fill="#555">25233</text>
<line x1="70" y1="340.00" x2="1170" y2="340.00" stroke="#eee"/>
<text x="62" y="344.0" text-anchor="end" font-family="sans-serif" font-size="11" fill="#555">50466</text>
<line x1="70" y1="235.00" x2="1170" y2="235.00" stroke="#eee"/>
<text x="62" y="239.0" text-anchor="end" font-family="sans-serif" font-size="11" fill="#555">75700</text>
<line x1="70" y1="130.00" x2="1170" y2="130.00" stroke="#eee"/>
<text x="62" y="134.0" text-anchor="end" font-family="sans-serif" font-size="11" fill="#555">100933</text>
<line x1="70" y1="25.00" x2="1170" y2="25.00" stroke="#eee"/>
<text x="62" y="29.0" text-anchor="end" font-family="sans-serif" font-size="11" fill="#555">126166</text>
<line x1="154.21" y1="25" x2="154.21" y2="550" stroke="#f2f2f2"/>
<text x="154.21" y="566" text-anchor="middle" font-family="sans-serif" font-size="11" fill="#555">Feb</text>
<line x1="242.56" y1="25" x2="242.56" y2="550" stroke="#f2f2f2"/>
<text x="242.56" y="566" text-anchor="middle" font-family="sans-serif" font-size="11" fill="#555">Mar</text>
<line x1="337.00" y1="25" x2="337.00" y2="550" stroke="#f2f2f2"/>
<text x="337.00" y="566" text-anchor="middle" font-family="sans-serif" font-size="11" fill="#555">Apr</text>
<line x1="428.40" y1="25" x2="428.40" y2="550" stroke="#f2f2f2"/>
<text x="428.40" y="566" text-anchor="middle" font-family="sans-serif" font-size="11" fill="#555">May</text>
<line x1="522.84" y1="25" x2="522.84" y2="550" stroke="#f2f2f2"/>
<text x="522.84" y="566" text-anchor="middle" font-family="sans-serif" font-size="11" fill="#555">Jun</text>
<line x1="614.24" y1="25" x2="614.24" y2="550" stroke="#f2f2f2"/>
<text x="614.24" y="566" text-anchor="middle" font-family="sans-serif" font-size="11" fill="#555">Jul</text>
<line x1="708.68" y1="25" x2="708.68" y2="550" stroke="#f2f2f2"/>
<text x="708.68" y="566" text-anchor="middle" font-family="sans-serif" font-size="11" fill="#555">Aug</text>
<line x1="803.12" y1="25" x2="803.12" y2="550" stroke="#f2f2f2"/>
<text x="803.12" y="566" text-anchor="middle" font-family="sans-serif" font-size="11" fill="#555">Sep</text>
<line x1="894.51" y1="25" x2="894.51" y2="550" stroke="#f2f2f2"/>
<text x="894.51" y="566" text-anchor="middle" font-family="sans-serif" font-size="11" fill="#555">Oct</text>
<line x1="988.96" y1="25" x2="988.96" y2="550" stroke="#f2f2f2"/>
<text x="988.96" y="566" text-anchor="middle" font-family="sans-serif" font-size="11" fill="#555">Nov</text>
<line x1="1080.35" y1="25" x2="1080.35" y2="550" stroke="#f2f2f2"/>
<text x="1080.35" y="566" text-anchor="middle" font-family="sans-serif" font-size="11" fill="#555">Dec</text>
<line x1="70" y1="550" x2="1170" y2="550" stroke="#888"/>
<line x1="70" y1="25" x2="70" y2="550" stroke="#888"/>
<path d="M 70.76 131.60 L 79.26 131.60 L 80.45 131.60 L 81.30 131.60 L 81.30 133.98 L 80.45 137.10 L 79.26 139.52 L 70.76 133.20 Z" fill="#d0d0d0" fill-opacity="0.5" stroke="none"/>
<path d="M 104.18 123.62 L 104.19 123.62 L 104.19 126.64 L 104.18 130.08 Z" fill="#d0d0d0" fill-opacity="0.5" stroke="none"/>
<path d="M 123.18 120.93 L 123.18 122.05 Z" fill="#d0d0d0" fill-opacity="0.5" stroke="none"/>
<path d="M 146.93 116.04 L 162.03 116.04 L 162.28 116.04 L 162.34 116.04 L 162.39 116.04 L 162.68 116.04 L 164.45 116.04 L 168.11 116.04 L 168.16 116.04 L 168.23 116.04 L 168.40 116.04 L 177.05 116.04 L 177.59 116.04 L 180.31 116.04 L 183.60 116.04 L 185.79 116.04 L 189.47 116.04 L 198.83 116.04 L 226.27 116.04 L 232.22 116.04 L 250.76 116.04 L 253.42 116.04 L 253.42 116.19 L 250.76 119.82 L 232.22 123.43 L 226.27 124.56 L 198.83 125.65 L 189.47 127.24 L 185.79 129.87 L 183.60 133.03 L 180.31 126.61 L 177.59 130.17 L 177.05 123.71 L 168.40 125.41 L 168.23 125.35 L 168.16 127.82 L 168.11 131.12 L 164.45 134.64 L 162.68 136.76 L 162.39 130.40 L 162.34 132.68 L 162.28 126.26 L 162.03 119.77 L 146.93 122.62 Z" fill="#d0d0d0" fill-opacity="0.5" stroke="none"/>
<path d="M 269.10 106.55 L 269.10 109.55 Z" fill="#d0d0d0" fill-opacity="0.5" stroke="none"/>
<path d="M 271.62 105.82 L 271.73 105.82 L 271.75 105.82 L 271.75 108.09 L 271.73 111.79 L 271.62 112.51 Z" fill="#d0d0d0" fill-opacity="0.5" stroke="none"/>
<path d="M 271.92 102.67 L 271.97 102.67 L 272.06 102.67 L 272.14 102.67 L 272.26 102.67 L 274.17 102.67 L 275.01 102.67 L 290.67 102.67 L 290.72 102.67 L 292.57 102.67 L 307.78 102.67 L 330.07 102.67 L 339.00 102.67 L 354.12 102.67 L 354.35 102.67 L 356.52 102.67 L 372.47 102.67 L 399.64 102.67 L 399.64 105.07 L 372.47 107.09 L 356.52 109.67 L 354.35 112.44 L 354.12 116.13 L 339.00 118.44 L 330.07 118.98 L 307.78 122.61 L 292.57 124.27 L 290.72 123.65 L 290.67 117.12 L 275.01 120.76 L 274.17 121.43 L 272.26 122.72 L 272.14 122.14 L 272.06 122.46 L 271.97 115.92 L 271.92 109.31 Z" fill="#d0d0d0" fill-opacity="0.5" stroke="none"/>
<path d="M 399.94 101.12 L 415.03 101.12 L 418.63 101.12 L 418.63 101.82 L 415.03 105.59 L 399.94 107.91 Z" fill="#d0d0d0" fill-opacity="0.5" stroke="none"/>
<path d="M 530.74 84.56 L 530.83 84.56 L 530.90 84.56 L 531.05 84.56 L 567.90 84.56 L 570.06 84.56 L 570.79 84.56 L 570.82 84.56 L 570.95 84.56 L 585.56 84.56 L 591.18 84.56 L 591.18 88.45 L 585.56 91.92 L 570.95 95.74 L 570.82 98.06 L 570.79 101.38 L 570.06 94.50 L 567.90 94.75 L 531.05 98.56 L 530.90 97.13 L 530.83 98.42 L 530.74 91.53 Z" fill="#d0d0d0" fill-opacity="0.5" stroke="none"/>
<path d="M 593.12 80.17 L 593.17 80.17 L 593.21 80.17 L 593.34 80.17 L 593.36 80.17 L 593.40 80.17 L 593.51 80.17 L 593.54 80.17 L 593.65 80.17 L 593.69 80.17 L 593.83 80.17 L 593.85 80.17 L 593.97 80.17 L 594.02 80.17 L 594.09 80.17 L 594.18 80.17 L 594.47 80.17 L 594.86 80.17 L 595.27 80.17 L 601.95 80.17 L 612.93 80.17 L 613.34 80.17 L 613.34 83.36 L 612.93 87.26 L 601.95 90.55 L 595.27 93.33 L 594.86 86.32 L 594.47 89.47 L 594.18 89.73 L 594.09 92.75 L 594.02 94.18 L 593.97 87.23 L 593.85 91.07 L 593.83 94.98 L 593.69 98.77 L 593.65 101.11 L 593.54 94.25 L 593.51 97.88 L 593.40 91.09 L 593.36 94.34 L 593.34 97.90 L 593.21 90.99 L 593.17 94.21 L 593.12 87.26 Z" fill="#d0d0d0" fill-opacity="0.5" stroke="none"/>
<path d="M 628.59 75.62 L 637.28 75.62 L 637.28 78.82 L 628.59 82.76 Z" fill="#d0d0d0" fill-opacity="0.5" stroke="none"/>
<path d="M 787.04 47.33 L 805.19 47.33 L 807.88 47.33 L 808.17 47.33 L 820.32 47.33 L 820.40 47.33 L 829.42 47.33 L 850.69 47.33 L 892.57 47.33 L 892.57 48.03 L 850.69 50.70 L 829.42 52.12 L 820.40 53.02 L 820.32 54.87 L 808.17 47.35 L 807.88 50.83 L 805.19 54.97 L 787.04 54.85 Z" fill="#d0d0d0" fill-opacity="0.5" stroke="none"/>
<path d="M 1013.59 25.00 L 1013.63 25.00 L 1013.70 25.00 L 1013.76 25.00 L 1013.89 25.00 L 1013.90 25.00 L 1014.07 25.00 L 1014.21 25.00 L 1014.34 25.00 L 1014.42 25.00 L 1014.55 25.00 L 1014.60 25.00 L 1014.91 25.00 L 1015.28 25.00 L 1015.34 25.00 L 1028.75 25.00 L 1029.74 25.00 L 1030.54 25.00 L 1032.75 25.00 L 1035.69 25.00 L 1039.48 25.00 L 1042.74 25.00 L 1057.78 25.00 L 1071.58 25.00 L 1072.72 25.00 L 1079.14 25.00 L 1079.42 25.00 L 1092.41 25.00 L 1093.53 25.00 L 1093.67 25.00 L 1093.98 25.00 L 1094.04 25.00 L 1094.91 25.00 L 1103.29 25.00 L 1103.35 25.00 L 1103.41 25.00 L 1103.52 25.00 L 1103.68 25.00 L 1103.73 25.00 L 1106.38 25.00 L 1122.37 25.00 L 1123.09 25.00 L 1124.47 25.00 L 1125.17 25.00 L 1128.19 25.00 L 1146.27 25.00 L 1168.65 25.00 L 1168.69 25.00 L 1170.00 25.00 L 1170.00 51.95 L 1168.69 54.31 L 1168.65 57.60 L 1146.27 61.87 L 1128.19 65.21 L 1125.17 68.92 L 1124.47 70.73 L 1123.09 63.40 L 1122.37 63.85 L 1106.38 68.09 L 1103.73 68.43 L 1103.68 61.08 L 1103.52 53.67 L 1103.41 54.03 L 1103.35 46.52 L 1103.29 49.43 L 1094.91 53.78 L 1094.04 54.21 L 1093.98 57.20 L 1093.67 49.70 L 1093.53 51.21 L 1092.41 53.47 L 1079.42 57.79 L 1079.14 59.47 L 1072.72 62.65 L 1071.58 65.85 L 1057.78 65.70 L 1042.74 58.32 L 1039.48 61.99 L 1035.69 64.90 L 1032.75 67.85 L 1030.54 69.00 L 1029.74 67.71 L 1028.75 69.55 L 1015.34 72.65 L 1015.28 65.36 L 1014.91 64.55 L 1014.60 67.89 L 1014.55 60.63 L 1014.42 53.23 L 1014.34 54.59 L 1014.21 47.11 L 1014.07 51.03 L 1013.90 43.47 L 1013.89 47.87 L 1013.76 46.17 L 1013.70 38.68 L 1013.63 40.46 L 1013.59 32.80 Z" fill="#d0d0d0" fill-opacity="0.5" stroke="none"/>
<polyline fill="none" stroke="#111" stroke-width="1.2" points="70.00,131.60 70.76,133.20 79.26,139.52 80.45,137.10 81.30,133.98 83.06,131.06 90.12,127.52 98.34,125.07 100.59,124.38 101.45,123.62 104.18,130.08 104.19,126.64 122.42,122.89 122.50,120.93 123.18,122.05 143.23,119.68 145.54,116.04 146.93,122.62 162.03,119.77 162.28,126.26 162.34,132.68 162.39,130.40 162.68,136.76 164.45,134.64 168.11,131.12 168.16,127.82 168.23,125.35 168.40,125.41 177.05,123.71 177.59,130.17 180.31,126.61 183.60,133.03 185.79,129.87 189.47,127.24 198.83,125.65 226.27,124.56 232.22,123.43 250.76,119.82 253.42,116.19 253.44,112.61 253.48,108.92 253.67,106.89 263.10,106.55 269.10,109.55 271.60,105.82 271.62,112.51 271.73,111.79 271.75,108.09 271.78,104.17 271.88,102.67 271.92,109.31 271.97,115.92 272.06,122.46 272.14,122.14 272.26,122.72 274.17,121.43 275.01,120.76 290.67,117.12 290.72,123.65 292.57,124.27 307.78,122.61 330.07,118.98 339.00,118.44 354.12,116.13 354.35,112.44 356.52,109.67 372.47,107.09 399.64,105.07 399.68,101.12 399.94,107.91 415.03,105.59 418.63,101.82 433.35,98.05 435.70,96.45 445.35,92.61 466.89,89.13 482.71,88.64 530.65,84.56 530.74,91.53 530.83,98.42 530.90,97.13 531.05,98.56 567.90,94.75 570.06,94.50 570.79,101.38 570.82,98.06 570.95,95.74 585.56,91.92 591.18,88.45 592.91,84.37 592.95,80.17 593.12,87.26 593.17,94.21 593.21,90.99 593.34,97.90 593.36,94.34 593.40,91.09 593.51,97.88 593.54,94.25 593.65,101.11 593.69,98.77 593.83,94.98 593.85,91.07 593.97,87.23 594.02,94.18 594.09,92.75 594.18,89.73 594.47,89.47 594.86,86.32 595.27,93.33 601.95,90.55 612.93,87.26 613.34,83.36 613.37,79.58 627.50,75.62 628.59,82.76 637.28,78.82 637.37,74.85 655.40,70.85 658.80,70.05 680.30,67.93 701.39,66.11 722.58,62.04 722.80,61.26 743.99,60.68 755.57,59.05 759.87,55.30 786.74,51.15 786.79,47.33 787.04,54.85 805.19,54.97 807.88,50.83 808.17,47.35 820.32,54.87 820.40,53.02 829.42,52.12 850.69,50.70 892.57,48.03 893.37,46.14 905.77,41.93 905.81,38.11 914.58,34.23 954.15,30.25 954.24,26.59 979.19,25.00 1013.59,32.80 1013.63,40.46 1013.70,38.68 1013.76,46.17 1013.89,47.87 1013.90,43.47 1014.07,51.03 1014.21,47.11 1014.34,54.59 1014.42,53.23 1014.55,60.63 1014.60,67.89 1014.91,64.55 1015.28,65.36 1015.34,72.65 1028.75,69.55 1029.74,67.71 1030.54,69.00 1032.75,67.85 1035.69,64.90 1039.48,61.99 1042.74,58.32 1057.78,65.70 1071.58,65.85 1072.72,62.65 1079.14,59.47 1079.42,57.79 1092.41,53.47 1093.53,51.21 1093.67,49.70 1093.98,57.20 1094.04,54.21 1094.91,53.78 1103.29,49.43 1103.35,46.52 1103.41,54.03 1103.52,53.67 1103.68,61.08 1103.73,68.43 1106.38,68.09 1122.37,63.85 1123.09,63.40 1124.47,70.73 1125.17,68.92 1128.19,65.21 1146.27,61.87 1168.65,57.60 1168.69,54.31 1170.00,51.95"/>
<text x="620.0" y="588" text-anchor="middle" font-family="sans-serif" font-size="12" fill="#333">UTC time</text>
<text x="15" y="287.5" transform="rotate(-90 15,287.5)" text-anchor="middle" font-family="sans-serif" font-size="12" fill="#333">Capital</text>
</svg>