<svg xmlns="http://www.w3.org/2000/svg" width="1200" height="600" viewBox="0 0 1200 600">
<desc>Equity curve with drawdown fill; x-axis is months only (no exact timestamps)</desc>
<text x="600.0" y="18.0" text-anchor="middle" font-family="sans-serif" font-size="14">Balance Curve 2009 (UTC)</text>
<rect x="70" y="25" width="1100" height="525" fill="white" stroke="#ccc" />
<line x1="70" y1="550.00" x2="1170" y2="550.00" stroke="#eee"/>
<text x="62" y="554.0" text-anchor="end" font-family="sans-serif" font-size="11" fill="#555">0.00</text>
<line x1="70" y1="445.00" x2="1170" y2="445.00" stroke="#eee"/>
<text x="62" y="449.0" text-anchor="end" font-family="sans-serif" font-size="11" fill="#555">23967</text>
<line x1="70" y1="340.00" x2="1170" y2="340.00" stroke="#eee"/>
<text x="62" y="344.0" text-anchor="end" font-family="sans-serif" font-size="11" fill="#555">47934</text>
<line x1="70" y1="235.00" x2="1170" y2="235.00" stroke="#eee"/>
<text x="62" y="239.0" text-anchor="end" font-family="sans-serif" font-size="11" fill="#555">71900</text>
<line x1="70" y1="130.00" x2="1170" y2="130.00" stroke="#eee"/>
<text x="62" y="134.0" text-anchor="end" font-family="sans-serif" font-size="11" fill="#555">95867</text>
<line x1="70" y1="25.00" x2="1170" y2="25.00" stroke="#eee"/>
<text x="62" y="29.0" text-anchor="end" font-family="sans-serif" font-size="11" fill="#555">119834</text>
<line x1="161.67" y1="25" x2="161.67" y2="550" stroke="#f2f2f2"/>
<line x1="253.33" y1="25" x2="253.33" y2="550" stroke="#f2f2f2"/>
<line x1="345.00" y1="25" x2="345.00" y2="550" stroke="#f2f2f2"/>
<line x1="436.67" y1="25" x2="436.67" y2="550" stroke="#f2f2f2"/>
<line x1="528.33" y1="25" x2="528.33" y2="550" stroke="#f2f2f2"/>
<line x1="620.00" y1="25" x2="620.00" y2="550" stroke="#f2f2f2"/>
<line x1="711.67" y1="25" x2="711.67" y2="550" stroke="#f2f2f2"/>
<line x1="803.33" y1="25" x2="803.33" y2="550" stroke="#f2f2f2"/>
<line x1="895.00" y1="25" x2="895.00" y2="550" stroke="#f2f2f2"/>
<line x1="986.67" y1="25" x2="986.67" y2="550" stroke="#f2f2f2"/>
<line x1="1078.33" y1="25" x2="1078.33" y2="550" stroke="#f2f2f2"/>
<text x="115.83" y="566.00" text-anchor="middle" font-family="sans-serif" font-size="11" fill="#444">Jan</text>
<text x="207.50" y="566.00" text-anchor="middle" font-family="sans-serif" font-size="11" fill="#444">Feb</text>
<text x="299.17" y="566.00" text-anchor="middle" font-family="sans-serif" font-size="11" fill="#444">Mar</text>
<text x="390.83" y="566.00" text-anchor="middle" font-family="sans-serif" font-size="11" fill="#444">Apr</text>
<text x="482.50" y="566.00" text-anchor="middle" font-family="sans-serif" font-size="11" fill="#444">May</text>
<text x="574.17" y="566.00" text-anchor="middle" font-family="sans-serif" font-size="11" fill="#444">Jun</text>
<text x="665.83" y="566.00" text-anchor="middle" font-family="sans-serif" font-size="11" fill="#444">Jul</text>
<text x="757.50" y="566.00" text-anchor="middle" font-family="sans-serif" font-size="11" fill="#444">Aug</text>
<text x="849.17" y="566.00" text-anchor="middle" font-family="sans-serif" font-size="11" fill="#444">Sep</text>
<text x="940.83" y="566.00" text-anchor="middle" font-family="sans-serif" font-size="11" fill="#444">Oct</text>
<text x="1032.50" y="566.00" text-anchor="middle" font-family="sans-serif" font-size="11" fill="#444">Nov</text>
<text x="1124.17" y="566.00" text-anchor="middle" font-family="sans-serif" font-size="11" fill="#444">Dec</text>
<line x1="70" y1="550" x2="1170" y2="550" stroke="#888"/>
<line x1="70" y1="25" x2="70" y2="550" stroke="#888"/>
<line x1="70.72" y1="550.00" x2="70.72" y2="556.00" stroke="#888"/>
<line x1="1164.27"   y1="550.00" x2="1164.27"   y2="556.00" stroke="#888"/>
<text x="70.72" y="582.00" text-anchor="start" font-family="sans-serif" font-size="11" fill="#333">Initial Balance: 100000</text>
<text x="1164.27"   y="582.00" text-anchor="end"   font-family="sans-serif" font-size="11" fill="#333">Ending Balance: 118665</text>
<path d="M 77.88 106.05 L 79.31 106.05 L 80.74 106.05 L 82.17 106.05 L 83.61 106.05 L 85.04 106.05 L 86.47 106.05 L 87.90 106.05 L 89.34 106.05 L 90.77 106.05 L 92.20 106.05 L 93.63 106.05 L 95.07 106.05 L 95.07 106.31 L 93.63 107.75 L 92.20 109.54 L 90.77 111.93 L 89.34 114.05 L 87.90 114.70 L 86.47 110.24 L 85.04 112.36 L 83.61 114.69 L 82.17 117.04 L 80.74 119.39 L 79.31 114.98 L 77.88 110.55 Z" fill="#d0d0d0" fill-opacity="0.5" stroke="none"/>
<path d="M 113.68 84.01 L 115.12 84.01 L 115.12 84.24 L 113.68 84.96 Z" fill="#d0d0d0" fill-opacity="0.5" stroke="none"/>
<path d="M 120.85 77.00 L 122.28 77.00 L 123.71 77.00 L 125.14 77.00 L 126.58 77.00 L 128.01 77.00 L 128.01 78.38 L 126.58 80.91 L 125.14 83.44 L 123.71 84.27 L 122.28 79.51 L 120.85 81.79 Z" fill="#d0d0d0" fill-opacity="0.5" stroke="none"/>
<path d="M 133.74 72.90 L 135.17 72.90 L 136.60 72.90 L 138.03 72.90 L 139.47 72.90 L 140.90 72.90 L 142.33 72.90 L 143.76 72.90 L 145.20 72.90 L 146.63 72.90 L 148.06 72.90 L 149.49 72.90 L 150.92 72.90 L 150.92 74.97 L 149.49 77.53 L 148.06 80.07 L 146.63 81.74 L 145.20 84.27 L 143.76 85.78 L 142.33 81.02 L 140.90 83.48 L 139.47 78.75 L 138.03 80.74 L 136.60 83.18 L 135.17 78.39 L 133.74 77.72 Z" fill="#d0d0d0" fill-opacity="0.5" stroke="none"/>
<path d="M 155.22 71.11 L 156.65 71.11 L 158.09 71.11 L 159.52 71.11 L 160.95 71.11 L 162.98 71.11 L 165.60 71.11 L 168.21 71.11 L 170.83 71.11 L 173.45 71.11 L 173.45 72.89 L 170.83 74.88 L 168.21 77.15 L 165.60 78.42 L 162.98 73.60 L 160.95 75.92 L 159.52 78.46 L 158.09 79.27 L 156.65 80.72 L 155.22 75.95 Z" fill="#d0d0d0" fill-opacity="0.5" stroke="none"/>
<path d="M 181.31 68.59 L 183.93 68.59 L 186.55 68.59 L 189.17 68.59 L 191.79 68.59 L 194.40 68.59 L 197.02 68.59 L 199.64 68.59 L 202.26 68.59 L 204.88 68.59 L 207.50 68.59 L 210.12 68.59 L 210.12 70.58 L 207.50 73.15 L 204.88 73.38 L 202.26 75.73 L 199.64 78.12 L 197.02 79.83 L 194.40 75.05 L 191.79 77.74 L 189.17 72.92 L 186.55 74.52 L 183.93 74.87 L 181.31 70.01 Z" fill="#d0d0d0" fill-opacity="0.5" stroke="none"/>
<path d="M 231.07 58.11 L 233.69 58.11 L 236.31 58.11 L 238.93 58.11 L 241.55 58.11 L 244.17 58.11 L 246.79 58.11 L 249.40 58.11 L 252.02 58.11 L 254.64 58.11 L 257.26 58.11 L 259.88 58.11 L 262.50 58.11 L 265.12 58.11 L 267.74 58.11 L 270.36 58.11 L 272.98 58.11 L 275.60 58.11 L 278.21 58.11 L 280.83 58.11 L 283.45 58.11 L 286.07 58.11 L 288.69 58.11 L 291.31 58.11 L 293.93 58.11 L 296.55 58.11 L 299.17 58.11 L 301.79 58.11 L 304.40 58.11 L 307.02 58.11 L 309.64 58.11 L 312.26 58.11 L 314.88 58.11 L 317.50 58.11 L 320.12 58.11 L 322.74 58.11 L 325.36 58.11 L 327.98 58.11 L 330.60 58.11 L 333.21 58.11 L 335.83 58.11 L 338.45 58.11 L 341.07 58.11 L 343.69 58.11 L 347.29 58.11 L 351.88 58.11 L 356.46 58.11 L 361.04 58.11 L 365.62 58.11 L 370.21 58.11 L 374.79 58.11 L 379.38 58.11 L 383.96 58.11 L 388.54 58.11 L 393.12 58.11 L 397.71 58.11 L 402.29 58.11 L 406.88 58.11 L 411.46 58.11 L 416.04 58.11 L 420.62 58.11 L 425.21 58.11 L 429.79 58.11 L 434.38 58.11 L 440.19 58.11 L 447.24 58.11 L 454.29 58.11 L 461.35 58.11 L 468.40 58.11 L 475.45 58.11 L 482.50 58.11 L 489.55 58.11 L 496.60 58.11 L 503.65 58.11 L 510.71 58.11 L 517.76 58.11 L 524.81 58.11 L 531.61 58.11 L 538.15 58.11 L 544.70 58.11 L 551.25 58.11 L 557.80 58.11 L 564.35 58.11 L 570.89 58.11 L 577.44 58.11 L 583.99 58.11 L 590.54 58.11 L 597.08 58.11 L 603.63 58.11 L 610.18 58.11 L 616.73 58.11 L 625.09 58.11 L 635.28 58.11 L 645.46 58.11 L 655.65 58.11 L 655.65 58.78 L 645.46 61.44 L 635.28 61.89 L 625.09 63.27 L 616.73 65.92 L 610.18 65.75 L 603.63 68.38 L 597.08 69.45 L 590.54 70.05 L 583.99 71.30 L 577.44 73.65 L 570.89 76.05 L 564.35 71.20 L 557.80 73.34 L 551.25 68.48 L 544.70 71.10 L 538.15 72.48 L 531.61 74.15 L 524.81 69.29 L 517.76 64.37 L 510.71 64.44 L 503.65 59.49 L 496.60 61.15 L 489.55 62.47 L 482.50 65.11 L 475.45 67.74 L 468.40 70.05 L 461.35 72.65 L 454.29 75.23 L 447.24 77.80 L 440.19 79.42 L 434.38 81.62 L 429.79 84.16 L 425.21 79.40 L 420.62 78.16 L 416.04 79.72 L 411.46 80.64 L 406.88 82.62 L 402.29 84.30 L 397.71 79.54 L 393.12 82.08 L 388.54 80.57 L 383.96 82.60 L 379.38 84.34 L 374.79 79.57 L 370.21 80.15 L 365.62 82.69 L 361.04 84.50 L 356.46 85.11 L 351.88 87.04 L 347.29 89.27 L 343.69 91.77 L 341.07 93.13 L 338.45 95.37 L 335.83 97.26 L 333.21 92.65 L 330.60 87.96 L 327.98 89.93 L 325.36 91.14 L 322.74 93.48 L 320.12 88.80 L 317.50 89.10 L 314.88 90.38 L 312.26 90.98 L 309.64 86.27 L 307.02 88.60 L 304.40 90.27 L 301.79 85.60 L 299.17 80.85 L 296.55 83.30 L 293.93 78.52 L 291.31 80.66 L 288.69 82.91 L 286.07 83.44 L 283.45 84.17 L 280.83 86.00 L 278.21 87.93 L 275.60 88.39 L 272.98 83.65 L 270.36 85.47 L 267.74 84.56 L 265.12 79.79 L 262.50 81.14 L 259.88 82.79 L 257.26 78.01 L 254.64 79.45 L 252.02 81.44 L 249.40 76.64 L 246.79 71.80 L 244.17 73.54 L 241.55 75.10 L 238.93 77.66 L 236.31 72.85 L 233.69 67.97 L 231.07 63.05 Z" fill="#d0d0d0" fill-opacity="0.5" stroke="none"/>
<path d="M 696.39 54.46 L 706.57 54.46 L 726.94 54.46 L 757.50 54.46 L 757.50 55.12 L 726.94 57.81 L 706.57 59.49 L 696.39 59.46 Z" fill="#d0d0d0" fill-opacity="0.5" stroke="none"/>
<path d="M 809.06 54.09 L 820.52 54.09 L 831.98 54.09 L 843.44 54.09 L 843.44 54.36 L 831.98 54.89 L 820.52 57.58 L 809.06 59.09 Z" fill="#d0d0d0" fill-opacity="0.5" stroke="none"/>
<path d="M 877.81 49.26 L 889.27 49.26 L 901.55 49.26 L 914.64 49.26 L 914.64 50.86 L 901.55 53.19 L 889.27 52.61 L 877.81 54.27 Z" fill="#d0d0d0" fill-opacity="0.5" stroke="none"/>
<path d="M 1055.42 33.20 L 1070.69 33.20 L 1084.06 33.20 L 1095.52 33.20 L 1095.52 33.30 L 1084.06 34.72 L 1070.69 37.32 L 1055.42 38.39 Z" fill="#d0d0d0" fill-opacity="0.5" stroke="none"/>
<path d="M 1152.81 25.00 L 1164.27 25.00 L 1164.27 30.12 L 1152.81 30.25 Z" fill="#d0d0d0" fill-opacity="0.5" stroke="none"/>
<polyline fill="none" stroke="#111" stroke-width="1.2" points="70.72,111.89 72.15,111.67 73.58,110.67 75.01,108.45 76.45,106.05 77.88,110.55 79.31,114.98 80.74,119.39 82.17,117.04 83.61,114.69 85.04,112.36 86.47,110.24 87.90,114.70 89.34,114.05 90.77,111.93 92.20,109.54 93.63,107.75 95.07,106.31 96.50,103.75 97.93,103.64 99.36,101.19 100.79,98.74 102.23,96.62 103.66,95.04 105.09,93.11 106.52,90.87 107.96,88.55 109.39,86.42 110.82,84.23 112.25,84.01 113.68,84.96 115.12,84.24 116.55,81.87 117.98,79.56 119.41,77.00 120.85,81.79 122.28,79.51 123.71,84.27 125.14,83.44 126.58,80.91 128.01,78.38 129.44,76.73 130.87,74.41 132.30,72.90 133.74,77.72 135.17,78.39 136.60,83.18 138.03,80.74 139.47,78.75 140.90,83.48 142.33,81.02 143.76,85.78 145.20,84.27 146.63,81.74 148.06,80.07 149.49,77.53 150.92,74.97 152.36,72.40 153.79,71.11 155.22,75.95 156.65,80.72 158.09,79.27 159.52,78.46 160.95,75.92 162.98,73.60 165.60,78.42 168.21,77.15 170.83,74.88 173.45,72.89 176.07,70.81 178.69,68.59 181.31,70.01 183.93,74.87 186.55,74.52 189.17,72.92 191.79,77.74 194.40,75.05 197.02,79.83 199.64,78.12 202.26,75.73 204.88,73.38 207.50,73.15 210.12,70.58 212.74,68.00 215.36,67.54 217.98,65.14 220.60,64.49 223.21,62.96 225.83,60.88 228.45,58.11 231.07,63.05 233.69,67.97 236.31,72.85 238.93,77.66 241.55,75.10 244.17,73.54 246.79,71.80 249.40,76.64 252.02,81.44 254.64,79.45 257.26,78.01 259.88,82.79 262.50,81.14 265.12,79.79 267.74,84.56 270.36,85.47 272.98,83.65 275.60,88.39 278.21,87.93 280.83,86.00 283.45,84.17 286.07,83.44 288.69,82.91 291.31,80.66 293.93,78.52 296.55,83.30 299.17,80.85 301.79,85.60 304.40,90.27 307.02,88.60 309.64,86.27 312.26,90.98 314.88,90.38 317.50,89.10 320.12,88.80 322.74,93.48 325.36,91.14 327.98,89.93 330.60,87.96 333.21,92.65 335.83,97.26 338.45,95.37 341.07,93.13 343.69,91.77 347.29,89.27 351.88,87.04 356.46,85.11 361.04,84.50 365.62,82.69 370.21,80.15 374.79,79.57 379.38,84.34 383.96,82.60 388.54,80.57 393.12,82.08 397.71,79.54 402.29,84.30 406.88,82.62 411.46,80.64 416.04,79.72 420.62,78.16 425.21,79.40 429.79,84.16 434.38,81.62 440.19,79.42 447.24,77.80 454.29,75.23 461.35,72.65 468.40,70.05 475.45,67.74 482.50,65.11 489.55,62.47 496.60,61.15 503.65,59.49 510.71,64.44 517.76,64.37 524.81,69.29 531.61,74.15 538.15,72.48 544.70,71.10 551.25,68.48 557.80,73.34 564.35,71.20 570.89,76.05 577.44,73.65 583.99,71.30 590.54,70.05 597.08,69.45 603.63,68.38 610.18,65.75 616.73,65.92 625.09,63.27 635.28,61.89 645.46,61.44 655.65,58.78 665.83,57.21 676.02,54.78 686.20,54.46 696.39,59.46 706.57,59.49 726.94,57.81 757.50,55.12 788.06,54.09 809.06,59.09 820.52,57.58 831.98,54.89 843.44,54.36 854.90,52.11 866.35,49.26 877.81,54.27 889.27,52.61 901.55,53.19 914.64,50.86 927.74,48.60 940.83,47.09 953.93,45.79 967.02,43.61 980.12,41.45 994.31,39.93 1009.58,37.14 1024.86,35.20 1040.14,33.20 1055.42,38.39 1070.69,37.32 1084.06,34.72 1095.52,33.30 1106.98,31.06 1118.44,29.02 1129.90,26.45 1141.35,25.00 1152.81,30.25 1164.27,30.12"/>
<text x="15" y="287.5" transform="rotate(-90 15,287.5)" text-anchor="middle" font-family="sans-serif" font-size="12" fill="#333">USD</text>
</svg>