<svg xmlns="http://www.w3.org/2000/svg" width="1200" height="600" viewBox="0 0 1200 600">
<desc>Equity curve with drawdown fill</desc>
<text x="600.0" y="18.0" text-anchor="middle" font-family="sans-serif" font-size="14">Portfolio 2020</text>
<rect x="70" y="25" width="1100" height="525" fill="white" stroke="#ccc" />
<line x1="70" y1="550.00" x2="1170" y2="550.00" stroke="#eee"/>
<text x="62" y="554.0" text-anchor="end" font-family="sans-serif" font-size="11" fill="#555">0.00</text>
<line x1="70" y1="445.00" x2="1170" y2="445.00" stroke="#eee"/>
<text x="62" y="449.0" text-anchor="end" font-family="sans-serif" font-size="11" fill="#555">46915</text>
<line x1="70" y1="340.00" x2="1170" y2="340.00" stroke="#eee"/>
<text x="62" y="344.0" text-anchor="end" font-family="sans-serif" font-size="11" fill="#555">93830</text>
<line x1="70" y1="235.00" x2="1170" y2="235.00" stroke="#eee"/>
<text x="62" y="239.0" text-anchor="end" font-family="sans-serif" font-size="11" fill="#555">140745</text>
<line x1="70" y1="130.00" x2="1170" y2="130.00" stroke="#eee"/>
<text x="62" y="134.0" text-anchor="end" font-family="sans-serif" font-size="11" fill="#555">187661</text>
<line x1="70" y1="25.00" x2="1170" y2="25.00" stroke="#eee"/>
<text x="62" y="29.0" text-anchor="end" font-family="sans-serif" font-size="11" fill="#555">234576</text>
<line x1="100.06" y1="25" x2="100.06" y2="550" stroke="#f2f2f2"/>
<text x="100.06" y="566" text-anchor="middle" font-family="sans-serif" font-size="11" fill="#555">Mar</text>
<line x1="211.86" y1="25" x2="211.86" y2="550" stroke="#f2f2f2"/>
<text x="211.86" y="566" text-anchor="middle" font-family="sans-serif" font-size="11" fill="#555">Apr</text>
<line x1="320.05" y1="25" x2="320.05" y2="550" stroke="#f2f2f2"/>
<text x="320.05" y="566" text-anchor="middle" font-family="sans-serif" font-size="11" fill="#555">May</text>
<line x1="431.84" y1="25" x2="431.84" y2="550" stroke="#f2f2f2"/>
<text x="431.84" y="566" text-anchor="middle" font-family="sans-serif" font-size="11" fill="#555">Jun</text>
<line x1="540.03" y1="25" x2="540.03" y2="550" stroke="#f2f2f2"/>
<text x="540.03" y="566" text-anchor="middle" font-family="sans-serif" font-size="11" fill="#555">Jul</text>
<line x1="651.82" y1="25" x2="651.82" y2="550" stroke="#f2f2f2"/>
<text x="651.82" y="566" text-anchor="middle" font-family="sans-serif" font-size="11" fill="#555">Aug</text>
<line x1="763.62" y1="25" x2="763.62" y2="550" stroke="#f2f2f2"/>
<text x="763.62" y="566" text-anchor="middle" font-family="sans-serif" font-size="11" fill="#555">Sep</text>
<line x1="871.81" y1="25" x2="871.81" y2="550" stroke="#f2f2f2"/>
<text x="871.81" y="566" text-anchor="middle" font-family="sans-serif" font-size="11" fill="#555">Oct</text>
<line x1="983.60" y1="25" x2="983.60" y2="550" stroke="#f2f2f2"/>
<text x="983.60" y="566" text-anchor="middle" font-family="sans-serif" font-size="11" fill="#555">Nov</text>
<line x1="1091.79" y1="25" x2="1091.79" y2="550" stroke="#f2f2f2"/>
<text x="1091.79" y="566" text-anchor="middle" font-family="sans-serif" font-size="11" fill="#555">Dec</text>
<line x1="70" y1="550" x2="1170" y2="550" stroke="#888"/>
<line x1="70" y1="25" x2="70" y2="550" stroke="#888"/>
<path d="M 70.00 59.65 L 70.00 59.71 Z" fill="#d0d0d0" fill-opacity="0.5" stroke="none"/>
<path d="M 119.71 57.54 L 119.71 57.75 Z" fill="#d0d0d0" fill-opacity="0.5" stroke="none"/>
<path d="M 138.52 33.81 L 140.07 33.81 L 141.86 33.81 L 141.90 33.81 L 142.03 33.81 L 142.15 33.81 L 142.26 33.81 L 142.32 33.81 L 142.48 33.81 L 145.36 33.81 L 145.77 33.81 L 154.29 33.81 L 156.20 33.81 L 159.78 33.81 L 159.95 33.81 L 159.95 35.36 L 159.78 37.89 L 156.20 38.54 L 154.29 40.31 L 145.77 42.74 L 145.36 44.56 L 142.48 45.23 L 142.32 47.72 L 142.26 50.49 L 142.15 52.79 L 142.03 47.72 L 141.90 42.61 L 141.86 45.03 L 140.07 39.85 L 138.52 39.05 Z" fill="#d0d0d0" fill-opacity="0.5" stroke="none"/>
<path d="M 163.40 33.43 L 163.70 33.43 L 163.85 33.43 L 164.22 33.43 L 164.84 33.43 L 164.84 33.43 L 165.18 33.43 L 165.18 34.14 L 164.84 36.79 L 164.84 39.76 L 164.22 34.53 L 163.85 37.19 L 163.70 37.51 L 163.40 38.67 Z" fill="#d0d0d0" fill-opacity="0.5" stroke="none"/>
<path d="M 166.20 31.45 L 166.22 31.45 L 166.53 31.45 L 166.80 31.45 L 166.88 31.45 L 166.92 31.45 L 167.38 31.45 L 167.52 31.45 L 167.53 31.45 L 167.58 31.45 L 167.79 31.45 L 168.86 31.45 L 169.78 31.45 L 170.10 31.45 L 170.61 31.45 L 170.98 31.45 L 180.66 31.45 L 181.24 31.45 L 181.27 31.45 L 181.42 31.45 L 181.51 31.45 L 181.67 31.45 L 181.93 31.45 L 183.18 31.45 L 184.04 31.45 L 184.56 31.45 L 185.09 31.45 L 189.30 31.45 L 190.37 31.45 L 192.57 31.45 L 194.98 31.45 L 195.89 31.45 L 196.24 31.45 L 196.33 31.45 L 196.57 31.45 L 208.54 31.45 L 210.12 31.45 L 210.82 31.45 L 213.33 31.45 L 217.65 31.45 L 234.81 31.45 L 242.88 31.45 L 264.47 31.45 L 268.46 31.45 L 293.58 31.45 L 294.08 31.45 L 310.88 31.45 L 318.84 31.45 L 318.96 31.45 L 335.99 31.45 L 383.83 31.45 L 394.61 31.45 L 415.61 31.45 L 444.66 31.45 L 444.99 31.45 L 445.11 31.45 L 448.30 31.45 L 463.03 31.45 L 467.25 31.45 L 470.82 31.45 L 474.01 31.45 L 485.27 31.45 L 488.25 31.45 L 498.84 31.45 L 499.16 31.45 L 542.42 31.45 L 617.51 31.45 L 646.84 31.45 L 650.89 31.45 L 664.78 31.45 L 675.79 31.45 L 719.38 31.45 L 719.65 31.45 L 747.71 31.45 L 747.76 31.45 L 747.76 32.53 L 747.71 35.33 L 719.65 38.18 L 719.38 39.95 L 675.79 41.66 L 664.78 40.68 L 650.89 42.36 L 646.84 44.22 L 617.51 46.25 L 542.42 47.64 L 499.16 47.45 L 498.84 49.88 L 488.25 51.96 L 485.27 54.10 L 474.01 55.75 L 470.82 55.26 L 467.25 54.45 L 463.03 55.29 L 448.30 54.39 L 445.11 57.15 L 444.99 57.46 L 444.66 52.39 L 415.61 53.99 L 394.61 52.57 L 383.83 54.25 L 335.99 56.67 L 318.96 51.60 L 318.84 51.92 L 310.88 46.80 L 294.08 48.08 L 293.58 49.73 L 268.46 50.48 L 264.47 51.05 L 242.88 51.75 L 234.81 46.63 L 217.65 47.88 L 213.33 48.57 L 210.82 48.93 L 210.12 51.07 L 208.54 52.63 L 196.57 55.15 L 196.33 56.19 L 196.24 57.59 L 195.89 52.53 L 194.98 54.47 L 192.57 56.65 L 190.37 58.82 L 189.30 61.05 L 185.09 61.99 L 184.56 64.14 L 184.04 66.23 L 183.18 61.26 L 181.93 56.23 L 181.67 57.42 L 181.51 59.74 L 181.42 62.28 L 181.27 64.62 L 181.24 59.67 L 180.66 54.63 L 170.98 56.04 L 170.61 58.76 L 170.10 61.24 L 169.78 56.21 L 168.86 51.13 L 167.79 46.00 L 167.58 48.40 L 167.53 50.33 L 167.52 45.25 L 167.38 40.10 L 166.92 34.86 L 166.88 37.69 L 166.80 39.56 L 166.53 39.23 L 166.22 33.99 L 166.20 36.72 Z" fill="#d0d0d0" fill-opacity="0.5" stroke="none"/>
<path d="M 837.38 25.13 L 837.38 27.74 Z" fill="#d0d0d0" fill-opacity="0.5" stroke="none"/>
<path d="M 994.90 25.00 L 1014.87 25.00 L 1065.26 25.00 L 1094.29 25.00 L 1165.54 25.00 L 1170.00 25.00 L 1170.00 34.25 L 1165.54 34.88 L 1094.29 35.35 L 1065.26 36.06 L 1014.87 30.79 L 994.90 25.47 Z" fill="#d0d0d0" fill-opacity="0.5" stroke="none"/>
<polyline fill="none" stroke="#111" stroke-width="1.2" points="70.00,59.71 106.28,57.54 119.71,57.75 128.79,55.62 129.19,52.71 129.19,49.73 130.00,47.20 130.35,45.37 130.98,43.66 131.00,40.84 132.69,38.99 133.38,36.66 134.97,33.81 138.52,39.05 140.07,39.85 141.86,45.03 141.90,42.61 142.03,47.72 142.15,52.79 142.26,50.49 142.32,47.72 142.48,45.23 145.36,44.56 145.77,42.74 154.29,40.31 156.20,38.54 159.78,37.89 159.95,35.36 162.61,33.43 163.40,38.67 163.70,37.51 163.85,37.19 164.22,34.53 164.84,39.76 164.84,36.79 165.18,34.14 165.98,31.45 166.20,36.72 166.22,33.99 166.53,39.23 166.80,39.56 166.88,37.69 166.92,34.86 167.38,40.10 167.52,45.25 167.53,50.33 167.58,48.40 167.79,46.00 168.86,51.13 169.78,56.21 170.10,61.24 170.61,58.76 170.98,56.04 180.66,54.63 181.24,59.67 181.27,64.62 181.42,62.28 181.51,59.74 181.67,57.42 181.93,56.23 183.18,61.26 184.04,66.23 184.56,64.14 185.09,61.99 189.30,61.05 190.37,58.82 192.57,56.65 194.98,54.47 195.89,52.53 196.24,57.59 196.33,56.19 196.57,55.15 208.54,52.63 210.12,51.07 210.82,48.93 213.33,48.57 217.65,47.88 234.81,46.63 242.88,51.75 264.47,51.05 268.46,50.48 293.58,49.73 294.08,48.08 310.88,46.80 318.84,51.92 318.96,51.60 335.99,56.67 383.83,54.25 394.61,52.57 415.61,53.99 444.66,52.39 444.99,57.46 445.11,57.15 448.30,54.39 463.03,55.29 467.25,54.45 470.82,55.26 474.01,55.75 485.27,54.10 488.25,51.96 498.84,49.88 499.16,47.45 542.42,47.64 617.51,46.25 646.84,44.22 650.89,42.36 664.78,40.68 675.79,41.66 719.38,39.95 719.65,38.18 747.71,35.33 747.76,32.53 747.89,30.42 794.56,27.76 798.12,25.13 837.38,27.74 994.58,25.00 994.90,25.47 1014.87,30.79 1065.26,36.06 1094.29,35.35 1165.54,34.88 1170.00,34.25"/>
<text x="620.0" y="588" text-anchor="middle" font-family="sans-serif" font-size="12" fill="#333">UTC time</text>
<text x="15" y="287.5" transform="rotate(-90 15,287.5)" text-anchor="middle" font-family="sans-serif" font-size="12" fill="#333">Capital</text>
</svg>