<svg xmlns="http://www.w3.org/2000/svg" width="1200" height="600" viewBox="0 0 1200 600">
<desc>Equity curve with drawdown fill; x-axis is months only (no exact timestamps)</desc>
<text x="600.0" y="18.0" text-anchor="middle" font-family="sans-serif" font-size="14">Portfolio 2015 (UTC)</text>
<rect x="70" y="25" width="1100" height="525" fill="white" stroke="#ccc" />
<line x1="70" y1="550.00" x2="1170" y2="550.00" stroke="#eee"/>
<text x="62" y="554.0" text-anchor="end" font-family="sans-serif" font-size="11" fill="#555">0.00</text>
<line x1="70" y1="445.00" x2="1170" y2="445.00" stroke="#eee"/>
<text x="62" y="449.0" text-anchor="end" font-family="sans-serif" font-size="11" fill="#555">93756</text>
<line x1="70" y1="340.00" x2="1170" y2="340.00" stroke="#eee"/>
<text x="62" y="344.0" text-anchor="end" font-family="sans-serif" font-size="11" fill="#555">187512</text>
<line x1="70" y1="235.00" x2="1170" y2="235.00" stroke="#eee"/>
<text x="62" y="239.0" text-anchor="end" font-family="sans-serif" font-size="11" fill="#555">281268</text>
<line x1="70" y1="130.00" x2="1170" y2="130.00" stroke="#eee"/>
<text x="62" y="134.0" text-anchor="end" font-family="sans-serif" font-size="11" fill="#555">375024</text>
<line x1="70" y1="25.00" x2="1170" y2="25.00" stroke="#eee"/>
<text x="62" y="29.0" text-anchor="end" font-family="sans-serif" font-size="11" fill="#555">468780</text>
<line x1="161.67" y1="25" x2="161.67" y2="550" stroke="#f2f2f2"/>
<line x1="253.33" y1="25" x2="253.33" y2="550" stroke="#f2f2f2"/>
<line x1="345.00" y1="25" x2="345.00" y2="550" stroke="#f2f2f2"/>
<line x1="436.67" y1="25" x2="436.67" y2="550" stroke="#f2f2f2"/>
<line x1="528.33" y1="25" x2="528.33" y2="550" stroke="#f2f2f2"/>
<line x1="620.00" y1="25" x2="620.00" y2="550" stroke="#f2f2f2"/>
<line x1="711.67" y1="25" x2="711.67" y2="550" stroke="#f2f2f2"/>
<line x1="803.33" y1="25" x2="803.33" y2="550" stroke="#f2f2f2"/>
<line x1="895.00" y1="25" x2="895.00" y2="550" stroke="#f2f2f2"/>
<line x1="986.67" y1="25" x2="986.67" y2="550" stroke="#f2f2f2"/>
<line x1="1078.33" y1="25" x2="1078.33" y2="550" stroke="#f2f2f2"/>
<text x="115.83" y="566.00" text-anchor="middle" font-family="sans-serif" font-size="11" fill="#444">Jan</text>
<text x="207.50" y="566.00" text-anchor="middle" font-family="sans-serif" font-size="11" fill="#444">Feb</text>
<text x="299.17" y="566.00" text-anchor="middle" font-family="sans-serif" font-size="11" fill="#444">Mar</text>
<text x="390.83" y="566.00" text-anchor="middle" font-family="sans-serif" font-size="11" fill="#444">Apr</text>
<text x="482.50" y="566.00" text-anchor="middle" font-family="sans-serif" font-size="11" fill="#444">May</text>
<text x="574.17" y="566.00" text-anchor="middle" font-family="sans-serif" font-size="11" fill="#444">Jun</text>
<text x="665.83" y="566.00" text-anchor="middle" font-family="sans-serif" font-size="11" fill="#444">Jul</text>
<text x="757.50" y="566.00" text-anchor="middle" font-family="sans-serif" font-size="11" fill="#444">Aug</text>
<text x="849.17" y="566.00" text-anchor="middle" font-family="sans-serif" font-size="11" fill="#444">Sep</text>
<text x="940.83" y="566.00" text-anchor="middle" font-family="sans-serif" font-size="11" fill="#444">Oct</text>
<text x="1032.50" y="566.00" text-anchor="middle" font-family="sans-serif" font-size="11" fill="#444">Nov</text>
<text x="1124.17" y="566.00" text-anchor="middle" font-family="sans-serif" font-size="11" fill="#444">Dec</text>
<line x1="70" y1="550" x2="1170" y2="550" stroke="#888"/>
<line x1="70" y1="25" x2="70" y2="550" stroke="#888"/>
<line x1="77.64" y1="550.00" x2="77.64" y2="556.00" stroke="#888"/>
<line x1="1158.54"   y1="550.00" x2="1158.54"   y2="556.00" stroke="#888"/>
<text x="77.64" y="582.00" text-anchor="start" font-family="sans-serif" font-size="11" fill="#333">Initial Balance: 336007</text>
<text x="1158.54"   y="582.00" text-anchor="end"   font-family="sans-serif" font-size="11" fill="#333">Ending Balance: 465440</text>
<path d="M 165.83 160.89 L 174.17 160.89 L 182.50 160.89 L 182.50 162.72 L 174.17 165.67 L 165.83 166.78 Z" fill="#d0d0d0" fill-opacity="0.5" stroke="none"/>
<path d="M 255.33 145.53 L 255.33 146.60 Z" fill="#d0d0d0" fill-opacity="0.5" stroke="none"/>
<path d="M 263.30 145.42 L 267.28 145.42 L 267.28 148.24 L 263.30 151.55 Z" fill="#d0d0d0" fill-opacity="0.5" stroke="none"/>
<path d="M 279.24 142.91 L 283.22 142.91 L 287.21 142.91 L 287.21 145.79 L 283.22 146.29 L 279.24 149.07 Z" fill="#d0d0d0" fill-opacity="0.5" stroke="none"/>
<path d="M 311.12 130.67 L 315.11 130.67 L 319.09 130.67 L 319.09 131.44 L 315.11 133.81 L 311.12 137.00 Z" fill="#d0d0d0" fill-opacity="0.5" stroke="none"/>
<path d="M 361.89 103.81 L 366.71 103.81 L 371.54 103.81 L 371.54 105.39 L 366.71 106.98 L 361.89 110.50 Z" fill="#d0d0d0" fill-opacity="0.5" stroke="none"/>
<path d="M 381.18 101.73 L 386.01 101.73 L 390.83 101.73 L 395.66 101.73 L 400.48 101.73 L 405.31 101.73 L 410.13 101.73 L 414.96 101.73 L 419.78 101.73 L 424.61 101.73 L 429.43 101.73 L 434.25 101.73 L 439.72 101.73 L 445.83 101.73 L 451.94 101.73 L 458.06 101.73 L 464.17 101.73 L 470.28 101.73 L 470.28 103.00 L 464.17 106.66 L 458.06 109.82 L 451.94 103.12 L 445.83 105.11 L 439.72 108.76 L 434.25 110.37 L 429.43 113.62 L 424.61 107.02 L 419.78 110.80 L 414.96 112.43 L 410.13 105.76 L 405.31 107.84 L 400.48 110.47 L 395.66 110.15 L 390.83 113.42 L 386.01 106.77 L 381.18 108.45 Z" fill="#d0d0d0" fill-opacity="0.5" stroke="none"/>
<path d="M 494.72 94.01 L 500.83 94.01 L 506.94 94.01 L 513.06 94.01 L 519.17 94.01 L 525.28 94.01 L 530.62 94.01 L 535.21 94.01 L 539.79 94.01 L 544.38 94.01 L 544.38 97.16 L 539.79 100.87 L 535.21 94.05 L 530.62 97.00 L 525.28 100.70 L 519.17 103.41 L 513.06 106.74 L 506.94 105.82 L 500.83 107.56 L 494.72 100.83 Z" fill="#d0d0d0" fill-opacity="0.5" stroke="none"/>
<path d="M 594.79 65.89 L 599.38 65.89 L 603.96 65.89 L 608.54 65.89 L 613.12 65.89 L 617.71 65.89 L 625.09 65.89 L 635.28 65.89 L 645.46 65.89 L 645.46 66.63 L 635.28 68.82 L 625.09 72.69 L 617.71 76.31 L 613.12 80.36 L 608.54 73.37 L 603.96 77.39 L 599.38 80.13 L 594.79 73.05 Z" fill="#d0d0d0" fill-opacity="0.5" stroke="none"/>
<path d="M 665.83 63.08 L 665.83 63.64 Z" fill="#d0d0d0" fill-opacity="0.5" stroke="none"/>
<path d="M 696.39 55.91 L 706.57 55.91 L 714.08 55.91 L 718.90 55.91 L 723.73 55.91 L 728.55 55.91 L 733.38 55.91 L 738.20 55.91 L 743.03 55.91 L 747.85 55.91 L 752.68 55.91 L 757.50 55.91 L 757.50 56.95 L 752.68 60.75 L 747.85 64.41 L 743.03 65.07 L 738.20 66.24 L 733.38 58.99 L 728.55 58.28 L 723.73 62.24 L 718.90 66.36 L 714.08 59.11 L 706.57 63.06 L 696.39 63.11 Z" fill="#d0d0d0" fill-opacity="0.5" stroke="none"/>
<path d="M 771.97 51.27 L 776.80 51.27 L 781.62 51.27 L 786.45 51.27 L 791.27 51.27 L 791.27 54.02 L 786.45 54.93 L 781.62 59.14 L 776.80 55.13 L 771.97 58.61 Z" fill="#d0d0d0" fill-opacity="0.5" stroke="none"/>
<path d="M 860.62 41.90 L 883.54 41.90 L 901.55 41.90 L 914.64 41.90 L 927.74 41.90 L 927.74 43.69 L 914.64 42.78 L 901.55 44.00 L 883.54 44.64 L 860.62 43.56 Z" fill="#d0d0d0" fill-opacity="0.5" stroke="none"/>
<path d="M 967.02 35.64 L 967.02 37.98 Z" fill="#d0d0d0" fill-opacity="0.5" stroke="none"/>
<path d="M 1112.71 25.00 L 1135.62 25.00 L 1158.54 25.00 L 1158.54 28.74 L 1135.62 30.10 L 1112.71 32.65 Z" fill="#d0d0d0" fill-opacity="0.5" stroke="none"/>
<polyline fill="none" stroke="#111" stroke-width="1.2" points="77.64,173.70 92.92,170.53 108.19,169.78 123.47,166.72 138.75,163.84 154.03,160.89 165.83,166.78 174.17,165.67 182.50,162.72 190.83,160.23 199.17,158.77 207.50,157.72 215.83,154.61 224.17,152.86 232.50,150.28 240.83,149.06 249.17,145.53 255.33,146.60 259.31,145.42 263.30,151.55 267.28,148.24 271.27,145.02 275.25,142.91 279.24,149.07 283.22,146.29 287.21,145.79 291.20,142.44 295.18,139.26 299.17,136.64 303.15,133.96 307.14,130.67 311.12,137.00 315.11,133.81 319.09,131.44 323.08,127.96 327.07,124.46 331.05,121.31 335.04,119.12 339.02,115.56 343.01,112.05 347.41,109.21 352.24,105.86 357.06,103.81 361.89,110.50 366.71,106.98 371.54,105.39 376.36,101.73 381.18,108.45 386.01,106.77 390.83,113.42 395.66,110.15 400.48,110.47 405.31,107.84 410.13,105.76 414.96,112.43 419.78,110.80 424.61,107.02 429.43,113.62 434.25,110.37 439.72,108.76 445.83,105.11 451.94,103.12 458.06,109.82 464.17,106.66 470.28,103.00 476.39,99.30 482.50,96.53 488.61,94.01 494.72,100.83 500.83,107.56 506.94,105.82 513.06,106.74 519.17,103.41 525.28,100.70 530.62,97.00 535.21,94.05 539.79,100.87 544.38,97.16 548.96,93.72 553.54,89.96 558.12,89.67 562.71,85.88 567.29,83.23 571.88,80.19 576.46,76.34 581.04,72.46 585.62,69.82 590.21,65.89 594.79,73.05 599.38,80.13 603.96,77.39 608.54,73.37 613.12,80.36 617.71,76.31 625.09,72.69 635.28,68.82 645.46,66.63 655.65,63.08 665.83,63.64 676.02,60.05 686.20,55.91 696.39,63.11 706.57,63.06 714.08,59.11 718.90,66.36 723.73,62.24 728.55,58.28 733.38,58.99 738.20,66.24 743.03,65.07 747.85,64.41 752.68,60.75 757.50,56.95 762.32,52.95 767.15,51.27 771.97,58.61 776.80,55.13 781.62,59.14 786.45,54.93 791.27,54.02 796.10,50.00 800.92,46.99 814.79,45.97 837.71,41.90 860.62,43.56 883.54,44.64 901.55,44.00 914.64,42.78 927.74,43.69 940.83,39.60 953.93,35.64 967.02,37.98 980.12,33.85 1009.58,29.72 1055.42,28.35 1089.79,25.00 1112.71,32.65 1135.62,30.10 1158.54,28.74"/>
<text x="620.0" y="588" text-anchor="middle" font-family="sans-serif" font-size="12" fill="#333">Monthly Balance Curve</text>
<text x="15" y="287.5" transform="rotate(-90 15,287.5)" text-anchor="middle" font-family="sans-serif" font-size="12" fill="#333">Capital</text>
</svg>