<svg xmlns="http://www.w3.org/2000/svg" width="1200" height="600" viewBox="0 0 1200 600">
<desc>Equity curve with drawdown fill; x-axis is months only (no exact timestamps)</desc>
<text x="600.0" y="18.0" text-anchor="middle" font-family="sans-serif" font-size="14">Portfolio 2011 (UTC)</text>
<rect x="70" y="25" width="1100" height="525" fill="white" stroke="#ccc" />
<line x1="70" y1="550.00" x2="1170" y2="550.00" stroke="#eee"/>
<text x="62" y="554.0" text-anchor="end" font-family="sans-serif" font-size="11" fill="#555">0.00</text>
<line x1="70" y1="445.00" x2="1170" y2="445.00" stroke="#eee"/>
<text x="62" y="449.0" text-anchor="end" font-family="sans-serif" font-size="11" fill="#555">23526</text>
<line x1="70" y1="340.00" x2="1170" y2="340.00" stroke="#eee"/>
<text x="62" y="344.0" text-anchor="end" font-family="sans-serif" font-size="11" fill="#555">47053</text>
<line x1="70" y1="235.00" x2="1170" y2="235.00" stroke="#eee"/>
<text x="62" y="239.0" text-anchor="end" font-family="sans-serif" font-size="11" fill="#555">70579</text>
<line x1="70" y1="130.00" x2="1170" y2="130.00" stroke="#eee"/>
<text x="62" y="134.0" text-anchor="end" font-family="sans-serif" font-size="11" fill="#555">94105</text>
<line x1="70" y1="25.00" x2="1170" y2="25.00" stroke="#eee"/>
<text x="62" y="29.0" text-anchor="end" font-family="sans-serif" font-size="11" fill="#555">117631</text>
<line x1="161.67" y1="25" x2="161.67" y2="550" stroke="#f2f2f2"/>
<line x1="253.33" y1="25" x2="253.33" y2="550" stroke="#f2f2f2"/>
<line x1="345.00" y1="25" x2="345.00" y2="550" stroke="#f2f2f2"/>
<line x1="436.67" y1="25" x2="436.67" y2="550" stroke="#f2f2f2"/>
<line x1="528.33" y1="25" x2="528.33" y2="550" stroke="#f2f2f2"/>
<line x1="620.00" y1="25" x2="620.00" y2="550" stroke="#f2f2f2"/>
<line x1="711.67" y1="25" x2="711.67" y2="550" stroke="#f2f2f2"/>
<line x1="803.33" y1="25" x2="803.33" y2="550" stroke="#f2f2f2"/>
<line x1="895.00" y1="25" x2="895.00" y2="550" stroke="#f2f2f2"/>
<line x1="986.67" y1="25" x2="986.67" y2="550" stroke="#f2f2f2"/>
<line x1="1078.33" y1="25" x2="1078.33" y2="550" stroke="#f2f2f2"/>
<text x="115.83" y="566.00" text-anchor="middle" font-family="sans-serif" font-size="11" fill="#444">Jan</text>
<text x="207.50" y="566.00" text-anchor="middle" font-family="sans-serif" font-size="11" fill="#444">Feb</text>
<text x="299.17" y="566.00" text-anchor="middle" font-family="sans-serif" font-size="11" fill="#444">Mar</text>
<text x="390.83" y="566.00" text-anchor="middle" font-family="sans-serif" font-size="11" fill="#444">Apr</text>
<text x="482.50" y="566.00" text-anchor="middle" font-family="sans-serif" font-size="11" fill="#444">May</text>
<text x="574.17" y="566.00" text-anchor="middle" font-family="sans-serif" font-size="11" fill="#444">Jun</text>
<text x="665.83" y="566.00" text-anchor="middle" font-family="sans-serif" font-size="11" fill="#444">Jul</text>
<text x="757.50" y="566.00" text-anchor="middle" font-family="sans-serif" font-size="11" fill="#444">Aug</text>
<text x="849.17" y="566.00" text-anchor="middle" font-family="sans-serif" font-size="11" fill="#444">Sep</text>
<text x="940.83" y="566.00" text-anchor="middle" font-family="sans-serif" font-size="11" fill="#444">Oct</text>
<text x="1032.50" y="566.00" text-anchor="middle" font-family="sans-serif" font-size="11" fill="#444">Nov</text>
<text x="1124.17" y="566.00" text-anchor="middle" font-family="sans-serif" font-size="11" fill="#444">Dec</text>
<line x1="70" y1="550" x2="1170" y2="550" stroke="#888"/>
<line x1="70" y1="25" x2="70" y2="550" stroke="#888"/>
<line x1="74.17" y1="550.00" x2="74.17" y2="556.00" stroke="#888"/>
<line x1="1154.72"   y1="550.00" x2="1154.72"   y2="556.00" stroke="#888"/>
<text x="74.17" y="582.00" text-anchor="start" font-family="sans-serif" font-size="11" fill="#333">Initial Balance: 100000</text>
<text x="1154.72"   y="582.00" text-anchor="end"   font-family="sans-serif" font-size="11" fill="#333">Ending Balance: 116483</text>
<path d="M 189.17 70.46 L 207.50 70.46 L 207.50 71.67 L 189.17 73.01 Z" fill="#d0d0d0" fill-opacity="0.5" stroke="none"/>
<path d="M 244.17 68.59 L 259.06 68.59 L 270.52 68.59 L 270.52 69.68 L 259.06 71.82 L 244.17 75.86 Z" fill="#d0d0d0" fill-opacity="0.5" stroke="none"/>
<path d="M 293.44 67.80 L 293.44 68.98 Z" fill="#d0d0d0" fill-opacity="0.5" stroke="none"/>
<path d="M 327.81 65.13 L 327.81 66.11 Z" fill="#d0d0d0" fill-opacity="0.5" stroke="none"/>
<path d="M 356.46 63.47 L 379.38 63.47 L 402.29 63.47 L 425.21 63.47 L 439.36 63.47 L 444.75 63.47 L 450.15 63.47 L 455.54 63.47 L 460.93 63.47 L 466.32 63.47 L 471.72 63.47 L 477.11 63.47 L 482.50 63.47 L 487.89 63.47 L 493.28 63.47 L 498.68 63.47 L 504.07 63.47 L 509.46 63.47 L 514.85 63.47 L 520.25 63.47 L 525.64 63.47 L 532.15 63.47 L 539.79 63.47 L 547.43 63.47 L 555.07 63.47 L 562.71 63.47 L 570.35 63.47 L 577.99 63.47 L 585.62 63.47 L 593.26 63.47 L 600.90 63.47 L 608.54 63.47 L 608.54 64.80 L 600.90 67.64 L 593.26 69.02 L 585.62 69.86 L 577.99 73.93 L 570.35 74.73 L 562.71 78.73 L 555.07 82.72 L 547.43 75.56 L 539.79 77.23 L 532.15 79.77 L 525.64 76.91 L 520.25 78.80 L 514.85 80.85 L 509.46 73.66 L 504.07 75.32 L 498.68 72.29 L 493.28 74.28 L 487.89 77.59 L 482.50 79.73 L 477.11 80.82 L 471.72 82.96 L 466.32 75.80 L 460.93 68.54 L 455.54 70.93 L 450.15 74.99 L 444.75 67.75 L 439.36 71.85 L 425.21 72.71 L 402.29 75.54 L 379.38 68.28 L 356.46 70.81 Z" fill="#d0d0d0" fill-opacity="0.5" stroke="none"/>
<path d="M 690.28 27.30 L 696.39 27.30 L 702.50 27.30 L 708.61 27.30 L 714.21 27.30 L 719.31 27.30 L 724.40 27.30 L 729.49 27.30 L 734.58 27.30 L 734.58 28.82 L 729.49 33.19 L 724.40 36.61 L 719.31 40.10 L 714.21 42.78 L 708.61 46.19 L 702.50 38.52 L 696.39 30.74 L 690.28 35.10 Z" fill="#d0d0d0" fill-opacity="0.5" stroke="none"/>
<path d="M 744.77 25.00 L 749.86 25.00 L 754.95 25.00 L 760.05 25.00 L 765.14 25.00 L 770.23 25.00 L 775.32 25.00 L 780.42 25.00 L 785.51 25.00 L 790.60 25.00 L 795.69 25.00 L 800.79 25.00 L 805.88 25.00 L 810.97 25.00 L 816.06 25.00 L 821.16 25.00 L 826.25 25.00 L 831.34 25.00 L 836.44 25.00 L 841.53 25.00 L 846.62 25.00 L 851.71 25.00 L 856.81 25.00 L 861.90 25.00 L 866.99 25.00 L 872.08 25.00 L 877.18 25.00 L 882.27 25.00 L 887.36 25.00 L 892.45 25.00 L 897.41 25.00 L 902.24 25.00 L 907.06 25.00 L 911.89 25.00 L 916.71 25.00 L 921.54 25.00 L 926.36 25.00 L 931.18 25.00 L 936.01 25.00 L 940.83 25.00 L 945.66 25.00 L 950.48 25.00 L 955.31 25.00 L 960.13 25.00 L 964.96 25.00 L 969.78 25.00 L 974.61 25.00 L 979.43 25.00 L 984.25 25.00 L 989.21 25.00 L 994.31 25.00 L 999.40 25.00 L 1004.49 25.00 L 1009.58 25.00 L 1014.68 25.00 L 1019.77 25.00 L 1024.86 25.00 L 1029.95 25.00 L 1035.05 25.00 L 1040.14 25.00 L 1045.23 25.00 L 1050.32 25.00 L 1055.42 25.00 L 1060.51 25.00 L 1065.60 25.00 L 1070.69 25.00 L 1075.79 25.00 L 1093.61 25.00 L 1124.17 25.00 L 1154.72 25.00 L 1154.72 30.13 L 1124.17 34.05 L 1093.61 36.45 L 1075.79 36.53 L 1070.69 37.84 L 1065.60 41.38 L 1060.51 45.17 L 1055.42 37.46 L 1050.32 35.27 L 1045.23 38.41 L 1040.14 41.47 L 1035.05 33.71 L 1029.95 33.77 L 1024.86 34.02 L 1019.77 37.19 L 1014.68 38.09 L 1009.58 42.07 L 1004.49 45.05 L 999.40 37.35 L 994.31 39.11 L 989.21 42.13 L 984.25 34.38 L 979.43 36.08 L 974.61 38.48 L 969.78 42.05 L 964.96 46.32 L 960.13 50.56 L 955.31 48.91 L 950.48 51.79 L 945.66 55.99 L 940.83 54.75 L 936.01 47.18 L 931.18 39.50 L 926.36 42.85 L 921.54 46.71 L 916.71 49.70 L 911.89 51.21 L 907.06 43.59 L 902.24 47.84 L 897.41 51.83 L 892.45 54.82 L 887.36 53.33 L 882.27 55.61 L 877.18 48.05 L 872.08 49.56 L 866.99 41.92 L 861.90 41.39 L 856.81 33.64 L 851.71 35.85 L 846.62 40.16 L 841.53 42.47 L 836.44 46.74 L 831.34 50.35 L 826.25 53.64 L 821.16 53.94 L 816.06 57.22 L 810.97 60.77 L 805.88 53.29 L 800.79 45.70 L 795.69 49.96 L 790.60 42.33 L 785.51 34.60 L 780.42 37.84 L 775.32 42.12 L 770.23 34.38 L 765.14 34.24 L 760.05 33.04 L 754.95 25.18 L 749.86 29.56 L 744.77 32.86 Z" fill="#d0d0d0" fill-opacity="0.5" stroke="none"/>
<polyline fill="none" stroke="#111" stroke-width="1.2" points="74.17,103.69 82.50,101.40 90.83,101.36 99.17,97.55 107.50,95.63 115.83,92.12 124.17,88.52 132.50,85.33 140.83,81.72 149.17,77.77 157.50,73.76 170.83,70.46 189.17,73.01 207.50,71.67 225.83,68.59 244.17,75.86 259.06,71.82 270.52,69.68 281.98,67.80 293.44,68.98 304.90,66.48 316.35,65.13 327.81,66.11 339.27,63.47 356.46,70.81 379.38,68.28 402.29,75.54 425.21,72.71 439.36,71.85 444.75,67.75 450.15,74.99 455.54,70.93 460.93,68.54 466.32,75.80 471.72,82.96 477.11,80.82 482.50,79.73 487.89,77.59 493.28,74.28 498.68,72.29 504.07,75.32 509.46,73.66 514.85,80.85 520.25,78.80 525.64,76.91 532.15,79.77 539.79,77.23 547.43,75.56 555.07,82.72 562.71,78.73 570.35,74.73 577.99,73.93 585.62,69.86 593.26,69.02 600.90,67.64 608.54,64.80 616.18,60.66 623.06,56.87 629.17,56.50 635.28,52.30 641.39,49.94 647.50,45.69 653.61,41.67 659.72,41.10 665.83,37.56 671.94,34.49 678.06,31.68 684.17,27.30 690.28,35.10 696.39,30.74 702.50,38.52 708.61,46.19 714.21,42.78 719.31,40.10 724.40,36.61 729.49,33.19 734.58,28.82 739.68,25.00 744.77,32.86 749.86,29.56 754.95,25.18 760.05,33.04 765.14,34.24 770.23,34.38 775.32,42.12 780.42,37.84 785.51,34.60 790.60,42.33 795.69,49.96 800.79,45.70 805.88,53.29 810.97,60.77 816.06,57.22 821.16,53.94 826.25,53.64 831.34,50.35 836.44,46.74 841.53,42.47 846.62,40.16 851.71,35.85 856.81,33.64 861.90,41.39 866.99,41.92 872.08,49.56 877.18,48.05 882.27,55.61 887.36,53.33 892.45,54.82 897.41,51.83 902.24,47.84 907.06,43.59 911.89,51.21 916.71,49.70 921.54,46.71 926.36,42.85 931.18,39.50 936.01,47.18 940.83,54.75 945.66,55.99 950.48,51.79 955.31,48.91 960.13,50.56 964.96,46.32 969.78,42.05 974.61,38.48 979.43,36.08 984.25,34.38 989.21,42.13 994.31,39.11 999.40,37.35 1004.49,45.05 1009.58,42.07 1014.68,38.09 1019.77,37.19 1024.86,34.02 1029.95,33.77 1035.05,33.71 1040.14,41.47 1045.23,38.41 1050.32,35.27 1055.42,37.46 1060.51,45.17 1065.60,41.38 1070.69,37.84 1075.79,36.53 1093.61,36.45 1124.17,34.05 1154.72,30.13"/>
<text x="620.0" y="588" text-anchor="middle" font-family="sans-serif" font-size="12" fill="#333">Monthly Balance Curve</text>
<text x="15" y="287.5" transform="rotate(-90 15,287.5)" text-anchor="middle" font-family="sans-serif" font-size="12" fill="#333">Capital</text>
</svg>