<svg xmlns="http://www.w3.org/2000/svg" width="1200" height="600" viewBox="0 0 1200 600">
<desc>Equity curve with drawdown fill; x-axis is months only (no exact timestamps)</desc>
<text x="600.0" y="18.0" text-anchor="middle" font-family="sans-serif" font-size="14">Portfolio 2015 (UTC)</text>
<rect x="70" y="25" width="1100" height="525" fill="white" stroke="#ccc" />
<line x1="70" y1="550.00" x2="1170" y2="550.00" stroke="#eee"/>
<text x="62" y="554.0" text-anchor="end" font-family="sans-serif" font-size="11" fill="#555">0.00</text>
<line x1="70" y1="445.00" x2="1170" y2="445.00" stroke="#eee"/>
<text x="62" y="449.0" text-anchor="end" font-family="sans-serif" font-size="11" fill="#555">25014</text>
<line x1="70" y1="340.00" x2="1170" y2="340.00" stroke="#eee"/>
<text x="62" y="344.0" text-anchor="end" font-family="sans-serif" font-size="11" fill="#555">50029</text>
<line x1="70" y1="235.00" x2="1170" y2="235.00" stroke="#eee"/>
<text x="62" y="239.0" text-anchor="end" font-family="sans-serif" font-size="11" fill="#555">75043</text>
<line x1="70" y1="130.00" x2="1170" y2="130.00" stroke="#eee"/>
<text x="62" y="134.0" text-anchor="end" font-family="sans-serif" font-size="11" fill="#555">100057</text>
<line x1="70" y1="25.00" x2="1170" y2="25.00" stroke="#eee"/>
<text x="62" y="29.0" text-anchor="end" font-family="sans-serif" font-size="11" fill="#555">125072</text>
<line x1="161.67" y1="25" x2="161.67" y2="550" stroke="#f2f2f2"/>
<line x1="253.33" y1="25" x2="253.33" y2="550" stroke="#f2f2f2"/>
<line x1="345.00" y1="25" x2="345.00" y2="550" stroke="#f2f2f2"/>
<line x1="436.67" y1="25" x2="436.67" y2="550" stroke="#f2f2f2"/>
<line x1="528.33" y1="25" x2="528.33" y2="550" stroke="#f2f2f2"/>
<line x1="620.00" y1="25" x2="620.00" y2="550" stroke="#f2f2f2"/>
<line x1="711.67" y1="25" x2="711.67" y2="550" stroke="#f2f2f2"/>
<line x1="803.33" y1="25" x2="803.33" y2="550" stroke="#f2f2f2"/>
<line x1="895.00" y1="25" x2="895.00" y2="550" stroke="#f2f2f2"/>
<line x1="986.67" y1="25" x2="986.67" y2="550" stroke="#f2f2f2"/>
<line x1="1078.33" y1="25" x2="1078.33" y2="550" stroke="#f2f2f2"/>
<text x="115.83" y="566.00" text-anchor="middle" font-family="sans-serif" font-size="11" fill="#444">Jan</text>
<text x="207.50" y="566.00" text-anchor="middle" font-family="sans-serif" font-size="11" fill="#444">Feb</text>
<text x="299.17" y="566.00" text-anchor="middle" font-family="sans-serif" font-size="11" fill="#444">Mar</text>
<text x="390.83" y="566.00" text-anchor="middle" font-family="sans-serif" font-size="11" fill="#444">Apr</text>
<text x="482.50" y="566.00" text-anchor="middle" font-family="sans-serif" font-size="11" fill="#444">May</text>
<text x="574.17" y="566.00" text-anchor="middle" font-family="sans-serif" font-size="11" fill="#444">Jun</text>
<text x="665.83" y="566.00" text-anchor="middle" font-family="sans-serif" font-size="11" fill="#444">Jul</text>
<text x="757.50" y="566.00" text-anchor="middle" font-family="sans-serif" font-size="11" fill="#444">Aug</text>
<text x="849.17" y="566.00" text-anchor="middle" font-family="sans-serif" font-size="11" fill="#444">Sep</text>
<text x="940.83" y="566.00" text-anchor="middle" font-family="sans-serif" font-size="11" fill="#444">Oct</text>
<text x="1032.50" y="566.00" text-anchor="middle" font-family="sans-serif" font-size="11" fill="#444">Nov</text>
<text x="1124.17" y="566.00" text-anchor="middle" font-family="sans-serif" font-size="11" fill="#444">Dec</text>
<line x1="70" y1="550" x2="1170" y2="550" stroke="#888"/>
<line x1="70" y1="25" x2="70" y2="550" stroke="#888"/>
<line x1="77.64" y1="550.00" x2="77.64" y2="556.00" stroke="#888"/>
<line x1="1158.54"   y1="550.00" x2="1158.54"   y2="556.00" stroke="#888"/>
<text x="77.64" y="582.00" text-anchor="start" font-family="sans-serif" font-size="11" fill="#333">Initial Balance: 100000</text>
<text x="1158.54"   y="582.00" text-anchor="end"   font-family="sans-serif" font-size="11" fill="#333">Ending Balance: 124466</text>
<path d="M 165.83 120.78 L 174.17 120.78 L 182.50 120.78 L 182.50 122.11 L 174.17 124.29 L 165.83 125.11 Z" fill="#d0d0d0" fill-opacity="0.5" stroke="none"/>
<path d="M 255.33 109.54 L 255.33 110.32 Z" fill="#d0d0d0" fill-opacity="0.5" stroke="none"/>
<path d="M 263.30 109.46 L 267.28 109.46 L 267.28 111.51 L 263.30 113.92 Z" fill="#d0d0d0" fill-opacity="0.5" stroke="none"/>
<path d="M 279.24 107.64 L 283.22 107.64 L 287.21 107.64 L 287.21 109.72 L 283.22 110.08 L 279.24 112.11 Z" fill="#d0d0d0" fill-opacity="0.5" stroke="none"/>
<path d="M 311.12 98.79 L 315.11 98.79 L 319.09 98.79 L 319.09 99.34 L 315.11 101.05 L 311.12 103.34 Z" fill="#d0d0d0" fill-opacity="0.5" stroke="none"/>
<path d="M 361.89 79.66 L 366.71 79.66 L 371.54 79.66 L 371.54 80.77 L 366.71 81.90 L 361.89 84.39 Z" fill="#d0d0d0" fill-opacity="0.5" stroke="none"/>
<path d="M 381.18 78.19 L 386.01 78.19 L 390.83 78.19 L 395.66 78.19 L 400.48 78.19 L 405.31 78.19 L 410.13 78.19 L 414.96 78.19 L 419.78 78.19 L 424.61 78.19 L 429.43 78.19 L 434.25 78.19 L 439.72 78.19 L 445.83 78.19 L 451.94 78.19 L 458.06 78.19 L 464.17 78.19 L 470.28 78.19 L 470.28 79.03 L 464.17 81.62 L 458.06 83.86 L 451.94 79.13 L 445.83 80.54 L 439.72 83.12 L 434.25 84.26 L 429.43 86.57 L 424.61 81.88 L 419.78 84.56 L 414.96 85.71 L 410.13 81.00 L 405.31 82.47 L 400.48 84.34 L 395.66 84.12 L 390.83 86.44 L 386.01 81.74 L 381.18 82.93 Z" fill="#d0d0d0" fill-opacity="0.5" stroke="none"/>
<path d="M 494.72 72.70 L 500.83 72.70 L 506.94 72.70 L 513.06 72.70 L 519.17 72.70 L 525.28 72.70 L 530.62 72.70 L 535.21 72.70 L 539.79 72.70 L 544.38 72.70 L 544.38 74.89 L 539.79 77.50 L 535.21 72.70 L 530.62 74.78 L 525.28 77.39 L 519.17 79.30 L 513.06 81.66 L 506.94 81.00 L 500.83 82.23 L 494.72 77.49 Z" fill="#d0d0d0" fill-opacity="0.5" stroke="none"/>
<path d="M 594.79 53.07 L 599.38 53.07 L 603.96 53.07 L 608.54 53.07 L 613.12 53.07 L 617.71 53.07 L 625.09 53.07 L 635.28 53.07 L 645.46 53.07 L 645.46 53.57 L 635.28 55.08 L 625.09 57.77 L 617.71 60.30 L 613.12 63.11 L 608.54 58.24 L 603.96 61.05 L 599.38 62.96 L 594.79 58.03 Z" fill="#d0d0d0" fill-opacity="0.5" stroke="none"/>
<path d="M 665.83 51.11 L 665.83 51.49 Z" fill="#d0d0d0" fill-opacity="0.5" stroke="none"/>
<path d="M 696.39 46.14 L 706.57 46.14 L 714.08 46.14 L 718.90 46.14 L 723.73 46.14 L 728.55 46.14 L 733.38 46.14 L 738.20 46.14 L 743.03 46.14 L 747.85 46.14 L 752.68 46.14 L 757.50 46.14 L 757.50 46.86 L 752.68 49.49 L 747.85 52.02 L 743.03 52.47 L 738.20 53.28 L 733.38 48.28 L 728.55 47.79 L 723.73 50.52 L 718.90 53.37 L 714.08 48.36 L 706.57 51.10 L 696.39 51.13 Z" fill="#d0d0d0" fill-opacity="0.5" stroke="none"/>
<path d="M 771.97 42.96 L 776.80 42.96 L 781.62 42.96 L 786.45 42.96 L 791.27 42.96 L 791.27 44.85 L 786.45 45.47 L 781.62 48.37 L 776.80 45.61 L 771.97 48.01 Z" fill="#d0d0d0" fill-opacity="0.5" stroke="none"/>
<path d="M 860.62 36.53 L 883.54 36.53 L 901.55 36.53 L 914.64 36.53 L 927.74 36.53 L 927.74 37.76 L 914.64 37.13 L 901.55 37.97 L 883.54 38.41 L 860.62 37.66 Z" fill="#d0d0d0" fill-opacity="0.5" stroke="none"/>
<path d="M 967.02 32.25 L 967.02 33.85 Z" fill="#d0d0d0" fill-opacity="0.5" stroke="none"/>
<path d="M 1112.71 25.00 L 1135.62 25.00 L 1158.54 25.00 L 1158.54 27.54 L 1135.62 28.47 L 1112.71 30.21 Z" fill="#d0d0d0" fill-opacity="0.5" stroke="none"/>
<polyline fill="none" stroke="#111" stroke-width="1.2" points="77.64,130.24 92.92,127.89 108.19,127.34 123.47,125.08 138.75,122.96 154.03,120.78 165.83,125.11 174.17,124.29 182.50,122.11 190.83,120.29 199.17,119.21 207.50,118.44 215.83,116.17 224.17,114.88 232.50,113.00 240.83,112.11 249.17,109.54 255.33,110.32 259.31,109.46 263.30,113.92 267.28,111.51 271.27,109.17 275.25,107.64 279.24,112.11 283.22,110.08 287.21,109.72 291.20,107.29 295.18,104.99 299.17,103.10 303.15,101.17 307.14,98.79 311.12,103.34 315.11,101.05 319.09,99.34 323.08,96.84 327.07,94.34 331.05,92.09 335.04,90.52 339.02,87.99 343.01,85.50 347.41,83.48 352.24,81.11 357.06,79.66 361.89,84.39 366.71,81.90 371.54,80.77 376.36,78.19 381.18,82.93 386.01,81.74 390.83,86.44 395.66,84.12 400.48,84.34 405.31,82.47 410.13,81.00 414.96,85.71 419.78,84.56 424.61,81.88 429.43,86.57 434.25,84.26 439.72,83.12 445.83,80.54 451.94,79.13 458.06,83.86 464.17,81.62 470.28,79.03 476.39,76.43 482.50,74.47 488.61,72.70 494.72,77.49 500.83,82.23 506.94,81.00 513.06,81.66 519.17,79.30 525.28,77.39 530.62,74.78 535.21,72.70 539.79,77.50 544.38,74.89 548.96,72.47 553.54,69.84 558.12,69.63 562.71,66.98 567.29,65.13 571.88,63.01 576.46,60.33 581.04,57.63 585.62,55.79 590.21,53.07 594.79,58.03 599.38,62.96 603.96,61.05 608.54,58.24 613.12,63.11 617.71,60.30 625.09,57.77 635.28,55.08 645.46,53.57 655.65,51.11 665.83,51.49 676.02,49.01 686.20,46.14 696.39,51.13 706.57,51.10 714.08,48.36 718.90,53.37 723.73,50.52 728.55,47.79 733.38,48.28 738.20,53.28 743.03,52.47 747.85,52.02 752.68,49.49 757.50,46.86 762.32,44.12 767.15,42.96 771.97,48.01 776.80,45.61 781.62,48.37 786.45,45.47 791.27,44.85 796.10,42.08 800.92,40.01 814.79,39.32 837.71,36.53 860.62,37.66 883.54,38.41 901.55,37.97 914.64,37.13 927.74,37.76 940.83,34.96 953.93,32.25 967.02,33.85 980.12,31.03 1009.58,28.21 1055.42,27.28 1089.79,25.00 1112.71,30.21 1135.62,28.47 1158.54,27.54"/>
<text x="620.0" y="588" text-anchor="middle" font-family="sans-serif" font-size="12" fill="#333">Monthly Balance Curve</text>
<text x="15" y="287.5" transform="rotate(-90 15,287.5)" text-anchor="middle" font-family="sans-serif" font-size="12" fill="#333">Capital</text>
</svg>