<svg xmlns="http://www.w3.org/2000/svg" width="1200" height="600" viewBox="0 0 1200 600">
<desc>Equity curve with drawdown fill</desc>
<text x="600.0" y="18.0" text-anchor="middle" font-family="sans-serif" font-size="14">Portfolio 2012</text>
<rect x="70" y="25" width="1100" height="525" fill="white" stroke="#ccc" />
<line x1="70" y1="550.00" x2="1170" y2="550.00" stroke="#eee"/>
<text x="62" y="554.0" text-anchor="end" font-family="sans-serif" font-size="11" fill="#555">0.00</text>
<line x1="70" y1="445.00" x2="1170" y2="445.00" stroke="#eee"/>
<text x="62" y="449.0" text-anchor="end" font-family="sans-serif" font-size="11" fill="#555">20908</text>
<line x1="70" y1="340.00" x2="1170" y2="340.00" stroke="#eee"/>
<text x="62" y="344.0" text-anchor="end" font-family="sans-serif" font-size="11" fill="#555">41817</text>
<line x1="70" y1="235.00" x2="1170" y2="235.00" stroke="#eee"/>
<text x="62" y="239.0" text-anchor="end" font-family="sans-serif" font-size="11" fill="#555">62725</text>
<line x1="70" y1="130.00" x2="1170" y2="130.00" stroke="#eee"/>
<text x="62" y="134.0" text-anchor="end" font-family="sans-serif" font-size="11" fill="#555">83633</text>
<line x1="70" y1="25.00" x2="1170" y2="25.00" stroke="#eee"/>
<text x="62" y="29.0" text-anchor="end" font-family="sans-serif" font-size="11" fill="#555">104541</text>
<line x1="154.27" y1="25" x2="154.27" y2="550" stroke="#f2f2f2"/>
<text x="154.27" y="566" text-anchor="middle" font-family="sans-serif" font-size="11" fill="#555">Feb</text>
<line x1="243.15" y1="25" x2="243.15" y2="550" stroke="#f2f2f2"/>
<text x="243.15" y="566" text-anchor="middle" font-family="sans-serif" font-size="11" fill="#555">Mar</text>
<line x1="338.17" y1="25" x2="338.17" y2="550" stroke="#f2f2f2"/>
<text x="338.17" y="566" text-anchor="middle" font-family="sans-serif" font-size="11" fill="#555">Apr</text>
<line x1="430.11" y1="25" x2="430.11" y2="550" stroke="#f2f2f2"/>
<text x="430.11" y="566" text-anchor="middle" font-family="sans-serif" font-size="11" fill="#555">May</text>
<line x1="525.13" y1="25" x2="525.13" y2="550" stroke="#f2f2f2"/>
<text x="525.13" y="566" text-anchor="middle" font-family="sans-serif" font-size="11" fill="#555">Jun</text>
<line x1="617.07" y1="25" x2="617.07" y2="550" stroke="#f2f2f2"/>
<text x="617.07" y="566" text-anchor="middle" font-family="sans-serif" font-size="11" fill="#555">Jul</text>
<line x1="712.08" y1="25" x2="712.08" y2="550" stroke="#f2f2f2"/>
<text x="712.08" y="566" text-anchor="middle" font-family="sans-serif" font-size="11" fill="#555">Aug</text>
<line x1="807.10" y1="25" x2="807.10" y2="550" stroke="#f2f2f2"/>
<text x="807.10" y="566" text-anchor="middle" font-family="sans-serif" font-size="11" fill="#555">Sep</text>
<line x1="899.04" y1="25" x2="899.04" y2="550" stroke="#f2f2f2"/>
<text x="899.04" y="566" text-anchor="middle" font-family="sans-serif" font-size="11" fill="#555">Oct</text>
<line x1="994.06" y1="25" x2="994.06" y2="550" stroke="#f2f2f2"/>
<text x="994.06" y="566" text-anchor="middle" font-family="sans-serif" font-size="11" fill="#555">Nov</text>
<line x1="1086.00" y1="25" x2="1086.00" y2="550" stroke="#f2f2f2"/>
<text x="1086.00" y="566" text-anchor="middle" font-family="sans-serif" font-size="11" fill="#555">Dec</text>
<line x1="70" y1="550" x2="1170" y2="550" stroke="#888"/>
<line x1="70" y1="25" x2="70" y2="550" stroke="#888"/>
<path d="M 97.85 38.32 L 97.99 38.32 L 98.00 38.32 L 98.07 38.32 L 110.19 38.32 L 112.67 38.32 L 118.79 38.32 L 128.17 38.32 L 135.05 38.32 L 135.24 38.32 L 137.18 38.32 L 141.06 38.32 L 153.18 38.32 L 155.54 38.32 L 155.95 38.32 L 158.92 38.32 L 159.41 38.32 L 162.19 38.32 L 162.26 38.32 L 171.72 38.32 L 173.68 38.32 L 173.68 39.12 L 171.72 41.19 L 162.26 42.24 L 162.19 44.71 L 159.41 46.64 L 158.92 47.97 L 155.95 50.55 L 155.54 51.08 L 153.18 45.98 L 141.06 47.63 L 137.18 50.24 L 135.24 52.55 L 135.05 51.37 L 128.17 53.82 L 118.79 48.74 L 112.67 49.41 L 110.19 52.22 L 98.07 52.66 L 98.00 53.63 L 97.99 48.60 L 97.85 43.50 Z" fill="#d0d0d0" fill-opacity="0.5" stroke="none"/>
<path d="M 183.53 35.62 L 183.53 36.25 Z" fill="#d0d0d0" fill-opacity="0.5" stroke="none"/>
<path d="M 202.41 31.10 L 212.50 31.10 L 215.93 31.10 L 226.73 31.10 L 226.73 31.18 L 215.93 33.21 L 212.50 36.12 L 202.41 36.35 Z" fill="#d0d0d0" fill-opacity="0.5" stroke="none"/>
<path d="M 300.46 25.00 L 308.73 25.00 L 311.91 25.00 L 321.50 25.00 L 346.76 25.00 L 346.91 25.00 L 351.91 25.00 L 367.51 25.00 L 376.98 25.00 L 386.66 25.00 L 392.31 25.00 L 394.98 25.00 L 432.12 25.00 L 434.56 25.00 L 448.44 25.00 L 448.49 25.00 L 474.92 25.00 L 498.77 25.00 L 499.53 25.00 L 501.76 25.00 L 505.51 25.00 L 518.20 25.00 L 524.12 25.00 L 526.97 25.00 L 527.03 25.00 L 536.28 25.00 L 538.56 25.00 L 542.24 25.00 L 542.76 25.00 L 555.71 25.00 L 557.89 25.00 L 560.79 25.00 L 564.08 25.00 L 577.21 25.00 L 578.50 25.00 L 582.41 25.00 L 585.62 25.00 L 588.45 25.00 L 609.03 25.00 L 609.12 25.00 L 611.45 25.00 L 611.56 25.00 L 611.67 25.00 L 612.69 25.00 L 612.80 25.00 L 612.91 25.00 L 630.99 25.00 L 631.19 25.00 L 631.31 25.00 L 634.23 25.00 L 655.82 25.00 L 664.91 25.00 L 668.11 25.00 L 674.15 25.00 L 676.99 25.00 L 695.17 25.00 L 695.24 25.00 L 695.36 25.00 L 695.49 25.00 L 695.57 25.00 L 698.45 25.00 L 698.59 25.00 L 699.22 25.00 L 714.54 25.00 L 716.88 25.00 L 716.89 25.00 L 716.92 25.00 L 717.03 25.00 L 717.09 25.00 L 717.29 25.00 L 719.81 25.00 L 720.19 25.00 L 727.53 25.00 L 741.72 25.00 L 756.51 25.00 L 760.11 25.00 L 763.17 25.00 L 784.68 25.00 L 796.22 25.00 L 803.05 25.00 L 805.43 25.00 L 821.05 25.00 L 827.35 25.00 L 841.97 25.00 L 846.12 25.00 L 846.35 25.00 L 848.56 25.00 L 848.92 25.00 L 858.03 25.00 L 866.39 25.00 L 869.72 25.00 L 891.90 25.00 L 924.75 25.00 L 925.73 25.00 L 970.77 25.00 L 1013.07 25.00 L 1014.06 25.00 L 1055.94 25.00 L 1103.36 25.00 L 1122.05 25.00 L 1128.13 25.00 L 1167.69 25.00 L 1170.00 25.00 L 1170.00 52.37 L 1167.69 53.16 L 1128.13 55.50 L 1122.05 55.68 L 1103.36 57.17 L 1055.94 55.96 L 1014.06 56.66 L 1013.07 51.60 L 970.77 51.46 L 925.73 53.13 L 924.75 55.34 L 891.90 55.46 L 869.72 55.28 L 866.39 56.78 L 858.03 58.73 L 848.92 60.74 L 848.56 61.83 L 846.35 61.90 L 846.12 56.90 L 841.97 59.66 L 827.35 62.42 L 821.05 60.71 L 805.43 62.61 L 803.05 64.50 L 796.22 66.01 L 784.68 67.57 L 763.17 69.81 L 760.11 70.83 L 756.51 72.18 L 741.72 73.35 L 727.53 75.10 L 720.19 77.04 L 719.81 72.20 L 717.29 71.78 L 717.09 71.63 L 717.03 73.68 L 716.92 73.71 L 716.89 76.38 L 716.88 79.13 L 714.54 74.32 L 699.22 76.96 L 698.59 72.11 L 698.45 74.79 L 695.57 77.43 L 695.49 79.68 L 695.36 80.15 L 695.24 75.34 L 695.17 70.51 L 676.99 65.60 L 674.15 66.44 L 668.11 67.01 L 664.91 62.06 L 655.82 63.31 L 634.23 63.79 L 631.31 65.19 L 631.19 62.78 L 630.99 57.82 L 612.91 52.78 L 612.80 53.69 L 612.69 53.81 L 611.67 48.73 L 611.56 43.59 L 611.45 43.89 L 609.12 38.70 L 609.03 39.99 L 588.45 34.77 L 585.62 34.25 L 582.41 36.86 L 578.50 37.37 L 577.21 37.36 L 564.08 36.16 L 560.79 36.54 L 557.89 39.12 L 555.71 41.75 L 542.76 42.37 L 542.24 40.43 L 538.56 43.00 L 536.28 37.81 L 527.03 37.58 L 526.97 38.95 L 524.12 33.71 L 518.20 36.31 L 505.51 35.46 L 501.76 34.42 L 499.53 37.31 L 498.77 32.06 L 474.92 34.47 L 448.49 34.49 L 448.44 36.59 L 434.56 31.33 L 432.12 32.62 L 394.98 35.06 L 392.31 36.87 L 386.66 39.24 L 376.98 38.12 L 367.51 38.65 L 351.91 40.83 L 346.91 39.49 L 346.76 38.45 L 321.50 33.21 L 311.91 27.92 L 308.73 27.38 L 300.46 30.32 Z" fill="#d0d0d0" fill-opacity="0.5" stroke="none"/>
<polyline fill="none" stroke="#111" stroke-width="1.2" points="70.00,47.39 72.68,45.41 76.39,44.39 91.36,41.54 94.95,40.93 97.37,38.32 97.85,43.50 97.99,48.60 98.00,53.63 98.07,52.66 110.19,52.22 112.67,49.41 118.79,48.74 128.17,53.82 135.05,51.37 135.24,52.55 137.18,50.24 141.06,47.63 153.18,45.98 155.54,51.08 155.95,50.55 158.92,47.97 159.41,46.64 162.19,44.71 162.26,42.24 171.72,41.19 173.68,39.12 174.43,36.63 174.78,35.62 183.53,36.25 190.96,34.02 198.87,31.10 202.41,36.35 212.50,36.12 215.93,33.21 226.73,31.18 242.02,28.25 269.42,25.88 281.78,25.29 290.95,25.00 300.46,30.32 308.73,27.38 311.91,27.92 321.50,33.21 346.76,38.45 346.91,39.49 351.91,40.83 367.51,38.65 376.98,38.12 386.66,39.24 392.31,36.87 394.98,35.06 432.12,32.62 434.56,31.33 448.44,36.59 448.49,34.49 474.92,34.47 498.77,32.06 499.53,37.31 501.76,34.42 505.51,35.46 518.20,36.31 524.12,33.71 526.97,38.95 527.03,37.58 536.28,37.81 538.56,43.00 542.24,40.43 542.76,42.37 555.71,41.75 557.89,39.12 560.79,36.54 564.08,36.16 577.21,37.36 578.50,37.37 582.41,36.86 585.62,34.25 588.45,34.77 609.03,39.99 609.12,38.70 611.45,43.89 611.56,43.59 611.67,48.73 612.69,53.81 612.80,53.69 612.91,52.78 630.99,57.82 631.19,62.78 631.31,65.19 634.23,63.79 655.82,63.31 664.91,62.06 668.11,67.01 674.15,66.44 676.99,65.60 695.17,70.51 695.24,75.34 695.36,80.15 695.49,79.68 695.57,77.43 698.45,74.79 698.59,72.11 699.22,76.96 714.54,74.32 716.88,79.13 716.89,76.38 716.92,73.71 717.03,73.68 717.09,71.63 717.29,71.78 719.81,72.20 720.19,77.04 727.53,75.10 741.72,73.35 756.51,72.18 760.11,70.83 763.17,69.81 784.68,67.57 796.22,66.01 803.05,64.50 805.43,62.61 821.05,60.71 827.35,62.42 841.97,59.66 846.12,56.90 846.35,61.90 848.56,61.83 848.92,60.74 858.03,58.73 866.39,56.78 869.72,55.28 891.90,55.46 924.75,55.34 925.73,53.13 970.77,51.46 1013.07,51.60 1014.06,56.66 1055.94,55.96 1103.36,57.17 1122.05,55.68 1128.13,55.50 1167.69,53.16 1170.00,52.37"/>
<text x="620.0" y="588" text-anchor="middle" font-family="sans-serif" font-size="12" fill="#333">UTC time</text>
<text x="15" y="287.5" transform="rotate(-90 15,287.5)" text-anchor="middle" font-family="sans-serif" font-size="12" fill="#333">Capital</text>
</svg>