<svg xmlns="http://www.w3.org/2000/svg" width="1200" height="600" viewBox="0 0 1200 600">
<desc>Equity curve with drawdown fill; x-axis is months only (no exact timestamps)</desc>
<text x="600.0" y="18.0" text-anchor="middle" font-family="sans-serif" font-size="14">Balance Curve 2008 (UTC)</text>
<rect x="70" y="25" width="1100" height="525" fill="white" stroke="#ccc" />
<line x1="70" y1="550.00" x2="1170" y2="550.00" stroke="#eee"/>
<text x="62" y="554.0" text-anchor="end" font-family="sans-serif" font-size="11" fill="#555">0.00</text>
<line x1="70" y1="445.00" x2="1170" y2="445.00" stroke="#eee"/>
<text x="62" y="449.0" text-anchor="end" font-family="sans-serif" font-size="11" fill="#555">226101</text>
<line x1="70" y1="340.00" x2="1170" y2="340.00" stroke="#eee"/>
<text x="62" y="344.0" text-anchor="end" font-family="sans-serif" font-size="11" fill="#555">452201</text>
<line x1="70" y1="235.00" x2="1170" y2="235.00" stroke="#eee"/>
<text x="62" y="239.0" text-anchor="end" font-family="sans-serif" font-size="11" fill="#555">678302</text>
<line x1="70" y1="130.00" x2="1170" y2="130.00" stroke="#eee"/>
<text x="62" y="134.0" text-anchor="end" font-family="sans-serif" font-size="11" fill="#555">904402</text>
<line x1="70" y1="25.00" x2="1170" y2="25.00" stroke="#eee"/>
<text x="62" y="29.0" text-anchor="end" font-family="sans-serif" font-size="11" fill="#555">1130503</text>
<line x1="161.67" y1="25" x2="161.67" y2="550" stroke="#f2f2f2"/>
<line x1="253.33" y1="25" x2="253.33" y2="550" stroke="#f2f2f2"/>
<line x1="345.00" y1="25" x2="345.00" y2="550" stroke="#f2f2f2"/>
<line x1="436.67" y1="25" x2="436.67" y2="550" stroke="#f2f2f2"/>
<line x1="528.33" y1="25" x2="528.33" y2="550" stroke="#f2f2f2"/>
<line x1="620.00" y1="25" x2="620.00" y2="550" stroke="#f2f2f2"/>
<line x1="711.67" y1="25" x2="711.67" y2="550" stroke="#f2f2f2"/>
<line x1="803.33" y1="25" x2="803.33" y2="550" stroke="#f2f2f2"/>
<line x1="895.00" y1="25" x2="895.00" y2="550" stroke="#f2f2f2"/>
<line x1="986.67" y1="25" x2="986.67" y2="550" stroke="#f2f2f2"/>
<line x1="1078.33" y1="25" x2="1078.33" y2="550" stroke="#f2f2f2"/>
<text x="115.83" y="566.00" text-anchor="middle" font-family="sans-serif" font-size="11" fill="#444">Jan</text>
<text x="207.50" y="566.00" text-anchor="middle" font-family="sans-serif" font-size="11" fill="#444">Feb</text>
<text x="299.17" y="566.00" text-anchor="middle" font-family="sans-serif" font-size="11" fill="#444">Mar</text>
<text x="390.83" y="566.00" text-anchor="middle" font-family="sans-serif" font-size="11" fill="#444">Apr</text>
<text x="482.50" y="566.00" text-anchor="middle" font-family="sans-serif" font-size="11" fill="#444">May</text>
<text x="574.17" y="566.00" text-anchor="middle" font-family="sans-serif" font-size="11" fill="#444">Jun</text>
<text x="665.83" y="566.00" text-anchor="middle" font-family="sans-serif" font-size="11" fill="#444">Jul</text>
<text x="757.50" y="566.00" text-anchor="middle" font-family="sans-serif" font-size="11" fill="#444">Aug</text>
<text x="849.17" y="566.00" text-anchor="middle" font-family="sans-serif" font-size="11" fill="#444">Sep</text>
<text x="940.83" y="566.00" text-anchor="middle" font-family="sans-serif" font-size="11" fill="#444">Oct</text>
<text x="1032.50" y="566.00" text-anchor="middle" font-family="sans-serif" font-size="11" fill="#444">Nov</text>
<text x="1124.17" y="566.00" text-anchor="middle" font-family="sans-serif" font-size="11" fill="#444">Dec</text>
<line x1="70" y1="550" x2="1170" y2="550" stroke="#888"/>
<line x1="70" y1="25" x2="70" y2="550" stroke="#888"/>
<line x1="74.58" y1="550.00" x2="74.58" y2="556.00" stroke="#888"/>
<line x1="1169.08"   y1="550.00" x2="1169.08"   y2="556.00" stroke="#888"/>
<text x="74.58" y="582.00" text-anchor="start" font-family="sans-serif" font-size="11" fill="#333">Initial Balance: 1000000</text>
<text x="1169.08"   y="582.00" text-anchor="end"   font-family="sans-serif" font-size="11" fill="#333">Ending Balance: 1124389</text>
<path d="M 157.08 70.94 L 184.58 70.94 L 230.42 70.94 L 257.15 70.94 L 257.15 70.95 L 230.42 72.64 L 184.58 74.34 L 157.08 75.76 Z" fill="#d0d0d0" fill-opacity="0.5" stroke="none"/>
<path d="M 272.43 69.25 L 280.07 69.25 L 287.71 69.25 L 287.71 70.12 L 280.07 72.12 L 272.43 74.13 Z" fill="#d0d0d0" fill-opacity="0.5" stroke="none"/>
<path d="M 310.62 67.04 L 318.26 67.04 L 325.90 67.04 L 333.54 67.04 L 341.18 67.04 L 348.82 67.04 L 356.46 67.04 L 364.10 67.04 L 371.74 67.04 L 379.38 67.04 L 387.01 67.04 L 394.65 67.04 L 402.29 67.04 L 409.93 67.04 L 417.57 67.04 L 425.21 67.04 L 432.85 67.04 L 459.58 67.04 L 505.42 67.04 L 535.97 67.04 L 551.25 67.04 L 566.53 67.04 L 581.81 67.04 L 597.08 67.04 L 612.36 67.04 L 629.17 67.04 L 647.50 67.04 L 665.83 67.04 L 684.17 67.04 L 702.50 67.04 L 718.21 67.04 L 731.31 67.04 L 731.31 67.16 L 718.21 69.93 L 702.50 72.52 L 684.17 72.14 L 665.83 72.30 L 647.50 74.64 L 629.17 76.67 L 612.36 79.23 L 597.08 74.41 L 581.81 75.90 L 566.53 76.42 L 551.25 78.48 L 535.97 81.03 L 505.42 83.15 L 459.58 85.17 L 432.85 87.15 L 425.21 89.06 L 417.57 84.34 L 409.93 84.73 L 402.29 85.86 L 394.65 81.11 L 387.01 76.30 L 379.38 78.63 L 371.74 79.65 L 364.10 78.59 L 356.46 76.60 L 348.82 78.98 L 341.18 74.15 L 333.54 74.26 L 325.90 75.46 L 318.26 70.59 L 310.62 71.94 Z" fill="#d0d0d0" fill-opacity="0.5" stroke="none"/>
<path d="M 816.29 47.58 L 818.28 47.58 L 820.27 47.58 L 822.26 47.58 L 824.26 47.58 L 826.25 47.58 L 828.24 47.58 L 830.24 47.58 L 832.23 47.58 L 834.22 47.58 L 836.21 47.58 L 838.21 47.58 L 840.20 47.58 L 842.19 47.58 L 844.18 47.58 L 846.18 47.58 L 848.17 47.58 L 850.16 47.58 L 852.16 47.58 L 854.15 47.58 L 856.14 47.58 L 858.13 47.58 L 860.13 47.58 L 862.12 47.58 L 864.11 47.58 L 866.11 47.58 L 868.10 47.58 L 870.09 47.58 L 872.08 47.58 L 874.08 47.58 L 876.07 47.58 L 878.06 47.58 L 880.05 47.58 L 882.05 47.58 L 884.04 47.58 L 886.03 47.58 L 888.03 47.58 L 890.02 47.58 L 892.01 47.58 L 894.00 47.58 L 895.54 47.58 L 896.62 47.58 L 897.70 47.58 L 898.77 47.58 L 899.85 47.58 L 900.93 47.58 L 902.01 47.58 L 903.09 47.58 L 904.17 47.58 L 905.25 47.58 L 906.32 47.58 L 907.40 47.58 L 908.48 47.58 L 909.56 47.58 L 910.64 47.58 L 911.72 47.58 L 912.79 47.58 L 913.87 47.58 L 914.95 47.58 L 916.03 47.58 L 917.11 47.58 L 918.19 47.58 L 919.26 47.58 L 920.34 47.58 L 921.42 47.58 L 922.50 47.58 L 923.58 47.58 L 924.66 47.58 L 925.74 47.58 L 926.81 47.58 L 927.89 47.58 L 928.97 47.58 L 930.05 47.58 L 931.13 47.58 L 932.21 47.58 L 933.28 47.58 L 934.36 47.58 L 935.44 47.58 L 936.52 47.58 L 937.60 47.58 L 938.68 47.58 L 939.75 47.58 L 940.83 47.58 L 941.91 47.58 L 942.99 47.58 L 944.07 47.58 L 945.15 47.58 L 946.23 47.58 L 947.30 47.58 L 948.38 47.58 L 949.46 47.58 L 950.54 47.58 L 951.62 47.58 L 952.70 47.58 L 953.77 47.58 L 954.85 47.58 L 955.93 47.58 L 957.01 47.58 L 958.09 47.58 L 959.17 47.58 L 960.25 47.58 L 961.32 47.58 L 962.40 47.58 L 963.48 47.58 L 964.56 47.58 L 965.64 47.58 L 966.72 47.58 L 967.79 47.58 L 968.87 47.58 L 969.95 47.58 L 971.03 47.58 L 972.11 47.58 L 973.19 47.58 L 974.26 47.58 L 975.34 47.58 L 976.42 47.58 L 977.50 47.58 L 978.58 47.58 L 979.66 47.58 L 980.74 47.58 L 981.81 47.58 L 982.89 47.58 L 983.97 47.58 L 985.05 47.58 L 986.13 47.58 L 987.76 47.58 L 989.94 47.58 L 992.12 47.58 L 994.31 47.58 L 996.49 47.58 L 998.67 47.58 L 1000.85 47.58 L 1003.04 47.58 L 1005.22 47.58 L 1007.40 47.58 L 1009.58 47.58 L 1011.77 47.58 L 1013.95 47.58 L 1016.13 47.58 L 1018.31 47.58 L 1020.50 47.58 L 1022.68 47.58 L 1024.86 47.58 L 1027.04 47.58 L 1029.23 47.58 L 1031.41 47.58 L 1033.59 47.58 L 1035.77 47.58 L 1037.96 47.58 L 1040.14 47.58 L 1042.32 47.58 L 1044.50 47.58 L 1046.69 47.58 L 1048.87 47.58 L 1051.05 47.58 L 1053.23 47.58 L 1055.42 47.58 L 1057.60 47.58 L 1059.78 47.58 L 1061.96 47.58 L 1064.15 47.58 L 1066.33 47.58 L 1068.51 47.58 L 1070.69 47.58 L 1072.88 47.58 L 1075.06 47.58 L 1077.24 47.58 L 1079.25 47.58 L 1081.08 47.58 L 1082.92 47.58 L 1084.75 47.58 L 1086.58 47.58 L 1088.42 47.58 L 1090.25 47.58 L 1092.08 47.58 L 1093.92 47.58 L 1095.75 47.58 L 1097.58 47.58 L 1099.42 47.58 L 1101.25 47.58 L 1103.08 47.58 L 1104.92 47.58 L 1104.92 48.13 L 1103.08 50.33 L 1101.25 52.96 L 1099.42 55.04 L 1097.58 57.43 L 1095.75 56.83 L 1093.92 59.20 L 1092.08 60.64 L 1090.25 61.86 L 1088.42 56.83 L 1086.58 56.72 L 1084.75 51.68 L 1082.92 53.10 L 1081.08 54.32 L 1079.25 56.91 L 1077.24 58.67 L 1075.06 53.65 L 1072.88 56.25 L 1070.69 58.84 L 1068.51 59.40 L 1066.33 61.13 L 1064.15 62.56 L 1061.96 64.59 L 1059.78 66.34 L 1057.60 68.61 L 1055.42 63.68 L 1053.23 66.04 L 1051.05 68.38 L 1048.87 70.22 L 1046.69 72.52 L 1044.50 75.03 L 1042.32 77.24 L 1040.14 72.36 L 1037.96 74.19 L 1035.77 76.02 L 1033.59 78.05 L 1031.41 79.42 L 1029.23 80.78 L 1027.04 82.01 L 1024.86 84.27 L 1022.68 86.72 L 1020.50 88.74 L 1018.31 89.79 L 1016.13 92.22 L 1013.95 94.70 L 1011.77 94.90 L 1009.58 90.21 L 1007.40 92.64 L 1005.22 94.76 L 1003.04 90.07 L 1000.85 85.33 L 998.67 84.82 L 996.49 86.37 L 994.31 88.57 L 992.12 90.46 L 989.94 90.69 L 987.76 85.95 L 986.13 85.88 L 985.05 88.22 L 983.97 83.49 L 982.89 78.68 L 981.81 81.07 L 980.74 80.77 L 979.66 75.93 L 978.58 77.12 L 977.50 78.90 L 976.42 79.32 L 975.34 81.38 L 974.26 76.60 L 973.19 71.76 L 972.11 66.84 L 971.03 68.39 L 969.95 70.62 L 968.87 72.98 L 967.79 72.61 L 966.72 67.69 L 965.64 68.08 L 964.56 70.45 L 963.48 65.54 L 962.40 68.08 L 961.32 70.24 L 960.25 72.76 L 959.17 75.09 L 958.09 76.87 L 957.01 71.99 L 955.93 74.51 L 954.85 76.95 L 953.77 72.08 L 952.70 74.00 L 951.62 76.51 L 950.54 78.30 L 949.46 78.74 L 948.38 73.89 L 947.30 75.97 L 946.23 76.60 L 945.15 79.10 L 944.07 81.58 L 942.99 83.74 L 941.91 78.98 L 940.83 81.33 L 939.75 83.67 L 938.68 78.92 L 937.60 74.10 L 936.52 76.60 L 935.44 71.73 L 934.36 73.99 L 933.28 74.03 L 932.21 76.28 L 931.13 78.24 L 930.05 80.08 L 928.97 81.18 L 927.89 76.36 L 926.81 77.53 L 925.74 79.54 L 924.66 79.07 L 923.58 81.56 L 922.50 84.04 L 921.42 79.28 L 920.34 74.43 L 919.26 75.89 L 918.19 71.01 L 917.11 66.12 L 916.03 61.15 L 914.95 62.79 L 913.87 65.36 L 912.79 66.09 L 911.72 64.99 L 910.64 67.29 L 909.56 69.63 L 908.48 71.94 L 907.40 73.84 L 906.32 75.96 L 905.25 77.92 L 904.17 73.07 L 903.09 75.60 L 902.01 78.12 L 900.93 80.62 L 899.85 82.97 L 898.77 85.44 L 897.70 80.70 L 896.62 75.87 L 895.54 75.92 L 894.00 78.45 L 892.01 80.14 L 890.02 75.31 L 888.03 70.51 L 886.03 73.31 L 884.04 75.87 L 882.05 71.00 L 880.05 66.08 L 878.06 68.04 L 876.07 69.76 L 874.08 70.50 L 872.08 70.95 L 870.09 72.97 L 868.10 74.12 L 866.11 69.23 L 864.11 71.36 L 862.12 73.61 L 860.13 68.72 L 858.13 70.79 L 856.14 65.90 L 854.15 67.98 L 852.16 63.07 L 850.16 58.07 L 848.17 59.85 L 846.18 54.83 L 844.18 49.76 L 842.19 51.76 L 840.20 52.86 L 838.21 55.04 L 836.21 56.17 L 834.22 51.11 L 832.23 53.77 L 830.24 54.27 L 828.24 49.20 L 826.25 51.37 L 824.26 53.22 L 822.26 48.13 L 820.27 48.19 L 818.28 50.62 L 816.29 52.68 Z" fill="#d0d0d0" fill-opacity="0.5" stroke="none"/>
<path d="M 1114.08 43.77 L 1115.92 43.77 L 1117.75 43.77 L 1119.58 43.77 L 1121.42 43.77 L 1123.25 43.77 L 1125.08 43.77 L 1126.92 43.77 L 1128.75 43.77 L 1130.58 43.77 L 1132.42 43.77 L 1134.25 43.77 L 1136.08 43.77 L 1137.92 43.77 L 1139.75 43.77 L 1141.58 43.77 L 1143.42 43.77 L 1143.42 44.04 L 1141.58 46.74 L 1139.75 49.11 L 1137.92 43.96 L 1136.08 45.65 L 1134.25 47.98 L 1132.42 50.09 L 1130.58 52.76 L 1128.75 54.87 L 1126.92 49.79 L 1125.08 51.95 L 1123.25 53.34 L 1121.42 54.44 L 1119.58 56.49 L 1117.75 59.06 L 1115.92 54.02 L 1114.08 48.92 Z" fill="#d0d0d0" fill-opacity="0.5" stroke="none"/>
<path d="M 1156.25 32.49 L 1158.08 32.49 L 1158.08 35.05 L 1156.25 37.74 Z" fill="#d0d0d0" fill-opacity="0.5" stroke="none"/>
<path d="M 1167.25 25.00 L 1169.08 25.00 L 1169.08 27.84 L 1167.25 30.28 Z" fill="#d0d0d0" fill-opacity="0.5" stroke="none"/>
<polyline fill="none" stroke="#111" stroke-width="1.2" points="74.58,85.60 83.75,83.55 92.92,81.03 102.08,79.06 111.25,76.72 120.42,76.08 129.58,75.99 138.75,73.65 147.92,70.94 157.08,75.76 184.58,74.34 230.42,72.64 257.15,70.95 264.79,69.25 272.43,74.13 280.07,72.12 287.71,70.12 295.35,69.17 302.99,67.04 310.62,71.94 318.26,70.59 325.90,75.46 333.54,74.26 341.18,74.15 348.82,78.98 356.46,76.60 364.10,78.59 371.74,79.65 379.38,78.63 387.01,76.30 394.65,81.11 402.29,85.86 409.93,84.73 417.57,84.34 425.21,89.06 432.85,87.15 459.58,85.17 505.42,83.15 535.97,81.03 551.25,78.48 566.53,76.42 581.81,75.90 597.08,74.41 612.36,79.23 629.17,76.67 647.50,74.64 665.83,72.30 684.17,72.14 702.50,72.52 718.21,69.93 731.31,67.16 744.40,65.65 757.50,63.79 770.60,62.32 783.69,60.41 796.79,58.75 804.33,58.69 806.32,56.05 808.32,55.07 810.31,52.42 812.30,49.81 814.29,47.58 816.29,52.68 818.28,50.62 820.27,48.19 822.26,48.13 824.26,53.22 826.25,51.37 828.24,49.20 830.24,54.27 832.23,53.77 834.22,51.11 836.21,56.17 838.21,55.04 840.20,52.86 842.19,51.76 844.18,49.76 846.18,54.83 848.17,59.85 850.16,58.07 852.16,63.07 854.15,67.98 856.14,65.90 858.13,70.79 860.13,68.72 862.12,73.61 864.11,71.36 866.11,69.23 868.10,74.12 870.09,72.97 872.08,70.95 874.08,70.50 876.07,69.76 878.06,68.04 880.05,66.08 882.05,71.00 884.04,75.87 886.03,73.31 888.03,70.51 890.02,75.31 892.01,80.14 894.00,78.45 895.54,75.92 896.62,75.87 897.70,80.70 898.77,85.44 899.85,82.97 900.93,80.62 902.01,78.12 903.09,75.60 904.17,73.07 905.25,77.92 906.32,75.96 907.40,73.84 908.48,71.94 909.56,69.63 910.64,67.29 911.72,64.99 912.79,66.09 913.87,65.36 914.95,62.79 916.03,61.15 917.11,66.12 918.19,71.01 919.26,75.89 920.34,74.43 921.42,79.28 922.50,84.04 923.58,81.56 924.66,79.07 925.74,79.54 926.81,77.53 927.89,76.36 928.97,81.18 930.05,80.08 931.13,78.24 932.21,76.28 933.28,74.03 934.36,73.99 935.44,71.73 936.52,76.60 937.60,74.10 938.68,78.92 939.75,83.67 940.83,81.33 941.91,78.98 942.99,83.74 944.07,81.58 945.15,79.10 946.23,76.60 947.30,75.97 948.38,73.89 949.46,78.74 950.54,78.30 951.62,76.51 952.70,74.00 953.77,72.08 954.85,76.95 955.93,74.51 957.01,71.99 958.09,76.87 959.17,75.09 960.25,72.76 961.32,70.24 962.40,68.08 963.48,65.54 964.56,70.45 965.64,68.08 966.72,67.69 967.79,72.61 968.87,72.98 969.95,70.62 971.03,68.39 972.11,66.84 973.19,71.76 974.26,76.60 975.34,81.38 976.42,79.32 977.50,78.90 978.58,77.12 979.66,75.93 980.74,80.77 981.81,81.07 982.89,78.68 983.97,83.49 985.05,88.22 986.13,85.88 987.76,85.95 989.94,90.69 992.12,90.46 994.31,88.57 996.49,86.37 998.67,84.82 1000.85,85.33 1003.04,90.07 1005.22,94.76 1007.40,92.64 1009.58,90.21 1011.77,94.90 1013.95,94.70 1016.13,92.22 1018.31,89.79 1020.50,88.74 1022.68,86.72 1024.86,84.27 1027.04,82.01 1029.23,80.78 1031.41,79.42 1033.59,78.05 1035.77,76.02 1037.96,74.19 1040.14,72.36 1042.32,77.24 1044.50,75.03 1046.69,72.52 1048.87,70.22 1051.05,68.38 1053.23,66.04 1055.42,63.68 1057.60,68.61 1059.78,66.34 1061.96,64.59 1064.15,62.56 1066.33,61.13 1068.51,59.40 1070.69,58.84 1072.88,56.25 1075.06,53.65 1077.24,58.67 1079.25,56.91 1081.08,54.32 1082.92,53.10 1084.75,51.68 1086.58,56.72 1088.42,56.83 1090.25,61.86 1092.08,60.64 1093.92,59.20 1095.75,56.83 1097.58,57.43 1099.42,55.04 1101.25,52.96 1103.08,50.33 1104.92,48.13 1106.75,47.50 1108.58,47.00 1110.42,45.97 1112.25,43.77 1114.08,48.92 1115.92,54.02 1117.75,59.06 1119.58,56.49 1121.42,54.44 1123.25,53.34 1125.08,51.95 1126.92,49.79 1128.75,54.87 1130.58,52.76 1132.42,50.09 1134.25,47.98 1136.08,45.65 1137.92,43.96 1139.75,49.11 1141.58,46.74 1143.42,44.04 1145.25,41.51 1147.08,40.10 1148.92,37.82 1150.75,35.51 1152.58,34.32 1154.42,32.49 1156.25,37.74 1158.08,35.05 1159.92,32.29 1161.75,29.79 1163.58,27.79 1165.42,25.00 1167.25,30.28 1169.08,27.84"/>
<text x="15" y="287.5" transform="rotate(-90 15,287.5)" text-anchor="middle" font-family="sans-serif" font-size="12" fill="#333">USD</text>
</svg>