<svg xmlns="http://www.w3.org/2000/svg" width="1200" height="600" viewBox="0 0 1200 600">
<desc>Equity curve with drawdown fill; x-axis is months only (no exact timestamps)</desc>
<text x="600.0" y="18.0" text-anchor="middle" font-family="sans-serif" font-size="14">Portfolio 2016 (UTC)</text>
<rect x="70" y="25" width="1100" height="525" fill="white" stroke="#ccc" />
<line x1="70" y1="550.00" x2="1170" y2="550.00" stroke="#eee"/>
<text x="62" y="554.0" text-anchor="end" font-family="sans-serif" font-size="11" fill="#555">0.00</text>
<line x1="70" y1="445.00" x2="1170" y2="445.00" stroke="#eee"/>
<text x="62" y="449.0" text-anchor="end" font-family="sans-serif" font-size="11" fill="#555">56155</text>
<line x1="70" y1="340.00" x2="1170" y2="340.00" stroke="#eee"/>
<text x="62" y="344.0" text-anchor="end" font-family="sans-serif" font-size="11" fill="#555">112309</text>
<line x1="70" y1="235.00" x2="1170" y2="235.00" stroke="#eee"/>
<text x="62" y="239.0" text-anchor="end" font-family="sans-serif" font-size="11" fill="#555">168464</text>
<line x1="70" y1="130.00" x2="1170" y2="130.00" stroke="#eee"/>
<text x="62" y="134.0" text-anchor="end" font-family="sans-serif" font-size="11" fill="#555">224618</text>
<line x1="70" y1="25.00" x2="1170" y2="25.00" stroke="#eee"/>
<text x="62" y="29.0" text-anchor="end" font-family="sans-serif" font-size="11" fill="#555">280773</text>
<line x1="161.67" y1="25" x2="161.67" y2="550" stroke="#f2f2f2"/>
<line x1="253.33" y1="25" x2="253.33" y2="550" stroke="#f2f2f2"/>
<line x1="345.00" y1="25" x2="345.00" y2="550" stroke="#f2f2f2"/>
<line x1="436.67" y1="25" x2="436.67" y2="550" stroke="#f2f2f2"/>
<line x1="528.33" y1="25" x2="528.33" y2="550" stroke="#f2f2f2"/>
<line x1="620.00" y1="25" x2="620.00" y2="550" stroke="#f2f2f2"/>
<line x1="711.67" y1="25" x2="711.67" y2="550" stroke="#f2f2f2"/>
<line x1="803.33" y1="25" x2="803.33" y2="550" stroke="#f2f2f2"/>
<line x1="895.00" y1="25" x2="895.00" y2="550" stroke="#f2f2f2"/>
<line x1="986.67" y1="25" x2="986.67" y2="550" stroke="#f2f2f2"/>
<line x1="1078.33" y1="25" x2="1078.33" y2="550" stroke="#f2f2f2"/>
<text x="115.83" y="566.00" text-anchor="middle" font-family="sans-serif" font-size="11" fill="#444">Jan</text>
<text x="207.50" y="566.00" text-anchor="middle" font-family="sans-serif" font-size="11" fill="#444">Feb</text>
<text x="299.17" y="566.00" text-anchor="middle" font-family="sans-serif" font-size="11" fill="#444">Mar</text>
<text x="390.83" y="566.00" text-anchor="middle" font-family="sans-serif" font-size="11" fill="#444">Apr</text>
<text x="482.50" y="566.00" text-anchor="middle" font-family="sans-serif" font-size="11" fill="#444">May</text>
<text x="574.17" y="566.00" text-anchor="middle" font-family="sans-serif" font-size="11" fill="#444">Jun</text>
<text x="665.83" y="566.00" text-anchor="middle" font-family="sans-serif" font-size="11" fill="#444">Jul</text>
<text x="757.50" y="566.00" text-anchor="middle" font-family="sans-serif" font-size="11" fill="#444">Aug</text>
<text x="849.17" y="566.00" text-anchor="middle" font-family="sans-serif" font-size="11" fill="#444">Sep</text>
<text x="940.83" y="566.00" text-anchor="middle" font-family="sans-serif" font-size="11" fill="#444">Oct</text>
<text x="1032.50" y="566.00" text-anchor="middle" font-family="sans-serif" font-size="11" fill="#444">Nov</text>
<text x="1124.17" y="566.00" text-anchor="middle" font-family="sans-serif" font-size="11" fill="#444">Dec</text>
<line x1="70" y1="550" x2="1170" y2="550" stroke="#888"/>
<line x1="70" y1="25" x2="70" y2="550" stroke="#888"/>
<line x1="77.64" y1="550.00" x2="77.64" y2="556.00" stroke="#888"/>
<line x1="1162.36"   y1="550.00" x2="1162.36"   y2="556.00" stroke="#888"/>
<text x="77.64" y="582.00" text-anchor="start" font-family="sans-serif" font-size="11" fill="#333">Initial Balance: 249391</text>
<text x="1162.36"   y="582.00" text-anchor="end"   font-family="sans-serif" font-size="11" fill="#333">Ending Balance: 280161</text>
<path d="M 92.92 83.68 L 92.92 84.96 Z" fill="#d0d0d0" fill-opacity="0.5" stroke="none"/>
<path d="M 138.75 80.99 L 138.75 81.90 Z" fill="#d0d0d0" fill-opacity="0.5" stroke="none"/>
<path d="M 595.32 37.75 L 602.37 37.75 L 609.42 37.75 L 609.42 37.94 L 602.37 40.68 L 595.32 42.98 Z" fill="#d0d0d0" fill-opacity="0.5" stroke="none"/>
<path d="M 642.92 35.00 L 688.75 35.00 L 688.75 37.52 L 642.92 40.26 Z" fill="#d0d0d0" fill-opacity="0.5" stroke="none"/>
<path d="M 788.06 34.45 L 849.17 34.45 L 849.17 36.97 L 788.06 39.72 Z" fill="#d0d0d0" fill-opacity="0.5" stroke="none"/>
<path d="M 990.19 28.12 L 997.24 28.12 L 1004.29 28.12 L 1004.29 29.64 L 997.24 30.51 L 990.19 33.45 Z" fill="#d0d0d0" fill-opacity="0.5" stroke="none"/>
<path d="M 1018.40 27.01 L 1025.45 27.01 L 1032.50 27.01 L 1039.55 27.01 L 1039.55 27.01 L 1032.50 29.15 L 1025.45 31.67 L 1018.40 32.29 Z" fill="#d0d0d0" fill-opacity="0.5" stroke="none"/>
<path d="M 1053.65 25.00 L 1060.71 25.00 L 1067.76 25.00 L 1074.81 25.00 L 1085.97 25.00 L 1101.25 25.00 L 1116.53 25.00 L 1131.81 25.00 L 1147.08 25.00 L 1162.36 25.00 L 1162.36 26.14 L 1147.08 28.70 L 1131.81 29.89 L 1116.53 31.06 L 1101.25 25.70 L 1085.97 25.84 L 1074.81 27.32 L 1067.76 28.40 L 1060.71 30.58 L 1053.65 30.36 Z" fill="#d0d0d0" fill-opacity="0.5" stroke="none"/>
<polyline fill="none" stroke="#111" stroke-width="1.2" points="77.64,83.68 92.92,84.96 108.19,83.24 123.47,80.99 138.75,81.90 154.03,79.38 173.12,77.39 196.04,76.23 218.96,73.74 241.88,71.17 268.61,68.59 299.17,65.86 329.72,63.24 367.92,60.61 413.75,57.79 482.50,55.13 531.86,55.04 538.91,53.24 545.96,51.14 553.01,48.73 560.06,45.76 567.12,43.39 574.17,40.68 581.22,37.84 588.27,37.75 595.32,42.98 602.37,40.68 609.42,37.94 616.47,35.00 642.92,40.26 688.75,37.52 726.94,34.76 757.50,34.45 788.06,39.72 849.17,36.97 906.46,34.21 929.38,31.67 952.29,29.09 975.21,28.12 990.19,33.45 997.24,30.51 1004.29,29.64 1011.35,27.01 1018.40,32.29 1025.45,31.67 1032.50,29.15 1039.55,27.01 1046.60,25.00 1053.65,30.36 1060.71,30.58 1067.76,28.40 1074.81,27.32 1085.97,25.84 1101.25,25.70 1116.53,31.06 1131.81,29.89 1147.08,28.70 1162.36,26.14"/>
<text x="620.0" y="588" text-anchor="middle" font-family="sans-serif" font-size="12" fill="#333">Monthly Balance Curve</text>
<text x="15" y="287.5" transform="rotate(-90 15,287.5)" text-anchor="middle" font-family="sans-serif" font-size="12" fill="#333">Capital</text>
</svg>