<svg xmlns="http://www.w3.org/2000/svg" width="1200" height="600" viewBox="0 0 1200 600">
<desc>Equity curve with drawdown fill; x-axis is months only (no exact timestamps)</desc>
<text x="600.0" y="18.0" text-anchor="middle" font-family="sans-serif" font-size="14">Balance Curve 2020 (UTC)</text>
<rect x="70" y="25" width="1100" height="525" fill="white" stroke="#ccc" />
<line x1="70" y1="550.00" x2="1170" y2="550.00" stroke="#eee"/>
<text x="62" y="554.0" text-anchor="end" font-family="sans-serif" font-size="11" fill="#555">0.00</text>
<line x1="70" y1="445.00" x2="1170" y2="445.00" stroke="#eee"/>
<text x="62" y="449.0" text-anchor="end" font-family="sans-serif" font-size="11" fill="#555">230930</text>
<line x1="70" y1="340.00" x2="1170" y2="340.00" stroke="#eee"/>
<text x="62" y="344.0" text-anchor="end" font-family="sans-serif" font-size="11" fill="#555">461859</text>
<line x1="70" y1="235.00" x2="1170" y2="235.00" stroke="#eee"/>
<text x="62" y="239.0" text-anchor="end" font-family="sans-serif" font-size="11" fill="#555">692789</text>
<line x1="70" y1="130.00" x2="1170" y2="130.00" stroke="#eee"/>
<text x="62" y="134.0" text-anchor="end" font-family="sans-serif" font-size="11" fill="#555">923719</text>
<line x1="70" y1="25.00" x2="1170" y2="25.00" stroke="#eee"/>
<text x="62" y="29.0" text-anchor="end" font-family="sans-serif" font-size="11" fill="#555">1154649</text>
<line x1="180.00" y1="25" x2="180.00" y2="550" stroke="#f2f2f2"/>
<line x1="290.00" y1="25" x2="290.00" y2="550" stroke="#f2f2f2"/>
<line x1="400.00" y1="25" x2="400.00" y2="550" stroke="#f2f2f2"/>
<line x1="510.00" y1="25" x2="510.00" y2="550" stroke="#f2f2f2"/>
<line x1="620.00" y1="25" x2="620.00" y2="550" stroke="#f2f2f2"/>
<line x1="730.00" y1="25" x2="730.00" y2="550" stroke="#f2f2f2"/>
<line x1="840.00" y1="25" x2="840.00" y2="550" stroke="#f2f2f2"/>
<line x1="950.00" y1="25" x2="950.00" y2="550" stroke="#f2f2f2"/>
<line x1="1060.00" y1="25" x2="1060.00" y2="550" stroke="#f2f2f2"/>
<text x="125.00" y="566.00" text-anchor="middle" font-family="sans-serif" font-size="11" fill="#444">Jan</text>
<text x="235.00" y="566.00" text-anchor="middle" font-family="sans-serif" font-size="11" fill="#444">Mar</text>
<text x="345.00" y="566.00" text-anchor="middle" font-family="sans-serif" font-size="11" fill="#444">Apr</text>
<text x="455.00" y="566.00" text-anchor="middle" font-family="sans-serif" font-size="11" fill="#444">May</text>
<text x="565.00" y="566.00" text-anchor="middle" font-family="sans-serif" font-size="11" fill="#444">Jun</text>
<text x="675.00" y="566.00" text-anchor="middle" font-family="sans-serif" font-size="11" fill="#444">Jul</text>
<text x="785.00" y="566.00" text-anchor="middle" font-family="sans-serif" font-size="11" fill="#444">Aug</text>
<text x="895.00" y="566.00" text-anchor="middle" font-family="sans-serif" font-size="11" fill="#444">Sep</text>
<text x="1005.00" y="566.00" text-anchor="middle" font-family="sans-serif" font-size="11" fill="#444">Nov</text>
<text x="1115.00" y="566.00" text-anchor="middle" font-family="sans-serif" font-size="11" fill="#444">Dec</text>
<line x1="70" y1="550" x2="1170" y2="550" stroke="#888"/>
<line x1="70" y1="25" x2="70" y2="550" stroke="#888"/>
<line x1="125.00" y1="550.00" x2="125.00" y2="556.00" stroke="#888"/>
<line x1="1115.00"   y1="550.00" x2="1115.00"   y2="556.00" stroke="#888"/>
<text x="125.00" y="582.00" text-anchor="start" font-family="sans-serif" font-size="11" fill="#333">Initial Balance: 1031914</text>
<text x="1115.00"   y="582.00" text-anchor="end"   font-family="sans-serif" font-size="11" fill="#333">Ending Balance: 1154649</text>
<path d="M 188.19 74.16 L 190.53 74.16 L 190.53 76.21 L 188.19 78.96 Z" fill="#d0d0d0" fill-opacity="0.5" stroke="none"/>
<path d="M 206.91 63.99 L 206.91 64.87 Z" fill="#d0d0d0" fill-opacity="0.5" stroke="none"/>
<path d="M 225.64 51.83 L 225.64 52.31 Z" fill="#d0d0d0" fill-opacity="0.5" stroke="none"/>
<path d="M 230.32 50.63 L 232.66 50.63 L 235.00 50.63 L 235.00 50.99 L 232.66 53.36 L 230.32 55.72 Z" fill="#d0d0d0" fill-opacity="0.5" stroke="none"/>
<path d="M 239.68 48.60 L 242.02 48.60 L 244.36 48.60 L 246.70 48.60 L 249.04 48.60 L 251.38 48.60 L 253.72 48.60 L 256.06 48.60 L 258.40 48.60 L 260.74 48.60 L 263.09 48.60 L 265.43 48.60 L 267.77 48.60 L 270.11 48.60 L 272.45 48.60 L 274.79 48.60 L 277.13 48.60 L 279.47 48.60 L 281.81 48.60 L 284.15 48.60 L 286.49 48.60 L 288.83 48.60 L 308.33 48.60 L 345.00 48.60 L 345.00 49.22 L 308.33 50.69 L 288.83 51.24 L 286.49 53.17 L 284.15 55.49 L 281.81 56.78 L 279.47 58.52 L 277.13 60.49 L 274.79 62.51 L 272.45 63.29 L 270.11 65.24 L 267.77 67.14 L 265.43 69.64 L 263.09 64.68 L 260.74 59.68 L 258.40 60.69 L 256.06 55.69 L 253.72 56.93 L 251.38 59.21 L 249.04 54.15 L 246.70 56.67 L 244.36 51.59 L 242.02 54.12 L 239.68 53.71 Z" fill="#d0d0d0" fill-opacity="0.5" stroke="none"/>
<path d="M 565.00 40.91 L 565.00 41.86 Z" fill="#d0d0d0" fill-opacity="0.5" stroke="none"/>
<path d="M 1005.00 26.56 L 1005.00 27.10 Z" fill="#d0d0d0" fill-opacity="0.5" stroke="none"/>
<polyline fill="none" stroke="#111" stroke-width="1.2" points="125.00,80.81 181.17,78.69 183.51,76.79 185.85,74.16 188.19,78.96 190.53,76.21 192.87,73.99 195.21,72.54 197.55,70.07 199.89,68.50 202.23,66.48 204.57,63.99 206.91,64.87 209.26,63.58 211.60,61.08 213.94,60.58 216.28,58.43 218.62,55.91 220.96,53.37 223.30,51.83 225.64,52.31 227.98,50.63 230.32,55.72 232.66,53.36 235.00,50.99 237.34,48.60 239.68,53.71 242.02,54.12 244.36,51.59 246.70,56.67 249.04,54.15 251.38,59.21 253.72,56.93 256.06,55.69 258.40,60.69 260.74,59.68 263.09,64.68 265.43,69.64 267.77,67.14 270.11,65.24 272.45,63.29 274.79,62.51 277.13,60.49 279.47,58.52 281.81,56.78 284.15,55.49 286.49,53.17 288.83,51.24 308.33,50.69 345.00,49.22 381.67,48.12 427.50,45.87 482.50,43.53 528.33,40.91 565.00,41.86 601.67,39.93 647.50,38.70 702.50,37.00 757.50,35.48 812.50,33.93 867.50,31.48 922.50,29.08 968.33,26.56 1005.00,27.10 1041.67,25.33 1115.00,25.00"/>
<text x="15" y="287.5" transform="rotate(-90 15,287.5)" text-anchor="middle" font-family="sans-serif" font-size="12" fill="#333">USD</text>
</svg>