<svg xmlns="http://www.w3.org/2000/svg" width="1200" height="600" viewBox="0 0 1200 600">
<desc>Equity curve with drawdown fill; x-axis is months only (no exact timestamps)</desc>
<text x="600.0" y="18.0" text-anchor="middle" font-family="sans-serif" font-size="14">Balance Curve 2011 (UTC)</text>
<rect x="70" y="25" width="1100" height="525" fill="white" stroke="#ccc" />
<line x1="70" y1="550.00" x2="1170" y2="550.00" stroke="#eee"/>
<text x="62" y="554.0" text-anchor="end" font-family="sans-serif" font-size="11" fill="#555">0.00</text>
<line x1="70" y1="445.00" x2="1170" y2="445.00" stroke="#eee"/>
<text x="62" y="449.0" text-anchor="end" font-family="sans-serif" font-size="11" fill="#555">218941</text>
<line x1="70" y1="340.00" x2="1170" y2="340.00" stroke="#eee"/>
<text x="62" y="344.0" text-anchor="end" font-family="sans-serif" font-size="11" fill="#555">437883</text>
<line x1="70" y1="235.00" x2="1170" y2="235.00" stroke="#eee"/>
<text x="62" y="239.0" text-anchor="end" font-family="sans-serif" font-size="11" fill="#555">656824</text>
<line x1="70" y1="130.00" x2="1170" y2="130.00" stroke="#eee"/>
<text x="62" y="134.0" text-anchor="end" font-family="sans-serif" font-size="11" fill="#555">875766</text>
<line x1="70" y1="25.00" x2="1170" y2="25.00" stroke="#eee"/>
<text x="62" y="29.0" text-anchor="end" font-family="sans-serif" font-size="11" fill="#555">1094707</text>
<line x1="161.67" y1="25" x2="161.67" y2="550" stroke="#f2f2f2"/>
<line x1="253.33" y1="25" x2="253.33" y2="550" stroke="#f2f2f2"/>
<line x1="345.00" y1="25" x2="345.00" y2="550" stroke="#f2f2f2"/>
<line x1="436.67" y1="25" x2="436.67" y2="550" stroke="#f2f2f2"/>
<line x1="528.33" y1="25" x2="528.33" y2="550" stroke="#f2f2f2"/>
<line x1="620.00" y1="25" x2="620.00" y2="550" stroke="#f2f2f2"/>
<line x1="711.67" y1="25" x2="711.67" y2="550" stroke="#f2f2f2"/>
<line x1="803.33" y1="25" x2="803.33" y2="550" stroke="#f2f2f2"/>
<line x1="895.00" y1="25" x2="895.00" y2="550" stroke="#f2f2f2"/>
<line x1="986.67" y1="25" x2="986.67" y2="550" stroke="#f2f2f2"/>
<line x1="1078.33" y1="25" x2="1078.33" y2="550" stroke="#f2f2f2"/>
<text x="115.83" y="566.00" text-anchor="middle" font-family="sans-serif" font-size="11" fill="#444">Jan</text>
<text x="207.50" y="566.00" text-anchor="middle" font-family="sans-serif" font-size="11" fill="#444">Feb</text>
<text x="299.17" y="566.00" text-anchor="middle" font-family="sans-serif" font-size="11" fill="#444">Mar</text>
<text x="390.83" y="566.00" text-anchor="middle" font-family="sans-serif" font-size="11" fill="#444">Apr</text>
<text x="482.50" y="566.00" text-anchor="middle" font-family="sans-serif" font-size="11" fill="#444">May</text>
<text x="574.17" y="566.00" text-anchor="middle" font-family="sans-serif" font-size="11" fill="#444">Jun</text>
<text x="665.83" y="566.00" text-anchor="middle" font-family="sans-serif" font-size="11" fill="#444">Jul</text>
<text x="757.50" y="566.00" text-anchor="middle" font-family="sans-serif" font-size="11" fill="#444">Aug</text>
<text x="849.17" y="566.00" text-anchor="middle" font-family="sans-serif" font-size="11" fill="#444">Sep</text>
<text x="940.83" y="566.00" text-anchor="middle" font-family="sans-serif" font-size="11" fill="#444">Oct</text>
<text x="1032.50" y="566.00" text-anchor="middle" font-family="sans-serif" font-size="11" fill="#444">Nov</text>
<text x="1124.17" y="566.00" text-anchor="middle" font-family="sans-serif" font-size="11" fill="#444">Dec</text>
<line x1="70" y1="550" x2="1170" y2="550" stroke="#888"/>
<line x1="70" y1="25" x2="70" y2="550" stroke="#888"/>
<line x1="74.17" y1="550.00" x2="74.17" y2="556.00" stroke="#888"/>
<line x1="1154.72"   y1="550.00" x2="1154.72"   y2="556.00" stroke="#888"/>
<text x="74.17" y="582.00" text-anchor="start" font-family="sans-serif" font-size="11" fill="#333">Initial Balance: 1000000</text>
<text x="1154.72"   y="582.00" text-anchor="end"   font-family="sans-serif" font-size="11" fill="#333">Ending Balance: 1071547</text>
<path d="M 90.83 68.92 L 90.83 69.01 Z" fill="#d0d0d0" fill-opacity="0.5" stroke="none"/>
<path d="M 189.17 48.55 L 207.50 48.55 L 207.50 49.62 L 189.17 50.42 Z" fill="#d0d0d0" fill-opacity="0.5" stroke="none"/>
<path d="M 244.17 47.62 L 259.06 47.62 L 270.52 47.62 L 270.52 48.71 L 259.06 50.06 L 244.17 52.72 Z" fill="#d0d0d0" fill-opacity="0.5" stroke="none"/>
<path d="M 293.44 47.53 L 293.44 48.45 Z" fill="#d0d0d0" fill-opacity="0.5" stroke="none"/>
<path d="M 327.81 46.04 L 327.81 46.82 Z" fill="#d0d0d0" fill-opacity="0.5" stroke="none"/>
<path d="M 356.46 45.13 L 379.38 45.13 L 402.29 45.13 L 425.21 45.13 L 439.36 45.13 L 444.75 45.13 L 450.15 45.13 L 455.54 45.13 L 460.93 45.13 L 466.32 45.13 L 471.72 45.13 L 477.11 45.13 L 482.50 45.13 L 487.89 45.13 L 493.28 45.13 L 498.68 45.13 L 504.07 45.13 L 509.46 45.13 L 514.85 45.13 L 520.25 45.13 L 525.64 45.13 L 532.15 45.13 L 539.79 45.13 L 547.43 45.13 L 555.07 45.13 L 562.71 45.13 L 570.35 45.13 L 577.99 45.13 L 585.62 45.13 L 593.26 45.13 L 600.90 45.13 L 608.54 45.13 L 616.18 45.13 L 616.18 46.71 L 608.54 49.40 L 600.90 51.22 L 593.26 52.05 L 585.62 52.51 L 577.99 55.17 L 570.35 55.61 L 562.71 58.23 L 555.07 60.86 L 547.43 55.84 L 539.79 56.87 L 532.15 58.51 L 525.64 56.44 L 520.25 57.63 L 514.85 58.98 L 509.46 53.94 L 504.07 54.97 L 498.68 52.78 L 493.28 54.04 L 487.89 56.20 L 482.50 57.56 L 477.11 58.20 L 471.72 59.62 L 466.32 54.59 L 460.93 49.51 L 455.54 51.09 L 450.15 53.76 L 444.75 48.70 L 439.36 51.39 L 425.21 51.88 L 402.29 53.72 L 379.38 48.63 L 356.46 50.26 Z" fill="#d0d0d0" fill-opacity="0.5" stroke="none"/>
<path d="M 690.28 25.51 L 696.39 25.51 L 702.50 25.51 L 708.61 25.51 L 714.21 25.51 L 719.31 25.51 L 724.40 25.51 L 729.49 25.51 L 734.58 25.51 L 734.58 27.47 L 729.49 30.26 L 724.40 32.41 L 719.31 34.63 L 714.21 36.36 L 708.61 38.53 L 702.50 33.29 L 696.39 28.00 L 690.28 30.79 Z" fill="#d0d0d0" fill-opacity="0.5" stroke="none"/>
<path d="M 744.77 25.00 L 749.86 25.00 L 754.95 25.00 L 760.05 25.00 L 765.14 25.00 L 770.23 25.00 L 775.32 25.00 L 780.42 25.00 L 785.51 25.00 L 790.60 25.00 L 795.69 25.00 L 800.79 25.00 L 805.88 25.00 L 810.97 25.00 L 816.06 25.00 L 821.16 25.00 L 826.25 25.00 L 831.34 25.00 L 836.44 25.00 L 841.53 25.00 L 846.62 25.00 L 851.71 25.00 L 856.81 25.00 L 861.90 25.00 L 866.99 25.00 L 872.08 25.00 L 877.18 25.00 L 882.27 25.00 L 887.36 25.00 L 892.45 25.00 L 897.41 25.00 L 902.24 25.00 L 907.06 25.00 L 911.89 25.00 L 916.71 25.00 L 921.54 25.00 L 926.36 25.00 L 931.18 25.00 L 936.01 25.00 L 940.83 25.00 L 945.66 25.00 L 950.48 25.00 L 955.31 25.00 L 960.13 25.00 L 964.96 25.00 L 969.78 25.00 L 974.61 25.00 L 979.43 25.00 L 984.25 25.00 L 989.21 25.00 L 994.31 25.00 L 999.40 25.00 L 1004.49 25.00 L 1009.58 25.00 L 1014.68 25.00 L 1019.77 25.00 L 1024.86 25.00 L 1029.95 25.00 L 1035.05 25.00 L 1040.14 25.00 L 1045.23 25.00 L 1050.32 25.00 L 1055.42 25.00 L 1060.51 25.00 L 1065.60 25.00 L 1070.69 25.00 L 1075.79 25.00 L 1093.61 25.00 L 1124.17 25.00 L 1154.72 25.00 L 1154.72 36.11 L 1124.17 38.55 L 1093.61 40.00 L 1075.79 39.93 L 1070.69 40.67 L 1065.60 42.87 L 1060.51 45.31 L 1055.42 40.13 L 1050.32 38.57 L 1045.23 40.51 L 1040.14 42.40 L 1035.05 37.19 L 1029.95 37.11 L 1024.86 37.20 L 1019.77 39.17 L 1014.68 39.69 L 1009.58 42.20 L 1004.49 44.05 L 999.40 38.86 L 994.31 39.90 L 989.21 41.78 L 984.25 36.57 L 979.43 37.57 L 974.61 39.09 L 969.78 41.33 L 964.96 44.04 L 960.13 46.73 L 955.31 45.52 L 950.48 47.32 L 945.66 49.99 L 940.83 49.08 L 936.01 43.94 L 931.18 38.75 L 926.36 40.85 L 921.54 43.30 L 916.71 45.16 L 911.89 46.09 L 907.06 40.92 L 902.24 43.62 L 897.41 46.22 L 892.45 48.09 L 887.36 46.98 L 882.27 48.38 L 877.18 43.23 L 872.08 44.17 L 866.99 38.98 L 861.90 38.51 L 856.81 33.26 L 851.71 34.60 L 846.62 37.33 L 841.53 38.75 L 836.44 41.46 L 831.34 43.75 L 826.25 45.84 L 821.16 45.92 L 816.06 48.01 L 810.97 50.33 L 805.88 45.21 L 800.79 40.03 L 795.69 42.76 L 790.60 37.56 L 785.51 32.31 L 780.42 34.35 L 775.32 37.09 L 770.23 31.84 L 765.14 31.63 L 760.05 30.71 L 754.95 25.40 L 749.86 28.18 L 744.77 30.32 Z" fill="#d0d0d0" fill-opacity="0.5" stroke="none"/>
<polyline fill="none" stroke="#111" stroke-width="1.2" points="74.17,70.42 82.50,68.92 90.83,69.01 99.17,66.46 107.50,65.23 115.83,62.88 124.17,60.48 132.50,58.37 140.83,55.98 149.17,53.36 157.50,50.71 170.83,48.55 189.17,50.42 207.50,49.62 225.83,47.62 244.17,52.72 259.06,50.06 270.52,48.71 281.98,47.53 293.44,48.45 304.90,46.85 316.35,46.04 327.81,46.82 339.27,45.13 356.46,50.26 379.38,48.63 402.29,53.72 425.21,51.88 439.36,51.39 444.75,48.70 450.15,53.76 455.54,51.09 460.93,49.51 466.32,54.59 471.72,59.62 477.11,58.20 482.50,57.56 487.89,56.20 493.28,54.04 498.68,52.78 504.07,54.97 509.46,53.94 514.85,58.98 520.25,57.63 525.64,56.44 532.15,58.51 539.79,56.87 547.43,55.84 555.07,60.86 562.71,58.23 570.35,55.61 577.99,55.17 585.62,52.51 593.26,52.05 600.90,51.22 608.54,49.40 616.18,46.71 623.06,44.25 629.17,44.11 635.28,41.40 641.39,39.92 647.50,37.19 653.61,34.61 659.72,34.35 665.83,32.10 671.94,30.11 678.06,28.30 684.17,25.51 690.28,30.79 696.39,28.00 702.50,33.29 708.61,38.53 714.21,36.36 719.31,34.63 724.40,32.41 729.49,30.26 734.58,27.47 739.68,25.00 744.77,30.32 749.86,28.18 754.95,25.40 760.05,30.71 765.14,31.63 770.23,31.84 775.32,37.09 780.42,34.35 785.51,32.31 790.60,37.56 795.69,42.76 800.79,40.03 805.88,45.21 810.97,50.33 816.06,48.01 821.16,45.92 826.25,45.84 831.34,43.75 836.44,41.46 841.53,38.75 846.62,37.33 851.71,34.60 856.81,33.26 861.90,38.51 866.99,38.98 872.08,44.17 877.18,43.23 882.27,48.38 887.36,46.98 892.45,48.09 897.41,46.22 902.24,43.62 907.06,40.92 911.89,46.09 916.71,45.16 921.54,43.30 926.36,40.85 931.18,38.75 936.01,43.94 940.83,49.08 945.66,49.99 950.48,47.32 955.31,45.52 960.13,46.73 964.96,44.04 969.78,41.33 974.61,39.09 979.43,37.57 984.25,36.57 989.21,41.78 994.31,39.90 999.40,38.86 1004.49,44.05 1009.58,42.20 1014.68,39.69 1019.77,39.17 1024.86,37.20 1029.95,37.11 1035.05,37.19 1040.14,42.40 1045.23,40.51 1050.32,38.57 1055.42,40.13 1060.51,45.31 1065.60,42.87 1070.69,40.67 1075.79,39.93 1093.61,40.00 1124.17,38.55 1154.72,36.11"/>
<text x="15" y="287.5" transform="rotate(-90 15,287.5)" text-anchor="middle" font-family="sans-serif" font-size="12" fill="#333">USD</text>
</svg>