<svg xmlns="http://www.w3.org/2000/svg" width="1200" height="600" viewBox="0 0 1200 600">
<desc>Equity curve with drawdown fill; x-axis is months only (no exact timestamps)</desc>
<text x="600.0" y="18.0" text-anchor="middle" font-family="sans-serif" font-size="14">Portfolio 2025 (UTC)</text>
<rect x="70" y="25" width="1100" height="525" fill="white" stroke="#ccc" />
<line x1="70" y1="550.00" x2="1170" y2="550.00" stroke="#eee"/>
<text x="62" y="554.0" text-anchor="end" font-family="sans-serif" font-size="11" fill="#555">0.00</text>
<line x1="70" y1="445.00" x2="1170" y2="445.00" stroke="#eee"/>
<text x="62" y="449.0" text-anchor="end" font-family="sans-serif" font-size="11" fill="#555">226907</text>
<line x1="70" y1="340.00" x2="1170" y2="340.00" stroke="#eee"/>
<text x="62" y="344.0" text-anchor="end" font-family="sans-serif" font-size="11" fill="#555">453815</text>
<line x1="70" y1="235.00" x2="1170" y2="235.00" stroke="#eee"/>
<text x="62" y="239.0" text-anchor="end" font-family="sans-serif" font-size="11" fill="#555">680722</text>
<line x1="70" y1="130.00" x2="1170" y2="130.00" stroke="#eee"/>
<text x="62" y="134.0" text-anchor="end" font-family="sans-serif" font-size="11" fill="#555">907630</text>
<line x1="70" y1="25.00" x2="1170" y2="25.00" stroke="#eee"/>
<text x="62" y="29.0" text-anchor="end" font-family="sans-serif" font-size="11" fill="#555">1134537</text>
<line x1="207.50" y1="25" x2="207.50" y2="550" stroke="#f2f2f2"/>
<line x1="345.00" y1="25" x2="345.00" y2="550" stroke="#f2f2f2"/>
<line x1="482.50" y1="25" x2="482.50" y2="550" stroke="#f2f2f2"/>
<line x1="620.00" y1="25" x2="620.00" y2="550" stroke="#f2f2f2"/>
<line x1="757.50" y1="25" x2="757.50" y2="550" stroke="#f2f2f2"/>
<line x1="895.00" y1="25" x2="895.00" y2="550" stroke="#f2f2f2"/>
<line x1="1032.50" y1="25" x2="1032.50" y2="550" stroke="#f2f2f2"/>
<text x="138.75" y="566.00" text-anchor="middle" font-family="sans-serif" font-size="11" fill="#444">Jan</text>
<text x="276.25" y="566.00" text-anchor="middle" font-family="sans-serif" font-size="11" fill="#444">Feb</text>
<text x="413.75" y="566.00" text-anchor="middle" font-family="sans-serif" font-size="11" fill="#444">Mar</text>
<text x="551.25" y="566.00" text-anchor="middle" font-family="sans-serif" font-size="11" fill="#444">Apr</text>
<text x="688.75" y="566.00" text-anchor="middle" font-family="sans-serif" font-size="11" fill="#444">May</text>
<text x="826.25" y="566.00" text-anchor="middle" font-family="sans-serif" font-size="11" fill="#444">Jun</text>
<text x="963.75" y="566.00" text-anchor="middle" font-family="sans-serif" font-size="11" fill="#444">Jul</text>
<text x="1101.25" y="566.00" text-anchor="middle" font-family="sans-serif" font-size="11" fill="#444">Aug</text>
<line x1="70" y1="550" x2="1170" y2="550" stroke="#888"/>
<line x1="70" y1="25" x2="70" y2="550" stroke="#888"/>
<line x1="75.73" y1="550.00" x2="75.73" y2="556.00" stroke="#888"/>
<line x1="1135.62"   y1="550.00" x2="1135.62"   y2="556.00" stroke="#888"/>
<text x="75.73" y="582.00" text-anchor="start" font-family="sans-serif" font-size="11" fill="#333">Initial Balance: 1047408</text>
<text x="1135.62"   y="582.00" text-anchor="end"   font-family="sans-serif" font-size="11" fill="#333">Ending Balance: 1102412</text>
<path d="M 98.65 62.92 L 110.10 62.92 L 121.56 62.92 L 133.02 62.92 L 133.02 65.85 L 121.56 67.55 L 110.10 70.68 L 98.65 70.36 Z" fill="#d0d0d0" fill-opacity="0.5" stroke="none"/>
<path d="M 356.46 34.54 L 379.38 34.54 L 402.29 34.54 L 402.29 35.39 L 379.38 38.69 L 356.46 42.40 Z" fill="#d0d0d0" fill-opacity="0.5" stroke="none"/>
<path d="M 485.94 27.33 L 492.81 27.33 L 499.69 27.33 L 506.56 27.33 L 513.44 27.33 L 520.31 27.33 L 527.19 27.33 L 534.06 27.33 L 540.94 27.33 L 547.81 27.33 L 547.81 31.77 L 540.94 34.59 L 534.06 34.90 L 527.19 37.32 L 520.31 38.59 L 513.44 35.73 L 506.56 27.94 L 499.69 32.50 L 492.81 32.69 L 485.94 35.29 Z" fill="#d0d0d0" fill-opacity="0.5" stroke="none"/>
<path d="M 568.44 25.00 L 575.31 25.00 L 582.19 25.00 L 589.06 25.00 L 595.94 25.00 L 602.81 25.00 L 609.69 25.00 L 616.56 25.00 L 633.75 25.00 L 661.25 25.00 L 688.75 25.00 L 716.25 25.00 L 743.75 25.00 L 780.42 25.00 L 826.25 25.00 L 872.08 25.00 L 908.75 25.00 L 936.25 25.00 L 963.75 25.00 L 991.25 25.00 L 1018.75 25.00 L 1066.88 25.00 L 1135.62 25.00 L 1135.62 39.87 L 1066.88 43.08 L 1018.75 46.53 L 991.25 38.74 L 963.75 42.07 L 936.25 45.54 L 908.75 37.85 L 872.08 42.22 L 826.25 46.02 L 780.42 49.28 L 743.75 52.99 L 716.25 45.29 L 688.75 48.92 L 661.25 41.17 L 633.75 45.03 L 616.56 37.22 L 609.69 38.30 L 602.81 30.39 L 595.94 32.43 L 589.06 36.31 L 582.19 36.20 L 575.31 28.43 L 568.44 32.99 Z" fill="#d0d0d0" fill-opacity="0.5" stroke="none"/>
<polyline fill="none" stroke="#111" stroke-width="1.2" points="75.73,65.32 87.19,62.92 98.65,70.36 110.10,70.68 121.56,67.55 133.02,65.85 144.48,61.91 155.94,58.50 167.40,54.50 178.85,50.46 190.31,49.00 201.77,45.35 230.42,42.36 276.25,38.66 322.08,34.54 356.46,42.40 379.38,38.69 402.29,35.39 425.21,32.39 448.12,30.21 471.04,27.33 485.94,35.29 492.81,32.69 499.69,32.50 506.56,27.94 513.44,35.73 520.31,38.59 527.19,37.32 534.06,34.90 540.94,34.59 547.81,31.77 554.69,27.27 561.56,25.00 568.44,32.99 575.31,28.43 582.19,36.20 589.06,36.31 595.94,32.43 602.81,30.39 609.69,38.30 616.56,37.22 633.75,45.03 661.25,41.17 688.75,48.92 716.25,45.29 743.75,52.99 780.42,49.28 826.25,46.02 872.08,42.22 908.75,37.85 936.25,45.54 963.75,42.07 991.25,38.74 1018.75,46.53 1066.88,43.08 1135.62,39.87"/>
<text x="620.0" y="588" text-anchor="middle" font-family="sans-serif" font-size="12" fill="#333">Monthly Balance Curve</text>
<text x="15" y="287.5" transform="rotate(-90 15,287.5)" text-anchor="middle" font-family="sans-serif" font-size="12" fill="#333">Capital</text>
</svg>