<svg xmlns="http://www.w3.org/2000/svg" width="1200" height="600" viewBox="0 0 1200 600">
<desc>Equity curve with drawdown fill; x-axis is months only (no exact timestamps)</desc>
<text x="600.0" y="18.0" text-anchor="middle" font-family="sans-serif" font-size="14">Portfolio 2010 (UTC)</text>
<rect x="70" y="25" width="1100" height="525" fill="white" stroke="#ccc" />
<line x1="70" y1="550.00" x2="1170" y2="550.00" stroke="#eee"/>
<text x="62" y="554.0" text-anchor="end" font-family="sans-serif" font-size="11" fill="#555">0.00</text>
<line x1="70" y1="445.00" x2="1170" y2="445.00" stroke="#eee"/>
<text x="62" y="449.0" text-anchor="end" font-family="sans-serif" font-size="11" fill="#555">30538</text>
<line x1="70" y1="340.00" x2="1170" y2="340.00" stroke="#eee"/>
<text x="62" y="344.0" text-anchor="end" font-family="sans-serif" font-size="11" fill="#555">61076</text>
<line x1="70" y1="235.00" x2="1170" y2="235.00" stroke="#eee"/>
<text x="62" y="239.0" text-anchor="end" font-family="sans-serif" font-size="11" fill="#555">91614</text>
<line x1="70" y1="130.00" x2="1170" y2="130.00" stroke="#eee"/>
<text x="62" y="134.0" text-anchor="end" font-family="sans-serif" font-size="11" fill="#555">122152</text>
<line x1="70" y1="25.00" x2="1170" y2="25.00" stroke="#eee"/>
<text x="62" y="29.0" text-anchor="end" font-family="sans-serif" font-size="11" fill="#555">152690</text>
<line x1="161.67" y1="25" x2="161.67" y2="550" stroke="#f2f2f2"/>
<line x1="253.33" y1="25" x2="253.33" y2="550" stroke="#f2f2f2"/>
<line x1="345.00" y1="25" x2="345.00" y2="550" stroke="#f2f2f2"/>
<line x1="436.67" y1="25" x2="436.67" y2="550" stroke="#f2f2f2"/>
<line x1="528.33" y1="25" x2="528.33" y2="550" stroke="#f2f2f2"/>
<line x1="620.00" y1="25" x2="620.00" y2="550" stroke="#f2f2f2"/>
<line x1="711.67" y1="25" x2="711.67" y2="550" stroke="#f2f2f2"/>
<line x1="803.33" y1="25" x2="803.33" y2="550" stroke="#f2f2f2"/>
<line x1="895.00" y1="25" x2="895.00" y2="550" stroke="#f2f2f2"/>
<line x1="986.67" y1="25" x2="986.67" y2="550" stroke="#f2f2f2"/>
<line x1="1078.33" y1="25" x2="1078.33" y2="550" stroke="#f2f2f2"/>
<text x="115.83" y="566.00" text-anchor="middle" font-family="sans-serif" font-size="11" fill="#444">Jan</text>
<text x="207.50" y="566.00" text-anchor="middle" font-family="sans-serif" font-size="11" fill="#444">Feb</text>
<text x="299.17" y="566.00" text-anchor="middle" font-family="sans-serif" font-size="11" fill="#444">Mar</text>
<text x="390.83" y="566.00" text-anchor="middle" font-family="sans-serif" font-size="11" fill="#444">Apr</text>
<text x="482.50" y="566.00" text-anchor="middle" font-family="sans-serif" font-size="11" fill="#444">May</text>
<text x="574.17" y="566.00" text-anchor="middle" font-family="sans-serif" font-size="11" fill="#444">Jun</text>
<text x="665.83" y="566.00" text-anchor="middle" font-family="sans-serif" font-size="11" fill="#444">Jul</text>
<text x="757.50" y="566.00" text-anchor="middle" font-family="sans-serif" font-size="11" fill="#444">Aug</text>
<text x="849.17" y="566.00" text-anchor="middle" font-family="sans-serif" font-size="11" fill="#444">Sep</text>
<text x="940.83" y="566.00" text-anchor="middle" font-family="sans-serif" font-size="11" fill="#444">Oct</text>
<text x="1032.50" y="566.00" text-anchor="middle" font-family="sans-serif" font-size="11" fill="#444">Nov</text>
<text x="1124.17" y="566.00" text-anchor="middle" font-family="sans-serif" font-size="11" fill="#444">Dec</text>
<line x1="70" y1="550" x2="1170" y2="550" stroke="#888"/>
<line x1="70" y1="25" x2="70" y2="550" stroke="#888"/>
<line x1="75.09" y1="550.00" x2="75.09" y2="556.00" stroke="#888"/>
<line x1="1167.30"   y1="550.00" x2="1167.30"   y2="556.00" stroke="#888"/>
<text x="75.09" y="582.00" text-anchor="start" font-family="sans-serif" font-size="11" fill="#333">Initial Balance: 100000</text>
<text x="1167.30"   y="582.00" text-anchor="end"   font-family="sans-serif" font-size="11" fill="#333">Ending Balance: 152690</text>
<path d="M 115.83 198.58 L 115.83 198.89 Z" fill="#d0d0d0" fill-opacity="0.5" stroke="none"/>
<path d="M 207.50 184.18 L 225.83 184.18 L 244.17 184.18 L 244.17 184.75 L 225.83 186.92 L 207.50 189.70 Z" fill="#d0d0d0" fill-opacity="0.5" stroke="none"/>
<path d="M 306.81 176.30 L 306.81 177.31 Z" fill="#d0d0d0" fill-opacity="0.5" stroke="none"/>
<path d="M 398.47 167.15 L 413.75 167.15 L 429.03 167.15 L 437.60 167.15 L 439.47 167.15 L 441.34 167.15 L 443.21 167.15 L 445.09 167.15 L 446.96 167.15 L 448.83 167.15 L 450.70 167.15 L 452.57 167.15 L 452.57 167.52 L 450.70 170.71 L 448.83 173.86 L 446.96 176.72 L 445.09 179.39 L 443.21 182.21 L 441.34 184.95 L 439.47 187.29 L 437.60 181.73 L 429.03 176.08 L 413.75 170.36 L 398.47 172.91 Z" fill="#d0d0d0" fill-opacity="0.5" stroke="none"/>
<path d="M 471.28 146.60 L 473.15 146.60 L 475.02 146.60 L 475.02 149.34 L 473.15 151.01 L 471.28 152.65 Z" fill="#d0d0d0" fill-opacity="0.5" stroke="none"/>
<path d="M 482.50 141.01 L 484.37 141.01 L 486.24 141.01 L 488.11 141.01 L 489.98 141.01 L 491.85 141.01 L 493.72 141.01 L 495.60 139.23 L 497.47 139.23 L 497.47 151.33 L 495.60 145.23 L 493.72 142.79 L 491.85 143.98 L 489.98 147.20 L 488.11 141.08 L 486.24 142.93 L 484.37 143.93 L 482.50 147.12 Z" fill="#d0d0d0" fill-opacity="0.5" stroke="none"/>
<path d="M 501.21 139.23 L 503.08 139.23 L 504.95 139.23 L 506.82 139.23 L 508.69 139.23 L 508.69 141.30 L 506.82 143.48 L 504.95 146.43 L 503.08 148.51 L 501.21 148.76 Z" fill="#d0d0d0" fill-opacity="0.5" stroke="none"/>
<path d="M 563.38 104.41 L 568.77 104.41 L 574.17 104.41 L 579.56 104.41 L 584.95 104.41 L 590.34 104.41 L 595.74 104.41 L 595.74 105.78 L 590.34 108.77 L 584.95 107.44 L 579.56 105.50 L 574.17 106.04 L 568.77 108.00 L 563.38 110.99 Z" fill="#d0d0d0" fill-opacity="0.5" stroke="none"/>
<path d="M 706.57 77.03 L 719.31 77.03 L 734.58 77.03 L 749.86 77.03 L 765.14 77.03 L 780.42 77.03 L 795.69 77.03 L 812.50 77.03 L 830.83 77.03 L 849.17 77.03 L 867.50 77.03 L 885.83 77.03 L 897.86 77.03 L 903.59 77.03 L 903.59 79.60 L 897.86 81.19 L 885.83 84.18 L 867.50 85.57 L 849.17 87.72 L 830.83 89.09 L 812.50 88.48 L 795.69 86.33 L 780.42 89.73 L 765.14 92.16 L 749.86 94.38 L 734.58 91.91 L 719.31 85.14 L 706.57 78.25 Z" fill="#d0d0d0" fill-opacity="0.5" stroke="none"/>
<path d="M 915.05 75.76 L 920.78 75.76 L 920.78 78.96 L 915.05 82.67 Z" fill="#d0d0d0" fill-opacity="0.5" stroke="none"/>
<path d="M 932.24 75.09 L 932.24 76.88 Z" fill="#d0d0d0" fill-opacity="0.5" stroke="none"/>
<path d="M 1016.13 44.66 L 1022.68 44.66 L 1029.23 44.66 L 1035.77 44.66 L 1042.32 44.66 L 1048.87 44.66 L 1055.42 44.66 L 1061.96 44.66 L 1068.51 44.66 L 1075.06 44.66 L 1081.03 44.66 L 1086.42 44.66 L 1091.81 44.66 L 1097.21 44.66 L 1097.21 46.00 L 1091.81 49.13 L 1086.42 52.23 L 1081.03 45.06 L 1075.06 49.23 L 1068.51 52.83 L 1061.96 55.03 L 1055.42 58.21 L 1048.87 51.03 L 1042.32 53.63 L 1035.77 46.39 L 1029.23 49.36 L 1022.68 51.24 L 1016.13 51.91 Z" fill="#d0d0d0" fill-opacity="0.5" stroke="none"/>
<path d="M 1129.56 33.69 L 1134.95 33.69 L 1140.34 33.69 L 1140.34 34.88 L 1134.95 34.71 L 1129.56 35.52 Z" fill="#d0d0d0" fill-opacity="0.5" stroke="none"/>
<path d="M 1151.13 30.76 L 1151.13 33.65 Z" fill="#d0d0d0" fill-opacity="0.5" stroke="none"/>
<polyline fill="none" stroke="#111" stroke-width="1.2" points="75.09,206.17 85.28,203.25 95.46,200.31 105.65,198.58 115.83,198.89 126.02,197.38 136.20,195.40 146.39,192.58 156.57,189.53 170.83,187.24 189.17,184.18 207.50,189.70 225.83,186.92 244.17,184.75 260.97,181.64 276.25,178.67 291.53,176.30 306.81,177.31 322.08,174.97 337.36,172.72 352.64,170.83 367.92,169.02 383.19,167.15 398.47,172.91 413.75,170.36 429.03,176.08 437.60,181.73 439.47,187.29 441.34,184.95 443.21,182.21 445.09,179.39 446.96,176.72 448.83,173.86 450.70,170.71 452.57,167.52 454.44,164.29 456.31,163.08 458.18,160.03 460.05,159.00 461.92,155.93 463.79,153.51 465.66,151.55 467.53,149.11 469.40,146.60 471.28,152.65 473.15,151.01 475.02,149.34 476.89,146.51 478.76,143.84 480.63,141.01 482.50,147.12 484.37,143.93 486.24,142.93 488.11,141.08 489.98,147.20 491.85,143.98 493.72,142.79 495.60,145.23 497.47,151.33 499.34,139.23 501.21,148.76 503.08,148.51 504.95,146.43 506.82,143.48 508.69,141.30 510.56,138.58 512.43,136.74 514.30,136.28 516.17,134.35 518.04,134.34 519.91,131.16 521.79,128.07 523.66,126.05 525.53,124.24 527.40,121.08 531.03,119.02 536.42,115.49 541.81,112.69 547.21,110.16 552.60,106.86 557.99,104.41 563.38,110.99 568.77,108.00 574.17,106.04 579.56,105.50 584.95,107.44 590.34,108.77 595.74,105.78 601.13,102.76 606.52,99.09 611.91,96.88 617.30,93.19 625.09,89.45 635.28,87.03 645.46,85.66 655.65,83.96 665.83,83.87 676.02,82.77 686.20,79.69 696.39,77.03 706.57,78.25 719.31,85.14 734.58,91.91 749.86,94.38 765.14,92.16 780.42,89.73 795.69,86.33 812.50,88.48 830.83,89.09 849.17,87.72 867.50,85.57 885.83,84.18 897.86,81.19 903.59,79.60 909.32,75.76 915.05,82.67 920.78,78.96 926.51,75.09 932.24,76.88 937.97,72.99 943.70,72.73 949.43,69.94 955.16,67.48 960.89,64.53 966.61,63.32 972.34,62.04 978.07,58.79 983.80,57.52 989.94,53.52 996.49,52.11 1003.04,47.89 1009.58,44.66 1016.13,51.91 1022.68,51.24 1029.23,49.36 1035.77,46.39 1042.32,53.63 1048.87,51.03 1055.42,58.21 1061.96,55.03 1068.51,52.83 1075.06,49.23 1081.03,45.06 1086.42,52.23 1091.81,49.13 1097.21,46.00 1102.60,43.98 1107.99,41.14 1113.38,40.80 1118.77,37.14 1124.17,33.69 1129.56,35.52 1134.95,34.71 1140.34,34.88 1145.74,30.76 1151.13,33.65 1156.52,30.15 1161.91,27.98 1167.30,25.00"/>
<text x="620.0" y="588" text-anchor="middle" font-family="sans-serif" font-size="12" fill="#333">Monthly Balance Curve</text>
<text x="15" y="287.5" transform="rotate(-90 15,287.5)" text-anchor="middle" font-family="sans-serif" font-size="12" fill="#333">Capital</text>
</svg>