<svg xmlns="http://www.w3.org/2000/svg" width="1200" height="600" viewBox="0 0 1200 600">
<desc>Equity curve with drawdown fill; x-axis is months only (no exact timestamps)</desc>
<text x="600.0" y="18.0" text-anchor="middle" font-family="sans-serif" font-size="14">Portfolio 2009 (UTC)</text>
<rect x="70" y="25" width="1100" height="525" fill="white" stroke="#ccc" />
<line x1="70" y1="550.00" x2="1170" y2="550.00" stroke="#eee"/>
<text x="62" y="554.0" text-anchor="end" font-family="sans-serif" font-size="11" fill="#555">0.00</text>
<line x1="70" y1="445.00" x2="1170" y2="445.00" stroke="#eee"/>
<text x="62" y="449.0" text-anchor="end" font-family="sans-serif" font-size="11" fill="#555">24168</text>
<line x1="70" y1="340.00" x2="1170" y2="340.00" stroke="#eee"/>
<text x="62" y="344.0" text-anchor="end" font-family="sans-serif" font-size="11" fill="#555">48336</text>
<line x1="70" y1="235.00" x2="1170" y2="235.00" stroke="#eee"/>
<text x="62" y="239.0" text-anchor="end" font-family="sans-serif" font-size="11" fill="#555">72503</text>
<line x1="70" y1="130.00" x2="1170" y2="130.00" stroke="#eee"/>
<text x="62" y="134.0" text-anchor="end" font-family="sans-serif" font-size="11" fill="#555">96671</text>
<line x1="70" y1="25.00" x2="1170" y2="25.00" stroke="#eee"/>
<text x="62" y="29.0" text-anchor="end" font-family="sans-serif" font-size="11" fill="#555">120839</text>
<line x1="161.67" y1="25" x2="161.67" y2="550" stroke="#f2f2f2"/>
<line x1="253.33" y1="25" x2="253.33" y2="550" stroke="#f2f2f2"/>
<line x1="345.00" y1="25" x2="345.00" y2="550" stroke="#f2f2f2"/>
<line x1="436.67" y1="25" x2="436.67" y2="550" stroke="#f2f2f2"/>
<line x1="528.33" y1="25" x2="528.33" y2="550" stroke="#f2f2f2"/>
<line x1="620.00" y1="25" x2="620.00" y2="550" stroke="#f2f2f2"/>
<line x1="711.67" y1="25" x2="711.67" y2="550" stroke="#f2f2f2"/>
<line x1="803.33" y1="25" x2="803.33" y2="550" stroke="#f2f2f2"/>
<line x1="895.00" y1="25" x2="895.00" y2="550" stroke="#f2f2f2"/>
<line x1="986.67" y1="25" x2="986.67" y2="550" stroke="#f2f2f2"/>
<line x1="1078.33" y1="25" x2="1078.33" y2="550" stroke="#f2f2f2"/>
<text x="115.83" y="566.00" text-anchor="middle" font-family="sans-serif" font-size="11" fill="#444">Jan</text>
<text x="207.50" y="566.00" text-anchor="middle" font-family="sans-serif" font-size="11" fill="#444">Feb</text>
<text x="299.17" y="566.00" text-anchor="middle" font-family="sans-serif" font-size="11" fill="#444">Mar</text>
<text x="390.83" y="566.00" text-anchor="middle" font-family="sans-serif" font-size="11" fill="#444">Apr</text>
<text x="482.50" y="566.00" text-anchor="middle" font-family="sans-serif" font-size="11" fill="#444">May</text>
<text x="574.17" y="566.00" text-anchor="middle" font-family="sans-serif" font-size="11" fill="#444">Jun</text>
<text x="665.83" y="566.00" text-anchor="middle" font-family="sans-serif" font-size="11" fill="#444">Jul</text>
<text x="757.50" y="566.00" text-anchor="middle" font-family="sans-serif" font-size="11" fill="#444">Aug</text>
<text x="849.17" y="566.00" text-anchor="middle" font-family="sans-serif" font-size="11" fill="#444">Sep</text>
<text x="940.83" y="566.00" text-anchor="middle" font-family="sans-serif" font-size="11" fill="#444">Oct</text>
<text x="1032.50" y="566.00" text-anchor="middle" font-family="sans-serif" font-size="11" fill="#444">Nov</text>
<text x="1124.17" y="566.00" text-anchor="middle" font-family="sans-serif" font-size="11" fill="#444">Dec</text>
<line x1="70" y1="550" x2="1170" y2="550" stroke="#888"/>
<line x1="70" y1="25" x2="70" y2="550" stroke="#888"/>
<line x1="70.72" y1="550.00" x2="70.72" y2="556.00" stroke="#888"/>
<line x1="1164.27"   y1="550.00" x2="1164.27"   y2="556.00" stroke="#888"/>
<text x="70.72" y="582.00" text-anchor="start" font-family="sans-serif" font-size="11" fill="#333">Initial Balance: 100000</text>
<text x="1164.27"   y="582.00" text-anchor="end"   font-family="sans-serif" font-size="11" fill="#333">Ending Balance: 119657</text>
<path d="M 77.88 109.61 L 79.31 109.61 L 80.74 109.61 L 82.17 109.61 L 83.61 109.61 L 85.04 109.61 L 86.47 109.61 L 87.90 109.61 L 89.34 109.61 L 90.77 109.61 L 92.20 109.61 L 93.63 109.61 L 95.07 109.61 L 95.07 109.69 L 93.63 111.14 L 92.20 112.95 L 90.77 115.36 L 89.34 117.49 L 87.90 118.15 L 86.47 113.70 L 85.04 115.83 L 83.61 118.18 L 82.17 120.55 L 80.74 122.92 L 79.31 118.51 L 77.88 114.11 Z" fill="#d0d0d0" fill-opacity="0.5" stroke="none"/>
<path d="M 113.68 87.21 L 115.12 87.21 L 115.12 87.42 L 113.68 88.15 Z" fill="#d0d0d0" fill-opacity="0.5" stroke="none"/>
<path d="M 120.85 80.11 L 122.28 80.11 L 123.71 80.11 L 125.14 80.11 L 126.58 80.11 L 128.01 80.11 L 128.01 81.40 L 126.58 83.96 L 125.14 86.51 L 123.71 87.35 L 122.28 82.59 L 120.85 84.89 Z" fill="#d0d0d0" fill-opacity="0.5" stroke="none"/>
<path d="M 133.74 75.84 L 135.17 75.84 L 136.60 75.84 L 138.03 75.84 L 139.47 75.84 L 140.90 75.84 L 142.33 75.84 L 143.76 75.84 L 145.20 75.84 L 146.63 75.84 L 148.06 75.84 L 149.49 75.84 L 150.92 75.84 L 150.92 77.74 L 149.49 80.33 L 148.06 82.90 L 146.63 84.58 L 145.20 87.14 L 143.76 88.66 L 142.33 83.90 L 140.90 86.39 L 139.47 81.66 L 138.03 83.68 L 136.60 86.12 L 135.17 81.34 L 133.74 80.67 Z" fill="#d0d0d0" fill-opacity="0.5" stroke="none"/>
<path d="M 155.22 73.84 L 156.65 73.84 L 158.09 73.84 L 159.52 73.84 L 160.95 73.84 L 162.98 73.84 L 165.60 73.84 L 168.21 73.84 L 170.83 73.84 L 173.45 73.84 L 173.45 75.46 L 170.83 77.47 L 168.21 79.77 L 165.60 81.06 L 162.98 76.23 L 160.95 78.58 L 159.52 81.15 L 158.09 81.98 L 156.65 83.44 L 155.22 78.68 Z" fill="#d0d0d0" fill-opacity="0.5" stroke="none"/>
<path d="M 181.31 71.11 L 183.93 71.11 L 186.55 71.11 L 189.17 71.11 L 191.79 71.11 L 194.40 71.11 L 197.02 71.11 L 199.64 71.11 L 202.26 71.11 L 204.88 71.11 L 207.50 71.11 L 210.12 71.11 L 210.12 72.96 L 207.50 75.56 L 204.88 75.80 L 202.26 78.18 L 199.64 80.60 L 197.02 82.31 L 194.40 77.53 L 191.79 80.24 L 189.17 75.40 L 186.55 77.02 L 183.93 77.38 L 181.31 72.52 Z" fill="#d0d0d0" fill-opacity="0.5" stroke="none"/>
<path d="M 231.07 60.32 L 233.69 60.32 L 236.31 60.32 L 238.93 60.32 L 241.55 60.32 L 244.17 60.32 L 246.79 60.32 L 249.40 60.32 L 252.02 60.32 L 254.64 60.32 L 257.26 60.32 L 259.88 60.32 L 262.50 60.32 L 265.12 60.32 L 267.74 60.32 L 270.36 60.32 L 272.98 60.32 L 275.60 60.32 L 278.21 60.32 L 280.83 60.32 L 283.45 60.32 L 286.07 60.32 L 288.69 60.32 L 291.31 60.32 L 293.93 60.32 L 296.55 60.32 L 299.17 60.32 L 301.79 60.32 L 304.40 60.32 L 307.02 60.32 L 309.64 60.32 L 312.26 60.32 L 314.88 60.32 L 317.50 60.32 L 320.12 60.32 L 322.74 60.32 L 325.36 60.32 L 327.98 60.32 L 330.60 60.32 L 333.21 60.32 L 335.83 60.32 L 338.45 60.32 L 341.07 60.32 L 343.69 60.32 L 347.29 60.32 L 351.88 60.32 L 356.46 60.32 L 361.04 60.32 L 365.62 60.32 L 370.21 60.32 L 374.79 60.32 L 379.38 60.32 L 383.96 60.32 L 388.54 60.32 L 393.12 60.32 L 397.71 60.32 L 402.29 60.32 L 406.88 60.32 L 411.46 60.32 L 416.04 60.32 L 420.62 60.32 L 425.21 60.32 L 429.79 60.32 L 434.38 60.32 L 440.19 60.32 L 447.24 60.32 L 454.29 60.32 L 461.35 60.32 L 468.40 60.32 L 475.45 60.32 L 482.50 60.32 L 489.55 60.32 L 496.60 60.32 L 503.65 60.32 L 510.71 60.32 L 517.76 60.32 L 524.81 60.32 L 531.61 60.32 L 538.15 60.32 L 544.70 60.32 L 551.25 60.32 L 557.80 60.32 L 564.35 60.32 L 570.89 60.32 L 577.44 60.32 L 583.99 60.32 L 590.54 60.32 L 597.08 60.32 L 603.63 60.32 L 610.18 60.32 L 616.73 60.32 L 625.09 60.32 L 635.28 60.32 L 645.46 60.32 L 645.46 62.25 L 635.28 62.72 L 625.09 64.13 L 616.73 66.81 L 610.18 66.65 L 603.63 69.32 L 597.08 70.41 L 590.54 71.04 L 583.99 72.30 L 577.44 74.69 L 570.89 77.12 L 564.35 72.26 L 557.80 74.42 L 551.25 69.54 L 544.70 72.19 L 538.15 73.59 L 531.61 75.27 L 524.81 70.39 L 517.76 65.47 L 510.71 65.54 L 503.65 60.57 L 496.60 62.26 L 489.55 63.61 L 482.50 66.28 L 475.45 68.94 L 468.40 71.27 L 461.35 73.91 L 454.29 76.53 L 447.24 79.13 L 440.19 80.77 L 434.38 83.01 L 429.79 85.58 L 425.21 80.80 L 420.62 79.58 L 416.04 81.16 L 411.46 82.10 L 406.88 84.11 L 402.29 85.81 L 397.71 81.03 L 393.12 83.61 L 388.54 82.10 L 383.96 84.17 L 379.38 85.94 L 374.79 81.15 L 370.21 81.74 L 365.62 84.32 L 361.04 86.14 L 356.46 86.77 L 351.88 88.70 L 347.29 90.97 L 343.69 93.50 L 341.07 94.89 L 338.45 97.15 L 335.83 99.05 L 333.21 94.44 L 330.60 89.73 L 327.98 91.73 L 325.36 92.97 L 322.74 95.33 L 320.12 90.64 L 317.50 90.96 L 314.88 92.27 L 312.26 92.88 L 309.64 88.17 L 307.02 90.52 L 304.40 92.20 L 301.79 87.51 L 299.17 82.74 L 296.55 85.20 L 293.93 80.41 L 291.31 82.58 L 288.69 84.86 L 286.07 85.40 L 283.45 86.16 L 280.83 88.02 L 278.21 89.97 L 275.60 90.45 L 272.98 85.71 L 270.36 87.55 L 267.74 86.65 L 265.12 81.87 L 262.50 83.25 L 259.88 84.91 L 257.26 80.12 L 254.64 81.58 L 252.02 83.60 L 249.40 78.79 L 246.79 73.94 L 244.17 75.70 L 241.55 77.28 L 238.93 79.87 L 236.31 75.07 L 233.69 70.19 L 231.07 65.27 Z" fill="#d0d0d0" fill-opacity="0.5" stroke="none"/>
<path d="M 696.39 55.16 L 706.57 55.16 L 726.94 55.16 L 757.50 55.16 L 757.50 55.75 L 726.94 58.49 L 706.57 60.20 L 696.39 60.18 Z" fill="#d0d0d0" fill-opacity="0.5" stroke="none"/>
<path d="M 809.06 54.71 L 820.52 54.71 L 831.98 54.71 L 843.44 54.71 L 843.44 54.91 L 831.98 55.46 L 820.52 58.19 L 809.06 59.72 Z" fill="#d0d0d0" fill-opacity="0.5" stroke="none"/>
<path d="M 877.81 49.77 L 889.27 49.77 L 901.55 49.77 L 914.64 49.77 L 914.64 51.32 L 901.55 53.67 L 889.27 53.11 L 877.81 54.80 Z" fill="#d0d0d0" fill-opacity="0.5" stroke="none"/>
<path d="M 1055.42 33.39 L 1070.69 33.39 L 1084.06 33.39 L 1095.52 33.39 L 1095.52 33.42 L 1084.06 34.88 L 1070.69 37.51 L 1055.42 38.60 Z" fill="#d0d0d0" fill-opacity="0.5" stroke="none"/>
<path d="M 1152.81 25.00 L 1164.27 25.00 L 1164.27 30.14 L 1152.81 30.28 Z" fill="#d0d0d0" fill-opacity="0.5" stroke="none"/>
<polyline fill="none" stroke="#111" stroke-width="1.2" points="70.72,115.54 72.15,115.30 73.58,114.29 75.01,112.05 76.45,109.61 77.88,114.11 79.31,118.51 80.74,122.92 82.17,120.55 83.61,118.18 85.04,115.83 86.47,113.70 87.90,118.15 89.34,117.49 90.77,115.36 92.20,112.95 93.63,111.14 95.07,109.69 96.50,107.12 97.93,107.00 99.36,104.54 100.79,102.07 102.23,99.95 103.66,98.35 105.09,96.41 106.52,94.14 107.96,91.80 109.39,89.66 110.82,87.45 112.25,87.21 113.68,88.15 115.12,87.42 116.55,85.03 117.98,82.69 119.41,80.11 120.85,84.89 122.28,82.59 123.71,87.35 125.14,86.51 126.58,83.96 128.01,81.40 129.44,79.73 130.87,77.37 132.30,75.84 133.74,80.67 135.17,81.34 136.60,86.12 138.03,83.68 139.47,81.66 140.90,86.39 142.33,83.90 143.76,88.66 145.20,87.14 146.63,84.58 148.06,82.90 149.49,80.33 150.92,77.74 152.36,75.15 153.79,73.84 155.22,78.68 156.65,83.44 158.09,81.98 159.52,81.15 160.95,78.58 162.98,76.23 165.60,81.06 168.21,79.77 170.83,77.47 173.45,75.46 176.07,73.35 178.69,71.11 181.31,72.52 183.93,77.38 186.55,77.02 189.17,75.40 191.79,80.24 194.40,77.53 197.02,82.31 199.64,80.60 202.26,78.18 204.88,75.80 207.50,75.56 210.12,72.96 212.74,70.35 215.36,69.87 217.98,67.44 220.60,66.77 223.21,65.22 225.83,63.12 228.45,60.32 231.07,65.27 233.69,70.19 236.31,75.07 238.93,79.87 241.55,77.28 244.17,75.70 246.79,73.94 249.40,78.79 252.02,83.60 254.64,81.58 257.26,80.12 259.88,84.91 262.50,83.25 265.12,81.87 267.74,86.65 270.36,87.55 272.98,85.71 275.60,90.45 278.21,89.97 280.83,88.02 283.45,86.16 286.07,85.40 288.69,84.86 291.31,82.58 293.93,80.41 296.55,85.20 299.17,82.74 301.79,87.51 304.40,92.20 307.02,90.52 309.64,88.17 312.26,92.88 314.88,92.27 317.50,90.96 320.12,90.64 322.74,95.33 325.36,92.97 327.98,91.73 330.60,89.73 333.21,94.44 335.83,99.05 338.45,97.15 341.07,94.89 343.69,93.50 347.29,90.97 351.88,88.70 356.46,86.77 361.04,86.14 365.62,84.32 370.21,81.74 374.79,81.15 379.38,85.94 383.96,84.17 388.54,82.10 393.12,83.61 397.71,81.03 402.29,85.81 406.88,84.11 411.46,82.10 416.04,81.16 420.62,79.58 425.21,80.80 429.79,85.58 434.38,83.01 440.19,80.77 447.24,79.13 454.29,76.53 461.35,73.91 468.40,71.27 475.45,68.94 482.50,66.28 489.55,63.61 496.60,62.26 503.65,60.57 510.71,65.54 517.76,65.47 524.81,70.39 531.61,75.27 538.15,73.59 544.70,72.19 551.25,69.54 557.80,74.42 564.35,72.26 570.89,77.12 577.44,74.69 583.99,72.30 590.54,71.04 597.08,70.41 603.63,69.32 610.18,66.65 616.73,66.81 625.09,64.13 635.28,62.72 645.46,62.25 655.65,59.55 665.83,57.96 676.02,55.49 686.20,55.16 696.39,60.18 706.57,60.20 726.94,58.49 757.50,55.75 788.06,54.71 809.06,59.72 820.52,58.19 831.98,55.46 843.44,54.91 854.90,52.63 866.35,49.77 877.81,54.80 889.27,53.11 901.55,53.67 914.64,51.32 927.74,49.02 940.83,47.49 953.93,46.16 967.02,43.95 980.12,41.76 994.31,40.21 1009.58,37.39 1024.86,35.42 1040.14,33.39 1055.42,38.60 1070.69,37.51 1084.06,34.88 1095.52,33.42 1106.98,31.15 1118.44,29.09 1129.90,26.48 1141.35,25.00 1152.81,30.28 1164.27,30.14"/>
<text x="620.0" y="588" text-anchor="middle" font-family="sans-serif" font-size="12" fill="#333">Monthly Balance Curve</text>
<text x="15" y="287.5" transform="rotate(-90 15,287.5)" text-anchor="middle" font-family="sans-serif" font-size="12" fill="#333">Capital</text>
</svg>