<svg xmlns="http://www.w3.org/2000/svg" width="1200" height="600" viewBox="0 0 1200 600">
<desc>Equity curve with drawdown fill; x-axis is months only (no exact timestamps)</desc>
<text x="600.0" y="18.0" text-anchor="middle" font-family="sans-serif" font-size="14">Balance Curve 2011 (UTC)</text>
<rect x="70" y="25" width="1100" height="525" fill="white" stroke="#ccc" />
<line x1="70" y1="550.00" x2="1170" y2="550.00" stroke="#eee"/>
<text x="62" y="554.0" text-anchor="end" font-family="sans-serif" font-size="11" fill="#555">0.00</text>
<line x1="70" y1="445.00" x2="1170" y2="445.00" stroke="#eee"/>
<text x="62" y="449.0" text-anchor="end" font-family="sans-serif" font-size="11" fill="#555">730800</text>
<line x1="70" y1="340.00" x2="1170" y2="340.00" stroke="#eee"/>
<text x="62" y="344.0" text-anchor="end" font-family="sans-serif" font-size="11" fill="#555">1461601</text>
<line x1="70" y1="235.00" x2="1170" y2="235.00" stroke="#eee"/>
<text x="62" y="239.0" text-anchor="end" font-family="sans-serif" font-size="11" fill="#555">2192401</text>
<line x1="70" y1="130.00" x2="1170" y2="130.00" stroke="#eee"/>
<text x="62" y="134.0" text-anchor="end" font-family="sans-serif" font-size="11" fill="#555">2923201</text>
<line x1="70" y1="25.00" x2="1170" y2="25.00" stroke="#eee"/>
<text x="62" y="29.0" text-anchor="end" font-family="sans-serif" font-size="11" fill="#555">3654001</text>
<line x1="161.67" y1="25" x2="161.67" y2="550" stroke="#f2f2f2"/>
<line x1="253.33" y1="25" x2="253.33" y2="550" stroke="#f2f2f2"/>
<line x1="345.00" y1="25" x2="345.00" y2="550" stroke="#f2f2f2"/>
<line x1="436.67" y1="25" x2="436.67" y2="550" stroke="#f2f2f2"/>
<line x1="528.33" y1="25" x2="528.33" y2="550" stroke="#f2f2f2"/>
<line x1="620.00" y1="25" x2="620.00" y2="550" stroke="#f2f2f2"/>
<line x1="711.67" y1="25" x2="711.67" y2="550" stroke="#f2f2f2"/>
<line x1="803.33" y1="25" x2="803.33" y2="550" stroke="#f2f2f2"/>
<line x1="895.00" y1="25" x2="895.00" y2="550" stroke="#f2f2f2"/>
<line x1="986.67" y1="25" x2="986.67" y2="550" stroke="#f2f2f2"/>
<line x1="1078.33" y1="25" x2="1078.33" y2="550" stroke="#f2f2f2"/>
<text x="115.83" y="566.00" text-anchor="middle" font-family="sans-serif" font-size="11" fill="#444">Jan</text>
<text x="207.50" y="566.00" text-anchor="middle" font-family="sans-serif" font-size="11" fill="#444">Feb</text>
<text x="299.17" y="566.00" text-anchor="middle" font-family="sans-serif" font-size="11" fill="#444">Mar</text>
<text x="390.83" y="566.00" text-anchor="middle" font-family="sans-serif" font-size="11" fill="#444">Apr</text>
<text x="482.50" y="566.00" text-anchor="middle" font-family="sans-serif" font-size="11" fill="#444">May</text>
<text x="574.17" y="566.00" text-anchor="middle" font-family="sans-serif" font-size="11" fill="#444">Jun</text>
<text x="665.83" y="566.00" text-anchor="middle" font-family="sans-serif" font-size="11" fill="#444">Jul</text>
<text x="757.50" y="566.00" text-anchor="middle" font-family="sans-serif" font-size="11" fill="#444">Aug</text>
<text x="849.17" y="566.00" text-anchor="middle" font-family="sans-serif" font-size="11" fill="#444">Sep</text>
<text x="940.83" y="566.00" text-anchor="middle" font-family="sans-serif" font-size="11" fill="#444">Oct</text>
<text x="1032.50" y="566.00" text-anchor="middle" font-family="sans-serif" font-size="11" fill="#444">Nov</text>
<text x="1124.17" y="566.00" text-anchor="middle" font-family="sans-serif" font-size="11" fill="#444">Dec</text>
<line x1="70" y1="550" x2="1170" y2="550" stroke="#888"/>
<line x1="70" y1="25" x2="70" y2="550" stroke="#888"/>
<line x1="74.17" y1="550.00" x2="74.17" y2="556.00" stroke="#888"/>
<line x1="1154.72"   y1="550.00" x2="1154.72"   y2="556.00" stroke="#888"/>
<text x="74.17" y="582.00" text-anchor="start" font-family="sans-serif" font-size="11" fill="#333">Initial Balance: 3400000</text>
<text x="1154.72"   y="582.00" text-anchor="end"   font-family="sans-serif" font-size="11" fill="#333">Ending Balance: 3535176</text>
<path d="M 90.83 60.15 L 90.83 60.33 Z" fill="#d0d0d0" fill-opacity="0.5" stroke="none"/>
<path d="M 189.17 41.89 L 207.50 41.89 L 207.50 43.08 L 189.17 43.74 Z" fill="#d0d0d0" fill-opacity="0.5" stroke="none"/>
<path d="M 244.17 41.30 L 259.06 41.30 L 270.52 41.30 L 281.98 41.30 L 293.44 41.30 L 293.44 42.48 L 281.98 41.49 L 270.52 42.53 L 259.06 43.72 L 244.17 46.18 Z" fill="#d0d0d0" fill-opacity="0.5" stroke="none"/>
<path d="M 327.81 40.35 L 327.81 41.21 Z" fill="#d0d0d0" fill-opacity="0.5" stroke="none"/>
<path d="M 356.46 39.67 L 379.38 39.67 L 402.29 39.67 L 425.21 39.67 L 439.36 39.67 L 444.75 39.67 L 450.15 39.67 L 455.54 39.67 L 460.93 39.67 L 466.32 39.67 L 471.72 39.67 L 477.11 39.67 L 482.50 39.67 L 487.89 39.67 L 493.28 39.67 L 498.68 39.67 L 504.07 39.67 L 509.46 39.67 L 514.85 39.67 L 520.25 39.67 L 525.64 39.67 L 532.15 39.67 L 539.79 39.67 L 547.43 39.67 L 555.07 39.67 L 562.71 39.67 L 570.35 39.67 L 577.99 39.67 L 585.62 39.67 L 593.26 39.67 L 600.90 39.67 L 608.54 39.67 L 616.18 39.67 L 623.06 39.67 L 629.17 39.67 L 629.17 41.97 L 623.06 42.01 L 616.18 44.31 L 608.54 46.87 L 600.90 48.55 L 593.26 49.27 L 585.62 49.62 L 577.99 52.15 L 570.35 52.48 L 562.71 54.97 L 555.07 57.47 L 547.43 52.41 L 539.79 53.33 L 532.15 54.86 L 525.64 52.71 L 520.25 53.78 L 514.85 55.06 L 509.46 49.99 L 504.07 50.90 L 498.68 48.63 L 493.28 49.78 L 487.89 51.82 L 482.50 53.06 L 477.11 53.60 L 471.72 54.95 L 466.32 49.87 L 460.93 44.73 L 455.54 46.25 L 450.15 48.80 L 444.75 43.69 L 439.36 46.26 L 425.21 46.64 L 402.29 48.37 L 379.38 43.22 L 356.46 44.73 Z" fill="#d0d0d0" fill-opacity="0.5" stroke="none"/>
<path d="M 690.28 25.00 L 696.39 25.00 L 702.50 25.00 L 708.61 25.00 L 714.21 25.00 L 719.31 25.00 L 724.40 25.00 L 729.49 25.00 L 734.58 25.00 L 739.68 25.00 L 744.77 25.00 L 749.86 25.00 L 754.95 25.00 L 760.05 25.00 L 765.14 25.00 L 770.23 25.00 L 775.32 25.00 L 780.42 25.00 L 785.51 25.00 L 790.60 25.00 L 795.69 25.00 L 800.79 25.00 L 805.88 25.00 L 810.97 25.00 L 816.06 25.00 L 821.16 25.00 L 826.25 25.00 L 831.34 25.00 L 836.44 25.00 L 841.53 25.00 L 846.62 25.00 L 851.71 25.00 L 856.81 25.00 L 861.90 25.00 L 866.99 25.00 L 872.08 25.00 L 877.18 25.00 L 882.27 25.00 L 887.36 25.00 L 892.45 25.00 L 897.41 25.00 L 902.24 25.00 L 907.06 25.00 L 911.89 25.00 L 916.71 25.00 L 921.54 25.00 L 926.36 25.00 L 931.18 25.00 L 936.01 25.00 L 940.83 25.00 L 945.66 25.00 L 950.48 25.00 L 955.31 25.00 L 960.13 25.00 L 964.96 25.00 L 969.78 25.00 L 974.61 25.00 L 979.43 25.00 L 984.25 25.00 L 989.21 25.00 L 994.31 25.00 L 999.40 25.00 L 1004.49 25.00 L 1009.58 25.00 L 1014.68 25.00 L 1019.77 25.00 L 1024.86 25.00 L 1029.95 25.00 L 1035.05 25.00 L 1040.14 25.00 L 1045.23 25.00 L 1050.32 25.00 L 1055.42 25.00 L 1060.51 25.00 L 1065.60 25.00 L 1070.69 25.00 L 1075.79 25.00 L 1093.61 25.00 L 1124.17 25.00 L 1154.72 25.00 L 1154.72 42.07 L 1124.17 44.15 L 1093.61 45.36 L 1075.79 45.20 L 1070.69 45.76 L 1065.60 47.68 L 1060.51 49.99 L 1055.42 45.20 L 1050.32 43.68 L 1045.23 45.36 L 1040.14 46.99 L 1035.05 42.13 L 1029.95 41.96 L 1024.86 41.98 L 1019.77 43.70 L 1014.68 44.14 L 1009.58 46.40 L 1004.49 48.04 L 999.40 43.10 L 994.31 43.97 L 989.21 45.62 L 984.25 40.71 L 979.43 41.56 L 974.61 42.98 L 969.78 45.04 L 964.96 47.49 L 960.13 49.94 L 955.31 48.69 L 950.48 50.31 L 945.66 52.73 L 940.83 51.77 L 936.01 46.85 L 931.18 41.87 L 926.36 43.74 L 921.54 45.91 L 916.71 47.52 L 911.89 48.37 L 907.06 43.53 L 902.24 45.89 L 897.41 48.38 L 892.45 50.00 L 887.36 48.86 L 882.27 50.08 L 877.18 45.23 L 872.08 46.08 L 866.99 41.22 L 861.90 40.70 L 856.81 35.85 L 851.71 36.97 L 846.62 39.35 L 841.53 40.56 L 836.44 42.98 L 831.34 45.01 L 826.25 46.86 L 821.16 46.83 L 816.06 48.73 L 810.97 50.96 L 805.88 45.92 L 800.79 40.85 L 795.69 43.42 L 790.60 38.27 L 785.51 33.14 L 780.42 35.00 L 775.32 37.57 L 770.23 32.44 L 765.14 32.14 L 760.05 31.18 L 754.95 26.04 L 749.86 28.56 L 744.77 30.61 L 739.68 25.48 L 734.58 27.86 L 729.49 30.38 L 724.40 32.33 L 719.31 34.35 L 714.21 36.01 L 708.61 37.99 L 702.50 32.88 L 696.39 27.74 L 690.28 30.30 Z" fill="#d0d0d0" fill-opacity="0.5" stroke="none"/>
<polyline fill="none" stroke="#111" stroke-width="1.2" points="74.17,61.49 82.50,60.15 90.83,60.33 99.17,58.07 107.50,57.02 115.83,54.88 124.17,52.71 132.50,50.81 140.83,48.64 149.17,46.22 157.50,43.81 170.83,41.89 189.17,43.74 207.50,43.08 225.83,41.30 244.17,46.18 259.06,43.72 270.52,42.53 281.98,41.49 293.44,42.48 304.90,41.03 316.35,40.35 327.81,41.21 339.27,39.67 356.46,44.73 379.38,43.22 402.29,48.37 425.21,46.64 439.36,46.26 444.75,43.69 450.15,48.80 455.54,46.25 460.93,44.73 466.32,49.87 471.72,54.95 477.11,53.60 482.50,53.06 487.89,51.82 493.28,49.78 498.68,48.63 504.07,50.90 509.46,49.99 514.85,55.06 520.25,53.78 525.64,52.71 532.15,54.86 539.79,53.33 547.43,52.41 555.07,57.47 562.71,54.97 570.35,52.48 577.99,52.15 585.62,49.62 593.26,49.27 600.90,48.55 608.54,46.87 616.18,44.31 623.06,42.01 629.17,41.97 635.28,39.44 641.39,38.12 647.50,35.63 653.61,33.31 659.72,33.17 665.83,31.15 671.94,29.25 678.06,27.52 684.17,25.00 690.28,30.30 696.39,27.74 702.50,32.88 708.61,37.99 714.21,36.01 719.31,34.35 724.40,32.33 729.49,30.38 734.58,27.86 739.68,25.48 744.77,30.61 749.86,28.56 754.95,26.04 760.05,31.18 765.14,32.14 770.23,32.44 775.32,37.57 780.42,35.00 785.51,33.14 790.60,38.27 795.69,43.42 800.79,40.85 805.88,45.92 810.97,50.96 816.06,48.73 821.16,46.83 826.25,46.86 831.34,45.01 836.44,42.98 841.53,40.56 846.62,39.35 851.71,36.97 856.81,35.85 861.90,40.70 866.99,41.22 872.08,46.08 877.18,45.23 882.27,50.08 887.36,48.86 892.45,50.00 897.41,48.38 902.24,45.89 907.06,43.53 911.89,48.37 916.71,47.52 921.54,45.91 926.36,43.74 931.18,41.87 936.01,46.85 940.83,51.77 945.66,52.73 950.48,50.31 955.31,48.69 960.13,49.94 964.96,47.49 969.78,45.04 974.61,42.98 979.43,41.56 984.25,40.71 989.21,45.62 994.31,43.97 999.40,43.10 1004.49,48.04 1009.58,46.40 1014.68,44.14 1019.77,43.70 1024.86,41.98 1029.95,41.96 1035.05,42.13 1040.14,46.99 1045.23,45.36 1050.32,43.68 1055.42,45.20 1060.51,49.99 1065.60,47.68 1070.69,45.76 1075.79,45.20 1093.61,45.36 1124.17,44.15 1154.72,42.07"/>
<text x="15" y="287.5" transform="rotate(-90 15,287.5)" text-anchor="middle" font-family="sans-serif" font-size="12" fill="#333">USD</text>
</svg>