<svg xmlns="http://www.w3.org/2000/svg" width="1200" height="600" viewBox="0 0 1200 600">
<desc>Equity curve with drawdown fill</desc>
<text x="600.0" y="18.0" text-anchor="middle" font-family="sans-serif" font-size="14">Portfolio 2009</text>
<rect x="70" y="25" width="1100" height="525" fill="white" stroke="#ccc" />
<line x1="70" y1="550.00" x2="1170" y2="550.00" stroke="#eee"/>
<text x="62" y="554.0" text-anchor="end" font-family="sans-serif" font-size="11" fill="#555">0.00</text>
<line x1="70" y1="445.00" x2="1170" y2="445.00" stroke="#eee"/>
<text x="62" y="449.0" text-anchor="end" font-family="sans-serif" font-size="11" fill="#555">23892</text>
<line x1="70" y1="340.00" x2="1170" y2="340.00" stroke="#eee"/>
<text x="62" y="344.0" text-anchor="end" font-family="sans-serif" font-size="11" fill="#555">47783</text>
<line x1="70" y1="235.00" x2="1170" y2="235.00" stroke="#eee"/>
<text x="62" y="239.0" text-anchor="end" font-family="sans-serif" font-size="11" fill="#555">71675</text>
<line x1="70" y1="130.00" x2="1170" y2="130.00" stroke="#eee"/>
<text x="62" y="134.0" text-anchor="end" font-family="sans-serif" font-size="11" fill="#555">95567</text>
<line x1="70" y1="25.00" x2="1170" y2="25.00" stroke="#eee"/>
<text x="62" y="29.0" text-anchor="end" font-family="sans-serif" font-size="11" fill="#555">119459</text>
<line x1="159.60" y1="25" x2="159.60" y2="550" stroke="#f2f2f2"/>
<text x="159.60" y="566" text-anchor="middle" font-family="sans-serif" font-size="11" fill="#555">Feb</text>
<line x1="244.39" y1="25" x2="244.39" y2="550" stroke="#f2f2f2"/>
<text x="244.39" y="566" text-anchor="middle" font-family="sans-serif" font-size="11" fill="#555">Mar</text>
<line x1="338.26" y1="25" x2="338.26" y2="550" stroke="#f2f2f2"/>
<text x="338.26" y="566" text-anchor="middle" font-family="sans-serif" font-size="11" fill="#555">Apr</text>
<line x1="429.11" y1="25" x2="429.11" y2="550" stroke="#f2f2f2"/>
<text x="429.11" y="566" text-anchor="middle" font-family="sans-serif" font-size="11" fill="#555">May</text>
<line x1="522.99" y1="25" x2="522.99" y2="550" stroke="#f2f2f2"/>
<text x="522.99" y="566" text-anchor="middle" font-family="sans-serif" font-size="11" fill="#555">Jun</text>
<line x1="613.84" y1="25" x2="613.84" y2="550" stroke="#f2f2f2"/>
<text x="613.84" y="566" text-anchor="middle" font-family="sans-serif" font-size="11" fill="#555">Jul</text>
<line x1="707.71" y1="25" x2="707.71" y2="550" stroke="#f2f2f2"/>
<text x="707.71" y="566" text-anchor="middle" font-family="sans-serif" font-size="11" fill="#555">Aug</text>
<line x1="801.59" y1="25" x2="801.59" y2="550" stroke="#f2f2f2"/>
<text x="801.59" y="566" text-anchor="middle" font-family="sans-serif" font-size="11" fill="#555">Sep</text>
<line x1="892.44" y1="25" x2="892.44" y2="550" stroke="#f2f2f2"/>
<text x="892.44" y="566" text-anchor="middle" font-family="sans-serif" font-size="11" fill="#555">Oct</text>
<line x1="986.31" y1="25" x2="986.31" y2="550" stroke="#f2f2f2"/>
<text x="986.31" y="566" text-anchor="middle" font-family="sans-serif" font-size="11" fill="#555">Nov</text>
<line x1="1077.16" y1="25" x2="1077.16" y2="550" stroke="#f2f2f2"/>
<text x="1077.16" y="566" text-anchor="middle" font-family="sans-serif" font-size="11" fill="#555">Dec</text>
<line x1="1170.00" y1="25" x2="1170.00" y2="550" stroke="#f2f2f2"/>
<text x="1170.00" y="566" text-anchor="middle" font-family="sans-serif" font-size="11" fill="#555">Jan</text>
<line x1="70" y1="550" x2="1170" y2="550" stroke="#888"/>
<line x1="70" y1="25" x2="70" y2="550" stroke="#888"/>
<path d="M 70.00 110.52 L 70.00 111.80 Z" fill="#d0d0d0" fill-opacity="0.5" stroke="none"/>
<path d="M 78.88 108.39 L 78.89 108.39 L 78.92 108.39 L 79.02 108.39 L 79.10 108.39 L 79.21 108.39 L 79.51 108.39 L 80.04 108.39 L 81.46 108.39 L 81.86 108.39 L 82.01 108.39 L 82.12 108.39 L 82.18 108.39 L 82.30 108.39 L 83.05 108.39 L 84.03 108.39 L 84.84 108.39 L 84.90 108.39 L 85.35 108.39 L 85.60 108.39 L 85.67 108.39 L 85.90 108.39 L 86.03 108.39 L 86.35 108.39 L 86.98 108.39 L 86.98 109.84 L 86.35 112.35 L 86.03 114.37 L 85.90 116.58 L 85.67 118.81 L 85.60 119.65 L 85.35 115.28 L 84.90 117.47 L 84.84 119.85 L 84.03 122.28 L 83.05 124.72 L 82.30 120.38 L 82.18 121.73 L 82.12 123.18 L 82.01 125.61 L 81.86 124.49 L 81.46 120.15 L 80.04 122.59 L 79.51 124.84 L 79.21 124.47 L 79.10 124.96 L 79.02 125.79 L 78.92 121.55 L 78.89 117.23 L 78.88 112.84 Z" fill="#d0d0d0" fill-opacity="0.5" stroke="none"/>
<path d="M 91.73 99.43 L 91.87 99.43 L 91.98 99.43 L 92.07 99.43 L 99.13 99.43 L 99.13 99.46 L 92.07 101.13 L 91.98 103.68 L 91.87 103.76 L 91.73 103.96 Z" fill="#d0d0d0" fill-opacity="0.5" stroke="none"/>
<path d="M 100.95 98.28 L 101.02 98.28 L 101.32 98.28 L 101.32 99.73 L 101.02 101.74 L 100.95 102.83 Z" fill="#d0d0d0" fill-opacity="0.5" stroke="none"/>
<path d="M 106.19 85.24 L 106.25 85.24 L 106.79 85.24 L 106.93 85.24 L 106.98 85.24 L 106.98 86.46 L 106.93 87.48 L 106.79 86.58 L 106.25 87.60 L 106.19 89.91 Z" fill="#d0d0d0" fill-opacity="0.5" stroke="none"/>
<path d="M 109.90 84.48 L 109.91 84.48 L 109.91 86.44 L 109.90 89.16 Z" fill="#d0d0d0" fill-opacity="0.5" stroke="none"/>
<path d="M 110.58 81.03 L 111.65 81.03 L 112.92 81.03 L 112.92 82.30 L 111.65 84.94 L 110.58 85.76 Z" fill="#d0d0d0" fill-opacity="0.5" stroke="none"/>
<path d="M 123.38 75.44 L 124.19 75.44 L 124.19 77.82 L 123.38 80.23 Z" fill="#d0d0d0" fill-opacity="0.5" stroke="none"/>
<path d="M 126.61 73.78 L 126.75 73.78 L 127.15 73.78 L 127.15 74.98 L 126.75 77.67 L 126.61 78.57 Z" fill="#d0d0d0" fill-opacity="0.5" stroke="none"/>
<path d="M 133.33 60.87 L 133.46 60.87 L 133.54 60.87 L 133.62 60.87 L 134.20 60.87 L 134.53 60.87 L 134.68 60.87 L 134.76 60.87 L 141.33 60.87 L 142.56 60.87 L 143.08 60.87 L 143.24 60.87 L 143.31 60.87 L 143.32 60.87 L 143.46 60.87 L 143.73 60.87 L 144.90 60.87 L 145.46 60.87 L 145.62 60.87 L 145.91 60.87 L 146.05 60.87 L 146.35 60.87 L 146.52 60.87 L 147.55 60.87 L 148.53 60.87 L 149.27 60.87 L 151.45 60.87 L 152.10 60.87 L 152.40 60.87 L 152.67 60.87 L 152.73 60.87 L 152.83 60.87 L 155.38 60.87 L 155.53 60.87 L 155.53 62.47 L 155.38 65.04 L 152.83 67.29 L 152.73 69.11 L 152.67 70.64 L 152.40 65.80 L 152.10 68.54 L 151.45 63.65 L 149.27 65.07 L 148.53 67.81 L 147.55 69.67 L 146.52 72.39 L 146.35 75.08 L 146.05 77.77 L 145.91 79.52 L 145.62 82.18 L 145.46 84.71 L 144.90 86.32 L 143.73 81.60 L 143.46 84.18 L 143.32 86.39 L 143.31 81.69 L 143.24 76.98 L 143.08 72.20 L 142.56 74.35 L 141.33 76.07 L 134.76 71.24 L 134.68 73.56 L 134.53 68.74 L 134.20 63.86 L 133.62 65.07 L 133.54 66.13 L 133.46 66.14 L 133.33 65.78 Z" fill="#d0d0d0" fill-opacity="0.5" stroke="none"/>
<path d="M 164.84 60.25 L 164.89 60.25 L 166.16 60.25 L 166.16 61.00 L 164.89 63.47 L 164.84 65.18 Z" fill="#d0d0d0" fill-opacity="0.5" stroke="none"/>
<path d="M 170.23 42.57 L 173.52 42.57 L 173.52 42.67 L 170.23 44.02 Z" fill="#d0d0d0" fill-opacity="0.5" stroke="none"/>
<path d="M 177.07 33.75 L 177.16 33.75 L 184.65 33.75 L 185.59 33.75 L 185.67 33.75 L 186.89 33.75 L 186.99 33.75 L 187.03 33.75 L 187.13 33.75 L 187.59 33.75 L 187.77 33.75 L 188.25 33.75 L 188.78 33.75 L 188.92 33.75 L 188.92 35.25 L 188.78 38.13 L 188.25 40.49 L 187.77 40.84 L 187.59 43.47 L 187.13 46.13 L 187.03 48.06 L 186.99 49.92 L 186.89 44.89 L 185.67 39.79 L 185.59 41.43 L 184.65 36.30 L 177.16 38.13 L 177.07 38.91 Z" fill="#d0d0d0" fill-opacity="0.5" stroke="none"/>
<path d="M 189.30 31.80 L 190.06 31.80 L 190.06 34.31 L 189.30 36.97 Z" fill="#d0d0d0" fill-opacity="0.5" stroke="none"/>
<path d="M 194.05 30.55 L 194.71 30.55 L 194.82 30.55 L 194.82 32.21 L 194.71 32.82 L 194.05 35.72 Z" fill="#d0d0d0" fill-opacity="0.5" stroke="none"/>
<path d="M 204.92 25.69 L 206.90 25.69 L 208.20 25.69 L 208.33 25.69 L 208.44 25.69 L 212.95 25.69 L 215.29 25.69 L 215.94 25.69 L 218.95 25.69 L 219.28 25.69 L 219.29 25.69 L 219.38 25.69 L 219.44 25.69 L 219.53 25.69 L 219.66 25.69 L 226.45 25.69 L 226.46 25.69 L 226.67 25.69 L 227.14 25.69 L 227.42 25.69 L 227.62 25.69 L 227.87 25.69 L 228.25 25.69 L 230.49 25.69 L 231.01 25.69 L 231.60 25.69 L 231.73 25.69 L 233.33 25.69 L 233.79 25.69 L 234.26 25.69 L 234.31 25.69 L 240.32 25.69 L 247.48 25.69 L 251.26 25.69 L 251.97 25.69 L 252.50 25.69 L 253.57 25.69 L 255.60 25.69 L 258.33 25.69 L 258.49 25.69 L 260.41 25.69 L 260.53 25.69 L 260.64 25.69 L 261.32 25.69 L 261.61 25.69 L 270.58 25.69 L 272.56 25.69 L 273.33 25.69 L 273.42 25.69 L 273.53 25.69 L 273.98 25.69 L 274.12 25.69 L 275.28 25.69 L 276.16 25.69 L 278.74 25.69 L 279.42 25.69 L 279.50 25.69 L 279.65 25.69 L 281.93 25.69 L 289.77 25.69 L 291.20 25.69 L 294.53 25.69 L 297.58 25.69 L 297.66 25.69 L 297.83 25.69 L 298.30 25.69 L 300.05 25.69 L 300.50 25.69 L 300.57 25.69 L 300.61 25.69 L 300.71 25.69 L 300.75 25.69 L 300.88 25.69 L 301.30 25.69 L 303.07 25.69 L 303.39 25.69 L 303.47 25.69 L 303.57 25.69 L 303.73 25.69 L 303.86 25.69 L 304.05 25.69 L 310.92 25.69 L 312.10 25.69 L 312.29 25.69 L 312.76 25.69 L 312.92 25.69 L 313.02 25.69 L 313.38 25.69 L 315.12 25.69 L 315.46 25.69 L 315.86 25.69 L 316.40 25.69 L 318.58 25.69 L 318.95 25.69 L 318.98 25.69 L 319.11 25.69 L 319.39 25.69 L 322.04 25.69 L 324.79 25.69 L 324.91 25.69 L 332.99 25.69 L 334.11 25.69 L 336.76 25.69 L 337.28 25.69 L 338.50 25.69 L 342.97 25.69 L 343.05 25.69 L 343.20 25.69 L 343.56 25.69 L 353.37 25.69 L 355.28 25.69 L 355.49 25.69 L 356.51 25.69 L 357.73 25.69 L 359.73 25.69 L 360.98 25.69 L 361.62 25.69 L 363.51 25.69 L 364.55 25.69 L 364.70 25.69 L 364.74 25.69 L 365.57 25.69 L 376.33 25.69 L 376.37 25.69 L 376.70 25.69 L 382.37 25.69 L 386.08 25.69 L 387.45 25.69 L 396.05 25.69 L 397.81 25.69 L 400.11 25.69 L 403.69 25.69 L 409.10 25.69 L 409.75 25.69 L 419.31 25.69 L 419.45 25.69 L 421.83 25.69 L 425.50 25.69 L 427.88 25.69 L 440.12 25.69 L 440.27 25.69 L 440.36 25.69 L 443.25 25.69 L 445.98 25.69 L 446.17 25.69 L 448.96 25.69 L 449.00 25.69 L 449.06 25.69 L 449.09 25.69 L 452.02 25.69 L 452.05 25.69 L 452.20 25.69 L 452.52 25.69 L 465.62 25.69 L 467.20 25.69 L 468.63 25.69 L 473.91 25.69 L 484.89 25.69 L 488.51 25.69 L 488.62 25.69 L 489.05 25.69 L 490.86 25.69 L 491.85 25.69 L 492.00 25.69 L 492.09 25.69 L 494.51 25.69 L 506.01 25.69 L 506.82 25.69 L 509.68 25.69 L 509.89 25.69 L 512.77 25.69 L 527.48 25.69 L 527.55 25.69 L 527.65 25.69 L 528.07 25.69 L 530.26 25.69 L 533.73 25.69 L 534.17 25.69 L 536.81 25.69 L 536.87 25.69 L 536.92 25.69 L 537.05 25.69 L 537.17 25.69 L 537.57 25.69 L 545.33 25.69 L 548.34 25.69 L 548.70 25.69 L 548.91 25.69 L 549.73 25.69 L 552.16 25.69 L 552.66 25.69 L 554.99 25.69 L 555.33 25.69 L 555.55 25.69 L 557.93 25.69 L 566.37 25.69 L 567.50 25.69 L 573.88 25.69 L 573.96 25.69 L 576.89 25.69 L 579.69 25.69 L 591.12 25.69 L 591.83 25.69 L 594.21 25.69 L 595.08 25.69 L 598.07 25.69 L 612.65 25.69 L 615.99 25.69 L 618.57 25.69 L 630.03 25.69 L 633.64 25.69 L 640.23 25.69 L 657.29 25.69 L 660.84 25.69 L 672.58 25.69 L 682.55 25.69 L 682.88 25.69 L 697.45 25.69 L 697.45 28.12 L 682.88 29.73 L 682.55 32.20 L 672.58 33.95 L 660.84 35.13 L 657.29 38.04 L 640.23 38.61 L 633.64 40.16 L 630.03 38.89 L 618.57 41.35 L 615.99 44.23 L 612.65 47.09 L 598.07 48.75 L 595.08 48.67 L 594.21 51.52 L 591.83 54.35 L 591.12 49.32 L 579.69 50.54 L 576.89 51.27 L 573.96 46.21 L 573.88 47.19 L 567.50 42.09 L 566.37 42.50 L 557.93 43.91 L 555.55 46.51 L 555.33 49.06 L 554.99 47.37 L 552.66 50.02 L 552.16 52.26 L 549.73 47.22 L 548.91 48.10 L 548.70 43.02 L 548.34 45.40 L 545.33 45.77 L 537.57 40.68 L 537.17 41.79 L 537.05 36.65 L 536.92 38.88 L 536.87 33.73 L 536.81 28.52 L 534.17 31.47 L 533.73 33.06 L 530.26 35.83 L 528.07 38.74 L 527.65 40.80 L 527.55 35.64 L 527.48 37.50 L 512.77 32.33 L 509.89 32.63 L 509.68 35.32 L 506.82 38.05 L 506.01 32.89 L 494.51 34.94 L 492.09 37.64 L 492.00 32.47 L 491.85 32.60 L 490.86 34.98 L 489.05 37.87 L 488.62 40.75 L 488.51 40.72 L 484.89 35.57 L 473.91 38.20 L 468.63 33.03 L 467.20 34.89 L 465.62 36.39 L 452.52 39.29 L 452.20 42.17 L 452.05 43.44 L 452.02 45.94 L 449.09 48.79 L 449.06 51.15 L 449.00 46.10 L 448.96 48.94 L 446.17 50.54 L 445.98 53.19 L 443.25 55.01 L 440.36 56.76 L 440.27 51.80 L 440.12 53.45 L 427.88 48.41 L 425.50 43.33 L 421.83 46.19 L 419.45 48.31 L 419.31 47.05 L 409.75 41.96 L 409.10 44.59 L 403.69 39.47 L 400.11 42.33 L 397.81 44.76 L 396.05 44.49 L 387.45 46.27 L 386.08 47.36 L 382.37 49.60 L 376.70 44.54 L 376.37 39.43 L 376.33 41.92 L 365.57 36.79 L 364.74 39.68 L 364.70 41.35 L 364.55 40.10 L 363.51 34.95 L 361.62 37.29 L 360.98 39.95 L 359.73 41.96 L 357.73 36.82 L 356.51 31.64 L 355.49 34.56 L 355.28 36.61 L 353.37 39.23 L 343.56 39.78 L 343.20 40.55 L 343.05 42.22 L 342.97 44.40 L 338.50 39.29 L 337.28 42.17 L 336.76 44.80 L 334.11 46.41 L 332.99 48.55 L 324.91 51.12 L 324.79 46.06 L 322.04 47.82 L 319.39 49.93 L 319.11 52.17 L 318.98 54.75 L 318.95 57.36 L 318.58 60.15 L 316.40 61.55 L 315.86 64.15 L 315.46 66.32 L 315.12 68.44 L 313.38 70.75 L 313.02 65.88 L 312.92 68.30 L 312.76 69.78 L 312.29 70.19 L 312.10 72.73 L 310.92 74.97 L 304.05 76.73 L 303.86 78.15 L 303.73 80.43 L 303.57 82.80 L 303.47 83.75 L 303.39 84.72 L 303.07 79.98 L 301.30 81.51 L 300.88 83.97 L 300.75 79.22 L 300.71 80.91 L 300.61 76.13 L 300.57 77.89 L 300.50 73.10 L 300.05 68.26 L 298.30 70.54 L 297.83 73.46 L 297.66 73.27 L 297.58 74.64 L 294.53 69.80 L 291.20 72.10 L 289.77 74.81 L 281.93 77.51 L 279.65 79.75 L 279.50 81.70 L 279.42 84.36 L 278.74 86.72 L 276.16 87.33 L 275.28 88.17 L 274.12 90.10 L 273.98 85.43 L 273.53 87.48 L 273.42 88.03 L 273.33 88.56 L 272.56 83.84 L 270.58 85.78 L 261.61 87.17 L 261.32 88.08 L 260.64 90.21 L 260.53 88.88 L 260.41 88.03 L 258.49 83.32 L 258.33 85.84 L 255.60 86.65 L 253.57 88.10 L 252.50 83.39 L 251.97 78.64 L 251.26 80.19 L 247.48 82.30 L 240.32 77.53 L 234.31 72.72 L 234.26 75.03 L 233.79 70.21 L 233.33 65.32 L 231.73 67.23 L 231.60 67.51 L 231.01 62.60 L 230.49 64.50 L 228.25 66.71 L 227.87 67.23 L 227.62 69.67 L 227.42 71.31 L 227.14 66.45 L 226.67 69.19 L 226.46 68.22 L 226.45 63.35 L 219.66 58.41 L 219.53 53.42 L 219.44 53.65 L 219.38 48.65 L 219.29 49.35 L 219.28 44.31 L 218.95 39.20 L 215.94 41.78 L 215.29 42.59 L 212.95 37.46 L 208.44 40.33 L 208.33 38.84 L 208.20 33.71 L 206.90 28.50 L 204.92 30.91 Z" fill="#d0d0d0" fill-opacity="0.5" stroke="none"/>
<path d="M 706.76 25.00 L 706.90 25.00 L 715.12 25.00 L 715.72 25.00 L 727.60 25.00 L 727.82 25.00 L 727.93 25.00 L 728.03 25.00 L 728.07 25.00 L 743.48 25.00 L 757.68 25.00 L 764.18 25.00 L 764.28 25.00 L 764.47 25.00 L 769.45 25.00 L 788.88 25.00 L 789.00 25.00 L 800.58 25.00 L 803.78 25.00 L 806.90 25.00 L 812.48 25.00 L 812.86 25.00 L 824.00 25.00 L 827.65 25.00 L 830.60 25.00 L 842.87 25.00 L 846.41 25.00 L 866.32 25.00 L 870.65 25.00 L 873.25 25.00 L 876.01 25.00 L 883.69 25.00 L 883.74 25.00 L 887.53 25.00 L 891.20 25.00 L 897.19 25.00 L 897.36 25.00 L 918.89 25.00 L 930.35 25.00 L 936.49 25.00 L 947.17 25.00 L 952.11 25.00 L 954.94 25.00 L 970.28 25.00 L 970.36 25.00 L 970.45 25.00 L 973.12 25.00 L 976.48 25.00 L 982.34 25.00 L 991.77 25.00 L 993.64 25.00 L 993.72 25.00 L 993.85 25.00 L 1021.57 25.00 L 1033.92 25.00 L 1041.89 25.00 L 1045.48 25.00 L 1064.12 25.00 L 1065.01 25.00 L 1066.01 25.00 L 1067.11 25.00 L 1074.36 25.00 L 1088.14 25.00 L 1088.20 25.00 L 1096.44 25.00 L 1096.51 25.00 L 1097.56 25.00 L 1100.10 25.00 L 1109.27 25.00 L 1109.46 25.00 L 1109.57 25.00 L 1120.70 25.00 L 1125.89 25.00 L 1126.04 25.00 L 1126.24 25.00 L 1128.98 25.00 L 1130.71 25.00 L 1142.74 25.00 L 1145.78 25.00 L 1164.03 25.00 L 1168.96 25.00 L 1170.00 25.00 L 1170.00 35.51 L 1168.96 36.98 L 1164.03 37.20 L 1145.78 32.02 L 1142.74 34.02 L 1130.71 36.95 L 1128.98 37.14 L 1126.24 38.66 L 1126.04 38.77 L 1125.89 40.85 L 1120.70 43.17 L 1109.57 42.60 L 1109.46 41.75 L 1109.27 41.32 L 1100.10 36.18 L 1097.56 37.71 L 1096.51 40.42 L 1096.44 41.97 L 1088.20 36.84 L 1088.14 31.66 L 1074.36 31.09 L 1067.11 32.27 L 1066.01 32.47 L 1065.01 27.26 L 1064.12 30.21 L 1045.48 30.21 L 1041.89 30.22 L 1033.92 32.66 L 1021.57 35.59 L 993.85 37.99 L 993.72 38.10 L 993.64 39.06 L 991.77 33.89 L 982.34 35.53 L 976.48 37.83 L 973.12 40.15 L 970.45 41.32 L 970.36 36.17 L 970.28 37.39 L 954.94 38.82 L 952.11 39.59 L 947.17 41.22 L 936.49 43.64 L 930.35 46.52 L 918.89 47.78 L 897.36 48.78 L 897.19 43.70 L 891.20 46.17 L 887.53 47.96 L 883.74 50.57 L 883.69 52.03 L 876.01 46.98 L 873.25 49.36 L 870.65 49.78 L 866.32 52.38 L 846.41 53.16 L 842.87 53.79 L 830.60 55.12 L 827.65 57.93 L 824.00 59.27 L 812.86 58.64 L 812.48 53.65 L 806.90 55.90 L 803.78 57.53 L 800.58 52.53 L 789.00 52.34 L 788.88 51.96 L 769.45 46.91 L 764.47 47.38 L 764.28 46.53 L 764.18 48.41 L 757.68 43.33 L 743.48 44.48 L 728.07 39.36 L 728.03 41.36 L 727.93 36.21 L 727.82 35.78 L 727.60 30.59 L 715.72 33.54 L 715.12 28.33 L 706.90 30.22 L 706.76 30.24 Z" fill="#d0d0d0" fill-opacity="0.5" stroke="none"/>
<polyline fill="none" stroke="#111" stroke-width="1.2" points="70.00,111.80 71.08,110.46 77.88,109.48 78.18,108.39 78.88,112.84 78.89,117.23 78.92,121.55 79.02,125.79 79.10,124.96 79.21,124.47 79.51,124.84 80.04,122.59 81.46,120.15 81.86,124.49 82.01,125.61 82.12,123.18 82.18,121.73 82.30,120.38 83.05,124.72 84.03,122.28 84.84,119.85 84.90,117.47 85.35,115.28 85.60,119.65 85.67,118.81 85.90,116.58 86.03,114.37 86.35,112.35 86.98,109.84 87.95,107.95 88.56,106.41 88.62,103.77 88.76,103.63 88.82,101.53 91.24,99.43 91.73,103.96 91.87,103.76 91.98,103.68 92.07,101.13 99.13,99.46 100.14,98.28 100.95,102.83 101.02,101.74 101.32,99.73 102.79,97.40 103.42,95.00 103.75,92.79 103.83,90.56 104.06,87.95 104.47,85.55 105.31,85.24 106.19,89.91 106.25,87.60 106.79,86.58 106.93,87.48 106.98,86.46 109.35,84.48 109.90,89.16 109.91,86.44 109.95,83.80 110.01,81.03 110.58,85.76 111.65,84.94 112.92,82.30 113.11,80.99 120.20,80.57 121.17,78.13 121.65,75.44 123.38,80.23 124.19,77.82 124.91,75.15 125.72,73.78 126.61,78.57 126.75,77.67 127.15,74.98 128.32,72.54 128.45,70.16 129.20,67.82 129.43,66.95 129.87,64.45 130.50,62.53 131.08,60.87 133.33,65.78 133.46,66.14 133.54,66.13 133.62,65.07 134.20,63.86 134.53,68.74 134.68,73.56 134.76,71.24 141.33,76.07 142.56,74.35 143.08,72.20 143.24,76.98 143.31,81.69 143.32,86.39 143.46,84.18 143.73,81.60 144.90,86.32 145.46,84.71 145.62,82.18 145.91,79.52 146.05,77.77 146.35,75.08 146.52,72.39 147.55,69.67 148.53,67.81 149.27,65.07 151.45,63.65 152.10,68.54 152.40,65.80 152.67,70.64 152.73,69.11 152.83,67.29 155.38,65.04 155.53,62.47 155.71,60.25 164.84,65.18 164.89,63.47 166.16,61.00 167.44,58.63 167.52,56.60 167.66,55.60 167.77,54.98 168.09,52.37 168.82,50.17 169.54,47.88 169.67,45.43 170.07,42.57 170.23,44.02 173.52,42.67 173.77,40.39 173.92,38.95 176.52,36.26 176.67,33.75 177.07,38.91 177.16,38.13 184.65,36.30 185.59,41.43 185.67,39.79 186.89,44.89 186.99,49.92 187.03,48.06 187.13,46.13 187.59,43.47 187.77,40.84 188.25,40.49 188.78,38.13 188.92,35.25 188.96,32.36 189.26,31.80 189.30,36.97 190.06,34.31 191.02,31.73 191.89,31.35 192.11,30.55 194.05,35.72 194.71,32.82 194.82,32.21 195.05,30.46 197.62,28.13 197.93,25.69 204.92,30.91 206.90,28.50 208.20,33.71 208.33,38.84 208.44,40.33 212.95,37.46 215.29,42.59 215.94,41.78 218.95,39.20 219.28,44.31 219.29,49.35 219.38,48.65 219.44,53.65 219.53,53.42 219.66,58.41 226.45,63.35 226.46,68.22 226.67,69.19 227.14,66.45 227.42,71.31 227.62,69.67 227.87,67.23 228.25,66.71 230.49,64.50 231.01,62.60 231.60,67.51 231.73,67.23 233.33,65.32 233.79,70.21 234.26,75.03 234.31,72.72 240.32,77.53 247.48,82.30 251.26,80.19 251.97,78.64 252.50,83.39 253.57,88.10 255.60,86.65 258.33,85.84 258.49,83.32 260.41,88.03 260.53,88.88 260.64,90.21 261.32,88.08 261.61,87.17 270.58,85.78 272.56,83.84 273.33,88.56 273.42,88.03 273.53,87.48 273.98,85.43 274.12,90.10 275.28,88.17 276.16,87.33 278.74,86.72 279.42,84.36 279.50,81.70 279.65,79.75 281.93,77.51 289.77,74.81 291.20,72.10 294.53,69.80 297.58,74.64 297.66,73.27 297.83,73.46 298.30,70.54 300.05,68.26 300.50,73.10 300.57,77.89 300.61,76.13 300.71,80.91 300.75,79.22 300.88,83.97 301.30,81.51 303.07,79.98 303.39,84.72 303.47,83.75 303.57,82.80 303.73,80.43 303.86,78.15 304.05,76.73 310.92,74.97 312.10,72.73 312.29,70.19 312.76,69.78 312.92,68.30 313.02,65.88 313.38,70.75 315.12,68.44 315.46,66.32 315.86,64.15 316.40,61.55 318.58,60.15 318.95,57.36 318.98,54.75 319.11,52.17 319.39,49.93 322.04,47.82 324.79,46.06 324.91,51.12 332.99,48.55 334.11,46.41 336.76,44.80 337.28,42.17 338.50,39.29 342.97,44.40 343.05,42.22 343.20,40.55 343.56,39.78 353.37,39.23 355.28,36.61 355.49,34.56 356.51,31.64 357.73,36.82 359.73,41.96 360.98,39.95 361.62,37.29 363.51,34.95 364.55,40.10 364.70,41.35 364.74,39.68 365.57,36.79 376.33,41.92 376.37,39.43 376.70,44.54 382.37,49.60 386.08,47.36 387.45,46.27 396.05,44.49 397.81,44.76 400.11,42.33 403.69,39.47 409.10,44.59 409.75,41.96 419.31,47.05 419.45,48.31 421.83,46.19 425.50,43.33 427.88,48.41 440.12,53.45 440.27,51.80 440.36,56.76 443.25,55.01 445.98,53.19 446.17,50.54 448.96,48.94 449.00,46.10 449.06,51.15 449.09,48.79 452.02,45.94 452.05,43.44 452.20,42.17 452.52,39.29 465.62,36.39 467.20,34.89 468.63,33.03 473.91,38.20 484.89,35.57 488.51,40.72 488.62,40.75 489.05,37.87 490.86,34.98 491.85,32.60 492.00,32.47 492.09,37.64 494.51,34.94 506.01,32.89 506.82,38.05 509.68,35.32 509.89,32.63 512.77,32.33 527.48,37.50 527.55,35.64 527.65,40.80 528.07,38.74 530.26,35.83 533.73,33.06 534.17,31.47 536.81,28.52 536.87,33.73 536.92,38.88 537.05,36.65 537.17,41.79 537.57,40.68 545.33,45.77 548.34,45.40 548.70,43.02 548.91,48.10 549.73,47.22 552.16,52.26 552.66,50.02 554.99,47.37 555.33,49.06 555.55,46.51 557.93,43.91 566.37,42.50 567.50,42.09 573.88,47.19 573.96,46.21 576.89,51.27 579.69,50.54 591.12,49.32 591.83,54.35 594.21,51.52 595.08,48.67 598.07,48.75 612.65,47.09 615.99,44.23 618.57,41.35 630.03,38.89 633.64,40.16 640.23,38.61 657.29,38.04 660.84,35.13 672.58,33.95 682.55,32.20 682.88,29.73 697.45,28.12 699.58,25.43 700.76,25.00 706.76,30.24 706.90,30.22 715.12,28.33 715.72,33.54 727.60,30.59 727.82,35.78 727.93,36.21 728.03,41.36 728.07,39.36 743.48,44.48 757.68,43.33 764.18,48.41 764.28,46.53 764.47,47.38 769.45,46.91 788.88,51.96 789.00,52.34 800.58,52.53 803.78,57.53 806.90,55.90 812.48,53.65 812.86,58.64 824.00,59.27 827.65,57.93 830.60,55.12 842.87,53.79 846.41,53.16 866.32,52.38 870.65,49.78 873.25,49.36 876.01,46.98 883.69,52.03 883.74,50.57 887.53,47.96 891.20,46.17 897.19,43.70 897.36,48.78 918.89,47.78 930.35,46.52 936.49,43.64 947.17,41.22 952.11,39.59 954.94,38.82 970.28,37.39 970.36,36.17 970.45,41.32 973.12,40.15 976.48,37.83 982.34,35.53 991.77,33.89 993.64,39.06 993.72,38.10 993.85,37.99 1021.57,35.59 1033.92,32.66 1041.89,30.22 1045.48,30.21 1064.12,30.21 1065.01,27.26 1066.01,32.47 1067.11,32.27 1074.36,31.09 1088.14,31.66 1088.20,36.84 1096.44,41.97 1096.51,40.42 1097.56,37.71 1100.10,36.18 1109.27,41.32 1109.46,41.75 1109.57,42.60 1120.70,43.17 1125.89,40.85 1126.04,38.77 1126.24,38.66 1128.98,37.14 1130.71,36.95 1142.74,34.02 1145.78,32.02 1164.03,37.20 1168.96,36.98 1170.00,35.51"/>
<text x="620.0" y="588" text-anchor="middle" font-family="sans-serif" font-size="12" fill="#333">UTC time</text>
<text x="15" y="287.5" transform="rotate(-90 15,287.5)" text-anchor="middle" font-family="sans-serif" font-size="12" fill="#333">Capital</text>
</svg>