<svg xmlns="http://www.w3.org/2000/svg" width="1200" height="600" viewBox="0 0 1200 600">
<desc>Equity curve with drawdown fill; x-axis is months only (no exact timestamps)</desc>
<text x="600.0" y="18.0" text-anchor="middle" font-family="sans-serif" font-size="14">Balance Curve 2010 (UTC)</text>
<rect x="70" y="25" width="1100" height="525" fill="white" stroke="#ccc" />
<line x1="70" y1="550.00" x2="1170" y2="550.00" stroke="#eee"/>
<text x="62" y="554.0" text-anchor="end" font-family="sans-serif" font-size="11" fill="#555">0.00</text>
<line x1="70" y1="445.00" x2="1170" y2="445.00" stroke="#eee"/>
<text x="62" y="449.0" text-anchor="end" font-family="sans-serif" font-size="11" fill="#555">57674</text>
<line x1="70" y1="340.00" x2="1170" y2="340.00" stroke="#eee"/>
<text x="62" y="344.0" text-anchor="end" font-family="sans-serif" font-size="11" fill="#555">115348</text>
<line x1="70" y1="235.00" x2="1170" y2="235.00" stroke="#eee"/>
<text x="62" y="239.0" text-anchor="end" font-family="sans-serif" font-size="11" fill="#555">173022</text>
<line x1="70" y1="130.00" x2="1170" y2="130.00" stroke="#eee"/>
<text x="62" y="134.0" text-anchor="end" font-family="sans-serif" font-size="11" fill="#555">230696</text>
<line x1="70" y1="25.00" x2="1170" y2="25.00" stroke="#eee"/>
<text x="62" y="29.0" text-anchor="end" font-family="sans-serif" font-size="11" fill="#555">288370</text>
<line x1="161.67" y1="25" x2="161.67" y2="550" stroke="#f2f2f2"/>
<line x1="253.33" y1="25" x2="253.33" y2="550" stroke="#f2f2f2"/>
<line x1="345.00" y1="25" x2="345.00" y2="550" stroke="#f2f2f2"/>
<line x1="436.67" y1="25" x2="436.67" y2="550" stroke="#f2f2f2"/>
<line x1="528.33" y1="25" x2="528.33" y2="550" stroke="#f2f2f2"/>
<line x1="620.00" y1="25" x2="620.00" y2="550" stroke="#f2f2f2"/>
<line x1="711.67" y1="25" x2="711.67" y2="550" stroke="#f2f2f2"/>
<line x1="803.33" y1="25" x2="803.33" y2="550" stroke="#f2f2f2"/>
<line x1="895.00" y1="25" x2="895.00" y2="550" stroke="#f2f2f2"/>
<line x1="986.67" y1="25" x2="986.67" y2="550" stroke="#f2f2f2"/>
<line x1="1078.33" y1="25" x2="1078.33" y2="550" stroke="#f2f2f2"/>
<text x="115.83" y="566.00" text-anchor="middle" font-family="sans-serif" font-size="11" fill="#444">Jan</text>
<text x="207.50" y="566.00" text-anchor="middle" font-family="sans-serif" font-size="11" fill="#444">Feb</text>
<text x="299.17" y="566.00" text-anchor="middle" font-family="sans-serif" font-size="11" fill="#444">Mar</text>
<text x="390.83" y="566.00" text-anchor="middle" font-family="sans-serif" font-size="11" fill="#444">Apr</text>
<text x="482.50" y="566.00" text-anchor="middle" font-family="sans-serif" font-size="11" fill="#444">May</text>
<text x="574.17" y="566.00" text-anchor="middle" font-family="sans-serif" font-size="11" fill="#444">Jun</text>
<text x="665.83" y="566.00" text-anchor="middle" font-family="sans-serif" font-size="11" fill="#444">Jul</text>
<text x="757.50" y="566.00" text-anchor="middle" font-family="sans-serif" font-size="11" fill="#444">Aug</text>
<text x="849.17" y="566.00" text-anchor="middle" font-family="sans-serif" font-size="11" fill="#444">Sep</text>
<text x="940.83" y="566.00" text-anchor="middle" font-family="sans-serif" font-size="11" fill="#444">Oct</text>
<text x="1032.50" y="566.00" text-anchor="middle" font-family="sans-serif" font-size="11" fill="#444">Nov</text>
<text x="1124.17" y="566.00" text-anchor="middle" font-family="sans-serif" font-size="11" fill="#444">Dec</text>
<line x1="70" y1="550" x2="1170" y2="550" stroke="#888"/>
<line x1="70" y1="25" x2="70" y2="550" stroke="#888"/>
<line x1="75.09" y1="550.00" x2="75.09" y2="556.00" stroke="#888"/>
<line x1="1167.30"   y1="550.00" x2="1167.30"   y2="556.00" stroke="#888"/>
<text x="75.09" y="582.00" text-anchor="start" font-family="sans-serif" font-size="11" fill="#333">Initial Balance: 197051</text>
<text x="1167.30"   y="582.00" text-anchor="end"   font-family="sans-serif" font-size="11" fill="#333">Ending Balance: 288370</text>
<path d="M 115.83 183.65 L 115.83 184.06 Z" fill="#d0d0d0" fill-opacity="0.5" stroke="none"/>
<path d="M 207.50 169.47 L 225.83 169.47 L 244.17 169.47 L 244.17 170.35 L 225.83 172.49 L 207.50 175.25 Z" fill="#d0d0d0" fill-opacity="0.5" stroke="none"/>
<path d="M 306.81 161.92 L 306.81 163.06 Z" fill="#d0d0d0" fill-opacity="0.5" stroke="none"/>
<path d="M 398.47 153.15 L 413.75 153.15 L 429.03 153.15 L 437.60 153.15 L 439.47 153.15 L 441.34 153.15 L 443.21 153.15 L 445.09 153.15 L 446.96 153.15 L 448.83 153.15 L 450.70 153.15 L 452.57 153.15 L 452.57 154.73 L 450.70 157.94 L 448.83 161.04 L 446.96 163.87 L 445.09 166.54 L 443.21 169.32 L 441.34 172.02 L 439.47 174.31 L 437.60 168.51 L 429.03 162.62 L 413.75 156.66 L 398.47 159.16 Z" fill="#d0d0d0" fill-opacity="0.5" stroke="none"/>
<path d="M 471.28 134.26 L 473.15 134.26 L 475.02 134.26 L 476.89 134.26 L 476.89 134.59 L 475.02 137.35 L 473.15 138.93 L 471.28 140.54 Z" fill="#d0d0d0" fill-opacity="0.5" stroke="none"/>
<path d="M 482.50 129.17 L 484.37 129.17 L 486.24 129.17 L 488.11 129.17 L 489.98 129.17 L 491.85 129.17 L 493.72 129.17 L 495.60 128.09 L 497.47 128.09 L 497.47 140.61 L 495.60 134.29 L 493.72 131.69 L 491.85 132.78 L 489.98 136.01 L 488.11 129.66 L 486.24 131.43 L 484.37 132.32 L 482.50 135.52 Z" fill="#d0d0d0" fill-opacity="0.5" stroke="none"/>
<path d="M 501.21 128.09 L 503.08 128.09 L 504.95 128.09 L 506.82 128.09 L 508.69 128.09 L 510.56 128.09 L 510.56 128.31 L 508.69 130.95 L 506.82 133.04 L 504.95 135.93 L 503.08 137.97 L 501.21 138.12 Z" fill="#d0d0d0" fill-opacity="0.5" stroke="none"/>
<path d="M 518.04 124.38 L 518.04 124.49 Z" fill="#d0d0d0" fill-opacity="0.5" stroke="none"/>
<path d="M 563.38 95.51 L 568.77 95.51 L 574.17 95.51 L 579.56 95.51 L 584.95 95.51 L 590.34 95.51 L 595.74 95.51 L 595.74 97.74 L 590.34 100.64 L 584.95 99.21 L 579.56 97.12 L 574.17 97.54 L 568.77 99.39 L 563.38 102.29 Z" fill="#d0d0d0" fill-opacity="0.5" stroke="none"/>
<path d="M 665.83 76.63 L 665.83 76.67 Z" fill="#d0d0d0" fill-opacity="0.5" stroke="none"/>
<path d="M 706.57 70.15 L 719.31 70.15 L 734.58 70.15 L 749.86 70.15 L 765.14 70.15 L 780.42 70.15 L 795.69 70.15 L 812.50 70.15 L 830.83 70.15 L 849.17 70.15 L 867.50 70.15 L 885.83 70.15 L 897.86 70.15 L 903.59 70.15 L 909.32 70.15 L 915.05 70.15 L 920.78 70.15 L 926.51 70.15 L 932.24 70.15 L 932.24 72.26 L 926.51 70.35 L 920.78 74.12 L 915.05 77.79 L 909.32 70.72 L 903.59 74.47 L 897.86 75.95 L 885.83 78.85 L 867.50 80.12 L 849.17 82.17 L 830.83 83.43 L 812.50 82.69 L 795.69 80.39 L 780.42 83.69 L 765.14 86.01 L 749.86 88.13 L 734.58 85.51 L 719.31 78.58 L 706.57 71.51 Z" fill="#d0d0d0" fill-opacity="0.5" stroke="none"/>
<path d="M 1016.13 41.39 L 1022.68 41.39 L 1029.23 41.39 L 1035.77 41.39 L 1042.32 41.39 L 1048.87 41.39 L 1055.42 41.39 L 1061.96 41.39 L 1068.51 41.39 L 1075.06 41.39 L 1081.03 41.39 L 1086.42 41.39 L 1091.81 41.39 L 1097.21 41.39 L 1102.60 41.39 L 1102.60 42.40 L 1097.21 44.29 L 1091.81 47.35 L 1086.42 50.32 L 1081.03 43.01 L 1075.06 47.13 L 1068.51 50.61 L 1061.96 52.68 L 1055.42 55.74 L 1048.87 48.41 L 1042.32 50.96 L 1035.77 43.58 L 1029.23 46.43 L 1022.68 48.20 L 1016.13 48.80 Z" fill="#d0d0d0" fill-opacity="0.5" stroke="none"/>
<path d="M 1129.56 32.62 L 1134.95 32.62 L 1140.34 32.62 L 1140.34 34.21 L 1134.95 33.90 L 1129.56 34.58 Z" fill="#d0d0d0" fill-opacity="0.5" stroke="none"/>
<path d="M 1151.13 30.22 L 1151.13 33.25 Z" fill="#d0d0d0" fill-opacity="0.5" stroke="none"/>
<polyline fill="none" stroke="#111" stroke-width="1.2" points="75.09,191.25 85.28,188.33 95.46,185.39 105.65,183.65 115.83,184.06 126.02,182.60 136.20,180.64 146.39,177.83 156.57,174.78 170.83,172.52 189.17,169.47 207.50,175.25 225.83,172.49 244.17,170.35 260.97,167.26 276.25,164.26 291.53,161.92 306.81,163.06 322.08,160.76 337.36,158.55 352.64,156.71 367.92,154.96 383.19,153.15 398.47,159.16 413.75,156.66 429.03,162.62 437.60,168.51 439.47,174.31 441.34,172.02 443.21,169.32 445.09,166.54 446.96,163.87 448.83,161.04 450.70,157.94 452.57,154.73 454.44,151.54 456.31,150.41 458.18,147.40 460.05,146.42 461.92,143.33 463.79,140.97 465.66,139.08 467.53,136.70 469.40,134.26 471.28,140.54 473.15,138.93 475.02,137.35 476.89,134.59 478.76,131.99 480.63,129.17 482.50,135.52 484.37,132.32 486.24,131.43 488.11,129.66 489.98,136.01 491.85,132.78 493.72,131.69 495.60,134.29 497.47,140.61 499.34,128.09 501.21,138.12 503.08,137.97 504.95,135.93 506.82,133.04 508.69,130.95 510.56,128.31 512.43,126.56 514.30,126.22 516.17,124.38 518.04,124.49 519.91,121.39 521.79,118.32 523.66,116.39 525.53,114.68 527.40,111.60 531.03,109.64 536.42,106.19 541.81,103.49 547.21,101.05 552.60,97.85 557.99,95.51 563.38,102.29 568.77,99.39 574.17,97.54 579.56,97.12 584.95,99.21 590.34,100.64 595.74,97.74 601.13,94.82 606.52,91.25 611.91,89.14 617.30,85.55 625.09,81.90 635.28,79.52 645.46,78.28 655.65,76.63 665.83,76.67 676.02,75.69 686.20,72.71 696.39,70.15 706.57,71.51 719.31,78.58 734.58,85.51 749.86,88.13 765.14,86.01 780.42,83.69 795.69,80.39 812.50,82.69 830.83,83.43 849.17,82.17 867.50,80.12 885.83,78.85 897.86,75.95 903.59,74.47 909.32,70.72 915.05,77.79 920.78,74.12 926.51,70.35 932.24,72.26 937.97,68.47 943.70,68.33 949.43,65.64 955.16,63.29 960.89,60.44 966.61,59.36 972.34,58.18 978.07,55.05 983.80,53.89 989.94,49.99 996.49,48.69 1003.04,44.52 1009.58,41.39 1016.13,48.80 1022.68,48.20 1029.23,46.43 1035.77,43.58 1042.32,50.96 1048.87,48.41 1055.42,55.74 1061.96,52.68 1068.51,50.61 1075.06,47.13 1081.03,43.01 1086.42,50.32 1091.81,47.35 1097.21,44.29 1102.60,42.40 1107.99,39.68 1113.38,39.47 1118.77,35.93 1124.17,32.62 1129.56,34.58 1134.95,33.90 1140.34,34.21 1145.74,30.22 1151.13,33.25 1156.52,29.88 1161.91,27.85 1167.30,25.00"/>
<text x="15" y="287.5" transform="rotate(-90 15,287.5)" text-anchor="middle" font-family="sans-serif" font-size="12" fill="#333">USD</text>
</svg>