<svg xmlns="http://www.w3.org/2000/svg" width="1200" height="600" viewBox="0 0 1200 600">
<desc>Equity curve with drawdown fill; x-axis is months only (no exact timestamps)</desc>
<text x="600.0" y="18.0" text-anchor="middle" font-family="sans-serif" font-size="14">Balance Curve 2011 (UTC)</text>
<rect x="70" y="25" width="1100" height="525" fill="white" stroke="#ccc" />
<line x1="70" y1="550.00" x2="1170" y2="550.00" stroke="#eee"/>
<text x="62" y="554.0" text-anchor="end" font-family="sans-serif" font-size="11" fill="#555">0.00</text>
<line x1="70" y1="445.00" x2="1170" y2="445.00" stroke="#eee"/>
<text x="62" y="449.0" text-anchor="end" font-family="sans-serif" font-size="11" fill="#555">1825954</text>
<line x1="70" y1="340.00" x2="1170" y2="340.00" stroke="#eee"/>
<text x="62" y="344.0" text-anchor="end" font-family="sans-serif" font-size="11" fill="#555">3651908</text>
<line x1="70" y1="235.00" x2="1170" y2="235.00" stroke="#eee"/>
<text x="62" y="239.0" text-anchor="end" font-family="sans-serif" font-size="11" fill="#555">5477862</text>
<line x1="70" y1="130.00" x2="1170" y2="130.00" stroke="#eee"/>
<text x="62" y="134.0" text-anchor="end" font-family="sans-serif" font-size="11" fill="#555">7303815</text>
<line x1="70" y1="25.00" x2="1170" y2="25.00" stroke="#eee"/>
<text x="62" y="29.0" text-anchor="end" font-family="sans-serif" font-size="11" fill="#555">9129769</text>
<line x1="161.67" y1="25" x2="161.67" y2="550" stroke="#f2f2f2"/>
<line x1="253.33" y1="25" x2="253.33" y2="550" stroke="#f2f2f2"/>
<line x1="345.00" y1="25" x2="345.00" y2="550" stroke="#f2f2f2"/>
<line x1="436.67" y1="25" x2="436.67" y2="550" stroke="#f2f2f2"/>
<line x1="528.33" y1="25" x2="528.33" y2="550" stroke="#f2f2f2"/>
<line x1="620.00" y1="25" x2="620.00" y2="550" stroke="#f2f2f2"/>
<line x1="711.67" y1="25" x2="711.67" y2="550" stroke="#f2f2f2"/>
<line x1="803.33" y1="25" x2="803.33" y2="550" stroke="#f2f2f2"/>
<line x1="895.00" y1="25" x2="895.00" y2="550" stroke="#f2f2f2"/>
<line x1="986.67" y1="25" x2="986.67" y2="550" stroke="#f2f2f2"/>
<line x1="1078.33" y1="25" x2="1078.33" y2="550" stroke="#f2f2f2"/>
<text x="115.83" y="566.00" text-anchor="middle" font-family="sans-serif" font-size="11" fill="#444">Jan</text>
<text x="207.50" y="566.00" text-anchor="middle" font-family="sans-serif" font-size="11" fill="#444">Feb</text>
<text x="299.17" y="566.00" text-anchor="middle" font-family="sans-serif" font-size="11" fill="#444">Mar</text>
<text x="390.83" y="566.00" text-anchor="middle" font-family="sans-serif" font-size="11" fill="#444">Apr</text>
<text x="482.50" y="566.00" text-anchor="middle" font-family="sans-serif" font-size="11" fill="#444">May</text>
<text x="574.17" y="566.00" text-anchor="middle" font-family="sans-serif" font-size="11" fill="#444">Jun</text>
<text x="665.83" y="566.00" text-anchor="middle" font-family="sans-serif" font-size="11" fill="#444">Jul</text>
<text x="757.50" y="566.00" text-anchor="middle" font-family="sans-serif" font-size="11" fill="#444">Aug</text>
<text x="849.17" y="566.00" text-anchor="middle" font-family="sans-serif" font-size="11" fill="#444">Sep</text>
<text x="940.83" y="566.00" text-anchor="middle" font-family="sans-serif" font-size="11" fill="#444">Oct</text>
<text x="1032.50" y="566.00" text-anchor="middle" font-family="sans-serif" font-size="11" fill="#444">Nov</text>
<text x="1124.17" y="566.00" text-anchor="middle" font-family="sans-serif" font-size="11" fill="#444">Dec</text>
<line x1="70" y1="550" x2="1170" y2="550" stroke="#888"/>
<line x1="70" y1="25" x2="70" y2="550" stroke="#888"/>
<line x1="74.17" y1="550.00" x2="74.17" y2="556.00" stroke="#888"/>
<line x1="1154.72"   y1="550.00" x2="1154.72"   y2="556.00" stroke="#888"/>
<text x="74.17" y="582.00" text-anchor="start" font-family="sans-serif" font-size="11" fill="#333">Initial Balance: 8923468</text>
<text x="1154.72"   y="582.00" text-anchor="end"   font-family="sans-serif" font-size="11" fill="#333">Ending Balance: 8982390</text>
<path d="M 90.83 36.37 L 90.83 36.50 Z" fill="#d0d0d0" fill-opacity="0.5" stroke="none"/>
<path d="M 189.17 29.55 L 207.50 29.55 L 207.50 30.13 L 189.17 30.35 Z" fill="#d0d0d0" fill-opacity="0.5" stroke="none"/>
<path d="M 244.17 29.47 L 259.06 29.47 L 270.52 29.47 L 281.98 29.47 L 293.44 29.47 L 304.90 29.47 L 304.90 29.65 L 293.44 30.18 L 281.98 29.74 L 270.52 30.10 L 259.06 30.53 L 244.17 31.47 Z" fill="#d0d0d0" fill-opacity="0.5" stroke="none"/>
<path d="M 327.81 29.43 L 327.81 29.82 Z" fill="#d0d0d0" fill-opacity="0.5" stroke="none"/>
<path d="M 356.46 29.25 L 379.38 29.25 L 402.29 29.25 L 425.21 29.25 L 439.36 29.25 L 444.75 29.25 L 450.15 29.25 L 455.54 29.25 L 460.93 29.25 L 466.32 29.25 L 471.72 29.25 L 477.11 29.25 L 482.50 29.25 L 487.89 29.25 L 493.28 29.25 L 498.68 29.25 L 504.07 29.25 L 509.46 29.25 L 514.85 29.25 L 520.25 29.25 L 525.64 29.25 L 532.15 29.25 L 539.79 29.25 L 547.43 29.25 L 555.07 29.25 L 562.71 29.25 L 570.35 29.25 L 577.99 29.25 L 585.62 29.25 L 593.26 29.25 L 600.90 29.25 L 608.54 29.25 L 616.18 29.25 L 623.06 29.25 L 629.17 29.25 L 635.28 29.25 L 641.39 29.25 L 647.50 29.25 L 647.50 29.74 L 641.39 30.68 L 635.28 31.16 L 629.17 32.13 L 623.06 32.09 L 616.18 32.97 L 608.54 33.95 L 600.90 34.57 L 593.26 34.81 L 585.62 34.90 L 577.99 35.87 L 570.35 35.96 L 562.71 36.91 L 555.07 37.87 L 547.43 35.77 L 539.79 36.10 L 532.15 36.68 L 525.64 35.75 L 520.25 36.14 L 514.85 36.92 L 509.46 34.84 L 504.07 35.15 L 498.68 34.19 L 493.28 34.60 L 487.89 35.37 L 482.50 35.83 L 477.11 35.99 L 471.72 36.82 L 466.32 34.72 L 460.93 32.61 L 455.54 33.54 L 450.15 34.53 L 444.75 31.11 L 439.36 32.13 L 425.21 32.24 L 402.29 32.89 L 379.38 30.77 L 356.46 31.33 Z" fill="#d0d0d0" fill-opacity="0.5" stroke="none"/>
<path d="M 690.28 25.00 L 696.39 25.00 L 702.50 25.00 L 708.61 25.00 L 714.21 25.00 L 719.31 25.00 L 724.40 25.00 L 729.49 25.00 L 734.58 25.00 L 739.68 25.00 L 744.77 25.00 L 749.86 25.00 L 754.95 25.00 L 760.05 25.00 L 765.14 25.00 L 770.23 25.00 L 775.32 25.00 L 780.42 25.00 L 785.51 25.00 L 790.60 25.00 L 795.69 25.00 L 800.79 25.00 L 805.88 25.00 L 810.97 25.00 L 816.06 25.00 L 821.16 25.00 L 826.25 25.00 L 831.34 25.00 L 836.44 25.00 L 841.53 25.00 L 846.62 25.00 L 851.71 25.00 L 856.81 25.00 L 861.90 25.00 L 866.99 25.00 L 872.08 25.00 L 877.18 25.00 L 882.27 25.00 L 887.36 25.00 L 892.45 25.00 L 897.41 25.00 L 902.24 25.00 L 907.06 25.00 L 911.89 25.00 L 916.71 25.00 L 921.54 25.00 L 926.36 25.00 L 931.18 25.00 L 936.01 25.00 L 940.83 25.00 L 945.66 25.00 L 950.48 25.00 L 955.31 25.00 L 960.13 25.00 L 964.96 25.00 L 969.78 25.00 L 974.61 25.00 L 979.43 25.00 L 984.25 25.00 L 989.21 25.00 L 994.31 25.00 L 999.40 25.00 L 1004.49 25.00 L 1009.58 25.00 L 1014.68 25.00 L 1019.77 25.00 L 1024.86 25.00 L 1029.95 25.00 L 1035.05 25.00 L 1040.14 25.00 L 1045.23 25.00 L 1050.32 25.00 L 1055.42 25.00 L 1060.51 25.00 L 1065.60 25.00 L 1070.69 25.00 L 1075.79 25.00 L 1093.61 25.00 L 1124.17 25.00 L 1154.72 25.00 L 1154.72 33.47 L 1124.17 34.26 L 1093.61 34.69 L 1075.79 34.58 L 1070.69 34.76 L 1065.60 35.47 L 1060.51 36.82 L 1055.42 34.85 L 1050.32 34.19 L 1045.23 34.82 L 1040.14 35.42 L 1035.05 33.43 L 1029.95 33.31 L 1024.86 33.28 L 1019.77 33.91 L 1014.68 34.14 L 1009.58 34.99 L 1004.49 35.60 L 999.40 33.57 L 994.31 33.87 L 989.21 34.48 L 984.25 32.47 L 979.43 32.76 L 974.61 33.60 L 969.78 34.38 L 964.96 35.31 L 960.13 36.24 L 955.31 35.69 L 950.48 36.29 L 945.66 37.21 L 940.83 36.57 L 936.01 34.55 L 931.18 32.51 L 926.36 33.21 L 921.54 34.03 L 916.71 34.62 L 911.89 35.09 L 907.06 33.10 L 902.24 34.00 L 897.41 35.44 L 892.45 36.04 L 887.36 35.54 L 882.27 35.98 L 877.18 33.98 L 872.08 34.45 L 866.99 32.46 L 861.90 32.20 L 856.81 30.21 L 851.71 30.61 L 846.62 31.51 L 841.53 31.95 L 836.44 32.87 L 831.34 33.63 L 826.25 34.32 L 821.16 34.26 L 816.06 34.97 L 810.97 36.34 L 805.88 34.27 L 800.79 32.19 L 795.69 33.18 L 790.60 31.06 L 785.51 28.96 L 780.42 29.66 L 775.32 30.64 L 770.23 28.54 L 765.14 28.37 L 760.05 27.93 L 754.95 25.83 L 749.86 26.79 L 744.77 28.01 L 739.68 25.91 L 734.58 27.32 L 729.49 28.28 L 724.40 29.01 L 719.31 29.77 L 714.21 30.76 L 708.61 31.50 L 702.50 29.41 L 696.39 27.30 L 690.28 28.27 Z" fill="#d0d0d0" fill-opacity="0.5" stroke="none"/>
<polyline fill="none" stroke="#111" stroke-width="1.2" points="74.17,36.86 82.50,36.37 90.83,36.50 99.17,35.64 107.50,35.27 115.83,34.46 124.17,33.64 132.50,32.93 140.83,32.11 149.17,31.19 157.50,30.27 170.83,29.55 189.17,30.35 207.50,30.13 225.83,29.47 244.17,31.47 259.06,30.53 270.52,30.10 281.98,29.74 293.44,30.18 304.90,29.65 316.35,29.43 327.81,29.82 339.27,29.25 356.46,31.33 379.38,30.77 402.29,32.89 425.21,32.24 439.36,32.13 444.75,31.11 450.15,34.53 455.54,33.54 460.93,32.61 466.32,34.72 471.72,36.82 477.11,35.99 482.50,35.83 487.89,35.37 493.28,34.60 498.68,34.19 504.07,35.15 509.46,34.84 514.85,36.92 520.25,36.14 525.64,35.75 532.15,36.68 539.79,36.10 547.43,35.77 555.07,37.87 562.71,36.91 570.35,35.96 577.99,35.87 585.62,34.90 593.26,34.81 600.90,34.57 608.54,33.95 616.18,32.97 623.06,32.09 629.17,32.13 635.28,31.16 641.39,30.68 647.50,29.74 653.61,28.86 659.72,28.85 665.83,28.09 671.94,26.97 678.06,25.96 684.17,25.00 690.28,28.27 696.39,27.30 702.50,29.41 708.61,31.50 714.21,30.76 719.31,29.77 724.40,29.01 729.49,28.28 734.58,27.32 739.68,25.91 744.77,28.01 749.86,26.79 754.95,25.83 760.05,27.93 765.14,28.37 770.23,28.54 775.32,30.64 780.42,29.66 785.51,28.96 790.60,31.06 795.69,33.18 800.79,32.19 805.88,34.27 810.97,36.34 816.06,34.97 821.16,34.26 826.25,34.32 831.34,33.63 836.44,32.87 841.53,31.95 846.62,31.51 851.71,30.61 856.81,30.21 861.90,32.20 866.99,32.46 872.08,34.45 877.18,33.98 882.27,35.98 887.36,35.54 892.45,36.04 897.41,35.44 902.24,34.00 907.06,33.10 911.89,35.09 916.71,34.62 921.54,34.03 926.36,33.21 931.18,32.51 936.01,34.55 940.83,36.57 945.66,37.21 950.48,36.29 955.31,35.69 960.13,36.24 964.96,35.31 969.78,34.38 974.61,33.60 979.43,32.76 984.25,32.47 989.21,34.48 994.31,33.87 999.40,33.57 1004.49,35.60 1009.58,34.99 1014.68,34.14 1019.77,33.91 1024.86,33.28 1029.95,33.31 1035.05,33.43 1040.14,35.42 1045.23,34.82 1050.32,34.19 1055.42,34.85 1060.51,36.82 1065.60,35.47 1070.69,34.76 1075.79,34.58 1093.61,34.69 1124.17,34.26 1154.72,33.47"/>
<text x="15" y="287.5" transform="rotate(-90 15,287.5)" text-anchor="middle" font-family="sans-serif" font-size="12" fill="#333">USD</text>
</svg>