<svg xmlns="http://www.w3.org/2000/svg" width="1200" height="600" viewBox="0 0 1200 600">
<desc>Equity curve with drawdown fill; x-axis is months only (no exact timestamps)</desc>
<text x="600.0" y="18.0" text-anchor="middle" font-family="sans-serif" font-size="14">Portfolio 2010 (UTC)</text>
<rect x="70" y="25" width="1100" height="525" fill="white" stroke="#ccc" />
<line x1="70" y1="550.00" x2="1170" y2="550.00" stroke="#eee"/>
<text x="62" y="554.0" text-anchor="end" font-family="sans-serif" font-size="11" fill="#555">0.00</text>
<line x1="70" y1="445.00" x2="1170" y2="445.00" stroke="#eee"/>
<text x="62" y="449.0" text-anchor="end" font-family="sans-serif" font-size="11" fill="#555">66213</text>
<line x1="70" y1="340.00" x2="1170" y2="340.00" stroke="#eee"/>
<text x="62" y="344.0" text-anchor="end" font-family="sans-serif" font-size="11" fill="#555">132427</text>
<line x1="70" y1="235.00" x2="1170" y2="235.00" stroke="#eee"/>
<text x="62" y="239.0" text-anchor="end" font-family="sans-serif" font-size="11" fill="#555">198640</text>
<line x1="70" y1="130.00" x2="1170" y2="130.00" stroke="#eee"/>
<text x="62" y="134.0" text-anchor="end" font-family="sans-serif" font-size="11" fill="#555">264854</text>
<line x1="70" y1="25.00" x2="1170" y2="25.00" stroke="#eee"/>
<text x="62" y="29.0" text-anchor="end" font-family="sans-serif" font-size="11" fill="#555">331067</text>
<line x1="161.67" y1="25" x2="161.67" y2="550" stroke="#f2f2f2"/>
<line x1="253.33" y1="25" x2="253.33" y2="550" stroke="#f2f2f2"/>
<line x1="345.00" y1="25" x2="345.00" y2="550" stroke="#f2f2f2"/>
<line x1="436.67" y1="25" x2="436.67" y2="550" stroke="#f2f2f2"/>
<line x1="528.33" y1="25" x2="528.33" y2="550" stroke="#f2f2f2"/>
<line x1="620.00" y1="25" x2="620.00" y2="550" stroke="#f2f2f2"/>
<line x1="711.67" y1="25" x2="711.67" y2="550" stroke="#f2f2f2"/>
<line x1="803.33" y1="25" x2="803.33" y2="550" stroke="#f2f2f2"/>
<line x1="895.00" y1="25" x2="895.00" y2="550" stroke="#f2f2f2"/>
<line x1="986.67" y1="25" x2="986.67" y2="550" stroke="#f2f2f2"/>
<line x1="1078.33" y1="25" x2="1078.33" y2="550" stroke="#f2f2f2"/>
<text x="115.83" y="566.00" text-anchor="middle" font-family="sans-serif" font-size="11" fill="#444">Jan</text>
<text x="207.50" y="566.00" text-anchor="middle" font-family="sans-serif" font-size="11" fill="#444">Feb</text>
<text x="299.17" y="566.00" text-anchor="middle" font-family="sans-serif" font-size="11" fill="#444">Mar</text>
<text x="390.83" y="566.00" text-anchor="middle" font-family="sans-serif" font-size="11" fill="#444">Apr</text>
<text x="482.50" y="566.00" text-anchor="middle" font-family="sans-serif" font-size="11" fill="#444">May</text>
<text x="574.17" y="566.00" text-anchor="middle" font-family="sans-serif" font-size="11" fill="#444">Jun</text>
<text x="665.83" y="566.00" text-anchor="middle" font-family="sans-serif" font-size="11" fill="#444">Jul</text>
<text x="757.50" y="566.00" text-anchor="middle" font-family="sans-serif" font-size="11" fill="#444">Aug</text>
<text x="849.17" y="566.00" text-anchor="middle" font-family="sans-serif" font-size="11" fill="#444">Sep</text>
<text x="940.83" y="566.00" text-anchor="middle" font-family="sans-serif" font-size="11" fill="#444">Oct</text>
<text x="1032.50" y="566.00" text-anchor="middle" font-family="sans-serif" font-size="11" fill="#444">Nov</text>
<text x="1124.17" y="566.00" text-anchor="middle" font-family="sans-serif" font-size="11" fill="#444">Dec</text>
<line x1="70" y1="550" x2="1170" y2="550" stroke="#888"/>
<line x1="70" y1="25" x2="70" y2="550" stroke="#888"/>
<line x1="75.09" y1="550.00" x2="75.09" y2="556.00" stroke="#888"/>
<line x1="1167.30"   y1="550.00" x2="1167.30"   y2="556.00" stroke="#888"/>
<text x="75.09" y="582.00" text-anchor="start" font-family="sans-serif" font-size="11" fill="#333">Initial Balance: 220205</text>
<text x="1167.30"   y="582.00" text-anchor="end"   font-family="sans-serif" font-size="11" fill="#333">Ending Balance: 331067</text>
<path d="M 115.83 193.20 L 115.83 193.54 Z" fill="#d0d0d0" fill-opacity="0.5" stroke="none"/>
<path d="M 207.50 178.85 L 225.83 178.85 L 244.17 178.85 L 244.17 179.54 L 225.83 181.71 L 207.50 184.49 Z" fill="#d0d0d0" fill-opacity="0.5" stroke="none"/>
<path d="M 306.81 171.09 L 306.81 172.15 Z" fill="#d0d0d0" fill-opacity="0.5" stroke="none"/>
<path d="M 398.47 162.06 L 413.75 162.06 L 429.03 162.06 L 437.60 162.06 L 439.47 162.06 L 441.34 162.06 L 443.21 162.06 L 445.09 162.06 L 446.96 162.06 L 448.83 162.06 L 450.70 162.06 L 452.57 162.06 L 452.57 162.90 L 450.70 166.10 L 448.83 169.24 L 446.96 172.09 L 445.09 174.77 L 443.21 177.57 L 441.34 180.30 L 439.47 182.64 L 437.60 176.97 L 429.03 171.22 L 413.75 165.40 L 398.47 167.93 Z" fill="#d0d0d0" fill-opacity="0.5" stroke="none"/>
<path d="M 471.28 142.11 L 473.15 142.11 L 475.02 142.11 L 476.89 142.11 L 476.89 142.18 L 475.02 144.99 L 473.15 146.63 L 471.28 148.26 Z" fill="#d0d0d0" fill-opacity="0.5" stroke="none"/>
<path d="M 482.50 136.70 L 484.37 136.70 L 486.24 136.70 L 488.11 136.70 L 489.98 136.70 L 491.85 136.70 L 493.72 136.70 L 495.60 135.20 L 497.47 135.20 L 497.47 147.47 L 495.60 141.28 L 493.72 138.78 L 491.85 139.93 L 489.98 143.16 L 488.11 136.94 L 486.24 138.77 L 484.37 139.73 L 482.50 142.93 Z" fill="#d0d0d0" fill-opacity="0.5" stroke="none"/>
<path d="M 501.21 135.20 L 503.08 135.20 L 504.95 135.20 L 506.82 135.20 L 508.69 135.20 L 508.69 137.56 L 506.82 139.72 L 504.95 142.65 L 503.08 144.72 L 501.21 144.93 Z" fill="#d0d0d0" fill-opacity="0.5" stroke="none"/>
<path d="M 518.04 130.75 L 518.04 130.78 Z" fill="#d0d0d0" fill-opacity="0.5" stroke="none"/>
<path d="M 563.38 101.15 L 568.77 101.15 L 574.17 101.15 L 579.56 101.15 L 584.95 101.15 L 590.34 101.15 L 595.74 101.15 L 595.74 102.85 L 590.34 105.81 L 584.95 104.43 L 579.56 102.43 L 574.17 102.94 L 568.77 104.86 L 563.38 107.82 Z" fill="#d0d0d0" fill-opacity="0.5" stroke="none"/>
<path d="M 706.57 74.47 L 719.31 74.47 L 734.58 74.47 L 749.86 74.47 L 765.14 74.47 L 780.42 74.47 L 795.69 74.47 L 812.50 74.47 L 830.83 74.47 L 849.17 74.47 L 867.50 74.47 L 885.83 74.47 L 897.86 74.47 L 903.59 74.47 L 903.59 77.72 L 897.86 79.27 L 885.83 82.24 L 867.50 83.58 L 849.17 85.70 L 830.83 87.03 L 812.50 86.37 L 795.69 84.16 L 780.42 87.53 L 765.14 89.92 L 749.86 92.10 L 734.58 89.57 L 719.31 82.72 L 706.57 75.75 Z" fill="#d0d0d0" fill-opacity="0.5" stroke="none"/>
<path d="M 915.05 73.91 L 920.78 73.91 L 920.78 77.20 L 915.05 80.90 Z" fill="#d0d0d0" fill-opacity="0.5" stroke="none"/>
<path d="M 932.24 73.36 L 932.24 75.20 Z" fill="#d0d0d0" fill-opacity="0.5" stroke="none"/>
<path d="M 1016.13 43.43 L 1022.68 43.43 L 1029.23 43.43 L 1035.77 43.43 L 1042.32 43.43 L 1048.87 43.43 L 1055.42 43.43 L 1061.96 43.43 L 1068.51 43.43 L 1075.06 43.43 L 1081.03 43.43 L 1086.42 43.43 L 1091.81 43.43 L 1097.21 43.43 L 1097.21 45.39 L 1091.81 48.49 L 1086.42 51.55 L 1081.03 44.31 L 1075.06 48.47 L 1068.51 52.03 L 1061.96 54.18 L 1055.42 57.33 L 1048.87 50.07 L 1042.32 52.65 L 1035.77 45.34 L 1029.23 48.27 L 1022.68 50.11 L 1016.13 50.76 Z" fill="#d0d0d0" fill-opacity="0.5" stroke="none"/>
<path d="M 1129.56 33.30 L 1134.95 33.30 L 1140.34 33.30 L 1140.34 34.64 L 1134.95 34.42 L 1129.56 35.18 Z" fill="#d0d0d0" fill-opacity="0.5" stroke="none"/>
<path d="M 1151.13 30.57 L 1151.13 33.52 Z" fill="#d0d0d0" fill-opacity="0.5" stroke="none"/>
<polyline fill="none" stroke="#111" stroke-width="1.2" points="75.09,200.80 85.28,197.88 95.46,194.93 105.65,193.20 115.83,193.54 126.02,192.05 136.20,190.07 146.39,187.25 156.57,184.20 170.83,181.91 189.17,178.85 207.50,184.49 225.83,181.71 244.17,179.54 260.97,176.44 276.25,173.46 291.53,171.09 306.81,172.15 322.08,169.82 337.36,167.58 352.64,165.71 367.92,163.92 383.19,162.06 398.47,167.93 413.75,165.40 429.03,171.22 437.60,176.97 439.47,182.64 441.34,180.30 443.21,177.57 445.09,174.77 446.96,172.09 448.83,169.24 450.70,166.10 452.57,162.90 454.44,159.68 456.31,158.50 458.18,155.46 460.05,154.45 461.92,151.36 463.79,148.96 465.66,147.02 467.53,144.60 469.40,142.11 471.28,148.26 473.15,146.63 475.02,144.99 476.89,142.18 478.76,139.54 480.63,136.70 482.50,142.93 484.37,139.73 486.24,138.77 488.11,136.94 489.98,143.16 491.85,139.93 493.72,138.78 495.60,141.28 497.47,147.47 499.34,135.20 501.21,144.93 503.08,144.72 504.95,142.65 506.82,139.72 508.69,137.56 510.56,134.87 512.43,133.07 514.30,132.65 516.17,130.75 518.04,130.78 519.91,127.63 521.79,124.54 523.66,122.55 525.53,120.77 527.40,117.64 531.03,115.61 536.42,112.10 541.81,109.33 547.21,106.83 552.60,103.56 557.99,101.15 563.38,107.82 568.77,104.86 574.17,102.94 579.56,102.43 584.95,104.43 590.34,105.81 595.74,102.85 601.13,99.86 606.52,96.22 611.91,94.04 617.30,90.38 625.09,86.67 635.28,84.25 645.46,82.93 655.65,81.25 665.83,81.21 676.02,80.15 686.20,77.11 696.39,74.47 706.57,75.75 719.31,82.72 734.58,89.57 749.86,92.10 765.14,89.92 780.42,87.53 795.69,84.16 812.50,86.37 830.83,87.03 849.17,85.70 867.50,83.58 885.83,82.24 897.86,79.27 903.59,77.72 909.32,73.91 915.05,80.90 920.78,77.20 926.51,73.36 932.24,75.20 937.97,71.34 943.70,71.13 949.43,68.37 955.16,65.94 960.89,63.02 966.61,61.86 972.34,60.62 978.07,57.41 983.80,56.18 989.94,52.21 996.49,50.83 1003.04,46.63 1009.58,43.43 1016.13,50.76 1022.68,50.11 1029.23,48.27 1035.77,45.34 1042.32,52.65 1048.87,50.07 1055.42,57.33 1061.96,54.18 1068.51,52.03 1075.06,48.47 1081.03,44.31 1086.42,51.55 1091.81,48.49 1097.21,45.39 1102.60,43.41 1107.99,40.62 1113.38,40.32 1118.77,36.70 1124.17,33.30 1129.56,35.18 1134.95,34.42 1140.34,34.64 1145.74,30.57 1151.13,33.52 1156.52,30.05 1161.91,27.94 1167.30,25.00"/>
<text x="620.0" y="588" text-anchor="middle" font-family="sans-serif" font-size="12" fill="#333">Monthly Balance Curve</text>
<text x="15" y="287.5" transform="rotate(-90 15,287.5)" text-anchor="middle" font-family="sans-serif" font-size="12" fill="#333">Capital</text>
</svg>