<svg xmlns="http://www.w3.org/2000/svg" width="1200" height="600" viewBox="0 0 1200 600">
<desc>Equity curve with drawdown fill</desc>
<text x="600.0" y="18.0" text-anchor="middle" font-family="sans-serif" font-size="14">Portfolio 2015</text>
<rect x="70" y="25" width="1100" height="525" fill="white" stroke="#ccc" />
<line x1="70" y1="550.00" x2="1170" y2="550.00" stroke="#eee"/>
<text x="62" y="554.0" text-anchor="end" font-family="sans-serif" font-size="11" fill="#555">0.00</text>
<line x1="70" y1="445.00" x2="1170" y2="445.00" stroke="#eee"/>
<text x="62" y="449.0" text-anchor="end" font-family="sans-serif" font-size="11" fill="#555">27495</text>
<line x1="70" y1="340.00" x2="1170" y2="340.00" stroke="#eee"/>
<text x="62" y="344.0" text-anchor="end" font-family="sans-serif" font-size="11" fill="#555">54990</text>
<line x1="70" y1="235.00" x2="1170" y2="235.00" stroke="#eee"/>
<text x="62" y="239.0" text-anchor="end" font-family="sans-serif" font-size="11" fill="#555">82485</text>
<line x1="70" y1="130.00" x2="1170" y2="130.00" stroke="#eee"/>
<text x="62" y="134.0" text-anchor="end" font-family="sans-serif" font-size="11" fill="#555">109980</text>
<line x1="70" y1="25.00" x2="1170" y2="25.00" stroke="#eee"/>
<text x="62" y="29.0" text-anchor="end" font-family="sans-serif" font-size="11" fill="#555">137476</text>
<line x1="125.38" y1="25" x2="125.38" y2="550" stroke="#f2f2f2"/>
<text x="125.38" y="566" text-anchor="middle" font-family="sans-serif" font-size="11" fill="#555">Feb</text>
<line x1="213.59" y1="25" x2="213.59" y2="550" stroke="#f2f2f2"/>
<text x="213.59" y="566" text-anchor="middle" font-family="sans-serif" font-size="11" fill="#555">Mar</text>
<line x1="311.26" y1="25" x2="311.26" y2="550" stroke="#f2f2f2"/>
<text x="311.26" y="566" text-anchor="middle" font-family="sans-serif" font-size="11" fill="#555">Apr</text>
<line x1="405.77" y1="25" x2="405.77" y2="550" stroke="#f2f2f2"/>
<text x="405.77" y="566" text-anchor="middle" font-family="sans-serif" font-size="11" fill="#555">May</text>
<line x1="503.43" y1="25" x2="503.43" y2="550" stroke="#f2f2f2"/>
<text x="503.43" y="566" text-anchor="middle" font-family="sans-serif" font-size="11" fill="#555">Jun</text>
<line x1="597.94" y1="25" x2="597.94" y2="550" stroke="#f2f2f2"/>
<text x="597.94" y="566" text-anchor="middle" font-family="sans-serif" font-size="11" fill="#555">Jul</text>
<line x1="695.60" y1="25" x2="695.60" y2="550" stroke="#f2f2f2"/>
<text x="695.60" y="566" text-anchor="middle" font-family="sans-serif" font-size="11" fill="#555">Aug</text>
<line x1="793.26" y1="25" x2="793.26" y2="550" stroke="#f2f2f2"/>
<text x="793.26" y="566" text-anchor="middle" font-family="sans-serif" font-size="11" fill="#555">Sep</text>
<line x1="887.77" y1="25" x2="887.77" y2="550" stroke="#f2f2f2"/>
<text x="887.77" y="566" text-anchor="middle" font-family="sans-serif" font-size="11" fill="#555">Oct</text>
<line x1="985.43" y1="25" x2="985.43" y2="550" stroke="#f2f2f2"/>
<text x="985.43" y="566" text-anchor="middle" font-family="sans-serif" font-size="11" fill="#555">Nov</text>
<line x1="1079.94" y1="25" x2="1079.94" y2="550" stroke="#f2f2f2"/>
<text x="1079.94" y="566" text-anchor="middle" font-family="sans-serif" font-size="11" fill="#555">Dec</text>
<line x1="70" y1="550" x2="1170" y2="550" stroke="#888"/>
<line x1="70" y1="25" x2="70" y2="550" stroke="#888"/>
<path d="M 70.49 167.16 L 70.54 167.16 L 73.08 167.16 L 73.08 167.48 L 70.54 169.63 L 70.49 171.02 Z" fill="#d0d0d0" fill-opacity="0.5" stroke="none"/>
<path d="M 73.93 159.17 L 73.94 159.17 L 73.94 161.09 L 73.93 163.11 Z" fill="#d0d0d0" fill-opacity="0.5" stroke="none"/>
<path d="M 95.96 150.18 L 96.00 150.18 L 96.13 150.18 L 96.19 150.18 L 98.20 150.18 L 98.22 150.18 L 98.35 150.18 L 98.41 150.18 L 98.60 150.18 L 98.64 150.18 L 98.65 150.18 L 98.89 150.18 L 106.43 150.18 L 107.54 150.18 L 110.78 150.18 L 110.83 150.18 L 111.42 150.18 L 111.53 150.18 L 111.69 150.18 L 133.49 150.18 L 133.56 150.18 L 133.70 150.18 L 137.96 150.18 L 139.03 150.18 L 139.43 150.18 L 140.43 150.18 L 143.18 150.18 L 152.33 150.18 L 155.36 150.18 L 162.01 150.18 L 175.00 150.18 L 177.39 150.18 L 181.43 150.18 L 187.26 150.18 L 187.55 150.18 L 205.96 150.18 L 206.13 150.18 L 206.14 150.18 L 206.20 150.18 L 209.23 150.18 L 225.01 150.18 L 227.99 150.18 L 228.07 150.18 L 228.45 150.18 L 230.58 150.18 L 231.12 150.18 L 231.30 150.18 L 231.35 150.18 L 243.28 150.18 L 243.90 150.18 L 244.20 150.18 L 244.20 151.93 L 243.90 153.96 L 243.28 155.85 L 231.35 156.84 L 231.30 158.42 L 231.12 154.43 L 230.58 156.75 L 228.45 158.75 L 228.07 160.51 L 227.99 162.13 L 225.01 164.11 L 209.23 166.28 L 206.20 167.81 L 206.14 168.65 L 206.13 164.76 L 205.96 160.85 L 187.55 156.88 L 187.26 159.19 L 181.43 161.38 L 177.39 163.56 L 175.00 164.37 L 162.01 166.06 L 155.36 167.56 L 152.33 169.59 L 143.18 170.30 L 140.43 169.24 L 139.43 170.21 L 139.03 171.84 L 137.96 173.79 L 133.70 174.05 L 133.56 174.06 L 133.49 174.80 L 111.69 170.97 L 111.53 167.11 L 111.42 168.95 L 110.83 170.91 L 110.78 172.72 L 107.54 168.86 L 106.43 170.79 L 98.89 166.91 L 98.65 168.77 L 98.64 171.04 L 98.60 167.20 L 98.41 163.29 L 98.35 164.36 L 98.22 160.43 L 98.20 162.52 L 96.19 158.57 L 96.13 159.16 L 96.00 158.14 L 95.96 154.19 Z" fill="#d0d0d0" fill-opacity="0.5" stroke="none"/>
<path d="M 249.32 148.78 L 249.38 148.78 L 249.51 148.78 L 249.51 150.26 L 249.38 151.47 L 249.32 152.83 Z" fill="#d0d0d0" fill-opacity="0.5" stroke="none"/>
<path d="M 253.38 148.02 L 253.39 148.02 L 253.39 149.76 L 253.38 152.09 Z" fill="#d0d0d0" fill-opacity="0.5" stroke="none"/>
<path d="M 262.81 146.34 L 269.48 146.34 L 269.48 148.18 L 262.81 150.42 Z" fill="#d0d0d0" fill-opacity="0.5" stroke="none"/>
<path d="M 270.49 144.68 L 270.89 144.68 L 271.40 144.68 L 271.47 144.68 L 271.57 144.68 L 271.70 144.68 L 271.96 144.68 L 271.96 145.47 L 271.70 147.73 L 271.57 149.63 L 271.47 151.37 L 271.40 152.48 L 270.89 148.42 L 270.49 148.77 Z" fill="#d0d0d0" fill-opacity="0.5" stroke="none"/>
<path d="M 275.42 137.59 L 275.44 137.59 L 275.77 137.59 L 275.89 137.59 L 284.29 137.59 L 284.47 137.59 L 284.66 137.59 L 287.35 137.59 L 287.35 139.40 L 284.66 139.67 L 284.47 139.17 L 284.29 140.75 L 275.89 142.88 L 275.77 144.04 L 275.44 139.90 L 275.42 141.75 Z" fill="#d0d0d0" fill-opacity="0.5" stroke="none"/>
<path d="M 296.66 129.93 L 297.34 129.93 L 297.76 129.93 L 297.76 130.38 L 297.34 132.72 L 296.66 134.17 Z" fill="#d0d0d0" fill-opacity="0.5" stroke="none"/>
<path d="M 319.63 114.18 L 331.40 114.18 L 331.50 114.18 L 335.32 114.18 L 335.84 114.18 L 338.51 114.18 L 340.74 114.18 L 350.50 114.18 L 350.91 114.18 L 350.91 115.61 L 350.50 118.02 L 340.74 119.38 L 338.51 120.33 L 335.84 115.96 L 335.32 117.94 L 331.50 119.88 L 331.40 120.63 L 319.63 116.28 Z" fill="#d0d0d0" fill-opacity="0.5" stroke="none"/>
<path d="M 354.05 113.76 L 354.18 113.76 L 354.29 113.76 L 356.69 113.76 L 357.22 113.76 L 357.30 113.76 L 357.74 113.76 L 357.83 113.76 L 357.83 114.03 L 357.74 115.10 L 357.30 117.51 L 357.22 119.33 L 356.69 121.72 L 354.29 121.50 L 354.18 122.45 L 354.05 118.11 Z" fill="#d0d0d0" fill-opacity="0.5" stroke="none"/>
<path d="M 360.05 109.94 L 360.12 109.94 L 360.12 112.31 L 360.05 114.35 Z" fill="#d0d0d0" fill-opacity="0.5" stroke="none"/>
<path d="M 361.04 109.89 L 362.99 109.89 L 363.47 109.89 L 375.40 109.89 L 375.40 110.58 L 363.47 110.39 L 362.99 112.61 L 361.04 114.30 Z" fill="#d0d0d0" fill-opacity="0.5" stroke="none"/>
<path d="M 384.74 104.52 L 384.85 104.52 L 384.98 104.52 L 384.98 105.35 L 384.85 107.23 L 384.74 108.99 Z" fill="#d0d0d0" fill-opacity="0.5" stroke="none"/>
<path d="M 401.26 100.58 L 401.41 100.58 L 401.48 100.58 L 401.67 100.58 L 401.74 100.58 L 401.96 100.58 L 402.01 100.58 L 403.76 100.58 L 403.79 100.58 L 403.87 100.58 L 404.44 100.58 L 404.73 100.58 L 407.80 100.58 L 416.45 100.58 L 417.11 100.58 L 420.21 100.58 L 420.47 100.58 L 420.47 102.26 L 420.21 103.55 L 417.11 105.51 L 416.45 106.62 L 407.80 108.09 L 404.73 109.86 L 404.44 112.14 L 403.87 114.34 L 403.79 115.21 L 403.76 110.82 L 402.01 106.38 L 401.96 108.79 L 401.74 111.23 L 401.67 111.77 L 401.48 107.34 L 401.41 102.88 L 401.26 105.08 Z" fill="#d0d0d0" fill-opacity="0.5" stroke="none"/>
<path d="M 423.47 99.77 L 423.62 99.77 L 426.44 99.77 L 429.59 99.77 L 429.61 99.77 L 429.88 99.77 L 438.34 99.77 L 441.56 99.77 L 445.52 99.77 L 447.78 99.77 L 448.83 99.77 L 451.88 99.77 L 451.98 99.77 L 452.10 99.77 L 460.47 99.77 L 461.33 99.77 L 461.33 100.94 L 460.47 101.79 L 452.10 103.84 L 451.98 104.50 L 451.88 104.96 L 448.83 100.46 L 447.78 102.96 L 445.52 104.65 L 441.56 100.15 L 438.34 101.26 L 429.88 103.13 L 429.61 105.47 L 429.59 107.94 L 426.44 110.40 L 423.62 105.95 L 423.47 104.27 Z" fill="#d0d0d0" fill-opacity="0.5" stroke="none"/>
<path d="M 463.53 98.88 L 463.59 98.88 L 463.68 98.88 L 463.74 98.88 L 464.30 98.88 L 466.66 98.88 L 468.12 98.88 L 469.93 98.88 L 473.85 98.88 L 473.92 98.88 L 474.05 98.88 L 485.63 98.88 L 489.56 98.88 L 489.70 98.88 L 489.87 98.88 L 492.48 98.88 L 505.47 98.88 L 507.71 98.88 L 508.07 98.88 L 508.45 98.88 L 508.63 98.88 L 510.83 98.88 L 511.08 98.88 L 511.58 98.88 L 511.71 98.88 L 511.77 98.88 L 511.90 98.88 L 512.00 98.88 L 514.10 98.88 L 514.15 98.88 L 514.35 98.88 L 514.75 98.88 L 514.78 98.88 L 515.21 98.88 L 515.38 98.88 L 516.08 98.88 L 517.10 98.88 L 517.98 98.88 L 526.51 98.88 L 527.31 98.88 L 528.98 98.88 L 529.74 98.88 L 530.47 98.88 L 532.90 98.88 L 533.42 98.88 L 533.70 98.88 L 533.91 98.88 L 536.10 98.88 L 539.37 98.88 L 539.41 98.88 L 539.84 98.88 L 551.79 98.88 L 552.46 98.88 L 556.33 98.88 L 556.33 99.97 L 552.46 102.47 L 551.79 104.17 L 539.84 105.76 L 539.41 108.23 L 539.37 110.12 L 536.10 112.57 L 533.91 115.01 L 533.70 117.43 L 533.42 119.47 L 532.90 121.39 L 530.47 117.04 L 529.74 118.73 L 528.98 120.92 L 527.31 123.31 L 526.51 123.52 L 517.98 125.90 L 517.10 127.30 L 516.08 129.28 L 515.38 130.72 L 515.21 132.88 L 514.78 135.22 L 514.75 137.11 L 514.35 132.90 L 514.15 128.66 L 514.10 124.39 L 512.00 120.06 L 511.90 118.87 L 511.77 117.53 L 511.71 113.18 L 511.58 108.78 L 511.08 111.06 L 510.83 113.00 L 508.63 114.88 L 508.45 110.46 L 508.07 106.04 L 507.71 108.50 L 505.47 109.66 L 492.48 111.76 L 489.87 113.56 L 489.70 115.78 L 489.56 117.95 L 485.63 117.36 L 474.05 118.52 L 473.92 118.24 L 473.85 119.22 L 469.93 114.87 L 468.12 117.28 L 466.66 119.69 L 464.30 115.32 L 463.74 110.91 L 463.68 112.26 L 463.59 107.83 L 463.53 103.39 Z" fill="#d0d0d0" fill-opacity="0.5" stroke="none"/>
<path d="M 573.25 89.90 L 574.61 89.90 L 580.44 89.90 L 584.35 89.90 L 591.55 89.90 L 591.74 89.90 L 592.62 89.90 L 592.79 89.90 L 593.71 89.90 L 594.07 89.90 L 594.07 90.03 L 593.71 92.69 L 592.79 95.00 L 592.62 96.70 L 591.74 99.33 L 591.55 94.78 L 584.35 96.28 L 580.44 97.24 L 574.61 99.04 L 573.25 94.49 Z" fill="#d0d0d0" fill-opacity="0.5" stroke="none"/>
<path d="M 596.89 88.36 L 599.29 88.36 L 599.29 90.58 L 596.89 92.96 Z" fill="#d0d0d0" fill-opacity="0.5" stroke="none"/>
<path d="M 618.17 85.37 L 618.17 85.47 Z" fill="#d0d0d0" fill-opacity="0.5" stroke="none"/>
<path d="M 627.76 72.41 L 627.76 72.75 Z" fill="#d0d0d0" fill-opacity="0.5" stroke="none"/>
<path d="M 636.93 70.36 L 636.98 70.36 L 644.00 70.36 L 663.01 70.36 L 668.48 70.36 L 668.48 72.80 L 663.01 72.17 L 644.00 73.94 L 636.98 73.29 L 636.93 75.11 Z" fill="#d0d0d0" fill-opacity="0.5" stroke="none"/>
<path d="M 707.65 58.63 L 707.65 59.30 Z" fill="#d0d0d0" fill-opacity="0.5" stroke="none"/>
<path d="M 716.29 56.61 L 716.56 56.61 L 716.56 58.79 L 716.29 61.47 Z" fill="#d0d0d0" fill-opacity="0.5" stroke="none"/>
<path d="M 728.31 56.09 L 731.53 56.09 L 754.87 56.09 L 757.52 56.09 L 760.83 56.09 L 768.43 56.09 L 768.64 56.09 L 769.73 56.09 L 769.87 56.09 L 769.92 56.09 L 770.46 56.09 L 772.75 56.09 L 772.78 56.09 L 773.33 56.09 L 776.07 56.09 L 776.13 56.09 L 776.40 56.09 L 778.82 56.09 L 779.43 56.09 L 779.61 56.09 L 782.83 56.09 L 782.91 56.09 L 782.91 57.08 L 782.83 59.08 L 779.61 61.77 L 779.43 64.18 L 778.82 63.68 L 776.40 65.75 L 776.13 68.41 L 776.07 71.18 L 773.33 68.58 L 772.78 63.77 L 772.75 66.08 L 770.46 61.26 L 769.92 62.39 L 769.87 57.59 L 769.73 60.15 L 768.64 62.64 L 768.43 63.10 L 760.83 63.91 L 757.52 59.06 L 754.87 61.27 L 731.53 60.82 L 728.31 60.97 Z" fill="#d0d0d0" fill-opacity="0.5" stroke="none"/>
<path d="M 801.35 55.21 L 801.40 55.21 L 801.54 55.21 L 805.08 55.21 L 816.04 55.21 L 823.74 55.21 L 827.06 55.21 L 842.61 55.21 L 846.16 55.21 L 848.87 55.21 L 858.47 55.21 L 880.58 55.21 L 892.92 55.21 L 892.98 55.21 L 893.40 55.21 L 905.65 55.21 L 910.97 55.21 L 911.63 55.21 L 911.63 56.20 L 910.97 57.02 L 905.65 58.70 L 893.40 60.91 L 892.98 61.35 L 892.92 63.15 L 880.58 62.58 L 858.47 61.90 L 848.87 61.25 L 846.16 63.15 L 842.61 65.83 L 827.06 64.76 L 823.74 63.70 L 816.04 66.37 L 805.08 67.06 L 801.54 69.71 L 801.40 64.91 L 801.35 60.10 Z" fill="#d0d0d0" fill-opacity="0.5" stroke="none"/>
<path d="M 933.79 53.65 L 933.79 54.23 Z" fill="#d0d0d0" fill-opacity="0.5" stroke="none"/>
<path d="M 955.92 48.88 L 956.02 48.88 L 958.82 48.88 L 975.32 48.88 L 975.53 48.88 L 981.16 48.88 L 981.16 50.50 L 975.53 52.33 L 975.32 49.75 L 958.82 52.60 L 956.02 55.32 L 955.92 50.40 Z" fill="#d0d0d0" fill-opacity="0.5" stroke="none"/>
<path d="M 1003.16 48.00 L 1003.16 48.01 Z" fill="#d0d0d0" fill-opacity="0.5" stroke="none"/>
<path d="M 1062.39 34.02 L 1063.28 34.02 L 1063.28 36.30 L 1062.39 39.07 Z" fill="#d0d0d0" fill-opacity="0.5" stroke="none"/>
<path d="M 1088.17 30.52 L 1088.32 30.52 L 1088.34 30.52 L 1088.41 30.52 L 1088.45 30.52 L 1088.58 30.52 L 1090.46 30.52 L 1091.16 30.52 L 1091.39 30.52 L 1091.73 30.52 L 1107.01 30.52 L 1107.54 30.52 L 1113.42 30.52 L 1113.42 31.31 L 1107.54 33.26 L 1107.01 35.57 L 1091.73 38.08 L 1091.39 39.79 L 1091.16 41.89 L 1090.46 44.64 L 1088.58 39.64 L 1088.45 41.54 L 1088.41 43.74 L 1088.34 38.76 L 1088.32 33.70 L 1088.17 31.11 Z" fill="#d0d0d0" fill-opacity="0.5" stroke="none"/>
<polyline fill="none" stroke="#111" stroke-width="1.2" points="70.00,167.16 70.49,171.02 70.54,169.63 73.08,167.48 73.09,165.20 73.22,163.02 73.72,161.05 73.79,159.17 73.93,163.11 73.94,161.09 76.91,159.11 77.07,157.56 85.74,156.29 92.64,155.75 92.67,153.42 95.68,151.08 95.80,150.18 95.96,154.19 96.00,158.14 96.13,159.16 96.19,158.57 98.20,162.52 98.22,160.43 98.35,164.36 98.41,163.29 98.60,167.20 98.64,171.04 98.65,168.77 98.89,166.91 106.43,170.79 107.54,168.86 110.78,172.72 110.83,170.91 111.42,168.95 111.53,167.11 111.69,170.97 133.49,174.80 133.56,174.06 133.70,174.05 137.96,173.79 139.03,171.84 139.43,170.21 140.43,169.24 143.18,170.30 152.33,169.59 155.36,167.56 162.01,166.06 175.00,164.37 177.39,163.56 181.43,161.38 187.26,159.19 187.55,156.88 205.96,160.85 206.13,164.76 206.14,168.65 206.20,167.81 209.23,166.28 225.01,164.11 227.99,162.13 228.07,160.51 228.45,158.75 230.58,156.75 231.12,154.43 231.30,158.42 231.35,156.84 243.28,155.85 243.90,153.96 244.20,151.93 246.30,149.71 246.68,149.59 247.60,148.78 249.32,152.83 249.38,151.47 249.51,150.26 250.02,148.02 253.38,152.09 253.39,149.76 253.52,147.77 253.85,146.34 262.81,150.42 269.48,148.18 269.64,145.82 269.75,144.68 270.49,148.77 270.89,148.42 271.40,152.48 271.47,151.37 271.57,149.63 271.70,147.73 271.96,145.47 272.09,143.34 272.52,141.58 275.21,139.78 275.29,137.59 275.42,141.75 275.44,139.90 275.77,144.04 275.89,142.88 284.29,140.75 284.47,139.17 284.66,139.67 287.35,139.40 287.83,137.09 287.86,134.77 288.02,134.09 293.63,132.83 294.18,130.74 294.41,130.10 294.87,129.93 296.66,134.17 297.34,132.72 297.76,130.38 297.78,128.09 309.43,126.00 313.03,124.06 315.40,122.18 316.24,119.97 319.24,117.56 319.33,115.04 319.44,114.18 319.63,116.28 331.40,120.63 331.50,119.88 335.32,117.94 335.84,115.96 338.51,120.33 340.74,119.38 350.50,118.02 350.91,115.61 354.01,113.76 354.05,118.11 354.18,122.45 354.29,121.50 356.69,121.72 357.22,119.33 357.30,117.51 357.74,115.10 357.83,114.03 358.67,111.60 359.69,109.94 360.05,114.35 360.12,112.31 360.29,109.89 361.04,114.30 362.99,112.61 363.47,110.39 375.40,110.58 376.37,109.17 379.19,107.37 382.04,105.96 382.64,104.52 384.74,108.99 384.85,107.23 384.98,105.35 385.25,104.22 395.31,102.86 398.34,100.58 401.26,105.08 401.41,102.88 401.48,107.34 401.67,111.77 401.74,111.23 401.96,108.79 402.01,106.38 403.76,110.82 403.79,115.21 403.87,114.34 404.44,112.14 404.73,109.86 407.80,108.09 416.45,106.62 417.11,105.51 420.21,103.55 420.47,102.26 422.08,99.77 423.47,104.27 423.62,105.95 426.44,110.40 429.59,107.94 429.61,105.47 429.88,103.13 438.34,101.26 441.56,100.15 445.52,104.65 447.78,102.96 448.83,100.46 451.88,104.96 451.98,104.50 452.10,103.84 460.47,101.79 461.33,100.94 461.86,98.88 463.53,103.39 463.59,107.83 463.68,112.26 463.74,110.91 464.30,115.32 466.66,119.69 468.12,117.28 469.93,114.87 473.85,119.22 473.92,118.24 474.05,118.52 485.63,117.36 489.56,117.95 489.70,115.78 489.87,113.56 492.48,111.76 505.47,109.66 507.71,108.50 508.07,106.04 508.45,110.46 508.63,114.88 510.83,113.00 511.08,111.06 511.58,108.78 511.71,113.18 511.77,117.53 511.90,118.87 512.00,120.06 514.10,124.39 514.15,128.66 514.35,132.90 514.75,137.11 514.78,135.22 515.21,132.88 515.38,130.72 516.08,129.28 517.10,127.30 517.98,125.90 526.51,123.52 527.31,123.31 528.98,120.92 529.74,118.73 530.47,117.04 532.90,121.39 533.42,119.47 533.70,117.43 533.91,115.01 536.10,112.57 539.37,110.12 539.41,108.23 539.84,105.76 551.79,104.17 552.46,102.47 556.33,99.97 556.37,98.23 558.25,97.02 559.30,94.49 561.22,92.44 570.70,89.90 573.25,94.49 574.61,99.04 580.44,97.24 584.35,96.28 591.55,94.78 591.74,99.33 592.62,96.70 592.79,95.00 593.71,92.69 594.07,90.03 596.66,88.36 596.89,92.96 599.29,90.58 613.56,87.92 614.60,85.37 618.17,85.47 618.62,84.03 621.16,81.44 621.89,79.04 622.16,76.69 624.30,74.49 626.24,72.41 627.76,72.75 636.80,70.36 636.93,75.11 636.98,73.29 644.00,73.94 663.01,72.17 668.48,72.80 680.93,70.16 680.97,67.86 688.64,65.20 694.22,62.41 694.36,60.62 694.48,58.69 694.87,58.63 707.65,59.30 716.27,56.61 716.29,61.47 716.56,58.79 726.27,56.09 728.31,60.97 731.53,60.82 754.87,61.27 757.52,59.06 760.83,63.91 768.43,63.10 768.64,62.64 769.73,60.15 769.87,57.59 769.92,62.39 770.46,61.26 772.75,66.08 772.78,63.77 773.33,68.58 776.07,71.18 776.13,68.41 776.40,65.75 778.82,63.68 779.43,64.18 779.61,61.77 782.83,59.08 782.91,57.08 794.45,55.21 801.35,60.10 801.40,64.91 801.54,69.71 805.08,67.06 816.04,66.37 823.74,63.70 827.06,64.76 842.61,65.83 846.16,63.15 848.87,61.25 858.47,61.90 880.58,62.58 892.92,63.15 892.98,61.35 893.40,60.91 905.65,58.70 910.97,57.02 911.63,56.20 914.17,54.67 933.06,53.65 933.79,54.23 955.70,51.50 955.71,48.88 955.92,50.40 956.02,55.32 958.82,52.60 975.32,49.75 975.53,52.33 981.16,50.50 996.81,48.00 1003.16,48.01 1003.24,46.21 1021.27,44.72 1022.00,41.96 1022.06,39.26 1032.66,37.75 1042.37,34.96 1044.35,34.02 1062.39,39.07 1063.28,36.30 1087.90,33.51 1087.90,30.52 1088.17,31.11 1088.32,33.70 1088.34,38.76 1088.41,43.74 1088.45,41.54 1088.58,39.64 1090.46,44.64 1091.16,41.89 1091.39,39.79 1091.73,38.08 1107.01,35.57 1107.54,33.26 1113.42,31.31 1122.96,29.72 1126.00,27.49 1130.33,27.34 1134.67,25.95 1170.00,25.00"/>
<text x="620.0" y="588" text-anchor="middle" font-family="sans-serif" font-size="12" fill="#333">UTC time</text>
<text x="15" y="287.5" transform="rotate(-90 15,287.5)" text-anchor="middle" font-family="sans-serif" font-size="12" fill="#333">Capital</text>
</svg>