<svg xmlns="http://www.w3.org/2000/svg" width="1200" height="600" viewBox="0 0 1200 600">
<desc>Equity curve with drawdown fill; x-axis is months only (no exact timestamps)</desc>
<text x="600.0" y="18.0" text-anchor="middle" font-family="sans-serif" font-size="14">Balance Curve 2004 (UTC)</text>
<rect x="70" y="25" width="1100" height="525" fill="white" stroke="#ccc" />
<line x1="70" y1="550.00" x2="1170" y2="550.00" stroke="#eee"/>
<text x="62" y="554.0" text-anchor="end" font-family="sans-serif" font-size="11" fill="#555">0.00</text>
<line x1="70" y1="445.00" x2="1170" y2="445.00" stroke="#eee"/>
<text x="62" y="449.0" text-anchor="end" font-family="sans-serif" font-size="11" fill="#555">24098</text>
<line x1="70" y1="340.00" x2="1170" y2="340.00" stroke="#eee"/>
<text x="62" y="344.0" text-anchor="end" font-family="sans-serif" font-size="11" fill="#555">48195</text>
<line x1="70" y1="235.00" x2="1170" y2="235.00" stroke="#eee"/>
<text x="62" y="239.0" text-anchor="end" font-family="sans-serif" font-size="11" fill="#555">72293</text>
<line x1="70" y1="130.00" x2="1170" y2="130.00" stroke="#eee"/>
<text x="62" y="134.0" text-anchor="end" font-family="sans-serif" font-size="11" fill="#555">96390</text>
<line x1="70" y1="25.00" x2="1170" y2="25.00" stroke="#eee"/>
<text x="62" y="29.0" text-anchor="end" font-family="sans-serif" font-size="11" fill="#555">120488</text>
<line x1="161.67" y1="25" x2="161.67" y2="550" stroke="#f2f2f2"/>
<line x1="253.33" y1="25" x2="253.33" y2="550" stroke="#f2f2f2"/>
<line x1="345.00" y1="25" x2="345.00" y2="550" stroke="#f2f2f2"/>
<line x1="436.67" y1="25" x2="436.67" y2="550" stroke="#f2f2f2"/>
<line x1="528.33" y1="25" x2="528.33" y2="550" stroke="#f2f2f2"/>
<line x1="620.00" y1="25" x2="620.00" y2="550" stroke="#f2f2f2"/>
<line x1="711.67" y1="25" x2="711.67" y2="550" stroke="#f2f2f2"/>
<line x1="803.33" y1="25" x2="803.33" y2="550" stroke="#f2f2f2"/>
<line x1="895.00" y1="25" x2="895.00" y2="550" stroke="#f2f2f2"/>
<line x1="986.67" y1="25" x2="986.67" y2="550" stroke="#f2f2f2"/>
<line x1="1078.33" y1="25" x2="1078.33" y2="550" stroke="#f2f2f2"/>
<text x="115.83" y="566.00" text-anchor="middle" font-family="sans-serif" font-size="11" fill="#444">Jan</text>
<text x="207.50" y="566.00" text-anchor="middle" font-family="sans-serif" font-size="11" fill="#444">Feb</text>
<text x="299.17" y="566.00" text-anchor="middle" font-family="sans-serif" font-size="11" fill="#444">Mar</text>
<text x="390.83" y="566.00" text-anchor="middle" font-family="sans-serif" font-size="11" fill="#444">Apr</text>
<text x="482.50" y="566.00" text-anchor="middle" font-family="sans-serif" font-size="11" fill="#444">May</text>
<text x="574.17" y="566.00" text-anchor="middle" font-family="sans-serif" font-size="11" fill="#444">Jun</text>
<text x="665.83" y="566.00" text-anchor="middle" font-family="sans-serif" font-size="11" fill="#444">Jul</text>
<text x="757.50" y="566.00" text-anchor="middle" font-family="sans-serif" font-size="11" fill="#444">Aug</text>
<text x="849.17" y="566.00" text-anchor="middle" font-family="sans-serif" font-size="11" fill="#444">Sep</text>
<text x="940.83" y="566.00" text-anchor="middle" font-family="sans-serif" font-size="11" fill="#444">Oct</text>
<text x="1032.50" y="566.00" text-anchor="middle" font-family="sans-serif" font-size="11" fill="#444">Nov</text>
<text x="1124.17" y="566.00" text-anchor="middle" font-family="sans-serif" font-size="11" fill="#444">Dec</text>
<line x1="70" y1="550" x2="1170" y2="550" stroke="#888"/>
<line x1="70" y1="25" x2="70" y2="550" stroke="#888"/>
<line x1="71.91" y1="550.00" x2="71.91" y2="556.00" stroke="#888"/>
<line x1="1163.45"   y1="550.00" x2="1163.45"   y2="556.00" stroke="#888"/>
<text x="71.91" y="582.00" text-anchor="start" font-family="sans-serif" font-size="11" fill="#333">Initial Balance: 108452</text>
<text x="1163.45"   y="582.00" text-anchor="end"   font-family="sans-serif" font-size="11" fill="#333">Ending Balance: 117056</text>
<path d="M 83.37 75.09 L 87.19 75.09 L 91.01 75.09 L 91.01 77.40 L 87.19 78.20 L 83.37 79.91 Z" fill="#d0d0d0" fill-opacity="0.5" stroke="none"/>
<path d="M 98.65 74.84 L 102.47 74.84 L 106.28 74.84 L 110.10 74.84 L 113.92 74.84 L 117.74 74.84 L 121.56 74.84 L 125.38 74.84 L 129.20 74.84 L 133.02 74.84 L 136.84 74.84 L 140.66 74.84 L 144.48 74.84 L 148.30 74.84 L 152.12 74.84 L 155.94 74.84 L 159.76 74.84 L 165.49 74.84 L 173.12 74.84 L 180.76 74.84 L 188.40 74.84 L 196.04 74.84 L 203.68 74.84 L 211.32 74.84 L 211.32 77.07 L 203.68 78.67 L 196.04 81.21 L 188.40 81.03 L 180.76 81.97 L 173.12 84.50 L 165.49 86.20 L 159.76 81.43 L 155.94 83.49 L 152.12 86.00 L 148.30 88.22 L 144.48 90.70 L 140.66 86.05 L 136.84 88.68 L 133.02 90.93 L 129.20 86.29 L 125.38 84.22 L 121.56 88.90 L 117.74 86.86 L 113.92 86.74 L 110.10 81.99 L 106.28 77.24 L 102.47 79.92 L 98.65 75.10 Z" fill="#d0d0d0" fill-opacity="0.5" stroke="none"/>
<path d="M 262.50 66.33 L 268.61 66.33 L 274.72 66.33 L 274.72 66.77 L 268.61 69.14 L 262.50 71.23 Z" fill="#d0d0d0" fill-opacity="0.5" stroke="none"/>
<path d="M 305.28 57.17 L 311.39 57.17 L 317.50 57.17 L 323.61 57.17 L 329.72 57.17 L 335.83 57.17 L 341.94 57.17 L 351.55 57.17 L 364.64 57.17 L 377.74 57.17 L 390.83 57.17 L 403.93 57.17 L 403.93 57.25 L 390.83 59.65 L 377.74 61.47 L 364.64 64.08 L 351.55 59.09 L 341.94 59.10 L 335.83 61.49 L 329.72 63.88 L 323.61 65.26 L 317.50 64.56 L 311.39 67.13 L 305.28 62.17 Z" fill="#d0d0d0" fill-opacity="0.5" stroke="none"/>
<path d="M 457.50 47.73 L 465.83 47.73 L 474.17 47.73 L 482.50 47.73 L 490.83 47.73 L 499.17 47.73 L 499.17 48.02 L 490.83 49.02 L 482.50 50.44 L 474.17 51.06 L 465.83 50.71 L 457.50 52.75 Z" fill="#d0d0d0" fill-opacity="0.5" stroke="none"/>
<path d="M 524.17 43.99 L 532.15 43.99 L 539.79 43.99 L 539.79 46.61 L 532.15 49.30 L 524.17 49.13 Z" fill="#d0d0d0" fill-opacity="0.5" stroke="none"/>
<path d="M 577.99 40.60 L 585.62 40.60 L 593.26 40.60 L 600.90 40.60 L 608.54 40.60 L 616.18 40.60 L 627.64 40.60 L 642.92 40.60 L 658.19 40.60 L 673.47 40.60 L 688.75 40.60 L 704.03 40.60 L 723.12 40.60 L 746.04 40.60 L 768.96 40.60 L 791.88 40.60 L 809.88 40.60 L 822.98 40.60 L 836.07 40.60 L 849.17 40.60 L 862.26 40.60 L 862.26 41.26 L 849.17 43.11 L 836.07 43.27 L 822.98 45.36 L 809.88 47.04 L 791.88 41.88 L 768.96 43.96 L 746.04 46.65 L 723.12 41.54 L 704.03 44.26 L 688.75 45.18 L 673.47 47.33 L 658.19 48.13 L 642.92 48.98 L 627.64 43.90 L 616.18 46.76 L 608.54 48.27 L 600.90 50.49 L 593.26 50.89 L 585.62 45.77 L 577.99 45.76 Z" fill="#d0d0d0" fill-opacity="0.5" stroke="none"/>
<path d="M 961.20 25.00 L 971.39 25.00 L 981.57 25.00 L 998.12 25.00 L 1021.04 25.00 L 1043.96 25.00 L 1066.88 25.00 L 1084.88 25.00 L 1097.98 25.00 L 1111.07 25.00 L 1124.17 25.00 L 1137.26 25.00 L 1150.36 25.00 L 1163.45 25.00 L 1163.45 39.95 L 1150.36 41.71 L 1137.26 36.52 L 1124.17 31.27 L 1111.07 32.72 L 1097.98 34.86 L 1084.88 29.60 L 1066.88 31.82 L 1043.96 30.20 L 1021.04 31.82 L 998.12 29.84 L 981.57 32.62 L 971.39 35.56 L 961.20 30.31 Z" fill="#d0d0d0" fill-opacity="0.5" stroke="none"/>
<polyline fill="none" stroke="#111" stroke-width="1.2" points="71.91,77.44 75.73,76.61 79.55,75.09 83.37,79.91 87.19,78.20 91.01,77.40 94.83,74.84 98.65,75.10 102.47,79.92 106.28,77.24 110.10,81.99 113.92,86.74 117.74,86.86 121.56,88.90 125.38,84.22 129.20,86.29 133.02,90.93 136.84,88.68 140.66,86.05 144.48,90.70 148.30,88.22 152.12,86.00 155.94,83.49 159.76,81.43 165.49,86.20 173.12,84.50 180.76,81.97 188.40,81.03 196.04,81.21 203.68,78.67 211.32,77.07 218.96,74.52 226.60,74.23 234.24,71.90 241.88,69.49 249.51,67.39 256.39,66.33 262.50,71.23 268.61,69.14 274.72,66.77 280.83,64.18 286.94,61.56 293.06,59.81 299.17,57.17 305.28,62.17 311.39,67.13 317.50,64.56 323.61,65.26 329.72,63.88 335.83,61.49 341.94,59.10 351.55,59.09 364.64,64.08 377.74,61.47 390.83,59.65 403.93,57.25 417.02,55.87 430.12,53.22 440.83,50.55 449.17,47.73 457.50,52.75 465.83,50.71 474.17,51.06 482.50,50.44 490.83,49.02 499.17,48.02 507.50,46.21 515.83,43.99 524.17,49.13 532.15,49.30 539.79,46.61 547.43,43.91 555.07,43.47 562.71,41.02 570.35,40.60 577.99,45.76 585.62,45.77 593.26,50.89 600.90,50.49 608.54,48.27 616.18,46.76 627.64,43.90 642.92,48.98 658.19,48.13 673.47,47.33 688.75,45.18 704.03,44.26 723.12,41.54 746.04,46.65 768.96,43.96 791.88,41.88 809.88,47.04 822.98,45.36 836.07,43.27 849.17,43.11 862.26,41.26 875.36,39.78 888.45,37.58 900.09,37.18 910.28,34.43 920.46,33.31 930.65,30.79 940.83,27.99 951.02,25.00 961.20,30.31 971.39,35.56 981.57,32.62 998.12,29.84 1021.04,31.82 1043.96,30.20 1066.88,31.82 1084.88,29.60 1097.98,34.86 1111.07,32.72 1124.17,31.27 1137.26,36.52 1150.36,41.71 1163.45,39.95"/>
<text x="15" y="287.5" transform="rotate(-90 15,287.5)" text-anchor="middle" font-family="sans-serif" font-size="12" fill="#333">USD</text>
</svg>