<svg xmlns="http://www.w3.org/2000/svg" width="1200" height="600" viewBox="0 0 1200 600">
<desc>Equity curve with drawdown fill</desc>
<text x="600.0" y="18.0" text-anchor="middle" font-family="sans-serif" font-size="14">Portfolio 2020</text>
<rect x="70" y="25" width="1100" height="525" fill="white" stroke="#ccc" />
<line x1="70" y1="550.00" x2="1170" y2="550.00" stroke="#eee"/>
<text x="62" y="554.0" text-anchor="end" font-family="sans-serif" font-size="11" fill="#555">0.00</text>
<line x1="70" y1="445.00" x2="1170" y2="445.00" stroke="#eee"/>
<text x="62" y="449.0" text-anchor="end" font-family="sans-serif" font-size="11" fill="#555">82189</text>
<line x1="70" y1="340.00" x2="1170" y2="340.00" stroke="#eee"/>
<text x="62" y="344.0" text-anchor="end" font-family="sans-serif" font-size="11" fill="#555">164377</text>
<line x1="70" y1="235.00" x2="1170" y2="235.00" stroke="#eee"/>
<text x="62" y="239.0" text-anchor="end" font-family="sans-serif" font-size="11" fill="#555">246566</text>
<line x1="70" y1="130.00" x2="1170" y2="130.00" stroke="#eee"/>
<text x="62" y="134.0" text-anchor="end" font-family="sans-serif" font-size="11" fill="#555">328755</text>
<line x1="70" y1="25.00" x2="1170" y2="25.00" stroke="#eee"/>
<text x="62" y="29.0" text-anchor="end" font-family="sans-serif" font-size="11" fill="#555">410943</text>
<line x1="100.06" y1="25" x2="100.06" y2="550" stroke="#f2f2f2"/>
<text x="100.06" y="566" text-anchor="middle" font-family="sans-serif" font-size="11" fill="#555">Mar</text>
<line x1="211.86" y1="25" x2="211.86" y2="550" stroke="#f2f2f2"/>
<text x="211.86" y="566" text-anchor="middle" font-family="sans-serif" font-size="11" fill="#555">Apr</text>
<line x1="320.05" y1="25" x2="320.05" y2="550" stroke="#f2f2f2"/>
<text x="320.05" y="566" text-anchor="middle" font-family="sans-serif" font-size="11" fill="#555">May</text>
<line x1="431.84" y1="25" x2="431.84" y2="550" stroke="#f2f2f2"/>
<text x="431.84" y="566" text-anchor="middle" font-family="sans-serif" font-size="11" fill="#555">Jun</text>
<line x1="540.03" y1="25" x2="540.03" y2="550" stroke="#f2f2f2"/>
<text x="540.03" y="566" text-anchor="middle" font-family="sans-serif" font-size="11" fill="#555">Jul</text>
<line x1="651.82" y1="25" x2="651.82" y2="550" stroke="#f2f2f2"/>
<text x="651.82" y="566" text-anchor="middle" font-family="sans-serif" font-size="11" fill="#555">Aug</text>
<line x1="763.62" y1="25" x2="763.62" y2="550" stroke="#f2f2f2"/>
<text x="763.62" y="566" text-anchor="middle" font-family="sans-serif" font-size="11" fill="#555">Sep</text>
<line x1="871.81" y1="25" x2="871.81" y2="550" stroke="#f2f2f2"/>
<text x="871.81" y="566" text-anchor="middle" font-family="sans-serif" font-size="11" fill="#555">Oct</text>
<line x1="983.60" y1="25" x2="983.60" y2="550" stroke="#f2f2f2"/>
<text x="983.60" y="566" text-anchor="middle" font-family="sans-serif" font-size="11" fill="#555">Nov</text>
<line x1="1091.79" y1="25" x2="1091.79" y2="550" stroke="#f2f2f2"/>
<text x="1091.79" y="566" text-anchor="middle" font-family="sans-serif" font-size="11" fill="#555">Dec</text>
<line x1="70" y1="550" x2="1170" y2="550" stroke="#888"/>
<line x1="70" y1="25" x2="70" y2="550" stroke="#888"/>
<path d="M 70.00 80.08 L 70.00 80.12 Z" fill="#d0d0d0" fill-opacity="0.5" stroke="none"/>
<path d="M 119.71 76.97 L 119.71 77.23 Z" fill="#d0d0d0" fill-opacity="0.5" stroke="none"/>
<path d="M 138.52 41.96 L 140.07 41.96 L 141.86 41.96 L 141.90 41.96 L 142.03 41.96 L 142.15 41.96 L 142.26 41.96 L 142.32 41.96 L 142.48 41.96 L 145.36 41.96 L 145.77 41.96 L 154.29 41.96 L 156.20 41.96 L 159.78 41.96 L 159.95 41.96 L 159.95 43.72 L 159.78 47.49 L 156.20 48.49 L 154.29 51.13 L 145.77 54.72 L 145.36 57.42 L 142.48 58.44 L 142.32 62.10 L 142.26 66.17 L 142.15 69.54 L 142.03 62.18 L 141.90 54.78 L 141.86 58.34 L 140.07 50.78 L 138.52 49.65 Z" fill="#d0d0d0" fill-opacity="0.5" stroke="none"/>
<path d="M 163.40 40.82 L 163.70 40.82 L 163.85 40.82 L 164.22 40.82 L 164.84 40.82 L 164.84 40.82 L 165.18 40.82 L 165.18 41.65 L 164.84 45.61 L 164.84 50.00 L 164.22 42.31 L 163.85 46.27 L 163.70 46.79 L 163.40 48.53 Z" fill="#d0d0d0" fill-opacity="0.5" stroke="none"/>
<path d="M 166.20 37.64 L 166.22 37.64 L 166.53 37.64 L 166.80 37.64 L 166.88 37.64 L 166.92 37.64 L 167.38 37.64 L 167.52 37.64 L 167.53 37.64 L 167.58 37.64 L 167.79 37.64 L 168.86 37.64 L 169.78 37.64 L 170.10 37.64 L 170.61 37.64 L 170.98 37.64 L 180.66 37.64 L 181.24 37.64 L 181.27 37.64 L 181.42 37.64 L 181.51 37.64 L 181.67 37.64 L 181.93 37.64 L 183.18 37.64 L 184.04 37.64 L 184.56 37.64 L 185.09 37.64 L 189.30 37.64 L 190.37 37.64 L 192.57 37.64 L 194.98 37.64 L 195.89 37.64 L 196.24 37.64 L 196.33 37.64 L 196.57 37.64 L 208.54 37.64 L 210.12 37.64 L 210.82 37.64 L 213.33 37.64 L 217.65 37.64 L 234.81 37.64 L 242.88 37.64 L 264.47 37.64 L 268.46 37.64 L 293.58 37.64 L 294.08 37.64 L 310.88 37.64 L 318.84 37.64 L 318.96 37.64 L 335.99 37.64 L 383.83 37.64 L 394.61 37.64 L 415.61 37.64 L 444.66 37.64 L 444.99 37.64 L 445.11 37.64 L 448.30 37.64 L 463.03 37.64 L 467.25 37.64 L 470.82 37.64 L 474.01 37.64 L 485.27 37.64 L 488.25 37.64 L 498.84 37.64 L 499.16 37.64 L 542.42 37.64 L 617.51 37.64 L 646.84 37.64 L 650.89 37.64 L 664.78 37.64 L 675.79 37.64 L 719.38 37.64 L 719.65 37.64 L 747.71 37.64 L 747.71 40.62 L 719.65 44.89 L 719.38 47.54 L 675.79 50.11 L 664.78 48.70 L 650.89 51.22 L 646.84 54.00 L 617.51 57.02 L 542.42 59.10 L 499.16 58.86 L 498.84 62.46 L 488.25 65.55 L 485.27 68.70 L 474.01 71.15 L 470.82 70.47 L 467.25 69.33 L 463.03 70.60 L 448.30 69.33 L 445.11 73.39 L 444.99 73.86 L 444.66 66.51 L 415.61 68.88 L 394.61 66.85 L 383.83 69.34 L 335.99 72.89 L 318.96 65.52 L 318.84 66.02 L 310.88 58.56 L 294.08 60.47 L 293.58 62.94 L 268.46 64.08 L 264.47 64.94 L 242.88 66.02 L 234.81 58.55 L 217.65 60.43 L 213.33 61.48 L 210.82 62.06 L 210.12 65.22 L 208.54 67.54 L 196.57 71.24 L 196.33 72.79 L 196.24 74.85 L 195.89 67.51 L 194.98 70.38 L 192.57 73.59 L 190.37 76.77 L 189.30 80.03 L 185.09 81.42 L 184.56 84.56 L 184.04 87.61 L 183.18 80.47 L 181.93 73.22 L 181.67 75.00 L 181.51 78.38 L 181.42 82.08 L 181.27 85.49 L 181.24 78.35 L 180.66 71.07 L 170.98 73.17 L 170.61 77.14 L 170.10 80.75 L 169.78 73.51 L 168.86 66.16 L 167.79 58.70 L 167.58 62.25 L 167.53 65.09 L 167.52 57.72 L 167.38 50.18 L 166.92 42.49 L 166.88 46.71 L 166.80 49.50 L 166.53 49.04 L 166.22 41.34 L 166.20 45.39 Z" fill="#d0d0d0" fill-opacity="0.5" stroke="none"/>
<path d="M 837.38 25.28 L 837.38 29.13 Z" fill="#d0d0d0" fill-opacity="0.5" stroke="none"/>
<path d="M 994.90 25.00 L 1014.87 25.00 L 1065.26 25.00 L 1094.29 25.00 L 1165.54 25.00 L 1170.00 25.00 L 1170.00 38.60 L 1165.54 39.58 L 1094.29 40.32 L 1065.26 41.42 L 1014.87 33.60 L 994.90 25.67 Z" fill="#d0d0d0" fill-opacity="0.5" stroke="none"/>
<polyline fill="none" stroke="#111" stroke-width="1.2" points="70.00,80.12 106.28,76.97 119.71,77.23 128.79,74.11 129.19,69.88 129.19,65.53 130.00,61.80 130.35,59.11 130.98,56.57 131.00,52.41 132.69,49.66 133.38,46.20 134.97,41.96 138.52,49.65 140.07,50.78 141.86,58.34 141.90,54.78 142.03,62.18 142.15,69.54 142.26,66.17 142.32,62.10 142.48,58.44 145.36,57.42 145.77,54.72 154.29,51.13 156.20,48.49 159.78,47.49 159.95,43.72 162.61,40.82 163.40,48.53 163.70,46.79 163.85,46.27 164.22,42.31 164.84,50.00 164.84,45.61 165.18,41.65 165.98,37.64 166.20,45.39 166.22,41.34 166.53,49.04 166.80,49.50 166.88,46.71 166.92,42.49 167.38,50.18 167.52,57.72 167.53,65.09 167.58,62.25 167.79,58.70 168.86,66.16 169.78,73.51 170.10,80.75 170.61,77.14 170.98,73.17 180.66,71.07 181.24,78.35 181.27,85.49 181.42,82.08 181.51,78.38 181.67,75.00 181.93,73.22 183.18,80.47 184.04,87.61 184.56,84.56 185.09,81.42 189.30,80.03 190.37,76.77 192.57,73.59 194.98,70.38 195.89,67.51 196.24,74.85 196.33,72.79 196.57,71.24 208.54,67.54 210.12,65.22 210.82,62.06 213.33,61.48 217.65,60.43 234.81,58.55 242.88,66.02 264.47,64.94 268.46,64.08 293.58,62.94 294.08,60.47 310.88,58.56 318.84,66.02 318.96,65.52 335.99,72.89 383.83,69.34 394.61,66.85 415.61,68.88 444.66,66.51 444.99,73.86 445.11,73.39 448.30,69.33 463.03,70.60 467.25,69.33 470.82,70.47 474.01,71.15 485.27,68.70 488.25,65.55 498.84,62.46 499.16,58.86 542.42,59.10 617.51,57.02 646.84,54.00 650.89,51.22 664.78,48.70 675.79,50.11 719.38,47.54 719.65,44.89 747.71,40.62 747.76,36.44 747.89,33.26 794.56,29.24 798.12,25.28 837.38,29.13 994.58,25.00 994.90,25.67 1014.87,33.60 1065.26,41.42 1094.29,40.32 1165.54,39.58 1170.00,38.60"/>
<text x="620.0" y="588" text-anchor="middle" font-family="sans-serif" font-size="12" fill="#333">UTC time</text>
<text x="15" y="287.5" transform="rotate(-90 15,287.5)" text-anchor="middle" font-family="sans-serif" font-size="12" fill="#333">Capital</text>
</svg>