<svg xmlns="http://www.w3.org/2000/svg" width="1200" height="600" viewBox="0 0 1200 600">
<desc>Equity curve with drawdown fill; x-axis is months only (no exact timestamps)</desc>
<text x="600.0" y="18.0" text-anchor="middle" font-family="sans-serif" font-size="14">Portfolio 2011 (UTC)</text>
<rect x="70" y="25" width="1100" height="525" fill="white" stroke="#ccc" />
<line x1="70" y1="550.00" x2="1170" y2="550.00" stroke="#eee"/>
<text x="62" y="554.0" text-anchor="end" font-family="sans-serif" font-size="11" fill="#555">0.00</text>
<line x1="70" y1="445.00" x2="1170" y2="445.00" stroke="#eee"/>
<text x="62" y="449.0" text-anchor="end" font-family="sans-serif" font-size="11" fill="#555">42123</text>
<line x1="70" y1="340.00" x2="1170" y2="340.00" stroke="#eee"/>
<text x="62" y="344.0" text-anchor="end" font-family="sans-serif" font-size="11" fill="#555">84247</text>
<line x1="70" y1="235.00" x2="1170" y2="235.00" stroke="#eee"/>
<text x="62" y="239.0" text-anchor="end" font-family="sans-serif" font-size="11" fill="#555">126370</text>
<line x1="70" y1="130.00" x2="1170" y2="130.00" stroke="#eee"/>
<text x="62" y="134.0" text-anchor="end" font-family="sans-serif" font-size="11" fill="#555">168493</text>
<line x1="70" y1="25.00" x2="1170" y2="25.00" stroke="#eee"/>
<text x="62" y="29.0" text-anchor="end" font-family="sans-serif" font-size="11" fill="#555">210617</text>
<line x1="161.67" y1="25" x2="161.67" y2="550" stroke="#f2f2f2"/>
<line x1="253.33" y1="25" x2="253.33" y2="550" stroke="#f2f2f2"/>
<line x1="345.00" y1="25" x2="345.00" y2="550" stroke="#f2f2f2"/>
<line x1="436.67" y1="25" x2="436.67" y2="550" stroke="#f2f2f2"/>
<line x1="528.33" y1="25" x2="528.33" y2="550" stroke="#f2f2f2"/>
<line x1="620.00" y1="25" x2="620.00" y2="550" stroke="#f2f2f2"/>
<line x1="711.67" y1="25" x2="711.67" y2="550" stroke="#f2f2f2"/>
<line x1="803.33" y1="25" x2="803.33" y2="550" stroke="#f2f2f2"/>
<line x1="895.00" y1="25" x2="895.00" y2="550" stroke="#f2f2f2"/>
<line x1="986.67" y1="25" x2="986.67" y2="550" stroke="#f2f2f2"/>
<line x1="1078.33" y1="25" x2="1078.33" y2="550" stroke="#f2f2f2"/>
<text x="115.83" y="566.00" text-anchor="middle" font-family="sans-serif" font-size="11" fill="#444">Jan</text>
<text x="207.50" y="566.00" text-anchor="middle" font-family="sans-serif" font-size="11" fill="#444">Feb</text>
<text x="299.17" y="566.00" text-anchor="middle" font-family="sans-serif" font-size="11" fill="#444">Mar</text>
<text x="390.83" y="566.00" text-anchor="middle" font-family="sans-serif" font-size="11" fill="#444">Apr</text>
<text x="482.50" y="566.00" text-anchor="middle" font-family="sans-serif" font-size="11" fill="#444">May</text>
<text x="574.17" y="566.00" text-anchor="middle" font-family="sans-serif" font-size="11" fill="#444">Jun</text>
<text x="665.83" y="566.00" text-anchor="middle" font-family="sans-serif" font-size="11" fill="#444">Jul</text>
<text x="757.50" y="566.00" text-anchor="middle" font-family="sans-serif" font-size="11" fill="#444">Aug</text>
<text x="849.17" y="566.00" text-anchor="middle" font-family="sans-serif" font-size="11" fill="#444">Sep</text>
<text x="940.83" y="566.00" text-anchor="middle" font-family="sans-serif" font-size="11" fill="#444">Oct</text>
<text x="1032.50" y="566.00" text-anchor="middle" font-family="sans-serif" font-size="11" fill="#444">Nov</text>
<text x="1124.17" y="566.00" text-anchor="middle" font-family="sans-serif" font-size="11" fill="#444">Dec</text>
<line x1="70" y1="550" x2="1170" y2="550" stroke="#888"/>
<line x1="70" y1="25" x2="70" y2="550" stroke="#888"/>
<line x1="74.17" y1="550.00" x2="74.17" y2="556.00" stroke="#888"/>
<line x1="1154.72"   y1="550.00" x2="1154.72"   y2="556.00" stroke="#888"/>
<text x="74.17" y="582.00" text-anchor="start" font-family="sans-serif" font-size="11" fill="#333">Initial Balance: 189532</text>
<text x="1154.72"   y="582.00" text-anchor="end"   font-family="sans-serif" font-size="11" fill="#333">Ending Balance: 208674</text>
<path d="M 189.17 54.61 L 207.50 54.61 L 207.50 55.49 L 189.17 56.39 Z" fill="#d0d0d0" fill-opacity="0.5" stroke="none"/>
<path d="M 244.17 53.39 L 259.06 53.39 L 270.52 53.39 L 270.52 54.21 L 259.06 55.66 L 244.17 58.42 Z" fill="#d0d0d0" fill-opacity="0.5" stroke="none"/>
<path d="M 293.44 52.93 L 293.44 53.76 Z" fill="#d0d0d0" fill-opacity="0.5" stroke="none"/>
<path d="M 327.81 51.15 L 327.81 51.85 Z" fill="#d0d0d0" fill-opacity="0.5" stroke="none"/>
<path d="M 356.46 50.06 L 379.38 50.06 L 402.29 50.06 L 425.21 50.06 L 439.36 50.06 L 444.75 50.06 L 450.15 50.06 L 455.54 50.06 L 460.93 50.06 L 466.32 50.06 L 471.72 50.06 L 477.11 50.06 L 482.50 50.06 L 487.89 50.06 L 493.28 50.06 L 498.68 50.06 L 504.07 50.06 L 509.46 50.06 L 514.85 50.06 L 520.25 50.06 L 525.64 50.06 L 532.15 50.06 L 539.79 50.06 L 547.43 50.06 L 555.07 50.06 L 562.71 50.06 L 570.35 50.06 L 577.99 50.06 L 585.62 50.06 L 593.26 50.06 L 600.90 50.06 L 608.54 50.06 L 608.54 51.57 L 600.90 53.50 L 593.26 54.43 L 585.62 54.99 L 577.99 57.76 L 570.35 58.30 L 562.71 61.04 L 555.07 63.78 L 547.43 58.80 L 539.79 59.93 L 532.15 61.68 L 525.64 59.68 L 520.25 60.97 L 514.85 62.37 L 509.46 57.39 L 504.07 58.51 L 498.68 56.40 L 493.28 57.75 L 487.89 60.02 L 482.50 61.48 L 477.11 62.22 L 471.72 63.69 L 466.32 58.72 L 460.93 53.70 L 455.54 55.33 L 450.15 58.11 L 444.75 53.11 L 439.36 55.90 L 425.21 56.48 L 402.29 58.41 L 379.38 53.39 L 356.46 55.11 Z" fill="#d0d0d0" fill-opacity="0.5" stroke="none"/>
<path d="M 690.28 26.39 L 696.39 26.39 L 702.50 26.39 L 708.61 26.39 L 714.21 26.39 L 719.31 26.39 L 724.40 26.39 L 729.49 26.39 L 734.58 26.39 L 734.58 27.55 L 729.49 30.47 L 724.40 32.75 L 719.31 35.09 L 714.21 36.90 L 708.61 39.18 L 702.50 33.98 L 696.39 28.72 L 690.28 31.63 Z" fill="#d0d0d0" fill-opacity="0.5" stroke="none"/>
<path d="M 744.77 25.00 L 749.86 25.00 L 754.95 25.00 L 760.05 25.00 L 765.14 25.00 L 770.23 25.00 L 775.32 25.00 L 780.42 25.00 L 785.51 25.00 L 790.60 25.00 L 795.69 25.00 L 800.79 25.00 L 805.88 25.00 L 810.97 25.00 L 816.06 25.00 L 821.16 25.00 L 826.25 25.00 L 831.34 25.00 L 836.44 25.00 L 841.53 25.00 L 846.62 25.00 L 851.71 25.00 L 856.81 25.00 L 861.90 25.00 L 866.99 25.00 L 872.08 25.00 L 877.18 25.00 L 882.27 25.00 L 887.36 25.00 L 892.45 25.00 L 897.41 25.00 L 902.24 25.00 L 907.06 25.00 L 911.89 25.00 L 916.71 25.00 L 921.54 25.00 L 926.36 25.00 L 931.18 25.00 L 936.01 25.00 L 940.83 25.00 L 945.66 25.00 L 950.48 25.00 L 955.31 25.00 L 960.13 25.00 L 964.96 25.00 L 969.78 25.00 L 974.61 25.00 L 979.43 25.00 L 984.25 25.00 L 989.21 25.00 L 994.31 25.00 L 999.40 25.00 L 1004.49 25.00 L 1009.58 25.00 L 1014.68 25.00 L 1019.77 25.00 L 1024.86 25.00 L 1029.95 25.00 L 1035.05 25.00 L 1040.14 25.00 L 1045.23 25.00 L 1050.32 25.00 L 1055.42 25.00 L 1060.51 25.00 L 1065.60 25.00 L 1070.69 25.00 L 1075.79 25.00 L 1093.61 25.00 L 1124.17 25.00 L 1154.72 25.00 L 1154.72 29.84 L 1124.17 32.45 L 1093.61 34.04 L 1075.79 34.07 L 1070.69 34.93 L 1065.60 37.29 L 1060.51 39.83 L 1055.42 34.62 L 1050.32 33.13 L 1045.23 35.21 L 1040.14 37.25 L 1035.05 32.01 L 1029.95 32.03 L 1024.86 32.18 L 1019.77 34.29 L 1014.68 34.88 L 1009.58 37.55 L 1004.49 39.54 L 999.40 34.33 L 994.31 35.49 L 989.21 37.51 L 984.25 32.28 L 979.43 33.40 L 974.61 35.00 L 969.78 37.38 L 964.96 40.24 L 960.13 43.09 L 955.31 41.95 L 950.48 43.88 L 945.66 46.71 L 940.83 45.85 L 936.01 40.69 L 931.18 35.50 L 926.36 37.74 L 921.54 40.33 L 916.71 42.33 L 911.89 43.34 L 907.06 38.16 L 902.24 41.01 L 897.41 43.71 L 892.45 45.71 L 887.36 44.68 L 882.27 46.21 L 877.18 41.06 L 872.08 42.06 L 866.99 36.87 L 861.90 36.50 L 856.81 31.26 L 851.71 32.72 L 846.62 35.60 L 841.53 37.14 L 836.44 40.00 L 831.34 42.43 L 826.25 44.64 L 821.16 44.82 L 816.06 47.04 L 810.97 49.45 L 805.88 44.34 L 800.79 39.17 L 795.69 42.03 L 790.60 36.84 L 785.51 31.61 L 780.42 33.77 L 775.32 36.64 L 770.23 31.41 L 765.14 31.30 L 760.05 30.46 L 754.95 25.17 L 749.86 28.08 L 744.77 30.29 Z" fill="#d0d0d0" fill-opacity="0.5" stroke="none"/>
<polyline fill="none" stroke="#111" stroke-width="1.2" points="74.17,77.56 82.50,75.96 90.83,75.96 99.17,73.31 107.50,71.98 115.83,69.54 124.17,67.04 132.50,64.84 140.83,62.34 149.17,59.62 157.50,56.87 170.83,54.61 189.17,56.39 207.50,55.49 225.83,53.39 244.17,58.42 259.06,55.66 270.52,54.21 281.98,52.93 293.44,53.76 304.90,52.06 316.35,51.15 327.81,51.85 339.27,50.06 356.46,55.11 379.38,53.39 402.29,58.41 425.21,56.48 439.36,55.90 444.75,53.11 450.15,58.11 455.54,55.33 460.93,53.70 466.32,58.72 471.72,63.69 477.11,62.22 482.50,61.48 487.89,60.02 493.28,57.75 498.68,56.40 504.07,58.51 509.46,57.39 514.85,62.37 520.25,60.97 525.64,59.68 532.15,61.68 539.79,59.93 547.43,58.80 555.07,63.78 562.71,61.04 570.35,58.30 577.99,57.76 585.62,54.99 593.26,54.43 600.90,53.50 608.54,51.57 616.18,48.76 623.06,46.19 629.17,45.96 635.28,43.13 641.39,41.54 647.50,38.68 653.61,35.98 659.72,35.62 665.83,33.24 671.94,31.18 678.06,29.31 684.17,26.39 690.28,31.63 696.39,28.72 702.50,33.98 708.61,39.18 714.21,36.90 719.31,35.09 724.40,32.75 729.49,30.47 734.58,27.55 739.68,25.00 744.77,30.29 749.86,28.08 754.95,25.17 760.05,30.46 765.14,31.30 770.23,31.41 775.32,36.64 780.42,33.77 785.51,31.61 790.60,36.84 795.69,42.03 800.79,39.17 805.88,44.34 810.97,49.45 816.06,47.04 821.16,44.82 826.25,44.64 831.34,42.43 836.44,40.00 841.53,37.14 846.62,35.60 851.71,32.72 856.81,31.26 861.90,36.50 866.99,36.87 872.08,42.06 877.18,41.06 882.27,46.21 887.36,44.68 892.45,45.71 897.41,43.71 902.24,41.01 907.06,38.16 911.89,43.34 916.71,42.33 921.54,40.33 926.36,37.74 931.18,35.50 936.01,40.69 940.83,45.85 945.66,46.71 950.48,43.88 955.31,41.95 960.13,43.09 964.96,40.24 969.78,37.38 974.61,35.00 979.43,33.40 984.25,32.28 989.21,37.51 994.31,35.49 999.40,34.33 1004.49,39.54 1009.58,37.55 1014.68,34.88 1019.77,34.29 1024.86,32.18 1029.95,32.03 1035.05,32.01 1040.14,37.25 1045.23,35.21 1050.32,33.13 1055.42,34.62 1060.51,39.83 1065.60,37.29 1070.69,34.93 1075.79,34.07 1093.61,34.04 1124.17,32.45 1154.72,29.84"/>
<text x="620.0" y="588" text-anchor="middle" font-family="sans-serif" font-size="12" fill="#333">Monthly Balance Curve</text>
<text x="15" y="287.5" transform="rotate(-90 15,287.5)" text-anchor="middle" font-family="sans-serif" font-size="12" fill="#333">Capital</text>
</svg>