<svg xmlns="http://www.w3.org/2000/svg" width="1200" height="600" viewBox="0 0 1200 600">
<desc>Equity curve with drawdown fill; x-axis is months only (no exact timestamps)</desc>
<text x="600.0" y="18.0" text-anchor="middle" font-family="sans-serif" font-size="14">Portfolio 2020 (UTC)</text>
<rect x="70" y="25" width="1100" height="525" fill="white" stroke="#ccc" />
<line x1="70" y1="550.00" x2="1170" y2="550.00" stroke="#eee"/>
<text x="62" y="554.0" text-anchor="end" font-family="sans-serif" font-size="11" fill="#555">0.00</text>
<line x1="70" y1="445.00" x2="1170" y2="445.00" stroke="#eee"/>
<text x="62" y="449.0" text-anchor="end" font-family="sans-serif" font-size="11" fill="#555">22821</text>
<line x1="70" y1="340.00" x2="1170" y2="340.00" stroke="#eee"/>
<text x="62" y="344.0" text-anchor="end" font-family="sans-serif" font-size="11" fill="#555">45643</text>
<line x1="70" y1="235.00" x2="1170" y2="235.00" stroke="#eee"/>
<text x="62" y="239.0" text-anchor="end" font-family="sans-serif" font-size="11" fill="#555">68464</text>
<line x1="70" y1="130.00" x2="1170" y2="130.00" stroke="#eee"/>
<text x="62" y="134.0" text-anchor="end" font-family="sans-serif" font-size="11" fill="#555">91285</text>
<line x1="70" y1="25.00" x2="1170" y2="25.00" stroke="#eee"/>
<text x="62" y="29.0" text-anchor="end" font-family="sans-serif" font-size="11" fill="#555">114107</text>
<line x1="180.00" y1="25" x2="180.00" y2="550" stroke="#f2f2f2"/>
<line x1="290.00" y1="25" x2="290.00" y2="550" stroke="#f2f2f2"/>
<line x1="400.00" y1="25" x2="400.00" y2="550" stroke="#f2f2f2"/>
<line x1="510.00" y1="25" x2="510.00" y2="550" stroke="#f2f2f2"/>
<line x1="620.00" y1="25" x2="620.00" y2="550" stroke="#f2f2f2"/>
<line x1="730.00" y1="25" x2="730.00" y2="550" stroke="#f2f2f2"/>
<line x1="840.00" y1="25" x2="840.00" y2="550" stroke="#f2f2f2"/>
<line x1="950.00" y1="25" x2="950.00" y2="550" stroke="#f2f2f2"/>
<line x1="1060.00" y1="25" x2="1060.00" y2="550" stroke="#f2f2f2"/>
<text x="125.00" y="566.00" text-anchor="middle" font-family="sans-serif" font-size="11" fill="#444">Jan</text>
<text x="235.00" y="566.00" text-anchor="middle" font-family="sans-serif" font-size="11" fill="#444">Mar</text>
<text x="345.00" y="566.00" text-anchor="middle" font-family="sans-serif" font-size="11" fill="#444">Apr</text>
<text x="455.00" y="566.00" text-anchor="middle" font-family="sans-serif" font-size="11" fill="#444">May</text>
<text x="565.00" y="566.00" text-anchor="middle" font-family="sans-serif" font-size="11" fill="#444">Jun</text>
<text x="675.00" y="566.00" text-anchor="middle" font-family="sans-serif" font-size="11" fill="#444">Jul</text>
<text x="785.00" y="566.00" text-anchor="middle" font-family="sans-serif" font-size="11" fill="#444">Aug</text>
<text x="895.00" y="566.00" text-anchor="middle" font-family="sans-serif" font-size="11" fill="#444">Sep</text>
<text x="1005.00" y="566.00" text-anchor="middle" font-family="sans-serif" font-size="11" fill="#444">Nov</text>
<text x="1115.00" y="566.00" text-anchor="middle" font-family="sans-serif" font-size="11" fill="#444">Dec</text>
<line x1="70" y1="550" x2="1170" y2="550" stroke="#888"/>
<line x1="70" y1="25" x2="70" y2="550" stroke="#888"/>
<line x1="125.00" y1="550.00" x2="125.00" y2="556.00" stroke="#888"/>
<line x1="1115.00"   y1="550.00" x2="1115.00"   y2="556.00" stroke="#888"/>
<text x="125.00" y="582.00" text-anchor="start" font-family="sans-serif" font-size="11" fill="#333">Initial Balance: 100000</text>
<text x="1115.00"   y="582.00" text-anchor="end"   font-family="sans-serif" font-size="11" fill="#333">Ending Balance: 114107</text>
<path d="M 188.19 82.93 L 190.53 82.93 L 190.53 84.84 L 188.19 87.60 Z" fill="#d0d0d0" fill-opacity="0.5" stroke="none"/>
<path d="M 206.91 71.82 L 206.91 72.56 Z" fill="#d0d0d0" fill-opacity="0.5" stroke="none"/>
<path d="M 225.64 58.49 L 225.64 58.88 Z" fill="#d0d0d0" fill-opacity="0.5" stroke="none"/>
<path d="M 230.32 57.04 L 232.66 57.04 L 232.66 59.50 L 230.32 62.01 Z" fill="#d0d0d0" fill-opacity="0.5" stroke="none"/>
<path d="M 239.68 54.42 L 242.02 54.42 L 244.36 54.42 L 246.70 54.42 L 249.04 54.42 L 251.38 54.42 L 253.72 54.42 L 256.06 54.42 L 258.40 54.42 L 260.74 54.42 L 263.09 54.42 L 265.43 54.42 L 267.77 54.42 L 270.11 54.42 L 272.45 54.42 L 274.79 54.42 L 277.13 54.42 L 279.47 54.42 L 281.81 54.42 L 284.15 54.42 L 286.49 54.42 L 286.49 56.23 L 284.15 58.72 L 281.81 60.10 L 279.47 62.00 L 277.13 64.14 L 274.79 66.33 L 272.45 67.25 L 270.11 69.37 L 267.77 71.43 L 265.43 74.02 L 263.09 69.17 L 260.74 64.26 L 258.40 65.44 L 256.06 60.52 L 253.72 61.91 L 251.38 64.36 L 249.04 59.40 L 246.70 62.01 L 244.36 57.04 L 242.02 59.74 L 239.68 59.42 Z" fill="#d0d0d0" fill-opacity="0.5" stroke="none"/>
<path d="M 565.00 42.78 L 565.00 43.60 Z" fill="#d0d0d0" fill-opacity="0.5" stroke="none"/>
<path d="M 1005.00 26.96 L 1005.00 27.41 Z" fill="#d0d0d0" fill-opacity="0.5" stroke="none"/>
<polyline fill="none" stroke="#111" stroke-width="1.2" points="125.00,89.90 181.17,87.66 183.51,85.62 185.85,82.93 188.19,87.60 190.53,84.84 192.87,82.49 195.21,80.91 197.55,78.31 199.89,76.59 202.23,74.45 204.57,71.82 206.91,72.56 209.26,71.12 211.60,68.48 213.94,67.84 216.28,65.54 218.62,62.87 220.96,60.18 223.30,58.49 225.64,58.88 227.98,57.04 230.32,62.01 232.66,59.50 235.00,56.97 237.34,54.42 239.68,59.42 242.02,59.74 244.36,57.04 246.70,62.01 249.04,59.40 251.38,64.36 253.72,61.91 256.06,60.52 258.40,65.44 260.74,64.26 263.09,69.17 265.43,74.02 267.77,71.43 270.11,69.37 272.45,67.25 274.79,66.33 277.13,64.14 279.47,62.00 281.81,60.10 284.15,58.72 286.49,56.23 288.83,54.13 308.33,53.42 345.00,51.79 381.67,50.52 427.50,48.10 482.50,45.58 528.33,42.78 565.00,43.60 601.67,41.50 647.50,40.11 702.50,38.25 757.50,36.57 812.50,34.85 867.50,32.23 922.50,29.65 968.33,26.96 1005.00,27.41 1041.67,25.47 1115.00,25.00"/>
<text x="620.0" y="588" text-anchor="middle" font-family="sans-serif" font-size="12" fill="#333">Monthly Balance Curve</text>
<text x="15" y="287.5" transform="rotate(-90 15,287.5)" text-anchor="middle" font-family="sans-serif" font-size="12" fill="#333">Capital</text>
</svg>