<svg xmlns="http://www.w3.org/2000/svg" width="1200" height="600" viewBox="0 0 1200 600">
<desc>Equity curve with drawdown fill; x-axis is months only (no exact timestamps)</desc>
<text x="600.0" y="18.0" text-anchor="middle" font-family="sans-serif" font-size="14">Balance Curve 2025 (UTC)</text>
<rect x="70" y="25" width="1100" height="525" fill="white" stroke="#ccc" />
<line x1="70" y1="550.00" x2="1170" y2="550.00" stroke="#eee"/>
<text x="62" y="554.0" text-anchor="end" font-family="sans-serif" font-size="11" fill="#555">0.00</text>
<line x1="70" y1="445.00" x2="1170" y2="445.00" stroke="#eee"/>
<text x="62" y="449.0" text-anchor="end" font-family="sans-serif" font-size="11" fill="#555">21028</text>
<line x1="70" y1="340.00" x2="1170" y2="340.00" stroke="#eee"/>
<text x="62" y="344.0" text-anchor="end" font-family="sans-serif" font-size="11" fill="#555">42055</text>
<line x1="70" y1="235.00" x2="1170" y2="235.00" stroke="#eee"/>
<text x="62" y="239.0" text-anchor="end" font-family="sans-serif" font-size="11" fill="#555">63083</text>
<line x1="70" y1="130.00" x2="1170" y2="130.00" stroke="#eee"/>
<text x="62" y="134.0" text-anchor="end" font-family="sans-serif" font-size="11" fill="#555">84110</text>
<line x1="70" y1="25.00" x2="1170" y2="25.00" stroke="#eee"/>
<text x="62" y="29.0" text-anchor="end" font-family="sans-serif" font-size="11" fill="#555">105138</text>
<line x1="207.50" y1="25" x2="207.50" y2="550" stroke="#f2f2f2"/>
<line x1="345.00" y1="25" x2="345.00" y2="550" stroke="#f2f2f2"/>
<line x1="482.50" y1="25" x2="482.50" y2="550" stroke="#f2f2f2"/>
<line x1="620.00" y1="25" x2="620.00" y2="550" stroke="#f2f2f2"/>
<line x1="757.50" y1="25" x2="757.50" y2="550" stroke="#f2f2f2"/>
<line x1="895.00" y1="25" x2="895.00" y2="550" stroke="#f2f2f2"/>
<line x1="1032.50" y1="25" x2="1032.50" y2="550" stroke="#f2f2f2"/>
<text x="138.75" y="566.00" text-anchor="middle" font-family="sans-serif" font-size="11" fill="#444">Jan</text>
<text x="276.25" y="566.00" text-anchor="middle" font-family="sans-serif" font-size="11" fill="#444">Feb</text>
<text x="413.75" y="566.00" text-anchor="middle" font-family="sans-serif" font-size="11" fill="#444">Mar</text>
<text x="551.25" y="566.00" text-anchor="middle" font-family="sans-serif" font-size="11" fill="#444">Apr</text>
<text x="688.75" y="566.00" text-anchor="middle" font-family="sans-serif" font-size="11" fill="#444">May</text>
<text x="826.25" y="566.00" text-anchor="middle" font-family="sans-serif" font-size="11" fill="#444">Jun</text>
<text x="963.75" y="566.00" text-anchor="middle" font-family="sans-serif" font-size="11" fill="#444">Jul</text>
<text x="1101.25" y="566.00" text-anchor="middle" font-family="sans-serif" font-size="11" fill="#444">Aug</text>
<line x1="70" y1="550" x2="1170" y2="550" stroke="#888"/>
<line x1="70" y1="25" x2="70" y2="550" stroke="#888"/>
<line x1="75.73" y1="550.00" x2="75.73" y2="556.00" stroke="#888"/>
<line x1="1135.62"   y1="550.00" x2="1135.62"   y2="556.00" stroke="#888"/>
<text x="75.73" y="582.00" text-anchor="start" font-family="sans-serif" font-size="11" fill="#333">Initial Balance: 100000</text>
<text x="1135.62"   y="582.00" text-anchor="end"   font-family="sans-serif" font-size="11" fill="#333">Ending Balance: 102983</text>
<path d="M 98.65 49.07 L 110.10 49.07 L 121.56 49.07 L 133.02 49.07 L 133.02 51.24 L 121.56 52.34 L 110.10 54.43 L 98.65 54.18 Z" fill="#d0d0d0" fill-opacity="0.5" stroke="none"/>
<path d="M 356.46 30.59 L 379.38 30.59 L 402.29 30.59 L 402.29 31.29 L 379.38 33.45 L 356.46 35.88 Z" fill="#d0d0d0" fill-opacity="0.5" stroke="none"/>
<path d="M 485.94 26.08 L 492.81 26.08 L 499.69 26.08 L 506.56 26.08 L 513.44 26.08 L 520.31 26.08 L 527.19 26.08 L 534.06 26.08 L 540.94 26.08 L 547.81 26.08 L 554.69 26.08 L 554.69 26.47 L 547.81 29.44 L 540.94 31.26 L 534.06 31.42 L 527.19 32.99 L 520.31 33.78 L 513.44 31.83 L 506.56 26.60 L 499.69 29.62 L 492.81 29.70 L 485.94 31.40 Z" fill="#d0d0d0" fill-opacity="0.5" stroke="none"/>
<path d="M 568.44 25.00 L 575.31 25.00 L 582.19 25.00 L 589.06 25.00 L 595.94 25.00 L 602.81 25.00 L 609.69 25.00 L 616.56 25.00 L 633.75 25.00 L 661.25 25.00 L 688.75 25.00 L 716.25 25.00 L 743.75 25.00 L 780.42 25.00 L 826.25 25.00 L 872.08 25.00 L 908.75 25.00 L 936.25 25.00 L 963.75 25.00 L 991.25 25.00 L 1018.75 25.00 L 1066.88 25.00 L 1135.62 25.00 L 1135.62 35.76 L 1066.88 37.86 L 1018.75 40.12 L 991.25 34.89 L 963.75 37.06 L 936.25 39.36 L 908.75 34.17 L 872.08 37.07 L 826.25 39.56 L 780.42 41.71 L 743.75 44.16 L 716.25 38.96 L 688.75 41.38 L 661.25 36.15 L 633.75 38.69 L 616.56 33.43 L 609.69 34.11 L 602.81 28.81 L 595.94 30.12 L 589.06 32.66 L 582.19 32.54 L 575.31 27.31 L 568.44 30.34 Z" fill="#d0d0d0" fill-opacity="0.5" stroke="none"/>
<polyline fill="none" stroke="#111" stroke-width="1.2" points="75.73,50.65 87.19,49.07 98.65,54.18 110.10,54.43 121.56,52.34 133.02,51.24 144.48,48.61 155.94,46.32 167.40,43.67 178.85,41.01 190.31,40.07 201.77,37.67 230.42,35.72 276.25,33.29 322.08,30.59 356.46,35.88 379.38,33.45 402.29,31.29 425.21,29.34 448.12,27.95 471.04,26.08 485.94,31.40 492.81,29.70 499.69,29.62 506.56,26.60 513.44,31.83 520.31,33.78 527.19,32.99 534.06,31.42 540.94,31.26 547.81,29.44 554.69,26.47 561.56,25.00 568.44,30.34 575.31,27.31 582.19,32.54 589.06,32.66 595.94,30.12 602.81,28.81 609.69,34.11 616.56,33.43 633.75,38.69 661.25,36.15 688.75,41.38 716.25,38.96 743.75,44.16 780.42,41.71 826.25,39.56 872.08,37.07 908.75,34.17 936.25,39.36 963.75,37.06 991.25,34.89 1018.75,40.12 1066.88,37.86 1135.62,35.76"/>
<text x="15" y="287.5" transform="rotate(-90 15,287.5)" text-anchor="middle" font-family="sans-serif" font-size="12" fill="#333">USD</text>
</svg>