<svg xmlns="http://www.w3.org/2000/svg" width="1200" height="600" viewBox="0 0 1200 600">
<desc>Equity curve with drawdown fill; x-axis is months only (no exact timestamps)</desc>
<text x="600.0" y="18.0" text-anchor="middle" font-family="sans-serif" font-size="14">Balance Curve 2016 (UTC)</text>
<rect x="70" y="25" width="1100" height="525" fill="white" stroke="#ccc" />
<line x1="70" y1="550.00" x2="1170" y2="550.00" stroke="#eee"/>
<text x="62" y="554.0" text-anchor="end" font-family="sans-serif" font-size="11" fill="#555">0.00</text>
<line x1="70" y1="445.00" x2="1170" y2="445.00" stroke="#eee"/>
<text x="62" y="449.0" text-anchor="end" font-family="sans-serif" font-size="11" fill="#555">57328</text>
<line x1="70" y1="340.00" x2="1170" y2="340.00" stroke="#eee"/>
<text x="62" y="344.0" text-anchor="end" font-family="sans-serif" font-size="11" fill="#555">114656</text>
<line x1="70" y1="235.00" x2="1170" y2="235.00" stroke="#eee"/>
<text x="62" y="239.0" text-anchor="end" font-family="sans-serif" font-size="11" fill="#555">171983</text>
<line x1="70" y1="130.00" x2="1170" y2="130.00" stroke="#eee"/>
<text x="62" y="134.0" text-anchor="end" font-family="sans-serif" font-size="11" fill="#555">229311</text>
<line x1="70" y1="25.00" x2="1170" y2="25.00" stroke="#eee"/>
<text x="62" y="29.0" text-anchor="end" font-family="sans-serif" font-size="11" fill="#555">286639</text>
<line x1="161.67" y1="25" x2="161.67" y2="550" stroke="#f2f2f2"/>
<line x1="253.33" y1="25" x2="253.33" y2="550" stroke="#f2f2f2"/>
<line x1="345.00" y1="25" x2="345.00" y2="550" stroke="#f2f2f2"/>
<line x1="436.67" y1="25" x2="436.67" y2="550" stroke="#f2f2f2"/>
<line x1="528.33" y1="25" x2="528.33" y2="550" stroke="#f2f2f2"/>
<line x1="620.00" y1="25" x2="620.00" y2="550" stroke="#f2f2f2"/>
<line x1="711.67" y1="25" x2="711.67" y2="550" stroke="#f2f2f2"/>
<line x1="803.33" y1="25" x2="803.33" y2="550" stroke="#f2f2f2"/>
<line x1="895.00" y1="25" x2="895.00" y2="550" stroke="#f2f2f2"/>
<line x1="986.67" y1="25" x2="986.67" y2="550" stroke="#f2f2f2"/>
<line x1="1078.33" y1="25" x2="1078.33" y2="550" stroke="#f2f2f2"/>
<text x="115.83" y="566.00" text-anchor="middle" font-family="sans-serif" font-size="11" fill="#444">Jan</text>
<text x="207.50" y="566.00" text-anchor="middle" font-family="sans-serif" font-size="11" fill="#444">Feb</text>
<text x="299.17" y="566.00" text-anchor="middle" font-family="sans-serif" font-size="11" fill="#444">Mar</text>
<text x="390.83" y="566.00" text-anchor="middle" font-family="sans-serif" font-size="11" fill="#444">Apr</text>
<text x="482.50" y="566.00" text-anchor="middle" font-family="sans-serif" font-size="11" fill="#444">May</text>
<text x="574.17" y="566.00" text-anchor="middle" font-family="sans-serif" font-size="11" fill="#444">Jun</text>
<text x="665.83" y="566.00" text-anchor="middle" font-family="sans-serif" font-size="11" fill="#444">Jul</text>
<text x="757.50" y="566.00" text-anchor="middle" font-family="sans-serif" font-size="11" fill="#444">Aug</text>
<text x="849.17" y="566.00" text-anchor="middle" font-family="sans-serif" font-size="11" fill="#444">Sep</text>
<text x="940.83" y="566.00" text-anchor="middle" font-family="sans-serif" font-size="11" fill="#444">Oct</text>
<text x="1032.50" y="566.00" text-anchor="middle" font-family="sans-serif" font-size="11" fill="#444">Nov</text>
<text x="1124.17" y="566.00" text-anchor="middle" font-family="sans-serif" font-size="11" fill="#444">Dec</text>
<line x1="70" y1="550" x2="1170" y2="550" stroke="#888"/>
<line x1="70" y1="25" x2="70" y2="550" stroke="#888"/>
<line x1="76.55" y1="550.00" x2="76.55" y2="556.00" stroke="#888"/>
<line x1="1160.83"   y1="550.00" x2="1160.83"   y2="556.00" stroke="#888"/>
<text x="76.55" y="582.00" text-anchor="start" font-family="sans-serif" font-size="11" fill="#333">Initial Balance: 263735</text>
<text x="1160.83"   y="582.00" text-anchor="end"   font-family="sans-serif" font-size="11" fill="#333">Ending Balance: 283966</text>
<path d="M 102.74 65.43 L 102.74 67.35 Z" fill="#d0d0d0" fill-opacity="0.5" stroke="none"/>
<path d="M 128.93 65.00 L 142.02 65.00 L 155.12 65.00 L 167.40 65.00 L 178.85 65.00 L 190.31 65.00 L 201.77 65.00 L 213.23 65.00 L 224.69 65.00 L 236.15 65.00 L 247.60 65.00 L 260.97 65.00 L 276.25 65.00 L 291.53 65.00 L 306.81 65.00 L 322.08 65.00 L 337.36 65.00 L 354.17 65.00 L 372.50 65.00 L 390.83 65.00 L 409.17 65.00 L 427.50 65.00 L 443.21 65.00 L 456.31 65.00 L 469.40 65.00 L 482.50 65.00 L 495.60 65.00 L 508.69 65.00 L 521.79 65.00 L 529.51 65.00 L 531.86 65.00 L 534.21 65.00 L 536.56 65.00 L 538.91 65.00 L 541.26 65.00 L 543.61 65.00 L 545.96 65.00 L 548.31 65.00 L 550.66 65.00 L 553.01 65.00 L 555.36 65.00 L 557.71 65.00 L 560.06 65.00 L 562.41 65.00 L 564.76 65.00 L 567.12 65.00 L 569.47 65.00 L 571.82 65.00 L 574.17 65.00 L 576.52 65.00 L 578.87 65.00 L 581.22 65.00 L 583.57 65.00 L 585.92 65.00 L 588.27 65.00 L 590.62 65.00 L 592.97 65.00 L 595.32 65.00 L 597.67 65.00 L 600.02 65.00 L 602.37 65.00 L 604.72 65.00 L 607.07 65.00 L 609.42 65.00 L 611.77 65.00 L 614.12 65.00 L 614.12 66.97 L 611.77 66.39 L 609.42 68.89 L 607.07 70.45 L 604.72 73.30 L 602.37 68.49 L 600.02 70.87 L 597.67 72.36 L 595.32 74.86 L 592.97 77.61 L 590.62 80.35 L 588.27 81.37 L 585.92 76.64 L 583.57 79.38 L 581.22 82.15 L 578.87 84.97 L 576.52 88.19 L 574.17 90.86 L 571.82 86.28 L 569.47 89.07 L 567.12 91.87 L 564.76 94.13 L 562.41 89.53 L 560.06 87.67 L 557.71 92.21 L 555.36 90.39 L 553.01 92.66 L 550.66 95.31 L 548.31 90.73 L 545.96 86.09 L 543.61 88.78 L 541.26 90.25 L 538.91 92.86 L 536.56 88.25 L 534.21 83.59 L 531.86 78.93 L 529.51 74.28 L 521.79 77.10 L 508.69 79.60 L 495.60 74.84 L 482.50 77.60 L 469.40 79.60 L 456.31 81.82 L 443.21 82.40 L 427.50 84.42 L 409.17 84.80 L 390.83 87.50 L 372.50 82.83 L 354.17 78.11 L 337.36 76.75 L 322.08 77.20 L 306.81 79.94 L 291.53 75.19 L 276.25 70.40 L 260.97 71.85 L 247.60 74.13 L 236.15 75.54 L 224.69 77.06 L 213.23 72.28 L 201.77 72.42 L 190.31 67.60 L 178.85 69.49 L 167.40 71.41 L 155.12 73.91 L 142.02 74.64 L 128.93 69.84 Z" fill="#d0d0d0" fill-opacity="0.5" stroke="none"/>
<path d="M 618.82 64.57 L 618.82 66.46 Z" fill="#d0d0d0" fill-opacity="0.5" stroke="none"/>
<path d="M 633.37 60.58 L 637.19 60.58 L 641.01 60.58 L 644.83 60.58 L 648.65 60.58 L 648.65 61.77 L 644.83 64.59 L 641.01 67.40 L 637.19 62.56 L 633.37 65.48 Z" fill="#d0d0d0" fill-opacity="0.5" stroke="none"/>
<path d="M 656.28 58.94 L 660.10 58.94 L 663.92 58.94 L 667.74 58.94 L 671.56 58.94 L 675.38 58.94 L 679.20 58.94 L 683.02 58.94 L 686.84 58.94 L 690.66 58.94 L 694.48 58.94 L 698.30 58.94 L 702.12 58.94 L 705.94 58.94 L 705.94 59.10 L 702.12 61.28 L 698.30 59.41 L 694.48 61.98 L 690.66 63.89 L 686.84 66.25 L 683.02 67.33 L 679.20 68.78 L 675.38 69.24 L 671.56 71.19 L 667.74 71.53 L 663.92 66.69 L 660.10 61.81 L 656.28 63.85 Z" fill="#d0d0d0" fill-opacity="0.5" stroke="none"/>
<path d="M 732.50 53.72 L 740.83 53.72 L 749.17 53.72 L 749.17 54.57 L 740.83 57.44 L 732.50 58.68 Z" fill="#d0d0d0" fill-opacity="0.5" stroke="none"/>
<path d="M 907.06 30.74 L 911.89 30.74 L 916.71 30.74 L 921.54 30.74 L 926.36 30.74 L 931.18 30.74 L 936.01 30.74 L 940.83 30.74 L 945.66 30.74 L 950.48 30.74 L 955.31 30.74 L 960.13 30.74 L 964.96 30.74 L 969.78 30.74 L 974.61 30.74 L 979.43 30.74 L 984.25 30.74 L 989.36 30.74 L 994.75 30.74 L 1000.15 30.74 L 1005.54 30.74 L 1010.93 30.74 L 1016.32 30.74 L 1021.72 30.74 L 1027.11 30.74 L 1032.50 30.74 L 1032.50 32.62 L 1027.11 34.41 L 1021.72 36.76 L 1016.32 38.49 L 1010.93 40.94 L 1005.54 35.80 L 1000.15 38.76 L 994.75 41.55 L 989.36 36.42 L 984.25 37.55 L 979.43 37.89 L 974.61 40.09 L 969.78 43.02 L 964.96 43.69 L 960.13 38.58 L 955.31 41.51 L 950.48 44.25 L 945.66 45.84 L 940.83 48.72 L 936.01 51.59 L 931.18 54.19 L 926.36 49.18 L 921.54 44.13 L 916.71 39.03 L 911.89 35.87 L 907.06 41.01 Z" fill="#d0d0d0" fill-opacity="0.5" stroke="none"/>
<path d="M 1048.68 28.04 L 1048.68 28.14 Z" fill="#d0d0d0" fill-opacity="0.5" stroke="none"/>
<path d="M 1059.46 25.00 L 1064.85 25.00 L 1070.25 25.00 L 1075.64 25.00 L 1087.50 25.00 L 1105.83 25.00 L 1124.17 25.00 L 1142.50 25.00 L 1160.83 25.00 L 1160.83 29.90 L 1142.50 30.63 L 1124.17 30.87 L 1105.83 30.36 L 1087.50 30.67 L 1075.64 25.44 L 1070.25 28.46 L 1064.85 27.95 L 1059.46 30.19 Z" fill="#d0d0d0" fill-opacity="0.5" stroke="none"/>
<polyline fill="none" stroke="#111" stroke-width="1.2" points="76.55,66.95 89.64,65.43 102.74,67.35 115.83,65.00 128.93,69.84 142.02,74.64 155.12,73.91 167.40,71.41 178.85,69.49 190.31,67.60 201.77,72.42 213.23,72.28 224.69,77.06 236.15,75.54 247.60,74.13 260.97,71.85 276.25,70.40 291.53,75.19 306.81,79.94 322.08,77.20 337.36,76.75 354.17,78.11 372.50,82.83 390.83,87.50 409.17,84.80 427.50,84.42 443.21,82.40 456.31,81.82 469.40,79.60 482.50,77.60 495.60,74.84 508.69,79.60 521.79,77.10 529.51,74.28 531.86,78.93 534.21,83.59 536.56,88.25 538.91,92.86 541.26,90.25 543.61,88.78 545.96,86.09 548.31,90.73 550.66,95.31 553.01,92.66 555.36,90.39 557.71,92.21 560.06,87.67 562.41,89.53 564.76,94.13 567.12,91.87 569.47,89.07 571.82,86.28 574.17,90.86 576.52,88.19 578.87,84.97 581.22,82.15 583.57,79.38 585.92,76.64 588.27,81.37 590.62,80.35 592.97,77.61 595.32,74.86 597.67,72.36 600.02,70.87 602.37,68.49 604.72,73.30 607.07,70.45 609.42,68.89 611.77,66.39 614.12,66.97 616.47,64.57 618.82,66.46 621.91,64.24 625.73,61.41 629.55,60.58 633.37,65.48 637.19,62.56 641.01,67.40 644.83,64.59 648.65,61.77 652.47,58.94 656.28,63.85 660.10,61.81 663.92,66.69 667.74,71.53 671.56,71.19 675.38,69.24 679.20,68.78 683.02,67.33 686.84,66.25 690.66,63.89 694.48,61.98 698.30,59.41 702.12,61.28 705.94,59.10 709.76,58.57 715.83,56.59 724.17,53.72 732.50,58.68 740.83,57.44 749.17,54.57 757.50,51.78 765.83,51.04 774.17,49.11 782.50,47.87 790.83,45.44 799.17,43.68 818.61,40.73 849.17,38.36 879.72,36.71 897.41,33.73 902.24,30.74 907.06,41.01 911.89,35.87 916.71,39.03 921.54,44.13 926.36,49.18 931.18,54.19 936.01,51.59 940.83,48.72 945.66,45.84 950.48,44.25 955.31,41.51 960.13,38.58 964.96,43.69 969.78,43.02 974.61,40.09 979.43,37.89 984.25,37.55 989.36,36.42 994.75,41.55 1000.15,38.76 1005.54,35.80 1010.93,40.94 1016.32,38.49 1021.72,36.76 1027.11,34.41 1032.50,32.62 1037.89,29.63 1043.28,28.04 1048.68,28.14 1054.07,25.00 1059.46,30.19 1064.85,27.95 1070.25,28.46 1075.64,25.44 1087.50,30.67 1105.83,30.36 1124.17,30.87 1142.50,30.63 1160.83,29.90"/>
<text x="15" y="287.5" transform="rotate(-90 15,287.5)" text-anchor="middle" font-family="sans-serif" font-size="12" fill="#333">USD</text>
</svg>