<svg xmlns="http://www.w3.org/2000/svg" width="1200" height="600" viewBox="0 0 1200 600">
<desc>Equity curve with drawdown fill; x-axis is months only (no exact timestamps)</desc>
<text x="600.0" y="18.0" text-anchor="middle" font-family="sans-serif" font-size="14">Balance Curve 2015 (UTC)</text>
<rect x="70" y="25" width="1100" height="525" fill="white" stroke="#ccc" />
<line x1="70" y1="550.00" x2="1170" y2="550.00" stroke="#eee"/>
<text x="62" y="554.0" text-anchor="end" font-family="sans-serif" font-size="11" fill="#555">0.00</text>
<line x1="70" y1="445.00" x2="1170" y2="445.00" stroke="#eee"/>
<text x="62" y="449.0" text-anchor="end" font-family="sans-serif" font-size="11" fill="#555">47880</text>
<line x1="70" y1="340.00" x2="1170" y2="340.00" stroke="#eee"/>
<text x="62" y="344.0" text-anchor="end" font-family="sans-serif" font-size="11" fill="#555">95760</text>
<line x1="70" y1="235.00" x2="1170" y2="235.00" stroke="#eee"/>
<text x="62" y="239.0" text-anchor="end" font-family="sans-serif" font-size="11" fill="#555">143640</text>
<line x1="70" y1="130.00" x2="1170" y2="130.00" stroke="#eee"/>
<text x="62" y="134.0" text-anchor="end" font-family="sans-serif" font-size="11" fill="#555">191520</text>
<line x1="70" y1="25.00" x2="1170" y2="25.00" stroke="#eee"/>
<text x="62" y="29.0" text-anchor="end" font-family="sans-serif" font-size="11" fill="#555">239400</text>
<line x1="161.67" y1="25" x2="161.67" y2="550" stroke="#f2f2f2"/>
<line x1="253.33" y1="25" x2="253.33" y2="550" stroke="#f2f2f2"/>
<line x1="345.00" y1="25" x2="345.00" y2="550" stroke="#f2f2f2"/>
<line x1="436.67" y1="25" x2="436.67" y2="550" stroke="#f2f2f2"/>
<line x1="528.33" y1="25" x2="528.33" y2="550" stroke="#f2f2f2"/>
<line x1="620.00" y1="25" x2="620.00" y2="550" stroke="#f2f2f2"/>
<line x1="711.67" y1="25" x2="711.67" y2="550" stroke="#f2f2f2"/>
<line x1="803.33" y1="25" x2="803.33" y2="550" stroke="#f2f2f2"/>
<line x1="895.00" y1="25" x2="895.00" y2="550" stroke="#f2f2f2"/>
<line x1="986.67" y1="25" x2="986.67" y2="550" stroke="#f2f2f2"/>
<line x1="1078.33" y1="25" x2="1078.33" y2="550" stroke="#f2f2f2"/>
<text x="115.83" y="566.00" text-anchor="middle" font-family="sans-serif" font-size="11" fill="#444">Jan</text>
<text x="207.50" y="566.00" text-anchor="middle" font-family="sans-serif" font-size="11" fill="#444">Feb</text>
<text x="299.17" y="566.00" text-anchor="middle" font-family="sans-serif" font-size="11" fill="#444">Mar</text>
<text x="390.83" y="566.00" text-anchor="middle" font-family="sans-serif" font-size="11" fill="#444">Apr</text>
<text x="482.50" y="566.00" text-anchor="middle" font-family="sans-serif" font-size="11" fill="#444">May</text>
<text x="574.17" y="566.00" text-anchor="middle" font-family="sans-serif" font-size="11" fill="#444">Jun</text>
<text x="665.83" y="566.00" text-anchor="middle" font-family="sans-serif" font-size="11" fill="#444">Jul</text>
<text x="757.50" y="566.00" text-anchor="middle" font-family="sans-serif" font-size="11" fill="#444">Aug</text>
<text x="849.17" y="566.00" text-anchor="middle" font-family="sans-serif" font-size="11" fill="#444">Sep</text>
<text x="940.83" y="566.00" text-anchor="middle" font-family="sans-serif" font-size="11" fill="#444">Oct</text>
<text x="1032.50" y="566.00" text-anchor="middle" font-family="sans-serif" font-size="11" fill="#444">Nov</text>
<text x="1124.17" y="566.00" text-anchor="middle" font-family="sans-serif" font-size="11" fill="#444">Dec</text>
<line x1="70" y1="550" x2="1170" y2="550" stroke="#888"/>
<line x1="70" y1="25" x2="70" y2="550" stroke="#888"/>
<line x1="77.64" y1="550.00" x2="77.64" y2="556.00" stroke="#888"/>
<line x1="1158.54"   y1="550.00" x2="1158.54"   y2="556.00" stroke="#888"/>
<text x="77.64" y="582.00" text-anchor="start" font-family="sans-serif" font-size="11" fill="#333">Initial Balance: 196864</text>
<text x="1158.54"   y="582.00" text-anchor="end"   font-family="sans-serif" font-size="11" fill="#333">Ending Balance: 238102</text>
<path d="M 165.83 109.05 L 174.17 109.05 L 182.50 109.05 L 182.50 110.64 L 174.17 112.76 L 165.83 113.54 Z" fill="#d0d0d0" fill-opacity="0.5" stroke="none"/>
<path d="M 255.33 98.56 L 259.31 98.56 L 263.30 98.56 L 267.28 98.56 L 271.27 98.56 L 271.27 98.59 L 267.28 100.91 L 263.30 103.24 L 259.31 98.65 L 255.33 99.41 Z" fill="#d0d0d0" fill-opacity="0.5" stroke="none"/>
<path d="M 279.24 97.15 L 283.22 97.15 L 287.21 97.15 L 287.21 99.49 L 283.22 99.76 L 279.24 101.76 Z" fill="#d0d0d0" fill-opacity="0.5" stroke="none"/>
<path d="M 311.12 88.92 L 315.11 88.92 L 319.09 88.92 L 319.09 89.71 L 315.11 91.38 L 311.12 93.61 Z" fill="#d0d0d0" fill-opacity="0.5" stroke="none"/>
<path d="M 361.89 70.75 L 366.71 70.75 L 371.54 70.75 L 371.54 72.08 L 366.71 73.16 L 361.89 75.62 Z" fill="#d0d0d0" fill-opacity="0.5" stroke="none"/>
<path d="M 381.18 69.59 L 386.01 69.59 L 390.83 69.59 L 395.66 69.59 L 400.48 69.59 L 405.31 69.59 L 410.13 69.59 L 414.96 69.59 L 419.78 69.59 L 424.61 69.59 L 429.43 69.59 L 434.25 69.59 L 439.72 69.59 L 445.83 69.59 L 451.94 69.59 L 458.06 69.59 L 464.17 69.59 L 470.28 69.59 L 476.39 69.59 L 476.39 69.65 L 470.28 72.15 L 464.17 74.65 L 458.06 76.85 L 451.94 72.00 L 445.83 73.31 L 439.72 75.80 L 434.25 76.85 L 429.43 79.06 L 424.61 74.26 L 419.78 76.90 L 414.96 77.96 L 410.13 73.12 L 405.31 74.49 L 400.48 76.27 L 395.66 75.93 L 390.83 78.17 L 386.01 73.33 L 381.18 74.47 Z" fill="#d0d0d0" fill-opacity="0.5" stroke="none"/>
<path d="M 494.72 66.12 L 500.83 66.12 L 506.94 66.12 L 513.06 66.12 L 519.17 66.12 L 525.28 66.12 L 530.62 66.12 L 535.21 66.12 L 539.79 66.12 L 544.38 66.12 L 548.96 66.12 L 548.96 67.01 L 544.38 69.33 L 539.79 71.85 L 535.21 66.96 L 530.62 68.93 L 525.28 71.44 L 519.17 73.24 L 513.06 75.50 L 506.94 74.75 L 500.83 75.87 L 494.72 71.02 Z" fill="#d0d0d0" fill-opacity="0.5" stroke="none"/>
<path d="M 594.79 48.56 L 599.38 48.56 L 603.96 48.56 L 608.54 48.56 L 613.12 48.56 L 617.71 48.56 L 625.09 48.56 L 635.28 48.56 L 645.46 48.56 L 645.46 49.90 L 635.28 51.30 L 625.09 53.87 L 617.71 56.28 L 613.12 59.05 L 608.54 54.08 L 603.96 56.83 L 599.38 58.63 L 594.79 53.62 Z" fill="#d0d0d0" fill-opacity="0.5" stroke="none"/>
<path d="M 665.83 47.55 L 665.83 48.04 Z" fill="#d0d0d0" fill-opacity="0.5" stroke="none"/>
<path d="M 696.39 42.88 L 706.57 42.88 L 714.08 42.88 L 718.90 42.88 L 723.73 42.88 L 728.55 42.88 L 733.38 42.88 L 738.20 42.88 L 743.03 42.88 L 747.85 42.88 L 752.68 42.88 L 757.50 42.88 L 757.50 44.71 L 752.68 47.27 L 747.85 49.68 L 743.03 50.08 L 738.20 50.78 L 733.38 45.70 L 728.55 45.10 L 723.73 47.71 L 718.90 50.50 L 714.08 45.41 L 706.57 48.02 L 696.39 47.94 Z" fill="#d0d0d0" fill-opacity="0.5" stroke="none"/>
<path d="M 771.97 40.92 L 776.80 40.92 L 781.62 40.92 L 786.45 40.92 L 791.27 40.92 L 791.27 43.21 L 786.45 43.72 L 781.62 46.55 L 776.80 43.71 L 771.97 46.04 Z" fill="#d0d0d0" fill-opacity="0.5" stroke="none"/>
<path d="M 860.62 35.32 L 883.54 35.32 L 901.55 35.32 L 914.64 35.32 L 927.74 35.32 L 927.74 37.07 L 914.64 36.35 L 901.55 37.07 L 883.54 37.40 L 860.62 36.55 Z" fill="#d0d0d0" fill-opacity="0.5" stroke="none"/>
<path d="M 967.02 31.76 L 967.02 33.40 Z" fill="#d0d0d0" fill-opacity="0.5" stroke="none"/>
<path d="M 1112.71 25.00 L 1135.62 25.00 L 1158.54 25.00 L 1158.54 27.85 L 1135.62 28.65 L 1112.71 30.26 Z" fill="#d0d0d0" fill-opacity="0.5" stroke="none"/>
<polyline fill="none" stroke="#111" stroke-width="1.2" points="77.64,118.28 92.92,115.99 108.19,115.51 123.47,113.23 138.75,111.17 154.03,109.05 165.83,113.54 174.17,112.76 182.50,110.64 190.83,108.83 199.17,107.83 207.50,107.15 215.83,104.94 224.17,103.73 232.50,101.91 240.83,101.11 249.17,98.56 255.33,99.41 259.31,98.65 263.30,103.24 267.28,100.91 271.27,98.59 275.25,97.15 279.24,101.76 283.22,99.76 287.21,99.49 291.20,97.14 295.18,94.92 299.17,93.11 303.15,91.26 307.14,88.92 311.12,93.61 315.11,91.38 319.09,89.71 323.08,87.30 327.07,84.87 331.05,82.71 335.04,81.23 339.02,78.78 343.01,76.31 347.41,74.39 352.24,72.10 357.06,70.75 361.89,75.62 366.71,73.16 371.54,72.08 376.36,69.59 381.18,74.47 386.01,73.33 390.83,78.17 395.66,75.93 400.48,76.27 405.31,74.49 410.13,73.12 414.96,77.96 419.78,76.90 424.61,74.26 429.43,79.06 434.25,76.85 439.72,75.80 445.83,73.31 451.94,72.00 458.06,76.85 464.17,74.65 470.28,72.15 476.39,69.65 482.50,67.79 488.61,66.12 494.72,71.02 500.83,75.87 506.94,74.75 513.06,75.50 519.17,73.24 525.28,71.44 530.62,68.93 535.21,66.96 539.79,71.85 544.38,69.33 548.96,67.01 553.54,64.48 558.12,64.38 562.71,61.84 567.29,60.09 571.88,58.07 576.46,55.49 581.04,52.91 585.62,51.18 590.21,48.56 594.79,53.62 599.38,58.63 603.96,56.83 608.54,54.08 613.12,59.05 617.71,56.28 625.09,53.87 635.28,51.30 645.46,49.90 655.65,47.55 665.83,48.04 676.02,45.68 686.20,42.88 696.39,47.94 706.57,48.02 714.08,45.41 718.90,50.50 723.73,47.71 728.55,45.10 733.38,45.70 738.20,50.78 743.03,50.08 747.85,49.68 752.68,47.27 757.50,44.71 762.32,41.97 767.15,40.92 771.97,46.04 776.80,43.71 781.62,46.55 786.45,43.72 791.27,43.21 796.10,40.56 800.92,38.57 814.79,37.98 837.71,35.32 860.62,36.55 883.54,37.40 901.55,37.07 914.64,36.35 927.74,37.07 940.83,34.40 953.93,31.76 967.02,33.40 980.12,30.72 1009.58,28.04 1055.42,27.23 1089.79,25.00 1112.71,30.26 1135.62,28.65 1158.54,27.85"/>
<text x="15" y="287.5" transform="rotate(-90 15,287.5)" text-anchor="middle" font-family="sans-serif" font-size="12" fill="#333">USD</text>
</svg>