<svg xmlns="http://www.w3.org/2000/svg" width="1200" height="600" viewBox="0 0 1200 600">
<desc>Equity curve with drawdown fill</desc>
<text x="600.0" y="18.0" text-anchor="middle" font-family="sans-serif" font-size="14">Portfolio 2016</text>
<rect x="70" y="25" width="1100" height="525" fill="white" stroke="#ccc" />
<line x1="70" y1="550.00" x2="1170" y2="550.00" stroke="#eee"/>
<text x="62" y="554.0" text-anchor="end" font-family="sans-serif" font-size="11" fill="#555">0.00</text>
<line x1="70" y1="445.00" x2="1170" y2="445.00" stroke="#eee"/>
<text x="62" y="449.0" text-anchor="end" font-family="sans-serif" font-size="11" fill="#555">41124</text>
<line x1="70" y1="340.00" x2="1170" y2="340.00" stroke="#eee"/>
<text x="62" y="344.0" text-anchor="end" font-family="sans-serif" font-size="11" fill="#555">82249</text>
<line x1="70" y1="235.00" x2="1170" y2="235.00" stroke="#eee"/>
<text x="62" y="239.0" text-anchor="end" font-family="sans-serif" font-size="11" fill="#555">123373</text>
<line x1="70" y1="130.00" x2="1170" y2="130.00" stroke="#eee"/>
<text x="62" y="134.0" text-anchor="end" font-family="sans-serif" font-size="11" fill="#555">164497</text>
<line x1="70" y1="25.00" x2="1170" y2="25.00" stroke="#eee"/>
<text x="62" y="29.0" text-anchor="end" font-family="sans-serif" font-size="11" fill="#555">205621</text>
<line x1="154.21" y1="25" x2="154.21" y2="550" stroke="#f2f2f2"/>
<text x="154.21" y="566" text-anchor="middle" font-family="sans-serif" font-size="11" fill="#555">Feb</text>
<line x1="242.56" y1="25" x2="242.56" y2="550" stroke="#f2f2f2"/>
<text x="242.56" y="566" text-anchor="middle" font-family="sans-serif" font-size="11" fill="#555">Mar</text>
<line x1="337.00" y1="25" x2="337.00" y2="550" stroke="#f2f2f2"/>
<text x="337.00" y="566" text-anchor="middle" font-family="sans-serif" font-size="11" fill="#555">Apr</text>
<line x1="428.40" y1="25" x2="428.40" y2="550" stroke="#f2f2f2"/>
<text x="428.40" y="566" text-anchor="middle" font-family="sans-serif" font-size="11" fill="#555">May</text>
<line x1="522.84" y1="25" x2="522.84" y2="550" stroke="#f2f2f2"/>
<text x="522.84" y="566" text-anchor="middle" font-family="sans-serif" font-size="11" fill="#555">Jun</text>
<line x1="614.24" y1="25" x2="614.24" y2="550" stroke="#f2f2f2"/>
<text x="614.24" y="566" text-anchor="middle" font-family="sans-serif" font-size="11" fill="#555">Jul</text>
<line x1="708.68" y1="25" x2="708.68" y2="550" stroke="#f2f2f2"/>
<text x="708.68" y="566" text-anchor="middle" font-family="sans-serif" font-size="11" fill="#555">Aug</text>
<line x1="803.12" y1="25" x2="803.12" y2="550" stroke="#f2f2f2"/>
<text x="803.12" y="566" text-anchor="middle" font-family="sans-serif" font-size="11" fill="#555">Sep</text>
<line x1="894.51" y1="25" x2="894.51" y2="550" stroke="#f2f2f2"/>
<text x="894.51" y="566" text-anchor="middle" font-family="sans-serif" font-size="11" fill="#555">Oct</text>
<line x1="988.96" y1="25" x2="988.96" y2="550" stroke="#f2f2f2"/>
<text x="988.96" y="566" text-anchor="middle" font-family="sans-serif" font-size="11" fill="#555">Nov</text>
<line x1="1080.35" y1="25" x2="1080.35" y2="550" stroke="#f2f2f2"/>
<text x="1080.35" y="566" text-anchor="middle" font-family="sans-serif" font-size="11" fill="#555">Dec</text>
<line x1="70" y1="550" x2="1170" y2="550" stroke="#888"/>
<line x1="70" y1="25" x2="70" y2="550" stroke="#888"/>
<path d="M 70.76 96.01 L 79.26 96.01 L 80.45 96.01 L 81.30 96.01 L 81.30 97.82 L 80.45 100.07 L 79.26 101.80 L 70.76 97.19 Z" fill="#d0d0d0" fill-opacity="0.5" stroke="none"/>
<path d="M 104.18 90.48 L 104.19 90.48 L 104.19 92.68 L 104.18 95.15 Z" fill="#d0d0d0" fill-opacity="0.5" stroke="none"/>
<path d="M 123.18 88.61 L 123.18 89.44 Z" fill="#d0d0d0" fill-opacity="0.5" stroke="none"/>
<path d="M 146.93 85.19 L 162.03 85.19 L 162.28 85.19 L 162.34 85.19 L 162.39 85.19 L 162.68 85.19 L 164.45 85.19 L 168.11 85.19 L 168.16 85.19 L 168.23 85.19 L 168.40 85.19 L 177.05 85.19 L 177.59 85.19 L 180.31 85.19 L 183.60 85.19 L 185.79 85.19 L 189.47 85.19 L 198.83 85.19 L 226.27 85.19 L 232.22 85.19 L 250.76 85.19 L 253.42 85.19 L 253.42 85.77 L 250.76 88.35 L 232.22 90.90 L 226.27 91.69 L 198.83 92.44 L 189.47 93.56 L 185.79 95.43 L 183.60 97.69 L 180.31 93.05 L 177.59 95.59 L 177.05 90.92 L 168.40 92.11 L 168.23 92.05 L 168.16 93.81 L 168.11 96.16 L 164.45 98.68 L 162.68 100.19 L 162.39 95.57 L 162.34 97.21 L 162.28 92.56 L 162.03 87.90 L 146.93 89.91 Z" fill="#d0d0d0" fill-opacity="0.5" stroke="none"/>
<path d="M 269.10 79.02 L 269.10 81.17 Z" fill="#d0d0d0" fill-opacity="0.5" stroke="none"/>
<path d="M 271.62 78.56 L 271.73 78.56 L 271.75 78.56 L 271.75 80.22 L 271.73 82.82 L 271.62 83.32 Z" fill="#d0d0d0" fill-opacity="0.5" stroke="none"/>
<path d="M 271.92 76.41 L 271.97 76.41 L 272.06 76.41 L 272.14 76.41 L 272.26 76.41 L 274.17 76.41 L 275.01 76.41 L 290.67 76.41 L 290.72 76.41 L 292.57 76.41 L 307.78 76.41 L 330.07 76.41 L 339.00 76.41 L 354.12 76.41 L 354.35 76.41 L 356.52 76.41 L 372.47 76.41 L 399.64 76.41 L 399.64 78.50 L 372.47 79.90 L 356.52 81.71 L 354.35 83.66 L 354.12 86.25 L 339.00 87.88 L 330.07 88.24 L 307.78 90.80 L 292.57 91.97 L 290.72 91.50 L 290.67 86.82 L 275.01 89.39 L 274.17 89.85 L 272.26 90.74 L 272.14 90.31 L 272.06 90.53 L 271.97 85.85 L 271.92 81.14 Z" fill="#d0d0d0" fill-opacity="0.5" stroke="none"/>
<path d="M 399.94 75.73 L 415.03 75.73 L 418.63 75.73 L 418.63 76.30 L 415.03 78.93 L 399.94 80.54 Z" fill="#d0d0d0" fill-opacity="0.5" stroke="none"/>
<path d="M 530.74 64.34 L 530.83 64.34 L 530.90 64.34 L 531.05 64.34 L 567.90 64.34 L 570.06 64.34 L 570.79 64.34 L 570.82 64.34 L 570.95 64.34 L 585.56 64.34 L 591.18 64.34 L 592.91 64.34 L 592.91 64.44 L 591.18 67.27 L 585.56 69.67 L 570.95 72.32 L 570.82 73.93 L 570.79 76.26 L 570.06 71.39 L 567.90 71.54 L 531.05 74.20 L 530.90 73.16 L 530.83 74.06 L 530.74 69.21 Z" fill="#d0d0d0" fill-opacity="0.5" stroke="none"/>
<path d="M 593.12 61.53 L 593.17 61.53 L 593.21 61.53 L 593.34 61.53 L 593.36 61.53 L 593.40 61.53 L 593.51 61.53 L 593.54 61.53 L 593.65 61.53 L 593.69 61.53 L 593.83 61.53 L 593.85 61.53 L 593.97 61.53 L 594.02 61.53 L 594.09 61.53 L 594.18 61.53 L 594.47 61.53 L 594.86 61.53 L 595.27 61.53 L 601.95 61.53 L 612.93 61.53 L 613.34 61.53 L 613.34 64.10 L 612.93 66.79 L 601.95 69.06 L 595.27 70.98 L 594.86 66.06 L 594.47 68.23 L 594.18 68.39 L 594.09 70.48 L 594.02 71.48 L 593.97 66.61 L 593.85 69.27 L 593.83 72.00 L 593.69 74.63 L 593.65 76.26 L 593.54 71.43 L 593.51 73.97 L 593.40 69.19 L 593.36 71.47 L 593.34 73.96 L 593.21 69.11 L 593.17 71.35 L 593.12 66.48 Z" fill="#d0d0d0" fill-opacity="0.5" stroke="none"/>
<path d="M 628.59 58.77 L 637.28 58.77 L 637.28 61.05 L 628.59 63.75 Z" fill="#d0d0d0" fill-opacity="0.5" stroke="none"/>
<path d="M 787.04 39.72 L 805.19 39.72 L 807.88 39.72 L 808.17 39.72 L 820.32 39.72 L 820.40 39.72 L 829.42 39.72 L 850.69 39.72 L 892.57 39.72 L 892.57 40.43 L 850.69 42.22 L 829.42 43.16 L 820.40 43.75 L 820.32 45.00 L 808.17 39.84 L 807.88 42.19 L 805.19 44.99 L 787.04 44.88 Z" fill="#d0d0d0" fill-opacity="0.5" stroke="none"/>
<path d="M 1013.59 25.00 L 1013.63 25.00 L 1013.70 25.00 L 1013.76 25.00 L 1013.89 25.00 L 1013.90 25.00 L 1014.07 25.00 L 1014.21 25.00 L 1014.34 25.00 L 1014.42 25.00 L 1014.55 25.00 L 1014.60 25.00 L 1014.91 25.00 L 1015.28 25.00 L 1015.34 25.00 L 1028.75 25.00 L 1029.74 25.00 L 1030.54 25.00 L 1032.75 25.00 L 1035.69 25.00 L 1039.48 25.00 L 1042.74 25.00 L 1057.78 25.00 L 1071.58 25.00 L 1072.72 25.00 L 1079.14 25.00 L 1079.42 25.00 L 1092.41 25.00 L 1093.53 25.00 L 1093.67 25.00 L 1093.98 25.00 L 1094.04 25.00 L 1094.91 25.00 L 1103.29 25.00 L 1103.35 25.00 L 1103.41 25.00 L 1103.52 25.00 L 1103.68 25.00 L 1103.73 25.00 L 1106.38 25.00 L 1122.37 25.00 L 1123.09 25.00 L 1124.47 25.00 L 1125.17 25.00 L 1128.19 25.00 L 1146.27 25.00 L 1168.65 25.00 L 1168.69 25.00 L 1170.00 25.00 L 1170.00 44.41 L 1168.69 45.98 L 1168.65 48.21 L 1146.27 51.12 L 1128.19 53.37 L 1125.17 55.90 L 1124.47 57.11 L 1123.09 52.06 L 1122.37 52.34 L 1106.38 55.22 L 1103.73 55.43 L 1103.68 50.36 L 1103.52 45.29 L 1103.41 45.53 L 1103.35 40.40 L 1103.29 42.36 L 1094.91 45.30 L 1094.04 45.57 L 1093.98 47.59 L 1093.67 42.46 L 1093.53 43.47 L 1092.41 44.98 L 1079.42 47.91 L 1079.14 49.03 L 1072.72 51.18 L 1071.58 53.35 L 1057.78 53.22 L 1042.74 48.13 L 1039.48 50.62 L 1035.69 52.60 L 1032.75 54.59 L 1030.54 55.36 L 1029.74 54.44 L 1028.75 55.68 L 1015.34 57.79 L 1015.28 52.74 L 1014.91 52.17 L 1014.60 54.44 L 1014.55 49.42 L 1014.42 44.34 L 1014.34 45.26 L 1014.21 40.15 L 1014.07 42.80 L 1013.90 37.62 L 1013.89 40.60 L 1013.76 39.43 L 1013.70 34.30 L 1013.63 35.50 L 1013.59 30.29 Z" fill="#d0d0d0" fill-opacity="0.5" stroke="none"/>
<polyline fill="none" stroke="#111" stroke-width="1.2" points="70.00,96.01 70.76,97.19 79.26,101.80 80.45,100.07 81.30,97.82 83.06,95.73 90.12,93.21 98.34,91.47 100.59,91.00 101.45,90.48 104.18,95.15 104.19,92.68 122.42,90.01 122.50,88.61 123.18,89.44 143.23,87.76 145.54,85.19 146.93,89.91 162.03,87.90 162.28,92.56 162.34,97.21 162.39,95.57 162.68,100.19 164.45,98.68 168.11,96.16 168.16,93.81 168.23,92.05 168.40,92.11 177.05,90.92 177.59,95.59 180.31,93.05 183.60,97.69 185.79,95.43 189.47,93.56 198.83,92.44 226.27,91.69 232.22,90.90 250.76,88.35 253.42,85.77 253.44,83.25 253.48,80.65 253.67,79.23 263.10,79.02 269.10,81.17 271.60,78.56 271.62,83.32 271.73,82.82 271.75,80.22 271.78,77.47 271.88,76.41 271.92,81.14 271.97,85.85 272.06,90.53 272.14,90.31 272.26,90.74 274.17,89.85 275.01,89.39 290.67,86.82 290.72,91.50 292.57,91.97 307.78,90.80 330.07,88.24 339.00,87.88 354.12,86.25 354.35,83.66 356.52,81.71 372.47,79.90 399.64,78.50 399.68,75.73 399.94,80.54 415.03,78.93 418.63,76.30 433.35,73.66 435.70,72.56 445.35,69.89 466.89,67.48 482.71,67.16 530.65,64.34 530.74,69.21 530.83,74.06 530.90,73.16 531.05,74.20 567.90,71.54 570.06,71.39 570.79,76.26 570.82,73.93 570.95,72.32 585.56,69.67 591.18,67.27 592.91,64.44 592.95,61.53 593.12,66.48 593.17,71.35 593.21,69.11 593.34,73.96 593.36,71.47 593.40,69.19 593.51,73.97 593.54,71.43 593.65,76.26 593.69,74.63 593.83,72.00 593.85,69.27 593.97,66.61 594.02,71.48 594.09,70.48 594.18,68.39 594.47,68.23 594.86,66.06 595.27,70.98 601.95,69.06 612.93,66.79 613.34,64.10 613.37,61.49 627.50,58.77 628.59,63.75 637.28,61.05 637.37,58.33 655.40,55.60 658.80,55.07 680.30,53.63 701.39,52.40 722.58,49.64 722.80,49.12 743.99,48.75 755.57,47.66 759.87,45.11 786.74,42.30 786.79,39.72 787.04,44.88 805.19,44.99 807.88,42.19 808.17,39.84 820.32,45.00 820.40,43.75 829.42,43.16 850.69,42.22 892.57,40.43 893.37,39.17 905.77,36.34 905.81,33.76 914.58,31.16 954.15,28.49 954.24,26.04 979.19,25.00 1013.59,30.29 1013.63,35.50 1013.70,34.30 1013.76,39.43 1013.89,40.60 1013.90,37.62 1014.07,42.80 1014.21,40.15 1014.34,45.26 1014.42,44.34 1014.55,49.42 1014.60,54.44 1014.91,52.17 1015.28,52.74 1015.34,57.79 1028.75,55.68 1029.74,54.44 1030.54,55.36 1032.75,54.59 1035.69,52.60 1039.48,50.62 1042.74,48.13 1057.78,53.22 1071.58,53.35 1072.72,51.18 1079.14,49.03 1079.42,47.91 1092.41,44.98 1093.53,43.47 1093.67,42.46 1093.98,47.59 1094.04,45.57 1094.91,45.30 1103.29,42.36 1103.35,40.40 1103.41,45.53 1103.52,45.29 1103.68,50.36 1103.73,55.43 1106.38,55.22 1122.37,52.34 1123.09,52.06 1124.47,57.11 1125.17,55.90 1128.19,53.37 1146.27,51.12 1168.65,48.21 1168.69,45.98 1170.00,44.41"/>
<text x="620.0" y="588" text-anchor="middle" font-family="sans-serif" font-size="12" fill="#333">UTC time</text>
<text x="15" y="287.5" transform="rotate(-90 15,287.5)" text-anchor="middle" font-family="sans-serif" font-size="12" fill="#333">Capital</text>
</svg>