<svg xmlns="http://www.w3.org/2000/svg" width="1200" height="600" viewBox="0 0 1200 600">
<desc>Equity curve with drawdown fill; x-axis is months only (no exact timestamps)</desc>
<text x="600.0" y="18.0" text-anchor="middle" font-family="sans-serif" font-size="14">Balance Curve 2023 (UTC)</text>
<rect x="70" y="25" width="1100" height="525" fill="white" stroke="#ccc" />
<line x1="70" y1="550.00" x2="1170" y2="550.00" stroke="#eee"/>
<text x="62" y="554.0" text-anchor="end" font-family="sans-serif" font-size="11" fill="#555">0.00</text>
<line x1="70" y1="445.00" x2="1170" y2="445.00" stroke="#eee"/>
<text x="62" y="449.0" text-anchor="end" font-family="sans-serif" font-size="11" fill="#555">153247</text>
<line x1="70" y1="340.00" x2="1170" y2="340.00" stroke="#eee"/>
<text x="62" y="344.0" text-anchor="end" font-family="sans-serif" font-size="11" fill="#555">306493</text>
<line x1="70" y1="235.00" x2="1170" y2="235.00" stroke="#eee"/>
<text x="62" y="239.0" text-anchor="end" font-family="sans-serif" font-size="11" fill="#555">459740</text>
<line x1="70" y1="130.00" x2="1170" y2="130.00" stroke="#eee"/>
<text x="62" y="134.0" text-anchor="end" font-family="sans-serif" font-size="11" fill="#555">612986</text>
<line x1="70" y1="25.00" x2="1170" y2="25.00" stroke="#eee"/>
<text x="62" y="29.0" text-anchor="end" font-family="sans-serif" font-size="11" fill="#555">766233</text>
<line x1="170.00" y1="25" x2="170.00" y2="550" stroke="#f2f2f2"/>
<line x1="270.00" y1="25" x2="270.00" y2="550" stroke="#f2f2f2"/>
<line x1="370.00" y1="25" x2="370.00" y2="550" stroke="#f2f2f2"/>
<line x1="470.00" y1="25" x2="470.00" y2="550" stroke="#f2f2f2"/>
<line x1="570.00" y1="25" x2="570.00" y2="550" stroke="#f2f2f2"/>
<line x1="670.00" y1="25" x2="670.00" y2="550" stroke="#f2f2f2"/>
<line x1="770.00" y1="25" x2="770.00" y2="550" stroke="#f2f2f2"/>
<line x1="870.00" y1="25" x2="870.00" y2="550" stroke="#f2f2f2"/>
<line x1="970.00" y1="25" x2="970.00" y2="550" stroke="#f2f2f2"/>
<line x1="1070.00" y1="25" x2="1070.00" y2="550" stroke="#f2f2f2"/>
<text x="120.00" y="566.00" text-anchor="middle" font-family="sans-serif" font-size="11" fill="#444">Jan</text>
<text x="220.00" y="566.00" text-anchor="middle" font-family="sans-serif" font-size="11" fill="#444">Feb</text>
<text x="320.00" y="566.00" text-anchor="middle" font-family="sans-serif" font-size="11" fill="#444">Mar</text>
<text x="420.00" y="566.00" text-anchor="middle" font-family="sans-serif" font-size="11" fill="#444">Apr</text>
<text x="520.00" y="566.00" text-anchor="middle" font-family="sans-serif" font-size="11" fill="#444">May</text>
<text x="620.00" y="566.00" text-anchor="middle" font-family="sans-serif" font-size="11" fill="#444">Jun</text>
<text x="720.00" y="566.00" text-anchor="middle" font-family="sans-serif" font-size="11" fill="#444">Jul</text>
<text x="820.00" y="566.00" text-anchor="middle" font-family="sans-serif" font-size="11" fill="#444">Aug</text>
<text x="920.00" y="566.00" text-anchor="middle" font-family="sans-serif" font-size="11" fill="#444">Sep</text>
<text x="1020.00" y="566.00" text-anchor="middle" font-family="sans-serif" font-size="11" fill="#444">Oct</text>
<text x="1120.00" y="566.00" text-anchor="middle" font-family="sans-serif" font-size="11" fill="#444">Dec</text>
<line x1="70" y1="550" x2="1170" y2="550" stroke="#888"/>
<line x1="70" y1="25" x2="70" y2="550" stroke="#888"/>
<line x1="80.00" y1="550.00" x2="80.00" y2="556.00" stroke="#888"/>
<line x1="1145.00"   y1="550.00" x2="1145.00"   y2="556.00" stroke="#888"/>
<text x="80.00" y="582.00" text-anchor="start" font-family="sans-serif" font-size="11" fill="#333">Initial Balance: 766233</text>
<text x="1145.00"   y="582.00" text-anchor="end"   font-family="sans-serif" font-size="11" fill="#333">Ending Balance: 729612</text>
<path d="M 100.00 25.00 L 120.00 25.00 L 140.00 25.00 L 160.00 25.00 L 195.00 25.00 L 245.00 25.00 L 278.33 25.00 L 295.00 25.00 L 311.67 25.00 L 328.33 25.00 L 345.00 25.00 L 361.67 25.00 L 395.00 25.00 L 445.00 25.00 L 495.00 25.00 L 545.00 25.00 L 620.00 25.00 L 680.00 25.00 L 700.00 25.00 L 720.00 25.00 L 740.00 25.00 L 760.00 25.00 L 820.00 25.00 L 886.67 25.00 L 920.00 25.00 L 953.33 25.00 L 982.50 25.00 L 1007.50 25.00 L 1032.50 25.00 L 1057.50 25.00 L 1095.00 25.00 L 1145.00 25.00 L 1145.00 50.09 L 1095.00 53.07 L 1057.50 55.15 L 1032.50 58.50 L 1007.50 50.87 L 982.50 53.94 L 953.33 46.24 L 920.00 49.62 L 886.67 41.86 L 820.00 37.78 L 760.00 29.83 L 740.00 32.93 L 720.00 33.34 L 700.00 25.44 L 680.00 28.95 L 620.00 32.83 L 545.00 35.11 L 495.00 38.68 L 445.00 42.52 L 395.00 43.99 L 361.67 46.13 L 345.00 49.56 L 328.33 49.26 L 311.67 41.54 L 295.00 42.61 L 278.33 34.73 L 245.00 38.19 L 195.00 41.67 L 160.00 33.78 L 140.00 33.25 L 120.00 30.86 L 100.00 33.03 Z" fill="#d0d0d0" fill-opacity="0.5" stroke="none"/>
<polyline fill="none" stroke="#111" stroke-width="1.2" points="80.00,25.00 100.00,33.03 120.00,30.86 140.00,33.25 160.00,33.78 195.00,41.67 245.00,38.19 278.33,34.73 295.00,42.61 311.67,41.54 328.33,49.26 345.00,49.56 361.67,46.13 395.00,43.99 445.00,42.52 495.00,38.68 545.00,35.11 620.00,32.83 680.00,28.95 700.00,25.44 720.00,33.34 740.00,32.93 760.00,29.83 820.00,37.78 886.67,41.86 920.00,49.62 953.33,46.24 982.50,53.94 1007.50,50.87 1032.50,58.50 1057.50,55.15 1095.00,53.07 1145.00,50.09"/>
<text x="15" y="287.5" transform="rotate(-90 15,287.5)" text-anchor="middle" font-family="sans-serif" font-size="12" fill="#333">USD</text>
</svg>