<svg xmlns="http://www.w3.org/2000/svg" width="1200" height="600" viewBox="0 0 1200 600">
<desc>Equity curve with drawdown fill; x-axis is months only (no exact timestamps)</desc>
<text x="600.0" y="18.0" text-anchor="middle" font-family="sans-serif" font-size="14">Portfolio 2022 (UTC)</text>
<rect x="70" y="25" width="1100" height="525" fill="white" stroke="#ccc" />
<line x1="70" y1="550.00" x2="1170" y2="550.00" stroke="#eee"/>
<text x="62" y="554.0" text-anchor="end" font-family="sans-serif" font-size="11" fill="#555">0.00</text>
<line x1="70" y1="445.00" x2="1170" y2="445.00" stroke="#eee"/>
<text x="62" y="449.0" text-anchor="end" font-family="sans-serif" font-size="11" fill="#555">21527</text>
<line x1="70" y1="340.00" x2="1170" y2="340.00" stroke="#eee"/>
<text x="62" y="344.0" text-anchor="end" font-family="sans-serif" font-size="11" fill="#555">43055</text>
<line x1="70" y1="235.00" x2="1170" y2="235.00" stroke="#eee"/>
<text x="62" y="239.0" text-anchor="end" font-family="sans-serif" font-size="11" fill="#555">64582</text>
<line x1="70" y1="130.00" x2="1170" y2="130.00" stroke="#eee"/>
<text x="62" y="134.0" text-anchor="end" font-family="sans-serif" font-size="11" fill="#555">86110</text>
<line x1="70" y1="25.00" x2="1170" y2="25.00" stroke="#eee"/>
<text x="62" y="29.0" text-anchor="end" font-family="sans-serif" font-size="11" fill="#555">107637</text>
<line x1="161.67" y1="25" x2="161.67" y2="550" stroke="#f2f2f2"/>
<line x1="253.33" y1="25" x2="253.33" y2="550" stroke="#f2f2f2"/>
<line x1="345.00" y1="25" x2="345.00" y2="550" stroke="#f2f2f2"/>
<line x1="436.67" y1="25" x2="436.67" y2="550" stroke="#f2f2f2"/>
<line x1="528.33" y1="25" x2="528.33" y2="550" stroke="#f2f2f2"/>
<line x1="620.00" y1="25" x2="620.00" y2="550" stroke="#f2f2f2"/>
<line x1="711.67" y1="25" x2="711.67" y2="550" stroke="#f2f2f2"/>
<line x1="803.33" y1="25" x2="803.33" y2="550" stroke="#f2f2f2"/>
<line x1="895.00" y1="25" x2="895.00" y2="550" stroke="#f2f2f2"/>
<line x1="986.67" y1="25" x2="986.67" y2="550" stroke="#f2f2f2"/>
<line x1="1078.33" y1="25" x2="1078.33" y2="550" stroke="#f2f2f2"/>
<text x="115.83" y="566.00" text-anchor="middle" font-family="sans-serif" font-size="11" fill="#444">Jan</text>
<text x="207.50" y="566.00" text-anchor="middle" font-family="sans-serif" font-size="11" fill="#444">Feb</text>
<text x="299.17" y="566.00" text-anchor="middle" font-family="sans-serif" font-size="11" fill="#444">Mar</text>
<text x="390.83" y="566.00" text-anchor="middle" font-family="sans-serif" font-size="11" fill="#444">Apr</text>
<text x="482.50" y="566.00" text-anchor="middle" font-family="sans-serif" font-size="11" fill="#444">May</text>
<text x="574.17" y="566.00" text-anchor="middle" font-family="sans-serif" font-size="11" fill="#444">Jun</text>
<text x="665.83" y="566.00" text-anchor="middle" font-family="sans-serif" font-size="11" fill="#444">Jul</text>
<text x="757.50" y="566.00" text-anchor="middle" font-family="sans-serif" font-size="11" fill="#444">Aug</text>
<text x="849.17" y="566.00" text-anchor="middle" font-family="sans-serif" font-size="11" fill="#444">Sep</text>
<text x="940.83" y="566.00" text-anchor="middle" font-family="sans-serif" font-size="11" fill="#444">Oct</text>
<text x="1032.50" y="566.00" text-anchor="middle" font-family="sans-serif" font-size="11" fill="#444">Nov</text>
<text x="1124.17" y="566.00" text-anchor="middle" font-family="sans-serif" font-size="11" fill="#444">Dec</text>
<line x1="70" y1="550" x2="1170" y2="550" stroke="#888"/>
<line x1="70" y1="25" x2="70" y2="550" stroke="#888"/>
<line x1="115.83" y1="550.00" x2="115.83" y2="556.00" stroke="#888"/>
<line x1="1160.83"   y1="550.00" x2="1160.83"   y2="556.00" stroke="#888"/>
<text x="115.83" y="582.00" text-anchor="start" font-family="sans-serif" font-size="11" fill="#333">Initial Balance: 100000</text>
<text x="1160.83"   y="582.00" text-anchor="end"   font-family="sans-serif" font-size="11" fill="#333">Ending Balance: 107637</text>
<path d="M 288.98 48.67 L 299.17 48.67 L 309.35 48.67 L 319.54 48.67 L 319.54 50.38 L 309.35 52.07 L 299.17 51.38 L 288.98 53.81 Z" fill="#d0d0d0" fill-opacity="0.5" stroke="none"/>
<path d="M 339.91 47.90 L 351.55 47.90 L 364.64 47.90 L 377.74 47.90 L 390.83 47.90 L 403.93 47.90 L 417.02 47.90 L 430.12 47.90 L 443.21 47.90 L 456.31 47.90 L 469.40 47.90 L 482.50 47.90 L 495.60 47.90 L 508.69 47.90 L 508.69 50.06 L 495.60 50.77 L 482.50 53.43 L 469.40 54.20 L 456.31 56.34 L 443.21 58.43 L 430.12 56.73 L 417.02 58.48 L 403.93 58.22 L 390.83 60.85 L 377.74 55.78 L 364.64 57.36 L 351.55 52.26 L 339.91 53.05 Z" fill="#d0d0d0" fill-opacity="0.5" stroke="none"/>
<path d="M 608.54 42.51 L 608.54 42.85 Z" fill="#d0d0d0" fill-opacity="0.5" stroke="none"/>
<path d="M 661.25 35.63 L 670.42 35.63 L 679.58 35.63 L 688.75 35.63 L 697.92 35.63 L 707.08 35.63 L 716.76 35.63 L 726.94 35.63 L 737.13 35.63 L 737.13 37.74 L 726.94 37.71 L 716.76 40.43 L 707.08 42.57 L 697.92 37.31 L 688.75 37.70 L 679.58 38.11 L 670.42 38.19 L 661.25 40.91 Z" fill="#d0d0d0" fill-opacity="0.5" stroke="none"/>
<path d="M 757.50 34.84 L 767.69 34.84 L 777.87 34.84 L 788.06 34.84 L 788.06 37.37 L 777.87 39.13 L 767.69 40.94 L 757.50 40.08 Z" fill="#d0d0d0" fill-opacity="0.5" stroke="none"/>
<path d="M 805.52 34.64 L 809.88 34.64 L 814.25 34.64 L 818.61 34.64 L 822.98 34.64 L 827.34 34.64 L 831.71 34.64 L 836.07 34.64 L 840.44 34.64 L 844.80 34.64 L 849.17 34.64 L 853.53 34.64 L 857.90 34.64 L 862.26 34.64 L 866.63 34.64 L 870.99 34.64 L 875.36 34.64 L 879.72 34.64 L 884.09 34.64 L 888.45 34.64 L 892.82 34.64 L 897.55 34.64 L 902.64 34.64 L 907.73 34.64 L 912.82 34.64 L 917.92 34.64 L 917.92 36.09 L 912.82 38.08 L 907.73 40.71 L 902.64 43.39 L 897.55 45.14 L 892.82 45.33 L 888.45 48.00 L 884.09 42.78 L 879.72 44.65 L 875.36 39.47 L 870.99 41.26 L 866.63 43.44 L 862.26 45.98 L 857.90 48.45 L 853.53 50.93 L 849.17 45.80 L 844.80 40.56 L 840.44 43.19 L 836.07 45.86 L 831.71 48.25 L 827.34 45.97 L 822.98 40.79 L 818.61 43.65 L 814.25 38.40 L 809.88 40.29 L 805.52 39.94 Z" fill="#d0d0d0" fill-opacity="0.5" stroke="none"/>
<path d="M 938.29 27.98 L 943.38 27.98 L 948.47 27.98 L 953.56 27.98 L 958.66 27.98 L 963.75 27.98 L 968.84 27.98 L 973.94 27.98 L 979.03 27.98 L 984.12 27.98 L 992.40 27.98 L 1003.85 27.98 L 1015.31 27.98 L 1026.77 27.98 L 1038.23 27.98 L 1049.69 27.98 L 1061.15 27.98 L 1072.60 27.98 L 1087.50 27.98 L 1105.83 27.98 L 1124.17 27.98 L 1124.17 29.92 L 1105.83 31.23 L 1087.50 30.20 L 1072.60 32.96 L 1061.15 35.29 L 1049.69 37.22 L 1038.23 39.13 L 1026.77 33.83 L 1015.31 34.31 L 1003.85 28.96 L 992.40 31.56 L 984.12 32.02 L 979.03 34.06 L 973.94 34.40 L 968.84 37.12 L 963.75 38.92 L 958.66 41.04 L 953.56 41.44 L 948.47 36.16 L 943.38 38.54 L 938.29 33.29 Z" fill="#d0d0d0" fill-opacity="0.5" stroke="none"/>
<polyline fill="none" stroke="#111" stroke-width="1.2" points="115.83,62.25 170.83,60.45 189.17,58.59 207.50,58.07 225.83,55.99 244.17,53.61 258.43,50.93 268.61,49.73 278.80,48.67 288.98,53.81 299.17,51.38 309.35,52.07 319.54,50.38 329.72,47.90 339.91,53.05 351.55,52.26 364.64,57.36 377.74,55.78 390.83,60.85 403.93,58.22 417.02,58.48 430.12,56.73 443.21,58.43 456.31,56.34 469.40,54.20 482.50,53.43 495.60,50.77 508.69,50.06 521.79,47.89 539.79,46.39 562.71,44.00 585.62,42.51 608.54,42.85 624.58,42.24 633.75,41.06 642.92,38.35 652.08,35.63 661.25,40.91 670.42,38.19 679.58,38.11 688.75,37.70 697.92,37.31 707.08,42.57 716.76,40.43 726.94,37.71 737.13,37.74 747.31,34.84 757.50,40.08 767.69,40.94 777.87,39.13 788.06,37.37 798.24,34.64 805.52,39.94 809.88,40.29 814.25,38.40 818.61,43.65 822.98,40.79 827.34,45.97 831.71,48.25 836.07,45.86 840.44,43.19 844.80,40.56 849.17,45.80 853.53,50.93 857.90,48.45 862.26,45.98 866.63,43.44 870.99,41.26 875.36,39.47 879.72,44.65 884.09,42.78 888.45,48.00 892.82,45.33 897.55,45.14 902.64,43.39 907.73,40.71 912.82,38.08 917.92,36.09 923.01,33.37 928.10,30.89 933.19,27.98 938.29,33.29 943.38,38.54 948.47,36.16 953.56,41.44 958.66,41.04 963.75,38.92 968.84,37.12 973.94,34.40 979.03,34.06 984.12,32.02 992.40,31.56 1003.85,28.96 1015.31,34.31 1026.77,33.83 1038.23,39.13 1049.69,37.22 1061.15,35.29 1072.60,32.96 1087.50,30.20 1105.83,31.23 1124.17,29.92 1142.50,27.80 1160.83,25.00"/>
<text x="620.0" y="588" text-anchor="middle" font-family="sans-serif" font-size="12" fill="#333">Monthly Balance Curve</text>
<text x="15" y="287.5" transform="rotate(-90 15,287.5)" text-anchor="middle" font-family="sans-serif" font-size="12" fill="#333">Capital</text>
</svg>