<svg xmlns="http://www.w3.org/2000/svg" width="1200" height="600" viewBox="0 0 1200 600">
<desc>Equity curve with drawdown fill</desc>
<text x="600.0" y="18.0" text-anchor="middle" font-family="sans-serif" font-size="14">Portfolio 2018</text>
<rect x="70" y="25" width="1100" height="525" fill="white" stroke="#ccc" />
<line x1="70" y1="550.00" x2="1170" y2="550.00" stroke="#eee"/>
<text x="62" y="554.0" text-anchor="end" font-family="sans-serif" font-size="11" fill="#555">0.00</text>
<line x1="70" y1="445.00" x2="1170" y2="445.00" stroke="#eee"/>
<text x="62" y="449.0" text-anchor="end" font-family="sans-serif" font-size="11" fill="#555">21314</text>
<line x1="70" y1="340.00" x2="1170" y2="340.00" stroke="#eee"/>
<text x="62" y="344.0" text-anchor="end" font-family="sans-serif" font-size="11" fill="#555">42628</text>
<line x1="70" y1="235.00" x2="1170" y2="235.00" stroke="#eee"/>
<text x="62" y="239.0" text-anchor="end" font-family="sans-serif" font-size="11" fill="#555">63943</text>
<line x1="70" y1="130.00" x2="1170" y2="130.00" stroke="#eee"/>
<text x="62" y="134.0" text-anchor="end" font-family="sans-serif" font-size="11" fill="#555">85257</text>
<line x1="70" y1="25.00" x2="1170" y2="25.00" stroke="#eee"/>
<text x="62" y="29.0" text-anchor="end" font-family="sans-serif" font-size="11" fill="#555">106571</text>
<line x1="138.85" y1="25" x2="138.85" y2="550" stroke="#f2f2f2"/>
<text x="138.85" y="566" text-anchor="middle" font-family="sans-serif" font-size="11" fill="#555">Feb</text>
<line x1="228.39" y1="25" x2="228.39" y2="550" stroke="#f2f2f2"/>
<text x="228.39" y="566" text-anchor="middle" font-family="sans-serif" font-size="11" fill="#555">Mar</text>
<line x1="327.53" y1="25" x2="327.53" y2="550" stroke="#f2f2f2"/>
<text x="327.53" y="566" text-anchor="middle" font-family="sans-serif" font-size="11" fill="#555">Apr</text>
<line x1="423.47" y1="25" x2="423.47" y2="550" stroke="#f2f2f2"/>
<text x="423.47" y="566" text-anchor="middle" font-family="sans-serif" font-size="11" fill="#555">May</text>
<line x1="522.61" y1="25" x2="522.61" y2="550" stroke="#f2f2f2"/>
<text x="522.61" y="566" text-anchor="middle" font-family="sans-serif" font-size="11" fill="#555">Jun</text>
<line x1="618.55" y1="25" x2="618.55" y2="550" stroke="#f2f2f2"/>
<text x="618.55" y="566" text-anchor="middle" font-family="sans-serif" font-size="11" fill="#555">Jul</text>
<line x1="717.68" y1="25" x2="717.68" y2="550" stroke="#f2f2f2"/>
<text x="717.68" y="566" text-anchor="middle" font-family="sans-serif" font-size="11" fill="#555">Aug</text>
<line x1="816.82" y1="25" x2="816.82" y2="550" stroke="#f2f2f2"/>
<text x="816.82" y="566" text-anchor="middle" font-family="sans-serif" font-size="11" fill="#555">Sep</text>
<line x1="912.76" y1="25" x2="912.76" y2="550" stroke="#f2f2f2"/>
<text x="912.76" y="566" text-anchor="middle" font-family="sans-serif" font-size="11" fill="#555">Oct</text>
<line x1="1011.90" y1="25" x2="1011.90" y2="550" stroke="#f2f2f2"/>
<text x="1011.90" y="566" text-anchor="middle" font-family="sans-serif" font-size="11" fill="#555">Nov</text>
<line x1="1107.84" y1="25" x2="1107.84" y2="550" stroke="#f2f2f2"/>
<text x="1107.84" y="566" text-anchor="middle" font-family="sans-serif" font-size="11" fill="#555">Dec</text>
<line x1="70" y1="550" x2="1170" y2="550" stroke="#888"/>
<line x1="70" y1="25" x2="70" y2="550" stroke="#888"/>
<path d="M 73.43 57.14 L 76.04 57.14 L 85.92 57.14 L 85.92 58.33 L 76.04 59.39 L 73.43 62.14 Z" fill="#d0d0d0" fill-opacity="0.5" stroke="none"/>
<path d="M 118.29 52.80 L 118.37 52.80 L 118.57 52.80 L 119.00 52.80 L 119.14 52.80 L 119.14 54.78 L 119.00 54.66 L 118.57 57.44 L 118.37 56.54 L 118.29 57.84 Z" fill="#d0d0d0" fill-opacity="0.5" stroke="none"/>
<path d="M 252.94 36.99 L 252.94 38.36 Z" fill="#d0d0d0" fill-opacity="0.5" stroke="none"/>
<path d="M 409.67 35.05 L 429.27 35.05 L 435.01 35.05 L 454.21 35.05 L 470.21 35.05 L 491.86 35.05 L 495.05 35.05 L 501.98 35.05 L 514.37 35.05 L 517.43 35.05 L 517.43 35.15 L 514.37 37.36 L 501.98 36.65 L 495.05 38.54 L 491.86 39.34 L 470.21 41.38 L 454.21 36.16 L 435.01 36.43 L 429.27 38.52 L 409.67 40.27 Z" fill="#d0d0d0" fill-opacity="0.5" stroke="none"/>
<path d="M 565.90 25.00 L 566.03 25.00 L 566.03 25.00 L 566.16 25.00 L 566.18 25.00 L 566.29 25.00 L 581.48 25.00 L 588.40 25.00 L 612.63 25.00 L 636.37 25.00 L 653.01 25.00 L 678.62 25.00 L 681.27 25.00 L 747.29 25.00 L 747.38 25.00 L 747.47 25.00 L 781.85 25.00 L 784.23 25.00 L 793.26 25.00 L 831.56 25.00 L 837.94 25.00 L 857.15 25.00 L 879.43 25.00 L 900.91 25.00 L 1048.03 25.00 L 1055.50 25.00 L 1057.98 25.00 L 1061.79 25.00 L 1083.47 25.00 L 1100.53 25.00 L 1100.58 25.00 L 1100.68 25.00 L 1138.84 25.00 L 1150.74 25.00 L 1170.00 25.00 L 1170.00 48.98 L 1150.74 46.22 L 1138.84 44.33 L 1100.68 45.48 L 1100.58 40.30 L 1100.53 42.26 L 1083.47 37.06 L 1061.79 38.59 L 1057.98 33.35 L 1055.50 36.21 L 1048.03 37.80 L 900.91 39.25 L 879.43 41.59 L 857.15 40.88 L 837.94 35.66 L 831.56 35.79 L 793.26 37.82 L 784.23 40.44 L 781.85 40.30 L 747.47 43.13 L 747.38 45.30 L 747.29 46.31 L 681.27 49.11 L 678.62 48.35 L 653.01 48.95 L 636.37 50.29 L 612.63 52.61 L 588.40 55.37 L 581.48 50.30 L 566.29 51.79 L 566.18 50.91 L 566.16 45.84 L 566.03 40.72 L 566.03 35.55 L 565.90 30.32 Z" fill="#d0d0d0" fill-opacity="0.5" stroke="none"/>
<polyline fill="none" stroke="#111" stroke-width="1.2" points="70.00,57.14 73.43,62.14 76.04,59.39 85.92,58.33 88.64,55.58 90.98,52.80 118.29,57.84 118.37,56.54 118.57,57.44 119.00,54.66 119.14,54.78 120.72,52.53 144.10,50.67 155.96,48.40 156.63,47.69 182.22,44.87 182.44,42.03 224.02,39.45 252.50,36.99 252.94,38.36 316.75,36.59 358.03,35.05 409.67,40.27 429.27,38.52 435.01,36.43 454.21,36.16 470.21,41.38 491.86,39.34 495.05,38.54 501.98,36.65 514.37,37.36 517.43,35.15 518.41,32.27 524.65,29.40 537.76,27.90 560.23,25.00 565.90,30.32 566.03,35.55 566.03,40.72 566.16,45.84 566.18,50.91 566.29,51.79 581.48,50.30 588.40,55.37 612.63,52.61 636.37,50.29 653.01,48.95 678.62,48.35 681.27,49.11 747.29,46.31 747.38,45.30 747.47,43.13 781.85,40.30 784.23,40.44 793.26,37.82 831.56,35.79 837.94,35.66 857.15,40.88 879.43,41.59 900.91,39.25 1048.03,37.80 1055.50,36.21 1057.98,33.35 1061.79,38.59 1083.47,37.06 1100.53,42.26 1100.58,40.30 1100.68,45.48 1138.84,44.33 1150.74,46.22 1170.00,48.98"/>
<text x="620.0" y="588" text-anchor="middle" font-family="sans-serif" font-size="12" fill="#333">UTC time</text>
<text x="15" y="287.5" transform="rotate(-90 15,287.5)" text-anchor="middle" font-family="sans-serif" font-size="12" fill="#333">Capital</text>
</svg>