<svg xmlns="http://www.w3.org/2000/svg" width="1200" height="600" viewBox="0 0 1200 600">
<desc>Equity curve with drawdown fill; x-axis is months only (no exact timestamps)</desc>
<text x="600.0" y="18.0" text-anchor="middle" font-family="sans-serif" font-size="14">Portfolio 2011 (UTC)</text>
<rect x="70" y="25" width="1100" height="525" fill="white" stroke="#ccc" />
<line x1="70" y1="550.00" x2="1170" y2="550.00" stroke="#eee"/>
<text x="62" y="554.0" text-anchor="end" font-family="sans-serif" font-size="11" fill="#555">0.00</text>
<line x1="70" y1="445.00" x2="1170" y2="445.00" stroke="#eee"/>
<text x="62" y="449.0" text-anchor="end" font-family="sans-serif" font-size="11" fill="#555">63221</text>
<line x1="70" y1="340.00" x2="1170" y2="340.00" stroke="#eee"/>
<text x="62" y="344.0" text-anchor="end" font-family="sans-serif" font-size="11" fill="#555">126443</text>
<line x1="70" y1="235.00" x2="1170" y2="235.00" stroke="#eee"/>
<text x="62" y="239.0" text-anchor="end" font-family="sans-serif" font-size="11" fill="#555">189664</text>
<line x1="70" y1="130.00" x2="1170" y2="130.00" stroke="#eee"/>
<text x="62" y="134.0" text-anchor="end" font-family="sans-serif" font-size="11" fill="#555">252885</text>
<line x1="70" y1="25.00" x2="1170" y2="25.00" stroke="#eee"/>
<text x="62" y="29.0" text-anchor="end" font-family="sans-serif" font-size="11" fill="#555">316107</text>
<line x1="161.67" y1="25" x2="161.67" y2="550" stroke="#f2f2f2"/>
<line x1="253.33" y1="25" x2="253.33" y2="550" stroke="#f2f2f2"/>
<line x1="345.00" y1="25" x2="345.00" y2="550" stroke="#f2f2f2"/>
<line x1="436.67" y1="25" x2="436.67" y2="550" stroke="#f2f2f2"/>
<line x1="528.33" y1="25" x2="528.33" y2="550" stroke="#f2f2f2"/>
<line x1="620.00" y1="25" x2="620.00" y2="550" stroke="#f2f2f2"/>
<line x1="711.67" y1="25" x2="711.67" y2="550" stroke="#f2f2f2"/>
<line x1="803.33" y1="25" x2="803.33" y2="550" stroke="#f2f2f2"/>
<line x1="895.00" y1="25" x2="895.00" y2="550" stroke="#f2f2f2"/>
<line x1="986.67" y1="25" x2="986.67" y2="550" stroke="#f2f2f2"/>
<line x1="1078.33" y1="25" x2="1078.33" y2="550" stroke="#f2f2f2"/>
<text x="115.83" y="566.00" text-anchor="middle" font-family="sans-serif" font-size="11" fill="#444">Jan</text>
<text x="207.50" y="566.00" text-anchor="middle" font-family="sans-serif" font-size="11" fill="#444">Feb</text>
<text x="299.17" y="566.00" text-anchor="middle" font-family="sans-serif" font-size="11" fill="#444">Mar</text>
<text x="390.83" y="566.00" text-anchor="middle" font-family="sans-serif" font-size="11" fill="#444">Apr</text>
<text x="482.50" y="566.00" text-anchor="middle" font-family="sans-serif" font-size="11" fill="#444">May</text>
<text x="574.17" y="566.00" text-anchor="middle" font-family="sans-serif" font-size="11" fill="#444">Jun</text>
<text x="665.83" y="566.00" text-anchor="middle" font-family="sans-serif" font-size="11" fill="#444">Jul</text>
<text x="757.50" y="566.00" text-anchor="middle" font-family="sans-serif" font-size="11" fill="#444">Aug</text>
<text x="849.17" y="566.00" text-anchor="middle" font-family="sans-serif" font-size="11" fill="#444">Sep</text>
<text x="940.83" y="566.00" text-anchor="middle" font-family="sans-serif" font-size="11" fill="#444">Oct</text>
<text x="1032.50" y="566.00" text-anchor="middle" font-family="sans-serif" font-size="11" fill="#444">Nov</text>
<text x="1124.17" y="566.00" text-anchor="middle" font-family="sans-serif" font-size="11" fill="#444">Dec</text>
<line x1="70" y1="550" x2="1170" y2="550" stroke="#888"/>
<line x1="70" y1="25" x2="70" y2="550" stroke="#888"/>
<line x1="74.17" y1="550.00" x2="74.17" y2="556.00" stroke="#888"/>
<line x1="1154.72"   y1="550.00" x2="1154.72"   y2="556.00" stroke="#888"/>
<text x="74.17" y="582.00" text-anchor="start" font-family="sans-serif" font-size="11" fill="#333">Initial Balance: 268705</text>
<text x="1154.72"   y="582.00" text-anchor="end"   font-family="sans-serif" font-size="11" fill="#333">Ending Balance: 313002</text>
<path d="M 189.17 70.46 L 207.50 70.46 L 207.50 71.67 L 189.17 73.02 Z" fill="#d0d0d0" fill-opacity="0.5" stroke="none"/>
<path d="M 244.17 68.60 L 259.06 68.60 L 270.52 68.60 L 270.52 69.69 L 259.06 71.83 L 244.17 75.87 Z" fill="#d0d0d0" fill-opacity="0.5" stroke="none"/>
<path d="M 293.44 67.80 L 293.44 68.98 Z" fill="#d0d0d0" fill-opacity="0.5" stroke="none"/>
<path d="M 327.81 65.13 L 327.81 66.10 Z" fill="#d0d0d0" fill-opacity="0.5" stroke="none"/>
<path d="M 356.46 63.47 L 379.38 63.47 L 402.29 63.47 L 425.21 63.47 L 439.36 63.47 L 444.75 63.47 L 450.15 63.47 L 455.54 63.47 L 460.93 63.47 L 466.32 63.47 L 471.72 63.47 L 477.11 63.47 L 482.50 63.47 L 487.89 63.47 L 493.28 63.47 L 498.68 63.47 L 504.07 63.47 L 509.46 63.47 L 514.85 63.47 L 520.25 63.47 L 525.64 63.47 L 532.15 63.47 L 539.79 63.47 L 547.43 63.47 L 555.07 63.47 L 562.71 63.47 L 570.35 63.47 L 577.99 63.47 L 585.62 63.47 L 593.26 63.47 L 600.90 63.47 L 608.54 63.47 L 608.54 64.82 L 600.90 67.67 L 593.26 69.05 L 585.62 69.89 L 577.99 73.96 L 570.35 74.76 L 562.71 78.75 L 555.07 82.75 L 547.43 75.57 L 539.79 77.24 L 532.15 79.79 L 525.64 76.93 L 520.25 78.82 L 514.85 80.87 L 509.46 73.67 L 504.07 75.34 L 498.68 72.30 L 493.28 74.30 L 487.89 77.61 L 482.50 79.75 L 477.11 80.85 L 471.72 82.98 L 466.32 75.82 L 460.93 68.56 L 455.54 70.95 L 450.15 75.01 L 444.75 67.75 L 439.36 71.84 L 425.21 72.71 L 402.29 75.54 L 379.38 68.27 L 356.46 70.80 Z" fill="#d0d0d0" fill-opacity="0.5" stroke="none"/>
<path d="M 690.28 27.30 L 696.39 27.30 L 702.50 27.30 L 708.61 27.30 L 714.21 27.30 L 719.31 27.30 L 724.40 27.30 L 729.49 27.30 L 734.58 27.30 L 734.58 28.82 L 729.49 33.19 L 724.40 36.61 L 719.31 40.10 L 714.21 42.79 L 708.61 46.20 L 702.50 38.52 L 696.39 30.74 L 690.28 35.10 Z" fill="#d0d0d0" fill-opacity="0.5" stroke="none"/>
<path d="M 744.77 25.00 L 749.86 25.00 L 754.95 25.00 L 760.05 25.00 L 765.14 25.00 L 770.23 25.00 L 775.32 25.00 L 780.42 25.00 L 785.51 25.00 L 790.60 25.00 L 795.69 25.00 L 800.79 25.00 L 805.88 25.00 L 810.97 25.00 L 816.06 25.00 L 821.16 25.00 L 826.25 25.00 L 831.34 25.00 L 836.44 25.00 L 841.53 25.00 L 846.62 25.00 L 851.71 25.00 L 856.81 25.00 L 861.90 25.00 L 866.99 25.00 L 872.08 25.00 L 877.18 25.00 L 882.27 25.00 L 887.36 25.00 L 892.45 25.00 L 897.41 25.00 L 902.24 25.00 L 907.06 25.00 L 911.89 25.00 L 916.71 25.00 L 921.54 25.00 L 926.36 25.00 L 931.18 25.00 L 936.01 25.00 L 940.83 25.00 L 945.66 25.00 L 950.48 25.00 L 955.31 25.00 L 960.13 25.00 L 964.96 25.00 L 969.78 25.00 L 974.61 25.00 L 979.43 25.00 L 984.25 25.00 L 989.21 25.00 L 994.31 25.00 L 999.40 25.00 L 1004.49 25.00 L 1009.58 25.00 L 1014.68 25.00 L 1019.77 25.00 L 1024.86 25.00 L 1029.95 25.00 L 1035.05 25.00 L 1040.14 25.00 L 1045.23 25.00 L 1050.32 25.00 L 1055.42 25.00 L 1060.51 25.00 L 1065.60 25.00 L 1070.69 25.00 L 1075.79 25.00 L 1093.61 25.00 L 1124.17 25.00 L 1154.72 25.00 L 1154.72 30.16 L 1124.17 34.08 L 1093.61 36.48 L 1075.79 36.57 L 1070.69 37.87 L 1065.60 41.41 L 1060.51 45.21 L 1055.42 37.50 L 1050.32 35.31 L 1045.23 38.44 L 1040.14 41.50 L 1035.05 33.74 L 1029.95 33.79 L 1024.86 34.05 L 1019.77 37.22 L 1014.68 38.11 L 1009.58 42.11 L 1004.49 45.09 L 999.40 37.38 L 994.31 39.14 L 989.21 42.17 L 984.25 34.42 L 979.43 36.12 L 974.61 38.52 L 969.78 42.08 L 964.96 46.36 L 960.13 50.60 L 955.31 48.95 L 950.48 51.84 L 945.66 56.03 L 940.83 54.79 L 936.01 47.21 L 931.18 39.53 L 926.36 42.89 L 921.54 46.75 L 916.71 49.74 L 911.89 51.25 L 907.06 43.62 L 902.24 47.87 L 897.41 51.86 L 892.45 54.84 L 887.36 53.36 L 882.27 55.64 L 877.18 48.08 L 872.08 49.58 L 866.99 41.94 L 861.90 41.41 L 856.81 33.65 L 851.71 35.87 L 846.62 40.18 L 841.53 42.49 L 836.44 46.75 L 831.34 50.37 L 826.25 53.67 L 821.16 53.96 L 816.06 57.25 L 810.97 60.80 L 805.88 53.31 L 800.79 45.72 L 795.69 49.98 L 790.60 42.34 L 785.51 34.61 L 780.42 37.84 L 775.32 42.13 L 770.23 34.39 L 765.14 34.25 L 760.05 33.04 L 754.95 25.18 L 749.86 29.56 L 744.77 32.86 Z" fill="#d0d0d0" fill-opacity="0.5" stroke="none"/>
<polyline fill="none" stroke="#111" stroke-width="1.2" points="74.17,103.73 82.50,101.43 90.83,101.39 99.17,97.59 107.50,95.66 115.83,92.15 124.17,88.54 132.50,85.35 140.83,81.74 149.17,77.78 157.50,73.77 170.83,70.46 189.17,73.02 207.50,71.67 225.83,68.60 244.17,75.87 259.06,71.83 270.52,69.69 281.98,67.80 293.44,68.98 304.90,66.48 316.35,65.13 327.81,66.10 339.27,63.47 356.46,70.80 379.38,68.27 402.29,75.54 425.21,72.71 439.36,71.84 444.75,67.75 450.15,75.01 455.54,70.95 460.93,68.56 466.32,75.82 471.72,82.98 477.11,80.85 482.50,79.75 487.89,77.61 493.28,74.30 498.68,72.30 504.07,75.34 509.46,73.67 514.85,80.87 520.25,78.82 525.64,76.93 532.15,79.79 539.79,77.24 547.43,75.57 555.07,82.75 562.71,78.75 570.35,74.76 577.99,73.96 585.62,69.89 593.26,69.05 600.90,67.67 608.54,64.82 616.18,60.68 623.06,56.89 629.17,56.52 635.28,52.32 641.39,49.95 647.50,45.71 653.61,41.69 659.72,41.12 665.83,37.57 671.94,34.50 678.06,31.69 684.17,27.30 690.28,35.10 696.39,30.74 702.50,38.52 708.61,46.20 714.21,42.79 719.31,40.10 724.40,36.61 729.49,33.19 734.58,28.82 739.68,25.00 744.77,32.86 749.86,29.56 754.95,25.18 760.05,33.04 765.14,34.25 770.23,34.39 775.32,42.13 780.42,37.84 785.51,34.61 790.60,42.34 795.69,49.98 800.79,45.72 805.88,53.31 810.97,60.80 816.06,57.25 821.16,53.96 826.25,53.67 831.34,50.37 836.44,46.75 841.53,42.49 846.62,40.18 851.71,35.87 856.81,33.65 861.90,41.41 866.99,41.94 872.08,49.58 877.18,48.08 882.27,55.64 887.36,53.36 892.45,54.84 897.41,51.86 902.24,47.87 907.06,43.62 911.89,51.25 916.71,49.74 921.54,46.75 926.36,42.89 931.18,39.53 936.01,47.21 940.83,54.79 945.66,56.03 950.48,51.84 955.31,48.95 960.13,50.60 964.96,46.36 969.78,42.08 974.61,38.52 979.43,36.12 984.25,34.42 989.21,42.17 994.31,39.14 999.40,37.38 1004.49,45.09 1009.58,42.11 1014.68,38.11 1019.77,37.22 1024.86,34.05 1029.95,33.79 1035.05,33.74 1040.14,41.50 1045.23,38.44 1050.32,35.31 1055.42,37.50 1060.51,45.21 1065.60,41.41 1070.69,37.87 1075.79,36.57 1093.61,36.48 1124.17,34.08 1154.72,30.16"/>
<text x="620.0" y="588" text-anchor="middle" font-family="sans-serif" font-size="12" fill="#333">Monthly Balance Curve</text>
<text x="15" y="287.5" transform="rotate(-90 15,287.5)" text-anchor="middle" font-family="sans-serif" font-size="12" fill="#333">Capital</text>
</svg>