<svg xmlns="http://www.w3.org/2000/svg" width="1200" height="600" viewBox="0 0 1200 600">
<desc>Equity curve with drawdown fill; x-axis is months only (no exact timestamps)</desc>
<text x="600.0" y="18.0" text-anchor="middle" font-family="sans-serif" font-size="14">Balance Curve 2004 (UTC)</text>
<rect x="70" y="25" width="1100" height="525" fill="white" stroke="#ccc" />
<line x1="70" y1="550.00" x2="1170" y2="550.00" stroke="#eee"/>
<text x="62" y="554.0" text-anchor="end" font-family="sans-serif" font-size="11" fill="#555">0.00</text>
<line x1="70" y1="445.00" x2="1170" y2="445.00" stroke="#eee"/>
<text x="62" y="449.0" text-anchor="end" font-family="sans-serif" font-size="11" fill="#555">23774</text>
<line x1="70" y1="340.00" x2="1170" y2="340.00" stroke="#eee"/>
<text x="62" y="344.0" text-anchor="end" font-family="sans-serif" font-size="11" fill="#555">47547</text>
<line x1="70" y1="235.00" x2="1170" y2="235.00" stroke="#eee"/>
<text x="62" y="239.0" text-anchor="end" font-family="sans-serif" font-size="11" fill="#555">71321</text>
<line x1="70" y1="130.00" x2="1170" y2="130.00" stroke="#eee"/>
<text x="62" y="134.0" text-anchor="end" font-family="sans-serif" font-size="11" fill="#555">95094</text>
<line x1="70" y1="25.00" x2="1170" y2="25.00" stroke="#eee"/>
<text x="62" y="29.0" text-anchor="end" font-family="sans-serif" font-size="11" fill="#555">118868</text>
<line x1="161.67" y1="25" x2="161.67" y2="550" stroke="#f2f2f2"/>
<line x1="253.33" y1="25" x2="253.33" y2="550" stroke="#f2f2f2"/>
<line x1="345.00" y1="25" x2="345.00" y2="550" stroke="#f2f2f2"/>
<line x1="436.67" y1="25" x2="436.67" y2="550" stroke="#f2f2f2"/>
<line x1="528.33" y1="25" x2="528.33" y2="550" stroke="#f2f2f2"/>
<line x1="620.00" y1="25" x2="620.00" y2="550" stroke="#f2f2f2"/>
<line x1="711.67" y1="25" x2="711.67" y2="550" stroke="#f2f2f2"/>
<line x1="803.33" y1="25" x2="803.33" y2="550" stroke="#f2f2f2"/>
<line x1="895.00" y1="25" x2="895.00" y2="550" stroke="#f2f2f2"/>
<line x1="986.67" y1="25" x2="986.67" y2="550" stroke="#f2f2f2"/>
<line x1="1078.33" y1="25" x2="1078.33" y2="550" stroke="#f2f2f2"/>
<text x="115.83" y="566.00" text-anchor="middle" font-family="sans-serif" font-size="11" fill="#444">Jan</text>
<text x="207.50" y="566.00" text-anchor="middle" font-family="sans-serif" font-size="11" fill="#444">Feb</text>
<text x="299.17" y="566.00" text-anchor="middle" font-family="sans-serif" font-size="11" fill="#444">Mar</text>
<text x="390.83" y="566.00" text-anchor="middle" font-family="sans-serif" font-size="11" fill="#444">Apr</text>
<text x="482.50" y="566.00" text-anchor="middle" font-family="sans-serif" font-size="11" fill="#444">May</text>
<text x="574.17" y="566.00" text-anchor="middle" font-family="sans-serif" font-size="11" fill="#444">Jun</text>
<text x="665.83" y="566.00" text-anchor="middle" font-family="sans-serif" font-size="11" fill="#444">Jul</text>
<text x="757.50" y="566.00" text-anchor="middle" font-family="sans-serif" font-size="11" fill="#444">Aug</text>
<text x="849.17" y="566.00" text-anchor="middle" font-family="sans-serif" font-size="11" fill="#444">Sep</text>
<text x="940.83" y="566.00" text-anchor="middle" font-family="sans-serif" font-size="11" fill="#444">Oct</text>
<text x="1032.50" y="566.00" text-anchor="middle" font-family="sans-serif" font-size="11" fill="#444">Nov</text>
<text x="1124.17" y="566.00" text-anchor="middle" font-family="sans-serif" font-size="11" fill="#444">Dec</text>
<line x1="70" y1="550" x2="1170" y2="550" stroke="#888"/>
<line x1="70" y1="25" x2="70" y2="550" stroke="#888"/>
<line x1="71.91" y1="550.00" x2="71.91" y2="556.00" stroke="#888"/>
<line x1="1163.45"   y1="550.00" x2="1163.45"   y2="556.00" stroke="#888"/>
<text x="71.91" y="582.00" text-anchor="start" font-family="sans-serif" font-size="11" fill="#333">Initial Balance: 107708</text>
<text x="1163.45"   y="582.00" text-anchor="end"   font-family="sans-serif" font-size="11" fill="#333">Ending Balance: 115386</text>
<path d="M 83.37 71.98 L 87.19 71.98 L 91.01 71.98 L 91.01 74.41 L 87.19 75.18 L 83.37 76.87 Z" fill="#d0d0d0" fill-opacity="0.5" stroke="none"/>
<path d="M 98.65 71.87 L 102.47 71.87 L 106.28 71.87 L 110.10 71.87 L 113.92 71.87 L 117.74 71.87 L 121.56 71.87 L 125.38 71.87 L 129.20 71.87 L 133.02 71.87 L 136.84 71.87 L 140.66 71.87 L 144.48 71.87 L 148.30 71.87 L 152.12 71.87 L 155.94 71.87 L 159.76 71.87 L 165.49 71.87 L 173.12 71.87 L 180.76 71.87 L 188.40 71.87 L 196.04 71.87 L 203.68 71.87 L 211.32 71.87 L 218.96 71.87 L 226.60 71.87 L 226.60 72.05 L 218.96 72.31 L 211.32 74.84 L 203.68 76.42 L 196.04 78.94 L 188.40 78.73 L 180.76 79.66 L 173.12 82.16 L 165.49 83.84 L 159.76 79.02 L 155.94 81.06 L 152.12 83.55 L 148.30 85.75 L 144.48 88.21 L 140.66 83.49 L 136.84 86.11 L 133.02 88.34 L 129.20 83.65 L 125.38 81.52 L 121.56 86.25 L 117.74 84.15 L 113.92 83.99 L 110.10 79.18 L 106.28 74.37 L 102.47 77.03 L 98.65 72.15 Z" fill="#d0d0d0" fill-opacity="0.5" stroke="none"/>
<path d="M 262.50 64.24 L 268.61 64.24 L 274.72 64.24 L 274.72 64.77 L 268.61 67.12 L 262.50 69.21 Z" fill="#d0d0d0" fill-opacity="0.5" stroke="none"/>
<path d="M 305.28 55.24 L 311.39 55.24 L 317.50 55.24 L 323.61 55.24 L 329.72 55.24 L 335.83 55.24 L 341.94 55.24 L 351.55 55.24 L 364.64 55.24 L 377.74 55.24 L 390.83 55.24 L 403.93 55.24 L 403.93 55.71 L 390.83 58.08 L 377.74 59.88 L 364.64 62.46 L 351.55 57.42 L 341.94 57.40 L 335.83 59.77 L 329.72 62.13 L 323.61 63.47 L 317.50 62.74 L 311.39 65.30 L 305.28 60.30 Z" fill="#d0d0d0" fill-opacity="0.5" stroke="none"/>
<path d="M 457.50 46.28 L 465.83 46.28 L 474.17 46.28 L 482.50 46.28 L 490.83 46.28 L 499.17 46.28 L 499.17 46.79 L 490.83 47.75 L 482.50 49.14 L 474.17 49.72 L 465.83 49.34 L 457.50 51.35 Z" fill="#d0d0d0" fill-opacity="0.5" stroke="none"/>
<path d="M 524.17 42.81 L 532.15 42.81 L 539.79 42.81 L 547.43 42.81 L 547.43 42.85 L 539.79 45.53 L 532.15 48.20 L 524.17 47.99 Z" fill="#d0d0d0" fill-opacity="0.5" stroke="none"/>
<path d="M 577.99 39.64 L 585.62 39.64 L 593.26 39.64 L 600.90 39.64 L 608.54 39.64 L 616.18 39.64 L 627.64 39.64 L 642.92 39.64 L 658.19 39.64 L 673.47 39.64 L 688.75 39.64 L 704.03 39.64 L 723.12 39.64 L 746.04 39.64 L 768.96 39.64 L 791.88 39.64 L 809.88 39.64 L 822.98 39.64 L 836.07 39.64 L 849.17 39.64 L 862.26 39.64 L 862.26 41.00 L 849.17 42.82 L 836.07 42.95 L 822.98 45.01 L 809.88 46.66 L 791.88 41.46 L 768.96 43.51 L 746.04 46.18 L 723.12 41.03 L 704.03 43.72 L 688.75 44.60 L 673.47 46.73 L 658.19 47.50 L 642.92 48.31 L 627.64 43.18 L 616.18 46.02 L 608.54 47.50 L 600.90 49.70 L 593.26 50.06 L 585.62 44.91 L 577.99 44.86 Z" fill="#d0d0d0" fill-opacity="0.5" stroke="none"/>
<path d="M 961.20 25.00 L 971.39 25.00 L 981.57 25.00 L 998.12 25.00 L 1021.04 25.00 L 1043.96 25.00 L 1066.88 25.00 L 1084.88 25.00 L 1097.98 25.00 L 1111.07 25.00 L 1124.17 25.00 L 1137.26 25.00 L 1150.36 25.00 L 1163.45 25.00 L 1163.45 40.38 L 1150.36 42.12 L 1137.26 36.89 L 1124.17 31.61 L 1111.07 33.03 L 1097.98 35.16 L 1084.88 29.86 L 1066.88 32.05 L 1043.96 30.40 L 1021.04 31.98 L 998.12 29.97 L 981.57 32.71 L 971.39 35.64 L 961.20 30.35 Z" fill="#d0d0d0" fill-opacity="0.5" stroke="none"/>
<polyline fill="none" stroke="#111" stroke-width="1.2" points="71.91,74.29 75.73,73.48 79.55,71.98 83.37,76.87 87.19,75.18 91.01,74.41 94.83,71.87 98.65,72.15 102.47,77.03 106.28,74.37 110.10,79.18 113.92,83.99 117.74,84.15 121.56,86.25 125.38,81.52 129.20,83.65 133.02,88.34 136.84,86.11 140.66,83.49 144.48,88.21 148.30,85.75 152.12,83.55 155.94,81.06 159.76,79.02 165.49,83.84 173.12,82.16 180.76,79.66 188.40,78.73 196.04,78.94 203.68,76.42 211.32,74.84 218.96,72.31 226.60,72.05 234.24,69.73 241.88,67.34 249.51,65.27 256.39,64.24 262.50,69.21 268.61,67.12 274.72,64.77 280.83,62.20 286.94,59.60 293.06,57.86 299.17,55.24 305.28,60.30 311.39,65.30 317.50,62.74 323.61,63.47 329.72,62.13 335.83,59.77 341.94,57.40 351.55,57.42 364.64,62.46 377.74,59.88 390.83,58.08 403.93,55.71 417.02,54.36 430.12,51.74 440.83,49.09 449.17,46.28 457.50,51.35 465.83,49.34 474.17,49.72 482.50,49.14 490.83,47.75 499.17,46.79 507.50,45.00 515.83,42.81 524.17,47.99 532.15,48.20 539.79,45.53 547.43,42.85 555.07,42.45 562.71,40.03 570.35,39.64 577.99,44.86 585.62,44.91 593.26,50.06 600.90,49.70 608.54,47.50 616.18,46.02 627.64,43.18 642.92,48.31 658.19,47.50 673.47,46.73 688.75,44.60 704.03,43.72 723.12,41.03 746.04,46.18 768.96,43.51 791.88,41.46 809.88,46.66 822.98,45.01 836.07,42.95 849.17,42.82 862.26,41.00 875.36,39.56 888.45,37.39 900.09,37.03 910.28,34.30 920.46,33.21 930.65,30.72 940.83,27.96 951.02,25.00 961.20,30.35 971.39,35.64 981.57,32.71 998.12,29.97 1021.04,31.98 1043.96,30.40 1066.88,32.05 1084.88,29.86 1097.98,35.16 1111.07,33.03 1124.17,31.61 1137.26,36.89 1150.36,42.12 1163.45,40.38"/>
<text x="15" y="287.5" transform="rotate(-90 15,287.5)" text-anchor="middle" font-family="sans-serif" font-size="12" fill="#333">USD</text>
</svg>