<svg xmlns="http://www.w3.org/2000/svg" width="1200" height="600" viewBox="0 0 1200 600">
<desc>Equity curve with drawdown fill; x-axis is months only (no exact timestamps)</desc>
<text x="600.0" y="18.0" text-anchor="middle" font-family="sans-serif" font-size="14">Portfolio 2006 (UTC)</text>
<rect x="70" y="25" width="1100" height="525" fill="white" stroke="#ccc" />
<line x1="70" y1="550.00" x2="1170" y2="550.00" stroke="#eee"/>
<text x="62" y="554.0" text-anchor="end" font-family="sans-serif" font-size="11" fill="#555">0.00</text>
<line x1="70" y1="445.00" x2="1170" y2="445.00" stroke="#eee"/>
<text x="62" y="449.0" text-anchor="end" font-family="sans-serif" font-size="11" fill="#555">26565</text>
<line x1="70" y1="340.00" x2="1170" y2="340.00" stroke="#eee"/>
<text x="62" y="344.0" text-anchor="end" font-family="sans-serif" font-size="11" fill="#555">53130</text>
<line x1="70" y1="235.00" x2="1170" y2="235.00" stroke="#eee"/>
<text x="62" y="239.0" text-anchor="end" font-family="sans-serif" font-size="11" fill="#555">79696</text>
<line x1="70" y1="130.00" x2="1170" y2="130.00" stroke="#eee"/>
<text x="62" y="134.0" text-anchor="end" font-family="sans-serif" font-size="11" fill="#555">106261</text>
<line x1="70" y1="25.00" x2="1170" y2="25.00" stroke="#eee"/>
<text x="62" y="29.0" text-anchor="end" font-family="sans-serif" font-size="11" fill="#555">132826</text>
<line x1="180.00" y1="25" x2="180.00" y2="550" stroke="#f2f2f2"/>
<line x1="290.00" y1="25" x2="290.00" y2="550" stroke="#f2f2f2"/>
<line x1="400.00" y1="25" x2="400.00" y2="550" stroke="#f2f2f2"/>
<line x1="510.00" y1="25" x2="510.00" y2="550" stroke="#f2f2f2"/>
<line x1="620.00" y1="25" x2="620.00" y2="550" stroke="#f2f2f2"/>
<line x1="730.00" y1="25" x2="730.00" y2="550" stroke="#f2f2f2"/>
<line x1="840.00" y1="25" x2="840.00" y2="550" stroke="#f2f2f2"/>
<line x1="950.00" y1="25" x2="950.00" y2="550" stroke="#f2f2f2"/>
<line x1="1060.00" y1="25" x2="1060.00" y2="550" stroke="#f2f2f2"/>
<text x="125.00" y="566.00" text-anchor="middle" font-family="sans-serif" font-size="11" fill="#444">Jan</text>
<text x="235.00" y="566.00" text-anchor="middle" font-family="sans-serif" font-size="11" fill="#444">Apr</text>
<text x="345.00" y="566.00" text-anchor="middle" font-family="sans-serif" font-size="11" fill="#444">May</text>
<text x="455.00" y="566.00" text-anchor="middle" font-family="sans-serif" font-size="11" fill="#444">Jun</text>
<text x="565.00" y="566.00" text-anchor="middle" font-family="sans-serif" font-size="11" fill="#444">Jul</text>
<text x="675.00" y="566.00" text-anchor="middle" font-family="sans-serif" font-size="11" fill="#444">Aug</text>
<text x="785.00" y="566.00" text-anchor="middle" font-family="sans-serif" font-size="11" fill="#444">Sep</text>
<text x="895.00" y="566.00" text-anchor="middle" font-family="sans-serif" font-size="11" fill="#444">Oct</text>
<text x="1005.00" y="566.00" text-anchor="middle" font-family="sans-serif" font-size="11" fill="#444">Nov</text>
<text x="1115.00" y="566.00" text-anchor="middle" font-family="sans-serif" font-size="11" fill="#444">Dec</text>
<line x1="70" y1="550" x2="1170" y2="550" stroke="#888"/>
<line x1="70" y1="25" x2="70" y2="550" stroke="#888"/>
<line x1="81.00" y1="550.00" x2="81.00" y2="556.00" stroke="#888"/>
<line x1="1142.50"   y1="550.00" x2="1142.50"   y2="556.00" stroke="#888"/>
<text x="81.00" y="582.00" text-anchor="start" font-family="sans-serif" font-size="11" fill="#333">Initial Balance: 123864</text>
<text x="1142.50"   y="582.00" text-anchor="end"   font-family="sans-serif" font-size="11" fill="#333">Ending Balance: 130725</text>
<path d="M 103.00 60.42 L 103.00 60.91 Z" fill="#d0d0d0" fill-opacity="0.5" stroke="none"/>
<path d="M 225.83 46.63 L 244.17 46.63 L 262.50 46.63 L 280.83 46.63 L 280.83 48.70 L 262.50 52.02 L 244.17 49.62 L 225.83 49.26 Z" fill="#d0d0d0" fill-opacity="0.5" stroke="none"/>
<path d="M 376.43 29.59 L 376.43 30.83 Z" fill="#d0d0d0" fill-opacity="0.5" stroke="none"/>
<path d="M 406.87 27.95 L 420.62 27.95 L 434.38 27.95 L 448.12 27.95 L 461.88 27.95 L 475.62 27.95 L 489.38 27.95 L 503.13 27.95 L 503.13 30.74 L 489.38 33.81 L 475.62 36.60 L 461.88 37.99 L 448.12 41.05 L 434.38 45.09 L 420.62 37.30 L 406.87 35.76 Z" fill="#d0d0d0" fill-opacity="0.5" stroke="none"/>
<path d="M 551.25 26.26 L 578.75 26.26 L 606.25 26.26 L 633.75 26.26 L 661.25 26.26 L 688.75 26.26 L 716.25 26.26 L 757.50 26.26 L 812.50 26.26 L 895.00 26.26 L 977.50 26.26 L 977.50 28.42 L 895.00 30.71 L 812.50 35.00 L 757.50 36.40 L 716.25 38.71 L 688.75 34.01 L 661.25 35.62 L 633.75 35.75 L 606.25 40.00 L 578.75 36.47 L 551.25 34.10 Z" fill="#d0d0d0" fill-opacity="0.5" stroke="none"/>
<path d="M 1087.50 25.00 L 1142.50 25.00 L 1142.50 33.30 L 1087.50 32.96 Z" fill="#d0d0d0" fill-opacity="0.5" stroke="none"/>
<polyline fill="none" stroke="#111" stroke-width="1.2" points="81.00,60.42 103.00,60.91 125.00,58.13 147.00,54.05 169.00,50.96 189.17,50.77 207.50,46.63 225.83,49.26 244.17,49.62 262.50,52.02 280.83,48.70 297.86,44.53 313.57,40.72 329.29,37.35 345.00,33.08 360.71,29.59 376.43,30.83 392.14,27.95 406.87,35.76 420.62,37.30 434.38,45.09 448.12,41.05 461.88,37.99 475.62,36.60 489.38,33.81 503.13,30.74 523.75,26.26 551.25,34.10 578.75,36.47 606.25,40.00 633.75,35.75 661.25,35.62 688.75,34.01 716.25,38.71 757.50,36.40 812.50,35.00 895.00,30.71 977.50,28.42 1032.50,25.00 1087.50,32.96 1142.50,33.30"/>
<text x="620.0" y="588" text-anchor="middle" font-family="sans-serif" font-size="12" fill="#333">Monthly Balance Curve</text>
<text x="15" y="287.5" transform="rotate(-90 15,287.5)" text-anchor="middle" font-family="sans-serif" font-size="12" fill="#333">Capital</text>
</svg>