<svg xmlns="http://www.w3.org/2000/svg" width="1200" height="600" viewBox="0 0 1200 600">
<desc>Equity curve with drawdown fill; x-axis is months only (no exact timestamps)</desc>
<text x="600.0" y="18.0" text-anchor="middle" font-family="sans-serif" font-size="14">Balance Curve 2009 (UTC)</text>
<rect x="70" y="25" width="1100" height="525" fill="white" stroke="#ccc" />
<line x1="70" y1="550.00" x2="1170" y2="550.00" stroke="#eee"/>
<text x="62" y="554.0" text-anchor="end" font-family="sans-serif" font-size="11" fill="#555">0.00</text>
<line x1="70" y1="445.00" x2="1170" y2="445.00" stroke="#eee"/>
<text x="62" y="449.0" text-anchor="end" font-family="sans-serif" font-size="11" fill="#555">807637</text>
<line x1="70" y1="340.00" x2="1170" y2="340.00" stroke="#eee"/>
<text x="62" y="344.0" text-anchor="end" font-family="sans-serif" font-size="11" fill="#555">1615274</text>
<line x1="70" y1="235.00" x2="1170" y2="235.00" stroke="#eee"/>
<text x="62" y="239.0" text-anchor="end" font-family="sans-serif" font-size="11" fill="#555">2422911</text>
<line x1="70" y1="130.00" x2="1170" y2="130.00" stroke="#eee"/>
<text x="62" y="134.0" text-anchor="end" font-family="sans-serif" font-size="11" fill="#555">3230548</text>
<line x1="70" y1="25.00" x2="1170" y2="25.00" stroke="#eee"/>
<text x="62" y="29.0" text-anchor="end" font-family="sans-serif" font-size="11" fill="#555">4038185</text>
<line x1="161.67" y1="25" x2="161.67" y2="550" stroke="#f2f2f2"/>
<line x1="253.33" y1="25" x2="253.33" y2="550" stroke="#f2f2f2"/>
<line x1="345.00" y1="25" x2="345.00" y2="550" stroke="#f2f2f2"/>
<line x1="436.67" y1="25" x2="436.67" y2="550" stroke="#f2f2f2"/>
<line x1="528.33" y1="25" x2="528.33" y2="550" stroke="#f2f2f2"/>
<line x1="620.00" y1="25" x2="620.00" y2="550" stroke="#f2f2f2"/>
<line x1="711.67" y1="25" x2="711.67" y2="550" stroke="#f2f2f2"/>
<line x1="803.33" y1="25" x2="803.33" y2="550" stroke="#f2f2f2"/>
<line x1="895.00" y1="25" x2="895.00" y2="550" stroke="#f2f2f2"/>
<line x1="986.67" y1="25" x2="986.67" y2="550" stroke="#f2f2f2"/>
<line x1="1078.33" y1="25" x2="1078.33" y2="550" stroke="#f2f2f2"/>
<text x="115.83" y="566.00" text-anchor="middle" font-family="sans-serif" font-size="11" fill="#444">Jan</text>
<text x="207.50" y="566.00" text-anchor="middle" font-family="sans-serif" font-size="11" fill="#444">Feb</text>
<text x="299.17" y="566.00" text-anchor="middle" font-family="sans-serif" font-size="11" fill="#444">Mar</text>
<text x="390.83" y="566.00" text-anchor="middle" font-family="sans-serif" font-size="11" fill="#444">Apr</text>
<text x="482.50" y="566.00" text-anchor="middle" font-family="sans-serif" font-size="11" fill="#444">May</text>
<text x="574.17" y="566.00" text-anchor="middle" font-family="sans-serif" font-size="11" fill="#444">Jun</text>
<text x="665.83" y="566.00" text-anchor="middle" font-family="sans-serif" font-size="11" fill="#444">Jul</text>
<text x="757.50" y="566.00" text-anchor="middle" font-family="sans-serif" font-size="11" fill="#444">Aug</text>
<text x="849.17" y="566.00" text-anchor="middle" font-family="sans-serif" font-size="11" fill="#444">Sep</text>
<text x="940.83" y="566.00" text-anchor="middle" font-family="sans-serif" font-size="11" fill="#444">Oct</text>
<text x="1032.50" y="566.00" text-anchor="middle" font-family="sans-serif" font-size="11" fill="#444">Nov</text>
<text x="1124.17" y="566.00" text-anchor="middle" font-family="sans-serif" font-size="11" fill="#444">Dec</text>
<line x1="70" y1="550" x2="1170" y2="550" stroke="#888"/>
<line x1="70" y1="25" x2="70" y2="550" stroke="#888"/>
<line x1="70.72" y1="550.00" x2="70.72" y2="556.00" stroke="#888"/>
<line x1="1164.27"   y1="550.00" x2="1164.27"   y2="556.00" stroke="#888"/>
<text x="70.72" y="582.00" text-anchor="start" font-family="sans-serif" font-size="11" fill="#333">Initial Balance: 3611162</text>
<text x="1164.27"   y="582.00" text-anchor="end"   font-family="sans-serif" font-size="11" fill="#333">Ending Balance: 4002095</text>
<path d="M 77.88 75.39 L 79.31 75.39 L 80.74 75.39 L 82.17 75.39 L 83.61 75.39 L 85.04 75.39 L 86.47 75.39 L 87.90 75.39 L 89.34 75.39 L 90.77 75.39 L 92.20 75.39 L 93.63 75.39 L 95.07 75.39 L 95.07 77.20 L 93.63 78.44 L 92.20 80.03 L 90.77 82.21 L 89.34 84.14 L 87.90 84.74 L 86.47 80.32 L 85.04 82.23 L 83.61 84.60 L 82.17 86.75 L 80.74 88.90 L 79.31 84.54 L 77.88 79.79 Z" fill="#d0d0d0" fill-opacity="0.5" stroke="none"/>
<path d="M 113.68 57.17 L 115.12 57.17 L 115.12 57.75 L 113.68 58.25 Z" fill="#d0d0d0" fill-opacity="0.5" stroke="none"/>
<path d="M 120.85 51.75 L 122.28 51.75 L 123.71 51.75 L 125.14 51.75 L 126.58 51.75 L 128.01 51.75 L 129.44 51.75 L 129.44 52.22 L 128.01 53.51 L 126.58 55.55 L 125.14 57.60 L 123.71 58.36 L 122.28 54.16 L 120.85 56.01 Z" fill="#d0d0d0" fill-opacity="0.5" stroke="none"/>
<path d="M 133.74 49.19 L 135.17 49.19 L 136.60 49.19 L 138.03 49.19 L 139.47 49.19 L 140.90 49.19 L 142.33 49.19 L 143.76 49.19 L 145.20 49.19 L 146.63 49.19 L 148.06 49.19 L 149.49 49.19 L 150.92 49.19 L 152.36 49.19 L 153.79 49.19 L 155.22 49.19 L 156.65 49.19 L 158.09 49.19 L 159.52 49.19 L 160.95 49.19 L 162.98 49.19 L 165.60 49.19 L 168.21 49.19 L 170.83 49.19 L 173.45 49.19 L 176.07 49.19 L 176.07 50.81 L 173.45 52.45 L 170.83 54.02 L 168.21 55.82 L 165.60 57.03 L 162.98 52.86 L 160.95 54.68 L 159.52 56.71 L 158.09 57.26 L 156.65 58.72 L 155.22 53.71 L 153.79 49.45 L 152.36 50.42 L 150.92 52.53 L 149.49 54.62 L 148.06 56.71 L 146.63 58.34 L 145.20 60.45 L 143.76 61.65 L 142.33 57.36 L 140.90 59.39 L 139.47 54.38 L 138.03 55.97 L 136.60 58.39 L 135.17 54.21 L 133.74 53.41 Z" fill="#d0d0d0" fill-opacity="0.5" stroke="none"/>
<path d="M 181.31 49.06 L 183.93 49.06 L 186.55 49.06 L 189.17 49.06 L 191.79 49.06 L 194.40 49.06 L 197.02 49.06 L 199.64 49.06 L 202.26 49.06 L 204.88 49.06 L 207.50 49.06 L 210.12 49.06 L 212.74 49.06 L 215.36 49.06 L 215.36 49.09 L 212.74 49.47 L 210.12 51.53 L 207.50 53.58 L 204.88 53.65 L 202.26 55.50 L 199.64 57.40 L 197.02 59.11 L 194.40 54.88 L 191.79 57.55 L 189.17 53.33 L 186.55 54.55 L 183.93 54.81 L 181.31 50.61 Z" fill="#d0d0d0" fill-opacity="0.5" stroke="none"/>
<path d="M 231.07 41.35 L 233.69 41.35 L 236.31 41.35 L 238.93 41.35 L 241.55 41.35 L 244.17 41.35 L 246.79 41.35 L 249.40 41.35 L 252.02 41.35 L 254.64 41.35 L 257.26 41.35 L 259.88 41.35 L 262.50 41.35 L 265.12 41.35 L 267.74 41.35 L 270.36 41.35 L 272.98 41.35 L 275.60 41.35 L 278.21 41.35 L 280.83 41.35 L 283.45 41.35 L 286.07 41.35 L 288.69 41.35 L 291.31 41.35 L 293.93 41.35 L 296.55 41.35 L 299.17 41.35 L 301.79 41.35 L 304.40 41.35 L 307.02 41.35 L 309.64 41.35 L 312.26 41.35 L 314.88 41.35 L 317.50 41.35 L 320.12 41.35 L 322.74 41.35 L 325.36 41.35 L 327.98 41.35 L 330.60 41.35 L 333.21 41.35 L 335.83 41.35 L 338.45 41.35 L 341.07 41.35 L 343.69 41.35 L 347.29 41.35 L 351.88 41.35 L 356.46 41.35 L 361.04 41.35 L 365.62 41.35 L 370.21 41.35 L 374.79 41.35 L 379.38 41.35 L 383.96 41.35 L 388.54 41.35 L 393.12 41.35 L 397.71 41.35 L 402.29 41.35 L 406.88 41.35 L 411.46 41.35 L 416.04 41.35 L 420.62 41.35 L 425.21 41.35 L 429.79 41.35 L 434.38 41.35 L 440.19 41.35 L 447.24 41.35 L 454.29 41.35 L 461.35 41.35 L 468.40 41.35 L 475.45 41.35 L 482.50 41.35 L 489.55 41.35 L 496.60 41.35 L 503.65 41.35 L 510.71 41.35 L 517.76 41.35 L 524.81 41.35 L 531.61 41.35 L 538.15 41.35 L 544.70 41.35 L 551.25 41.35 L 557.80 41.35 L 564.35 41.35 L 570.89 41.35 L 577.44 41.35 L 583.99 41.35 L 590.54 41.35 L 597.08 41.35 L 603.63 41.35 L 610.18 41.35 L 616.73 41.35 L 625.09 41.35 L 635.28 41.35 L 645.46 41.35 L 655.65 41.35 L 665.83 41.35 L 676.02 41.35 L 686.20 41.35 L 696.39 41.35 L 706.57 41.35 L 726.94 41.35 L 757.50 41.35 L 788.06 41.35 L 809.06 41.35 L 820.52 41.35 L 831.98 41.35 L 843.44 41.35 L 854.90 41.35 L 866.35 41.35 L 877.81 41.35 L 889.27 41.35 L 901.55 41.35 L 914.64 41.35 L 927.74 41.35 L 940.83 41.35 L 953.93 41.35 L 953.93 42.13 L 940.83 43.22 L 927.74 44.49 L 914.64 46.47 L 901.55 48.46 L 889.27 47.81 L 877.81 49.21 L 866.35 44.46 L 854.90 47.23 L 843.44 49.17 L 831.98 49.53 L 820.52 51.88 L 809.06 53.11 L 788.06 48.48 L 757.50 49.26 L 726.94 51.57 L 706.57 52.97 L 696.39 52.85 L 686.20 48.26 L 676.02 48.41 L 665.83 50.47 L 655.65 51.75 L 645.46 54.01 L 635.28 54.29 L 625.09 55.40 L 616.73 57.66 L 610.18 57.37 L 603.63 59.63 L 597.08 60.47 L 590.54 60.88 L 583.99 61.88 L 577.44 63.91 L 570.89 65.98 L 564.35 61.47 L 557.80 63.28 L 551.25 58.68 L 544.70 60.96 L 538.15 62.10 L 531.61 63.69 L 524.81 59.11 L 517.76 54.56 L 510.71 54.54 L 503.65 50.13 L 496.60 51.45 L 489.55 52.47 L 482.50 54.65 L 475.45 56.80 L 468.40 59.04 L 461.35 61.17 L 454.29 63.29 L 447.24 65.41 L 440.19 66.71 L 434.38 68.52 L 429.79 70.63 L 425.21 66.32 L 420.62 64.98 L 416.04 66.19 L 411.46 66.86 L 406.88 68.47 L 402.29 70.09 L 397.71 65.78 L 393.12 67.87 L 388.54 66.24 L 383.96 67.91 L 379.38 69.32 L 374.79 65.00 L 370.21 65.49 L 365.62 67.62 L 361.04 69.37 L 356.46 69.78 L 351.88 71.65 L 347.29 73.52 L 343.69 75.62 L 341.07 76.73 L 338.45 78.62 L 335.83 80.50 L 333.21 75.71 L 330.60 71.30 L 327.98 72.97 L 325.36 73.96 L 322.74 75.98 L 320.12 71.57 L 317.50 71.72 L 314.88 72.77 L 312.26 73.29 L 309.64 68.85 L 307.02 70.86 L 304.40 72.54 L 301.79 67.66 L 299.17 63.28 L 296.55 65.67 L 293.93 61.42 L 291.31 63.14 L 288.69 64.93 L 286.07 65.24 L 283.45 65.74 L 280.83 67.17 L 278.21 68.69 L 275.60 69.07 L 272.98 64.93 L 270.36 66.34 L 267.74 65.31 L 265.12 61.20 L 262.50 62.21 L 259.88 63.80 L 257.26 59.70 L 254.64 60.77 L 252.02 62.31 L 249.40 58.13 L 246.79 53.96 L 244.17 55.29 L 241.55 56.79 L 238.93 58.83 L 236.31 53.82 L 233.69 49.64 L 231.07 45.52 Z" fill="#d0d0d0" fill-opacity="0.5" stroke="none"/>
<path d="M 1055.42 31.40 L 1070.69 31.40 L 1084.06 31.40 L 1095.52 31.40 L 1095.52 32.00 L 1084.06 33.16 L 1070.69 35.38 L 1055.42 36.23 Z" fill="#d0d0d0" fill-opacity="0.5" stroke="none"/>
<path d="M 1152.81 25.00 L 1164.27 25.00 L 1164.27 29.69 L 1152.81 29.67 Z" fill="#d0d0d0" fill-opacity="0.5" stroke="none"/>
<polyline fill="none" stroke="#111" stroke-width="1.2" points="70.72,80.52 72.15,80.43 73.58,79.57 75.01,77.56 76.45,75.39 77.88,79.79 79.31,84.54 80.74,88.90 82.17,86.75 83.61,84.60 85.04,82.23 86.47,80.32 87.90,84.74 89.34,84.14 90.77,82.21 92.20,80.03 93.63,78.44 95.07,77.20 96.50,74.59 97.93,74.53 99.36,72.34 100.79,70.16 102.23,68.02 103.66,66.70 105.09,65.07 106.52,63.16 107.96,61.20 109.39,59.42 110.82,57.23 112.25,57.17 113.68,58.25 115.12,57.75 116.55,55.78 117.98,53.86 119.41,51.75 120.85,56.01 122.28,54.16 123.71,58.36 125.14,57.60 126.58,55.55 128.01,53.51 129.44,52.22 130.87,50.35 132.30,49.19 133.74,53.41 135.17,54.21 136.60,58.39 138.03,55.97 139.47,54.38 140.90,59.39 142.33,57.36 143.76,61.65 145.20,60.45 146.63,58.34 148.06,56.71 149.49,54.62 150.92,52.53 152.36,50.42 153.79,49.45 155.22,53.71 156.65,58.72 158.09,57.26 159.52,56.71 160.95,54.68 162.98,52.86 165.60,57.03 168.21,55.82 170.83,54.02 173.45,52.45 176.07,50.81 178.69,49.06 181.31,50.61 183.93,54.81 186.55,54.55 189.17,53.33 191.79,57.55 194.40,54.88 197.02,59.11 199.64,57.40 202.26,55.50 204.88,53.65 207.50,53.58 210.12,51.53 212.74,49.47 215.36,49.09 217.98,47.22 220.60,46.81 223.21,45.68 225.83,44.09 228.45,41.35 231.07,45.52 233.69,49.64 236.31,53.82 238.93,58.83 241.55,56.79 244.17,55.29 246.79,53.96 249.40,58.13 252.02,62.31 254.64,60.77 257.26,59.70 259.88,63.80 262.50,62.21 265.12,61.20 267.74,65.31 270.36,66.34 272.98,64.93 275.60,69.07 278.21,68.69 280.83,67.17 283.45,65.74 286.07,65.24 288.69,64.93 291.31,63.14 293.93,61.42 296.55,65.67 299.17,63.28 301.79,67.66 304.40,72.54 307.02,70.86 309.64,68.85 312.26,73.29 314.88,72.77 317.50,71.72 320.12,71.57 322.74,75.98 325.36,73.96 327.98,72.97 330.60,71.30 333.21,75.71 335.83,80.50 338.45,78.62 341.07,76.73 343.69,75.62 347.29,73.52 351.88,71.65 356.46,69.78 361.04,69.37 365.62,67.62 370.21,65.49 374.79,65.00 379.38,69.32 383.96,67.91 388.54,66.24 393.12,67.87 397.71,65.78 402.29,70.09 406.88,68.47 411.46,66.86 416.04,66.19 420.62,64.98 425.21,66.32 429.79,70.63 434.38,68.52 440.19,66.71 447.24,65.41 454.29,63.29 461.35,61.17 468.40,59.04 475.45,56.80 482.50,54.65 489.55,52.47 496.60,51.45 503.65,50.13 510.71,54.54 517.76,54.56 524.81,59.11 531.61,63.69 538.15,62.10 544.70,60.96 551.25,58.68 557.80,63.28 564.35,61.47 570.89,65.98 577.44,63.91 583.99,61.88 590.54,60.88 597.08,60.47 603.63,59.63 610.18,57.37 616.73,57.66 625.09,55.40 635.28,54.29 645.46,54.01 655.65,51.75 665.83,50.47 676.02,48.41 686.20,48.26 696.39,52.85 706.57,52.97 726.94,51.57 757.50,49.26 788.06,48.48 809.06,53.11 820.52,51.88 831.98,49.53 843.44,49.17 854.90,47.23 866.35,44.46 877.81,49.21 889.27,47.81 901.55,48.46 914.64,46.47 927.74,44.49 940.83,43.22 953.93,42.13 967.02,40.26 980.12,38.42 994.31,37.17 1009.58,34.74 1024.86,33.11 1040.14,31.40 1055.42,36.23 1070.69,35.38 1084.06,33.16 1095.52,32.00 1106.98,30.16 1118.44,28.22 1129.90,26.12 1141.35,25.00 1152.81,29.67 1164.27,29.69"/>
<text x="15" y="287.5" transform="rotate(-90 15,287.5)" text-anchor="middle" font-family="sans-serif" font-size="12" fill="#333">USD</text>
</svg>