<svg xmlns="http://www.w3.org/2000/svg" width="1200" height="600" viewBox="0 0 1200 600">
<desc>Equity curve with drawdown fill; x-axis is months only (no exact timestamps)</desc>
<text x="600.0" y="18.0" text-anchor="middle" font-family="sans-serif" font-size="14">Portfolio 2025 (UTC)</text>
<rect x="70" y="25" width="1100" height="525" fill="white" stroke="#ccc" />
<line x1="70" y1="550.00" x2="1170" y2="550.00" stroke="#eee"/>
<text x="62" y="554.0" text-anchor="end" font-family="sans-serif" font-size="11" fill="#555">0.00</text>
<line x1="70" y1="445.00" x2="1170" y2="445.00" stroke="#eee"/>
<text x="62" y="449.0" text-anchor="end" font-family="sans-serif" font-size="11" fill="#555">21747</text>
<line x1="70" y1="340.00" x2="1170" y2="340.00" stroke="#eee"/>
<text x="62" y="344.0" text-anchor="end" font-family="sans-serif" font-size="11" fill="#555">43494</text>
<line x1="70" y1="235.00" x2="1170" y2="235.00" stroke="#eee"/>
<text x="62" y="239.0" text-anchor="end" font-family="sans-serif" font-size="11" fill="#555">65241</text>
<line x1="70" y1="130.00" x2="1170" y2="130.00" stroke="#eee"/>
<text x="62" y="134.0" text-anchor="end" font-family="sans-serif" font-size="11" fill="#555">86988</text>
<line x1="70" y1="25.00" x2="1170" y2="25.00" stroke="#eee"/>
<text x="62" y="29.0" text-anchor="end" font-family="sans-serif" font-size="11" fill="#555">108735</text>
<line x1="207.50" y1="25" x2="207.50" y2="550" stroke="#f2f2f2"/>
<line x1="345.00" y1="25" x2="345.00" y2="550" stroke="#f2f2f2"/>
<line x1="482.50" y1="25" x2="482.50" y2="550" stroke="#f2f2f2"/>
<line x1="620.00" y1="25" x2="620.00" y2="550" stroke="#f2f2f2"/>
<line x1="757.50" y1="25" x2="757.50" y2="550" stroke="#f2f2f2"/>
<line x1="895.00" y1="25" x2="895.00" y2="550" stroke="#f2f2f2"/>
<line x1="1032.50" y1="25" x2="1032.50" y2="550" stroke="#f2f2f2"/>
<text x="138.75" y="566.00" text-anchor="middle" font-family="sans-serif" font-size="11" fill="#444">Jan</text>
<text x="276.25" y="566.00" text-anchor="middle" font-family="sans-serif" font-size="11" fill="#444">Feb</text>
<text x="413.75" y="566.00" text-anchor="middle" font-family="sans-serif" font-size="11" fill="#444">Mar</text>
<text x="551.25" y="566.00" text-anchor="middle" font-family="sans-serif" font-size="11" fill="#444">Apr</text>
<text x="688.75" y="566.00" text-anchor="middle" font-family="sans-serif" font-size="11" fill="#444">May</text>
<text x="826.25" y="566.00" text-anchor="middle" font-family="sans-serif" font-size="11" fill="#444">Jun</text>
<text x="963.75" y="566.00" text-anchor="middle" font-family="sans-serif" font-size="11" fill="#444">Jul</text>
<text x="1101.25" y="566.00" text-anchor="middle" font-family="sans-serif" font-size="11" fill="#444">Aug</text>
<line x1="70" y1="550" x2="1170" y2="550" stroke="#888"/>
<line x1="70" y1="25" x2="70" y2="550" stroke="#888"/>
<line x1="75.73" y1="550.00" x2="75.73" y2="556.00" stroke="#888"/>
<line x1="1135.62"   y1="550.00" x2="1135.62"   y2="556.00" stroke="#888"/>
<text x="75.73" y="582.00" text-anchor="start" font-family="sans-serif" font-size="11" fill="#333">Initial Balance: 100000</text>
<text x="1135.62"   y="582.00" text-anchor="end"   font-family="sans-serif" font-size="11" fill="#333">Ending Balance: 105912</text>
<path d="M 98.65 64.72 L 110.10 64.72 L 121.56 64.72 L 133.02 64.72 L 133.02 67.41 L 121.56 69.18 L 110.10 72.36 L 98.65 72.08 Z" fill="#d0d0d0" fill-opacity="0.5" stroke="none"/>
<path d="M 356.46 35.55 L 379.38 35.55 L 402.29 35.55 L 402.29 36.21 L 379.38 39.57 L 356.46 43.35 Z" fill="#d0d0d0" fill-opacity="0.5" stroke="none"/>
<path d="M 485.94 27.95 L 492.81 27.95 L 499.69 27.95 L 506.56 27.95 L 513.44 27.95 L 520.31 27.95 L 527.19 27.95 L 534.06 27.95 L 540.94 27.95 L 547.81 27.95 L 547.81 31.86 L 540.94 34.74 L 534.06 35.12 L 527.19 37.61 L 520.31 38.94 L 513.44 36.14 L 506.56 28.39 L 499.69 32.96 L 492.81 33.22 L 485.94 35.85 Z" fill="#d0d0d0" fill-opacity="0.5" stroke="none"/>
<path d="M 568.44 25.00 L 575.31 25.00 L 582.19 25.00 L 589.06 25.00 L 595.94 25.00 L 602.81 25.00 L 609.69 25.00 L 616.56 25.00 L 633.75 25.00 L 661.25 25.00 L 688.75 25.00 L 716.25 25.00 L 743.75 25.00 L 780.42 25.00 L 826.25 25.00 L 872.08 25.00 L 908.75 25.00 L 936.25 25.00 L 963.75 25.00 L 991.25 25.00 L 1018.75 25.00 L 1066.88 25.00 L 1135.62 25.00 L 1135.62 38.63 L 1066.88 41.93 L 1018.75 45.45 L 991.25 37.69 L 963.75 41.09 L 936.25 44.58 L 908.75 36.92 L 872.08 41.34 L 826.25 45.20 L 780.42 48.54 L 743.75 52.32 L 716.25 44.66 L 688.75 48.33 L 661.25 40.62 L 633.75 44.56 L 616.56 36.80 L 609.69 37.94 L 602.81 30.08 L 595.94 32.19 L 589.06 36.13 L 582.19 36.09 L 575.31 28.35 L 568.44 32.93 Z" fill="#d0d0d0" fill-opacity="0.5" stroke="none"/>
<polyline fill="none" stroke="#111" stroke-width="1.2" points="75.73,67.18 87.19,64.72 98.65,72.08 110.10,72.36 121.56,69.18 133.02,67.41 144.48,63.41 155.94,59.96 167.40,55.90 178.85,51.80 190.31,50.27 201.77,46.56 230.42,43.51 276.25,39.74 322.08,35.55 356.46,43.35 379.38,39.57 402.29,36.21 425.21,33.14 448.12,30.90 471.04,27.95 485.94,35.85 492.81,33.22 499.69,32.96 506.56,28.39 513.44,36.14 520.31,38.94 527.19,37.61 534.06,35.12 540.94,34.74 547.81,31.86 554.69,27.31 561.56,25.00 568.44,32.93 575.31,28.35 582.19,36.09 589.06,36.13 595.94,32.19 602.81,30.08 609.69,37.94 616.56,36.80 633.75,44.56 661.25,40.62 688.75,48.33 716.25,44.66 743.75,52.32 780.42,48.54 826.25,45.20 872.08,41.34 908.75,36.92 936.25,44.58 963.75,41.09 991.25,37.69 1018.75,45.45 1066.88,41.93 1135.62,38.63"/>
<text x="620.0" y="588" text-anchor="middle" font-family="sans-serif" font-size="12" fill="#333">Monthly Balance Curve</text>
<text x="15" y="287.5" transform="rotate(-90 15,287.5)" text-anchor="middle" font-family="sans-serif" font-size="12" fill="#333">Capital</text>
</svg>