<svg xmlns="http://www.w3.org/2000/svg" width="1200" height="600" viewBox="0 0 1200 600">
<desc>Equity curve with drawdown fill; x-axis is months only (no exact timestamps)</desc>
<text x="600.0" y="18.0" text-anchor="middle" font-family="sans-serif" font-size="14">Portfolio 2004 (UTC)</text>
<rect x="70" y="25" width="1100" height="525" fill="white" stroke="#ccc" />
<line x1="70" y1="550.00" x2="1170" y2="550.00" stroke="#eee"/>
<text x="62" y="554.0" text-anchor="end" font-family="sans-serif" font-size="11" fill="#555">0.00</text>
<line x1="70" y1="445.00" x2="1170" y2="445.00" stroke="#eee"/>
<text x="62" y="449.0" text-anchor="end" font-family="sans-serif" font-size="11" fill="#555">24651</text>
<line x1="70" y1="340.00" x2="1170" y2="340.00" stroke="#eee"/>
<text x="62" y="344.0" text-anchor="end" font-family="sans-serif" font-size="11" fill="#555">49301</text>
<line x1="70" y1="235.00" x2="1170" y2="235.00" stroke="#eee"/>
<text x="62" y="239.0" text-anchor="end" font-family="sans-serif" font-size="11" fill="#555">73952</text>
<line x1="70" y1="130.00" x2="1170" y2="130.00" stroke="#eee"/>
<text x="62" y="134.0" text-anchor="end" font-family="sans-serif" font-size="11" fill="#555">98602</text>
<line x1="70" y1="25.00" x2="1170" y2="25.00" stroke="#eee"/>
<text x="62" y="29.0" text-anchor="end" font-family="sans-serif" font-size="11" fill="#555">123253</text>
<line x1="161.67" y1="25" x2="161.67" y2="550" stroke="#f2f2f2"/>
<line x1="253.33" y1="25" x2="253.33" y2="550" stroke="#f2f2f2"/>
<line x1="345.00" y1="25" x2="345.00" y2="550" stroke="#f2f2f2"/>
<line x1="436.67" y1="25" x2="436.67" y2="550" stroke="#f2f2f2"/>
<line x1="528.33" y1="25" x2="528.33" y2="550" stroke="#f2f2f2"/>
<line x1="620.00" y1="25" x2="620.00" y2="550" stroke="#f2f2f2"/>
<line x1="711.67" y1="25" x2="711.67" y2="550" stroke="#f2f2f2"/>
<line x1="803.33" y1="25" x2="803.33" y2="550" stroke="#f2f2f2"/>
<line x1="895.00" y1="25" x2="895.00" y2="550" stroke="#f2f2f2"/>
<line x1="986.67" y1="25" x2="986.67" y2="550" stroke="#f2f2f2"/>
<line x1="1078.33" y1="25" x2="1078.33" y2="550" stroke="#f2f2f2"/>
<text x="115.83" y="566.00" text-anchor="middle" font-family="sans-serif" font-size="11" fill="#444">Jan</text>
<text x="207.50" y="566.00" text-anchor="middle" font-family="sans-serif" font-size="11" fill="#444">Feb</text>
<text x="299.17" y="566.00" text-anchor="middle" font-family="sans-serif" font-size="11" fill="#444">Mar</text>
<text x="390.83" y="566.00" text-anchor="middle" font-family="sans-serif" font-size="11" fill="#444">Apr</text>
<text x="482.50" y="566.00" text-anchor="middle" font-family="sans-serif" font-size="11" fill="#444">May</text>
<text x="574.17" y="566.00" text-anchor="middle" font-family="sans-serif" font-size="11" fill="#444">Jun</text>
<text x="665.83" y="566.00" text-anchor="middle" font-family="sans-serif" font-size="11" fill="#444">Jul</text>
<text x="757.50" y="566.00" text-anchor="middle" font-family="sans-serif" font-size="11" fill="#444">Aug</text>
<text x="849.17" y="566.00" text-anchor="middle" font-family="sans-serif" font-size="11" fill="#444">Sep</text>
<text x="940.83" y="566.00" text-anchor="middle" font-family="sans-serif" font-size="11" fill="#444">Oct</text>
<text x="1032.50" y="566.00" text-anchor="middle" font-family="sans-serif" font-size="11" fill="#444">Nov</text>
<text x="1124.17" y="566.00" text-anchor="middle" font-family="sans-serif" font-size="11" fill="#444">Dec</text>
<line x1="70" y1="550" x2="1170" y2="550" stroke="#888"/>
<line x1="70" y1="25" x2="70" y2="550" stroke="#888"/>
<line x1="71.91" y1="550.00" x2="71.91" y2="556.00" stroke="#888"/>
<line x1="1163.45"   y1="550.00" x2="1163.45"   y2="556.00" stroke="#888"/>
<text x="71.91" y="582.00" text-anchor="start" font-family="sans-serif" font-size="11" fill="#333">Initial Balance: 109679</text>
<text x="1163.45"   y="582.00" text-anchor="end"   font-family="sans-serif" font-size="11" fill="#333">Ending Balance: 119872</text>
<path d="M 83.37 80.37 L 87.19 80.37 L 91.01 80.37 L 91.01 82.53 L 87.19 83.37 L 83.37 85.13 Z" fill="#d0d0d0" fill-opacity="0.5" stroke="none"/>
<path d="M 98.65 79.92 L 102.47 79.92 L 106.28 79.92 L 110.10 79.92 L 113.92 79.92 L 117.74 79.92 L 121.56 79.92 L 125.38 79.92 L 129.20 79.92 L 133.02 79.92 L 136.84 79.92 L 140.66 79.92 L 144.48 79.92 L 148.30 79.92 L 152.12 79.92 L 155.94 79.92 L 159.76 79.92 L 165.49 79.92 L 173.12 79.92 L 180.76 79.92 L 188.40 79.92 L 196.04 79.92 L 203.68 79.92 L 211.32 79.92 L 211.32 81.08 L 203.68 82.73 L 196.04 85.32 L 188.40 85.19 L 180.76 86.16 L 173.12 88.73 L 165.49 90.48 L 159.76 85.77 L 155.94 87.88 L 152.12 90.43 L 148.30 92.70 L 144.48 95.23 L 140.66 90.62 L 136.84 93.27 L 133.02 95.57 L 129.20 90.99 L 125.38 88.99 L 121.56 93.62 L 117.74 91.65 L 113.92 91.58 L 110.10 86.88 L 106.28 82.19 L 102.47 84.88 L 98.65 80.12 Z" fill="#d0d0d0" fill-opacity="0.5" stroke="none"/>
<path d="M 262.50 70.02 L 268.61 70.02 L 274.72 70.02 L 274.72 70.35 L 268.61 72.77 L 262.50 74.89 Z" fill="#d0d0d0" fill-opacity="0.5" stroke="none"/>
<path d="M 305.28 60.53 L 311.39 60.53 L 317.50 60.53 L 323.61 60.53 L 329.72 60.53 L 335.83 60.53 L 341.94 60.53 L 351.55 60.53 L 364.64 60.53 L 377.74 60.53 L 390.83 60.53 L 390.83 62.43 L 377.74 64.31 L 364.64 66.99 L 351.55 62.04 L 341.94 62.11 L 335.83 64.56 L 329.72 67.01 L 323.61 68.45 L 317.50 67.80 L 311.39 70.40 L 305.28 65.49 Z" fill="#d0d0d0" fill-opacity="0.5" stroke="none"/>
<path d="M 457.50 50.22 L 465.83 50.22 L 474.17 50.22 L 482.50 50.22 L 490.83 50.22 L 490.83 51.23 L 482.50 52.72 L 474.17 53.40 L 465.83 53.10 L 457.50 55.21 Z" fill="#d0d0d0" fill-opacity="0.5" stroke="none"/>
<path d="M 524.17 46.02 L 532.15 46.02 L 539.79 46.02 L 539.79 48.48 L 532.15 51.24 L 524.17 51.12 Z" fill="#d0d0d0" fill-opacity="0.5" stroke="none"/>
<path d="M 577.99 42.21 L 585.62 42.21 L 593.26 42.21 L 600.90 42.21 L 608.54 42.21 L 616.18 42.21 L 627.64 42.21 L 642.92 42.21 L 658.19 42.21 L 673.47 42.21 L 688.75 42.21 L 704.03 42.21 L 723.12 42.21 L 746.04 42.21 L 768.96 42.21 L 791.88 42.21 L 809.88 42.21 L 822.98 42.21 L 836.07 42.21 L 849.17 42.21 L 849.17 43.68 L 836.07 43.90 L 822.98 46.07 L 809.88 47.78 L 791.88 42.65 L 768.96 44.79 L 746.04 47.56 L 723.12 42.46 L 704.03 45.25 L 688.75 46.23 L 673.47 48.45 L 658.19 49.32 L 642.92 50.23 L 627.64 45.16 L 616.18 48.06 L 608.54 49.64 L 600.90 51.93 L 593.26 52.39 L 585.62 47.30 L 577.99 47.35 Z" fill="#d0d0d0" fill-opacity="0.5" stroke="none"/>
<path d="M 961.20 25.00 L 971.39 25.00 L 981.57 25.00 L 998.12 25.00 L 1021.04 25.00 L 1043.96 25.00 L 1066.88 25.00 L 1084.88 25.00 L 1097.98 25.00 L 1111.07 25.00 L 1124.17 25.00 L 1137.26 25.00 L 1150.36 25.00 L 1163.45 25.00 L 1163.45 39.40 L 1150.36 41.20 L 1137.26 36.01 L 1124.17 30.77 L 1111.07 32.29 L 1097.98 34.47 L 1084.88 29.23 L 1066.88 31.51 L 1043.96 29.94 L 1021.04 31.62 L 998.12 29.68 L 981.57 32.54 L 971.39 35.53 L 961.20 30.29 Z" fill="#d0d0d0" fill-opacity="0.5" stroke="none"/>
<polyline fill="none" stroke="#111" stroke-width="1.2" points="71.91,82.82 75.73,81.94 79.55,80.37 83.37,85.13 87.19,83.37 91.01,82.53 94.83,79.92 98.65,80.12 102.47,84.88 106.28,82.19 110.10,86.88 113.92,91.58 117.74,91.65 121.56,93.62 125.38,88.99 129.20,90.99 133.02,95.57 136.84,93.27 140.66,90.62 144.48,95.23 148.30,92.70 152.12,90.43 155.94,87.88 159.76,85.77 165.49,90.48 173.12,88.73 180.76,86.16 188.40,85.19 196.04,85.32 203.68,82.73 211.32,81.08 218.96,78.48 226.60,78.15 234.24,75.75 241.88,73.29 249.51,71.14 256.39,70.02 262.50,74.89 268.61,72.77 274.72,70.35 280.83,67.69 286.94,65.01 293.06,63.23 299.17,60.53 305.28,65.49 311.39,70.40 317.50,67.80 323.61,68.45 329.72,67.01 335.83,64.56 341.94,62.11 351.55,62.04 364.64,66.99 377.74,64.31 390.83,62.43 403.93,59.98 417.02,58.53 430.12,55.81 440.83,53.07 449.17,50.22 457.50,55.21 465.83,53.10 474.17,53.40 482.50,52.72 490.83,51.23 499.17,50.18 507.50,48.30 515.83,46.02 524.17,51.12 532.15,51.24 539.79,48.48 547.43,45.70 555.07,45.21 562.71,42.69 570.35,42.21 577.99,47.35 585.62,47.30 593.26,52.39 600.90,51.93 608.54,49.64 616.18,48.06 627.64,45.16 642.92,50.23 658.19,49.32 673.47,48.45 688.75,46.23 704.03,45.25 723.12,42.46 746.04,47.56 768.96,44.79 791.88,42.65 809.88,47.78 822.98,46.07 836.07,43.90 849.17,43.68 862.26,41.77 875.36,40.22 888.45,37.95 900.09,37.49 910.28,34.65 920.46,33.50 930.65,30.90 940.83,28.03 951.02,25.00 961.20,30.29 971.39,35.53 981.57,32.54 998.12,29.68 1021.04,31.62 1043.96,29.94 1066.88,31.51 1084.88,29.23 1097.98,34.47 1111.07,32.29 1124.17,30.77 1137.26,36.01 1150.36,41.20 1163.45,39.40"/>
<text x="620.0" y="588" text-anchor="middle" font-family="sans-serif" font-size="12" fill="#333">Monthly Balance Curve</text>
<text x="15" y="287.5" transform="rotate(-90 15,287.5)" text-anchor="middle" font-family="sans-serif" font-size="12" fill="#333">Capital</text>
</svg>