<svg xmlns="http://www.w3.org/2000/svg" width="1200" height="600" viewBox="0 0 1200 600">
<desc>Equity curve with drawdown fill</desc>
<text x="600.0" y="18.0" text-anchor="middle" font-family="sans-serif" font-size="14">Portfolio 2017</text>
<rect x="70" y="25" width="1100" height="525" fill="white" stroke="#ccc" />
<line x1="70" y1="550.00" x2="1170" y2="550.00" stroke="#eee"/>
<text x="62" y="554.0" text-anchor="end" font-family="sans-serif" font-size="11" fill="#555">0.00</text>
<line x1="70" y1="445.00" x2="1170" y2="445.00" stroke="#eee"/>
<text x="62" y="449.0" text-anchor="end" font-family="sans-serif" font-size="11" fill="#555">70972</text>
<line x1="70" y1="340.00" x2="1170" y2="340.00" stroke="#eee"/>
<text x="62" y="344.0" text-anchor="end" font-family="sans-serif" font-size="11" fill="#555">141945</text>
<line x1="70" y1="235.00" x2="1170" y2="235.00" stroke="#eee"/>
<text x="62" y="239.0" text-anchor="end" font-family="sans-serif" font-size="11" fill="#555">212917</text>
<line x1="70" y1="130.00" x2="1170" y2="130.00" stroke="#eee"/>
<text x="62" y="134.0" text-anchor="end" font-family="sans-serif" font-size="11" fill="#555">283889</text>
<line x1="70" y1="25.00" x2="1170" y2="25.00" stroke="#eee"/>
<text x="62" y="29.0" text-anchor="end" font-family="sans-serif" font-size="11" fill="#555">354861</text>
<line x1="159.32" y1="25" x2="159.32" y2="550" stroke="#f2f2f2"/>
<text x="159.32" y="566" text-anchor="middle" font-family="sans-serif" font-size="11" fill="#555">Feb</text>
<line x1="246.66" y1="25" x2="246.66" y2="550" stroke="#f2f2f2"/>
<text x="246.66" y="566" text-anchor="middle" font-family="sans-serif" font-size="11" fill="#555">Mar</text>
<line x1="343.35" y1="25" x2="343.35" y2="550" stroke="#f2f2f2"/>
<text x="343.35" y="566" text-anchor="middle" font-family="sans-serif" font-size="11" fill="#555">Apr</text>
<line x1="436.93" y1="25" x2="436.93" y2="550" stroke="#f2f2f2"/>
<text x="436.93" y="566" text-anchor="middle" font-family="sans-serif" font-size="11" fill="#555">May</text>
<line x1="533.63" y1="25" x2="533.63" y2="550" stroke="#f2f2f2"/>
<text x="533.63" y="566" text-anchor="middle" font-family="sans-serif" font-size="11" fill="#555">Jun</text>
<line x1="627.21" y1="25" x2="627.21" y2="550" stroke="#f2f2f2"/>
<text x="627.21" y="566" text-anchor="middle" font-family="sans-serif" font-size="11" fill="#555">Jul</text>
<line x1="723.90" y1="25" x2="723.90" y2="550" stroke="#f2f2f2"/>
<text x="723.90" y="566" text-anchor="middle" font-family="sans-serif" font-size="11" fill="#555">Aug</text>
<line x1="820.60" y1="25" x2="820.60" y2="550" stroke="#f2f2f2"/>
<text x="820.60" y="566" text-anchor="middle" font-family="sans-serif" font-size="11" fill="#555">Sep</text>
<line x1="914.18" y1="25" x2="914.18" y2="550" stroke="#f2f2f2"/>
<text x="914.18" y="566" text-anchor="middle" font-family="sans-serif" font-size="11" fill="#555">Oct</text>
<line x1="1010.87" y1="25" x2="1010.87" y2="550" stroke="#f2f2f2"/>
<text x="1010.87" y="566" text-anchor="middle" font-family="sans-serif" font-size="11" fill="#555">Nov</text>
<line x1="1104.45" y1="25" x2="1104.45" y2="550" stroke="#f2f2f2"/>
<text x="1104.45" y="566" text-anchor="middle" font-family="sans-serif" font-size="11" fill="#555">Dec</text>
<line x1="70" y1="550" x2="1170" y2="550" stroke="#888"/>
<line x1="70" y1="25" x2="70" y2="550" stroke="#888"/>
<path d="M 77.15 74.81 L 77.22 74.81 L 79.98 74.81 L 95.86 74.81 L 95.86 74.82 L 79.98 76.66 L 77.22 80.59 L 77.15 82.03 Z" fill="#d0d0d0" fill-opacity="0.5" stroke="none"/>
<path d="M 96.14 70.85 L 96.17 70.85 L 96.24 70.85 L 96.33 70.85 L 102.03 70.85 L 114.07 70.85 L 120.54 70.85 L 154.77 70.85 L 155.19 70.85 L 157.88 70.85 L 201.96 70.85 L 205.19 70.85 L 255.46 70.85 L 255.46 71.13 L 205.19 73.08 L 201.96 76.26 L 157.88 77.10 L 155.19 75.33 L 154.77 78.57 L 120.54 71.30 L 114.07 75.31 L 102.03 77.57 L 96.33 80.79 L 96.24 83.35 L 96.17 85.25 L 96.14 78.12 Z" fill="#d0d0d0" fill-opacity="0.5" stroke="none"/>
<path d="M 415.16 59.32 L 429.03 59.32 L 473.11 59.32 L 473.11 60.92 L 429.03 63.32 L 415.16 60.17 Z" fill="#d0d0d0" fill-opacity="0.5" stroke="none"/>
<path d="M 504.07 57.77 L 538.58 57.77 L 553.94 57.77 L 553.94 61.01 L 538.58 59.80 L 504.07 61.09 Z" fill="#d0d0d0" fill-opacity="0.5" stroke="none"/>
<path d="M 576.01 57.32 L 616.13 57.32 L 616.96 57.32 L 619.57 57.32 L 619.59 57.32 L 663.55 57.32 L 663.55 57.56 L 619.59 60.89 L 619.57 65.17 L 616.96 69.25 L 616.13 72.14 L 576.01 64.78 Z" fill="#d0d0d0" fill-opacity="0.5" stroke="none"/>
<path d="M 680.66 54.57 L 680.66 56.37 Z" fill="#d0d0d0" fill-opacity="0.5" stroke="none"/>
<path d="M 688.65 52.18 L 707.69 52.18 L 722.93 52.18 L 729.38 52.18 L 735.03 52.18 L 735.26 52.18 L 735.45 52.18 L 747.81 52.18 L 750.73 52.18 L 756.93 52.18 L 769.43 52.18 L 771.89 52.18 L 773.16 52.18 L 775.44 52.18 L 775.44 54.06 L 773.16 58.24 L 771.89 62.39 L 769.43 66.22 L 756.93 66.41 L 750.73 67.01 L 747.81 70.47 L 735.45 63.09 L 735.26 62.15 L 735.03 54.68 L 729.38 58.52 L 722.93 62.67 L 707.69 63.66 L 688.65 56.18 Z" fill="#d0d0d0" fill-opacity="0.5" stroke="none"/>
<path d="M 860.11 33.02 L 860.11 33.79 Z" fill="#d0d0d0" fill-opacity="0.5" stroke="none"/>
<path d="M 882.41 25.00 L 953.42 25.00 L 993.95 25.00 L 994.21 25.00 L 1070.14 25.00 L 1071.35 25.00 L 1103.40 25.00 L 1106.62 25.00 L 1170.00 25.00 L 1170.00 32.69 L 1106.62 36.67 L 1103.40 38.97 L 1071.35 36.80 L 1070.14 38.03 L 994.21 39.37 L 993.95 31.55 L 953.42 29.66 L 882.41 32.87 Z" fill="#d0d0d0" fill-opacity="0.5" stroke="none"/>
<polyline fill="none" stroke="#111" stroke-width="1.2" points="70.00,86.73 70.85,83.18 71.05,81.04 75.13,77.52 76.27,74.81 77.15,82.03 77.22,80.59 79.98,76.66 95.86,74.82 95.98,70.85 96.14,78.12 96.17,85.25 96.24,83.35 96.33,80.79 102.03,77.57 114.07,75.31 120.54,71.30 154.77,78.57 155.19,75.33 157.88,77.10 201.96,76.26 205.19,73.08 255.46,71.13 273.49,68.87 292.87,68.10 333.42,66.69 335.73,63.69 360.05,60.65 415.04,59.32 415.16,60.17 429.03,63.32 473.11,60.92 492.46,57.77 504.07,61.09 538.58,59.80 553.94,61.01 554.40,57.32 576.01,64.78 616.13,72.14 616.96,69.25 619.57,65.17 619.59,60.89 663.55,57.56 669.60,54.57 680.66,56.37 688.27,52.18 688.65,56.18 707.69,63.66 722.93,62.67 729.38,58.52 735.03,54.68 735.26,62.15 735.45,63.09 747.81,70.47 750.73,67.01 756.93,66.41 769.43,66.22 771.89,62.39 773.16,58.24 775.44,54.06 800.72,49.84 812.34,47.84 822.35,43.57 822.59,40.38 841.08,36.05 842.96,33.02 860.11,33.79 862.90,29.41 882.34,25.00 882.41,32.87 953.42,29.66 993.95,31.55 994.21,39.37 1070.14,38.03 1071.35,36.80 1103.40,38.97 1106.62,36.67 1170.00,32.69"/>
<text x="620.0" y="588" text-anchor="middle" font-family="sans-serif" font-size="12" fill="#333">UTC time</text>
<text x="15" y="287.5" transform="rotate(-90 15,287.5)" text-anchor="middle" font-family="sans-serif" font-size="12" fill="#333">Capital</text>
</svg>