<svg xmlns="http://www.w3.org/2000/svg" width="1200" height="600" viewBox="0 0 1200 600">
<desc>Equity curve with drawdown fill; x-axis is months only (no exact timestamps)</desc>
<text x="600.0" y="18.0" text-anchor="middle" font-family="sans-serif" font-size="14">Portfolio 2011 (UTC)</text>
<rect x="70" y="25" width="1100" height="525" fill="white" stroke="#ccc" />
<line x1="70" y1="550.00" x2="1170" y2="550.00" stroke="#eee"/>
<text x="62" y="554.0" text-anchor="end" font-family="sans-serif" font-size="11" fill="#555">0.00</text>
<line x1="70" y1="445.00" x2="1170" y2="445.00" stroke="#eee"/>
<text x="62" y="449.0" text-anchor="end" font-family="sans-serif" font-size="11" fill="#555">22223</text>
<line x1="70" y1="340.00" x2="1170" y2="340.00" stroke="#eee"/>
<text x="62" y="344.0" text-anchor="end" font-family="sans-serif" font-size="11" fill="#555">44446</text>
<line x1="70" y1="235.00" x2="1170" y2="235.00" stroke="#eee"/>
<text x="62" y="239.0" text-anchor="end" font-family="sans-serif" font-size="11" fill="#555">66669</text>
<line x1="70" y1="130.00" x2="1170" y2="130.00" stroke="#eee"/>
<text x="62" y="134.0" text-anchor="end" font-family="sans-serif" font-size="11" fill="#555">88892</text>
<line x1="70" y1="25.00" x2="1170" y2="25.00" stroke="#eee"/>
<text x="62" y="29.0" text-anchor="end" font-family="sans-serif" font-size="11" fill="#555">111115</text>
<line x1="161.67" y1="25" x2="161.67" y2="550" stroke="#f2f2f2"/>
<line x1="253.33" y1="25" x2="253.33" y2="550" stroke="#f2f2f2"/>
<line x1="345.00" y1="25" x2="345.00" y2="550" stroke="#f2f2f2"/>
<line x1="436.67" y1="25" x2="436.67" y2="550" stroke="#f2f2f2"/>
<line x1="528.33" y1="25" x2="528.33" y2="550" stroke="#f2f2f2"/>
<line x1="620.00" y1="25" x2="620.00" y2="550" stroke="#f2f2f2"/>
<line x1="711.67" y1="25" x2="711.67" y2="550" stroke="#f2f2f2"/>
<line x1="803.33" y1="25" x2="803.33" y2="550" stroke="#f2f2f2"/>
<line x1="895.00" y1="25" x2="895.00" y2="550" stroke="#f2f2f2"/>
<line x1="986.67" y1="25" x2="986.67" y2="550" stroke="#f2f2f2"/>
<line x1="1078.33" y1="25" x2="1078.33" y2="550" stroke="#f2f2f2"/>
<text x="115.83" y="566.00" text-anchor="middle" font-family="sans-serif" font-size="11" fill="#444">Jan</text>
<text x="207.50" y="566.00" text-anchor="middle" font-family="sans-serif" font-size="11" fill="#444">Feb</text>
<text x="299.17" y="566.00" text-anchor="middle" font-family="sans-serif" font-size="11" fill="#444">Mar</text>
<text x="390.83" y="566.00" text-anchor="middle" font-family="sans-serif" font-size="11" fill="#444">Apr</text>
<text x="482.50" y="566.00" text-anchor="middle" font-family="sans-serif" font-size="11" fill="#444">May</text>
<text x="574.17" y="566.00" text-anchor="middle" font-family="sans-serif" font-size="11" fill="#444">Jun</text>
<text x="665.83" y="566.00" text-anchor="middle" font-family="sans-serif" font-size="11" fill="#444">Jul</text>
<text x="757.50" y="566.00" text-anchor="middle" font-family="sans-serif" font-size="11" fill="#444">Aug</text>
<text x="849.17" y="566.00" text-anchor="middle" font-family="sans-serif" font-size="11" fill="#444">Sep</text>
<text x="940.83" y="566.00" text-anchor="middle" font-family="sans-serif" font-size="11" fill="#444">Oct</text>
<text x="1032.50" y="566.00" text-anchor="middle" font-family="sans-serif" font-size="11" fill="#444">Nov</text>
<text x="1124.17" y="566.00" text-anchor="middle" font-family="sans-serif" font-size="11" fill="#444">Dec</text>
<line x1="70" y1="550" x2="1170" y2="550" stroke="#888"/>
<line x1="70" y1="25" x2="70" y2="550" stroke="#888"/>
<line x1="74.17" y1="550.00" x2="74.17" y2="556.00" stroke="#888"/>
<line x1="1154.72"   y1="550.00" x2="1154.72"   y2="556.00" stroke="#888"/>
<text x="74.17" y="582.00" text-anchor="start" font-family="sans-serif" font-size="11" fill="#333">Initial Balance: 100000</text>
<text x="1154.72"   y="582.00" text-anchor="end"   font-family="sans-serif" font-size="11" fill="#333">Ending Balance: 110082</text>
<path d="M 189.17 54.57 L 207.50 54.57 L 207.50 55.45 L 189.17 56.35 Z" fill="#d0d0d0" fill-opacity="0.5" stroke="none"/>
<path d="M 244.17 53.35 L 259.06 53.35 L 270.52 53.35 L 270.52 54.16 L 259.06 55.61 L 244.17 58.37 Z" fill="#d0d0d0" fill-opacity="0.5" stroke="none"/>
<path d="M 293.44 52.88 L 293.44 53.72 Z" fill="#d0d0d0" fill-opacity="0.5" stroke="none"/>
<path d="M 327.81 51.11 L 327.81 51.80 Z" fill="#d0d0d0" fill-opacity="0.5" stroke="none"/>
<path d="M 356.46 50.01 L 379.38 50.01 L 402.29 50.01 L 425.21 50.01 L 439.36 50.01 L 444.75 50.01 L 450.15 50.01 L 455.54 50.01 L 460.93 50.01 L 466.32 50.01 L 471.72 50.01 L 477.11 50.01 L 482.50 50.01 L 487.89 50.01 L 493.28 50.01 L 498.68 50.01 L 504.07 50.01 L 509.46 50.01 L 514.85 50.01 L 520.25 50.01 L 525.64 50.01 L 532.15 50.01 L 539.79 50.01 L 547.43 50.01 L 555.07 50.01 L 562.71 50.01 L 570.35 50.01 L 577.99 50.01 L 585.62 50.01 L 593.26 50.01 L 600.90 50.01 L 608.54 50.01 L 608.54 51.51 L 600.90 53.44 L 593.26 54.37 L 585.62 54.93 L 577.99 57.70 L 570.35 58.23 L 562.71 60.97 L 555.07 63.70 L 547.43 58.73 L 539.79 59.86 L 532.15 61.60 L 525.64 59.60 L 520.25 60.88 L 514.85 62.28 L 509.46 57.30 L 504.07 58.43 L 498.68 56.31 L 493.28 57.67 L 487.89 59.94 L 482.50 61.39 L 477.11 62.13 L 471.72 63.60 L 466.32 58.64 L 460.93 53.63 L 455.54 55.26 L 450.15 58.03 L 444.75 53.06 L 439.36 55.85 L 425.21 56.43 L 402.29 58.36 L 379.38 53.33 L 356.46 55.06 Z" fill="#d0d0d0" fill-opacity="0.5" stroke="none"/>
<path d="M 690.28 26.36 L 696.39 26.36 L 702.50 26.36 L 708.61 26.36 L 714.21 26.36 L 719.31 26.36 L 724.40 26.36 L 729.49 26.36 L 734.58 26.36 L 734.58 27.55 L 729.49 30.46 L 724.40 32.74 L 719.31 35.07 L 714.21 36.87 L 708.61 39.16 L 702.50 33.95 L 696.39 28.70 L 690.28 31.61 Z" fill="#d0d0d0" fill-opacity="0.5" stroke="none"/>
<path d="M 744.77 25.00 L 749.86 25.00 L 754.95 25.00 L 760.05 25.00 L 765.14 25.00 L 770.23 25.00 L 775.32 25.00 L 780.42 25.00 L 785.51 25.00 L 790.60 25.00 L 795.69 25.00 L 800.79 25.00 L 805.88 25.00 L 810.97 25.00 L 816.06 25.00 L 821.16 25.00 L 826.25 25.00 L 831.34 25.00 L 836.44 25.00 L 841.53 25.00 L 846.62 25.00 L 851.71 25.00 L 856.81 25.00 L 861.90 25.00 L 866.99 25.00 L 872.08 25.00 L 877.18 25.00 L 882.27 25.00 L 887.36 25.00 L 892.45 25.00 L 897.41 25.00 L 902.24 25.00 L 907.06 25.00 L 911.89 25.00 L 916.71 25.00 L 921.54 25.00 L 926.36 25.00 L 931.18 25.00 L 936.01 25.00 L 940.83 25.00 L 945.66 25.00 L 950.48 25.00 L 955.31 25.00 L 960.13 25.00 L 964.96 25.00 L 969.78 25.00 L 974.61 25.00 L 979.43 25.00 L 984.25 25.00 L 989.21 25.00 L 994.31 25.00 L 999.40 25.00 L 1004.49 25.00 L 1009.58 25.00 L 1014.68 25.00 L 1019.77 25.00 L 1024.86 25.00 L 1029.95 25.00 L 1035.05 25.00 L 1040.14 25.00 L 1045.23 25.00 L 1050.32 25.00 L 1055.42 25.00 L 1060.51 25.00 L 1065.60 25.00 L 1070.69 25.00 L 1075.79 25.00 L 1093.61 25.00 L 1124.17 25.00 L 1154.72 25.00 L 1154.72 29.88 L 1124.17 32.48 L 1093.61 34.07 L 1075.79 34.10 L 1070.69 34.95 L 1065.60 37.32 L 1060.51 39.85 L 1055.42 34.64 L 1050.32 33.15 L 1045.23 35.23 L 1040.14 37.27 L 1035.05 32.03 L 1029.95 32.04 L 1024.86 32.20 L 1019.77 34.30 L 1014.68 34.89 L 1009.58 37.56 L 1004.49 39.55 L 999.40 34.34 L 994.31 35.50 L 989.21 37.51 L 984.25 32.28 L 979.43 33.40 L 974.61 35.00 L 969.78 37.38 L 964.96 40.24 L 960.13 43.09 L 955.31 41.95 L 950.48 43.88 L 945.66 46.70 L 940.83 45.85 L 936.01 40.69 L 931.18 35.50 L 926.36 37.74 L 921.54 40.33 L 916.71 42.32 L 911.89 43.33 L 907.06 38.15 L 902.24 41.00 L 897.41 43.69 L 892.45 45.69 L 887.36 44.66 L 882.27 46.19 L 877.18 41.05 L 872.08 42.05 L 866.99 36.87 L 861.90 36.49 L 856.81 31.26 L 851.71 32.72 L 846.62 35.60 L 841.53 37.13 L 836.44 39.99 L 831.34 42.42 L 826.25 44.64 L 821.16 44.82 L 816.06 47.03 L 810.97 49.43 L 805.88 44.31 L 800.79 39.15 L 795.69 42.01 L 790.60 36.84 L 785.51 31.61 L 780.42 33.77 L 775.32 36.64 L 770.23 31.41 L 765.14 31.29 L 760.05 30.46 L 754.95 25.17 L 749.86 28.08 L 744.77 30.29 Z" fill="#d0d0d0" fill-opacity="0.5" stroke="none"/>
<polyline fill="none" stroke="#111" stroke-width="1.2" points="74.17,77.51 82.50,75.92 90.83,75.91 99.17,73.26 107.50,71.93 115.83,69.49 124.17,66.99 132.50,64.79 140.83,62.30 149.17,59.58 157.50,56.83 170.83,54.57 189.17,56.35 207.50,55.45 225.83,53.35 244.17,58.37 259.06,55.61 270.52,54.16 281.98,52.88 293.44,53.72 304.90,52.01 316.35,51.11 327.81,51.80 339.27,50.01 356.46,55.06 379.38,53.33 402.29,58.36 425.21,56.43 439.36,55.85 444.75,53.06 450.15,58.03 455.54,55.26 460.93,53.63 466.32,58.64 471.72,63.60 477.11,62.13 482.50,61.39 487.89,59.94 493.28,57.67 498.68,56.31 504.07,58.43 509.46,57.30 514.85,62.28 520.25,60.88 525.64,59.60 532.15,61.60 539.79,59.86 547.43,58.73 555.07,63.70 562.71,60.97 570.35,58.23 577.99,57.70 585.62,54.93 593.26,54.37 600.90,53.44 608.54,51.51 616.18,48.70 623.06,46.13 629.17,45.90 635.28,43.07 641.39,41.48 647.50,38.63 653.61,35.93 659.72,35.57 665.83,33.20 671.94,31.15 678.06,29.28 684.17,26.36 690.28,31.61 696.39,28.70 702.50,33.95 708.61,39.16 714.21,36.87 719.31,35.07 724.40,32.74 729.49,30.46 734.58,27.55 739.68,25.00 744.77,30.29 749.86,28.08 754.95,25.17 760.05,30.46 765.14,31.29 770.23,31.41 775.32,36.64 780.42,33.77 785.51,31.61 790.60,36.84 795.69,42.01 800.79,39.15 805.88,44.31 810.97,49.43 816.06,47.03 821.16,44.82 826.25,44.64 831.34,42.42 836.44,39.99 841.53,37.13 846.62,35.60 851.71,32.72 856.81,31.26 861.90,36.49 866.99,36.87 872.08,42.05 877.18,41.05 882.27,46.19 887.36,44.66 892.45,45.69 897.41,43.69 902.24,41.00 907.06,38.15 911.89,43.33 916.71,42.32 921.54,40.33 926.36,37.74 931.18,35.50 936.01,40.69 940.83,45.85 945.66,46.70 950.48,43.88 955.31,41.95 960.13,43.09 964.96,40.24 969.78,37.38 974.61,35.00 979.43,33.40 984.25,32.28 989.21,37.51 994.31,35.50 999.40,34.34 1004.49,39.55 1009.58,37.56 1014.68,34.89 1019.77,34.30 1024.86,32.20 1029.95,32.04 1035.05,32.03 1040.14,37.27 1045.23,35.23 1050.32,33.15 1055.42,34.64 1060.51,39.85 1065.60,37.32 1070.69,34.95 1075.79,34.10 1093.61,34.07 1124.17,32.48 1154.72,29.88"/>
<text x="620.0" y="588" text-anchor="middle" font-family="sans-serif" font-size="12" fill="#333">Monthly Balance Curve</text>
<text x="15" y="287.5" transform="rotate(-90 15,287.5)" text-anchor="middle" font-family="sans-serif" font-size="12" fill="#333">Capital</text>
</svg>